<svg version="1.1" id="bao" xmlns="http://www.w3.org/2000/svg" x="0" y="0" viewBox="0 0 500 500" style="enable-background:new 0 0 500 500" xml:space="preserve"><style>.st0{fill:#59251b}</style><path class="st0" d="M250 47.6c15 0 28 8.9 33.9 21.7 5.4-3 11.6-4.7 18.2-4.7 20.7 0 37.4 16.7 37.4 37.4 0 2-.2 4-.5 5.9 12.5 5.6 134.8 64.2 130.8 191.8-3.5 110.6-116.1 152-214.1 152-91.2 0-215.9-22.5-226.3-154.7-8.2-104.5 89-175.5 130.2-189.3-.3-1.9-.4-3.8-.4-5.7 0-20.7 16.7-37.4 37.4-37.4 7 0 13.6 1.9 19.2 5.3 5.8-13.1 18.9-22.3 34.2-22.3m0-14c-15.6 0-30.1 7.1-39.8 18.8-4.4-1.2-9-1.8-13.7-1.8-27.1 0-49.4 21.1-51.3 47.7-23.1 10.2-54.2 31.5-79.8 60.8-25.5 29.2-54.9 77-50 139C18.1 331.8 28 361 44.8 385c14.9 21.2 35.5 38.5 61.1 51.4 38.5 19.4 88.9 29.3 149.8 29.3 56.7 0 109.9-13 149.6-36.5 49.6-29.4 76.7-74 78.5-129.1 1-31.5-5.2-61.6-18.3-89.4-10.6-22.5-25.8-43.5-45-62.6-25.8-25.5-52.9-41.4-67-48.7-1.4-27.1-23.9-48.8-51.3-48.8-4.3 0-8.5.5-12.6 1.6-9.7-11.6-24.2-18.6-39.6-18.6z"/><path d="M469.8 299.7c-3.5 110.6-116.1 152-214.1 152-81.3 0-189.4-17.9-219.1-115.6C77 408.9 171 423.2 243.8 423.2c97.9 0 210.6-41.4 214.1-152 .7-22.6-2.6-43.1-8.5-61.5 13.1 25 21.5 54.9 20.4 90z" style="fill:#f1e3d6"/><path d="M457.8 271.2c-3.5 110.6-116.1 152-214.1 152-72.7 0-166.7-14.3-207.1-87.1-3.6-11.8-6.1-24.8-7.2-39-8.2-104.5 89-175.5 130.2-189.3-.3-1.9-.4-3.8-.4-5.7 0-20.7 16.8-37.4 37.4-37.4 7 0 13.6 1.9 19.2 5.3 5.8-13.1 18.9-22.3 34.2-22.3 15 0 28 8.9 34 21.7 5.4-3 11.6-4.7 18.2-4.7 9.8 0 18.7 3.8 25.4 9.9 2.6 2.5 4.9 5.3 6.8 8.4 3.3 5.6 5.2 12.1 5.2 19.1 0 2-.2 4-.5 5.9 9 4.1 75.8 36 110.3 101.8 5.9 18.3 9.1 38.7 8.4 61.4z" style="fill:#fbf7ec"/><path class="st0" d="M211 113.6v.3c-1.5 14.5-13.3 26-27.8 27.2-3.9.3-7.7-.1-11.2-1.1-3.3-1-5.6 3.3-2.8 5.4 5.8 4.4 13.2 6.8 21.2 6.1 14.9-1.3 26.8-13.6 27.7-28.5.2-3.4-.2-6.8-1-9.9-.9-3.4-5.8-2.9-6.1.5zm81.9 3.5c.1 0 .2 0 .3.1 13 3.2 22 16 21.3 30.1-.2 3.8-1.1 7.4-2.5 10.7-1.3 3.1 2.3 5.8 4.5 3.4 4.7-5.1 7.9-12 8.2-19.8.7-14.6-9-27.5-22.5-30.1-3.1-.6-6.2-.7-9.2-.2-3 .4-3.2 5.1-.1 5.8zm-36.7 8.7c.1.1.1.2.2.3 6.3 11.2 3.6 25.5-6.2 33.7-2.7 2.2-5.6 3.8-8.7 4.9-2.9 1-2.3 5.2.7 5.3 6.4.2 13-1.8 18.4-6.4 10.1-8.5 12.4-23.4 5.4-34.7-1.6-2.6-3.6-4.8-5.8-6.6-2.2-2-5.5.8-4 3.5z"/><circle class="st0" cx="167.7" cy="267.9" r="17.9"/><circle class="st0" cx="332.6" cy="267.9" r="17.9"/><path class="st0" d="M294.4 291c-2.3 5.9-6.1 13-12.5 18.8-7.1 6.5-17.2 11.4-31.9 11.4s-24.8-4.9-31.9-11.4c-6.4-5.8-10.2-12.9-12.5-18.8-2.2-5.6 2-11.5 7.9-11.5h72.9c6 0 10.2 6 8 11.5z"/><path d="M281.9 309.9c-7.1 6.5-17.2 11.4-31.9 11.4s-24.8-4.9-31.9-11.4c8.4-7.8 19.6-12.5 31.9-12.5 12.3-.1 23.5 4.7 31.9 12.5z" style="fill:#ff8884"/></svg>