<svg xmlns="http://www.w3.org/2000/svg" viewBox="0 0 500 500" style="enable-background:new 0 0 500 500" xml:space="preserve"><circle cx="250.5" cy="250.5" r="248.5" style="fill:#00ef8b"/><path d="M289.4 211.6h70.2v70.2h-70.2zm-70.2 96.5c0 14.5-11.8 26.3-26.3 26.3s-26.3-11.8-26.3-26.3 11.8-26.3 26.3-26.3h26.3v-70.1h-26.3c-53.3 0-96.5 43.2-96.5 96.5s43.2 96.5 96.5 96.5 96.5-43.2 96.5-96.5v-26.3h-70.1v26.2zm96.5-131.6h78.9v-70.2h-78.9c-53.3.1-96.4 43.2-96.5 96.5v8.8h70.1v-8.8c.1-14.5 11.9-26.3 26.4-26.3z" style="fill:#fff"/><path style="fill:#16ff99" d="M219.2 281.8h70.2v-70.2h-70.2z"/></svg>