<svg xmlns="http://www.w3.org/2000/svg" viewBox="0 0 500 500" style="enable-background:new 0 0 500 500" xml:space="preserve"><path style="fill:#f5ca45" d="M108.313 355.255c13.943.199 26.276 4.454 37.912 10.749 14.03 7.589 27.246 2.271 34.063-6.174 4.721-5.849 5.138-12.81 5.934-19.788.942-8.259.951-16.888 3.507-24.652 9.261-28.132 29.827-43.804 58.658-46.994 13.262-1.467 27.09 1.2 39.222 8.169 6.299 3.618 12.839 5.339 20.061 4.931 13.592-.768 22.386-9.322 23.569-22.927.566-6.506 1.325-12.996 2.042-19.488 3.373-30.547 30.962-57.095 66.484-59.401 25.722-1.67 52.786 15.897 63.375 40.889 20.227 47.738-12.573 92.645-57.78 98.742-14.262 1.923-28.624-2.937-41.632-10.167-13.179-7.325-30.455-3.467-36.531 11.528-2.011 4.963-2.182 10.918-2.146 16.412.072 11.026-2.768 21.24-7.278 31.085-14.025 30.616-53.447 51.453-95.433 30.379-6.007-3.015-11.66-5.422-18.513-5.16-14.024.537-24.318 10.67-25.217 24.801-.531 8.338-1.05 16.782-2.781 24.921-7.408 34.817-41.554 52.847-66.469 51.67-32.807-1.55-57.975-23.174-66.028-53.361-8.883-33.301 11.603-68.959 40.794-80.233 7.68-2.968 16.105-4.007 24.187-5.931zm-63.531-89.026c10.044 34.724 41.075 56.02 77.051 50.873 35.904-5.136 59.014-36.85 57.37-67.38-.294-5.459.661-11.313 2.456-16.494 5.065-14.618 21.482-20.839 35.467-13.983 2.94 1.441 5.688 3.347 8.73 4.493 14.145 5.327 28.44 8.693 43.79 5.187 30.636-6.997 54.325-38.356 53.007-70.337-1.229-29.846-23.917-61.356-58.402-65.83-40.189-5.214-76.149 26.675-77.714 63.519-.218 5.132-.507 10.281-1.164 15.37-2.075 16.078-14.041 24.758-31.28 21.978-3.986-.643-7.71-3.103-11.472-4.9-12.451-5.948-25.801-9.758-39.308-8.145-36.641 4.377-61.583 34.991-60.8 67.621.711 6.022.606 12.281 2.269 18.028zM108.595 5.167C69.81 4.935 40.032 38.312 39.964 73.741c-.07 36.549 30.324 68.954 68.276 68.968 37.234.014 69.089-30.126 68.367-68.579.996-36.298-28.797-68.728-68.012-68.963z"/></svg>