<svg version="1.1" id="Calque_1" xmlns="http://www.w3.org/2000/svg" x="0" y="0" viewBox="0 0 1144.4 273" style="enable-background:new 0 0 1144.4 273" xml:space="preserve"><style>.st0{fill:#fff}.st1{fill:#837fcb}</style><path id="XMLID_25_" class="st0" d="M144.8 3.5h120.4v125.8H144.8z"/><path id="XMLID_24_" class="st1" d="M144.8 141.2h120.4v128.3H144.8z"/><path id="XMLID_23_" class="st0" d="M14.5 3.5h120.4v125.8H14.5z"/><path id="XMLID_22_" class="st0" d="M14.5 141.2h120.4v128.3H14.5z"/><path class="st0" d="M421.1 3.5c21.5 0 37.1 5 46.7 15s14.4 25.1 14.4 45.4v9.4c0 13.5-2.1 24.6-6.4 33.4s-11 15.3-20.3 19.5c11.3 4.3 19.2 11.2 23.8 20.8 4.6 9.6 6.9 21.5 6.9 35.5v21.4c0 20.3-5.3 35.7-15.8 46.3-10.5 10.6-26.1 15.9-46.9 15.9h-64.9V3.5h62.5zm-21 37.5v69.4h16.1c7.8 0 13.8-2 18.2-6s6.6-11.3 6.6-21.8V68c0-9.5-1.7-16.4-5.1-20.6-3.4-4.3-8.7-6.4-15.9-6.4h-19.9zm0 106.9v80.7h23.6c7 0 12.3-1.9 15.9-5.6 3.6-3.8 5.4-10.5 5.4-20.3v-22.9c0-12.3-2.1-20.6-6.2-25.1s-10.9-6.8-20.4-6.8h-18.3zM550.5 3.5v202.6c0 9.5 1.9 16.1 5.8 19.9 3.9 3.8 9.1 5.6 15.6 5.6s11.7-1.9 15.6-5.6c3.9-3.8 5.8-10.4 5.8-19.9V3.5h39v200c0 21.3-5.2 37.6-15.6 49-10.4 11.4-25.7 17.1-46 17.1s-35.6-5.7-46-17.1-15.6-27.7-15.6-49V3.5h41.4zm110 0h41.3v225.1h67.9v37.5H660.5V3.5z"/><path class="st1" d="m841.7 161.4-12.8 24v80.7h-41.3V3.5h41.3v114.4L883 3.5h41.3l-57.4 117.1 57.4 145.6h-42.4l-40.2-104.8zM943 3.5h41.3v262.7H943V3.5zm59.3 0h127.6V41h-43.2v225.1h-41.3V41h-43.2l.1-37.5z"/></svg>