<svg data-name="Layer 1" xmlns="http://www.w3.org/2000/svg" viewBox="0 0 257.2 273"><path d="M136 0h118.9a2.26 2.26 0 0 1 2.3 2.3v124.5a2.26 2.26 0 0 1-2.3 2.3H136a2.26 2.26 0 0 1-2.3-2.3V2.3A2.26 2.26 0 0 1 136 0Zm0 141.3h118.9a2.26 2.26 0 0 1 2.3 2.3v127.1a2.26 2.26 0 0 1-2.3 2.3H136a2.26 2.26 0 0 1-2.3-2.3V143.6a2.26 2.26 0 0 1 2.3-2.3ZM2.3 0h118.9a2.26 2.26 0 0 1 2.3 2.3v124.5a2.26 2.26 0 0 1-2.3 2.3H2.3a2.26 2.26 0 0 1-2.3-2.3V2.3A2.26 2.26 0 0 1 2.3 0Zm0 141.3h118.9a2.26 2.26 0 0 1 2.3 2.3v127.1a2.26 2.26 0 0 1-2.3 2.3H2.3a2.26 2.26 0 0 1-2.3-2.3V143.6a2.26 2.26 0 0 1 2.3-2.3Z" style="fill:#4a00e0"/></svg>