<svg version="1.1" id="Layer_1" xmlns="http://www.w3.org/2000/svg" x="0" y="0" viewBox="0 0 192.8 192.8" style="enable-background:new 0 0 192.8 192.8" xml:space="preserve"><style>.st1{fill-rule:evenodd;clip-rule:evenodd;fill:#ee7203}</style><path d="M0 0h149.7c23.8 0 43 19.3 43 43v106.7c0 23.8-19.3 43-43 43H43c-23.8 0-43-19.3-43-43V0z" style="fill-rule:evenodd;clip-rule:evenodd;fill:#482683"/><path class="st1" d="m151.8 107-5.7-6.3-5.6 6.3h-11.8l11.6-12.9-11.6-12.9h12.2l5.7 6.3 5.5-6.3h11.7l-11.5 12.9L164 107h-12.2zm-45.7 0V66.3h22.6v9.1h-13v5.8h13v8.7h-13v8h13v9.1h-22.6z"/><path d="M96.6 66.3V83h-.1c-2.1-2.4-4.8-3.3-7.8-3.3-6.3 0-11 4.3-12.7 9.9-1.9-6.2-6.8-10-14-10-5.9 0-10.5 2.6-12.9 6.9v-5.3H36.9v-5.8h13.3v-9.1H26.1V107h10.8V89.9h10.8c-.3 1.3-.5 2.6-.5 4 0 8.5 6.5 14.5 14.8 14.5 7 0 11.6-3.3 14-9.2h-9.3c-1.3 1.8-2.2 2.3-4.7 2.3-2.9 0-5.4-2.5-5.4-5.5h18.9c.8 6.8 6.1 12.6 13.3 12.6 3.1 0 6-1.5 7.7-4.1h.1v2.6h9.5V66.3h-9.5zM56.9 90c.6-2.6 2.6-4.3 5.1-4.3 2.8 0 4.7 1.6 5.2 4.3H56.9zm33.9 10.8c-3.5 0-5.7-3.3-5.7-6.7 0-3.7 1.9-7.2 5.7-7.2 3.9 0 5.5 3.5 5.5 7.2 0 3.5-1.7 6.7-5.5 6.7zm45.2 25.7v-.7c.9 0 1.3-.4 1.3-1.1v-6c0-1.5-.3-2-1.4-2v-.7h3.1v2.4c.3-1.2 1.1-2.7 2.4-2.7.9 0 1.7.7 1.7 1.9 0 .8-.5 1.3-1.1 1.3-.5 0-1-.3-1-1.2 0-.5.5-1 .7-1.1 0-.2-.3-.3-.4-.3-1.4 0-2.1 3.3-2.1 5.2v3.1c0 .7.4 1.1 1.9 1.1v.7H136v.1zm-6.8-4.9c0-3.8 1.1-5.1 2.3-5.1 1.1 0 1.9 1.4 1.9 4.8s-.8 4.8-2 4.8c-.9-.1-2.2-1.1-2.2-4.5zm-2.8-5c.6.1.9.2.9 1.1v10.9c0 .7-.4 1.1-1.4 1.1v.7h5v-.7c-1.3 0-1.6-.4-1.6-1.1v-3.4c.4.8 1.2 1.4 2.3 1.4 2.4 0 4-2.5 4-5.6 0-2.3-1.3-5.6-3.8-5.6-1.4 0-2.3 1-2.7 2.1v-1.8h-2.7v.9zm-21.9 9.9v-.7c1.4-.1 1.6-.4 1.6-1.5v-10.8c0-1.2-.3-1.4-1.6-1.5v-.7h10.4v5.3h-.7c-.5-2.9-1.3-4.6-3.9-4.6-1.6 0-2 .5-2 1.5v4.6h.8c1.6 0 2-.8 2.2-2.7h.7v6.1h-.7c-.3-1.9-.9-2.6-2.3-2.6h-.8v5.4c0 .9.3 1.5 1.7 1.5 2.9 0 4.2-1.4 4.6-4.8h.7v5.5h-10.7zm21.5 0h-4.6v-.7c.8 0 1-.2 1-.5s-.2-.6-1.9-3.1c-1.4 2.2-1.6 2.6-1.6 2.9 0 .4.4.6 1 .6v.7h-3.8v-.7c.8-.1 1.4-.4 2.1-1.5l1.8-2.8-2.8-4.3c-.3-.4-.5-.5-1.2-.6v-.7h4.4v.7c-.7 0-1 .1-1 .5 0 .3.2.5 1.8 2.9 1.4-2.2 1.6-2.4 1.6-2.9 0-.3-.2-.5-1.1-.5v-.7h3.6v.7c-.5 0-1.1.4-1.6 1.1l-2 3 2.7 4.2c.4.6.7.8 1.6.9v.8zm19.5-6.2c0-2.8.8-3.9 2.1-3.9 1.2 0 1.8 1.1 1.8 3.9h-3.9zm6.1.8c0-3.2-1.6-5.5-4-5.5-2.5 0-4.3 2.3-4.3 5.6 0 2.8 1.8 5.6 4.6 5.6 2.1 0 3.2-1.3 3.7-3.4l-.7-.1c-.4 1.6-1.1 2.7-2.8 2.7-1.5 0-2.6-1.7-2.6-4.8h6.1v-.1zm1.1 5.4v-3.7h.7c.2 1.4 1.1 3.3 2.7 3.3 1.1 0 1.9-.7 1.9-1.9 0-2.9-5.3-1.6-5.3-5.5 0-1.4 1-3 2.9-3 1.2 0 1.7.7 2.1.7.2 0 .3-.2.4-.4h.7v3.2h-.7c-.2-1.2-1-2.8-2.4-2.8-1 0-1.6.6-1.6 1.6 0 2.7 5.5 1.5 5.5 5.5 0 1.4-1.1 3.3-3.4 3.3-1.5 0-1.9-.8-2.5-.8-.2 0-.4.3-.4.5h-.6zm7.8 0v-3.7h.7c.2 1.4 1.1 3.3 2.7 3.3 1.1 0 1.9-.7 1.9-1.9 0-2.9-5.3-1.6-5.3-5.5 0-1.4 1-3 2.9-3 1.2 0 1.7.7 2.1.7.2 0 .3-.2.4-.4h.7v3.2h-.6c-.2-1.2-1-2.8-2.4-2.8-1 0-1.6.6-1.6 1.6 0 2.7 5.5 1.5 5.5 5.5 0 1.4-1.1 3.3-3.4 3.3-1.5 0-1.9-.8-2.5-.8-.2 0-.4.3-.4.5h-.7z" style="fill:#fff;fill-rule:evenodd;clip-rule:evenodd"/><path class="st1" d="M166.6 104.4c0-1.4 1.2-2.6 2.6-2.6 1.5 0 2.6 1.2 2.6 2.6 0 1.5-1.2 2.6-2.6 2.6-1.5 0-2.6-1.1-2.6-2.6zm4.8 0c0-1.2-1-2.2-2.2-2.2-1.2 0-2.2 1-2.2 2.2 0 1.2 1 2.2 2.2 2.2 1.2 0 2.2-1 2.2-2.2zm-2.8.2v1.3h-.5v-3.1h1c.6 0 1.1.2 1.1.9 0 .4-.2.6-.6.7.4.1.5.3.5.6s.1.6.2.9h-.6c0-.2-.1-.4-.1-.6 0-.3 0-.5-.2-.7-.1-.1-.3-.1-.4-.1h-.4v.1zm.5-.5c.5 0 .6-.2.6-.4s-.1-.3-.5-.3h-.6v.8h.5v-.1z"/></svg>