<svg version="1.1" id="Calque_1" xmlns="http://www.w3.org/2000/svg" x="0" y="0" viewBox="0 0 422 422" style="enable-background:new 0 0 422 422" xml:space="preserve"><style>.st2{fill:#0d1226}</style><path d="M73.6 312.9v-95.2l-39.8-16.9v141.9c0 7.1 5.8 12.9 12.9 12.9h18.5c2.2-12.7 10.1-23.7 21.4-29.8h-.2c-7 0-12.8-5.8-12.8-12.9zm52.6 12.9c11.4 6.1 19.3 17.1 21.4 29.8h95.5v-29.8H126.2zm-39.5 0h39.5c-12.4-6.6-27.2-6.6-39.5 0z" style="fill:#d4e1f4"/><path d="M26.9 178.2c-3.8 0-7 3.1-7 7v157.5c0 14.8 12 26.8 26.9 26.9h24.9c3.8 0 7-3.1 7-7 0-3.8-3.1-7-7-7H46.8c-7.1 0-12.9-5.8-12.9-12.9V185.2c-.1-3.8-3.2-7-7-7zm215.2 75.4v102H141.2c-3.8 0-7 3.1-7 7 0 3.8 3.1 7 7 7h159.1c3.8 0 7-3.1 7-7 0-3.8-3.1-7-7-7H256v-95h151.7v82.1c0 7.1-5.8 12.9-12.9 12.9H370c-3.8 0-7 3.1-7 7 0 3.8 3.1 7 7 7h24.9c14.8 0 26.8-12 26.9-26.9v-90c0-.1 0-.2-.1-.4 0-.1 0-.2-.1-.3 0-.1-.1-.2-.1-.3 0-.1-.1-.2-.1-.3 0-.1-.1-.2-.1-.3 0-.1-.1-.2-.1-.3 0-.1-.1-.2-.1-.3-.1-.1-.1-.2-.2-.3-.1-.1-.1-.2-.2-.3-.1-.1-.1-.2-.2-.3-.1-.1-.1-.2-.2-.3-.1-.1-.2-.2-.2-.3l-.1-.1-51.2-55.8c-5.1-5.5-12.3-8.7-19.8-8.7h-92.8v-72.2c0-14.8-12-26.8-26.9-26.9h-73.2c-3.8 0-7 3.1-7 7 0 3.8 3.1 7 7 7h73.1c7.1 0 12.9 5.8 12.9 12.9v141.4zm106.7-55.3c3.6 0 7.1 1.5 9.5 4.2l40.5 44.2H256.1v-48.3h92.7v-.1z" style="fill:#6978a8"/><path class="st2" d="M335.1 404.4c-23.1 0-41.8-18.7-41.8-41.8s18.7-41.8 41.8-41.8 41.8 18.7 41.8 41.8c0 23-18.7 41.7-41.8 41.8zm0-69.7c-15.4 0-27.8 12.5-27.8 27.8 0 15.4 12.5 27.8 27.8 27.8S363 378 363 362.6c0-15.4-12.5-27.8-27.9-27.9zM86.5 218.6C38.7 218.6 0 179.9 0 132.1s38.7-86.5 86.5-86.5S173 84.3 173 132.1s-38.7 86.5-86.5 86.5zm0-159.1c-40.1 0-72.6 32.5-72.6 72.6s32.5 72.6 72.6 72.6 72.6-32.5 72.6-72.6-32.5-72.5-72.6-72.6z"/><path class="st2" d="M128.2 139.2H86.8c-3.8 0-7-3.1-7-7V90.8c0-3.8 3.1-7 7-7s7 3.1 7 7v34.4h34.4c3.8 0 7 3.1 7 7-.1 3.9-3.2 7-7 7zm-21.8 265.2c-23.1 0-41.8-18.7-41.8-41.8s18.7-41.8 41.8-41.8 41.8 18.7 41.8 41.8c0 23-18.7 41.7-41.8 41.8zm0-69.7c-15.4 0-27.8 12.5-27.8 27.8 0 15.4 12.5 27.8 27.8 27.8s27.8-12.5 27.8-27.8-12.4-27.7-27.8-27.8z"/></svg>