<svg id="Layer_1" data-name="Layer 1" xmlns="http://www.w3.org/2000/svg" viewBox="0 0 512 512"><defs><style>.cls-1{fill:#837fcb}</style></defs><path class="cls-1" d="m499.12 425.73-200.94-1.14a10 10 0 0 0-10.06 9.94 16.68 16.68 0 0 1-16.76 16.57l-33.23-.19a16.69 16.69 0 0 1-16.57-16.75 10 10 0 0 0-9.94-10.06l-156.11-.89L57 166.26a20.85 20.85 0 0 1 21-20.72l124.71.71.09.87-20.89 19.49-.21.2a95.57 95.57 0 0 0-28.55 67.84l-.25 44.65a10 10 0 0 0 16.66 7.52l44-39.23a10 10 0 0 0 5.77 4.58 129.05 129.05 0 0 0 36.14 5.5h.44a129.13 129.13 0 0 0 36.65-5.09 10 10 0 0 0 5.91-4.71l43.77 39.93a10 10 0 0 0 6.68 2.62 10.16 10.16 0 0 0 4.07-.84 10 10 0 0 0 6-9.11l.25-44.65a95.53 95.53 0 0 0-27.77-68.15l-19.11-19.33.19-1.47 122.85.69a20.87 20.87 0 0 1 20.72 21l-1 183.34a10 10 0 1 0 20 .11l1-183.34a40.88 40.88 0 0 0-40.6-41.06l-120.54-.69A166.16 166.16 0 0 0 273 2.18L271.21.24a17.07 17.07 0 0 0-12.61-5.68h-.12A17.1 17.1 0 0 0 245.76.28L242.42 4a166.84 166.84 0 0 0-41.68 122.2L78 125.54a40.88 40.88 0 0 0-41 40.6l-1.46 257-24.6-.14a10 10 0 0 0-10 9.94L.8 448.49a56.68 56.68 0 0 0 56.29 56.94l395 2.24A56.68 56.68 0 0 0 509 451.38l.09-15.59a10 10 0 0 0-9.97-10.06ZM304 211.28l5-37.84 8.19 8.29a75.67 75.67 0 0 1 22 54l-.19 22.14-36.78-33.56ZM257.36 17.33l1.15-1.3a146.12 146.12 0 0 1 35.67 116.31l-2.4 18.22-10.06 76.29-1.07 8.15a108.74 108.74 0 0 1-24.72 2.69h-.38a109.67 109.67 0 0 1-24.16-2.93l-7.45-76.09-.83-8.56-2.11-21.24a146.76 146.76 0 0 1 36.36-111.54Zm-47.15 206.35L173 256.92l.12-22.16a75.68 75.68 0 0 1 22.51-53.62l9.59-8.95Zm241.94 264L57.2 485.43a36.65 36.65 0 0 1-36.4-36.82v-5.59l182.06 1A36.73 36.73 0 0 0 238 470.91l33.23.19a36.72 36.72 0 0 0 35.43-26.46l182.32 1v5.59a36.66 36.66 0 0 1-36.83 36.44Z"/><path class="cls-1" d="m425.33 169.83-50.33-.28a10 10 0 0 0-.12 20l40.34.22-1.09 193.74-314.36-1.78 1.1-193.73 31.72.18a10 10 0 1 0 .11-20l-41.7-.24a10 10 0 0 0-10.06 9.94l-1.22 213.74a10 10 0 0 0 9.94 10.05l334.34 1.9a10 10 0 0 0 10.06-9.94l1.21-213.74a10 10 0 0 0-9.94-10.06Z"/><circle class="cls-1" cx="256.87" cy="100.12" r="10"/><circle class="cls-1" cx="464.73" cy="395.51" r="10"/><path class="cls-1" d="M229.89 272.05a10 10 0 0 0-10.06 9.95l-.23 40.7a10 10 0 0 0 20 .12l.23-40.71a10 10 0 0 0-9.94-10.06Zm50.82-2.05a10 10 0 0 0-10.06 10l-.34 60a10 10 0 1 0 20 .12l.34-60a10 10 0 0 0-9.94-10.12Z"/></svg>