<svg version="1.1" id="Calque_1" xmlns="http://www.w3.org/2000/svg" x="0" y="0" viewBox="0 0 200 200" style="enable-background:new 0 0 200 200" xml:space="preserve"><style>.st1,.st2{stroke-width:3}.st1{fill:none;stroke:#c0d7f1;stroke-linecap:round;stroke-miterlimit:10}.st2{stroke-linejoin:round}.st2,.st3,.st4,.st5{fill:none;stroke:#c0d7f1;stroke-linecap:round;stroke-miterlimit:10}.st4,.st5{stroke:#039be5;stroke-width:3;stroke-linejoin:round}.st5{stroke-width:2}</style><path id="XMLID_78_" class="st1" d="M55.9 68.8v98.6"/><path id="XMLID_77_" class="st1" d="M66.6 68.8v98.6"/><path id="XMLID_76_" class="st1" d="M77.3 68.8v98.6"/><path id="XMLID_75_" class="st1" d="M87.9 68.8v98.6"/><path id="XMLID_74_" class="st1" d="M98.6 68.8v98.6"/><path id="XMLID_73_" class="st1" d="M45.3 170.1V71.4c0-2.9 2.4-5.3 5.3-5.3h53.3c2.9 0 5.3 2.4 5.3 5.3v98.7"/><path id="XMLID_71_" class="st2" d="M66.1 66.1v-8h24.5v8"/><path id="XMLID_70_" class="st2" d="M77.3 50.1v5.3"/><path id="XMLID_72_" class="st1" d="M37.3 170.1h117.3"/><path id="XMLID_39_" class="st3" d="M137.8 57.1c-.1-.2-.2-.4-.3-.5-.2-.4-.2-.7-.2-1.2 0-1.5 1.3-2.8 2.8-2.8s2.8 1.3 2.8 2.8-1.3 2.8-2.8 2.8"/><path id="XMLID_38_" class="st3" d="M131 23.9c-.1-.2-.2-.4-.3-.5-.2-.4-.2-.7-.2-1.2 0-1.5 1.3-2.8 2.8-2.8s2.8 1.3 2.8 2.8-1.3 2.8-2.8 2.8"/><path id="XMLID_69_" class="st4" d="M149.3 123.4c0-.5-.1-.9-.1-1.3.1-.4.1-.9.1-1.3 0-3-1.4-5.6-3.6-7.3.6-1 .9-2.1.9-3.4 0-2.9-1.8-5.3-4.4-6.2 1.1-1.2 1.7-2.7 1.7-4.4a6.7 6.7 0 0 0-13.4 0c0 2.9 1.8 5.3 4.4 6.2-.1.1-.3.3-.4.5-1.2-1.6-3.1-2.7-5.3-2.7-3.7 0-6.7 3-6.7 6.7 0 1.9.8 3.6 2.1 4.8-1.3 1.6-2.1 3.6-2.1 5.8 0 2 .7 3.9 1.8 5.4-2.7 1.6-4.4 4.6-4.4 7.9 0 5.2 4.2 9.3 9.3 9.3 1.3 0 2.4-.3 3.5-.7 1.7 2 4.3 3.4 7.1 3.4 5.2 0 9.3-4.2 9.3-9.3 0-2.6-1.1-5-2.8-6.7 1.9-1.7 3-4.1 3-6.7z"/><path id="XMLID_68_" class="st4" d="M135.9 146.1v24"/><path id="XMLID_67_" class="st4" d="M130.6 127.4s-1.6 4.2 2.7 5.3"/><path id="XMLID_66_" class="st4" d="M135.9 116.8s1.3.3 2.7 2.7"/><path id="XMLID_40_" class="st5" d="M99.4 48.5c-.2-.2-.4-.5-.5-.8-.2-.5-.4-1.1-.4-1.7 0-2.3 1.9-4.1 4.1-4.1s4.1 1.9 4.1 4.1c0 2.3-1.9 4.1-4.1 4.1"/><path id="XMLID_37_" d="M120.3 69.5c.2 0 .4.1.6.2.4.1.7.3 1 .6 1.1 1.1 1.1 2.9 0 3.9-1.1 1.1-2.9 1.1-3.9 0-1.1-1.1-1.1-2.9 0-3.9" style="fill:none;stroke:#039be5;stroke-linecap:round;stroke-linejoin:round;stroke-miterlimit:10"/><path id="XMLID_34_" class="st5" d="M155.4 80.5c-.2-.2-.4-.5-.5-.8-.2-.5-.4-1.1-.4-1.7 0-2.3 1.9-4.1 4.1-4.1 2.3 0 4.1 1.9 4.1 4.1 0 2.3-1.9 4.1-4.1 4.1"/></svg>