<svg id="Layer_1" data-name="Layer 1" xmlns="http://www.w3.org/2000/svg" viewBox="0 0 180 170"><defs><style>.cls-2{fill:none;stroke:#837fcb;stroke-linecap:round;stroke-linejoin:round;stroke-width:4px}</style></defs><path d="M24.6 48h130.9v91H24.6zm51.2 0 65.8-25.3 8.9 24.6" style="stroke:#4c626e;stroke-miterlimit:10;stroke-width:5px;fill:none"/><path class="cls-2" d="m106.8 47.6 28-10.3 3.6 9.9M36 59.4h108.1v68.3H36z"/><path class="cls-2" d="M53 59.4a17.09 17.09 0 0 1-17.1 17.1m105.3 0a17.09 17.09 0 0 1-17.1-17.1m0 68.3a17.09 17.09 0 0 1 17.1-17.1m-105.2 0a17.09 17.09 0 0 1 17.1 17.1m43.1-44.6a7.72 7.72 0 0 0-6.6-4C82.2 79 79 89.6 87.7 92.6c13.6 4.7 8.7 15.6 2 15.7a8.81 8.81 0 0 1-8.1-4.3m7.7-29.6.2 38.8"/></svg>