<svg data-name="Layer 1" xmlns="http://www.w3.org/2000/svg" viewBox="0 0 180 170"><path d="M24.8 58.2h130.4M24.8 79.4h130.4M91.5 128H36.9a12.08 12.08 0 0 1-12.1-12.1V46.1A12.08 12.08 0 0 1 36.9 34h106.2a12.08 12.08 0 0 1 12.1 12.1v42.5M97.6 67.3v3m12.1-3v3m12.2-3v3m12.1-3v3" style="stroke:#4c626e;stroke-miterlimit:10;stroke-width:5px;fill:none"/><path d="M143.1 146.2h-24.3a6.06 6.06 0 0 1-6.1-6.1v-18.2h36.4v18.2a6 6 0 0 1-6 6.1Zm-28.8-28.1a16.7 16.7 0 1 1 33.4 0" style="stroke:#f5c62c;stroke-linecap:round;stroke-linejoin:round;stroke-width:4px;fill:none"/></svg>