<svg id="Layer_1" data-name="Layer 1" xmlns="http://www.w3.org/2000/svg" viewBox="0 0 500 340"><defs><style>.cls-1{opacity:.3}.cls-2{fill:#80b1e0}.cls-3{fill:#fff}.cls-4{fill:#0f7cff}.cls-5{fill:#519fed}.cls-6{fill:#a5caef}.cls-7{opacity:.39}</style></defs><g class="cls-1"><path class="cls-2" d="M444.85 309.75a188.36 188.36 0 0 0-16.28-76.85 59.64 59.64 0 0 0-71.41-82.8 188.25 188.25 0 0 0-101.43-29.47q-7 0-13.82.5a48.71 48.71 0 0 0-74.8 21.52 190 190 0 0 0-39.44 27.95 54 54 0 0 0-66 52.65 53.76 53.76 0 0 0 12.24 34.23 189 189 0 0 0-7.32 52.27Z"/></g><g class="cls-1"><path class="cls-2" d="M393.11 309.75a137.38 137.38 0 1 0-274.75 0Z"/></g><g class="cls-1"><path class="cls-2" d="M464 237.56a10.77 10.77 0 1 1-10.77-10.77A10.77 10.77 0 0 1 464 237.56Z"/></g><g class="cls-1"><circle class="cls-2" cx="297.04" cy="103.21" r="16.59" transform="rotate(-76.67 297.053 103.205)"/></g><g class="cls-1"><path class="cls-2" d="M145.51 143.75a7.11 7.11 0 1 1-7.1-7.11 7.11 7.11 0 0 1 7.1 7.11Z"/></g><g class="cls-1"><circle class="cls-2" cx="362.27" cy="130.73" r="7.11"/></g><g class="cls-1"><path class="cls-2" d="M212.64 82.66a7.11 7.11 0 1 1-7.1-7.11 7.1 7.1 0 0 1 7.1 7.11Z"/></g><g class="cls-1"><path class="cls-2" d="M452.23 263.61a2.92 2.92 0 1 1-2.92-2.91 2.92 2.92 0 0 1 2.92 2.91Z"/></g><g class="cls-1"><path class="cls-2" d="M361.1 80.47a2.19 2.19 0 1 1-2.19-2.19 2.19 2.19 0 0 1 2.19 2.19Z"/></g><g class="cls-1"><circle class="cls-2" cx="141.23" cy="91.38" r="2.85"/></g><g class="cls-1"><path class="cls-2" d="M25.55 155.05a3.79 3.79 0 1 1-3.79-3.8 3.79 3.79 0 0 1 3.79 3.8Z"/></g><g class="cls-1"><path class="cls-2" d="M482 182.83a3.79 3.79 0 1 1-3.79-3.8 3.79 3.79 0 0 1 3.79 3.8Z"/></g><g class="cls-1"><circle class="cls-2" cx="82.68" cy="139.7" r="16.08"/></g><g class="cls-1"><path class="cls-2" d="M39.14 257a3.79 3.79 0 1 1-3.79-3.8 3.79 3.79 0 0 1 3.79 3.8Z"/></g><g class="cls-1"><path class="cls-2" d="M458 143.75a15.59 15.59 0 1 1-15.58-15.59A15.58 15.58 0 0 1 458 143.75Z"/></g><g class="cls-1"><circle class="cls-2" cx="35.35" cy="214.18" r="15.32"/></g><circle class="cls-3" cx="136.69" cy="247.36" r="23.93" transform="rotate(-76.65 136.706 247.365)"/><path class="cls-2" d="M136.69 223.43a23.89 23.89 0 0 0-20.6 11.79 23.9 23.9 0 0 1 37 29.56 23.91 23.91 0 0 0-16.37-41.35Z"/><path class="cls-4" d="M138.23 249.75h-11.45v-3.32h11.45a3.79 3.79 0 0 0 0-7.57h-11.45v-3.32h11.45a7.11 7.11 0 1 1 0 14.21Z"/><path class="cls-4" d="M140.21 260.47h-13.43v-3.32h13.43c2.61 0 4.73-1.7 4.73-3.78s-2.12-3.78-4.73-3.78h-13.43v-3.33h13.43c4.44 0 8 3.19 8 7.11s-3.56 7.1-8 7.1Z"/><path class="cls-4" d="M129.34 231.84h3.32v31.03h-3.32zm5.05 0h3.32v5.36h-3.32zm0 26.97h3.32v4.06h-3.32z"/><path class="cls-4" d="M136.69 273a25.59 25.59 0 1 1 25.59-25.59A25.62 25.62 0 0 1 136.69 273Zm0-47.86A22.27 22.27 0 1 0 159 247.36a22.29 22.29 0 0 0-22.31-22.27Z"/><path class="cls-3" d="M384.69 184.49A28.53 28.53 0 1 1 356.17 156a28.53 28.53 0 0 1 28.52 28.49Z"/><path class="cls-2" d="M356.17 156a28.48 28.48 0 0 0-24.56 14 28.49 28.49 0 0 1 44.07 35.24A28.5 28.5 0 0 0 356.17 156Z"/><path class="cls-4" d="M358 187h-13.65v-3.3H358a4.83 4.83 0 0 0 0-9.66h-13.65v-3.32H358a8.15 8.15 0 0 1 0 16.3Z"/><path class="cls-4" d="M360.37 199.8h-16v-3.32h16c3.28 0 5.95-2.16 5.95-4.83s-2.67-4.82-5.95-4.82h-16v-3.33h16c5.11 0 9.27 3.66 9.27 8.15s-4.16 8.15-9.27 8.15Z"/><path class="cls-4" d="M347.73 165.99h3.32v36.99h-3.32zm6.01 0h3.32v6.39h-3.32zm0 32.15h3.32v4.84h-3.32z"/><path class="cls-4" d="M356.17 214.68a30.19 30.19 0 1 1 30.19-30.19 30.23 30.23 0 0 1-30.19 30.19Zm0-57.06A26.87 26.87 0 1 0 383 184.49a26.9 26.9 0 0 0-26.83-26.87Z"/><circle class="cls-3" cx="324.7" cy="189.64" r="23.93" transform="rotate(-76.65 324.723 189.64)"/><path class="cls-2" d="M324.7 165.71a23.89 23.89 0 0 0-20.6 11.79 23.9 23.9 0 0 1 37 29.56 23.91 23.91 0 0 0-16.37-41.35Z"/><path class="cls-4" d="M326.24 192h-11.45v-3.32h11.45a3.78 3.78 0 0 0 0-7.56h-11.45v-3.32h11.45a7.1 7.1 0 1 1 0 14.2Z"/><path class="cls-4" d="M328.22 202.75h-13.43v-3.32h13.43c2.61 0 4.73-1.69 4.73-3.78s-2.12-3.78-4.73-3.78h-13.43v-3.32h13.43c4.44 0 8 3.18 8 7.1s-3.56 7.1-8 7.1Z"/><path class="cls-4" d="M317.35 174.13h3.32v31.03h-3.32zm5.05 0h3.32v5.36h-3.32zm0 26.96h3.32v4.06h-3.32z"/><path class="cls-4" d="M324.7 215.23a25.59 25.59 0 1 1 25.59-25.59 25.62 25.62 0 0 1-25.59 25.59Zm0-47.86a22.27 22.27 0 1 0 22.3 22.27 22.29 22.29 0 0 0-22.3-22.27Z"/><circle class="cls-3" cx="414.77" cy="188.28" r="23.93" transform="rotate(-76.65 414.8 188.27)"/><path class="cls-2" d="M414.77 164.35a23.89 23.89 0 0 0-20.6 11.79 23.9 23.9 0 0 1 37 29.56 23.91 23.91 0 0 0-16.37-41.35Z"/><path class="cls-4" d="M416.31 190.67h-11.45v-3.32h11.45a3.78 3.78 0 1 0 0-7.56h-11.45v-3.32h11.45a7.1 7.1 0 1 1 0 14.2Z"/><path class="cls-4" d="M418.29 201.39h-13.43v-3.32h13.43c2.61 0 4.73-1.7 4.73-3.78s-2.12-3.78-4.73-3.78h-13.43v-3.32h13.43c4.44 0 8 3.18 8 7.1s-3.56 7.1-8 7.1Z"/><path class="cls-4" d="M407.42 172.76h3.32v31.03h-3.32zm5.05 0h3.32v5.36h-3.32zm0 26.97h3.32v4.06h-3.32z"/><path class="cls-4" d="M414.77 213.87a25.59 25.59 0 1 1 25.59-25.59 25.62 25.62 0 0 1-25.59 25.59Zm0-47.86A22.27 22.27 0 1 0 437 188.28 22.29 22.29 0 0 0 414.77 166Z"/><circle class="cls-3" cx="392.95" cy="195.06" r="23.93" transform="rotate(-76.65 392.976 195.05)"/><path class="cls-2" d="M393 171.13a23.89 23.89 0 0 0-20.6 11.79 23.9 23.9 0 0 1 37 29.56 23.91 23.91 0 0 0-16.4-41.35Z"/><path class="cls-4" d="M394.49 197.45H383v-3.32h11.45a3.78 3.78 0 1 0 0-7.56H383v-3.32h11.45a7.1 7.1 0 1 1 0 14.2Z"/><path class="cls-4" d="M396.47 208.17H383v-3.32h13.43c2.61 0 4.73-1.69 4.73-3.78s-2.12-3.78-4.73-3.78H383V194h13.43c4.44 0 8 3.18 8 7.1s-3.52 7.07-7.96 7.07Z"/><path class="cls-4" d="M385.6 179.55h3.32v31.03h-3.32zm5.05 0h3.32v5.36h-3.32zm0 26.96h3.32v4.06h-3.32z"/><path class="cls-4" d="M393 220.65a25.59 25.59 0 1 1 25.59-25.59A25.62 25.62 0 0 1 393 220.65Zm0-47.86a22.27 22.27 0 1 0 22.27 22.27A22.29 22.29 0 0 0 393 172.79Z"/><circle class="cls-3" cx="171.21" cy="254.81" r="23.93" transform="rotate(-76.65 171.227 254.817)"/><path class="cls-2" d="M171.21 230.88a23.9 23.9 0 0 0-20.6 11.8 23.9 23.9 0 0 1 37 29.56 23.91 23.91 0 0 0-16.37-41.36Z"/><path class="cls-4" d="M172.75 257.21H161.3v-3.33h11.45a3.78 3.78 0 0 0 0-7.56H161.3V243h11.45a7.11 7.11 0 1 1 0 14.21Z"/><path class="cls-4" d="M174.74 267.93H161.3v-3.32h13.44c2.6 0 4.72-1.7 4.72-3.78s-2.12-3.79-4.72-3.79H161.3v-3.32h13.44c4.43 0 8 3.19 8 7.11s-3.57 7.1-8 7.1Z"/><path class="cls-4" d="M163.86 239.3h3.32v31.03h-3.32zm5.05 0h3.32v5.36h-3.32zm0 26.97h3.32v4.06h-3.32z"/><path class="cls-4" d="M171.21 280.4a25.59 25.59 0 1 1 25.59-25.59 25.61 25.61 0 0 1-25.59 25.59Zm0-47.86a22.27 22.27 0 1 0 22.27 22.27 22.29 22.29 0 0 0-22.27-22.27Zm-42.46-35.82h-9.46a1.66 1.66 0 0 1 0-3.32h9.46a1.66 1.66 0 0 1 0 3.32Z"/><path class="cls-4" d="M124 201.45a1.66 1.66 0 0 1-1.66-1.66v-9.46a1.66 1.66 0 1 1 3.32 0v9.46a1.66 1.66 0 0 1-1.66 1.66Zm333-30.6h-9.5a1.66 1.66 0 0 1 0-3.32h9.5a1.66 1.66 0 1 1 0 3.32Z"/><path class="cls-4" d="M452.23 175.58a1.67 1.67 0 0 1-1.66-1.66v-9.46a1.66 1.66 0 1 1 3.32 0v9.46a1.66 1.66 0 0 1-1.66 1.66Zm-169.07-40.75h-9.46a1.66 1.66 0 0 1 0-3.32h9.46a1.66 1.66 0 0 1 0 3.32Z"/><path class="cls-4" d="M278.43 139.56a1.66 1.66 0 0 1-1.66-1.66v-9.46a1.66 1.66 0 1 1 3.32 0v9.46a1.67 1.67 0 0 1-1.66 1.66Zm115.16-7.04a1.66 1.66 0 0 1-1.17-2.83l6.69-6.69a1.66 1.66 0 0 1 2.35 2.34l-6.69 6.7a1.68 1.68 0 0 1-1.18.48Z"/><path class="cls-4" d="M400.28 132.52a1.66 1.66 0 0 1-1.17-.48l-6.69-6.7a1.66 1.66 0 0 1 2.35-2.34l6.69 6.69a1.66 1.66 0 0 1 0 2.35 1.68 1.68 0 0 1-1.18.48Zm-159.14 31.74 4.2-2.42 4.21 2.42v4.86l-4.21 2.43-4.2-2.43v-4.86zM97.55 97.05l4.2-2.42 4.2 2.42v4.86l-4.2 2.42-4.2-2.42v-4.86zm309.83-15.16 4.21-2.43 4.2 2.43v4.86l-4.2 2.42-4.21-2.42v-4.86zm30.85 160.34 4.21-2.42 4.2 2.42v4.86l-4.2 2.43-4.21-2.43v-4.86zM272.75 72.28l5.68-3.28 5.67 3.28v6.54l-5.67 3.28-5.68-3.28v-6.54zm13.82 32.59h-93.72a1.66 1.66 0 1 1 0-3.32h93.72a1.66 1.66 0 1 1 0 3.32Zm-99.57 0h-5.38a1.66 1.66 0 1 1 0-3.32H187a1.66 1.66 0 1 1 0 3.32Zm-14.2 0h-9.47a1.66 1.66 0 0 1 0-3.32h9.47a1.66 1.66 0 1 1 0 3.32Z"/><path class="cls-4" d="M168.06 109.6a1.66 1.66 0 0 1-1.66-1.66v-9.46a1.66 1.66 0 1 1 3.32 0v9.46a1.66 1.66 0 0 1-1.66 1.66Zm55.62 29.3h-9.46a1.66 1.66 0 1 1 0-3.32h9.46a1.66 1.66 0 0 1 0 3.32Z"/><path class="cls-4" d="M219 143.63a1.66 1.66 0 0 1-1.66-1.66v-9.46a1.66 1.66 0 0 1 3.32 0V142a1.66 1.66 0 0 1-1.66 1.63Zm143.52-35.8a1.64 1.64 0 0 1-1.17-.48l-6.69-6.7a1.65 1.65 0 0 1 2.34-2.34l6.69 6.69a1.66 1.66 0 0 1 0 2.35 1.64 1.64 0 0 1-1.17.48Z"/><path class="cls-4" d="M355.83 107.83a1.64 1.64 0 0 1-1.17-.48 1.66 1.66 0 0 1 0-2.35l6.69-6.69a1.65 1.65 0 0 1 2.34 2.34l-6.69 6.7a1.64 1.64 0 0 1-1.17.48ZM383 129.18h-57.85a1.66 1.66 0 1 1 0-3.32H383a1.66 1.66 0 1 1 0 3.32Zm-199.34 9.72H71.12a1.66 1.66 0 0 1 0-3.32h112.54a1.66 1.66 0 1 1 0 3.32ZM458 105.3h-88.53a1.66 1.66 0 0 1 0-3.32H458a1.66 1.66 0 1 1 0 3.32Zm-251.91 33.6h-10.65a1.66 1.66 0 0 1 0-3.32h10.65a1.66 1.66 0 1 1 0 3.32ZM80.26 164.81l3.26-1.88 3.26 1.88v3.76l-3.26 1.89-3.26-1.89v-3.76z"/><path class="cls-5" d="M207.83 180.71H215a.87.87 0 0 1 .87.87v127.29a.87.87 0 0 1-.87.87h-7.2a.88.88 0 0 1-.87-.87V181.59a.87.87 0 0 1 .9-.88Z"/><path class="cls-2" d="M210.21 308.32V182.14a1.43 1.43 0 0 1 1.43-1.43h-3.26a1.43 1.43 0 0 0-1.43 1.43v126.18a1.43 1.43 0 0 0 1.43 1.43h3.26a1.43 1.43 0 0 1-1.43-1.43Z"/><path class="cls-4" d="M214 311.41h-5.08a3.61 3.61 0 0 1-3.6-3.6V182.65a3.61 3.61 0 0 1 3.6-3.6H214a3.6 3.6 0 0 1 3.6 3.6v125.16a3.6 3.6 0 0 1-3.6 3.6Zm-5.08-129a.28.28 0 0 0-.27.28v125.12a.28.28 0 0 0 .27.28H214a.28.28 0 0 0 .28-.28V182.65a.28.28 0 0 0-.28-.28Z"/><path class="cls-3" d="M266.68 204.47c-15.08-8.43-32.6-13.64-55.61-13.64s-40.52 5.21-55.6 13.64v10.59c12.34-6.9 27.43-11.65 45.53-13.14.45 0 1.43 4.81 1.89 4.78 3.57-.26 4.48-.4 8.18-.4s4.46.13 8 .38c.64 0 1.79-4.79 2.43-4.73 18 1.52 32.94 6.25 45.22 13.11Z"/><path class="cls-5" d="M211.07 190.83c-23 0-40.52 5.21-55.6 13.64v4.89c15.08-8.43 32.59-13.65 55.6-13.65s40.53 5.22 55.61 13.65v-4.89c-15.08-8.47-32.6-13.64-55.61-13.64Z"/><path class="cls-4" d="M153.81 217.89V203.5l.85-.47c16.91-9.46 34.83-13.86 56.41-13.86s39.5 4.4 56.42 13.86l.85.47v14.39l-2.47-1.38c-12.54-7-27.21-11.32-43.6-12.83-.16.39-.34.87-.47 1.21-.77 2.07-1.28 3.57-2.88 3.45l-1.78-.13c-2.14-.17-3.21-.25-6.07-.25s-4.07.09-6.3.26l-1.76.13c-1.58.13-2-1.27-2.66-3.57-.1-.33-.22-.75-.34-1.11-16.45 1.5-31.16 5.81-43.73 12.84Zm67.6-17.61h.19c16.19 1.37 30.78 5.4 43.42 12v-6.83c-16.15-8.84-33.32-13-53.95-13s-37.79 4.12-53.94 13v6.83c12.71-6.63 27.41-10.67 43.73-12 1.58-.15 2 1.26 2.67 3.56.11.34.23.76.35 1.13l.64-.05c2.24-.17 3.47-.27 6.55-.27s4.17.09 6.32.26l.83.06c.16-.39.34-.88.47-1.23.74-2 1.31-3.46 2.72-3.46Z"/><path class="cls-5" d="M59.07 220.86h49.55a14.73 14.73 0 0 1 14.73 14.73v23H59.07v-37.73Z"/><path class="cls-5" d="M96.9 240.83H59.07v-57.32a37.83 37.83 0 0 1 37.83 37.83Zm-37.83 6.26h72.41a14.73 14.73 0 0 1 14.73 14.73v23H59.07v-37.73Z"/><path class="cls-6" d="M113.6 247.09h-7.75a32.61 32.61 0 0 1 32.61 32.61v5.11h7.75v-5.11a32.61 32.61 0 0 0-32.61-32.61Z"/><path class="cls-5" d="M59.07 272h120.41a14.73 14.73 0 0 1 14.73 14.73v23H59.07V272Z"/><path class="cls-4" d="M59.07 303.1v6.65h135.14v-5.12c0-.52-.05-1-.07-1.53Zm62.07-54.35a1.66 1.66 0 0 1-1.66-1.66c0-14.36-11.7-25.19-27.2-25.19H73.51a1.67 1.67 0 0 1 0-3.33h18.77c17.4 0 30.52 12.26 30.52 28.52a1.67 1.67 0 0 1-1.66 1.66Z"/><path class="cls-4" d="M98.56 221.34h-3.32a36.22 36.22 0 0 0-36.17-36.17v-3.32a39.54 39.54 0 0 1 39.49 39.49Zm47.27 51.6a1.65 1.65 0 0 1-1.63-1.39 27.08 27.08 0 0 0-26.85-22.8H92.57a1.66 1.66 0 0 1 0-3.32h24.78A30.39 30.39 0 0 1 147.48 271a1.67 1.67 0 0 1-1.38 1.9 1.23 1.23 0 0 1-.27.04ZM86.7 248.75h-4.77a1.66 1.66 0 0 1 0-3.32h4.77a1.66 1.66 0 0 1 0 3.32Zm-10.98 0h-5.88a1.66 1.66 0 0 1 0-3.32h5.88a1.66 1.66 0 0 1 0 3.32Z"/><path class="cls-4" d="M194.21 311.41a1.67 1.67 0 0 1-1.66-1.66v-8.87a27.23 27.23 0 0 0-27.2-27.2h-45.89a1.66 1.66 0 1 1 0-3.32h45.89a30.55 30.55 0 0 1 30.52 30.52v8.87a1.66 1.66 0 0 1-1.66 1.66Zm-81.88-37.73h-7.22a1.66 1.66 0 1 1 0-3.32h7.22a1.66 1.66 0 1 1 0 3.32Z"/><g class="cls-7"><circle class="cls-6" cx="77.98" cy="288.06" r="5.53"/></g><g class="cls-7"><circle class="cls-6" cx="69.84" cy="204.4" r="5.53"/></g><g class="cls-7"><circle class="cls-6" cx="132.18" cy="284.81" r="5.53"/></g><g class="cls-7"><circle class="cls-4" cx="105.85" cy="288.06" r="4.1"/></g><g class="cls-7"><circle class="cls-6" cx="69.84" cy="264.8" r="4.1"/></g><g class="cls-7"><circle class="cls-6" cx="154.86" cy="293.6" r="4.1"/></g><g class="cls-7"><circle class="cls-6" cx="69.84" cy="233.66" r="4.1"/></g><g class="cls-7"><circle class="cls-6" cx="94.22" cy="276.82" r="2.72"/></g><g class="cls-7"><circle class="cls-4" cx="179.58" cy="293.6" r="2.72"/></g><g class="cls-7"><path class="cls-4" d="M99.5 236.38a2.72 2.72 0 1 1-2.72-2.72 2.72 2.72 0 0 1 2.72 2.72Z"/></g><g class="cls-7"><circle class="cls-4" cx="86.69" cy="212.17" r="2.72"/></g><g class="cls-7"><circle class="cls-4" cx="164.57" cy="280.64" r="1.47"/></g><g class="cls-7"><path class="cls-4" d="M89.63 259.18a1.47 1.47 0 1 1-1.47-1.46 1.47 1.47 0 0 1 1.47 1.46Z"/></g><g class="cls-7"><path class="cls-6" d="M126.07 296.32a2.72 2.72 0 1 1-2.72-2.72 2.72 2.72 0 0 1 2.72 2.72Z"/></g><g class="cls-7"><path class="cls-6" d="M117.77 260.74a2.72 2.72 0 1 1-2.72-2.72 2.72 2.72 0 0 1 2.72 2.72Z"/></g><circle class="cls-3" cx="190.32" cy="285.37" r="23.93" transform="rotate(-76.65 190.342 285.374)"/><path class="cls-2" d="M190.32 261.44a23.9 23.9 0 0 0-20.6 11.79 23.9 23.9 0 0 1 37 29.56 23.91 23.91 0 0 0-16.37-41.35Z"/><path class="cls-4" d="M191.87 287.76h-11.46v-3.32h11.46a3.78 3.78 0 0 0 0-7.56h-11.46v-3.32h11.46a7.1 7.1 0 0 1 0 14.2Z"/><path class="cls-4" d="M193.85 298.48h-13.44v-3.32h13.44c2.6 0 4.72-1.69 4.72-3.78s-2.12-3.78-4.72-3.78h-13.44v-3.32h13.44c4.43 0 8 3.18 8 7.1s-3.57 7.1-8 7.1Z"/><path class="cls-4" d="M182.98 269.86h3.32v31.03h-3.32zm5.04 0h3.32v5.36h-3.32zm0 26.96h3.32v4.06h-3.32z"/><path class="cls-4" d="M190.32 311a25.59 25.59 0 1 1 25.59-25.59A25.62 25.62 0 0 1 190.32 311Zm0-47.86a22.27 22.27 0 1 0 22.27 22.27 22.29 22.29 0 0 0-22.27-22.31Z"/><path class="cls-5" d="M296.18 275.43h13.23v6.14h-13.23z"/><path class="cls-4" d="M311.07 283.23h-16.55v-9.46h16.55Zm-13.23-3.32h9.9v-2.82h-9.9Z"/><path class="cls-3" d="m288.6 284.28 7.58-2.71v-6.14l-7.58-2.72v11.57z"/><path class="cls-4" d="M286.94 286.64v-16.29l10.9 3.91v8.48Zm3.32-11.57v6.85l4.26-1.52v-3.8Z"/><path class="cls-5" transform="rotate(180 434.98 278.5)" d="M428.37 275.43h13.23v6.14h-13.23z"/><path class="cls-4" d="M443.25 283.23h-16.54v-9.46h16.54ZM430 279.91h9.9v-2.82H430Z"/><path class="cls-3" d="m449.18 284.28-7.59-2.71v-6.14l7.59-2.72v11.57z"/><path class="cls-4" d="m450.84 286.64-10.91-3.9v-8.48l10.91-3.91Zm-7.59-6.24 4.26 1.52v-6.85l-4.26 1.53Z"/><path class="cls-3" d="M346.65 297.83a11.92 11.92 0 1 1-11.92-11.92 11.92 11.92 0 0 1 11.92 11.92Z"/><path class="cls-4" d="M339.17 297.83a4.44 4.44 0 1 1-4.44-4.44 4.43 4.43 0 0 1 4.44 4.44Z"/><path class="cls-4" d="M334.74 311.41a13.58 13.58 0 1 1 13.57-13.58 13.6 13.6 0 0 1-13.57 13.58Zm0-23.84A10.26 10.26 0 1 0 345 297.83a10.27 10.27 0 0 0-10.26-10.26Z"/><path class="cls-3" d="M413.15 297.83a11.92 11.92 0 1 1-11.92-11.92 11.92 11.92 0 0 1 11.92 11.92Z"/><path class="cls-4" d="M405.66 297.83a4.44 4.44 0 1 1-4.43-4.44 4.43 4.43 0 0 1 4.43 4.44Z"/><path class="cls-4" d="M401.23 311.41a13.58 13.58 0 1 1 13.58-13.58 13.6 13.6 0 0 1-13.58 13.58Zm0-23.84a10.26 10.26 0 1 0 10.26 10.26 10.27 10.27 0 0 0-10.26-10.26Z"/><path class="cls-2" d="M419.4 280.44H319.25l-13.57-82.6h127.3l-13.58 82.6z"/><g class="cls-1"><path class="cls-4" d="m428.74 223.62 4.24-25.78h-127.3l4.23 25.78h118.83z"/></g><path class="cls-4" d="M420.82 282.1h-103l-14.12-85.92h131.23Zm-100.16-3.32H418l13-79.28H307.63Z"/><path class="cls-5" d="M288.26 197.84H450.4v16.41H288.26z"/><path class="cls-3" d="M288.26 197.84H450.4v6.15H288.26z"/><path class="cls-4" d="M452.06 215.91H286.59v-19.73h165.47Zm-162.14-3.32h158.82V199.5H289.92Z"/><path class="cls-5" d="M305.68 272.3h127.3v12.52h-127.3z"/><path class="cls-3" d="M305.68 272.3h127.3v6.26h-127.3z"/><path class="cls-4" d="M434.63 286.48H304v-15.84h130.63Zm-127.29-3.32h124V274h-124ZM356 230.53h-43.88a1.66 1.66 0 0 1 0-3.32H356a1.66 1.66 0 0 1 0 3.32Zm0 27.14h-40.77a1.66 1.66 0 0 1 0-3.32H356a1.66 1.66 0 0 1 0 3.32Zm17.18-27.14h-10.64a1.66 1.66 0 0 1 0-3.32h10.64a1.66 1.66 0 0 1 0 3.32Z"/><path class="cls-5" d="M341.52 294.72h-13.57l-4.07-9.9h21.71l-4.07 9.9z"/><path class="cls-4" d="M342.63 296.38h-15.79l-5.44-13.22h26.67Zm-13.57-3.32h11.35l2.7-6.58h-16.75Z"/><path class="cls-5" d="M408.01 294.72h-13.57l-4.07-9.9h21.71l-4.07 9.9z"/><path class="cls-4" d="M409.13 296.38h-15.8l-5.44-13.22h26.67Zm-13.57-3.32h11.34l2.71-6.58h-16.76Z"/><path class="cls-3" d="M284.06 301.69h-10.7v-2.75a34.07 34.07 0 0 0-34.07-34.07 34.07 34.07 0 0 0-34.07 34.07V309l-6.65.72h93.55a8.06 8.06 0 0 0-8.06-8.03Z"/><path class="cls-6" d="M273.36 301.69v-2.75a34.07 34.07 0 0 0-34.07-34.07 34 34 0 0 0-29 16.33 34 34 0 0 1 23.64-9.57c18.82 0 36.7 11.19 36.7 30Zm-73.56 7.92-1.23.14h1.23v-.14z"/><path class="cls-4" d="M293.78 311.41h-95.21a1.66 1.66 0 1 1 0-3.32h91.67a6.41 6.41 0 0 0-6.18-4.74h-24.57a1.66 1.66 0 1 1 0-3.32h24.57a9.73 9.73 0 0 1 9.72 9.72Z"/><path class="cls-4" d="M205.21 311.41a1.67 1.67 0 0 1-1.66-1.66v-10.81a35.74 35.74 0 0 1 71.48 0 1.67 1.67 0 0 1-3.33 0 32.42 32.42 0 0 0-64.83 0v10.81a1.66 1.66 0 0 1-1.66 1.66Z"/><path class="cls-4" d="M221.07 311.41a1.66 1.66 0 0 1-1.66-1.66v-6A20.57 20.57 0 0 1 240 283.16a1.66 1.66 0 1 1 0 3.32 17.25 17.25 0 0 0-17.27 17.26v6a1.66 1.66 0 0 1-1.66 1.67Z"/><path class="cls-5" d="M270.24 271.87c-7.75 0-14 5.4-14 12.06s6.29 12.06 14 12.06Z"/><path class="cls-4" d="M271.9 297.65h-1.66c-8.66 0-15.7-6.15-15.7-13.72s7-13.72 15.7-13.72h1.66Zm-3.32-24c-6 .69-10.72 5.05-10.72 10.31s4.68 9.63 10.72 10.31Z"/><path class="cls-3" d="M279.54 283.93c0 6.66-3.1 12.06-6.93 12.06s-6.94-5.4-6.94-12.06 3.11-12.06 6.94-12.06 6.93 5.4 6.93 12.06Z"/><path class="cls-4" d="M272.61 297.65c-4.82 0-8.6-6-8.6-13.72s3.78-13.72 8.6-13.72 8.59 6 8.59 13.72-3.78 13.72-8.59 13.72Zm0-24.12c-2.5 0-5.28 4.27-5.28 10.4s2.78 10.4 5.28 10.4 5.27-4.27 5.27-10.4-2.78-10.4-5.27-10.4Zm187.81 37.88H52.65a1.66 1.66 0 1 1 0-3.32h407.77a1.66 1.66 0 0 1 0 3.32Zm12.02 0h-6a1.66 1.66 0 0 1 0-3.32h6a1.66 1.66 0 0 1 0 3.32Zm-425.77 0H36.46a1.66 1.66 0 1 1 0-3.32h10.21a1.66 1.66 0 0 1 0 3.32Z"/></svg>