<svg id="Layer_1" data-name="Layer 1" xmlns="http://www.w3.org/2000/svg" viewBox="0 0 500 340"><defs><style>.cls-1{opacity:.3}.cls-2{fill:#f4b0b0}.cls-3{fill:#fc8686}.cls-4{fill:#fff}.cls-6{fill:#f55}</style></defs><g class="cls-1"><path class="cls-2" d="M449.26 309.71a192.8 192.8 0 0 0-16.64-78.59 61 61 0 0 0-73-84.66 192.41 192.41 0 0 0-103.72-30.15q-7.12 0-14.13.51a49.8 49.8 0 0 0-76.49 22 193.78 193.78 0 0 0-40.34 28.58 55.19 55.19 0 0 0-67.46 53.83 55 55 0 0 0 12.51 35 193.6 193.6 0 0 0-7.49 53.45Z"/></g><g class="cls-1"><path class="cls-2" d="M396.35 309.71a140.49 140.49 0 0 0-281 0Z"/></g><g class="cls-1"><path class="cls-2" d="M468.82 235.89a11 11 0 1 1-11-11 11 11 0 0 1 11 11Z"/></g><g class="cls-1"><circle class="cls-2" cx="298.1" cy="98.5" r="16.97" transform="rotate(-76.67 298.115 98.496)"/></g><g class="cls-1"><path class="cls-2" d="M143.15 140a7.27 7.27 0 1 1-7.27-7.27 7.27 7.27 0 0 1 7.27 7.27Z"/></g><g class="cls-1"><circle class="cls-2" cx="364.81" cy="126.64" r="7.27"/></g><g class="cls-1"><path class="cls-2" d="M211.8 77.48a7.27 7.27 0 1 1-7.27-7.27 7.28 7.28 0 0 1 7.27 7.27Z"/></g><g class="cls-1"><path class="cls-2" d="M456.81 262.54a3 3 0 1 1-3-3 3 3 0 0 1 3 3Z"/></g><g class="cls-1"><path class="cls-2" d="M363.62 75.24a2.24 2.24 0 1 1-2.24-2.24 2.24 2.24 0 0 1 2.24 2.24Z"/></g><g class="cls-1"><circle class="cls-2" cx="138.76" cy="86.4" r="2.92"/></g><g class="cls-1"><path class="cls-2" d="M20.47 151.51a3.88 3.88 0 1 1-3.88-3.88 3.88 3.88 0 0 1 3.88 3.88Z"/></g><g class="cls-1"><path class="cls-2" d="M487.29 179.92a3.88 3.88 0 1 1-3.88-3.88 3.88 3.88 0 0 1 3.88 3.88Z"/></g><g class="cls-1"><circle class="cls-2" cx="78.9" cy="135.82" r="16.44"/></g><g class="cls-1"><path class="cls-2" d="M34.37 255.72a3.88 3.88 0 1 1-3.88-3.88 3.88 3.88 0 0 1 3.88 3.88Z"/></g><g class="cls-1"><path class="cls-2" d="M462.74 140a15.95 15.95 0 1 1-15.94-16 15.94 15.94 0 0 1 15.94 16Z"/></g><g class="cls-1"><circle class="cls-2" cx="30.49" cy="211.99" r="15.66"/></g><path class="cls-3" d="M436.47 211.73a31.53 31.53 0 0 0 3.91-9.46l12.53-2.88v-10l-12.53-1.73a31.43 31.43 0 0 0-3.91-9.46l6-9.24-7.1-7.1-9.23 6a31.61 31.61 0 0 0-9.37-3.89l-1.91-10.49h-10l-2.71 10.47a31.74 31.74 0 0 0-9.46 3.89l-9.26-5.89-7.1 7.07 6 9.15a31.68 31.68 0 0 0-3.93 9.45l-11 1.86v10l11 2.76a31.74 31.74 0 0 0 3.89 9.46l-5.95 9.27 7.09 7.09 9.2-6A31.76 31.76 0 0 0 402 226a18.4 18.4 0 0 0 14.2.19l.45-.18a31.51 31.51 0 0 0 9.46-3.9l9.29 6 7.1-7.09Z"/><path class="cls-4" d="M425.94 210.68a22.8 22.8 0 1 1 0-32.25 22.81 22.81 0 0 1 0 32.25Z"/><path d="M425.94 178.43a22.69 22.69 0 0 0-15.49-6.65 22.78 22.78 0 0 1-8.88 44 22.79 22.79 0 0 0 24.37-37.37Z" style="fill:#eaeafd"/><path class="cls-3" d="M415.15 234.73a.56.56 0 0 0-.55-.56h-10.46a.56.56 0 0 0-.56.56v76h11.57Z"/><path class="cls-4" d="M408.16 310.68h7v-76a.56.56 0 0 0-.55-.56h-6.44Z"/><path class="cls-6" d="m436.1 229.87-9.57-6.18a33.38 33.38 0 0 1-9 3.55l-.78-3.3a30.1 30.1 0 0 0 9-3.7l.91-.56 9.05 5.85 5.15-5.15-5.87-9 .57-.91a29.78 29.78 0 0 0 3.7-8.95l.25-1 12.24-2.82v-7.2l-12.21-1.68-.27-1.14a30 30 0 0 0-3.7-8.95l-.57-.91 5.82-9-5.15-5.15-9 5.82-.92-.56a29.76 29.76 0 0 0-8.86-3.69l-1.08-.25-1.86-10.19h-7.35l-2.6 10.13-1 .23a30.16 30.16 0 0 0-9 3.68l-.91.56-9-5.74-5.16 5.15 5.82 8.89-.57.92a29.83 29.83 0 0 0-3.72 8.95l-.26 1.09-10.7 1.81v7.27l10.72 2.69.23 1a30 30 0 0 0 3.69 8.95l.56.91-5.79 9 5.15 5.15 8.95-5.83.92.57a30.06 30.06 0 0 0 8.95 3.71l-.78 3.31a33.43 33.43 0 0 1-9-3.57l-9.46 6.16-9-9 6.12-9.54a33.54 33.54 0 0 1-3.3-8l-11.3-2.83v-12.79l11.32-1.91a33.4 33.4 0 0 1 3.3-7.92l-6.16-9.42 9.05-9 9.52 6.06a33.78 33.78 0 0 1 8-3.3l2.81-10.81h12.77l2 10.81a33 33 0 0 1 7.86 3.26l9.51-6.15 9 9-6.15 9.51a33 33 0 0 1 3.28 7.9l12.86 1.77v12.87l-12.83 2.95a32.88 32.88 0 0 1-3.31 8l6.21 9.53Z"/><path class="cls-6" d="M409.82 219a24.49 24.49 0 1 1 17.32-41.81A24.49 24.49 0 0 1 409.82 219Zm0-45.58a21.1 21.1 0 1 0 14.92 6.17 21 21 0 0 0-14.92-6.13Zm7.03 137.26h-3.4v-74.81h-8.17v74.81h-3.39v-76a2.26 2.26 0 0 1 2.25-2.26h10.46a2.26 2.26 0 0 1 2.25 2.26Z"/><path class="cls-6" d="M408.07 221.66h3.4v11.19h-3.4zm-4.02-14.79-9.58-9.58 2.4-2.4 7.18 7.18 17.47-17.47 2.4 2.4-19.87 19.87zM95.6 203.42h-9.68a1.7 1.7 0 0 1 0-3.4h9.68a1.7 1.7 0 0 1 0 3.4Z"/><path class="cls-6" d="M90.76 208.26a1.7 1.7 0 0 1-1.7-1.7v-9.68a1.7 1.7 0 0 1 3.4 0v9.68a1.7 1.7 0 0 1-1.7 1.7Zm-23.47-85.49h-9.68a1.7 1.7 0 1 1 0-3.4h9.68a1.7 1.7 0 0 1 0 3.4Z"/><path class="cls-6" d="M62.45 127.61a1.7 1.7 0 0 1-1.7-1.7v-9.68a1.7 1.7 0 0 1 3.4 0v9.68a1.7 1.7 0 0 1-1.7 1.7Zm421.92 76.18h-9.68a1.7 1.7 0 1 1 0-3.4h9.68a1.7 1.7 0 0 1 0 3.4Z"/><path class="cls-6" d="M479.53 208.63a1.7 1.7 0 0 1-1.7-1.7v-9.68a1.7 1.7 0 0 1 3.4 0v9.68a1.7 1.7 0 0 1-1.7 1.7ZM135.06 176a1.7 1.7 0 0 1-1.2-2.9l6.84-6.84a1.7 1.7 0 0 1 2.4 2.4l-6.84 6.84a1.71 1.71 0 0 1-1.2.5Z"/><path class="cls-6" d="M141.9 176a1.71 1.71 0 0 1-1.2-.5l-6.84-6.84a1.7 1.7 0 0 1 2.4-2.4l6.84 6.84a1.7 1.7 0 0 1-1.2 2.9Zm268.95-71.35 4.3-2.48 4.3 2.48v4.96l-4.3 2.49-4.3-2.49v-4.96zM153.28 88.53l4.3-2.48 4.3 2.48v4.97l-4.3 2.48-4.3-2.48v-4.97zm54.57 57.03 4.3-2.49 4.3 2.49v4.96l-4.3 2.48-4.3-2.48v-4.96zm245.66 103.06 4.3-2.48 4.3 2.48v4.97l-4.3 2.48-4.3-2.48v-4.97zM254.88 71.35l5.8-3.35 5.8 3.35v6.7l-5.8 3.34-5.8-3.34v-6.7zm77.67 28.85h-95.84a1.7 1.7 0 0 1 0-3.4h95.84a1.7 1.7 0 0 1 0 3.4Zm-101.82 0h-5.5a1.7 1.7 0 1 1 0-3.4h5.5a1.7 1.7 0 1 1 0 3.4Zm-14.53 0h-9.68a1.7 1.7 0 0 1 0-3.4h9.68a1.7 1.7 0 1 1 0 3.4Z"/><path class="cls-6" d="M211.36 105a1.7 1.7 0 0 1-1.7-1.7v-9.64a1.7 1.7 0 1 1 3.4 0v9.68a1.7 1.7 0 0 1-1.7 1.66Zm67.31 20.71H269a1.7 1.7 0 1 1 0-3.39h9.68a1.7 1.7 0 1 1 0 3.39Z"/><path class="cls-6" d="M273.83 130.55a1.7 1.7 0 0 1-1.7-1.7v-9.67a1.7 1.7 0 1 1 3.4 0v9.67a1.7 1.7 0 0 1-1.7 1.7Zm80.04 14.52a1.68 1.68 0 0 1-1.2-.49l-6.84-6.85a1.68 1.68 0 0 1 0-2.4 1.7 1.7 0 0 1 2.4 0l6.84 6.85a1.7 1.7 0 0 1 0 2.4 1.68 1.68 0 0 1-1.2.49Z"/><path class="cls-6" d="M347 145.07a1.69 1.69 0 0 1-1.2-2.89l6.84-6.85a1.7 1.7 0 0 1 2.4 2.4l-6.84 6.85a1.7 1.7 0 0 1-1.2.49Zm-222.74 27.55h-59.2a1.7 1.7 0 1 1 0-3.4h59.2a1.7 1.7 0 0 1 0 3.4Zm113.48-46.91H122.65a1.7 1.7 0 1 1 0-3.39h115.09a1.7 1.7 0 1 1 0 3.39Zm213.8 16.77H361a1.7 1.7 0 1 1 0-3.39h90.56a1.7 1.7 0 1 1 0 3.39Zm-190.86-16.77h-10.9a1.7 1.7 0 1 1 0-3.39h10.9a1.7 1.7 0 1 1 0 3.39ZM75.56 256.25l3.33-1.93 3.34 1.93v3.85l-3.34 1.92-3.33-1.92v-3.85z"/><path class="cls-3" d="M157.58 165.94h198.58v130.87H157.58z"/><g style="opacity:.5"><path d="M282.8 165.94h-22.15L157.58 269v22.16L282.8 165.94zM157.58 202.2v52.44l88.7-88.7h-52.44l-36.26 36.26z" style="fill:#ffd7d7"/></g><path class="cls-4" d="M362.64 309.72H149.69a1 1 0 0 1-.94-.78l-4.56-23.73a1.1 1.1 0 0 1 1.08-1.31h96l5 5h19.84l5-5h96a1.11 1.11 0 0 1 1.09 1.31l-4.56 23.73a1 1 0 0 1-1 .78Z"/><path class="cls-6" d="M362.64 311.42H149.69a2.66 2.66 0 0 1-2.61-2.17l-4.56-23.72a2.8 2.8 0 0 1 2.76-3.33H242l5 5h18.44l4.95-5h96.72a2.8 2.8 0 0 1 2.75 3.33l-4.55 23.73a2.68 2.68 0 0 1-2.67 2.16ZM150.3 308H362l4.31-22.42h-94.6l-5 5h-21.17l-5-5H146Z"/><path class="cls-6" d="M357.9 284.28h-3.39V168.6H157.83v115.68h-3.4V168.4a3.2 3.2 0 0 1 3.2-3.2h197.08a3.19 3.19 0 0 1 3.19 3.2Z"/><path class="cls-4" d="M203.71 257.05h8.38v3.4h-8.38zm19.15 0h8.38v3.4h-8.38zm19.15 0h8.38v3.4h-8.38zm19.15 0h8.38v3.4h-8.38zm19.15 0h8.38v3.4h-8.38zm19.14 0h8.38v3.4h-8.38zm-97.34-57.69h25.62v3.4h-25.62zm-12.68 18.88h38.3v3.4h-38.3zm19.15 18.89h19.15v3.4h-19.15zm-24.15 0h14.42v3.4h-14.42zm-8.73-37.77h17.45v3.4H175.7z"/><path class="cls-4" d="M197.79 207.39a6.34 6.34 0 1 1 6.33-6.33 6.34 6.34 0 0 1-6.33 6.33Zm0-9.27a2.94 2.94 0 1 0 2.94 2.94 2.94 2.94 0 0 0-2.94-2.94Zm5.9 47.04a6.34 6.34 0 1 1 6.34-6.33 6.34 6.34 0 0 1-6.34 6.33Zm0-9.27a2.94 2.94 0 1 0 2.94 2.94 2.94 2.94 0 0 0-2.94-2.94Zm-23.14 9.27a6.34 6.34 0 1 1 6.33-6.33 6.34 6.34 0 0 1-6.33 6.33Zm0-9.27a2.94 2.94 0 1 0 2.94 2.94 2.94 2.94 0 0 0-2.94-2.94Zm-8.31-28.5a6.34 6.34 0 1 1 6.33-6.33 6.35 6.35 0 0 1-6.33 6.33Zm0-9.27a2.94 2.94 0 1 0 2.94 2.94 2.94 2.94 0 0 0-2.94-2.94Zm12.94 28.16a6.34 6.34 0 1 1 6.34-6.34 6.35 6.35 0 0 1-6.34 6.34Zm0-9.28a2.94 2.94 0 1 0 2.94 2.94 2.94 2.94 0 0 0-2.94-2.94Zm104.74-17.64h11.4v3.4h-11.4zm0 18.88h22.81v3.4h-22.81zm31.7 0h13.16v3.4h-13.16zm-31.7 18.89h9.17v3.4h-9.17zm18.39 0h24.78v3.4h-24.78zm2.73-37.77h13.17v3.4h-13.17z"/><path class="cls-4" d="M306.4 207.39a6.34 6.34 0 1 1 6.34-6.33 6.34 6.34 0 0 1-6.34 6.33Zm0-9.27a2.94 2.94 0 1 0 2.94 2.94 2.94 2.94 0 0 0-2.94-2.94Zm-2.57 47.04a6.34 6.34 0 1 1 6.33-6.33 6.34 6.34 0 0 1-6.33 6.33Zm0-9.27a2.94 2.94 0 1 0 2.94 2.94 2.94 2.94 0 0 0-2.94-2.94Zm33.17 9.27a6.34 6.34 0 1 1 6.34-6.33 6.34 6.34 0 0 1-6.34 6.33Zm0-9.27a2.94 2.94 0 1 0 2.94 2.94 2.94 2.94 0 0 0-2.94-2.94Zm-8.38-28.5a6.34 6.34 0 1 1 6.33-6.33 6.34 6.34 0 0 1-6.33 6.33Zm0-9.27a2.94 2.94 0 1 0 2.94 2.94 2.94 2.94 0 0 0-2.94-2.94Zm-11.84 28.16a6.34 6.34 0 1 1 6.34-6.34 6.35 6.35 0 0 1-6.34 6.34Zm0-9.28a2.94 2.94 0 1 0 2.94 2.94 2.94 2.94 0 0 0-2.94-2.94Zm22.22 9.28a6.34 6.34 0 1 1 6.34-6.34 6.35 6.35 0 0 1-6.34 6.34Zm0-9.28a2.94 2.94 0 1 0 2.94 2.94A2.94 2.94 0 0 0 339 217Z"/><rect class="cls-4" x="228.04" y="190" width="62.2" height="58.19" rx=".19"/><path class="cls-2" d="M289.77 190h-7v50.23a.47.47 0 0 1-.46.47H228v7a.47.47 0 0 0 .47.47h61.26a.47.47 0 0 0 .47-.47v-57.23a.47.47 0 0 0-.43-.47Z"/><path class="cls-6" d="M289.5 249.89h-61.35a2.12 2.12 0 0 1-2.12-2.12v-57.34a2.13 2.13 0 0 1 2.12-2.13h61.35a2.13 2.13 0 0 1 2.12 2.13v57.34a2.12 2.12 0 0 1-2.12 2.12Zm-60.08-3.4h58.8V191.7h-58.8Z"/><path class="cls-6" d="M282 190h-3.39v-14.59a19.81 19.81 0 0 0-39.61 0V190h-3.39v-14.59a23.2 23.2 0 1 1 46.39 0Zm-23.18 23.05a6.05 6.05 0 1 0 6.05 6 6 6 0 0 0-6.05-6Z"/><path class="cls-6" d="M258.82 232a12.92 12.92 0 1 1 12.93-12.92A12.94 12.94 0 0 1 258.82 232Zm0-22.45a9.53 9.53 0 1 0 9.53 9.53 9.53 9.53 0 0 0-9.53-9.51Z"/><g class="cls-1"><path class="cls-6" d="M367.06 282.2h-9.16v-62.08h-8.21l-2.57 10.21a35.76 35.76 0 0 0-8.8 3.63l-8.93-5.3-9.59 9.55 5.26 8.95a36.12 36.12 0 0 0-3.72 8.94l-9.42 2.95v13.5l9.43 2.21a36.72 36.72 0 0 0 3.64 8.83l-5.65 8.68 9.56 9.59 9.28-5a35.85 35.85 0 0 0 8.91 3.72l2.62 10.8h13.13a2.44 2.44 0 0 0 .47-.09l2.52-10.7c.4-.11.79-.24 1.19-.36l2.82-14.71a2.8 2.8 0 0 0-2.75-3.33Z"/></g><path class="cls-4" d="M406.46 270.94V260l-9.13-2.48a34.28 34.28 0 0 0-4.26-10.28l5.45-8.89-7.71-7.72-9 5.35a34.48 34.48 0 0 0-10.27-4.26l-2.51-9.91h-10.9l-2.5 9.91a34.44 34.44 0 0 0-10.17 4.28l-8.67-5.14-7.73 7.69 5.11 8.68a34.73 34.73 0 0 0-4.28 10.26l-9.14 2.87v10.91l9.12 2.14a34.36 34.36 0 0 0 4.25 10.28l-5.48 8.42 7.7 7.72 9-4.87a34.26 34.26 0 0 0 10.27 4.28l2.55 10.49h10.9l2.46-10.49a34.26 34.26 0 0 0 10.27-4.24l9 5.29 7.72-7.7-5.48-8.83a34.5 34.5 0 0 0 4.27-10.27Z"/><circle cx="362.42" cy="265.27" r="21.31" transform="rotate(-45 362.427 265.268)" style="fill:#ffc0c0"/><path class="cls-6" d="M362.42 288.28a23 23 0 1 1 23-23 23 23 0 0 1-23 23Zm0-42.62A19.61 19.61 0 1 0 382 265.27a19.64 19.64 0 0 0-19.58-19.61Z"/><path class="cls-6" d="M370.05 311.39h-13.58l-2.62-10.8a35.85 35.85 0 0 1-8.91-3.72l-9.28 5-9.55-9.59 5.65-8.68a35.92 35.92 0 0 1-3.64-8.83l-9.44-2.21v-13.5l9.42-2.95a36.15 36.15 0 0 1 3.73-8.94l-5.27-8.95 9.59-9.55 8.93 5.3a35.76 35.76 0 0 1 8.8-3.63l2.57-10.21H370l2.59 10.21a36.23 36.23 0 0 1 8.91 3.66l9.25-5.5 9.59 9.59-5.61 9.16a36.11 36.11 0 0 1 3.67 8.89l9.42 2.56v13.5l-9.43 2.61a35.91 35.91 0 0 1-3.68 8.88l5.64 9.1-9.6 9.57-9.29-5.44a36 36 0 0 1-8.87 3.68ZM359.14 308h8.22l2.4-10.2 1-.24a33 33 0 0 0 9.77-4l.86-.54 8.78 5.14 5.84-5.82-5.32-8.58.55-.9a32.52 32.52 0 0 0 4.06-9.76l.23-1 8.86-2.45v-8.31l-8.86-2.41-.23-1a32.48 32.48 0 0 0-4-9.77l-.55-.89 5.29-8.64-5.82-5.83-8.75 5.2-.87-.55a32.77 32.77 0 0 0-9.77-4.05l-1-.24-2.44-9.62h-8.26l-2.43 9.62-1 .24a32.53 32.53 0 0 0-9.68 4l-.88.53-8.42-5-5.86 5.83 5 8.43-.55.87a32.8 32.8 0 0 0-4.07 9.76l-.22.94-8.88 2.79v8.31l8.85 2.07.24 1a32.72 32.72 0 0 0 4 9.77l.57.92-5.32 8.17 5.83 5.85 8.77-4.73.84.52a32.52 32.52 0 0 0 9.76 4.06l1 .24Z"/><path class="cls-6" d="M360.77 232.5h4.65v3.4h-4.65z"/><path class="cls-6" transform="rotate(-44.96 385.451 243.451)" d="M383.73 241.12h3.39v4.65h-3.39z"/><path class="cls-6" d="M392.96 263.46h3.4v4.65h-3.4z"/><path class="cls-6" transform="rotate(-44.92 385.388 288.106)" d="M383.05 286.4h4.65v3.39h-4.65z"/><path class="cls-6" transform="rotate(-89.88 363.017 297.317)" d="M361.33 294.99h3.4v4.65h-3.4z"/><path class="cls-6" transform="rotate(-44.86 340.689 287.999)" d="M339.03 285.68h3.39v4.65h-3.39z"/><path class="cls-6" transform="rotate(-89.81 331.55 265.652)" d="M329.21 263.96h4.65v3.4h-4.65z"/><path class="cls-6" transform="rotate(-44.79 340.824 243.35)" d="M338.54 241.66h4.65v3.4h-4.65z"/><path class="cls-6" d="M373.14 273.74h-2.81a4 4 0 0 1-4-4v-9.27a4 4 0 0 1 4-4h2.81a4 4 0 0 1 4 4v9.27a4 4 0 0 1-4 4Zm-2.81-13.87a.6.6 0 0 0-.6.6v9.27a.6.6 0 0 0 .6.6h2.81a.6.6 0 0 0 .6-.6v-9.27a.6.6 0 0 0-.6-.6Z"/><path class="cls-6" d="M346.15 263.41h21.88v3.4h-21.88z"/><path class="cls-6" d="M348.57 265.11h3.4v7.11h-3.4zm5.2 0h3.4v5.63h-3.4zm21.67 5.25V267a1.86 1.86 0 1 0 0-3.71v-3.4a5.26 5.26 0 0 1 0 10.51Zm-4.95-6.95h2.49v3.4h-2.49z"/><g class="cls-1"><path class="cls-6" d="M153.83 311.41a2.06 2.06 0 0 0 1.17-.35l22.62-15.48a44.88 44.88 0 0 0 19.55-37.06v-32.87a2.86 2.86 0 0 0-2.86-2.86h-39.88v59.41h-9.15a2.8 2.8 0 0 0-2.76 3.33l4.11 21.4 6 4.12a2.07 2.07 0 0 0 1.2.36Z"/></g><path class="cls-4" d="m169.87 294.18-22.62 15.47a.36.36 0 0 1-.42 0l-22.62-15.47a43.21 43.21 0 0 1-18.81-35.66v-32.87a1.16 1.16 0 0 1 1.16-1.16h81a1.16 1.16 0 0 1 1.16 1.16v32.87a43.21 43.21 0 0 1-18.85 35.66Z"/><path class="cls-2" d="M187.52 224.49h-8.82a1.16 1.16 0 0 1 1.16 1.16v32.87a43.21 43.21 0 0 1-18.81 35.66l-18.42 12.6 4.2 2.87a.36.36 0 0 0 .42 0l22.62-15.47a43.21 43.21 0 0 0 18.81-35.66v-32.87a1.16 1.16 0 0 0-1.16-1.16Z"/><path class="cls-6" d="M147 311.41a2.07 2.07 0 0 1-1.17-.36l-22.62-15.47a44.88 44.88 0 0 1-19.55-37.06v-32.87a2.87 2.87 0 0 1 2.86-2.86h81a2.86 2.86 0 0 1 2.86 2.86v32.87a44.88 44.88 0 0 1-19.55 37.06l-22.62 15.48a2.06 2.06 0 0 1-1.21.35Zm-39.9-85.22v32.33a41.48 41.48 0 0 0 18.07 34.26l21.87 15 21.87-15A41.48 41.48 0 0 0 187 258.52v-32.33Z"/><path class="cls-4" d="M147 239.72a19.59 19.59 0 1 0 19.59 19.58A19.59 19.59 0 0 0 147 239.72Z"/><path d="M147 239.72a19.56 19.56 0 0 0-16.65 9.3A19.56 19.56 0 0 1 157.32 276 19.57 19.57 0 0 0 147 239.72Z" style="fill:#f4cece"/><path class="cls-6" d="m142.1 269.21-9.26-9.27a1.68 1.68 0 0 1 0-2.4 1.7 1.7 0 0 1 2.4 0l6.86 6.87 13.81-13.81a1.7 1.7 0 0 1 2.4 2.4Z"/><path class="cls-6" d="M147 280.59a21.29 21.29 0 1 1 21.29-21.29A21.3 21.3 0 0 1 147 280.59Zm0-39.18a17.89 17.89 0 1 0 17.89 17.89A17.92 17.92 0 0 0 147 241.41Z"/><path class="cls-3" d="M122.8 285.21H61.63v24.51h77.65v-24.51H122.8z"/><path class="cls-6" d="M141 311.42H60v-27.9h81ZM63.33 308h74.25v-21.09H63.33Z"/><path class="cls-4" d="M71.39 296.75h4.34v3.4h-4.34zm13.88 0h4.34v3.4h-4.34zm13.88 0h4.34v3.4h-4.34zm13.87 0h4.34v3.4h-4.34zm13.88 0h4.34v3.4h-4.34zm321.19-11.43a24.41 24.41 0 1 1-24.41-24.41 24.41 24.41 0 0 1 24.41 24.41Z"/><path class="cls-2" d="M423.68 260.91a24.37 24.37 0 0 0-21 12 24.37 24.37 0 0 1 37.7 30.14 24.38 24.38 0 0 0-16.7-42.17Z"/><path class="cls-6" d="M425.26 287.76h-11.68v-3.4h11.68a3.85 3.85 0 1 0 0-7.7h-11.68v-3.4h11.68a7.25 7.25 0 0 1 0 14.5Z"/><path class="cls-6" d="M427.28 298.69h-13.7v-3.39h13.7c2.65 0 4.81-1.73 4.81-3.85s-2.16-3.86-4.81-3.86h-13.7v-3.39h13.7c4.53 0 8.21 3.25 8.21 7.25s-3.68 7.24-8.21 7.24Z"/><path class="cls-6" d="M416.19 269.5h3.4v31.64h-3.4zm5.14 0h3.4v5.47h-3.4zm0 27.5h3.4v4.14h-3.4z"/><path class="cls-6" d="M423.68 311.42a26.1 26.1 0 1 1 26.11-26.1 26.13 26.13 0 0 1-26.11 26.1Zm0-48.81a22.71 22.71 0 1 0 22.71 22.71 22.74 22.74 0 0 0-22.71-22.71Z"/><path class="cls-6" d="M465.18 311.42h-417a1.7 1.7 0 1 1 0-3.4h417a1.7 1.7 0 0 1 0 3.4Zm12.3 0h-6.16a1.7 1.7 0 0 1 0-3.4h6.16a1.7 1.7 0 0 1 0 3.4Zm-435.41 0H31.62a1.7 1.7 0 1 1 0-3.4h10.45a1.7 1.7 0 0 1 0 3.4Z"/></svg>