<svg id="Layer_1" data-name="Layer 1" xmlns="http://www.w3.org/2000/svg" viewBox="0 0 500 340"><defs><style>.cls-1{opacity:.2}.cls-2{fill:#b197f2}.cls-3{fill:#7341ef}.cls-4{opacity:.3}.cls-5{fill:#4a00e0}.cls-6{fill:#fff}.cls-7{fill:#d2d2ff}.cls-8{fill:#eaeafd}</style></defs><g class="cls-1"><path class="cls-2" d="M450.69 306.87a194.56 194.56 0 0 0-16.81-79.36A61.58 61.58 0 0 0 360.12 142a194.39 194.39 0 0 0-104.74-30.44q-7.2 0-14.28.51a50.3 50.3 0 0 0-77.25 22.23 196.26 196.26 0 0 0-40.74 28.87 55.76 55.76 0 0 0-55.49 89.72 195.38 195.38 0 0 0-7.56 54Z"/></g><g class="cls-1"><path class="cls-2" d="M397.26 306.87a141.88 141.88 0 0 0-283.76 0Z"/></g><g class="cls-1"><path class="cls-2" d="M470.44 232.32a11.12 11.12 0 1 1-11.12-11.12 11.12 11.12 0 0 1 11.12 11.12Z"/></g><g class="cls-1"><circle class="cls-2" cx="298.03" cy="93.57" r="17.14"/></g><g class="cls-1"><path class="cls-2" d="M141.54 135.43a7.34 7.34 0 1 1-7.34-7.34 7.33 7.33 0 0 1 7.34 7.34Z"/></g><g class="cls-1"><circle class="cls-2" cx="365.4" cy="121.99" r="7.34"/></g><g class="cls-1"><path class="cls-2" d="M210.87 72.34a7.34 7.34 0 1 1-7.34-7.34 7.34 7.34 0 0 1 7.34 7.34Z"/></g><g class="cls-1"><circle class="cls-2" cx="455.3" cy="259.23" r="3.01"/></g><g class="cls-1"><path class="cls-2" d="M364.2 70.08a2.26 2.26 0 1 1-2.26-2.26 2.26 2.26 0 0 1 2.26 2.26Z"/></g><g class="cls-1"><circle class="cls-2" cx="137.12" cy="81.35" r="2.94"/></g><g class="cls-1"><path class="cls-2" d="M17.65 147.1a3.92 3.92 0 1 1-3.91-3.91 3.92 3.92 0 0 1 3.91 3.91Z"/></g><g class="cls-1"><path class="cls-2" d="M489.09 175.79a3.92 3.92 0 1 1-3.92-3.91 3.91 3.91 0 0 1 3.92 3.91Z"/></g><g class="cls-1"><circle class="cls-2" cx="76.66" cy="131.25" r="16.61"/></g><g class="cls-1"><path class="cls-2" d="M31.69 252.34a3.92 3.92 0 1 1-3.92-3.92 3.93 3.93 0 0 1 3.92 3.92Z"/></g><g class="cls-1"><path class="cls-2" d="M464.3 135.43a16.1 16.1 0 1 1-16.1-16.09 16.1 16.1 0 0 1 16.1 16.09Z"/></g><g class="cls-1"><circle class="cls-2" cx="27.77" cy="208.18" r="15.82"/></g><circle class="cls-3" cx="148.24" cy="243.09" r="24.71" transform="rotate(-76.65 148.26 243.096)"/><g class="cls-4"><path class="cls-5" d="M148.24 218.37A24.67 24.67 0 0 0 127 230.55a24.69 24.69 0 0 1 38.18 30.53 24.69 24.69 0 0 0-16.91-42.71Z"/></g><path class="cls-5" d="M148.24 269.52a26.43 26.43 0 1 1 26.43-26.43 26.46 26.46 0 0 1-26.43 26.43Zm0-49.43a23 23 0 1 0 23 23 23 23 0 0 0-23-23Z"/><path class="cls-6" d="M153 243.31a6.71 6.71 0 0 1-3.38-.91 6.79 6.79 0 1 1 9.27-2.48 6.79 6.79 0 0 1-5.89 3.39Zm0-10.14a3.37 3.37 0 1 0 1.67.45 3.25 3.25 0 0 0-1.67-.45Zm-13.69 17.31a6.77 6.77 0 1 1 5.89-3.39 6.79 6.79 0 0 1-5.89 3.39Zm0-10.14a3.36 3.36 0 1 0 2.9 5 3.36 3.36 0 0 0-2.9-5Z"/><path class="cls-6" d="M147 251.16a3 3 0 0 0-3.74-2.16l-.89-3.31a6.47 6.47 0 0 1 7.94 4.58Zm5.48-2.67a6.49 6.49 0 0 1-2.37-8.86l3 1.71a3.05 3.05 0 0 0 1.11 4.18Z"/><path class="cls-6" d="M146 243.77a6.42 6.42 0 0 1-3.23-.87l1.71-3a3.05 3.05 0 0 0 4.18-1.12l3 1.72a6.42 6.42 0 0 1-3.94 3 6.48 6.48 0 0 1-1.72.27Zm7.58 14.95a6.78 6.78 0 0 1-5.87-10.17 6.79 6.79 0 1 1 11.76 6.78 6.79 6.79 0 0 1-5.89 3.39Zm0-10.14a3.35 3.35 0 0 0-2.92 1.68 3.36 3.36 0 0 0 1.23 4.58 3.36 3.36 0 0 0 4.59-1.22 3.36 3.36 0 0 0-2.9-5Z"/><path class="cls-3" d="M179.9 161.77h8.44a.87.87 0 0 1 .87.87v145.07a.87.87 0 0 1-.87.87h-8.44a.88.88 0 0 1-.87-.87V162.64a.88.88 0 0 1 .87-.87Z"/><path class="cls-2" d="M182.73 307V163.39a1.62 1.62 0 0 1 1.62-1.62h-3.7a1.61 1.61 0 0 0-1.62 1.62V307a1.62 1.62 0 0 0 1.62 1.62h3.7a1.63 1.63 0 0 1-1.62-1.62Z"/><path class="cls-5" d="M187.21 310.3H181a3.72 3.72 0 0 1-3.72-3.71V163.77a3.73 3.73 0 0 1 3.72-3.72h6.18a3.73 3.73 0 0 1 3.72 3.72v142.82a3.72 3.72 0 0 1-3.69 3.71ZM181 163.48a.29.29 0 0 0-.29.29v142.82a.29.29 0 0 0 .29.28h6.18a.29.29 0 0 0 .29-.28V163.77a.29.29 0 0 0-.29-.29Z"/><path class="cls-6" d="M247 188.8c-17.16-9.59-37.09-15.52-63.27-15.52s-46.11 5.93-63.27 15.52v12c14.05-7.85 31.22-13.25 51.81-14.95.52-.05 1.63 5.47 2.15 5.43 4.07-.29 5.1-.45 9.31-.45s5.08.15 9.06.44c.72.05 2-5.45 2.76-5.39C216 187.66 233 193 247 200.85Z"/><path class="cls-3" d="M183.71 173.28c-26.18 0-46.11 5.93-63.27 15.52v5.56c17.16-9.59 37.09-15.52 63.27-15.52s46.11 5.93 63.27 15.52v-5.56c-17.16-9.59-37.09-15.52-63.27-15.52Z"/><path class="cls-5" d="m248.69 203.77-2.55-1.42c-14.32-8-31.07-12.93-49.8-14.63-.19.46-.42 1.07-.58 1.49-.89 2.37-1.48 3.92-3.12 3.82l-2-.15c-2.43-.19-3.65-.28-6.91-.28s-4.66.1-7.22.29l-2 .15c-1.6.11-2.07-1.32-2.85-3.94a42.2 42.2 0 0 0-.43-1.4c-18.8 1.69-35.61 6.62-50 14.65l-2.55 1.42v-16l.87-.49c19.22-10.74 39.59-15.74 64.11-15.74s44.89 5 64.11 15.74l.87.49Zm-126.53-14V198c14.51-7.61 31.3-12.24 50-13.78 1.59-.16 2.08 1.31 2.86 3.93.12.43.29 1 .43 1.42l.83-.06c2.65-.21 4-.31 7.48-.31s4.73.1 7.16.29l1.08.08c.2-.47.43-1.09.6-1.53.88-2.36 1.51-3.95 3.12-3.79 18.51 1.57 35.18 6.19 49.59 13.75v-8.16c-18.42-10.1-38-14.82-61.55-14.82s-43.18 4.69-61.6 14.79Z"/><rect class="cls-3" x="401.65" y="212.43" width="52.99" height="96.15" rx=".22"/><path class="cls-7" d="M411.69 308.05V213a.55.55 0 0 1 .54-.55h-10a.55.55 0 0 0-.54.55v95.07a.54.54 0 0 0 .54.54h10a.54.54 0 0 1-.54-.56Z"/><g class="cls-4"><path class="cls-5" d="M444.88 308.05V213a.55.55 0 0 0-.54-.55h10a.55.55 0 0 1 .54.55v95.07a.54.54 0 0 1-.54.54h-10a.54.54 0 0 0 .54-.56Z"/></g><path class="cls-5" d="M454.14 310.17h-52a2.21 2.21 0 0 1-2.21-2.21V212.8a2.21 2.21 0 0 1 2.21-2.21h52a2.21 2.21 0 0 1 2.21 2.21V308a2.21 2.21 0 0 1-2.21 2.17Zm-50.78-3.43h49.56V214h-49.56Z"/><path class="cls-5" d="M401.65 230.07h52.99v3.43h-52.99zm0 20.09h52.99v3.43h-52.99zm.58 37.89h52.99v3.43h-52.99zm.29-19.25h52.99v3.43h-52.99z"/><path class="cls-6" d="M413.13 221.16h4.44v3.43h-4.44zm13.08 0h4.44v3.43h-4.44z"/><path class="cls-2" d="M414.4 236.56h26.3v3.43h-26.3z"/><path class="cls-6" d="M414.4 242.66h10.79v3.43H414.4zm15.5 0h10.79v3.43H429.9z"/><path class="cls-2" d="M414.4 255.75h26.3v3.43h-26.3z"/><path class="cls-6" d="M414.4 261.85h10.79v3.43H414.4zm15.5 0h10.79v3.43H429.9z"/><path class="cls-2" d="M414.4 274.93h26.3v3.43h-26.3z"/><path class="cls-6" d="M414.4 281.03h10.79v3.43H414.4zm15.5 0h10.79v3.43H429.9zm9.4-59.87h4.44v3.43h-4.44z"/><rect class="cls-3" x="358.31" y="190.39" width="65.13" height="118.19" rx=".22"/><path class="cls-7" d="M370.66 307.92V191.06a.67.67 0 0 1 .66-.67H359a.67.67 0 0 0-.67.67v116.86a.67.67 0 0 0 .67.67h12.34a.67.67 0 0 1-.68-.67Z"/><g class="cls-4"><path class="cls-5" d="M411.45 307.92V191.06a.67.67 0 0 0-.66-.67h12.34a.67.67 0 0 1 .67.67v116.86a.67.67 0 0 1-.67.67h-12.34a.67.67 0 0 0 .66-.67Z"/></g><path class="cls-5" d="M423 310.14h-64.19a2.21 2.21 0 0 1-2.21-2.2V190.72a2.21 2.21 0 0 1 2.21-2.2H423a2.21 2.21 0 0 1 2.21 2.2v117.22a2.21 2.21 0 0 1-2.21 2.2Zm-63-3.43h61.7V192H360Z"/><path class="cls-5" d="M358.31 212.46h65.13v3.43h-65.13zm0 24.7h65.13v3.43h-65.13zm.72 46.57h65.13v3.43h-65.13zm.36-23.65h65.13v3.43h-65.13z"/><path class="cls-6" d="M372.42 201.51h5.46v3.43h-5.46zm16.09 0h5.46v3.43h-5.46z"/><path class="cls-2" d="M373.98 220.44h32.33v3.43h-32.33z"/><path class="cls-6" d="M373.98 227.94h13.27v3.43h-13.27zm19.07 0h13.27v3.43h-13.27z"/><path class="cls-2" d="M373.98 244.03h32.33v3.43h-32.33z"/><path class="cls-6" d="M373.98 251.52h13.27v3.43h-13.27zm19.07 0h13.27v3.43h-13.27z"/><path class="cls-2" d="M373.98 267.61h32.33v3.43h-32.33z"/><path class="cls-6" d="M373.98 275.11h13.27v3.43h-13.27zm19.07 0h13.27v3.43h-13.27zm11.54-73.6h5.46v3.43h-5.46z"/><circle class="cls-6" cx="327.83" cy="228.96" r="24.71" transform="rotate(-76.65 327.849 228.956)"/><path class="cls-2" d="M327.83 204.24a24.69 24.69 0 0 0-21.28 12.18A24.68 24.68 0 0 1 344.73 247a24.69 24.69 0 0 0-16.9-42.71Z"/><path class="cls-5" d="M327.83 255.39A26.43 26.43 0 1 1 354.26 229a26.46 26.46 0 0 1-26.43 26.39Zm0-49.43a23 23 0 1 0 23 23 23 23 0 0 0-23-22.96Z"/><path class="cls-5" d="M328.15 248.82a2.12 2.12 0 0 1-1.89-1.15L318.71 236a2.23 2.23 0 0 1 2.82-3.23l6.3 3 6.38-3a2.23 2.23 0 0 1 2.87 3.16L330 247.75a2.06 2.06 0 0 1-1.81 1.07Zm-4.28-11.17 4.24 6.57 4-6.73-4.29 2Z"/><path class="cls-5" transform="rotate(-89.93 327.81 221.07)" d="M317.56 219.36h20.52v3.43h-20.52z"/><path class="cls-5" d="m327.82 233.29-8.82-3.21a2.08 2.08 0 0 1-1.14-2.9l8.43-16.41a2.07 2.07 0 0 1 1.92-1.16 2.15 2.15 0 0 1 1.89 1.21l7.78 16.41a2.11 2.11 0 0 1 0 1.69 2.05 2.05 0 0 1-1.22 1.16Zm-6.24-5.91 6.24 2.26 6.3-2.28-6-12.68Z"/><path class="cls-3" d="M283.06 232.17a24.71 24.71 0 1 1-24.71-24.72 24.71 24.71 0 0 1 24.71 24.72Z"/><g class="cls-4"><path class="cls-5" d="M258.35 207.45a24.67 24.67 0 0 0-21.27 12.18 24.69 24.69 0 0 1 38.18 30.53 24.7 24.7 0 0 0-16.91-42.71Z"/></g><path class="cls-5" d="M258.35 258.6a26.43 26.43 0 1 1 26.43-26.43 26.46 26.46 0 0 1-26.43 26.43Zm0-49.43a23 23 0 1 0 23 23 23 23 0 0 0-23-23Z"/><path class="cls-6" d="M266.23 241.94h-18.51a1.72 1.72 0 0 1 0-3.43h18.51a1.83 1.83 0 0 0 1.76-1.35l2.48-9a1.8 1.8 0 0 0-.31-1.6 1.84 1.84 0 0 0-1.45-.72h-16.56a1.72 1.72 0 0 1 0-3.43h16.56a5.26 5.26 0 0 1 5.07 6.66l-2.48 9a5.28 5.28 0 0 1-5.07 3.87Z"/><path class="cls-6" d="M254.93 233.88h-10.48a1.72 1.72 0 1 1 0-3.43h10.48a1.72 1.72 0 0 1 0 3.43Z"/><path class="cls-8" d="M234.57 278.66h.56A20.52 20.52 0 0 1 266 267.1a28.12 28.12 0 0 1 54.65-4.05 19.25 19.25 0 0 1 24.09 15.61h3.15a14.48 14.48 0 0 1 14.43 14.43v1.07a14.48 14.48 0 0 1-14.43 14.43H234.57a14.48 14.48 0 0 1-14.44-14.43v-1.07a14.48 14.48 0 0 1 14.44-14.43Z"/><path class="cls-6" d="M244.33 283.64h.47a17.12 17.12 0 0 1 25.7-9.64 23.45 23.45 0 0 1 45.57-3.38 16.07 16.07 0 0 1 20.08 13h2.62a12.07 12.07 0 0 1 12 12v.89a12.08 12.08 0 0 1-12 12h-94.44a12.07 12.07 0 0 1-12-12v-.89a12.07 12.07 0 0 1 12-11.98Z"/><path class="cls-5" d="m275.44 265.75-2.88-1.86a25.17 25.17 0 0 1 33.92-8l-1.75 3a21.74 21.74 0 0 0-29.29 6.88Z"/><path class="cls-5" d="M347.85 310.3H234.57a16.16 16.16 0 0 1-16.15-16.14v-1.07A16.16 16.16 0 0 1 233.88 277a22.38 22.38 0 0 1 21-14.84 22 22 0 0 1 9.86 2.32 29.84 29.84 0 0 1 57-3.41 20.67 20.67 0 0 1 3.89-.38A20.91 20.91 0 0 1 346.11 277h1.74A16.16 16.16 0 0 1 364 293.09v1.07a16.16 16.16 0 0 1-16.15 16.14Zm-113.28-29.92a12.73 12.73 0 0 0-12.72 12.71v1.07a12.73 12.73 0 0 0 12.72 12.71h113.28a12.72 12.72 0 0 0 12.71-12.71v-1.07a12.72 12.72 0 0 0-12.71-12.71h-4.62l-.23-1.45a17.5 17.5 0 0 0-17.37-14.85 17.29 17.29 0 0 0-4.57.63l-1.6.43-.49-1.58a26.41 26.41 0 0 0-51.32 3.8l-.4 2.61-2.25-1.43a18.81 18.81 0 0 0-28.25 10.6l-.36 1.24Z"/><path class="cls-5" d="M317 272.3h-3.43a11.74 11.74 0 0 1 11.73-11.73V264a8.31 8.31 0 0 0-8.3 8.3Z"/><g class="cls-4"><path class="cls-5" d="M305.69 291.36v-1.26a19 19 0 0 0-18.94-18.94h-2.34a24.58 24.58 0 0 0-14.66-17.55 29.73 29.73 0 0 0-5 10.83 22 22 0 0 0-9.86-2.32 22.38 22.38 0 0 0-21 14.84 16.16 16.16 0 0 0-15.46 16.13v1.07a16.16 16.16 0 0 0 16.15 16.14h52.18a19 19 0 0 0 18.93-18.94Z"/></g><path class="cls-8" d="M145.83 272.87h.67a24.49 24.49 0 0 1 36.79-13.8 33.57 33.57 0 0 1 65.23-4.83 23 23 0 0 1 28.76 18.63H281a17.28 17.28 0 0 1 17.23 17.23v1.26A17.28 17.28 0 0 1 281 308.59H145.83a17.27 17.27 0 0 1-17.22-17.23v-1.26a17.27 17.27 0 0 1 17.22-17.23Z"/><path class="cls-6" d="M157.49 278.81h.56a20.42 20.42 0 0 1 30.67-11.5 28 28 0 0 1 54.38-4 19.14 19.14 0 0 1 24 15.53h3.13a14.4 14.4 0 0 1 14.36 14.36v1.06a14.4 14.4 0 0 1-14.36 14.36H157.49a14.4 14.4 0 0 1-14.36-14.36v-1.06a14.4 14.4 0 0 1 14.36-14.39Z"/><path class="cls-5" d="m194.34 257.28-2.88-1.86a29.7 29.7 0 0 1 40-9.41l-1.75 3a26.26 26.26 0 0 0-35.4 8.31Z"/><path class="cls-5" d="M281 310.3H145.83a19 19 0 0 1-18.94-18.94v-1.26a19 19 0 0 1 18.36-18.93 26.38 26.38 0 0 1 24.81-17.71 26.06 26.06 0 0 1 12 2.92 35.28 35.28 0 0 1 67.59-4.17 24.67 24.67 0 0 1 29 19H281a19 19 0 0 1 19 18.89v1.26a19 19 0 0 1-19 18.94Zm-135.2-35.71a15.52 15.52 0 0 0-15.51 15.51v1.26a15.53 15.53 0 0 0 15.51 15.51H281a15.53 15.53 0 0 0 15.51-15.51v-1.26A15.52 15.52 0 0 0 281 274.59h-5.22l-.23-1.45a21.23 21.23 0 0 0-21.06-18 21 21 0 0 0-5.55.76l-1.59.43-.49-1.58a31.85 31.85 0 0 0-61.9 4.58l-.4 2.61-2.22-1.43a22.79 22.79 0 0 0-34.22 12.84l-.36 1.24Z"/><path class="cls-5" d="M243.85 265.28h-3.43a13.68 13.68 0 0 1 13.67-13.67V255a10.25 10.25 0 0 0-10.24 10.28ZM78.87 208.4a1.72 1.72 0 0 1-1.21-2.93l6.91-6.91A1.71 1.71 0 1 1 87 201l-6.91 6.91a1.72 1.72 0 0 1-1.22.49Z"/><path class="cls-5" d="M85.78 208.4a1.7 1.7 0 0 1-1.21-.51L77.66 201a1.71 1.71 0 1 1 2.43-2.42l6.91 6.89a1.72 1.72 0 0 1-1.22 2.93ZM47.1 159.73h-9.78a1.72 1.72 0 0 1 0-3.43h9.78a1.72 1.72 0 0 1 0 3.43Z"/><path class="cls-5" d="M42.21 164.62a1.72 1.72 0 0 1-1.72-1.72v-9.77a1.72 1.72 0 0 1 3.43 0v9.77a1.72 1.72 0 0 1-1.71 1.72ZM407.41 121h-9.78a1.72 1.72 0 0 1 0-3.43h9.78a1.72 1.72 0 0 1 0 3.43Z"/><path class="cls-5" d="M402.52 125.86a1.7 1.7 0 0 1-1.71-1.71v-9.77a1.72 1.72 0 1 1 3.43 0v9.77a1.71 1.71 0 0 1-1.72 1.71Zm61.48 48a1.67 1.67 0 0 1-1.21-.5 1.71 1.71 0 0 1 0-2.42l6.91-6.91a1.71 1.71 0 0 1 2.42 2.42l-6.91 6.91a1.67 1.67 0 0 1-1.21.5Z"/><path class="cls-5" d="M470.9 173.86a1.67 1.67 0 0 1-1.21-.5l-6.91-6.91a1.71 1.71 0 0 1 2.42-2.45l6.91 6.91a1.71 1.71 0 0 1 0 2.42 1.67 1.67 0 0 1-1.21.53Zm-132.43-.42 4.34-2.51 4.34 2.51v5.01l-4.34 2.51-4.34-2.51v-5.01zm-215.84-59.09 4.34-2.51 4.34 2.51v5.01l-4.34 2.51-4.34-2.51v-5.01zm118.58-32.64 4.35-2.51 4.34 2.51v5.02l-4.34 2.5-4.35-2.5v-5.02zm224.89 156 4.34-2.5 4.34 2.5v5.02l-4.34 2.51-4.34-2.51v-5.02zM342.81 92.5l5.86-3.38 5.86 3.38v6.77l-5.86 3.38-5.86-3.38V92.5zm-32.19 23.86h-96.79a1.72 1.72 0 1 1 0-3.43h96.79a1.72 1.72 0 1 1 0 3.43Zm-102.82 0h-5.56a1.72 1.72 0 1 1 0-3.43h5.56a1.72 1.72 0 0 1 0 3.43Zm-14.69 0h-9.77a1.72 1.72 0 0 1 0-3.43h9.77a1.72 1.72 0 1 1 0 3.43Z"/><path class="cls-5" d="M188.23 121.25a1.72 1.72 0 0 1-1.72-1.72v-9.77a1.72 1.72 0 1 1 3.43 0v9.77a1.72 1.72 0 0 1-1.71 1.72Zm54.54 20.96H233a1.72 1.72 0 1 1 0-3.43h9.77a1.72 1.72 0 1 1 0 3.43Z"/><path class="cls-5" d="M237.88 147.1a1.72 1.72 0 0 1-1.71-1.72v-9.77a1.72 1.72 0 0 1 3.43 0v9.77a1.72 1.72 0 0 1-1.72 1.72Zm106.71 2.2a1.67 1.67 0 0 1-1.21-.5l-6.91-6.91a1.71 1.71 0 0 1 2.42-2.42l6.91 6.91a1.71 1.71 0 0 1 0 2.42 1.67 1.67 0 0 1-1.21.5Z"/><path class="cls-5" d="M337.68 149.3a1.67 1.67 0 0 1-1.21-.5 1.71 1.71 0 0 1 0-2.42l6.91-6.91a1.71 1.71 0 1 1 2.42 2.42l-6.91 6.91a1.67 1.67 0 0 1-1.21.5Zm115.41 21.11H393.3a1.72 1.72 0 1 1 0-3.43h59.79a1.72 1.72 0 0 1 0 3.43Zm-251.65-28.2H85.21a1.72 1.72 0 1 1 0-3.43h116.23a1.72 1.72 0 0 1 0 3.43Zm241.78 4.48h-91.45a1.72 1.72 0 1 1 0-3.43h91.45a1.72 1.72 0 1 1 0 3.43Zm-218.61-4.48h-11a1.72 1.72 0 0 1 0-3.43h11a1.72 1.72 0 0 1 0 3.43ZM92.36 238.54l3.36-1.94 3.37 1.94v3.89l-3.37 1.94-3.36-1.94v-3.89z"/><circle class="cls-6" cx="357.14" cy="280.96" r="27.63" transform="rotate(-76.65 357.125 280.958)"/><path class="cls-2" d="M357.14 253.33a27.58 27.58 0 0 0-23.78 13.61A27.59 27.59 0 0 1 376 301.07a27.6 27.6 0 0 0-18.9-47.74Z"/><path class="cls-5" d="M358.93 283.52H345.7v-3.43h13.23a4.57 4.57 0 0 0 0-9.14H345.7v-3.43h13.23a8 8 0 0 1 0 16Z"/><path class="cls-5" d="M361.21 295.9H345.7v-3.43h15.51c3.12 0 5.66-2.05 5.66-4.57s-2.54-4.57-5.66-4.57H345.7v-3.43h15.51c5 0 9.09 3.59 9.09 8s-4.07 8-9.09 8Z"/><path class="cls-5" d="M348.86 263.04h3.43v35.83h-3.43zm5.83 0h3.43v6.19h-3.43zm0 31.14h3.43v4.69h-3.43z"/><path class="cls-5" d="M357.14 310.3a29.35 29.35 0 1 1 29.35-29.3 29.37 29.37 0 0 1-29.35 29.3Zm0-55.26A25.92 25.92 0 1 0 383.06 281a25.94 25.94 0 0 0-25.92-26Z"/><path class="cls-3" d="M142.73 300.13H131.5v-2.89a35.77 35.77 0 0 0-35.78-35.77A35.76 35.76 0 0 0 60 297.24v10.6l-7 .75h98.22a8.46 8.46 0 0 0-8.49-8.46Z"/><path class="cls-7" d="M131.5 300.13v-2.89a35.77 35.77 0 0 0-35.78-35.77 35.72 35.72 0 0 0-30.5 17.14 35.67 35.67 0 0 1 24.82-10c19.76 0 38.53 11.75 38.53 31.51Zm-77.24 8.32-1.29.14h1.29v-.14z"/><path class="cls-5" d="M152.9 310.3H53a1.72 1.72 0 1 1 0-3.43h96.28a6.75 6.75 0 0 0-6.52-5h-25.8a1.72 1.72 0 0 1 0-3.43h25.8a10.18 10.18 0 0 1 10.17 10.17Z"/><path class="cls-5" d="M60 310.3a1.72 1.72 0 0 1-1.72-1.71v-11.35a37.49 37.49 0 0 1 75 0 1.72 1.72 0 1 1-3.43 0 34.06 34.06 0 0 0-68.12 0v11.35A1.72 1.72 0 0 1 60 310.3Z"/><path class="cls-5" d="M76.59 310.3a1.72 1.72 0 0 1-1.71-1.71v-6.3a21.59 21.59 0 0 1 21.58-21.59 1.72 1.72 0 1 1 0 3.43 18.12 18.12 0 0 0-18.15 18.16v6.3a1.72 1.72 0 0 1-1.72 1.71Z"/><path class="cls-3" d="M128.22 268.82c-8.14 0-14.74 5.67-14.74 12.66s6.6 12.67 14.74 12.67Z"/><path class="cls-5" d="M129.93 295.86h-1.71c-9.08 0-16.46-6.45-16.46-14.37s7.38-14.38 16.46-14.38h1.71Zm-3.43-25.23c-6.37.71-11.31 5.31-11.31 10.86s4.94 10.14 11.31 10.85Z"/><path class="cls-6" d="M138 281.48c0 7-3.26 12.67-7.28 12.67s-7.28-5.67-7.28-12.67 3.26-12.66 7.28-12.66 7.28 5.67 7.28 12.66Z"/><path class="cls-5" d="M130.7 295.86c-5 0-9-6.31-9-14.37s4-14.38 9-14.38 9 6.31 9 14.38-3.95 14.37-9 14.37Zm0-25.32c-2.63 0-5.56 4.49-5.56 10.95s2.93 10.94 5.56 10.94 5.57-4.49 5.57-10.94-2.94-10.95-5.57-10.95Z"/><path class="cls-6" d="M320.82 184.68v-7.31l-6.12-1.67a23.12 23.12 0 0 0-2.85-6.89l3.65-6-5.17-5.17-6 3.59a23.14 23.14 0 0 0-6.89-2.86l-1.68-6.64h-7.31l-1.68 6.64a23.24 23.24 0 0 0-6.83 2.82l-5.81-3.45-5.18 5.16 3.43 5.82a22.74 22.74 0 0 0-2.87 6.88l-6.13 1.92v7.31l6.12 1.44a23.12 23.12 0 0 0 2.85 6.89l-3.68 5.64 5.13 5.2 6.05-3.26a23 23 0 0 0 6.88 2.86l1.71 7h7.31l1.65-7a23.12 23.12 0 0 0 6.89-2.85l6 3.55 5.17-5.17-3.67-5.92a23 23 0 0 0 2.86-6.88Zm-29.52 6.49a10.3 10.3 0 1 1 10.3-10.3 10.3 10.3 0 0 1-10.3 10.3Z"/><path class="cls-5" d="M297.1 212.39h-10l-1.79-7.39a25.5 25.5 0 0 1-5.5-2.3l-6.32 3.41-7-7.07 3.85-5.92a24.29 24.29 0 0 1-2.23-5.41l-6.43-1.51v-9.9l6.42-2a25.35 25.35 0 0 1 2.31-5.54l-3.59-6.09 7.06-7 6.09 3.61a24.6 24.6 0 0 1 5.41-2.24l1.75-6.95h10l1.76 6.95a25.37 25.37 0 0 1 5.47 2.27l6.3-3.75 7.07 7.07-3.82 6.24a24.73 24.73 0 0 1 2.26 5.48l6.43 1.75v9.9l-6.42 1.78a25.17 25.17 0 0 1-2.27 5.47l3.84 6.2-7.08 7-6.32-3.7a24.77 24.77 0 0 1-5.46 2.26Zm-7.31-3.39h4.6l1.58-6.74 1-.24a21.33 21.33 0 0 0 6.38-2.64l.87-.54 5.8 3.4 3.28-3.27-3.52-5.67.56-.9A21.19 21.19 0 0 0 313 186l.24-1 5.84-1.62v-4.69l-5.83-1.59-.24-1a21.42 21.42 0 0 0-2.64-6.37l-.56-.9 3.5-5.71-3.27-3.27-5.77 3.43-.88-.55a21.81 21.81 0 0 0-6.38-2.64l-1-.24-1.61-6.36h-4.64l-1.6 6.36-1 .24a21.28 21.28 0 0 0-6.32 2.61l-.88.55-5.56-3.3-3.3 3.28 3.28 5.56-.55.88a21.8 21.8 0 0 0-2.66 6.38l-.22.94-5.86 1.84v4.69l5.83 1.37.24 1a21.18 21.18 0 0 0 2.64 6.38l.57.92-3.51 5.39 3.28 3.29 5.79-3.12.84.52a21.53 21.53 0 0 0 6.38 2.66l1 .24Zm1.51-16.06a12 12 0 1 1 12-12 12 12 0 0 1-12 11.95Zm0-20.6a8.59 8.59 0 1 0 8.58 8.58 8.59 8.59 0 0 0-8.58-8.63Z"/><path class="cls-5" d="M290.2 158.33h3.12v3.43h-3.12z"/><path class="cls-5" transform="rotate(-45 306.753 166.249)" d="M305.01 164.69h3.43v3.12h-3.43z"/><path class="cls-5" transform="rotate(-89.92 312.93 181.213)" d="M311.35 179.5h3.12v3.43h-3.12z"/><path class="cls-5" transform="rotate(-44.89 306.733 196.18)" d="M305.13 194.46h3.12v3.43h-3.12z"/><path class="cls-5" transform="rotate(-89.88 291.702 202.352)" d="M290 200.79h3.43v3.12H290z"/><path class="cls-5" transform="rotate(-44.86 276.74 196.12)" d="M275.04 194.56h3.43v3.12h-3.43z"/><path class="cls-5" transform="rotate(-89.85 270.601 181.134)" d="M269.04 179.42h3.12v3.43h-3.12z"/><path class="cls-5" transform="rotate(-44.79 276.827 166.179)" d="M275.29 164.47h3.12v3.43h-3.12z"/><path class="cls-5" d="M466.77 310.3H45.64a1.72 1.72 0 1 1 0-3.43h421.13a1.72 1.72 0 0 1 0 3.43Zm12.42 0H473a1.72 1.72 0 1 1 0-3.43h6.22a1.72 1.72 0 0 1 0 3.43Zm-439.73 0H28.91a1.72 1.72 0 0 1 0-3.43h10.55a1.72 1.72 0 1 1 0 3.43Z"/></svg>