<svg id="Layer_1" data-name="Layer 1" xmlns="http://www.w3.org/2000/svg" viewBox="0 0 500 340"><defs><style>.cls-1{opacity:.2}.cls-2{fill:#84f7e1}.cls-3{fill:#6fc9ba}.cls-4{fill:#fff}.cls-5{fill:#49e8c9}.cls-7{opacity:.3}</style></defs><g class="cls-1"><path class="cls-2" d="M451.49 310.17a194.73 194.73 0 0 0-16.84-79.46 61.68 61.68 0 0 0-73.84-85.62 194.7 194.7 0 0 0-104.88-30.48q-7.22 0-14.29.52a50.37 50.37 0 0 0-77.35 22.26 196.71 196.71 0 0 0-40.79 28.9 55.83 55.83 0 0 0-55.56 89.83 195.93 195.93 0 0 0-7.57 54.05Z"/></g><g class="cls-1"><path class="cls-2" d="M398 310.17a142.06 142.06 0 0 0-284.12 0Z"/></g><g class="cls-1"><path class="cls-2" d="M471.26 235.53a11.14 11.14 0 1 1-11.13-11.14 11.13 11.13 0 0 1 11.13 11.14Z"/></g><g class="cls-1"><circle class="cls-2" cx="298.64" cy="96.6" r="17.16" transform="rotate(-45 298.634 96.602)"/></g><g class="cls-1"><path class="cls-2" d="M142 138.52a7.35 7.35 0 1 1-7.35-7.35 7.35 7.35 0 0 1 7.35 7.35Z"/></g><g class="cls-1"><circle class="cls-2" cx="366.09" cy="125.06" r="7.35"/></g><g class="cls-1"><path class="cls-2" d="M211.37 75.35A7.35 7.35 0 1 1 204 68a7.35 7.35 0 0 1 7.37 7.35Z"/></g><g class="cls-1"><path class="cls-2" d="M459.12 262.47a3 3 0 1 1-3-3 3 3 0 0 1 3 3Z"/></g><g class="cls-1"><path class="cls-2" d="M364.89 73.08a2.27 2.27 0 1 1-2.27-2.26 2.27 2.27 0 0 1 2.27 2.26Z"/></g><g class="cls-1"><circle class="cls-2" cx="137.52" cy="84.37" r="2.95"/></g><g class="cls-1"><path class="cls-2" d="M17.91 150.2a3.92 3.92 0 1 1-3.91-3.92 3.91 3.91 0 0 1 3.91 3.92Z"/></g><g class="cls-1"><path class="cls-2" d="M489.93 178.93A3.92 3.92 0 1 1 486 175a3.91 3.91 0 0 1 3.93 3.93Z"/></g><g class="cls-1"><circle class="cls-2" cx="76.99" cy="134.34" r="16.63"/></g><g class="cls-1"><path class="cls-2" d="M32 255.57a3.92 3.92 0 1 1-4-3.92 3.91 3.91 0 0 1 4 3.92Z"/></g><g class="cls-1"><path class="cls-2" d="M465.11 138.52A16.12 16.12 0 1 1 449 122.4a16.12 16.12 0 0 1 16.11 16.12Z"/></g><g class="cls-1"><circle class="cls-2" cx="28.04" cy="211.35" r="15.84"/></g><path class="cls-3" d="m429.59 239.1-8.54-8.54a1.72 1.72 0 1 1 2.43-2.43l6.11 6.11 15.62-15.63a1.72 1.72 0 0 1 2.43 2.43Z"/><path class="cls-3" d="M428.62 249a16.07 16.07 0 1 1 8.16-29.91l-1.74 3a12.63 12.63 0 1 0 6.21 10.91h3.43a16.08 16.08 0 0 1-16.06 16Z"/><path class="cls-4" d="M405.82 252v-54.94a.54.54 0 0 0-.54-.54h-63.75a.54.54 0 0 0-.53.54V308.9a.74.74 0 0 0 .74.75h9.06l55 .32Z"/><rect class="cls-5" x="358.23" y="257.01" width="100.99" height="53.21" rx="1.97"/><path class="cls-4" d="M427.58 283.8a18.48 18.48 0 1 1-18.48-18.48 18.48 18.48 0 0 1 18.48 18.48Z"/><rect class="cls-3" x="355.19" y="212.18" width="14.89" height="22.5" rx=".21"/><path class="cls-3" d="M411 294.37h-9.24v-3.43H411a2.71 2.71 0 1 0 0-5.42h-4.26a6.15 6.15 0 1 1 0-12.29h8.94v3.44h-8.94a2.71 2.71 0 1 0 0 5.41H411a6.15 6.15 0 1 1 0 12.29Z"/><path class="cls-3" d="M407.38 270.34h3.43v4.61h-3.43zm0 22.27h3.43v4.29h-3.43z"/><path class="cls-3" d="M454.72 311.94h-92a6.23 6.23 0 0 1-6.22-6.22v-44.2a6.23 6.23 0 0 1 6.22-6.22h92a6.23 6.23 0 0 1 6.22 6.22v44.2a6.23 6.23 0 0 1-6.22 6.22Zm-92-53.21a2.79 2.79 0 0 0-2.79 2.79v44.2a2.79 2.79 0 0 0 2.79 2.78h92a2.79 2.79 0 0 0 2.79-2.78v-44.2a2.79 2.79 0 0 0-2.79-2.79Z"/><path class="cls-3" d="M358.23 274.41V271a14 14 0 0 0 14-14h3.44a17.43 17.43 0 0 1-17.44 17.41Zm101 0a17.43 17.43 0 0 1-17.4-17.4h3.44a14 14 0 0 0 14 14Zm-83.6 35.81h-3.44a14 14 0 0 0-14-14v-3.43a17.42 17.42 0 0 1 17.44 17.43Zm69.64 0h-3.44a17.42 17.42 0 0 1 17.4-17.39v3.43a14 14 0 0 0-13.96 13.96Zm-36.54-6.41a20.2 20.2 0 1 1 20.2-20.19 20.21 20.21 0 0 1-20.2 20.19Zm0-36.95a16.76 16.76 0 1 0 16.76 16.76 16.77 16.77 0 0 0-16.76-16.76Zm-30.01 15.04h5.98v3.43h-5.98zm53.41 0h5.98v3.43h-5.98z"/><path class="cls-3" d="M350.8 311.94h-9.05a2.47 2.47 0 0 1-2.47-2.47V197.63a2.26 2.26 0 0 1 2.25-2.26h63.75a2.26 2.26 0 0 1 2.25 2.26v54.92h-3.43V198.8h-61.39v109.7h8.09Z"/><path class="cls-3" d="M388.24 209.48h3.43v11.25h-3.43zm0 16.88h3.43v11.25h-3.43zm0 16.88h3.43v7.3h-3.43zm-19.02-6.84h-14a2.19 2.19 0 0 1-2.19-2.19v-21.56a2.2 2.2 0 0 1 2.19-2.19h14a2.2 2.2 0 0 1 2.19 2.19v21.56a2.19 2.19 0 0 1-2.19 2.19Zm-12.7-3.4H368v-19.1h-11.48Zm-24.17-132.56H196.81a1.72 1.72 0 0 1 0-3.43h135.54a1.72 1.72 0 0 1 0 3.43Zm-141.58 0h-5.56a1.72 1.72 0 0 1 0-3.44h5.56a1.72 1.72 0 0 1 0 3.44Zm-14.7 0h-9.78a1.72 1.72 0 0 1 0-3.44h9.78a1.72 1.72 0 1 1 0 3.44Z"/><path class="cls-3" d="M171.18 105.33a1.72 1.72 0 0 1-1.72-1.72v-9.78a1.72 1.72 0 0 1 3.44 0v9.78a1.72 1.72 0 0 1-1.72 1.72Zm56.15 22.25h-9.79a1.72 1.72 0 0 1 0-3.43h9.79a1.72 1.72 0 1 1 0 3.43Z"/><path class="cls-3" d="M222.44 132.47a1.72 1.72 0 0 1-1.72-1.72V121a1.72 1.72 0 1 1 3.43 0v9.78a1.72 1.72 0 0 1-1.71 1.69Zm45.3 13.81H258a1.72 1.72 0 1 1 0-3.43h9.78a1.72 1.72 0 1 1 0 3.43Z"/><path class="cls-3" d="M262.85 151.18a1.72 1.72 0 0 1-1.72-1.72v-9.79a1.72 1.72 0 0 1 3.44 0v9.79a1.72 1.72 0 0 1-1.72 1.72Zm164.02 34.89a1.75 1.75 0 0 1-1.22-.5l-6.91-6.92a1.71 1.71 0 0 1 2.42-2.43l6.92 6.92a1.72 1.72 0 0 1-1.21 2.93Z"/><path class="cls-3" d="M420 186.07a1.72 1.72 0 0 1-1.21-2.93l6.91-6.92a1.72 1.72 0 1 1 2.43 2.43l-6.92 6.92a1.71 1.71 0 0 1-1.21.5Zm-75.06-59.92a1.71 1.71 0 0 1-1.21-.51l-6.92-6.92a1.71 1.71 0 1 1 2.43-2.42l6.92 6.92a1.72 1.72 0 0 1-1.22 2.93Z"/><path class="cls-3" d="M338 126.15a1.72 1.72 0 0 1-1.22-2.93l6.92-6.92a1.71 1.71 0 1 1 2.43 2.42l-6.92 6.92a1.7 1.7 0 0 1-1.21.51Zm-213.95 44.58a1.72 1.72 0 0 1-1.22-2.93l6.92-6.92a1.71 1.71 0 0 1 2.43 2.42l-6.92 6.92a1.68 1.68 0 0 1-1.21.51Z"/><path class="cls-3" d="M131 170.73a1.72 1.72 0 0 1-1.22-.51l-6.92-6.92a1.71 1.71 0 0 1 2.43-2.42l6.92 6.92a1.71 1.71 0 0 1 0 2.42 1.68 1.68 0 0 1-1.21.51Zm54.94-43.15H83.73a1.72 1.72 0 1 1 0-3.43h102.21a1.72 1.72 0 1 1 0 3.43Zm-68.58 40.62H53.52a1.72 1.72 0 1 1 0-3.43h63.84a1.72 1.72 0 0 1 0 3.43Zm303.16-21.92H277a1.72 1.72 0 1 1 0-3.43h143.52a1.72 1.72 0 0 1 0 3.43Zm-211.38-18.7h-11a1.72 1.72 0 0 1 0-3.43h11a1.72 1.72 0 1 1 0 3.43ZM89.5 188.42l4.34-2.51 4.35 2.51v5.02l-4.35 2.51-4.34-2.51v-5.02zm9.22-94.88 4.34-2.51 4.35 2.51v5.02l-4.35 2.51-4.34-2.51v-5.02zM465 237.58l2.58-1.49 2.58 1.49v2.98l-2.58 1.49-2.58-1.49v-2.98zm-417.3.07 2.58-1.49 2.58 1.49v2.98l-2.58 1.5-2.58-1.5v-2.98zm308.63-71.15 4.35-2.51 4.35 2.51v5.02l-4.35 2.51-4.35-2.51v-5.02zm14.24-76.06 5.87-3.38 5.86 3.38v6.78l-5.86 3.38-5.87-3.38v-6.78z"/><circle class="cls-4" cx="313.45" cy="215.67" r="24.75" transform="rotate(-76.65 313.47 215.668)"/><path class="cls-2" d="M313.45 190.93a24.7 24.7 0 0 0-21.3 12.19 24.72 24.72 0 0 1 38.23 30.57 24.73 24.73 0 0 0-16.93-42.76Z"/><path class="cls-3" d="M315 218.15h-11.8v-3.44H315a3.91 3.91 0 0 0 0-7.82h-11.8v-3.43H315a7.35 7.35 0 1 1 0 14.69Z"/><path class="cls-3" d="M317.09 229.23H303.2v-3.43h13.89c2.7 0 4.89-1.76 4.89-3.91s-2.19-3.91-4.89-3.91H303.2v-3.44h13.89c4.59 0 8.32 3.3 8.32 7.35s-3.73 7.34-8.32 7.34Z"/><path class="cls-3" d="M305.85 199.63h3.43v32.08h-3.43zm5.22 0h3.43v5.54h-3.43zm0 27.89h3.43v4.2h-3.43z"/><path class="cls-3" d="M313.45 242.14a26.47 26.47 0 1 1 26.46-26.47 26.5 26.5 0 0 1-26.46 26.47Zm0-49.49a23 23 0 1 0 23 23 23.05 23.05 0 0 0-23-23Z"/><circle class="cls-4" cx="249.35" cy="215.67" r="24.75" transform="rotate(-76.65 249.363 215.674)"/><path class="cls-2" d="M249.35 190.93a24.7 24.7 0 0 0-21.3 12.19 24.71 24.71 0 0 1 38.22 30.57 24.72 24.72 0 0 0-16.92-42.76Z"/><path class="cls-3" d="M250.94 218.15H239.1v-3.44h11.84a3.91 3.91 0 0 0 0-7.82H239.1v-3.43h11.84a7.35 7.35 0 1 1 0 14.69Z"/><path class="cls-3" d="M253 229.23h-13.9v-3.43H253c2.7 0 4.89-1.76 4.89-3.91S255.69 218 253 218h-13.9v-3.44H253c4.59 0 8.32 3.3 8.32 7.35s-3.74 7.32-8.32 7.32Z"/><path class="cls-3" d="M241.75 199.63h3.43v32.08h-3.43zm5.21 0h3.43v5.54h-3.43zm0 27.89h3.43v4.2h-3.43z"/><path class="cls-3" d="M249.35 242.14a26.47 26.47 0 1 1 26.46-26.47 26.5 26.5 0 0 1-26.46 26.47Zm0-49.49a23 23 0 1 0 23 23 23.05 23.05 0 0 0-23-23Z"/><circle class="cls-4" cx="281.4" cy="198.5" r="24.75" transform="rotate(-76.65 281.417 198.502)"/><path class="cls-2" d="M281.4 173.76A24.7 24.7 0 0 0 260.1 186a24.71 24.71 0 0 1 38.22 30.57 24.72 24.72 0 0 0-16.92-42.76Z"/><path class="cls-3" d="M283 201h-11.85v-3.44H283a3.91 3.91 0 0 0 0-7.82h-11.85v-3.43H283a7.35 7.35 0 1 1 0 14.69Z"/><path class="cls-3" d="M285 212.06h-13.85v-3.43H285c2.7 0 4.89-1.76 4.89-3.91s-2.19-3.91-4.89-3.91h-13.85v-3.44H285c4.59 0 8.32 3.3 8.32 7.35s-3.69 7.34-8.32 7.34Z"/><path class="cls-3" d="M273.8 182.46h3.43v32.08h-3.43zm5.22 0h3.43V188h-3.43zm0 27.89h3.43v4.2h-3.43z"/><path class="cls-3" d="M281.4 225a26.47 26.47 0 1 1 26.46-26.47A26.51 26.51 0 0 1 281.4 225Zm0-49.49a23 23 0 1 0 23 23 23.05 23.05 0 0 0-23-23.03Z"/><rect class="cls-5" x="216.95" y="215.84" width="130.02" height="94.38" rx="1.91"/><path class="cls-3" d="M342.6 311.94H221.32a6.09 6.09 0 0 1-6.09-6.09V220.2a6.09 6.09 0 0 1 6.09-6.08H342.6a6.08 6.08 0 0 1 6.08 6.08v85.65a6.09 6.09 0 0 1-6.08 6.09Zm-121.28-94.39a2.65 2.65 0 0 0-2.65 2.65v85.65a2.65 2.65 0 0 0 2.65 2.65H342.6a2.65 2.65 0 0 0 2.65-2.65V220.2a2.65 2.65 0 0 0-2.65-2.65Z"/><path d="M320.72 251.15H347v23.76h-26.28a2.42 2.42 0 0 1-2.42-2.42v-18.92a2.42 2.42 0 0 1 2.42-2.42Z" style="fill:#6ee0cd"/><path class="cls-3" d="M348.68 276.63h-24.83a7.28 7.28 0 0 1-7.27-7.27v-12.67a7.27 7.27 0 0 1 7.27-7.26h24.83Zm-24.83-23.77a3.83 3.83 0 0 0-3.83 3.83v12.67a3.82 3.82 0 0 0 3.83 3.83h21.4v-20.33Z"/><path class="cls-3" d="M337.94 263a5.78 5.78 0 1 1-5.78-5.77 5.77 5.77 0 0 1 5.78 5.77Z"/><path class="cls-3" d="M332.16 270.52a7.49 7.49 0 1 1 7.49-7.49 7.5 7.5 0 0 1-7.49 7.49Zm0-11.55a4.06 4.06 0 1 0 4.06 4.06 4.06 4.06 0 0 0-4.06-4.03Zm.35-34.79h6.73v3.43h-6.73zm-15.75 0h6.73v3.43h-6.73zm-15.76 0h6.73v3.43H301zm-15.75 0h6.73v3.43h-6.73zm-15.75 0h6.73v3.43h-6.73zm-15.75 0h6.73v3.43h-6.73zm-15.75 0h6.73v3.43H238zm-15.76 0h6.73v3.43h-6.73zm110.27 73.28h6.73v3.43h-6.73zm-15.75 0h6.73v3.43h-6.73zm-15.76 0h6.73v3.43H301zm-15.75 0h6.73v3.43h-6.73zm-15.75 0h6.73v3.43h-6.73zm-15.75 0h6.73v3.43h-6.73zm-15.75 0h6.73v3.43H238zm-15.76 0h6.73v3.43h-6.73z"/><path class="cls-4" d="M280.59 265.53h-12.35v-3.43h12.35a4.15 4.15 0 1 0 0-8.3h-12.35v-3.44h12.35a7.59 7.59 0 0 1 0 15.17Z"/><path class="cls-4" d="M282.73 277.09h-14.49v-3.43h14.49c2.85 0 5.16-1.86 5.16-4.15s-2.31-4.15-5.16-4.15h-14.49v-3.43h14.49c4.74 0 8.6 3.4 8.6 7.58s-3.86 7.58-8.6 7.58Z"/><path class="cls-4" d="M271.08 246.3h3.43v33.45h-3.43zm5.44 0h3.43v5.78h-3.43zm0 29.08h3.43v4.38h-3.43zm-16.66-13.28h4.26v3.43h-4.26zm33.14 0h4.26v3.43H293z"/><path class="cls-4" d="M278.79 288.33a24.52 24.52 0 1 1 24.52-24.51 24.54 24.54 0 0 1-24.52 24.51Zm0-45.59a21.08 21.08 0 1 0 21.08 21.08 21.1 21.1 0 0 0-21.08-21.08Z"/><g class="cls-7"><path class="cls-3" d="M245.64 302.32v-88.2h-24.32a6.09 6.09 0 0 0-6.09 6.08v85.65a6.09 6.09 0 0 0 6.09 6.09H236a9.63 9.63 0 0 0 9.64-9.62Z"/></g><rect class="cls-4" x="143.48" y="144.98" width="93.58" height="165.24" rx="7.9"/><path class="cls-5" d="M143.48 170.23h93.58v116.42h-93.58z"/><g class="cls-7"><path class="cls-3" d="M229.16 145h-10.87a7.91 7.91 0 0 1 7.91 7.9v149.42a7.91 7.91 0 0 1-7.91 7.9h10.87a7.9 7.9 0 0 0 7.9-7.9V152.88a7.9 7.9 0 0 0-7.9-7.88Z"/></g><path d="M151.39 145h10.86a7.9 7.9 0 0 0-7.9 7.9v149.42a7.9 7.9 0 0 0 7.9 7.9h-10.86a7.91 7.91 0 0 1-7.91-7.9V152.88a7.91 7.91 0 0 1 7.91-7.88Z" style="fill:#97ffed" class="cls-7"/><path class="cls-3" d="M229.16 311.94h-77.77a9.63 9.63 0 0 1-9.62-9.62V152.88a9.63 9.63 0 0 1 9.62-9.62h77.77a9.64 9.64 0 0 1 9.62 9.62v149.44a9.64 9.64 0 0 1-9.62 9.62ZM151.39 146.7a6.19 6.19 0 0 0-6.19 6.18v149.44a6.19 6.19 0 0 0 6.19 6.18h77.77a6.18 6.18 0 0 0 6.18-6.18V152.88a6.18 6.18 0 0 0-6.18-6.18Z"/><path class="cls-3" d="M143.48 167.12h93.58v3.43h-93.58zm31.77-11.38h21.48v3.43h-21.48zm24.02 0h6.01v3.43h-6.01zm-55.79 129.2h93.58v3.43h-93.58zm324.1 27H45.93a1.72 1.72 0 0 1 0-3.44h421.65a1.72 1.72 0 1 1 0 3.44Zm12.42 0h-6.23a1.72 1.72 0 0 1 0-3.44H480a1.72 1.72 0 0 1 0 3.44Zm-440.25 0H29.19a1.72 1.72 0 0 1 0-3.44h10.56a1.72 1.72 0 0 1 0 3.44Z"/><g class="cls-7"><path class="cls-3" d="M93.84 219.51h91.96v91.96H93.84z"/></g><path class="cls-4" d="M89.84 221.22h88.52v88.52H89.84z"/><path class="cls-3" d="M180.07 311.46H88.12v-91.95h91.95ZM91.55 308h85.09v-85.06H91.55Z"/><path class="cls-3" d="M111.46 241.64H96.2v-15.26h15.26Zm-11.83-3.44H108v-8.39h-8.37Zm11.83 66.39H96.2v-15.26h15.26Zm-11.83-3.43H108v-8.39h-8.37Z"/><path class="cls-3" d="M100.83 293.97h5.99v5.99h-5.99zm-.09-63.28h5.99v5.99h-5.99zm60.76.32h5.99V237h-5.99zm0 62.96h5.99v5.99h-5.99z"/><path class="cls-3" d="M172.13 241.64h-15.27v-15.26h15.27Zm-11.83-3.44h8.39v-8.39h-8.39Zm11.83 66.39h-15.27v-15.26h15.27Zm-11.83-3.43h8.39v-8.39h-8.39Zm-44.64-74.78h7.25v3.43h-7.25zm0 6.19h32.05V236h-32.05zm0 6.21h5.72v3.43h-5.72zm8.01 0h5.72v3.43h-5.72zm7.12 0h13.24v3.43h-13.24zm-28.87 6.2h5.72v3.43h-5.72zm8.01 0h5.72v3.43h-5.72zm8.65 0h18.82v3.43h-18.82zm19.97 0h3.43v3.43h-3.43zm5.72 0h3.43v3.43h-3.43zm5.73 0h3.43v3.43H150zm7.85 0h8.91v3.43h-8.91zm-61.65 6.2h30.33v3.43H96.2zm32.62 0h5.15v3.43h-5.15zm7.77 0h23.1v3.43h-23.1zm-34.67 6.2h45.79v3.43h-45.79zm49.22 0h8.78v3.43h-8.78zm-43.5 6.2h40.06v3.43h-40.06zm41.21 0h7.82v3.43h-7.82zm11.45 0h7.82v3.43h-7.82zm-56.57 0h1.62v3.43h-1.62zm-3.43 0h1.62v3.43h-1.62zm26.23 6.2h43.88v3.43h-43.88zm-7.44 0h5.15v3.43h-5.15zm-8.01 0h5.15v3.43h-5.15zm-8.01 0h5.15v3.43h-5.15zm-5.16 6.2h49.79v3.43H97.91zm54 0h18.5v3.43h-18.5zm-36.25 6.2h24.61v3.43h-24.61zm32.05 0h10.14v3.43h-10.14zm13.57 0h4.45v3.43h-4.45zm-51.35 0h3.43v3.43h-3.43zm-8.29 0h6.62v3.43h-6.62zm14.02 6.2h12.02v3.43h-12.02zm14.37 0h21.88v3.43h-21.88zm-14.37 6.2h3.63v3.43h-3.63zm5.72 0h3.63v3.43h-3.63zm6.87 0h3.63v3.43h-3.63zm6.42 0h8.91v3.43h-8.91zm-19.01 6.2h32.05v3.43h-32.05z"/><path class="cls-3" d="M100.2 285.33h32.05v3.43H100.2zm13.8-5.92h32.05v3.43H114zm17.68-6.68h32.05v3.43h-32.05zm-19.74-5.91h32.05v3.43h-32.05zm20.17-6.49h32.05v3.43h-32.05zm-26.47-6.1h32.05v3.43h-32.05zm26.04-6.11h32.05v3.43h-32.05zM114 241.64h32.05v3.43H114zm6.56 49.79h32.05v3.43h-32.05zM150 232.29h3.82v3.43H150zm-23.94-5.91h7.93v3.43h-7.93z"/><rect class="cls-5" x="53.66" y="272.39" width="39.74" height="37.18" rx=".19"/><path class="cls-3" d="M92.77 311.29H53.88a2.15 2.15 0 0 1-2.14-2.15v-36.33a2.14 2.14 0 0 1 2.14-2.14h38.89a2.14 2.14 0 0 1 2.14 2.14v36.33a2.15 2.15 0 0 1-2.14 2.15Zm-37.6-3.44h36.31V274.1H55.17Z"/><path class="cls-3" d="M88.78 272.39h-3.43v-9.33a12 12 0 0 0-24 0v9.33h-3.48v-9.33a15.46 15.46 0 0 1 30.91 0Z"/><path class="cls-4" d="M73.32 299.87a8.89 8.89 0 1 1 8.89-8.87 8.89 8.89 0 0 1-8.89 8.87Zm0-14.35a5.46 5.46 0 1 0 5.46 5.48 5.46 5.46 0 0 0-5.46-5.48Z"/></svg>