<svg data-name="Layer 1" xmlns="http://www.w3.org/2000/svg" viewBox="0 0 512 512"><path d="M454.2 271.73 399 185.4a23.22 23.22 0 0 0-19.52-10.76l-245.76-1.4a23.27 23.27 0 0 0-19.63 10.51l-56.37 85.71a23.4 23.4 0 0 0 2 28.24l177.51 201.59a23.34 23.34 0 0 0 17.37 7.91 23.33 23.33 0 0 0 17.46-7.71l179.82-199.58a23.38 23.38 0 0 0 2.32-28.18Zm-86.13-77.16-47.26 72.18L274.35 194Zm-65.68 80.48-92.94-.52L256.32 203Zm-64-81.21-47.16 72-46.31-72.5Zm-112 7.6L173 274.32l-94.14-.54Zm-43.46 92.37 100.64.57 52.23 173Zm171.93 167.52L204.5 294.5l102.61.58Zm19 6.3L328 295.2l100.65.57Zm65.31-192.37L386.48 203l46.58 72.83Zm-308.91-1.75-20.33-.12a10 10 0 1 0-.11 20l20.33.12a10 10 0 1 0 .11-20Zm471.66 2.67-20.33-.11a10 10 0 1 0-.11 20l20.33.11a10 10 0 1 0 .11-20ZM438 104.85a10 10 0 0 0-14.14-.08l-33.41 33a10 10 0 1 0 14.1 14.23L438 119a10 10 0 0 0 0-14.15Zm-314.64 31.26-33-33.41a10 10 0 0 0-14.22 14.06l33 33.41a10 10 0 1 0 14.22-14.06ZM257.58 28.79a10 10 0 0 0-10.06 10l-.37 65.16a10 10 0 1 0 20 .12l.37-65.17a10 10 0 0 0-9.94-10.11Zm6.48 101.97a10 10 0 1 0 2.89 7.09 10.05 10.05 0 0 0-2.89-7.09Z" style="fill:#837fcb"/></svg>