<svg data-name="Layer 1" xmlns="http://www.w3.org/2000/svg" viewBox="0 0 512 512"><path d="m454.25 258.61-55.7-86A23.24 23.24 0 0 0 379 161.94H133.2a23.24 23.24 0 0 0-19.56 10.62l-55.88 86a23.4 23.4 0 0 0 2.15 28.23L238.57 487.4a23.36 23.36 0 0 0 17.43 7.81 23.36 23.36 0 0 0 17.42-7.81l178.67-200.6a23.38 23.38 0 0 0 2.16-28.19Zm-86.56-76.67-46.85 72.44L274 181.94Zm-65.23 80.85h-92.94L256 191ZM238 181.94l-46.74 72.24-46.73-72.24Zm-112 8.24 47 72.61H78.89Zm-42.89 92.61h100.64L237 455.53ZM256 449.34l-51.32-166.55H307.3Zm19 6.19 53.22-172.74h100.66Zm64.21-192.74 46.93-72.56 47 72.56Zm-308.88 0H10a10 10 0 0 0 0 20h20.33a10 10 0 0 0 0-20Zm471.67 0h-20.33a10 10 0 0 0 0 20H502a10 10 0 0 0 0-20ZM437.15 91.83a10 10 0 0 0-14.15 0L389.79 125a10 10 0 1 0 14.14 14.14L437.15 106a10 10 0 0 0 0-14.17Zm-314.5 33.03L89.43 91.65a10 10 0 0 0-14.14 14.14L108.5 139a10 10 0 1 0 14.15-14.15Zm133.6-108.07a10 10 0 0 0-10 10V92a10 10 0 0 0 20 0V26.79a10 10 0 0 0-10-10Zm7.07 101.93a10 10 0 1 0 2.93 7.07 10.08 10.08 0 0 0-2.93-7.07Z" style="fill:#00b289"/></svg>