<svg id="Layer_1" data-name="Layer 1" xmlns="http://www.w3.org/2000/svg" viewBox="0 0 230 230"><defs><style>.cls-2{fill:#f77f63}.cls-3{fill:#ef9c8b}.cls-4{fill:#414242}.cls-5{fill:#d8614a}.cls-7{fill:#dfdfdf}.cls-8{fill:#a5a5a5}.cls-9{fill:#fff}.cls-10{fill:#d4d4d4}.cls-12{fill:#a4a4a4}</style></defs><path d="m48 149.8-1.9 1.1a2.89 2.89 0 0 1-3.1 0l-6.5-3.8a1.12 1.12 0 0 1 0-1.9l2.9-1.7a1.08 1.08 0 0 1 1.1 0l7.5 4.3a1.13 1.13 0 0 1 0 2Z" style="fill:#d3d3d3"/><path class="cls-2" d="m45.1 128.6-3.2 1.9-6.2-3.6 3.2-1.9 6.2 3.6Z"/><path class="cls-3" d="m45.1 130-3.2 1.9-6.2-3.6 3.2-1.9 6.2 3.6Z"/><path class="cls-4" d="m41.9 131.1-.3-.1-6.4-3.7v-.6l.2-.2 3.5-2 .3.1 6.4 3.7v.6l-.3.2Zm-5.3-4.2 5.3 3.1 2.3-1.3-5.3-3.1Z"/><path class="cls-2" d="M35.6 126.9v17.2l6.2 3.6v-17.2l-6.2-3.6Z"/><path class="cls-4" d="m41.8 148.3-.3-.1-6.4-3.7v-17.8l.5-.3.3.1 6.4 3.7V148Zm-5.7-4.4 5.3 3.1v-16.1l-5.3-3.1Z"/><path class="cls-5" d="M45.2 128.7v17.2l-3.2 1.9v-17.2l3.2-1.9c-.1-.1 0-.1 0 0Z"/><path class="cls-4" d="m41.9 148.3-.5-.3v-17.8l.3-.2 3.5-2 .5.3v17.8l-.3.2Zm.4-17.5v16.1l2.3-1.3v-16.1Z"/><path d="m191.2 151-61.6 35.6a8.4 8.4 0 0 1-8.4 0l-62.7-36.4a2.63 2.63 0 0 1 0-4.6l64.5-37.3a2.44 2.44 0 0 1 2.6 0l65.3 37.9c1.8 1.1 2.1 3.8.3 4.8Z" style="fill:#d5d5d5"/><path class="cls-7" d="m62.7 119.2-.1-35.7 116.9-1.6.1 61.4a1.83 1.83 0 0 1-1.1 1.9l-55.7 31.9a7.06 7.06 0 0 1-6.6-.3l-51.9-30.1c-1.1-.6-1.6-26.7-1.6-27.5Z"/><path class="cls-8" d="m119.7 118-.1 59.7 3.2-.6 56.8-32.7-.2-59.8-57.4 33.1-2.3.3z"/><path class="cls-4" d="M119.9 178.1a7.32 7.32 0 0 1-3.9-1L64.1 147c-1.4-.8-1.7-27.1-1.8-27.9L62.2 83l117.6-1.6.1 61.7a2 2 0 0 1-1.3 2.2L123 177.4a7.09 7.09 0 0 1-3.1.7ZM63 83.8l.1 35.4c-.1 1.3.5 26.4 1.4 27.2l51.9 30.1a6.84 6.84 0 0 0 6.2.3l55.7-31.9a1.55 1.55 0 0 0 .9-1.6l-.1-61.1Z"/><path class="cls-7" d="m122.7 115.7 55.7-31.9c1.7-1 1.5-2.7-.5-3.8L126 49.9a7.69 7.69 0 0 0-6.6-.3L63.7 81.5c-1.7 1-1.5 2.7.5 3.8l51.9 30.1c2 1.1 4.9 1.3 6.6.3Z"/><path class="cls-4" d="M119.8 116.7a7.32 7.32 0 0 1-3.9-1L64 85.7a3.14 3.14 0 0 1-1.8-2.5 2.42 2.42 0 0 1 1.3-2l55.7-31.9a7.67 7.67 0 0 1 6.9.3L178 79.7a3.14 3.14 0 0 1 1.8 2.5 2.42 2.42 0 0 1-1.3 2L122.9 116a5.93 5.93 0 0 1-3.1.7Zm2.5-67.3a5.67 5.67 0 0 0-2.7.6L63.9 81.8c-.6.4-1 .8-1 1.3a2.34 2.34 0 0 0 1.4 1.8l51.9 30.1a6.84 6.84 0 0 0 6.2.3l55.7-31.9c.6-.4 1-.8 1-1.3a2.34 2.34 0 0 0-1.4-1.8l-51.9-30.1a8.17 8.17 0 0 0-3.5-.8Z"/><path class="cls-7" d="M62.6 76.9a2.63 2.63 0 0 0 1.6 1.9l51.9 30.1a7.69 7.69 0 0 0 6.6.3l55.7-31.9a2.39 2.39 0 0 0 1.1-1.4v7.7a1.83 1.83 0 0 1-1.1 1.9l-55.7 31.9a7.06 7.06 0 0 1-6.6-.3l-51.9-30c-1.1-.7-1.7-1.5-1.6-2.3v-7.9Z"/><path class="cls-7" d="m63.7 75.1 55.7-31.9a7.06 7.06 0 0 1 6.6.3l51.9 30.1c2 1.1 2.2 2.8.5 3.8l-55.7 31.9a7.06 7.06 0 0 1-6.6-.3L64.2 78.9c-2-1.1-2.2-2.8-.5-3.8Zm7 3.3 46.3 26.8a6.06 6.06 0 0 0 5.4.2L172.2 77c1.4-.8 1.2-2.2-.4-3.1l-46.3-26.8a6.06 6.06 0 0 0-5.4-.2L70.3 75.3c-1.3.8-1.2 2.2.4 3.1Z"/><path class="cls-9" d="M120.1 60.4 82.8 81.7l37.5 21.7a6.06 6.06 0 0 0 5.4.2L163.6 82l-36.9-21.4a7.34 7.34 0 0 0-6.6-.2Z"/><path class="cls-9" d="M126 45.1a7.69 7.69 0 0 0-6.6-.3L63.7 76.7a1.91 1.91 0 0 0-.9.9 3.56 3.56 0 0 0 1.4 1.3l51.9 30.1a7.69 7.69 0 0 0 6.6.3l55.7-31.9a1.91 1.91 0 0 0 .9-.9 3.56 3.56 0 0 0-1.4-1.3Zm46.2 33.4L122.4 107a6.06 6.06 0 0 1-5.4-.2L70.7 79.9c-1.2-.7-1.6-1.7-1.1-2.5a1.5 1.5 0 0 1 .6-2.2L120 46.8a6.06 6.06 0 0 1 5.4.2l46.3 26.8c1.2.7 1.6 1.7 1.1 2.5a1.46 1.46 0 0 1-.6 2.2Z"/><path class="cls-7" d="m70.3 75.3 49.8-28.4a6.06 6.06 0 0 1 5.4.2l46.3 26.8c1.6.9 1.8 2.3.4 3.1l-5.9 3.4L125.9 57a6.06 6.06 0 0 0-5.4-.2l-43.8 25-5.9-3.4c-1.7-.9-1.8-2.3-.5-3.1Zm97.5 72.1.1-32.7-42.2 24.2v32.8l42.1-24.3z"/><path class="cls-4" d="M125.4 172.2v-33.4l.1-.1 42.5-24.5v33.3l-.1.1Zm.6-33.1v32.2l41.6-24v-32.1Z"/><path class="cls-7" d="M167 146.8v-31.7l.9-.4-.1 32.7-42.1 24.3v-1.1l41.3-23.8z"/><path class="cls-4" d="M125.4 172.2v-1.7l.1-.1 41.2-23.8V115l1.4-.8v33.3l-.1.1Zm.6-1.4v.4l41.6-24v-32.1l-.3.2v31.6l-.1.1Z"/><path class="cls-7" d="m176.3 142.6.1-32.5-5.7 3.2-.1 32.6 5.7-3.3z"/><path class="cls-4" d="M170.3 146.4v-33.2l6.2-3.5v33.1Zm.6-32.9v32l5.2-3v-31.9Z"/><path class="cls-7" d="M175.5 142v-31.4l.9-.5-.1 32.5-5.7 3.3v-1l4.9-2.9z"/><path class="cls-4" d="M170.3 146.4v-1.7l4.9-2.9v-31.4l1.4-.8v33.1Zm.6-1.4v.4l5.2-3v-31.9l-.3.2v31.4ZM99 165.3l-7.9-4.7v-29.9l7.9 4.4Zm-7.4-4.9 6.9 4v-28.8l-6.9-3.8Z"/><path class="cls-7" d="M92.3 131.6v28.2l6.4 3.7v1.3l-7.4-4.3V131l1 .6z"/><path class="cls-4" d="m99 165.3-7.9-4.7v-30.1l1.5.8v28.2l6.4 3.7Zm-7.4-4.9 6.9 4v-.7l-6.4-3.7v-28.2l-.5-.3Z"/><path class="cls-7" d="M98.7 146v1.4l-6-3.3v-1.5l6 3.4z"/><path class="cls-4" d="m106.3 169.7-7.9-4.7v-30.1l7.9 4.4Zm-7.3-5 6.9 4v-29.1l-6.9-3.8Z"/><path class="cls-7" d="M99.7 135.9v28.3l6.4 3.7v1.3l-7.4-4.3v-29.5l1 .5z"/><path class="cls-4" d="m106.3 169.7-7.9-4.7v-30.1l1.5.8v28.2l6.4 3.7Zm-7.3-5 6.9 4v-.7l-6.4-3.7v-28.2l-.5-.3Z"/><path class="cls-7" d="m110.8 132.5-10.2-5.9v-8.8l10.2 5.9v8.8z"/><path class="cls-7" d="m100.6 117.8 3.2-1.7L114 122l-3.2 1.7-10.2-5.9z"/><path class="cls-9" d="m102 118.5 1.8-.9 10.2 5.9-1.8.9-10.2-5.9z"/><path class="cls-8" d="m110.8 132.5 3.2-1.7V122l-3.2 1.7v8.8z"/><path class="cls-4" d="m114.3 121.8-10.5-6.1-3.6 1.9v9.2l10.5 6.1 3.6-1.9Zm-10.5-5.3 9.5 5.5-1.9 1-.6.3-9.5-5.5Zm-2.9 9.9v-8l9.5 5.5v8Zm12.7 4.2-2.5 1.4v-8l.6-.3 1.9-1Z"/><path class="cls-9" d="M109.2 127.7c0 1.6-1.1 2.2-2.4 1.4a5.56 5.56 0 0 1-2.4-4.2c0-1.6 1.1-2.2 2.4-1.4a5.4 5.4 0 0 1 2.4 4.2Z"/><path class="cls-4" d="M106.7 128.7a2.42 2.42 0 0 1-1.3-.4 5.48 5.48 0 0 1-2.6-4.5 2 2 0 0 1 .9-1.9 2 2 0 0 1 2.1.2 5.62 5.62 0 0 1 2.6 4.5 2 2 0 0 1-.9 1.9 1.88 1.88 0 0 1-.8.2Zm-2.2-6.3a.9.9 0 0 0-.5.1 1.58 1.58 0 0 0-.5 1.3 4.91 4.91 0 0 0 2.3 3.9 1.47 1.47 0 0 0 1.4.2 1.58 1.58 0 0 0 .5-1.3 4.91 4.91 0 0 0-2.3-3.9 1.61 1.61 0 0 0-.9-.3Z"/><path class="cls-8" d="m122.5 46.3-.1 10-1.1.2-44.7 25.3-6.3-3.7-.9-1.2.5-1.4 50.2-28.6 2.4-.6zm-2.8 63.6v8.1l2.7-.4L179 85l.5-.9-.3-7.5-56.5 32.7-1.5.5-1.5.1z"/><path class="cls-7" d="m133.7 175.7-.9 3.1a2.14 2.14 0 0 1-1.3.6 1.83 1.83 0 0 1-1.3-.6l-1-2.9Z"/><path class="cls-8" d="m131.6 176.6-.2 2.7 1.4-.4.6-2.9-1.8.6z"/><path class="cls-4" d="M131.4 179.6a2.1 2.1 0 0 1-1.6-.7l-.1-.1-1.2-3.4 5.5-.2-1.1 3.6.1.2a2.18 2.18 0 0 1-1.6.6Zm-1-1.1a1.45 1.45 0 0 0 2 0l.7-2.5-3.6.1Z"/><path class="cls-7" d="m127.8 171.9 2.1-8.1a1.53 1.53 0 0 1 1.6-1.3 1.71 1.71 0 0 1 1.6 1.3l2.1 8.1a2.77 2.77 0 0 1 .1.9 3.8 3.8 0 1 1-7.6 0 1.41 1.41 0 0 1 .1-.9Z"/><path class="cls-9" d="m135 171.9-1.8-7.1a1.09 1.09 0 0 0-.5-.1 1.71 1.71 0 0 0-1.6 1.3l-2.1 8.1a2.77 2.77 0 0 0-.1.9 1.27 1.27 0 0 0 .1.6 4.17 4.17 0 0 0 2.4.9 3.8 3.8 0 0 0 3.8-3.8c-.1-.2-.1-.5-.2-.8Z"/><path class="cls-4" d="M131.4 177a4.12 4.12 0 0 1-4.1-4.1v-.6l2.2-8.6v-.2a1.92 1.92 0 0 1 1.8-1.3 2 2 0 0 1 1.9 1.4l.1.2 2.2 8.6v.6a4.17 4.17 0 0 1-4.1 4Zm-3.2-5.4-.1.4a2.49 2.49 0 0 0-.1.8 3.4 3.4 0 1 0 6.8 0 2.2 2.2 0 0 0-.1-.8l-.1-.4-2-7.7a1.22 1.22 0 0 0-2.4 0l-.1.3Zm4.5-10.6-.6-.3 10.1-22 .6.3-10.1 22zm7.5-8.8-.6-.3 8.1-17.1.6.2-8.1 17.2zm13.8-2.3-.6-.3 9-18.8.7.3-9.1 18.8zm-60.5-2.2-.4-.4 4.4-4.9.4.4-4.4 4.9z"/><path class="cls-4" transform="rotate(-48.72 94.755 149.158)" d="M92.6 148.9h4.3v.5h-4.3z"/><path class="cls-4" transform="rotate(-48.72 102.109 154.164)" d="M99.96 153.92h4.3v.5h-4.3z"/><path class="cls-5" d="m85.1 139.2 12.1-6.9v-4.4l-3.5 2.1-8.6 7.1v2.1z"/><path class="cls-2" d="M85.1 137.1 53 118.2l8.5-7.1L93.7 130l-8.6 7.1z"/><path class="cls-2" d="M85.1 137.1 53 119.7l8.5-7.1 30.9 18.2-7.3 6.3zm12.1-9.2L65 109l-3.5 2.1L93.7 130l3.5-2.1z"/><path class="cls-3" d="M95.9 128.7 65 110.6l-3.5 2 30.9 18.2 3.5-2.1z"/><path class="cls-2" d="M85.1 139.2 53 120.3v-2.1l32.1 18.9v2.1z"/><path class="cls-4" d="m52.7 118.1 8.4-7 .3-.2.1-.1 3.5-2 32.4 19v4.6l-12.3 7.1-32.4-19Zm32.4 18.7 8.2-6.8-31.7-18.6-8.2 6.8ZM65 109.3l-3 1.7 4.9 2.9 26.8 15.7 3-1.7Zm32 22.9v-3.8l-3.1 1.8-2.7 2.2-5.8 4.8v1.6Zm-43.8-12 31.7 18.6v-1.6l-31.7-18.6Z"/><path class="cls-2" d="m183.7 96.4-6.3-3.6a1.21 1.21 0 0 0-1 .1l-50.3 29a3.78 3.78 0 0 0-1.5 2.9v10.7a1.69 1.69 0 0 0 .4 1.2.1.1 0 0 1 .1.1l6.1 3.5 4-8.7 2.1-1.3 39.1-22.5a3.78 3.78 0 0 0 1.5-2.9v-.5l2.8-1.8Z"/><path class="cls-3" d="M177.4 95.4a1.21 1.21 0 0 0-1 .1l-50.3 29a3.78 3.78 0 0 0-1.5 2.9l9 5.1 1.6 1.6 2.1-1.3 39.1-22.5a3.78 3.78 0 0 0 1.5-2.9v-.5l2.8-1.8 2.9-6Z"/><path class="cls-4" d="m131.4 140.7-6.5-3.7a.1.1 0 0 1-.1-.1 1.75 1.75 0 0 1-.6-1.5v-10.7a4 4 0 0 1 1.7-3.2l50.4-29a1.23 1.23 0 0 1 1.3-.1h.1l6.1 3.5a.54.54 0 0 1 .2.8l-2.9 5.9-2.8 1.8v.3a4 4 0 0 1-1.7 3.2l-39.1 22.5-2 1.3ZM177 93.1c-.1 0-.3.1-.4.1l-50.4 29a3.39 3.39 0 0 0-1.4 2.6v10.7a1.22 1.22 0 0 0 .3.9l5.9 3.4 3.9-8.5 2.2-1.4 39.1-22.5a3.39 3.39 0 0 0 1.4-2.6v-.7l2.9-1.9 2.7-5.6-5.8-3.3-.2-.1c0-.1-.1-.1-.2-.1Z"/><path class="cls-5" d="m182.6 111.2-50.3 29c-.8.5-1.5 0-1.5-1.2v-10.7a3.78 3.78 0 0 1 1.5-2.9l50.3-29c.8-.5 1.5 0 1.5 1.2v10.7a3.27 3.27 0 0 1-1.5 2.9Z"/><path class="cls-4" d="M131.7 140.7a1.42 1.42 0 0 1-.6-.2 1.81 1.81 0 0 1-.7-1.5v-10.7a4 4 0 0 1 1.7-3.2l50.4-29a1.42 1.42 0 0 1 1.4-.1 1.81 1.81 0 0 1 .7 1.5v10.7a4 4 0 0 1-1.7 3.2l-50.4 29a1 1 0 0 1-.8.3Zm51.5-44.1c-.2 0-.3.1-.4.1l-50.4 29a3.39 3.39 0 0 0-1.4 2.6V139q0 .75.3.9a.61.61 0 0 0 .6-.1l50.4-29a3.39 3.39 0 0 0 1.4-2.6V97.5q0-.75-.3-.9c0 .1-.1 0-.2 0Zm-63.4 13.7a7.32 7.32 0 0 1-3.9-1L64 79.2a3.14 3.14 0 0 1-1.8-2.5 2.42 2.42 0 0 1 1.3-2l55.7-31.9a7.67 7.67 0 0 1 6.9.3L178 73.2a3.14 3.14 0 0 1 1.8 2.5 2.42 2.42 0 0 1-1.3 2l-55.7 31.9a6.32 6.32 0 0 1-3 .7ZM63.9 75.4c-.6.4-1 .8-1 1.3a2.34 2.34 0 0 0 1.4 1.8l51.9 30.1a6.84 6.84 0 0 0 6.2.3L178.1 77c.6-.4 1-.8 1-1.3a2.34 2.34 0 0 0-1.4-1.8l-51.9-30.1a6.84 6.84 0 0 0-6.2-.3Zm56.2 30.9a6.9 6.9 0 0 1-3.2-.8L70.6 78.7a2.6 2.6 0 0 1-1.5-2.1 2.08 2.08 0 0 1 1.1-1.7L120 46.5a6.08 6.08 0 0 1 5.7.2L172 73.6a2.6 2.6 0 0 1 1.5 2.1 2.08 2.08 0 0 1-1.1 1.7l-49.8 28.4a6.55 6.55 0 0 1-2.5.5Zm2.4-59.6a5.09 5.09 0 0 0-2.2.5L70.5 75.6a1.26 1.26 0 0 0-.7 1c0 .5.4 1 1.1 1.4l46.3 26.8a5.54 5.54 0 0 0 5 .2L172 76.7a1.26 1.26 0 0 0 .7-1c0-.5-.4-1-1.1-1.4l-46.3-26.8a4.79 4.79 0 0 0-2.8-.8Z"/><path class="cls-4" d="m76.6 82.2-6.1-3.5a2.6 2.6 0 0 1-1.5-2.1 2.08 2.08 0 0 1 1.1-1.7l49.8-28.4a6.08 6.08 0 0 1 5.7.2L172 73.6a2.6 2.6 0 0 1 1.5 2.1 2.08 2.08 0 0 1-1.1 1.7l-6.1 3.5-40.6-23.5a5.54 5.54 0 0 0-5-.2Zm-6.1-6.6a1.26 1.26 0 0 0-.7 1c0 .5.4 1 1.1 1.4l5.7 3.3 43.7-24.9a6.08 6.08 0 0 1 5.7.2L166.3 80l5.7-3.3c.3-.2.8-.5.7-1s-.4-1-1.1-1.4l-46.3-26.8a5.54 5.54 0 0 0-5-.2L70.5 75.6Z"/><path class="cls-8" d="M153.6 77.3V69l-18.2 10.1.3 8.3 17.9-10.1z"/><path class="cls-7" d="m135.4 79.1-17.2-10.2v8.3l17.5 10.2-.3-8.3zm23.1 0-4.4-3.1-.5 1.3-18 10.5 3.7 2 19.2-10.7z"/><path class="cls-7" d="m153.6 69-17.8-10.6-17.6 10.5 17.2 10.2L153.6 69z"/><path class="cls-9" d="m151.9 70.1-16.1-9.5-17.6 10.5 17.2 10.2v-2.2l16.5-9z"/><path class="cls-4" d="M154 68.8 135.8 58l-17.9 10.7v8.6l17.8 10.4L154 77.5Zm-18.2-9.9L152.9 69l-17.5 9.7-16.5-9.8ZM118.5 77v-7.4l16.5 9.8.1 3.5.1 3.9Zm17.5 9.8-.1-4.1-.1-3.4 17.5-9.8V77Z"/><path class="cls-7" d="M134.6 67.9c-1.4.2-2 .8-2 1.6v.1l-4.3 2.1a3.72 3.72 0 0 1-.7-2c0-2.7 3.3-4.8 7.5-5Zm-.7 3a3.58 3.58 0 0 0 1.9.4 2.56 2.56 0 0 0 1.8-.4l4.5 1.9a11.19 11.19 0 0 1-12.9-.3Zm4.9-1.4c.1-.1 0 .2 0 0a2 2 0 0 0-2-2l-.5-2.8c4.2.2 7.5 2.4 7.5 5a3.52 3.52 0 0 1-.9 2.3Z"/><path class="cls-4" d="m133.1 68.6-.1-.2v-.1c0-.3 0-1.1 1.7-1.3h.3l.6-3.9h-.4c-4.4.2-7.8 2.5-7.8 5.4a3.6 3.6 0 0 0 .7 2.2l.2.2 4.6-2.2Zm-.8-.4-3.8 1.8a2.93 2.93 0 0 1-.4-1.6c0-2.3 2.9-4.3 6.7-4.6l-.4 2.5c-1.7.3-2.1 1.2-2.1 1.9Zm5.1 1.2a2.89 2.89 0 0 1-1.7.3 2.73 2.73 0 0 1-1.7-.3l-.1-.1-5.5 1.9.4.4a11.59 11.59 0 0 0 13.3.2l.5-.4-5.2-2.2Zm3.9 2.3a11.11 11.11 0 0 1-5.6 1.5 10 10 0 0 1-5.9-1.7l4-1.4a6.17 6.17 0 0 0 3.8 0Zm-4.9-8.6h-.4l.6 3.5h.3a1.66 1.66 0 0 1 1.7 1.6l-.1.2.1.1v.2h.3l4.2 2.5.2-.2a4.17 4.17 0 0 0 1-2.5c-.1-2.9-3.5-5.2-7.9-5.4Zm6.4 7.2-3.6-2.2-.1-.1a2.32 2.32 0 0 0-2-2l-.4-2.1c3.8.3 6.7 2.3 6.7 4.6a2.2 2.2 0 0 1-.6 1.8Z"/><path class="cls-7" d="M132.6 68.3c0 1 1.4 1.8 3.1 1.8s3.1-.8 3.1-1.8c0-.7-.8-2.6-1.9-2.8-.4-.1-.8 1.1-1.2 1.1s-.8-1.2-1.2-1.1c-1 .2-1.9 2.1-1.9 2.8Z"/><path class="cls-8" d="M135.7 67.7v2.4l1.4-.3 1.2-.5.5-1-.6-1.8-1.3 1.1-1.2.1z"/><path class="cls-4" d="M135.7 70.4c-1.9 0-3.5-.9-3.5-2.1 0-.8.9-2.8 2.2-3.2.5-.1.7.3 1 .6a4 4 0 0 1 .3.4c.1 0 .2-.3.3-.4.2-.3.5-.8 1-.6 1.2.3 2.2 2.3 2.2 3.2 0 1.2-1.5 2.1-3.5 2.1Zm-1.1-4.6a3.66 3.66 0 0 0-1.6 2.5c0 .7 1.1 1.4 2.8 1.4s2.8-.7 2.8-1.4a3.36 3.36 0 0 0-1.6-2.5l-.3.3c-.2.3-.5.7-.9.7s-.7-.4-.9-.7a.32.32 0 0 1-.3-.3Zm-14.8 52.6a7.32 7.32 0 0 1-3.9-1L64 87.4a3 3 0 0 1-1.8-2.6V77l.7-.1a2.75 2.75 0 0 0 1.4 1.7l51.9 30.1a6.84 6.84 0 0 0 6.2.3l55.8-32c.5-.3.9-.7.9-1.1l.7.1v7.7a2 2 0 0 1-1.3 2.2l-55.7 31.9a6.39 6.39 0 0 1-3 .6ZM63 78.3v6.5c-.1.7.5 1.4 1.4 2l51.9 30.1a6.84 6.84 0 0 0 6.2.3l55.7-31.9a1.55 1.55 0 0 0 .9-1.6v-6.5a2.09 2.09 0 0 1-.6.4l-55.7 31.9a7.67 7.67 0 0 1-6.9-.3L64 79.1a2.72 2.72 0 0 1-1-.8Z"/><path class="cls-7" d="M133.6 66.5c0 .7 1 1.2 2.2 1.2s2.2-.5 2.2-1.2-1-1.2-2.2-1.2-2.2.5-2.2 1.2Z"/><path class="cls-9" d="M133.6 67.3c0 .7 1 1.2 2.2 1.2s2.2-.5 2.2-1.2-1-1.2-2.2-1.2-2.2.6-2.2 1.2Z"/><path class="cls-4" d="M135.7 68.1c-1.4 0-2.5-.7-2.5-1.6s1.1-1.6 2.5-1.6 2.5.7 2.5 1.6-1.1 1.6-2.5 1.6Zm0-2.5c-1 0-1.8.5-1.8.9s.8.9 1.8.9 1.8-.5 1.8-.9-.7-.9-1.8-.9Z"/><path class="cls-10" d="m75.3 181-9.3 5.3a5 5 0 0 1-4.9 0l-9-5.3a1.88 1.88 0 0 1 0-3.3l10.7-6a2.12 2.12 0 0 1 1.9 0l10.6 6.1a1.8 1.8 0 0 1 0 3.2Z"/><path d="M73.7 174.6 62 181.2h-.1l-11.4-6.6v-.1L62 168h.1l11.5 6.6Z" style="fill:#f2f2f2"/><path class="cls-9" d="m73.6 177-11.7 6.6h-.1L50.4 177v-.1l11.5-6.5h.1l11.5 6.6c.1-.1.1-.1.1 0Z"/><path class="cls-4" d="m62.1 181.7-.2-.1-11.6-6.7v-.3a.76.76 0 0 1 .2-.4l11.7-6.6.2.1 11.7 6.7v.3a.76.76 0 0 1-.2.4Zm-10.9-7.1 10.8 6.3 11.1-6.3-10.9-6.2Z"/><path class="cls-7" d="M50.5 174.7v2.4l11.4 6.6a.1.1 0 0 0 .1-.1v-2.4l-11.5-6.5c.1-.1 0-.1 0 0Z"/><path class="cls-4" d="M62 184c-.1 0-.1 0-.2-.1l-11.6-6.7v-2.8l.4-.3.2.1 11.6 6.7v2.8l-.2.2a.31.31 0 0 1-.2.1Zm-11.1-7.2 10.8 6.3v-1.6l-10.8-6.3Z"/><path class="cls-12" d="M73.8 174.7v2.4l-11.7 6.6a.1.1 0 0 1-.1-.1v-2.4l11.8-6.5Z"/><path class="cls-4" d="m62.1 184.1-.2-.1a.52.52 0 0 1-.2-.4v-2.5l.2-.2 11.8-6.7.2.1a.52.52 0 0 1 .2.4v2.5l-.2.2Zm.3-2.6v1.6l11.1-6.3v-1.6Z"/><path class="cls-12" d="M62.2 175.8a2.48 2.48 0 0 1-2.5-2.5v-9.4a.27.27 0 0 1 .3-.3h4.4a.27.27 0 0 1 .3.3v9.4a2.54 2.54 0 0 1-2.5 2.5Z"/><path class="cls-4" d="M62.2 176.2a2.8 2.8 0 0 1-2.8-2.8V164a.58.58 0 0 1 .6-.6h4.4a.58.58 0 0 1 .6.6v9.4a2.86 2.86 0 0 1-2.8 2.8Zm-2.1-12.3v9.4a2.1 2.1 0 1 0 4.2 0v-9.4Z"/><path d="M64.4 162.8H60a.27.27 0 0 0-.3.3v3a2.5 2.5 0 0 0 5 0v-3a.45.45 0 0 0-.3-.3Z" style="fill:#f1f1f1"/><path class="cls-9" d="M64.5 161.5h-4.4a.27.27 0 0 0-.3.3v3a2.5 2.5 0 0 0 5 0v-3a.32.32 0 0 0-.3-.3Z"/><path class="cls-4" d="M62.2 169a2.8 2.8 0 0 1-2.8-2.8v-3a.58.58 0 0 1 .6-.6h4.4a.58.58 0 0 1 .6.6v3a2.86 2.86 0 0 1-2.8 2.8Zm-2.1-5.8v2.9a2.1 2.1 0 1 0 4.2 0v-2.9Z"/><circle class="cls-7" cx="62.25" cy="153.06" r="12.5"/><path class="cls-9" d="m73.4 147.3-1.8-1.5a12.58 12.58 0 0 1-17.4 3.8 12.57 12.57 0 0 0-2 6.7 12 12 0 0 0 1.4 5.7 12.18 12.18 0 0 0 8.6 3.5A12.5 12.5 0 0 0 74.7 153a14 14 0 0 0-1.3-5.7Z"/><path class="cls-4" d="M62.2 165.9a12.85 12.85 0 1 1 12.9-12.8 12.78 12.78 0 0 1-12.9 12.8Zm0-25a12.15 12.15 0 1 0 12.1 12.2 12.16 12.16 0 0 0-12.1-12.2Z"/><path class="cls-12" d="M70.7 143.9a13.55 13.55 0 0 1 .2 2 12.5 12.5 0 0 1-12.5 12.5 12.67 12.67 0 0 1-8.5-3.3 12.48 12.48 0 0 0 24.8-2 12.3 12.3 0 0 0-4-9.2Z"/><path class="cls-4" d="M62.2 165.9a12.8 12.8 0 0 1-12.7-10.8l.3-1.4.2 1.1a12.17 12.17 0 0 0 20.4-8.9 13.55 13.55 0 0 0-.2-2l-.2-1 .8.7a13 13 0 0 1 4.1 9.4 12.58 12.58 0 0 1-12.7 12.9ZM50.4 156a12 12 0 0 0 11.8 9.2 12.16 12.16 0 0 0 12.2-12.1 11.91 11.91 0 0 0-3.2-8.2v1.1a12.81 12.81 0 0 1-20.8 10Z"/><path class="cls-7" d="M70.9 142.1c0 4.8-3.9 7.5-8.7 7.5s-8.7-2.7-8.6-7.5a8.65 8.65 0 0 1 17.3 0Z"/><path class="cls-9" d="M71 142.1a8 8 0 0 0-.7-3.4 8.8 8.8 0 0 0-6.7-3.2 8.69 8.69 0 0 0-8.7 8.6 7.63 7.63 0 0 0 .5 2.7 9 9 0 0 0 6.9 2.7c4.8.1 8.7-2.6 8.7-7.4Z"/><path class="cls-4" d="M62.2 149.9c-5.4 0-9-3.2-9-7.8a9 9 0 0 1 18 0c0 4.7-3.6 7.8-9 7.8Zm0-16.1a8.28 8.28 0 0 0-8.3 8.3c0 4.9 4.2 7.1 8.3 7.1s8.3-2.2 8.3-7.1a8.28 8.28 0 0 0-8.3-8.3Z"/><path class="cls-12" d="M64.1 133.6a8.24 8.24 0 0 1 1.7 5.1c0 4.8-3.9 7.5-8.7 7.5a10.07 10.07 0 0 1-2.5-.3c1.5 2.3 4.3 3.6 7.6 3.6 4.8 0 8.7-2.7 8.7-7.5a8.75 8.75 0 0 0-6.8-8.4Z"/><path class="cls-4" d="M62.2 149.9c-3.5 0-6.4-1.4-7.9-3.8l-.5-.7.8.2c4.7 1 10.7-1 10.7-6.9a8.44 8.44 0 0 0-1.6-4.9l-.6-.8.9.2a9.08 9.08 0 0 1 7.1 8.8c.1 4.8-3.5 7.9-8.9 7.9Zm-6.8-3.4a8.87 8.87 0 0 0 6.8 2.7c4.1 0 8.3-2.2 8.3-7.1a8.33 8.33 0 0 0-5.6-7.9 9 9 0 0 1 1.2 4.6c0 4.7-3.6 7.8-9 7.8a9.7 9.7 0 0 1-1.7-.1Z"/><path class="cls-10" d="m194.2 164.7-11.7 6.6a5.15 5.15 0 0 1-5.1 0l-8.8-5a1.5 1.5 0 0 1 0-2.6L182 156a1.36 1.36 0 0 1 1.5 0l10.7 6.1a1.59 1.59 0 0 1 0 2.6Z"/><path class="cls-2" d="m191.6 156.6-13.3 7.5h-.1l-11-6.2v-.1l13.3-7.5h.1l11 6.3Z"/><path class="cls-3" d="m191.6 158.5-13.3 7.5h-.1l-11-6.2v-.1l13.3-7.5h.1l11 6.3Z"/><path class="cls-4" d="m178.3 164.6-.2-.1-11.1-6.3v-.2c0-.1.1-.3.2-.3l13.5-7.6.2.1 11.1 6.3v.3c0 .1-.1.3-.2.3Zm-10.4-6.7 10.4 5.9 12.7-7.2-10.4-5.9Z"/><path class="cls-2" d="M167.2 158v3.7l11 6.2h.1v-3.7l-11.1-6.2Z"/><path class="cls-4" d="M178.2 168.3c-.1 0-.1 0-.2-.1l-11.1-6.3v-4.1l.4-.2.2.1 11.1 6.3v4.1l-.2.1c-.1.1-.1.1-.2.1Zm-10.7-6.8 10.4 5.9v-3l-10.4-5.9Z"/><path class="cls-5" d="M191.6 156.7v3.7l-13.3 7.5h-.1v-3.7l13.4-7.5Z"/><path class="cls-4" d="m178.3 168.4-.2-.1c-.1-.1-.2-.2-.2-.3v-3.9l.2-.1 13.5-7.6.2.1c.1.1.2.2.2.3v3.9l-.2.1Zm.3-4v3l12.7-7.2v-3Zm.3-2.8a1.48 1.48 0 0 1-1.3 0c-.4-.2-.4-.5 0-.7a1.48 1.48 0 0 1 1.3 0c.4.2.4.5 0 .7Z"/><ellipse class="cls-4" cx="180.47" cy="153.33" rx=".5" ry=".9" transform="rotate(-89.92 180.468 153.326)"/></svg>