<svg id="Layer_1" data-name="Layer 1" xmlns="http://www.w3.org/2000/svg" viewBox="0 0 350 350"><defs><style>.cls-1{opacity:.48}.cls-2{fill:#424243}.cls-4{fill:#f0f1f1}.cls-5{fill:#9ed1e3}.cls-6{opacity:.57}.cls-7{fill:#4a00e0}.cls-9{fill:#f1e8da}.cls-10{fill:#4f4f50}.cls-12{fill:#4e4e4e}.cls-13{fill:#dcb89e}.cls-14{fill:#cfad98}.cls-16{fill:#c47e78}.cls-17{fill:#313130}.cls-18{fill:#4f4f4f}.cls-19{fill:#fff}.cls-21{fill:#5e748c}.cls-27{fill:#bcd589}</style></defs><g class="cls-1"><path class="cls-2" d="M136.7 298.6H58.9a2.05 2.05 0 0 1-2.1-2.1v-1.7a2.05 2.05 0 0 1 2.1-2.1h77.8a2.05 2.05 0 0 1 2.1 2.1v1.7a2.18 2.18 0 0 1-2.1 2.1Z"/></g><path style="fill:#cdcdf7" d="M59.9 60.2h233.6v187.6H59.9z"/><path class="cls-2" d="M293.5 245.4H69.4c-2.9 0-6.3-.5-9.1 0h-.4l2.5 2.5V68c0-2.3.4-5 0-7.3v-.3l-2.5 2.5H284c2.9 0 6.3.5 9.1 0h.4l-2.5-2.5v164.4c0 7.6-.3 15.3 0 22.9v.3c0 3.2 4.9 3.2 4.9 0V83.6c0-7.6.3-15.3 0-22.9v-.3a2.54 2.54 0 0 0-2.5-2.5H88.6c-9.4 0-19-.4-28.4 0h-.4a2.54 2.54 0 0 0-2.5 2.5v164.4c0 7.6-.3 15.3 0 22.9v.3a2.54 2.54 0 0 0 2.5 2.5h204.8c9.4 0 19 .4 28.4 0h.4c3.3-.2 3.3-5.1.1-5.1Z"/><path class="cls-4" d="M42 247.8h269.1v13.4H42z"/><path class="cls-2" d="M44.5 261.2v-13.4l-2.5 2.5h258.1c3.4 0 7.1.5 10.5 0h.5l-2.5-2.5v13.4c0 3.2 4.9 3.2 4.9 0v-13.4a2.54 2.54 0 0 0-2.5-2.5H75.1c-10.9 0-21.8-.4-32.6 0H42a2.54 2.54 0 0 0-2.5 2.5v13.4c0 3.2 5 3.2 5 0Z"/><g class="cls-1"><path class="cls-2" d="M162.7 274.2H42a1.79 1.79 0 0 1-1.8-1.8v-.4a1.79 1.79 0 0 1 1.8-1.8h120.8a1.79 1.79 0 0 1 1.8 1.8v.4a2 2 0 0 1-1.9 1.8Z"/></g><g class="cls-1"><path class="cls-2" d="M292.9 283.4H148.3a2 2 0 0 1-2-2v-1.3a2 2 0 0 1 2-2h144.6a2 2 0 0 1 2 2v1.3a1.94 1.94 0 0 1-2 2Z"/></g><g class="cls-1"><path class="cls-2" d="M309.1 283.4h-8a2 2 0 0 1-2-2v-1.3a2 2 0 0 1 2-2h8a2 2 0 0 1 2 2v1.3a1.94 1.94 0 0 1-2 2Z"/></g><path class="cls-5" d="M132 121.4h144.4v113.1H132z"/><path class="cls-2" d="M276.4 119H132a2.54 2.54 0 0 0-2.5 2.5v113.2a2.54 2.54 0 0 0 2.5 2.5h144.4a2.41 2.41 0 0 0 1.7-.7l.1-.1a2.24 2.24 0 0 0 .7-1.7V121.5a2.61 2.61 0 0 0-2.5-2.5Zm-49 113.1h-93V123.9h139.5v108.2Z"/><g class="cls-6"><path class="cls-4" d="M207.7 128.7c-9.4 12-18.7 24.1-28.1 36.1-1.3 1.7-2.7 3.4-4 5.1-1 1.2.8 3 1.7 1.7 9.4-12 18.7-24.1 28.1-36.1 1.3-1.7 2.7-3.4 4-5.1 1-1.2-.7-3-1.7-1.7Z"/></g><path class="cls-7" d="M47.3 54.1h258.9v12.3H47.3z"/><path class="cls-2" d="m308 52.4-.1-.1a2.24 2.24 0 0 0-1.7-.7h-227c-10.5 0-21-.4-31.5 0h-.4a2.54 2.54 0 0 0-2.5 2.5v12.3a2.54 2.54 0 0 0 2.5 2.5h227c10.5 0 21 .4 31.5 0h.4a2.54 2.54 0 0 0 2.5-2.5V54.1a2.41 2.41 0 0 0-.7-1.7Zm-27.6 11.5H57.8c-2.6 0-5.4-.3-8.1-.2v-7.2h224.5c9.8 0 19.7.3 29.5.1v7.3Z"/><path class="cls-7" d="M98.7 136.4h-1.9c-11.1 0-20.2 6.9-20.2 15.2v95.1H119v-95.1c0-8.3-9.1-15.2-20.3-15.2Z"/><path class="cls-2" d="M98.7 134c-7.1 0-14.3 1.5-19.6 6.6-3.7 3.6-5 8-5 13v93.2a2.54 2.54 0 0 0 2.5 2.5H119a2.54 2.54 0 0 0 2.5-2.5v-88.4c0-4.5.5-9.1-1.6-13.3-3.9-7.6-13.1-11-21.2-11.1-3.2 0-3.2 4.9 0 4.9 6.6.1 15.1 3 17.3 10 .9 3 .4 6.8.4 9.9v87.9l2.5-2.5H76.5l2.5 2.5v-86.4c0-3.7-.7-8.6.6-12.1 2.9-7.6 12-9.5 19.1-9.5 3.2.2 3.2-4.7 0-4.7Z"/><path class="cls-5" d="M111.3 165.7v-11.9c0-4.8-5.7-8.8-12.7-8.8h-1.2c-7 0-12.7 3.9-12.7 8.8v11.9Z"/><path class="cls-2" d="M112.5 165.7v-9.9c0-4.2-1.3-7.5-5.2-9.7-7.6-4.4-23.9-2.7-23.9 8.5v11.1a1.22 1.22 0 0 0 1.2 1.2h26.6a1.25 1.25 0 0 0 0-2.5H84.6l1.2 1.2v-10.7c0-6.4 6.6-8.6 12.1-8.6s12.1 2.2 12.1 8.6v10.7a1.25 1.25 0 0 0 2.5.1Z"/><g style="opacity:.75"><path class="cls-9" d="M145.2 154.1c6 0 10.8 3.3 10.8 7.3v2.2a4.88 4.88 0 0 1 .7-.3c2.7-.6 5.6-2.8 7.5-4.2a6.79 6.79 0 0 0 1.2-1.2 3.17 3.17 0 0 0 .8-1.2c-.2.1-.4.1-.6.2-3.3.6-2.9-3.6-.6-3.8a3 3 0 0 0-1.3-.5c-.2-.1-.3-.1-.5-.2a6.9 6.9 0 0 1-2.8-1.5l-.3.6-3.6-3.2s.3-.3.8-.7a8.23 8.23 0 0 0-8.7-.3 4.49 4.49 0 0 1 1 1.3s-3 1.1-4 2.7a5.2 5.2 0 0 0-.3-.5 9.19 9.19 0 0 0-1.1 3.3h1Zm13.6-2.7a.8.8 0 1 1-.8.8.74.74 0 0 1 .8-.8Z"/><path class="cls-9" d="M148.6 147.4a6.25 6.25 0 0 0-4-1.4c-1.2 1.3 0 3.7.7 4.8a9 9 0 0 1 3.3-3.4Z"/><path class="cls-9" d="M149.6 148.7a6.42 6.42 0 0 0-1-1.3 8.3 8.3 0 0 0-3.3 3.4 5.2 5.2 0 0 1 .3.5c1-1.6 4-2.6 4-2.6Zm10.7 2.2.1.1a7.38 7.38 0 0 0 .5-5.1c-.7-.2-2.5 1-3.5 1.8a10 10 0 0 1 2.9 3.2Z"/><path class="cls-9" d="m160 151.6.3-.6-.1-.1a8.37 8.37 0 0 0-3-3.2c-.5.4-.8.7-.8.7Z"/><path class="cls-10" d="M158.8 153a.8.8 0 1 0-.8-.8.79.79 0 0 0 .8.8Zm7.3 1.5a2.8 2.8 0 0 1 0 2.2c1.7-.7 1.9-2.8-.2-3.5a1.8 1.8 0 0 0-1-.1 2.69 2.69 0 0 1 1.2 1.4Z"/><path class="cls-10" d="M165.6 156.9a1.42 1.42 0 0 0 .6-.2 2.8 2.8 0 0 0 0-2.2 2.76 2.76 0 0 0-1.2-1.4c-2.4.2-2.7 4.4.6 3.8Z"/><path class="cls-9" d="M156 163.7a8.53 8.53 0 0 1-11.9-8.3 4.87 4.87 0 0 1 .1-1.2c-4.5.1-8.3 2-9.7 4.7v22.9c1.5 2.8 5.5 4.7 10.1 4.7h.7a12.53 12.53 0 0 0 8.3-2.7c-2.7-.6-6.6-2.1-5.4-4.7l.9.7a11.85 11.85 0 0 0 6.4 1.7 4.65 4.65 0 0 0 .6-2.3v-15.5Z"/><path class="cls-9" d="M152.8 164.3a7.54 7.54 0 0 0 3.3-.7v-2.2c0-4-4.8-7.3-10.8-7.3h-1.1c0 .4-.1.8-.1 1.2a8.84 8.84 0 0 0 8.7 9Zm.8 19.6a8.08 8.08 0 0 0 1.9.3c4.6.2 8-3.7 9.7-7.5 1.4-3.2 2.3-9.6-2.3-11-1.2-.3-6.9-.3-5.4 2.3 1.1 2 4.1-.6 5.7.3 2 1.2 1.3 4.5.8 6.3-1.3 4.6-4.6 6.9-8.4 7a14.34 14.34 0 0 1-2 2.3Z"/><path class="cls-9" d="m149 179.8-.9-.7c-1.2 2.6 2.7 4.1 5.4 4.7a8 8 0 0 0 1.9-2.3 11.85 11.85 0 0 1-6.4-1.7Z"/></g><g style="opacity:.77"><path class="cls-12" d="m205.8 232 .2-12.2s-1.2-3.9-5.2-1.2l.1 13.3h4.9Zm17.3 0v-13.3c-4-2.7-5 1.2-5 1.2l.2 12.2h4.8Z"/><path class="cls-12" d="M226.3 221.8a4.69 4.69 0 0 1-4.7 4.7H203a4.69 4.69 0 0 1-4.7-4.7v-8.6a4.69 4.69 0 0 1 4.7-4.7h18.6a4.69 4.69 0 0 1 4.7 4.7Z"/><path class="cls-13" d="M195.9 185c-1.6-2.4-3.9-4.3-5.7-6.6-1.7-2-3.4-4.2-6.1-4.8a8.22 8.22 0 0 0-7.5 2c-.9.9-.7 1.8-1.1 2.8s-1.6 1.1-2.3 1.9c-1.2 1.4 0 1.8 1.3 1.6 2.6-.5 4.4-1.8 7-.8.7.3 2.3 1.3 3 .7s-.3-1.9-.8-2.3l-.1-.1c1.5 1.6 3.6 2.5 5.2 4a43.23 43.23 0 0 1 4.5 5.1c.3-.3 2.9-3 2.6-3.5Zm30.7 6.3c0 6.2-6.3 11.2-14 11.1h-.3c-7.7 0-14-5-14-11.2l.1-22.6c0-6.2 6.3-11.2 14-11.1h.3c7.7 0 14 5 14 11.2Z"/><path class="cls-13" transform="rotate(-89.85 212.504 180.359)" d="M207.51 166.16h10v28.4h-10z"/><path class="cls-13" d="M198.5 173.5s-3.2.1-3.2 3.2a3 3 0 0 0 3.2 3.1Z"/><path class="cls-14" d="M197.8 174.8a1.86 1.86 0 0 0-1.9 1.9 1.75 1.75 0 0 0 1.9 1.8Z"/><path class="cls-13" d="M226.3 173.5a3.25 3.25 0 0 1 3.2 3.3 3 3 0 0 1-3.2 3.1Z"/><path class="cls-14" d="M227 174.9a2 2 0 0 1 1.9 1.9 1.75 1.75 0 0 1-1.9 1.8Z"/><path class="cls-13" d="M226.6 183.4a1.24 1.24 0 0 1-1.3 1.2l-25.9-.1a1.24 1.24 0 0 1-1.2-1.3v-14.4a1.24 1.24 0 0 1 1.3-1.2l25.9.1a1.24 1.24 0 0 1 1.2 1.3Z"/><path d="M204.4 167.2a18.66 18.66 0 0 1 .7-2.2c.5-1.4 1.2-2.8 1.7-4.2s1.7-2.1 2.8-3c-.6.2-1.3.1-1.9.3a25.9 25.9 0 0 0-3.8 1.7c-2 1.1-4 2.5-4.8 4.6-1.1 2.8-.8 5.9-.7 8.8.1 4 0 8.1 0 12.1 0-.3 3.3.1 3.6.1.7 0 1.9.4 2.2-.5s-.6-2.6-.6-3.6c-.1-4.7-.4-9.5.8-14.1Z" style="fill:#d6ae98"/><path class="cls-16" d="m209.8 179.5 3.5.1v-6.2l-3.5 6.1z"/><path class="cls-9" d="M213.2 182.8a.68.68 0 0 1-.7.7h-.1a.68.68 0 0 1-.7-.7v-1.4a.68.68 0 0 1 .7-.7h.1a.68.68 0 0 1 .7.7Z"/><path class="cls-17" d="M206.5 174.4a1 1 0 1 1-1.9-.1c0-.6.4-.9 1-.9a.92.92 0 0 1 .9 1Z"/><path class="cls-18" d="M206.1 174.4a.5.5 0 1 1-.5-.5.54.54 0 0 1 .5.5Z"/><path class="cls-19" d="M206 174a.3.3 0 1 1-.3-.3.27.27 0 0 1 .3.3Z"/><path class="cls-17" d="M220.4 174.4a.92.92 0 0 1-1 .9.87.87 0 0 1-.9-1 .92.92 0 0 1 1-.9 1 1 0 0 1 .9 1Z"/><path class="cls-18" d="M220 174.4a.5.5 0 1 1-.5-.5.47.47 0 0 1 .5.5Z"/><path class="cls-19" d="M220 174a.3.3 0 1 1-.3-.3.32.32 0 0 1 .3.3Z"/><path d="M226.6 172.9a23.48 23.48 0 0 0 .1-2.7 24.2 24.2 0 0 0-.2-3.8 11 11 0 0 0-6-7.6A18.24 18.24 0 0 0 210 157a17.2 17.2 0 0 0-5.8 1.9 12.39 12.39 0 0 0-4.4 3.8c-1.5 2.3-1.5 5.1-1.6 7.8 0 .2.1 2.3.1 2.5a18.24 18.24 0 0 0 2.5-.7c3.8-1.2 21.8-4.8 21.5-7.7 0 0-.6 8.8 3.7 8.7a.37.37 0 0 0 .3.1h.3l-.1-.3c.1 0 .1-.1.1-.2Z" style="fill:#212121"/><path class="cls-17" d="M204.4 172.8h2.7a.4.4 0 0 0 0-.8h-2.7a.4.4 0 0 0 0 .8Zm14.3-.3c0-.1.1-.1 0 0l.1-.1a.76.76 0 0 1 .4-.2 1.63 1.63 0 0 1 1.5.3c.4.3 1-.2.6-.6a2.4 2.4 0 0 0-2.1-.6 2.07 2.07 0 0 0-1 .6c-.5.4.1.9.5.6Z"/><path class="cls-13" transform="rotate(-89.85 211.685 185.15)" d="M211.54 175.25h.3v19.8h-.3z"/><path class="cls-21" d="M198.3 187.2h3.5v-1.9h-3.5l-.1 32.4 28.2.1-28.2-.1.1-30.5z"/><path class="cls-21" transform="rotate(-89.85 224.052 186.336)" d="M223.11 183.89h1.9v4.9h-1.9z"/><path class="cls-21" d="m203.3 187.2 8.7 7.3h1.8a6.18 6.18 0 0 0 4.9-5.9v-1.4h2.8v-1.9l-19.8-.1v1.9Zm18.3 7.3h4.9v-7.2h-4.9v7.2z"/><path class="cls-21" d="M198.3 196.6v-2.1h3.4l.1-7.3h-3.5l-.1 30.5 28.2.1v-21.2h-28.1z"/><path class="cls-21" d="M221.6 187.3h-2.8v1.4a6.26 6.26 0 0 1-4.9 5.9h7.7Zm-18.3-.1h-1.5l-.1 7.3H212l-8.7-7.3z"/><path class="cls-19" d="m226.5 194.5-.1 2.1.1-2.1zm-12.6 0H212l.2.2a4.68 4.68 0 0 0 1.7-.2Z"/><path class="cls-19" d="m221.6 195.5-19.9-.1v-.9h-3.4v2.1h28.1l.1-2.1h-4.9v1z"/><path class="cls-19" d="M221.6 195.5v-.9h-7.7a8.75 8.75 0 0 1-1.6.2l-.2-.2h-10.3v.9Z"/><path class="cls-16" d="M206.7 178.5h-2.5a.47.47 0 0 1-.5-.5v-.4a.47.47 0 0 1 .5-.5h2.5a.47.47 0 0 1 .5.5v.4a.47.47 0 0 1-.5.5Zm14.3 0h-2.5a.47.47 0 0 1-.5-.5v-.4a.47.47 0 0 1 .5-.5h2.5a.47.47 0 0 1 .5.5v.4a.54.54 0 0 1-.5.5Z"/><path class="cls-21" d="M219.2 152c-4.5-2.6-12.3-3.2-15.7 2 0 0-6.8 6.7 22.9 13.9.1-6.9-.8-12.3-7.2-15.9Zm-20.9 33.3-2.4-1.4-4.4 6.3 7 3.6-.2-8.5z"/><path d="M226.5 168.1s-22.4.9-28.1 0c0 0-7.4-6-1.8-11.7 4.7-4.8 24.2 3.9 29.9 11.7Z" style="fill:#f4d45b"/><path d="M221.5 217.1c-.2.2-.2.5 0 .6l1.9 2.2a.37.37 0 0 0 .6 0l2.6-2.3c.2-.2.2-.5 0-.6l-1.9-2.2a.38.38 0 0 0-.6 0Z" style="fill:#dbb79c"/><path class="cls-13" d="M226.7 192s8.8 12-2.7 22.8l2.5 2.8s7.4-6.7 7.4-15.8-7.5-16.4-7.5-16.4Z"/><path class="cls-21" d="M228.2 195.2h4.6a15.48 15.48 0 0 0-6.4-9.9l.1 6.6a14.67 14.67 0 0 1 1.7 3.3Z"/><path style="fill:#f9fbf8" d="m222.9 215.8 2.6 2.9 1.1-1.1-2.6-2.8-1.1 1z"/></g><path class="cls-4" d="M134 182.3h141v6.2H134z"/><path class="cls-2" d="M275 187.3H134.1l1.2 1.2v-6.2l-1.2 1.2H275l-1.2-1.2v6.2a1.25 1.25 0 0 0 2.5 0v-6.2a1.22 1.22 0 0 0-1.2-1.2H134.2a1.22 1.22 0 0 0-1.2 1.2v6.2a1.22 1.22 0 0 0 1.2 1.2h140.9c1.5.1 1.5-2.4-.1-2.4Z"/><g class="cls-6"><path class="cls-4" d="M214.1 136.9c-6.4 8.2-12.8 16.4-19.2 24.7-1 1.2.8 3 1.7 1.7 6.4-8.2 12.8-16.4 19.2-24.7 1-1.2-.8-2.9-1.7-1.7Z"/></g><path class="cls-9" d="M197.3 198H274v3.5h-76.7zm5.4 3.5h3.9v30.6h-3.9zm15.9 0h3.9v30.6h-3.9zm16 0h3.9v30.6h-3.9zm15.9 0h3.9v30.6h-3.9zm15.9 0h3.9v30.6h-3.9z" style="opacity:.78"/><g style="opacity:.73"><path class="cls-9" d="M171.2 227.9c-3.3-.2-1.9-4.2.4-3.9a4.44 4.44 0 0 0-1.1-.8 2.19 2.19 0 0 0-.5-.3 7.28 7.28 0 0 1-2.4-2.2 8.61 8.61 0 0 0-6.2-6.3 9 9 0 0 0-4.9.2l.1.1a3.07 3.07 0 0 1 .8 2.4 28.24 28.24 0 0 1-1.3 9.1 11.18 11.18 0 0 1-1.1 2.5c.7 1 1.3 2.1 1.9 3.1a6.15 6.15 0 0 0 1.9.2h.3a11 11 0 0 0 1.8-.2c2.8.1 6.1-1.3 8.3-2.2a3.39 3.39 0 0 0 1.4-.9 3.46 3.46 0 0 0 1.1-1c-.1.2-.3.2-.5.2Zm-5.6-6.4a6.63 6.63 0 0 1-3.9.9.3.3 0 0 1 0-.6 5.87 5.87 0 0 0 3.5-.8c.4-.2.7.3.4.5Z"/><path class="cls-10" d="M172.5 224.4a3.55 3.55 0 0 0-.9-.4 3 3 0 0 1 .8 1.7 3.29 3.29 0 0 1-.5 2.2 1.84 1.84 0 0 0 .6-3.5Z"/><path class="cls-10" d="M172.4 225.7a3.81 3.81 0 0 0-.8-1.7c-2.3-.4-3.7 3.6-.4 3.9h.6a2.86 2.86 0 0 0 .6-2.2Zm-7.1-4.7a6.23 6.23 0 0 1-3.5.8.3.3 0 1 0 0 .6 6.63 6.63 0 0 0 3.9-.9c.2-.2-.1-.7-.4-.5Z"/><path class="cls-9" d="M157.1 232.2a.35.35 0 0 0-.1-.2 7.43 7.43 0 0 1-3.3-1.7 6 6 0 0 1-6.8.1 5.27 5.27 0 0 1-2-3.1 7 7 0 0 1 1.1-4.2 22.23 22.23 0 0 1 1.9-2.7 17.55 17.55 0 0 0-7.2-.7 7.14 7.14 0 0 0-4.2 1.7 11.83 11.83 0 0 0-2.1 3.2v7.6Z"/><path class="cls-9" d="M155 228.8a6.2 6.2 0 0 1-1.4 1.4 8 8 0 0 0 3.3 1.7 25.86 25.86 0 0 0-1.9-3.1Z"/><path class="cls-10" d="M148.8 220.7c.6.7 1.2 1.3 1.7 2a4.53 4.53 0 0 1 .3-1.6 8.87 8.87 0 0 1 5.7-6.3l-.1-.1a17.62 17.62 0 0 0-8.5 5.7 15.87 15.87 0 0 1 2 .7Z"/><path class="cls-10" d="M150.8 221.1c-.1.5-.2 1.1-.3 1.6a68.54 68.54 0 0 1 4.5 6.1 11.18 11.18 0 0 0 1.1-2.5 30.81 30.81 0 0 0 1.3-9.1 2.84 2.84 0 0 0-.8-2.4l-.1-.1a9.22 9.22 0 0 0-5.7 6.4Z"/><path class="cls-10" d="M144.9 227.2a4.73 4.73 0 0 0 2 3.1 6 6 0 0 0 6.8-.1 9.1 9.1 0 0 1-3.1-7.5c-.6-.7-1.1-1.4-1.7-2l1 .4a11.76 11.76 0 0 0-2-.7 18.48 18.48 0 0 0-1.9 2.7 5.81 5.81 0 0 0-1.1 4.1Z"/><path class="cls-10" d="M153.6 230.2a6.2 6.2 0 0 0 1.4-1.4 68.54 68.54 0 0 0-4.5-6.1 9.1 9.1 0 0 0 3.1 7.5Z"/></g><path class="cls-5" d="M84.6 175.3h26.6v58.3H84.6z"/><path class="cls-2" d="M111.3 232.5H84.7l1.2 1.2v-58.4l-1.2 1.2h26.6l-1.2-1.2v58.4a1.25 1.25 0 0 0 2.5 0v-58.4a1.22 1.22 0 0 0-1.2-1.2H84.8a1.22 1.22 0 0 0-1.2 1.2v58.4a1.22 1.22 0 0 0 1.2 1.2h26.6a1.2 1.2 0 0 0-.1-2.4Z"/><path class="cls-4" d="M131.7 74.8h144.6V113H131.7z"/><path class="cls-2" d="M276.4 111.8H131.8l1.2 1.2V74.8l-1.2 1.2h144.6l-1.2-1.2V113a1.25 1.25 0 0 0 2.5 0V74.8a1.22 1.22 0 0 0-1.2-1.2H131.9a1.22 1.22 0 0 0-1.2 1.2V113a1.22 1.22 0 0 0 1.2 1.2h144.6a1.2 1.2 0 0 0-.1-2.4Z"/><path class="cls-2" d="M138.8 105.2V82.5h6.3a7.51 7.51 0 0 1 2.6.5 7.82 7.82 0 0 1 2.2 1.5 5.55 5.55 0 0 1 1.4 2.2 5.75 5.75 0 0 1 .5 2.6 7.51 7.51 0 0 1-.5 2.6 6.17 6.17 0 0 1-1.5 2.2 5.55 5.55 0 0 1-2.2 1.4 5.75 5.75 0 0 1-2.6.5h-1.9v9.1h-4.3Zm4.5-13.6h1.8a2 2 0 0 0 1.6-.7 2.36 2.36 0 0 0 .7-1.6 2 2 0 0 0-.7-1.6 2.36 2.36 0 0 0-1.6-.7h-1.8Zm10.7-9.1h13.7V87h-9.1v4.5h9.1V96h-9.1v4.5h9.1v4.5H154Zm26.6 4.6v18.1h-4.5V87.1h-6.4v-4.5H187v4.5Zm22.7 8.8a7.22 7.22 0 0 1-2-.9 5.72 5.72 0 0 1-1.6-1.5 7.24 7.24 0 0 1-1.1-1.9 5.87 5.87 0 0 1-.4-2.3 7.51 7.51 0 0 1 .5-2.6 10.23 10.23 0 0 1 1.4-2.2 7.12 7.12 0 0 1 2.2-1.5 5.75 5.75 0 0 1 2.6-.5 12.09 12.09 0 0 1 3.8.6 9.16 9.16 0 0 1 3.2 1.8l-3.3 3.3a8.86 8.86 0 0 0-1.7-.8 6.45 6.45 0 0 0-2-.3 2 2 0 0 0-1.6.7 2.36 2.36 0 0 0-.7 1.6 3 3 0 0 0 .5 1.5 2.58 2.58 0 0 0 1.3.8 8.81 8.81 0 0 0 1.7.2 5.83 5.83 0 0 1 2.6.6 6 6 0 0 1 2.1 1.4 7.18 7.18 0 0 1 1.4 2 7 7 0 0 1 0 5.2 10.23 10.23 0 0 1-1.4 2.2 6 6 0 0 1-2.1 1.4 5.75 5.75 0 0 1-2.6.5 12.17 12.17 0 0 1-4.3-.8 11.81 11.81 0 0 1-3.5-2.3l3.2-3.2a5.71 5.71 0 0 0 2.1 1.3 7 7 0 0 0 2.5.5 2.13 2.13 0 0 0 1.6-.7 2.36 2.36 0 0 0 .7-1.6 3.55 3.55 0 0 0-.2-1 1.21 1.21 0 0 0-.7-.7 1.61 1.61 0 0 0-.9-.3 3.4 3.4 0 0 0-1-.1c-.4 0-.7-.1-1.1-.1-.6-.2-1-.2-1.2-.3Zm11.5-13.4h4.5v9.1h8.3v-9.1h4.5v22.7h-4.5v-9.1h-8.3v9.1h-4.5Zm30.7 0a10.82 10.82 0 0 1 4.4.9 11 11 0 0 1 6 6 11.21 11.21 0 0 1 0 8.8 11 11 0 0 1-6 6 11.21 11.21 0 0 1-8.8 0 11 11 0 0 1-6-6 11.21 11.21 0 0 1 0-8.8 11 11 0 0 1 6-6 10.82 10.82 0 0 1 4.4-.9Zm0 4.6a7.51 7.51 0 0 0-2.6.5 10.23 10.23 0 0 0-2.2 1.4 8 8 0 0 0-1.5 2.1 5.75 5.75 0 0 0-.5 2.6 7.51 7.51 0 0 0 .5 2.6 7.82 7.82 0 0 0 1.5 2.2 7.12 7.12 0 0 0 2.2 1.5 5.75 5.75 0 0 0 2.6.5 7.51 7.51 0 0 0 2.6-.5 7.82 7.82 0 0 0 2.2-1.5 5.55 5.55 0 0 0 1.4-2.2 5.75 5.75 0 0 0 .5-2.6 7.51 7.51 0 0 0-.5-2.6 7.71 7.71 0 0 0-1.4-2.1 5.55 5.55 0 0 0-2.2-1.4 5.75 5.75 0 0 0-2.6-.5Zm13.4 18.1V82.5h6.3a7.51 7.51 0 0 1 2.6.5 7.82 7.82 0 0 1 2.2 1.5 5.55 5.55 0 0 1 1.4 2.2 5.75 5.75 0 0 1 .5 2.6 7 7 0 0 1-1.9 4.8 5.55 5.55 0 0 1-2.2 1.4 5.75 5.75 0 0 1-2.6.5h-1.9v9.1h-4.4Zm4.5-13.6h1.8a2 2 0 0 0 1.6-.7 2.36 2.36 0 0 0 .7-1.6 2 2 0 0 0-.7-1.6 2.36 2.36 0 0 0-1.6-.7h-1.8Z"/><path class="cls-4" d="M256.3 210.4H309v6.1h-52.7z"/><path class="cls-2" d="M309 215.3h-52.8l1.2 1.2v-6.1l-1.2 1.2H309l-1.2-1.2v6.1a1.25 1.25 0 0 0 2.5 0v-6.1a1.22 1.22 0 0 0-1.2-1.2h-52.8a1.22 1.22 0 0 0-1.2 1.2v6.1a1.22 1.22 0 0 0 1.2 1.2h52.8c1.5.1 1.5-2.4-.1-2.4Z"/><path class="cls-4" d="M261.5 216.5h42.4v31.3h-42.4z"/><path class="cls-2" d="M303.8 246.5h-42.4l1.2 1.2v-31.3l-1.2 1.2h42.4l-1.2-1.2v31.3a1.25 1.25 0 0 0 2.5 0v-31.3a1.22 1.22 0 0 0-1.2-1.2h-42.4a1.22 1.22 0 0 0-1.2 1.2v31.3a1.22 1.22 0 0 0 1.2 1.2h42.4c1.5.1 1.5-2.4-.1-2.4Z"/><path class="cls-27" d="M306.5 210.3v-.9a13 13 0 0 0-12-12.8 13 13 0 0 0-24.3 1.8h-.2a11.2 11.2 0 0 0-11.3 11.2v.7Z"/><path class="cls-2" d="M307.7 210.3a14.35 14.35 0 0 0-13.2-14.9c.4.2.7.4 1.1.6-5.8-11.5-22.6-10.1-26.6 2.1l1.2-.9a12.56 12.56 0 0 0-12.7 13.1 1.16 1.16 0 0 0 1.2 1.2h47.7a1.25 1.25 0 0 0 0-2.5h-47.7l1.2 1.2a10.2 10.2 0 0 1 10.3-10.7 1.29 1.29 0 0 0 1.2-.9c2.8-8.6 14-11.3 20.1-4.4.9 1.1 1.5 3 2.8 3.5.9.3 1.9.3 2.8.6a9.6 9.6 0 0 1 2.7 1.3 11.5 11.5 0 0 1 5.3 10.6c.1 1.7 2.6 1.7 2.6.1Z"/><path class="cls-4" d="M37.7 212.4h46.9v5.4H37.7z"/><path class="cls-2" d="M84.6 216.6H37.7l1.2 1.2v-5.4l-1.2 1.2h46.9l-1.2-1.2v5.4a1.25 1.25 0 0 0 2.5 0v-5.4a1.22 1.22 0 0 0-1.2-1.2H37.8a1.22 1.22 0 0 0-1.2 1.2v5.4a1.22 1.22 0 0 0 1.2 1.2h46.9c1.5.1 1.5-2.4-.1-2.4Z"/><path class="cls-4" d="M42.3 217.8H80v27.8H42.3z"/><path class="cls-2" d="M80 244.4H42.3l1.2 1.2v-27.8l-1.2 1.2H80l-1.2-1.2v27.8a1.25 1.25 0 0 0 2.5 0v-27.8a1.22 1.22 0 0 0-1.2-1.2H42.4a1.22 1.22 0 0 0-1.2 1.2v27.8a1.22 1.22 0 0 0 1.2 1.2h37.7a1.2 1.2 0 0 0-.1-2.4Z"/><path class="cls-27" d="M82.4 212.3v-.8a11.53 11.53 0 0 0-10.6-11.4 11.68 11.68 0 0 0-10.5-6.7 11.55 11.55 0 0 0-11.1 8.2H50a10.05 10.05 0 0 0-10.1 10v.6h42.5Z"/><path class="cls-2" d="M83.6 212.3c.3-7.1-4.9-12.6-11.8-13.4.4.2.7.4 1.1.6-5.2-10.4-20.3-9-23.9 1.9l1.2-.9a11.39 11.39 0 0 0-11.5 11.8 1.16 1.16 0 0 0 1.2 1.2h42.5a1.25 1.25 0 0 0 0-2.5H39.9l1.2 1.2a8.8 8.8 0 0 1 9-9.3 1.29 1.29 0 0 0 1.2-.9c2.5-7.7 12.8-9.9 18-3.5.8 1 1.1 2.3 2.3 2.8 1.7.6 3.2.6 4.9 1.6a10.56 10.56 0 0 1 4.7 9.3 1.2 1.2 0 0 0 2.4.1Z"/></svg>