<svg id="Layer_1" data-name="Layer 1" xmlns="http://www.w3.org/2000/svg" viewBox="0 0 230 230"><defs><style>.cls-1{fill:#d4d4d4}.cls-3{fill:#fff}.cls-4{fill:#414242}.cls-5{fill:#dfdfdf}.cls-6{fill:#a4a4a4}.cls-9{fill:#a5a5a5}.cls-10{fill:#837fcb}.cls-11{fill:#9f9fdd}.cls-12{fill:#6f6fb2}</style></defs><path class="cls-1" d="m54.6 147-9.1 5.2a5.1 5.1 0 0 1-4.8 0l-8.8-5.2a1.92 1.92 0 0 1 0-3.3l10.5-5.9a2.12 2.12 0 0 1 1.9 0l10.4 5.9a1.92 1.92 0 0 1-.1 3.3Z"/><path d="m53.1 140.9-11.4 6.5h-.1l-11.1-6.5v-.1l11.3-6.4h.1l11.3 6.4c-.1 0-.1 0-.1.1Z" style="fill:#f2f2f2"/><path class="cls-3" d="m53 143.1-11.4 6.5h-.1l-11.1-6.5v-.1l11.3-6.4h.1L53 143Z"/><path class="cls-4" d="m41.7 147.7-.2-.1-11.4-6.6v-.3a.76.76 0 0 1 .2-.4l11.5-6.5.2.2 11.4 6.5v.3a.76.76 0 0 1-.2.4Zm-10.6-6.9 10.6 6.2 10.8-6.1-10.7-6.1Z"/><path class="cls-5" d="M30.4 140.9v2.4l11.1 6.5a.1.1 0 0 0 .1-.1v-2.4l-11.2-6.4c.1-.1 0-.1 0 0Z"/><path class="cls-4" d="M41.6 150c-.1 0-.1 0-.2-.1l-11.3-6.6v-2.8l.4-.3.2.1 11.3 6.6v2.8l-.2.2c-.1.1-.1.1-.2.1Zm-10.9-7 10.6 6.2v-1.6l-10.6-6.2Z"/><path class="cls-6" d="M53.2 140.9v2.4l-11.4 6.5a.1.1 0 0 1-.1-.1v-2.4l11.5-6.4Z"/><path class="cls-4" d="m41.8 150.1-.2-.1a.52.52 0 0 1-.2-.4v-2.5l.2-.2 11.6-6.6.2.1a.52.52 0 0 1 .2.4v2.5l-.2.2Zm.2-2.6v1.6l10.8-6.1v-1.6Z"/><path class="cls-6" d="M41.8 142a2.43 2.43 0 0 1-2.4-2.4v-9.2a.27.27 0 0 1 .3-.3H44a.27.27 0 0 1 .3.3v9.2a2.59 2.59 0 0 1-2.5 2.4Z"/><path class="cls-4" d="M41.8 142.3a2.8 2.8 0 0 1-2.8-2.8v-9.2a.58.58 0 0 1 .6-.6h4.3a.58.58 0 0 1 .6.6v9.2a2.65 2.65 0 0 1-2.7 2.8Zm-2.1-11.9v9.2a2.1 2.1 0 0 0 4.2 0v-9.2Z"/><path d="M44 129.3h-4.3a.27.27 0 0 0-.3.3v2.9a2.4 2.4 0 0 0 4.8 0v-2.9c0-.1-.1-.3-.2-.3Z" style="fill:#f1f1f1"/><path class="cls-3" d="M44 128h-4.3a.27.27 0 0 0-.3.3v2.9a2.4 2.4 0 0 0 4.8 0v-2.9c.1-.2 0-.3-.2-.3Z"/><path class="cls-4" d="M41.8 135.3a2.8 2.8 0 0 1-2.8-2.8v-2.9a.58.58 0 0 1 .6-.6h4.3a.58.58 0 0 1 .6.6v2.9a2.65 2.65 0 0 1-2.7 2.8Zm-2.1-5.6v2.9a2.1 2.1 0 0 0 4.2 0v-2.9Z"/><circle class="cls-5" cx="41.78" cy="119.74" r="12.2"/><path class="cls-3" d="M52.7 114.2a22 22 0 0 0-1.8-1.4 12.32 12.32 0 0 1-10.3 5.7 11.44 11.44 0 0 1-6.6-2 12.16 12.16 0 0 0-1.9 6.6 11.92 11.92 0 0 0 1.4 5.6 12.24 12.24 0 0 0 20.7-8.8 12.65 12.65 0 0 0-1.5-5.7Z"/><path class="cls-4" d="M41.8 132.3a12.6 12.6 0 1 1 12.6-12.6 12.68 12.68 0 0 1-12.6 12.6Zm0-24.5a11.9 11.9 0 1 0 11.9 11.9 12 12 0 0 0-11.9-11.9Z"/><path class="cls-6" d="M50.2 110.8a13.55 13.55 0 0 1 .2 2A12.21 12.21 0 0 1 38.1 125a11.89 11.89 0 0 1-8.3-3.3 12.28 12.28 0 0 0 24.4-1.9 12.6 12.6 0 0 0-4-9Z"/><path class="cls-4" d="M41.8 132.3a12.48 12.48 0 0 1-12.4-10.5l.3-1.3.2 1a12.14 12.14 0 0 0 8.1 3.2 11.86 11.86 0 0 0 11.9-11.9 12.25 12.25 0 0 0-.2-1.9l-.2-1 .7.7a12.52 12.52 0 0 1-8.4 21.7Zm-11.5-9.7a11.88 11.88 0 1 0 20.3-10.9v1A12.68 12.68 0 0 1 38 125.3a12.05 12.05 0 0 1-7.7-2.7Z"/><path class="cls-5" d="M50.3 109c0 4.7-3.8 7.3-8.5 7.3s-8.5-2.6-8.5-7.3a8.49 8.49 0 0 1 8.5-8.5 8.62 8.62 0 0 1 8.5 8.5Z"/><path class="cls-3" d="M50.4 109a7.25 7.25 0 0 0-.7-3.3 8.52 8.52 0 0 0-15.1 5.4 7.08 7.08 0 0 0 .5 2.6 9 9 0 0 0 6.8 2.7c4.7-.1 8.5-2.7 8.5-7.4Z"/><path class="cls-4" d="M41.8 116.7c-5.3 0-8.8-3.1-8.8-7.7a8.8 8.8 0 0 1 17.6 0c.1 4.6-3.5 7.7-8.8 7.7Zm.1-15.8a8.07 8.07 0 0 0-8.1 8.1c0 4.8 4.1 7 8.1 7s8.1-2.1 8.1-7a8.2 8.2 0 0 0-8.1-8.1Z"/><path class="cls-6" d="M43.7 100.8a8.6 8.6 0 0 1 1.7 5c0 4.7-3.8 7.3-8.5 7.3a9.86 9.86 0 0 1-2.4-.3c1.4 2.3 4.2 3.5 7.4 3.5 4.7 0 8.5-2.6 8.5-7.3a8.56 8.56 0 0 0-6.7-8.2Z"/><path class="cls-4" d="M41.8 116.7c-3.4 0-6.2-1.3-7.7-3.7l-.4-.7.8.2c4.6 1 10.5-.9 10.5-6.7a7.71 7.71 0 0 0-1.6-4.8l-.5-.7.9.2a8.87 8.87 0 0 1 6.9 8.6c0 4.5-3.6 7.6-8.9 7.6Zm-6.6-3.4a8.42 8.42 0 0 0 6.6 2.7c4 0 8.1-2.1 8.1-7a8.21 8.21 0 0 0-5.5-7.7 8.92 8.92 0 0 1 1.2 4.5c0 4.6-3.6 7.7-8.8 7.6a8.6 8.6 0 0 1-1.6-.1Z"/><path d="m199.5 170.8-58.8 33.9a8.78 8.78 0 0 1-8.6 0l-66.6-39.3a2.72 2.72 0 0 1 0-4.7l61.8-35.6a2.62 2.62 0 0 1 2.7 0l69.3 40.9a2.81 2.81 0 0 1 .2 4.8Z" style="fill:#d5d5d5"/><path class="cls-5" d="m177.1 164.3.1-101.1-77.3-8L60 53.8 59.9 155v.3a4.33 4.33 0 0 0 2.4 3.1l58.4 33.9c2.9 1.7 7.4 1.9 10 .4l44.7-25.7a2.91 2.91 0 0 0 1.7-2.7Z"/><path class="cls-9" d="m130.7 192.7 42.9-25a4.26 4.26 0 0 0 2.1-3.3l.1-101.1-10.1-1-40.3 27.9-.1 103.5c1.5-.1 4.3-.4 5.4-1Z"/><path class="cls-4" d="M126.4 194a12.73 12.73 0 0 1-5.8-1.4l-58.4-33.9a4.49 4.49 0 0 1-2.6-3.4v-.3l.1-101.4L99.9 55l77.6 8-.1 101.4a3.12 3.12 0 0 1-1.9 2.9L130.8 193a9.53 9.53 0 0 1-4.4 1Zm-66-139.8L60.2 155v.3a4.15 4.15 0 0 0 2.3 2.9l58.4 33.9c2.9 1.7 7.2 1.8 9.6.4l44.7-25.7a2.62 2.62 0 0 0 1.6-2.3l.2-101-77-8Z"/><path class="cls-5" d="m175.5 65.6-44.7 25.7c-2.6 1.5-7 1.3-10-.4L62.5 57c-2.9-1.7-3.3-4.3-.7-5.7l44.7-25.7c2.6-1.5 7-1.3 10 .4l58.4 33.9c2.9 1.6 3.2 4.2.6 5.7Z"/><path class="cls-3" d="m174.8 62-58.4-33.9c-2.9-1.7-7.4-1.9-10-.4L61.8 53.4a3.74 3.74 0 0 0-1.4 1.4 6 6 0 0 0 2.1 2.1l58.4 33.9c2.9 1.7 7.4 1.9 10 .4l44.7-25.7a3.74 3.74 0 0 0 1.4-1.4 5 5 0 0 0-2.2-2.1Z"/><path class="cls-4" d="M126.6 92.6a12.73 12.73 0 0 1-5.8-1.4L62.3 57.3c-1.6-1-2.6-2.2-2.6-3.5a3.35 3.35 0 0 1 1.9-2.8l44.7-25.7c2.6-1.5 7.2-1.3 10.3.4L175 59.6c1.6 1 2.6 2.2 2.6 3.5a3.35 3.35 0 0 1-1.9 2.8L131 91.6a10.18 10.18 0 0 1-4.4 1Zm-15.8-67.8a9 9 0 0 0-4.2.9L61.9 51.5a2.8 2.8 0 0 0-1.6 2.2c0 1.1.8 2.1 2.3 3L121 90.6c2.9 1.7 7.2 1.8 9.6.4l44.7-25.7a2.8 2.8 0 0 0 1.6-2.2c0-1.1-.8-2.1-2.3-3l-58.4-33.9a10.85 10.85 0 0 0-5.4-1.4Z"/><path class="cls-5" d="m164.8 64.5-35.1 20.2a8.31 8.31 0 0 1-7.5-.3L73 56c-2.2-1.3-2.5-3.2-.5-4.3l35.1-20.2a8.31 8.31 0 0 1 7.5.3l49.2 28.5c2.2 1.2 2.5 3.1.5 4.2Z"/><path class="cls-3" d="M107.9 44.8 83.1 58.9l41.7 24.2a8.31 8.31 0 0 0 7.5.3l24.8-14.1-41.7-24.2a8.31 8.31 0 0 0-7.5-.3Z"/><path class="cls-4" d="M126.5 85.8a9.56 9.56 0 0 1-4.4-1.1L72.9 56.2a3.27 3.27 0 0 1-2-2.7 2.41 2.41 0 0 1 1.5-2.1l35.1-20.2c2-1.2 5.5-1 7.8.3L164.5 60a3.27 3.27 0 0 1 2 2.7 2.41 2.41 0 0 1-1.5 2.1L129.9 85a6.35 6.35 0 0 1-3.4.8ZM110.9 31a5.93 5.93 0 0 0-3.1.7L72.7 51.9a1.94 1.94 0 0 0-1.1 1.6 2.74 2.74 0 0 0 1.7 2.2l49.2 28.5c2.1 1.2 5.4 1.4 7.2.3l35.1-20.2a1.94 1.94 0 0 0 1.1-1.6 2.74 2.74 0 0 0-1.7-2.2L115 32a8.3 8.3 0 0 0-4.1-1Z"/><path class="cls-5" d="m73 56 5.2 3 29.3-16.9a8.31 8.31 0 0 1 7.5.3l44 25.5 5.8-3.3c1.9-1.1 1.7-3.1-.5-4.3l-49.2-28.5a8.31 8.31 0 0 0-7.5-.3L72.5 51.6c-1.9 1.1-1.7 3.1.5 4.4Zm69.5 115.8-8.8 5v-16.7l8.8-5.1v16.8z"/><path class="cls-4" d="M133.4 177.3V160l.1-.1 9.2-5.3v17.3l-.1.1Zm.5-17.1v16.2l8.3-4.8v-16.2Z"/><path class="cls-5" d="M140.6 156.1v14.4l-6.9 4v2.3l8.8-5V155l-1.9 1.1z"/><path class="cls-4" d="M133.4 177.3v-2.9l6.9-4V156l2.4-1.4v17.3l-.1.1Zm.5-2.7v1.8l8.3-4.8v-16.2l-1.4.8v14.4Z"/><path class="cls-5" d="m169.6 156.2-8.8 5.1v-16.8l8.8-5v16.7z"/><path class="cls-4" d="M160.6 161.7v-17.3l.1-.1 9.2-5.3v17.3l-.1.1Zm.5-17v16.2l8.3-4.8v-16.2Z"/><path class="cls-5" d="m167.8 140.6-.1 14.3-6.9 4v2.4l8.8-5.1v-16.7l-1.8 1.1z"/><path class="cls-4" d="M160.6 161.7v-2.9l6.9-4v-14.4l2.4-1.4v17.3l-.1.1Zm.5-2.6v1.8l8.3-4.8v-16.2l-1.4.8v14.4Z"/><path class="cls-5" d="m142.5 146.1-8.8 5v-16.7l8.8-5.1v16.8z"/><path class="cls-4" d="M133.4 151.5v-17.3l.1-.1 9.2-5.3v17.3l-.1.1Zm.6-17v16.2l8.3-4.8v-16.2Z"/><path class="cls-5" d="M140.6 130.4v14.4l-6.9 4v2.3l8.8-5v-16.8l-1.9 1.1z"/><path class="cls-4" d="M133.4 151.5v-2.9l6.9-4v-14.4l2.4-1.4v17.3l-.1.1Zm.5-2.6v1.8l8.3-4.8v-16.2l-1.4.8v14.4Z"/><path class="cls-5" d="m169.7 130.5-8.8 5.1v-16.8l8.8-5v16.7z"/><path class="cls-4" d="M160.6 136v-17.3l.1-.1 9.2-5.3v17.3l-.1.1Zm.5-17v16.2l8.3-4.8v-16.2Z"/><path class="cls-5" d="M167.8 114.8v14.4l-6.9 4v2.4l8.8-5.1v-16.7l-1.9 1z"/><path class="cls-4" d="M160.6 136v-2.9l6.9-4v-14.4l2.4-1.4v17.3l-.1.1Zm.5-2.7v1.8l8.3-4.8v-16.2l-1.4.9v14.4Z"/><path class="cls-5" d="m156.1 138.4-8.8 5.1v-16.7l8.8-5.1v16.7z"/><path class="cls-4" d="M147 143.9v-17.3l.1-.1 9.2-5.3v17.3l-.1.1Zm.5-17v16.2l8.3-4.8v-16.2Z"/><path class="cls-5" d="M154.2 122.8v14.4l-6.9 3.9v2.4l8.8-5.1v-16.7l-1.9 1.1z"/><path class="cls-4" d="M147 143.9V141l6.9-4v-14.4l2.4-1.4v17.3l-.1.1Zm.5-2.6v1.8l8.3-4.8v-16.2l-1.4.8v14.4Z"/><path class="cls-5" d="m68.3 147.9 8.8 5.1v-16.7l-8.8-5.1v16.7z"/><path class="cls-4" d="M77.3 153.4 68 148v-17.3l9.3 5.4Zm-8.8-5.6 8.3 4.8v-16.2l-8.3-4.8Z"/><path class="cls-3" d="M70.2 133.1v14.4l6.9 4v2.3l-8.8-5.1V132l1.9 1.1z"/><path class="cls-4" d="M77.3 153.4 68 148v-17.3l2.4 1.4v14.4l6.9 4Zm-8.8-5.6 8.3 4.8v-1.8l-6.9-4v-14.4l-1.4-.8Z"/><path class="cls-10" d="m109.1 171 8.8 5.1v-16.8l-8.8-5.1V171z"/><path class="cls-4" d="m118.1 176.5-9.3-5.4v-17.3l9.3 5.4Zm-8.8-5.7 8.3 4.8v-16.2l-8.3-4.8Z"/><path class="cls-3" d="m111 156.2-.1 14.3 7 4v2.4l-8.8-5.1v-16.7l1.9 1.1z"/><path class="cls-4" d="m118.1 176.5-9.3-5.4v-17.3l2.4 1.4v14.4l6.9 4Zm-8.8-5.7 8.3 4.8v-1.8l-6.9-4v-14.4l-1.4-.8Z"/><path class="cls-5" d="m156 164.2-8.8 5 .1-16.7 8.8-5.1-.1 16.8z"/><path class="cls-4" d="M147 169.6v-17.3l.1-.1 9.2-5.3v17.3l-.1.1Zm.5-17v16.2l8.3-4.8v-16.2Z"/><path class="cls-5" d="M154.2 148.5v14.4l-7 4v2.3l8.8-5 .1-16.8-1.9 1.1z"/><path class="cls-4" d="M147 169.6v-2.9l6.9-4v-14.4l2.4-1.4v17.3l-.1.1Zm.5-2.6v1.8l8.3-4.8v-16.2l-1.4.8V163Z"/><path class="cls-4" transform="rotate(-59.98 73.629 137.52)" d="M73.38 133.52h.5v8h-.5z"/><path class="cls-4" d="m147.4 155.7-.3-.4 7-4 .2.4-6.9 4z"/><path class="cls-4" transform="rotate(-89.92 150.763 154.713)" d="M149.57 154.46h2.4v.5h-2.4z"/><path class="cls-4" d="M150.4 157.8a.37.37 0 0 1-.3-.1.78.78 0 0 1-.3-.7 1.49 1.49 0 0 1 .8-1.4l.2-.1a.85.85 0 0 1 .7 0 .78.78 0 0 1 .3.7 1.49 1.49 0 0 1-.8 1.4l-.2.1a.76.76 0 0 1-.4.1Zm.7-1.9h-.1l-.2.1a1.23 1.23 0 0 0-.5 1c0 .2 0 .3.1.3h.2l.2-.1a.77.77 0 0 0 .3-1.3Zm-17.3-16.7-.2-.5 6.9-3.9.3.4-7 4zm27-9.8-.2-.4 6.9-4 .2.5-6.9 3.9z"/><path class="cls-5" d="m142.6 120.5-8.8 5.1v-16.8l8.8-5.1v16.8z"/><path class="cls-4" d="M133.5 126v-17.3l.1-.1 9.2-5.3v17.3l-.1.1Zm.5-17v16.2l8.3-4.8v-16.2Z"/><path class="cls-5" d="M140.7 104.8v14.4l-6.9 4v2.4l8.8-5.1v-16.8l-1.9 1.1z"/><path class="cls-4" d="M133.5 126v-2.9l6.9-4v-14.4l2.4-1.4v17.3l-.1.1Zm.5-2.7v1.8l8.3-4.8v-16.2l-1.3.9v14.4Z"/><path class="cls-5" d="m169.7 104.9-8.8 5.1V93.3l8.9-5.1-.1 16.7z"/><path class="cls-4" d="M160.7 110.4V93.1l.1-.1 9.2-5.3V105l-.1.1Zm.5-17v16.2l8.3-4.8V88.6Z"/><path class="cls-5" d="M167.9 89.3v14.3l-7 4v2.4l8.8-5.1.1-16.7-1.9 1.1z"/><path class="cls-4" d="M160.7 110.4v-2.9l6.9-4V89.1l2.4-1.4V105l-.1.1Zm.5-2.6v1.8l8.3-4.8V88.6l-1.4.8v14.4Z"/><path class="cls-5" d="m156.1 112.9-8.8 5 .1-16.7 8.8-5.1-.1 16.8z"/><path class="cls-4" d="M147.1 118.4v-17.3l.1-.1 9.2-5.3V113l-.1.1Zm.5-17.1v16.2l8.3-4.8V96.5Z"/><path class="cls-5" d="M154.3 97.2v14.4l-7 4v2.3l8.8-5 .1-16.8-1.9 1.1z"/><path class="cls-4" d="M147.1 118.4v-2.9l6.9-4V97.1l2.4-1.4V113l-.1.1Zm.5-2.7v1.8l8.3-4.8V96.5l-1.4.8v14.4Zm-13.7-2.1-.2-.4 6.9-4 .2.4-6.9 4zm27-9.7-.3-.4 6.9-4 .3.4-6.9 4z"/><path class="cls-5" d="m99.2 65.8-10.4-6 9.7-5.6 10.3 6.1-9.6 5.5z"/><path class="cls-4" d="m99.2 64.5-10.9-6.4 10.2-5.9 10.9 6.4Zm-9.7-6.4 9.7 5.7 9-5.2-9.7-5.7Z"/><path class="cls-3" d="m102.1 60-5-2.8 1.8-1.1 5 2.9-1.8 1z"/><path class="cls-4" d="m102.1 59.6-5.6-3.2 2.4-1.4 5.6 3.2Zm-4.4-3.3 4.4 2.5 1.2-.7-4.4-2.5Z"/><path class="cls-10" d="m168.5 185.2-12.4-7.2v-4.5l3.6 2.1 8.8 7.4v2.2z"/><path class="cls-10" d="m168.5 183 14-8-8.9-7.4-13.9 8 8.8 7.4z"/><path class="cls-10" d="m156.1 173.5 13.9-8 3.6 2.1-13.9 8-3.6-2.1z"/><path class="cls-11" d="m156.1 175.1 13.9-7.9 3.6 2-13.9 8-3.6-2.1z"/><path class="cls-12" d="m168.5 185.2 14-8V175l-14 8v2.2z"/><path class="cls-4" d="m182.7 174.9-8.7-7.2-.3-.2-.1-.1-3.6-2.1-14.2 8.1v4.8l12.7 7.3 14.2-8.1Zm-14.1 7.8-8.5-7 13.5-7.7 8.5 7Zm1.4-16.9 3.1 1.8-5.1 2.9-8.3 4.8-3.1-1.8Zm-13.7 12.1V174l3.2 1.9 2.8 2.3 6 5v1.6Zm25.9-.9-13.4 7.7v-1.6l13.4-7.7Z"/><path class="cls-5" d="M83 158a.1.1 0 0 1-.1-.1l-.2-.1a3.84 3.84 0 0 1-1.4-2.2c0-.2-.1 0-.1 0v1.2a3.84 3.84 0 0 0 1.3 1.5l.2.1c.1.1.2.1.4.2Z"/><path class="cls-5" d="M101.1 180.9 81 169.3l.1-19.1 20 11.6v19.1z"/><path class="cls-4" d="m101.3 181.3-20.5-11.9v-19.7l20.5 11.9Zm-20-12.2 19.5 11.3v-18.5l-19.5-11.3Z"/><path class="cls-5" d="m82.9 168.1.1-16.8-1.9-1.1-.1 19.1 20.1 11.6v-2.3l-18.2-10.5z"/><path class="cls-4" d="m101.3 181.3-20.5-11.9v-19.7l2.4 1.4v16.8l18.1 10.5Zm-20-12.2 19.5 11.3v-1.8l-18.1-10.5v-16.8l-1.4-.8Z"/><path class="cls-12" d="m98.3 165.7 7.5-4.1v-10.3l-8.9 4.1 1.4 10.3z"/><path class="cls-4" d="m98.1 166.1-1.5-10.9 9.5-4.1v10.6Zm-1-10.6 1.3 9.8 7.1-3.8v-9.8Z"/><path d="M98.2 165v-.6c0-4.8 2.9-10.4 6.6-12.5l1-.6-27.7-15.9-1 .6c-3.6 2.1-6.6 7.7-6.6 12.5v.8a3.82 3.82 0 0 0 1.6 3.1l.2.1c.9.5 1.6 0 1.6-1.2a3.82 3.82 0 0 0 1.6 3.1l.2.1c.9.5 1.6 0 1.6-1.2a3.82 3.82 0 0 0 1.6 3.1l.2.1c.9.5 1.6 0 1.6-1.2a3.82 3.82 0 0 0 1.6 3.1l.2.1c.9.5 1.6 0 1.6-1.2a3.82 3.82 0 0 0 1.6 3.1l.2.1c.9.5 1.6 0 1.6-1.2a3.82 3.82 0 0 0 1.6 3.1l.2.1c.9.5 1.6 0 1.6-1.2a3.82 3.82 0 0 0 1.6 3.1l.2.1c.9.5 1.6 0 1.6-1.2a3.82 3.82 0 0 0 1.6 3.1l.2.1c.9.5 1.6 0 1.6-1.2l.5-.3Z" style="fill:#9595d8"/><path class="cls-11" d="M98.6 161.9c.7-3.9 3.1-7.9 5.9-9.8l-25.8-14.8-1 .6c-2.7 1.6-5.1 5.1-6.1 8.9Z"/><path class="cls-4" d="M97.3 167a3.09 3.09 0 0 1-.8-.2l-.2-.1a3.31 3.31 0 0 1-1.5-2.1c-.1.1-.2.3-.4.4a1.24 1.24 0 0 1-1.3-.1l-.2-.1a3.31 3.31 0 0 1-1.5-2.1.78.78 0 0 1-.4.4 1.24 1.24 0 0 1-1.3-.1l-.2-.1a3.31 3.31 0 0 1-1.5-2.1c-.1.1-.2.3-.4.4a1.24 1.24 0 0 1-1.3-.1l-.2-.1a3.31 3.31 0 0 1-1.5-2.1c-.1.1-.2.3-.4.4a1.24 1.24 0 0 1-1.3-.1l-.2-.1a3.31 3.31 0 0 1-1.5-2.1c-.1.1-.2.3-.4.4a1.24 1.24 0 0 1-1.3-.1l-.2-.1a3.31 3.31 0 0 1-1.5-2.1.78.78 0 0 1-.4.4 1.24 1.24 0 0 1-1.3-.1l-.2-.1a3.31 3.31 0 0 1-1.5-2.1c-.1.1-.2.3-.4.4a1.24 1.24 0 0 1-1.3-.1l-.2-.1a4 4 0 0 1-1.7-3.3v-.8c0-4.9 3-10.6 6.7-12.7l1.1-.7.1.1 27.8 16-1.1.9c-3.5 2-6.4 7.6-6.4 12.3v.9c0 .7-.2 1.3-.7 1.5-.7-.7-.8-.6-1-.6Zm-2.8-3.7h.5a3.78 3.78 0 0 0 1.5 2.9l.2.1a1.06 1.06 0 0 0 .8.1c.3-.2.4-.5.4-1.1v-1c0-4.9 3-10.6 6.7-12.7l.6-.4L78 135.5l-.9.5c-3.5 2-6.4 7.6-6.4 12.3v.8a3.78 3.78 0 0 0 1.5 2.9l.2.1a1.06 1.06 0 0 0 .8.1 1.25 1.25 0 0 0 .4-1.1h.5a3.78 3.78 0 0 0 1.5 2.9l.2.1a1.06 1.06 0 0 0 .8.1 1.25 1.25 0 0 0 .4-1.1h.5A3.78 3.78 0 0 0 79 156l.2.1a1.06 1.06 0 0 0 .8.1 1.25 1.25 0 0 0 .4-1.1h.5a3.78 3.78 0 0 0 1.5 2.9l.2.1a1.06 1.06 0 0 0 .8.1 1.25 1.25 0 0 0 .4-1.1h.5a3.78 3.78 0 0 0 1.5 2.9l.2.1a1.06 1.06 0 0 0 .8.1 1.25 1.25 0 0 0 .4-1.1h.5a3.78 3.78 0 0 0 1.5 2.9l.2.1a1.06 1.06 0 0 0 .8.1 1.25 1.25 0 0 0 .4-1.1h.5a3.78 3.78 0 0 0 1.5 2.9l.2.1a1.06 1.06 0 0 0 .8.1c.8.1.9-.3.9-.9Z"/><path class="cls-10" d="M77.4 153.3v-.8c0-4.8 2.9-10.4 6.6-12.5l1-.6-3.5-2.1-1 .6c-3.6 2.1-6.6 7.7-6.6 12.5v.8a3.82 3.82 0 0 0 1.6 3.1l.2.1c1 .6 1.7.1 1.7-1.1Z"/><path class="cls-4" d="M76.4 154.9a3.09 3.09 0 0 1-.8-.2l-.2-.1a4 4 0 0 1-1.7-3.3v-.8c0-4.9 3-10.6 6.7-12.7l1.1-.7 4 2.3-1.4.8c-3.5 2-6.4 7.6-6.4 12.3v1.2a1.68 1.68 0 0 1-.6 1.1 2 2 0 0 1-.7.1Zm5.1-17.3-.9.5c-3.5 2-6.4 7.6-6.4 12.3v.8a3.78 3.78 0 0 0 1.5 2.9l.2.1a1.06 1.06 0 0 0 .8.1 1.25 1.25 0 0 0 .4-1.1v-.8c0-4.9 3-10.6 6.7-12.7l.6-.4Z"/><path class="cls-10" d="M84.3 157.3v-.8c0-4.8 2.9-10.4 6.6-12.5l1-.6-3.5-2.1-1 .6c-3.6 2.1-6.6 7.7-6.6 12.5v.8a3.82 3.82 0 0 0 1.6 3.1l.2.1c1 .6 1.7 0 1.7-1.1Z"/><path class="cls-4" d="M83.4 158.9a3.09 3.09 0 0 1-.8-.2l-.2-.1a4 4 0 0 1-1.7-3.3v-.8c0-4.9 3-10.6 6.7-12.7l1.1-.7 4 2.3-1.4.8c-3.5 2-6.4 7.6-6.4 12.3v1.2a1.68 1.68 0 0 1-.6 1.1 5.64 5.64 0 0 0-.7.1Zm5.1-17.3-.9.5c-3.5 2-6.4 7.6-6.4 12.3v.8a3.78 3.78 0 0 0 1.5 2.9l.2.1a1.06 1.06 0 0 0 .8.1 1.25 1.25 0 0 0 .4-1.1v-.8c0-4.9 3-10.6 6.7-12.7l.6-.4Z"/><path class="cls-10" d="M98.2 165.2v-.8c0-4.8 2.9-10.4 6.6-12.5l1-.6-3.5-2.1-1 .6c-3.6 2.1-6.6 7.7-6.6 12.5v.8a3.82 3.82 0 0 0 1.6 3.1l.2.1c1 .6 1.7.1 1.7-1.1Z"/><path class="cls-4" d="M97.2 166.9a3.09 3.09 0 0 1-.8-.2l-.2-.1a4 4 0 0 1-1.7-3.3v-.8c0-4.9 3-10.6 6.7-12.7l1.1-.7 3.7 2.2-1.1.9c-3.5 2-6.4 7.6-6.4 12.3v1.2a1.68 1.68 0 0 1-.6 1.1c-.3 0-.5.1-.7.1Zm5.1-17.4-.9.5c-3.5 2-6.4 7.6-6.4 12.3v.8a3.78 3.78 0 0 0 1.5 2.9l.2.1a1.06 1.06 0 0 0 .8.1 1.25 1.25 0 0 0 .4-1.1v-.8c0-4.9 3-10.6 6.7-12.7l.6-.4Z"/><path class="cls-10" d="M91.3 161.3v-.8c0-4.8 2.9-10.4 6.6-12.5l1-.6-3.5-2.1-1 .6c-3.6 2.1-6.6 7.7-6.6 12.5v.8a3.82 3.82 0 0 0 1.6 3.1l.2.1c.9.6 1.7 0 1.7-1.1Z"/><path class="cls-4" d="M90.3 162.9a3.09 3.09 0 0 1-.8-.2l-.2-.1a4 4 0 0 1-1.7-3.3v-.8c0-4.9 3-10.6 6.7-12.7l1.1-.7 4 2.3-1.4.8c-3.5 2-6.4 7.6-6.4 12.3v1.2a1.68 1.68 0 0 1-.6 1.1 2 2 0 0 1-.7.1Zm5.1-17.3-.9.5c-3.5 2-6.4 7.6-6.4 12.3v.8a3.78 3.78 0 0 0 1.5 2.9l.2.1a1.06 1.06 0 0 0 .8.1 1.25 1.25 0 0 0 .4-1.1v-.8c0-4.9 3-10.6 6.7-12.7l.6-.4Z"/><path class="cls-4" transform="rotate(-89.92 91.501 167.813)" d="M86.25 167.56h10.5v.5h-10.5z"/><path class="cls-4" transform="rotate(-33.91 87.723 165.858)" d="M84.98 165.6h5.5v.5h-5.5z"/><path class="cls-4" transform="rotate(-30.9 97.643 172.448)" d="M93.51 172.18h8.2v.5h-8.2z"/><path class="cls-4" transform="rotate(-33.49 96.071 170.335)" d="M94.21 170.09h3.7v.5h-3.7z"/><path class="cls-5" d="m73.4 165.6-11.6-6.7 4.9-2.9 11.6 6.8-4.9 2.8z"/><path class="cls-3" d="m73.4 166.6-11.6-6.7 4.9-2.8 11.6 6.7-4.9 2.8z"/><path class="cls-5" d="M61.8 158.9v1.8l11.6 6.7v-1.8l-11.6-6.7z"/><path class="cls-9" d="M78.3 162.8v1.8l-4.9 2.8v-1.8l4.9-2.8z"/><path class="cls-9" d="m77.4 165.1-.9 4.1-3.7 2.1.6-3.9 4-2.3z"/><path class="cls-5" d="m62.5 161.1.7 4.7 9.6 5.5.6-3.9-10.9-6.3z"/><path class="cls-4" d="M78.5 162.9v-.3l-.2-.1-11.6-6.7-5.1 3v2.1l.8.4.7 4.7 9.8 5.7 3.9-2.2.9-4.1.9-.5Zm-11.8-6.6 11.1 6.4-.9.5-3.5 2-8.7-5-2.4-1.4Zm-4.7 4.2v-1.2l2.4 1.4 8.7 5v1.2l-5.6-3.2-5.4-3.1Zm.8 1.1 7 4 3.3 1.9-.5 3.4-9.2-5.3Zm13.4 7.4-3.1 1.8.5-3.1.1-.3 3.4-2Zm1.8-4.6-4.4 2.5v-1.2l3.5-2 .9-.5Z"/><path class="cls-5" d="m69.1 153.4-1.1.6-1.1-.7c-2.8 1.7-2.2 5.4-2.2 5.4a1.66 1.66 0 0 0 1 1.4 5.19 5.19 0 0 0 4.7 0 1.89 1.89 0 0 0 1-1.4c.1-4.2-2.3-5.3-2.3-5.3Z"/><path class="cls-4" d="M67.9 161a5.14 5.14 0 0 1-2.5-.6 1.94 1.94 0 0 1-1.1-1.6s-.6-3.9 2.3-5.6l.1-.1 1.1.7 1.1-.6.1.1c.1.1 2.6 1.3 2.3 5.7a2.08 2.08 0 0 1-1.1 1.6 6.8 6.8 0 0 1-2.3.4Zm-1.1-7.3c-2.5 1.6-2 5.1-2 5.1a1.35 1.35 0 0 0 .9 1.2 4.87 4.87 0 0 0 4.4 0 1.86 1.86 0 0 0 .9-1.1c.2-3.6-1.5-4.9-1.9-5.1l-1.1.6Z"/><path class="cls-5" d="M69.1 154.7a2.35 2.35 0 0 1-2.3 0c-.6-.4-.6-.9 0-1.3a2.35 2.35 0 0 1 2.3 0c.6.3.6.9 0 1.3Z"/><ellipse class="cls-3" cx="67.93" cy="154.71" rx=".9" ry="1.6" transform="rotate(-89.92 67.925 154.71)"/><path class="cls-4" d="M67.9 155.2a2.38 2.38 0 0 1-1.2-.3 1 1 0 0 1-.6-.9 1.21 1.21 0 0 1 .6-.9 2.75 2.75 0 0 1 2.5 0 1 1 0 0 1 .6.9 1.21 1.21 0 0 1-.6.9 2.77 2.77 0 0 1-1.3.3Zm0-1.8a3 3 0 0 0-1 .2.42.42 0 0 0 0 .8 2.33 2.33 0 0 0 2 0 .42.42 0 0 0 0-.8 1.5 1.5 0 0 0-1-.2Z"/><path class="cls-5" d="m73.6 156-1.1.6-1.1-.7c-2.8 1.7-2.2 5.4-2.2 5.4a1.66 1.66 0 0 0 1 1.4 5.19 5.19 0 0 0 4.7 0 1.89 1.89 0 0 0 1-1.4c.2-4.1-2.3-5.3-2.3-5.3Z"/><path class="cls-4" d="M72.5 163.6a5.14 5.14 0 0 1-2.5-.6 1.94 1.94 0 0 1-1.1-1.6s-.6-3.9 2.3-5.6l.1-.1 1.1.7 1.1-.6.1.1c.1.1 2.6 1.3 2.3 5.7a2.08 2.08 0 0 1-1.1 1.6 6.8 6.8 0 0 1-2.3.4Zm-1.1-7.3c-2.5 1.6-2 5.1-2 5.1a1.35 1.35 0 0 0 .9 1.2 4.87 4.87 0 0 0 4.4 0 1.4 1.4 0 0 0 .8-1.1c.2-3.5-1.5-4.9-1.9-5.1l-1.1.6Z"/><path class="cls-5" d="M73.6 157.3a2.35 2.35 0 0 1-2.3 0c-.6-.4-.6-.9 0-1.3a2.35 2.35 0 0 1 2.3 0c.7.4.7.9 0 1.3Z"/><path class="cls-3" d="M73.6 158a2.35 2.35 0 0 1-2.3 0c-.6-.4-.6-.9 0-1.3a2.35 2.35 0 0 1 2.3 0c.6.4.6 1 0 1.3Z"/><path class="cls-4" d="M72.5 157.8a2.38 2.38 0 0 1-1.2-.3 1 1 0 0 1-.6-.9 1.21 1.21 0 0 1 .6-.9 2.75 2.75 0 0 1 2.5 0 1 1 0 0 1 .6.9 1.21 1.21 0 0 1-.6.9 2.77 2.77 0 0 1-1.3.3Zm0-1.8a3 3 0 0 0-1 .2.42.42 0 0 0 0 .8 2.33 2.33 0 0 0 2 0 .42.42 0 0 0 0-.8 3 3 0 0 0-1-.2Z"/><path class="cls-5" d="m109.1 186.3-11.6-6.7 4.9-2.8 11.6 6.7-4.9 2.8z"/><path class="cls-3" d="m109.1 187.3-11.6-6.7 4.9-2.8 11.6 6.7-4.9 2.8z"/><path class="cls-5" d="M97.5 179.6v1.8l11.6 6.7v-1.8l-11.6-6.7z"/><path class="cls-9" d="M114 183.5v1.8l-4.9 2.8v-1.8l4.9-2.8z"/><path class="cls-9" d="m113.1 185.8-.9 4.1-3.7 2.2.6-4 4-2.3z"/><path class="cls-5" d="m98.3 181.8.7 4.7 9.5 5.6.6-4-10.8-6.3z"/><path class="cls-4" d="M114.3 183.7v-.3l-.2-.1-11.6-6.7-5.1 3v2.1l.6.3.7 4.7 9.8 5.7 3.9-2.2.9-4.1.9-.5Zm-11.9-6.6 11.1 6.4-.9.5-3.5 2-8.7-5-2.4-1.4Zm-4.6 4.2v-1.2l2.4 1.4 8.7 5v1.2l-5.6-3.2-5.4-3.1Zm.8 1 7 4 3.3 1.9-.5 3.4-9.2-5.3Zm13.4 7.5-3.1 1.8.5-3.1.1-.3 3.4-2Zm1.8-4.6-4.4 2.5v-1.2l3.5-2 .9-.5Z"/><path class="cls-5" d="m104.8 174.1-1.1.6-1.1-.7c-2.8 1.7-2.2 5.4-2.2 5.4a1.66 1.66 0 0 0 1 1.4 5.19 5.19 0 0 0 4.7 0 1.89 1.89 0 0 0 1-1.4c.1-4.1-2.3-5.3-2.3-5.3Z"/><path class="cls-4" d="M103.7 181.7a5.14 5.14 0 0 1-2.5-.6 1.94 1.94 0 0 1-1.1-1.6s-.6-3.9 2.3-5.6l.1-.1 1.1.7 1.1-.6.1.1c.1.1 2.6 1.3 2.3 5.7a2.08 2.08 0 0 1-1.1 1.6 6.8 6.8 0 0 1-2.3.4Zm-1.1-7.3c-2.5 1.6-2 5.1-2 5.1a1.35 1.35 0 0 0 .9 1.2 4.87 4.87 0 0 0 4.4 0 1.86 1.86 0 0 0 .9-1.1c.2-3.6-1.5-4.9-1.9-5.1l-1.1.6Z"/><path class="cls-5" d="M104.8 175.4a2.35 2.35 0 0 1-2.3 0c-.6-.4-.6-.9 0-1.3a2.35 2.35 0 0 1 2.3 0c.6.4.6 1 0 1.3Z"/><path class="cls-3" d="M104.8 176.1a2.35 2.35 0 0 1-2.3 0c-.6-.4-.6-.9 0-1.3a2.35 2.35 0 0 1 2.3 0c.6.3.6.9 0 1.3Z"/><path class="cls-4" d="M103.7 175.9a2.38 2.38 0 0 1-1.2-.3 1 1 0 0 1-.6-.9 1.21 1.21 0 0 1 .6-.9 2.75 2.75 0 0 1 2.5 0 1 1 0 0 1 .6.9 1.21 1.21 0 0 1-.6.9 3.08 3.08 0 0 1-1.3.3Zm0-1.8a3 3 0 0 0-1 .2.54.54 0 0 0-.3.4c0 .2.1.3.3.4a2.33 2.33 0 0 0 2 0 .54.54 0 0 0 .3-.4c0-.2-.1-.3-.3-.4a3 3 0 0 0-1-.2Z"/><path class="cls-5" d="m109.4 176.7-1.1.6-1.1-.7c-2.8 1.7-2.2 5.4-2.2 5.4a1.66 1.66 0 0 0 1 1.4 5.19 5.19 0 0 0 4.7 0 1.89 1.89 0 0 0 1-1.4c.1-4.1-2.3-5.3-2.3-5.3Z"/><path class="cls-4" d="M108.2 184.3a5.14 5.14 0 0 1-2.5-.6 1.94 1.94 0 0 1-1.1-1.6s-.6-3.9 2.3-5.6l.1-.1 1.1.7 1.1-.6.1.1c.1.1 2.6 1.3 2.3 5.7a2.08 2.08 0 0 1-1.1 1.6 6.8 6.8 0 0 1-2.3.4Zm-1.1-7.3c-2.5 1.6-2 5.1-2 5.1a1.35 1.35 0 0 0 .9 1.2 4.87 4.87 0 0 0 4.4 0 1.4 1.4 0 0 0 .8-1.1c.2-3.5-1.5-4.9-1.9-5.1l-1.1.6Z"/><path class="cls-5" d="M109.4 178a2.35 2.35 0 0 1-2.3 0c-.6-.4-.6-.9 0-1.3a2.35 2.35 0 0 1 2.3 0c.6.4.6 1 0 1.3Z"/><path class="cls-3" d="M109.4 178.8a2.35 2.35 0 0 1-2.3 0c-.6-.4-.6-.9 0-1.3a2.35 2.35 0 0 1 2.3 0c.6.3.6.9 0 1.3Z"/><path class="cls-4" d="M108.2 178.6a2.38 2.38 0 0 1-1.2-.3 1 1 0 0 1-.6-.9 1.21 1.21 0 0 1 .6-.9 2.75 2.75 0 0 1 2.5 0 1 1 0 0 1 .6.9 1.21 1.21 0 0 1-.6.9 2.77 2.77 0 0 1-1.3.3Zm.1-1.9a3 3 0 0 0-1 .2.54.54 0 0 0-.3.4c0 .2.1.3.3.4a2.33 2.33 0 0 0 2 0 .54.54 0 0 0 .3-.4c0-.2-.1-.3-.3-.4a3.55 3.55 0 0 0-1-.2Z"/><path class="cls-9" d="M110.7 30.6v10.8h-1.6L78.3 59 72 55.2l-.8-1.3.3-1.4 1-.9 35.7-20.5 1.2-.5h1.3z"/><path class="cls-10" d="m68.3 122 8.8 5.1.1-16.7-8.9-5.1V122z"/><path class="cls-4" d="m77.4 127.5-9.3-5.4v-17.3l9.3 5.4Zm-8.8-5.6 8.3 4.8v-16.2l-8.3-4.8Z"/><path class="cls-3" d="M70.2 107.2v14.4l6.9 4v2.3l-8.8-5.1v-16.7l1.9 1.1z"/><path class="cls-4" d="m77.4 127.5-9.3-5.4v-17.3l2.4 1.4v14.4l6.9 4Zm-8.8-5.6 8.3 4.8v-1.8l-6.9-4v-14.4l-1.4-.8Z"/><path class="cls-5" d="m81.9 130 8.8 5.1v-16.7l-8.8-5.1V130z"/><path class="cls-4" d="m91 135.5-9.3-5.4v-17.3l9.3 5.4Zm-8.8-5.6 8.3 4.8v-16.2l-8.3-4.8Z"/><path class="cls-3" d="M83.8 115.2v14.4l6.9 4v2.3l-8.8-5.1v-16.7l1.9 1.1z"/><path class="cls-4" d="m91 135.5-9.3-5.4v-17.3l2.4 1.4v14.4l6.9 4Zm-8.8-5.6 8.3 4.8v-1.8l-6.9-4v-14.4l-1.4-.8Z"/><path class="cls-5" d="m109.1 145.3 8.8 5.1v-16.8l-8.8-5.1v16.8z"/><path class="cls-4" d="m118.2 150.8-9.3-5.4v-17.3l9.3 5.4Zm-8.9-5.7 8.3 4.8v-16.2l-8.3-4.8Z"/><path class="cls-3" d="M111 130.4v14.4l6.9 4v2.4l-8.8-5.1v-16.8l1.9 1.1z"/><path class="cls-4" d="m118.2 150.8-9.3-5.4v-17.3l2.4 1.4v14.4l6.9 4Zm-8.9-5.7 8.3 4.8v-1.8l-6.9-4v-14.4l-1.4-.8Z"/><path class="cls-5" d="m95.6 137.7 8.8 5.1V126l-8.8-5.1v16.8z"/><path class="cls-4" d="m104.6 143.2-9.3-5.4v-17.3l9.3 5.4Zm-8.8-5.7 8.3 4.8v-16.2l-8.3-4.8Z"/><path class="cls-3" d="M97.5 122.8v14.4l6.9 4v2.4l-8.8-5.1v-16.8l1.9 1.1z"/><path class="cls-4" d="m104.6 143.2-9.3-5.4v-17.3l2.4 1.4v14.4l6.9 4Zm-8.8-5.7 8.3 4.8v-1.8l-6.9-4v-14.4l-1.4-.8Z"/><path class="cls-4" transform="rotate(-59.98 100.898 132.296)" d="M100.65 128.3h.5v8h-.5z"/><path class="cls-4" transform="rotate(-89.92 100.844 133.433)" d="M99.65 133.18h2.4v.5h-2.4z"/><path class="cls-4" d="M101.2 136.6a.6.6 0 0 1-.4-.1l-.2-.1a1.84 1.84 0 0 1-.8-1.4.78.78 0 0 1 .3-.7.85.85 0 0 1 .7 0l.2.1a1.84 1.84 0 0 1 .8 1.4.78.78 0 0 1-.3.7.37.37 0 0 1-.3.1Zm-.7-1.9c-.1 0-.1.1-.1.3a1.23 1.23 0 0 0 .5 1l.2.1a.14.14 0 0 0 .2 0 .44.44 0 0 0 .1-.3 1.23 1.23 0 0 0-.5-1l-.2-.1Z"/><path class="cls-4" transform="rotate(-59.98 73.66 110.651)" d="M73.41 106.64h.5v8h-.5z"/><path class="cls-5" d="m68.5 97.3 8.8 5.1V85.6l-8.8-5.1v16.8z"/><path class="cls-4" d="m77.5 102.8-9.3-5.4V80.1l9.3 5.4Zm-8.8-5.7 8.3 4.8V85.7l-8.3-4.8Z"/><path class="cls-3" d="M70.4 82.4v14.4l6.9 4v2.4l-8.8-5.1V81.3l1.9 1.1z"/><path class="cls-4" d="m77.5 102.8-9.3-5.4V80.1l2.4 1.4v14.4l6.9 4Zm-8.8-5.7 8.3 4.8v-1.8l-6.9-4V81.7l-1.4-.8Z"/><path class="cls-5" d="m82.1 105.2 8.8 5.1V93.6l-8.8-5.1v16.7z"/><path class="cls-4" d="m91.1 110.7-9.3-5.4V88l9.3 5.4Zm-8.8-5.6 8.3 4.8V93.7l-8.3-4.8Z"/><path class="cls-3" d="M84 90.4v14.4l6.9 4v2.3l-8.8-5V89.3l1.9 1.1z"/><path class="cls-4" d="m91.1 110.7-9.3-5.4V88l2.4 1.4v14.4l6.9 4Zm-8.8-5.6 8.3 4.8v-1.8l-6.9-4V89.7l-1.4-.8Z"/><path class="cls-10" d="m109.3 120.5 8.8 5.1v-16.8l-8.8-5v16.7z"/><path class="cls-4" d="m118.3 126-9.3-5.4v-17.3l9.3 5.4Zm-8.8-5.6 8.3 4.8V109l-8.3-4.8Z"/><path class="cls-3" d="m111.2 105.7-.1 14.3 7 4v2.4l-8.8-5.1v-16.7l1.9 1.1z"/><path class="cls-4" d="m118.3 126-9.3-5.4v-17.3l2.4 1.4v14.4l6.9 4Zm-8.8-5.6 8.3 4.8v-1.8l-6.9-4V105l-1.4-.8Z"/><path class="cls-5" d="m95.7 112.9 8.9 5.1v-16.8l-8.8-5-.1 16.7z"/><path class="cls-4" d="m104.8 118.4-9.3-5.4V95.7l9.3 5.4Zm-8.8-5.6 8.3 4.8v-16.2L96 96.6Z"/><path class="cls-3" d="M97.6 98.1v14.3l7 4v2.4l-8.9-5.1.1-16.7 1.8 1.1z"/><path class="cls-4" d="m104.8 118.4-9.3-5.4V95.7l2.4 1.4v14.4l6.9 4Zm-8.8-5.6 8.3 4.8v-1.8l-6.9-4V97.4l-1.4-.8Z"/><path class="cls-4" transform="rotate(-59.98 101.047 107.482)" d="M100.8 103.48h.5v8h-.5z"/><path class="cls-4" transform="rotate(-89.92 101.071 108.72)" d="M99.87 108.47h2.4v.5h-2.4z"/><path class="cls-4" d="M101.4 111.8a.6.6 0 0 1-.4-.1l-.2-.1a1.84 1.84 0 0 1-.8-1.4.78.78 0 0 1 .3-.7.85.85 0 0 1 .7 0l.2.1a1.84 1.84 0 0 1 .8 1.4.78.78 0 0 1-.3.7.37.37 0 0 1-.3.1Zm-.7-1.9c-.1 0-.1.1-.1.3a1.23 1.23 0 0 0 .5 1l.2.1a.14.14 0 0 0 .2 0 .44.44 0 0 0 .1-.3 1.23 1.23 0 0 0-.5-1l-.2-.1Z"/><path class="cls-4" transform="rotate(-59.98 73.9 85.878)" d="M73.64 81.87h.5v8h-.5z"/><path class="cls-5" d="m152.3 186.7-.9 3.2a1.93 1.93 0 0 1-2.8 0l-1-3Z"/><path class="cls-9" d="m150.1 187.7-.1 2.7 1.4-.4.6-2.9-1.9.6z"/><path class="cls-4" d="M150 190.8a2.55 2.55 0 0 1-1.6-.7l-.1-.1-1.2-3.5 5.7-.2-1.1 3.7-.1.1a2.55 2.55 0 0 1-1.6.7Zm-1.1-1.2a1.88 1.88 0 0 0 1 .4 1.57 1.57 0 0 0 1-.4l.8-2.6-3.7.1Z"/><path class="cls-5" d="m146.2 182.8 2.1-8.3a1.61 1.61 0 0 1 3.2 0l2.1 8.3a3.08 3.08 0 0 1 .1 1 3.9 3.9 0 1 1-7.8 0 3.81 3.81 0 0 0 .3-1Z"/><path class="cls-3" d="m153.7 182.8-1.8-7.2a1.27 1.27 0 0 0-.6-.1 1.62 1.62 0 0 0-1.6 1.4l-2.1 8.3a3.08 3.08 0 0 0-.1 1 1.27 1.27 0 0 0 .1.6 3.66 3.66 0 0 0 2.5.9 3.9 3.9 0 0 0 3.9-3.9 1.69 1.69 0 0 1-.3-1Z"/><path class="cls-4" d="M149.9 188a4.23 4.23 0 0 1-4.2-4.2v-.6l2.3-8.9v-.2a2 2 0 0 1 1.9-1.4 1.93 1.93 0 0 1 1.9 1.5l.1.2 2.2 8.8v.6a4.23 4.23 0 0 1-4.2 4.2Zm-3.2-5.5-.1.5a2.77 2.77 0 0 0-.1.9 3.5 3.5 0 0 0 7 0 3.08 3.08 0 0 0-.1-.9l-.1-.5-2-7.9a1.28 1.28 0 0 0-1.2-1.1 1.19 1.19 0 0 0-1.2 1.1l-.1.3ZM159 68.2l-44-25.5c-2.1-1.2-5.4-1.4-7.2-.3l-29.5 17-5.4-3.1a3.27 3.27 0 0 1-2-2.7 2.41 2.41 0 0 1 1.5-2.1l35.1-20.2c2-1.2 5.5-1 7.8.3l49.2 28.5a3.27 3.27 0 0 1 2 2.7 2.41 2.41 0 0 1-1.5 2.1Zm-48.1-27.1a9.56 9.56 0 0 1 4.4 1.1L159 67.5l5.6-3.3a1.94 1.94 0 0 0 1.1-1.6 2.74 2.74 0 0 0-1.7-2.2L115 32c-2.1-1.2-5.4-1.4-7.2-.3L72.7 51.9a1.94 1.94 0 0 0-1.1 1.6 2.74 2.74 0 0 0 1.7 2.2l5.1 3 29.2-16.8a5.58 5.58 0 0 1 3.3-.8Z"/><path class="cls-5" d="M124.8 56.9v3.8a1.21 1.21 0 0 0 .6.9 3.19 3.19 0 0 0 3 0 1.07 1.07 0 0 0 .6-.9v-3.8Z"/><path class="cls-4" d="M126.9 62.3a3.29 3.29 0 0 1-1.7-.4 1.4 1.4 0 0 1-.8-1.1v-4.1h4.9v4.1a1.27 1.27 0 0 1-.8 1.1 3.77 3.77 0 0 1-1.6.4Zm-1.8-5.1v3.5c0 .2.2.4.5.6a3.19 3.19 0 0 0 2.7 0c.3-.2.5-.4.5-.6v-3.5Z"/><path class="cls-5" d="M133.4 52.9h-12.9l4.3 4.2a1.38 1.38 0 0 0 .4.3 3.82 3.82 0 0 0 3.6 0c.1-.1.3-.2.4-.3Z"/><path class="cls-4" d="M126.9 58.1a3.83 3.83 0 0 1-1.9-.5c-.1-.1-.2-.1-.3-.2l-.1-.1-4.8-4.8h14.4l-5 4.8c-.1.1-.2.2-.3.2a3 3 0 0 1-2 .6Zm-2-1.2.3.3a3.82 3.82 0 0 0 3.3 0c.1-.1.2-.1.3-.2l.1-.1 3.7-3.6h-11.4Z"/><path class="cls-5" d="M134.5 49.5c0-.1-.1-.4-.2-.4a13.58 13.58 0 0 0-4.2-5.3L129 43h-4.1l-1.2.9a14.33 14.33 0 0 0-4.1 5l-.1.2c-.1.1-.1.1-.1.3v.1c-.7 1.9.8 4.1 4.6 5.1a12.3 12.3 0 0 0 7.1-.3c2.9-1.2 4.1-3 3.4-4.8Z"/><path class="cls-4" d="M127 55.3a11 11 0 0 1-3.1-.4c-2.3-.6-3.9-1.7-4.6-3a3.13 3.13 0 0 1-.2-2.5l.1-.1c0-.1 0-.1.1-.2l.1-.2a13.89 13.89 0 0 1 4.2-5.1l1.3-1h4.3l1.2.9a13.26 13.26 0 0 1 4.3 5.4 1.47 1.47 0 0 0 .2.4v.1c.7 2-.7 3.9-3.7 5.1a20.26 20.26 0 0 1-4.2.6Zm-2-12-1.1.8a13.53 13.53 0 0 0-4 4.9l-.1.2c0 .1 0 .1-.1.1v.1a2.32 2.32 0 0 0 .1 2c.6 1.2 2.1 2.2 4.2 2.7a11.56 11.56 0 0 0 6.9-.3c2.6-1 3.9-2.7 3.3-4.3v-.1a1 1 0 0 1-.1-.3 13 13 0 0 0-4.2-5.1l-1-.8Z"/><path class="cls-5" d="M128.7 42.8c1 .6 1 1.5 0 2.1a3.82 3.82 0 0 1-3.6 0c-1-.6-1-1.5 0-2.1a4.51 4.51 0 0 1 3.6 0Z"/><path class="cls-3" d="M128.7 43.8c1 .6 1 1.5 0 2.1a3.82 3.82 0 0 1-3.6 0c-1-.6-1-1.5 0-2.1a3.82 3.82 0 0 1 3.6 0Z"/><path class="cls-4" d="M126.9 45.6a3.83 3.83 0 0 1-1.9-.5 1.39 1.39 0 0 1 0-2.6 4.45 4.45 0 0 1 3.9 0 1.39 1.39 0 0 1 0 2.6 3.51 3.51 0 0 1-2 .5Zm0-2.9a2.73 2.73 0 0 0-1.6.4.94.94 0 0 0-.6.8c0 .3.2.5.6.8a3.82 3.82 0 0 0 3.3 0 .94.94 0 0 0 .6-.8c0-.3-.2-.5-.6-.8a3.29 3.29 0 0 0-1.7-.4Z"/><path class="cls-5" d="M139 65.2V69a1.21 1.21 0 0 0 .6.9 3.19 3.19 0 0 0 3 0 1.07 1.07 0 0 0 .6-.9v-3.8Z"/><path class="cls-4" d="M141.1 70.6a3.29 3.29 0 0 1-1.7-.4 1.4 1.4 0 0 1-.8-1.1V65h4.9v4.1a1.27 1.27 0 0 1-.8 1.1 2.73 2.73 0 0 1-1.6.4Zm-1.8-5.1V69c0 .2.2.4.5.6a3.19 3.19 0 0 0 2.7 0c.3-.2.5-.4.5-.6v-3.5Z"/><path class="cls-5" d="M147.6 61.3h-12.9l4.3 4.2a1.38 1.38 0 0 0 .4.3 3.82 3.82 0 0 0 3.6 0c.1-.1.3-.2.4-.3Z"/><path class="cls-4" d="M141.1 66.5a3.83 3.83 0 0 1-1.9-.5c-.1-.1-.2-.1-.3-.2l-.1-.1-4.8-4.8h14.4l-5 4.8c-.1.1-.2.2-.3.2a3.61 3.61 0 0 1-2 .6Zm-2-1.3.3.3a3.82 3.82 0 0 0 3.3 0c.1-.1.2-.1.3-.2l.1-.1 3.7-3.6h-11.4Z"/><path class="cls-5" d="M148.7 57.9c0-.1-.1-.4-.2-.4a13.58 13.58 0 0 0-4.2-5.3l-1.1-.8h-4.1l-1.2.9a14.33 14.33 0 0 0-4.1 5l-.1.2c-.1.1-.1.1-.1.3v.1c-.7 1.9.8 4.1 4.6 5.1a12.26 12.26 0 0 0 7.1-.3c2.9-1.3 4.1-3.1 3.4-4.8Z"/><path class="cls-4" d="M141.2 63.6a11 11 0 0 1-3.1-.4c-2.3-.6-3.9-1.7-4.6-3a3.13 3.13 0 0 1-.2-2.5l.1-.1c0-.1 0-.1.1-.2l.1-.2a13.89 13.89 0 0 1 4.2-5.1l1.3-1h4.3l1.2.9a13.26 13.26 0 0 1 4.3 5.4 1.47 1.47 0 0 0 .2.4v.1c.7 2-.7 3.9-3.7 5.1a15.23 15.23 0 0 1-4.2.6Zm-2-11.9-1.1.8a13.53 13.53 0 0 0-4 4.9l-.1.2c0 .1 0 .1-.1.1v.1a2.32 2.32 0 0 0 .1 2c.6 1.2 2.1 2.2 4.2 2.7a11.56 11.56 0 0 0 6.9-.3c2.6-1 3.9-2.7 3.3-4.3v-.1a1 1 0 0 1-.1-.3 13 13 0 0 0-4.2-5.1l-1-.8Z"/><path class="cls-5" d="M142.9 51.2c1 .6 1 1.5 0 2.1a3.82 3.82 0 0 1-3.6 0c-1-.6-1-1.5 0-2.1a3.83 3.83 0 0 1 3.6 0Z"/><path class="cls-3" d="M142.9 52.1c1 .6 1 1.5 0 2.1a3.83 3.83 0 0 1-3.6 0c-1-.6-1-1.5 0-2.1a3.82 3.82 0 0 1 3.6 0Z"/><path class="cls-4" d="M141.1 54a3.83 3.83 0 0 1-1.9-.5 1.39 1.39 0 0 1 0-2.6 4.45 4.45 0 0 1 3.9 0 1.39 1.39 0 0 1 0 2.6 4.55 4.55 0 0 1-2 .5Zm0-2.9a2.73 2.73 0 0 0-1.6.4.94.94 0 0 0-.6.8c0 .3.2.5.6.8a3.82 3.82 0 0 0 3.3 0 .94.94 0 0 0 .6-.8c0-.3-.2-.5-.6-.8a3.29 3.29 0 0 0-1.7-.4Z"/><path class="cls-1" d="m197.6 169.1-1.8 1.1a3.39 3.39 0 0 1-3.1 0l-6.3-3.7a1.12 1.12 0 0 1 0-1.9l2.8-1.6a1.08 1.08 0 0 1 1.1 0l7.3 4.3a1 1 0 0 1 0 1.8Z"/><path class="cls-3" d="m194.8 148.5-3.2 1.8-6.1-3.5 3.2-1.8 6.1 3.5Z"/><path class="cls-3" d="m194.7 149.8-3.2 1.8-6.1-3.5 3.2-1.8 6.1 3.5Z"/><path class="cls-4" d="m191.6 150.8-.3-.1-6.3-3.7v-.6l.2-.2 3.4-2 .3.1 6.3 3.7v.6l-.2.2Zm-5.2-4.1 5.2 3 2.3-1.3-5.2-3Z"/><path class="cls-5" d="M185.5 146.8v16.8l6.1 3.5v-16.8l-6.1-3.5Z"/><path class="cls-4" d="m191.6 167.7-.3-.1-6.3-3.7v-17.4l.5-.3.3.1 6.3 3.7v17.4Zm-5.7-4.4 5.2 3v-15.8l-5.2-3Z"/><path class="cls-6" d="M194.8 148.5v16.8l-3.2 1.8v-16.8l3.2-1.8Z"/><path class="cls-4" d="m191.6 167.7-.5-.3V150l.3-.2 3.4-2 .5.3v17.4l-.3.2Zm.5-17.1v15.8l2.3-1.3v-15.8Z"/></svg>