<svg id="Layer_1" data-name="Layer 1" xmlns="http://www.w3.org/2000/svg" viewBox="0 0 350 350"><defs><style>.cls-1{opacity:.48}.cls-2{fill:#424243}.cls-3{fill:#f0f1f1}.cls-4{fill:#8c8cf9}.cls-6{fill:#bcd589}.cls-7{opacity:.7}.cls-8{fill:#e9b13d}.cls-11{fill:#fff}</style></defs><g class="cls-1"><path class="cls-2" d="M135.4 274.4H68.9a1.75 1.75 0 0 1-1.7-1.7V271a1.75 1.75 0 0 1 1.7-1.7h66.5a1.75 1.75 0 0 1 1.7 1.7v1.6a1.77 1.77 0 0 1-1.7 1.8Z"/></g><path class="cls-3" d="M68 130.6h170.6v104.6H68z"/><path class="cls-2" d="M238.6 233.1H74.9a48.45 48.45 0 0 0-6.6 0H68l2.1 2.1V130.6l-2.1 2.1h163.7a48.45 48.45 0 0 0 6.6 0h.3l-2.1-2.1v104.6c0 2.7 4.2 2.7 4.2 0V130.6a2.18 2.18 0 0 0-2.1-2.1H89c-6.9 0-13.8-.3-20.7 0H68a2.18 2.18 0 0 0-2.1 2.1v104.6a2.18 2.18 0 0 0 2.1 2.1h149.6c6.9 0 13.8.3 20.7 0h.3c2.7 0 2.8-4.2 0-4.2Z"/><path class="cls-3" d="M55 235.2h196.5v11.4H55z"/><path class="cls-2" d="M57.1 246.6v-11.4l-2.1 2.1h188.5c2.5 0 5.3.4 7.7 0h.3l-2.1-2.1v11.4c0 2.7 4.2 2.7 4.2 0v-11.4a2.18 2.18 0 0 0-2.1-2.1H79.2c-7.9 0-15.9-.3-23.9 0H55a2.18 2.18 0 0 0-2.1 2.1v11.4c0 2.7 4.2 2.7 4.2 0Z"/><path class="cls-4" d="M183.7 165.9h39.2v69.3h-39.2z"/><path class="cls-2" d="M222.9 233.1h-39.2l2.1 2.1v-69.3l-2.1 2.1h39.2l-2.1-2.1v69.3c0 2.7 4.2 2.7 4.2 0v-69.3a2.18 2.18 0 0 0-2.1-2.1h-39.2a2.18 2.18 0 0 0-2.1 2.1v69.3a2.18 2.18 0 0 0 2.1 2.1h39.2c2.7 0 2.7-4.2 0-4.2Z"/><path style="fill:#9ed1e3" d="M86.5 165.9h77.8v32.6H86.5z"/><path class="cls-2" d="M164.2 196.4H86.4l2.1 2.1v-32.6l-2.1 2.1h77.8l-2.1-2.1v32.6c0 2.7 4.2 2.7 4.2 0v-32.6a2.18 2.18 0 0 0-2.1-2.1H86.4a2.18 2.18 0 0 0-2.1 2.1v32.6a2.18 2.18 0 0 0 2.1 2.1h77.8c2.7 0 2.8-4.2 0-4.2Z"/><g class="cls-1"><path class="cls-2" d="M149.7 255.4H56.2a1.58 1.58 0 0 1-1.6-1.6 1.58 1.58 0 0 1 1.6-1.6h93.5a1.58 1.58 0 0 1 1.6 1.6 1.72 1.72 0 0 1-1.6 1.6Z"/></g><g class="cls-1"><path class="cls-2" d="M158.5 255.4h-2.3a1.58 1.58 0 0 1-1.6-1.6 1.58 1.58 0 0 1 1.6-1.6h2.3a1.58 1.58 0 0 1 1.6 1.6 1.58 1.58 0 0 1-1.6 1.6Z"/></g><g class="cls-1"><path class="cls-2" d="M237 263.8h-91a1.75 1.75 0 0 1-1.7-1.7 1.75 1.75 0 0 1 1.7-1.7h91a1.75 1.75 0 0 1 1.7 1.7 1.75 1.75 0 0 1-1.7 1.7Z"/></g><g class="cls-1"><path class="cls-2" d="M247.3 263.8h-4.2a1.75 1.75 0 0 1-1.7-1.7 1.75 1.75 0 0 1 1.7-1.7h4.2a1.75 1.75 0 0 1 1.7 1.7 1.75 1.75 0 0 1-1.7 1.7Z"/></g><path class="cls-3" d="M82.4 131.2 91 78.9h22.5l-2.9 52.3s-.8 14.1-14.1 14.1-14.1-14.1-14.1-14.1Z"/><path class="cls-2" d="M84.5 131.7c2.5-15.3 5-30.5 7.5-45.8.4-2.2.7-4.4 1.1-6.5-.7.5-1.4 1-2 1.5h22.5l-2.1-2.1c-.7 12.6-1.4 25.1-2.1 37.7-.3 4.9-.5 9.7-.8 14.6v.1c0 .7 0 0-.1.5a16.37 16.37 0 0 1-1 3.8c-1.4 3.6-4 6.4-7.8 7.3a11.68 11.68 0 0 1-12.9-4.9 16.6 16.6 0 0 1-1.9-4.8c-.1-.6-.2-1.1-.3-1.7.1.5 0 0 0-.2-.2-2.7-4.4-2.7-4.2 0 .4 6.9 4.6 13.7 11.5 15.6 5.2 1.4 11.1.4 15.1-3.1a17.63 17.63 0 0 0 5.3-9.7c.8-3.6.7-7.5.9-11.2.5-8.6 1-17.3 1.5-25.9.3-6 .7-12 1-17.9a2.11 2.11 0 0 0-2.1-2.1H91.1a2 2 0 0 0-2 1.5c-2.5 15.3-5 30.5-7.5 45.8-.4 2.2-.7 4.4-1.1 6.5-.5 2.6 3.5 3.7 4 1Z"/><path class="cls-3" d="M138.7 131.2V78.8h28.2v52.3s-.4 14.1-14.1 14.1-14.1-14-14.1-14Z"/><path class="cls-2" d="M140.9 131.2V78.9l-2.1 2.1H167l-2.1-2.1v38.5c0 4.6.2 9.2 0 13.8v.7c-.1.6 0 0 0 .4a17.39 17.39 0 0 1-1.1 3.9 10.75 10.75 0 0 1-8.2 6.8c-5 .9-10.2-.8-12.7-5.3a14.23 14.23 0 0 1-1.6-4.5 3.78 3.78 0 0 1-.4-2c-.1-2.7-4.3-2.7-4.2 0 .2 6.7 4.3 13.3 10.8 15.4 5.1 1.6 11.3.8 15.5-2.6a17.14 17.14 0 0 0 5.6-9.6c.8-3.6.5-7.4.5-11.1V78.8a2.18 2.18 0 0 0-2.1-2.1h-28.2a2.18 2.18 0 0 0-2.1 2.1v52.3c-.1 2.8 4.2 2.8 4.2.1Z"/><path class="cls-3" d="m195.1 131.2-.8-52.3h23.3l5.7 52.3s-.6 12-12.4 13.9-15.6-8.9-15.8-13.9Z"/><path class="cls-2" d="M197.2 131.2c-.2-15.3-.5-30.6-.7-45.9 0-2.1-.1-4.3-.1-6.4l-2.1 2.1h23.3l-2.1-2.1c1.3 11.5 2.5 23.1 3.8 34.6.6 5.5 1.2 11.1 1.8 16.6 0 .4.1.7.1 1.1v.2c0 .6.1-.1-.1.7a14 14 0 0 1-4.3 8.1c-3.8 3.3-10.4 4.2-14.6 1.1-3.1-2.3-4.8-6.4-5-10.1-.2-2.7-4.4-2.7-4.2 0 .6 9.2 7.5 17.2 17.2 16.1 7.9-.9 14.9-7.6 15.1-15.8.1-3.8-.8-7.8-1.2-11.6l-2.7-24.6c-.6-5.5-1.2-10.9-1.8-16.4a2.18 2.18 0 0 0-2.1-2.1h-23.3a2.18 2.18 0 0 0-2.1 2.1c.2 15.3.5 30.6.7 45.9 0 2.1.1 4.3.1 6.4.1 2.7 4.3 2.7 4.3 0Z"/><path class="cls-4" d="m251.4 131.2-10.9-52.3h-22.9l5.7 52.3s0 14.1 14.1 14.1 14-14.1 14-14.1Z"/><path class="cls-2" d="M253.4 130.6c-3.2-15.3-6.4-30.6-9.6-45.8-.5-2.2-.9-4.3-1.4-6.5a2 2 0 0 0-2-1.5h-22.9a2.18 2.18 0 0 0-2.1 2.1c1.5 13.9 3 27.9 4.5 41.8.4 3.9.8 7.9 1.2 11.8a18.3 18.3 0 0 0 3.7 9.5c3.3 4.1 8.6 5.7 13.8 5.3 8.6-.6 14.7-7.6 14.8-16.1 0-2.7-4.2-2.7-4.2 0a13.93 13.93 0 0 1-1.2 5.4 10.54 10.54 0 0 1-8.8 6.5c-4.5.5-9.3-.7-11.8-4.7a15.29 15.29 0 0 1-2.1-6.8c-1-12.1-2.6-24.1-3.9-36.1-.6-5.5-1.2-11-1.8-16.6l-2.1 2.1h22.9c-.7-.5-1.4-1-2-1.5 3.2 15.3 6.4 30.6 9.6 45.8.5 2.2.9 4.3 1.4 6.5.5 2.6 4.5 1.5 4-1.2Z"/><path class="cls-4" d="M113.5 78.8h25.2v52.3s-1.5 13.9-14.1 14.1-14.1-14.1-14.1-14.1Z"/><path class="cls-2" d="M113.5 80.9h25.2l-2.1-2.1V131c0 .5.2-.6 0 .2-1.1 5.4-4 10.6-9.9 11.7-6.8 1.2-11.8-3.2-13.5-9.4a20.48 20.48 0 0 1-.5-2.4c-.1-.5 0 .5 0-.1.1-1.1.1-2.3.2-3.4.3-5.5.6-10.9.9-16.4l1.8-32.4c.2-2.7-4.1-2.7-4.2 0-.6 9.8-1.1 19.7-1.7 29.5-.3 6-.7 12-1 18.1a28.13 28.13 0 0 0 .1 7.1c1.4 6.1 5.3 12 11.7 13.5a16 16 0 0 0 18.5-9.4 19.45 19.45 0 0 0 1.8-8.1V114c0-11.4.2-22.9 0-34.3V79a2.18 2.18 0 0 0-2.1-2.1h-25.2c-2.7-.2-2.7 4 0 4Z"/><path class="cls-4" d="M166.9 78.8v52.3s.6 14.3 14.1 14.1 14.1-14.1 14.1-14.1l-.8-52.3Z"/><path class="cls-2" d="M164.8 78.8v48a32.55 32.55 0 0 0 .4 7c1.2 6.2 5.4 11.8 11.9 13.1 8 1.6 15.6-2.1 18.7-9.7a18.93 18.93 0 0 0 1.4-7.8c-.1-5.1-.2-10.3-.2-15.4-.2-11.5-.2-23-.6-34.5v-.7a2.11 2.11 0 0 0-2.1-2.1H167c-2.7 0-2.7 4.2 0 4.2h27.3l-2.1-2.1c.2 9.3.3 18.7.5 28l.3 18.1a51.43 51.43 0 0 1 0 6.8c0 .5.1-.5 0 .1 0 .2-.1.4-.1.6-.1.5-.2 1-.3 1.4a15.81 15.81 0 0 1-1.4 3.6 10.66 10.66 0 0 1-7.4 5.3c-6.9 1.4-12.5-2.4-14.2-9a21.06 21.06 0 0 1-.5-2.8V78.7c-.1-2.6-4.3-2.6-4.3.1Z"/><path class="cls-4" d="M91.1 78.8c-1.2 7.5-2.5 15-3.7 22.5-1.6 9.5-3.2 19-4.7 28.5-.6 3.7-1.3 7-3.6 10a13.65 13.65 0 0 1-10.7 5.3c-13 .4-13.1-14.5-13.1-14.5l13.9-51.9h21.9Z"/><path class="cls-2" d="M89 78.3c-1.5 9.1-3 18.3-4.5 27.4-.8 4.8-1.6 9.5-2.4 14.3-.7 4.3-1.2 8.8-2.2 13-.9 3.7-2.8 7.1-6.4 8.9a12.79 12.79 0 0 1-9.2.8c-3.8-1.3-5.7-4.9-6.6-8.6-.3-1.3-.2-1.8-.4-3-.1-.5-.1.4-.1.3s.1-.4.2-.6c.7-2.4 1.3-4.8 1.9-7.1 2.3-8.6 4.6-17.2 6.9-25.7 1.6-6.1 3.3-12.2 4.9-18.3-.7.5-1.4 1-2 1.5H91c2.7 0 2.7-4.2 0-4.2H69.1a2.16 2.16 0 0 0-2 1.5c-4 14.8-7.9 29.6-11.9 44.4-.6 2.4-1.4 4.7-1.9 7.1a12.34 12.34 0 0 0 .5 5.7c1.1 4.3 3.5 8.5 7.7 10.5a16.13 16.13 0 0 0 18.6-4.1c3-3.5 3.9-7.9 4.6-12.3.9-5.7 1.9-11.4 2.8-17.1 1.8-11 3.7-22.1 5.5-33.1.5-2.8-3.5-4-4-1.3Z"/><circle class="cls-6" cx="278.98" cy="196.77" r="30"/><path class="cls-2" d="M306.9 196.8a28 28 0 1 1-22.5-27.4 28.34 28.34 0 0 1 22.5 27.4c0 2.7 4.2 2.7 4.2 0a32.14 32.14 0 1 0-25.8 31.5c14.9-2.9 25.7-16.5 25.8-31.5.1-2.7-4.1-2.7-4.2 0Z"/><path class="cls-2" d="M267.6 204.7c3.3 3.8 6.6 7.6 9.9 11.3l-.6-1.5V247c0 2.7 4.2 2.7 4.2 0v-31.1a6 6 0 0 0-.2-2.3 13.74 13.74 0 0 0-2.4-2.9l-7.9-9.1c-1.8-1.9-4.7 1.1-3 3.1Z"/><path class="cls-2" d="m280.5 219.4 13.2-10.5c2.1-1.7-.9-4.6-3-3l-13.2 10.5c-2.1 1.7.9 4.7 3 3Z"/><circle class="cls-6" cx="317.5" cy="221.7" r="25.4"/><path class="cls-2" d="M340.8 221.7a23.34 23.34 0 1 1-19-22.9 23.58 23.58 0 0 1 19 22.9c0 2.7 4.2 2.7 4.2 0a27.52 27.52 0 1 0-22.3 27.1c12.9-2.4 22.2-14.1 22.3-27 0-2.8-4.2-2.8-4.2-.1Z"/><path class="cls-2" d="m307.6 228.6 8.4 9.6-.6-1.5v27.5c0 2.7 4.2 2.7 4.2 0v-26.3a4.45 4.45 0 0 0-.3-2.3 10.65 10.65 0 0 0-2-2.3c-2.2-2.6-4.5-5.2-6.7-7.7-1.8-2-4.7 1-3 3Z"/><path class="cls-2" d="M319 241.1c3.7-3 7.5-5.9 11.2-8.9 2.1-1.7-.9-4.6-3-3-3.7 3-7.5 5.9-11.2 8.9-2.1 1.7.9 4.7 3 3Z"/><circle class="cls-6" cx="39.89" cy="202.97" r="30"/><path class="cls-2" d="M67.8 203a28.34 28.34 0 0 1-18.4 26.3 28.37 28.37 0 0 1-31.2-8.5 28 28 0 0 1 27.1-45.2A28.12 28.12 0 0 1 67.8 203c0 2.7 4.2 2.7 4.2 0a32.15 32.15 0 0 0-56.9-20.5 32.14 32.14 0 0 0 31.1 52C61.1 231.6 71.9 218 72 203c0-2.7-4.2-2.7-4.2 0Z"/><path class="cls-2" d="M28.5 210.9c3.3 3.8 6.6 7.6 9.9 11.3l-.6-1.5v32.5c0 2.7 4.2 2.7 4.2 0v-31.1a6 6 0 0 0-.2-2.3 13.74 13.74 0 0 0-2.4-2.9l-7.9-9.1c-1.8-1.9-4.8 1.1-3 3.1Z"/><path class="cls-2" d="m41.3 225.6 13.2-10.5c2.1-1.7-.9-4.6-3-3l-13.2 10.5c-2 1.7.9 4.7 3 3Z"/><path class="cls-4" d="M132 265.1H82.5l-4-51.7h49.6l3.9 51.7z"/><path class="cls-2" d="M132 264.3H82.4l.8.8c-1.1-15.1-2.3-30.2-3.4-45.3-.2-2.1-.3-4.3-.5-6.4l-.8.8h49.6l-.8-.8c1.1 15.1 2.3 30.2 3.4 45.3.2 2.1.3 4.3.5 6.4.1 1 1.7 1 1.6 0-1.1-15.1-2.3-30.2-3.4-45.3-.2-2.1-.3-4.3-.5-6.4a.79.79 0 0 0-.8-.8H78.5a.86.86 0 0 0-.8.8c1.1 15.1 2.3 30.2 3.4 45.3.2 2.1.3 4.3.5 6.4a.79.79 0 0 0 .8.8H132a.8.8 0 1 0 0-1.6Z"/><path class="cls-4" d="m128.1 214-4.8 55.1H73.7l4.8-55.1h49.6z"/><path class="cls-2" d="M127.3 214c-1.4 16-2.8 32.1-4.2 48.1-.2 2.3-.4 4.6-.6 7l.8-.8H73.7l.8.8c1.4-16 2.8-32.1 4.2-48.1.2-2.3.4-4.6.6-7l-.8.8h49.6a.8.8 0 0 0 0-1.6H78.5a.79.79 0 0 0-.8.8c-1.4 16-2.8 32.1-4.2 48.1-.2 2.3-.4 4.6-.6 7a.86.86 0 0 0 .8.8h49.6a.79.79 0 0 0 .8-.8c1.4-16 2.8-32.1 4.2-48.1.2-2.3.4-4.6.6-7 .1-1-1.5-1-1.6 0Z"/><path class="cls-3" d="M189.4 182.9h27.8v8.8h-27.8z"/><path class="cls-2" d="M217.2 190.7h-27.8l1.1 1.1V183l-1.1 1.1h27.8l-1.1-1.1v8.8a1 1 0 0 0 2.1 0V183a1.11 1.11 0 0 0-1.1-1.1h-27.8a1.11 1.11 0 0 0-1.1 1.1v8.8a1.11 1.11 0 0 0 1.1 1.1h27.8c1.5-.1 1.5-2.2.1-2.2Z"/><path class="cls-2" d="M202.6 171.1c-4.6 3.7-9.3 7.4-13.9 11a1.07 1.07 0 0 0 .7 1.8h27.8c.8 0 1.5-1.2.7-1.8-4.6-3.7-9.3-7.4-13.9-11-1-.8-2.5.6-1.5 1.5 4.6 3.7 9.3 7.4 13.9 11 .2-.6.5-1.2.7-1.8h-27.8c.2.6.5 1.2.7 1.8 4.6-3.7 9.3-7.4 13.9-11 1.2-.8-.3-2.3-1.3-1.5Z"/><g class="cls-7"><path class="cls-8" d="M141.2 179.2v.3a1.87 1.87 0 0 1-2 2.1v9.4h2.7v-2.6a.55.55 0 0 1 1.1 0v2.6h2.7v-3.9a.55.55 0 0 1 1.1 0v3.9h2.5v-9.4H146a.55.55 0 0 1 0-1.1h3.8c.7-.1.8-.7.9-1.2-.2-3.4-7.7-3-10.2-3.1h-3c1.5.5 3.2 1.4 3.7 3Z"/><path class="cls-2" d="M151.7 179.4a.47.47 0 0 0-.5-.6v.5a.6.6 0 0 1-.1.4c.2 0 .5 0 .6-.3Z"/><path class="cls-2" d="M135.7 175.8a38.73 38.73 0 0 1 5.9 0c1.5.1 3.1.2 4.6.4a6.59 6.59 0 0 1 3.8 1 2.57 2.57 0 0 1 1.1 1.7.5.5 0 0 1 .5.6v-.1c-.2-3.7-4.6-3.6-7.4-3.9a48.81 48.81 0 0 0-10.8.1 8.22 8.22 0 0 1 2.3.2Zm15.4 4c-.2.8-.3 1.2-1.1 1.2a.55.55 0 0 1-.3.5v.1l.5-.5v.4c.9-.2 1.2-.9 1.4-1.9 0 .2-.3.2-.5.2Z"/><path class="cls-2" d="M149.8 190.9v.5h-3a.55.55 0 0 1-1.1 0H143a.55.55 0 0 1-1.1 0h-2.7a.47.47 0 0 1-.5.5h11.1a.47.47 0 0 0 .5-.5v-10c-.2 0-.3.1-.5.1Z"/><path class="cls-2" d="M149.8 181.6a4.33 4.33 0 0 0 .5-.1v-.4a1.21 1.21 0 0 0-.5.5Zm.8-2.3c-.1.5-.2 1.1-.9 1.2h-.1a.66.66 0 0 1 .4.5c.8-.1.8-.5 1.1-1.2-.2 0-.4-.2-.5-.5Zm-1.4 2.3v9.4h.5v-9.5c-.1 0-.1.1-.2.1Zm0 9.9.5-.5h-.5Zm-2.5-.6v.5h2.5v-.5Zm3.1.6v-.5l-.5.5Zm.2-14.4a8.61 8.61 0 0 0-3.8-1c-1.5-.1-3.1-.3-4.6-.4a38.73 38.73 0 0 0-5.9 0l1.2.3c.2 0 .3.1.5.2h3c2.5.1 10-.3 10.2 3.1v-.1a.51.51 0 0 1 .5-.4 2.57 2.57 0 0 0-1.1-1.7Z"/><path class="cls-2" d="M150.7 179.2v.1c0 .3.2.4.4.5 0-.2.1-.3.1-.4v-.5c-.3-.1-.5 0-.5.3Zm-11.5 11.7v.5h2.7v-.5Zm3.7 0v.5h2.7v-.5Z"/><path class="cls-3" d="M132.5 176.7a9.59 9.59 0 0 0-4 1.4c-.2.2-.5.1-.7.3l-.6.6a.52.52 0 0 0-.2.4.83.83 0 0 0 .3.8c.5.3 1.9.1 1.9.9v9.9h7.3c-1.1-4.8-2.2-9.5-3.2-14.3a2.13 2.13 0 0 0-.8 0Zm4.3 10.8c.2.9.9 2.4.8 3.3h.6v-9.9a.47.47 0 0 1 .5-.5c.7 0 1.5.2 1.5-1.1-.7-1.9-3.6-2.6-5.9-2.8.5 2 .9 4 1.4 6 .4 1.8.7 3.4 1.1 5Zm-3.5-10.9c1.1 4.8 2.2 9.5 3.2 14.3h.5c-.5-2.3-2.7-11.9-3.2-14.3Z"/><path class="cls-3" d="M137.6 190.9c.1-1-.6-2.5-.8-3.4-.4-1.6-.7-3.3-1.1-4.9-.5-2-.9-4-1.4-6h-.5c.5 2.4 2.7 12 3.2 14.3h.6Z"/><path class="cls-2" d="M136.7 191.6v-.1h-8v-9.9h-.5v9.9a.47.47 0 0 0 .5.5h8.5a.46.46 0 0 1-.5-.4Zm-8.6-10.6v.5h.5Z"/><path class="cls-2" d="M127.8 181a1.27 1.27 0 0 1-1.2-1.7 4.62 4.62 0 0 1 1.7-1.7 10.42 10.42 0 0 1 4.9-1.5c0-.2.1-.5.4-.5a10.57 10.57 0 0 0-4 .8c-1.3.5-3.7 1.7-3.5 3.5.1 1.3 1.1 1.6 2.2 1.7v-.5a2.81 2.81 0 0 0-.5-.1Z"/><path class="cls-2" d="m128.1 181 .5.5v-.5Zm11-3.4a4.07 4.07 0 0 1 1.4 1.2.53.53 0 0 1 .7.5v-.2c-.5-1.5-2.3-2.4-3.8-3-.5 0-1.1.1-1.6.1a16.38 16.38 0 0 1 3.3 1.4Zm1.6 2.2a1.29 1.29 0 0 1-1.2 1.2h-.4v.5c1.2-.1 2.1-.6 2-2.1.1.3-.1.4-.4.4Z"/><path class="cls-2" d="M138.7 181.6h.5v-.5c-.2.1-.3.3-.5.5Zm0 0v9.4h.5v-9.4Zm0-.6v.5l.5-.5Zm2-1.7v.5c.2 0 .5-.1.5-.4v-.1a.53.53 0 0 0-.7-.5l.1.1a.76.76 0 0 1 .1.4Zm-6.5-3.4Zm-1 .2h.5a1.75 1.75 0 0 0 .5-.1c.5-.1 1.2-.2 1.3-.2h.2a16.35 16.35 0 0 0-2.2-.2.38.38 0 0 0-.3.5Zm6 15.4h-2.5v.1a.66.66 0 0 0 .5.4h1.5a.47.47 0 0 0 .5-.5Z"/><path class="cls-2" d="M135.8 176.3a8.6 8.6 0 0 1 1.6-.1c-.2-.1-.3-.1-.5-.2l-1.2-.3h-.2c-.1 0-.8.1-1.3.2v.1c.6.1 1.1.2 1.6.3Zm2.9 14.6v.5h.5v-.5Zm-4.5-14.8v-.1a.1.1 0 0 1-.1.1Zm-.1-.1a1.21 1.21 0 0 0-.5.1h.4a.1.1 0 0 0 .1-.1Zm-4.9 14.9v.5h7.5a4.33 4.33 0 0 0-.1-.5Zm-.6.6h.5l-.5-.5Zm0-.6.5.5v-.5Zm.6-9.9c0-.9-1.5-.3-1.8-1a.92.92 0 0 1 .1-1 8.12 8.12 0 0 1 1-.9 9.59 9.59 0 0 1 4-1.4 2.49 2.49 0 0 0 .8-.1c0-.1-.1-.3-.1-.4v-.1a10.42 10.42 0 0 0-4.9 1.5 4.62 4.62 0 0 0-1.7 1.7 1.27 1.27 0 0 0 1.2 1.7h.9v9.9h.5Zm11-1.7v.1a.51.51 0 0 0 .5.4v-.5c0-.1-.1-.2-.1-.4l-.1-.1a.55.55 0 0 0-.3.5Zm-2.6 11.6c-.1.5.1.2 0 0Z"/><path class="cls-2" d="M140.2 179.4c0-.4.1-.5.3-.6a4.07 4.07 0 0 0-1.4-1.2 12 12 0 0 0-3.3-1.3 7.72 7.72 0 0 0-1.5.2v.1c2.3.2 5.2.9 5.9 2.8Zm-1.5 1.6h.9a1.29 1.29 0 0 0 1.2-1.2.51.51 0 0 1-.5-.4c0 1.3-.8 1.1-1.5 1.1a.47.47 0 0 0-.5.5v9.9h.5V181Zm-2.2 9.9a4.33 4.33 0 0 0 .1.5h.5a1.75 1.75 0 0 0-.1-.5Zm-3.2-14.3h.5a2.8 2.8 0 0 1-.1-.6h-.5v.1a.75.75 0 0 0 .1.5Z"/><path class="cls-2" d="M134.2 176.1c0 .1.1.3.1.4.5-.1 1-.1 1.5-.2a7.77 7.77 0 0 0-1.6-.2Z"/><path class="cls-2" d="M134.1 176.1c-.1.2-.2.3-.3.5a.9.9 0 0 0 .5-.1c0-.1-.1-.3-.1-.4Z"/><path class="cls-2" d="M134.3 176.6v-.1a.9.9 0 0 0-.5.1c.1-.2.2-.3.3-.5h-.4a2.8 2.8 0 0 0 .1.6.9.9 0 0 1 .5-.1Zm3.3 14.3c.1.2-.1.5 0 0h-.6a1.75 1.75 0 0 1 .1.5h1v-.5Zm.7 0h-.1v.5l.5-.5Zm-.1.6h.5v-.5a1.21 1.21 0 0 0-.5.5Zm7.8-11a.55.55 0 0 0 0 1.1h3.3v-.5c0-.3.2-.4.4-.5h-.1c-1.3-.1-2.5-.1-3.6-.1Zm3.8 1a.55.55 0 0 0 .3-.5h-.3Z"/><path class="cls-2" d="M149.6 180.5c-.2.1-.4.2-.4.5v.5h.3c.1 0 .2 0 .2-.1v-.4h.3a.51.51 0 0 0-.4-.5Zm-7.7 7.9v2.6h1v-2.6a.5.5 0 1 0-1 0Zm0 3.1a.55.55 0 0 0 1.1 0h-1.1Z"/><path class="cls-2" d="M142.4 190.9h-.5v.5h.5Zm.4 0h-.4v.5h.5v-.5Zm2.9-3.9v3.9h1V187a.5.5 0 1 0-1 0Zm0 4.5a.55.55 0 0 0 1.1 0h-1.1Zm.5-.6h-.5v.5h.5Zm0 0v.5h.5v-.5Z"/></g><g class="cls-7"><path class="cls-8" d="M123.1 191.5a3.29 3.29 0 0 0 2.2-.5c.3-.7.6-1.4.9-2.2-.3-.4-.5-.8-.8-1.2a4.44 4.44 0 0 0-1.1-.8 22.15 22.15 0 0 0-4.3-2.3 24.61 24.61 0 0 0-5.1-1.5 7.89 7.89 0 0 1 2 3.1c.2.6-.8.9-1 .3a7.11 7.11 0 0 0-2.7-3.5l-.2-.2c-1.2-.1-2.4-.2-3.6-.2h-.3a8.69 8.69 0 0 1 2.5 3.5c.2.6-.8.9-1 .3a7.11 7.11 0 0 0-2.7-3.5c-.1-.1-.2-.2-.2-.3a29.84 29.84 0 0 0-4.2.4 7.8 7.8 0 0 1 2.6 3.6c.2.6-.8.9-1 .3a7.11 7.11 0 0 0-2.7-3.5l-.2-.2a20.25 20.25 0 0 0-3.3.9 16.62 16.62 0 0 0-4.8 2.4c-1.2.9-3.8 4.3-.9 5.1h9.7c6.7 0 13.5.3 20.2 0Z"/><path class="cls-2" d="M93.5 192H93c-.2 0-.3-.1-.5-.2a.45.45 0 0 0 .3.6h.1c.4.2.6-.1.6-.4Z"/><path class="cls-2" d="M126.7 187.3c-1-1.3-2.7-2.1-4.1-2.9a27.18 27.18 0 0 0-6.2-2.3 36.27 36.27 0 0 0-12.3-.5c-4.1.6-9.1 1.9-12 5-1.6 1.7-1.9 5 .7 5.8a.71.71 0 0 1-.3-.6c-1.4-.6-1.5-2.9-.8-4a10.88 10.88 0 0 1 3.7-3 26.57 26.57 0 0 1 6.7-2.3.48.48 0 0 1 .7-.2l.1.1a27.15 27.15 0 0 1 4.9-.5c.1-.2.4-.2.6-.1h.7a26.93 26.93 0 0 1 4 .3.48.48 0 0 1 .7-.2c.2.1.3.2.5.3a25 25 0 0 1 8.7 3 12 12 0 0 1 3.4 2.5 2.48 2.48 0 0 1-.2 3.4 4.11 4.11 0 0 1-2.6.9H93.5a.47.47 0 0 1-.6.5h25c2.1 0 4.8.4 6.9-.2a3.14 3.14 0 0 0 1.9-5Z"/><path class="cls-2" d="M109.4 182.4c1.2 0 2.4.1 3.6.2a.45.45 0 0 1 0-.5 26.93 26.93 0 0 0-4-.3h-.6c.2.2.5.3.7.5a.37.37 0 0 0 .3.1Zm10.7 2a22.15 22.15 0 0 1 4.3 2.3 10.47 10.47 0 0 1 1.1.8c.3.4.5.8.8 1.2-.3.7-.6 1.4-.9 2.2a3.29 3.29 0 0 1-2.2.5c-6.7.3-13.6 0-20.3 0h-9.6a.51.51 0 0 1 .4.5h30a4.11 4.11 0 0 0 2.6-.9 2.31 2.31 0 0 0 .2-3.4 12 12 0 0 0-3.4-2.5 25.67 25.67 0 0 0-8.7-3 5 5 0 0 1 .8.7c1.5.5 3.2 1 4.9 1.6ZM93.5 192a.51.51 0 0 0-.4-.5h-.2c-.3 0-.4.2-.5.4.2.1.3.1.5.2h.6Zm14.1-9.6a.75.75 0 0 1 .1-.5 40.68 40.68 0 0 0-4.9.5c.2.1.4.3.6.4 1.4-.2 2.8-.3 4.2-.4Z"/><path class="cls-2" d="M93 191.5c-2.9-.8-.2-4.2 1-5.1a18 18 0 0 1 4.8-2.4 20.25 20.25 0 0 1 3.3-.9.45.45 0 0 1 0-.5 26.57 26.57 0 0 0-6.7 2.3 9.83 9.83 0 0 0-3.7 3c-.8 1.1-.6 3.4.8 4 .1-.3.2-.4.5-.4Zm12-4.8a.52.52 0 0 0 1-.3 7.16 7.16 0 0 0-2.6-3.6c-.2 0-.5.1-.7.1a8 8 0 0 1 2.8 3.6l-2.8-3.6c-.2 0-.4.1-.6.1 0 .1.1.1.2.2a7.11 7.11 0 0 1 2.7 3.5Zm-2.2-4.4a.43.43 0 0 0-.7.2 1.17 1.17 0 0 0 .7-.2Z"/><path class="cls-2" d="M102.1 183.1c.2 0 .4-.1.6-.1l-.1-.2a.35.35 0 0 0 .2.1c.2 0 .5-.1.7-.1-.2-.1-.4-.3-.6-.4s-.5.1-.8.1c0 .2-.1.4 0 .6Z"/><path class="cls-2" d="m102.8 182.9 2.8 3.6a9.48 9.48 0 0 0-2.8-3.6Zm-.2-.1.1.2h.1Zm8 3.4a.52.52 0 0 0 1-.3 7.33 7.33 0 0 0-2.5-3.5h-.8a7.81 7.81 0 0 1 2.8 3.7l-2.9-3.7h-.6c0 .1.1.2.2.3a7.32 7.32 0 0 1 2.8 3.5Zm-2.2-4.4a.38.38 0 0 0-.6.1 1.27 1.27 0 0 0 .6-.1Z"/><path class="cls-2" d="M107.6 182.4h.6l-.1-.1a.31.31 0 0 1 .2.1h.8a1.79 1.79 0 0 0-.7-.5h-.7a4.33 4.33 0 0 0-.1.5Zm.7 0 2.8 3.7a7.81 7.81 0 0 0-2.8-3.7Z"/><path class="cls-2" d="m108.1 182.3.1.1h.1a.31.31 0 0 0-.2-.1Zm7.8 4a.52.52 0 0 0 1-.3 7.89 7.89 0 0 0-2-3.1c-.3-.1-.7-.1-1-.2a7.91 7.91 0 0 1 2.5 3.4l-2.7-3.4c-.2 0-.5-.1-.7-.1 0 .1.1.1.2.2a7.11 7.11 0 0 1 2.7 3.5Zm-2.2-4.4a.43.43 0 0 0-.7.2 5 5 0 0 1 1.2.2 2.18 2.18 0 0 0-.5-.4Z"/><path class="cls-2" d="M113 182.6c.2 0 .5.1.7.1l-.3-.4a2.22 2.22 0 0 1 .5.4c.3.1.7.1 1 .2a5.72 5.72 0 0 0-.8-.7c-.4-.1-.8-.1-1.2-.2a1.76 1.76 0 0 1 .1.6Zm1 .2h-.2l2.7 3.4a7.91 7.91 0 0 0-2.5-3.4Z"/><path class="cls-2" d="m113.5 182.4.3.4h.2a2.22 2.22 0 0 0-.5-.4Z"/></g><path class="cls-3" d="M88.6 191.4h73.5v5.4H88.6z"/><path class="cls-2" d="M162.7 197.4H87.9v-6.7h74.8v6.7Zm-73.5-1.2h72.3V192H89.2Z"/><path class="cls-3" d="M156.7 171.1c-4.1 3.7-8.1 7.4-12.2 11-1 .9.5 2.4 1.5 1.5 4.1-3.7 8.1-7.4 12.2-11 1-.9-.5-2.4-1.5-1.5Zm2.2 5.4c-2.3 2.5-4.6 4.9-6.9 7.4-.9 1 .6 2.5 1.5 1.5 2.3-2.5 4.6-4.9 6.9-7.4.9-1-.6-2.5-1.5-1.5Z"/><g style="opacity:.18"><path d="M68 145.1A14.08 14.08 0 0 0 82.1 131a14.1 14.1 0 1 0 28.2 0 14.1 14.1 0 1 0 28.2 0 14.1 14.1 0 1 0 28.2 0 14.1 14.1 0 1 0 28.2 0 14.1 14.1 0 0 0 28.2 0 14.08 14.08 0 0 0 14.1 14.1A13.83 13.83 0 0 0 251 131l-.2-.4H55s-.9 14.5 13 14.5Z" style="fill:#272525"/></g><path class="cls-3" d="M218.7 202.9a2.4 2.4 0 1 1-2.4-2.4 2.5 2.5 0 0 1 2.4 2.4Z"/><path class="cls-2" d="M216.3 205.5a2.6 2.6 0 0 1 0-5.2 2.58 2.58 0 0 1 2.6 2.6 2.65 2.65 0 0 1-2.6 2.6Zm0-4.7a2.1 2.1 0 1 0 2.1 2.1 2 2 0 0 0-2.1-2.1ZM82.5 263.5l.5-4.2-1.9 4.2h-.9l-.8-4.2-.5 4.2h-1.2l.7-5.9h1.8l.7 3.8 1.6-3.8h1.8l-.7 5.9Zm8.8-3a5 5 0 0 1-.4 1.3 3.59 3.59 0 0 1-.7 1 2.07 2.07 0 0 1-1 .6 5 5 0 0 1-1.2.2 3.59 3.59 0 0 1-1.1-.2 5.55 5.55 0 0 1-.8-.6 2.34 2.34 0 0 1-.5-1 5.28 5.28 0 0 1-.1-1.3 5 5 0 0 1 .4-1.3 3.59 3.59 0 0 1 .7-1 2.07 2.07 0 0 1 1-.6 5 5 0 0 1 1.2-.2 3.59 3.59 0 0 1 1.1.2 1.56 1.56 0 0 1 .8.6 3.13 3.13 0 0 1 .5 1 1.9 1.9 0 0 1 .1 1.3Zm-1.3 0v-.7a1.42 1.42 0 0 0-.2-.6c-.1-.2-.3-.3-.4-.4a1.85 1.85 0 0 0-1.2 0 1 1 0 0 0-.5.4 1.27 1.27 0 0 0-.4.6 1.85 1.85 0 0 0-.2.7v.7a1.42 1.42 0 0 0 .2.6c.1.2.3.3.4.4a1.85 1.85 0 0 0 1.2 0 1 1 0 0 0 .5-.4 2.09 2.09 0 0 0 .4-.6 6.37 6.37 0 0 0 .2-.7Zm5.4 3-.9-2.3h-.4l-.3 2.3h-1.2l.7-5.9h2a1.48 1.48 0 0 1 .7.1l.6.3a.92.92 0 0 1 .4.6 2 2 0 0 1 .1.8 1.78 1.78 0 0 1-.4 1 1.46 1.46 0 0 1-.9.6l1.1 2.5Zm.4-4.1v-.3a.22.22 0 0 0-.2-.2c-.1 0-.2-.1-.3-.1h-1l-.2 1.4h.9c.1 0 .2-.1.3-.1s.2-.1.2-.2a.91.91 0 0 0 .3-.5Zm5.7 4.1-1.7-3.9-.4 3.9h-1.2l.7-5.9h1.4l1.6 3.8.4-3.8h1.2l-.7 5.9Zm3.3 0 .7-5.9h1.3l-.7 5.9Zm6.4 0-1.7-3.9-.4 3.9h-1.2l.7-5.9h1.4l1.6 3.8.4-3.8h1.2l-.7 5.9Zm7 0a4.1 4.1 0 0 1-1.1.1 3.59 3.59 0 0 1-1.1-.2 2.41 2.41 0 0 1-.8-.6 3.13 3.13 0 0 1-.5-1 5.28 5.28 0 0 1-.1-1.3 5 5 0 0 1 .4-1.3 3.59 3.59 0 0 1 .7-1 2.07 2.07 0 0 1 1-.6 4.25 4.25 0 0 1 1.1-.2 3.59 3.59 0 0 1 1.1.2 1.56 1.56 0 0 1 .8.6l-.9 1c-.1-.2-.3-.3-.4-.4a1.45 1.45 0 0 0-.7-.2 1.27 1.27 0 0 0-.6.1 1 1 0 0 0-.5.4 2.09 2.09 0 0 0-.4.6 1.85 1.85 0 0 0-.2.7v.8a1.42 1.42 0 0 0 .2.6 1 1 0 0 0 .5.4 1.48 1.48 0 0 0 .7.1h.4c.1 0 .3-.1.4-.1l.1-1.1h-1l.1-1.2h2.2l-.4 3.1a3.09 3.09 0 0 1-1 .5Z"/><ellipse class="cls-11" cx="99.4" cy="244.51" rx="14.8" ry="7.7" transform="rotate(-2.49 99.636 245.001)"/><path class="cls-2" d="M98.5 252.4c-8.2 0-14.5-3.6-14-7.9s7.6-7.9 15.9-7.9 14.5 3.6 14 7.9-7.6 7.9-15.9 7.9Zm1.8-15.3c-8 0-14.9 3.3-15.4 7.5s5.6 7.5 13.7 7.5 14.9-3.3 15.4-7.5-5.7-7.5-13.7-7.5Z"/><path class="cls-11" d="M114.3 243.7c-.5 4.2-7.5 7.7-15.7 7.7s-14.4-3.4-13.9-7.7 7.5-7.7 15.7-7.7 14.4 3.5 13.9 7.7Z"/><path class="cls-2" d="M98.6 251.6c-8.2 0-14.5-3.6-14-7.9s7.6-7.9 15.9-7.9 14.5 3.6 14 7.9-7.7 7.9-15.9 7.9Zm1.8-15.3c-8 0-14.9 3.3-15.4 7.5s5.6 7.5 13.7 7.5 14.9-3.3 15.4-7.5-5.7-7.5-13.7-7.5Z"/><path class="cls-11" d="M107.2 241.8a.47.47 0 0 1-.5-.5.76.76 0 0 1 .6-.8c3.5-.9 7.4-3 8.5-5.9a2.21 2.21 0 0 0-.2-2.2c-1.5-1.9-4.6.7-4.6.7a.63.63 0 0 1-.9-.1.8.8 0 0 1 .2-1 10.41 10.41 0 0 1 2.2-1.3c1.7-.7 3.1-.5 4 .7a3.56 3.56 0 0 1 .3 3.5 9.78 9.78 0 0 1-3.2 4 17.42 17.42 0 0 1-6.3 2.9Z"/><path class="cls-2" d="M107.2 242a.68.68 0 0 1-.7-.7 1 1 0 0 1 .2-.7.68.68 0 0 1 .6-.4c3.4-.8 7.3-2.9 8.3-5.7a2.14 2.14 0 0 0-.1-1.9c-1.3-1.7-4.3.7-4.4.7a.73.73 0 0 1-.6.2.55.55 0 0 1-.5-.3 1.09 1.09 0 0 1 .3-1.3 7.55 7.55 0 0 1 2.3-1.3c1.8-.7 3.3-.5 4.2.7a3.63 3.63 0 0 1 .3 3.8 9.53 9.53 0 0 1-3.3 4.1 17.15 17.15 0 0 1-6.4 2.9c-.1-.1-.1-.1-.2-.1Zm7-10.6a1.93 1.93 0 0 1 1.6.8 2.59 2.59 0 0 1 .2 2.4c-1.1 3-5.1 5.2-8.7 6-.1 0-.2.1-.3.2a.37.37 0 0 0-.1.3c0 .2.2.4.4.3a18.6 18.6 0 0 0 6.2-2.8 8.69 8.69 0 0 0 3.1-3.9 3.16 3.16 0 0 0-.3-3.3c-.8-1.1-2.2-1.3-3.8-.6a9 9 0 0 0-2.2 1.3c-.2.2-.3.5-.1.6s.4.2.6.1c0 .1 1.8-1.4 3.4-1.4Z"/><path class="cls-11" d="M103.4 245.3c-.1.6-1.9 1.1-4.1 1.1s-3.9-.5-3.8-1.1 1.9-1.1 4.1-1.1 3.9.5 3.8 1.1Z"/><path class="cls-2" d="M99.4 246.6c-2 0-4.1-.4-4-1.3s2.3-1.3 4.3-1.3 4.1.4 4 1.3-2.3 1.3-4.3 1.3Zm.2-2.2c-2.4 0-3.8.6-3.8.8s1.2.8 3.6.8 3.8-.6 3.8-.8-1.2-.8-3.6-.8Z"/><path class="cls-11" d="M101.1 229.9h-11s-1.5 15.9 9.1 15.9 12.9-15.9 12.9-15.9Z"/><path class="cls-2" d="M99.2 246c-10.7 0-9.3-16-9.3-16.1v-.2h22.5v.2c-.1.1-2.5 16.1-13.2 16.1Zm-9-15.9c-.1 2-.6 15.4 9 15.4s12.3-13.5 12.6-15.4Z"/><path class="cls-11" d="M112.1 229.9c-.2 2-5.4 3.6-11.5 3.6s-10.8-1.6-10.6-3.6 5.4-3.6 11.5-3.6 10.8 1.6 10.6 3.6Z"/><path class="cls-2" d="M100.6 233.7c-6.3 0-11-1.7-10.8-3.9s5.4-3.9 11.7-3.9 11 1.7 10.8 3.9-5.4 3.9-11.7 3.9Zm.9-7.2c-6.5 0-11 1.8-11.2 3.4s3.9 3.4 10.4 3.4 11-1.8 11.2-3.4-3.9-3.4-10.4-3.4Z"/><path class="cls-2" d="M110.6 231c-.2 1.4-4.6 2.4-10 2.4s-9.5-1.1-9.4-2.4 4.6-2.4 10-2.4 9.6 1 9.4 2.4Z"/></svg>