<svg id="Layer_1" data-name="Layer 1" xmlns="http://www.w3.org/2000/svg" viewBox="0 0 350 350"><defs><style>.cls-1{fill:#cfd0d2}.cls-2{fill:#424243}.cls-3{fill:#f0f1f1}.cls-4{fill:#00b289}.cls-7{fill:#aecc62}.cls-8{fill:#bcd589}.cls-9{fill:#8c8cf9}.cls-10{fill:#e9b13d}.cls-12{opacity:.48}.cls-13{fill:#837fcb}</style></defs><path class="cls-1" d="M86.3 141.7H69.6a2.26 2.26 0 0 1-2.3-2.3v-3.5a2.26 2.26 0 0 1 2.3-2.3h16.8a2.26 2.26 0 0 1 2.3 2.3v3.5a2.49 2.49 0 0 1-2.4 2.3Z"/><path class="cls-2" d="M85.4 142.1H70.5a3.69 3.69 0 0 1-3.7-3.7v-1.6a3.69 3.69 0 0 1 3.7-3.7h14.8a3.69 3.69 0 0 1 3.7 3.7v1.6a3.61 3.61 0 0 1-3.6 3.7ZM70.5 134a2.8 2.8 0 0 0-2.8 2.8v1.6a2.8 2.8 0 0 0 2.8 2.8h14.8a2.8 2.8 0 0 0 2.8-2.8v-1.6a2.8 2.8 0 0 0-2.8-2.8Z"/><path class="cls-1" d="M97 130.3H80.3A2.26 2.26 0 0 1 78 128v-3.5a2.26 2.26 0 0 1 2.3-2.3H97a2.26 2.26 0 0 1 2.3 2.3v3.5a2.26 2.26 0 0 1-2.3 2.3Z"/><path class="cls-2" d="M96.1 130.7H81.2a3.69 3.69 0 0 1-3.7-3.7v-1.6a3.69 3.69 0 0 1 3.7-3.7H96a3.69 3.69 0 0 1 3.7 3.7v1.6a3.55 3.55 0 0 1-3.6 3.7Zm-14.9-8.1a2.8 2.8 0 0 0-2.8 2.8v1.6a2.8 2.8 0 0 0 2.8 2.8H96a2.8 2.8 0 0 0 2.8-2.8v-1.6a2.8 2.8 0 0 0-2.8-2.8Z"/><path class="cls-1" d="M283.1 216.2h-16.8a2.26 2.26 0 0 1-2.3-2.3v-3.5a2.26 2.26 0 0 1 2.3-2.3h16.8a2.26 2.26 0 0 1 2.3 2.3v3.5a2.33 2.33 0 0 1-2.3 2.3Z"/><path class="cls-2" d="M282.1 216.6h-14.8a3.69 3.69 0 0 1-3.7-3.7v-1.6a3.69 3.69 0 0 1 3.7-3.7h14.8a3.69 3.69 0 0 1 3.7 3.7v1.6a3.63 3.63 0 0 1-3.7 3.7Zm-14.8-8.1a2.8 2.8 0 0 0-2.8 2.8v1.6a2.8 2.8 0 0 0 2.8 2.8h14.8a2.8 2.8 0 0 0 2.8-2.8v-1.6a2.8 2.8 0 0 0-2.8-2.8Z"/><path class="cls-1" d="M293.8 204.8H277a2.26 2.26 0 0 1-2.3-2.3V199a2.26 2.26 0 0 1 2.3-2.3h16.8a2.26 2.26 0 0 1 2.3 2.3v3.5a2.26 2.26 0 0 1-2.3 2.3Z"/><path class="cls-2" d="M292.8 205.2H278a3.69 3.69 0 0 1-3.7-3.7v-1.6a3.69 3.69 0 0 1 3.7-3.7h14.8a3.69 3.69 0 0 1 3.7 3.7v1.6a3.63 3.63 0 0 1-3.7 3.7Zm-14.8-8.1a2.8 2.8 0 0 0-2.8 2.8v1.6a2.8 2.8 0 0 0 2.8 2.8h14.8a2.8 2.8 0 0 0 2.8-2.8v-1.6a2.8 2.8 0 0 0-2.8-2.8Z"/><path class="cls-1" d="M274.7 133.3h16.8a2.26 2.26 0 0 0 2.3-2.3v-3.5a2.26 2.26 0 0 0-2.3-2.3h-16.8a2.26 2.26 0 0 0-2.3 2.3v3.5a2.33 2.33 0 0 0 2.3 2.3Z"/><path class="cls-2" d="M272 130.1v-1.6a3.69 3.69 0 0 1 3.7-3.7h14.8a3.69 3.69 0 0 1 3.7 3.7v1.6a3.69 3.69 0 0 1-3.7 3.7h-14.8a3.69 3.69 0 0 1-3.7-3.7Zm3.7-4.5a2.8 2.8 0 0 0-2.8 2.8v1.6a2.8 2.8 0 0 0 2.8 2.8h14.8a2.8 2.8 0 0 0 2.8-2.8v-1.6a2.8 2.8 0 0 0-2.8-2.8Z"/><path class="cls-1" d="M264.1 122h16.8a2.26 2.26 0 0 0 2.3-2.3v-3.5a2.26 2.26 0 0 0-2.3-2.3h-16.8a2.26 2.26 0 0 0-2.3 2.3v3.5a2.26 2.26 0 0 0 2.3 2.3Z"/><path class="cls-2" d="M261.3 118.7v-1.6a3.69 3.69 0 0 1 3.7-3.7h14.8a3.69 3.69 0 0 1 3.7 3.7v1.6a3.69 3.69 0 0 1-3.7 3.7H265a3.69 3.69 0 0 1-3.7-3.7Zm3.7-4.4a2.8 2.8 0 0 0-2.8 2.8v1.6a2.8 2.8 0 0 0 2.8 2.8h14.8a2.8 2.8 0 0 0 2.8-2.8v-1.6a2.8 2.8 0 0 0-2.8-2.8Z"/><path class="cls-3" d="M53.2 106.7H300V258H53.2z"/><path class="cls-1" d="M86.3 141.7H69.6a2.26 2.26 0 0 1-2.3-2.3v-3.5a2.26 2.26 0 0 1 2.3-2.3h16.8a2.26 2.26 0 0 1 2.3 2.3v3.5a2.49 2.49 0 0 1-2.4 2.3Z"/><path class="cls-2" d="M85.4 142.1H70.5a3.69 3.69 0 0 1-3.7-3.7v-1.6a3.69 3.69 0 0 1 3.7-3.7h14.8a3.69 3.69 0 0 1 3.7 3.7v1.6a3.61 3.61 0 0 1-3.6 3.7ZM70.5 134a2.8 2.8 0 0 0-2.8 2.8v1.6a2.8 2.8 0 0 0 2.8 2.8h14.8a2.8 2.8 0 0 0 2.8-2.8v-1.6a2.8 2.8 0 0 0-2.8-2.8Z"/><path class="cls-1" d="M97 130.3H80.3A2.26 2.26 0 0 1 78 128v-3.5a2.26 2.26 0 0 1 2.3-2.3H97a2.26 2.26 0 0 1 2.3 2.3v3.5a2.26 2.26 0 0 1-2.3 2.3Z"/><path class="cls-2" d="M96.1 130.7H81.2a3.69 3.69 0 0 1-3.7-3.7v-1.6a3.69 3.69 0 0 1 3.7-3.7H96a3.69 3.69 0 0 1 3.7 3.7v1.6a3.55 3.55 0 0 1-3.6 3.7Zm-14.9-8.1a2.8 2.8 0 0 0-2.8 2.8v1.6a2.8 2.8 0 0 0 2.8 2.8H96a2.8 2.8 0 0 0 2.8-2.8v-1.6a2.8 2.8 0 0 0-2.8-2.8Z"/><path class="cls-1" d="M283.1 216.2h-16.8a2.26 2.26 0 0 1-2.3-2.3v-3.5a2.26 2.26 0 0 1 2.3-2.3h16.8a2.26 2.26 0 0 1 2.3 2.3v3.5a2.33 2.33 0 0 1-2.3 2.3Z"/><path class="cls-2" d="M282.1 216.6h-14.8a3.69 3.69 0 0 1-3.7-3.7v-1.6a3.69 3.69 0 0 1 3.7-3.7h14.8a3.69 3.69 0 0 1 3.7 3.7v1.6a3.63 3.63 0 0 1-3.7 3.7Zm-14.8-8.1a2.8 2.8 0 0 0-2.8 2.8v1.6a2.8 2.8 0 0 0 2.8 2.8h14.8a2.8 2.8 0 0 0 2.8-2.8v-1.6a2.8 2.8 0 0 0-2.8-2.8Z"/><path class="cls-1" d="M293.8 204.8H277a2.26 2.26 0 0 1-2.3-2.3V199a2.26 2.26 0 0 1 2.3-2.3h16.8a2.26 2.26 0 0 1 2.3 2.3v3.5a2.26 2.26 0 0 1-2.3 2.3Z"/><path class="cls-2" d="M292.8 205.2H278a3.69 3.69 0 0 1-3.7-3.7v-1.6a3.69 3.69 0 0 1 3.7-3.7h14.8a3.69 3.69 0 0 1 3.7 3.7v1.6a3.63 3.63 0 0 1-3.7 3.7Zm-14.8-8.1a2.8 2.8 0 0 0-2.8 2.8v1.6a2.8 2.8 0 0 0 2.8 2.8h14.8a2.8 2.8 0 0 0 2.8-2.8v-1.6a2.8 2.8 0 0 0-2.8-2.8Z"/><path class="cls-1" d="M78.5 253.9H61.7a2.26 2.26 0 0 1-2.3-2.3v-3.5a2.26 2.26 0 0 1 2.3-2.3h16.8a2.26 2.26 0 0 1 2.3 2.3v3.5a2.26 2.26 0 0 1-2.3 2.3Z"/><path class="cls-2" d="M77.5 254.3H62.7a3.69 3.69 0 0 1-3.7-3.7V249a3.69 3.69 0 0 1 3.7-3.7h14.8a3.69 3.69 0 0 1 3.7 3.7v1.6a3.63 3.63 0 0 1-3.7 3.7Zm-14.8-8.1a2.8 2.8 0 0 0-2.8 2.8v1.6a2.8 2.8 0 0 0 2.8 2.8h14.8a2.8 2.8 0 0 0 2.8-2.8V249a2.8 2.8 0 0 0-2.8-2.8Z"/><path class="cls-1" d="M89.2 242.5H72.4a2.26 2.26 0 0 1-2.3-2.3v-3.5a2.26 2.26 0 0 1 2.3-2.3h16.8a2.26 2.26 0 0 1 2.3 2.3v3.5a2.33 2.33 0 0 1-2.3 2.3Z"/><path class="cls-2" d="M88.2 243H73.4a3.69 3.69 0 0 1-3.7-3.7v-1.6a3.69 3.69 0 0 1 3.7-3.7h14.8a3.69 3.69 0 0 1 3.7 3.7v1.6a3.69 3.69 0 0 1-3.7 3.7Zm-14.8-8.2a2.8 2.8 0 0 0-2.8 2.8v1.6a2.8 2.8 0 0 0 2.8 2.8h14.8a2.8 2.8 0 0 0 2.8-2.8v-1.6a2.8 2.8 0 0 0-2.8-2.8Z"/><path class="cls-1" d="M274.7 133.3h16.8a2.26 2.26 0 0 0 2.3-2.3v-3.5a2.26 2.26 0 0 0-2.3-2.3h-16.8a2.26 2.26 0 0 0-2.3 2.3v3.5a2.33 2.33 0 0 0 2.3 2.3Z"/><path class="cls-2" d="M272 130.1v-1.6a3.69 3.69 0 0 1 3.7-3.7h14.8a3.69 3.69 0 0 1 3.7 3.7v1.6a3.69 3.69 0 0 1-3.7 3.7h-14.8a3.69 3.69 0 0 1-3.7-3.7Zm3.7-4.5a2.8 2.8 0 0 0-2.8 2.8v1.6a2.8 2.8 0 0 0 2.8 2.8h14.8a2.8 2.8 0 0 0 2.8-2.8v-1.6a2.8 2.8 0 0 0-2.8-2.8Z"/><path class="cls-1" d="M264.1 122h16.8a2.26 2.26 0 0 0 2.3-2.3v-3.5a2.26 2.26 0 0 0-2.3-2.3h-16.8a2.26 2.26 0 0 0-2.3 2.3v3.5a2.26 2.26 0 0 0 2.3 2.3Z"/><path class="cls-2" d="M261.3 118.7v-1.6a3.69 3.69 0 0 1 3.7-3.7h14.8a3.69 3.69 0 0 1 3.7 3.7v1.6a3.69 3.69 0 0 1-3.7 3.7H265a3.69 3.69 0 0 1-3.7-3.7Zm3.7-4.4a2.8 2.8 0 0 0-2.8 2.8v1.6a2.8 2.8 0 0 0 2.8 2.8h14.8a2.8 2.8 0 0 0 2.8-2.8v-1.6a2.8 2.8 0 0 0-2.8-2.8Z"/><path class="cls-1" d="M111 239.6h16.8a2.26 2.26 0 0 0 2.3-2.3v-3.5a2.26 2.26 0 0 0-2.3-2.3H111a2.26 2.26 0 0 0-2.3 2.3v3.5a2.33 2.33 0 0 0 2.3 2.3Z"/><path class="cls-2" d="M108.3 236.3v-1.6a3.69 3.69 0 0 1 3.7-3.7h14.8a3.69 3.69 0 0 1 3.7 3.7v1.6a3.69 3.69 0 0 1-3.7 3.7H112a3.57 3.57 0 0 1-3.7-3.7Zm3.7-4.4a2.8 2.8 0 0 0-2.8 2.8v1.6a2.8 2.8 0 0 0 2.8 2.8h14.8a2.8 2.8 0 0 0 2.8-2.8v-1.6a2.8 2.8 0 0 0-2.8-2.8Z"/><path class="cls-1" d="M100.3 228.2h16.8a2.26 2.26 0 0 0 2.3-2.3v-3.5a2.26 2.26 0 0 0-2.3-2.3h-16.8a2.26 2.26 0 0 0-2.3 2.3v3.5a2.33 2.33 0 0 0 2.3 2.3Z"/><path class="cls-2" d="M97.6 225v-1.6a3.69 3.69 0 0 1 3.7-3.7h14.8a3.69 3.69 0 0 1 3.7 3.7v1.6a3.69 3.69 0 0 1-3.7 3.7h-14.8a3.76 3.76 0 0 1-3.7-3.7Zm3.7-4.5a2.8 2.8 0 0 0-2.8 2.8v1.6a2.8 2.8 0 0 0 2.8 2.8h14.8a2.8 2.8 0 0 0 2.8-2.8v-1.6a2.8 2.8 0 0 0-2.8-2.8Z"/><path class="cls-2" d="M300 255H63.3c-3 0-6.6-.5-9.6 0h-.4l3 3V106.7l-3 3H290c3 0 6.6.5 9.6 0h.4l-3-3V258c0 3.9 6.1 3.9 6.1 0V106.7a3.08 3.08 0 0 0-3-3H83.7c-9.9 0-20-.4-29.9 0h-.4a3.08 3.08 0 0 0-3 3V258a3.08 3.08 0 0 0 3 3h216.4c9.9 0 20 .4 29.9 0h.4c3.8.1 3.8-6-.1-6Z"/><path class="cls-3" d="M34.9 258h284.2v16.5H34.9z"/><path class="cls-2" d="M319.1 255H69.9c-11.5 0-23.1-.5-34.5 0h-.5a3.08 3.08 0 0 0-3 3v16.5c0 3.9 6.1 3.9 6.1 0v-13.4h269.5c2.7 0 5.7.3 8.6.2v13.2c0 3.9 6.1 3.9 6.1 0V258a3.17 3.17 0 0 0-3.1-3Z"/><path class="cls-4" d="M221.1 157.8h56.7V258h-56.7z"/><path class="cls-2" d="M277.8 154.7h-56.7a3.08 3.08 0 0 0-3 3v100.2a3.08 3.08 0 0 0 3 3h56.7a2.86 2.86 0 0 0 2.1-.8l.1-.1.1-.1a2.86 2.86 0 0 0 .8-2.1V157.6a3.23 3.23 0 0 0-3.1-2.9ZM228.2 255h-4.1v-94.2h50.6V255Z"/><path style="fill:#9ed1e3" d="M67.9 158.5h137.7v69.7H67.9z"/><g style="opacity:.83"><path class="cls-7" d="M192.4 223.3c-.2-.3-7.5-13.7-11.9-13s5.2 14.4 11 18c0 0 5.1 2 .9-5Z"/><path class="cls-2" d="M192.8 229.3a6.19 6.19 0 0 1-1.6-.3c-5.2-3.3-13.3-14.1-12.5-17.8a1.91 1.91 0 0 1 1.7-1.6c4.3-.7 10.3 9 12.6 13.3l-.6.4.6-.4c1.7 3 2.1 4.8 1.3 5.8a2 2 0 0 1-1.5.6ZM180.9 211h-.3a.7.7 0 0 0-.5.4c-.6 2.9 6.9 13.2 11.7 16.2.4.2 1.2.3 1.4.1 0 0 .5-.7-1.4-4.1l-.1-.1c-3.5-6.3-8.2-12.5-10.8-12.5Z"/><path class="cls-7" d="M69.5 220.7c-.1-.6-3-22.7 2.5-25.6s6.1 21.6 2.7 30.8c0 0-3.9 6.8-5.2-5.2Z"/><path class="cls-2" d="M72.4 228.8h-.5c-1.8-.4-2.9-2.9-3.4-8v-.1c-.8-7-2.2-23.7 3.1-26.5a2.55 2.55 0 0 1 3.1.3c4.3 3.8 3.9 24 1 31.7 0 .1 0 .1-.1.2-.2.4-1.5 2.4-3.2 2.4Zm.5-32.9a.76.76 0 0 0-.4.1c-3.2 1.7-3.3 13.5-2 24.5v.2c.6 5.9 1.8 6.2 1.8 6.2.3 0 1-.6 1.4-1.3 2.9-8.1 2.6-26.7-.5-29.4 0-.3-.1-.3-.3-.3Z"/><path class="cls-7" d="M81.6 222.5c.2-.3 8.1-14.7 12.8-13.9s-5.6 15.4-11.8 19.3c0 0-5.5 2.2-1-5.4Z"/><path class="cls-2" d="M81.1 229a2.27 2.27 0 0 1-1.6-.6c-.9-1.1-.5-3 1.4-6.2l.7.4-.7-.4.7.4-.6-.6c2.5-4.5 9-14.9 13.6-14.2a2.13 2.13 0 0 1 1.8 1.7c.8 4-7.8 15.6-13.3 19a4.08 4.08 0 0 1-2 .5ZM94 209.3c-2.8 0-7.9 6.7-11.7 13.5l-.1.1c-2.1 3.6-1.6 4.4-1.5 4.4.2.2 1 .1 1.6-.1 5.1-3.2 13.1-14.3 12.5-17.3a.64.64 0 0 0-.5-.5.37.37 0 0 0-.3-.1Z"/><path class="cls-7" d="M76.4 222c0-.4 1.1-16.9 7.1-18.3s2.2 16.5-2.8 22.7c-.1 0-5.2 4.4-4.3-4.4Z"/><path class="cls-2" d="M78.2 228.4a2.28 2.28 0 0 1-1.1-.3q-2.1-1-1.5-6.3c.4-5.4 2-17.7 7.7-19.1a2.71 2.71 0 0 1 3.2 1.3c2.6 4.2-.9 17.6-5.2 22.9l-.1.1a5.17 5.17 0 0 1-3 1.4Zm5.9-23.9a.6.6 0 0 0-.4.1c-3.7.9-5.8 9.9-6.4 17.4v.1c-.4 3.8.4 4.4.6 4.5.5.3 1.6-.4 2.1-.8 4-5 7-17.6 5-20.8a1.05 1.05 0 0 0-.9-.5Z"/><path class="cls-8" d="M187.9 225.6v-.7a10 10 0 0 0-9.2-9.9 10.12 10.12 0 0 0-9.1-5.8 9.93 9.93 0 0 0-9.6 7.1h-.1a8.69 8.69 0 0 0-8.7 8.6v.5h36.7Z"/><path class="cls-2" d="M188.8 225.6a11.18 11.18 0 0 0-10.1-11.5c.3.2.5.3.8.5-4.4-8.9-17.4-7.8-20.4 1.6.3-.2.6-.5.9-.7a9.7 9.7 0 0 0-9.8 10.1.9.9 0 0 0 .9.9h36.7a1 1 0 0 0 0-1.9h-36.7l.9.9a7.86 7.86 0 0 1 7.9-8.2 1 1 0 0 0 .9-.7 9.17 9.17 0 0 1 15.5-3.4c.7.8 1.1 2.3 2.2 2.7.7.2 1.5.2 2.2.4a10 10 0 0 1 2.1 1 9.19 9.19 0 0 1 4.1 8.2 1 1 0 0 0 1.9.1Z"/><path class="cls-7" d="M202.3 221.6c.1-.5 2.8-21.2-2.3-23.9s-5.7 20.1-2.5 28.7c-.1 0 3.6 6.3 4.8-4.8Z"/><path class="cls-2" d="M199.6 229.2c-1.6 0-2.8-1.9-3-2.3l-.1-.1c-2.7-7.2-3.1-26.1 1-29.6a2.4 2.4 0 0 1 2.9-.3c5 2.6 3.7 18.2 2.9 24.7h-1l1 .1c-.5 4.8-1.5 7.1-3.2 7.4a4.33 4.33 0 0 0-.5.1Zm-1.3-3.2c.4.7 1.1 1.3 1.4 1.3 0 0 1.1-.3 1.7-5.8v-.2c1.2-10.2 1.1-21.2-1.9-22.8a.48.48 0 0 0-.7.1c-3 2.5-3.2 19.9-.5 27.4Z"/><path class="cls-7" d="M197.2 222.7c0-.4-1.1-15.8-6.6-17.1s-2 15.4 2.7 21.2c0 .1 4.8 4.2 3.9-4.1Z"/><path class="cls-2" d="M195.6 228.7a4.84 4.84 0 0 1-2.8-1.2c-4-5-7.4-17.6-4.9-21.4a2.57 2.57 0 0 1 3-1.2c5.3 1.3 6.8 12.8 7.2 17.7l-.8.2.8-.1c.3 3.3-.1 5.2-1.4 5.8a2.34 2.34 0 0 1-1.1.2Zm-1.7-2.4c.5.4 1.5 1 1.9.7.2-.1.9-.7.6-4.2v-.1c-.6-7-2.4-15.4-5.9-16.2a1 1 0 0 0-1.2.5c-1.9 2.9.9 14.6 4.6 19.3Z"/><path class="cls-9" d="M95.6 199.2c-.4-.4-1.1-.3-1.8.2 0-1.1-.4-1.9-1-2s-1.3.5-1.7 1.5c-.4-.8-1.1-1.2-1.6-1-.8.3-1.2 1.9-.9 3.5a4.05 4.05 0 0 0 2.5 3.1c1.5.5 3.2-.6 4.1-2.1.5-.9 1.2-2.5.4-3.2Z"/><path class="cls-2" d="M91.9 205.3a1.8 1.8 0 0 1-1-.2 5 5 0 0 1-3.1-3.6c-.4-2.1.2-4 1.4-4.4a1.78 1.78 0 0 1 1.8.4 2 2 0 0 1 2-.9 1.83 1.83 0 0 1 1.4 1.6 1.7 1.7 0 0 1 1.8.4c1.3 1.3.1 3.6-.2 4.1a5 5 0 0 1-4.1 2.6Zm-2.2-6.7c-.3.1-.7 1.1-.4 2.7a3.49 3.49 0 0 0 2 2.5c1.2.4 2.5-.6 3.3-1.8.5-.9.8-1.9.5-2.2q-.15-.15-.9.3l-1.2.8v-1.4c0-.9-.3-1.3-.4-1.3s-.5.2-.9 1.1l-.6 1.3-.7-1.3c-.3-.5-.6-.7-.7-.7Z"/><path class="cls-3" d="M159.9 219.2a2.4 2.4 0 1 1-3.4 0 2.3 2.3 0 0 1 3.4 0Z"/><ellipse class="cls-10" cx="158.1" cy="220.9" rx="1" ry=".9"/><path class="cls-3" d="M172.1 213.3a1.5 1.5 0 0 1 0 2.6 3 3 0 0 1-3.4 0 1.5 1.5 0 0 1 0-2.6 3 3 0 0 1 3.4 0Z"/><path class="cls-10" d="M171.4 214.7c0 .4-.5.7-1 .7s-1-.3-1-.7.5-.7 1-.7 1 .3 1 .7Z"/><path class="cls-9" d="M193.7 198.3a2.83 2.83 0 1 1-4 0 2.84 2.84 0 0 1 4 0Z"/><path d="M192.9 200.3a1.2 1.2 0 1 1-1.2-1.1 1.13 1.13 0 0 1 1.2 1.1Z" style="fill:#ffaf22"/><path class="cls-9" d="M88.4 190.6c-.6-.6-1.7-.4-2.8.4 0-1.6-.6-2.8-1.5-3s-1.9.7-2.6 2.3c-.7-1.2-1.6-1.9-2.4-1.6-1.3.4-1.8 2.8-1.3 5.3a6.24 6.24 0 0 0 3.8 4.6c2.3.7 4.8-.9 6.2-3.2.8-1.3 1.8-3.7.6-4.8Z"/><path class="cls-2" d="M82.8 199.5a6.75 6.75 0 0 1-1.4-.2 7.12 7.12 0 0 1-4.4-5.2c-.6-2.9.2-5.6 1.8-6.2a2.37 2.37 0 0 1 2.6.9 2.93 2.93 0 0 1 2.8-1.6 2.64 2.64 0 0 1 1.9 2.5 2.58 2.58 0 0 1 2.7.3c1.4 1.3.7 3.9-.4 5.6a6.62 6.62 0 0 1-5.6 3.9Zm-3.2-10.2h-.2c-.7.2-1.3 2.1-.8 4.5a5.27 5.27 0 0 0 3.3 4c2.1.7 4.2-1 5.4-2.9.8-1.4 1.3-3.1.6-3.8-.3-.3-1-.1-1.8.4l-1.2.8v-1.4c0-1.4-.5-2.2-.9-2.3s-1.2.5-1.8 1.8l-.6 1.3-.7-1.3c-.4-.6-.9-1.1-1.3-1.1Z"/><path class="cls-9" d="M182.4 195.6c-.9-.1-1.6.7-1.9 2-1-1.2-2.2-1.8-3-1.4s-1 1.8-.6 3.4c-1.3-.5-2.4-.5-2.9.3-.7 1.1.3 3.4 2.3 5a6.15 6.15 0 0 0 5.9 1.2c2.3-.9 3.2-3.8 2.8-6.4-.3-1.5-1-3.9-2.6-4.1Z"/><path class="cls-2" d="M180.3 207.1a7 7 0 0 1-4.5-1.7c-2.3-1.9-3.4-4.5-2.5-5.9a2.56 2.56 0 0 1 2.6-1c-.1-1.5.3-2.6 1.2-3s2-.2 3.1.8a2.24 2.24 0 0 1 2.3-1.4c1.9.2 2.9 2.6 3.2 4.6.5 3.3-.9 6.3-3.3 7.2a5.22 5.22 0 0 1-2.1.4Zm-5-7.1a.78.78 0 0 0-.7.3c-.4.6.3 2.4 2.2 4a5.22 5.22 0 0 0 5.1 1.1c2-.8 2.6-3.5 2.3-5.6-.2-1.6-1-3.3-1.9-3.3-.4 0-.9.6-1.1 1.5l-.4 1.4-.9-1.1c-.9-1-1.8-1.4-2.1-1.2s-.6 1.1-.2 2.5l.4 1.4-1.4-.6a3 3 0 0 0-1.3-.4Z"/></g><path class="cls-2" d="M209.1 157.8a3.76 3.76 0 0 0-3.7-3.7H67.6a3.76 3.76 0 0 0-3.7 3.7v69.7a3.76 3.76 0 0 0 3.7 3.7h137.8a3.38 3.38 0 0 0 2.5-1l.1-.1.1-.1a3.38 3.38 0 0 0 1-2.5Zm-50.3 66H71.3v-62.3h130.3v62.3Z"/><g class="cls-12"><path class="cls-2" d="M171.9 287.3H36.6a2.26 2.26 0 0 1-2.3-2.3 2.26 2.26 0 0 1 2.3-2.3h135.2a2.26 2.26 0 0 1 2.3 2.3 2.31 2.31 0 0 1-2.2 2.3Z"/></g><g class="cls-12"><path class="cls-2" d="M184.6 287.3h-3.3a2.26 2.26 0 0 1-2.3-2.3 2.26 2.26 0 0 1 2.3-2.3h3.3a2.26 2.26 0 0 1 2.3 2.3 2.33 2.33 0 0 1-2.3 2.3Z"/></g><g class="cls-12"><path class="cls-2" d="M298.1 299.4H166.5a2.43 2.43 0 0 1-2.4-2.4 2.43 2.43 0 0 1 2.4-2.4h131.6a2.43 2.43 0 0 1 2.4 2.4 2.31 2.31 0 0 1-2.4 2.4Z"/></g><g class="cls-12"><path class="cls-2" d="M313 299.4h-6.1a2.43 2.43 0 0 1-2.4-2.4 2.43 2.43 0 0 1 2.4-2.4h6.1a2.43 2.43 0 0 1 2.4 2.4 2.31 2.31 0 0 1-2.4 2.4Z"/></g><path class="cls-3" d="M169.5 160.2v10.1s.2 8.3 8.1 8.3 8.1-8.3 8.1-8.3v-10.1Z"/><path class="cls-2" d="M186.9 160.2h-2.4v1.9c0 2.7.1 5.5 0 8.2v.7a8.65 8.65 0 0 1-.6 2.3 6.18 6.18 0 0 1-4.7 4 6.72 6.72 0 0 1-7.3-3.2 10.71 10.71 0 0 1-.9-2.7 4.1 4.1 0 0 1-.1-1.1v-10.1h-2.4v10.1c.1 4 2.4 7.9 6.2 9.1a9.5 9.5 0 0 0 8.9-1.5 10.17 10.17 0 0 0 3.2-5.7 29 29 0 0 0 .3-6.6 47 47 0 0 1-.2-5.4Z"/><path class="cls-4" d="M185.7 160.2v10.1s.4 8.5 8.1 8.3 8.1-8.3 8.1-8.3l-.2-10.1Z"/><path class="cls-2" d="M200.5 160.2c0 2.2.1 4.3.1 6.5 0 1.3.1 2.7 0 4a.76.76 0 0 1-.1.4c-.1.3-.1.6-.2.9a18 18 0 0 1-.8 2.1 6.18 6.18 0 0 1-4.2 3.2c-4 .9-7.2-1.4-8.1-5.3a6.13 6.13 0 0 1-.3-1.6v-10h-2.4v7.6a19.72 19.72 0 0 0 .2 4.2c.7 3.7 3.1 7 6.8 7.7a9.14 9.14 0 0 0 10.7-5.7 12.06 12.06 0 0 0 .8-4.6c0-3-.1-6.1-.1-9.1h-2.4Z"/><path class="cls-3" d="M136.9 160.2v10.1s.2 8.3 8.1 8.3 8.1-8.3 8.1-8.3v-10.1Z"/><path class="cls-2" d="M154.2 160.2h-2.4v1.9c0 2.7.1 5.5 0 8.2v.7a8.65 8.65 0 0 1-.6 2.3 6.18 6.18 0 0 1-4.7 4 6.72 6.72 0 0 1-7.3-3.2 10.71 10.71 0 0 1-.9-2.7 4.1 4.1 0 0 1-.1-1.1v-10.1h-2.4v10.1c.1 4 2.4 7.9 6.2 9.1a9.5 9.5 0 0 0 8.9-1.5 10.17 10.17 0 0 0 3.2-5.7 29 29 0 0 0 .3-6.6 47 47 0 0 1-.2-5.4Z"/><path class="cls-4" d="M153 160.2v10.1s.4 8.5 8.1 8.3 8.1-8.3 8.1-8.3l-.2-10.1Z"/><path class="cls-2" d="M167.8 160.2c0 2.2.1 4.3.1 6.5 0 1.3.1 2.7 0 4a.76.76 0 0 1-.1.4c-.1.3-.1.6-.2.9a18 18 0 0 1-.8 2.1 6.18 6.18 0 0 1-4.2 3.2c-4 .9-7.2-1.4-8.1-5.3a6.13 6.13 0 0 1-.3-1.6v-10h-2.4v7.6a19.72 19.72 0 0 0 .2 4.2c.7 3.7 3.1 7 6.8 7.7a9.14 9.14 0 0 0 10.7-5.7 12.06 12.06 0 0 0 .8-4.6c0-3-.1-6.1-.1-9.1h-2.4Z"/><path class="cls-3" d="M104.2 160.2v10.1s.2 8.3 8.1 8.3 8.1-8.3 8.1-8.3v-10.1Z"/><path class="cls-2" d="M121.6 160.2h-2.4v1.9c0 2.7.1 5.5 0 8.2v.7a8.65 8.65 0 0 1-.6 2.3 6.18 6.18 0 0 1-4.7 4 6.72 6.72 0 0 1-7.3-3.2 10.71 10.71 0 0 1-.9-2.7 4.1 4.1 0 0 1-.1-1.1v-10.1H103v10.1c.1 4 2.4 7.9 6.2 9.1a9.5 9.5 0 0 0 8.9-1.5 10.17 10.17 0 0 0 3.2-5.7 29 29 0 0 0 .3-6.6Z"/><path class="cls-4" d="M120.4 160.2v10.1s.4 8.5 8.1 8.3 8.1-8.3 8.1-8.3l-.2-10.1Z"/><path class="cls-2" d="M135.2 160.2c0 2.2.1 4.3.1 6.5 0 1.3.1 2.7 0 4a.76.76 0 0 1-.1.4c-.1.3-.1.6-.2.9a18 18 0 0 1-.8 2.1 6.18 6.18 0 0 1-4.2 3.2c-4 .9-7.2-1.4-8.1-5.3a6.13 6.13 0 0 1-.3-1.6v-10h-2.4v7.6a19.72 19.72 0 0 0 .2 4.2c.7 3.7 3.1 7 6.8 7.7a9.14 9.14 0 0 0 10.7-5.7 12.06 12.06 0 0 0 .8-4.6c0-3-.1-6.1-.1-9.1h-2.4Z"/><path class="cls-3" d="M71.6 160.2v10.1s.2 8.3 8.1 8.3 8.1-8.3 8.1-8.3v-10.1Z"/><path class="cls-2" d="M88.9 160.2h-2.4v1.9c0 2.7.1 5.5 0 8.2v.7a8.65 8.65 0 0 1-.6 2.3 6.18 6.18 0 0 1-4.7 4 6.72 6.72 0 0 1-7.3-3.2 10.71 10.71 0 0 1-.9-2.7 4.1 4.1 0 0 1-.1-1.1v-10.1h-2.4v10.1c.1 4 2.4 7.9 6.2 9.1a9.5 9.5 0 0 0 8.9-1.5 10.17 10.17 0 0 0 3.2-5.7 29 29 0 0 0 .3-6.6 47 47 0 0 1-.2-5.4Z"/><path class="cls-4" d="M87.7 160.2v10.1s.4 8.5 8.1 8.3 8.1-8.3 8.1-8.3l-.2-10.1Z"/><path class="cls-2" d="M102.5 160.2c0 2.2.1 4.3.1 6.5 0 1.3.1 2.7 0 4a.76.76 0 0 1-.1.4c-.1.3-.1.6-.2.9a18 18 0 0 1-.8 2.1 6.18 6.18 0 0 1-4.2 3.2c-4 .9-7.2-1.4-8.1-5.3a6.13 6.13 0 0 1-.3-1.6v-10h-2.4v7.6a19.72 19.72 0 0 0 .2 4.2c.7 3.7 3.1 7 6.8 7.7a9.14 9.14 0 0 0 10.7-5.7 12.06 12.06 0 0 0 .8-4.6c0-3-.1-6.1-.1-9.1h-2.4Z"/><path class="cls-3" d="M229.4 182.4h40.2v12.8h-40.2z"/><path class="cls-2" d="M269.6 193.7h-40.2l1.5 1.5v-12.8l-1.5 1.5h40.2l-1.5-1.5v12.8a1.5 1.5 0 0 0 3 0v-12.8a1.54 1.54 0 0 0-1.5-1.5h-40.2a1.54 1.54 0 0 0-1.5 1.5v12.8a1.54 1.54 0 0 0 1.5 1.5h40.2a1.5 1.5 0 0 0 0-3Z"/><path class="cls-2" d="M248.4 165.3c-6.7 5.3-13.4 10.7-20.1 16-1.1.9-.1 2.6 1.1 2.6h40.2a1.56 1.56 0 0 0 1.1-2.6c-6.7-5.3-13.4-10.7-20.1-16-1.5-1.2-3.7.9-2.1 2.1 6.7 5.3 13.4 10.7 20.1 16 .4-.9.7-1.7 1.1-2.6h-40.2c.4.9.7 1.7 1.1 2.6 6.7-5.3 13.4-10.7 20.1-16 1.4-1.1-.8-3.3-2.3-2.1Z"/><path class="cls-3" d="M186.5 183.7c-7.2 6.5-14.3 13-21.5 19.6-1.8 1.6.9 4.2 2.6 2.6 7.2-6.5 14.3-13 21.5-19.6 1.8-1.6-.8-4.2-2.6-2.6Zm3.9 9.5c-4.1 4.3-8.2 8.7-12.3 13-1.6 1.7 1 4.4 2.6 2.6 4.1-4.3 8.2-8.7 12.3-13 1.7-1.7-.9-4.4-2.6-2.6Zm81.3 18.1a3.4 3.4 0 1 1-3.4-3.4 3.44 3.44 0 0 1 3.4 3.4Z"/><path class="cls-2" d="M268.3 215a3.7 3.7 0 1 1 3.7-3.7 3.69 3.69 0 0 1-3.7 3.7Zm0-6.8a3.1 3.1 0 1 0 3.1 3.1 3.12 3.12 0 0 0-3.1-3.1Z"/><path class="cls-8" d="M36.8 154.2s4.2-1.9 2.6-6.3c0 .1-3.8 2.2-2.6 6.3Z"/><path class="cls-2" d="M36.8 154.5h-.1c-.1 0-.1-.1-.2-.2-1.3-4.3 2.7-6.6 2.7-6.6h.2c.1 0 .1.1.2.2 1.7 4.5-2.7 6.6-2.7 6.6Zm2.4-6.1a5.18 5.18 0 0 0-2.2 5.4 4.54 4.54 0 0 0 2.2-5.4Z"/><path class="cls-8" d="M45.7 146.7s-1 4.2 3.1 5.4a5.14 5.14 0 0 0-3.1-5.4Z"/><path class="cls-2" d="M48.8 152.4c-4.3-1.4-3.4-5.7-3.4-5.8s.1-.1.1-.2h.2c3.8 1.5 3.3 5.7 3.3 5.7s-.1.1-.1.2 0 .1-.1.1Zm-2.9-5.3a4.22 4.22 0 0 0 2.7 4.7 4.87 4.87 0 0 0-2.7-4.7Z"/><path class="cls-8" d="M31.5 146.7s-1 4.2 3.1 5.4a5.14 5.14 0 0 0-3.1-5.4Z"/><path class="cls-2" d="M34.6 152.4c-4.3-1.4-3.4-5.7-3.4-5.8s.1-.1.1-.2h.2c3.8 1.5 3.3 5.7 3.3 5.7s-.1.1-.1.2 0 .1-.1.1Zm-2.9-5.3a4.22 4.22 0 0 0 2.7 4.7 4.7 4.7 0 0 0-2.7-4.7Z"/><path class="cls-10" d="M25.5 151.3a17.1 17.1 0 0 0 34.2 0Z"/><path class="cls-2" d="M42.5 169.5a18.53 18.53 0 0 1-18.6-18.1 1.5 1.5 0 0 1 .4-1.1 1.61 1.61 0 0 1 1.1-.5h34.1a1.61 1.61 0 0 1 1.1.5 1.5 1.5 0 0 1 .4 1.1 18.31 18.31 0 0 1-18.5 18.1Zm-15.4-16.7a15.51 15.51 0 0 0 30.8 0Z"/><path class="cls-2" d="M59.6 152.8H25.5a1.71 1.71 0 0 1-1.3-.7 1.41 1.41 0 0 1-.1-1.4l17.1-38.8a1.57 1.57 0 0 1 1.4-.9 1.69 1.69 0 0 1 1.4.9l17 38.8a1.39 1.39 0 0 1-.1 1.4 1.71 1.71 0 0 1-1.3.7Zm-31.8-3h29.5l-14.7-33.5Z"/><path class="cls-9" d="M35.4 160.4a1.5 1.5 0 1 1 .7-2 1.4 1.4 0 0 1-.7 2Z"/><path class="cls-2" d="M34.8 160.8a1.27 1.27 0 0 1-.6-.1 2 2 0 0 1-.9-.9 1.68 1.68 0 0 1 .8-2.2 1.48 1.48 0 0 1 1.3 0 2 2 0 0 1 .9.9 1.48 1.48 0 0 1 0 1.3 2 2 0 0 1-.9.9c-.1 0-.4.1-.6.1Zm0-3a.75.75 0 0 0-.5.1 1.28 1.28 0 0 0-.7 1.7 1.21 1.21 0 0 0 .7.7 1.7 1.7 0 0 0 1 0 1.21 1.21 0 0 0 .7-.7 1.7 1.7 0 0 0 0-1 1.21 1.21 0 0 0-.7-.7.9.9 0 0 0-.5-.1Zm19.5 28.6a.79.79 0 0 1-.8-.8 225.14 225.14 0 0 0 .4-26.5 35.29 35.29 0 0 0-.8-6.1c-.4-1.8-.8-2.8-2-2.9a3.93 3.93 0 0 0-2.3.5 2.16 2.16 0 0 0-.9 1.4.75.75 0 0 1-1.5-.1 3.46 3.46 0 0 1 1.5-2.5 4.68 4.68 0 0 1 3.1-.7c2.5.1 3 2.3 3.4 3.9a31.05 31.05 0 0 1 .8 6.4 207 207 0 0 1-.4 26.6.53.53 0 0 1-.5.8Z"/><path class="cls-13" d="M56 186.9c-.4 1.3-1.5 2.1-2.3 1.9s-1.2-1.6-.8-2.9 1.5-2.1 2.3-1.9c.9.4 1.2 1.6.8 2.9Z"/><path class="cls-2" d="M54 189.1a.6.6 0 0 1-.4-.1 1.55 1.55 0 0 1-1-1.2 3.46 3.46 0 0 1 .1-2 2.73 2.73 0 0 1 1.1-1.6 1.75 1.75 0 0 1 1.5-.4c1 .3 1.4 1.7.9 3.2a2.73 2.73 0 0 1-1.1 1.6 1.27 1.27 0 0 1-1.1.5Zm.9-4.8a1.14 1.14 0 0 0-.8.3 2.84 2.84 0 0 0-.9 1.4 3.34 3.34 0 0 0-.1 1.7 1.13 1.13 0 0 0 .7.9 1.25 1.25 0 0 0 1.1-.3 2.84 2.84 0 0 0 .9-1.4c.4-1.2.1-2.3-.6-2.6Z"/><path class="cls-13" d="M57 172.6a1.63 1.63 0 0 1-2-.7 1.53 1.53 0 0 1 .7-2 1.63 1.63 0 0 1 2 .7 1.4 1.4 0 0 1-.7 2Z"/><path class="cls-2" d="M56.4 172.9a1.75 1.75 0 0 1-1.5-1 1.48 1.48 0 0 1 0-1.3 2 2 0 0 1 .9-.9 1.48 1.48 0 0 1 1.3 0 2 2 0 0 1 .9.9 1.68 1.68 0 0 1-.8 2.2 2.49 2.49 0 0 1-.8.1Zm0-3a.75.75 0 0 0-.5.1 1.21 1.21 0 0 0-.7.7 1.7 1.7 0 0 0 0 1 1.28 1.28 0 0 0 1.7.7 1.28 1.28 0 0 0 .7-1.7 1.21 1.21 0 0 0-.7-.7c-.2 0-.3-.1-.5-.1Z"/><path class="cls-9" d="M53.9 161a1.5 1.5 0 1 1 .7-2 1.5 1.5 0 0 1-.7 2Z"/><path class="cls-2" d="M53.3 161.3a1.27 1.27 0 0 1-.6-.1 2 2 0 0 1-.9-.9 1.48 1.48 0 0 1 0-1.3 2 2 0 0 1 .9-.9 1.48 1.48 0 0 1 1.3 0 2 2 0 0 1 .9.9 1.68 1.68 0 0 1-.8 2.2c-.3 0-.6.1-.8.1Zm0-3a.75.75 0 0 0-.5.1 1.21 1.21 0 0 0-.7.7 1.7 1.7 0 0 0 0 1 1.21 1.21 0 0 0 .7.7 1.7 1.7 0 0 0 1 0 1.28 1.28 0 0 0 .7-1.7 1.21 1.21 0 0 0-.7-.7.9.9 0 0 0-.5-.1Z"/><path class="cls-8" d="M55.2 181.7s-5.8 1.1-5.1 6.9c-.1 0 5.3-1.5 5.1-6.9Z"/><path class="cls-2" d="M50 188.9c-.1 0-.1 0-.2-.1s-.1-.2-.2-.3c-.7-6.1 5.3-7.3 5.4-7.3a.35.35 0 0 1 .4.4c.3 5.7-5.2 7.3-5.4 7.3Zm4.8-6.8c-1.2.4-4.7 1.7-4.4 6a6.68 6.68 0 0 0 4.4-6Z"/><path class="cls-8" d="M54.3 154.5s-6.3 1.2-5.6 7.5c.1 0 5.9-1.6 5.6-7.5Z"/><path class="cls-2" d="M48.8 162.4c-.1 0-.2 0-.2-.1s-.2-.2-.2-.3c-.7-6.6 5.8-7.9 5.9-7.9a.35.35 0 0 1 .4.4c.2 6.1-5.8 7.9-5.9 7.9ZM54 155c-1.3.4-5.1 1.9-4.8 6.5 1.2-.5 4.7-2.3 4.8-6.5Z"/><path class="cls-8" d="M55.1 181.7s-2 5.5 3.4 7.9c0 0 1.4-5.4-3.4-7.9Z"/><path class="cls-2" d="M58.5 189.9h-.1c-5.6-2.5-3.6-8.3-3.6-8.3a.22.22 0 0 1 .2-.2h.3c5 2.6 3.6 8.2 3.6 8.3a.22.22 0 0 1-.2.2Zm-3.2-7.7a5.66 5.66 0 0 0 2.9 6.8 6.24 6.24 0 0 0-2.9-6.8Z"/><path class="cls-8" d="M55.6 167.2s-1.1 5.6 4.3 7.1a6.57 6.57 0 0 0-4.3-7.1Z"/><path class="cls-2" d="M60 174.7c-5.8-1.6-4.7-7.5-4.7-7.5a.22.22 0 0 1 .2-.2.19.19 0 0 1 .3 0c5.2 1.9 4.6 7.4 4.6 7.5a.22.22 0 0 1-.2.2Zm-4.1-7a5.62 5.62 0 0 0 3.7 6.2 6.23 6.23 0 0 0-3.7-6.2Z"/><path class="cls-8" d="M54.9 160.8s.9 5.6 6.6 5.2c0 0-1.3-5.2-6.6-5.2Z"/><path class="cls-2" d="M60.8 166.4c-5.3 0-6.2-5.4-6.2-5.5a.35.35 0 0 1 .4-.4c5.4 0 6.8 5.4 6.8 5.4a.35.35 0 0 1-.4.4c-.1.1-.4.1-.6.1Zm-5.4-5.2a5.56 5.56 0 0 0 5.5 4.5h.2c-.5-1.2-1.9-4.3-5.7-4.5Z"/><path class="cls-8" d="M48.9 180.5s6-.6 5.8-6.6c0 0-5.5 1.1-5.8 6.6Z"/><path class="cls-2" d="M48.9 180.8a.35.35 0 0 1-.4-.4c.2-5.8 6-6.9 6.1-6.9a.35.35 0 0 1 .4.4c.3 6.2-6 6.9-6.1 6.9Zm5.4-6.4c-1.2.4-4.6 1.7-5 5.7a5.88 5.88 0 0 0 5-5.7Zm-21.1.4a.47.47 0 0 1-.5-.5 183.14 183.14 0 0 1-.3-18.6 24.34 24.34 0 0 1 .6-4.4c.3-1.2.7-2.7 2.4-2.8a3.72 3.72 0 0 1 2.2.5 2.65 2.65 0 0 1 1.1 1.8.55.55 0 1 1-1.1.1 1.33 1.33 0 0 0-.6-1 3.51 3.51 0 0 0-1.6-.3c-.9 0-1.1.7-1.4 1.9a23.33 23.33 0 0 0-.6 4.3 137.76 137.76 0 0 0 .3 18.5.54.54 0 0 1-.5.5Z"/><path class="cls-9" d="M32 175.2c.3.9 1 1.5 1.6 1.3s.8-1.1.5-2-1-1.5-1.6-1.3-.8 1.1-.5 2Z"/><path class="cls-2" d="M33.4 176.7a1.79 1.79 0 0 1-1.5-1.4c-.3-1 0-2 .7-2.2s1.5.4 1.8 1.4 0 2-.7 2.2Zm-1.3-1.5c.3.8.9 1.4 1.4 1.2s.7-1 .4-1.8-.9-1.4-1.4-1.2-.6.9-.4 1.8Z"/><path class="cls-9" d="M31.3 165.2a1.05 1.05 0 1 0-.5-1.4 1 1 0 0 0 .5 1.4Z"/><path class="cls-2" d="M31.7 165.4a.9.9 0 0 1-.5-.1 1.17 1.17 0 0 1-.6-.6 1.39 1.39 0 0 1 0-.9 1.14 1.14 0 0 1 2.1 0 1.39 1.39 0 0 1 0 .9 1.17 1.17 0 0 1-.6.6.6.6 0 0 1-.4.1Zm0-2.1a.89.89 0 0 0-.8.5.85.85 0 0 0 0 .7 1.21 1.21 0 0 0 .5.5.92.92 0 1 0 .7-1.7c-.2.1-.3 0-.4 0Z"/><path class="cls-9" d="M33.4 157.1a1.05 1.05 0 1 0-.5-1.4 1.15 1.15 0 0 0 .5 1.4Z"/><path class="cls-2" d="M33.9 157.3a.9.9 0 0 1-.5-.1 1.14 1.14 0 0 1 0-2.1 1.39 1.39 0 0 1 .9 0 1.14 1.14 0 0 1 0 2.1.76.76 0 0 1-.4.1Zm0-2.1a.37.37 0 0 0-.3.1 1.21 1.21 0 0 0-.5.5.92.92 0 1 0 1.2-.5.76.76 0 0 0-.4-.1Z"/><path class="cls-8" d="M32.6 171.5a4.37 4.37 0 0 1 3.6 4.8 4.75 4.75 0 0 1-3.6-4.8Z"/><path class="cls-2" d="M36.1 176.6a5.09 5.09 0 0 1-3.8-5.1c0-.1 0-.1.1-.2s.1-.1.2-.1 4.2.8 3.8 5.1c0 .1 0 .1-.1.2s-.1.1-.2.1Zm-3.3-4.8a4.9 4.9 0 0 0 3.1 4.2 4 4 0 0 0-3.1-4.2Z"/><path class="cls-8" d="M33.1 152.5s4.4.8 3.9 5.2a5.15 5.15 0 0 1-3.9-5.2Z"/><path class="cls-2" d="M37 158.1c-.1 0-4.3-1.2-4.2-5.5 0-.1 0-.2.1-.2s.1-.1.2-.1 4.6.9 4.1 5.5a.35.35 0 0 1-.1.2.1.1 0 0 1-.1.1Zm-3.6-5.2a4.91 4.91 0 0 0 3.4 4.5 4.47 4.47 0 0 0-3.4-4.5Z"/><path class="cls-8" d="M32.6 171.5s1.4 3.9-2.4 5.5a4.88 4.88 0 0 1 2.4-5.5Z"/><path class="cls-2" d="M30.2 177.3h-.1c-.1 0-.1-.1-.1-.2s-1-3.9 2.5-5.8h.2a.1.1 0 0 1 .1.1s1.4 4.1-2.5 5.8a.1.1 0 0 1-.1.1Zm2.2-5.4a4.51 4.51 0 0 0-2 4.8 4.07 4.07 0 0 0 2-4.8Z"/><path class="cls-8" d="M32.2 161.4s.8 3.9-3 5c0 0-.4-3.7 3-5Z"/><path class="cls-2" d="M29.2 166.7h-.1c-.1 0-.1-.1-.1-.2s-.4-3.9 3.2-5.2h.2c.1 0 .1.1.1.2a4.53 4.53 0 0 1-3.3 5.2Zm2.8-4.9a4.52 4.52 0 0 0-2.6 4.3 3.77 3.77 0 0 0 2.6-4.3Z"/><path class="cls-8" d="M32.7 157a4.25 4.25 0 0 1-4.6 3.6 4.84 4.84 0 0 1 4.6-3.6Z"/><path class="cls-2" d="M28.6 160.9h-.5c-.1 0-.1 0-.2-.1s-.1-.1 0-.2 1-3.8 4.8-3.8c.1 0 .2 0 .2.1s.1.1.1.2-.7 3.8-4.4 3.8Zm-.1-.5h.1a3.82 3.82 0 0 0 3.8-3.1 4.4 4.4 0 0 0-3.9 3.1Z"/><path class="cls-8" d="M36.9 170.7s-4.2-.4-4-4.6a5 5 0 0 1 4 4.6Z"/><path class="cls-2" d="M36.9 170.9c-.1 0-4.4-.5-4.3-4.9 0-.1 0-.1.1-.2s.1-.1.2-.1 4.1.8 4.2 4.8c0 .1 0 .1-.1.2s0 .2-.1.2Zm-3.8-4.5a4.16 4.16 0 0 0 3.5 4 4.72 4.72 0 0 0-3.5-4Z"/><path class="cls-8" d="M52.5 150.7s4.6-.5 4.4-5.1c.1.1-4.2.9-4.4 5.1Z"/><path class="cls-2" d="M52.5 151c-.1 0-.1 0-.2-.1s-.1-.1-.1-.2c.2-4.4 4.6-5.3 4.7-5.4s.2 0 .2.1.1.1.1.2c.2 4.9-4.6 5.4-4.7 5.4Zm4.2-5a5.23 5.23 0 0 0-3.9 4.4 4.58 4.58 0 0 0 3.9-4.4Z"/><path class="cls-8" d="M41.9 164s4.2.2 4.6-4a5 5 0 0 0-4.6 4Z"/><path class="cls-2" d="M41.9 164.2c-.1 0-.2 0-.2-.1s-.1-.1-.1-.2c.7-3.9 4.8-4.2 4.9-4.2a.31.31 0 0 1 .2.1c.1.1.1.1.1.2a4.72 4.72 0 0 1-4.9 4.2Zm4.3-3.9a4.58 4.58 0 0 0-4 3.4 3.94 3.94 0 0 0 4-3.4Z"/><path class="cls-8" d="M28.3 160.2s4.2.2 4.6-4a5 5 0 0 0-4.6 4Z"/><path class="cls-2" d="M28.3 160.5c-.1 0-.2 0-.2-.1s-.1-.1-.1-.2c.7-3.9 4.8-4.2 4.9-4.2s.1 0 .2.1.1.1.1.2c-.5 4-4.4 4.2-4.9 4.2Zm4.3-4a4.58 4.58 0 0 0-4 3.4 3.94 3.94 0 0 0 4-3.4Zm14 9.9a.43.43 0 0 1-.4-.4c-.3-5.5.7-9.3 3-11.3a5.42 5.42 0 0 1 4.3-1.4c.2 0 .3.2.3.4s-.2.3-.4.3a4.85 4.85 0 0 0-3.7 1.2c-2 1.8-3 5.5-2.7 10.7a.46.46 0 0 1-.4.5Z"/><path class="cls-9" d="M46.9 169c-.3 1-1.1 1.6-1.7 1.4s-.9-1.1-.6-2.1 1.1-1.6 1.7-1.4.9 1.2.6 2.1Z"/><path class="cls-2" d="M45.4 170.6h-.3a.9.9 0 0 1-.6-.6 2.46 2.46 0 0 1-.1-1.7 2.55 2.55 0 0 1 .8-1.2 1.25 1.25 0 0 1 1.1-.3c.7.2 1 1.3.7 2.3-.3.9-.9 1.5-1.6 1.5Zm.6-3.5a1.42 1.42 0 0 0-.6.2 2.55 2.55 0 0 0-.7 1 2 2 0 0 0 0 1.5c.1.2.3.3.4.4.5.2 1.2-.4 1.5-1.2.3-.8.1-1.7-.5-1.9Z"/><path class="cls-8" d="M46 166.3a4.66 4.66 0 0 0 2.5 5.8c0-.1 1-4-2.5-5.8Z"/><path class="cls-2" d="M48.5 172.3h-.1c-4.1-1.8-2.6-6-2.6-6.1s.1-.1.2-.2h.2c3.6 1.9 2.6 6 2.6 6s-.1.1-.1.2-.1.1-.2.1Zm-2.3-5.7a4.27 4.27 0 0 0 2.1 5 4.59 4.59 0 0 0-2.1-5Z"/><path class="cls-8" d="M170.4 228.6c0 7.9-7.4 15.5-14.1 15.5s-13.1-7.7-13.1-15.5a12.86 12.86 0 0 1 13.1-13c6.7 0 14.1 5.1 14.1 13Z"/><path class="cls-2" d="M156.3 245.5c-7.4 0-14.5-8.2-14.5-16.9a14.34 14.34 0 0 1 14.5-14.4c7.5 0 15.5 5.8 15.5 14.4 0 8.4-7.8 16.9-15.5 16.9Zm0-28.5a11.55 11.55 0 0 0-11.7 11.6c0 7.1 5.8 14.2 11.7 14.2 6.2 0 12.7-7.3 12.7-14.2s-6.6-11.6-12.7-11.6Z"/><circle class="cls-8" cx="128.8" cy="228.62" r="13"/><path class="cls-2" d="M128.8 243.1a14.5 14.5 0 1 1 14.5-14.5 14.51 14.51 0 0 1-14.5 14.5Zm0-26a11.5 11.5 0 1 0 11.5 11.5 11.38 11.38 0 0 0-11.5-11.5Z"/><path class="cls-7" d="M193.7 215.3a13.77 13.77 0 0 0-13.1 10.2 14.82 14.82 0 0 0-9.4-3.4 15.36 15.36 0 0 0-14.3 10.4 15 15 0 0 0-28.2-1 15.34 15.34 0 0 0-14.4-10.7c-8.4 0-15.3 7.2-15.3 16s6.8 16 15.3 16a15.29 15.29 0 0 0 13.9-9.4 15 15 0 0 0 28.7.3 15.06 15.06 0 0 0 29.2-2.3 12.89 12.89 0 0 0 7.5 2.4c7.5 0 13.6-6.4 13.6-14.3a13.8 13.8 0 0 0-13.5-14.2Z"/><path class="cls-2" d="M171.3 255.7a16.73 16.73 0 0 1-14.3-8.4 16.73 16.73 0 0 1-14.3 8.4 16.55 16.55 0 0 1-14.5-8.9 16.4 16.4 0 0 1-13.7 7.5c-9.2 0-16.7-7.8-16.7-17.5s7.5-17.5 16.7-17.5a16.55 16.55 0 0 1 14.5 8.9 16.4 16.4 0 0 1 13.7-7.5 16.73 16.73 0 0 1 14.3 8.4 16.73 16.73 0 0 1 14.3-8.4 16.27 16.27 0 0 1 8.6 2.5 15.21 15.21 0 0 1 13.8-9.4c8.3 0 15.1 7.1 15.1 15.8s-6.8 15.8-15.1 15.8a14 14 0 0 1-6.6-1.6 16.78 16.78 0 0 1-15.8 11.9ZM157 242.3a1.5 1.5 0 0 1 1.4 1 13.62 13.62 0 0 0 26.4-2.1 1.44 1.44 0 0 1 .9-1.1 1.4 1.4 0 0 1 1.4.2 11.49 11.49 0 0 0 6.6 2.1c6.7 0 12.1-5.7 12.1-12.8s-5.4-12.8-12.1-12.8a12.32 12.32 0 0 0-11.6 9.2 1.28 1.28 0 0 1-1 1 1.44 1.44 0 0 1-1.4-.3 13.21 13.21 0 0 0-8.4-3.1 13.92 13.92 0 0 0-12.9 9.4 1.48 1.48 0 0 1-2.8 0 13.92 13.92 0 0 0-12.9-9.4 13.63 13.63 0 0 0-12.5 8.5 1.42 1.42 0 0 1-1.4.9 1.38 1.38 0 0 1-1.3-1 13.87 13.87 0 0 0-13-9.7c-7.6 0-13.8 6.5-13.8 14.6s6.2 14.6 13.8 14.6A13.63 13.63 0 0 0 127 243a1.42 1.42 0 0 1 1.4-.9 1.38 1.38 0 0 1 1.3 1 13.56 13.56 0 0 0 25.9.3 1.47 1.47 0 0 1 1.4-1.1Z"/><path class="cls-3" d="M94.3 236.2h117.9v20.2H94.3z"/><path class="cls-2" d="M212.2 257.9H94.3a1.54 1.54 0 0 1-1.5-1.5v-20.2a1.54 1.54 0 0 1 1.5-1.5h117.9a1.54 1.54 0 0 1 1.5 1.5v20.2a1.54 1.54 0 0 1-1.5 1.5Zm-116.4-3h114.9v-17.2H95.8Z"/><path class="cls-8" d="M149.5 231.6c-.6 1.5-2 2.3-3 1.9s-1.3-2-.6-3.5 2-2.3 3-1.9 1.2 2 .6 3.5Zm23.9-2.7c0 1.2-.7 2.1-1.5 2s-1.4-1-1.3-2.2.7-2.1 1.5-2 1.3 1 1.3 2.2Zm30.3.6c-.6 1.5-2 2.3-3 1.9s-1.3-2-.6-3.5 2-2.3 3-1.9 1.2 2.1.6 3.5Zm-81.9-.9c0 1.6-.9 2.9-2 2.9s-2-1.3-2-2.9.9-2.9 2-2.9 2 1.3 2 2.9Z"/><path class="cls-7" d="M153.5 220.6a1.71 1.71 0 0 1-.8 2.2c-.7.2-1.5-.5-1.8-1.5a1.71 1.71 0 0 1 .8-2.2c.8-.2 1.5.4 1.8 1.5Zm-20.4.7a1.75 1.75 0 0 1-1.9 1.4c-.7-.2-1-1.2-.6-2.3a1.75 1.75 0 0 1 1.9-1.4 1.73 1.73 0 0 1 .6 2.3Z"/><path class="cls-8" d="M110.4 230c0 1.4-.8 2.5-1.9 2.5a2.18 2.18 0 0 1-2-2.4c0-1.4.8-2.5 1.9-2.5a2.32 2.32 0 0 1 2 2.4Z"/><path class="cls-4" d="M35.4 94.3H319v17.2H35.4z"/><path class="cls-2" d="M319 113H35.4a1.54 1.54 0 0 1-1.5-1.5V94.3a1.54 1.54 0 0 1 1.5-1.5H319a1.54 1.54 0 0 1 1.5 1.5v17.2a1.54 1.54 0 0 1-1.5 1.5Zm-282.1-3h280.6V95.8H36.9Z"/><path class="cls-8" d="M127.7 65.4c0 7.9-7.4 15.5-14.1 15.5s-13.1-7.7-13.1-15.5a12.86 12.86 0 0 1 13.1-13c6.7-.1 14.1 5.1 14.1 13Z"/><path class="cls-2" d="M113.5 82.3c-7.4 0-14.5-8.2-14.5-16.9A14.34 14.34 0 0 1 113.5 51c7.5 0 15.5 5.8 15.5 14.4.1 8.4-7.8 16.9-15.5 16.9Zm0-28.6a11.55 11.55 0 0 0-11.7 11.6c0 7.1 5.8 14.2 11.7 14.2 6.2 0 12.7-7.3 12.7-14.2s-6.5-11.6-12.7-11.6Z"/><circle class="cls-8" cx="86.12" cy="65.4" r="13"/><path class="cls-2" d="M86.1 79.9a13.86 13.86 0 0 1-4-.6 14.51 14.51 0 1 1 18-9.9 14.73 14.73 0 0 1-14 10.5Zm0-26a12 12 0 1 0 3.1.6 6.86 6.86 0 0 0-3.1-.6Z"/><path class="cls-7" d="M151 52.1a13.77 13.77 0 0 0-13.1 10.2 14.82 14.82 0 0 0-9.4-3.4 15.36 15.36 0 0 0-14.3 10.4 15 15 0 0 0-28.2-1 15.34 15.34 0 0 0-14.4-10.7c-8.4 0-15.3 7.2-15.3 16s6.8 16 15.3 16a15.29 15.29 0 0 0 13.9-9.4C87.7 86.5 93.3 91 100 91a15.36 15.36 0 0 0 14.3-10.4 15.06 15.06 0 0 0 29.2-2.3 12.89 12.89 0 0 0 7.5 2.4c7.5 0 13.6-6.4 13.6-14.3s-6.1-14.3-13.6-14.3Z"/><path class="cls-2" d="M128.5 92.4a16.73 16.73 0 0 1-14.3-8.4 16.73 16.73 0 0 1-14.3 8.4 16.55 16.55 0 0 1-14.5-8.9A16.4 16.4 0 0 1 71.7 91C62.5 91 55 83.2 55 73.5S62.5 56 71.7 56a16.55 16.55 0 0 1 14.5 8.9 16.4 16.4 0 0 1 13.7-7.5 16.73 16.73 0 0 1 14.3 8.4 16.73 16.73 0 0 1 14.3-8.4 16.27 16.27 0 0 1 8.6 2.5 15.21 15.21 0 0 1 13.8-9.4c8.3 0 15.1 7.1 15.1 15.8s-6.8 15.8-15.1 15.8a14 14 0 0 1-6.6-1.6 16.68 16.68 0 0 1-15.8 11.9Zm-14.2-13.3a1.5 1.5 0 0 1 1.4 1 13.62 13.62 0 0 0 26.4-2.1 1.44 1.44 0 0 1 .9-1.1 1.4 1.4 0 0 1 1.4.2 11.49 11.49 0 0 0 6.6 2.1c6.7 0 12.1-5.7 12.1-12.8s-5.4-12.8-12.1-12.8a12.32 12.32 0 0 0-11.6 9.2 1.28 1.28 0 0 1-1 1 1.44 1.44 0 0 1-1.4-.3 13.21 13.21 0 0 0-8.4-3.1 13.92 13.92 0 0 0-12.9 9.4 1.48 1.48 0 0 1-2.8 0 13.92 13.92 0 0 0-12.9-9.4 13.63 13.63 0 0 0-12.5 8.5 1.42 1.42 0 0 1-1.4.9 1.38 1.38 0 0 1-1.3-1 13.87 13.87 0 0 0-13-9.7c-7.6 0-13.8 6.5-13.8 14.6s6.2 14.6 13.8 14.6a13.63 13.63 0 0 0 12.5-8.5 1.42 1.42 0 0 1 1.4-.9 1.38 1.38 0 0 1 1.3 1 13.56 13.56 0 0 0 25.9.3 1.39 1.39 0 0 1 1.4-1.1Z"/><path class="cls-3" d="M51.5 73h117.9v20.2H51.5z"/><path class="cls-2" d="M169.5 94.7h-118a1.54 1.54 0 0 1-1.5-1.5V73a1.54 1.54 0 0 1 1.5-1.5h117.9a1.54 1.54 0 0 1 1.5 1.5v20.2a1.39 1.39 0 0 1-1.4 1.5ZM53 91.7h114.9V74.5H53Z"/><path class="cls-8" d="M106.7 68.4c-.6 1.5-2 2.3-3 1.9s-1.3-2-.6-3.5 2-2.3 3-1.9 1.3 2 .6 3.5Zm23.9-2.7c0 1.2-.7 2.1-1.5 2s-1.4-1-1.3-2.2.7-2.1 1.5-2 1.4 1 1.3 2.2Zm30.3.6c-.6 1.5-2 2.3-3 1.9s-1.3-2-.6-3.5 2-2.3 3-1.9 1.3 2 .6 3.5ZM79 65.4c0 1.6-.9 2.9-2 2.9s-2-1.3-2-2.9.9-2.9 2-2.9 2 1.2 2 2.9Z"/><path class="cls-7" d="M110.8 57.4a1.71 1.71 0 0 1-.8 2.2c-.7.2-1.5-.5-1.8-1.5a1.71 1.71 0 0 1 .8-2.2c.7-.3 1.5.4 1.8 1.5Z"/><path class="cls-8" d="M67.6 66.8c0 1.4-.8 2.5-1.9 2.5a2.18 2.18 0 0 1-2-2.4c0-1.4.8-2.5 1.9-2.5a2.18 2.18 0 0 1 2 2.4Z"/><path class="cls-3" d="M136.4 64a3.32 3.32 0 1 1-4.7 0 3.32 3.32 0 0 1 4.7 0Z"/><ellipse class="cls-10" cx="134.1" cy="66.3" rx="1.4" ry="1.3"/><path class="cls-3" d="M104.3 67.2a2.19 2.19 0 0 1-3.1 3.1 2.2 2.2 0 0 1 0-3.1 2.3 2.3 0 0 1 3.1 0Z"/><path class="cls-10" d="M103.7 68.8a.82.82 0 0 1-.9.8.88.88 0 0 1-.9-.8.82.82 0 0 1 .9-.8.77.77 0 0 1 .9.8Z"/><path class="cls-3" d="M116.4 56.1a1.88 1.88 0 0 1 0 3.3 4.43 4.43 0 0 1-4.7 0 1.88 1.88 0 0 1 0-3.3 4.43 4.43 0 0 1 4.7 0Z"/><path class="cls-10" d="M115.5 57.8c0 .5-.6.9-1.4.9s-1.4-.4-1.4-.9.6-.9 1.4-.9 1.4.4 1.4.9Z"/><ellipse class="cls-3" cx="150.9" cy="57.7" rx="3.3" ry="2.5"/><path class="cls-10" d="M152.4 57.7c0 .5-.6 1-1.4 1s-1.4-.4-1.4-1 .6-1 1.4-1 1.4.5 1.4 1Z"/><ellipse class="cls-3" cx="95.6" cy="65.4" rx="3.3" ry="2.5"/><path class="cls-10" d="M97 65.4c0 .5-.6 1-1.4 1s-1.4-.4-1.4-1 .6-1 1.4-1 1.4.4 1.4 1Z"/><path class="cls-9" d="M139.1 52.6c-.4-.4-1.1-.3-1.8.2 0-1.1-.4-1.9-1-2s-1.3.5-1.7 1.5c-.4-.8-1.1-1.2-1.6-1-.8.3-1.2 1.9-.9 3.5a4.05 4.05 0 0 0 2.5 3.1c1.5.5 3.2-.6 4.1-2.1.5-.9 1.1-2.5.4-3.2Z"/><path class="cls-8" d="M258.2 65.4c0 7.9-7.4 15.5-14.1 15.5S231 73.2 231 65.4a12.86 12.86 0 0 1 13.1-13c6.7-.1 14.1 5.1 14.1 13Z"/><path class="cls-2" d="M244.1 82.3c-7.4 0-14.5-8.2-14.5-16.9A14.34 14.34 0 0 1 244.1 51c7.5 0 15.5 5.8 15.5 14.4 0 8.4-7.8 16.9-15.5 16.9Zm0-28.6a11.55 11.55 0 0 0-11.7 11.6c0 7.1 5.8 14.2 11.7 14.2 6.2 0 12.7-7.3 12.7-14.2s-6.6-11.6-12.7-11.6Z"/><path class="cls-8" d="M229.2 69a13 13 0 1 1-8.9-16.1 13 13 0 0 1 8.9 16.1Z"/><path class="cls-2" d="M216.6 79.9a13.86 13.86 0 0 1-4-.6 14.56 14.56 0 1 1 18-10 14.52 14.52 0 0 1-14 10.6Zm0-26a11.69 11.69 0 1 0 3.1.5 8.08 8.08 0 0 0-3.1-.5Z"/><path class="cls-7" d="M281.5 52.1a13.77 13.77 0 0 0-13.1 10.2 14.82 14.82 0 0 0-9.4-3.4 15.36 15.36 0 0 0-14.3 10.4 15 15 0 0 0-28.2-1 15.34 15.34 0 0 0-14.4-10.7c-8.4 0-15.3 7.2-15.3 16s6.8 16 15.3 16a15.29 15.29 0 0 0 13.9-9.4 15 15 0 0 0 28.7.3 15.06 15.06 0 0 0 29.2-2.3 12.89 12.89 0 0 0 7.5 2.4c7.5 0 13.6-6.4 13.6-14.3s-6-14.2-13.5-14.2Z"/><path class="cls-2" d="M259.1 92.4a16.73 16.73 0 0 1-14.3-8.4 16.73 16.73 0 0 1-14.3 8.4 16.55 16.55 0 0 1-14.5-8.9 16.4 16.4 0 0 1-13.7 7.5c-9.2 0-16.7-7.8-16.7-17.5S193.1 56 202.3 56a16.55 16.55 0 0 1 14.5 8.9 16.4 16.4 0 0 1 13.7-7.5 16.73 16.73 0 0 1 14.3 8.4 16.73 16.73 0 0 1 14.3-8.4 16.27 16.27 0 0 1 8.6 2.5 15.21 15.21 0 0 1 13.8-9.4c8.3 0 15.1 7.1 15.1 15.8s-6.8 15.8-15.1 15.8a14 14 0 0 1-6.6-1.6 16.78 16.78 0 0 1-15.8 11.9Zm-14.3-13.3a1.5 1.5 0 0 1 1.4 1 13.62 13.62 0 0 0 26.4-2.1 1.44 1.44 0 0 1 .9-1.1 1.4 1.4 0 0 1 1.4.2 11.49 11.49 0 0 0 6.6 2.1c6.7 0 12.1-5.7 12.1-12.8s-5.4-12.8-12.1-12.8a12.32 12.32 0 0 0-11.6 9.2 1.28 1.28 0 0 1-1 1 1.44 1.44 0 0 1-1.4-.3 13.21 13.21 0 0 0-8.4-3.1 13.92 13.92 0 0 0-12.9 9.4 1.48 1.48 0 0 1-2.8 0 13.92 13.92 0 0 0-12.9-9.4 13.63 13.63 0 0 0-12.5 8.5 1.42 1.42 0 0 1-1.4.9 1.38 1.38 0 0 1-1.3-1 13.87 13.87 0 0 0-13-9.7c-7.6 0-13.8 6.5-13.8 14.6s6.2 14.6 13.8 14.6a13.63 13.63 0 0 0 12.5-8.5 1.42 1.42 0 0 1 1.4-.9 1.38 1.38 0 0 1 1.3 1 13.56 13.56 0 0 0 25.9.3 1.47 1.47 0 0 1 1.4-1.1Z"/><path class="cls-3" d="M182.1 73H300v20.2H182.1z"/><path class="cls-2" d="M300 94.7H182.1a1.54 1.54 0 0 1-1.5-1.5V73a1.54 1.54 0 0 1 1.5-1.5H300a1.54 1.54 0 0 1 1.5 1.5v20.2a1.54 1.54 0 0 1-1.5 1.5Zm-116.4-3h114.9V74.5H183.6Z"/><path class="cls-8" d="M237.3 68.4c-.6 1.5-2 2.3-3 1.9s-1.3-2-.6-3.5 2-2.3 3-1.9 1.2 2 .6 3.5Zm23.9-2.7c0 1.2-.7 2.1-1.5 2s-1.4-1-1.3-2.2.7-2.1 1.5-2 1.3 1 1.3 2.2Zm30.3.6c-.6 1.5-2 2.3-3 1.9s-1.3-2-.6-3.5 2-2.3 3-1.9 1.2 2 .6 3.5Zm-81.9-.9c0 1.6-.9 2.9-2 2.9s-2-1.3-2-2.9.9-2.9 2-2.9 2 1.2 2 2.9Z"/><path class="cls-7" d="M241.3 57.4a1.71 1.71 0 0 1-.8 2.2c-.7.2-1.5-.5-1.8-1.5a1.71 1.71 0 0 1 .8-2.2c.8-.3 1.5.4 1.8 1.5Z"/><path class="cls-8" d="M198.2 66.8c0 1.4-.8 2.5-1.9 2.5a2.18 2.18 0 0 1-2-2.4c0-1.4.8-2.5 1.9-2.5a2.25 2.25 0 0 1 2 2.4Z"/><path class="cls-3" d="M267 64a3.32 3.32 0 1 1-4.7 0 3.32 3.32 0 0 1 4.7 0Z"/><ellipse class="cls-10" cx="264.6" cy="66.3" rx="1.4" ry="1.3"/><path class="cls-3" d="M234.8 67.2a2.19 2.19 0 1 1-3.1 0 2.3 2.3 0 0 1 3.1 0Z"/><path class="cls-10" d="M234.2 68.8a.82.82 0 0 1-.9.8.88.88 0 0 1-.9-.8.91.91 0 0 1 1.8 0Z"/><path class="cls-3" d="M247 56.1a1.88 1.88 0 0 1 0 3.3 4.43 4.43 0 0 1-4.7 0 1.88 1.88 0 0 1 0-3.3 4.43 4.43 0 0 1 4.7 0Z"/><ellipse class="cls-10" cx="244.6" cy="57.8" rx="1.4" ry=".9"/><ellipse class="cls-3" cx="281.5" cy="57.7" rx="3.3" ry="2.5"/><path class="cls-10" d="M282.9 57.7c0 .5-.6 1-1.4 1s-1.4-.4-1.4-1 .6-1 1.4-1 1.4.5 1.4 1Z"/><ellipse class="cls-3" cx="226.1" cy="65.4" rx="3.3" ry="2.5"/><path class="cls-10" d="M227.6 65.4c0 .5-.6 1-1.4 1s-1.4-.4-1.4-1 .6-1 1.4-1 1.4.4 1.4 1Z"/><path class="cls-9" d="M269.6 52.6c-.4-.4-1.1-.3-1.8.2 0-1.1-.4-1.9-1-2s-1.3.5-1.7 1.5c-.4-.8-1.1-1.2-1.6-1-.8.3-1.2 1.9-.9 3.5a4.05 4.05 0 0 0 2.5 3.1c1.5.5 3.2-.6 4.1-2.1.6-.9 1.2-2.5.4-3.2Z"/><path class="cls-8" d="M301 154.1s4.2-1.9 2.6-6.3c-.1.1-3.8 2.2-2.6 6.3Z"/><path class="cls-2" d="M301 154.4h-.1c-.1 0-.1-.1-.2-.2-1.3-4.3 2.7-6.6 2.7-6.6h.2c.1 0 .1.1.2.2 1.7 4.5-2.7 6.6-2.7 6.6Zm2.4-6.1a5.18 5.18 0 0 0-2.2 5.4 4.54 4.54 0 0 0 2.2-5.4Z"/><path class="cls-8" d="M309.9 146.6s-1 4.2 3.1 5.4a5.14 5.14 0 0 0-3.1-5.4Z"/><path class="cls-2" d="M313 152.3c-4.3-1.4-3.4-5.7-3.4-5.8s.1-.1.1-.2h.2c3.8 1.5 3.3 5.7 3.3 5.7s-.1.1-.1.2a.1.1 0 0 1-.1.1Zm-2.9-5.3a4.22 4.22 0 0 0 2.7 4.7 4.87 4.87 0 0 0-2.7-4.7Z"/><path class="cls-8" d="M295.7 146.6s-1 4.2 3.1 5.4a5.14 5.14 0 0 0-3.1-5.4Z"/><path class="cls-2" d="M298.8 152.3c-4.3-1.4-3.4-5.7-3.4-5.8s.1-.1.1-.2h.2c3.8 1.5 3.3 5.7 3.3 5.7s-.1.1-.1.2 0 .1-.1.1Zm-2.9-5.3a4.22 4.22 0 0 0 2.7 4.7 4.87 4.87 0 0 0-2.7-4.7Z"/><path class="cls-10" d="M289.7 151.2a17.1 17.1 0 0 0 34.2 0Z"/><path class="cls-2" d="M306.7 169.4a18.53 18.53 0 0 1-18.6-18.1 1.5 1.5 0 0 1 .4-1.1 1.61 1.61 0 0 1 1.1-.5h34.1a1.61 1.61 0 0 1 1.1.5 1.5 1.5 0 0 1 .4 1.1 18.31 18.31 0 0 1-18.5 18.1Zm-15.4-16.7a15.51 15.51 0 0 0 30.8 0Z"/><path class="cls-2" d="M323.8 152.7h-34.1a1.71 1.71 0 0 1-1.3-.7 1.41 1.41 0 0 1-.1-1.4l17.1-38.8a1.57 1.57 0 0 1 1.4-.9 1.69 1.69 0 0 1 1.4.9l17.1 38.8a1.39 1.39 0 0 1-.1 1.4 2.1 2.1 0 0 1-1.4.7Zm-31.8-3h29.5l-14.7-33.5Z"/><circle class="cls-13" cx="299" cy="158.99" r="1.5"/><path class="cls-2" d="M299 160.7a1.27 1.27 0 0 1-.6-.1 2 2 0 0 1-.9-.9 1.48 1.48 0 0 1 0-1.3 2 2 0 0 1 .9-.9 1.66 1.66 0 1 1 1.4 3 4.5 4.5 0 0 1-.8.2Zm0-3a.75.75 0 0 0-.5.1 1.21 1.21 0 0 0-.7.7 1.7 1.7 0 0 0 0 1 1.21 1.21 0 0 0 .7.7 1.7 1.7 0 0 0 1 0 1.28 1.28 0 0 0 .7-1.7 1.3 1.3 0 0 0-1.2-.8Zm19.5 28.6a.79.79 0 0 1-.8-.8 225.56 225.56 0 0 0 .4-26.5 35.29 35.29 0 0 0-.8-6.1c-.4-1.8-.8-2.8-2-2.9a3.93 3.93 0 0 0-2.3.5 2.16 2.16 0 0 0-.9 1.4.75.75 0 0 1-1.5-.1 3.46 3.46 0 0 1 1.5-2.5 4.68 4.68 0 0 1 3.1-.7c2.5.1 3 2.3 3.4 3.9a31.05 31.05 0 0 1 .8 6.4 207 207 0 0 1-.4 26.6.53.53 0 0 1-.5.8Z"/><path class="cls-13" d="M320.2 186.8c-.4 1.3-1.5 2.1-2.3 1.9s-1.2-1.6-.8-2.9 1.5-2.1 2.3-1.9a2.39 2.39 0 0 1 .8 2.9Z"/><path class="cls-2" d="M318.2 189a.6.6 0 0 1-.4-.1 1.42 1.42 0 0 1-.9-.8 3.24 3.24 0 0 1-.1-2.4 2.73 2.73 0 0 1 1.1-1.6 1.75 1.75 0 0 1 1.5-.4 1.42 1.42 0 0 1 .9.8 3.24 3.24 0 0 1 .1 2.4 2.73 2.73 0 0 1-1.1 1.6 1.27 1.27 0 0 1-1.1.5Zm.8-4.8a1.14 1.14 0 0 0-.8.3 2.84 2.84 0 0 0-.9 1.4 3.39 3.39 0 0 0 0 2 .63.63 0 0 0 .6.5 1.25 1.25 0 0 0 1.1-.3 2.84 2.84 0 0 0 .9-1.4 3.39 3.39 0 0 0 0-2 .63.63 0 0 0-.6-.5Z"/><path class="cls-13" d="M321.2 172.5a1.63 1.63 0 0 1-2-.7 1.53 1.53 0 0 1 .7-2 1.63 1.63 0 0 1 2 .7 1.47 1.47 0 0 1-.7 2Z"/><path class="cls-2" d="M320.6 172.8a1.27 1.27 0 0 1-.6-.1 2 2 0 0 1-.9-.9 1.66 1.66 0 0 1 3-1.4 1.48 1.48 0 0 1 0 1.3 2 2 0 0 1-.9.9.73.73 0 0 1-.6.2Zm0-3a.75.75 0 0 0-.5.1 1.28 1.28 0 0 0-.7 1.7 1.21 1.21 0 0 0 .7.7 1.7 1.7 0 0 0 1 0 1.21 1.21 0 0 0 .7-.7 1.7 1.7 0 0 0 0-1 1.3 1.3 0 0 0-1.2-.8Z"/><path class="cls-13" d="M318.1 160.9a1.5 1.5 0 1 1 .7-2 1.53 1.53 0 0 1-.7 2Z"/><path class="cls-2" d="M317.5 161.2a1.75 1.75 0 0 1-1.5-1 1.66 1.66 0 1 1 3-1.4 1.48 1.48 0 0 1 0 1.3 2 2 0 0 1-.9.9 1.42 1.42 0 0 1-.6.2Zm0-3a.75.75 0 0 0-.5.1 1.3 1.3 0 0 0 1 2.4 1.28 1.28 0 0 0 .7-1.7 1.3 1.3 0 0 0-1.2-.8Z"/><path class="cls-8" d="M319.3 181.6s-5.8 1.1-5.1 6.9c0 0 5.4-1.5 5.1-6.9Z"/><path class="cls-2" d="M314.2 188.8c-.1 0-.1 0-.2-.1s-.1-.2-.2-.3c-.7-6.1 5.3-7.3 5.4-7.3a.35.35 0 0 1 .4.4c.3 5.7-5.2 7.3-5.4 7.3Zm4.8-6.8c-1.2.4-4.7 1.7-4.4 6a6.68 6.68 0 0 0 4.4-6Z"/><path class="cls-8" d="M318.5 154.4s-6.3 1.2-5.6 7.5c.1 0 5.9-1.6 5.6-7.5Z"/><path class="cls-2" d="M313 162.3c-.1 0-.2 0-.2-.1s-.2-.2-.2-.3c-.7-6.6 5.8-7.9 5.9-7.9a.35.35 0 0 1 .4.4c.2 6.1-5.8 7.9-5.9 7.9Zm5.1-7.4c-1.3.4-5.1 1.9-4.8 6.5 1.3-.5 4.8-2.3 4.8-6.5Z"/><path class="cls-8" d="M319.3 181.6s-2 5.5 3.4 7.9c0 0 1.4-5.4-3.4-7.9Z"/><path class="cls-2" d="M322.7 189.8h-.1c-5.6-2.5-3.6-8.3-3.6-8.3a.22.22 0 0 1 .2-.2h.3c5 2.6 3.6 8.2 3.6 8.3a.22.22 0 0 1-.2.2Zm-3.2-7.7a5.66 5.66 0 0 0 2.9 6.8 6.24 6.24 0 0 0-2.9-6.8Z"/><path class="cls-8" d="M319.8 167.1s-1.1 5.6 4.3 7.1c0 0 .7-5.3-4.3-7.1Z"/><path class="cls-2" d="M324.1 174.6c-5.8-1.6-4.7-7.5-4.7-7.5a.22.22 0 0 1 .2-.2.19.19 0 0 1 .3 0c5.2 1.9 4.6 7.4 4.6 7.5a.22.22 0 0 1-.2.2Zm-4-7a5.62 5.62 0 0 0 3.7 6.2c0-1.2-.2-4.7-3.7-6.2Z"/><path class="cls-8" d="M319.1 160.7s.9 5.6 6.6 5.2c0 0-1.3-5.2-6.6-5.2Z"/><path class="cls-2" d="M325 166.3c-5.3 0-6.2-5.4-6.2-5.5a.35.35 0 0 1 .4-.4c5.4 0 6.8 5.4 6.8 5.4a.35.35 0 0 1-.4.4c-.1.1-.4.1-.6.1Zm-5.5-5.2a5.55 5.55 0 0 0 5.7 4.5 6.27 6.27 0 0 0-5.7-4.5Z"/><path class="cls-8" d="M313.1 180.4s6-.6 5.8-6.6c0 0-5.6 1.1-5.8 6.6Z"/><path class="cls-2" d="M313.1 180.7a.35.35 0 0 1-.4-.4c.2-5.8 6-6.9 6.1-6.9a.35.35 0 0 1 .4.4c.2 6.2-6 6.9-6.1 6.9Zm5.4-6.4c-1.2.4-4.6 1.7-5 5.7a5.88 5.88 0 0 0 5-5.7Zm-9.7 5.8a.68.68 0 0 1-.7-.7 196.25 196.25 0 0 0 .3-23.4 25.76 25.76 0 0 0-.7-5.3c-.4-1.6-.7-2.5-1.8-2.5a3.74 3.74 0 0 0-2 .4 2.33 2.33 0 0 0-.8 1.2c0 .4-.3.6-.7.6a.66.66 0 0 1-.6-.7 3 3 0 0 1 1.4-2.2 4.23 4.23 0 0 1 2.8-.6c2.2.1 2.7 2 3 3.5a24 24 0 0 1 .7 5.7 197.6 197.6 0 0 1-.3 23.5.65.65 0 0 1-.6.5Z"/><path class="cls-13" d="M310.3 180.6c-.4 1.2-1.3 1.9-2 1.6a2 2 0 0 1-.7-2.5c.4-1.2 1.3-1.9 2-1.6s1 1.3.7 2.5Z"/><path class="cls-2" d="M308.5 182.5a.76.76 0 0 1-.4-.1 1.34 1.34 0 0 1-.8-.7 3 3 0 0 1-.1-2.1 2.84 2.84 0 0 1 .9-1.4 1.24 1.24 0 0 1 1.4-.3 1.34 1.34 0 0 1 .8.7 3 3 0 0 1 .1 2.1 2.84 2.84 0 0 1-.9 1.4 2.11 2.11 0 0 1-1 .4Zm.8-4.3a1.08 1.08 0 0 0-.7.3 2.55 2.55 0 0 0-.8 1.2 2.76 2.76 0 0 0 0 1.8 1.21 1.21 0 0 0 .5.5 1.07 1.07 0 0 0 1-.3 2.55 2.55 0 0 0 .8-1.2 2.76 2.76 0 0 0 0-1.8 1.21 1.21 0 0 0-.5-.5Z"/><path class="cls-13" d="M311.2 167.9a1.3 1.3 0 1 1 .7-1.7 1.48 1.48 0 0 1-.7 1.7Z"/><path class="cls-2" d="M310.6 168.2a.75.75 0 0 1-.5-.1 1.09 1.09 0 0 1-.8-.8 1.43 1.43 0 1 1 2.6-1.2 1.46 1.46 0 0 1-.8 1.9.76.76 0 0 1-.5.2Zm0-2.6a.9.9 0 0 0-.5.1 1.14 1.14 0 0 0 0 2.1 1.39 1.39 0 0 0 .9 0 1.17 1.17 0 0 0 .6-.6 1.39 1.39 0 0 0 0-.9.9.9 0 0 0-1-.7Z"/><path class="cls-13" d="M308.4 157.6a1.3 1.3 0 1 1 .7-1.7 1.22 1.22 0 0 1-.7 1.7Z"/><path class="cls-2" d="M307.9 157.9a1.29 1.29 0 0 1-1.3-.9 1.43 1.43 0 1 1 2.6-1.2 1.46 1.46 0 0 1-.8 1.9c-.1.2-.3.2-.5.2Zm0-2.6a.9.9 0 0 0-.5.1 1.14 1.14 0 0 0 .9 2.1 1.18 1.18 0 0 0 .6-1.5 1.2 1.2 0 0 0-1-.7Z"/><path class="cls-8" d="M309.5 175.9s-5.1.9-4.5 6.1c0 0 4.7-1.3 4.5-6.1Z"/><path class="cls-2" d="M305 182.3c-.1 0-.1 0-.2-.1s-.1-.1-.1-.2c-.6-5.4 4.7-6.4 4.8-6.4a.37.37 0 0 1 .3.1c.1.1.1.1.1.2.1 5-4.8 6.4-4.9 6.4Zm4.2-6a5 5 0 0 0-3.9 5.3 5.88 5.88 0 0 0 3.9-5.3Z"/><path class="cls-8" d="M308.8 151.9s-5.5 1-4.9 6.6c0 0 5.1-1.4 4.9-6.6Z"/><path class="cls-2" d="M303.9 158.9c-.1 0-.1 0-.2-.1s-.1-.1-.1-.2c-.7-5.9 5.1-7 5.2-7a.35.35 0 0 1 .4.4c.2 5.3-5.2 6.9-5.3 6.9Zm4.6-6.6a5.51 5.51 0 0 0-4.3 5.7 6.14 6.14 0 0 0 4.3-5.7Z"/><path class="cls-8" d="M309.5 175.9s-1.7 4.9 3 7c0 0 1.2-4.7-3-7Z"/><path class="cls-2" d="M312.5 183.2h-.1c-4.9-2.2-3.2-7.3-3.2-7.3a.22.22 0 0 1 .2-.2h.3c4.4 2.3 3.2 7.3 3.2 7.3a.22.22 0 0 1-.2.2Zm-2.8-6.8a4.92 4.92 0 0 0 2.6 6 5.82 5.82 0 0 0-2.6-6Z"/><path class="cls-8" d="M309.9 163.2s-1 4.9 3.8 6.3a5.8 5.8 0 0 0-3.8-6.3Z"/><path class="cls-2" d="M313.8 169.8c-5.1-1.4-4.2-6.6-4.1-6.7a.35.35 0 0 1 .1-.2c.1 0 .2-.1.3 0 4.6 1.6 4 6.6 4 6.6a.35.35 0 0 1-.1.2.35.35 0 0 0-.2.1Zm-3.6-6.2a5 5 0 0 0 3.3 5.5 5.66 5.66 0 0 0-3.3-5.5Z"/><path class="cls-8" d="M309.3 157.5s.8 5 5.8 4.6c0 0-1.1-4.6-5.8-4.6Z"/><path class="cls-2" d="M314.5 162.4c-4.7 0-5.5-4.8-5.5-4.8s0-.2.1-.2a.37.37 0 0 1 .3-.1c4.8 0 6 4.7 6 4.8v.3c-.1.1-.1.1-.2.1a2 2 0 0 0-.7-.1Zm-4.8-4.5a5 5 0 0 0 5 4 5.48 5.48 0 0 0-5-4Z"/><path class="cls-8" d="M304 174.9s5.3-.5 5.1-5.8c0 0-4.9.9-5.1 5.8Z"/><path class="cls-2" d="M304 175.2c-.1 0-.2 0-.2-.1a.31.31 0 0 1-.1-.2c.2-5.1 5.3-6.1 5.3-6.1a.37.37 0 0 1 .3.1c.1.1.1.1.1.2.2 5.5-5.3 6.1-5.4 6.1Zm4.8-5.7a5.76 5.76 0 0 0-4.4 5 5.12 5.12 0 0 0 4.4-5Zm-11.5 5.2a.47.47 0 0 1-.5-.5 183.14 183.14 0 0 1-.3-18.6 24.34 24.34 0 0 1 .6-4.4c.3-1.2.7-2.7 2.4-2.8a3.72 3.72 0 0 1 2.2.5 2.65 2.65 0 0 1 1.1 1.8.55.55 0 0 1-1.1.1 1.33 1.33 0 0 0-.6-1 2.56 2.56 0 0 0-1.6-.3c-.9 0-1.1.7-1.4 1.9a23.33 23.33 0 0 0-.6 4.3 137.76 137.76 0 0 0 .3 18.5c.1.2-.1.5-.5.5Z"/><path class="cls-13" d="M296.2 175.1c.3.9 1 1.5 1.6 1.3s.8-1.1.5-2-1-1.5-1.6-1.3-.8 1.1-.5 2Z"/><path class="cls-2" d="M297.5 176.6a1.33 1.33 0 0 1-.8-.3 2.59 2.59 0 0 1-.7-1.1c-.3-1 0-2 .7-2.2s1.5.4 1.8 1.4a2.29 2.29 0 0 1 .1 1.4 1.14 1.14 0 0 1-.7.8Zm-.6-3.4h-.2c-.5.2-.7 1-.4 1.8a2.42 2.42 0 0 0 .6 1 .83.83 0 0 0 .8.2 1 1 0 0 0 .5-.6 1.71 1.71 0 0 0-.1-1.2c-.2-.7-.7-1.2-1.2-1.2Z"/><path class="cls-13" d="M295.4 165.1a1.05 1.05 0 1 0-.5-1.4 1.11 1.11 0 0 0 .5 1.4Z"/><path class="cls-2" d="M295.9 165.3a.9.9 0 0 1-.5-.1 1.17 1.17 0 0 1-.6-.6 1.39 1.39 0 0 1 0-.9 1.17 1.17 0 0 1 .6-.6 1.39 1.39 0 0 1 .9 0 1.17 1.17 0 0 1 .6.6 1.39 1.39 0 0 1 0 .9 1.17 1.17 0 0 1-.6.6.76.76 0 0 1-.4.1Zm0-2.1a.81.81 0 1 0 .4 0c-.2.1-.3 0-.4 0Z"/><path class="cls-13" d="M297.6 157a1.05 1.05 0 1 0-.5-1.4 1.15 1.15 0 0 0 .5 1.4Z"/><path class="cls-2" d="M298 157.2a.9.9 0 0 1-.5-.1 1.17 1.17 0 0 1-.6-.6 1.39 1.39 0 0 1 0-.9 1.17 1.17 0 0 1 .6-.6 1.39 1.39 0 0 1 .9 0 1.17 1.17 0 0 1 .6.6 1.39 1.39 0 0 1 0 .9 1.17 1.17 0 0 1-.6.6c-.1.1-.2.1-.4.1Zm0-2.1a.81.81 0 1 0 .4 0Z"/><path class="cls-8" d="M296.7 171.4a4.37 4.37 0 0 1 3.6 4.8 5 5 0 0 1-3.6-4.8Z"/><path class="cls-2" d="M300.3 176.5a5.09 5.09 0 0 1-3.8-5.1c0-.1 0-.1.1-.2s.1-.1.2-.1 4.2.8 3.8 5.1c0 .1 0 .1-.1.2s-.1.1-.2.1Zm-3.3-4.8a4.9 4.9 0 0 0 3.1 4.2 4.17 4.17 0 0 0-3.1-4.2Z"/><path class="cls-8" d="M297.3 152.4s4.4.8 3.9 5.2a5.06 5.06 0 0 1-3.9-5.2Z"/><path class="cls-2" d="M301.2 158c-.1 0-4.3-1.2-4.2-5.5 0-.1 0-.2.1-.2s.1-.1.2-.1 4.6.9 4.1 5.5a.35.35 0 0 1-.1.2Zm-3.6-5.2a4.91 4.91 0 0 0 3.4 4.5 4.47 4.47 0 0 0-3.4-4.5Z"/><path class="cls-8" d="M296.8 171.4s1.4 3.9-2.4 5.5a4.88 4.88 0 0 1 2.4-5.5Z"/><path class="cls-2" d="M294.4 177.2h-.1c-.1 0-.1-.1-.1-.2s-1-3.9 2.5-5.8h.2a.1.1 0 0 1 .1.1s1.4 4.1-2.5 5.8a.1.1 0 0 1-.1.1Zm2.2-5.4a4.51 4.51 0 0 0-2 4.8 4.07 4.07 0 0 0 2-4.8Z"/><path class="cls-8" d="M296.4 161.3s.8 3.9-3 5c0 0-.4-3.7 3-5Z"/><path class="cls-2" d="M293.4 166.6h-.1c-.1 0-.1-.1-.1-.2s-.4-3.9 3.2-5.2h.2c.1 0 .1.1.1.2a4.53 4.53 0 0 1-3.3 5.2Zm2.8-4.9a4.35 4.35 0 0 0-2.6 4.3 3.88 3.88 0 0 0 2.6-4.3Z"/><path class="cls-8" d="M296.9 156.9a4.25 4.25 0 0 1-4.6 3.6 4.84 4.84 0 0 1 4.6-3.6Z"/><path class="cls-2" d="M292.8 160.8h-.5c-.1 0-.1 0-.2-.1s-.1-.1 0-.2 1-3.8 4.8-3.8c.1 0 .2 0 .2.1s.1.1.1.2-.7 3.8-4.4 3.8Zm-.2-.5h.1a3.82 3.82 0 0 0 3.8-3.1 4.54 4.54 0 0 0-3.9 3.1Z"/><path class="cls-8" d="M301.1 170.6s-4.2-.4-4-4.6a5 5 0 0 1 4 4.6Z"/><path class="cls-2" d="M301.1 170.8c-.1 0-4.4-.5-4.3-4.9 0-.1 0-.1.1-.2s.1-.1.2-.1 4.1.8 4.2 4.8c0 .1 0 .1-.1.2s0 .2-.1.2Zm-3.8-4.5a4.16 4.16 0 0 0 3.5 4 4.72 4.72 0 0 0-3.5-4Z"/><path class="cls-8" d="M316.7 150.6s4.6-.5 4.4-5.1c.1.1-4.2.9-4.4 5.1Z"/><path class="cls-2" d="M316.7 150.9c-.1 0-.1 0-.2-.1s-.1-.1-.1-.2c.2-4.4 4.6-5.3 4.7-5.4s.2 0 .2.1.1.1.1.2c.2 4.9-4.6 5.4-4.7 5.4Zm4.2-5a5.23 5.23 0 0 0-3.9 4.4 4.58 4.58 0 0 0 3.9-4.4Z"/><path class="cls-8" d="M306.1 163.9s4.2.2 4.6-4a5 5 0 0 0-4.6 4Z"/><path class="cls-2" d="M306.1 164.1c-.1 0-.2 0-.2-.1s-.1-.1-.1-.2c.7-4 4.8-4.2 4.9-4.2s.1 0 .2.1.1.1.1.2a4.72 4.72 0 0 1-4.9 4.2Zm4.3-3.9a4.48 4.48 0 0 0-4 3.4 3.94 3.94 0 0 0 4-3.4Z"/><path class="cls-8" d="M292.5 160.1s4.2.2 4.6-4a5 5 0 0 0-4.6 4Z"/><path class="cls-2" d="M292.5 160.4c-.1 0-.2 0-.2-.1s-.1-.1-.1-.2c.7-4 4.8-4.2 4.9-4.2a.31.31 0 0 1 .2.1c.1.1.1.1.1.2-.5 4-4.4 4.2-4.9 4.2Zm4.3-4a4.58 4.58 0 0 0-4 3.4 3.94 3.94 0 0 0 4-3.4Zm14 9.9a.43.43 0 0 1-.4-.4c-.3-5.5.7-9.3 3-11.3a5.42 5.42 0 0 1 4.3-1.4c.2 0 .3.2.3.4s-.2.3-.4.3a4.85 4.85 0 0 0-3.7 1.2c-2 1.8-3 5.5-2.7 10.7a.46.46 0 0 1-.4.5Z"/><path class="cls-13" d="M311 168.9c-.3 1-1.1 1.6-1.7 1.4s-.9-1.1-.6-2.1 1.1-1.6 1.7-1.4a1.58 1.58 0 0 1 .6 2.1Z"/><path class="cls-2" d="M309.6 170.5h-.3c-.4-.1-.6-.4-.8-.9a2.29 2.29 0 0 1 .1-1.4 2.55 2.55 0 0 1 .8-1.2 1.25 1.25 0 0 1 1.1-.3c.7.2 1 1.3.7 2.3a2.59 2.59 0 0 1-1.1 1.4 4.33 4.33 0 0 1-.5.1Zm.6-3.5a1.42 1.42 0 0 0-.6.2 2.32 2.32 0 0 0-.8 2.2c.1.3.3.6.5.6a.66.66 0 0 0 .6-.1 1.93 1.93 0 0 0 .9-1.2c.3-.9.1-1.7-.5-1.9.1.2 0 .2-.1.2Z"/><path class="cls-8" d="M310.2 166.2a4.66 4.66 0 0 0 2.5 5.8c0-.1 1-4-2.5-5.8Z"/><path class="cls-2" d="M312.7 172.2h-.1c-4.1-1.8-2.6-6-2.6-6.1s.1-.1.2-.2h.2c3.6 1.9 2.6 6 2.6 6.1s-.1.1-.1.2Zm-2.3-5.7a4.27 4.27 0 0 0 2.1 5 4.76 4.76 0 0 0-2.1-5Zm-22.8 74.7c-.5 0-.8-.6-.8-1.3V192c0-.7.4-1.3.8-1.3s.8.6.8 1.3v47.8c0 .8-.3 1.4-.8 1.4Z"/><path class="cls-8" d="M288.6 218s12.6.2 13.7-12.4c0 .1-11.8.9-13.7 12.4Z"/><path class="cls-2" d="M288.6 219.3a1.27 1.27 0 0 1-.9-.4 1.69 1.69 0 0 1-.3-1c2-12.3 14.7-13.4 14.8-13.4a1.28 1.28 0 0 1 1 .4 1 1 0 0 1 .3 1c-1.2 13.2-14.4 13.4-14.9 13.4Zm12.3-12.2c-2.9.6-8.9 2.7-10.8 9.6 3-.3 9.4-2 10.8-9.6Z"/><path class="cls-8" d="M277 215.8s-.4 10.6 10.1 11.7c0 0-.5-9.9-10.1-11.7Z"/><path class="cls-2" d="M287.1 228.5h-.1c-11.3-1.2-11-12.7-11-12.8a1.23 1.23 0 0 1 .4-.8.78.78 0 0 1 .8-.2c10.3 1.9 10.9 12.6 10.9 12.7a1.14 1.14 0 0 1-.3.8.91.91 0 0 1-.7.3Zm-9-11.4c.3 2.5 1.5 7.9 7.8 9.2a11.16 11.16 0 0 0-7.8-9.2Z"/><path class="cls-8" d="M275.4 196.8s-.5 12.1 11.6 13.4c0 0-.6-11.4-11.6-13.4Z"/><path class="cls-2" d="M287 211.4h-.1c-13-1.4-12.6-14.5-12.6-14.6a1.49 1.49 0 0 1 .4-.9 1 1 0 0 1 .9-.2c11.8 2.2 12.5 14.4 12.5 14.5a1.09 1.09 0 0 1-.4.9.78.78 0 0 1-.7.3Zm-10.3-13.1c.3 2.9 1.8 9 9 10.5-.6-2.7-2.4-8.6-9-10.5Z"/><path class="cls-8" d="M287.6 198.7s6.2-7.8-1.1-14.5c0 0-5.2 7.7 1.1 14.5Z"/><path class="cls-2" d="M287.6 199.6a.91.91 0 0 1-.7-.3c-6.7-7.2-1.3-15.6-1.2-15.7a1 1 0 0 1 .7-.4 1.88 1.88 0 0 1 .8.2c7.9 7.3 1.3 15.7 1.2 15.8a.91.91 0 0 1-.8.4Zm-.9-13.9c-1 2.1-2.6 6.8.8 11.3a9.23 9.23 0 0 0-.8-11.3Z"/><path class="cls-8" d="M287.8 201.4s9.9-1 9.6-11c-.1 0-9.2 1.8-9.6 11Z"/><path class="cls-2" d="M287.8 202.3a1 1 0 0 1-1-1c.4-9.8 10.3-11.8 10.4-11.9a.78.78 0 0 1 .8.2 1.61 1.61 0 0 1 .4.7c.2 10.8-10.4 12-10.6 12Zm8.6-10.6a10.51 10.51 0 0 0-7.5 8.5c2.2-.6 7.1-2.5 7.5-8.5Z"/><path class="cls-3" d="M278.9 236.6h18.7V256h-18.7z"/><path class="cls-2" d="M297.6 255.2H279a3.51 3.51 0 0 1 .5.8v-19.4a3.51 3.51 0 0 0-.5.8h18.6a3.51 3.51 0 0 1-.5-.8V256c0 1 1.1 1 1.1 0v-19.4c0-.4-.2-.8-.5-.8h-18.6c-.3 0-.5.4-.5.8V256c0 .4.2.8.5.8h18.6c.6-.1.6-1.6-.1-1.6Z"/><path class="cls-3" d="M276.6 232.8h23.2v3.8h-23.2z"/><path class="cls-2" d="M299.9 235.8h-23.3a3.51 3.51 0 0 1 .5.8v-3.8a3.51 3.51 0 0 0-.5.8h23.3a3.51 3.51 0 0 1-.5-.8v3.8c0 1 1.1 1 1.1 0v-3.8c0-.4-.2-.8-.5-.8h-23.3c-.3 0-.5.4-.5.8v3.8c0 .4.2.8.5.8H300c.6 0 .6-1.6-.1-1.6ZM235 191.6h.2a.37.37 0 0 1 .3.1c.1.1.1.1.1.2a.37.37 0 0 1-.1.3c-.1.1-.1.1-.2.1H233c-.1 0-.2 0-.2-.1s-.1-.1-.1-.3a.35.35 0 0 1 .4-.4h.5v-4.3h-.3a.75.75 0 0 1-.5-.1c-.1 0-.1-.1-.1-.3a.37.37 0 0 1 .1-.3c.1-.1.1-.1.2-.1h4.2c.1 0 .2 0 .2.1a.37.37 0 0 1 .1.3v1.2c0 .1 0 .2-.1.2s-.1.1-.2.1a.37.37 0 0 1-.3-.1c-.1-.1-.1-.2-.1-.5v-.7h-2.6v1.6h1.3v-.1a.75.75 0 0 1 .1-.5c0-.1.1-.1.2-.1s.2 0 .2.1.1.2.1.3v1.2c0 .2 0 .3-.1.3s-.1.1-.2.1-.2 0-.2-.1a2 2 0 0 1-.1-.5v-.1h-1.3v2.1h.8Zm7.6-1.2a.75.75 0 0 1 .1-.5c0-.1.1-.1.3-.1a.37.37 0 0 1 .3.1c.1.1.1.1.1.3v1.8a.37.37 0 0 1-.1.3c-.1.1-.1.1-.3.1h-4.4a.37.37 0 0 1-.3-.1c-.1-.1-.1-.1-.1-.3a.37.37 0 0 1 .1-.3 2 2 0 0 1 .5-.1h.6v-4.3h-.6a.75.75 0 0 1-.5-.1c-.1 0-.1-.1-.1-.3a.37.37 0 0 1 .1-.3c.1-.1.1-.1.3-.1h2.5a.37.37 0 0 1 .3.1c.1.1.1.1.1.3a.37.37 0 0 1-.1.3 2 2 0 0 1-.5.1h-.8v4.3h2.5v-1.2Zm6.7-.9a2.82 2.82 0 0 1-.7 2.1 2.17 2.17 0 0 1-1.8.8 2.34 2.34 0 0 1-1.8-.8 3.14 3.14 0 0 1-.7-2.1 2.82 2.82 0 0 1 .7-2.1 2.17 2.17 0 0 1 1.8-.8 2.2 2.2 0 0 1 1.8.8 3.3 3.3 0 0 1 .7 2.1Zm-2.6 2.3a1.61 1.61 0 0 0 1.3-.6 3.14 3.14 0 0 0 0-3.4 1.49 1.49 0 0 0-1.3-.6 1.61 1.61 0 0 0-1.3.6 3.14 3.14 0 0 0 0 3.4 2 2 0 0 0 1.3.6Zm4.6-.7.8-2.8a.35.35 0 0 1 .1-.2h.6a.35.35 0 0 1 .1.2l.9 2.9.5-3.8h-.7c-.1 0-.3 0-.3-.1s-.1-.1-.1-.2a.37.37 0 0 1 .1-.3c.1 0 .2-.1.4-.1h1.5c.1 0 .1 0 .2.1s.1.1.1.2 0 .2-.1.2a.37.37 0 0 1-.3.1h-.1l-.7 4.8c0 .1 0 .2-.1.2h-.6a.35.35 0 0 1-.1-.2l-1-3.3-.9 3.3c0 .1-.1.1-.1.2h-.6a.35.35 0 0 1-.1-.2l-.7-4.7h-.1a.37.37 0 0 1-.3-.1c-.1-.1-.1-.1-.1-.2s0-.2.1-.2.1-.1.2-.1h1.5c.2 0 .3 0 .4.1s.1.1.1.3 0 .2-.1.2a.37.37 0 0 1-.3.1h-.7Zm5 1.2h-.2a.37.37 0 0 1-.3-.1c-.1-.1-.1-.1-.1-.3a.37.37 0 0 1 .1-.3 2 2 0 0 1 .5-.1h.3v-4.3h-.3a.75.75 0 0 1-.5-.1c-.1 0-.1-.1-.1-.3a.37.37 0 0 1 .1-.3c.1-.1.1-.1.3-.1h4.1c.1 0 .2 0 .2.1a.37.37 0 0 1 .1.3v1.1c0 .2 0 .3-.1.3s-.1.1-.3.1a.37.37 0 0 1-.3-.1 2 2 0 0 1-.1-.5v-.7h-2.5v1.6h1.2v-.3c0-.2 0-.3.1-.4s.1-.1.2-.1.2 0 .2.1a2 2 0 0 1 .1.5v.9a.75.75 0 0 1-.1.5c0 .1-.1.1-.2.1s-.2 0-.2-.1-.1-.2-.1-.4v-.2h-1.2v2.1h2.5v-.8a.75.75 0 0 1 .1-.5c0-.1.1-.1.3-.1a.37.37 0 0 1 .3.1c0 .1.1.2.1.4v1.2a.37.37 0 0 1-.1.3c-.1.1-.1.1-.2.1h-3.9Zm6.9-.7h.3c.2 0 .3 0 .4.1s.1.1.1.3a.37.37 0 0 1-.1.3c-.1.1-.2.1-.4.1h-1.6c-.1 0-.2 0-.2-.1s-.1-.1-.1-.3a.35.35 0 0 1 .4-.4h.5v-4.3h-.3a.75.75 0 0 1-.5-.1c-.1 0-.1-.1-.1-.3s0-.2.1-.2.1-.1.2-.1h2a3.42 3.42 0 0 1 1.1.1 1.42 1.42 0 0 1 .6.2 1 1 0 0 1 .5.6 1.88 1.88 0 0 1 .2.8 1.22 1.22 0 0 1-.3.9 1.35 1.35 0 0 1-.9.5.22.22 0 0 1 .2.2l.2.2 1 1.5h.2c.2 0 .3 0 .4.1s.1.1.1.3a.37.37 0 0 1-.1.3c-.1.1-.1.1-.2.1h-.5c-.2 0-.3-.1-.5-.3l-.9-1.4c-.2-.3-.3-.5-.5-.5a.75.75 0 0 0-.5-.1h-.6v1.5Zm0-4.3v1.9h1a2.51 2.51 0 0 0 1-.2.91.91 0 0 0 .3-.7.78.78 0 0 0-.3-.7c-.2-.2-.5-.2-1-.2h-1Z"/></svg>