<svg id="Layer_1" data-name="Layer 1" xmlns="http://www.w3.org/2000/svg" viewBox="0 0 350 350"><defs><style>.cls-1{opacity:.48}.cls-2{fill:#424243}.cls-4{fill:#f0f1f1}.cls-5{fill:#00b289}.cls-6{fill:#9ed1e3}.cls-7{fill:#cfd0d2}.cls-8{fill:#bcd589}.cls-10{fill:#837fcb}.cls-13{fill:#b94f49}.cls-14{fill:#ddb99f}.cls-15{fill:#cfac98}.cls-16{fill:#d6ae99}.cls-17{fill:#f1e8db}.cls-18{fill:#313131}.cls-19{fill:#c37e77}.cls-20{opacity:.5}.cls-23{opacity:.98}.cls-24{fill:#dc8d98}.cls-25{fill:#4e4e4e}.cls-26{fill:#5e738c}.cls-28{fill:#c6a693}.cls-34{fill:#59595b}.cls-36{fill:#fdfce7}.cls-41{fill:#e9b13d}.cls-43{opacity:.68}</style></defs><g class="cls-1"><path class="cls-2" d="M136.3 312.6H69.1a1.79 1.79 0 0 1-1.8-1.8v-1.5a1.79 1.79 0 0 1 1.8-1.8h67.2a1.79 1.79 0 0 1 1.8 1.8v1.5a1.79 1.79 0 0 1-1.8 1.8Z"/></g><path style="fill:#b8d8d0" d="M271.5 269.2H69.8V45.5l201.7 21.1v202.6z"/><path class="cls-2" d="M271.5 270.9H69.8a1.58 1.58 0 0 1-1.6-1.6V45.5a1.66 1.66 0 0 1 .5-1.2 1.48 1.48 0 0 1 1.3-.4L271.7 65a1.71 1.71 0 0 1 1.5 1.6v202.7a1.61 1.61 0 0 1-1.7 1.6Zm-200-3.3h198.4V68.1L71.5 47.3Z"/><path class="cls-4" d="M54.1 268.8h232.3v11.5H54.1z"/><path class="cls-2" d="M56.6 280.3v-11.5l-2.1 2.1h222.9c2.9 0 6.2.4 9 0h.4l-2.1-2.1v11.5c0 2.7 4.3 2.7 4.3 0v-11.5a2.11 2.11 0 0 0-2.1-2.1H83.1c-9.4 0-18.8-.3-28.2 0h-.4a2.11 2.11 0 0 0-2.1 2.1v11.5a2.1 2.1 0 1 0 4.2 0Z"/><g class="cls-1"><path class="cls-2" d="M158.8 291.5H54.5a1.58 1.58 0 0 1-1.6-1.6v-.3a1.58 1.58 0 0 1 1.6-1.6h104.3a1.58 1.58 0 0 1 1.6 1.6v.3a1.72 1.72 0 0 1-1.6 1.6Z"/></g><g class="cls-1"><path class="cls-2" d="M271.2 299.5H146.3a1.75 1.75 0 0 1-1.7-1.7v-1.2a1.75 1.75 0 0 1 1.7-1.7h124.8a1.75 1.75 0 0 1 1.7 1.7v1.2a1.55 1.55 0 0 1-1.6 1.7Z"/></g><g class="cls-1"><path class="cls-2" d="M285.1 299.5h-6.9a1.75 1.75 0 0 1-1.7-1.7v-1.2a1.75 1.75 0 0 1 1.7-1.7h6.9a1.75 1.75 0 0 1 1.7 1.7v1.2a1.63 1.63 0 0 1-1.7 1.7Z"/></g><path class="cls-5" transform="rotate(-83.21 171.723 57.987)" d="M166.42-53.66h10.6v223.3h-10.6z"/><path class="cls-2" d="M283.4 63.8c-7.4-.9-14.8-1.8-22.2-2.6l-53-6.3c-21.3-2.5-42.7-5.1-64-7.6l-55.3-6.6C80 39.6 71 38.2 62.1 37.5h-.4a2.27 2.27 0 0 0-2.4 1.9c-.4 3.5-.8 7-1.3 10.6a2.27 2.27 0 0 0 1.9 2.4c7.4.9 14.8 1.8 22.2 2.6l53 6.3c21.3 2.5 42.7 5.1 64 7.6l55.3 6.6c8.9 1.1 17.9 2.5 26.9 3.2h.4a2.27 2.27 0 0 0 2.4-1.9c.4-3.5.8-7 1.3-10.6.3-2.7-3.9-3.2-4.2-.5-.4 3.5-.8 7-1.3 10.6.8-.6 1.6-1.2 2.4-1.9-7.4-.9-14.8-1.8-22.2-2.6l-53-6.3c-21.3-2.5-42.7-5.1-64-7.6l-55.3-6.6c-6.1-.7-12.1-1.4-18.2-2.2-2.8-.3-5.9-1.1-8.7-1h-.4c.6.8 1.2 1.6 1.9 2.4.4-3.5.8-7 1.3-10.6-.8.6-1.6 1.2-2.4 1.9 7.4.9 14.8 1.8 22.2 2.6l53 6.3c21.3 2.5 42.7 5.1 64 7.6l55.3 6.6c8.9 1.1 17.9 2.5 26.9 3.2h.4c2.5.3 3.1-4 .3-4.3Z"/><path class="cls-4" d="M215.8 159.8h36.6V268h-36.6z"/><path class="cls-2" d="M252.4 266h-36.6l2.1 2.1V159.8l-2.1 2.1h36.6l-2.1-2.1v108.3c0 2.7 4.3 2.7 4.3 0V159.8a2.11 2.11 0 0 0-2.1-2.1h-36.6a2.11 2.11 0 0 0-2.1 2.1v108.3a2.11 2.11 0 0 0 2.1 2.1h36.6c2.6 0 2.6-4.2-.1-4.2Z"/><path class="cls-6" d="M221.9 239.1h23.4v23.5h-23.4zm0-69.3h23.4v63.4h-23.4z"/><path class="cls-7" d="M269.8 258.5h-5.5a2.38 2.38 0 0 0-2.3 2.5v1.2a2.38 2.38 0 0 0 2.3 2.5h5.5Z"/><path class="cls-2" d="M270.2 265.2h-6a2.88 2.88 0 0 1-2.8-2.9v-1.2a2.82 2.82 0 0 1 2.8-2.9h6Zm-5.9-6.2a2 2 0 0 0-1.9 2.1v1.2a2 2 0 0 0 1.9 2.1h5.1V259Z"/><path class="cls-5" d="M59.1 101.5h223.6v10.6H59.1z"/><path class="cls-2" d="M282.7 99.4h-196c-9 0-18.2-.3-27.2 0h-.4a2.11 2.11 0 0 0-2.1 2.1v10.6a2.11 2.11 0 0 0 2.1 2.1h196c9 0 18.2.3 27.2 0h.4a2.11 2.11 0 0 0 2.1-2.1v-10.6c0-2.7-4.3-2.7-4.3 0v10.6l2.1-2.1H68.1c-2.8 0-6-.4-8.8 0h-.4l2.1 2.1v-10.6l-2.1 2.1h196c9 0 18.2.3 27.2 0h.4c2.9 0 2.9-4.2.2-4.2Z"/><path class="cls-7" d="M206.3 268.8h55.6v5.4h-55.6z"/><path class="cls-2" d="M262.5 274.9h-56.9v-6.7h56.9Zm-55.6-1.3h54.3v-4.2h-54.3v4.2Z"/><path class="cls-7" d="M206.3 278.1h55.6v4.5h-55.6z"/><path class="cls-2" d="M262.5 283.2h-56.9v-5.8h56.9Zm-55.6-1.2h54.3v-3.3h-54.3v3.3Z"/><path class="cls-8" d="M291.6 239.3c-3.2-5.8-6.7-16.5-15.4-16.3-9.7.2-11.2 10.1-14.7 16.3-2 3.7-4.1 7.5-3.8 11.6.4 5.4 6.4 9.1 12 9.1h13.6c5.6 0 11.7-3.8 12-9.1.5-4-1.6-7.9-3.7-11.6Z"/><path class="cls-2" d="M293.5 238.3c-3.8-6.9-7.2-16.9-16.5-17.4a13.33 13.33 0 0 0-11.1 5.2c-2.5 3.3-3.7 7.3-5.6 11-2.4 4.9-5.9 10.1-4.4 15.8 1.2 4.8 6 8.1 10.7 9 3 .6 6.3.3 9.3.3h7.1c4.8 0 9.8-1.9 12.7-5.9 4.1-5.7.8-12.6-2.2-18Zm-1.3 15.6c-2.1 2.9-5.8 4-9.2 4h-12.8c-3.4 0-7.1-1.2-9.2-4-3.1-4.2.3-9.7 2.4-13.5 2.8-5.3 4.4-14 11.4-15.1 8.6-1.4 11.8 9.3 15 15.1 2.1 3.8 5.4 9.4 2.4 13.5Z"/><path class="cls-4" d="M258.4 266.6h36.4V291h-36.4z"/><path class="cls-2" d="M294.8 288.9h-36.3l2.1 2.1v-24.4l-2.1 2.1h36.3l-2.1-2.1V291c0 2.7 4.3 2.7 4.3 0v-24.4a2.11 2.11 0 0 0-2.1-2.1h-36.3a2.11 2.11 0 0 0-2.1 2.1V291a2.11 2.11 0 0 0 2.1 2.1h36.3c2.6 0 2.6-4.2-.1-4.2Z"/><path class="cls-2" d="M274.4 251.7v14.6c0 2.7 4.3 2.7 4.3 0v-14.6c0-2.8-4.3-2.8-4.3 0Z"/><path class="cls-6" d="M80.2 160.9h126.5v99.2H80.2z"/><g style="opacity:.74"><path class="cls-4" d="M102.4 247.5h3.7v13.4h-3.7z"/><path class="cls-2" d="M106.2 261.4h-3.7a.47.47 0 0 1-.5-.5v-13.4a.47.47 0 0 1 .5-.5h3.7a.47.47 0 0 1 .5.5v13.4a.47.47 0 0 1-.5.5Zm-3.2-1.1h2.7V248H103Z"/><path class="cls-10" d="M116.8 248.3h-25a.9.9 0 0 1-.9-.9v-5.3a.9.9 0 0 1 .9-.9h25a.9.9 0 0 1 .9.9v5.3a.9.9 0 0 1-.9.9Z"/><path class="cls-2" d="M116.8 249.5h-25a2.11 2.11 0 0 1-2.1-2.1v-5.3a2.11 2.11 0 0 1 2.1-2.1h25a2.11 2.11 0 0 1 2.1 2.1v5.3a2.11 2.11 0 0 1-2.1 2.1Zm-24.7-2.3h24.4v-4.7H92.1Z"/><path class="cls-4" d="M141.7 247.5h3.7v13.4h-3.7z"/><path class="cls-2" d="M145.5 261.4h-3.7a.47.47 0 0 1-.5-.5v-13.4a.47.47 0 0 1 .5-.5h3.7a.47.47 0 0 1 .5.5v13.4a.47.47 0 0 1-.5.5Zm-3.2-1.1h2.7V248h-2.7Z"/><path class="cls-10" d="M156.1 248.3h-25a.9.9 0 0 1-.9-.9v-5.3a.9.9 0 0 1 .9-.9h25a.9.9 0 0 1 .9.9v5.3a.9.9 0 0 1-.9.9Z"/><path class="cls-2" d="M156.1 249.5h-25a2.11 2.11 0 0 1-2.1-2.1v-5.3a2.11 2.11 0 0 1 2.1-2.1h25a2.11 2.11 0 0 1 2.1 2.1v5.3a2.11 2.11 0 0 1-2.1 2.1Zm-24.7-2.3h24.4v-4.7h-24.4Z"/><path class="cls-4" d="M181 247.5h3.7v13.4H181z"/><path class="cls-2" d="M184.8 261.4H181a.47.47 0 0 1-.5-.5v-13.4a.47.47 0 0 1 .5-.5h3.7a.47.47 0 0 1 .5.5v13.4c.1.3-.1.5-.4.5Zm-3.2-1.1h2.7V248h-2.7Z"/><path d="M195.4 248.3h-25a.9.9 0 0 1-.9-.9v-5.3a.9.9 0 0 1 .9-.9h25a.9.9 0 0 1 .9.9v5.3a.9.9 0 0 1-.9.9Z" style="fill:#d0534f"/><path class="cls-2" d="M195.4 249.5h-25a2.11 2.11 0 0 1-2.1-2.1v-5.3a2.11 2.11 0 0 1 2.1-2.1h25a2.11 2.11 0 0 1 2.1 2.1v5.3a2.18 2.18 0 0 1-2.1 2.1Zm-24.7-2.3h24.4v-4.7h-24.4Z"/></g><path class="cls-2" d="M206.8 158.7H80.2a2.22 2.22 0 0 0-2.2 2.2v99.2a2.22 2.22 0 0 0 2.2 2.2h126.6a2 2 0 0 0 1.5-.6l.1-.1a1.75 1.75 0 0 0 .6-1.5v-99.2a2.36 2.36 0 0 0-2.2-2.2Zm-42.9 99.2H82.4V163h122.2v94.9Z"/><g style="opacity:.71"><path class="cls-13" d="M164.5 194.4a.47.47 0 0 1-.5.5h-.4a.47.47 0 0 1-.5-.5.47.47 0 0 1 .5-.5h.4c.3-.1.5.2.5.5Z"/><path class="cls-10" d="M154.4 202.4s-6.2 4.5-3.1 8.3 7.4-3.1 7.4-3.1Z"/><path class="cls-14" d="M173.6 219.6c0 4-4.1 7.2-9 7.2h-.2c-5 0-9-3.2-9-7.2v-14.5c0-4 4.1-7.2 9-7.2h.2c5 0 9 3.2 9 7.2Z"/><path class="cls-14" transform="rotate(-89.85 164.006 218.998)" d="M160.67 212.6h6.7v12.8h-6.7z"/><path class="cls-14" d="m173.6 216.1-18.2-.3v-6.4h18.2v6.7z"/><path class="cls-14" d="M155.5 208.2a2.15 2.15 0 0 0-2.1 2.1 2 2 0 0 0 2.1 2Z"/><path class="cls-15" d="M155 209a1.2 1.2 0 1 0 0 2.4Z"/><path class="cls-14" d="M173.4 208.2a2.15 2.15 0 0 1 2.1 2.1 2 2 0 0 1-2.1 2Z"/><path class="cls-15" d="M173.8 209a1.2 1.2 0 0 1 0 2.4Z"/><path class="cls-14" d="M173.6 214.6a.68.68 0 0 1-.7.7h-16.7a.68.68 0 0 1-.7-.7v-9.4a.68.68 0 0 1 .7-.7h16.7a.68.68 0 0 1 .7.7Z"/><path class="cls-16" d="M161.4 198.2a17.55 17.55 0 0 0-2.4 1.1 6.45 6.45 0 0 0-3.1 3c-.7 1.8-.5 3.8-.5 5.7v7.8a14.12 14.12 0 0 1 2.2.1c.5 0 1.2.2 1.4-.3s-.4-1.7-.4-2.3a39.45 39.45 0 0 1 .6-9.1c.1-.5.3-1 .4-1.4.3-.9.8-1.8 1.1-2.7a4.14 4.14 0 0 1 1.8-1.9 4 4 0 0 0-1.1 0Z"/><path class="cls-17" d="M166.2 213.9a.47.47 0 0 1-.5.5.47.47 0 0 1-.5-.5v-.9a.47.47 0 0 1 .5-.5.47.47 0 0 1 .5.5Z"/><path class="cls-14" d="M173.5 230.3v-13.2h-4.9v.9a4 4 0 0 1-4.2 3.9l-5.8-4.8h-3.2v13.2Z"/><path class="cls-10" d="m173.6 230.3.2-14.4h-18.4v14.4h18.2z"/><path class="cls-18" d="M160.7 205.7a1.06 1.06 0 0 1 1.4 0c.2.1.4-.1.2-.2a1.39 1.39 0 0 0-1.9 0c-.1.1.2.4.3.2Z"/><path class="cls-19" d="M164.9 208.1v2.9a.9.9 0 1 0 1.8 0v-2.9Z"/><path class="cls-18" d="M168.9 205.5a1.06 1.06 0 0 1 1.4 0c.2.1.4-.1.2-.2a1.39 1.39 0 0 0-1.9 0c-.1.1.1.3.3.2Zm-1.8 3.3a2.57 2.57 0 0 0-3.1 0l-.2-.3a3 3 0 0 1 3.5 0Z"/><path class="cls-18" d="M174.2 205.9c-.1.4-.1.9-.2 1.3s-.2.7-.3 1.1c0 0-.2.5-.1.5-.1-.1-.2-.1-.4-.2l-.4-.2.4-3.8c-1.3-.9-3.8-2.6-3.8-2.6a13.09 13.09 0 0 1-5.1 2.8c-2.8.8-5.7.4-8.6.4a18.41 18.41 0 0 0 .3 3.3 5.3 5.3 0 0 1-1 .6c-.9-3.3-1.2-7.4 1.6-9.9a11.29 11.29 0 0 1 3.1-2.1c2.5-1 5.5-1.9 8.2-1.2 3.2.9 6.3 3.1 6.5 6.6a15.06 15.06 0 0 1-.1 3 .6.6 0 0 1-.1.4Z"/><circle cx="161.4" cy="208.6" r="2.4" style="fill:#f5dc58" class="cls-20"/><path d="M172.3 208.4a2.6 2.6 0 1 1-2.6-2.6 2.52 2.52 0 0 1 2.6 2.6Z" style="fill:#94b7e1" class="cls-20"/><path class="cls-18" d="M161.4 211.2a2.6 2.6 0 1 1 2.6-2.6 2.58 2.58 0 0 1-2.6 2.6Zm0-4.8a2.2 2.2 0 1 0 2.2 2.2 2.1 2.1 0 0 0-2.2-2.2Zm8.3 4.8a2.8 2.8 0 1 1 2.8-2.8 2.86 2.86 0 0 1-2.8 2.8Zm0-5.2a2.4 2.4 0 1 0 2.4 2.4 2.43 2.43 0 0 0-2.4-2.4Z"/><g class="cls-23"><path class="cls-24" d="M163.4 212.5c0 .6-.7 1-1.6 1s-1.6-.4-1.6-1 .7-1 1.6-1 1.6.4 1.6 1Z"/></g><g class="cls-23"><ellipse class="cls-24" cx="170.3" cy="212.5" rx="1.6" ry="1"/></g><path class="cls-14" transform="rotate(-89.85 186.37 218.893)" d="M183.03 212.5h6.7v12.8h-6.7z"/><path class="cls-14" d="M178.2 208.1a2.15 2.15 0 0 0-2.1 2.1 2 2 0 0 0 2.1 2Z"/><path class="cls-15" d="M177.8 208.9a1.2 1.2 0 0 0 0 2.4Z"/><path class="cls-14" d="M195.8 208.1a2.15 2.15 0 0 1 2.1 2.1 2 2 0 0 1-2.1 2Z"/><path class="cls-15" d="M196.2 209a1.2 1.2 0 1 1 0 2.4Z"/><path class="cls-14" d="M196 209.3V205c0-4-4-7.2-9-7.2h-.2c-4.9 0-8.9 3.1-9 7 0 .1-.1.2-.1.4v14.3c0 4 4 7.2 9 7.2h.2c5 0 8.8-3.2 8.8-7.2l.1-3.8h.2Z"/><path class="cls-16" d="M181.7 204c.1-.5.3-1 .4-1.4.3-.9.8-1.8 1.1-2.7a4.14 4.14 0 0 1 1.8-1.9 5 5 0 0 0-1.2.2 17.55 17.55 0 0 0-2.4 1.1 6.45 6.45 0 0 0-3.1 3c-.7 1.8-.5 3.8-.5 5.7.1 2.6 0 5.2 0 7.8 0-.2 2.1.1 2.3.1.5 0 1.2.2 1.4-.3s-.4-1.7-.4-2.3c0-3.2-.2-6.3.6-9.3Z"/><path class="cls-19" d="m183.9 212.1 2.2.1v-4l-2.2 3.9z"/><path class="cls-17" d="M186 214.3a.47.47 0 0 1-.5.5.47.47 0 0 1-.5-.5v-.9a.47.47 0 0 1 .5-.5.47.47 0 0 1 .5.5Z"/><path class="cls-14" d="M195.8 230.3V217h-4.9v.9a4 4 0 0 1-4.2 3.9l-5.8-4.8h-3.2v13.3Z"/><path class="cls-18" d="M182.6 208.8a.6.6 0 1 1-.6-.6.58.58 0 0 1 .6.6Z"/><path class="cls-25" d="M182.3 208.8a.3.3 0 1 1-.3-.3.27.27 0 0 1 .3.3Z"/><path class="cls-18" d="M189.9 208.8a.6.6 0 1 1-.6-.6.65.65 0 0 1 .6.6Z"/><path class="cls-25" d="M189.6 208.9a.3.3 0 1 1-.3-.3c.2-.1.3.1.3.3Z"/><path class="cls-26" d="M195.9 230.3v-14.5l-18.2-.1v14.6h18.2z"/><path d="M196 207.7V206a9.74 9.74 0 0 0-.2-2.4 7.17 7.17 0 0 0-3.9-4.9 11.33 11.33 0 0 0-6.8-1.1 11.49 11.49 0 0 0-3.7 1.2 8.14 8.14 0 0 0-2.8 2.4c-1 1.5-1 3.3-1 5a8.55 8.55 0 0 1 0 1.6 7.49 7.49 0 0 0 1.6-.5c2.5-.8 14-3.1 13.8-5v.6a6.15 6.15 0 0 0 .1 1.4 5.1 5.1 0 0 0 1.1 3.1 2.16 2.16 0 0 0 1.7.5c.1 0 .1-.1.1-.2Z" style="fill:#222"/><path class="cls-18" d="M181.7 207.7h1.7a.3.3 0 1 0 0-.6h-1.7a.3.3 0 0 0 0 .6Zm6.9 0a1.05 1.05 0 0 1 1.3 0c.3.2.7-.2.4-.4a1.54 1.54 0 0 0-2.1 0 .28.28 0 1 0 .4.4Z"/><path class="cls-28" d="M181.5 210.3c0 .1-.1.1-.3.1a1 1 0 0 1-.3-.1c0-.1.1-.1.3-.1s.3 0 .3.1Zm.9.5c0 .1-.1.1-.3.1a1 1 0 0 1-.3-.1c0-.1.1-.1.3-.1s.3 0 .3.1Zm.3-.6c0 .1-.1.1-.2.1s-.2 0-.2-.1.1-.1.2-.1a.35.35 0 0 1 .2.1Zm6.1.9c0 .1-.1.1-.2.1s-.2 0-.2-.1.1-.1.2-.1.2 0 .2.1Zm1.4-1.1c0 .1-.1.1-.2.1s-.2 0-.2-.1.1-.1.2-.1a.35.35 0 0 1 .2.1Zm-1.7.4c0 .1-.1.1-.3.1a1 1 0 0 1-.3-.1c0-.1.1-.1.3-.1a.44.44 0 0 1 .3.1Zm1.2.8c0 .1-.1.1-.3.1a.17.17 0 1 1 0-.2c.2 0 .3 0 .3.1Zm1.1-.8c0 .1-.1.1-.3.1a1 1 0 0 1-.3-.1c0-.1.1-.1.3-.1a.44.44 0 0 1 .3.1Zm-1.1.2c0 .1-.1.1-.2.1a.35.35 0 0 1-.2-.1c0-.1.1-.1.2-.1s.2 0 .2.1Zm-8.3.6c0 .1-.1.1-.2.1a.13.13 0 1 1 0-.2c.1 0 .2 0 .2.1Z"/><ellipse class="cls-28" cx="180.5" cy="210.8" rx=".2" ry=".1"/><path class="cls-14" d="M197.5 230.3h2.6a12.39 12.39 0 0 0 .7-4c0-5.9-4.9-10.6-4.9-10.6l.1 4.2a11.48 11.48 0 0 1 1.5 10.4Z"/><path class="cls-26" d="M197 222.5h3.3c-.4-3.7-4.5-6.8-4.5-6.8l.1 4.2a18.7 18.7 0 0 1 1.1 2.6Z"/><path d="M191.2 194.3c-2.9-1.7-7.9-2.1-10.1 1.3 0 0-4.4 4.3 14.8 8.9 0-4.4-.6-7.9-4.7-10.2Z" style="fill:#566a7d"/><path style="fill:#828f98" d="m195.7 230.3.9-.1v-.7h-41.5v.8h40.6z"/><path class="cls-10" d="M177.1 223.8v-5.7c0-1.2-1.3-2.2-2.9-2.2s-2.9 1-2.9 2.2v5.7Z"/><path class="cls-26" d="M179.6 223.6v-5.7a2.2 2.2 0 1 0-4.4 0v5.7Z"/><path d="M183.2 218.6a.47.47 0 0 0-.5-.5h-16.9a.47.47 0 0 0-.5.5V229a.47.47 0 0 0 .5.5h16.9a.47.47 0 0 0 .5-.5Z" style="fill:#e0e0e0"/><g style="opacity:.7"><path d="M181.9 219.4a.43.43 0 0 0-.4-.4h-15.2a.43.43 0 0 0-.4.4v9.4a.43.43 0 0 0 .4.4h15.2a.43.43 0 0 0 .4-.4Z" style="fill:#cacaca"/></g><g class="cls-20"><path class="cls-34" d="M182.5 218.9a2 2 0 0 1-2.2 1.9 2.11 2.11 0 0 1-2.2-1.9 2.22 2.22 0 0 1 4.4 0Z"/></g><g class="cls-20"><path class="cls-34" d="M168.3 226.5h-2.9v2.6h2.9a1.3 1.3 0 0 0 0-2.6Z"/></g><path class="cls-14" d="M167.8 226.9h-11.7v-5.5a1.2 1.2 0 1 0-2.4 0v6.8a1.32 1.32 0 0 0 1.3 1.3h12.9a1.32 1.32 0 0 0 1.3-1.3 1.42 1.42 0 0 0-1.4-1.3Z"/><path class="cls-10" d="M156.9 223.8v-5.7a2.2 2.2 0 0 0-4.4 0v5.7Z"/><path d="M174.5 223.6a.77.77 0 0 1-.7-.8.37.37 0 0 1 .1-.3h-.2a1.31 1.31 0 0 0-1.2 1.3 1.24 1.24 0 0 0 1.2 1.3h.3a1.31 1.31 0 0 0 1.2-1.3.9.9 0 0 0-.1-.5.71.71 0 0 1-.6.3Z" style="fill:#3e3e3e"/><path class="cls-14" d="M182.9 218.5a2 2 0 0 1-2.2 1.9 2.11 2.11 0 0 1-2.2-1.9 2 2 0 0 1 2.2-1.9 2.11 2.11 0 0 1 2.2 1.9Z"/><g class="cls-20"><path class="cls-34" d="M198.9 218a2.18 2.18 0 0 1-2.6 1.4 2 2 0 0 1-1.7-2.4 2.18 2.18 0 0 1 2.6-1.4 2.24 2.24 0 0 1 1.7 2.4Z"/></g><path class="cls-14" d="M199.2 217.5a2.18 2.18 0 0 1-2.6 1.4 2 2 0 0 1-1.7-2.4 2.18 2.18 0 0 1 2.6-1.4 2.15 2.15 0 0 1 1.7 2.4Z"/><path class="cls-36" d="m154.4 203.9 19.8-2.6s-1.5-8.3-11.6-6.8c-9.1 1.5-8.2 9.4-8.2 9.4Z"/><path class="cls-18" d="M169.3 200a2.66 2.66 0 0 0-2.9-2.2 2.56 2.56 0 0 0-2.4 2.7Z"/><path class="cls-13" d="M169.3 200a.73.73 0 0 1-.6.7l-4.1.3a.73.73 0 0 1-.7-.6.73.73 0 0 1 .6-.7l4.1-.3a.67.67 0 0 1 .7.6Z"/><path class="cls-36" d="M165.6 200.4a.3.3 0 1 1-.3-.3.27.27 0 0 1 .3.3Zm1.3-.1a.3.3 0 1 1-.3-.3.27.27 0 0 1 .3.3Zm1.2-.2a.3.3 0 1 1-.3-.3q.3.2.3.3Z"/><path class="cls-34" d="M156.1 199.3a5.47 5.47 0 0 0-1.1 3.6 6.35 6.35 0 0 0 2.3-.5c.6-.1 1.3-.3 1.9-.4.8-.1 1.1.1.9-.8a6.64 6.64 0 0 1 .4-5c-.9-.3-2.5 1-3.1 1.6a10 10 0 0 0-1.3 1.5Z" style="opacity:.2"/><path class="cls-26" d="M183.9 196a7.72 7.72 0 0 1 4.1-1.6c-1.7.9-1.8 3.3-1.8 4.9 0 .4.2 1.3.2 2.2a66 66 0 0 0 9.5 2.9c0-4.4-.6-7.9-4.7-10.2-2.9-1.7-7.9-2.1-10.1 1.3 0 0-1.3 1.3.5 3.1a15.57 15.57 0 0 1 2.3-2.6Z"/><path d="M195.9 204.6s-14.4.6-18.1 0c0 0-4.8-3.8-1.2-7.5 3.1-3.1 15.7 2.5 19.3 7.5Z" style="fill:#f3d45b"/><path class="cls-4" d="M81.3 230.5h124.6v5.5H81.3z"/><g style="opacity:.79"><path class="cls-4" d="M115.1 215.8h-8.9l1.1 14.2h6.7l1.1-14.2z"/><path class="cls-2" d="M114 230.5h-6.8a.47.47 0 0 1-.5-.5l-1.1-14.2c0-.2 0-.3.1-.4a.76.76 0 0 1 .4-.2h9a.52.52 0 0 1 .4.2c.1.1.2.3.1.4l-1.1 14.2c.1.3-.2.5-.5.5Zm-6.2-1.1h5.8l1-13.1h-7.8Z"/><path class="cls-4" d="M114.2 212.5h-7.1l-1.1 1.6h9.3l-1.1-1.6z"/><path class="cls-2" d="M115.3 214.7H106a.55.55 0 0 1-.5-.3.64.64 0 0 1 0-.6l1.1-1.7c.1-.2.3-.2.5-.2h7.1a.76.76 0 0 1 .5.2l1.1 1.7a.64.64 0 0 1 0 .6.55.55 0 0 1-.5.3Zm-8.2-1.1h7.2l-.4-.6h-6.5Z"/><path class="cls-4" d="M105.2 214.3h11v2.1h-11z"/><path class="cls-2" d="M116.1 216.9h-11a.47.47 0 0 1-.5-.5v-2.1a.47.47 0 0 1 .5-.5h11a.47.47 0 0 1 .5.5v2.1c.1.3-.2.5-.5.5Zm-10.4-1.1h9.9v-1h-9.9Z"/><circle cx="110.8" cy="222.1" r="2.9" style="fill:#618247"/><path class="cls-41" d="M121.4 224.7c.3 2.2 2 4.7 4.2 4.7h4.7c2.1 0 3.9-2.4 4.2-4.7Z"/><path class="cls-2" d="M130.3 230h-4.7c-2.5 0-4.5-2.7-4.8-5.2 0-.2 0-.4.2-.5a.76.76 0 0 1 .5-.2h13.1c.2 0 .3.1.5.2a.76.76 0 0 1 .2.5c-.5 2.5-2.5 5.2-5 5.2Zm-8.1-4.6c.5 1.7 1.8 3.4 3.4 3.4h4.7c1.6 0 3-1.7 3.4-3.4Z"/><path class="cls-41" d="M134.8 223.5v-.5c0-3.2-3-5.8-6.8-5.8s-6.8 2.6-6.8 5.8v.5Z"/><path class="cls-2" d="M134.8 224h-13.5a.47.47 0 0 1-.5-.5v-.5c0-3.5 3.3-6.3 7.3-6.3s7.3 2.8 7.3 6.3v.5a.74.74 0 0 1-.6.5Zm-13.1-1h12.5c0-2.9-2.8-5.3-6.3-5.3s-6.2 2.4-6.2 5.3Z"/><path style="fill:#8b6739" d="M120.5 223.5h15v1.1h-15z"/><path class="cls-4" d="M129.7 218.9a.41.41 0 1 1-.4-.5c.3 0 .4.2.4.5Zm-3.5.5c0 .3-.2.5-.3.5s-.3-.2-.3-.5.2-.5.3-.5.3.2.3.5Z"/><ellipse class="cls-4" cx="131.7" cy="220.2" rx=".3" ry=".5"/><path class="cls-4" d="M128.1 219.6c0 .2-.1.3-.2.3s-.2-.1-.2-.3.1-.3.2-.3.2.1.2.3Zm-.9-1c0 .2-.1.3-.2.3s-.2-.1-.2-.3.1-.3.2-.3.2.1.2.3Zm-3.2 1.7c0 .2-.1.4-.3.4s-.3-.2-.3-.4.1-.4.3-.4.3.2.3.4Z"/></g><path class="cls-2" d="M205.9 234.9H81.3l1.1 1.1v-5.5l-1.1 1.1h124.6l-1.1-1.1v5.5a1.1 1.1 0 0 0 2.2 0v-5.5a1.11 1.11 0 0 0-1.1-1.1H81.3a1.11 1.11 0 0 0-1.1 1.1v5.5a1.11 1.11 0 0 0 1.1 1.1h124.6a1.1 1.1 0 0 0 0-2.2Z"/></g><path class="cls-8" d="M205.6 239.3c-3.2-5.8-6.7-16.5-15.4-16.3-9.7.2-11.2 10.1-14.7 16.3-2 3.7-4.1 7.5-3.8 11.6.4 5.4 6.4 9.1 12 9.1h13.6c5.6 0 11.7-3.8 12-9.1.5-4-1.6-7.9-3.7-11.6Z"/><path class="cls-2" d="M207.5 238.3c-3.8-6.9-7.2-16.9-16.5-17.4a13.33 13.33 0 0 0-11.1 5.2c-2.5 3.3-3.7 7.3-5.6 11-2.4 4.9-5.9 10.1-4.4 15.8 1.2 4.8 6 8.1 10.7 9 3 .6 6.3.3 9.3.3h7.1c4.8 0 9.8-1.9 12.7-5.9 4.1-5.7.8-12.6-2.2-18-1.3-2.4-5-.3-3.7 2.1 2.1 3.8 5.4 9.4 2.4 13.5-2.1 2.9-5.8 4-9.2 4h-12.8c-3.4 0-7.1-1.2-9.2-4-3.1-4.2.3-9.7 2.4-13.5 2.8-5.3 4.4-14 11.4-15.1 8.6-1.4 11.8 9.3 15 15.1 1.3 2.4 5 .3 3.7-2.1Z"/><path class="cls-4" d="M172.4 266.6h36.4V291h-36.4z"/><path class="cls-2" d="M208.8 288.9h-36.3l2.1 2.1v-24.4l-2.1 2.1h36.3l-2.1-2.1V291c0 2.7 4.3 2.7 4.3 0v-24.4a2.11 2.11 0 0 0-2.1-2.1h-36.3a2.11 2.11 0 0 0-2.1 2.1V291a2.11 2.11 0 0 0 2.1 2.1h36.3c2.6 0 2.6-4.2-.1-4.2Z"/><path class="cls-2" d="M188.4 251.7v14.6c0 2.7 4.3 2.7 4.3 0v-14.6c0-2.8-4.3-2.8-4.3 0Z"/><path class="cls-10" d="M82.4 164.6h122.2v2.2H82.4zm0 4.6h122.2v2.2H82.4zm0 4.6h122.2v2.2H82.4zm0 4.6h122.2v2.2H82.4zm0 4.5h122.2v2.2H82.4zm0 4.6h122.2v2.2H82.4zm0 4.6h122.2v2.2H82.4z"/><path class="cls-2" d="M204.7 195.6H82.5l-.1 3.3h122.2l.1-3.3z"/><path class="cls-4" d="M82.4 162.5h122.2v2.2H82.4zm0 4.5h122.2v2.2H82.4zm0 4.6h122.2v2.2H82.4zm0 4.6h122.2v2.2H82.4zm0 4.5h122.2v2.2H82.4zm0 4.6h122.2v2.2H82.4zm0 4.6h122.2v2.2H82.4zm0 4.6h122.2v2.2H82.4z"/><g class="cls-43"><path class="cls-4" d="M143.2 205.1 123.5 223c-1.6 1.5.8 3.9 2.4 2.4l19.7-17.9c1.6-1.5-.8-3.9-2.4-2.4Z"/></g><g class="cls-43"><path class="cls-4" d="M149 214.9c-3.7 4-7.5 7.9-11.2 11.9-1.5 1.6.9 4 2.4 2.4 3.7-4 7.5-7.9 11.2-11.9 1.5-1.6-.9-4-2.4-2.4Z"/></g><path class="cls-4" d="M80.2 117.7h176.5v36.4H80.2z"/><path class="cls-2" d="M256.7 155.8H80.2a1.58 1.58 0 0 1-1.6-1.6v-36.4a1.58 1.58 0 0 1 1.6-1.6h176.5a1.58 1.58 0 0 1 1.6 1.6v36.4a1.64 1.64 0 0 1-1.6 1.6Zm-174.8-3.3H255v-33.1H81.9Z"/><path class="cls-2" d="M86.9 146.5V126a1.27 1.27 0 0 1 1.4-1.2H99a1.21 1.21 0 1 1 0 2.4h-9.4v7.1h5.9a1.33 1.33 0 0 1 1.4 1.2 1.27 1.27 0 0 1-1.4 1.2h-5.9v9.9a1.34 1.34 0 0 1-1.4 1.2 1.48 1.48 0 0 1-1.3-1.3Zm13.7.1c0-.3 7.3-19.8 7.9-21.3a1.29 1.29 0 0 1 1.3-.8 1.44 1.44 0 0 1 1.3.8c.1.5 1 2.8 2.1 5.7 2.4 6.2 5.9 15.4 5.9 15.7a1.41 1.41 0 0 1-1.4 1.2 1.22 1.22 0 0 1-1.3-.9l-2.8-7.6h-7.5c-.9 2.6-1.9 5-2.9 7.6a1.42 1.42 0 0 1-1.3.9 1.48 1.48 0 0 1-1.3-1.3Zm6.4-9.6h5.7l-2.8-7.6Zm23.5-2.5c3.8 1.1 7.8 3.1 7.8 7.2 0 3.9-3.3 6.4-7.6 6.4-4.7 0-8.1-2.8-8.1-7a1.33 1.33 0 0 1 1.4-1.2c.9 0 1.3.5 1.3 1.1v.5a1.09 1.09 0 0 0 .1.5 4 4 0 0 0 2.2 2.9 5.32 5.32 0 0 0 3 .7c2.9 0 5-1.5 5-4 0-2.7-3.2-4.2-5.9-4.9-3.5-1-7.1-2.4-7.1-6.3 0-3.5 3.4-6 7.2-6 4.3 0 7.4 2.7 7.4 6.5a1.27 1.27 0 0 1-1.4 1.2 1.16 1.16 0 0 1-1.3-1v-.7c0-.2-.1-.6-.1-.7-.6-1.8-2.2-2.8-4.4-2.9h-.2c-2.4 0-4.5 1.5-4.5 3.6 0 2.5 2.8 3.4 5.2 4.1Zm26.2-8.3a1.27 1.27 0 0 1-1.4 1.2h-4.8v19.1a1.42 1.42 0 0 1-2.8 0v-19.1h-4.8a1.21 1.21 0 1 1 0-2.4h12.4a1.27 1.27 0 0 1 1.4 1.2Zm17.6 20.3V126a1.27 1.27 0 0 1 1.4-1.2h10.8a1.21 1.21 0 1 1 0 2.4H177v7.1h5.9a1.33 1.33 0 0 1 1.4 1.2 1.27 1.27 0 0 1-1.4 1.2H177v9.9a1.34 1.34 0 0 1-1.4 1.2 1.48 1.48 0 0 1-1.3-1.3Zm28.5-21.1c3.8 2.2 5.3 7.1 5.3 10.8s-1.5 8.6-5.3 10.8a8 8 0 0 1-3.8 1 8.27 8.27 0 0 1-3.8-1c-3.8-2.2-5.3-7.1-5.3-10.8s1.5-8.6 5.3-10.8a8.27 8.27 0 0 1 3.8-1 7 7 0 0 1 3.8 1Zm-1.6 19.6c3-1.7 4.1-5.8 4.1-8.8s-1.3-7-4.1-8.8a5.55 5.55 0 0 0-2.2-.6 6.54 6.54 0 0 0-2.3.6c-2.8 1.8-4.1 5.9-4.1 8.8s1.2 7.1 4.1 8.8a4.65 4.65 0 0 0 2.3.6 4.28 4.28 0 0 0 2.2-.6Zm24.7-19.6c3.8 2.2 5.3 7.1 5.3 10.8s-1.5 8.6-5.3 10.8a8 8 0 0 1-3.8 1 8.27 8.27 0 0 1-3.8-1c-3.8-2.2-5.3-7.1-5.3-10.8s1.5-8.6 5.3-10.8a8.27 8.27 0 0 1 3.8-1 7 7 0 0 1 3.8 1Zm-1.5 19.6c3-1.7 4.1-5.8 4.1-8.8s-1.3-7-4.1-8.8a5.55 5.55 0 0 0-2.2-.6 6.54 6.54 0 0 0-2.3.6c-2.8 1.8-4.1 5.9-4.1 8.8s1.2 7.1 4.1 8.8a4.65 4.65 0 0 0 2.3.6 4.28 4.28 0 0 0 2.2-.6Zm12 1.6V126a1.34 1.34 0 0 1 1.4-1.2h5.8c4.3 0 6.9 4 7.9 7a14.08 14.08 0 0 1 .7 4.5 14.52 14.52 0 0 1-.7 4.5c-1 3.1-3.6 7-7.9 7h-5.3a4.33 4.33 0 0 1-.5.1 1.5 1.5 0 0 1-1.4-1.3Zm12.5-14.2c-.6-2.2-2.5-5.3-5.3-5.3h-4.5v18.2h4.5c2.8 0 4.7-3 5.3-5.2a15.87 15.87 0 0 0 .6-3.8 22.77 22.77 0 0 0-.6-3.9Z"/></svg>