<svg id="Layer_1" data-name="Layer 1" xmlns="http://www.w3.org/2000/svg" viewBox="0 0 350 350"><defs><style>.cls-2{fill:#f0f1f1}.cls-3{fill:#424243}.cls-5{opacity:.56}.cls-7{fill:#2b3d4d}.cls-9{fill:#4a00e0}</style></defs><path style="fill:#a1c0c9" d="M73.8 119.2h212.3v130.1H73.8z"/><path class="cls-2" d="M73.8 119.2h212.3v102H73.8z"/><path class="cls-3" d="M286.1 246.7H82.5c-2.6 0-5.7-.4-8.3 0h-.4l2.6 2.6V119.2l-2.6 2.6h203.6c2.6 0 5.7.4 8.3 0h.4l-2.6-2.6v130.1c0 3.4 5.2 3.4 5.2 0V119.2a2.65 2.65 0 0 0-2.6-2.6H100c-8.6 0-17.2-.4-25.7 0h-.4a2.65 2.65 0 0 0-2.6 2.6v130.1a2.65 2.65 0 0 0 2.6 2.6H260c8.6 0 17.2.4 25.7 0h.4c3.4 0 3.4-5.2 0-5.2Z"/><path style="fill:#435e7d" d="M229.2 144.8h42v104.5h-42z"/><path class="cls-3" d="M271.2 246.7h-42l2.6 2.6V144.9l-2.6 2.6h42l-2.6-2.6v104.4c0 3.4 5.2 3.4 5.2 0V144.9a2.65 2.65 0 0 0-2.6-2.6h-42a2.65 2.65 0 0 0-2.6 2.6v104.4a2.65 2.65 0 0 0 2.6 2.6h42c3.4 0 3.4-5.2 0-5.2Z"/><g class="cls-5"><path class="cls-3" d="M175.4 274.4H59.1a2 2 0 0 1-2-2 2 2 0 0 1 2-2h116.3a2 2 0 0 1 2 2 2 2 0 0 1-2 2Z"/></g><g class="cls-5"><path class="cls-3" d="M186.4 274.4h-2.9a2 2 0 0 1-2-2 2 2 0 0 1 2-2h2.9a2 2 0 0 1 2 2 2.07 2.07 0 0 1-2 2Z"/></g><g class="cls-5"><path class="cls-3" d="M284 284.9H170.8a2.05 2.05 0 0 1-2.1-2.1 2.05 2.05 0 0 1 2.1-2.1H284a2.05 2.05 0 0 1 2.1 2.1 2.05 2.05 0 0 1-2.1 2.1Z"/></g><g class="cls-5"><path class="cls-3" d="M296.8 284.9h-5.2a2.05 2.05 0 0 1-2.1-2.1 2.05 2.05 0 0 1 2.1-2.1h5.2a2.05 2.05 0 0 1 2.1 2.1 2.05 2.05 0 0 1-2.1 2.1Z"/></g><g class="cls-5"><path class="cls-3" d="M151.4 295.9h-5.2a2.05 2.05 0 0 1-2.1-2.1 2.05 2.05 0 0 1 2.1-2.1h5.2a2.05 2.05 0 0 1 2.1 2.1 2.11 2.11 0 0 1-2.1 2.1Z"/></g><path style="fill:#a0d4f5" d="M81.5 149h136.7v77.1H81.5z"/><path class="cls-7" d="M235.1 212.9h30.8v29.9h-30.8z"/><path style="fill:#9ed1e3" d="M235.1 150.5h30.8v5.9h-30.8z"/><path class="cls-3" d="M267.2 150.5a1.32 1.32 0 0 0-1.3-1.3h-30.8a1.32 1.32 0 0 0-1.3 1.3v5.9a1.32 1.32 0 0 0 1.3 1.3h30.8a1 1 0 0 0 .8-.3.1.1 0 0 0 .1-.1.1.1 0 0 1 .1-.1 1.14 1.14 0 0 0 .3-.8Zm-2.6 4.6h-28.2v-3.3h28.2Z"/><path class="cls-7" d="M235.1 160.1h30.8v32.3h-30.8z"/><path class="cls-2" d="M258.7 202.8v-.7a.9.9 0 0 1 .9-.9h8.7a.9.9 0 0 1 .9.9v.7a.9.9 0 0 1-.9.9h-8.7a.9.9 0 0 1-.9-.9Z"/><path class="cls-3" d="M258.2 202.4a1.79 1.79 0 0 1 1.8-1.8h8a1.8 1.8 0 1 1 0 3.6h-8a1.79 1.79 0 0 1-1.8-1.8Zm10.5 0a.68.68 0 0 0-.7-.7h-8a.7.7 0 0 0 0 1.4h8c.4.1.7-.3.7-.7Z"/><path class="cls-9" d="M61.1 108.4h236.7v10.7H61.1z"/><path class="cls-3" d="M297.8 105.8H90.3c-9.6 0-19.2-.4-28.8 0h-.4a2.65 2.65 0 0 0-2.6 2.6v10.7a2.65 2.65 0 0 0 2.6 2.6h207.5c9.6 0 19.2.4 28.8 0h.4a2.65 2.65 0 0 0 2.6-2.6v-10.7c0-3.4-5.2-3.4-5.2 0v10.7l2.6-2.6H70.7c-2.9 0-6.3-.5-9.2 0h-.4l2.6 2.6v-10.7l-2.6 2.6h207.5c9.6 0 19.2.4 28.8 0h.4c3.3 0 3.3-5.2 0-5.2Z"/><path class="cls-2" d="M85 64.4h189.9v43.1H85z"/><path class="cls-3" d="M274.9 61.8H108.4c-7.7 0-15.4-.4-23.1 0H85a2.55 2.55 0 0 0-2.4 2.6v43.1a2.55 2.55 0 0 0 2.4 2.6h166.5c7.7 0 15.4.4 23.1 0h.3a2.55 2.55 0 0 0 2.4-2.6V64.4a2.36 2.36 0 1 0-4.7 0v43.1c.8-.9 1.6-1.7 2.4-2.6H92.9c-2.4 0-5.1-.4-7.5 0h-.3c.8.9 1.6 1.7 2.4 2.6V64.4c-.8.9-1.6 1.7-2.4 2.6h166.5c7.7 0 15.4.4 23.1 0h.3c2.9 0 3-5.2-.1-5.2Z"/><path class="cls-9" d="M73.6 56.9h212.8v10.7H73.6z"/><path class="cls-3" d="M286.4 54.3H99.8c-8.6 0-17.3-.4-25.9 0h-.4a2.55 2.55 0 0 0-2.4 2.6v10.7a2.55 2.55 0 0 0 2.4 2.6h186.6c8.6 0 17.3.4 25.9 0h.4a2.55 2.55 0 0 0 2.4-2.6V56.9a2.36 2.36 0 1 0-4.7 0v10.7c.8-.9 1.6-1.7 2.4-2.6H82.3c-2.6 0-5.7-.5-8.3 0h-.4c.8.9 1.6 1.7 2.4 2.6V56.9c-.8.9-1.6 1.7-2.4 2.6h186.6c8.6 0 17.3.4 25.9 0h.4c2.9 0 2.9-5.2-.1-5.2Z"/><path class="cls-2" d="M57.6 249.3h244.5v14.2H57.6z"/><path class="cls-3" d="M60.2 263.5v-14.2l-2.6 2.6h234.5c3.1 0 6.5.5 9.6 0h.4l-2.6-2.6v14.2c0 3.4 5.2 3.4 5.2 0v-14.2a2.65 2.65 0 0 0-2.6-2.6H87.7c-9.9 0-19.8-.4-29.7 0h-.4a2.65 2.65 0 0 0-2.6 2.6v14.2c-.1 3.3 5.2 3.3 5.2 0Z"/><path class="cls-2" d="M81.6 204.2h39.1v9H81.6z"/><path class="cls-3" d="M81.5 203.3h42.4v2.6H81.5z" style="opacity:.82"/><path class="cls-2" d="M102.8 191c10.9-7.8 21.7-15.6 32.6-23.4 1.4-1 .1-3.5-1.4-2.4-10.9 7.8-21.7 15.6-32.6 23.4-1.4 1 0 3.5 1.4 2.4Zm70.1 0c10.9-7.8 21.7-15.6 32.6-23.4 1.4-1 .1-3.5-1.4-2.4-10.9 7.8-21.7 15.6-32.6 23.4-1.5 1.1-.1 3.5 1.4 2.4Zm12.7 6.2c7.3-5.3 14.6-10.5 21.9-15.8 1.4-1 .1-3.5-1.4-2.4-7.3 5.3-14.6 10.5-21.9 15.8-1.4 1 0 3.5 1.4 2.4Z"/><path class="cls-3" d="M219.2 227.4H82.8a1.37 1.37 0 0 1-1.4-1.4v-77a1.37 1.37 0 0 1 1.4-1.4h136.4a1.37 1.37 0 0 1 1.4 1.4v77a1.5 1.5 0 0 1-1.4 1.4Zm-135.1-2.7h133.7v-74.3H84.1Zm43.4-135.1a6.65 6.65 0 0 1 1.2 4.1 6.39 6.39 0 0 1-2.3 5.2 9.88 9.88 0 0 1-6.5 1.9h-11.7v-26h11.3a10.24 10.24 0 0 1 6.3 1.8 6.53 6.53 0 0 1 1.2 8.6 6.43 6.43 0 0 1-2.9 2.2 6.15 6.15 0 0 1 3.4 2.2Zm-14.8-3.9h6c3.2 0 4.8-1.2 4.8-3.7a3.16 3.16 0 0 0-1.2-2.7 6 6 0 0 0-3.6-.9h-6Zm10.4 10.5a3.43 3.43 0 0 0 1.2-2.9 3.77 3.77 0 0 0-1.2-3 6.1 6.1 0 0 0-3.7-.9h-6.6v7.7h6.6a6.31 6.31 0 0 0 3.7-.9Zm52.4 4.6h-4.9l-3.3-8.7a2.9 2.9 0 0 0-1.3-1.7 5.21 5.21 0 0 0-2.3-.5H159v10.8h-4.6v-26h11c2.9 0 5.1.6 6.6 1.9a7 7 0 0 1 2.3 5.6 7.22 7.22 0 0 1-1.4 4.4 7.44 7.44 0 0 1-3.8 2.6 4.6 4.6 0 0 1 3.3 3.2Zm-10.8-14.5a5.89 5.89 0 0 0 3.9-1 3.84 3.84 0 0 0 1.3-3 3.43 3.43 0 0 0-1.2-2.9 6.52 6.52 0 0 0-3.9-1H159v7.9Zm34.3 3.3a6.65 6.65 0 0 1 1.2 4.1 6.39 6.39 0 0 1-2.3 5.2 9.88 9.88 0 0 1-6.5 1.9h-11.7v-26H191a10 10 0 0 1 6.3 1.8 6.53 6.53 0 0 1 1.2 8.6 6.43 6.43 0 0 1-2.9 2.2 5.82 5.82 0 0 1 3.4 2.2Zm-14.7-3.9h6c3.2 0 4.8-1.2 4.8-3.7a3.16 3.16 0 0 0-1.2-2.7 6 6 0 0 0-3.6-.9h-6Zm10.3 10.5a3.43 3.43 0 0 0 1.2-2.9 3.77 3.77 0 0 0-1.2-3 6.1 6.1 0 0 0-3.7-.9h-6.6v7.7h6.6a6.1 6.1 0 0 0 3.7-.9Zm10.1 4.6v-26h17.2v3.7h-12.6v7.2h11.9v3.7h-11.9V97h12.6v3.7h-17.2Zm42.7 0h-4.9l-3.3-8.7a2.9 2.9 0 0 0-1.3-1.7 5.21 5.21 0 0 0-2.3-.5h-4.7v10.8h-4.6v-26h11c2.9 0 5.1.6 6.6 1.9a7 7 0 0 1 2.3 5.6 7.22 7.22 0 0 1-1.4 4.4 7.44 7.44 0 0 1-3.8 2.6 4.6 4.6 0 0 1 3.3 3.2Zm-10.9-14.5a5.89 5.89 0 0 0 3.9-1 3.84 3.84 0 0 0 1.3-3 3.43 3.43 0 0 0-1.2-2.9 6.52 6.52 0 0 0-3.9-1h-5.8v7.9Z"/><path d="M294.8 211.9c0 17.4-3.3 31.5-7.4 31.5s-7.4-14.1-7.4-31.5c0-20.2 7.4-31.5 7.4-31.5s7.4 11 7.4 31.5Z" style="fill:#618247"/><path class="cls-3" d="M287.4 244.1c-5.3 0-8.2-16.6-8.2-32.2 0-20.2 7.2-31.4 7.5-31.9l.7-1 .7 1c.3.5 7.5 11.5 7.5 31.9 0 15.6-2.8 32.2-8.2 32.2Zm.1-62.2c-1.8 3.4-6.6 13.8-6.6 29.9 0 19.1 3.8 30.8 6.6 30.8s6.6-11.7 6.6-30.8c-.1-16.2-4.8-26.5-6.6-29.9Z"/><path class="cls-3" d="M287.4 239a.77.77 0 0 1-.8-.7v-42.9a.81.81 0 0 1 1.6 0v42.9a.71.71 0 0 1-.8.7Z"/><path d="M301.9 213.9c0 11-2.5 20-5.6 20s-5.6-9-5.6-20c0-12.8 5.6-20 5.6-20s5.6 7 5.6 20Z" style="fill:#bcd589"/><path class="cls-3" d="M296.2 234.4c-4.1 0-6.2-10.5-6.2-20.5 0-12.8 5.5-19.9 5.7-20.2l.5-.7.5.7c.2.3 5.7 7.3 5.7 20.3.1 9.8-2.1 20.4-6.2 20.4Zm0-39.5c-1.4 2.1-5 8.8-5 19 0 12.1 2.9 19.5 5 19.5s5-7.4 5-19.5c.1-10.3-3.6-16.9-5-19Z"/><path class="cls-3" d="M296.2 231.1a.56.56 0 0 1-.6-.5v-27.3a.61.61 0 0 1 1.2 0v27.3c0 .3-.2.5-.6.5Z"/><path class="cls-2" d="M299.7 248.2H281l-2.8-23.9h23.5l-2 23.9z"/><path class="cls-3" d="M300.1 248.6h-19.5v-.4l-2.8-24.4h24.5Zm-18.7-.9h17.9l2-22.9h-22.5Z"/><path class="cls-3" d="M299.7 248.9H281a.68.68 0 0 1-.7-.7l-2.8-23.9a.73.73 0 0 1 .2-.6c.1-.2.3-.2.6-.2h23.5a.76.76 0 0 1 .5.2 1.42 1.42 0 0 1 .2.6l-2 23.9a.85.85 0 0 1-.8.7Zm-18-1.5H299l1.9-22.4H279Z"/><path class="cls-2" d="M275 221.2h30v3.5h-30z"/><path class="cls-3" d="M305.4 225.1h-30.9v-4.4h30.9Zm-29.9-.9h29.1v-2.6h-29.1Z"/><path class="cls-3" d="M305 225.4h-30a.68.68 0 0 1-.7-.7v-3.5a.68.68 0 0 1 .7-.7h30a.68.68 0 0 1 .7.7v3.5a.75.75 0 0 1-.7.7Zm-29.2-1.5h28.5v-2h-28.5ZM63.6 151.5h9.1v2.3h-9.1zm0 41.6h9.1v2.3h-9.1z"/><path class="cls-2" d="M46.4 149h20.9v50.3H46.4z"/><path class="cls-3" d="M67.9 199.9H45.8v-51.4h22.1ZM47 198.7h19.8v-49.1H47Z"/><path class="cls-3" d="M67.9 145.7H45.7a1.54 1.54 0 0 0-1.5 1.5v.9a1.54 1.54 0 0 0 1.5 1.5h22.2a1.54 1.54 0 0 0 1.5-1.5v-.9a1.47 1.47 0 0 0-1.5-1.5Zm.1 51.1H45.6a1.37 1.37 0 0 0-1.4 1.4v1a1.37 1.37 0 0 0 1.4 1.4H68a1.37 1.37 0 0 0 1.4-1.4v-1a1.37 1.37 0 0 0-1.4-1.4Z"/><path class="cls-9" d="m67.3 166.2-20.9-8.1v-6.9l20.9 8.1v6.9z"/><path class="cls-3" d="m67.9 167.1-22.1-8.6v-8.1l22.1 8.6ZM47 157.7l19.8 7.7v-5.6L47 152.1Z"/><path class="cls-9" d="m67.3 180.5-20.9-8.1v-6.9l20.9 8.1v6.9z"/><path class="cls-3" d="m67.9 181.4-22.1-8.6v-8.1l22.1 8.6ZM47 172l19.8 7.7V174L47 166.4Z"/><path class="cls-9" d="m67.3 194.8-20.9-8.1v-6.9l20.9 8.1v6.9z"/><path class="cls-3" d="m67.9 195.7-22.1-8.6V179l22.1 8.6ZM47 186.3l19.8 7.7v-5.6L47 180.7Z"/><g style="opacity:.7"><path d="m146.4 209 .3-2.4-1.9 1.5 1.6.9zm-3.1-36.3-1.7-.9.5 1.9 1.2-1zm3.8-3.3a.45.45 0 0 0 0-.5c-.1-.2-.2-.3-.4-.3a1.27 1.27 0 0 0-.6.1l-.8.4.6 1.1.8-.4c.2-.1.4-.2.4-.4Zm5.6 39.2-1.2-.2-.3 1.6 1.2.3c.6.1 1-.1 1.1-.6s-.2-.9-.8-1.1Zm-1.2-40-1 .3.3 1.2 1-.3a1.07 1.07 0 0 0 .5-.3.75.75 0 0 0 .1-.5c-.1-.2-.1-.3-.3-.4Zm-12.7 6.4c-.2-.1-.3-.2-.5-.1s-.3.2-.5.4l-.6.8.9.7.6-.8c.3-.4.4-.7.1-1Zm1.4 2.1a.86.86 0 0 0 .3-.6.52.52 0 0 0-.2-.4c-.2-.1-.3-.2-.5-.1s-.3.2-.5.4l-.7.8 1 .8Zm35-1.8a2.09 2.09 0 0 0-1.8 1.3 1.3 1.3 0 0 0 .2 1 1.05 1.05 0 0 0 .9.5 2.09 2.09 0 0 0 1.8-1.3 1.3 1.3 0 0 0-.2-1 1.38 1.38 0 0 0-.9-.5Zm3 6.3a.45.45 0 0 0 .5 0c.2-.1.3-.2.3-.4a1.27 1.27 0 0 0-.1-.6l-.4-.9-1.1.5.4.9a1 1 0 0 0 .4.5Z" style="fill:none"/><path class="cls-3" d="M160.4 161.2a28.14 28.14 0 0 0-20.8 5.7 28.15 28.15 0 0 0 13.7 50.2 21.74 21.74 0 0 0 3.6.2 27.79 27.79 0 0 0 17.2-5.9 28.47 28.47 0 0 0 10.7-18.7 28.1 28.1 0 0 0-24.4-31.5Zm23.3 31.3a27 27 0 1 1-26.8-30.4c1.1 0 2.3.1 3.4.2a27 27 0 0 1 23.4 30.2Z"/><path class="cls-3" d="M163.1 180a1.68 1.68 0 0 0-1.6 1 10.08 10.08 0 0 0-.5 2.5 11 11 0 0 0 1.8.2 3 3 0 0 0 1.3-.2 2 2 0 0 0 .8-2.1 2.18 2.18 0 0 0-1.8-1.4Zm-8.8-.4a2 2 0 0 0-2-.8 1.82 1.82 0 0 0-1.4 1.4 1.64 1.64 0 0 0 1.2 2 11.27 11.27 0 0 0 1.8.3c.4 0 .4 0 .5-.4 0-.2.1-.3.1-.5a3.35 3.35 0 0 0 0-1 1.8 1.8 0 0 0-.2-1Z"/><path class="cls-3" d="M158.9 173.2a16.12 16.12 0 1 0 14 18 16.1 16.1 0 0 0-14-18Zm6.7 10.2a2.92 2.92 0 0 1-2.8 1.5 16.6 16.6 0 0 1-2.2-.3.37.37 0 0 0-.3.1c-.7.8-1.3 1.6-1.9 2.3-.1.1 0 .2 0 .3 1.1 2.3 2.3 4.5 3.4 6.8a18.77 18.77 0 0 1 1.2 3 3.57 3.57 0 0 1-.2 2.5 1.89 1.89 0 0 1-1.2 1.1c-1.6-3.7-3.1-7.4-4.7-11.2-2.5 3.2-4.9 6.4-7.4 9.7-.2-.3-.4-.5-.6-.8a3.11 3.11 0 0 1-.1-2.5 9.8 9.8 0 0 1 1.3-2.2c1.8-2.4 3.7-4.6 5.7-6.8.2-.2.2-.3.1-.5-.4-.8-.8-1.7-1.2-2.6-.1-.2-.2-.2-.4-.2a8 8 0 0 1-2.7-.4 3.06 3.06 0 0 1-1.9-2.8 3.05 3.05 0 0 1 6.1-.1 16.35 16.35 0 0 1-.2 2.2v.3c.6.8 1.1 1.6 1.7 2.4.8-.7 1.5-1.3 2.3-1.9a.37.37 0 0 0 .1-.3 15.72 15.72 0 0 1 .4-2.3 2.77 2.77 0 0 1 2.5-2 2.91 2.91 0 0 1 2.9 1.4 2.86 2.86 0 0 1 .1 3.3Zm-21.4 21.1-1.2 1.3-2-1.6 1.2-1.4-.2-.3-2.7 3.1.3.2 1.2-1.4 2 1.7-1.3 1.4.3.2 2.6-3-.2-.2zm-1 4.3.3.2.9-.7 1.9 1-.1 1.2.3.2.4-4.4-.3-.2Zm3.2.2-1.7-.9 1.9-1.5Zm1.8 2.2.3.1 1.4-3.8-.3-.1-1.4 3.8zm4.6-2.8-1.5-.3-.8 4 .3.1.4-1.8 1.1.2a.76.76 0 0 1 .5.2.52.52 0 0 1 .2.4l.2 1.4.4.1-.2-1.5c0-.2-.1-.3-.1-.4s-.2-.2-.3-.2a1.45 1.45 0 0 0 .7-.2.6.6 0 0 0 .3-.6 1 1 0 0 0-.2-.9 1.39 1.39 0 0 0-1-.5Zm.7 1.2c-.1.5-.5.7-1.1.6l-1.2-.3.3-1.6 1.2.2c.6.3.9.6.8 1.1Zm6.4 2.7c-.2.1-.4.1-.6.2a1.37 1.37 0 0 1-1.1-.4 2.23 2.23 0 0 1-.5-1.3 2.27 2.27 0 0 1 .3-1.3 1.23 1.23 0 0 1 1-.5 1.7 1.7 0 0 1 .7.1l.6.3.1-.3a.86.86 0 0 0-.6-.3 2 2 0 0 0-.8-.1 1.69 1.69 0 0 0-1 .3 1.24 1.24 0 0 0-.6.8 2 2 0 0 0-.1 1.1 2 2 0 0 0 .3 1.1 2.34 2.34 0 0 0 .7.7 3 3 0 0 0 1 .2 2.35 2.35 0 0 0 .8-.2c.2-.1.4-.3.6-.4l-.2-.3a3.33 3.33 0 0 0-.6.3Zm4.5-4.7-.3.1.7 2.4a1.7 1.7 0 0 1 0 1c-.1.3-.4.4-.8.6a1.09 1.09 0 0 1-1.5-.9l-.7-2.4-.3.1.7 2.4a1.32 1.32 0 0 0 .7 1 1.57 1.57 0 0 0 1.2.1 1.53 1.53 0 0 0 1-.7 1.84 1.84 0 0 0 .1-1.3Zm3.9-1.5-.2-.3-2.9 1.4.2.3 1.3-.6 1.7 3.3.3-.2-1.7-3.3 1.3-.6zm-27.6-28.7a1.43 1.43 0 0 0 .4-1 .91.91 0 0 0-.4-.8c-.2-.2-.4-.2-.6-.3a1.42 1.42 0 0 0-.6.2.64.64 0 0 0 0-.6 2.19 2.19 0 0 0-.3-.5 1 1 0 0 0-.9-.2 2.36 2.36 0 0 0-.9.6l-1.1 1.4 3.2 2.6Zm-3.5-1.4.6-.8a1.76 1.76 0 0 1 .5-.4.9.9 0 0 1 .5.1c.3.2.3.6 0 1l-.6.8Zm2 .3a1.76 1.76 0 0 1 .5-.4.9.9 0 0 1 .5.1.4.4 0 0 1 .2.4c0 .2-.1.3-.3.6l-.7.8-1-.8Zm3.4-1-.3-1 1.6-1.3.9.5.6-.5-4.1-2.1-.5.4 1.1 4.4Zm.7-2.6-1.2 1-.5-1.9Zm3.5-.4-.8-1.6.7-.3a.6.6 0 0 1 .4-.1c.1 0 .2.1.3.1l1.1 1 .7-.3-1-1a.66.66 0 0 0-.7-.2 2.09 2.09 0 0 0 .4-.6 1.7 1.7 0 0 0-.1-.7c-.2-.3-.4-.6-.7-.6a1.54 1.54 0 0 0-1.1.2l-1.6.8 1.8 3.7Zm-1.6-3.2.8-.4c.3-.1.5-.2.6-.1s.3.1.4.3a.45.45 0 0 1 0 .5.7.7 0 0 1-.5.4l-.8.4Zm6.8 1.3a1.93 1.93 0 0 0 .9-.5 1 1 0 0 0 .2-.9l-.3-.6a1.42 1.42 0 0 0-.6-.2 1 1 0 0 0 .4-.5.64.64 0 0 0 0-.6 1.28 1.28 0 0 0-.5-.7 1.7 1.7 0 0 0-1 0l-1.8.4 1 4Zm.2-1.8a1.38 1.38 0 0 1 .3.4.75.75 0 0 1-.1.5 2.19 2.19 0 0 1-.5.3l-1 .3-.3-1.2 1-.3ZM151 167q.45-.15.6 0a1.38 1.38 0 0 1 .3.4c.1.4-.1.6-.6.8l-.9.2-.3-1.1Zm6.3 2.8v-.6l-2.1.1v-1.2l1.9-.1v-.6l-1.9.1-.1-1.2h2v-.6l-2.8.1.2 4.1 2.8-.1zm2.1-1.5.7.1c.2 0 .3.1.4.1s.1.2.2.3l.3 1.4.8.1-.3-1.4a.92.92 0 0 0-.4-.6 1 1 0 0 0 1-1 .9.9 0 0 0-.2-.9 1.87 1.87 0 0 0-1-.5l-1.8-.3-.6 4.1.7.1Zm.3-1.8.9.1a.6.6 0 0 1 .6.3.44.44 0 0 1 .1.5c0 .2-.1.4-.3.4a1.27 1.27 0 0 1-.6.1l-.9-.1Zm6.3 5.6a3.18 3.18 0 0 0 .9.3 1.48 1.48 0 0 0 .7-.1 1.21 1.21 0 0 0 .5-.5 1.27 1.27 0 0 0 .1-.6.86.86 0 0 0-.3-.6l-.6-.6a2.25 2.25 0 0 1-.5-.5.3.3 0 0 1 0-.4c.1-.2.2-.3.4-.3a1.27 1.27 0 0 1 .6.1 2 2 0 0 1 .9.9l.5-.4a2.09 2.09 0 0 0-.4-.6 1.79 1.79 0 0 0-.7-.5 3.09 3.09 0 0 0-.8-.2.84.84 0 0 0-.7.2 1.21 1.21 0 0 0-.5.5.75.75 0 0 0 0 .9 2.17 2.17 0 0 0 .8.9 2.25 2.25 0 0 1 .5.5.3.3 0 0 1 0 .4c-.1.2-.2.3-.4.3a1.08 1.08 0 0 1-.7-.2c-.2-.1-.4-.3-.6-.4a2.09 2.09 0 0 1-.4-.6l-.5.4a2.65 2.65 0 0 0 .5.6 1.79 1.79 0 0 0 .7.5Zm3 1.7 1.1-1.4 1.7 1.4-1.2 1.4.6.4 2.6-3.2-.6-.5-1.1 1.4-1.6-1.4 1.1-1.3-.6-.5-2.6 3.2.6.5zm6.7.9a1.73 1.73 0 0 0-1-.1 1.91 1.91 0 0 0-1 .5 6.47 6.47 0 0 0-.8.9 1.8 1.8 0 0 0-.2 1 2.11 2.11 0 0 0 .4 1 2.7 2.7 0 0 0 .8.7 1.73 1.73 0 0 0 1 .1 1.91 1.91 0 0 0 1-.5 2.76 2.76 0 0 0 .7-.9 1.8 1.8 0 0 0 .2-1 2.11 2.11 0 0 0-.4-1 1.58 1.58 0 0 0-.7-.7Zm-.1 3a1.86 1.86 0 0 1-1.1.4 1.38 1.38 0 0 1-.9-.5 1.16 1.16 0 0 1-.2-1 2.09 2.09 0 0 1 1.8-1.3 1.38 1.38 0 0 1 .9.5 1.16 1.16 0 0 1 .2 1 2.43 2.43 0 0 1-.7.9Zm-.3 3.5 1.6-.7.4 1c.2.4.4.7.7.8a1.7 1.7 0 0 0 1 0c.3-.2.6-.4.6-.7a2.16 2.16 0 0 0-.1-1.1l-.8-1.6-3.8 1.8Zm3.2-1.5.4.9a1.27 1.27 0 0 1 .1.6c0 .2-.2.3-.3.4a.45.45 0 0 1-.5 0 .7.7 0 0 1-.4-.5l-.4-.9Z"/><path class="cls-3" d="M157.1 187.2c-.3 0-.7.2-.7.5s.2.7.5.7.7-.2.7-.5-.1-.6-.5-.7Z"/></g><path class="cls-3" d="M147 72.4a3.71 3.71 0 0 0-3.2 3.1 18.16 18.16 0 0 0-.3 3.2.6.6 0 0 1-.1.4c-.9 1-1.9 1.9-2.8 2.9-.9-1-1.8-2-2.7-3.1a.37.37 0 0 1-.1-.3c0-1 0-2-.1-3.1a4.09 4.09 0 0 0-5.2-3.5 4.17 4.17 0 0 0-3.1 4.5 4.11 4.11 0 0 0 2.9 3.5 12 12 0 0 0 3.8.2c.3 0 .4 0 .5.3.6 1.1 1.3 2.2 2 3.3.2.3.2.5 0 .7a117 117 0 0 0-6.8 10 9.58 9.58 0 0 0-1.4 3.1 4.08 4.08 0 0 0 .4 3.4c.2.4.6.6.9 1 2.9-4.8 5.8-9.4 8.7-14.1 2.7 4.9 5.3 9.7 8 14.5a2.91 2.91 0 0 0 1.4-1.7 5 5 0 0 0-.1-3.4 17.94 17.94 0 0 0-2-3.9c-1.8-2.9-3.7-5.8-5.5-8.8-.1-.1-.2-.3-.1-.4.8-1.1 1.5-2.3 2.3-3.4a.76.76 0 0 1 .4-.2c1 0 2 .1 3.1.1a3.72 3.72 0 0 0 3.5-2.3 4 4 0 0 0-.5-4.4 3.45 3.45 0 0 0-3.9-1.6Zm-10.7 5a1.48 1.48 0 0 1-.1.7c0 .5-.1.6-.6.6a10.55 10.55 0 0 1-2.5-.2 2.42 2.42 0 0 1-1.9-2.6 2.25 2.25 0 0 1 1.7-2.1 2.64 2.64 0 0 1 2.8.8 3.36 3.36 0 0 1 .5 1.4 6.6 6.6 0 0 1 .1 1.4Zm4.3 8.9a.85.85 0 1 1 .9-.8 1 1 0 0 1-.9.8Zm8.8-7.8a2.62 2.62 0 0 1-1.7.5h-2.4a9.61 9.61 0 0 1 .3-3.4 2.16 2.16 0 0 1 2.1-1.5 2.34 2.34 0 0 1 2.5 1.5 2.72 2.72 0 0 1-.8 2.9Z"/></svg>