<svg id="Layer_1" data-name="Layer 1" xmlns="http://www.w3.org/2000/svg" viewBox="0 0 230 230"><defs><style>.cls-1{fill:#d4d4d4}.cls-2{fill:#f2f2f2}.cls-3{fill:#fff}.cls-4{fill:#414242}.cls-5{fill:#dfdfdf}.cls-6{fill:#a4a4a4}.cls-7{fill:#f1f1f1}.cls-9{fill:#dedede}.cls-10{fill:#0f7cff}.cls-11{fill:#a3a3a3}.cls-12{fill:#f3ba26}.cls-13{fill:#f8e7cc}.cls-14{fill:#404141}.cls-15{fill:#db9c17}.cls-16{fill:#559de5}.cls-17{fill:#0666c6}.cls-18{fill:#a2a2a2}.cls-19{fill:#d3d3d3}.cls-20{fill:#6f6fb2}.cls-22{fill:#f2b92c}</style></defs><path class="cls-1" d="m173.7 94.9-7.6 4.3a4.07 4.07 0 0 1-4 0l-7.4-4.3a1.59 1.59 0 0 1 0-2.7l8.7-4.9a1.36 1.36 0 0 1 1.5 0l8.7 4.9a1.49 1.49 0 0 1 .1 2.7Z"/><path class="cls-2" d="m172.5 89.7-9.5 5.4h-.1l-9.3-5.4v-.1l9.4-5.3h.1l9.4 5.4Z"/><path class="cls-3" d="m172.4 91.6-9.5 5.4h-.1l-9.3-5.4v-.1l9.4-5.3h.1l9.4 5.4Z"/><path class="cls-4" d="m162.9 95.4-.2-.1-9.4-5.5v-.2c0-.1.1-.2.2-.3L163 84l.2.1 9.5 5.4v.2c0 .1-.1.2-.2.3Zm-8.8-5.7 8.8 5.1 9-5.1-8.9-5.1Z"/><path class="cls-5" d="M153.5 89.7v1.9l9.3 5.4h.1v-1.9l-9.4-5.4Z"/><path class="cls-4" d="M162.9 97.4h-.2l-9.4-5.5v-2.2l.3-.2.2.1 9.4 5.5v2.2l-.2.1Zm-9.1-5.9 8.8 5.1v-1.3l-8.8-5.1Z"/><path class="cls-6" d="M172.5 89.8v1.9l-9.5 5.4h-.1v-1.9l9.6-5.4Z"/><path class="cls-4" d="m163 97.4-.2-.1c-.1-.1-.2-.2-.2-.3v-2l.2-.1 9.7-5.5.2.1c.1.1.2.2.2.3v2.1l-.2.1Zm.2-2.1v1.3l9-5.1v-1.3Z"/><path class="cls-6" d="M163 90.7a2 2 0 0 1-2-2V81a.22.22 0 0 1 .2-.2h3.6a.22.22 0 0 1 .2.2v7.7a1.89 1.89 0 0 1-2 2Z"/><path class="cls-4" d="M163 91a2.26 2.26 0 0 1-2.3-2.3V81a.47.47 0 0 1 .5-.5h3.6a.47.47 0 0 1 .5.5v7.7A2.26 2.26 0 0 1 163 91Zm-1.7-10v7.7a1.7 1.7 0 0 0 3.4 0V81Z"/><path class="cls-7" d="M164.8 80.1h-3.6a.22.22 0 0 0-.2.2v2.4a2 2 0 0 0 4 0v-2.4c.1-.1 0-.2-.2-.2Z"/><path class="cls-3" d="M164.9 79h-3.6a.22.22 0 0 0-.2.2v2.4a2 2 0 0 0 4 0v-2.4a.22.22 0 0 0-.2-.2Z"/><path class="cls-4" d="M163 85.1a2.26 2.26 0 0 1-2.3-2.3v-2.4a.47.47 0 0 1 .5-.5h3.6a.47.47 0 0 1 .5.5v2.4a2.2 2.2 0 0 1-2.3 2.3Zm-1.7-4.7v2.4a1.7 1.7 0 0 0 3.4 0v-2.4Z"/><circle class="cls-5" cx="163.05" cy="72.08" r="10.2"/><path class="cls-3" d="m172.2 67.5-1.5-1.2a10.26 10.26 0 0 1-8.6 4.7 10.4 10.4 0 0 1-5.5-1.6 10.4 10.4 0 0 0-.5 10.2 9.82 9.82 0 0 0 7 2.8 10.27 10.27 0 0 0 9.1-14.9Z"/><path class="cls-4" d="M163.1 82.6a10.5 10.5 0 1 1 10.5-10.5 10.63 10.63 0 0 1-10.5 10.5Zm0-20.4a9.9 9.9 0 1 0 9.9 9.9 10 10 0 0 0-9.9-9.9Z"/><path class="cls-6" d="M170 64.6a9.15 9.15 0 0 1 .1 1.7 10.24 10.24 0 0 1-10.2 10.2 9.93 9.93 0 0 1-6.9-2.7 10.41 10.41 0 0 0 10.1 8.6 10.24 10.24 0 0 0 10.2-10.2 10.49 10.49 0 0 0-3.3-7.6Z"/><path class="cls-4" d="M163.1 82.6a10.35 10.35 0 0 1-10.3-8.8l.3-1.1.2.9a9.71 9.71 0 0 0 6.7 2.6 9.86 9.86 0 0 0 9.9-9.9 8.6 8.6 0 0 0-.1-1.6l-.1-.8.6.6a10.41 10.41 0 0 1-7.2 18.1Zm-9.7-8.1a9.9 9.9 0 0 0 19.5-2.4 9.71 9.71 0 0 0-2.6-6.7v.9a10.38 10.38 0 0 1-16.9 8.2Z"/><path class="cls-5" d="M170.1 63.2c0 3.9-3.2 6.1-7.1 6.1s-7.1-2.2-7.1-6.1a7.1 7.1 0 0 1 14.2 0Z"/><path class="cls-3" d="M170.2 63.2a6.71 6.71 0 0 0-.6-2.8 7.11 7.11 0 0 0-12.6 4.5 5.38 5.38 0 0 0 .4 2.2 7.53 7.53 0 0 0 5.6 2.2c4.1 0 7.2-2.2 7.2-6.1Z"/><path class="cls-4" d="M163.1 69.6c-4.4 0-7.3-2.6-7.3-6.4a7.35 7.35 0 0 1 14.7.1c-.1 3.7-3 6.3-7.4 6.3Zm0-13.2a6.81 6.81 0 0 0-6.8 6.8c0 4 3.4 5.8 6.8 5.8s6.8-1.8 6.8-5.8a6.81 6.81 0 0 0-6.8-6.8Z"/><path class="cls-6" d="M164.6 56.3a6.85 6.85 0 0 1 1.4 4.2c0 3.9-3.2 6.1-7.1 6.1a12.31 12.31 0 0 1-2-.2c1.2 1.9 3.5 2.9 6.2 2.9 3.9 0 7.1-2.2 7.1-6.1a7.18 7.18 0 0 0-5.6-6.9Z"/><path class="cls-4" d="M163.1 69.6c-2.9 0-5.2-1.1-6.4-3.1l-.4-.6.7.1c3.8.8 8.7-.8 8.7-5.6a7.07 7.07 0 0 0-1.3-4l-.5-.6.7.2a7.38 7.38 0 0 1 5.8 7.2c0 3.8-2.9 6.4-7.3 6.4Zm-5.6-2.8A7.14 7.14 0 0 0 163 69c3.4 0 6.8-1.8 6.8-5.8a6.79 6.79 0 0 0-4.6-6.4 6.86 6.86 0 0 1 1 3.7c0 3.8-3 6.4-7.4 6.4a5.28 5.28 0 0 0-1.3-.1Z"/><path d="M179.1 148 122 181.1a8.78 8.78 0 0 1-8.6 0l-88.5-51.3a2.72 2.72 0 0 1 0-4.7L85 90.3a2.62 2.62 0 0 1 2.7 0l91.5 53.1a2.67 2.67 0 0 1-.1 4.6Z" style="fill:#d5d5d5"/><path class="cls-2" d="m159.1 84.7-57.1 33-69.5-40.4 57.1-33 69.5 40.4Z"/><path class="cls-4" d="m102.1 118-.2-.1-69.8-40.4v-.4l.2-.1 57.2-33.1.2.1 69.7 40.4v.4l-.2.1Zm-69-40.7 68.9 40 56.4-32.6-68.9-40Z"/><path class="cls-7" d="m149.2 84.4-46.9 27.1-59.9-34.7 46.9-27.1 59.9 34.7z"/><path class="cls-3" d="m44.6 75.5 57.7 33.4 44.6-25.8-57.6-33.4-44.7 25.8z"/><path class="cls-4" d="m102.3 111.9-.2-.1-60.5-35 47.6-27.5 60.6 35.1ZM43 76.8l59.3 34.3 46.2-26.7-59.2-34.3Z"/><path class="cls-5" d="m32.4 77.3-.1 43.9 69.5 40.3.1-43.9-69.5-40.3Z"/><path class="cls-4" d="m102 162-.2-.1-69.7-40.4v-.2l.1-44.1.4-.2.2.1 69.7 40.4v.2l-.1 44.1Zm-69.3-40.9 68.9 40 .1-43.2-68.9-40Z"/><path class="cls-6" d="m159.1 84.7-.1 43.9-57.1 33 .1-43.9 57.1-33Z"/><path class="cls-4" d="m102 162-.4-.2v-.2l.1-44.1.2-.1 57.2-33.1.4.2v.2l-.1 44.1-.2.1Zm.4-44.2-.1 43.2 56.4-32.6.1-43.2Z"/><path class="cls-6" d="M89.3 49.7v3.8L45.6 78.7l-3.2-1.9 46.9-27.1z"/><path class="cls-4" d="m45.6 79.1-3.9-2.3 47.9-27.7v4.5ZM43 76.8l2.5 1.5 43.3-25v-2.9Z"/><path class="cls-9" d="M89.3 49.7v3.8L146 86.3l3.2-1.9-59.9-34.7z"/><path class="cls-4" d="m146 86.7-57.1-33v-4.5l61 35.3ZM89.6 53.3 146 85.9l2.5-1.5-58.9-34.1ZM154.7 85a1.48 1.48 0 0 1-1.3 0c-.4-.2-.4-.5 0-.7a1.48 1.48 0 0 1 1.3 0 .38.38 0 0 1 0 .7Z"/><path class="cls-7" d="M35.3 82.4v37.1l22.9 13.4.1-37.1-23-13.4z"/><path class="cls-4" d="m58.5 133.5-23.6-13.7.1-38 23.6 13.7Zm-22.9-14.2 22.3 12.9V96L35.6 83Z"/><path class="cls-10" d="M46.3 104.5v14.3l8.9 5.1v-14.3l-8.9-5.1z"/><path class="cls-4" d="m54.2 125.9-9.5-5.5v-15.1l9.5 5.5Zm-8.9-6 8.2 4.8v-13.5l-8.2-4.7Z"/><path class="cls-11" d="m35.3 119.5 2.7-1.6V84l-2.7-1.6v37.1z"/><path class="cls-4" d="m34.9 119.6.1-37.8 3.4 2v34.3l-3 1.8a.34.34 0 0 1-.5-.3Zm.7-36.6-.1 35.9 2-1.2V84.2Z"/><path class="cls-3" d="M58.2 132.9v-3.2L38 117.9l-2.7 1.6 22.9 13.4z"/><path class="cls-4" d="M58.5 133.5 35 119.8a.28.28 0 0 1 0-.5l3-1.8 20.6 12Zm-22.6-14 21.9 12.7v-2.4L38 118.3Z"/><path class="cls-12" d="m55.9 97.9-2.3 1.3h-.1l-13.3-7.8v-.1l2.3-1.3h.1l13.3 7.8c.1 0 .1 0 0 .1Z"/><path class="cls-13" d="m56 98.9-2.3 1.3h-.1l-13.3-7.8v-.1l2.3-1.3h.1L56 98.8Z"/><path class="cls-4" d="m53.6 99.6-.2-.1-13.5-7.9v-.2c0-.1.1-.3.2-.3l2.5-1.4.2.1 13.5 7.9v.2c0 .1-.1.3-.2.3Zm-12.8-8.3 12.8 7.5 1.7-1-12.8-7.5Z"/><path class="cls-12" d="M40.1 91.4V98l13.3 7.8a.1.1 0 0 0 .1-.1v-6.6l-13.4-7.7Z"/><path class="cls-14" d="m41.7 92.5-.1 6.6h.7v-6.6h-.6zm4.6 2.6v6.7l.7-.1v-6.6h-.7z"/><path class="cls-4" d="M53.5 106.2c-.1 0-.1 0-.2-.1l-13.5-7.9v-6.9l.4-.2.2.1L53.9 99v6.9l-.2.2a.35.35 0 0 1-.2.1Zm-13-8.4 12.8 7.5v-5.9l-12.8-7.5Z"/><path class="cls-15" d="M56 97.9v6.6l-2.3 1.3a.1.1 0 0 1-.1-.1v-6.6l2.4-1.2Z"/><path class="cls-4" d="m53.7 106.2-.2-.1c-.1-.1-.2-.2-.2-.3v-6.7l.2-.2 2.5-1.4.2.1c.1.1.2.2.2.3v6.7l-.2.2Zm.2-6.8v5.9l1.7-1v-5.9Z"/><path class="cls-9" d="m55.5 123.6-3.9-2.2v-6l3.9 2.3v5.9z"/><path class="cls-3" d="m56.8 122.5-4-2.3v-6l4 2.3v6z"/><path class="cls-4" d="m55.9 124.2-4.6-2.7v-6.7l4.6 2.7Zm-4-3 3.3 1.9V118l-3.3-1.9Z"/><path class="cls-7" d="M75.8 106.1v37.1l22.9 13.3.1-37.1-23-13.3z"/><path class="cls-4" d="m99.1 157.1-23.6-13.7.1-37.9 23.6 13.7Zm-23-14.1 22.3 12.9.1-36.3-22.3-12.9Z"/><path class="cls-10" d="M84.9 112.5v21l12.9 7.6.1-21-13-7.6z"/><path class="cls-4" d="M96.7 142.7 83 134.8V113l13.7 7.9Zm-12.9-8.4 12.3 7.1v-20.2l-12.3-7.1Z"/><path class="cls-11" d="m75.8 143.2 2.7-1.6v-33.9l-2.7-1.6v37.1z"/><path class="cls-4" d="m75.4 143.2.1-37.7 3.4 2v34.3l-2.9 1.7c-.3.1-.6 0-.6-.3Zm.8-36.5-.1 35.9 2-1.2v-33.5Z"/><path class="cls-3" d="M98.7 156.5v-3.2l-20.2-11.7-2.7 1.6 22.9 13.3z"/><path class="cls-4" d="m99.1 157.1-23.5-13.6a.37.37 0 0 1 0-.6l2.9-1.7 20.6 12Zm-22.6-13.9 21.9 12.7v-2.4L78.5 142Z"/><path class="cls-9" d="m82.5 125.5 4.4 2.5v-6.8l-4.4-2.5Z"/><path class="cls-3" d="m83.8 124 4.4 2.5v-6.8l-4.4-2.5Z"/><path class="cls-4" d="m87.2 128.7-5.1-2.9v-7.6l5.1 2.9Zm-4.4-3.4 3.7 2.1v-6l-3.7-2.1Z"/><path class="cls-9" d="m85.2 132.9 5.6 3.2v-8.6l-5.6-3.2Z"/><path class="cls-3" d="m86.4 131.1 5.6 3.2v-8.6l-5.6-3.2Z"/><path class="cls-4" d="m91.1 136.8-6.3-3.6v-9.3l6.3 3.6Zm-5.5-4.1 4.9 2.8v-7.8l-4.9-2.8Z"/><path class="cls-7" d="m60.9 97.4-.1 40.4 12 6.9.1-40.3-12-7z"/><path class="cls-4" d="M73.2 145.3 60.5 138l.1-41.2 12.7 7.4Zm-12-7.7 11.3 6.6.1-39.6L61.2 98Z"/><path class="cls-11" d="m60.9 137.8 2.7-1.6V99l-2.7-1.6v40.4Z"/><path class="cls-4" d="m60.9 138.1-.4-.2v-.2l.1-40.9 3.4 2-.1 37.5Zm.3-40.1-.1 39.2 2-1.2.1-36.8Z"/><path class="cls-5" d="M72.8 144.7v-3.1l-9.3-5.5-2.7 1.7 12 6.9z"/><path class="cls-4" d="m73.2 145.3-13-7.6 3.4-2.1 9.6 5.6Zm-11.7-7.5 11 6.4v-2.4l-9-5.2Z"/><path class="cls-10" d="m116.4 116.2 4.6 2.7.1.1 9.1 16.3v26.3c0 .1-.1.2-.2.1l-13.7-8-.1-.1.1-37.2c-.1-.2 0-.3.1-.2Z"/><path class="cls-4" d="M130 161.9c-.1 0-.2 0-.2-.1l-13.7-8a.52.52 0 0 1-.2-.4l.1-37.2a.52.52 0 0 1 .2-.4.45.45 0 0 1 .5 0l4.6 2.7c.1 0 .1.1.2.2l9.1 16.3a.35.35 0 0 0 .1.2v26.2a.52.52 0 0 1-.2.4 1.34 1.34 0 0 1-.5.1Zm-13.5-8.6 13.3 7.7v-25.7l-9-16.2-4.3-2.5Z"/><path class="cls-10" d="m116.4 115.9 36.5-21.1h.1l4.6 2.7c.1.1.1.2 0 .2l-36.5 21.1h-.1l-4.6-2.7c-.1 0-.1-.1 0-.2Z"/><path class="cls-16" d="m116.6 117.9 36.5-21.1h.1l4.6 2.7c.1.1.1.2 0 .2l-36.5 21.1h-.1l-4.6-2.7c-.1 0-.1-.1 0-.2Z"/><path class="cls-4" d="M121.1 119.2c-.1 0-.2 0-.2-.1l-4.6-2.7a.5.5 0 0 1 0-.8l36.5-21.1a.45.45 0 0 1 .5 0l4.6 2.7a.5.5 0 0 1 0 .8l-36.5 21.1a.77.77 0 0 1-.3.1Zm-4.2-3.2 4.2 2.4 36.1-20.8-4.2-2.4Z"/><path class="cls-10" d="m121.1 119 9 16.1c0 .1.1.1.2.1l36.5-21.1c.1 0 .1-.1.1-.2l-9-16.1c0-.1-.1-.1-.2-.1l-36.5 21.1c-.1 0-.1.1-.1.2Z"/><path class="cls-4" d="M130.2 135.5h-.1c-.1 0-.2-.1-.3-.2l-9-16.1a.48.48 0 0 1 .2-.6l36.5-21.1c.1-.1.2-.1.4 0s.2.1.3.2l9 16.1a.48.48 0 0 1-.2.6l-36.5 21.1Zm-8.7-16.5 8.8 15.8 36.2-20.9-8.8-15.8Z"/><path class="cls-17" d="m130.3 135.2 36.5-21.1c.1-.1.2 0 .2.1v26.2a.1.1 0 0 1-.1.1l-36.5 21c-.1.1-.2 0-.2-.1v-26.1a.1.1 0 0 1 .1-.1Z"/><path class="cls-4" d="M130.3 161.9c-.1 0-.2 0-.2-.1a.52.52 0 0 1-.2-.4v-26.1a.52.52 0 0 1 .2-.4l36.5-21.1a.45.45 0 0 1 .5 0 .52.52 0 0 1 .2.4v26.2a.52.52 0 0 1-.2.4l-36.5 21a.37.37 0 0 1-.3.1Zm.2-26.5V161l36.1-20.7v-25.8Z"/><path class="cls-7" d="m127 136.6-2.4 1.4-6.2-3.5v-.1l2.4-1.4 6.2 3.6Z"/><path class="cls-3" d="m127 137.9-2.4 1.4-6.2-3.5v-.1l2.4-1.4 6.2 3.6Z"/><path class="cls-4" d="m124.6 138.4-.2-.1-6.3-3.6v-.2c0-.1.1-.3.2-.3l2.6-1.5.2.1 6.3 3.6v.2c0 .1-.1.3-.2.3Zm-5.6-4 5.6 3.2 1.8-1.1-5.6-3.2Z"/><path class="cls-5" d="M118.3 134.5v10.7l6.2 3.5h.1V138l-6.3-3.5Z"/><path class="cls-4" d="M124.5 149.1c-.1 0-.1 0-.2-.1l-6.3-3.6v-11.1l.4-.2.2.1 6.3 3.6v11.1l-.2.1c-.1.1-.1.1-.2.1Zm-5.9-4.1 5.6 3.2v-10l-5.6-3.2Z"/><path class="cls-18" d="M127.1 136.6v10.7l-2.4 1.4h-.1V138l2.5-1.4Z"/><path class="cls-4" d="m124.6 149.2-.2-.1c-.1-.1-.2-.2-.2-.3v-10.9l.2-.1 2.6-1.5.2.1c.1.1.2.2.2.3v10.9l-.2.1Zm.3-11v10l1.8-1.1v-10Z"/><path class="cls-3" d="m143 135.3-8.2 4.7-1.3-.8v-.1l8.2-4.7 1.3.9Z"/><path class="cls-4" d="m134.9 140.4-.2-.1-1.5-.9v-.4l.2-.1 8.3-4.8.2.1 1.5.9v.4l-.2.1Zm-.8-1.2.7.4 7.6-4.3-.7-.4Z"/><path class="cls-18" d="M134.8 140.1V154l8.2-4.7v-13.9l-8.2 4.7Z"/><path class="cls-4" d="m134.9 154.4-.4-.2v-14.3l.2-.1 8.3-4.8.4.2v14.3l-.2.1Zm.3-14.2v13.2l7.6-4.3v-13.2Z"/><path class="cls-5" d="m134.8 154-1.3-.8v-13.9l1.3.8V154Z"/><path class="cls-4" d="m134.8 154.4-.2-.1-1.5-.9v-14.3l.4-.2.2.1 1.5.9v14.3Zm-1-1.4.7.4v-13.2l-.7-.4Z"/><path class="cls-18" d="m153.5 131.7-2.2-1.3h-.1l-4.3 2.5s-.1.1 0 .1l1.2 1.3 3.6 4.2 1.6 13.5.8 7a.1.1 0 0 0 .1.1l4.3-2.5v-.1l.1-16.2a11.37 11.37 0 0 0-5.1-8.6Z"/><path class="cls-4" d="M154.1 159.4h-.2c-.1-.1-.2-.2-.2-.3l-.8-7-1.6-13.4-3.5-4.2-1.2-1.3c-.1-.1-.1-.2-.1-.4s.1-.2.2-.3l4.3-2.5a.3.3 0 0 1 .4 0l2.2 1.3a11.5 11.5 0 0 1 5.2 9l-.1 16.2a.52.52 0 0 1-.2.4l-4.3 2.5Zm-6.8-26.4 1 1.1 3.6 4.3v.1l1.6 13.5.7 6.6 3.8-2.2.1-16a10.8 10.8 0 0 0-4.8-8.4l-2.1-1.2Z"/><path class="cls-2" d="M158.3 138.8a10.7 10.7 0 0 0-4.8-7.1l-2.2-1.3h-.1l-4.3 2.5s-.1.1 0 .1l1.2 1.3 3.6 4.2.4 2.8a.1.1 0 0 0 .1.1l1.1.2h.1Z"/><path class="cls-3" d="M157.4 140.7a1.51 1.51 0 0 0 .7-1.9 11 11 0 0 0-4.5-5.8l-2.2-1.3h-.1l-4.3 2.5s-.1.1 0 .1l1.2 1.3 3.6 4.2.4 2.8a.1.1 0 0 0 .1.1l1.1.2h.1Z"/><path class="cls-4" d="M153.4 142h-.2l-1.1-.2c-.2 0-.3-.2-.3-.4l-.4-2.7-3.5-4.2-1.2-1.3c-.1-.1-.1-.2-.1-.4s.1-.2.2-.3l4.3-2.5a.3.3 0 0 1 .4 0l2.2 1.3a11.47 11.47 0 0 1 5 7.3c0 .2 0 .4-.2.5Zm-1-.9.8.2 4.8-2.7a10.71 10.71 0 0 0-4.6-6.6l-2.1-1.2-3.9 2.2 1 1.1 3.6 4.3v.1Z"/><path class="cls-5" d="m153.9 159.1-2.9-1.7v-.1l.1-16.2a4.38 4.38 0 0 0-2-3.4l-2.2-1.3V133a.1.1 0 0 1 .1-.1l2.1 1.2a11 11 0 0 1 5 8.7L154 159a.1.1 0 0 1-.1.1Z"/><path class="cls-4" d="M153.9 159.4c-.1 0-.1 0-.2-.1l-2.9-1.7a.52.52 0 0 1-.2-.4l.1-16.2a4 4 0 0 0-1.8-3.1l-2.2-1.3a.52.52 0 0 1-.2-.4v-3.3a.52.52 0 0 1 .2-.4.3.3 0 0 1 .4 0l2.1 1.2a11.5 11.5 0 0 1 5.2 9l-.1 16.1a.52.52 0 0 1-.2.4c0 .2-.1.2-.2.2Zm-2.6-2.2 2.4 1.4.1-15.6a10.8 10.8 0 0 0-4.8-8.4l-1.8-1v2.7l2.1 1.2a4.6 4.6 0 0 1 2.1 3.7Z"/><path class="cls-18" d="m164.4 125.4-2.3-1.3-4.5 2.5 1.3 1.4 3.6 4.2 1.6 13.5.8 7.1 4.5-2.5.1-16.2a11.39 11.39 0 0 0-5.1-8.7Z"/><path class="cls-4" d="m164.9 153.2-.3-.2v-.2l-.8-7.1-1.6-13.4-3.5-4.2-1.4-1.5.1-.3.1-.1 4.6-2.7.2.1 2.3 1.3a11.5 11.5 0 0 1 5.2 9l-.1 16.4-.2.1Zm-6.7-26.5 1 1.1 3.7 4.4 1.6 13.5.7 6.6 3.9-2.2.1-16a10.8 10.8 0 0 0-4.8-8.4l-2.1-1.2Z"/><path class="cls-2" d="M169.2 132.5a11.3 11.3 0 0 0-4.8-7.1l-2.3-1.3-4.5 2.5 1.3 1.4 3.6 4.2.4 2.8 1.2.2Z"/><path class="cls-3" d="M168.2 134.5a1.51 1.51 0 0 0 .7-1.9 10.61 10.61 0 0 0-4.5-5.8l-2.3-1.3-4.5 2.5 1.3 1.4 3.6 4.2.4 2.8 1.2.2Z"/><path class="cls-4" d="m164.2 135.7-1.5-.3v-.2l-.4-2.8-3.5-4.2-1.4-1.5.1-.3.1-.1 4.6-2.7.2.1 2.3 1.3a12 12 0 0 1 5 7.3l.1.3-.2.1-5.4 3Zm-.9-.9.8.2 4.8-2.7a10.71 10.71 0 0 0-4.6-6.6l-2.1-1.2-3.9 2.2 1 1.1 3.7 4.4Z"/><path class="cls-5" d="m164.9 152.8-3-1.8.1-16.2a4.38 4.38 0 0 0-2-3.4l-2.3-1.3v-3.5l2.3 1.3a11 11 0 0 1 5 8.7l-.1 16.2Z"/><path class="cls-4" d="m164.9 153.2-.2-.1-3.2-1.9v-.2l.1-16.2a4 4 0 0 0-1.8-3.1l-2.4-1.4v-3.9l.3-.2.2.1 2.3 1.3a11.5 11.5 0 0 1 5.2 9l-.1 16.4Zm-2.7-2.3 2.4 1.4.1-15.6a10.8 10.8 0 0 0-4.8-8.4l-1.8-1v2.7l2.1 1.2a4.6 4.6 0 0 1 2.1 3.7Z"/><path class="cls-19" d="m24.1 122.5-1.3.8a2.17 2.17 0 0 1-2.2 0l-4.6-2.7a.84.84 0 0 1 0-1.4l2-1.2a1.1 1.1 0 0 1 .8 0l5.3 3.1a.84.84 0 0 1 0 1.4Z"/><path class="cls-2" d="m22 107.5-2.3 1.3-4.4-2.6 2.3-1.3 4.4 2.6c.1-.1.1 0 0 0Z"/><path class="cls-3" d="m22 108.5-2.3 1.3-4.4-2.6 2.3-1.3 4.4 2.6Z"/><path class="cls-4" d="m19.8 109.2-.2-.1-4.6-2.6v-.4l.2-.1 2.5-1.4.2.1 4.6 2.7v.4l-.2.1Zm-3.8-3 3.7 2.2 1.6-1-3.7-2.2Z"/><path class="cls-5" d="M15.3 106.3v12.2l4.4 2.6v-12.2l-4.4-2.6Z"/><path class="cls-4" d="m19.7 121.4-.2-.1-4.6-2.7V106l.4-.2.2.1 4.6 2.6v12.6Zm-4.1-3.1 3.7 2.2v-11.4l-3.7-2.2Z"/><path class="cls-6" d="M22.1 107.5v12.2l-2.3 1.3v-12.2l2.3-1.3Z"/><path class="cls-4" d="m19.8 121.4-.4-.2v-12.6l.2-.1 2.5-1.4.4.2v12.6l-.2.1Zm.3-12.4v11.4l1.6-1V108Z"/><path class="cls-19" d="m181.7 131.4-1.3.8a2.17 2.17 0 0 1-2.2 0l-4.6-2.7a.84.84 0 0 1 0-1.4l2-1.2a1.1 1.1 0 0 1 .8 0l5.3 3.1a.84.84 0 0 1 0 1.4Z"/><path class="cls-2" d="m179.6 116.7-2.3 1.3-4.4-2.6 2.3-1.3 4.4 2.6Z"/><path class="cls-3" d="m179.6 117.7-2.3 1.3-4.4-2.6 2.3-1.3 4.4 2.6Z"/><path class="cls-4" d="m177.3 118.4-.2-.1-4.6-2.6v-.4l.2-.1 2.5-1.4.2.1 4.6 2.7v.4l-.2.1Zm-3.7-2.9 3.7 2.2 1.6-1-3.7-2.2Z"/><path class="cls-5" d="M172.9 115.5v12.2l4.4 2.6v-12.2l-4.4-2.6Z"/><path class="cls-4" d="m177.3 130.7-.2-.1-4.6-2.7v-12.6l.4-.2.2.1 4.6 2.6v12.6Zm-4.1-3.2 3.7 2.2v-11.4l-3.7-2.2Z"/><path class="cls-6" d="M179.6 116.7v12.2l-2.3 1.3V118l2.3-1.3Z"/><path class="cls-4" d="m177.3 130.7-.4-.2v-12.6l.2-.1 2.5-1.4.4.2v12.6l-.2.1Zm.4-12.5v11.4l1.6-1v-11.4Z"/><path class="cls-5" d="m98.6 164.2-2.4 1.4-3.4-2.1 2.4-1.4 3.4 2.1z"/><path class="cls-4" d="m96.2 166-4.1-2.5 3.1-1.8 4.1 2.5Zm-2.7-2.5 2.7 1.7 1.8-1-2.7-1.7Z"/><path class="cls-10" d="M92.8 163.5v5.8l3.4 2v-5.8l-3.4-2Z"/><path class="cls-4" d="m96.2 171.8-.2-.1-3.5-2.1v-6.2l.4-.2.2.1 3.5 2.1v6.2Zm-3.1-2.7 2.7 1.6v-5l-2.7-1.6Z"/><path class="cls-20" d="M98.6 164.2v5.8l-2.4 1.4v-5.8l2.4-1.4Z"/><path class="cls-4" d="m96.2 171.8-.4-.2v-6.2l.2-.1 2.6-1.5.4.2v6.2l-.2.1Zm.3-6v5l1.7-1v-5Z"/><path class="cls-10" d="m103.9 141.5-2.4 1.4L88 135l2.4-1.4 13.5 7.9Z"/><path class="cls-16" d="m103.9 142.6-2.4 1.4-13.5-7.9 2.4-1.4 13.5 7.9Z"/><path class="cls-4" d="m101.5 143.2-.2-.1-13.6-7.9v-.4l.2-.1 2.6-1.5.2.1 13.6 8v.4l-.2.1ZM88.7 135l12.8 7.5 1.7-1-12.8-7.5Z"/><path class="cls-10" d="M88 135v26.6l13.4 7.9v-26.6L88 135Z"/><path class="cls-4" d="m101.4 169.8-.2-.1-13.6-7.9v-27l.3-.2.2.1 13.6 8v27Zm-13.1-8.4 12.8 7.5v-25.8l-12.8-7.5Z"/><path d="m99.9 166.5-10.4-6v-22.7l10.4 6Z" style="fill:#f6e5cc"/><path class="cls-4" d="m100.3 167.1-11.1-6.4v-23.5l11.1 6.4Zm-10.5-6.8 9.8 5.7v-21.9l-9.8-5.7Z"/><path class="cls-22" d="M91.1 141.2v15.6l7.9 4.6v-15.6l-7.9-4.6z"/><path class="cls-4" d="m97.7 163.3-8.6-5v-16.4l8.6 5Zm-7.9-5.4 7.2 4.2v-14.8l-7.2-4.2Z"/><path class="cls-20" d="M103.9 141.5v26.6l-2.4 1.4v-26.6l2.4-1.4Z"/><path class="cls-4" d="m101.4 169.8-.4-.2v-27l.2-.1 2.6-1.5.4.2v27l-.2.1Zm.4-26.8v25.8l1.7-1V142Z"/><path class="cls-10" d="m121.2 88.8-18.8 10.8-18.9-10.9v-.1l18.8-10.8 18.9 11Z"/><path d="m121.2 91-18.8 10.8-18.9-10.9v-.1L102.4 80l18.8 11Z" style="fill:#178dc0"/><path class="cls-16" d="m85.4 89.6 17 9.8 17-9.8-17-9.8Z"/><path class="cls-4" d="m102.4 100-.2-.1-19-11v-.4l.2-.1 19-10.9.2.1 19 11v.4l-.2.1ZM84.2 88.7l18.2 10.5 18.2-10.5-18.2-10.5Z"/><path class="cls-22" d="M109.2 84.8c3.8 2.2 3.8 5.7 0 7.9a15 15 0 0 1-13.7 0c-3.8-2.2-3.8-5.7 0-7.9a15 15 0 0 1 13.7 0Z"/><path class="cls-13" d="M95.5 89.2a5.77 5.77 0 0 0-2 1.7 6.88 6.88 0 0 0 2 1.7 15 15 0 0 0 13.7 0 5.77 5.77 0 0 0 2-1.7 6.88 6.88 0 0 0-2-1.7 15 15 0 0 0-13.7 0Z"/><path class="cls-4" d="M102.4 94.7a14.5 14.5 0 0 1-7-1.7c-1.9-1.1-3-2.6-3-4.3s1.1-3.1 3-4.3a15.89 15.89 0 0 1 14.1 0c1.9 1.1 3 2.6 3 4.3s-1.1 3.1-3 4.3a15.19 15.19 0 0 1-7.1 1.7Zm0-11.2a13.55 13.55 0 0 0-6.7 1.6C94 86 93 87.3 93 88.7s.9 2.7 2.7 3.7a15 15 0 0 0 13.4 0c1.7-1 2.7-2.3 2.7-3.7s-.9-2.7-2.7-3.7a14.67 14.67 0 0 0-6.7-1.5Z"/><path class="cls-14" d="M102.4 90.7a2.77 2.77 0 0 1-1.3-.3 1.2 1.2 0 0 1-.7-1 1 1 0 0 1 .7-1 3 3 0 0 1 2.6 0 1.2 1.2 0 0 1 .7 1 1 1 0 0 1-.7 1 2.5 2.5 0 0 1-1.3.3Zm0-1.8a2.92 2.92 0 0 0-.9.2c-.2.1-.2.2-.2.3s.1.2.2.3a1.72 1.72 0 0 0 1.7 0c.2-.1.2-.2.2-.3s-.1-.2-.2-.3a1.55 1.55 0 0 0-.8-.2Z"/><path class="cls-10" d="M83.5 88.8v6.7l18.8 10.9h.1v-6.7L83.5 88.8Z"/><path class="cls-4" d="m102.3 106.8-.2-.1-19-11v-7.1l.4-.2.2.1 19 11v7.1ZM83.8 95.3l18.2 10.5v-6L83.8 89.3Z"/><path class="cls-17" d="M121.3 88.8v6.7l-18.8 10.8h-.1v-6.7l18.9-10.8Z"/><path class="cls-4" d="m102.4 106.8-.4-.2v-7.1l.2-.1 19-10.9.4.2v7.1l-.2.1Zm.3-7v6l18.2-10.5v-6Z"/><path class="cls-22" d="M109.2 84.8a11.58 11.58 0 0 0-4.2-1.4v2.5a13.85 13.85 0 0 1 4.2 1.4 6 6 0 0 1 2.6 2.7c.7-1.8-.1-3.8-2.6-5.2Z"/><path class="cls-4" d="m111.8 90.9-.3-.8a5.22 5.22 0 0 0-2.4-2.5 12.39 12.39 0 0 0-4.1-1.4h-.3V83l.4.1a13.64 13.64 0 0 1 4.3 1.5c2.5 1.5 3.5 3.6 2.7 5.7Zm-6.5-5.3a16.48 16.48 0 0 1 4.1 1.4 6.74 6.74 0 0 1 2.3 2.1c.2-1.5-.8-2.9-2.6-4a10.13 10.13 0 0 0-3.7-1.3Z"/><path class="cls-15" d="M105 83.3a15.15 15.15 0 0 0-9.5 1.4c-2.5 1.4-3.3 3.4-2.6 5.2a6 6 0 0 1 2.6-2.7 15.15 15.15 0 0 1 9.5-1.4Z"/><path class="cls-4" d="m93.5 90.9-.8-.8c-.8-2 .2-4.2 2.7-5.7a15.56 15.56 0 0 1 9.7-1.5h.3v3.2l-.4-.1a15 15 0 0 0-9.3 1.4 5.18 5.18 0 0 0-2.4 2.5Zm8.9-7.4a14.11 14.11 0 0 0-6.7 1.6c-1.9 1.1-2.8 2.5-2.6 4a6.74 6.74 0 0 1 2.3-2.1 15 15 0 0 1 9.3-1.5v-1.9a18.48 18.48 0 0 0-2.3-.1Z"/><path class="cls-10" d="M105 60.6 75.4 77.7l-10.8-6.2v-.1l29.5-17.1 10.9 6.3Z"/><path class="cls-16" d="M105 62.4 75.4 79.5l-10.8-6.2v-.1l29.5-17.1 10.9 6.3Z"/><path class="cls-4" d="m75.5 78.1-.3-.1-11-6.3v-.2c0-.1.1-.3.2-.3L94.1 54l.2.1 11 6.3v.2c0 .1-.1.3-.2.3Zm-10.3-6.6 10.2 5.8 28.9-16.8-10.2-5.8Z"/><path class="cls-10" d="M64.5 71.6v3.7l10.8 6.2h.1v-3.7l-10.9-6.2Z"/><path class="cls-4" d="M75.4 81.8c-.1 0-.1 0-.2-.1l-11-6.3v-4.1l.4-.2.2.1 11 6.3v4.1l-.2.1a.31.31 0 0 1-.2.1Zm-10.6-6.7L75 80.9v-3l-10.2-5.8Z"/><path class="cls-17" d="M105 60.6v3.7L75.5 81.5h-.1v-3.7L105 60.6Z"/><path class="cls-4" d="m75.5 81.9-.2-.1c-.1-.1-.2-.2-.2-.3v-3.9l.2-.1L105 60.2l.2.1c.1.1.2.2.2.3v3.9l-.2.1Zm.3-4v3l28.9-16.8v-3Z"/><path class="cls-1" d="m146.9 176.3-15.6 9a6.18 6.18 0 0 1-5.9 0l-15.6-9a2.34 2.34 0 0 1 0-4l17.4-10a2.35 2.35 0 0 1 2.3 0l17.3 10a2.3 2.3 0 0 1 .1 4Z"/><path class="cls-2" d="m143.4 163.6-18.7 10.8h-.1l-18.7-10.8c-.1 0-.1-.1 0-.2l18.7-10.8h.1l18.7 10.8c.1 0 .1.1 0 .2Z"/><path class="cls-3" d="m143.4 165.3-18.7 10.8h-.1l-18.7-10.8c-.1 0-.1-.1 0-.2l18.7-10.8h.1l18.7 10.8c.1.1.1.2 0 .2Z"/><path class="cls-4" d="M124.6 174.7c-.1 0-.2 0-.2-.1l-18.7-10.8a.5.5 0 0 1 0-.8l18.7-10.8a.3.3 0 0 1 .4 0l18.7 10.8a.5.5 0 0 1 0 .8l-18.7 10.8c0 .1-.1.1-.2.1Zm-18.2-11.3 18.2 10.5 18.2-10.5-18.1-10.4Z"/><path class="cls-5" d="M131.5 159.5c3.8 2.2 3.8 5.7 0 7.9a15 15 0 0 1-13.7 0c-3.8-2.2-3.8-5.7 0-7.9a15 15 0 0 1 13.7 0Z"/><path class="cls-5" d="M131.4 164.8c3.8 2.2 3.8 5.7 0 7.9a15 15 0 0 1-13.7 0c-3.8-2.2-3.8-5.7 0-7.9s9.9-2.2 13.7 0Z"/><path class="cls-3" d="M131.3 164.4a15 15 0 0 0-13.7 0 8.62 8.62 0 0 0-1.8 1.4 6.25 6.25 0 0 0 2.1 1.8 15 15 0 0 0 13.7 0 8.62 8.62 0 0 0 1.8-1.4 4.77 4.77 0 0 0-2.1-1.8Z"/><path class="cls-4" d="M124.6 169.4a14.5 14.5 0 0 1-7-1.7c-1.9-1.1-3-2.6-3-4.3s1.1-3.1 3-4.3a15.89 15.89 0 0 1 14.1 0c1.9 1.1 3 2.6 3 4.3s-1.1 3.1-3 4.3a14.9 14.9 0 0 1-7.1 1.7Zm.1-11.2a13.55 13.55 0 0 0-6.7 1.6c-1.7 1-2.7 2.3-2.7 3.7s.9 2.7 2.7 3.7a15 15 0 0 0 13.4 0c1.7-1 2.7-2.3 2.7-3.7s-.9-2.7-2.7-3.7a13.55 13.55 0 0 0-6.7-1.6Z"/><path class="cls-14" d="M124.6 165.5a3.19 3.19 0 0 1-1.4-.3 1.27 1.27 0 0 1-.7-1.1 1.51 1.51 0 0 1 .7-1.1 2.8 2.8 0 0 1 2.8 0 1.27 1.27 0 0 1 .7 1.1 1.51 1.51 0 0 1-.7 1.1 2.65 2.65 0 0 1-1.4.3Zm0-1.9a3 3 0 0 0-1 .2q-.3.15-.3.3t.3.3a2.33 2.33 0 0 0 2 0q.3-.15.3-.3t-.3-.3a2.51 2.51 0 0 0-1-.2Z"/><path class="cls-5" d="M105.8 163.6v6.7l18.7 10.8c.1 0 .1 0 .1-.1v-6.7l-18.7-10.8c-.1 0-.1 0-.1.1Z"/><path class="cls-4" d="M124.5 181.4c-.1 0-.1 0-.2-.1l-18.7-10.8a.52.52 0 0 1-.2-.4v-6.6a.52.52 0 0 1 .2-.4.3.3 0 0 1 .4 0l18.7 10.8a.52.52 0 0 1 .2.4v6.6a.52.52 0 0 1-.2.4c0 .1-.1.1-.2.1ZM106.1 170l18.2 10.5v-6L106.1 164Z"/><path class="cls-11" d="M143.5 163.6v6.7l-18.7 10.8c-.1 0-.1 0-.1-.1v-6.7l18.7-10.8a.1.1 0 0 1 .1.1Z"/><path class="cls-4" d="M124.7 181.4c-.1 0-.1 0-.2-.1a.52.52 0 0 1-.2-.4v-6.6a.52.52 0 0 1 .2-.4l18.7-10.8a.3.3 0 0 1 .4 0 .52.52 0 0 1 .2.4v6.6a.52.52 0 0 1-.2.4l-18.7 10.8c0 .1-.1.1-.2.1Zm.3-6.8v6l18.2-10.5v-6Z"/><path class="cls-3" d="M131.5 159.5a11.58 11.58 0 0 0-4.2-1.4v2.5a13.85 13.85 0 0 1 4.2 1.4 6 6 0 0 1 2.6 2.7c.7-1.8-.1-3.8-2.6-5.2Z"/><path class="cls-4" d="M133.8 165.6v-.7a5.22 5.22 0 0 0-2.4-2.5 12.39 12.39 0 0 0-4.1-1.4h-.3v-3.2l.4.1a13.64 13.64 0 0 1 4.3 1.5c2.5 1.4 3.5 3.6 2.7 5.7Zm-6.2-5.3a16.48 16.48 0 0 1 4.1 1.4 6.74 6.74 0 0 1 2.3 2.1c.2-1.5-.8-2.9-2.6-4a10.13 10.13 0 0 0-3.7-1.3Z"/><path class="cls-11" d="M127.3 158.1a15.15 15.15 0 0 0-9.5 1.4c-2.5 1.4-3.3 3.4-2.6 5.2a6 6 0 0 1 2.6-2.7 15.15 15.15 0 0 1 9.5-1.4Z"/><path class="cls-4" d="m115.7 165.6-.8-.7c-.8-2 .2-4.2 2.7-5.7a15.56 15.56 0 0 1 9.7-1.5h.3v3.2l-.4-.1a15 15 0 0 0-9.3 1.4 5.18 5.18 0 0 0-2.4 2.5Zm9-7.4a14.11 14.11 0 0 0-6.7 1.6c-1.9 1.1-2.8 2.5-2.6 4a5.68 5.68 0 0 1 2.3-2 15 15 0 0 1 9.3-1.5v-1.9a19.53 19.53 0 0 0-2.3-.2Z"/><path class="cls-1" d="m214.3 122.6-12 6.8a5.34 5.34 0 0 1-5.2 0l-9.1-5.2a1.5 1.5 0 0 1 0-2.6l13.9-7.9a1.36 1.36 0 0 1 1.5 0l11 6.2a1.64 1.64 0 0 1-.1 2.7Z"/><path class="cls-10" d="m211.6 114.3-13.7 7.8h-.1l-11.3-6.4v-.1l13.7-7.8h.1l11.3 6.5Z"/><path class="cls-16" d="m211.6 116.2-13.7 7.8h-.1l-11.3-6.4v-.1l13.7-7.8h.1l11.3 6.5Z"/><path class="cls-4" d="m198 122.5-.2-.1-11.5-6.5v-.3a.76.76 0 0 1 .2-.4l13.8-7.9.2.1L212 114v.3a.76.76 0 0 1-.2.4Zm-10.7-6.9 10.7 6.1 13.1-7.4-10.7-6.1Z"/><path class="cls-10" d="M186.5 115.7v3.8l11.3 6.4h.1v-3.8l-11.4-6.4Z"/><path class="cls-4" d="M197.9 126.4c-.1 0-.1 0-.2-.1l-11.5-6.5v-4.3l.4-.3.2.1 11.5 6.5v4.3l-.2.2a.31.31 0 0 1-.2.1Zm-11-7 10.7 6.1v-3.1l-10.7-6.1Z"/><path class="cls-17" d="M211.7 114.4v3.8L198 126h-.1v-3.8l13.8-7.8Z"/><path class="cls-4" d="m198 126.4-.2-.1a.52.52 0 0 1-.2-.4v-4l.2-.2 13.8-7.9.2.1a.52.52 0 0 1 .2.4v4l-.2.2Zm.3-4.1v3.1l13.1-7.4v-3.1Zm.3-2.9a1.48 1.48 0 0 1-1.3 0 .42.42 0 0 1 0-.8 1.48 1.48 0 0 1 1.3 0c.4.3.4.6 0 .8Z"/><ellipse class="cls-4" cx="200.19" cy="110.87" rx=".5" ry=".9" transform="rotate(-89.92 200.182 110.873)"/></svg>