<svg id="Layer_1" data-name="Layer 1" xmlns="http://www.w3.org/2000/svg" viewBox="0 0 350 350"><defs><style>.cls-1{fill:#bcd589}.cls-2{fill:#424243}.cls-3{fill:#f0f1f1}.cls-4{opacity:.48}.cls-5{fill:#9ed1e3}.cls-7{fill:#f83600}.cls-9{opacity:.18}.cls-10{fill:#272525}.cls-11{fill:#cfd0d2}</style></defs><path class="cls-1" d="M59.1 203.1c-3.2-5.9-6.7-16.8-15.4-16.6-9.7.2-11.2 10.3-14.6 16.6-2 3.7-4.1 7.7-3.8 11.8.4 5.5 6.4 9.3 12 9.3h13.6c5.6 0 11.7-3.8 12-9.3.3-4.1-1.8-8.1-3.8-11.8Z"/><path class="cls-2" d="M60.8 202.1c-3.6-6.7-6.8-16.6-15.7-17.5a12.69 12.69 0 0 0-11.1 4.6c-2.6 3.2-3.9 7.2-5.6 10.9-2.3 5.1-6 10.2-4.9 16.1.9 4.8 5.3 8.2 9.9 9.4 3.1.8 6.6.5 9.8.5h7.1c4.8 0 9.7-1.7 12.6-5.7 4.3-5.7.9-12.7-2.1-18.3Zm-1.3 16.5c-2.2 2.7-5.8 3.7-9.1 3.8-4.3 0-8.6.1-13 0-3.6-.1-7.7-1.7-9.5-5-2.5-4.6 1.3-10 3.3-14.1 2.7-5.3 4.4-13.8 11.5-14.7 8.5-1 11.6 9.7 14.8 15.6 2.2 4.1 5.6 10 2 14.4Z"/><path class="cls-3" d="M26.6 233.9h36.3v24.3H26.6z"/><path class="cls-2" d="M62.9 256.3H26.6l1.9 1.9v-24.3l-1.9 1.9h36.3l-1.9-1.9v24.3c0 2.5 3.9 2.5 3.9 0v-24.3A2 2 0 0 0 63 232H26.7a2 2 0 0 0-1.9 1.9v24.3a2 2 0 0 0 1.9 1.9H63c2.4.1 2.4-3.8-.1-3.8Z"/><path class="cls-2" d="M42.9 213.6c0 6.8-.1 13.5-.1 20.3 0 2.5 3.9 2.5 3.9 0 0-6.8.1-13.5.1-20.3 0-2.5-3.8-2.5-3.9 0Zm252 10.2v33.5c0 2.5 3.9 2.5 3.9 0v-33.5c-.1-2.5-3.9-2.5-3.9 0Z"/><path class="cls-3" d="M266.9 216h58.9v8.3h-58.9z"/><path class="cls-2" d="M266.9 225.3h58.9a1 1 0 0 0 1-1V216a1 1 0 0 0-1-1h-58.9a1 1 0 0 0-1 1v8.3a1 1 0 0 0 1.9 0V216l-1 1h58.9l-1-1v8.3l1-1h-58.9c-1.1 0-1.1 2 .1 2Zm17 30.03h25.7v3.8h-25.7z"/><path class="cls-3" d="M245.1 234.3h31v6.4h-31z"/><path class="cls-2" d="M245.1 241.7h31a1 1 0 0 0 1-1v-6.4a1 1 0 0 0-1-1h-31a1 1 0 0 0-1 1v6.4a1 1 0 0 0 1.9 0v-6.4l-1 1h31l-1-1v6.4l1-1h-31c-1.1 0-1.1 2 .1 2Z"/><path class="cls-2" d="M244.01 199.76h4.7v60.2h-4.7zm28.59 40.74h3.5v19.4h-3.5z"/><g class="cls-4"><path class="cls-2" d="M114.4 293.2H53.2a1.69 1.69 0 0 1-1.7-1.7v-1.4a1.69 1.69 0 0 1 1.7-1.7h61.2a1.69 1.69 0 0 1 1.7 1.7v1.4a1.69 1.69 0 0 1-1.7 1.7Z"/></g><path class="cls-3" d="M54 68.6h183.8v184.7H54z"/><path class="cls-2" d="M237.8 251.3H61.5c-2.3 0-4.9-.4-7.2 0H54l1.9 1.9V76.1c0-2.3.4-4.9 0-7.2v-.3L54 70.5h176.3c2.3 0 4.9.4 7.2 0h.3l-1.9-1.9v161.8c0 7.5-.3 15 0 22.5v.3c0 2.5 3.9 2.5 3.9 0V91.4c0-7.5.3-15 0-22.5v-.3a2 2 0 0 0-1.9-1.9H76.8c-7.4 0-14.9-.3-22.4 0h-.3a2 2 0 0 0-1.9 1.9v161.8c0 7.5-.3 15 0 22.5v.3a2 2 0 0 0 1.9 1.9h161.1c7.4 0 14.9.3 22.4 0h.3c2.4.1 2.4-3.8-.1-3.8Z"/><path class="cls-3" d="M39.9 253.3h211.7v10.5H39.9z"/><path class="cls-2" d="M41.9 263.8v-10.5l-1.9 1.9h203c2.6 0 5.6.4 8.2 0h.4l-1.9-1.9v10.5c0 2.5 3.9 2.5 3.9 0v-10.5a2 2 0 0 0-1.9-1.9H66.1c-8.5 0-17.1-.3-25.7 0H40a2 2 0 0 0-1.9 1.9v10.5c-.1 2.5 3.8 2.5 3.8 0Z"/><path class="cls-5" d="M67.2 154h50.1v89H67.2z"/><path class="cls-2" d="M117.3 152H67.2a2 2 0 0 0-1.9 1.9v89a2 2 0 0 0 1.9 1.9h50.1a1.73 1.73 0 0 0 1.3-.5l.1-.1a1.73 1.73 0 0 0 .5-1.3v-89a2 2 0 0 0-1.9-1.9Zm-43.9 89.1H69V156h46.3v85.1Z"/><g class="cls-4"><path class="cls-2" d="M134.9 274h-95a1.54 1.54 0 0 1-1.5-1.5v-.3a1.54 1.54 0 0 1 1.5-1.5h95a1.54 1.54 0 0 1 1.5 1.5v.3a1.54 1.54 0 0 1-1.5 1.5Z"/></g><g class="cls-4"><path class="cls-2" d="M237.3 281.3H123.6a1.58 1.58 0 0 1-1.6-1.6v-1.1a1.58 1.58 0 0 1 1.6-1.6h113.7a1.58 1.58 0 0 1 1.6 1.6v1.1a1.58 1.58 0 0 1-1.6 1.6Z"/></g><g class="cls-4"><path class="cls-2" d="M250.1 281.3h-6.3a1.58 1.58 0 0 1-1.6-1.6v-1.1a1.58 1.58 0 0 1 1.6-1.6h6.3a1.58 1.58 0 0 1 1.6 1.6v1.1a1.72 1.72 0 0 1-1.6 1.6Z"/></g><path class="cls-3" d="M68.9 224.9h47.4v17.3H68.9z"/><path class="cls-2" d="M117.2 224.9a1 1 0 0 0-1-1H68.8a1 1 0 0 0-1 1v17.3a1 1 0 0 0 1 1h47.4a.85.85 0 0 0 .6-.2l.1-.1v-.1a1.42 1.42 0 0 0 .2-.6c.1-5.8.1-11.6.1-17.3Zm-42.5 16.3h-4.9v-15.3h45.4v15.3Z"/><path class="cls-3" d="m108.2 179-19.9 25.6c-.8 1 .6 2.4 1.4 1.4l19.9-25.6c.8-1-.6-2.3-1.4-1.4Zm-12.3 2c-4.1 5.3-8.2 10.6-12.4 15.9-.8 1 .6 2.4 1.4 1.4 4.1-5.3 8.2-10.6 12.4-15.9.8-1-.6-2.4-1.4-1.4Z"/><path class="cls-5" d="M174.2 154h50.1v88.8h-50.1z"/><path class="cls-2" d="M224.3 240.9h-50.1l1.9 1.9V154l-1.9 1.9h50.1l-1.9-1.9v88.8c0 2.5 3.9 2.5 3.9 0V154a2 2 0 0 0-1.9-1.9h-50.1a2 2 0 0 0-1.9 1.9v88.8a2 2 0 0 0 1.9 1.9h50.1c2.4.1 2.4-3.8-.1-3.8Z"/><path class="cls-3" d="M175.9 224h47.4v18.1h-47.4z"/><path class="cls-2" d="M223.3 241.2h-47.4l1 1v-18.1l-1 1h47.4l-1-1v18.1a1 1 0 0 0 1.9 0v-18.1a1 1 0 0 0-1-1h-47.4a1 1 0 0 0-1 1v18.1a1 1 0 0 0 1 1h47.4a1 1 0 1 0 .1-2Z"/><path style="fill:#435e7d" d="M128.9 154h33.3v98.6h-33.3z"/><path class="cls-2" d="M162.2 250.7h-33.4l1.9 1.9V154l-1.9 1.9h33.4l-1.9-1.9v98.6c0 2.5 3.9 2.5 3.9 0V154a2 2 0 0 0-1.9-1.9h-33.4a2 2 0 0 0-1.9 1.9v98.6a2 2 0 0 0 1.9 1.9h33.4c2.4.1 2.4-3.8-.1-3.8Z"/><path class="cls-7" d="M44.3 58.9h203.5v9.7H44.3z"/><path class="cls-2" d="M247.8 57H69.4c-8.2 0-16.5-.3-24.7 0h-.4a2 2 0 0 0-1.9 1.9v9.7a2 2 0 0 0 1.9 1.9h178.4c8.2 0 16.5.3 24.7 0h.4a2 2 0 0 0 1.9-1.9v-9.7c0-2.5-3.9-2.5-3.9 0v9.7l1.9-1.9H52.6c-2.6 0-5.5-.4-8 0h-.4l1.9 1.9v-9.7l-1.9 1.9h178.4c8.2 0 16.5.3 24.7 0h.4a1.9 1.9 0 1 0 .1-3.8Z"/><path class="cls-7" d="m237.8 145.4 31.3 31.6h-30.4l-.9-31.6z"/><path class="cls-2" d="M236.5 146.8c9.1 9.2 18.2 18.4 27.4 27.6l3.9 3.9c.5-1.1.9-2.2 1.4-3.3h-30.4l1.9 1.9c-.3-10.5-.5-21-.8-31.5-.1-2.5-3.9-2.5-3.9 0 .3 10.5.5 21 .8 31.5a2 2 0 0 0 1.9 1.9h30.4a2 2 0 0 0 1.4-3.3c-9.1-9.2-18.2-18.4-27.4-27.6l-3.9-3.9c-1.7-1.7-4.5 1-2.7 2.8Z"/><path d="M134.5 226.2h21.3v21.5h-21.3zm0-63.1h21.3v59.3h-21.3z" style="fill:#2b3d4d"/><path class="cls-3" d="M207.8 171.6c-8.2 10.5-16.4 21-24.5 31.5-1.2 1.5-2.3 3-3.5 4.5-.8 1 .6 2.4 1.4 1.4 8.2-10.5 16.4-21 24.5-31.5 1.2-1.5 2.3-3 3.5-4.5.7-1-.6-2.3-1.4-1.4Zm2.9 9.4c-5.4 6.9-10.7 13.8-16.1 20.6-.8 1 .6 2.4 1.4 1.4 5.4-6.9 10.7-13.8 16.1-20.6.8-1-.6-2.4-1.4-1.4Zm4.7-14.8s2-26.6-18.5-29.1a33.61 33.61 0 0 1 30.8 15.3s10.6 18.9-2.9 21.3c0 0-8 .4-9.4-7.5Z"/><path class="cls-2" d="M216.3 166.2c.6-8.8-1.7-19.6-8.7-25.6a20.42 20.42 0 0 0-10.7-4.5v1.9c9-1.2 18.9 2.9 25.2 9.1a29 29 0 0 1 7.1 11.1c1.4 3.9 3 10.1-1 13.1a6.81 6.81 0 0 1-5.7 1.2 8 8 0 0 1-6.3-6.5c-.2-1.2-2.1-.7-1.9.5a10.18 10.18 0 0 0 10.5 8.2c6.3-.6 8.3-6.6 7.4-12.1-1.9-12-11.4-21.6-22.9-25.1a31.13 31.13 0 0 0-12.5-1.4 1 1 0 0 0 0 1.9c13.4 1.8 18.4 16.2 17.5 28.1a1 1 0 1 0 2 .1Z"/><path class="cls-7" d="M196.5 137.1s-15.6 2.5-13.5 29.1c0 0 .5 7.5-9.6 7.5s-5.8-15.4-4.3-18.3 8.1-15.3 27.4-18.3Z"/><path class="cls-2" d="M196.3 136.2c-3 .5-5.9 2.6-8 4.8-6 6.5-6.8 16.1-6.3 24.5a6.05 6.05 0 0 1-2.4 5.6c-3.1 2.2-9.4 2.6-11-1.5-1.3-3.2-.5-7.3.3-10.5a23.4 23.4 0 0 1 2.5-5.6c5.6-8.9 15.3-13.8 25.4-15.5 1.2-.1.7-2-.5-1.8-9.9 1.6-19.3 6.2-25.3 14.5a24.79 24.79 0 0 0-5 16.2c.3 3.5 1.9 6.9 5.6 7.6 3.9.8 9-.4 11.2-3.9 1.7-2.7 1-5.5 1-8.5-.1-5.2.6-10.7 2.9-15.4 1.9-3.8 5.6-7.9 10-8.7 1.3-.1.8-2-.4-1.8Z"/><path class="cls-3" d="m199.2 166.2-2.3-29.1s-15.1 1.8-13.9 29.1a8.41 8.41 0 0 0 8.1 7.5c7.5.5 8.1-7.5 8.1-7.5Z"/><path class="cls-2" d="M200.2 166.2c-.8-9.7-1.5-19.4-2.3-29.1a1 1 0 0 0-1-1c-5.6.7-9.9 5.8-12 10.7a39.55 39.55 0 0 0-2.8 19.5 9.35 9.35 0 0 0 9 8.3c5 .4 8.7-3.5 9.1-8.4.1-1.2-1.8-1.2-1.9 0-.3 3.6-3 6.7-6.9 6.5a7.59 7.59 0 0 1-7.4-7.5c-.3-8.7.9-20.4 9.1-25.5a14.25 14.25 0 0 1 2.8-1.3c.3-.1.7-.1.9-.2s.7-.1.1 0l-1-1c.8 9.7 1.5 19.4 2.3 29.1.1 1.2 2.1 1.2 2-.1Z"/><path class="cls-7" d="M207.3 173.7s-7.5-.3-8.1-7.5-2.3-29.1-2.3-29.1 17.7-1.4 18.5 29.1c0 0 0 6.8-8.1 7.5Z"/><path class="cls-2" d="M207.3 172.8a7.54 7.54 0 0 1-6.4-3.9c-.8-1.7-.8-3.8-.9-5.7s-.3-4.1-.5-6.1c-.5-6.6-1-13.2-1.6-19.9l-1 1a12.67 12.67 0 0 1 8.1 2.8c7.3 5.4 9 15.9 9.3 24.4.2 4.2-2.8 6.9-7 7.4-1.2.1-1.2 2.1 0 1.9 4.3-.5 8.2-2.8 8.9-7.4a21.57 21.57 0 0 0-.3-6.7 44.15 44.15 0 0 0-1.7-8.8c-2-6.7-6.3-13.1-13.3-15.1a11.33 11.33 0 0 0-4.1-.6 1 1 0 0 0-1 1c.4 5.3.8 10.7 1.3 16 .3 3.6.6 7.2.8 10.7.2 3.1.5 6.2 3 8.4a10.19 10.19 0 0 0 6.2 2.4.91.91 0 1 0 .2-1.8Z"/><g class="cls-9"><path class="cls-10" d="M215.7 167.8c2 6.5 9.1 6.2 9.1 6.2 4.3-.8 6.2-3.2 6.7-6.2Zm-42.2 6.2c7.5 0 9.1-4.1 9.5-6.2h-15.9c.4 3.4 2 6.2 6.4 6.2Zm17.6 0c5.6.3 7.3-4 7.9-6.2h-15.7a8.12 8.12 0 0 0 7.8 6.2Zm16.2 0c5.9-.6 7.5-4.2 7.9-6.2h-15.8c1.3 5.9 7.9 6.2 7.9 6.2Z"/></g><path class="cls-11" d="M76.2 92.6H61.7a2 2 0 0 1-2-2v-3a2 2 0 0 1 2-2h14.5a2 2 0 0 1 2 2v3a2 2 0 0 1-2 2Z"/><path class="cls-2" d="M75.4 93H62.6a3.16 3.16 0 0 1-3.2-3.2v-1.4a3.16 3.16 0 0 1 3.2-3.2h12.8a3.16 3.16 0 0 1 3.2 3.2v1.4a3.22 3.22 0 0 1-3.2 3.2Zm-12.8-7a2.43 2.43 0 0 0-2.4 2.4v1.4a2.43 2.43 0 0 0 2.4 2.4h12.8a2.43 2.43 0 0 0 2.4-2.4v-1.4a2.43 2.43 0 0 0-2.4-2.4Z"/><path class="cls-11" d="M85.4 82.8H71a2 2 0 0 1-2-2v-3a2 2 0 0 1 2-2h14.5a2 2 0 0 1 2 2v3a2.16 2.16 0 0 1-2.1 2Z"/><path class="cls-2" d="M84.6 83.2H71.8a3.16 3.16 0 0 1-3.2-3.2v-1.4a3.16 3.16 0 0 1 3.2-3.2h12.8a3.16 3.16 0 0 1 3.2 3.2V80a3.16 3.16 0 0 1-3.2 3.2Zm-12.8-7a2.43 2.43 0 0 0-2.4 2.4V80a2.43 2.43 0 0 0 2.4 2.4h12.8A2.43 2.43 0 0 0 87 80v-1.4a2.43 2.43 0 0 0-2.4-2.4Z"/><path class="cls-11" d="M74.3 134H59.8a2 2 0 0 1-2-2v-3a2 2 0 0 1 2-2h14.5a2 2 0 0 1 2 2v3a2 2 0 0 1-2 2Z"/><path class="cls-2" d="M73.4 134.3H60.6a3.16 3.16 0 0 1-3.2-3.2v-1.4a3.16 3.16 0 0 1 3.2-3.2h12.8a3.16 3.16 0 0 1 3.2 3.2v1.4a3.16 3.16 0 0 1-3.2 3.2Zm-12.8-7a2.43 2.43 0 0 0-2.4 2.4v1.4a2.43 2.43 0 0 0 2.4 2.4h12.8a2.43 2.43 0 0 0 2.4-2.4v-1.4a2.43 2.43 0 0 0-2.4-2.4Z"/><path class="cls-11" d="M99.2 134H84.8a2 2 0 0 1-2-2v-3a2 2 0 0 1 2-2h14.5a2 2 0 0 1 2 2v3a2.16 2.16 0 0 1-2.1 2Z"/><path class="cls-2" d="M98.4 134.3H85.6a3.16 3.16 0 0 1-3.2-3.2v-1.4a3.16 3.16 0 0 1 3.2-3.2h12.8a3.16 3.16 0 0 1 3.2 3.2v1.4a3.16 3.16 0 0 1-3.2 3.2Zm-12.8-7a2.43 2.43 0 0 0-2.4 2.4v1.4a2.43 2.43 0 0 0 2.4 2.4h12.8a2.43 2.43 0 0 0 2.4-2.4v-1.4a2.43 2.43 0 0 0-2.4-2.4Z"/><path class="cls-11" d="M236.1 126.9h-6.7a2.8 2.8 0 0 0-2.8 2.8v1.4a2.8 2.8 0 0 0 2.8 2.8h6.7Z"/><path class="cls-2" d="M236.5 134.3h-7a3.16 3.16 0 0 1-3.2-3.2v-1.4a3.16 3.16 0 0 1 3.2-3.2h7Zm-7-7a2.43 2.43 0 0 0-2.4 2.4v1.4a2.43 2.43 0 0 0 2.4 2.4h6.3v-6.3h-6.3Z"/><path class="cls-11" d="M236.1 243.9h-5a2.16 2.16 0 0 0-2.1 2.3v1.1a2.23 2.23 0 0 0 2.1 2.3h5Z"/><path class="cls-2" d="M236.5 250h-5.4a2.59 2.59 0 0 1-2.5-2.7v-1.1a2.59 2.59 0 0 1 2.5-2.7h5.4Zm-5.4-5.7a1.8 1.8 0 0 0-1.7 1.9v1.1a1.87 1.87 0 0 0 1.7 1.9h4.7v-4.9Z"/><path class="cls-11" d="M230.5 124.1H216a2 2 0 0 1-2-2v-3a2 2 0 0 1 2-2h14.5a2 2 0 0 1 2 2v3a1.94 1.94 0 0 1-2 2Z"/><path class="cls-2" d="M229.7 124.5h-12.8a3.16 3.16 0 0 1-3.2-3.2v-1.4a3.16 3.16 0 0 1 3.2-3.2h12.8a3.16 3.16 0 0 1 3.2 3.2v1.4a3.16 3.16 0 0 1-3.2 3.2Zm-12.8-7a2.43 2.43 0 0 0-2.4 2.4v1.4a2.43 2.43 0 0 0 2.4 2.4h12.8a2.43 2.43 0 0 0 2.4-2.4v-1.4a2.43 2.43 0 0 0-2.4-2.4Z"/><path class="cls-11" d="M236.1 84.2h-6.7a2.8 2.8 0 0 0-2.8 2.8v1.4a2.8 2.8 0 0 0 2.8 2.8h6.7Z"/><path class="cls-2" d="M236.5 91.6h-7a3.16 3.16 0 0 1-3.2-3.2V87a3.16 3.16 0 0 1 3.2-3.2h7Zm-7-7a2.43 2.43 0 0 0-2.4 2.4v1.4a2.43 2.43 0 0 0 2.4 2.4h6.3v-6.3h-6.3Z"/><path class="cls-11" d="M230.5 81.4H216a2 2 0 0 1-2-2v-3a2 2 0 0 1 2-2h14.5a2 2 0 0 1 2 2v3a1.94 1.94 0 0 1-2 2Z"/><path class="cls-2" d="M229.7 81.8h-12.8a3.16 3.16 0 0 1-3.2-3.2v-1.4a3.16 3.16 0 0 1 3.2-3.2h12.8a3.16 3.16 0 0 1 3.2 3.2v1.4a3.16 3.16 0 0 1-3.2 3.2Zm-12.8-7a2.43 2.43 0 0 0-2.4 2.4v1.4a2.43 2.43 0 0 0 2.4 2.4h12.8a2.43 2.43 0 0 0 2.4-2.4v-1.4a2.43 2.43 0 0 0-2.4-2.4Z"/><path class="cls-11" d="M214.5 100.8H200a2 2 0 0 1-2-2v-3a2 2 0 0 1 2-2h14.5a2 2 0 0 1 2 2v3a2 2 0 0 1-2 2Z"/><path class="cls-2" d="M213.7 101.2h-12.8a3.16 3.16 0 0 1-3.2-3.2v-1.4a3.16 3.16 0 0 1 3.2-3.2h12.8a3.16 3.16 0 0 1 3.2 3.2V98a3.16 3.16 0 0 1-3.2 3.2Zm-12.8-7a2.43 2.43 0 0 0-2.4 2.4V98a2.43 2.43 0 0 0 2.4 2.4h12.8a2.43 2.43 0 0 0 2.4-2.4v-1.4a2.43 2.43 0 0 0-2.4-2.4Z"/><path class="cls-11" d="M85.5 145.4H71a2 2 0 0 1-2-2v-3a2 2 0 0 1 2-2h14.5a2 2 0 0 1 2 2v3a2.07 2.07 0 0 1-2 2Z"/><path class="cls-2" d="M84.6 145.8H71.8a3.16 3.16 0 0 1-3.2-3.2v-1.4a3.16 3.16 0 0 1 3.2-3.2h12.8a3.16 3.16 0 0 1 3.2 3.2v1.4a3.16 3.16 0 0 1-3.2 3.2Zm-12.8-7a2.43 2.43 0 0 0-2.4 2.4v1.4a2.43 2.43 0 0 0 2.4 2.4h12.8a2.43 2.43 0 0 0 2.4-2.4v-1.4a2.43 2.43 0 0 0-2.4-2.4Z"/><path class="cls-3" d="M108.2 166.2s2-26.6-18.5-29.1a33.61 33.61 0 0 1 30.8 15.3s10.6 18.9-2.9 21.3c0 0-8 .4-9.4-7.5Z"/><path class="cls-2" d="M109.2 166.2c.6-8.8-1.7-19.6-8.7-25.6a20.42 20.42 0 0 0-10.7-4.5v1.9c9-1.2 18.9 2.9 25.2 9.1a29 29 0 0 1 7.1 11.1c1.4 3.9 3 10.1-1 13.1a6.81 6.81 0 0 1-5.7 1.2 8 8 0 0 1-6.3-6.5c-.2-1.2-2.1-.7-1.9.5a10.18 10.18 0 0 0 10.5 8.2c6.3-.6 8.3-6.6 7.4-12.1-1.9-12-11.4-21.6-22.9-25.1a31.13 31.13 0 0 0-12.5-1.4 1 1 0 0 0 0 1.9c13.4 1.8 18.4 16.2 17.5 28.1a1 1 0 1 0 2 .1Z"/><path class="cls-7" d="M89.3 137.1s-15.6 2.5-13.5 29.1c0 0 .5 7.5-9.6 7.5s-5.8-15.4-4.3-18.3 8.2-15.3 27.4-18.3Z"/><path class="cls-2" d="M89.1 136.2c-3 .5-5.9 2.6-8 4.8-6 6.5-6.8 16.1-6.3 24.5a6.05 6.05 0 0 1-2.4 5.6c-3.1 2.2-9.4 2.6-11-1.5-1.3-3.2-.5-7.3.3-10.5a23.4 23.4 0 0 1 2.5-5.6c5.6-8.9 15.3-13.8 25.4-15.5 1.2-.1.7-2-.5-1.8-9.9 1.6-19.3 6.2-25.3 14.5a24.79 24.79 0 0 0-5 16.2c.3 3.5 1.9 6.9 5.6 7.6 3.9.8 9-.4 11.2-3.9 1.7-2.7 1-5.5 1-8.5-.1-5.2.6-10.7 2.9-15.4 1.9-3.8 5.6-7.9 10-8.7 1.3-.1.8-2-.4-1.8Z"/><path class="cls-3" d="m92 166.2-2.3-29.1s-15.1 1.8-13.9 29.1a8.41 8.41 0 0 0 8.1 7.5c7.5.5 8.1-7.5 8.1-7.5Z"/><path class="cls-2" d="M93 166.2c-.8-9.7-1.5-19.4-2.3-29.1a1 1 0 0 0-1-1c-5.6.7-9.9 5.8-12 10.7a39.55 39.55 0 0 0-2.8 19.5 9.35 9.35 0 0 0 9 8.3c5.1.4 8.7-3.5 9.1-8.4.1-1.2-1.8-1.2-1.9 0-.3 3.6-3 6.7-6.9 6.5a7.59 7.59 0 0 1-7.4-7.5c-.3-8.7.9-20.4 9.1-25.5a14.25 14.25 0 0 1 2.8-1.3c.3-.1.7-.1.9-.2s.7-.1.1 0l-1-1c.8 9.7 1.5 19.4 2.3 29.1.1 1.2 2.1 1.2 2-.1Z"/><path class="cls-7" d="M100.1 173.7s-7.5-.3-8.1-7.5-2.3-29.1-2.3-29.1 17.7-1.4 18.5 29.1c0 0 .1 6.8-8.1 7.5Z"/><path class="cls-2" d="M100.1 172.8a7.54 7.54 0 0 1-6.4-3.9c-.8-1.7-.8-3.8-.9-5.7s-.3-4.1-.5-6.1c-.5-6.6-1-13.2-1.6-19.9l-1 1a12.67 12.67 0 0 1 8.1 2.8c7.3 5.4 9 15.9 9.3 24.4.3 4.2-2.8 6.9-7 7.4-1.2.1-1.2 2.1 0 1.9 4.3-.5 8.2-2.8 8.9-7.4a21.57 21.57 0 0 0-.3-6.7 44.15 44.15 0 0 0-1.7-8.8c-2-6.7-6.3-13.1-13.3-15.1a11.33 11.33 0 0 0-4.1-.6 1 1 0 0 0-1 1c.4 5.3.8 10.7 1.3 16 .3 3.6.6 7.2.8 10.7.2 3.1.5 6.2 3 8.4a10.19 10.19 0 0 0 6.2 2.4.91.91 0 1 0 .2-1.8Z"/><g class="cls-9"><path class="cls-10" d="M109 168.2c2 6.5 9.1 6.2 9.1 6.2 4.3-.8 6.2-3.2 6.7-6.2Zm-42.3 6.2c7.5 0 9.1-4.1 9.5-6.2H60.3c.4 3.4 2.1 6.2 6.4 6.2Zm17.7 0c5.6.3 7.3-4 7.9-6.2H76.6c.5 2.1 2.3 5.9 7.8 6.2Zm16.2 0c5.9-.6 7.5-4.2 7.9-6.2H92.7c1.3 5.9 7.9 6.2 7.9 6.2Z"/></g><path class="cls-7" d="M44.1 100.8h203.7v9.7H44.1z"/><path class="cls-2" d="M247.8 98.9H69.3c-8.2 0-16.6-.3-24.8 0h-.3a2 2 0 0 0-1.9 1.9v9.7a2 2 0 0 0 1.9 1.9h178.5c8.2 0 16.6.3 24.8 0h.3a2 2 0 0 0 1.9-1.9v-9.7c0-2.5-3.9-2.5-3.9 0v9.7l1.9-1.9H52.4c-2.6 0-5.5-.4-8 0h-.3l1.9 1.9v-9.7l-1.9 1.9h178.5c8.2 0 16.6.3 24.8 0h.3a1.9 1.9 0 1 0 .1-3.8Z"/><path class="cls-11" d="M121.3 253.3h50.6v5h-50.6z"/><path class="cls-2" d="M172.6 258.8h-51.8v-6.1h51.8Zm-50.7-1.2h49.5v-3.8h-49.5Z"/><path class="cls-11" d="M121.3 262.6h50.6v4.1h-50.6z"/><path class="cls-2" d="M172.6 267.3h-51.8V262h51.8Zm-50.7-1.1h49.5v-3h-49.5Z"/><path class="cls-1" d="M118.5 223.8c-2.9-5.4-6.1-15.4-14.1-15.3-8.9.2-10.2 9.5-13.4 15.3-1.9 3.4-3.8 7.1-3.5 10.9.3 5 5.8 8.6 11 8.6h12.4c5.1 0 10.6-3.5 11-8.6.3-3.8-1.6-7.5-3.4-10.9Z"/><path class="cls-2" d="M120.2 222.8c-3.4-6.3-6.4-15.6-14.8-16.2a11.54 11.54 0 0 0-10.2 4.7c-2.3 2.9-3.4 6.5-4.9 9.8-2.1 4.7-5.4 9.4-4.4 14.8.9 4.5 5 7.7 9.3 8.8 2.9.7 6 .4 8.9.4h6.5a14.31 14.31 0 0 0 11.7-5.5c3.6-5.3.6-11.7-2.1-16.8-1.2-2.2-4.5-.2-3.3 2 2 3.7 5 9 2 12.9-2 2.6-5.3 3.6-8.5 3.6H98.8c-3.2 0-6.8-1.4-8.5-4.2-2.5-4.2.9-9.3 2.8-13 2.4-4.8 3.9-12.7 10.3-13.5 7.7-1 10.6 9 13.4 14.3 1.2 2.1 4.5.1 3.4-2.1Z"/><path class="cls-3" d="M88.2 249.2h33.1v22.2H88.2z"/><path class="cls-2" d="M121.3 269.4H88.2l1.9 1.9v-22.2l-1.9 1.9h33.1l-1.9-1.9v22.2c0 2.5 3.9 2.5 3.9 0v-22.2a2 2 0 0 0-1.9-1.9H88.3a2 2 0 0 0-1.9 1.9v22.2a2 2 0 0 0 1.9 1.9h33.1c2.4.1 2.4-3.8-.1-3.8Z"/><path class="cls-1" d="M200.7 224.3c-2.9-5.3-6.1-15-14.1-14.9-8.9.2-10.2 9.2-13.4 14.9-1.9 3.3-3.8 6.9-3.5 10.6.3 4.9 5.8 8.3 11 8.3h12.4c5.1 0 10.6-3.4 11-8.3.4-3.7-1.5-7.2-3.4-10.6Z"/><path class="cls-2" d="M202.4 223.3c-3.5-6.3-6.5-15.4-15-15.8a11.8 11.8 0 0 0-10.1 4.8c-2.3 3-3.4 6.6-5.1 10-2.2 4.4-5.4 9.2-4.1 14.4 1.1 4.4 5.5 7.4 9.7 8.2a48.35 48.35 0 0 0 8.5.3h6.5c4.4 0 8.9-1.7 11.6-5.4 3.8-5.2.7-11.5-2-16.5-1.2-2.2-4.6-.2-3.3 2 1.9 3.5 5 8.5 2.2 12.3-1.9 2.6-5.3 3.7-8.4 3.7h-11.6c-3.1 0-6.5-1.1-8.4-3.7-2.8-3.8.3-8.8 2.2-12.3 2.6-4.8 4-12.8 10.4-13.8 7.8-1.3 10.8 8.5 13.7 13.8 1 2.2 4.4.2 3.2-2Z"/><path class="cls-3" d="M170.4 249.2h33.1v22.2h-33.1z"/><path class="cls-2" d="M203.6 269.4h-33.1l1.9 1.9v-22.2l-1.9 1.9h33.1l-1.9-1.9v22.2c0 2.5 3.9 2.5 3.9 0v-22.2a2 2 0 0 0-1.9-1.9h-33.1a2 2 0 0 0-1.9 1.9v22.2a2 2 0 0 0 1.9 1.9h33.1c2.4.1 2.4-3.8-.1-3.8Zm-100.8-33.6v13.3c0 2.5 3.9 2.5 3.9 0v-13.3c0-2.5-3.9-2.5-3.9 0Z"/><path class="cls-2" d="M185.1 235.8v13.3c0 2.5 3.9 2.5 3.9 0v-13.3c-.1-2.5-3.9-2.5-3.9 0Z"/></svg>