<svg id="Layer_1" data-name="Layer 1" xmlns="http://www.w3.org/2000/svg" viewBox="0 0 512 512"><defs><style>.cls-2{fill:#f55}</style></defs><path d="M261.5 154.2v150.6a22.79 22.79 0 0 1-22.8 22.8H12v20h246.6a22.79 22.79 0 0 0 22.8-22.8v-170H264a5.42 5.42 0 0 1-2.5-.6Zm-.2-61.6c.1.9-.7 50.2.2 50.2h20v-27.5a22.9 22.9 0 0 0-20.2-22.7Z" style="fill:#d4e1f4"/><path class="cls-2" d="M293.5 324.8V115.3a34.83 34.83 0 0 0-34.8-34.8H4.1v12h254.5a22.79 22.79 0 0 1 22.8 22.8v27.5H264a6 6 0 0 0 0 12h17.4v170a22.79 22.79 0 0 1-22.8 22.8H4.1v12h254.5a34.72 34.72 0 0 0 34.9-34.8Z"/><path class="cls-2" d="M138.5 283.2a43.07 43.07 0 0 0 61.7 38.9 43.14 43.14 0 1 0 0-77.9 43.07 43.07 0 0 0-61.7 39Zm49.1 0a31.31 31.31 0 0 1 12.6-25 31.1 31.1 0 0 1 0 50 31.31 31.31 0 0 1-12.6-25Zm62.2 0a31.15 31.15 0 0 1-37.7 30.4 43 43 0 0 0 0-60.8 31 31 0 0 1 26.1 6.2 30.56 30.56 0 0 1 11.6 24.2Zm-68.2-31.1a29.62 29.62 0 0 1 6.6.7 43 43 0 0 0 0 60.8 31.1 31.1 0 1 1-6.6-61.5Zm59.6-97.3a6 6 0 0 0 0-12h-33.7a6 6 0 0 0 0 12Zm-55.6 0a6 6 0 0 0 0-12H180a6 6 0 0 0 0 12Zm-28.1-12H9a6 6 0 0 0 0 12h148.5a6 6 0 0 0 0-12Zm188-117.1-24-24a6 6 0 0 0-8.4.1 6.07 6.07 0 0 0-.1 8.4L326.8 24h-81.3a6 6 0 0 0 0 12h81.3L313 49.8a6 6 0 0 0 2.7 10.1 5.93 5.93 0 0 0 5.8-1.6l24-24a6.22 6.22 0 0 0 0-8.6ZM171.7 24h-1.1a6 6 0 0 0 0 12h1.1a6 6 0 0 0 0-12Zm18.9 12h.7a6 6 0 0 0 0-12h-.7a6 6 0 0 0 0 12Zm27.9-12a6 6 0 0 0 0 12h.3a6 6 0 0 0 0-12Zm114.1 370.7a5.72 5.72 0 0 0-5.8-1.6 6.21 6.21 0 0 0-4.3 4.3 5.93 5.93 0 0 0 1.6 5.8l13.8 13.8H208.5a6 6 0 0 0 0 12h129.4l-13.8 13.8a6 6 0 0 0 8.5 8.5l24-24a6.1 6.1 0 0 0 0-8.5ZM134.8 417h-1.1a6 6 0 1 0 0 12h1.1a6 6 0 0 0 6-6 6 6 0 0 0-6-6Zm19.6 0h-.7a6 6 0 0 0 0 12h.7a6 6 0 0 0 6-6 6 6 0 0 0-6-6Zm27.5 0h-.3a6 6 0 0 0 0 12h.3a6 6 0 0 0 6-6 6 6 0 0 0-6-6Zm203.7-284.3a6.1 6.1 0 0 0 0 8.5l13.8 13.8h-23.6a6 6 0 1 0 0 12h23.6l-13.8 13.8a6 6 0 0 0 8.5 8.5l24-24a6.1 6.1 0 0 0 0-8.5l-24-24a5.83 5.83 0 0 0-8.5-.1ZM307.8 167a6 6 0 0 0 0-12h-1.1a6 6 0 0 0 0 12Zm19.7-12h-.7a6 6 0 0 0 0 12h.7a6 6 0 0 0 0-12Zm27.1 0a6 6 0 0 0 0 12h.3a6 6 0 0 0 0-12Zm58.9 108.7a6 6 0 0 0-8.4.1 6.07 6.07 0 0 0-.1 8.4l13.8 13.8h-59a6 6 0 1 0 0 12h59L405 311.8a6 6 0 0 0 2.7 10.1 5.93 5.93 0 0 0 5.8-1.6l24-24a6.1 6.1 0 0 0 0-8.5ZM310.8 298h.7a6 6 0 0 0 0-12h-.7a6 6 0 1 0 0 12Zm27.9 0h.3a6 6 0 0 0 0-12h-.3a6 6 0 0 0 0 12Z"/><path class="cls-2" d="M33.3 8.4H6a6 6 0 0 0-6 6v411.3a6 6 0 0 0 6 6h27.3a6 6 0 0 0 6-6v-66.5h-12v60.5H12V20.4h15.3V80h12V14.4a6 6 0 0 0-6-6Z"/></svg>