<svg id="Layer_1" data-name="Layer 1" xmlns="http://www.w3.org/2000/svg" viewBox="0 0 464 464"><defs><style>.cls-2{fill:#4c616d}</style></defs><path style="fill:#f55" d="M8 168h448v64H8z"/><path class="cls-2" d="M392 256a40 40 0 1 0 40 40 39.61 39.61 0 0 0-40-40Zm0 64a24 24 0 1 1 24-24 23.57 23.57 0 0 1-24 24Z"/><path class="cls-2" d="M40 400h384a39.61 39.61 0 0 0 40-40V104a39.61 39.61 0 0 0-40-40H40a39.61 39.61 0 0 0-40 40v256a39.61 39.61 0 0 0 40 40Zm384-16H40a23.57 23.57 0 0 1-24-24V208h432v152a23.57 23.57 0 0 1-24 24ZM16 144h432v48H16Zm24-64h384a23.57 23.57 0 0 1 24 24v24H16v-24a23.57 23.57 0 0 1 24-24Z"/><path class="cls-2" d="M72 320H40a8 8 0 0 0 0 16h32a8 8 0 0 0 0-16Zm64 0h-32a8 8 0 0 0 0 16h32a8 8 0 0 0 0-16Zm64 0h-32a8 8 0 0 0 0 16h32a8 8 0 0 0 0-16Zm64 0h-32a8 8 0 0 0 0 16h32a8 8 0 0 0 0-16ZM40 304h128a8 8 0 0 0 0-16H40a8 8 0 0 0 0 16Z"/></svg>