<svg id="Layer_1" data-name="Layer 1" xmlns="http://www.w3.org/2000/svg" viewBox="0 0 180 170"><defs><style>.cls-1,.cls-2{fill:none}.cls-1{stroke:#4c626e;stroke-miterlimit:10;stroke-width:5px}.cls-2{stroke:#837fcb;stroke-linecap:round;stroke-linejoin:round;stroke-width:4px}</style></defs><path class="cls-1" d="M90 22.7v124.6m0-90.6H36.2m107.6 56.6H36.2m54.2 34a74.08 74.08 0 0 1 0-124.6"/><path class="cls-1" d="M103.1 24.1A62.59 62.59 0 0 0 90 22.7a19.27 19.27 0 0 0-2.4.1 77.05 77.05 0 0 1 9.5 7.3m-9.5 117.1c.8 0 1.6.1 2.4.1A62.31 62.31 0 0 0 152.3 85"/><path class="cls-1" d="M97.1 30.1a72.77 72.77 0 0 0-9.5-7.3 62.24 62.24 0 0 0 0 124.4 73.33 73.33 0 0 0 31.1-42.1"/><path class="cls-2" d="M150.9 48.6c0 19.5-25.6 43.2-25.5 51.6 0-8.3-25.5-32-25.5-51.6a25.5 25.5 0 1 1 51 0Z"/><circle class="cls-2" cx="125.4" cy="49.2" r="11.3"/></svg>