<svg id="Capa_1" data-name="Capa 1" xmlns="http://www.w3.org/2000/svg" viewBox="0 0 430 430"><defs><style>.cls-1{fill:#00b289}</style></defs><path class="cls-1" d="M338.32 52a170.54 170.54 0 0 0-55.41-38.43 164.34 164.34 0 0 0-130.6 0A170.65 170.65 0 0 0 96.9 52C63 87.13 44.2 136.38 44.2 190.48 44.2 246 63 304.85 96 352c34 49 78.42 77.1 121.52 77.1S305 401 339.25 352C372.09 304.85 391 246 391 190.48c-.07-54.19-18.73-103.35-52.68-138.48ZM324 341.32c-30.69 43.94-69.49 69.12-106.43 69.12s-75.75-25.18-106.44-69.12c-30.36-43.38-48.46-99.72-48.46-150.84.09-111.56 79.85-171.82 154.85-171.82s154.75 60.26 154.75 171.82c0 51.03-18.09 107.46-48.27 150.84Z"/><path class="cls-1" d="M137.2 106.16a46.41 46.41 0 0 0-5.13.28C95.13 110.82 71.81 161.1 78.9 220.8c6.72 56.44 38.34 98.88 73.51 98.88a46.41 46.41 0 0 0 5.13-.28c18.56-2.24 34.23-16 44.12-38.81 9.14-21.17 12.31-47.94 9.05-75.56-6.71-56.34-38.34-98.87-73.51-98.87Zm47.3 167.06c-7.09 16.51-17.45 26.31-29.2 27.71-.93.09-2 .19-2.89.19-24.91 0-49.54-37-54.95-82.47-5.69-47.65 11.2-90.57 36.85-93.65.93-.09 2-.19 2.89-.19 24.91 0 49.54 37 55 82.46.09 1.12.28 2.24.37 3.27l-68.33-28.64a9.44 9.44 0 0 0-8.49.65 9.55 9.55 0 0 0-4.48 7.19A50.7 50.7 0 0 0 193 233.86c-.67 14.55-3.56 27.98-8.5 39.36Zm-9.7-49.9a32.21 32.21 0 0 1-25.19.09 31.83 31.83 0 0 1-17.54-18.1ZM303 106.44a46.59 46.59 0 0 0-5.14-.28c-35.16 0-66.79 42.53-73.5 98.87-3.27 27.62-.1 54.39 9 75.56 9.88 22.86 25.56 36.57 44.12 38.81a46.41 46.41 0 0 0 5.13.28c35.17 0 66.79-42.54 73.51-98.88 7.11-59.7-16.22-109.98-53.12-114.36Zm34.6 112.12c-5.44 45.52-30.16 82.44-54.97 82.44-.93 0-2-.09-2.89-.18-11.66-1.4-22-11.2-29.2-27.71-4.94-11.38-7.84-24.81-8.58-39.27a50.69 50.69 0 0 0 81.71-44.12 9.16 9.16 0 0 0-4.47-7.19 9.73 9.73 0 0 0-8.49-.65l-68.29 28.64c.1-1.12.19-2.24.38-3.27 5.41-45.52 30.13-82.46 54.94-82.46.93 0 2 .1 2.89.19 25.75 3.02 42.63 45.91 36.94 93.58Zm-77.33 4.76L303 205.41a32.39 32.39 0 0 1-17.54 18.09 31.7 31.7 0 0 1-25.19-.18Z"/></svg>