<svg id="Capa_1" data-name="Capa 1" xmlns="http://www.w3.org/2000/svg" viewBox="0 0 430 430"><defs><style>.cls-1{fill:#f5c62c}</style></defs><path class="cls-1" d="M337.62 228a127.74 127.74 0 0 0-37.13-5.5c-27.89 0-51.77 9.52-69 27.61a9.19 9.19 0 0 0-1.31 11.11 61.55 61.55 0 0 0 53 30.32 62.41 62.41 0 0 0 12.5-1.31 60.71 60.71 0 0 0 48.42-52.43 9.48 9.48 0 0 0-6.48-9.8Zm-45.9 44a45.62 45.62 0 0 1-8.67.93 42.72 42.72 0 0 1-32.65-15.11c13.15-11.1 29.94-16.7 50.09-16.7a120.68 120.68 0 0 1 23.23 2.42 42.34 42.34 0 0 1-32 28.52Zm-163.07-49.48A127.83 127.83 0 0 0 91.52 228a9.18 9.18 0 0 0-6.25 9.89 60.59 60.59 0 0 0 48.42 52.43 62.22 62.22 0 0 0 12.41 1.31 61.34 61.34 0 0 0 53-30.32 9.29 9.29 0 0 0-1.31-11.1c-17.27-18.21-41.15-27.69-69.14-27.69Zm17.45 50.38a38.79 38.79 0 0 1-8.68-.93 42.41 42.41 0 0 1-31.91-28.46 112.42 112.42 0 0 1 23.23-2.42c20.06 0 36.85 5.59 50.1 16.69a43.05 43.05 0 0 1-32.74 15.12Z"/><path class="cls-1" d="M423.08 81.56a9.22 9.22 0 0 0-10.26 2.51l-60.18 67.83a175 175 0 0 0-14.36-16.79 172.75 172.75 0 0 0-56.82-39.37 168.9 168.9 0 0 0-133.78 0 173.75 173.75 0 0 0-56.81 39.37A188.49 188.49 0 0 0 76.5 151.9L16.23 84.07A9.29 9.29 0 0 0 0 90.23v91.15a9.41 9.41 0 0 0 3.27 7.09l40.11 34a228 228 0 0 0-6.53 54.67A268 268 0 0 0 47 349.3a9.26 9.26 0 0 0 7.28 6.63 174.45 174.45 0 0 0 32.28 3.17c39.74 0 64.27-16.33 84-29.48 15.48-10.36 27.71-18.47 43.94-18.47s28.45 8.21 44 18.47c19.69 13.15 44.22 29.48 84 29.48a173.88 173.88 0 0 0 32.28-3.17 9.41 9.41 0 0 0 7.22-6.63 268 268 0 0 0 10.17-72.2 228 228 0 0 0-6.53-54.67l40.12-34a9.44 9.44 0 0 0 3.26-7.09V90.23a9 9 0 0 0-5.94-8.67ZM18.66 177v-18.94l11.47 11.28a9.33 9.33 0 0 0 6.53 2.71 9.09 9.09 0 0 0 6.63-2.8 9.28 9.28 0 0 0-.1-13.15l-24.62-24.26v-17.07l47.11 53.08a199.77 199.77 0 0 0-16.51 35Zm347 161.59a157.68 157.68 0 0 1-23.13 1.86c-34.06 0-54.21-13.43-73.61-26.31-16.7-11.1-32.47-21.64-54.39-21.64s-37.69 10.54-54.3 21.64c-19.4 13-39.46 26.31-73.6 26.31a157.81 157.81 0 0 1-23.14-1.86 244.9 244.9 0 0 1-7.93-61.48 207.69 207.69 0 0 1 6.72-53.83 8.06 8.06 0 0 0 .93-3.55 174.6 174.6 0 0 1 20.29-45.82 8.57 8.57 0 0 0 2.61-4c31-45.52 80.6-69.31 128.46-69.31s97.49 23.79 128.37 69.31a9.32 9.32 0 0 0 2.61 4 172 172 0 0 1 20.34 45.81 9.7 9.7 0 0 0 .94 3.55 212.1 212.1 0 0 1 6.71 53.83 240.4 240.4 0 0 1-7.93 61.48Zm14.18-135.65a190.69 190.69 0 0 0-16.51-35l47.21-53.17v17.07l-24.68 24.26a9.3 9.3 0 1 0 13.06 13.24l11.57-11.28V177Z"/><path class="cls-1" d="M237.06 201.44a9.23 9.23 0 0 0 8.67 6 8.56 8.56 0 0 0 3.36-.66 9.34 9.34 0 0 0 5.32-12l-23.7-61.2a9.27 9.27 0 0 0-8.67-6h-14.93a9.27 9.27 0 0 0-8.68 6l-23.69 61.2a9.3 9.3 0 0 0 17.35 6.72l7.65-19.88h29.57Zm-30-38.53 6.53-16.8h2.14l6.53 16.8Z"/></svg>