<svg id="Layer_1" data-name="Layer 1" xmlns="http://www.w3.org/2000/svg" viewBox="0 0 464 464"><defs><style>.cls-1{fill:#4c616d}</style></defs><path class="cls-1" d="m77.6 461.7 26.4-26.4 26.4 26.4a7.73 7.73 0 0 0 11.2 0l26.4-26.4 26.4 26.4a7.73 7.73 0 0 0 11.2 0l26.4-26.4 26.4 26.4a7.73 7.73 0 0 0 11.2 0l26.4-26.4 26.4 26.4a7.73 7.73 0 0 0 11.2 0l26.4-26.4 26.4 26.4a7.26 7.26 0 0 0 5.6 2.4c.8 0 2.4 0 3.2-.8q4.8-2.4 4.8-7.2V8.1c0-3.2-1.6-6.4-4.8-7.2a7.3 7.3 0 0 0-8.8 1.6L360 28.9 333.6 2.5a7.73 7.73 0 0 0-11.2 0L296 28.9 269.6 2.5a7.73 7.73 0 0 0-11.2 0L232 28.9 205.6 2.5a7.73 7.73 0 0 0-11.2 0L168 28.9 141.6 2.5a7.73 7.73 0 0 0-11.2 0L104 28.9 77.6 2.5A7.3 7.3 0 0 0 68.8.9c-3.2.8-4.8 4-4.8 7.2v448c0 3.2 1.6 6.4 4.8 7.2a7.3 7.3 0 0 0 8.8-1.6ZM80 27.3l18.4 18.4a7.73 7.73 0 0 0 11.2 0L136 19.3l26.4 26.4a7.73 7.73 0 0 0 11.2 0L200 19.3l26.4 26.4a7.73 7.73 0 0 0 11.2 0L264 19.3l26.4 26.4a7.73 7.73 0 0 0 11.2 0L328 19.3l26.4 26.4a7.73 7.73 0 0 0 11.2 0L384 27.3v409.6l-18.4-18.4a7.73 7.73 0 0 0-11.2 0L328 444.9l-26.4-26.4a7.73 7.73 0 0 0-11.2 0L264 444.9l-26.4-26.4a7.73 7.73 0 0 0-11.2 0L200 444.9l-26.4-26.4a7.73 7.73 0 0 0-11.2 0L136 444.9l-26.4-26.4a7.73 7.73 0 0 0-11.2 0L80 436.9V27.3Z"/><path class="cls-1" d="M136 80.1h128a7.56 7.56 0 0 0 8-8 7.56 7.56 0 0 0-8-8H136a7.56 7.56 0 0 0-8 8 7.56 7.56 0 0 0 8 8Zm160 0h32a7.56 7.56 0 0 0 8-8 7.56 7.56 0 0 0-8-8h-32a7.56 7.56 0 0 0-8 8 7.56 7.56 0 0 0 8 8Zm-160 32h32a8 8 0 0 0 0-16h-32a8 8 0 0 0 0 16Zm192-16H200a8 8 0 0 0 0 16h128a8 8 0 0 0 0-16Zm-192 48h96a8 8 0 0 0 0-16h-96a8 8 0 0 0 0 16Zm192-16h-64a8 8 0 0 0 0 16h64a8 8 0 0 0 0-16Zm-192 48h192a8 8 0 0 0 0-16H136a8 8 0 0 0 0 16Z"/><circle cx="232" cy="328.1" r="96" style="fill:#f55"/><path class="cls-1" d="M232 400.1a104 104 0 1 0-104-104 103.79 103.79 0 0 0 104 104Zm0-192a88 88 0 1 1-88 88 87.75 87.75 0 0 1 88-88Z"/><path class="cls-1" d="M248 320.1h-48a8 8 0 0 0 0 16h24v24a8 8 0 0 0 16 0v-24h8a24 24 0 0 0 0-48h-32a8 8 0 0 1 0-16h48a8 8 0 0 0 0-16h-24v-24a8 8 0 0 0-16 0v24h-8a24 24 0 0 0 0 48h32a8 8 0 0 1 0 16Z"/></svg>