<svg id="Calque_1" data-name="Calque 1" xmlns="http://www.w3.org/2000/svg" viewBox="0 0 580 370"><defs><style>.cls-1{fill:none;stroke:#cde5f8;stroke-width:2px;stroke-miterlimit:10;opacity:.2;isolation:isolate}</style></defs><circle class="cls-1" cx="283" cy="198.2" r="60.8"/><circle class="cls-1" cx="283" cy="198.2" r="125.5"/><path d="M430.8 285.5H116.9c-13.5 0-24.4-12.3-24.4-27.5v-39.3c0-15.2 10.9-27.5 24.4-27.5h289.5c13.5 0 24.4 12.3 24.4 27.5Zm0-110H157.9a22.68 22.68 0 0 1-22.7-22.7v-8a22.68 22.68 0 0 1 22.7-22.7h250.2a22.68 22.68 0 0 1 22.7 22.7Zm0-65.3H250.5a15.3 15.3 0 0 1-15.3-15.3V81.4a15.3 15.3 0 0 1 15.3-15.3h165.1a15.3 15.3 0 0 1 15.3 15.3v28.8Z" style="fill:#fff;stroke-miterlimit:10;stroke:#cde5f8;stroke-width:2px"/><path d="M185 220.7h192m-192 16h158.8m-158.8 16h119.3" style="stroke:#8c8cf9;stroke-width:3px;stroke-miterlimit:10;fill:none"/></svg>