<svg id="Calque_1" data-name="Calque 1" xmlns="http://www.w3.org/2000/svg" viewBox="0 0 580 370"><defs><style>.cls-1,.cls-3{fill:none}.cls-1,.cls-2,.cls-3{stroke:#cde5f8}.cls-1,.cls-2,.cls-3,.cls-5{stroke-miterlimit:10;stroke-width:2px}.cls-1{opacity:.2;isolation:isolate}.cls-2,.cls-5{fill:#fff}.cls-5{stroke:#f5c62c}</style></defs><circle class="cls-1" cx="149.5" cy="96.1" r="56"/><circle class="cls-1" cx="149.5" cy="96.1" r="90.1"/><path class="cls-1" d="m5 263.8 89.5-49.4 41 18.5L483 99.2l40 47 79-37.8"/><path class="cls-2" d="M448.7 296.2H131.3a8.49 8.49 0 0 1-8.5-8.5V82.3a8.49 8.49 0 0 1 8.5-8.5h317.4a8.49 8.49 0 0 1 8.5 8.5v205.4a8.43 8.43 0 0 1-8.5 8.5Z"/><path class="cls-3" d="M186.4 73.8v222.4M353.3 73.8v10m0 2.3v10m0 2.3v10m0 2.4v10m0 2.3v10m0 2.3v10m0 2.4v10m0 2.3v10m0 2.3v10m0 2.4v10m0 2.3v10m0 2.3v10m0 2.4v10m0 2.3v10m0 2.3v10m0 2.4v10m0 2.3v10m0 2.3v10"/><path d="M145.7 91.7h7.5v7.5h-7.5zm9.7 0h7.5v7.5h-7.5zm-9.7 9.8h7.5v7.5h-7.5zm9.7 0h7.5v7.5h-7.5z" style="fill:#fff;stroke-miterlimit:10;stroke:#cde5f8"/><circle class="cls-2" cx="218.8" cy="107" r="11.5"/><circle class="cls-2" cx="218.8" cy="152.8" r="11.5"/><circle class="cls-2" cx="218.8" cy="198.6" r="11.5"/><circle class="cls-2" cx="218.8" cy="244.4" r="11.5"/><path class="cls-3" d="M245.8 107h87.5m-87.5 45.8h87.5m-87.5 45.8h87.5m-87.5 45.8h87.5"/><circle class="cls-2" cx="405.4" cy="135.8" r="20.3"/><path class="cls-5" d="M493.5 317.5H409a9 9 0 0 1-9-9V144.4a9 9 0 0 1 9-9h84.6a9 9 0 0 1 9 9v164.1a9.11 9.11 0 0 1-9.1 9Z"/><path style="stroke:#f5c62c;stroke-width:2px;stroke-miterlimit:10;fill:none" d="M400 162h102.5"/><path d="M411.4 144h4.3v4.3h-4.3zm5.5 0h4.3v4.3h-4.3zm-5.5 5.6h4.3v4.3h-4.3zm5.5 0h4.3v4.3h-4.3z" style="stroke-width:.8px;stroke:#f5c62c;fill:#fff;stroke-miterlimit:10"/><circle class="cls-5" cx="423.4" cy="192.3" r="9.8"/><circle class="cls-5" cx="423.4" cy="219.4" r="9.8"/><circle class="cls-5" cx="423.4" cy="246.6" r="9.8"/><circle class="cls-5" cx="423.4" cy="273.8" r="9.8"/><path d="M440.8 192.3h49.7m-49.7 27.1h49.7m-49.7 27.2h49.7m-49.7 27.2h49.7" style="stroke-linecap:round;stroke:#f5c62c;stroke-width:2px;stroke-miterlimit:10;fill:none"/></svg>