<svg id="Calque_1" data-name="Calque 1" xmlns="http://www.w3.org/2000/svg" viewBox="0 0 580 370"><defs><style>.cls-1,.cls-6{fill:#fff}.cls-1{stroke:#cde5f8}.cls-1,.cls-6{stroke-miterlimit:10}.cls-1{stroke-width:2px}.cls-6{stroke:#f83600}</style></defs><path class="cls-1" d="M193.2 174.9h320.6v151.2H193.2z"/><path class="cls-1" d="M164.4 132.9H485v151.2H164.4z"/><path class="cls-1" d="M135.6 84h320.6v151.2H135.6z"/><path style="fill:#f8f9fa" d="M286.8 85h168.3v149.2H286.8z"/><circle class="cls-1" cx="209.3" cy="145.9" r="38.4"/><path d="M165.4 201.3h90.5M183 213.4h57.4m62.9-109.9H332" style="fill:none;stroke-width:3px;stroke-miterlimit:10;stroke:#cde5f8"/><path d="M318.8 208.5h-6.1a.65.65 0 0 1-.6-.6v-23a.65.65 0 0 1 .6-.6h6.1a.65.65 0 0 1 .6.6v23a.58.58 0 0 1-.6.6Zm12.6 0h-6.1a.65.65 0 0 1-.6-.6v-41.3a.65.65 0 0 1 .6-.6h6.1a.65.65 0 0 1 .6.6v41.3a.58.58 0 0 1-.6.6Zm12.6 0h-6.1a.65.65 0 0 1-.6-.6v-29.1a.65.65 0 0 1 .6-.6h6.1a.65.65 0 0 1 .6.6v29.1q-.15.6-.6.6Zm12.5 0h-6.1a.65.65 0 0 1-.6-.6v-18.1a.65.65 0 0 1 .6-.6h6.1a.65.65 0 0 1 .6.6v18.1a.53.53 0 0 1-.6.6Zm12.6 0H363a.65.65 0 0 1-.6-.6v-12.5a.65.65 0 0 1 .6-.6h6.1a.65.65 0 0 1 .6.6v12.5a.53.53 0 0 1-.6.6Zm12.6 0h-6.1a.65.65 0 0 1-.6-.6V181a.65.65 0 0 1 .6-.6h6.1a.65.65 0 0 1 .6.6v26.9a.58.58 0 0 1-.6.6Zm12.6 0h-6.1a.65.65 0 0 1-.6-.6v-23a.65.65 0 0 1 .6-.6h6.1a.65.65 0 0 1 .6.6v23a.58.58 0 0 1-.6.6Zm12.6 0h-6.1a.65.65 0 0 1-.6-.6V177a.65.65 0 0 1 .6-.6h6.1a.65.65 0 0 1 .6.6v30.9a.58.58 0 0 1-.6.6Zm12.6 0h-6.1a.65.65 0 0 1-.6-.6v-16.3a.65.65 0 0 1 .6-.6h6.1a.65.65 0 0 1 .6.6v16.3q-.1.6-.6.6Zm12.5 0h-6a.65.65 0 0 1-.6-.6v-26.1a.65.65 0 0 1 .6-.6h6.1a.65.65 0 0 1 .6.6v26.1a.66.66 0 0 1-.7.6Z" style="fill:#f83600"/><path style="stroke:#f83600;fill:none;stroke-miterlimit:10" d="m313.9 138.4 16.4-18 16.4 19.5 16.4-12.6 16.4 5.2 16.4-6.5 16.4 12.6 16.4-15.8"/><circle class="cls-6" cx="313.9" cy="138" r="1.9"/><circle class="cls-6" cx="330.3" cy="120.4" r="1.9"/><circle class="cls-6" cx="346.7" cy="139.9" r="1.9"/><circle class="cls-6" cx="363.1" cy="127.4" r="1.9"/><circle class="cls-6" cx="379.5" cy="132.5" r="1.9"/><circle class="cls-6" cx="395.9" cy="126.2" r="1.9"/><circle class="cls-6" cx="412.3" cy="138.7" r="1.9"/><circle class="cls-6" cx="428.7" cy="122.7" r="1.9"/></svg>