<svg id="Layer_1" data-name="Layer 1" xmlns="http://www.w3.org/2000/svg" viewBox="0 0 512 512"><defs><style>.cls-1{fill:#837fcb}</style></defs><path class="cls-1" d="M505.28 20.09a10 10 0 0 0-2.81-6.09l-.11-.11a10 10 0 0 0-6.11-2.89 324.66 324.66 0 0 0-302.08 85.25l-6.7 6.62-91.19-.52a10 10 0 0 0-7.09 2.89L3.3 190.16a10 10 0 0 0-.08 14.14l40.37 40.83-9.12 9a10 10 0 0 0-.08 14.14l34.46 34.85-27.48 48a10 10 0 0 0 1.57 12l12.57 12.72a199.76 199.76 0 0 0-45.23 82.06L-1 499.43a10 10 0 0 0 12.17 12.31l41.63-10.85a199.62 199.62 0 0 0 82.57-44.3l12.55 12.69a10 10 0 0 0 12 1.7l48.31-26.93 34.5 34.95a10 10 0 0 0 14.14.08l9.12-9 40.22 40.68a10 10 0 0 0 14.14.08l85.88-84.92a10 10 0 0 0 3-7.06l.52-90.89 6.85-6.77a324.68 324.68 0 0 0 88.71-301.1ZM24.48 197.35l75.83-75 67.05.38-91.14 90.14-18.41 18.2Zm23.24 284.18L22.8 488l6.78-24.84a179.62 179.62 0 0 1 40-73.1l51.66 52.26a179.56 179.56 0 0 1-73.52 39.21Zm109-31.72-13.25-13.4a9.67 9.67 0 0 0-.74-.84 8.28 8.28 0 0 0-.83-.74L77.35 369.5c-.23-.29-.47-.57-.73-.84s-.55-.51-.83-.75l-13.28-13.42 20.94-36.59 110.13 111.39Zm232.51-35.21-75.83 75-33.18-33.6 109.39-108.15-.38 66.75ZM402.51 307 259.05 448.81l-9.11 9-32.87-33.24L88.42 294.48l-32.77-33.14 27.51-27.21 132.71 134.22a10 10 0 0 0 14.22-14.06L97.39 220.07l110.84-109.6C282 37.52 385.74 7.43 486.8 29.34 507.56 130.65 476.3 234 402.51 307Z"/><path class="cls-1" d="M372.93 205.47a10 10 0 0 0-10.06 9.94v.59a10 10 0 0 0 9.86 10.14h.08a10 10 0 0 0 10.06-9.86v-.8a10 10 0 0 0-9.94-10.01Z"/><path class="cls-1" d="M367.7 244.07a10 10 0 0 0-13.7 3.52 64 64 0 1 1-5.83-73.37 10 10 0 0 0 15.39-12.77 84 84 0 1 0 7.65 96.32 10 10 0 0 0-3.51-13.7ZM253.42 377.89a10 10 0 1 0 2.89 7.09 10 10 0 0 0-2.89-7.09Z"/></svg>