<svg version="1.1" id="Calque_1" xmlns="http://www.w3.org/2000/svg" x="0" y="0" viewBox="0 0 200 200" style="enable-background:new 0 0 200 200" xml:space="preserve"><style>.st0{fill:none;stroke:#c0d7f1;stroke-width:3;stroke-miterlimit:10}.st1{stroke-linecap:round;stroke-linejoin:round}.st1,.st2{fill:none;stroke:#c0d7f1;stroke-miterlimit:10}</style><path id="XMLID_25_" class="st0" d="M145.5 163.4h-91c-2.5 0-4.5-2-4.5-4.5v-91c0-2.5 2-4.5 4.5-4.5h90.9c2.5 0 4.5 2 4.5 4.5v90.9c.1 2.5-1.9 4.6-4.4 4.6z"/><circle id="XMLID_24_" class="st0" cx="59.1" cy="72.5" r="1.1"/><circle id="XMLID_23_" class="st0" cx="68.2" cy="72.5" r="1.1"/><circle id="XMLID_22_" class="st0" cx="77.3" cy="72.5" r="1.1"/><path id="XMLID_21_" class="st0" d="M50 81.6h100"/><g id="XMLID_28_"><path id="XMLID_30_" class="st1" d="M96.3 50.1v3.2"/><path id="XMLID_29_" class="st1" d="M97.9 51.7h-3.2"/></g><path id="XMLID_14_" class="st2" d="M93.1 25.3c-.1 0-.2.1-.3.1h-.7c-.8-.2-1.3-1.1-1.1-1.9s1.1-1.3 1.9-1.1c.8.2 1.3 1.1 1.1 1.9"/><path id="XMLID_16_" class="st2" d="M135.2 26.9c-.1 0-.2.1-.3.1h-.5c-.7-.2-1.1-.9-.9-1.6.2-.7.9-1.1 1.6-.9s1.1.9.9 1.6"/><path d="M124.1 41.3h-2v-2.1c0-.8-.7-1.5-1.5-1.5s-1.5.7-1.5 1.5v2.1H117c-.8 0-1.5.7-1.5 1.5s.7 1.5 1.5 1.5h2.1v2c0 .8.7 1.5 1.5 1.5s1.5-.7 1.5-1.5v-2h2c.8 0 1.5-.7 1.5-1.5s-.7-1.5-1.5-1.5zm-48-10.4h-2v-2c0-.6-.4-1-1-1s-1 .4-1 1v2h-2c-.6 0-1 .4-1 1s.4 1 1 1h2v2c0 .6.4 1 1 1s1-.4 1-1v-2h2c.6 0 1-.4 1-1s-.4-1-1-1zm47.6 68.3c-6-6-13.9-9.3-22.4-9.3s-16.4 3.3-22.4 9.3-9.3 13.9-9.3 22.4 3.3 16.4 9.3 22.4 13.9 9.3 22.4 9.3 16.4-3.3 22.4-9.3 9.3-13.9 9.3-22.4c0-8.4-3.3-16.4-9.3-22.4zm4.9 12.5-12.6 4c-1.6-3.9-4.7-7-8.7-8.7l4-12.6c8 2.9 14.3 9.3 17.3 17.3zm-14.1 9.9c0 7.3-5.9 13.2-13.2 13.2s-13.2-5.9-13.2-13.2c0-7.3 5.9-13.2 13.2-13.2 7.3.1 13.2 6 13.2 13.2zm-13.2-29c2.6 0 5.1.3 7.4 1l-4 12.6c-1.1-.3-2.3-.4-3.5-.4s-2.4.1-3.5.4l-4-12.6c2.6-.6 5.1-1 7.6-1zm-9.9 1.8 4 12.6c-3.9 1.6-7 4.7-8.7 8.7l-12.6-4c2.9-8 9.3-14.4 17.3-17.3zm-19.1 27.2c0-2.6.3-5.1 1-7.4l12.6 4c-.3 1.1-.4 2.3-.4 3.5s.1 2.4.4 3.5l-12.6 4c-.7-2.5-1-5-1-7.6zm1.8 10 12.6-4c1.6 3.9 4.7 7 8.7 8.7l-4 12.6c-8-2.9-14.4-9.3-17.3-17.3zm27.2 19.1c-2.6 0-5.1-.3-7.4-1l4-12.6c1.1.3 2.3.4 3.5.4s2.4-.1 3.5-.4l2.4 7.5c-1.9.5-3.8.7-5.8.7-.7 0-1.3.6-1.3 1.3 0 .7.6 1.3 1.3 1.3 2.3 0 4.5-.3 6.6-.8l.8 2.5c-2.5.7-5 1.1-7.6 1.1zm10-1.8-.8-2.5c4.4-1.6 8.3-4.4 11.3-8.1.5-.6.4-1.4-.2-1.9-.6-.5-1.4-.4-1.9.2-2.7 3.3-6.2 5.8-10 7.2l-2.4-7.6c3.9-1.6 7-4.7 8.7-8.7l12.6 4c-3 8.1-9.3 14.5-17.3 17.4zm5.5-23.8c.3-1.1.4-2.3.4-3.5s-.1-2.4-.4-3.5l12.6-4c.6 2.4 1 4.9 1 7.4 0 2.6-.3 5.1-1 7.4l-12.6-3.8z" style="fill:#039be5"/><path d="M89.9 99.3c-.4-.6-1.2-.9-1.8-.5-2.8 1.6-5.2 3.7-7.3 6.2-.5.6-.4 1.4.2 1.9.2.2.5.3.8.3.4 0 .8-.2 1-.5 1.8-2.3 4-4.1 6.5-5.6.8-.4 1-1.2.6-1.8zm32.5 36.1c.2.1.4.2.7.2.5 0 .9-.2 1.2-.7.4-.6.2-1.5-.5-1.8-.6-.4-1.5-.2-1.8.5v.1c-.5.5-.3 1.3.4 1.7zm-42.1-27.5c-.6-.4-1.5-.1-1.8.5-.4.6-.2 1.4.5 1.8.2.1.4.2.7.2.5 0 .9-.2 1.2-.7v-.1c.3-.5 0-1.3-.6-1.7z" style="fill:#c0d7f1"/></svg>