<svg data-name="Layer 1" xmlns="http://www.w3.org/2000/svg" viewBox="0 0 98.3 122.2"><path d="m93.22 54-6-1.1a37.8 37.8 0 0 0-5.4-12.7l3.4-5a4.27 4.27 0 0 0-.4-5.6l-1.9-1.9L81 25.8a4.27 4.27 0 0 0-5.6-.4l-5 3.4a39.61 39.61 0 0 0-12.7-5.4l-1.1-6a4.12 4.12 0 0 0-4.3-3.4h-5.8a4.33 4.33 0 0 0-4.3 3.4l-1.1 6a32.52 32.52 0 0 0-12.7 5.2l-5-3.4a4.27 4.27 0 0 0-5.6.4l-2.1 1.9-2 2.1a4.27 4.27 0 0 0-.4 5.6l3.4 5a39.61 39.61 0 0 0-5.4 12.7l-6 1.1a4.12 4.12 0 0 0-3.4 4.3v5.6a4.33 4.33 0 0 0 3.4 4.3l6 1.1A36.15 36.15 0 0 0 16.72 82l-3.4 5a4.27 4.27 0 0 0 .4 5.6l1.9 1.9 1.9 1.9a4.27 4.27 0 0 0 5.6.4l5-3.4a39.61 39.61 0 0 0 12.7 5.4l1.1 6a4.12 4.12 0 0 0 4.3 3.4H52a4.33 4.33 0 0 0 4.3-3.4l1.1-6a37.8 37.8 0 0 0 12.7-5.4l5 3.4a4.27 4.27 0 0 0 5.6-.4l1.9-1.9 1.9-1.9a4.27 4.27 0 0 0 .4-5.6l-3.4-5a39.61 39.61 0 0 0 5.4-12.7l6-1.1a4.12 4.12 0 0 0 3.4-4.3v-5.6a3.76 3.76 0 0 0-3.08-4.3Z" style="stroke-width:4px;stroke:#cdcccc;fill:none;stroke-miterlimit:10"/><circle cx="49.22" cy="61.1" r="27.2" style="stroke:#cdcccc;fill:none;stroke-miterlimit:10"/><circle cx="49.22" cy="61.1" r="17.1" style="stroke:#0f7cff;fill:none;stroke-miterlimit:10"/></svg>