<svg id="Layer_1" data-name="Layer 1" xmlns="http://www.w3.org/2000/svg" viewBox="0 0 93.2 114.73"><defs><style>.cls-1,.cls-4{fill:none}.cls-2{fill:#cdcccc}.cls-4{stroke:#00d1b2;stroke-linecap:round;stroke-linejoin:round}</style></defs><circle class="cls-1" cx="46.6" cy="61.1" r="44.6"/><path class="cls-2" d="M46.6 107.7a46.6 46.6 0 1 1 46.6-46.6 46.65 46.65 0 0 1-46.6 46.6Zm0-89.3a42.7 42.7 0 1 0 42.7 42.7 42.74 42.74 0 0 0-42.7-42.7Z"/><circle class="cls-1" cx="46.6" cy="61.1" r="37.9"/><path class="cls-1" d="M47.6 1.9h-1.5a5.8 5.8 0 0 0-5.8 5.8v4.1h13.1V7.6a5.72 5.72 0 0 0-5.8-5.7Z"/><path class="cls-2" d="M55.3 13.6H38.5V5.9A5.85 5.85 0 0 1 44.4 0h5a5.85 5.85 0 0 1 5.9 5.9ZM42.2 9.8h9.4V5.9a2.22 2.22 0 0 0-2.2-2.2h-5a2.22 2.22 0 0 0-2.2 2.2Z"/><path class="cls-2" d="M43.6 11.7H50v4.8h-6.4z"/><path class="cls-1" d="m74.4 14.4-1.4-.8a5.83 5.83 0 0 0-7.9 2.1l-2 3.5 11.3 6.5 2-3.5a5.62 5.62 0 0 0-2-7.8Z"/><path class="cls-2" d="m75.1 28.3-14.6-8.4 3.8-6.6a6.05 6.05 0 0 1 5.1-3 5.74 5.74 0 0 1 2.9.8l4.3 2.5a6 6 0 0 1 2.2 8.1Zm-9.5-9.7 8.1 4.7 2-3.4a2.26 2.26 0 0 0-.8-3l-4.3-2.5a2 2 0 0 0-1.1-.3 2.14 2.14 0 0 0-1.9 1.1Z"/><path class="cls-1" d="m19 13.9 1.3-.8a5.83 5.83 0 0 1 7.9 2.1l2 3.5-11.3 6.5-2-3.5a5.65 5.65 0 0 1 2.1-7.8Z"/><path class="cls-2" d="m18.2 27.8-3.8-6.6a5.89 5.89 0 0 1 2.2-8.1l4.3-2.5a6 6 0 0 1 2.9-.8 5.73 5.73 0 0 1 5.1 3l3.8 6.6Zm5.6-14.2a2 2 0 0 0-1.1.3l-4.3 2.5a2.12 2.12 0 0 0-1 1.3 2 2 0 0 0 .2 1.7l2 3.4 8.1-4.7-2-3.4a2 2 0 0 0-1.9-1.1Z"/><path d="M84.7 98.4a54.14 54.14 0 0 1-76.5 0m6.2-38a32 32 0 0 1 32-32" style="stroke:#cdcccc;stroke-miterlimit:10;fill:none"/><circle class="cls-4" cx="46.6" cy="61.3" r="11.2"/><circle class="cls-4" cx="46.6" cy="61.3" r="38.2"/><circle class="cls-4" cx="46.6" cy="61.3" r="4.1"/><path class="cls-4" d="m49.2 58.2 20.2-19.5"/></svg>