<svg id="Layer_1" data-name="Layer 1" xmlns="http://www.w3.org/2000/svg" viewBox="0 0 89.8 122.2"><defs><style>.cls-2,.cls-4{fill:none}.cls-2{stroke:#cdcccc}.cls-2,.cls-5{stroke-miterlimit:10}.cls-4{stroke-width:2px;stroke:#514f4f;stroke-linejoin:round;opacity:.2;isolation:isolate}.cls-5{fill:#fff;stroke:#f83600}</style></defs><path d="M76.5 113.6H13.3a6.49 6.49 0 0 1-6.5-6.5v-92a6.49 6.49 0 0 1 6.5-6.5h63.2a6.49 6.49 0 0 1 6.5 6.5V107a6.51 6.51 0 0 1-6.5 6.6Z" style="stroke-width:4px;stroke-miterlimit:10;stroke:#cdcccc;fill:none"/><path class="cls-2" d="M13.8 19h62.1v79.1H13.8z"/><circle class="cls-2" cx="44.9" cy="104.7" r="3.9"/><path style="stroke-width:2px;stroke-miterlimit:10;stroke:#cdcccc;fill:none" d="m13.7 67.8 21.4-13 20.1 9.6 24.8-17"/><path class="cls-4" d="M63.6 31.7h-8.5"/><circle class="cls-5" cx="34.9" cy="55.7" r="2.9"/><circle class="cls-5" cx="55.7" cy="64" r="2.9"/><path class="cls-5" d="M83 46.7H55.8v7.8h12.1l1.6 2.8 1.6-2.8H83v-7.8zM66.2 26.5H38.9v7.8h12.3l1.6 2.8 1.6-2.8h11.8v-7.8zM22.7 74.3h27.2v-7.8H37.7l-1.6-2.8-1.6 2.8H22.7v7.8zm15.2-33.4H11v7.8h11.7l2 3.4 2-3.4h11.2v-7.8z"/><path class="cls-4" d="M13.3 43.5h8.8m-8.8 2.6h22.4"/><path style="stroke-linecap:round;stroke-width:2px;stroke-miterlimit:10;stroke:#cdcccc;fill:none" d="M41.6 14.7h6.6"/><path class="cls-4" d="M58.4 49.3h8.4m-8.4 2.9h22M25.3 69.1h8.4M25.3 72h22.1m16.2-43.2H41.5m14.7 2.8H41.5"/></svg>