<svg id="Layer_1" data-name="Layer 1" xmlns="http://www.w3.org/2000/svg" viewBox="0 0 511.88 511.88"><defs><style>.cls-1{fill:#ffbdae}.cls-2{fill:#efd3d0}.cls-3{fill:#fff2f0}.cls-6{fill:#f55}</style></defs><path class="cls-1" d="M315.93 431.9h47.99v23.99h-47.99z"/><path class="cls-2" d="M451.89 391.91a56 56 0 1 0 56 56 56 56 0 0 0-56-56Zm0 96a40 40 0 1 1 40-40 40 40 0 0 1-40 39.98Z"/><path class="cls-1" d="M411.9 303.93h25.12v36.63H411.9z"/><path class="cls-3" d="M423 351.6c-.72.16-62.63 13.35-73.9 80.3-.48 2.56-.8 5.2-1.12 8h-.16a8 8 0 1 1-15.92 0c.24-2.72.56-5.36 1-8 11.92-80.94 87-96 87-96l10.72-2.24 1.84 15.92Zm28.89 40.31a55.77 55.77 0 0 1 41.2 18.16l9.7-13.09a72 72 0 0 0-122.88 50.91h16a56 56 0 0 1 55.98-55.98Z"/><path class="cls-2" d="M48 415.9a44 44 0 1 0 44 44 44 44 0 0 0-44-44Zm.56 72A28 28 0 1 1 76 459.33a28 28 0 0 1-27.45 28.55Z"/><path class="cls-3" d="M12 459.89a44 44 0 0 1 40-43.79c-1.32-.11-2.65-.2-4-.2a44 44 0 0 0 0 88c1.35 0 2.68-.09 4-.2a44 44 0 0 1-40-43.81Z"/><path class="cls-1" d="M84 459.89a44 44 0 0 1-40 43.79c1.32.11 2.65.2 4 .2a44 44 0 0 0 0-88c-1.35 0-2.68.09-4 .2a44 44 0 0 1 40 43.81Z"/><path class="cls-2" d="M400 8a20.12 20.12 0 1 1-20.07 20.16A20.17 20.17 0 0 1 400 8Z"/><path class="cls-3" d="M387.91 28.16A20.17 20.17 0 0 1 404 8.41a19.72 19.72 0 0 0-4-.41 20.12 20.12 0 0 0 0 40.23 20.45 20.45 0 0 0 4-.4 20.09 20.09 0 0 1-16.09-19.67Z"/><path class="cls-1" d="M412.14 28.07a20.19 20.19 0 0 1-16.09 19.76 20.53 20.53 0 0 0 4 .4 20.12 20.12 0 0 0 0-40.23 20.53 20.53 0 0 0-4 .4 20.09 20.09 0 0 1 16.09 19.67Z"/><path class="cls-3" d="M35.99 455.89h327.93v24H67.98l-31.99-24z"/><path d="M16.88 428.79a44 44 0 0 1 74.9 27.1h16A59.93 59.93 0 0 0 5.53 417.52l11.35 11.26Z" style="fill:#48cfad"/><path class="cls-3" d="M16.88 428.79a44 44 0 0 1 74.9 27.1h16A59.93 59.93 0 0 0 5.53 417.52l11.35 11.26Zm411.18-236.83h-13.92L397.27 48l12.52-2.35 18.27 146.31z"/><path style="fill:#fff" d="M363.92 463.87H46.62l-10.63-7.98h327.93v7.98z"/><path class="cls-2" d="m428.05 192 31.84 255.9a8 8 0 0 1-16 0L414.15 192Z"/><path class="cls-1" d="M456.67 392.15c1.47.14 2.93.34 4.37.57l.26 2.07a55.89 55.89 0 0 1-13.4 108.89c1.32.09 2.64.2 4 .2a56 56 0 0 0 4.78-111.73Z"/><path class="cls-3" d="M403.9 447.89a55.81 55.81 0 0 1 26.43-47.46l-.47-4a56 56 0 0 0 22 107.46c1.36 0 2.68-.11 4-.2a56 56 0 0 1-51.96-55.8Z"/><path class="cls-6" d="M400.27 32.12a4 4 0 0 1-4-4 4 4 0 0 1 3.95-4h.08a4 4 0 1 1 0 8Zm51.62 475.76a60 60 0 0 1-27.69-113.21 4 4 0 0 1 3.7 7.09 52 52 0 1 0 36.37-4.38 4 4 0 1 1 1.91-7.76 60 60 0 0 1-14.29 118.26Z"/><path class="cls-6" d="M451.89 491.88a44 44 0 0 1-26.21-79.31 4 4 0 0 1 4.77 6.42 36 36 0 1 0 35.44-4.26 4 4 0 0 1-2.12-5.25 4 4 0 0 1 5.24-2.11 44 44 0 0 1-17.12 84.51Zm-71.99-39.99a4 4 0 0 1-4-4 76.12 76.12 0 0 1 46.69-70.13 4 4 0 0 1 3.08 7.37 68.12 68.12 0 0 0-41.77 62.77 4 4 0 0 1-4 3.99ZM502.79 401a4 4 0 0 1-2.83-1.17 67.36 67.36 0 0 0-37.43-19.08 4 4 0 0 1-3.33-4.57 4.07 4.07 0 0 1 4.57-3.33 75.33 75.33 0 0 1 41.85 21.33 4 4 0 0 1-2.83 6.82ZM48 507.88a48 48 0 1 1 44.72-65.45 4 4 0 0 1-7.45 2.91A40 40 0 1 0 75.45 489a4 4 0 1 1 5.5 5.81A47.78 47.78 0 0 1 48 507.88Z"/><path class="cls-6" d="M105.81 447.89A4 4 0 0 1 102 445a56 56 0 0 0-93.6-24.7 4 4 0 1 1-5.66-5.65 64 64 0 0 1 106.93 28.18 4 4 0 0 1-2.8 4.92 3.91 3.91 0 0 1-1.06.14Zm354.07 4a4 4 0 0 1-4-3.5L407.5 58.6a4 4 0 1 1 7.93-1l48.43 389.8a4 4 0 0 1-3.48 4.46 2.74 2.74 0 0 1-.5.03Zm-15.99 0a4 4 0 0 1-4-3.53l-45-387.69a4 4 0 1 1 8-.93l45 387.69a4 4 0 0 1-3.51 4.44 3.77 3.77 0 0 1-.49.02Zm-111.96-8h-.37a4 4 0 0 1-3.62-4.34c8.18-89.92 90.35-107.38 91.18-107.54a4 4 0 0 1 1.57 7.84c-3.15.63-77.16 16.56-84.78 100.41a4 4 0 0 1-3.98 3.63Z"/><path class="cls-6" d="M347.86 445.34h-.36a4 4 0 0 1-3.63-4.34c7.08-77.82 77.66-93.15 78.37-93.3a4 4 0 0 1 1.61 7.84c-.65.14-65.5 14.48-72 86.18a4 4 0 0 1-3.99 3.62Zm16.06 14.55H36a4 4 0 0 1 0-8h327.91a4 4 0 0 1 0 8Zm0 24H68a4 4 0 1 1 0-8h295.91a4 4 0 0 1 0 8Z"/><path class="cls-6" d="M68 483.89a4 4 0 0 1-2.4-.8l-32-24a4 4 0 0 1 4.8-6.41l32 24a4 4 0 0 1-2.4 7.21Zm295.92-47.99h-14.84a4 4 0 0 1 0-8h14.84a4 4 0 0 1 0 8Zm-47.99 15.99a4 4 0 0 1-4-4v-16a4 4 0 1 1 8 0v16a4 4 0 0 1-4 4Z"/><path class="cls-6" d="M363.92 451.89a4 4 0 0 1-4-4v-16a4 4 0 1 1 8 0v16a4 4 0 0 1-4 4Zm-24-.03a12 12 0 0 1-12-12 4 4 0 0 1 8 0 4 4 0 0 0 7.94 0 4 4 0 0 1 8 0 12 12 0 0 1-11.94 12Z"/><path class="cls-6" d="M332.88 435.9h-16.95a4 4 0 1 1 0-8h16.95a4 4 0 0 1 0 8Zm31.04 47.99a4 4 0 0 1-4-4v-24a4 4 0 1 1 8 0v24a4 4 0 0 1-4 4ZM493.13 414a4 4 0 0 1-3.21-6.38l9.66-13a4 4 0 0 1 6.42 4.76l-9.66 13a4 4 0 0 1-3.21 1.62Zm-97.22 37.89h-16a4 4 0 1 1 0-8h16a4 4 0 1 1 0 8Zm55.98 8a12 12 0 0 1-12-12 4 4 0 1 1 8 0 4 4 0 0 0 8 0 4 4 0 0 1 8 0 12 12 0 0 1-12 12Zm32-8h-8a4 4 0 1 1 0-8h8a4 4 0 0 1 0 8Zm-55.99 0h-8a4 4 0 1 1 0-8h8a4 4 0 1 1 0 8Zm39.99 27.72a4 4 0 0 1-3.47-2l-4-6.94a4 4 0 0 1 6.94-4l4 6.94a4 4 0 0 1-3.47 6Zm-32.01 0a4 4 0 0 1-3.46-6l4-6.94a4 4 0 0 1 6.92 4l-4 6.94a4 4 0 0 1-3.46 2ZM16.89 432.79a4 4 0 0 1-2.83-1.17L2.74 420.3a4 4 0 0 1 5.66-5.65L19.72 426a4 4 0 0 1-2.83 6.83ZM400 52.24a24.12 24.12 0 1 1 24.12-24.12A24.15 24.15 0 0 1 400 52.24ZM400 12a16.12 16.12 0 1 0 16.12 16.12A16.14 16.14 0 0 0 400 12Zm19.9 295.93h-8a4 4 0 0 1 0-8h8a4 4 0 0 1 0 8Z"/><path class="cls-6" d="M411.9 331.92a4 4 0 0 1-4-4v-24a4 4 0 1 1 8 0v24a4 4 0 0 1-4 4ZM435.68 196H403.9a4 4 0 0 1 0-8h31.78a4 4 0 1 1 0 8ZM48 491.88a32 32 0 1 1 26.25-50.27 4 4 0 1 1-6.56 4.57 24 24 0 1 0-12.17 36.5 4 4 0 0 1 2.48 7.59 31.4 31.4 0 0 1-10 1.61Z"/></svg>