<svg id="Layer_1" data-name="Layer 1" xmlns="http://www.w3.org/2000/svg" viewBox="0 0 511.88 511.88"><defs><style>.cls-1{fill:#fff9e9}.cls-2{fill:#ffecb6}.cls-3{fill:#eadec3}.cls-8{fill:#f5c62c}</style></defs><path class="cls-1" d="m334.56 319.14-10.64 32.79H243.7l-10.08-35.75a644.77 644.77 0 0 0 100.94 2.96Z"/><path class="cls-2" d="M149.73 301.78 132 319.93H52v-52.38c30.14 14.55 63.42 25.91 97.73 34.23Z"/><path class="cls-3" d="m132 160 17.6 18c-34.27 8.28-67.38 19.56-97.6 34v-52Z"/><path d="M149.57 178c166.44-40.31 358.31-10.08 358.31 61.9 0 45.67-75.82 74.31-173.32 79.27a646 646 0 0 1-100.94-3 640.69 640.69 0 0 1-83.89-14.4c-34.31-8.31-67.59-19.67-97.73-34.22a338.14 338.14 0 0 1-48-27.68 345 345 0 0 1 48-27.76V212c30.22-14.44 63.33-25.71 97.57-34Z" style="fill:#ac92ec"/><path class="cls-3" d="M149.57 178c166.44-40.31 358.31-10.08 358.31 61.9 0 45.67-75.82 74.31-173.32 79.27a646 646 0 0 1-100.94-3 640.69 640.69 0 0 1-83.89-14.4c-34.31-8.31-67.59-19.67-97.73-34.22a338.14 338.14 0 0 1-48-27.68 345 345 0 0 1 48-27.76V212c30.22-14.44 63.33-25.71 97.57-34Z"/><path class="cls-2" d="M334.56 303.14C138 310.54 4 239.88 4 239.88a339.06 339.06 0 0 0 48 27.67c30.15 14.55 63.43 25.91 97.74 34.23a640.55 640.55 0 0 0 83.9 14.4 644.61 644.61 0 0 0 100.93 3c97.5-5 173.32-33.6 173.32-79.26a39 39 0 0 0-.86-7.81c-8.54 40.89-80.89 67.59-172.47 71.03Z"/><path d="M334.56 176.75C138 169.35 4 240 4 240a339.06 339.06 0 0 1 48-27.67c30.15-14.55 63.43-25.91 97.74-34.23a640.55 640.55 0 0 1 83.9-14.4 644.61 644.61 0 0 1 100.93-3c97.5 5 173.32 33.6 173.32 79.26a39 39 0 0 1-.86 7.81c-8.54-40.84-80.89-67.58-172.47-71.02Z" style="fill:#fff2d4"/><path class="cls-3" d="m331.94 327.21 2.62-8.07a644.77 644.77 0 0 1-100.94-3l2.32 8.2a644.45 644.45 0 0 0 96 2.87Z"/><g style="opacity:.5"><path d="m235.94 324.38 7.77 27.55h8l-7.56-26.84c-2.75-.25-5.47-.43-8.21-.71Z" style="fill:#fff"/></g><path class="cls-1" d="M311.77 240a28 28 0 1 1-28-28 28 28 0 0 1 28 28Z"/><path class="cls-8" d="M252.18 339.92a4 4 0 0 1-4-4 4 4 0 0 1 4-4h.08a4 4 0 0 1 0 8Zm16 0a4 4 0 0 1-4-4 4 4 0 0 1 3.95-4h.09a4 4 0 0 1 0 8Zm16 0a4 4 0 0 1-4-4 4 4 0 0 1 3.95-4h.09a4 4 0 0 1 0 8Zm15.99 0a4 4 0 0 1-4-4 4 4 0 0 1 4-4h.08a4 4 0 0 1 0 8Zm16 0a4 4 0 0 1-4-4 4 4 0 0 1 3.95-4h.09a4 4 0 0 1 0 8ZM4 243.87a4 4 0 0 1-2.28-7.28c138-96 379.43-96.4 468.66-49.77 27.15 14.18 41.5 32.53 41.5 53.05a4 4 0 0 1-8 0c0-21.92-20.23-37.1-37.2-46C379.13 148.18 142 148.72 6.29 243.15a4 4 0 0 1-2.29.72Z"/><path class="cls-8" d="M305.7 323.86c-104.73 0-225.48-26.08-304-80.7a4 4 0 0 1 4.57-6.57c135.84 94.52 372.89 95.24 460.3 49.57 17-8.9 37.29-24.14 37.29-46.29a4 4 0 0 1 8 0c0 20.7-14.38 39.16-41.59 53.37-38.64 20.2-98.41 30.62-164.57 30.62ZM139.8 172a4 4 0 0 1-2.86-1.2l-7.83-8a4 4 0 1 1 5.72-5.59l7.82 8a4 4 0 0 1-2.85 6.8Z"/><path class="cls-8" d="M132 164H52a4 4 0 0 1 0-8h80a4 4 0 0 1 0 8Z"/><path class="cls-8" d="M52 202.68a4 4 0 0 1-4-4V160a4 4 0 0 1 8 0v38.72a4 4 0 0 1-4 3.96Zm80 121.24a4 4 0 0 1-2.86-6.79l7.83-8a4 4 0 1 1 5.71 5.59l-7.82 8a4 4 0 0 1-2.86 1.2Z"/><path class="cls-8" d="M132 323.92H52a4 4 0 1 1 0-8h80a4 4 0 1 1 0 8Z"/><path class="cls-8" d="M52 323.92a4 4 0 0 1-4-4v-38.83a4 4 0 0 1 8 0v38.83a4 4 0 0 1-4 4Zm88-80.05H52a4 4 0 1 1 0-8h88a4 4 0 1 1 0 8Zm351.89 0h-16a4 4 0 1 1 0-8h16a4 4 0 0 1 0 8Zm0-15.87a3.92 3.92 0 0 1-1.79-.42l-16-8a4 4 0 0 1 3.58-7.16l16 8a4 4 0 0 1-1.78 7.58Zm-16 39.94a4 4 0 0 1-1.79-7.58l16-8a4 4 0 0 1 3.57 7.16l-16 8a4.12 4.12 0 0 1-1.78.42Zm-232.2 87.98a4 4 0 0 1-3.85-2.92l-7.74-27.47a4 4 0 1 1 7.7-2.18l7.74 27.48a4 4 0 0 1-2.76 4.94 4.09 4.09 0 0 1-1.09.15Z"/><path class="cls-8" d="M323.92 355.92h-80.23a4 4 0 0 1 0-8h80.23a4 4 0 0 1 0 8Z"/><path class="cls-8" d="M323.92 355.92a3.81 3.81 0 0 1-1.23-.2 4 4 0 0 1-2.57-5l8-24.64a4 4 0 1 1 7.61 2.47l-8 24.64a4 4 0 0 1-3.81 2.73ZM261 260a4 4 0 0 1-3.28-1.71 31.7 31.7 0 0 1-5.78-18.29 32.22 32.22 0 0 1 22.85-30.67 4 4 0 1 1 2.29 7.67 24.15 24.15 0 0 0-17.14 23 23.8 23.8 0 0 0 4.3 13.7 4 4 0 0 1-1 5.57 3.93 3.93 0 0 1-2.24.73Zm30.93 10.87a4 4 0 0 1-1.14-7.84 24 24 0 0 0 13-36.42 4 4 0 0 1 6.62-4.47 31.85 31.85 0 0 1 5.52 17.86 32.18 32.18 0 0 1-22.86 30.67 4.09 4.09 0 0 1-1.14.2Z"/><path class="cls-8" d="M291.62 251.71a4 4 0 0 1-2.83-1.17l-15.68-15.68a4 4 0 0 1 5.65-5.66l15.69 15.69a4 4 0 0 1-2.83 6.82Z"/><path class="cls-8" d="M275.94 236a4 4 0 0 1-2.83-6.82l32-32a4 4 0 0 1 5.66 5.66l-32 32a4 4 0 0 1-2.83 1.16Zm-16.31 47.71a4 4 0 0 1-2.83-6.83l32-32a4 4 0 1 1 5.66 5.65l-32 32a4 4 0 0 1-2.83 1.18Z"/></svg>