<svg id="Hero" xmlns="http://www.w3.org/2000/svg" viewBox="0 0 41 41"><defs><style>.cls-1{fill:#d3e6f8}.cls-2{fill:#a4cff2}.cls-3{fill:#7babf1}.cls-5{fill:#4c4372}</style></defs><path class="cls-1" d="M26.4 25H14.6V14.7a1.22 1.22 0 0 1 1.2-1.2h9.5a1.22 1.22 0 0 1 1.2 1.2V25Z"/><path class="cls-2" d="M25.3 13.5h-1.2a1.22 1.22 0 0 1 1.2 1.2V25h1.1V14.7a1.13 1.13 0 0 0-1.1-1.2Z"/><path class="cls-1" d="M25.2 11.6h-9.5a1.22 1.22 0 0 1-1.2-1.2V3.5a1.22 1.22 0 0 1 1.2-1.2h9.5a1.22 1.22 0 0 1 1.2 1.2v6.9a1.16 1.16 0 0 1-1.2 1.2Z"/><path class="cls-2" d="M25.2 2.5H24a1.22 1.22 0 0 1 1.2 1.2v6.9a1.22 1.22 0 0 1-1.2 1.2h1.2a1.22 1.22 0 0 0 1.2-1.2V3.7a1.16 1.16 0 0 0-1.2-1.2Z"/><path class="cls-2" d="M23.5 9.9h-6.1a.68.68 0 0 0-.7.7v1h7.4v-1a.56.56 0 0 0-.6-.7Z"/><path class="cls-3" d="M23.5 9.9h-1.2a.68.68 0 0 1 .7.7v1h1.2v-1a.68.68 0 0 0-.7-.7Zm3.9-.8h-1V5h1a.65.65 0 0 1 .6.6v3a.56.56 0 0 1-.6.5Z"/><path class="cls-2" d="M13.6 9.1h1V5h-1a.65.65 0 0 0-.6.6v3a.56.56 0 0 0 .6.5Z"/><path class="cls-3" d="M18.5 11.6h4v1.9h-4ZM21.4.4h-1.8a2 2 0 0 0-2 2h5.8a2 2 0 0 0-2-2Z"/><path d="M22.5 20.2h-3.9a1.5 1.5 0 0 1 0-3h3.9a1.5 1.5 0 0 1 0 3Z" style="fill:#8c8cf9"/><path class="cls-5" d="M14.6 25.4a.35.35 0 0 1-.4-.4V14.7a1.58 1.58 0 0 1 1.6-1.6h9.5a1.58 1.58 0 0 1 1.6 1.6V25a.43.43 0 0 1-.4.4H14.6ZM15.7 14a.68.68 0 0 0-.7.7v9.9h11v-9.9a.68.68 0 0 0-.7-.7Zm9.5-1.9h-9.5a1.58 1.58 0 0 1-1.6-1.6V3.6A1.58 1.58 0 0 1 15.7 2h9.5a1.58 1.58 0 0 1 1.6 1.6v6.9a1.58 1.58 0 0 1-1.6 1.6Zm-9.4-9.2a.68.68 0 0 0-.7.7v6.9a.68.68 0 0 0 .7.7h9.5a.68.68 0 0 0 .7-.7V3.6a.68.68 0 0 0-.7-.7Z"/><path class="cls-5" d="M24.2 12.1h-7.4a.43.43 0 0 1-.4-.4v-1a1.11 1.11 0 0 1 1.1-1.1h6.1a1.11 1.11 0 0 1 1.1 1.1v1a.46.46 0 0 1-.5.4Zm-7-.9h6.5v-.6a.22.22 0 0 0-.2-.2h-6.1a.22.22 0 0 0-.2.2Zm10.2-1.6h-1a.43.43 0 0 1-.4-.4V5.1a.43.43 0 0 1 .4-.4h1a1 1 0 0 1 1 1v3a1 1 0 0 1-1 .9Zm-.6-.9h.6a.1.1 0 0 0 .1-.1v-3a.1.1 0 0 0-.1-.1h-.6Zm-12.2.9h-1a1 1 0 0 1-1-1v-3a1 1 0 0 1 1-1h1a.43.43 0 0 1 .4.4v4.1a.46.46 0 0 1-.4.5Zm-1-4.2a.1.1 0 0 0-.1.1v3a.1.1 0 0 0 .1.1h.6V5.4Z"/><path class="cls-5" d="M22.5 14h-4a.43.43 0 0 1-.4-.4v-1.9a.43.43 0 0 1 .4-.4h4a.43.43 0 0 1 .4.4v1.9a.43.43 0 0 1-.4.4Zm-3.6-.9H22v-1h-3.1Zm4.5-10.2h-5.8a.43.43 0 0 1-.4-.4A2.48 2.48 0 0 1 19.7 0h1.8A2.48 2.48 0 0 1 24 2.5a.68.68 0 0 1-.6.4ZM18.1 2h4.8A1.5 1.5 0 0 0 21.4.9h-1.8A1.63 1.63 0 0 0 18.1 2Zm4.4 18.7h-3.9a2 2 0 0 1 0-4h3.9a2 2 0 0 1 0 4Zm-4-3.1a1.1 1.1 0 0 0 0 2.2h3.9a1.1 1.1 0 1 0 0-2.2Z"/><path class="cls-1" d="M36 38.3H24.2V28a1.22 1.22 0 0 1 1.2-1.2h9.5a1.22 1.22 0 0 1 1.2 1.2v10.3Z"/><path class="cls-2" d="M34.8 26.8h-1.2a1.22 1.22 0 0 1 1.2 1.2v10.3h1.1V28a1.07 1.07 0 0 0-1.1-1.2Z"/><path class="cls-1" d="M34.8 25h-9.5a1.22 1.22 0 0 1-1.2-1.2v-6.9a1.22 1.22 0 0 1 1.2-1.2h9.5a1.22 1.22 0 0 1 1.2 1.2v6.9a1.16 1.16 0 0 1-1.2 1.2Z"/><path class="cls-2" d="M34.8 15.8h-1.2a1.22 1.22 0 0 1 1.2 1.2v6.9a1.22 1.22 0 0 1-1.2 1.2h1.2a1.22 1.22 0 0 0 1.2-1.2V17a1.16 1.16 0 0 0-1.2-1.2Z"/><path class="cls-2" d="M33.1 23.3H27a.68.68 0 0 0-.7.7v1h7.4v-1a.56.56 0 0 0-.6-.7Z"/><path class="cls-3" d="M33.1 23.3h-1.2a.68.68 0 0 1 .7.7v1h1.2v-1a.68.68 0 0 0-.7-.7Zm3.9-.8h-1v-4.1h1a.65.65 0 0 1 .6.6v3a.65.65 0 0 1-.6.5Z"/><path class="cls-2" d="M23.1 22.5h1v-4.1h-1a.65.65 0 0 0-.6.6v3c.1.2.3.5.6.5Z"/><path class="cls-3" d="M28.1 25h4v1.9h-4Zm-5.3 3.6h1.4v2.6h-1.4Zm13.2 0h1.3v2.6H36Zm-5-14.8h-1.8a2 2 0 0 0-2 2H33a2 2 0 0 0-2-2Z"/><path class="cls-1" d="M20.5 38.3h2.3V27.9a1.1 1.1 0 0 0-2.2 0v10.4Z"/><path class="cls-2" d="M37.4 38.3h2.3V27.9a1.1 1.1 0 0 0-2.2 0l-.1 10.4Z"/><path class="cls-5" d="M24.2 38.8a.35.35 0 0 1-.4-.4V28.1a1.58 1.58 0 0 1 1.6-1.6h9.5a1.58 1.58 0 0 1 1.6 1.6v10.3a.43.43 0 0 1-.4.4H24.2Zm1.1-11.5a.68.68 0 0 0-.7.7v9.9h10.9V28a.68.68 0 0 0-.7-.7Zm9.5-1.9h-9.5a1.58 1.58 0 0 1-1.6-1.6v-6.9a1.58 1.58 0 0 1 1.6-1.6h9.5a1.58 1.58 0 0 1 1.6 1.6v6.9a1.58 1.58 0 0 1-1.6 1.6Zm-9.5-9.1a.68.68 0 0 0-.7.7v6.9a.68.68 0 0 0 .7.7h9.5a.68.68 0 0 0 .7-.7V17a.68.68 0 0 0-.7-.7Z"/><path class="cls-5" d="M33.8 25.4h-7.4a.43.43 0 0 1-.4-.4v-1a1.11 1.11 0 0 1 1.1-1.1h6.1a1.11 1.11 0 0 1 1.1 1.1v1a.66.66 0 0 1-.5.4Zm-7-.9h6.5v-.6a.22.22 0 0 0-.2-.2H27a.22.22 0 0 0-.2.2ZM37 22.9h-1a.43.43 0 0 1-.4-.4v-4.1a.43.43 0 0 1 .4-.4h1a1 1 0 0 1 1 1v3a.92.92 0 0 1-1 .9Zm-.6-.9h.6a.1.1 0 0 0 .1-.1v-3a.1.1 0 0 0-.1-.1h-.6Zm-12.2.9h-1a1 1 0 0 1-1-1v-3a1 1 0 0 1 1-1h1a.43.43 0 0 1 .4.4v4.1a.46.46 0 0 1-.4.5Zm-1.1-4.1a.1.1 0 0 0-.1.1v3a.1.1 0 0 0 .1.1h.6v-3.2Z"/><path class="cls-5" d="M32.1 27.3h-4a.43.43 0 0 1-.4-.4V25a.43.43 0 0 1 .4-.4h4a.43.43 0 0 1 .4.4v1.9a.43.43 0 0 1-.4.4Zm-3.6-.9h3.1v-1h-3.1Zm-4.3 5.3h-1.4a.43.43 0 0 1-.4-.4v-2.6a.43.43 0 0 1 .4-.4h1.4a.43.43 0 0 1 .4.4v2.6c0 .1-.2.4-.4.4Zm-1-.9h.5v-1.7h-.5Zm14.1.9H36a.43.43 0 0 1-.4-.4v-2.6a.43.43 0 0 1 .4-.4h1.3a.43.43 0 0 1 .4.4v2.6c.1.1-.1.4-.4.4Zm-.9-.9h.4v-1.7h-.4ZM33 16.3h-5.8a.43.43 0 0 1-.4-.4 2.48 2.48 0 0 1 2.5-2.5h1.8a2.48 2.48 0 0 1 2.5 2.5c-.2.2-.4.4-.6.4Zm-5.3-.9h4.8a1.5 1.5 0 0 0-1.5-1.1h-1.8a1.4 1.4 0 0 0-1.5 1.1Z"/><path class="cls-5" d="M22.8 38.8h-2.3a.43.43 0 0 1-.4-.4V27.9a1.6 1.6 0 0 1 3.2 0v10.4c-.1.3-.3.5-.5.5Zm-1.9-.9h1.4v-10a.7.7 0 0 0-1.4 0Zm18.8.9h-2.3a.43.43 0 0 1-.4-.4V27.9a1.6 1.6 0 0 1 3.2 0v10.4c-.1.3-.3.5-.5.5Zm-1.9-.9h1.4v-10a.7.7 0 0 0-1.4 0Z"/><path class="cls-1" d="M16.8 38.3H5V28a1.22 1.22 0 0 1 1.2-1.2h9.5a1.22 1.22 0 0 1 1.2 1.2v10.3Z"/><path class="cls-2" d="M15.7 26.8h-1.2a1.22 1.22 0 0 1 1.2 1.2v10.3h1.1V28a1.2 1.2 0 0 0-1.1-1.2Z"/><path class="cls-1" d="M15.7 25H6.2A1.22 1.22 0 0 1 5 23.8v-6.9a1.22 1.22 0 0 1 1.2-1.2h9.5a1.22 1.22 0 0 1 1.2 1.2v6.9a1.29 1.29 0 0 1-1.2 1.2Z"/><path class="cls-2" d="M15.7 15.8h-1.2a1.22 1.22 0 0 1 1.2 1.2v6.9a1.22 1.22 0 0 1-1.2 1.2h1.2a1.22 1.22 0 0 0 1.2-1.2V17a1.29 1.29 0 0 0-1.2-1.2Z"/><path class="cls-2" d="M14 23.3H7.9a.68.68 0 0 0-.7.7v1h7.4v-1a.67.67 0 0 0-.6-.7Z"/><path class="cls-3" d="M14 23.3h-1.2a.68.68 0 0 1 .7.7v1h1.2v-1a.84.84 0 0 0-.7-.7Zm3.9-.8h-1v-4.1h1a.65.65 0 0 1 .6.6v3c-.1.2-.3.5-.6.5Z"/><path class="cls-2" d="M4 22.5h1v-4.1H4a.65.65 0 0 0-.6.6v3a.65.65 0 0 0 .6.5Z"/><path class="cls-3" d="M8.9 25h4v1.9h-4Zm-5.3 3.6H5v2.6H3.6Zm13.2 0h1.3v2.6h-1.3Zm-5-14.8H10a2 2 0 0 0-2 2h5.8a2 2 0 0 0-2-2Z"/><path class="cls-1" d="M1.3 38.3h2.3V27.9a1.1 1.1 0 0 0-2.2 0v10.4Z"/><path class="cls-2" d="M18.2 38.3h2.3V27.9a1.1 1.1 0 0 0-2.2 0v10.4Z"/><path class="cls-5" d="M5 38.8a.43.43 0 0 1-.4-.4V28.1a1.58 1.58 0 0 1 1.6-1.6h9.5a1.58 1.58 0 0 1 1.6 1.6v10.3a.43.43 0 0 1-.4.4H5Zm1.2-11.5a.68.68 0 0 0-.7.7v9.9h10.9V28a.68.68 0 0 0-.7-.7Zm9.5-1.9H6.2a1.58 1.58 0 0 1-1.6-1.6v-6.9a1.58 1.58 0 0 1 1.6-1.6h9.5a1.58 1.58 0 0 1 1.6 1.6v6.9a1.58 1.58 0 0 1-1.6 1.6Zm-9.5-9.1a.68.68 0 0 0-.7.7v6.9a.68.68 0 0 0 .7.7h9.5a.68.68 0 0 0 .7-.7V17a.68.68 0 0 0-.7-.7Z"/><path class="cls-5" d="M14.6 25.4H7.2a.43.43 0 0 1-.4-.4v-1a1.11 1.11 0 0 1 1.1-1.1H14a1.11 1.11 0 0 1 1.1 1.1v1a.46.46 0 0 1-.5.4Zm-6.9-.9h6.5v-.6a.22.22 0 0 0-.2-.2H7.9a.22.22 0 0 0-.2.2v.6Zm10.2-1.6h-1a.43.43 0 0 1-.4-.4v-4.1a.43.43 0 0 1 .4-.4h1a1 1 0 0 1 1 1v3a1 1 0 0 1-1 .9Zm-.6-.9h.6a.1.1 0 0 0 .1-.1v-3a.1.1 0 0 0-.1-.1h-.6ZM5 22.9H4a1 1 0 0 1-1-1v-3a1 1 0 0 1 1-1h1a.43.43 0 0 1 .4.4v4.1c.1.3-.1.5-.4.5Zm-1-4.1a.1.1 0 0 0-.1.1v3a.1.1 0 0 0 .1.1h.6v-3.2Z"/><path class="cls-5" d="M12.9 27.3h-4a.43.43 0 0 1-.4-.4V25a.43.43 0 0 1 .4-.4h4a.43.43 0 0 1 .4.4v1.9c.1.2-.1.4-.4.4Zm-3.5-.9h3.1v-1H9.4ZM5 31.7H3.6a.43.43 0 0 1-.4-.4v-2.6a.43.43 0 0 1 .4-.4H5a.43.43 0 0 1 .4.4v2.6c0 .1-.2.4-.4.4Zm-.9-.9h.5v-1.7h-.5Zm14.1.9h-1.3a.43.43 0 0 1-.4-.4v-2.6a.43.43 0 0 1 .4-.4h1.3a.43.43 0 0 1 .4.4v2.6c0 .1-.2.4-.4.4Zm-.9-.9h.4v-1.7h-.4Zm-3.5-14.5H8a.43.43 0 0 1-.4-.4 2.48 2.48 0 0 1 2.5-2.5h1.8a2.48 2.48 0 0 1 2.5 2.5.68.68 0 0 1-.6.4Zm-5.3-.9h4.8a1.5 1.5 0 0 0-1.5-1.1H10a1.4 1.4 0 0 0-1.5 1.1Z"/><path class="cls-5" d="M3.6 38.8H1.3a.43.43 0 0 1-.4-.4V27.9a1.58 1.58 0 0 1 1.6-1.6 1.58 1.58 0 0 1 1.6 1.6v10.4a.47.47 0 0 1-.5.5Zm-1.8-.9h1.4v-10a.68.68 0 0 0-.7-.7.68.68 0 0 0-.7.7v10Zm18.7.9h-2.3a.43.43 0 0 1-.4-.4V27.9a1.6 1.6 0 0 1 3.2 0v10.4c-.1.3-.3.5-.5.5Zm-1.8-.9h1.4v-10a.7.7 0 1 0-1.4 0v10Z"/><path d="M25.1 7a1.7 1.7 0 0 1-3.4 0 1.7 1.7 0 0 1 3.4 0Zm-5.8 0a1.7 1.7 0 1 1-3.4 0 1.75 1.75 0 0 1 1.7-1.7A1.69 1.69 0 0 1 19.3 7Zm15.4 13.4a1.7 1.7 0 1 1-1.7-1.7 1.69 1.69 0 0 1 1.7 1.7Zm-5.8 0a1.7 1.7 0 1 1-1.7-1.7 1.69 1.69 0 0 1 1.7 1.7ZM32 33.5h-3.9a1.5 1.5 0 0 1 0-3H32a1.54 1.54 0 0 1 1.5 1.5 1.47 1.47 0 0 1-1.5 1.5ZM15.5 20.4a1.7 1.7 0 1 1-1.7-1.7 1.63 1.63 0 0 1 1.7 1.7Zm-5.8 0A1.75 1.75 0 0 1 8 22.1a1.7 1.7 0 1 1 0-3.4 1.63 1.63 0 0 1 1.7 1.7Zm3.2 13.1H9a1.5 1.5 0 0 1 0-3h3.9a1.5 1.5 0 0 1 0 3Z" style="fill:#00d1b2"/><path class="cls-5" d="M23.4 9.2A2.2 2.2 0 1 1 25.6 7a2.22 2.22 0 0 1-2.2 2.2Zm0-3.4a1.3 1.3 0 1 0 1.3 1.3 1.32 1.32 0 0 0-1.3-1.3Zm-5.8 3.4A2.2 2.2 0 1 1 19.8 7a2.22 2.22 0 0 1-2.2 2.2Zm0-3.4a1.3 1.3 0 1 0 1.3 1.3 1.32 1.32 0 0 0-1.3-1.3ZM33 22.6a2.2 2.2 0 1 1 2.2-2.2 2.22 2.22 0 0 1-2.2 2.2Zm0-3.5a1.3 1.3 0 1 0 1.3 1.3 1.4 1.4 0 0 0-1.3-1.3Zm-5.8 3.5a2.2 2.2 0 1 1 2.2-2.2 2.22 2.22 0 0 1-2.2 2.2Zm0-3.5a1.3 1.3 0 1 0 1.3 1.3 1.4 1.4 0 0 0-1.3-1.3ZM32 34h-3.9a2 2 0 0 1 0-4H32a2 2 0 0 1 0 4Zm-3.9-3.1a1.1 1.1 0 1 0 0 2.2H32a1.1 1.1 0 0 0 0-2.2Zm-14.3-8.3a2.2 2.2 0 1 1 2.2-2.2 2.22 2.22 0 0 1-2.2 2.2Zm0-3.5a1.3 1.3 0 1 0 1.3 1.3 1.32 1.32 0 0 0-1.3-1.3ZM8 22.6a2.2 2.2 0 1 1 2.2-2.2A2.22 2.22 0 0 1 8 22.6Zm0-3.5a1.3 1.3 0 1 0 1.3 1.3A1.32 1.32 0 0 0 8 19.1ZM12.9 34H9a2 2 0 0 1 0-4h3.9a2 2 0 0 1 0 4ZM9 30.9a1.1 1.1 0 1 0 0 2.2h3.9a1.1 1.1 0 0 0 0-2.2Z"/></svg>