<svg id="Hero" xmlns="http://www.w3.org/2000/svg" viewBox="0 0 41 41"><defs><style>.cls-2{fill:#039be5}.cls-3{fill:#a4cff2}.cls-6{fill:#4c4372}</style></defs><path d="M27.43 31.53H17.28a2.08 2.08 0 0 1-2.06-2.06V17.55h14.22v11.92a2 2 0 0 1-2 2.06Z" style="fill:#d3e6f8"/><path class="cls-2" d="M29.49 17.59h-3.56V8.24a1.78 1.78 0 1 1 3.56 0Z"/><path class="cls-2" d="M25.93 17.59h-3.55V6.37a1.78 1.78 0 1 1 3.55 0Z"/><path class="cls-2" d="M22.38 17.59h-3.56V5.15a1.78 1.78 0 1 1 3.56 0v12.44Zm-7.11 10.76a3.56 3.56 0 0 1-3.56-3.56v-7.85a1.78 1.78 0 1 1 3.56 0Z"/><path class="cls-2" d="M18.82 17.59h-3.55V6.37a1.78 1.78 0 1 1 3.55 0Z"/><path class="cls-3" d="M27.76 31.53a2 2 0 0 0 1.73-2V17.59h-1.73Z"/><path d="M27.05 34.19h-9.54a.73.73 0 0 1-.74-.74v-2h11v2a.72.72 0 0 1-.72.74Z" style="fill:#7babf1"/><path class="cls-3" d="M19.38 34.19h5.8V38h-5.8Z"/><path d="M22.33 21.33a3.14 3.14 0 0 0-3.13 3.14v7.11h6.26v-7.11a3.14 3.14 0 0 0-3.13-3.14Z" style="fill:#fff"/><path class="cls-6" d="M27.43 32H17.28a2.41 2.41 0 0 1-2.43-2.43V17.59a.42.42 0 0 1 .42-.42h14.22a.42.42 0 0 1 .42.42v11.93A2.49 2.49 0 0 1 27.43 32ZM15.64 18v11.5a1.66 1.66 0 0 0 1.64 1.64h10.15a1.65 1.65 0 0 0 1.63-1.64V18Z"/><path class="cls-6" d="M27.05 34.62h-9.54a1.15 1.15 0 0 1-1.12-1.13v-2a.42.42 0 0 1 .42-.42h11a.42.42 0 0 1 .42.42v2a1.21 1.21 0 0 1-1.17 1.13Zm-9.86-2.76v1.59a.32.32 0 0 0 .32.32h9.54a.32.32 0 0 0 .33-.32v-1.59Z"/><path class="cls-6" d="M25.14 38.4h-5.76A.42.42 0 0 1 19 38v-3.81a.42.42 0 0 1 .42-.42h5.8a.42.42 0 0 1 .42.42V38a.48.48 0 0 1-.46.42Zm-5.34-.79h5v-3h-5ZM25.46 32H19.2a.42.42 0 0 1-.42-.42v-7.16a3.51 3.51 0 1 1 7 0v7.11a.33.33 0 0 1-.32.47Zm-5.84-.84H25v-6.74a2.71 2.71 0 1 0-5.42 0Zm6.97 1.68a.57.57 0 0 1-1.13 0 .57.57 0 0 1 1.13 0ZM29.49 18h-3.56a.42.42 0 0 1-.42-.42V8.19a2.2 2.2 0 0 1 4.4 0v9.36a.42.42 0 0 1-.42.42Zm-3.14-.8h2.76V8.24a1.36 1.36 0 1 0-2.71 0v8.93Z"/><path class="cls-6" d="M25.93 18h-3.55a.42.42 0 0 1-.42-.42V6.32a2.2 2.2 0 1 1 4.39 0v11.23a.42.42 0 0 1-.42.42Zm-3.13-.8h2.76V6.37a1.36 1.36 0 1 0-2.72 0v10.8Z"/><path class="cls-6" d="M22.38 18h-3.56a.42.42 0 0 1-.42-.42V5.1a2.2 2.2 0 0 1 4.4 0v12.45a.42.42 0 0 1-.42.42Zm-3.18-.8H22V5.1a1.36 1.36 0 0 0-2.72 0v12.07Zm-3.93 11.52a3.92 3.92 0 0 1-3.93-3.93v-7.85a2.2 2.2 0 1 1 4.4 0v11.41a.62.62 0 0 1-.47.37Zm-1.78-13.19a1.35 1.35 0 0 0-1.35 1.36v7.86a3.16 3.16 0 0 0 2.71 3.13v-11a1.36 1.36 0 0 0-1.36-1.36Z"/><path class="cls-6" d="M18.82 18h-3.55a.42.42 0 0 1-.42-.42V6.32a2.2 2.2 0 1 1 4.39 0v11.23a.44.44 0 0 1-.42.42Zm-3.18-.8h2.76V6.37a1.36 1.36 0 1 0-2.71 0v10.8Z"/><path class="cls-6" d="M18.82 8.29h-3.55a.43.43 0 0 1 0-.85h3.55a.42.42 0 0 1 .42.42c0 .28-.18.43-.42.43Z"/><path class="cls-6" d="M22.38 7.77h-3.56a.42.42 0 0 1 0-.84h3.56a.42.42 0 1 1 0 .84Z"/><path class="cls-6" d="M25.93 8.29h-3.55a.43.43 0 0 1 0-.85h3.55a.42.42 0 0 1 .42.42.4.4 0 0 1-.42.43Zm3.56 2.1h-3.56a.42.42 0 0 1-.42-.42.42.42 0 0 1 .42-.42h3.56a.42.42 0 0 1 .42.42.42.42 0 0 1-.42.42Zm-14.22 8.46h-3.56a.42.42 0 0 1-.42-.42.42.42 0 0 1 .42-.42h3.56a.42.42 0 0 1 .42.42c0 .24-.19.42-.42.42Z"/></svg>