<svg id="Hero" xmlns="http://www.w3.org/2000/svg" viewBox="0 0 41 41"><defs><style>.cls-3{fill:#4c4372}</style></defs><path d="M20.5.4a10 10 0 0 0-10 10v12.1h3.4v4.3a3 3 0 0 0 3 3h3.4v8.5h10.2V10.4a10 10 0 0 0-10-10Z" style="fill:#d3e6f8"/><path d="M20.5.4a3.4 3.4 0 0 0-1 .1 10.06 10.06 0 0 1 9 9.9v27.9h2V10.4a10 10 0 0 0-10-10Z" style="fill:#a4cff2"/><path class="cls-3" d="M30.5 38.7H20.3a.43.43 0 0 1-.4-.4v-8H17a3.37 3.37 0 0 1-3.4-3.4v-4h-3a.43.43 0 0 1-.4-.4V10.4a10.4 10.4 0 1 1 20.8 0v27.9a.66.66 0 0 1-.5.4Zm-9.7-.8h9.3V10.5a9.5 9.5 0 0 0-19 0v11.6h3a.43.43 0 0 1 .4.4v4.3a2.58 2.58 0 0 0 2.6 2.6h3.4a.43.43 0 0 1 .4.4v8.1Z"/><path d="M22.1 9.1h-.4V15h.4a1.22 1.22 0 0 0 1.2-1.2v-3.6a1.13 1.13 0 0 0-1.2-1.1Z" style="fill:#ff3131"/><path class="cls-3" d="M17.4 14h-2a.4.4 0 0 1 0-.8h2a.4.4 0 1 1 0 .8Zm0-1.5h-2.7a.66.66 0 0 1-.5-.4.66.66 0 0 1 .4-.5h2.7a.43.43 0 0 1 .4.4.35.35 0 0 1-.3.5Zm0-1.4h-2a.43.43 0 0 1-.4-.4V9.2a.4.4 0 0 1 .8 0v1.1h1.5a.43.43 0 0 1 .4.4c.1.2-.1.4-.3.4Zm7.9 4.4a.43.43 0 0 1-.4-.4V14h-1.5a.4.4 0 0 1 0-.8h2a.43.43 0 0 1 .4.4v1.5a.66.66 0 0 1-.5.4Zm.7-3h-2.7a.66.66 0 0 1-.5-.4.66.66 0 0 1 .4-.5h2.7a.43.43 0 0 1 .4.4.35.35 0 0 1-.3.5Zm-.7-1.4h-2a.4.4 0 1 1 0-.8h2a.4.4 0 0 1 0 .8Zm-6.4-1.5a.43.43 0 0 1-.4-.4v-2a.4.4 0 0 1 .8 0v2a.43.43 0 0 1-.4.4Zm1.4 0a.43.43 0 0 1-.4-.4V6.5a.4.4 0 1 1 .8 0v2.7c.1.2-.1.4-.4.4Zm1.5 0a.43.43 0 0 1-.4-.4v-2a.4.4 0 1 1 .8 0v2a.43.43 0 0 1-.4.4Zm-2.9 7.9a.43.43 0 0 1-.4-.4v-2a.4.4 0 1 1 .8 0v2a.43.43 0 0 1-.4.4Zm1.4.7a.43.43 0 0 1-.4-.4v-2.7a.4.4 0 0 1 .8 0v2.7c.1.2-.1.4-.4.4Zm1.5-.7a.43.43 0 0 1-.4-.4v-2a.4.4 0 0 1 .8 0v2a.43.43 0 0 1-.4.4Z"/><path d="M22.1 15.1h-3.6a1.22 1.22 0 0 1-1.2-1.2v-3.6a1.22 1.22 0 0 1 1.2-1.2h3.6a1.22 1.22 0 0 1 1.2 1.2v3.6a1.16 1.16 0 0 1-1.2 1.2Zm-7.4-3a1 1 0 1 1-1-1 1.08 1.08 0 0 1 1 1Zm13.2 0a1 1 0 1 1-1-1 1 1 0 0 1 1 1Zm-6.6-6.6a1 1 0 1 1-1-1 .94.94 0 0 1 1 1Zm0 13.2a1 1 0 1 1-1-1 1.07 1.07 0 0 1 1 1Z" style="fill:#8e6cf4"/><path class="cls-3" d="M22.1 15.5h-3.6a1.58 1.58 0 0 1-1.6-1.6v-3.6a1.58 1.58 0 0 1 1.6-1.6h3.6a1.58 1.58 0 0 1 1.6 1.6v3.6a1.58 1.58 0 0 1-1.6 1.6Zm-3.6-5.9a.68.68 0 0 0-.7.7v3.6a.68.68 0 0 0 .7.7h3.6a.68.68 0 0 0 .7-.7v-3.6a.68.68 0 0 0-.7-.7Zm-4.8 3.9a1.4 1.4 0 1 1 1.4-1.4 1.37 1.37 0 0 1-1.4 1.4Zm0-1.9a.5.5 0 1 0 .5.5.47.47 0 0 0-.5-.5ZM27 13.5a1.4 1.4 0 1 1 1.4-1.4 1.43 1.43 0 0 1-1.4 1.4Zm0-1.9a.5.5 0 1 0 .5.5.47.47 0 0 0-.5-.5Zm-6.7-4.7a1.37 1.37 0 0 1-1.4-1.4 1.4 1.4 0 1 1 2.8 0 1.43 1.43 0 0 1-1.4 1.4Zm0-2a.47.47 0 0 0-.5.5.5.5 0 1 0 1 0 .47.47 0 0 0-.5-.5Zm0 15.3a1.4 1.4 0 1 1 1.4-1.4 1.43 1.43 0 0 1-1.4 1.4Zm0-2a.5.5 0 1 0 .5.5.54.54 0 0 0-.5-.5Z"/></svg>