<svg id="Hero" xmlns="http://www.w3.org/2000/svg" viewBox="0 0 41 41"><defs><style>.cls-1{fill:#a4cff2}.cls-2{fill:#fff}.cls-4{fill:#7babf1}.cls-5{fill:#4c4372}.cls-6{fill:#00d1b2}</style></defs><path class="cls-1" d="M9.4 38.1v-6.2h12.3a3.1 3.1 0 1 1 0 6.2Z"/><path class="cls-2" d="M27.5 32.4c.3 0 .6.1.9.1V21.2h-1.9v11.4a1.64 1.64 0 0 1 1-.2Z"/><path d="M30.3 17.4h-6a1.16 1.16 0 0 1-1.2-1.2v-7h8.4v7a1.15 1.15 0 0 1-1.2 1.2Z" style="fill:#d3e6f8"/><path class="cls-1" d="M30.5 17.4a1.19 1.19 0 0 0 1-1.2V9.1h-1Z"/><path class="cls-4" d="M30.1 19h-5.6a.43.43 0 0 1-.4-.4v-1.2h6.5v1.2a.66.66 0 0 1-.5.4Z"/><path class="cls-1" d="M25.6 19H29v2.2h-3.4Z"/><path class="cls-2" d="M27.3 11.3a1.79 1.79 0 0 0-1.8 1.8v4.2h3.7v-4.2a2 2 0 0 0-1.9-1.8Z"/><path class="cls-5" d="M30.3 17.8h-6a1.58 1.58 0 0 1-1.6-1.6v-7a.43.43 0 0 1 .4-.4h8.4a.43.43 0 0 1 .4.4v7a1.47 1.47 0 0 1-1.6 1.6Zm-6.7-8.2v6.6a.79.79 0 0 0 .8.8h6a.79.79 0 0 0 .8-.8V9.6Z"/><path class="cls-5" d="M30.1 19.4h-5.6a.9.9 0 0 1-.9-.9v-1.2a.43.43 0 0 1 .4-.4h6.5a.43.43 0 0 1 .4.4v1.2a.77.77 0 0 1-.8.9Zm-5.6-1.6v.8h5.6v-.8Z"/><path class="cls-5" d="M29 21.6h-3.4a.43.43 0 0 1-.4-.4V19a.43.43 0 0 1 .4-.4H29a.43.43 0 0 1 .4.4v2.2a.43.43 0 0 1-.4.4Zm-3-.8h2.5v-1.4H26Z"/><path class="cls-4" d="M21.8 31.9h-2a3.1 3.1 0 0 1 0 6.2h2a3.12 3.12 0 0 0 3.1-3.1 3.25 3.25 0 0 0-3.1-3.1Z"/><path class="cls-5" d="M21.8 38.5H9.5a.43.43 0 0 1-.4-.4v-6.2a.43.43 0 0 1 .4-.4h12.3a3.5 3.5 0 0 1 0 7Zm-11.9-.9h11.9a2.6 2.6 0 0 0 0-5.2H9.9Zm19.3-19.8h-3.7a.43.43 0 0 1-.4-.4v-4.2a2.3 2.3 0 0 1 4.6 0v4.2a.66.66 0 0 1-.5.4Zm-3.3-.9h2.8v-3.8a1.4 1.4 0 1 0-2.8 0v3.8Zm.5 16.1a.43.43 0 0 1-.4-.4V21.2a.43.43 0 0 1 .4-.4h1.9a.43.43 0 0 1 .4.4v11.3a.43.43 0 0 1-.4.4h-.1a1.7 1.7 0 0 0-.7-.1 1.88 1.88 0 0 0-.8.2Zm.5-11.4v10.3a1.7 1.7 0 0 1 1 0V21.6Z"/><path class="cls-5" d="M27.5 38.1a3.1 3.1 0 1 1 3.1-3.1 3.25 3.25 0 0 1-3.1 3.1Zm0-5.3a2.2 2.2 0 1 0 2.2 2.2 2.22 2.22 0 0 0-2.2-2.2Zm-10.4 5.7a.43.43 0 0 1-.4-.4v-6.2a.4.4 0 0 1 .8 0V38c.1.3-.1.5-.4.5Z"/><path class="cls-6" d="M30.1 35a2.6 2.6 0 1 1-2.6-2.6 2.58 2.58 0 0 1 2.6 2.6Z"/><path class="cls-6" d="M28.6 35a1.1 1.1 0 1 1-1.1-1.1 1.11 1.11 0 0 1 1.1 1.1Zm3-25.9h-2.1V3.6a1.1 1.1 0 1 1 2.2 0v5.5Z"/><path class="cls-6" d="M29.5 9.1h-2.1V2.5a1.1 1.1 0 0 1 2.2 0Zm-2.2 0h-2.1V1.7a1.1 1.1 0 0 1 2.2 0Zm-4.2 6.4a2.05 2.05 0 0 1-2.1-2.1V8.7a1 1 0 0 1 1-1 1.08 1.08 0 0 1 1 1v6.8Z"/><path class="cls-6" d="M25.2 9.1h-2.1V2.5a1.1 1.1 0 1 1 2.2 0Z"/><path class="cls-5" d="M23.1 10.1H21a.4.4 0 1 1 0-.8h2.1a.43.43 0 0 1 .4.4c.1.2-.1.4-.4.4Zm2.1-6.3h-2.1a.43.43 0 0 1-.4-.4.43.43 0 0 1 .4-.4h2.1a.43.43 0 0 1 .4.4c.1.3-.1.4-.4.4Z"/><path class="cls-5" d="M27.3 3.5h-2.1a.43.43 0 0 1-.4-.4.43.43 0 0 1 .4-.4h2.1a.43.43 0 0 1 .4.4c.1.2-.1.4-.4.4Z"/><path class="cls-5" d="M29.5 3.8h-2.1a.43.43 0 0 1-.4-.4.43.43 0 0 1 .4-.4h2.1a.43.43 0 0 1 .4.4.37.37 0 0 1-.4.4Zm2.1 1.3h-2.1a.43.43 0 0 1-.4-.4.43.43 0 0 1 .4-.4h2.1a.43.43 0 0 1 .4.4.43.43 0 0 1-.4.4Z"/><path class="cls-5" d="M31.6 9.6h-2.1a.43.43 0 0 1-.4-.4V3.7a1.5 1.5 0 0 1 3 0v5.5a.66.66 0 0 1-.5.4Zm-1.7-.9h1.2V3.6a.6.6 0 0 0-1.2 0v5.1Z"/><path class="cls-5" d="M29.5 9.6h-2.1a.43.43 0 0 1-.4-.4V2.6a1.5 1.5 0 0 1 3 0v6.6a.66.66 0 0 1-.5.4Zm-1.7-.9H29V2.5a.6.6 0 1 0-1.2 0v6.2Z"/><path class="cls-5" d="M27.3 9.6h-2.1a.43.43 0 0 1-.4-.4V1.8a1.5 1.5 0 0 1 3 0v7.4a.46.46 0 0 1-.5.4Zm-1.6-.9h1.2V1.8a.6.6 0 0 0-1.2 0v6.9Zm-2.6 7.2a2.48 2.48 0 0 1-2.5-2.5V8.7a1.5 1.5 0 0 1 3 0v6.7a.47.47 0 0 1-.5.5Zm-1-7.8a.65.65 0 0 0-.6.6v4.7a1.62 1.62 0 0 0 1.2 1.6V8.7a.65.65 0 0 0-.6-.6Z"/><path class="cls-5" d="M25.2 9.6h-2.1a.43.43 0 0 1-.4-.4V2.6a1.5 1.5 0 0 1 3 0v6.6a.46.46 0 0 1-.5.4Zm-1.6-.9h1.2V2.5a.6.6 0 1 0-1.2 0v6.2Zm3.9 27.9a1.6 1.6 0 1 1 1.6-1.6 1.72 1.72 0 0 1-1.6 1.6Zm0-2.3a.7.7 0 1 0 .7.7.84.84 0 0 0-.7-.7Z"/></svg>