<svg id="Hero" xmlns="http://www.w3.org/2000/svg" viewBox="0 0 47.2 92.9"><defs><style>.cls-2{fill:#f5c62c}</style></defs><path d="M23.7 34.2v-6.5m0-7.3v-6.5m0-6.5V.9" style="fill:none;stroke:#f5c62c;stroke-linecap:round;stroke-linejoin:round;stroke-width:2px"/><path class="cls-2" d="M19.3 51.9a3.1 3.1 0 1 0 3.1 3.1 3.12 3.12 0 0 0-3.1-3.1Zm0 4.6a1.5 1.5 0 1 1 0-3 1.54 1.54 0 0 1 1.5 1.5 1.47 1.47 0 0 1-1.5 1.5Zm8.8-4.6a3.1 3.1 0 1 0 3.1 3.1 3.12 3.12 0 0 0-3.1-3.1Zm0 4.6a1.5 1.5 0 1 1 0-3 1.5 1.5 0 0 1 0 3Z"/><path class="cls-2" d="M37.5 55.5a4.36 4.36 0 0 0-3.6-3.5 4.63 4.63 0 0 0-4.9-3.5h-4.5v-1.7a2.56 2.56 0 1 0-3.2-1.7 2.86 2.86 0 0 0 1.7 1.7v1.7h-4.5a4.7 4.7 0 0 0-4.9 3.5 4.24 4.24 0 0 0-.2 8.4c.2 3.4 2.7 4.6 5.1 4.6H29a4.72 4.72 0 0 0 5.1-4.6 4.21 4.21 0 0 0 3.4-4.9Zm-24.1 3.4a2.72 2.72 0 0 1-1.9-3.4 3 3 0 0 1 1.9-1.9Zm9.3-14.5a1 1 0 0 1 1-1 1 1 0 0 1 0 2 1 1 0 0 1-1-1Zm9.8 15.5a3.3 3.3 0 0 1-3.6 3.6H18.5a3.3 3.3 0 0 1-3.6-3.6v-6.2a3.26 3.26 0 0 1 3.6-3.6H29a3.26 3.26 0 0 1 3.6 3.6v6.2Zm1.5-1.1v-5.3a2.67 2.67 0 0 1 2 2.6 2.7 2.7 0 0 1-2 2.7Z"/><path class="cls-2" d="M28.1 60.2h-8.8a.79.79 0 0 0-.8.8.74.74 0 0 0 .8.8h8.8a.8.8 0 0 0 0-1.6Zm12.7 6.3a3.08 3.08 0 0 0-3-3 3 3 0 0 0-2.9 2.3l-2.1.4H14.5l-2.1-.4a3.07 3.07 0 0 0-3.6-2.3 3.07 3.07 0 0 0-2.3 3.6 2.77 2.77 0 0 0 2.2 2.2V75a2.92 2.92 0 0 0-2.2 2.9v1.4a.79.79 0 0 0 .8.8.74.74 0 0 0 .8-.8V78a1.4 1.4 0 0 1 2.8 0v1.4a.79.79 0 0 0 .8.8.74.74 0 0 0 .8-.8V78a3.09 3.09 0 0 0-2.2-2.9v-5.7a3 3 0 0 0 2.1-2l1.3.3v9.5a9 9 0 0 0 .9 4v.1a10 10 0 0 0 13.2 5 10.14 10.14 0 0 0 5-5v-.1a9.34 9.34 0 0 0 .9-4v-9.5l1.3-.3a3 3 0 0 0 2.1 2v5.7a2.92 2.92 0 0 0-2.2 2.9v1.4a.8.8 0 0 0 1.6 0V78a1.4 1.4 0 1 1 2.8 0v1.4a.79.79 0 0 0 .8.8.74.74 0 0 0 .8-.8V78a3.09 3.09 0 0 0-2.2-2.9v-5.7a3.13 3.13 0 0 0 2.1-2.9ZM9.6 67.9a1.4 1.4 0 1 1 1.4-1.4 1.37 1.37 0 0 1-1.4 1.4Zm14.1 17.7a8.4 8.4 0 0 1-7.1-3.9h14.3a8.7 8.7 0 0 1-7.2 3.9Zm8.5-8.5a8 8 0 0 1-.6 3H15.8a8 8 0 0 1-.6-3v-9.4h16.9v9.4Zm5.6-9.2a1.54 1.54 0 0 1-1.5-1.5 1.4 1.4 0 1 1 2.8 0 1.23 1.23 0 0 1-1.3 1.5Z"/><path class="cls-2" d="M26.4 73.2a.76.76 0 0 0-.5-.2h-2.3l2.8-2.9a.79.79 0 0 0-.1-1.1.91.91 0 0 0-1 0l-4.1 4.2a.78.78 0 0 0 0 1.1.76.76 0 0 0 .5.2h2.4l-2.9 3.2a.71.71 0 0 0 .1 1.1.71.71 0 0 0 1.1-.1l4.1-4.5c.3-.2.2-.7-.1-1Z"/></svg>