<svg id="Hero" xmlns="http://www.w3.org/2000/svg" viewBox="0 0 41 41"><defs><style>.cls-1{fill:#d3e6f8}.cls-2{fill:#a4cff2}.cls-4{fill:#4c4372}.cls-5{fill:#f83600}</style></defs><path class="cls-1" d="M7.6 16.5a4.53 4.53 0 0 1-1.6-.3l2 5.2a5.75 5.75 0 0 1 4.3-1.9h.4L11 14.9a4.58 4.58 0 0 1-3.4 1.6Zm14.5-8.3a4.08 4.08 0 0 1-1.7-3.4 5.9 5.9 0 0 1 .2-1.4l-11.4 5a4.29 4.29 0 0 1 2.6 3.9v.4Zm8.4 5.9a2 2 0 0 1 1.1.3l.5-.2-3.4-7.9a4.35 4.35 0 0 1-4 2.8h-.3l3.1 7.3.8-.4a2.25 2.25 0 0 1 2.2-1.9Z"/><path class="cls-1" d="M18.1 31.8H6.5v-6.5a5.8 5.8 0 0 1 11.6 0v6.5Z"/><path class="cls-2" d="M10.9 14.9a3.78 3.78 0 0 1-1.2 1l1.4 3.6a4.87 4.87 0 0 1 1.2-.1h.4Zm7.4-10.5c0 .2-.1.4-.1.7a6.82 6.82 0 0 0 1.9 4l2-.9a4.08 4.08 0 0 1-1.7-3.4 5.9 5.9 0 0 1 .2-1.4Zm10.4 1.8a5.37 5.37 0 0 1-1 1.6l2.7 6.3h.1a2 2 0 0 1 1.1.3l.5-.2Zm.4 14.6 1.1-2.4a2.08 2.08 0 0 1-1.9-2.1v-.4l-.8.4a2.44 2.44 0 0 0-1.2 3.3l2.3 5a1 1 0 1 0 1.8-.8Z"/><path class="cls-2" d="m37.9 20.3-2.3-5a2.44 2.44 0 0 0-3.3-1.2l-.7.3a2.37 2.37 0 0 1 1.1 1.9 2 2 0 0 1-.4 1.3l2.5.7 1.3 2.9a1 1 0 0 0 1.3.5 1.15 1.15 0 0 0 .5-1.4Zm-25.6-.8a3.08 3.08 0 0 0-1 .1 5.88 5.88 0 0 1 4.8 5.7v6.5h2.1v-6.5a6 6 0 0 0-5.9-5.8Z"/><path d="M14.4 24.7a2.2 2.2 0 1 1-2.2-2.2 2.22 2.22 0 0 1 2.2 2.2Zm4.8 7.1H4.9a1.79 1.79 0 0 0-1.8 1.8v4.6h18v-4.6a2 2 0 0 0-1.9-1.8Z" style="fill:#7babf1"/><path class="cls-4" d="M21 38.7H3a.43.43 0 0 1-.4-.4v-4.6a2.26 2.26 0 0 1 2.3-2.3h14.3a2.26 2.26 0 0 1 2.3 2.3v4.6a.46.46 0 0 1-.5.4Zm-17.5-.9h17.1v-4.2a1.37 1.37 0 0 0-1.4-1.4H4.9a1.37 1.37 0 0 0-1.4 1.4v4.2Z"/><path class="cls-4" d="M18.1 32.2H6.5a.43.43 0 0 1-.4-.4v-6.5a6.3 6.3 0 1 1 12.6 0v6.5c-.2.2-.4.4-.6.4Zm-11.2-.8h10.7v-6.1a5.4 5.4 0 0 0-10.8 0Z"/><path class="cls-4" d="M8 21.8c-.2 0-.3-.1-.4-.3l-2-5.2a.45.45 0 0 1 .3-.6h.3a3.19 3.19 0 0 0 1.4.3 3.75 3.75 0 0 0 3-1.4.76.76 0 0 1 .4-.2.27.27 0 0 1 .3.3l1.7 4.5a.48.48 0 0 1-.2.6h-.5a5.18 5.18 0 0 0-4 1.8c-.1.2-.2.2-.3.2Zm-1.3-4.9 1.4 3.7A6.81 6.81 0 0 1 12 19l-1.3-3.3a4.72 4.72 0 0 1-3.2 1.2 1.1 1.1 0 0 1-.8 0Zm5.1-3.7a.37.37 0 0 1-.3-.1.52.52 0 0 1-.2-.4v-.4A3.83 3.83 0 0 0 9 8.8a.48.48 0 0 1-.2-.6A.22.22 0 0 1 9 8l11.4-5c.2-.1.3 0 .5.1a.44.44 0 0 1 .1.5 5.07 5.07 0 0 0-.2 1.3A3.84 3.84 0 0 0 22.4 8a.52.52 0 0 1 .2.4c0 .2-.1.3-.3.4L12 13.3c-.1-.2-.1-.1-.2-.1Zm-1.6-4.8a4.47 4.47 0 0 1 2 3.6l9-4a4.71 4.71 0 0 1-1.4-3.3v-.6Zm2.1 18.9a2.6 2.6 0 1 1 2.6-2.6 2.58 2.58 0 0 1-2.6 2.6Zm0-4.3a1.7 1.7 0 1 0 1.7 1.7 1.75 1.75 0 0 0-1.7-1.7Zm17.2 2.6a1.34 1.34 0 0 1-1.3-.8l-2.3-5a2.93 2.93 0 0 1 1.5-3.9l.8-.4c.2-.1.3 0 .5.1a.76.76 0 0 1 .2.4v.3a1.65 1.65 0 0 0 1.5 1.7c.1 0 .3.1.3.2a.3.3 0 0 1 0 .4l-1 2.2 1.2 2.7a1.08 1.08 0 0 1 0 1.1 1.09 1.09 0 0 1-.8.8 1.42 1.42 0 0 1-.6.2Zm-1.6-9-.2.1a2 2 0 0 0-1 2.7l2.3 5a.55.55 0 0 0 .5.3c.1 0 .2 0 .2-.1l.3-.3c.1-.1 0-.3 0-.4L28.7 21a.3.3 0 0 1 0-.4l.9-1.9a2.49 2.49 0 0 1-1.7-2.1Zm9.1 5.5a1.34 1.34 0 0 1-1.3-.8l-1.2-2.7-2.3-.6c-.2-.1-.4-.3-.3-.5a.1.1 0 0 1 .1-.1 1.69 1.69 0 0 0 .3-1 1.65 1.65 0 0 0-.9-1.5.45.45 0 0 1-.4-.8.3.3 0 0 1 .4 0l.7-.3a2.66 2.66 0 0 1 1.2-.3 3.13 3.13 0 0 1 2.7 1.7l2.3 5a1.08 1.08 0 0 1 0 1.1 1.09 1.09 0 0 1-.8.8Zm-4.1-4.9 2 .6c.1 0 .2.1.3.2l1.3 2.9a.55.55 0 0 0 .5.3c.1 0 .2 0 .2-.1l.3-.3c.1-.1 0-.3 0-.4l-2.3-5a2.12 2.12 0 0 0-1.9-1.2 2.92 2.92 0 0 0-.9.2h-.1a2.87 2.87 0 0 1 .7 1.8 1.64 1.64 0 0 1-.1 1Z"/><path class="cls-4" d="M27.5 16.7c-.2 0-.3-.1-.4-.3L24 9.1c-.1-.1 0-.3 0-.4a.52.52 0 0 1 .4-.2h.3A3.89 3.89 0 0 0 28.3 6c.1-.2.2-.3.4-.3s.3.1.4.3l3.4 7.9a.48.48 0 0 1-.2.6l-.5.2a.3.3 0 0 1-.4 0 1.49 1.49 0 0 0-.9-.2 1.81 1.81 0 0 0-1.7 1.4.32.32 0 0 1-.3.3l-.8.4c-.1.1-.1.1-.2.1ZM25 9.4l2.7 6.2.2-.1a2.58 2.58 0 0 1 2.5-1.9 3.55 3.55 0 0 1 1 .2l-2.8-6.6A4.53 4.53 0 0 1 25 9.4Z"/><path class="cls-4" d="M22.5 13.9a4.87 4.87 0 0 1-1.2-.1 7.33 7.33 0 0 1-4-3.4.48.48 0 0 1 .2-.6.48.48 0 0 1 .6.2 6.27 6.27 0 0 0 3.4 3 4.86 4.86 0 0 0 4-1c.2-.1.5-.1.6.1.1.2.1.5-.1.6a6.16 6.16 0 0 1-3.5 1.2Zm-6.1 7.7a.43.43 0 0 1-.4-.4c-.4-6.1-3.4-8.6-3.4-8.6a.43.43 0 0 1 .5-.7c.1.1 3.3 2.8 3.7 9.2.1.3-.1.5-.4.5Z"/><path class="cls-5" d="M11.8 12.3A4.3 4.3 0 1 1 7.5 8a4.27 4.27 0 0 1 4.3 4.3Zm17.1-7.5a4.3 4.3 0 1 1-8.6 0 4.3 4.3 0 1 1 8.6 0Z"/><path class="cls-5" d="M26.8 4.8a2.2 2.2 0 1 1-2.2-2.2 2.16 2.16 0 0 1 2.2 2.2ZM9.7 12.3a2.2 2.2 0 1 1-2.2-2.2 2.22 2.22 0 0 1 2.2 2.2Zm22.9 4a2.2 2.2 0 1 1-2.2-2.2 2.16 2.16 0 0 1 2.2 2.2Z"/><path class="cls-4" d="M7.6 17a4.7 4.7 0 1 1 4.7-4.7A4.69 4.69 0 0 1 7.6 17Zm0-8.6a3.8 3.8 0 1 0 3.8 3.8 3.86 3.86 0 0 0-3.8-3.8Zm17.1 1.1a4.7 4.7 0 1 1 4.7-4.7 4.69 4.69 0 0 1-4.7 4.7Zm0-8.6a3.8 3.8 0 1 0 3.8 3.8A3.8 3.8 0 0 0 24.7.9Z"/><path class="cls-4" d="M24.7 7.4a2.65 2.65 0 0 1-2.6-2.6 2.6 2.6 0 0 1 5.2 0 2.65 2.65 0 0 1-2.6 2.6Zm0-4.4A1.75 1.75 0 0 0 23 4.7a1.7 1.7 0 1 0 3.4 0A1.75 1.75 0 0 0 24.7 3ZM7.6 14.9a2.6 2.6 0 0 1 0-5.2 2.6 2.6 0 0 1 0 5.2Zm0-4.3a1.7 1.7 0 0 0 0 3.4 1.7 1.7 0 0 0 0-3.4Zm22.9 8.3a2.6 2.6 0 1 1 2.6-2.6 2.65 2.65 0 0 1-2.6 2.6Zm0-4.4a1.7 1.7 0 1 0 1.7 1.7 1.75 1.75 0 0 0-1.7-1.7Z"/><path class="cls-4" d="M31.2 16.3a.75.75 0 1 1-1.5.1.68.68 0 0 1 .7-.7c.5-.2.8.2.8.6Z"/></svg>