<svg id="Layer_1" data-name="Layer 1" xmlns="http://www.w3.org/2000/svg" viewBox="0 0 464 464"><defs><style>.cls-2{fill:#4c616d}</style></defs><path d="M83.62 93.76v139.5a226.89 226.89 0 0 0 86.14 178.38L236.08 465l66.32-53.36a226.86 226.86 0 0 0 86.14-178.38V93.76A30.18 30.18 0 0 0 364.15 64L236.08 38.11 108 64c-14.47 2.32-24.38 15.28-24.38 29.76Zm30.49 17.54a14.7 14.7 0 0 1 11.44-14.49l110.53-28.2 110.53 27.44a14.68 14.68 0 0 1 11.44 14.48v110.54c0 67.08-32 130.35-85.38 170.75l-36.59 27.44-36.59-27.44c-53.36-40.4-85.38-103.67-85.38-170.75Z" style="fill:#039be5"/><path class="cls-2" d="M237.61 0h-3.05L106.49 25.92A38.34 38.34 0 0 0 76 63.27v139.5c0 72.42 32 139.5 88.43 184.48l66.32 53.36.76.76a.74.74 0 0 1 .76.76c.76 0 1.53.76 3 .76a5.79 5.79 0 0 0 3.05-.76.74.74 0 0 0 .76-.76.74.74 0 0 0 .76-.76l66.32-53.36c57.94-45 90-112.06 90-184.48V63.27a38.34 38.34 0 0 0-30.49-37.35Zm143.31 63.27v139.5a219 219 0 0 1-83.09 172.28L243.7 418.5v-25.92l33.55-25.15c55.64-41.17 88.42-107.49 88.42-176.86v-61a7.62 7.62 0 1 0-15.24 0v61a205.81 205.81 0 0 1-82.33 164.66l-36.59 27.44a6.93 6.93 0 0 0-3 6.1v29.73l-54.12-43.45a220.09 220.09 0 0 1-83.14-172.28V63.27c0-10.67 7.62-20.58 18.29-22.11l118.92-24.39V32L124 57.93a23.58 23.58 0 0 0-17.51 22.87v109.77c0 69.37 32.78 135.69 88.43 176.86a10.84 10.84 0 0 0 4.57 1.52 6.92 6.92 0 0 0 6.1-3.05 8.2 8.2 0 0 0-1.52-10.67 205.78 205.78 0 0 1-82.33-164.66V80.8a7.41 7.41 0 0 1 6.1-7.62l108.24-27.44 108.25 27.44a8.2 8.2 0 0 1 6.1 7.62v18.3a7.62 7.62 0 0 0 15.24 0V80.8c0-10.67-6.86-19.82-17.53-22.1L243.7 32V16.77L362.62 40.4a23.61 23.61 0 0 1 18.3 22.87Z"/><path class="cls-2" d="m261.24 154.75-61 61a7.37 7.37 0 0 0 0 10.67 7.37 7.37 0 0 0 10.68 0l61-61a7.54 7.54 0 1 0-10.67-10.67Zm-55.65 43.45a7 7 0 0 0 5.34-2.29l30.49-30.49a7.54 7.54 0 0 0-10.67-10.67l-30.5 30.49a7.37 7.37 0 0 0 0 10.67 7 7 0 0 0 5.34 2.29Zm55.65-12.96-30.49 30.49a7.37 7.37 0 0 0 0 10.67 7.36 7.36 0 0 0 10.67 0l30.49-30.49a7.54 7.54 0 1 0-10.67-10.67Z"/></svg>