<svg id="Layer_1" data-name="Layer 1" xmlns="http://www.w3.org/2000/svg" viewBox="0 0 464 464"><defs><style>.cls-1{fill:#00d1b2}.cls-2{fill:#4c616d}</style></defs><path class="cls-1" d="M190.4 374.4a31.59 31.59 0 0 0 22.4 9.6h37.6c8.8 0 16.8-3.2 22.4-9.6L296 352H168Z"/><circle class="cls-1" cx="232" cy="96" r="32"/><path class="cls-2" d="M224 392v64a8 8 0 0 0 16 0v-64a8 8 0 0 0-16 0Zm-16 0a8 8 0 0 0-16 0v32a8 8 0 0 0 16 0Zm48 0v32a8 8 0 0 0 16 0v-32a8 8 0 0 0-16 0Zm-24-280a39.61 39.61 0 0 0 40-40 40 40 0 0 0-80 0 39.61 39.61 0 0 0 40 40Zm0-64a23.57 23.57 0 0 1 24 24 24 24 0 0 1-48 0 23.57 23.57 0 0 1 24-24Zm-32 192a7.26 7.26 0 0 0 5.6-2.4l64-64a7.92 7.92 0 1 0-11.2-11.2l-64 64a7.73 7.73 0 0 0 0 11.2 7.26 7.26 0 0 0 5.6 2.4Zm0-32a7.26 7.26 0 0 0 5.6-2.4l32-32a7.92 7.92 0 0 0-11.2-11.2l-32 32a7.73 7.73 0 0 0 0 11.2 7.26 7.26 0 0 0 5.6 2.4Zm58.4-13.6-32 32a7.73 7.73 0 0 0 0 11.2 7.73 7.73 0 0 0 11.2 0l32-32a7.92 7.92 0 1 0-11.2-11.2Z"/><path class="cls-2" d="M64 296a7.56 7.56 0 0 0 8 8h56.8a40 40 0 0 0 35.2 32l20.8 20.8c7.2 7.2 17.6 12 28 12h37.6a37.53 37.53 0 0 0 28-12l20.8-20.8a39.08 39.08 0 0 0 35.2-32H392a7.56 7.56 0 0 0 8-8 79.64 79.64 0 0 0-70.4-79.2h-2.4l-16-146.4a79.75 79.75 0 0 0-158.4 0l-16 146.4h-2.4A79.64 79.64 0 0 0 64 296Zm186.4 56h-37.6c-6.4 0-12.8-2.4-16.8-7.2l-8.8-8.8h89.6l-8.8 8.8a24.82 24.82 0 0 1-17.6 7.2Zm132.8-64h-48l-6.4-55.2c28.8 4 51.2 27.2 54.4 55.2ZM168.8 72.8C172.8 40 199.2 16 232 16s59.2 24 63.2 56.8L320 296c0 12.8-11.2 24-24 24H168a23.3 23.3 0 0 1-22.4-16H296a8 8 0 0 0 0-16H144.8Zm-33.6 160-6.4 55.2h-48c3.2-28 25.6-51.2 54.4-55.2ZM0 408a55.66 55.66 0 0 0 56 56h96a23.92 23.92 0 0 0 18.4-8.8A24.84 24.84 0 0 0 176 436c-1.6-11.2-12.8-20-24.8-20a7.17 7.17 0 0 1-7.2-7.2v-.8a23.57 23.57 0 0 0-24-24c-4 0-8.8.8-12 3.2-8-20.8-28.8-35.2-52-35.2a55.66 55.66 0 0 0-56 56Zm96 0a8 8 0 0 0 16 0 8 8 0 1 1 8 8 8 8 0 0 0 0 16c6.4 0 11.2-2.4 16-5.6 4 4 9.6 5.6 15.2 5.6 4 0 8 3.2 8.8 6.4 0 2.4 0 4.8-1.6 6.4a7.28 7.28 0 0 1-6.4 3.2H56a40 40 0 0 1 0-80 39.61 39.61 0 0 1 40 40Z"/><path class="cls-2" d="M32 408a7.56 7.56 0 0 0 8 8 7.56 7.56 0 0 0 8-8 7.56 7.56 0 0 1 8-8 8 8 0 0 0 0-16 23.57 23.57 0 0 0-24 24Zm376-56c-23.2 0-44 14.4-52 35.2-3.2-2.4-8-3.2-12-3.2a23.57 23.57 0 0 0-24 24v.8a7.17 7.17 0 0 1-7.2 7.2 25.71 25.71 0 0 0-24.8 20c-.8 7.2.8 14.4 5.6 19.2s11.2 8.8 18.4 8.8h96a56 56 0 0 0 0-112Zm0 96h-96a7.28 7.28 0 0 1-6.4-3.2c-1.6-1.6-1.6-4-1.6-6.4.8-4 4.8-6.4 8.8-6.4a25.26 25.26 0 0 0 15.2-5.6c4 4 9.6 5.6 16 5.6a8 8 0 0 0 0-16 8 8 0 1 1 8-8 8 8 0 0 0 16 0 40 40 0 1 1 40 40Z"/><path class="cls-2" d="M424 400a7.56 7.56 0 0 0-8 8 7.56 7.56 0 0 1-8 8h-16a8 8 0 0 0 0 16h16a23.57 23.57 0 0 0 24-24 7.56 7.56 0 0 0-8-8Z"/></svg>