<svg id="Layer_1" data-name="Layer 1" xmlns="http://www.w3.org/2000/svg" viewBox="0 0 180 170"><defs><style>.cls-1,.cls-2{fill:none}.cls-1{stroke:#4c626e;stroke-miterlimit:10;stroke-width:5px;opacity:.3;isolation:isolate}.cls-2{stroke:#8c8cf9;stroke-linecap:round;stroke-linejoin:round;stroke-width:4px}</style></defs><path class="cls-1" d="M89.3 75.4a14.2 14.2 0 1 1-28.4 0"/><path class="cls-1" d="M60.9 75.4a14.2 14.2 0 1 1-28.4 0l9.6-28.7a5.37 5.37 0 0 1 5.1-3.7h84.1a5.37 5.37 0 0 1 5.1 3.7l9.6 28.7a14.2 14.2 0 1 1-28.4 0"/><path class="cls-1" d="M117.7 75.4a14.2 14.2 0 0 1-28.4 0M138 94.3v-5.4m-97.3 0v46a5.38 5.38 0 0 0 5.4 5.4H111M48.8 40.2v-8.1a5.38 5.38 0 0 1 5.4-5.4h70.3a5.38 5.38 0 0 1 5.4 5.4v8.1"/><path class="cls-1" d="M89.3 137.6v-35.2h8.1m-18.9 0v16.2h-27v-16.2"/><circle class="cls-2" cx="121.8" cy="115.9" r="25.7"/><path class="cls-2" d="m111 118.6 8.1 5.5 13.5-16.3"/></svg>