<svg id="Layer_1" data-name="Layer 1" xmlns="http://www.w3.org/2000/svg" viewBox="0 0 512 512"><defs><style>.cls-1{fill:#0f7cff}</style></defs><path class="cls-1" d="m362.71-.15-294 .3a30 30 0 0 0-30 30l.11 102a10 10 0 0 0 20 0l-.11-102a10 10 0 0 1 10-10l294-.3a10 10 0 0 1 10 10l.39 372a10 10 0 0 1-10 10l-294 .3a10 10 0 0 1-10-10l-.16-185.65a10 10 0 0 0-20 0l.19 185.66a30 30 0 0 0 30 30l294-.3a30 30 0 0 0 30-30l-.39-372A30 30 0 0 0 362.71-.15Z"/><path class="cls-1" d="M56 169.7a10 10 0 1 0 2.93 7.07A10.07 10.07 0 0 0 56 169.7ZM96.07 455a10 10 0 1 0 2.93 7.06 10.06 10.06 0 0 0-2.93-7.06ZM423 40.06a10 10 0 0 0-10 10v392a10 10 0 0 1-10 10H129a10 10 0 1 0 0 20h274a30 30 0 0 0 30-30v-392a10 10 0 0 0-10-10Z"/><path class="cls-1" d="M463.06 80a10 10 0 0 0-10 10v392a10 10 0 0 1-10 10h-314a10 10 0 1 0 0 20h314a30 30 0 0 0 30-30V90a10 10 0 0 0-10-10Zm-262.12-6h-96a10 10 0 0 0-10 10v96a10 10 0 0 0 10 10h96a10 10 0 0 0 10-10V84a10 10 0 0 0-10-10Zm-10 96h-76V94h76Zm-22.18 65.4a10 10 0 0 0-14.14 0L128 262l-12.36-12.36a10 10 0 0 0-14.15 14.15L121 283.2a10 10 0 0 0 14.15 0l33.65-33.66a10 10 0 0 0-.04-14.14Z"/><path class="cls-1" d="M332.6 249H215.94a10 10 0 0 0 0 20H332.6a10 10 0 0 0 0-20Zm-5.66-175h-70a10 10 0 0 0 0 20h70a10 10 0 0 0 0-20Zm0 48h-70a10 10 0 0 0 0 20h70a10 10 0 0 0 0-20Zm0 48h-70a10 10 0 0 0 0 20h70a10 10 0 0 0 0-20ZM168.76 311.77a10 10 0 0 0-14.14 0L128 338.35 115.68 326a10 10 0 0 0-14.15 14.14L121 359.57a10 10 0 0 0 14.15 0l33.65-33.66a10 10 0 0 0-.04-14.14ZM332.6 325H215.94a10 10 0 0 0 0 20H332.6a10 10 0 0 0 0-20Z"/></svg>