<svg id="Layer_1" data-name="Layer 1" xmlns="http://www.w3.org/2000/svg" viewBox="0 0 512 512"><defs><style>.cls-1{fill:#837fcb}</style></defs><path class="cls-1" d="m364.2-11.76-294-1.36a30 30 0 0 0-30.14 29.86l-.47 102a10 10 0 0 0 20 .09l.47-102a10 10 0 0 1 10-9.95l294 1.36a10 10 0 0 1 9.95 10l-1.73 372a10 10 0 0 1-10 10l-294-1.37a10 10 0 0 1-10-10l.86-185.67a10 10 0 0 0-20-.09l-.86 185.66a30 30 0 0 0 29.92 30.1l294 1.37a30 30 0 0 0 30.13-29.86l1.73-372a30 30 0 0 0-29.86-30.14Z"/><path class="cls-1" d="M56.53 156.35a10 10 0 1 0 2.89 7.09 10.08 10.08 0 0 0-2.89-7.09ZM95 441.86a10 10 0 1 0 2.86 7.14 10.07 10.07 0 0 0-2.86-7.14ZM424.26 28.8a10 10 0 0 0-10.06 9.94l-2.22 392a10 10 0 0 1-10.06 9.95l-274-1.56a10 10 0 0 0-.11 20l274 1.56A30 30 0 0 0 432 430.85l2.22-392a10 10 0 0 0-9.96-10.05Z"/><path class="cls-1" d="M464.09 69a10 10 0 0 0-10 9.94l-2.23 392a10 10 0 0 1-10.05 9.94l-314-1.78a10 10 0 1 0-.11 20l314 1.78A30 30 0 0 0 471.81 471L474 79a10 10 0 0 0-9.91-10ZM202 61.47l-96-.54a10 10 0 0 0-10 9.94l-.55 96a10 10 0 0 0 9.95 10.06l96 .54a10 10 0 0 0 10.05-9.94l.55-96a10 10 0 0 0-10-10.06Zm-10.54 95.95-76-.43.43-76 76 .43Zm-22.55 65.27a10 10 0 0 0-14.14-.08L128 249l-12.29-12.43a10 10 0 0 0-14.23 14.06l19.33 19.55a10 10 0 0 0 14.14.08l33.84-33.47a10 10 0 0 0 .12-14.1Z"/><path class="cls-1" d="M332.68 237.22 216 236.56a10 10 0 0 0-.11 20l116.66.66a10 10 0 1 0 .12-20ZM328 62.19l-70-.4a10 10 0 0 0-.11 20l70 .4a10 10 0 1 0 .11-20Zm-.27 48-70-.4a10 10 0 1 0-.11 20l70 .4a10 10 0 0 0 .11-20Zm-.27 48-70-.4a10 10 0 1 0-.11 20l70 .4a10 10 0 0 0 .12-20ZM168.48 299.06a10 10 0 0 0-14.14-.08l-26.74 26.43L115.31 313a10 10 0 0 0-14.22 14l19.32 19.54a10 10 0 0 0 14.15.08l33.84-33.42a10 10 0 0 0 .08-14.14Zm163.77 14.16-116.67-.66a10 10 0 1 0-.11 20l116.66.66a10 10 0 0 0 .12-20Z"/></svg>