<svg id="Layer_1" data-name="Layer 1" xmlns="http://www.w3.org/2000/svg" viewBox="0 0 512 512"><defs><style>.cls-2{fill:#f83600}</style></defs><path d="M69.5 440.3c-8.2-5.6-15.9-15.3-21.2-26.8-4.1-8.7-6.3-17.7-6.3-25.2v-80.8l74.3-36.4-10-4.9L22 307.5v80.8c0 7.5 2.2 16.5 6.3 25.2 5.3 11.4 13 21.2 21.2 26.8l56.9 38.7 10-6.8Z" style="fill:#d4e1f4"/><path class="cls-2" d="M163.7 163.2h192.8a6 6 0 0 0 0-12H163.7a6 6 0 0 0 0 12Zm0 61.5h192.8a6 6 0 0 0 0-12H163.7a6 6 0 0 0 0 12Zm0 51.3h192.8a6 6 0 0 0 0-12H163.7a6 6 0 0 0 0 12Z"/><path class="cls-2" d="M502 359.1a31.6 31.6 0 1 0-37.6 31.1v58.4H420v-353a6 6 0 0 0-6-6h-55.5v-64a6 6 0 0 0-6-6H167.8a6 6 0 0 0-6 6v64h-55.5a6 6 0 0 0-6 6v163.9h12V101.7H408v347h-59.8V420a6 6 0 0 0-6-6h-29.9v-91.1a6 6 0 0 0-6-6H214a6 6 0 0 0-6 6V414h-20.7v12h148.9v22.7h-183a6 6 0 0 0 0 12H496a6 6 0 0 0 0-12h-19.6v-58.4a31.9 31.9 0 0 0 25.6-31.2ZM173.8 31.7h172.6v58H173.8ZM220 328.9h34.1v84.7h12v-84.7h34.2V414H220Zm230.7 30.2a19.6 19.6 0 1 1 19.6 19.6 19.5 19.5 0 0 1-19.6-19.6Z"/><path class="cls-2" d="M199.4 298.5 109 254.2a6.15 6.15 0 0 0-5.3 0l-90.4 44.2a6 6 0 0 0-3.4 5.4v84.6c0 9.4 2.6 19.8 7.4 30.3 6.2 13.3 15.4 24.9 25.3 31.6l60.2 41a6 6 0 0 0 6.8 0l60.2-41c18.4-12.5 32.7-39.7 32.7-61.9v-84.5a5.54 5.54 0 0 0-3.1-5.4Zm-8.7 89.9c0 18-12.6 41.8-27.5 52l-56.9 38.7-56.8-38.8c-8.2-5.6-15.9-15.3-21.2-26.8-4.1-8.7-6.3-17.7-6.3-25.2v-80.8l84.4-41.3 84.4 41.4v80.8Z"/><path class="cls-2" d="M72.3 366a6 6 0 0 0-8.4 8.6l27.3 26.6a6 6 0 0 0 8.4 0l49.2-48a6 6 0 0 0-8.3-8.6l-45 43.9Z"/></svg>