<svg version="1.1" id="Calque_1" xmlns="http://www.w3.org/2000/svg" x="0" y="0" viewBox="0 0 200 200" style="enable-background:new 0 0 200 200" xml:space="preserve"><style>.st1{fill:none;stroke:#c0d7f1;stroke-linecap:round;stroke-miterlimit:10}.st1,.st2{stroke-width:3}.st2,.st4{fill:none;stroke-linecap:round;stroke-miterlimit:10}.st2{stroke:#039be5}.st4{stroke:#c0d7f1;stroke-width:2;stroke-linejoin:round;stroke-opacity:.8}</style><g id="XMLID_33_"><path id="XMLID_35_" class="st1" d="M132.6 82.9V71c0-2.9-2.7-5.2-5.6-4.6L54.3 81.8c-2.2.5-3.7 2.4-3.7 4.6v71.3c0 2.6 2.1 4.7 4.7 4.7h53.9"/><path id="XMLID_34_" class="st1" d="M149 127.2V89.9c0-2.6-2.1-4.7-4.7-4.7H52.9"/></g><circle id="XMLID_32_" transform="matrix(.04531 -.999 .999 .04531 -21.348 264.861)" class="st2" cx="127.9" cy="143.6" r="25.8"/><path id="XMLID_31_" class="st2" d="m116.2 146 7 7 18.8-16.4"/><path id="XMLID_1_" d="m47.6 54.4 3 1.3c.1.1.3 0 .4 0l2.8-1.7c.3-.2.6.1.6.4l-.4 3.2c0 .1 0 .3.1.3l2.4 2.1c.2.2.1.6-.2.7l-3.2.6c-.1 0-.2.1-.3.2l-1.3 3c-.1.3-.5.3-.7 0l-1.6-2.8c-.1-.1-.2-.2-.3-.2l-3.2-.3c-.3 0-.5-.4-.3-.6l2.2-2.4c.1-.1.1-.2.1-.3l-.7-3.2c0-.1.3-.4.6-.3z" style="fill:none;stroke:#039be5;stroke-width:2;stroke-linecap:round;stroke-linejoin:round;stroke-miterlimit:10"/><path id="XMLID_4_" class="st4" d="m58.9 46.7-1.7-1.8c-.1-.1-.2-.1-.3-.1l-2.5.4c-.2 0-.4-.2-.3-.4l1.2-2.2v-.3l-1.1-2.2c-.1-.2.1-.5.3-.4l2.4.4c.1 0 .2 0 .3-.1l1.8-1.8c.2-.2.5-.1.5.2l.3 2.5c0 .1.1.2.2.2l2.2 1.1c.2.1.2.4 0 .5L60 43.8c-.1 0-.1.1-.2.2l-.4 2.5c-.1.3-.4.4-.5.2z"/><path id="XMLID_3_" class="st4" d="m75.1 36.8 3.9 1.8c.2.1.3.1.5 0l3.7-2.2c.4-.2.8.1.8.5l-.5 4.2c0 .2 0 .3.2.4l3.2 2.8c.3.3.2.8-.2.9l-4.2.8c-.2 0-.3.1-.4.3l-1.7 3.9c-.2.4-.7.4-.9.1l-2.1-3.7c-.1-.1-.2-.2-.4-.3l-4.3-.3c-.4 0-.6-.5-.3-.9l2.9-3.1c.1-.1.2-.3.1-.5l-1-4.2c-.1-.4.3-.7.7-.5z"/></svg>