<svg id="Layer_1" data-name="Layer 1" xmlns="http://www.w3.org/2000/svg" viewBox="0 0 180 170"><defs><style>.cls-1,.cls-2{fill:none}.cls-1{stroke:#4c626e;stroke-miterlimit:10;stroke-width:5px;opacity:.3;isolation:isolate}.cls-2{stroke:#0f7cff;stroke-linecap:round;stroke-linejoin:round;stroke-width:4px}</style></defs><path class="cls-1" d="M148.5 148.4H39.1"/><path class="cls-2" d="M54 148.4V81.2a7.49 7.49 0 0 1 7.5-7.5h64.7a7.49 7.49 0 0 1 7.5 7.5v67.2m-.1-12.5H54m79.6-12.4H54m79.6-12.4H54m79.6-12.5H54m79.6-12.4H54"/><path class="cls-1" d="M44.1 58.8v87.1m99.5-87.1v87.1M39.1 58.8l20.8-9.4a82.08 82.08 0 0 1 67.9 0l20.8 9.4m-62.2 0h14.9"/><path class="cls-2" d="M54 148.4h79.6"/></svg>