<svg version="1.1" id="Calque_1" xmlns="http://www.w3.org/2000/svg" x="0" y="0" viewBox="-387 404 1144.4 273" style="enable-background:new -387 404 1144.4 273" xml:space="preserve"><style>.st0{fill:#fff}.st1{fill:#00d1b2}</style><path id="XMLID_25_" class="st0" d="M-242.2 407.5h120.4v125.8h-120.4z"/><path id="XMLID_24_" class="st1" d="M-242.2 545.2h120.4v128.3h-120.4z"/><path id="XMLID_23_" class="st0" d="M-372.5 407.5h120.4v125.8h-120.4z"/><path id="XMLID_22_" class="st0" d="M-372.5 545.2h120.4v128.3h-120.4z"/><path class="st0" d="M34.1 407.5c21.5 0 37.1 5 46.7 15s14.4 25.1 14.4 45.4v9.4c0 13.5-2.1 24.6-6.4 33.4-4.3 8.8-11 15.3-20.3 19.5 11.3 4.3 19.2 11.2 23.8 20.8 4.6 9.6 6.9 21.5 6.9 35.5v21.4c0 20.3-5.3 35.7-15.8 46.3-10.5 10.6-26.1 15.9-46.9 15.9h-64.9V407.5h62.5zm-21 37.5v69.4h16.1c7.8 0 13.8-2 18.2-6 4.4-4 6.6-11.3 6.6-21.8V472c0-9.5-1.7-16.4-5.1-20.6-3.4-4.3-8.7-6.4-15.9-6.4H13.1zm0 106.9v80.7h23.6c7 0 12.3-1.9 15.9-5.6 3.6-3.8 5.4-10.5 5.4-20.3v-22.9c0-12.3-2.1-20.6-6.2-25.1s-10.9-6.8-20.4-6.8H13.1zm150.4-144.4v202.6c0 9.5 1.9 16.1 5.8 19.9 3.9 3.8 9.1 5.6 15.6 5.6s11.7-1.9 15.6-5.6c3.9-3.8 5.8-10.4 5.8-19.9V407.5h39v200c0 21.3-5.2 37.6-15.6 49-10.4 11.4-25.7 17.1-46 17.1s-35.6-5.7-46-17.1-15.6-27.7-15.6-49v-200h41.4zm110 0h41.3v225.1h67.9v37.5H273.5V407.5z"/><path class="st1" d="m454.7 565.4-12.8 24v80.7h-41.3V407.5h41.3v114.4L496 407.5h41.3l-57.4 117.1 57.4 145.6h-42.4l-40.2-104.8zM556 407.5h41.3v262.7H556V407.5zm59.3 0h127.6V445h-43.2v225.1h-41.3V445h-43.2l.1-37.5z"/></svg>