<svg version="1.1" id="Calque_1" xmlns="http://www.w3.org/2000/svg" x="0" y="0" viewBox="-119 121 160 160" style="enable-background:new -119 121 160 160" xml:space="preserve"><style>.st1{fill:#36a2eb}.st3{fill:#00d1b2}</style><path d="m-39 127 64.1 37v74L-39 275l-64.1-37v-74l64.1-37z" style="fill:#fff"/><path class="st1" d="M25.2 216.2v5.8l-64.1 37-64.1-37 1.3-20.4 62.8 2 1.3 18.2z"/><path class="st1" d="M25.4 197.6c-5 6-11 12-18 16-11 4-25 5-33-7-8-11-16-21-30-24-18-4-35 2-47 15 1 8-2 17 0 25 9-16 32-27 48-13 8 8 11 18 21 23 19 9 44 6 59-11v-24z"/><path d="M-103 213.1c7.2-20 10.3-36.1 24.1-36.1 21 0 26 59 44 53s16-38 44-38c5.3 0 10.8 3.3 16.1 8.5V238l-64.1 37-64.1-37v-24.9z" style="fill:#7f00ff;fill-opacity:.8"/><path class="st3" d="M25.2 232.2v5.8l-64.1 37-64.1-37 1.3-20.5 62.8 2 1.3 18.3z"/><path class="st3" d="M25.1 213c-9 16-33 28-47 13-11-11-18-24-34-27-17-3-34 2-47 14v26c6-12 20-19 33-20 7 0 14 4 18 10 8 11 16 21 30 24 18 4 34-4 47-15v-25z"/><path d="m-38.9 127 64.1 37v74l-64.1 37-64.1-37v-74l64.1-37z" style="fill:none;stroke:#e7e9ed;stroke-width:8"/></svg>