<svg xmlns="http://www.w3.org/2000/svg" viewBox="-119 121 160 160" style="enable-background:new -119 121 160 160" xml:space="preserve"><path d="m-39 127 64.1 37v74L-39 275l-64.1-37v-74l64.1-37z" style="fill:#fff"/><path d="M25.1 201.6c-22 .4-17.4 14.3-32.9 17.9C-23.5 223-26 181-41.8 181c-15.7 0-19.2 40.8-38.9 68.8l-.6.8L-39 275l64.1-37v-36.4z" style="fill:#36a2eb"/><path d="M25.1 200.3C17.7 190.9 12.7 180 2 180c-19 0-14 31-35 31s-23.2-33.3-47-2c-7.6 10-13.7 21.1-18.5 31.7L-39 275l64.1-37v-37.7z" style="fill:#ffce56"/><path d="M-103.1 213.1c7.2-20 10.3-36.1 24.1-36.1 21 0 26 59 44 53s16-38 44-38c5.3 0 10.8 3.3 16.1 8.5V238L-39 275l-64.1-37v-24.9z" style="fill:#fe6184;fill-opacity:.8"/><path d="m-39 127 64.1 37v74L-39 275l-64.1-37v-74l64.1-37z" style="fill:none;stroke:#e7e9ed;stroke-width:8"/></svg>