<svg version="1.1" id="Calque_1" xmlns="http://www.w3.org/2000/svg" x="0" y="0" viewBox="267.8 -224.1 480 480" style="enable-background:new 267.8 -224.1 480 480" xml:space="preserve"><style>.st0{fill:#131b28}.st1{fill:#0868ac}</style><path class="st0" d="m477.8 4.2-2.2 7.7 2.2-7.7zM489 21h-2.4 2.4zm-.6 11.5-14.4.1 14.4-.1zm3-11.5H489h2.4zm-1.8 10.6 2.5-9.6-2.5 9.6zm53.1-44.2-4.7 22c.1 0 4.7-22 4.7-22zm-12 0-3.6 16.4 3.6-16.4zm11.2-1h-10c-.6 0-1.1.4-1.2 1l-3.6 16.4-3.6 16.4c-.1.5-.7 1-1.2 1h-7.1c-7 0-6.2-4.8-4.8-11.5v-.2l.2-.8v-.2l.3-1.7.3-1.8c.1-.6.3-1.4.4-1.9l1.6-7.9 1.6-7.9c.1-.5-.3-1-.8-1h-10.3c-.6 0-1.1.4-1.2 1l-2.2 10.5-2.2 10.5-.2 1c-2.5 11.6-1.9 22.7 12 23H532c.6 0 1.1-.4 1.2-1l4.7-22 4.7-22c.3-.4-.1-.9-.7-.9zm40 35c.6 0 .9.4.8 1l-1 4.8m-1 4.7 1-4.8-1 4.8zm-1.2 1c-2.9 0-11.8.1-18.4.1 8.1 0 18.4-.1 18.4-.1zm-24.4-17.6c0-.5.6-1.4 1.1-1.4h-1.3c-.5 5.6.2 1.4.2 1.4zM562 33h-.2.2z"/><path class="st0" d="M581.9 21.4c.6 0 .9.4.8 1l-1 4.8-.2.8m-14.8 5zm-2.4 0h-.1.1zm-.8 0h-.2.2zm-.7 0h-.2.2zm1.3 0h-.6.6zm2.6 0h-2.4 2.4zm12.8-.1c-2.2 0-7.5.1-12.8.1 5.3 0 10.7-.1 12.8-.1zm1.2-1 .8-4-.8 4zM563.3 33h-.5.5zm-1.5 0h-.7.7zm.7 0h-.5.5zM416.1 15.4l1.6-6.9-1.8 7.9-1.7 8 1.5-7c.1-.6.3-1.4.4-2zm18.6-29.1h-11c-.6 0-1.1.4-1.2 1l-1 4.6-1 4.6c-.1.5.2 1 .8 1h11.1c.6 0 1.1-.4 1.2-1l1-4.6 1-4.6c0-.5-.3-1-.9-1zm-2.4 15.3-3.2 14.9 3.2-14.9zm-31.9 49.5s5.5.1 9.1.1c-2.7-.1-7.1-.1-9.1-.1zm18.8-49.5-1.6 6.9 1.6-6.9z"/><path class="st0" d="M431.5.6h-11.1c-.6 0-1.1.4-1.2 1l-1.6 6.9-1.6 6.9c-.1.5-.3 1.4-.4 2l-1.5 7-1.5 7c-.1.5-.4 1.4-.5 1.9 0 0-2.1 6.2-5.5 6.1h-.4c-1.7 0-3-.1-3-.1-.6 0-1.1.4-1.2 1l-1.1 4.8-1.1 4.8c-.1.5.2 1 .8 1 2 0 6.4.1 9.1.1 8.7 0 13.3-4.8 16.2-18.7l3.4-15.9 3.2-14.9c0-.4-.4-.9-1-.9zm157.4 31.8c-.6 0-.9-.4-.8-1l8.3-39m4.1 39 3.4-16.7-3.4 16.7z"/><path class="st0" d="M588.3 31.9c-.1-.3 0-.9.1-1.5l4-18.5-4.2 19.5c-.1.5.2 1 .8 1h1c-.6 0-1.7-.2-1.7-.5zm11.6.3c-.3.1-1 .2-1.6.2h1c.6 0 1.1-.4 1.2-1l.2-1c-.1.6-.5 1.7-.8 1.8zm2.3-9.1 1.5-7.4-1.5 7.4zM635.1-5l.5 1.9c.1.5-.2 1-.8 1m-34.1 32.6 1.5-7.3-1.5 7.3zm33.9-37.4.5 1.9-.5-1.9zm-30.9 22.7c.1-.5.3-1.4.4-2l1.6-7.4-1.8 8.4-.2 1zm-7.1-24c-.1.5-.3 1.2-.3 1.6l-4 18.5 4.2-19.5.1-.6z"/><path class="st0" d="m635.5-3.1-.4-1.9-.5-1.9-.2-1c-.9-3.5-3.5-5.5-9.3-5.5h-26.3c-.6 0-1.1.4-1.2 1l-.4 1.9-.5 2.3-.1.6-4.2 19.5-4 18.5c-.1.5-.2 1.2-.1 1.5.1.3 1.1.5 1.7.5h8.3c.6 0 1.3-.1 1.6-.2.3-.1.8-1.2.9-1.8l1.5-7.3 1.5-7.3.2-1 1.8-8.4 1.6-7.4c.1-.5.7-1 1.2-1h26.3c.4-.1.8-.5.6-1.1z"/><path class="st0" d="M669.4-20.2H659c-.6 0-1.3.4-1.6.8L638.8 7.8c-.3.5-.7.4-.8-.1l-1.4-6c-.1-.5-.7-1-1.2-1h-12c-.6 0-.9.4-.7 1l5.4 18.8c.2.5.2 1.4 0 2l-2.3 9.1c-.1.5.2 1 .8 1h11.8c.6 0 1.1-.4 1.3-1l2.3-9.1c.1-.5.5-1.3.9-1.8l30.2-40.1c.3-.4.2-.8-.4-.8h-3.3zm-95 23.5c-.1.6-.6 1-1.2 1H558c-.5 0-.8-.4-.7-.8v-.1s0-.1.1-.3c1.4-3.8 4.4-6.4 9.9-6.4 6.3.1 7.5 3.1 7.1 6.6zM570-14.2c-19.5 0-24.1 11.8-26.6 23.7C540.7 21.6 541 33 561.1 33h5.5c5.3 0 10.6-.1 12.8-.1.6 0 1.1-.5 1.2-1l.8-4 .2-.8 1-4.8c.1-.5-.3-1-.8-1h-18.1c-7.2 0-9.3-1.9-8.5-7.5h28.9c.5 0 .9-.3 1.1-.7 0-.1.1-.2.1-.3 4.3-16.1 3.1-27-15.3-27zM478 3.2l-.3 1-2.2 7.7-2.2 7.7c-.2.5-.7 1-1.3 1h-11.6c-8.8 0-10.9-6.9-8.8-17 2.1-10.3 6.3-16.8 15-17.4 11.9-.9 14.3 7.4 11.4 17zm8 16.8s5.5-13.2 6.7-20.9c1.7-10.2-3.4-25.1-23.2-25.1-19.7 0-28.2 14.2-31.5 29.6-3.3 15.5 1 29.1 20.6 29l15.4-.1 14.4-.1c.6 0 1.1-.4 1.3-1l2.5-9.6c.1-.5-.2-1-.8-1h-4.8c-.5 0-.7-.3-.7-.7 0 .1 0 0 .1-.1z"/><path class="st0" d="M583.4 11.2c0 .4-.3.7-.7.7-.4 0-.7-.3-.7-.7 0-.4.3-.7.7-.7.4 0 .7.3.7.7z"/><path class="st1" d="M335.7-6c-5.4 7.8-4.8 18-.6 26.3l.3.6c.1.1.1.3.2.4 0 .1.1.1.1.2.1.1.1.3.2.4.1.2.3.5.4.7.1.1.1.2.2.4s.3.5.5.7c.1.1.1.2.2.3.2.3.4.6.7 1 0 .1.1.1.1.2.2.3.4.5.6.8.1.1.2.2.2.3.2.2.4.5.6.7.1.1.1.2.2.3.3.3.5.6.8.9.3.3.5.6.8.8l.3.3.6.6c.1.1.2.2.3.2.3.3.6.5.9.8.1 0 .1.1.2.1.3.2.5.4.8.7l.3.3c.2.2.4.3.7.5.1.1.2.2.4.3.2.2.5.4.7.5.1.1.2.1.3.2l.1.1c.2.2.5.3.7.5.1.1.2.1.3.2.4.2.7.5 1.1.7.1.1.2.1.3.2.3.2.6.3.8.5.2.1.3.2.5.2l.6.3s.1 0 .1.1c.1 0 .2.1.2.1.3.2.6.3 1 .4.1 0 .1.1.2.1.4.2.7.3 1.1.5.1 0 .2.1.3.1.3.1.7.3 1.1.4h.1c.4.1.8.3 1.2.4.1 0 .2.1.3.1.4.1.8.3 1.2.3 26.3 4.8 33.9-15.8 33.9-15.8-6.4 8.4-17.8 10.6-28.6 8.1l-1.2-.3c-.1 0-.2-.1-.3-.1-.4-.1-.8-.2-1.2-.4-.1 0-.1 0-.2-.1-.3-.1-.7-.2-1-.4-.1 0-.2-.1-.3-.1-.4-.1-.7-.3-1.1-.5-.1 0-.1-.1-.2-.1-.3-.1-.6-.3-.9-.4-.1 0-.2-.1-.3-.1-.2-.1-.5-.2-.7-.4-.2-.1-.3-.2-.5-.3-.3-.2-.6-.3-.9-.5-.1-.1-.2-.1-.3-.2-.4-.2-.8-.5-1.1-.7-.1-.1-.2-.1-.3-.2-.3-.2-.5-.4-.8-.5-.1-.1-.2-.1-.3-.2-.3-.2-.5-.4-.8-.5l-.3-.3c-.2-.2-.5-.4-.7-.5-.1-.1-.2-.2-.3-.2-.3-.2-.6-.5-.8-.7l-.1-.1c-.3-.3-.6-.5-.9-.8-.1-.1-.2-.2-.3-.2l-.6-.6-.3-.3c-.3-.3-.5-.6-.8-.8-.3-.3-.5-.6-.8-.9-.1-.1-.1-.2-.2-.2-.2-.2-.4-.5-.6-.7-.1-.1-.1-.2-.2-.3-.2-.3-.4-.6-.7-.9-6-8.2-8.1-19.4-3.4-28.7"/><path class="st1" d="M352.6-12.6c-3.9 5.7-3.7 13.2-.7 19.2.5 1 1.1 2 1.7 2.9.6.8 1.2 1.8 2 2.5l.9.9.2.2c.3.3.6.6.9.8.3.3.7.6 1.1.9.1.1.2.1.2.2.4.3.7.5 1.1.8.2.1.3.2.5.3.1.1.2.1.2.2.3.2.5.3.8.5 0 0 .1 0 .1.1.2.1.5.3.7.4.1 0 .2.1.3.1.2.1.3.2.5.3h.1c.3.2.7.3 1.1.5.1 0 .2.1.2.1.3.1.6.2.9.4.1 0 .2.1.4.1.3.1.5.2.8.3.1 0 .2.1.4.1.4.1.8.3 1.1.3 20.3 3.4 25-12.3 25-12.3-4.2 6.1-12.4 9-21.1 6.7-.4-.1-.8-.2-1.1-.3-.1 0-.2-.1-.3-.1-.3-.1-.5-.2-.8-.3-.1 0-.2-.1-.4-.1l-.9-.3c-.1 0-.2-.1-.2-.1-.4-.2-.7-.3-1.1-.5-.2-.1-.4-.2-.5-.3-.1-.1-.2-.1-.3-.2-.2-.1-.5-.2-.7-.4-.1 0-.1-.1-.2-.1-.3-.2-.5-.3-.8-.5-.1-.1-.2-.1-.2-.2-.2-.1-.4-.2-.5-.3-.4-.3-.7-.5-1.1-.8-.1-.1-.2-.1-.2-.2-3.8-3-6.8-7.1-8.3-11.8-1.5-4.8-1.2-10.3 1.4-14.7"/><path class="st1" d="M366.7-17.5c-2.3 3.4-2.5 7.6-.9 11.4 1.7 4 5.2 7.1 9.2 8.6.2.1.3.1.5.2.1 0 .1 0 .2.1.2.1.5.2.7.2 11.2 2.2 14.2-5.7 15-6.9-2.7 3.8-7.1 4.8-12.6 3.4-.4-.1-.9-.3-1.3-.4-.5-.2-1.1-.4-1.6-.7-1-.5-1.9-1-2.8-1.7-4.9-3.7-8-10.8-4.8-16.6m124.6 68.8-3.2 7.4h-3.6l.3-6.7-2.6 6.7h-3.5l-.1-7.4.4-1.8h2.4l-.5 7.3 2.7-7.3h3.4l-.2 7.4 2.7-7.4h2.1l-.3 1.8zm5.6 2.1c.3-1.4.2-1.7-.5-1.7h-1.1l-.7 3.4-1.1 3.5H493l1.7-8 .2-1.2h1.9l.2.5s1.1-.6 2.2-.6c2.3 0 2.1 1.7 1.6 4.1h-2.3zm6.8-5.1c-.9 0-1.5-.3-1.3-1.4.2-1.1 1-1.4 1.9-1.4.9 0 1.5.3 1.3 1.4-.3 1.1-1 1.4-1.9 1.4zm-1 10.3h-2.1l.4-3.6.7-3.3-1.4-.3.4-1.9h3.9l-1.9 9.1zm9-7.2-2.6.3-.7 3.5c-.2 1-.2 1.2.7 1.2h1.7l-.4 1.8s-1.6.5-2.2.5c-2.6 0-2.6-1.5-2.2-3.6l.7-3.4-1.4-.3.4-2h1.5l.9-2.3h2l-.5 2.3h2.5l-.4 2zm5.3.1c-1.2 0-1.8.6-2.1 1.7l3.5-.3c.2-.7 0-1.4-1.4-1.4zm-2.4 3.4c-.2 1.1.3 1.5 1.7 1.5h3.6l-.4 1.7s-2.2.6-3.8.6c-4 0-4.1-2.3-3.5-4.7.5-2.4 1.4-4.7 5.3-4.7 3.7 0 3.9 2.3 3 5.6h-5.9zm14.2 3.7h-2.1l.4-3.6 1.5-6.8-1.4-.3.4-2h3.9l-2.7 12.7zm7.4-7.1c-1.2 0-1.8.6-2.1 1.7l3.5-.3c.1-.7 0-1.4-1.4-1.4zm-2.4 3.4c-.2 1.1.3 1.5 1.7 1.5h3.6l-.4 1.7s-2.2.6-3.8.6c-4 0-4.1-2.3-3.5-4.7.5-2.4 1.4-4.7 5.3-4.7 3.7 0 3.9 2.3 3 5.6h-5.9zm15.4-3.3h-3.3c-1.5 0-1.7.5-1.8 1l-.1.4 4.8.4s0 1.5-.2 2.4c-.3 1.5-1.8 2.9-4.5 2.9-1.3 0-3.5-.5-3.5-.5l.4-1.8h3.3c1.5 0 1.7-.4 1.8-.8l.1-.6-4.8-.4s-.2-1.2.1-2.4c.4-1.6 1.8-3 4.6-3 1.3 0 3.5.5 3.5.5l-.4 1.9zm9 0h-3.3c-1.5 0-1.7.5-1.8 1l-.1.4 4.8.4s0 1.5-.2 2.4c-.3 1.5-1.8 2.9-4.5 2.9-1.3 0-3.5-.5-3.5-.5l.4-1.8h3.3c1.5 0 1.7-.4 1.8-.8l.1-.6-4.8-.4s-.2-1.2.1-2.4c.4-1.6 1.8-3 4.6-3 1.3 0 3.5.5 3.5.5l-.4 1.9zm2.8 8.5h-1.8l.1-1.3c-.7 0-1-.5-.8-1.3.2-1.1.9-1.4 1.9-1.4.9 0 1.5.3 1.3 1.4l-.7 2.6zm12-8.4c-1.3 0-1.8.8-2.1 2.3-.3 1.5-.2 2.4 1.1 2.4h1.9l1-4.6h-1.9zm3.1 5.7-.2 1.2h-1.9l-.3-.6s-1.7.7-2.8.7c-2.9 0-3-2.4-2.5-4.7.5-2.4 1.6-4.7 4.5-4.7 1 0 2.4.5 2.4.5l1.1-3.9h2.1L577.7 55zm7.4-5.8c-1.7 0-2.3 1-2.6 2.4-.3 1.5-.2 2.4 1.6 2.4s2.3-1 2.6-2.4c.3-1.4.2-2.4-1.6-2.4zm-1.5 7.2c-3.7 0-4-2.3-3.5-4.7.5-2.4 1.8-4.7 5.5-4.7s4 2.3 3.5 4.7c-.5 2.4-1.8 4.7-5.5 4.7zm21-.2.4-3.5.2-1c.3-1.3.5-2.3-.9-2.3h-1.1c0 .7-.1 1.5-.3 2.3l-1 4.6h-2.1l.4-3.5.2-1c.3-1.3.5-2.3-.9-2.3h-.9l-1.5 6.9h-2.4l2-9.2h1.9l.3.6s1.3-.7 2.3-.7c.8 0 1.4.4 1.6.8.4-.2 1.7-.8 2.6-.8 2.9 0 2.8 2.3 2.3 4.7l-1 4.6-2.1-.2zm9.5-7c-1.7 0-2.3 1-2.6 2.4-.3 1.5-.2 2.4 1.6 2.4s2.3-1 2.6-2.4c.3-1.4.2-2.4-1.6-2.4zm-1.5 7.2c-3.7 0-4-2.3-3.5-4.7.5-2.4 1.8-4.7 5.5-4.7s4 2.3 3.5 4.7c-.5 2.4-1.8 4.7-5.5 4.7zm11.7-5.4c.3-1.4.2-1.7-.5-1.7h-1.1l-.7 3.4-1.1 3.5h-2.1l1.7-8 .2-1.2h1.9l.2.5s1.1-.6 2.2-.6c2.3 0 2.1 1.7 1.6 4.1h-2.3zm8.1-1.9c-1.2 0-1.8.6-2.1 1.7l3.5-.3c.1-.7-.1-1.4-1.4-1.4zm-2.4 3.4c-.2 1.1.3 1.5 1.7 1.5h3.6l-.4 1.7s-2.2.6-3.8.6c-4 0-4.1-2.3-3.5-4.7.5-2.4 1.4-4.7 5.3-4.7 3.7 0 3.9 2.3 3 5.6H630zm7.9 3.9c-.9 0-1.5-.3-1.3-1.4.2-1.1.9-1.4 1.9-1.4.9 0 1.5.3 1.3 1.4-.3 1.1-1 1.4-1.9 1.4z"/></svg>