<svg version="1.1" id="Calque_1" xmlns="http://www.w3.org/2000/svg" x="0" y="0" viewBox="-119 121 160 160" style="enable-background:new -119 121 160 160" xml:space="preserve"><style>.st2{fill:#00d1b2}.st3{fill:#36a2eb}</style><path d="m-39 127 64.1 37v74L-39 275l-64.1-37v-74l64.1-37z" style="fill:#fff"/><path d="M-103 213.1c7.2-20 10.3-36.1 24.1-36.1 21 0 26 59 44 53s16-38 44-38c5.3 0 10.8 3.3 16.1 8.5V238l-64.1 37-64.1-37v-24.9z" style="fill:#c6c6c6;fill-opacity:.8"/><path class="st2" d="M-93.2 179.9c-1.7 0-3.2 1.4-3.2 3.2V244h6.3v-60.9c.1-1.8-1.3-3.2-3.1-3.2z"/><path class="st3" d="M-84.2 202.8c-1.7 0-3.2 1.4-3.2 3.2v43h6.3v-43c.1-1.8-1.3-3.2-3.1-3.2z"/><path class="st2" d="M-75.2 164.8c-1.7 0-3.2 1.4-3.2 3.2v85h6.3v-85.1c.1-1.7-1.3-3.1-3.1-3.1z"/><path class="st3" d="M-66.2 175.8c-1.7 0-3.2 1.4-3.2 3.2v80h6.3v-80.1c.1-1.7-1.3-3.1-3.1-3.1z"/><path class="st2" d="M-57.2 192.8c-1.7 0-3.2 1.4-3.2 3.2v67.3h6.3V196c.1-1.8-1.3-3.2-3.1-3.2z"/><path class="st3" d="M-48.2 160.8c-1.7 0-3.2 1.4-3.2 3.2v105.8h6.3V163.9c.1-1.7-1.3-3.1-3.1-3.1z"/><path class="st2" d="M-39.2 215.2c-1.7 0-3.2 1.4-3.2 3.2V272h6.3v-53.6c.1-1.8-1.3-3.2-3.1-3.2z"/><path class="st3" d="M-30.2 179.9c-1.7 0-3.2 1.4-3.2 3.2v86.6h6.3v-86.6c.1-1.8-1.3-3.2-3.1-3.2z"/><path class="st2" d="M-21.2 201c-1.7 0-3.2 1.4-3.2 3.2v59.1h6.3v-59.1c.1-1.8-1.3-3.2-3.1-3.2z"/><path class="st3" d="M-12.2 179.9c-1.7 0-3.2 1.4-3.2 3.2v74.7H-9v-74.7c0-1.8-1.4-3.2-3.2-3.2z"/><path class="st2" d="M-3.2 192.8c-1.7 0-3.2 1.4-3.2 3.2v58.4H0V196c0-1.8-1.4-3.2-3.2-3.2z"/><path class="st3" d="M5.8 208.9c-1.7 0-3.2 1.4-3.2 3.2V249H9v-37c0-1.7-1.4-3.1-3.2-3.1z"/><path class="st2" d="M14.8 179.9c-1.7 0-3.2 1.4-3.2 3.2V244H18v-60.9c0-1.8-1.4-3.2-3.2-3.2z"/><path d="m-38.9 127 64.1 37v74l-64.1 37-64.1-37v-74l64.1-37z" style="fill:none;stroke:#e7e9ed;stroke-width:8"/></svg>