<svg version="1.1" id="Layer_1" xmlns="http://www.w3.org/2000/svg" x="0" y="0" viewBox="0 0 800 905" style="enable-background:new 0 0 800 905" xml:space="preserve"><style>.st10{fill-rule:evenodd;clip-rule:evenodd}.st2{fill:#fff}.st2,.st7,.st9{fill-rule:evenodd;clip-rule:evenodd}.st7{fill:#6e269e}.st9{fill:#591607}.st10{fill:#ffaa69}.st11{fill:#fa480d}.st30{fill:#38005e}.st37{fill:#ffb57d}.st37,.st48,.st49{fill-rule:evenodd;clip-rule:evenodd}.st49{fill:#d41200}.st53{fill:#fff}.st54{fill-rule:evenodd;clip-rule:evenodd;fill:#ff571f}</style><path style="fill:#a6adff" d="M0 0h800v905H0z"/><circle transform="rotate(-67.5 621.497 68.483)" cx="621.5" cy="68.5" style="opacity:.63;fill-rule:evenodd;clip-rule:evenodd;fill:#6e269e" r="35.5"/><path class="st2" d="M624.7 79.5c3.2 0 5.9-2.7 5.9-5.9v-8.3c0-3.2-2.7-5.9-5.9-5.9h-17.1c-3.2 0-5.9 2.7-5.9 5.9v8.3c0 3.2 2.7 5.9 5.9 5.9h17.1zm11.9-2.3c.7.4 1.4.7 2.1 1.1 1.1.5 2-.6 2-2.5V64c0-1.9-.9-3-2-2.5-.7.3-1.4.7-2.1 1.1-.7.4-1.4.7-2.1 1.1-1.1.5-2 1.9-2 3v6.6c0 1.1.9 2.4 2 2.9.7.3 1.4.6 2.1 1z"/><circle cx="721.5" cy="68.5" r="35.5" style="opacity:.69;fill-rule:evenodd;clip-rule:evenodd;fill:#c92c88"/><path class="st2" d="M710.3 64.3c-1-.2-1.9.4-2.1 1.4-.5 2.8-.2 5.6.8 8.1s2.8 4.7 5.2 6.3c1.8 1.2 3.8 2 5.9 2.2v4.4h-4.4c-.9 0-1.7.8-1.7 1.7 0 .9.8 1.7 1.7 1.7h12.4c.9 0 1.7-.8 1.7-1.7 0-.9-.8-1.7-1.7-1.7h-4.4v-4.4c2.1-.3 4.2-1 6.1-2.3 2.4-1.6 4.1-3.8 5.2-6.3 1-2.5 1.4-5.3.8-8.1-.2-1-1.1-1.6-2.1-1.4-1 .2-1.6 1.1-1.4 2.1.4 2.1.2 4.2-.6 6.1-.8 1.9-2.1 3.5-3.9 4.7-1.8 1.2-3.8 1.8-5.9 1.8-2 0-4.1-.6-5.9-1.8-1.8-1.2-3.1-2.8-3.9-4.7-.8-1.9-1-4-.6-6.1.4-.9-.3-1.8-1.2-2z"/><path class="st2" d="M721.8 75.6c3.7 0 6.7-3 6.7-6.7V54.3a6.7 6.7 0 0 0-13.4 0v14.6c.1 3.7 3.1 6.7 6.7 6.7z"/><defs><filter id="Adobe_OpacityMaskFilter" filterUnits="userSpaceOnUse" x="224.7" y="273.1" width=".1" height=".1"><feColorMatrix values="1 0 0 0 0 0 1 0 0 0 0 0 1 0 0 0 0 0 1 0"/></filter></defs><mask maskUnits="userSpaceOnUse" x="224.7" y="273.1" width=".1" height=".1" id="SVGID_1_"><g style="filter:url(#Adobe_OpacityMaskFilter)"><linearGradient id="SVGID_2_" gradientUnits="userSpaceOnUse" x1="-287.981" y1="705.034" x2="-397.267" y2="704.233" gradientTransform="translate(513.619 -451.238)"><stop offset="0" style="stop-color:#000"/><stop offset="1" style="stop-color:#fff"/></linearGradient><path style="fill:url(#SVGID_2_)" d="M116.2 207h108.6v92.8H116.2z"/></g></mask><path d="M224.8 273.1c0 .1.1 0 0 0z" style="mask:url(#SVGID_1_);fill-rule:evenodd;clip-rule:evenodd;fill:#8c0e57"/><path class="st7" d="M438.1 972.6c6.4 1.2 12.8 2.3 19.2 3.2 110.2 15.9 222.5-11.7 312.9-77.3l6-148.2s8.7 40.8 26.2 122.3c31.9-28.2 59.5-61 81.9-97.2-6.9-32.7-29.4-139.4-48.3-198.8-6.6-20.8-11.8-33.3-20.4-42.8-22-24.2-90.6-43.3-122.5-54.9-56.8 11.6-109.8 11.1-158.9-1.5-28.9 2.5-65.4 3.2-93.1 8.5-17 3.3-32.5 10-48.9 26.3 0 0-43.3 32-129.8 96l-71.7-84c-59.7 46.1-89.5 69.2-89.5 69.2 17.5 23.2 82.1 124.6 114.3 131.1 27 5.5 165.3-50.3 204.9-63.9l8.5 122c-.8.4-1.7.8-2.6 1.2 7.9 125.9 11.8 188.8 11.8 188.8z"/><path d="M184.8 524.6c-18.1 8.3-17 10.7 3.4 7 4.3-8.9 3.1-11.2-3.4-7zm-61.1 66.8c14.4-14.4 11-26.1-10.3-34.9-22.9 33.4-19.5 45 10.3 34.9z" style="fill:#3f0069;fill-rule:evenodd;clip-rule:evenodd"/><path class="st2" d="M213.1 437.8c7 0 13.7-5.7 15-12.7l29.1-157.7c1.3-7-3.4-12.7-10.4-12.7h-67.1c-7 0-13.7 5.7-15 12.7l-29.1 157.7c-1.3 7 3.4 12.7 10.4 12.7h67.1z"/><path class="st9" d="M213.8 430.8c4.2 0 8.2-3.4 9-7.6l29.5-162.1c.8-4.2-2-7.6-6.2-7.6h-72.9c-4.2 0-8.2 3.4-9 7.6l-29.5 162.1c-.8 4.2 2 7.6 6.2 7.6h72.9z"/><path class="st10" d="M97.8 503.4s8.6 29.3 25.9 88c29.1-9.7 52.6-31.5 64.5-59.8-16.1-33.4-24.2-50-24.2-50 7.5-7.8 14.8-15.9 21.7-24.2 0 0 7.2.5 21.5 1.5 0 0 7.2 0 21.6-.1 3.8-1.1 6.3-4.6 6.2-8.5-.1-3.9-2.9-7.3-6.7-8.1 0 0-5.8-.7-17.3-2.1 0 0-9.7-3-29.1-9.1 0 0-5.3-1-15.8-2.9 0 0-6.1-5.8-18.3-17.5l18-6s14.4 2 43.3 5.9c0 0 6.4 1.5 19.1 4.4 3.7-.6 6.7-3.3 7.7-6.9 1-3.6-.1-7.5-2.9-10 0 0-5.7-2.2-17.2-6.5l-49.2-12.9s-8.3.6-25 1.7c0 0 9-4.5 27-13.4 0 0 11.5 3.1 34.6 9.4 0 0 6 2.6 18.1 7.7 4 1.2 8.3-.2 10.8-3.5s2.6-7.9.4-11.3c0 0-6.8-4.1-20.5-12.2 0 0-16.2-6.2-48.7-18.6 0 0 7-1.8 21-5.5 0 0 7.1.4 21.2 1.3 3.3-.4 6.1-2.8 6.9-6.1.9-3.3-.3-6.7-3-8.8 0 0-7.6-1.9-22.9-5.8 0 0-10.8.8-32.5 2.4-3.7.8-7 3.1-8.9 6.4-1.9 3.3-2.4 7.3-1.3 10.9 0 0-1.3 6-4 18 0 0-5.7 5.2-17.2 15.6-9.4 5.8-12.4 18-6.9 27.5-5.7 6.6-7.3 15.9-4.1 24 0 0-5.1 19.6-15.2 58.8-4.7 9.1-4.2 18 1.4 26.3z"/><path class="st11" d="m150.7 352.9 13.6-13 20.2-5.3 20.9 1.3c1 .1 2-.7 2-1.8.1-1-.7-2-1.8-2l-21.2-1.3c-.2 0-.5 0-.7.1l-20.9 5.5c-.3.1-.6.3-.9.5L148 350.2c-.8.7-.8 1.9-.1 2.7.8.7 2 .7 2.8 0zm-8.3 29 26.4-13.1 33.9 9.2c1 .3 2.1-.3 2.3-1.3.3-1-.3-2.1-1.3-2.3l-34.6-9.4c-.5-.1-1-.1-1.5.2l-26.9 13.4c-.9.5-1.3 1.6-.9 2.5.5.8 1.7 1.2 2.6.8zm0 32.9 23.6-8.3 42.9 5.8c1 .1 2-.6 2.1-1.6.1-1-.6-2-1.6-2.1l-43.3-5.9c-.3 0-.6 0-.9.1l-23.9 8.4c-1 .3-1.5 1.4-1.2 2.4.2 1 1.3 1.5 2.3 1.2zm25.1 15.5h.1l13.7 2.5 29 9c1 .3 2.1-.2 2.4-1.2.3-1-.2-2.1-1.2-2.4l-29.1-9.1c-.1 0-.2-.1-.3-.1l-13.8-2.5h-.2l-1.1-.2-.6-.1h-.1l-30.4-5.3c-1-.2-2 .5-2.2 1.5-.2 1 .5 2 1.5 2.2l32.3 5.7zm-19.9 33.4c4.2-1.7 8.1-3.9 11.8-6.5l47.6 3.6c1 .1 2-.7 2-1.8.1-1-.7-2-1.8-2l-48.3-3.6c-.5 0-1 .1-1.3.4-3.6 2.6-7.4 4.8-11.5 6.4-4.1 1.7-8.4 2.8-12.8 3.4-1 .1-1.8 1.1-1.6 2.1.1 1 1.1 1.8 2.1 1.6 4.8-.6 9.4-1.8 13.8-3.6zM118.7 429c.6-.8.5-2-.3-2.7-.8-.6-2-.5-2.7.3-1.6 2.1-2.8 4.5-3.4 7-.6 2.5-.7 5.2-.3 7.8.5 2.6 1.4 5.1 2.9 7.2 1.4 2.2 3.3 4 5.6 5.5.9.6 2.1.3 2.6-.6.6-.9.3-2.1-.6-2.6-1.8-1.1-3.3-2.6-4.4-4.4-1.1-1.7-1.9-3.7-2.3-5.8-.4-2.1-.3-4.2.2-6.2.5-1.9 1.5-3.8 2.7-5.5z"/><path class="st2" d="M172.1 281.9c2.9 0 5.8-2.4 6.3-5.4l2-10.8c.5-2.9-1.4-5.4-4.4-5.4-2.9 0-5.8 2.4-6.3 5.4l-2 10.8c-.5 3 1.5 5.4 4.4 5.4z"/><defs><filter id="Adobe_OpacityMaskFilter_1_" filterUnits="userSpaceOnUse" x="105.3" y="489.1" width="68.4" height="100.1"><feColorMatrix values="1 0 0 0 0 0 1 0 0 0 0 0 1 0 0 0 0 0 1 0"/></filter></defs><mask maskUnits="userSpaceOnUse" x="105.3" y="489.1" width="68.4" height="100.1" id="SVGID_3_"><g style="filter:url(#Adobe_OpacityMaskFilter_1_)"><linearGradient id="SVGID_4_" gradientUnits="userSpaceOnUse" x1="-319.658" y1="883.17" x2="-405.365" y2="843.688" gradientTransform="translate(508.71 -321.216)"><stop offset="0" style="stop-color:#000"/><stop offset="1" style="stop-color:#fff"/></linearGradient><path style="fill:url(#SVGID_4_)" d="M105.3 489.1h68.4v100.1h-68.4z"/></g></mask><path d="M105.3 509.1c16.3 53.4 24.5 80 24.5 80 17.3-7 32.4-18.4 44-33-18.8-16.9-24.5-44-14-67-13.4 15.9-34.1 23.5-54.5 20z" style="mask:url(#SVGID_3_);fill-rule:evenodd;clip-rule:evenodd;fill:#fa480d"/><path class="st11" d="M137.2 504c-1 .4-1.4 1.5-1 2.5.4 1 1.5 1.4 2.5 1 10.3-4.3 18.2-12 22.7-21.4 4.5-9.4 5.7-20.4 2.6-31.1-.3-1-1.3-1.6-2.4-1.3-1 .3-1.6 1.3-1.3 2.4 2.8 9.8 1.7 19.8-2.4 28.4-4.2 8.5-11.3 15.7-20.7 19.5z"/><defs><filter id="Adobe_OpacityMaskFilter_2_" filterUnits="userSpaceOnUse" x="782" y="568.1" width="60.1" height="298.7"><feColorMatrix values="1 0 0 0 0 0 1 0 0 0 0 0 1 0 0 0 0 0 1 0"/></filter></defs><mask maskUnits="userSpaceOnUse" x="782" y="568.1" width="60.1" height="298.7" id="SVGID_5_"><g style="filter:url(#Adobe_OpacityMaskFilter_2_)"><linearGradient id="SVGID_6_" gradientUnits="userSpaceOnUse" x1="89.24" y1="1076.649" x2="-17.254" y2="884.025" gradientTransform="translate(812.742 -196.477)"><stop offset="0" style="stop-color:#000"/><stop offset="1" style="stop-color:#fff"/></linearGradient><path style="fill:url(#SVGID_6_)" d="M782 568.1h60.1v298.7H782z"/></g></mask><path d="M808.9 866.8c11.7-10.7 22.7-22.1 33.2-34.1 0 0-9.5-88.2-28.4-264.6 3.7 56.8-6.9 114.1-31.7 172 0 0 8.9 42.2 26.9 126.7z" style="mask:url(#SVGID_5_);fill-rule:evenodd;clip-rule:evenodd;fill:#460075"/><defs><filter id="Adobe_OpacityMaskFilter_3_" filterUnits="userSpaceOnUse" x="118.3" y="564.3" width="293.2" height="151.6"><feColorMatrix values="1 0 0 0 0 0 1 0 0 0 0 0 1 0 0 0 0 0 1 0"/></filter></defs><mask maskUnits="userSpaceOnUse" x="118.3" y="564.3" width="293.2" height="151.6" id="SVGID_7_"><g style="filter:url(#Adobe_OpacityMaskFilter_3_)"><linearGradient id="SVGID_8_" gradientUnits="userSpaceOnUse" x1="-444.976" y1="1027.771" x2="-162.506" y2="849.369" gradientTransform="translate(514.554 -264.291)"><stop offset="0" style="stop-color:#000"/><stop offset="1" style="stop-color:#fff"/></linearGradient><path style="fill:url(#SVGID_8_)" d="M118.3 564.3h293.2v151.6H118.3z"/></g></mask><path d="M227.5 715.8c38.9-1.9 147.3-46.1 184-60.5-16.6-32.6-28.9-62.9-37.1-91-66.4 21.7-67.5 73.1-83.3 103.2-10.7 20.5-31.8 26.8-49.9 21.5-49.6-14.5-23.2-103.4-122.9-86.9 17.7 28.1 61.7 91.6 88.1 107.5 7 4.1 14.1 6.6 21.1 6.2z" style="mask:url(#SVGID_7_);fill-rule:evenodd;clip-rule:evenodd;fill:#460075"/><defs><filter id="Adobe_OpacityMaskFilter_4_" filterUnits="userSpaceOnUse" x="480" y="487.2" width="314.1" height="493.1"><feColorMatrix values="1 0 0 0 0 0 1 0 0 0 0 0 1 0 0 0 0 0 1 0"/></filter></defs><mask maskUnits="userSpaceOnUse" x="480" y="487.2" width="314.1" height="493.1" id="SVGID_9_"><g style="filter:url(#Adobe_OpacityMaskFilter_4_)"><linearGradient id="SVGID_10_" gradientUnits="userSpaceOnUse" x1="-320.607" y1="937.587" x2="85.093" y2="853.238" gradientTransform="translate(677.076 -145.447)"><stop offset="0" style="stop-color:#000"/><stop offset="1" style="stop-color:#fff"/></linearGradient><path style="fill:url(#SVGID_10_)" d="M480 487.2h314.1v493.1H480z"/></g></mask><path d="M480 978.8c98.3 8.5 196.5-16.9 278.3-72l5.7-173.1c29-63 37-127.6 24.3-193.8 7.1-14.1-24.3-31.6-94.3-52.6-6.5 40.9-34.3 60.9-83.2 59.9-89.3 123.8 124.3 189 22.6 351.3-33.4 53.1-92.4 83-153.4 80.3z" style="mask:url(#SVGID_9_);fill-rule:evenodd;clip-rule:evenodd;fill:#460075"/><defs><filter id="Adobe_OpacityMaskFilter_5_" filterUnits="userSpaceOnUse" x="384.3" y="587.3" width="193.3" height="391.7"><feColorMatrix values="1 0 0 0 0 0 1 0 0 0 0 0 1 0 0 0 0 0 1 0"/></filter></defs><mask maskUnits="userSpaceOnUse" x="384.3" y="587.3" width="193.3" height="391.7" id="SVGID_11_"><g style="filter:url(#Adobe_OpacityMaskFilter_5_)"><linearGradient id="SVGID_12_" gradientUnits="userSpaceOnUse" x1="51.102" y1="1026.736" x2="-220.263" y2="897.119" gradientTransform="translate(634.042 -146.095)"><stop offset="0" style="stop-color:#000"/><stop offset="1" style="stop-color:#fff"/></linearGradient><path style="fill:url(#SVGID_12_)" d="M384.3 587.3h193.3V979H384.3z"/></g></mask><path d="M384.3 593.8c12 28.9 24 51.2 36.1 67 0 0 2 41.1 5.9 123.2 2.7 42.9 6.6 105.7 11.8 188.6 15.9 3 32 5.1 48.2 6.4 78-15 121.5-116.5 66.9-174-15.1-15.9-35.8-27.3-57.1-42.3-13.6-9.6-25.1-20.8-30.5-37.7-7.2-22.6 1-42.2 6.1-61 15-56-42.2-92.2-87.4-70.2z" style="mask:url(#SVGID_11_);fill-rule:evenodd;clip-rule:evenodd;fill:#a862d6"/><defs><filter id="Adobe_OpacityMaskFilter_6_" filterUnits="userSpaceOnUse" x="178.3" y="477.5" width="384.5" height="180.1"><feColorMatrix values="1 0 0 0 0 0 1 0 0 0 0 0 1 0 0 0 0 0 1 0"/></filter></defs><mask maskUnits="userSpaceOnUse" x="178.3" y="477.5" width="384.5" height="180.1" id="SVGID_13_"><g style="filter:url(#Adobe_OpacityMaskFilter_6_)"><linearGradient id="SVGID_14_" gradientUnits="userSpaceOnUse" x1="-58.686" y1="999.735" x2="-198.252" y2="823.513" gradientTransform="translate(541.519 -290.492)"><stop offset="0" style="stop-color:#000"/><stop offset="1" style="stop-color:#fff"/></linearGradient><path style="fill:url(#SVGID_14_)" d="M178.3 477.5h384.5v180.1H178.3z"/></g></mask><path d="M285.6 642.3c3.8-5.7 6.4-12.7 9.1-20.2 11.3-30.6 33-52.4 58.9-60.8 65.5-21.1 86.6 52.3 158.3 19.8 28.6-13 48-40.2 50.9-71.5-9.3-14.4-18.8-25-28.7-32.1-9.5.8-21.3 1.6-35.6 2.4-7.4.4-20.6 1.5-39.5 3.4-10.2 1.1-19.4 2.8-27.6 5.1-14.9 4.4-28 12.5-39.2 24-73.9 54.7-110.9 82-110.9 82-5.1 3.8-10.4 7.7-15.9 11.8-.9.9-2.7.7-5.5-.6-18.7-21.9-41.7-48.9-69.2-81.1-.1 1.3-.6 2.9-1.4 4.8-.8 1.7-1.6 3.4-2.4 5.3-2.1 4.7-4.9 9.8-8.6 15.3 31.6 20.6 36.9 54.7 45.8 78.8 11.6 31.1 44.5 39.3 61.5 13.6z" style="mask:url(#SVGID_13_);fill-rule:evenodd;clip-rule:evenodd;fill:#a862d6"/><path class="st30" d="M238.7 701.4c-1.7 1.3-2 3.7-.7 5.3 1.3 1.7 3.7 2 5.3.7 15.5-11.9 25.6-28.4 29.6-46.3s1.9-37.2-7.1-54.5c-1-1.9-3.3-2.6-5.1-1.6-1.9 1-2.6 3.3-1.6 5.1 8.1 15.7 10.1 33.1 6.5 49.3-3.7 16.3-12.9 31.3-26.9 42z"/><path class="st2" d="M652.4 413.8c.4-.6.8-1.2 1.2-1.7.8-1.5 1.8-2.9 2.9-4.2.1-.3.3-.5.4-.8 1-3 2.5-5.7 4.5-8l.4-.5c.7-1.4 1.6-2.7 2.5-3.9.8-1.6 1.7-3.1 2.8-4.5l.2-.4c.5-1.1 1.2-2.1 1.8-3 1.1-2.1 2.4-3.8 3.8-5.7 2.3-3.1 5.2-5.4 8.4-7-19.8-1.5-46.8 8.3-80.9 29.4l4.2 2.5c.5.3 1.1.7 1.6 1 3.4.7 6.5 2.1 9.2 4.1.7.3 1.3.6 2 .9l3 1.2c1.9.4 3.6 1 5.3 1.8 5.2 1.7 9.7 5.2 12.6 9.7l1 1.5c3.2 4.8 4.5 10.4 3.9 15.8 1.5-.9 3.2-1.7 4.9-2.2-1.2-2.9-1.9-6-1.9-9.3 0-4.1 1-7.9 2.8-11.3.9-2 2-3.8 3.4-5.4zm-102.5 61c-.5.3-1.4-.4-2-.3-4.7.9-9.3 1.8-13.7 3 45 99.5 172.5 94.6 158.9 1.5-3.8-1.2-7.7-2.3-11.9-3.3-5.1 9.3-15 15-25.8 12.3l-.7-.2c-1.4-.3-2.8-.8-4.2-1.4l-1.5-.6c-1-.4-2.1-.8-3.1-1.4-.3-.1-.6-.3-.9-.4-9.1-4.4-14.4-14-13.4-24-8.3 5-18.5 4.4-26-.9l-.5-.3c-1.1-.4-2.2-.8-3.3-1.3l-1-.5c-.3 6.1-3 11.7-7.1 15.7-1.2 1.2-2.5 2.3-4 3.3l-.3.2c-.6.5-1.2 1-1.9 1.5-1.4 1.2-2.8 2.2-4.4 3-1.6 1-3.4 1.8-5.2 2.3l-.5.2c-2.7.9-5.4 1.3-8.1 1.2h-.2c-8 0-14.9-3.3-19.2-9.6zm9.7-36.3c-1.6-.7-3.2-1.5-4.6-2.5l-.3 1.8c.6.7 1.2 1.5 1.8 2.3 1-.5 2-1.1 3.1-1.6z"/><path class="st10" d="m566.2 440.6-4.7 31.7-13.7 2.2c37.1 85.7 146.7 81.3 133.2 1.2-6.5-2.5-9.8-3.7-9.8-3.7-2-27.1 1.6-54.3 10.5-79.9-22.5-9-61 7.2-115.5 48.5z"/><defs><filter id="Adobe_OpacityMaskFilter_7_" filterUnits="userSpaceOnUse" x="547.9" y="415.3" width="113.3" height="115.2"><feColorMatrix values="1 0 0 0 0 0 1 0 0 0 0 0 1 0 0 0 0 0 1 0"/></filter></defs><mask maskUnits="userSpaceOnUse" x="547.9" y="415.3" width="113.3" height="115.2" id="SVGID_15_"><g style="filter:url(#Adobe_OpacityMaskFilter_7_)"><linearGradient id="SVGID_16_" gradientUnits="userSpaceOnUse" x1="-163.187" y1="846.352" x2="-69.958" y2="806.225" gradientTransform="translate(707.56 -347.608)"><stop offset="0" style="stop-color:#000"/><stop offset="1" style="stop-color:#fff"/></linearGradient><path style="fill:url(#SVGID_16_)" d="M547.9 415.3h113.3v115.2H547.9z"/></g></mask><path d="M661.1 415.6c-3.4-2.5-35.8 11.1-97.2 40.8 0 0-.8 5.3-2.4 16 0 0-4.6.7-13.7 2.2 13.1 27.8 30.9 46.5 53.5 56 .1-.2 20-38.4 59.8-115z" style="mask:url(#SVGID_15_);fill-rule:evenodd;clip-rule:evenodd;fill:#ff571f"/><defs><filter id="Adobe_OpacityMaskFilter_8_" filterUnits="userSpaceOnUse" x="561.5" y="396.4" width="111.9" height="76.4"><feColorMatrix values="1 0 0 0 0 0 1 0 0 0 0 0 1 0 0 0 0 0 1 0"/></filter></defs><mask maskUnits="userSpaceOnUse" x="561.5" y="396.4" width="111.9" height="76.4" id="SVGID_17_"><g style="filter:url(#Adobe_OpacityMaskFilter_8_)"><linearGradient id="SVGID_18_" gradientUnits="userSpaceOnUse" x1="-177.529" y1="823.034" x2="-61.131" y2="801.647" gradientTransform="translate(713.698 -373.504)"><stop offset="0" style="stop-color:#000"/><stop offset="1" style="stop-color:#fff"/></linearGradient><path style="fill:url(#SVGID_18_)" d="M561.5 396.4h111.9v76.4H561.5z"/></g></mask><path d="M673.4 399.8c-8.2-11.8-44.7 7.1-109.5 56.6 0 0-.8 5.3-2.4 16 51 4.3 88.3-19.9 111.9-72.6z" style="mask:url(#SVGID_17_);fill-rule:evenodd;clip-rule:evenodd;fill:#d41200"/><path class="st37" d="M538.9 428.9c0 7 1.9 12.7 5.7 17 7.8 9 21.3 11.5 35.6 10.6 45.7-2.9 76.4-30.9 100.8-67.5 23.6-33 20.9-78.1-6.4-108.1-27.3-30-71.8-37-107-16.7-17.1 12.8-35 35.3-31.9 57.6.5 3.8 1.3 8.1 1.8 14 .8 8.3-3.8 12.1-8.1 20.2-9.7 18.6 4.2 53 9.5 72.9z"/><defs><filter id="Adobe_OpacityMaskFilter_9_" filterUnits="userSpaceOnUse" x="526.1" y="252.7" width="89.3" height="204.1"><feColorMatrix values="1 0 0 0 0 0 1 0 0 0 0 0 1 0 0 0 0 0 1 0"/></filter></defs><mask maskUnits="userSpaceOnUse" x="526.1" y="252.7" width="89.3" height="204.1" id="SVGID_19_"><g style="filter:url(#Adobe_OpacityMaskFilter_9_)"><linearGradient id="SVGID_20_" gradientUnits="userSpaceOnUse" x1="-76.909" y1="764.316" x2="-203.233" y2="691.562" gradientTransform="translate(697.774 -380.709)"><stop offset="0" style="stop-color:#000"/><stop offset="1" style="stop-color:#fff"/></linearGradient><path style="fill:url(#SVGID_20_)" d="M526.1 252.7h89.3v204.1h-89.3z"/></g></mask><path d="M538.9 428.9c0 7 1.9 12.7 5.7 17 6.8 7.8 18 10.8 30.2 10.8-34-46.4-37.3-111-3.5-161.6 11.8-17.8 27-32 44.1-42.3-16.2-.9-32.8 2.8-47.7 11.4-17.1 12.8-35 35.3-31.9 57.6.5 3.8 1.3 8.1 1.8 14 .8 8.3-3.8 12.1-8.1 20.2-9.8 18.6 4.1 53 9.4 72.9z" style="mask:url(#SVGID_19_);fill-rule:evenodd;clip-rule:evenodd;fill:#ffecd1"/><defs><filter id="Adobe_OpacityMaskFilter_10_" filterUnits="userSpaceOnUse" x="614" y="266.8" width="80.1" height="173.1"><feColorMatrix values="1 0 0 0 0 0 1 0 0 0 0 0 1 0 0 0 0 0 1 0"/></filter></defs><mask maskUnits="userSpaceOnUse" x="614" y="266.8" width="80.1" height="173.1" id="SVGID_21_"><g style="filter:url(#Adobe_OpacityMaskFilter_10_)"><linearGradient id="SVGID_22_" gradientUnits="userSpaceOnUse" x1="-153.497" y1="759.533" x2="-53.035" y2="733.917" gradientTransform="translate(737.26 -388.322)"><stop offset="0" style="stop-color:#000"/><stop offset="1" style="stop-color:#fff"/></linearGradient><path style="fill:url(#SVGID_22_)" d="M614 266.8h80.1v173.1H614z"/></g></mask><path d="M620.8 356c-21.3 32.1 15.8 56.9-1.1 83.8 23.4-13.5 41.9-32.5 55.7-57 19-20.3 24-50 12.6-75.4-11.4-25.4-37-41.4-64.8-40.6 15.4 5.8 26.1 19.9 27.6 36.3 1.2 13.2-2.9 21.9-8.7 29.2-6.6 8.3-15.4 14.7-21.3 23.7z" style="mask:url(#SVGID_21_);fill-rule:evenodd;clip-rule:evenodd;fill:#ff571f"/><defs><filter id="Adobe_OpacityMaskFilter_11_" filterUnits="userSpaceOnUse" x="590.2" y="340.6" width="94.9" height="41"><feColorMatrix values="1 0 0 0 0 0 1 0 0 0 0 0 1 0 0 0 0 0 1 0"/></filter></defs><mask maskUnits="userSpaceOnUse" x="590.2" y="340.6" width="94.9" height="41" id="SVGID_23_"><g style="filter:url(#Adobe_OpacityMaskFilter_11_)"><linearGradient id="SVGID_24_" gradientUnits="userSpaceOnUse" x1="-136.347" y1="776.484" x2="-50.284" y2="774.881" gradientTransform="translate(726.587 -414.47)"><stop offset="0" style="stop-color:#000"/><stop offset="1" style="stop-color:#fff"/></linearGradient><path style="fill:url(#SVGID_24_)" d="M590.2 340.6h94.9v41h-94.9z"/></g></mask><path d="M656.8 364.2c14.1 1.9 21.2 2.9 21.2 2.9 15.8-16 5.4-24.8-31.1-26.4-.6 13.2-9 24.7-21.3 29.3-12.4 4.6-26.2 1.3-35.2-8.4 6.6 11.9 18.9 19.5 32.5 20.1 13.5.4 26.4-6.2 33.9-17.5z" style="mask:url(#SVGID_23_);fill-rule:evenodd;clip-rule:evenodd;fill:#d41200"/><path class="st9" d="M610.7 209.2c-1-4.7-4.6-7.7-9.5-8.9-32.7-8.5-64.1 36.8-33.5 64 37.6-10.8 77.8 4.8 98.3 38.1-13.3 22.5 21.9 32.2 6 67.2 10.1-12.4 20.9-21.5 38.3-20.2 18.6-31.2 15.6-70.6-7.3-98.7-22.9-28.1-61-38.9-95.2-27 2.9-6 3.7-10.8 2.9-14.5z"/><path d="M593.7 306.3c6.8-2 13.8-2 20.4-.3 6.6 1.7 12.8 5.1 17.7 10.1 1 1 2.6 1 3.6 0s1-2.6 0-3.6c-5.7-5.6-12.6-9.5-20.1-11.4-7.5-1.9-15.4-1.8-23.1.4-1.4.4-2.1 1.8-1.7 3.2.4 1.2 1.9 2 3.2 1.6zm-61.6 3.1c3.8-2.9 8.1-4.8 12.6-5.7 4.5-.9 9.3-.8 13.8.4 1.4.4 2.8-.5 3.1-1.8.4-1.4-.5-2.8-1.8-3.1-5.3-1.4-10.8-1.5-16.1-.5-5.3 1-10.3 3.3-14.7 6.6-1.1.8-1.3 2.5-.5 3.6.9 1.1 2.5 1.4 3.6.5z" style="fill:#591607"/><circle class="st48" cx="608.8" cy="336.3" r="4"/><path class="st48" d="M550.8 334.4c0-2.2-1.8-3.9-3.9-3.9-2.2 0-3.9 1.8-3.9 3.9 0 2.2 1.8 3.9 3.9 3.9 2.1 0 3.9-1.8 3.9-3.9z"/><path class="st2" d="M538 324.5c0-3.2-2.6-5.8-5.8-5.8-3.2 0-5.8 2.6-5.8 5.8 0 3.2 2.6 5.8 5.8 5.8 3.3-.1 5.8-2.7 5.8-5.8zm64.9 5.3c0-3.2-2.6-5.8-5.8-5.8-3.2 0-5.8 2.6-5.8 5.8 0 3.2 2.6 5.8 5.8 5.8 3.2-.1 5.8-2.7 5.8-5.8z"/><path class="st49" d="M569.7 401.9c9.5-.6 18.7-4.6 25.7-12 1-1 .9-2.6-.1-3.6s-2.6-.9-3.6.1c-6.1 6.4-14.1 9.9-22.3 10.4-8.2.5-16.6-2-23.4-7.7-1.1-.9-2.7-.8-3.6.3-.9 1.1-.8 2.7.3 3.6 7.9 6.5 17.6 9.4 27 8.9zm12.1 6.1c.4-.5.4-1.2 0-1.6-.5-.4-1.2-.4-1.6 0-2.7 2.9-6.4 4.5-10.1 4.7-3.7.2-7.5-.9-10.6-3.5-.5-.4-1.2-.3-1.6.1-.4.5-.3 1.2.1 1.6 3.5 2.9 7.9 4.2 12.2 4 4.3-.1 8.5-1.9 11.6-5.3z"/><defs><filter id="Adobe_OpacityMaskFilter_12_" filterUnits="userSpaceOnUse" x="660.2" y="238.9" width="62.3" height="130.7"><feColorMatrix values="1 0 0 0 0 0 1 0 0 0 0 0 1 0 0 0 0 0 1 0"/></filter></defs><mask maskUnits="userSpaceOnUse" x="660.2" y="238.9" width="62.3" height="130.7" id="SVGID_25_"><g style="filter:url(#Adobe_OpacityMaskFilter_12_)"><linearGradient id="SVGID_26_" gradientUnits="userSpaceOnUse" x1="-135.629" y1="680.22" x2="-40.841" y2="740.6" gradientTransform="translate(758.015 -419.9)"><stop offset="0" style="stop-color:#000"/><stop offset="1" style="stop-color:#fff"/></linearGradient><path style="fill:url(#SVGID_26_)" d="M660.2 238.9h62.3v130.7h-62.3z"/></g></mask><path d="M660.2 294.1c2.1 2.6 4 5.4 5.8 8.3-13.3 22.5 21.9 32.2 6 67.2 10.1-12.4 20.9-21.5 38.3-20.2 18.6-31.2 15.6-70.6-7.3-98.7-3.5-4.3-7.4-8.3-11.6-11.8 2 7.2 2.2 15 .2 22.7-4.1 16.2-16.4 28.2-31.4 32.5z" style="mask:url(#SVGID_25_);fill-rule:evenodd;clip-rule:evenodd;fill:#300200"/><path class="st53" d="M592.5 364c5.9 5.9 14.1 9.6 23.1 9.6 9 0 17.2-3.7 23.1-9.6 5.7-5.7 9.3-13.5 9.5-22.2l54.7 8.1 17.6 10.9c.9.6 2.1.3 2.6-.6.6-.9.3-2.1-.6-2.6l-17.9-11.1c-.2-.2-.5-.3-.8-.3l-55.8-8.3c-.7-7.8-4.2-14.8-9.4-20.1-5.9-5.9-14.1-9.6-23.1-9.6-9 0-17.2 3.7-23.1 9.6-2.2 2.2-4.1 4.7-5.6 7.5-.7-.7-1.5-1.3-2.4-1.8-1.8-1.1-3.8-1.9-6-2.1-2.1-.3-4.3 0-6.3.6-1 .3-2.1.8-3 1.4-1.5-3.6-3.6-6.8-6.3-9.5-5.4-5.7-12.9-9.1-21.2-9.1s-15.7 3.5-21.2 9.1c-5.4 5.6-8.7 13.4-8.7 22s3.3 16.3 8.7 22c5.4 5.7 12.9 9.1 21.2 9.1s15.7-3.5 21.2-9.1c5.4-5.6 8.7-13.4 8.7-22 0-3-.4-5.9-1.2-8.7.9-.6 1.9-1.1 2.9-1.5 1.5-.5 3.1-.6 4.7-.5 1.6.2 3.1.7 4.4 1.6 1 .6 1.9 1.4 2.6 2.3-1.4 3.7-2.2 7.6-2.2 11.8.2 9.1 3.9 17.2 9.8 23.1zm-32.3-8.8c-4.7 4.9-11.2 8-18.4 8-7.2 0-13.7-3-18.4-8-4.7-4.9-7.7-11.8-7.7-19.3s2.9-14.4 7.7-19.3c4.7-4.9 11.2-8 18.4-8 7.2 0 13.7 3 18.4 8 4.7 4.9 7.7 11.8 7.7 19.3s-3 14.4-7.7 19.3zm35-34.6c5.2-5.2 12.4-8.4 20.4-8.4 8 0 15.1 3.2 20.4 8.4 5.2 5.2 8.4 12.4 8.4 20.4 0 8-3.2 15.1-8.4 20.4-5.2 5.2-12.4 8.4-20.4 8.4-8 0-15.2-3.2-20.4-8.4-5.2-5.2-8.4-12.4-8.4-20.4 0-8 3.2-15.2 8.4-20.4z"/><path class="st54" d="M576.3 328.8c-9.3 4.5-55.7 49-10.8 45.5 2.4-2.5 6-3.5 9.4-2.7 3.2 1.3 6.8.3 9-2.3 2.2-2.6 2.5-6.3.7-9.3-1.8-2.9-5.2-4.4-8.6-3.6 2.6-14.6 3.8-21.8 3.8-21.8.6-5.4-.6-7.3-3.5-5.8z"/><path class="st37" d="M709.3 383.8c9.4-11.7 9.8-27 1-34.1-8.8-7.1-23.6-3.3-33 8.4-9.4 11.7-9.8 27-1 34.1 8.9 7.1 23.6 3.3 33-8.4z"/><path class="st54" d="M705.5 382c5.7-7.1 5.9-16.2.6-20.5-5.3-4.3-14.2-2-19.9 5.1-5.7 7.1-5.9 16.2-.6 20.5 5.3 4.2 14.2 1.9 19.9-5.1z"/><path class="st49" d="M697.4 373.4c2.9-3.7 3.1-8.5.3-10.7-2.8-2.2-7.4-1-10.4 2.7-2.9 3.7-3.1 8.5-.3 10.7 2.8 2.2 7.4 1 10.4-2.7z"/><defs><filter id="Adobe_OpacityMaskFilter_13_" filterUnits="userSpaceOnUse" x="555.2" y="199.3" width="53.5" height="65"><feColorMatrix values="1 0 0 0 0 0 1 0 0 0 0 0 1 0 0 0 0 0 1 0"/></filter></defs><mask maskUnits="userSpaceOnUse" x="555.2" y="199.3" width="53.5" height="65" id="SVGID_27_"><g style="filter:url(#Adobe_OpacityMaskFilter_13_)"><linearGradient id="SVGID_28_" gradientUnits="userSpaceOnUse" x1="-80.382" y1="753.287" x2="-155.517" y2="669.116" gradientTransform="translate(710.86 -467.212)"><stop offset="0" style="stop-color:#000"/><stop offset="1" style="stop-color:#fff"/></linearGradient><path style="fill:url(#SVGID_28_)" d="M555.2 199.3h53.5v65h-53.5z"/></g></mask><path d="M608.8 204.9c-1.7-2.3-4.4-3.8-7.6-4.6-32.7-8.5-64.1 36.8-33.5 64 7.3-2.1 14.7-3.2 22-3.3-3.2-7.8-4.2-16.5-2.5-25.4 2.4-13.5 10.6-24.3 21.6-30.7z" style="mask:url(#SVGID_27_);fill-rule:evenodd;clip-rule:evenodd;fill:#ab410c"/><path class="st53" d="M420.6 666.1c.1 1.7 0 3.4-.3 5.1l20.8 22.2c2.2 2.3 5.9 2.5 8.2.4l.1-.1 54.1-50.9c1.2-1.1 1.8-2.6 1.9-4.1 0-1.5-.5-3.1-1.6-4.2L453 580.2c-2.2-2.4-6-2.5-8.4-.3l-48.1 45.2c1 .8 1.8 1.6 2.7 2.6l48-45.1c.9-.8 2.3-.8 3.2.1l50.9 54.1c.4.4.6 1 .6 1.6 0 .6-.3 1.1-.7 1.6L447 690.9c-.9.9-2.3.8-3.2-.1l-23.2-24.7z"/><path class="st53" d="M502 638.4c-.1 1.5.5 3.1 1.6 4.2l50.9 54.1c1.1 1.2 2.6 1.8 4.1 1.9 1.5 0 2.9-.4 4.1-1.5l.1-.1 54.1-50.9c1.2-1.1 1.8-2.6 1.9-4.1 0-1.5-.5-3.1-1.6-4.2l-50.9-54.1c-1.1-1.2-2.6-1.8-4.1-1.9-1.5 0-3.1.5-4.2 1.6l-54.1 50.9c-1.2 1.1-1.8 2.6-1.9 4.1zm4.4-1.4 54.1-50.9c.4-.4 1-.6 1.6-.6.6 0 1.1.3 1.6.7l50.9 54.1c.4.4.6 1 .6 1.6 0 .6-.3 1.1-.7 1.6l-54.1 50.9-.1.1c-.4.4-1 .5-1.5.5-.6 0-1.1-.2-1.6-.7l-50.9-54.1c-.4-.4-.6-1-.6-1.6 0-.6.3-1.2.7-1.6zm222.3 8.4c0 1.5.5 3.1 1.6 4.2l50.9 54.1c2.2 2.4 6 2.5 8.4.3l14.6-13.8v-1.1c0-1.5.2-3 .5-4.5L787 701.2c-.9.8-2.3.8-3.2-.1l-50.8-54c-.4-.4-.6-1-.6-1.6 0-.6.3-1.1.7-1.6l54.1-50.9c.9-.8 2.3-.8 3.2.1l23.9 25.4v-3.3c0-.7 0-1.4.1-2l-21.3-22.7c-2.2-2.4-6-2.5-8.4-.3l-54.1 50.9c-1.1 1.2-1.8 2.7-1.9 4.3z"/><path class="st53" d="m792.9 590.8 21.7 23c.1-.2.1-.5.2-.7l-21.6-23c-2.4-2.3-6.2-2.3-8.6-.1l-53.9 50.7-50.9-54.1c-2.4-2.3-6.2-2.3-8.6-.1l-53.8 50.6-50.8-54.1c-2.4-2.3-6.2-2.3-8.6-.1l-53.9 50.7-51.1-53.9c-2.4-2.3-6.2-2.3-8.6-.1l-48 45.1c.2.1.3.3.5.4l47.9-45.1c1.7-1.6 4.1-2 6.2-1 .8.4 1.4.8 2 1.5l50.5 53.7c-.8.8-1.3 1.8-1.6 2.9-.1-.2-.3-.5-.4-.6l-50.7-53.9-.2-.2c-1-1-2.6-1.1-3.6-.1l-47.9 45c.1.2.3.3.4.5l47.9-45.1c.7-.7 1.9-.7 2.6 0l51 54.2c.3.3.5.8.5 1.2 0 .6-.1 1-.6 1.5l-54.1 50.9c-.7.7-1.8.7-2.5.1l-.2-.2-25-26.5c.1.4.2.8.2 1.1l24.1 25.6c.3.3.6.6 1 .8.9.4 2.1.2 2.8-.5l54.1-50.9c.2-.2.3-.4.4-.6.2 1.1.7 2.2 1.4 3l-53.9 50.7-.1.1c-2.3 2-5.7 1.9-7.8-.3l-21.9-23.2c0 .3 0 .6-.1.9l21.7 23c2.3 2.3 6 2.3 8.5.2l.1-.1 53.9-50.7 50.8 54.2.1-.1c2.3 2.3 6.1 2.3 8.5.2l.1-.1 53.8-50.6 50.8 54.1h.1c2.3 2.3 6 2.3 8.5.2l.1-.1 53.9-50.7 50.9 54.1c1.1 1.1 2.6 1.7 4.1 1.7 1.7.1 3.2-.6 4.5-1.7l13.1-12.4v-.9l-13.6 12.8-.1.1c-1.7 1.5-4 1.8-6 .9-.8-.4-1.4-.8-2-1.5l-50.5-53.7c.8-.8 1.3-1.8 1.6-2.9.1.2.3.4.4.6l50.7 53.9c.3.3.6.6 1 .8.9.4 2.1.2 2.8-.5l16.6-15.6c.1-.4.3-.8.4-1.3L786.6 701c-.6.5-1.4.6-2.1.3-.1-.1-.5-.3-.6-.4L733 646.7c-.2-.2-.3-.4-.4-.6-.1-.2-.1-.5-.1-.7 0-.6.2-.9.6-1.3l54.1-50.9c.6-.5 1.4-.7 2.1-.3.2.1.3.2.5.3l23.5 24.9c0-.3.1-.5.1-.8L790.6 593c-.3-.3-.6-.6-1-.8-.6-.3-1.3-.3-2-.1-.3.1-.6.3-.8.5l-53.9 50.7c-.3.3-.5.5-.7.8-.2-1.1-.7-2.2-1.4-3l53.9-50.7c2.5-1.9 6.1-1.8 8.2.4zm-289 43.9c1.4 1.6 1.7 4 .8 5.9-.3.6-.6 1.1-1.1 1.6-1.8-2.1-1.7-5.4.3-7.5zm58.8 62.2-.1.1c-2.3 2-5.7 1.9-7.8-.3l-.2-.2-50.5-53.7c.8-.8 1.3-1.8 1.6-2.9.1.2.3.4.4.6l50.7 53.9c.3.4.6.6 1 .8.9.4 2.1.2 2.8-.5l54.1-50.9c.1-.1.3-.3.4-.5.2 1.1.7 2.1 1.4 3l-53.8 50.6zm-56-59.7 54.1-50.9c.6-.5 1.4-.7 2.1-.3.2.1.3.2.5.3l50.9 54.2c.4.4.6.9.6 1.5 0 .5-.2 1-.6 1.3l-54.1 50.9c-.5.5-1.4.6-2.1.3-.2-.1-.5-.3-.6-.4l-50.9-54.2c-.2-.2-.3-.4-.4-.6-.1-.2-.1-.5-.1-.7 0-.6.2-1 .6-1.4zm110.1.6c-.8.8-1.3 1.8-1.5 2.8-.1-.1-.2-.3-.3-.4 0 0-46.4-49.4-50.8-54-.3-.3-.6-.6-1-.8-.6-.3-1.3-.3-2-.1-.3.1-.6.3-.8.5l-53.9 50.7c-.3.3-.5.5-.7.8-.2-1.1-.7-2.2-1.4-3l53.9-50.7c2.3-2.1 5.8-2 7.9.2l.2.2 50.4 53.8zm110.8 8.9-54.1 50.9c-.7.7-1.8.7-2.5.1l-.2-.2-50.8-54c-.5-.5-.6-.9-.6-1.6.1-.5.3-.8.6-1.2l54.1-50.9c.2-.2.4-.3.6-.4.7-.3 1.4-.1 2 .4l51 54.2c.3.3.5.7.5 1.2 0 .7-.1 1.1-.6 1.5z"/><path class="st30" d="M394.2 607.9c-7.2-18-11.9-37.1-13.8-56.6-.2-2.1-2-3.6-4.1-3.4-2.1.2-3.6 2-3.4 4.1 2 20.3 6.8 40 14.3 58.7 7.4 18.4 17.3 35.7 29.5 51.4l8.3 119.2c.1 2.1 2 3.7 4 3.5 2.1-.1 3.7-2 3.5-4l-8.4-120.4c-.1-.8-.3-1.5-.8-2.1-12-15.3-21.8-32.4-29.1-50.4zm373.6 256.2c-.1 2.1 1.5 3.9 3.6 3.9 2.1.1 3.9-1.5 3.9-3.6l4.6-113.1c16.1-29 27-60.3 32.6-92.5 5.6-32.5 5.6-65.9-.1-98.9-.4-2.1-2.3-3.5-4.4-3.1-2.1.4-3.5 2.3-3.1 4.4 5.6 32.1 5.5 64.7.1 96.3-5.4 31.7-16.2 62.4-32.1 90.8-.3.5-.5 1.1-.5 1.7l-4.6 114.1z"/><path class="st7" d="M485 367.6v-18.4c0-15.2-12.5-27.7-27.7-27.7h-144c-15.2 0-27.7 12.5-27.7 27.7v18.4c0 15.2 12.5 27.7 27.7 27.7H418l66.7 53.4-23-53.7c13.1-2.1 23.3-13.6 23.3-27.4z"/><path class="st2" d="M361.7 359.2c0-3.4-2.8-6.2-6.2-6.2-3.4 0-6.2 2.8-6.2 6.2 0 3.4 2.8 6.2 6.2 6.2 3.4 0 6.2-2.8 6.2-6.2zm28.2 0c0-3.4-2.8-6.2-6.2-6.2-3.4 0-6.2 2.8-6.2 6.2 0 3.4 2.8 6.2 6.2 6.2 3.5 0 6.2-2.8 6.2-6.2zm27 0c0-3.4-2.8-6.2-6.2-6.2-3.4 0-6.2 2.8-6.2 6.2 0 3.4 2.8 6.2 6.2 6.2 3.5 0 6.2-2.8 6.2-6.2zm-11.9-80c0-3.4-2.8-6.2-6.2-6.2-3.4 0-6.2 2.8-6.2 6.2 0 3.4 2.8 6.2 6.2 6.2 3.4 0 6.2-2.8 6.2-6.2zm38.8 15c0-1.7-1.4-3.1-3.1-3.1-1.7 0-3.1 1.4-3.1 3.1 0 1.7 1.4 3.1 3.1 3.1 1.7 0 3.1-1.4 3.1-3.1zm53.9-13.3c0-1.4-1.2-2.6-2.6-2.6-1.4 0-2.6 1.2-2.6 2.6 0 1.4 1.2 2.6 2.6 2.6 1.4 0 2.6-1.2 2.6-2.6zm-24.2 220.6c0-1.4-1.2-2.6-2.6-2.6-1.4 0-2.6 1.2-2.6 2.6 0 1.4 1.2 2.6 2.6 2.6 1.4 0 2.6-1.2 2.6-2.6zm87 34.3c0-1.7-1.4-3.1-3.1-3.1-1.7 0-3.1 1.4-3.1 3.1 0 1.7 1.4 3.1 3.1 3.1 1.7 0 3.1-1.4 3.1-3.1zM329.8 472c0-3.4-2.8-6.2-6.2-6.2-3.4 0-6.2 2.8-6.2 6.2 0 3.4 2.8 6.2 6.2 6.2 3.4-.1 6.2-2.8 6.2-6.2zm413.3-9.9c0-3.4-2.8-6.2-6.2-6.2-3.4 0-6.2 2.8-6.2 6.2 0 3.4 2.8 6.2 6.2 6.2 3.5 0 6.2-2.8 6.2-6.2zm-8.3 78.3c0-1.7-1.4-3.1-3.1-3.1-1.7 0-3.1 1.4-3.1 3.1 0 1.7 1.4 3.1 3.1 3.1 1.8 0 3.1-1.4 3.1-3.1zm-44.2 230.7c0-1.7-1.4-3.1-3.1-3.1-1.7 0-3.1 1.4-3.1 3.1 0 1.7 1.4 3.1 3.1 3.1 1.7-.1 3.1-1.4 3.1-3.1zm-174.1 5.2c0-1.7-1.4-3.1-3.1-3.1-1.7 0-3.1 1.4-3.1 3.1 0 1.7 1.4 3.1 3.1 3.1 1.7 0 3.1-1.4 3.1-3.1zM196 621.7c0-1.7-1.4-3.1-3.1-3.1-1.7 0-3.1 1.4-3.1 3.1 0 1.7 1.4 3.1 3.1 3.1 1.7 0 3.1-1.4 3.1-3.1zM67.8 484.3c0-3.4-2.8-6.2-6.2-6.2-3.4 0-6.2 2.8-6.2 6.2 0 3.4 2.8 6.2 6.2 6.2 3.4-.1 6.1-2.8 6.2-6.2zm93-394.1c0-3.4-2.8-6.2-6.2-6.2-3.4 0-6.2 2.8-6.2 6.2 0 3.4 2.8 6.2 6.2 6.2 3.5-.1 6.2-2.8 6.2-6.2z"/></svg>