<svg version="1.1" id="Layer_1" xmlns="http://www.w3.org/2000/svg" x="0" y="0" viewBox="0 0 800 600" style="enable-background:new 0 0 800 600" xml:space="preserve"><style>.st5{fill-rule:evenodd;clip-rule:evenodd;fill:#ffa03b}.st7{fill:#8c0e57}.st23,.st24,.st25,.st9{fill-rule:evenodd;clip-rule:evenodd}.st9{fill:#fff}.st23{fill:#ffaa50}.st24{fill:#ec6917}.st25{fill:#ae0300}</style><path style="fill:#a6adff" d="M0 0h800v600H0z"/><path d="M591.1 444.9c-39-28.6-102.2-51.8-145.6-71.3-134.6-6.1-201.9-9.1-201.9-9.1-81.6 17.2-111.9 24.7-133.5 34.2C72.4 415.5 33 449.1-.3 474v126.2H16c76-40.8 114-61.3 114-61.3 6.1 40.9 9.1 61.3 9.1 61.3h361.1s7.4-14.1 22.2-42.2c0 0 25.9 14.1 77.6 42.2h199.8v-32.9s-21.5-38.3-64.4-115c0 0-24.8 1.3-74.4 3.8 0 0 4.7 23.2 14 69.5-29.5-34.5-57.5-61.4-83.9-80.7z" style="fill-rule:evenodd;clip-rule:evenodd;fill:#c92c88"/><defs><filter id="Adobe_OpacityMaskFilter" filterUnits="userSpaceOnUse" x="532" y="478" width="148" height="126.7"><feColorMatrix values="1 0 0 0 0 0 1 0 0 0 0 0 1 0 0 0 0 0 1 0"/></filter></defs><mask maskUnits="userSpaceOnUse" x="532" y="478" width="148" height="126.7" id="SVGID_1_"><g style="filter:url(#Adobe_OpacityMaskFilter)"><linearGradient id="SVGID_2_" gradientUnits="userSpaceOnUse" x1="167.635" y1="993.104" x2="18.508" y2="992.011" gradientTransform="translate(513.619 -451.238)"><stop offset="0" style="stop-color:#000"/><stop offset="1" style="stop-color:#fff"/></linearGradient><path style="fill:url(#SVGID_2_)" d="M532 478h148.2v126.7H532z"/></g></mask><path d="M567.9 478c-24 50.6-35.9 76-35.9 76 61.3 33.8 92 50.7 92 50.7s18.7-12.1 56-36.4c-2.5-1.1-39.8-31.1-112.1-90.3z" style="mask:url(#SVGID_1_);fill-rule:evenodd;clip-rule:evenodd;fill:#8c0e57"/><path class="st5" d="M711.1 231.8c-3.7-.1-7 2.4-7.9 6 0 0-3 22.2-9 66.5 0 0 0-25.7-.1-77.2 0-4.4-3.3-8-7.6-8.4-4.3-.4-8.3 2.6-9.1 6.9l-8.7 78.3s-.4-22-1.3-66.1c-.3-4.6-4.2-8.2-8.8-8.1-4.7.1-8.4 3.9-8.4 8.5 0 0-1.6 22.9-4.7 68.7 0 0-1.6 9.7-4.9 29.1-3.4 11.9-9.5 12.6-13 1.7-5.3-15.1-2.8-24.2-14.7-33.9-7.1-5.8-10.2.5-10.5 8-.6 12.8 2.9 35.7 4.2 49.2-.9 17.6 12.8 39.7 41.1 66.2 0 0 4.5 9.7 13.4 29 9.5 11 23.6 17 38.1 16.3 14.5-.7 27.9-8.2 36.3-20.1-7-20.9-10.5-31.4-10.5-31.4 10.7-18.6 16-46.4 15.9-83.3 0 0 2.1-14.4 6.4-43.3 0 0-2.4-10.8-7.3-32.5-1-3.1-4.2-5-7.4-4.5-3.2.6-5.6 3.4-5.5 6.7 0 0 .6 9.9 1.7 29.6 0 0-4.1 7.7-12.3 23 0 0 .7-26.2 2-78.5-.6-3.6-3.7-6.3-7.4-6.4z"/><path d="M680.3 415.7c1.1.2 2.3-.5 2.5-1.6 2.8-13 .8-26.1-4.9-37.2-5.8-11.1-15.3-20.3-27.5-25.6-1.1-.5-2.3 0-2.8 1.1s0 2.3 1.1 2.8c11.3 4.8 20.1 13.3 25.4 23.6 5.3 10.3 7.2 22.4 4.5 34.4-.1 1.1.6 2.2 1.7 2.5zm11.5-17.8c.3-7.9 2.5-15.4 6.2-22.1 3.7-6.7 9.1-12.5 15.6-16.8 1-.6 1.2-1.9.6-2.9s-1.9-1.2-2.9-.6c-7.1 4.7-12.9 11-17 18.3-4.1 7.2-6.4 15.5-6.7 24 0 1.2.9 2.1 2 2.2 1.2-.1 2.1-1 2.2-2.1z" style="fill:#db5400"/><path class="st7" d="M524.9 560.7c12.1-10.7 21.9-23.4 29.2-37.4 7.3-14 12-29.4 13.8-45.4.2-2-1.2-3.8-3.2-4-2-.2-3.8 1.2-4 3.2-1.7 15.1-6.2 29.6-13.1 42.8-6.9 13.3-16.2 25.3-27.5 35.3-1.5 1.3-1.6 3.6-.3 5.1 1.3 1.6 3.6 1.8 5.1.4zM688 588c2-.4 3.2-2.3 2.8-4.3l-12.1-58.8c-.4-2-2.3-3.2-4.3-2.8-2 .4-3.2 2.3-2.8 4.3l12.1 58.8c.4 1.9 2.3 3.2 4.3 2.8z"/><circle transform="rotate(-67.5 621.497 68.483)" cx="621.5" cy="68.5" style="opacity:.63;fill-rule:evenodd;clip-rule:evenodd;fill:#6e269e" r="35.5"/><path class="st9" d="M624.7 79.5c3.2 0 5.9-2.7 5.9-5.9v-8.3c0-3.2-2.7-5.9-5.9-5.9h-17.1c-3.2 0-5.9 2.7-5.9 5.9v8.3c0 3.2 2.7 5.9 5.9 5.9h17.1zm11.9-2.3c.7.4 1.4.7 2.1 1.1 1.1.5 2-.6 2-2.5V64c0-1.9-.9-3-2-2.5-.7.3-1.4.7-2.1 1.1-.7.4-1.4.7-2.1 1.1-1.1.5-2 1.9-2 3v6.6c0 1.1.9 2.4 2 2.9.7.3 1.4.6 2.1 1z"/><circle cx="721.5" cy="68.5" r="35.5" style="opacity:.69;fill-rule:evenodd;clip-rule:evenodd;fill:#c92c88"/><path class="st9" d="M710.3 64.3c-1-.2-1.9.4-2.1 1.4-.5 2.8-.2 5.6.8 8.1s2.8 4.7 5.2 6.3c1.8 1.2 3.8 2 5.9 2.2v4.4h-4.4c-.9 0-1.7.8-1.7 1.7 0 .9.8 1.7 1.7 1.7h12.4c.9 0 1.7-.8 1.7-1.7 0-.9-.8-1.7-1.7-1.7h-4.4v-4.4c2.1-.3 4.2-1 6.1-2.3 2.4-1.6 4.1-3.8 5.2-6.3 1-2.5 1.4-5.3.8-8.1-.2-1-1.1-1.6-2.1-1.4-1 .2-1.6 1.1-1.4 2.1.4 2.1.2 4.2-.6 6.1-.8 1.9-2.1 3.5-3.9 4.7-1.8 1.2-3.8 1.8-5.9 1.8-2 0-4.1-.6-5.9-1.8-1.8-1.2-3.1-2.8-3.9-4.7-.8-1.9-1-4-.6-6.1.4-.9-.3-1.8-1.2-2z"/><path class="st9" d="M721.8 75.6c3.7 0 6.7-3 6.7-6.7V54.3a6.7 6.7 0 0 0-13.4 0v14.6c.1 3.7 3.1 6.7 6.7 6.7z"/><defs><filter id="Adobe_OpacityMaskFilter_1_" filterUnits="userSpaceOnUse" x="127.7" y="378.3" width="240.1" height="221.9"><feColorMatrix values="1 0 0 0 0 0 1 0 0 0 0 0 1 0 0 0 0 0 1 0"/></filter></defs><mask maskUnits="userSpaceOnUse" x="127.7" y="378.3" width="240.1" height="221.9" id="SVGID_3_"><g style="filter:url(#Adobe_OpacityMaskFilter_1_)"><linearGradient id="SVGID_4_" gradientUnits="userSpaceOnUse" x1="-69.805" y1="853.377" x2="-215.243" y2="1058.216" gradientTransform="translate(380.507 -452.695)"><stop offset="0" style="stop-color:#000"/><stop offset="1" style="stop-color:#fff"/></linearGradient><path style="fill:url(#SVGID_4_)" d="M127.7 378.3h240.1v221.9H127.7z"/></g></mask><path d="M248.6 378.3c-109 18.1-150.9 51.7-98.3 155.1 5 44.5 7.5 66.8 7.5 66.8h210.1c-35.6-8.1-66.4-30.3-85.3-61.5-18.9-31.2-24.3-68.8-14.9-104.1-12.7-37.5-19.1-56.3-19.1-56.3z" style="mask:url(#SVGID_3_);fill-rule:evenodd;clip-rule:evenodd;fill:#8c0e57"/><defs><filter id="Adobe_OpacityMaskFilter_2_" filterUnits="userSpaceOnUse" x="-.3" y="447.1" width="125.7" height="153.1"><feColorMatrix values="1 0 0 0 0 0 1 0 0 0 0 0 1 0 0 0 0 0 1 0"/></filter></defs><mask maskUnits="userSpaceOnUse" x="-.3" y="447.1" width="125.7" height="153.1" id="SVGID_5_"><g style="filter:url(#Adobe_OpacityMaskFilter_2_)"><linearGradient id="SVGID_6_" gradientUnits="userSpaceOnUse" x1="-364.067" y1="937.365" x2="-223.245" y2="999.622" gradientTransform="translate(338.333 -452.695)"><stop offset="0" style="stop-color:#000"/><stop offset="1" style="stop-color:#fff"/></linearGradient><path style="fill:url(#SVGID_6_)" d="M-.3 447.1h125.7v153.1H-.3z"/></g></mask><path d="M106.3 447.1C35.2 513-.3 546-.3 546v54.3c83.8-45.3 125.7-68 125.7-68-11.7-16.9-18-45.3-19.1-85.2z" style="mask:url(#SVGID_5_);fill-rule:evenodd;clip-rule:evenodd;fill:#8c0e57"/><path class="st7" d="M111.2 441.2c-2-.4-3.9.9-4.3 2.9-3.3 16.8-3.1 34 .3 50.5s10.1 32.3 19.8 46.5c1.1 1.7 3.4 2.1 5.1 1 1.7-1.1 2.1-3.4 1-5.1-9.2-13.4-15.4-28.3-18.7-43.8-3.2-15.5-3.4-31.7-.3-47.6.3-2.2-1-4.1-2.9-4.4z"/><path class="st9" d="M392 458.3c31.7-16.8 51.9-49.1 53.5-84.6-5.6-2.8-11.4-4.9-17.2-7.3-2.6-1.1-5.1-1.8-7.6-3.1-20.5 6.8-42.3 10.5-65.1 10.5-30.5 0-60-.2-86-12.2-3 1.3-5.1-6.1-8.1-5-5.8 2.1-13 5.5-17.8 7.8-1.6 34.6 14.8 67.8 43.6 87.7 31 21.6 71.4 23.9 104.7 6.2z"/><path class="st5" d="M348.3 334.6c-23.3-.8-45.3-10.9-61.1-28 0 0-1.7 14.9-5.2 44.6-.4-.3-7.2 1.6-20.5 5.5-3.9 31 9.8 61.6 35.5 79.4 25.7 17.8 59.2 19.7 86.8 5 27.6-14.7 44.8-43.5 44.4-74.8-11.7-6.4-17.5-9.7-17.5-9.7l.3-45.9c-16.8 16.1-39.4 24.7-62.7 23.9z"/><defs><filter id="Adobe_OpacityMaskFilter_3_" filterUnits="userSpaceOnUse" x="298" y="327.4" width="130.4" height="121.6"><feColorMatrix values="1 0 0 0 0 0 1 0 0 0 0 0 1 0 0 0 0 0 1 0"/></filter></defs><mask maskUnits="userSpaceOnUse" x="298" y="327.4" width="130.4" height="121.6" id="SVGID_7_"><g style="filter:url(#Adobe_OpacityMaskFilter_3_)"><linearGradient id="SVGID_8_" gradientUnits="userSpaceOnUse" x1="5.891" y1="946.603" x2="-102.557" y2="870.133" gradientTransform="translate(436.575 -502.487)"><stop offset="0" style="stop-color:#000"/><stop offset="1" style="stop-color:#fff"/></linearGradient><path style="fill:url(#SVGID_8_)" d="M298 327.4h130.4V449H298z"/></g></mask><path d="M298 348.2c43.1 67.2 64.6 100.8 64.6 100.8 38.7-8.5 66.2-43 65.8-82.6-11.7-6.4-17.5-9.7-17.5-9.7.1-19.5.2-29.3.2-29.3-75.4 13.9-113.1 20.8-113.1 20.8z" style="mask:url(#SVGID_7_);fill-rule:evenodd;clip-rule:evenodd;fill:#e65b03"/><defs><filter id="Adobe_OpacityMaskFilter_4_" filterUnits="userSpaceOnUse" x="298" y="328.8" width="116.6" height="66.9"><feColorMatrix values="1 0 0 0 0 0 1 0 0 0 0 0 1 0 0 0 0 0 1 0"/></filter></defs><mask maskUnits="userSpaceOnUse" x="298" y="328.8" width="116.6" height="66.9" id="SVGID_9_"><g style="filter:url(#Adobe_OpacityMaskFilter_4_)"><linearGradient id="SVGID_10_" gradientUnits="userSpaceOnUse" x1="7.811" y1="901.98" x2="-129.761" y2="871.186" gradientTransform="translate(436.575 -520.066)"><stop offset="0" style="stop-color:#000"/><stop offset="1" style="stop-color:#fff"/></linearGradient><path style="fill:url(#SVGID_10_)" d="M298 328.8h116.6v66.9H298z"/></g></mask><path d="M298 348.2c6.2 25.8 28.1 44.8 54.5 47.2 26.4 2.4 51.4-12.3 62.1-36.6-2.5-1.4-3.8-2.1-3.8-2.1.1-18.6.2-28 .2-28-75.3 13-113 19.5-113 19.5z" style="mask:url(#SVGID_9_);fill-rule:evenodd;clip-rule:evenodd;fill:#c70906"/><path class="st23" d="M431.5 303.6c11.2-2.5 21.4-16.5 22.6-31.3 1.2-14.7-6.9-24.6-18.1-22.1-11.2 2.5-21.4 16.5-22.6 31.3-1.3 14.7 6.8 24.6 18.1 22.1z"/><path class="st24" d="M424 297.9c8.1-1.8 15.4-11.9 16.3-22.5.9-10.6-5-17.8-13.1-15.9-8.1 1.8-15.4 11.9-16.3 22.5-.9 10.6 5 17.8 13.1 15.9z"/><path class="st25" d="M422.4 289.7c4.4-1 8.4-6.5 8.9-12.3.5-5.8-2.7-9.7-7.1-8.7-4.4 1-8.4 6.5-8.9 12.3-.5 5.8 2.7 9.7 7.1 8.7z"/><path class="st23" d="M265.9 303.5c11.2 2.5 19.4-7.4 18.1-22.1-1.2-14.7-11.3-28.7-22.6-31.3-11.2-2.5-19.4 7.4-18.1 22.1 1.2 14.8 11.4 28.8 22.6 31.3z"/><path class="st24" d="M273.4 297.9c8.1 1.8 14-5.3 13.1-15.9-.9-10.6-8.2-20.7-16.3-22.5-8.1-1.8-14 5.3-13.1 15.9.9 10.6 8.2 20.7 16.3 22.5z"/><path class="st25" d="M275 289.7c4.4 1 7.6-2.9 7.1-8.7-.5-5.8-4.4-11.3-8.9-12.3-4.4-1-7.6 2.9-7.1 8.7.5 5.8 4.5 11.3 8.9 12.3z"/><path class="st23" d="M307.9 359.2c7.5 16 23.6 26.3 41.2 26.3 17.7 0 33.8-10.2 41.2-26.3 22.8-26.8 33.8-57.4 33.1-91.9 8.9-32.2-3.6-66.4-31.2-85.2-27.6-18.8-64.1-17.9-90.7 2.2-26.6 20.1-37.5 54.9-27 86.6-5.2 30.7 5.9 60.2 33.4 88.3z"/><defs><filter id="Adobe_OpacityMaskFilter_5_" filterUnits="userSpaceOnUse" x="349.2" y="168.6" width="77.1" height="213.1"><feColorMatrix values="1 0 0 0 0 0 1 0 0 0 0 0 1 0 0 0 0 0 1 0"/></filter></defs><mask maskUnits="userSpaceOnUse" x="349.2" y="168.6" width="77.1" height="213.1" id="SVGID_11_"><g style="filter:url(#Adobe_OpacityMaskFilter_5_)"><linearGradient id="SVGID_12_" gradientUnits="userSpaceOnUse" x1="-110.391" y1="824.697" x2="-16.368" y2="772.401" gradientTransform="translate(453.428 -524.652)"><stop offset="0" style="stop-color:#000"/><stop offset="1" style="stop-color:#fff"/></linearGradient><path style="fill:url(#SVGID_12_)" d="M349.2 168.6h77.1v213.1h-77.1z"/></g></mask><path d="M367.3 381.7c10-4.4 18.2-12.2 23-22.4 22.8-26.8 33.8-57.4 33.1-91.9 8.9-32.2-3.6-66.4-31.2-85.2-13-8.9-28.1-13.4-43.1-13.5 39.6 29.3 62.9 78.4 56.8 130.9-3.6 32.1-17.8 60.4-38.6 82.1z" style="mask:url(#SVGID_11_);fill-rule:evenodd;clip-rule:evenodd;fill:#ffdba1"/><defs><filter id="Adobe_OpacityMaskFilter_6_" filterUnits="userSpaceOnUse" x="276.1" y="181.3" width="96.7" height="193.3"><feColorMatrix values="1 0 0 0 0 0 1 0 0 0 0 0 1 0 0 0 0 0 1 0"/></filter></defs><mask maskUnits="userSpaceOnUse" x="276.1" y="181.3" width="96.7" height="193.3" id="SVGID_13_"><g style="filter:url(#Adobe_OpacityMaskFilter_6_)"><linearGradient id="SVGID_14_" gradientUnits="userSpaceOnUse" x1="-32.832" y1="855.333" x2="-146.504" y2="775.888" gradientTransform="translate(429.356 -526.983)"><stop offset="0" style="stop-color:#000"/><stop offset="1" style="stop-color:#fff"/></linearGradient><path style="fill:url(#SVGID_14_)" d="M276.1 181.3h96.7v193.3h-96.7z"/></g></mask><path d="M372.8 193.5c-73.3-30.4-104.9-3.9-94.9 79.6-3.8 30.4 7.4 58.6 33.4 84.6 2.5 6.6 6.8 12.5 12.3 16.9-4.8-8.9 16.6-14 1.6-39.3-13.2-22.2-43-46.7-13.9-85.8 25.5-12.3 46.9-31.8 61.5-56z" style="mask:url(#SVGID_13_);fill-rule:evenodd;clip-rule:evenodd;fill:#ec630e"/><path d="M368.1 235.5c5.8-1.4 11.7-1.4 17.4-.1 5.7 1.3 11 3.9 15.6 7.8 1.2 1 3 .8 4-.4 1-1.2.8-3-.4-4-5.3-4.4-11.4-7.4-17.9-8.9a43.6 43.6 0 0 0-20 .1c-1.5.4-2.5 1.9-2.1 3.4.3 1.5 1.9 2.5 3.4 2.1zm-69.7 7.7c4.6-3.8 9.9-6.4 15.6-7.8 5.7-1.3 11.6-1.3 17.4.1 1.5.4 3.1-.6 3.4-2.1.4-1.5-.6-3.1-2.1-3.4-6.7-1.6-13.5-1.6-20-.1s-12.7 4.5-17.9 8.9c-1.2 1-1.4 2.8-.4 4 1 1.2 2.8 1.4 4 .4z" style="fill:#2e1a04"/><path d="M389 267.5c1.8 0 3.2-1.5 3.2-3.2v-3.6c0-1.8-1.5-3.2-3.2-3.2-1.8 0-3.2 1.5-3.2 3.2v3.6c-.1 1.7 1.4 3.2 3.2 3.2zm-74.8 0c1.8 0 3.2-1.5 3.2-3.2v-3.6c0-1.8-1.5-3.2-3.2-3.2-1.8 0-3.2 1.5-3.2 3.2v3.6c0 1.7 1.5 3.2 3.2 3.2z" style="fill-rule:evenodd;clip-rule:evenodd"/><path class="st9" d="M326.7 252.8c0-3.1-2.5-5.6-5.6-5.6-3.1 0-5.6 2.5-5.6 5.6 0 3.1 2.5 5.6 5.6 5.6 3.1 0 5.6-2.5 5.6-5.6zm76.6 0c0-3.1-2.5-5.6-5.6-5.6-3.1 0-5.6 2.5-5.6 5.6 0 3.1 2.5 5.6 5.6 5.6 3.1 0 5.6-2.5 5.6-5.6z"/><path d="M350.9 329.7c5.1 0 10.1-1 14.7-3 4.6-1.9 8.8-4.8 12.4-8.4 1.1-1.1 1.1-2.9-.1-4-1.1-1.1-2.9-1.1-4 .1-3 3.1-6.6 5.5-10.5 7.2-3.9 1.6-8.2 2.5-12.5 2.5-4.4 0-8.6-.9-12.5-2.5-3.9-1.7-7.5-4.1-10.5-7.2-1.1-1.1-2.9-1.2-4-.1-1.1 1.1-1.1 2.9-.1 4 3.6 3.7 7.8 6.5 12.4 8.5 4.6 1.8 9.6 2.9 14.7 2.9zm0 8.6c2.4 0 4.7-.5 6.8-1.4 2.1-.9 4.1-2.2 5.7-3.9.5-.5.5-1.4 0-1.9s-1.4-.5-1.9 0c-1.4 1.4-3.1 2.6-4.9 3.3-1.8.8-3.8 1.2-5.8 1.2s-4-.4-5.8-1.2c-1.8-.8-3.5-1.9-4.9-3.3-.5-.5-1.3-.5-1.9 0-.5.5-.5 1.3 0 1.9 1.7 1.7 3.6 3 5.7 3.9 2.3.9 4.6 1.4 7 1.4z" style="fill:#ae0300"/><defs><filter id="Adobe_OpacityMaskFilter_7_" filterUnits="userSpaceOnUse" x="274.4" y="258.6" width="52.8" height="40.4"><feColorMatrix values="1 0 0 0 0 0 1 0 0 0 0 0 1 0 0 0 0 0 1 0"/></filter></defs><mask maskUnits="userSpaceOnUse" x="274.4" y="258.6" width="52.8" height="40.4" id="SVGID_15_"><g style="filter:url(#Adobe_OpacityMaskFilter_7_)"><linearGradient id="SVGID_16_" gradientUnits="userSpaceOnUse" x1="-96.432" y1="836.907" x2="-159.114" y2="824.546" gradientTransform="translate(428.816 -551.883)"><stop offset="0" style="stop-color:#000"/><stop offset="1" style="stop-color:#fff"/></linearGradient><path style="fill:url(#SVGID_16_)" d="M274.4 258.6h52.8V299h-52.8z"/></g></mask><path d="M299.9 298.6c10.1 1.8 20.4-1.7 27.3-9.2-8.3 4-18 3.9-26.1-.4-8.2-4.2-13.8-12.1-15.3-21.2-7.6-6.1-11.4-9.2-11.4-9.2s1.2 4.8 3.5 14.5c-.3 2.5-.5 5.1-.6 7.6 4 9.4 12.5 16.1 22.6 17.9z" style="mask:url(#SVGID_15_);fill-rule:evenodd;clip-rule:evenodd;fill:#ae0300"/><path d="M429.4 257c11.7-27.7 14-94.1-19.4-104.7-68.8-94.2-206.4 36.6-139.7 27.7-20.1 26.4-12.1 62.2 4.3 91 2 3.9 5.9 2.1 4.9-1.4-4.4-15.1-1.4-31.4 8.1-44 34.4-.6 67.2-14.4 91.7-38.6 15.3 3.2 28.6 12.8 36.4 26.4 4.4 7.7 7.2 16.2 7.3 24.8.2 9.1-1.3 15.5-1.7 19.8-1.8 16.4 3.4 10.1 8.1-1z" style="fill-rule:evenodd;clip-rule:evenodd;fill:#2e1a04"/><defs><filter id="Adobe_OpacityMaskFilter_8_" filterUnits="userSpaceOnUse" x="252.5" y="118" width="113.2" height="155.1"><feColorMatrix values="1 0 0 0 0 0 1 0 0 0 0 0 1 0 0 0 0 0 1 0"/></filter></defs><mask maskUnits="userSpaceOnUse" x="252.5" y="118" width="113.2" height="155.1" id="SVGID_17_"><g style="filter:url(#Adobe_OpacityMaskFilter_8_)"><linearGradient id="SVGID_18_" gradientUnits="userSpaceOnUse" x1="-73.763" y1="715.732" x2="-139.876" y2="784.336" gradientTransform="translate(421.575 -560.4)"><stop offset="0" style="stop-color:#000"/><stop offset="1" style="stop-color:#fff"/></linearGradient><path style="fill:url(#SVGID_18_)" d="M252.5 118h113.2v155.1H252.5z"/></g></mask><path d="M365.6 120.6c-69-18.2-149.5 66.6-95.4 59.4-20.1 26.4-12.1 62.2 4.3 91 2 3.9 5.9 2.1 4.9-1.4-4.4-15.1-1.4-31.4 8.1-44 3-.1 5.9-.2 8.8-.5-4.4-18.2-3-38 5.6-56.3 12.4-26.6 36.8-43.8 63.7-48.2z" style="mask:url(#SVGID_17_);fill-rule:evenodd;clip-rule:evenodd;fill:#0b0200"/><defs><filter id="Adobe_OpacityMaskFilter_9_" filterUnits="userSpaceOnUse" x="275.3" y="272" width="2" height="1.1"><feColorMatrix values="1 0 0 0 0 0 1 0 0 0 0 0 1 0 0 0 0 0 1 0"/></filter></defs><mask maskUnits="userSpaceOnUse" x="275.3" y="272" width="2" height="1.1" id="SVGID_19_"><g style="filter:url(#Adobe_OpacityMaskFilter_9_)"><linearGradient id="SVGID_20_" gradientUnits="userSpaceOnUse" x1="-70.65" y1="754.212" x2=".626" y2="691.804" gradientTransform="translate(429.082 -560.402)"><stop offset="0" style="stop-color:#000"/><stop offset="1" style="stop-color:#fff"/></linearGradient><path style="fill:url(#SVGID_20_)" d="M275.3 118.3h162v154.8h-162z"/></g></mask><path d="M277.3 273.1c-.7-.4-1.4-.7-2-1.1.6.8 1.3 1.1 2 1.1z" style="mask:url(#SVGID_19_);fill-rule:evenodd;clip-rule:evenodd;fill:#8b6513"/><defs><filter id="Adobe_OpacityMaskFilter_10_" filterUnits="userSpaceOnUse" x="352.4" y="118.3" width="84.8" height="149.7"><feColorMatrix values="1 0 0 0 0 0 1 0 0 0 0 0 1 0 0 0 0 0 1 0"/></filter></defs><mask maskUnits="userSpaceOnUse" x="352.4" y="118.3" width="84.8" height="149.7" id="SVGID_21_"><g style="filter:url(#Adobe_OpacityMaskFilter_10_)"><linearGradient id="SVGID_22_" gradientUnits="userSpaceOnUse" x1="-70.65" y1="754.212" x2=".626" y2="691.804" gradientTransform="translate(429.082 -560.402)"><stop offset="0" style="stop-color:#000"/><stop offset="1" style="stop-color:#fff"/></linearGradient><path style="fill:url(#SVGID_22_)" d="M275.3 118.3h162v154.8h-162z"/></g></mask><path d="M429.4 257c11.7-27.7 14-94.1-19.4-104.7-16.5-22.6-36.9-32.2-57.5-33.9 32.8 13.3 54.7 46.1 53.2 82.5 3.9 3.7 7.2 7.9 10 12.6 4.4 7.7 7.2 16.2 7.3 24.8.2 9.1-1.3 15.5-1.7 19.8-1.8 16.3 3.4 10 8.1-1.1z" style="mask:url(#SVGID_21_);fill-rule:evenodd;clip-rule:evenodd;fill:#8b6513"/><path d="M369.5 285.3c5.1 5.1 12.2 8.3 20 8.3 7.8 0 14.9-3.2 20-8.3 4.8-4.8 7.9-11.4 8.3-18.7l18.8-16.2c.9-.8 1-2.1.2-3-.8-.9-2.1-1-3-.2l-16.3 14.1c-.9-6.2-3.8-11.7-8-16-5.1-5.1-12.2-8.3-20-8.3-7.8 0-14.9 3.2-20 8.3-3.2 3.2-5.6 7.2-7 11.6-.9-.9-1.8-1.6-2.9-2.2-2.5-1.5-5.4-2.4-8.4-2.4s-5.9.9-8.4 2.4c-1.2.7-2.3 1.6-3.2 2.6-1.4-4.6-3.8-8.7-7.1-12-5.1-5.1-12.2-8.3-20-8.3-7.8 0-14.9 3.2-20 8.3-4.8 4.8-7.9 11.2-8.3 18.4l-16.6-14.3c-.9-.8-2.2-.7-3 .2-.8.9-.7 2.2.2 3l19.5 16.9.1.1c.9 6.1 3.8 11.6 8 15.8 5.1 5.1 12.2 8.3 20 8.3 7.8 0 14.9-3.2 20-8.3 5.1-5.1 8.3-12.2 8.3-20 0-.8 0-1.5-.1-2.3h.1c1-2 2.5-3.6 4.4-4.7 1.8-1.1 3.9-1.7 6.2-1.7 2.2 0 4.4.6 6.2 1.7 1.6 1 3 2.4 4 4.1-.1 1-.1 1.9-.1 2.9-.2 7.7 3 14.8 8.1 19.9zm3-37.1c4.4-4.4 10.4-7 17-7s12.7 2.7 17 7.1c4.4 4.4 7 10.4 7 17v.6c-.2 6.4-2.8 12.2-7 16.4-4.4 4.4-10.4 7-17 7s-12.7-2.7-17-7.1c-4.4-4.4-7-10.4-7-17s2.7-12.6 7-17zm-43.2 34.1c-4.4 4.4-10.4 7-17 7s-12.7-2.7-17-7.1c-4.4-4.4-7-10.4-7-17s2.7-12.7 7.1-17c4.4-4.4 10.4-7 17-7s12.7 2.7 17 7.1c4.4 4.4 7 10.4 7 17s-2.7 12.6-7.1 17z" style="fill:#fff"/><path d="M342.8 299.6c1.1 3.5 4.2 6.1 7.8 6.1 3.6 0 6.7-2.5 7.8-6.1 1.2.6 2.7.7 4.2.4 4.6-.9 8.3-5.7 8.3-10.7 0-5-3.7-8.3-8.3-7.3-.5.1-.9.2-1.3.4l-.7-4c-.7-4.1-1.3-8.1-2-12.2-.3-1.7-1.3-3.2-2.6-4.3-1.3-1.1-2.8-1.8-4.5-1.8-1.7 0-3.2.7-4.5 1.8-1.3 1.1-2.3 2.6-2.6 4.3-.7 4.1-1.3 8.1-2 12.2l-.8 4.9c-.9-.6-2-1-3-1.2-4.6-.9-8.3 2.4-8.3 7.3 0 5 3.7 9.8 8.3 10.7 1.6.2 3 .1 4.2-.5z" style="fill-rule:evenodd;clip-rule:evenodd;fill:#e65b03"/></svg>