<svg id="Layer_1" data-name="Layer 1" xmlns="http://www.w3.org/2000/svg" viewBox="0 0 450 450"><defs><clipPath id="clip-path"><path style="fill:none" d="M26.7 79.1h396.7v291.7H26.7z"/></clipPath><style>.cls-14,.cls-3,.cls-9{fill:none}.cls-2{clip-path:url(#clip-path)}.cls-11,.cls-12,.cls-14,.cls-3,.cls-4,.cls-5,.cls-6,.cls-8,.cls-9{stroke:#236d9b;stroke-miterlimit:10}.cls-11,.cls-3,.cls-5,.cls-6,.cls-8{stroke-linecap:round}.cls-12,.cls-4{fill:#00d1b2}.cls-11,.cls-5{fill:#fff}.cls-6{fill:#7ee0cf}.cls-7{fill:#236d9b}.cls-8{fill:#d7fff7}.cls-11,.cls-12,.cls-14{stroke-width:1.6px}.cls-16{fill:#c5edf9}</style></defs><g id="Calque_5" data-name="Calque 5"><g class="cls-2"><path class="cls-3" d="m104.5 195.5-.8 70.7"/><path class="cls-4" d="M60.5 192.5v-35.3s4.6-19.3 21.4-18.1c0 0 15.7.2 19.2 16.5l.7 37.3Z"/><path class="cls-5" d="m76.8 370.9 2.5-39.4H64.5l.5 39.4.2 3.1h11.2l.4-3.1zm20.1 0 2.5-39.4H84.6l.5 39.4.1 3.1h11.3l.4-3.1zm14.6-86s1.8 10-7.6 9.2-5.7-9.2-5.7-9.2Zm-36.8-96.3.8-13.1 12 1.8-.5 12.3-12.3-1z"/><path class="cls-3" d="M69.1 169.8h1.5"/><path class="cls-4" d="M59.9 331.5 57.7 262l46.4 1.5-.4 68H59.9z"/><path class="cls-3" d="M68.6 160.4h-1.9m27.7-3.8a3.23 3.23 0 0 0 2.2 0m-12.3-6s-1.1-3.8-1.6-4.8"/><path class="cls-6" d="m50.1 284.9 4.2-90.8s-.3-5.8 7.1-7.6 40.7 0 40.7 0a8.59 8.59 0 0 1 7 8.3c.4 7.3 4.6 90 4.6 90h-9.5l-.4-18.8-36.6-.1-1 18.9v1Z"/><path class="cls-3" d="M70.6 195.5 67.2 266"/><path class="cls-5" d="M51.7 285s-1.1 8.9 5 8.9c0 0 8.5 1.5 7.8-8Z"/><path class="cls-3" d="m103.7 266.2-1.9-68.8"/><path class="cls-5" d="M68.6 164s-2.1 0-1.9 2.6a3.29 3.29 0 0 0 2.3 3.1c.3 10.4 12 11.7 12 11.7 10.4.7 13.4-11.5 13.4-11.5v-13.3s-9.4-2.9-10.2-6.1c0 0-6.5 10.6-15.6 9.9v3.6h1.9"/><path class="cls-3" d="M78.3 161.7h2.8m7.3 0h2.3M80 174.3a5.63 5.63 0 0 0 5.7.2m-.7-12.4 2 6s.8 2-.4 2.5a3 3 0 0 1-2.3 0"/></g><g class="cls-2"><path class="cls-5" d="M267.1 179.9v16.7H280l-.7-15.9-12.2-.8z"/><path class="cls-4" d="M260.7 179.1s-6.4-8.5-6-17.4 4.8-13.2 4.8-13.2 6.9-7.1 16.3-5.3a15.13 15.13 0 0 1 11.7 10.1s.9 7.6-1.5 10.8-14.5 19.5-25.3 15Z"/><path class="cls-6" d="M296.1 266.2v104.7h-14.6l-6.4-83.4h-4.8l-6.7 84.8-19.1-1.4V266l51.6.2z"/><path class="cls-3" d="M280 287.4h-15.1"/><path class="cls-5" d="M260.6 172s-1.1 14.2 13.7 12.8 13.2-14.6 13.2-14.6l-.3-13.2s.8-7.1-15.2-5.8c0 0-10.3 4.1-11.4 13.4l-.2 1.3a4 4 0 0 0-1.9 3.7c.3 2.4 2.1 2.4 2.1 2.4Z"/><path class="cls-3" d="M277.2 164.2c0 .1 2.7 8.3 2.7 8.3s-.3 1.4-.9 1.6-3-.5-3-.5m-3.1 4.5s3.3 1 5.4 0"/><circle class="cls-7" cx="271.6" cy="164.2" r=".7"/><circle class="cls-7" cx="282.4" cy="164.2" r=".6"/><path class="cls-3" d="M260.3 165.9h2.8m-2.5 6.1h1.4"/><path class="cls-5" d="M247.4 190.7h42.1s9.8 2.2 12.5 3.5 4.1 79.8 4.1 79.8h-71.7Z"/></g><g class="cls-2"><path class="cls-4" d="M135.6 174.5s-4.6 1-6.5-2.6-3.1-13.4-3.1-13.4.3-9.4 7.1-14.1 11.1-3.3 11.1-3.3 11.8.2 13.8.1-1 7.8-1 7.8 2.4 4.2 1.7 6.4-23.1 19.1-23.1 19.1Z"/><path class="cls-5" d="m138.3 176.4-.4 12.4h12.6V177l-12.2-.6zm34.9 108.3s1.5 9.8-5.8 9.5-8.3-8.5-8.3-8.5Z"/><path class="cls-4" d="m120.4 257.7-1.1 117.5h14.5l5.9-96.6 4.1.6 6.1 96h14.4V257.7h-43.9z"/><path class="cls-5" d="m115.4 284.7 3.9-90.5s1.6-8.4 9.7-7.6l35.7-.1s6.9 2.9 6 9.4 4.2 88.7 4.2 88.7H165l-.7-19.2h-31.8l-.8 20.2Z"/><path class="cls-5" d="m136 195.3-3.5 70.2-.9 20.1"/><path class="cls-3" d="m163.4 197 .9 68.5m-20.5 13.7s4.7.7 5.7 0"/><path class="cls-5" d="M117.3 284.8s-1.7 8.9 5.1 9.4c0 0 8.4.4 7.5-8.6Z"/><path class="cls-6" d="m143 191.5 4.3-3.4 3.7 3.9-3.4 4.1-4.6-4.6zm4.6 4.6-3.8 3.3 1.9 30.2 1.9 1.3 1.6-1.7 1.8-29.6-3.4-3.5z"/><path class="cls-5" d="M132.5 172.6s2.3 7.8 12.3 8.9a13.5 13.5 0 0 0 12.4-8.9s1.4-14.8.7-17.3c0 0-1.9-3.9-2.4-4.2s-2.6 2.9-7.5 2.7-9.6 0-10.6.4-4.5 1.9-4.8 4.6a21.12 21.12 0 0 0 0 4.8 3 3 0 0 0-2.2 3c0 2.6 1.3 3.2 1.3 3.2l.7.2Z"/><path class="cls-3" d="M132.5 163.5h1.8m-1.9 6.4 1.5.2m14.1-8.6 2.5 7.4s0 2-1.3 1.9a6.16 6.16 0 0 1-1.5-.2m-4.2 3.6s1.9 1.7 5.6.7"/><circle class="cls-7" cx="143.5" cy="161.5" r="1"/><circle class="cls-7" cx="152.4" cy="161.5" r="1"/><path class="cls-8" d="M142.2 333.9h-39a4.48 4.48 0 0 1-4.5-4.5v-27.6a4.48 4.48 0 0 1 4.5-4.5h39.1a4.48 4.48 0 0 1 4.5 4.5v27.6a4.77 4.77 0 0 1-4.6 4.5Z"/><path class="cls-9" d="M111.4 297.4V293s.1-2 2.7-2 19 .3 19 .3 2.1.4 2 2v4.2"/><path class="cls-4" d="m98.7 303.9 47.9.4v21.6l-47.9-1.1v-20.9z"/><path d="m98.7 306.1 4.3 8.8a3.31 3.31 0 0 0 3.2 2.1c2.5 0 34.7.3 34.7.3s1.3.1 1.9-1.6 3.8-9.5 3.8-9.5v-4.3a4.55 4.55 0 0 0-4.3-4.5c-4.3-.4-40.3.1-40.3.1s-3 .5-3.4 4.3v4.3Z" style="fill:#7ee0cf;stroke:#236d9b;stroke-miterlimit:10"/><path class="cls-8" d="M126.5 322h-7.2a2.43 2.43 0 0 1-2.4-2.4v-3.9a2.43 2.43 0 0 1 2.4-2.4h7.2a2.43 2.43 0 0 1 2.4 2.4v3.9a2.31 2.31 0 0 1-2.4 2.4Z"/><path class="cls-7" d="M123.9 318.7h-1.8a1 1 0 0 1-1-1v-.4a1 1 0 0 1 1-1h1.8a1 1 0 0 1 1 1v.4a.94.94 0 0 1-1 1Z"/></g><g class="cls-2"><path class="cls-4" d="M310.4 155s-.6-6.9.8-8.4-.5-1.8-.5-1.8-1.8-6.4 4.7-7.5 10.9.3 12.6 0 11.8 2.1 15.1 11.3.7 13.9.7 13.9-2.3 7.9-2.2 8.9-3.6 4.3-8.3 4-22.9-20.4-22.9-20.4Z"/><path class="cls-5" d="M293.4 284.7s-1.8 8.5 5.7 9.6 8.3-5.6 8.3-5.6v-3.5Z"/><path class="cls-4" d="m301.9 265.5-.6 111h16.3l5.8-91.3h4.9l6.1 91.3h15.7V267.6l-48.2-2.1z"/><path class="cls-9" d="M317.6 285.2h5.8"/><path class="cls-5" d="M342.4 284.7s-1.4 7.9 5.1 9.5a7.06 7.06 0 0 0 8.6-4.3l.1-5.2Zm-23.9-94.9.3-13h13.1v13h-13.4z"/><path class="cls-5" d="M324.5 180.8s9.3-.4 13-8.5a20.27 20.27 0 0 0 .8-4.3s2-1.2 1.5-3.1a3 3 0 0 0-2.4-3.2l.1-6s-1.4-5.3-6.9-5.3-12-.2-13.4-1-4.1-1.6-4.3-2.3c0 0-2.5 5.4-2.5 7.5v14.7s2 11.3 14.1 11.5Z"/><path class="cls-9" d="m335.6 161.9 1.9-.1m-1.5 6.5 2.3-.2M323.6 158h8.5v3.9s-1 1.7-2.3 1.7h-3.9a3.89 3.89 0 0 1-2-1.9 23.44 23.44 0 0 1-.3-3.7Zm-13.2 0h7.4l.2 2.8s-.8 2.5-2 2.5h-4.5s-1.4-1.2-1.3-1.7a26.38 26.38 0 0 0 .2-3.6Zm13.2 1.6H318m14.2 0 5.1 2.2m-16.5-1.1-1.8 5.7a2.1 2.1 0 0 0-.2 1.9c.3 1.1 2.6 1.2 2.6 1.2m-1.6 4s2.1 1.6 5.9-.2"/><path class="cls-8" d="M301.9 272.1v13.2l-11.1-.7 4.5-90.3s.7-6.8 7.5-7.6 44.3 0 44.3 0 6.3 4.4 7.5 9.6 3.5 88.5 3.5 88.5h-17.6l-1.1-12.8Z"/><path class="cls-9" d="m335.6 201.7 3.9 70.2m-38.9-71.7v71.7l1.3.2"/></g><g class="cls-2"><path class="cls-3" d="m355.8 195.5.8 70.7"/><path class="cls-4" d="M399.8 192.5v-35.3s-4.6-19.3-21.4-18.1c0 0-15.7.2-19.2 16.5l-.7 37.3Z"/><path class="cls-5" d="m383.5 370.9-2.5-39.4h14.8l-.5 39.4-.2 3.1h-11.2l-.4-3.1zm-20.1 0-2.5-39.4h14.8l-.5 39.4-.1 3.1h-11.3l-.4-3.1zm-14.6-86s-1.8 10 7.6 9.2 5.7-9.2 5.7-9.2Zm36.8-96.3-.8-13.1-11.9 1.8.4 12.3 12.3-1z"/><path class="cls-3" d="M391.2 169.8h-1.5"/><path class="cls-6" d="m400.4 331.5 2.2-69.5-46.4 1.5.4 68h43.8z"/><path class="cls-3" d="M391.7 160.4h1.9m-27.7-3.8a3.23 3.23 0 0 1-2.2 0m12.3-6s1.1-3.8 1.6-4.8"/><path class="cls-4" d="m410.2 284.9-4.2-90.8s.3-5.8-7.1-7.6-40.7 0-40.7 0a8.59 8.59 0 0 0-7 8.3c-.4 7.3-4.6 90-4.6 90h9.5l.4-18.8 36.6-.1 1 18.9v1Z"/><path class="cls-3" d="m389.8 195.5 3.3 70.5"/><path class="cls-5" d="M408.6 285s1.1 8.9-5 8.9c0 0-8.5 1.5-7.8-8Z"/><path class="cls-3" d="m356.6 266.2 1.9-68.8"/><path class="cls-5" d="M391.7 164s2.1 0 1.9 2.6a3.29 3.29 0 0 1-2.3 3.1c-.3 10.4-12 11.7-12 11.7-10.4.7-13.4-11.5-13.4-11.5v-13.3s9.4-2.9 10.2-6.1c0 0 6.5 10.6 15.6 9.9v3.6h-1.9"/><path class="cls-3" d="M382 161.7h-2.8m-7.3 0h-2.3m10.7 12.6a5.63 5.63 0 0 1-5.7.2m.7-12.4-2 6s-.8 2 .4 2.5a3.11 3.11 0 0 0 2.3 0"/></g><g class="cls-2"><path class="cls-11" d="M209.2 171.9s6.6-4.2 6.6-15.1h16.9s.8 15.1 5.6 16-29.1-.9-29.1-.9Z"/></g><g class="cls-2"><path class="cls-12" d="M201.2 130.1V107a12.41 12.41 0 0 1 9.3-9.1l.2-4.5s12.2 2.4 15.8 2c0 0 12.5 1 15.6 3.9s5.6 4.4 5.4 11-.3 20.2-.3 20.2Z"/></g><path d="M189.9 205.6v82.3H259v-80.1l17.4 24.7-18.9 44.3 18.9 6 21.9-46.7s1.9-7.2-2-11.7-32.1-45-32.1-45-8.6-9.9-21.9-10-40.9.4-40.9.4-8.3 0-17.6 8.9-32 44.8-32 44.8-5.7 6.7-2.2 14.8 22.3 44.6 22.3 44.6l19-6.4-20.3-43.8Z" style="stroke-width:1.6px;fill:#d7fff7;stroke-linecap:round;stroke:#236d9b;stroke-miterlimit:10" class="cls-2"/><g class="cls-2"><path class="cls-14" d="m193.3 201-3.4 4.6"/></g><g class="cls-2"><path class="cls-14" d="m254.3 201.4 4.7 6.4"/></g><g class="cls-2"><path class="cls-11" d="M187.4 277.6s6.2 18.1 6.2 19.8c0 0 .3 2.8-1.6 3.3s-1.9 0-1.9 0l6 7.7-1.5 4.6s-14.1-11.6-15.5-16.7v-8.6l-3.3-6.2Z"/></g><g class="cls-2"><path class="cls-14" d="m185.5 288.4 2.9 10.7a2.49 2.49 0 0 0 2.6 1.7"/></g><g class="cls-2"><path class="cls-11" d="M259.7 277.6s-6.2 18.1-6.2 19.8c0 0-.3 2.8 1.6 3.3s1.9 0 1.9 0l-6 7.7 1.5 4.6s14.1-11.6 15.5-16.7v-8.6l3.3-6.2Z"/></g><g class="cls-2"><path class="cls-14" d="m261.6 288.4-2.9 10.7a2.49 2.49 0 0 1-2.6 1.7"/></g><g class="cls-2"><path class="cls-12" d="M189.9 280.6v94.3h25.6l5.2-69.2 6.2.5 4.9 68.7h25.3v-92.5l-67.2-1.8z"/></g><g class="cls-2"><path class="cls-14" d="M234.5 306.2h-7.6"/></g><g class="cls-2"><path class="cls-7" d="M211.3 199.8h12.2V212h-12.2z"/></g><g class="cls-2"><path class="cls-7" d="M225 199.8h12.2V212H225z"/></g><g class="cls-2"><path class="cls-7" d="M211.3 213.3h12.2v12.2h-12.2z"/></g><path style="fill:#00d1b2" d="M225 213.3h12.2v12.2H225z" class="cls-2"/><g class="cls-2"><path class="cls-11" d="M204.6 116.9V143s3.6 19 18.9 19.6 19.7-17.4 19.7-17.4l.5-28.7s-2.6-6.8-9.8-7.8H212c.1 0-5.9.4-7.4 8.2Z"/></g><g class="cls-2"><path class="cls-11" d="m243.5 125 3.6.2s2.8 1.7 2.3 2.9l-1.3 9.2s-2.1 4.3-4.9 3.9Z"/></g><g class="cls-2"><path class="cls-11" d="M204.6 125h-3.3s-2.8 1.3-2.5 4.2 1.6 8.7 1.6 8.7 1.3 2.9 4.2 3V125Z"/></g><g class="cls-2"><path class="cls-14" d="M226.9 130.1v14.4s-1.1 2.3-2.7 2c0 0-2.1.1-2.5-1.7l-.2-1.8"/></g><g class="cls-2"><path class="cls-14" d="M218.4 151.9a11.72 11.72 0 0 0 12 0"/></g><g class="cls-2"><path class="cls-14" d="M209.8 127.8h7.9"/></g><g class="cls-2"><path class="cls-14" d="M230.8 127.8h7.7"/></g><g class="cls-2"><circle class="cls-7" cx="214.2" cy="133.9" r="1.8"/></g><g class="cls-2"><circle class="cls-7" cx="234" cy="133.9" r="1.8"/></g><g class="cls-2"><path class="cls-11" d="M211.5 101.6a8.8 8.8 0 0 1-1-3.7"/></g><g class="cls-2"><path class="cls-16" d="m258.2 276.3 1.4-3.2 1 4.1-2.4-.9z"/></g><g class="cls-2"><path class="cls-16" d="m189.3 274.5.7 1.6-1.5.5.8-2.1z"/></g></g></svg>