<svg id="Layer_1" data-name="Layer 1" xmlns="http://www.w3.org/2000/svg" viewBox="0 0 450 450"><defs><style>.cls-1,.cls-11{fill:#fff}.cls-1,.cls-2,.cls-4,.cls-9{stroke:#00b289}.cls-1,.cls-10,.cls-11,.cls-12,.cls-13,.cls-14,.cls-15,.cls-2,.cls-4,.cls-9{stroke-miterlimit:10}.cls-10,.cls-2{fill:#00b289}.cls-11,.cls-12,.cls-13,.cls-9{stroke-linecap:round}.cls-13,.cls-15,.cls-4,.cls-9{fill:none}.cls-6{fill:#b8dff2}.cls-7{fill:#236d9b}.cls-10,.cls-11,.cls-12,.cls-13,.cls-14,.cls-15{stroke:#236d9b}.cls-12{fill:#d7fff7}.cls-14{fill:#7ee0cf}</style></defs><g id="Calque_9" data-name="Calque 9"><path class="cls-1" d="M228.9 110.75h142.6v109.3H228.9z"/><path class="cls-2" d="M226 104.65h148.3v6.1H226zm-.4 115.4h149.1v2.6H225.6z"/><circle cx="266.3" cy="132.95" r="14.5" style="stroke-linecap:round;fill:#c5fff5;stroke-miterlimit:10;stroke:#00b289"/><path class="cls-4" d="M300.3 143.95h50.2v2.6h-50.2z"/><path class="cls-2" d="M303.2 123.95h11v20.1h-11zm16.5-5.5H330v25.5h-10.3z"/><path style="stroke-linecap:round;fill:#00b289;stroke-miterlimit:10;stroke:#00b289" d="M335.2 122.05H346v21.9h-10.8z"/><path class="cls-6" d="M281.7 153.15h-31.4a.47.47 0 0 1-.5-.5v-.3a.47.47 0 0 1 .5-.5h31.4a.47.47 0 0 1 .5.5v.3a.54.54 0 0 1-.5.5Zm68.2 0h-50.3a.47.47 0 0 1-.5-.5v-.3a.47.47 0 0 1 .5-.5h50.3a.47.47 0 0 1 .5.5v.3a.54.54 0 0 1-.5.5Zm0 27.85h-99.7a.47.47 0 0 1-.5-.5v-.3a.47.47 0 0 1 .5-.5h99.7a.47.47 0 0 1 .5.5v.3a.47.47 0 0 1-.5.5Zm0-24.15h-50.3a.47.47 0 0 1-.5-.5v-.3a.47.47 0 0 1 .5-.5h50.3a.47.47 0 0 1 .5.5v.3a.47.47 0 0 1-.5.5Zm0 3.7h-50.3a.47.47 0 0 1-.5-.5v-.3a.47.47 0 0 1 .5-.5h50.3a.47.47 0 0 1 .5.5v.3a.47.47 0 0 1-.5.5Zm0 3.7h-50.3a.47.47 0 0 1-.5-.5v-.3a.47.47 0 0 1 .5-.5h50.3a.47.47 0 0 1 .5.5v.3a.47.47 0 0 1-.5.5Zm0 3.8h-50.3a.47.47 0 0 1-.5-.5v-.3a.47.47 0 0 1 .5-.5h50.3a.47.47 0 0 1 .5.5v.3a.54.54 0 0 1-.5.5Zm-19.8 3.7h-30.4a.47.47 0 0 1-.5-.5V171a.47.47 0 0 1 .5-.5h30.4a.47.47 0 0 1 .5.5v.3a.54.54 0 0 1-.5.45Zm-48.4-14.9h-31.4a.47.47 0 0 1-.5-.5v-.3a.47.47 0 0 1 .5-.5h31.4a.47.47 0 0 1 .5.5v.3a.47.47 0 0 1-.5.5Zm0 3.7h-31.4a.47.47 0 0 1-.5-.5v-.3a.47.47 0 0 1 .5-.5h31.4a.47.47 0 0 1 .5.5v.3a.47.47 0 0 1-.5.5Zm36.1 24.9h-67.5a.47.47 0 0 1-.5-.5v-.3a.47.47 0 0 1 .5-.5h67.5a.47.47 0 0 1 .5.5v.3a.47.47 0 0 1-.5.5Zm-51.2-21.2h-16.3a.47.47 0 0 1-.5-.5v-.3a.47.47 0 0 1 .5-.5h16.3a.47.47 0 0 1 .5.5v.3a.47.47 0 0 1-.5.5Zm-15.8 26.3h11.3v5.6h-11.3zm0 11.3h11.3v5.3h-11.3zm17.1-11.3h11.3v5.6h-11.3zm0 11.3h11.3v5.3h-11.3z"/><path class="cls-7" d="M284.9 190.55h11.3v5.6h-11.3zm0 11.3h11.3v5.3h-11.3z"/><path class="cls-6" d="M301.9 190.55h11.3v5.6h-11.3zm0 11.3h11.3v5.3h-11.3zm17.1-11.3h11.3v5.6H319zm0 11.3h11.3v5.3H319zm17-11.3h11.3v5.6H336zm0 11.3h11.3v5.3H336z"/><circle class="cls-4" cx="116" cy="129.95" r="17.4"/><path class="cls-4" d="M118.4 130a2.4 2.4 0 1 1-2.4-2.4 2 2 0 0 1 1.3.4 2.31 2.31 0 0 1 1.1 2Z"/><path style="stroke:#00d1b2;fill:none;stroke-linecap:round;stroke-miterlimit:10" d="m117.3 127.95 2.7-2.5"/><path class="cls-9" d="m117.3 131.95 4.7 4.4"/><circle class="cls-1" cx="266.3" cy="132.95" r="9"/><path class="cls-10" d="M100 202.75s-4.4 2.5-5.7 1.6-2.1-5.1-2.3-6.7-2-5.3-1.9-7.8 0-12.1 12.1-15c0 0 5.8-1.2 15.9-.6 0 0 1.5.6 0 4.9 0 0 2.2 3.3 1.8 6.3a90.58 90.58 0 0 1-2.8 10.3l-9.7 2.4Z"/><path class="cls-11" d="m100 214.25 1.2-9.9 8.7 1.7 1 .7-.5 8.4-10.4-.9z"/><path class="cls-12" d="M113.9 213.15s4.9-2.1 8.3-1.5 9.2 6.9 9.2 6.9l6.8 10.1-3.9 15.8-26.2-6.1Z"/><path class="cls-10" d="M87.4 274.75s-2.4 11.5 10.7 18.9a38.53 38.53 0 0 0 6.5 1h35.6l16.8 44.7h20.9l-27.2-59.6-25-1.7Zm82.8-153.7 12.7 7.3 16.7-6.7s-.1-8 0-12.2-5.1-5.8-6.4-6.3-10.5-1.6-10.5-1.6c-.9-1.2-6.4-1.3-6.4-1.3v3.2c-4.7 1.2-5.9 4.6-5.9 4.6l-.3 13.5"/><path class="cls-11" d="m174.9 152.05 5.7-12.5h9.5l3.6 14.6-14.9 3.8-3.9-5.9z"/><path class="cls-10" d="m357.1 216 .4-30.6s2.3-12.3 15.5-13.6c0 0 14.2-.5 17.7 14v33.1l-14.7 2.3-16.7-2.4Z"/><path class="cls-11" d="M369.2 203.05v11.7h10.7l-1.1-12.5-9.6.8z"/><path class="cls-10" d="m204.2 225.25 1 112.9h-13.4l-5.5-89.6-11 83.1v6.5l-10.9-1.3-1.7-115.5 41.5 3.9z"/><path class="cls-11" d="M177.8 110.45h14.6s5.4 2.8 4.9 6.1l-.3 16.7a13.83 13.83 0 0 1-12 11.6s-8.5.1-11.9-10.3l-.5-19.2c-.1-.1 1.3-4.9 5.2-4.9Z"/><path class="cls-13" d="M172.7 121.15a3.25 3.25 0 0 0-3.8 3.2c-.2 3.7 1.4 5.5 1.4 5.5l2.4 1.4m24.5-10.2s3.6-.3 3.7 2.6a27.57 27.57 0 0 1-.6 5.5s-1.1 2.1-3 2"/><path class="cls-9" d="m176 122.85 4.5-.1m8.5.1h5"/><path class="cls-13" d="M186.6 124.05v9.7s-3 2.7-3.5-.6"/><circle class="cls-7" cx="178.4" cy="126.65" r="1.1"/><circle class="cls-7" cx="191.2" cy="126.65" r="1"/><path class="cls-13" d="M181.2 138a10.38 10.38 0 0 0 7 0"/><path class="cls-11" d="M204.5 259.65s6.9-5.8 8.1-9.2-.6-12.1-.6-12.1h-6.7l.1 13.2s.2 3 2.9.5l.1-6.7"/><path class="cls-14" d="M205.2 348.55h-13.5l.1-10.5h13.4a54.87 54.87 0 0 1 2.7 7.3 5.87 5.87 0 0 1 0 3.1h-2.7Z"/><path class="cls-15" d="M177.2 107.35a13 13 0 0 1-.8-3.8"/><path class="cls-12" d="m325.8 251.75 25.9-35.5s5.3-6.6 9.2-2.4 2.9 13.2 2.9 13.2l-5.9 1.3-15 20.5h6L349 260h-23.2s-3.7-5.15 0-8.25Z"/><path class="cls-12" d="m392.9 247.65.3-16.6 12.6 17.6-12.8-.5-4.9-.2v12l26.5.2c10.8-3.1 5.3-11.5 5.3-11.5l-18.9-26.1c-4.5-9.7-12.8-11-12.8-11s-17.3.3-24.7 0-8.6 6.8-8.6 6.8v58.5h38.2l.2-16"/><path class="cls-11" d="M348.9 251.45s4-.7 5.4 0 6.8 4.5 7.8 7.5 0 1.3 0 1.3L349 260Zm-18.9 43.2-3.2 2.1-19.9 36.1.2 6.5s-15.2 3.5-16.4 3.2-2.1-2.2-2.1-2.2 5.9-6 8.7-8.1 14.9-46.5 14.9-46.5 13.8-8.9 16.2-9 19.9 0 19.9 0l-2.6 8.5"/><path class="cls-14" d="M288.5 340.35s-5.7 3.9-6.1 4.9a8.72 8.72 0 0 0-.2 2.5s20.5-1.3 24.1-2.7.7-5.8.7-5.8l-16.4 3.2c.1 0-2.5-1.7-2.1-2.1Z"/><path class="cls-12" d="M395 301.15h-51a1.54 1.54 0 0 1-1.5-1.5v-6a1.54 1.54 0 0 1 1.5-1.5h51a1.54 1.54 0 0 1 1.5 1.5v6a1.54 1.54 0 0 1-1.5 1.5Zm-20 9.3h-10.5a.27.27 0 0 1-.3-.3v-8.6a.27.27 0 0 1 .3-.3H375a.27.27 0 0 1 .3.3v8.6a.32.32 0 0 1-.3.3Z"/><path class="cls-10" d="M365.4 310.45h8.2v18.3h-8.2z"/><path class="cls-12" d="M364.2 328.65h11.2v6.8h-11.2z"/><path class="cls-10" d="M345.1 339.45a3.67 3.67 0 0 1 3.5-3.7c3.6-.4 42.9-.3 42.9-.3s3.4 1.5 3 4Z"/><circle class="cls-10" cx="348.9" cy="344.35" r="3.7"/><circle class="cls-10" cx="369.8" cy="344.35" r="3.7"/><circle class="cls-10" cx="390.5" cy="344.35" r="3.7"/><path class="cls-12" d="M135.6 304.05h-51a1.54 1.54 0 0 1-1.5-1.5v-6a1.54 1.54 0 0 1 1.5-1.5h51a1.54 1.54 0 0 1 1.5 1.5v6a1.54 1.54 0 0 1-1.5 1.5Z"/><path class="cls-12" d="M115.7 310.45h-10.5a.27.27 0 0 1-.3-.3v-5.8a.27.27 0 0 1 .3-.3h10.5a.27.27 0 0 1 .3.3v5.8a.45.45 0 0 1-.3.3Z"/><path class="cls-10" d="M106.1 310.45h8.2v18.3h-8.2z"/><path class="cls-12" d="M104.8 328.65H116v6.8h-11.2z"/><path class="cls-10" d="M85.7 339.45a3.67 3.67 0 0 1 3.5-3.7c3.6-.4 42.9-.3 42.9-.3s3.4 1.5 3 4Z"/><circle class="cls-10" cx="89.5" cy="344.35" r="3.7"/><circle class="cls-10" cx="110.4" cy="344.35" r="3.7"/><path class="cls-11" d="M344.5 260a5.62 5.62 0 0 1 5.8-4.8c5.2.1 41.8 0 41.8 0v5Z"/><circle class="cls-10" cx="131.1" cy="344.35" r="3.7"/><path class="cls-15" d="m382.5 197.25 1.4-.1"/><path class="cls-11" d="m382.2 192.55 1.6-.2c-.3 0-2.5-.6-3.6-6-1-5.2-7.4-5.4-7.4-5.4-2.8 5.4-10 5.2-10 5.2v12.2s1.7 8.5 10.7 8.7 10.4-8.4 10.4-8.4v-1.6a2.25 2.25 0 0 0 2-2.8c-.3-2.6-2.2-2-2.2-2"/><path class="cls-9" d="M375.3 190.15s2.4-.6 3.2 0m-13.4-.1s3.1-.4 3.5 0"/><path class="cls-15" d="M370.3 201.85s.8 1.3 4.5 0m-4.5-4.6s.8.7 2.5 0"/><circle class="cls-7" cx="367.2" cy="193.25" r=".7"/><circle class="cls-7" cx="376.7" cy="193.25" r=".8"/><path class="cls-12" d="M87.4 260.85v16.7l38.3.5v-58.9s1.3-6.2-7.1-7.7-27 0-27 0-5.2 1.5-10.1 8.1S60.6 249 60.6 249s-3.7 5.1 1.3 8.9c0 0 0 1.1 4.2 2.3l26.5.2v-11.6l-17.7.2 12.6-17.1v16.6"/><path class="cls-15" d="m169.4 339.35-9.3-26.9"/><path class="cls-11" d="M92.5 248.75h4.7l7.3 6.8s-.2 2.6-1.4 2.7-2.6 1.1-3.6.6-1.7.7-2.8.2-2.3.6-2.3.6h-1.9v-10.9Z"/><path class="cls-15" d="m95.9 252.45 4.2 6.1m-5.5-3.6 2 3.6"/><path class="cls-11" d="M120.9 260.35h47.6l8.2-35s-46.1-.3-48 0-3.4 4.8-3.4 4.8l-5.2 30.2h-14.4l-.7-3.3 11.7-.3 5.4-28.4s1.3-5.5 11.5-3.9M117.3 187l.5 6.8a2.45 2.45 0 0 1 2.1 2.7 3.47 3.47 0 0 1-2.6 2.9 9.59 9.59 0 0 1-4 6.7A12.76 12.76 0 0 1 103 208c-5.9-1.5-7-9-7-9s-1.1-.3-1.2-2.3a2.57 2.57 0 0 1 1.2-2.6l-.1-5.3s1.2-3.1 4.1-3.8 7.6.6 11.1-.4 4-1.9 4-1.9 2.5 2.75 2.2 4.3Z"/><circle class="cls-7" cx="104.1" cy="194.75" r=".9"/><circle class="cls-7" cx="113.2" cy="194.75" r=".9"/><path class="cls-9" d="M101.6 191.15h4.2m5.9.4h3.4"/><path class="cls-15" d="m109.2 192.15 1.7 5.7s.6 2.2-.3 2.2h-2.2"/><path class="cls-13" d="M96 194.25h2.1m-2.1 4.8h1.5"/><path class="cls-15" d="M115.1 182.85a8.43 8.43 0 0 0 1.7-2.2m-11.8 22a4.55 4.55 0 0 0 4.9.4"/><path class="cls-11" d="m372.9 256.75 6.2-7.8h9.1v11l-6.2.2v-1.1s-1.8 0-2-1.5l-1.4 1.6s-2 .4-2.3-1.3c0 .15-3.5 1.5-3.4-1.1Z"/><path class="cls-15" d="m376.3 257.95 4.1-5.5m-.5 5.2 3.7-5.2m-1.6 6.7 3.6-4.8"/><path class="cls-10" d="M341.2 276.85h51.9s1.1 12.7-13.9 14.6h-38.1v-14.6Z"/><path class="cls-14" d="M304.1 341.35s-5.7 2.5-5.9 4.5 5.9 1.9 5.9 1.9l14.7-2s6.5-4.4 7-4.9-3.1-5.6-3.2-6.1"/><path class="cls-11" d="M304.1 341.35s4.7-5.7 9.1-6.6l14.6-50.6s3.2-8.3 13.4-7.3v14.6s-18.3 40-18.5 41a15.12 15.12 0 0 0 0 3.1s-11.1 7.1-15.3 7-3.3-1.2-3.3-1.2Zm-147.1-148 1.8-37.4s2.1-5.3 5.7-5.3h38.3s6.5 1.5 6.5 8.4 3.6 79.2 3.6 79.2h-7.1l-.5-5h-48.2v-39.9Z"/><path class="cls-13" d="m203.2 160.45 2 72.9m-39.6-69.4-1.2 51.9"/><path class="cls-10" d="m183.3 159.25-2.6-2.8a9.36 9.36 0 0 1 0-1.9c.1-1.2 3.6-2.5 3.6-2.5s3.7 1.6 3.6 3.3-2.3 3.8-2.3 3.8l1.5 2.5s-1.2 25.7-2.2 27.2-2.4-.6-2.4-.6-1.6-24.4-1.9-25.9 2.7-3.1 2.7-3.1Z"/><path class="cls-15" d="M374.8 176.55s.3 2.2-2.3 4.9"/><path d="M123.3 246.35s2.2-20.6 5.5-20.3a15.8 15.8 0 0 0 4.5 0l-7.5 20.6Z" style="fill:#fff"/><path class="cls-11" d="M53.9 259.55h351.4v9.5H53.9z"/><path class="cls-13" d="M59.7 269.05v79.7m10.3-79.7v79.7m309.6-79.7v79.4m10.5-79.4v79.4"/><path class="cls-12" d="M334.9 202.75s7.1-.9 8.3 3.5v35.1s-2.2 5.3-7.7 3.5-16.3-14.1-16.3-14.1Z"/><path class="cls-13" d="M322.3 242.35v6.5l8 8.7.4 2h-34.4l8.7-19.4 17.3 2.2z"/><path class="cls-11" d="M277.5 208.75v36.1h58s4.9-.8 4-7l.1-31.4s-.8-3.9-4.7-3.8-55 0-55 0a3.89 3.89 0 0 0-2.5 3.5Z"/><path class="cls-14" d="m244.8 342.25 22.7-7.8h3.8l3.1 13.4-29.6.4v-6z"/><path class="cls-11" d="M200.6 225.75a16 16 0 0 1 2.1-2.5c.7-.6 8.6-4.9 8.6-4.9a1.45 1.45 0 0 1 1.2 0c.6.3 5.3-3.3 5.3-3.3s2.8-1.8 2.7 2.1c0 0-6.4 6.9-8.1 7.8s-4.3 2.4-4.3 2.4l-2.8 3.4Z"/><path class="cls-13" d="m207.4 224.05 5.1-3.3s.7-1.7 0-2.5"/><path class="cls-11" d="m159.3 289 14.2-.5s-8.1 42.3-8.7 44 10.7 6.7 10 8.2-16.8-2.4-16.8-2.4l-2-2.4s.9-41.8 1.8-43.3a10.39 10.39 0 0 0 1.2-4.1"/><path class="cls-11" d="M178.7 281.15s6.5-2.2 11.4 2.6-3.4 30.4-3.4 30.4l-3.3 18.3 9.4 8.4s-.4 1.4-2.9 1.4-15-5.8-15-5.8l1.8-50.3Z"/><path class="cls-14" d="m156 335.85-.6 12h3.1l1-4.3s11.4 6.3 20.7 4.5a4.54 4.54 0 0 0-2.2-6c-4-2.1-4.1-2.9-4.1-2.9s2.7 2-.6 1.7-15.2-2.7-15.2-2.7Z"/><path class="cls-11" d="M149.2 213.75v-14.4l-3.4-13.8 16.3-7.1 5.4.8 3.4 12.7-2.6 1.8a12.26 12.26 0 0 1-.4 2.4c-.3.9.4 5.3-5.2 6s-1.5 2.3-1.5 2.3l-.7 10.1Z"/><path class="cls-10" d="M167.9 174.05s-6.3-5.5-17.9-3.2-13.4 20.3-13.4 20.3-.3 11.3.6 14.6c0 0 25.3 1.9 29 .3 0 0-2.7-11.4-2.3-12.5a4.21 4.21 0 0 1-1.6-3.7c.2-2.6 2.1-2.7 2.1-2.7s-.1-5.8 4.2-8.8a4.29 4.29 0 0 0-.7-4.3Z"/><path class="cls-13" d="M221.9 256.35s-.9 3.4 0 3.4h16.8v-2.7l-3.7-1.2Z"/><path class="cls-11" d="M224 253.75c.4-.2 10.3-3.8 10.3-3.8l6.6.6.6 5.7a27.69 27.69 0 0 1-6.6.5c-2.5-.3-6.1 1.1-6.1 1.1l-2.3-1-3.3-1.3Z"/><path class="cls-13" d="m225.7 256.55 9.3-3.4"/><path d="m262.4 287.55-1.5 48.9h12.3s6.1-46.4 5.2-50.2-16 1.3-16 1.3Z" style="fill:#049b73;stroke:#236d9b;stroke-miterlimit:10"/><path class="cls-14" d="M219.4 344.65c.3-.4 24.5-9.6 24.5-9.6l7.1-.6 1.3 4.3v9.6l-32.2-.5c-.1 0-2.6-.85-.7-3.2Z"/><path class="cls-11" d="m284.9 212.65.4-6.6s-6.8-2.6-7.4-9.8c0 0-2.4-.9-2.7-2.4s3.1-7.7 3.1-7.7l-1.1-2.1s-.4-6.3 2.7-8.1 16.8-1.9 16.8-1.9l5.8 5.6-.9 17.3-4.4 3.9-.1 13-11.4 1.2Z"/><path class="cls-13" d="M290.8 207.25s-4.8-.3-5.5-1.2m-3.1-7.6s-.5 1-3.6.9"/><path class="cls-9" d="m279.3 184.05 5.2-.2"/><circle class="cls-7" cx="282.5" cy="188.05" r="1.2"/><path class="cls-10" d="M275.8 167.15s-2.7 7.8 3.9 10.8l11.6.4s4.9 5.7 3.3 9.7l-.1 1.2s5.9 2 .7 5.7c0 0-.3 5.8-1.1 7.2s7.7 1 9.5-1.1 3.2-9.8 3.2-9.8 3.9-8.8-.5-16.1a18.57 18.57 0 0 0-12.3-8.4l-17.9-.2Z"/><path d="m129.5 275.05-1.8 13.1 6.5 6.6h42l6.6-14.2s-28.6-4.9-33.5-5.5-13.7 0-13.7 0Z" style="fill:#00d1b2;stroke:#236d9b;stroke-miterlimit:10"/><path class="cls-14" d="m174.9 336.45-.4 11.3h3.8l.2-4.3s9.8 4.9 15.4 4.3l5.6-.5s.9-3.9-3.5-5.1-3.2-1.2-3.2-1.2a3.08 3.08 0 0 1-2.9 1.4c-2.2-.2-15-5.9-15-5.9Z"/><path class="cls-10" d="M239.9 337.45h12.9s4-40.9 3.9-42.7 56.6 0 56.6 0v-25.5L276.6 268l-5.4 10.1h-19.9s-10.3 5.3-9.4 13.5-2 45.85-2 45.85Z"/><path class="cls-12" d="M271.2 278.05h43.9v-58.9s-.1-7.4-11.2-8.4-28.8 0-28.8 0-5.7 2.7-6.6 8.7-11.5 27.2-11.5 27.2-14 2.5-18.8 1.9c0 0 .9 10.3.3 11s25.4.3 25.4.3 5.9-5 7.1-7.4 1.2 3.6 1.2 3.6Z"/><path class="cls-13" d="m283.1 227.65-12.1 24.6m-105.6-21.7 3.9 9.1"/><path class="cls-12" d="m125.7 281.65 9.3-63.2s3.8-7.2 10.5-7.4 24.9 0 24.9 0 4.6 2.4 5.6 5.9 10.8 24.3 10.8 24.3l11.9-17.6 7.8 7.9s-12.3 22.2-13.2 23.6-3.7 4.9-8.2 4.9-7.9-3.8-7.9-3.8l-7.8-16.6s-3 5.7-5.9 7.2l-4.2 29.4-17.2-.5Z"/><path class="cls-13" d="m165.4 228.05 3.9 12.1"/><path d="m129.6 300.65.6 47.3h2.5l2.1-48.6-5.2 1.3zm29.8.2 1.7 47.7h2.5v-48.1l-4.2.4z" style="stroke:#236d9b;stroke-miterlimit:10;fill:#fff"/><path class="cls-14" d="m117.1 250.35 6 50.3a3.69 3.69 0 0 0 4.3 4h38.8a3.65 3.65 0 0 0 2.5-3.6 29.9 29.9 0 0 0 0-3.7s0-2.7-3.4-2.6l-6.3.2-9.2-45.6s-.4-2.6-4.1-2.2-26.9 0-26.9 0-2.3.1-1.7 3.2Z"/><path class="cls-15" d="m159.9 298.75-.9-3.8"/><path class="cls-14" d="M319.4 304.45h-47.8s-3.3-.1-3-3.3 0-3.5 0-3.5a3 3 0 0 1 3.5-2.7c3.3.3 14.5 0 14.5 0l9.5-45.5a3.26 3.26 0 0 1 3.2-2.3c2.5.2 28.3.4 28.3.4s1.7.2 1.2 3.3-6.3 50.8-6.3 50.8a2.72 2.72 0 0 1-3.1 2.8Z"/><path class="cls-15" d="m285.5 298.45 1.1-3.5"/><path class="cls-14" d="M300.7 311.45h-10.5a.32.32 0 0 1-.3-.3v-6.4a.32.32 0 0 1 .3-.3h10.5a.32.32 0 0 1 .3.3v6.4a.32.32 0 0 1-.3.3Z"/><path class="cls-10" d="M291.5 311.45h8.1v17.9h-8.1z"/><path class="cls-14" d="M300.5 336h-10.2a.43.43 0 0 1-.4-.4v-5.8a.43.43 0 0 1 .4-.4h10.2a.43.43 0 0 1 .4.4v5.8c.1.15-.1.4-.4.4Z"/><path class="cls-14" d="M270.9 340.25s1.2-4.3 4.1-4.3h42.3a5.67 5.67 0 0 1 3.1 4.1Z"/><circle class="cls-14" cx="274.9" cy="344.25" r="3.2"/><circle class="cls-14" cx="295.7" cy="344.25" r="3.2"/><circle class="cls-14" cx="316.4" cy="344.25" r="3.2"/><path class="cls-13" d="M15.5 348.75h420"/></g></svg>