<svg id="Layer_1" data-name="Layer 1" xmlns="http://www.w3.org/2000/svg" viewBox="0 0 900 415.5"><defs><style>.cls-1,.cls-9{fill:#0f7cff}.cls-1,.cls-11,.cls-12,.cls-16{stroke:#236d9b}.cls-1,.cls-11,.cls-16,.cls-5{stroke-linecap:round}.cls-1,.cls-11,.cls-12,.cls-16,.cls-5{stroke-miterlimit:10;stroke-width:3px}.cls-12,.cls-2{fill:#fff}.cls-3{fill:#ededed}.cls-11{fill:none}.cls-5{fill:#ff9f36;stroke:#640917}.cls-10,.cls-16{fill:#236d9b}</style></defs><path class="cls-1" d="M329 110.6h-17.2a6.74 6.74 0 0 1-6.8-6.8v-8.4a6.74 6.74 0 0 1 6.8-6.8h18.7a6.74 6.74 0 0 1 6.8 6.8v8.4a6.74 6.74 0 0 1-6.8 6.8H329"/><path class="cls-2" d="M319.1 343a25.07 25.07 0 0 1-7.5 18 25.48 25.48 0 0 1-18 7.5H170.8a25.39 25.39 0 0 1-25.4-25.5 25.07 25.07 0 0 1 7.5-18 25.43 25.43 0 0 1 14.9-7.3c1-.1 2-.2 3-.2h122.9a25.46 25.46 0 0 1 25.4 25.5Zm276.3-161.5v154.1h-80.9a47.59 47.59 0 0 0-22.7 5.8 229.92 229.92 0 0 1-75.4 24.8 226.92 226.92 0 0 1-33 2.4h-20.3v-169h43.1s-4.3-4 13.9-4.1l-41.7-87-35.5-8.5-24.7-5.9-.4-.1a52.15 52.15 0 0 1-14.2-5.7 51.54 51.54 0 0 1-24.9-50.5 9.45 9.45 0 0 1 11.6-8l101.3 24.3a55.14 55.14 0 0 1 31.9 21.4l68.2 94.9a26.12 26.12 0 0 0 21.3 10.9h82.4Z"/><path class="cls-2" d="M292.2 31.3a21.72 21.72 0 0 0 14.1 11.5l25.1 6.3 2.3-7.7"/><path class="cls-3" d="M473.9 246.8a152.35 152.35 0 0 1-57.4 119.3 226.92 226.92 0 0 1-33 2.4h-20.3v-169h43.1s-4.3-4 13.9-4.1l-41.7-88.7c-.1.1 95.4 36.4 95.4 140.1ZM337.3 343a25.07 25.07 0 0 1-7.5 18 25.48 25.48 0 0 1-18 7.5h-83a152.12 152.12 0 0 1-42.9-50.7c1-.1 2-.2 3-.2h122.9a25.33 25.33 0 0 1 25.5 25.4Z"/><path d="M319.1 343a25.07 25.07 0 0 1-7.5 18 25.48 25.48 0 0 1-18 7.5H170.8a25.39 25.39 0 0 1-25.4-25.5 25.07 25.07 0 0 1 7.5-18 25.43 25.43 0 0 1 14.9-7.3c1-.1 2-.2 3-.2h122.9a25.46 25.46 0 0 1 25.4 25.5Zm276.3-161.5h-82.3a26.39 26.39 0 0 1-21.3-10.9l-68.2-94.9a54.53 54.53 0 0 0-31.9-21.4L290.4 29.9a9.45 9.45 0 0 0-11.6 8 51.36 51.36 0 0 0 39.1 56.2l60.5 14.4 41.7 87c-18.1 0-13.9 4.1-13.9 4.1h-43.1v169h20.3a229.92 229.92 0 0 0 108.4-27.2 48.77 48.77 0 0 1 22.7-5.8h80.9Z" style="fill:none;stroke-width:3px;stroke-miterlimit:10;stroke:#236d9b"/><path class="cls-5" d="M329.4 110.6v12.8H313v-12.8"/><path style="fill:#f4891e" d="M313 110.6h16.4v6.4H313z"/><path style="stroke:#640917;fill:none;stroke-width:3px;stroke-miterlimit:10;stroke-linecap:round" d="M329.4 110.6v12.6H313v-12.6"/><path class="cls-1" d="M457.3 246.8a136.09 136.09 0 0 1-245.6 80.8 134.46 134.46 0 0 1-23.2-50.6.37.37 0 0 0-.1-.3 136.48 136.48 0 0 1 16-99.8 136.11 136.11 0 0 1 252.9 69.9Z"/><circle cx="321.2" cy="246.8" r="117" style="fill:#fff;stroke-width:3px;stroke-miterlimit:10;stroke-linecap:round;stroke:#236d9b"/><path class="cls-3" d="M247.3 302.2a25.48 25.48 0 0 1-25.5 25.5h-10.2a134.46 134.46 0 0 1-23.2-50.6 27.28 27.28 0 0 1 4.1-.3h-4.2a136.48 136.48 0 0 1 16-99.8h13.9a25.46 25.46 0 0 1 25.5 25.4 25.53 25.53 0 0 1-20.6 25 25.74 25.74 0 0 1 12.1 9.2 25.54 25.54 0 0 1-20.7 40.3h7.4a25.48 25.48 0 0 1 18 7.5 24.81 24.81 0 0 1 7.4 17.8Z"/><circle class="cls-9" cx="279.7" cy="286.8" r="4"/><path class="cls-9" d="M282.9 285a.92.92 0 0 1-.65-.27.91.91 0 0 1 0-1.27l97.7-95a.91.91 0 0 1 1.28 0 .92.92 0 0 1 0 1.28l-97.7 95a.87.87 0 0 1-.63.26Zm49.2-91.4a.92.92 0 0 1-.6-.23l-17.4-15.5a.9.9 0 1 1 1.2-1.34L332.7 192a.9.9 0 0 1 .07 1.27.89.89 0 0 1-.67.33Z"/><path class="cls-10" d="M359.4 155.9a3.78 3.78 0 0 1-2.8-1.2 4.2 4.2 0 0 1-1.2-2.8 3.78 3.78 0 0 1 1.2-2.8 4.2 4.2 0 0 1 2.8-1.2 3.78 3.78 0 0 1 2.8 1.2 4.2 4.2 0 0 1 1.2 2.8 3.78 3.78 0 0 1-1.2 2.8 3.63 3.63 0 0 1-2.8 1.2Zm55.9 54.8a3.78 3.78 0 0 1-2.8-1.2 4.2 4.2 0 0 1-1.2-2.8 3.78 3.78 0 0 1 1.2-2.8 4.2 4.2 0 0 1 2.8-1.2 3.78 3.78 0 0 1 2.8 1.2 4.2 4.2 0 0 1 1.2 2.8 3.78 3.78 0 0 1-1.2 2.8 4 4 0 0 1-2.8 1.2Zm.7 78.3a3.78 3.78 0 0 1-2.8-1.2 4.2 4.2 0 0 1-1.2-2.8 3.78 3.78 0 0 1 1.2-2.8 4.2 4.2 0 0 1 2.8-1.2 3.78 3.78 0 0 1 2.8 1.2 4.2 4.2 0 0 1 1.2 2.8 4.1 4.1 0 0 1-4 4Zm-54.8 55.9a3.78 3.78 0 0 1-2.8-1.2 4.2 4.2 0 0 1-1.2-2.8 3.78 3.78 0 0 1 1.2-2.8 4.2 4.2 0 0 1 2.8-1.2 3.78 3.78 0 0 1 2.8 1.2 4.2 4.2 0 0 1 1.2 2.8 3.78 3.78 0 0 1-1.2 2.8 4.42 4.42 0 0 1-2.8 1.2Zm-78.3.7a3.78 3.78 0 0 1-2.8-1.2 4.2 4.2 0 0 1-1.2-2.8 3.78 3.78 0 0 1 1.2-2.8 4.2 4.2 0 0 1 2.8-1.2 3.78 3.78 0 0 1 2.8 1.2 4.2 4.2 0 0 1 1.2 2.8 4.1 4.1 0 0 1-4 4Z"/><path class="cls-5" d="M227 290.8a3.78 3.78 0 0 1-2.8-1.2 4.2 4.2 0 0 1-1.2-2.8 3.78 3.78 0 0 1 1.2-2.8 4.2 4.2 0 0 1 2.8-1.2 3.78 3.78 0 0 1 2.8 1.2 4.2 4.2 0 0 1 1.2 2.8 3.78 3.78 0 0 1-1.2 2.8 4 4 0 0 1-2.8 1.2Z"/><path class="cls-10" d="M226.3 212.5a3.78 3.78 0 0 1-2.8-1.2 4.2 4.2 0 0 1-1.2-2.8 3.78 3.78 0 0 1 1.2-2.8 4.2 4.2 0 0 1 2.8-1.2 3.78 3.78 0 0 1 2.8 1.2 4.2 4.2 0 0 1 1.2 2.8 3.78 3.78 0 0 1-1.2 2.8 3.63 3.63 0 0 1-2.8 1.2Zm54.9-55.9a3.78 3.78 0 0 1-2.8-1.2 4.2 4.2 0 0 1-1.2-2.8 3.78 3.78 0 0 1 1.2-2.8 4.2 4.2 0 0 1 2.8-1.2 3.78 3.78 0 0 1 2.8 1.2 4.2 4.2 0 0 1 1.2 2.8 3.78 3.78 0 0 1-1.2 2.8 4 4 0 0 1-2.8 1.2Zm40-8.1a3.78 3.78 0 0 1-2.8-1.2 4.2 4.2 0 0 1-1.2-2.8 3.78 3.78 0 0 1 1.2-2.8 4.2 4.2 0 0 1 2.8-1.2 3.78 3.78 0 0 1 2.8 1.2 4.2 4.2 0 0 1 1.2 2.8 3.78 3.78 0 0 1-1.2 2.8 4 4 0 0 1-2.8 1.2Zm72.3 29.9a3.78 3.78 0 0 1-2.8-1.2 4.2 4.2 0 0 1-1.2-2.8 3.78 3.78 0 0 1 1.2-2.8 4.2 4.2 0 0 1 2.8-1.2 3.78 3.78 0 0 1 2.8 1.2 4.2 4.2 0 0 1 1.2 2.8 3.78 3.78 0 0 1-1.2 2.8 4 4 0 0 1-2.8 1.2Zm29.9 72.3a3.78 3.78 0 0 1-2.8-1.2 4.2 4.2 0 0 1-1.2-2.8 3.78 3.78 0 0 1 1.2-2.8 4.2 4.2 0 0 1 2.8-1.2 3.78 3.78 0 0 1 2.8 1.2 4.2 4.2 0 0 1 1.2 2.8 3.78 3.78 0 0 1-1.2 2.8 3.63 3.63 0 0 1-2.8 1.2Zm-29.9 72.4a3.78 3.78 0 0 1-2.8-1.2 4.2 4.2 0 0 1-1.2-2.8 3.78 3.78 0 0 1 1.2-2.8 4.2 4.2 0 0 1 2.8-1.2 3.78 3.78 0 0 1 2.8 1.2 4.2 4.2 0 0 1 1.2 2.8 3.78 3.78 0 0 1-1.2 2.8 4.42 4.42 0 0 1-2.8 1.2ZM321.2 353a3.78 3.78 0 0 1-2.8-1.2 4.2 4.2 0 0 1-1.2-2.8 3.78 3.78 0 0 1 1.2-2.8 4.2 4.2 0 0 1 2.8-1.2 3.78 3.78 0 0 1 2.8 1.2 4.2 4.2 0 0 1 1.2 2.8 3.78 3.78 0 0 1-1.2 2.8 4 4 0 0 1-2.8 1.2Zm-72.3-29.9a3.78 3.78 0 0 1-2.8-1.2 4.2 4.2 0 0 1-1.2-2.8 3.78 3.78 0 0 1 1.2-2.8 4.2 4.2 0 0 1 2.8-1.2 3.78 3.78 0 0 1 2.8 1.2 4.2 4.2 0 0 1 1.2 2.8 3.78 3.78 0 0 1-1.2 2.8 4.42 4.42 0 0 1-2.8 1.2Z"/><path class="cls-5" d="M218.9 250.7a3.78 3.78 0 0 1-2.8-1.2 4.2 4.2 0 0 1-1.2-2.8 3.78 3.78 0 0 1 1.2-2.8 4.2 4.2 0 0 1 2.8-1.2 3.78 3.78 0 0 1 2.8 1.2 4.2 4.2 0 0 1 1.2 2.8 4.1 4.1 0 0 1-4 4Z"/><path class="cls-10" d="M248.9 178.4a3.78 3.78 0 0 1-2.8-1.2 4.2 4.2 0 0 1-1.2-2.8 3.78 3.78 0 0 1 1.2-2.8 4.2 4.2 0 0 1 2.8-1.2 3.78 3.78 0 0 1 2.8 1.2 4.2 4.2 0 0 1 1.2 2.8 3.78 3.78 0 0 1-1.2 2.8 4 4 0 0 1-2.8 1.2Z"/><circle class="cls-11" cx="321.2" cy="183" r="20.3"/><path class="cls-12" d="M203.2 214.7h-29.3a25.48 25.48 0 0 1-25.5-25.5 25.48 25.48 0 0 1 25.5-25.5h29.3a25.48 25.48 0 0 1 25.5 25.5 25.61 25.61 0 0 1-25.5 25.5Z"/><path class="cls-2" d="M202.1 205.6h-13.6V173h13.6a16.3 16.3 0 0 1 16.3 16.3 16.37 16.37 0 0 1-16.3 16.3Z"/><path style="stroke:#640917;fill:#fff;stroke-width:3px;stroke-miterlimit:10;stroke-linecap:round" d="M513.1 181.5h43.6v175h-43.6z"/><path class="cls-3" d="M531.6 181.5h43.6v175h-43.6z"/><path class="cls-12" d="M206.7 317.5h-29.3a25.48 25.48 0 0 1-25.5-25.5 25.48 25.48 0 0 1 25.5-25.5h29.3a25.48 25.48 0 0 1 25.5 25.5 25.48 25.48 0 0 1-25.5 25.5Z"/><path class="cls-12" d="M199.4 266.6h-29.3a25.48 25.48 0 0 1-25.5-25.5 25.48 25.48 0 0 1 25.5-25.5h29.3a25.48 25.48 0 0 1 25.5 25.5 25.61 25.61 0 0 1-25.5 25.5Z"/><path class="cls-11" d="M513.1 181.5h43.6v175h-43.6z"/><path style="stroke:#350a63;stroke-width:3px;stroke-miterlimit:10;stroke-linecap:round;fill:#0f7cff" d="M546.3 172.9h209.1v211.3H546.3z"/><path class="cls-2" d="M200.3 257.5h-15.6v-32.6h15.6a16.3 16.3 0 0 1 16.3 16.3 16.3 16.3 0 0 1-16.3 16.3Zm6.7 50.9h-14.9v-32.6H207a16.3 16.3 0 0 1 16.3 16.3 16.18 16.18 0 0 1-16.3 16.3Z"/><path class="cls-11" d="M754.8 384.2H546.3V172.9h209.1v210.6a.67.67 0 0 1-.6.7Z"/><path d="M244.9 144.6a126 126 0 0 1 47.3-22m-65.3 38.3q4.35-4.65 9-9" style="stroke:#fff;stroke-width:4px;fill:none;stroke-miterlimit:10;stroke-linecap:round"/><circle class="cls-11" cx="584.1" cy="353" r="10.3"/><circle class="cls-16" cx="321.2" cy="246.8" r="6.4"/><circle class="cls-16" cx="321.2" cy="183" r="4.7"/></svg>