<svg id="Calque_1" data-name="Calque 1" xmlns="http://www.w3.org/2000/svg" viewBox="0 0 739.7 582.6"><defs><style>.cls-2{opacity:.27}.cls-2,.cls-26{isolation:isolate}.cls-3{fill:#64b9ff}.cls-12,.cls-16,.cls-22,.cls-25,.cls-28,.cls-31,.cls-34,.cls-4,.cls-9{fill:none}.cls-16,.cls-4{stroke:#0f7cff}.cls-12,.cls-16,.cls-22,.cls-25,.cls-28,.cls-31,.cls-4,.cls-9{stroke-miterlimit:10}.cls-5{fill:#ccf1ff}.cls-6{fill:#0f7cff}.cls-8{fill:#ff702b}.cls-25,.cls-9{stroke:#963c3c}.cls-9{stroke-width:.57px}.cls-34{stroke:#dcdcff}.cls-12{stroke:#d6baad}.cls-12,.cls-16{stroke-width:.75px}.cls-13{fill:#0971d8}.cls-14{fill:#fff}.cls-17{fill:#dcdcff}.cls-20{fill:#333d66}.cls-21{fill:#13172b}.cls-22{stroke:#13172b}.cls-22,.cls-25,.cls-28,.cls-31{stroke-width:.5px}.cls-23{fill:#ff8685}.cls-24{fill:#f66}.cls-26,.cls-27{opacity:.2}.cls-28{stroke:#ad3400}.cls-30{fill:#262f57}.cls-31{stroke:#262f57}.cls-34{stroke-width:.49px;stroke-linecap:round;stroke-linejoin:round}</style></defs><g style="opacity:.16"><path d="M182.2 118a1.8 1.8 0 1 0-1.8-1.8 1.73 1.73 0 0 0 1.8 1.8Zm0 17a1.8 1.8 0 1 0-1.8-1.8 1.79 1.79 0 0 0 1.8 1.8Zm0 16.9a1.8 1.8 0 1 0-1.8-1.8 1.79 1.79 0 0 0 1.8 1.8Zm0 17a1.8 1.8 0 1 0-1.8-1.8 1.79 1.79 0 0 0 1.8 1.8Zm0 16.9a1.8 1.8 0 1 0-1.8-1.8 1.79 1.79 0 0 0 1.8 1.8Zm-8.3-59.5a1.8 1.8 0 1 0-1.8-1.8 1.79 1.79 0 0 0 1.8 1.8Zm0 16.9a1.8 1.8 0 1 0-1.8-1.8 1.79 1.79 0 0 0 1.8 1.8Zm0 17a1.8 1.8 0 1 0-1.8-1.8 1.79 1.79 0 0 0 1.8 1.8Zm0 16.9a1.8 1.8 0 1 0-1.8-1.8 1.79 1.79 0 0 0 1.8 1.8Zm-9-59.1a1.8 1.8 0 1 0-1.8-1.8 1.73 1.73 0 0 0 1.8 1.8Zm0 17a1.8 1.8 0 1 0-1.8-1.8 1.79 1.79 0 0 0 1.8 1.8Zm0 16.9a1.8 1.8 0 1 0-1.8-1.8 1.79 1.79 0 0 0 1.8 1.8Zm0 17a1.8 1.8 0 1 0-1.8-1.8 1.79 1.79 0 0 0 1.8 1.8Zm0 16.9a1.8 1.8 0 1 0-1.8-1.8 1.79 1.79 0 0 0 1.8 1.8Z"/><circle cx="156.7" cy="124.5" r="1.8"/><circle cx="156.7" cy="141.5" r="1.8"/><circle cx="156.7" cy="158.4" r="1.8"/><path d="M156.7 177.1a1.8 1.8 0 1 0-1.8-1.8 1.79 1.79 0 0 0 1.8 1.8Z"/><circle cx="147.9" cy="116.3" r="1.8"/><circle cx="147.9" cy="133.2" r="1.8"/><circle cx="147.9" cy="150.2" r="1.8"/><path d="M147.9 168.9a1.8 1.8 0 1 0-1.8-1.8 1.79 1.79 0 0 0 1.8 1.8Zm0 16.9a1.8 1.8 0 1 0-1.8-1.8 1.79 1.79 0 0 0 1.8 1.8Zm-8.3-59.5a1.8 1.8 0 1 0-1.8-1.8 1.79 1.79 0 0 0 1.8 1.8Zm0 16.9a1.8 1.8 0 1 0-1.8-1.8 1.79 1.79 0 0 0 1.8 1.8Zm0 17a1.8 1.8 0 1 0-1.8-1.8 1.79 1.79 0 0 0 1.8 1.8Zm0 16.9a1.8 1.8 0 1 0-1.8-1.8 1.79 1.79 0 0 0 1.8 1.8Zm-9-59.1a1.8 1.8 0 1 0-1.8-1.8 1.79 1.79 0 0 0 1.8 1.8Zm0 17a1.8 1.8 0 1 0-1.8-1.8 1.79 1.79 0 0 0 1.8 1.8Zm0 16.9a1.8 1.8 0 1 0-1.8-1.8 1.79 1.79 0 0 0 1.8 1.8Zm0 17a1.8 1.8 0 1 0-1.8-1.8 1.79 1.79 0 0 0 1.8 1.8Zm0 16.9a1.8 1.8 0 1 0-1.8-1.8 1.79 1.79 0 0 0 1.8 1.8ZM244.4 118a1.8 1.8 0 1 0-1.8-1.8 1.68 1.68 0 0 0 1.8 1.8Zm0 17a1.8 1.8 0 1 0-1.8-1.8 1.73 1.73 0 0 0 1.8 1.8Zm0 16.9a1.8 1.8 0 1 0-1.8-1.8 1.73 1.73 0 0 0 1.8 1.8Zm0 17a1.8 1.8 0 1 0-1.8-1.8 1.79 1.79 0 0 0 1.8 1.8Zm0 16.9a1.8 1.8 0 1 0-1.8-1.8 1.73 1.73 0 0 0 1.8 1.8Zm-8.3-59.5a1.8 1.8 0 1 0-1.8-1.8 1.79 1.79 0 0 0 1.8 1.8Zm0 16.9a1.8 1.8 0 1 0-1.8-1.8 1.79 1.79 0 0 0 1.8 1.8Zm0 17a1.8 1.8 0 1 0-1.8-1.8 1.79 1.79 0 0 0 1.8 1.8Zm0 16.9a1.8 1.8 0 1 0-1.8-1.8 1.79 1.79 0 0 0 1.8 1.8Zm-9-59.1a1.8 1.8 0 1 0-1.8-1.8 1.79 1.79 0 0 0 1.8 1.8Zm0 17a1.8 1.8 0 1 0-1.8-1.8 1.79 1.79 0 0 0 1.8 1.8Zm0 16.9a1.8 1.8 0 1 0-1.8-1.8 1.79 1.79 0 0 0 1.8 1.8Zm0 17a1.8 1.8 0 1 0-1.8-1.8 1.79 1.79 0 0 0 1.8 1.8Zm0 16.9a1.8 1.8 0 1 0-1.8-1.8 1.79 1.79 0 0 0 1.8 1.8Z"/><circle cx="218.9" cy="124.5" r="1.8"/><circle cx="218.9" cy="141.5" r="1.8"/><circle cx="218.9" cy="158.4" r="1.8"/><path d="M218.9 177.1a1.8 1.8 0 1 0-1.8-1.8 1.73 1.73 0 0 0 1.8 1.8Z"/><circle cx="210" cy="116.3" r="1.8"/><circle cx="210" cy="133.2" r="1.8"/><circle cx="210" cy="150.2" r="1.8"/><path d="M210 168.9a1.8 1.8 0 1 0-1.8-1.8 1.79 1.79 0 0 0 1.8 1.8Zm0 16.9a1.8 1.8 0 1 0-1.8-1.8 1.79 1.79 0 0 0 1.8 1.8Zm-8.3-59.5a1.8 1.8 0 1 0-1.8-1.8 1.79 1.79 0 0 0 1.8 1.8Zm0 16.9a1.8 1.8 0 1 0-1.8-1.8 1.79 1.79 0 0 0 1.8 1.8Zm0 17a1.8 1.8 0 1 0-1.8-1.8 1.79 1.79 0 0 0 1.8 1.8Zm0 16.9a1.8 1.8 0 1 0-1.8-1.8 1.79 1.79 0 0 0 1.8 1.8Zm-9-59.1a1.8 1.8 0 1 0-1.8-1.8 1.73 1.73 0 0 0 1.8 1.8Zm0 17a1.8 1.8 0 1 0-1.8-1.8 1.79 1.79 0 0 0 1.8 1.8Zm0 16.9a1.8 1.8 0 1 0-1.8-1.8 1.79 1.79 0 0 0 1.8 1.8Zm0 17a1.8 1.8 0 1 0-1.8-1.8 1.79 1.79 0 0 0 1.8 1.8Zm0 16.9a1.8 1.8 0 1 0-1.8-1.8 1.79 1.79 0 0 0 1.8 1.8ZM182.2 40.1a1.8 1.8 0 1 0-1.8-1.8 1.79 1.79 0 0 0 1.8 1.8Zm0 17a1.8 1.8 0 1 0-1.8-1.8 1.79 1.79 0 0 0 1.8 1.8Zm0 16.9a1.8 1.8 0 1 0-1.8-1.8 1.79 1.79 0 0 0 1.8 1.8Zm0 16.9a1.8 1.8 0 1 0-1.8-1.8 1.79 1.79 0 0 0 1.8 1.8Zm0 17a1.8 1.8 0 1 0-1.8-1.8 1.79 1.79 0 0 0 1.8 1.8Zm-8.3-59.5a1.8 1.8 0 1 0-1.8-1.8 1.79 1.79 0 0 0 1.8 1.8Zm0 16.9a1.8 1.8 0 1 0-1.8-1.8 1.79 1.79 0 0 0 1.8 1.8Zm0 16.9a1.8 1.8 0 1 0-1.8-1.8 1.79 1.79 0 0 0 1.8 1.8Zm0 17a1.8 1.8 0 1 0-1.8-1.8 1.79 1.79 0 0 0 1.8 1.8Zm-9-59.1a1.8 1.8 0 1 0-1.8-1.8 1.79 1.79 0 0 0 1.8 1.8Zm0 17a1.8 1.8 0 1 0-1.8-1.8 1.79 1.79 0 0 0 1.8 1.8Zm0 16.9a1.8 1.8 0 1 0-1.8-1.8 1.79 1.79 0 0 0 1.8 1.8Zm0 16.9a1.8 1.8 0 1 0-1.8-1.8 1.79 1.79 0 0 0 1.8 1.8Zm0 17a1.8 1.8 0 1 0-1.8-1.8 1.79 1.79 0 0 0 1.8 1.8Z"/><circle cx="156.7" cy="46.6" r="1.8"/><circle cx="156.7" cy="63.5" r="1.8"/><circle cx="156.7" cy="80.5" r="1.8"/><path d="M156.7 99.2a1.8 1.8 0 1 0-1.8-1.8 1.79 1.79 0 0 0 1.8 1.8Z"/><circle cx="147.9" cy="38.3" r="1.8"/><circle cx="147.9" cy="55.3" r="1.8"/><circle cx="147.9" cy="72.2" r="1.8"/><path d="M147.9 90.9a1.8 1.8 0 1 0-1.8-1.8 1.79 1.79 0 0 0 1.8 1.8Zm0 17a1.8 1.8 0 1 0-1.8-1.8 1.79 1.79 0 0 0 1.8 1.8Zm-8.3-59.5a1.8 1.8 0 1 0-1.8-1.8 1.79 1.79 0 0 0 1.8 1.8Zm0 16.9a1.8 1.8 0 1 0-1.8-1.8 1.86 1.86 0 0 0 1.8 1.8Zm0 16.9a1.8 1.8 0 1 0-1.8-1.8 1.79 1.79 0 0 0 1.8 1.8Zm0 17a1.8 1.8 0 1 0-1.8-1.8 1.79 1.79 0 0 0 1.8 1.8Zm-9-59.1a1.8 1.8 0 1 0-1.8-1.8 1.86 1.86 0 0 0 1.8 1.8Zm0 17a1.8 1.8 0 1 0-1.8-1.8 1.86 1.86 0 0 0 1.8 1.8Zm0 16.9a1.8 1.8 0 1 0-1.8-1.8 1.79 1.79 0 0 0 1.8 1.8Zm0 16.9a1.8 1.8 0 1 0-1.8-1.8 1.79 1.79 0 0 0 1.8 1.8Zm0 17a1.8 1.8 0 1 0-1.8-1.8 1.79 1.79 0 0 0 1.8 1.8Zm113.8-67.8a1.8 1.8 0 1 0-1.8-1.8 1.73 1.73 0 0 0 1.8 1.8Zm0 17a1.8 1.8 0 1 0-1.8-1.8 1.73 1.73 0 0 0 1.8 1.8Zm0 16.9a1.8 1.8 0 1 0-1.8-1.8 1.73 1.73 0 0 0 1.8 1.8Zm0 16.9a1.8 1.8 0 1 0-1.8-1.8 1.79 1.79 0 0 0 1.8 1.8Zm0 17a1.8 1.8 0 1 0-1.8-1.8 1.73 1.73 0 0 0 1.8 1.8Zm-8.3-59.5a1.8 1.8 0 1 0-1.8-1.8 1.79 1.79 0 0 0 1.8 1.8Zm0 16.9a1.8 1.8 0 1 0-1.8-1.8 1.86 1.86 0 0 0 1.8 1.8Zm0 16.9a1.8 1.8 0 1 0-1.8-1.8 1.79 1.79 0 0 0 1.8 1.8Zm0 17a1.8 1.8 0 1 0-1.8-1.8 1.79 1.79 0 0 0 1.8 1.8Zm-9-59.1a1.8 1.8 0 1 0-1.8-1.8 1.86 1.86 0 0 0 1.8 1.8Zm0 17a1.8 1.8 0 1 0-1.8-1.8 1.86 1.86 0 0 0 1.8 1.8Zm0 16.9a1.8 1.8 0 1 0-1.8-1.8 1.79 1.79 0 0 0 1.8 1.8Zm0 16.9a1.8 1.8 0 1 0-1.8-1.8 1.79 1.79 0 0 0 1.8 1.8Zm0 17a1.8 1.8 0 1 0-1.8-1.8 1.79 1.79 0 0 0 1.8 1.8Z"/><circle cx="218.9" cy="46.6" r="1.8"/><circle cx="218.9" cy="63.5" r="1.8"/><circle cx="218.9" cy="80.5" r="1.8"/><path d="M218.9 99.2a1.8 1.8 0 1 0-1.8-1.8 1.73 1.73 0 0 0 1.8 1.8Z"/><circle cx="210" cy="38.3" r="1.8"/><circle cx="210" cy="55.3" r="1.8"/><circle cx="210" cy="72.2" r="1.8"/><path d="M210 90.9a1.8 1.8 0 1 0-1.8-1.8 1.79 1.79 0 0 0 1.8 1.8Zm0 17a1.8 1.8 0 1 0-1.8-1.8 1.79 1.79 0 0 0 1.8 1.8Zm-8.3-59.5a1.8 1.8 0 1 0-1.8-1.8 1.79 1.79 0 0 0 1.8 1.8Zm0 16.9a1.8 1.8 0 1 0-1.8-1.8 1.79 1.79 0 0 0 1.8 1.8Zm0 16.9a1.8 1.8 0 1 0-1.8-1.8 1.79 1.79 0 0 0 1.8 1.8Zm0 17a1.8 1.8 0 1 0-1.8-1.8 1.79 1.79 0 0 0 1.8 1.8Zm-9-59.1a1.8 1.8 0 1 0-1.8-1.8 1.79 1.79 0 0 0 1.8 1.8Zm0 17a1.8 1.8 0 1 0-1.8-1.8 1.79 1.79 0 0 0 1.8 1.8Zm0 16.9a1.8 1.8 0 1 0-1.8-1.8 1.79 1.79 0 0 0 1.8 1.8Zm0 16.9a1.8 1.8 0 1 0-1.8-1.8 1.79 1.79 0 0 0 1.8 1.8Zm0 17a1.8 1.8 0 1 0-1.8-1.8 1.79 1.79 0 0 0 1.8 1.8Z"/></g><path class="cls-2" d="M514.5 160.3H320.9l-4.8-4 193.7-8.1 4.7 4.1v8z"/><path class="cls-2" d="M327.8 180.7h-3.1l1.8-20.4h6l-4.7 20.4zm170.3 0h3.1l7.8-20.4h-6.1l-4.8 20.4zM629 408.9l10.5 49.3H594l35-49.3zm7.5-136.1h-.3v.1c-.2.1-.4.1-.5.2-15.5 5.5-25.1 17.1-24.7 28 .6 13 16.5 18 20.5 31.4a112.37 112.37 0 0 1-8.5 21.7c-15.8 29.7-25.6 51.2-25.6 66.7h.6c0-15.4 9.8-36.8 25.5-66.4a108.32 108.32 0 0 0 8.6-21.9c5.9-13.5 36-29.2 37.1-47.8.8-15.1-11.1-19.4-32.7-12Z"/><path class="cls-3" d="M632.2 271.3c22.1-7.8 34.4-3.6 33.5 11.6-1.1 19-32.4 35-37.4 48.6-3.6-14.1-20.2-19-20.7-32.3-.5-10.8 9.1-22.4 24.6-27.9Z"/><path class="cls-4" d="M628.2 331.6c1.6-11.8-5.6-38.7-6.5-55.1"/><path class="cls-4" d="M628.2 331.6c.9-9.2-17.1-30.3-17.1-44.6"/><path class="cls-4" d="M646.5 267.9c3.2 24.3-16.7 56.7-18.3 63.7"/><path class="cls-4" d="M661.3 270.6c0 13.3-22.6 38.7-33.1 61"/><path class="cls-4" d="M633 271.1c2.6 15.9 1.5 53.7-13.3 81.5s-25.6 50.4-25.6 66.5"/><path class="cls-2" d="m184.7 282.1 26.4 176.3H102.3l-10.2-39.6 92.6-136.7zm352.8-42.5L562 458.4H250.1l-15.2-99.2 302.6-119.6z"/><path class="cls-5" d="M516.9 351.4H221.4L200.3 254c-3.7-17.2 7.9-33.2 24.1-33.2h289.4c16.2 0 27.8 16 24.1 33.2Z"/><path class="cls-6" d="M499.8 343.8s5.9-24.1 7.8-31.3c2.9-10.9 15.4-13.1 26.3-12.2l-11.7 43.4h-22.4Z"/><path d="M239.1 343.8s-5.9-24.1-7.8-31.3c-2.9-10.9-15.4-13.1-26.3-12.2l11.7 43.4h22.4Z" style="fill:#d6baad"/><path class="cls-8" d="m508.8 393.9 15.7 64.3h-11.9l-30.4-64.3h26.6z"/><path class="cls-9" d="M521.4 458.2 505 397.1"/><path class="cls-8" d="m229.5 393.9-15.7 64.3h11.8l30.5-64.3h-26.6z"/><path class="cls-9" d="m216.8 458.2 16.5-61.1"/><path class="cls-8" d="M244 393.9h250.3v14.4H244z"/><path d="M369.1 350c-67.4 0-77.7-12.4-144.1-12.4l5.6 43.2h277l5.6-43.2c-66.3 0-76.6 12.4-144.1 12.4Z" style="fill:#6ba4dd"/><path d="M503.3 359.2c-60.6.3-71 12.4-134.2 12.4s-73.5-12-134.2-12.4" style="stroke-width:.51px;stroke:#dcdcff;stroke-miterlimit:10;fill:none"/><path class="cls-12" d="M231.3 230.7h263.3"/><path class="cls-5" d="M533.9 300.4a18.92 18.92 0 0 0-18.4 14.8L504 368.4c-1.2 5.6-5.4 9.8-9.7 9.8H243.9c-4.3 0-8.4-4.2-9.7-9.8l-11.6-53.3a18.84 18.84 0 0 0-18.4-14.8 7.68 7.68 0 0 0-7.5 9.4l13.9 63.8c3.6 16.7 17.6 28.8 33.3 28.8h250.4c15.6 0 29.6-12.1 33.3-28.8l13.9-63.8a7.75 7.75 0 0 0-7.6-9.3Z"/><path class="cls-13" d="M206.4 280.6c-10.6-.4-15.9 2.9-16.2 9.5s3.8 9.8 14 10.2c13.4.5 35.3 1.1 37.8 19.5l15 .5s-.4-10.1-8.7-24.1c-8.1-13.9-34.3-15.3-41.9-15.6Z"/><path class="cls-2" d="m279.7 406.6-29.4-19.5 3.1-14.8h2.4l2.4-10s17-3.8 26.9-1c6.5 1.9 12.3 3.6 17.6 2.4s6.6-3.5 11.4-2.4 12.1 3.1 12.1 3.1l-12-16.2-69.1-9-7.9 55Z"/><path class="cls-14" d="M249.2 202.5a22 22 0 0 0-13.8 39.1l-6.8 12.6 13.9-8.7a21.32 21.32 0 0 0 6.7 1 22 22 0 0 0 0-44Z"/><path class="cls-6" d="m245.7 216.1-1.8 12.8a1.6 1.6 0 0 1-1.5 1.3 5.24 5.24 0 0 0-1.7.2c-2.5.5-4.6 2.1-4.8 3.5s1.6 2.1 4.1 1.6 4.6-2.1 4.8-3.5l1.8-13 10.2-2.2-1.3 9.7a1.6 1.6 0 0 1-1.5 1.3 5.24 5.24 0 0 0-1.7.2c-2.5.5-4.6 2.1-4.8 3.5s1.6 2.1 4.1 1.6 4.6-2.1 4.8-3.5l2.2-16.2Z"/><path style="stroke-width:.6px;stroke:#963c3c;stroke-miterlimit:10;fill:none" d="M70.5 458.1h587.2"/><path class="cls-5" d="M80.2 282.1h104.6v141.6H80.2z"/><path class="cls-8" d="M92.5 458.1h-7.4l-2.5-34.4H95l-2.5 34.4zm87.3 0h-7.4l-2.5-34.4h12.4l-2.5 34.4z"/><path class="cls-16" d="M83.5 287.4h97.9m-97.9 131h97.9M88.8 294.7h87.3v33.7H88.8zm0 41.3h87.3v33.7H88.8zm0 41.4h87.3v33.7H88.8zm0-77.7h87.3"/><circle class="cls-16" cx="132.4" cy="307.4" r="3.2"/><path class="cls-16" d="M88.8 341h87.3"/><circle class="cls-16" cx="132.4" cy="348.7" r="3.2"/><path class="cls-16" d="M88.8 382.1h87.3m-40.4 7.7a3.2 3.2 0 1 1-3.2-3.2 3.22 3.22 0 0 1 3.2 3.2Z"/><path class="cls-17" d="M149.2 204.8h4.9v77.3h-4.9z"/><path class="cls-6" d="M154.2 232.6v-27.8h-4.9v34.9c1.6-2.5 3.3-4.9 4.9-7.1Zm-25 49.5h44.9c-2.3-2.6-11.5-4.5-22.5-4.5s-20.1 1.9-22.4 4.5Z"/><path class="cls-13" d="m118.7 210.3 14.8-53.8h36.4l14.8 53.8h-66z"/><path d="m142.5 158.6-6.8 49.6m16-49.6v49.6m9.3-49.6 6.8 49.6" style="stroke-width:.5px;stroke:#dcdcff;stroke-miterlimit:10;fill:none"/><path class="cls-2" d="M620.5 344.8c-1.4-14.6-29.4-20-48.3-14.2l-.3.1c-9 2.8-37.7 17.4-32.7 32.2 3.5 10.3 16.1 11.1 27.4 16.1a54.1 54.1 0 0 1 19.7 14.7 248.57 248.57 0 0 1 1.6 26.6h.6a268.87 268.87 0 0 0-1.8-27.9c5-18.1 35.2-33.3 33.8-47.6Z"/><path class="cls-3" d="M567.5 329.5c18.9-5.9 47.1-.6 48.6 14.1s-30.4 30.3-34.1 49a53 53 0 0 0-19.8-14.8c-11.2-5-23.9-5.8-27.4-16.1-5-14.8 23.7-29.4 32.7-32.2Z"/><path class="cls-4" d="M552.8 336.4s19.9 20.3 29.2 56.1"/><path class="cls-4" d="M538.6 347.9s32.2 20.8 43.3 44.7m3.5-65.5s3.6 27.6-3.4 65.5"/><path class="cls-4" d="M603.2 330.3c0 22.7-20.1 50.6-21.3 62.2"/><path class="cls-4" d="M567.5 329.5s15.8 38.7 16.3 89.6"/><path class="cls-2" d="m640.2 362.4-.3-.1c-10.4-2.2-29.4 0-31.4 10.3-1.9 10.1 13 19.6 11.7 28.2-1.7 2.2-3.3 4.1-4.8 6-5.2 6.5-9 11.1-11.7 16.6l.5.2c2.7-5.4 6.4-10.1 11.6-16.5 1.6-2 3.3-4 5.1-6.4 7-4.2 33.1-.7 38.5-12.3 4.1-8.5-3.7-22.6-19.2-26Z"/><path class="cls-3" d="M637.7 359.4c15.7 3.3 23.6 17.5 19.5 26.2-5.7 12.1-33.9 7.8-39.4 12.9 2.2-8.8-13.5-18.5-11.5-28.8s21-12.5 31.4-10.3Z"/><path class="cls-4" d="M617.8 398.5c5.6-7 9-31.8 7.5-39.7"/><path class="cls-4" d="M614.5 361.3c.4 13 7.3 28.6 3.4 37.3"/><path class="cls-4" d="M649.1 364.5c-3.4 14.2-20.9 23.8-31.2 34"/><path class="cls-4" d="M657 374.5c-3.6 13.8-33.7 18.5-39.1 24.1"/><path class="cls-4" d="M637.7 359.4s-.8 13.7-12.7 29.8-18.9 22.7-23.3 31.5"/><path class="cls-8" d="M611.8 458.1h-36.5a10.85 10.85 0 0 1-10.7-9.1l-6.6-40.1h71.2l-6.6 40.1a11 11 0 0 1-10.8 9.1Z"/><path class="cls-9" d="M562.9 416.1h61.2"/><circle class="cls-2" cx="257.09" cy="127.63" r="30"/><path class="cls-2" d="M551.2 104.4h93.6v129.1h-93.6z"/><path class="cls-17" d="M548.5 101.3h93.6v129.1h-93.6z"/><path class="cls-14" d="M559.5 111.6h71.7v108.3h-71.7z"/><path class="cls-6" d="M592.8 164.2c-.3-11-5-11.7-5-11.7-.7-9.4-5.5-11.2-5.5-11.2 0-7.3-2.6-17-5.8-16.6s-3.2 10.4-3.2 10.4c-3.9-4.4-6.2 14.6-6.2 14.6-4.4-6.1-7 14.6-7 14.6a3 3 0 0 0-.7.5v34.8h37.4c2.8-38.7-4-35.4-4-35.4Z"/><path class="cls-14" d="M571.5 195.1v-12.9l6.3-9.3h30.3v29.7l-36.6-7.5z"/><path class="cls-13" d="M608.1 182.9v-10h-30.3l7.2 10h23.1z"/><path class="cls-6" d="M631.2 219.9v-43.7c-1.6-4.3-3.5-8.6-4.4-10.5 2.6 0-2.7-12.3-6.2-15.5-.2-3.5-.8-17.9-4.3-17.8-3.8.2-5.6 14.6-5.6 14.6-2.9 4.1-5.3 9.6-5 11.4s3.5-.2 3.5-.2c-5 4.6-6.8 14.6-6.4 15.8s2.4 0 2.4 0-2 6.1-.9 9.3c-3 3.6-5.8 14-1.1 14.6-4.3 6.5-6.1 14.3-.5 12.6-2.3 2.4-3.5 6.7-4 9.4Z"/><path class="cls-5" d="M559.5 191v28.9h71.7v-7.6C606 195 569.7 191.6 559.5 191Z"/><path class="cls-17" d="M316.1 148.2h193.6v8.1H316.1zm11.7 32.5h-3.1l-3-24.4h6.1v24.4zm170.3 0h3.1l3-24.4h-6.1v24.4z"/><path class="cls-6" d="M329.5 148.2h52.3l5.4-36.2H335l-5.5 36.2z"/><path class="cls-17" d="M392.7 148.2h-52.2l-5.4-36.2h52.2l5.4 36.2z"/><path class="cls-14" d="M388.4 144.3h-44.7l-4.3-28.4h44.7l4.3 28.4z"/><path class="cls-6" d="m386.5 131.8-17.7-11.5-25.8 19.5.7 4.5h44.7l-1.9-12.5z"/><path class="cls-5" d="m342 133.4 6.2-4.4 35.8 15.3h-40.3l-1.7-10.9z"/><path class="cls-12" d="M392.7 148.2h-52.2"/><path class="cls-6" d="M402.2 148.2h70l7.3-48.5h-70l-7.3 48.5z"/><path class="cls-17" d="M486.9 148.2h-70l-7.4-48.5h70.1l7.3 48.5z"/><path class="cls-14" d="M481.1 143h-60l-5.8-38.2h60.1l5.7 38.2z"/><path class="cls-5" d="M421.1 143h60l-.7-4.9c-22.5-3.3-52.5-27-64.3-28.6Z"/><path class="cls-6" d="M477.4 118.5c-7.4 4.6-33.1 19.6-57.1 19.4l.8 5.1h60Z"/><path class="cls-12" d="M486.9 148.2h-70"/><path class="cls-17" d="M100.4 278.3a11.7 11.7 0 0 1 0-23.4v2a9.7 9.7 0 1 0 0 19.4Z"/><path class="cls-6" d="M100.4 276.3a8.81 8.81 0 0 1-3.3-.6v2.1a11.42 11.42 0 0 0 3.3.5Zm-3.3-18.9a8.81 8.81 0 0 1 3.3-.6v-2a12.57 12.57 0 0 0-3.3.5Z"/><path class="cls-17" d="M115.5 282.1h-12.8a3 3 0 0 1-3-3v-26.6h18.7v26.6a2.93 2.93 0 0 1-2.9 3Z"/><path class="cls-16" d="M103.4 282.1h12.1"/><circle class="cls-17" cx="254.69" cy="124.59" r="30"/><circle class="cls-6" cx="254.69" cy="124.59" r="24.5"/><path style="stroke-width:.75px;stroke:#dcdcff;stroke-miterlimit:10;fill:none" d="m247.8 106.1 6.9 18.5 18.1-1.6"/><path class="cls-20" d="M371 454.5c-4.5-1.1-19.9-2.7-19.9-2.7l-7.7-15.1s-7.3-4.4-14.8-8.9c-9-5.4-19.1-10.6-33.5-6.9-11.2 2.9-18.1 13.5-21.1 19.9s-8 9.8-6.8 18.4 11.9 13.9 20.7 13.8 17.7 6.2 20.5 10.1 7.4 6.8 9.9 3.4.9-8.7-4.5-13.5-16.4-6.4-25.2-6.1-16.7-2.8-16.8-9.8c-.1-4.5 3-5.9 3-5.9s-1.6 8.8 8.1 8.8h66.5a2.44 2.44 0 0 0 0-1.2h25.1c.1 0 1.8-3-3.5-4.3Z"/><path class="cls-21" d="M364.1 453.3c-3.8-.5-8.1-1-10.6-1.3l-4 6.8h7.1c.9-3.1 4.2-5.9 7.5-5.5Zm-27.4-20.6s-18.1 18.7 5.9 22.2Z"/><path class="cls-22" d="M347.9 458.6v1.5m-1.7-1.5v1.5m-1.6-1.5v1.5m-31.6-1.5v1.5m-1.6-1.5v1.5m-1.7-1.5v1.5m63.2-2.7v1.5m-1.6-1.5v1.5m-1.7-1.5v1.5M300 455s6.8-5.1 6.8-11.2-3.2-9.4-3.9-9.7m-28 17.2s2.4-7.4 6.8-12.3"/><path class="cls-17" d="M313.8 473a20.21 20.21 0 0 0-5.6-3.3c-3.4.4-7.2 2-8.2 6.7 3.8 2.1 6.9 4.7 8.3 6.8 2.7 4 7.4 6.8 9.9 3.4s.9-8.8-4.4-13.6Z"/><path class="cls-20" d="M360.9 434.6a20.4 20.4 0 0 0-2.8-6.8 9.12 9.12 0 0 0-3.2 5.8l-11.1-1.8a9.15 9.15 0 0 0-1.2-6.5 18.77 18.77 0 0 0-4.7 5.6s-13.9 23.5 7.5 26.9 15.5-23.2 15.5-23.2Z"/><path class="cls-22" d="M340.1 441.3s-.3 2.9 2.1 3.3 3.4-2.1 3.4-2.1m10.7 1.4s-.6 2.9-3 2.5-2.6-3.1-2.6-3.1"/><path class="cls-21" d="m346 444.3 3 .5s-.7 1.6-1.8 1.4-1.2-1.9-1.2-1.9Z"/><path class="cls-22" d="M342.4 446.4a3.92 3.92 0 0 0 4.9-.2m4.5 1.7a3.84 3.84 0 0 1-4.5-1.7m-8.8 0-4.8 2.2m5.8-.5-4.6 3.8m5.5-2.2-3.4 4.8m18.6-5.3 3.8 3.6m-5.3-2.4 3.2 5.1m-4.6-3.8 1.8 5.6"/><path class="cls-17" d="m348.7 432.7-4.8-.8a9.15 9.15 0 0 0-1.2-6.5 18.77 18.77 0 0 0-4.7 5.6 38.29 38.29 0 0 0-3.2 7.4c6.1 1.1 11.5-3.3 13.9-5.7Z"/><path class="cls-22" d="M327.6 455h14.1c5.7 0 7.9 2.7 7.8 5.1m-56.1-5.1h14.1c5.7 0 7.9 2.7 7.8 5.1"/><path class="cls-23" d="M406.9 252.3s12.6-9.3 21.4-15.1 18.1-7.9 25.8-3.5 14.1 17.4 16.8 30.8 15.7 70.5 15.7 70.5 5.4 3.2 8.2 4.7 7.7-.2 9.1 2.3-.5 5.1-2.5 5c-3.2-.3-15.5-.6-23.4-.8s-2.7-9.6-2.7-9.6-29.5-47.2-35.7-62.8c-5.4 5.1-28 27.7-28 27.7Z"/><path class="cls-24" d="M471 264.6c-2.7-13.4-9.2-26.4-16.8-30.8s-17-2.4-25.8 3.5-21.4 15.1-21.4 15.1l4.8 49.1s22.6-22.6 28-27.7c3.4 8.7 14.1 27.1 22.8 41.7 5.6-2.3 13.8-1.2 19.8.2-4.1-17.9-9.7-42.9-11.4-51.1Z"/><path class="cls-25" d="m439.7 273.7 7.2-6.4m-2.6-24.6s2.6 4.4 13.1 5m20.1 86.3s-1.3 2.2 2.1 3.4m19.9 6.7s4-.5 5 .4m-3.6-1.7s2.5-.5 3.6.5m-3.3-1.4a5.72 5.72 0 0 1 2.9.1m-3.1-.9a5.38 5.38 0 0 1 1.9-.1"/><path class="cls-13" d="m412.2 246.2 8.8 55.7s-25.2 29.5-44.9 31.5-39.8-5.6-39.8-5.6l8.5-32.6s14.2-11.6 24.6-16c10.6-4.5 15.2-17.2 20-19.2s6.6-1 9.9-6.2c3.3-5.4 8.9-8.3 12.9-7.6Z"/><path class="cls-26" d="M416.3 306.9c2.9-3 4.6-5.1 4.6-5.1l-8.8-55.7a10 10 0 0 0-6.1 1.2Z"/><path class="cls-23" d="M423 291s18.5-8.8 29.1-13.2 23.4-1.5 40.8 3.9 63 18.3 63 18.3l10.3-5.3s3.5-2.8 6.2-4.6a1.48 1.48 0 0 1 2.4 1.4 11.56 11.56 0 0 1 .7 3.7c-.1 1.7-3.5 5.1-3.5 5.1s-11.3 12.1-14.8 11.7-4.2-5-4.2-5-72 .5-85.5-6c-6.2 6.9-32 29.9-32 29.9Z"/><path class="cls-25" d="M554.7 304.9s.1 2.3 3.2 1.8m-98.8-22.9s5.9 2.9 11.3-.5"/><path class="cls-24" d="M438.8 283.7c-8.2 3.7-15.8 7.3-15.8 7.3l12.5 40s3.5-3.1 8.2-7.4c-10-9.8-7.3-29.4-4.9-39.9Z"/><path class="cls-25" d="M572.1 297.4s2.2-1.9 3.1-1.1m-3.4-.6s2.3-2 3.6-1.2m-4-.3s2.7-2.1 3.7-1.3m-3.8-.3s2.2-1.8 3.4-1.1"/><path class="cls-26" d="m417 276.3-56.6 37.9 60.1-15.7-3.5-22.2z"/><path d="M391.9 258.9c-.7.2-1.5.5-2.5.9a9.27 9.27 0 0 0-3 2l10 62.5c1.8-1.3 3.6-2.6 5.3-4Zm19.4 53-9.8-61.1a15.1 15.1 0 0 0-2.2 2.8 14.37 14.37 0 0 1-2.7 3.3l9.5 59.8c1.9-1.7 3.6-3.3 5.2-4.8Z" class="cls-27"/><path class="cls-13" d="M327.4 356.7s19.9 9 34.2 10.3c22.2 2 41.2-5.6 44-7.5s9 0 15.3-3.7 7.1-8.5 13.7-8.1 6 2.7 10.2.4l-19.5-61.2-55.3 23.4-31.3-.1Z"/><path class="cls-26" d="m418.8 289.6 19.1 58.5c3.3.7 3.6 1.8 7-.1l-19.5-61.2Z"/><path d="m415.5 290.9-5.5 2.3 15.5 58.8c1.7-1.6 3.1-3.1 5-3.8Zm-1.7 67.2a17.61 17.61 0 0 0 5.6-1.6l-14.7-61-5.5 2.3Z" class="cls-27"/><path class="cls-28" d="M336.3 326.6s23.3 4.6 26.3 13.9m3.5-5.5 3.4-17.8m-.1 14 9.2-19.1"/><path class="cls-6" d="M370.2 278.7c-.2.1-.5.2-.7.3-10.5 4.5-24.6 16-24.6 16l-3.9 15.1h-2.1l-11.3 46.5s4.8 2.3 11.3 4.8c-2.4-15.4 1.8-40 18.2-53.3 13.5-11 13.8-23.7 13.1-29.4Z"/><path class="cls-28" d="M434.9 316.8s-54.8 21.8-63.1 23.3c-8.7 1.6-23.2-.7-37.4-8.4"/><path class="cls-23" d="m244.7 358.1-5.4 27.6s44.8 24 50.6 25.5c4.7-.4 14.9 1.8 18.5 4s7.5 8 6.9 8.7-3.5-1.9-5.3-3.9a8.5 8.5 0 0 0-2.6-2s5.8 6.8 5.2 8.6-5.1-4.1-6.7-5.7a12 12 0 0 0-3.2-1.9 10.35 10.35 0 0 1 2.9 3.2c.8 1.7 2.3 5.7 1.5 6.4s-2.8-4.1-3.9-5.1a22.12 22.12 0 0 0-3.7-2.3 13.2 13.2 0 0 1 3 3.2c1 1.8 1.8 4.9.9 5.1s-1.8-2.6-3.2-3.8-1.7-2.3-4-2.9-8.3-.3-9.9-3c0 0-48.4-2.4-67.6-8.1s-21-22.7-20-31.4 4.3-23.7 4.3-23.7Z"/><path class="cls-25" d="M286.2 417.3s.2 1.7 2.4 1.5m-49.3-33.1-8.2-4.2"/><path class="cls-24" d="M220.7 371.5c6.1-1.4 14.1.7 20.4 4.8l3.6-18.3-41.6-1.5s-2.8 13-4 21.8c9.4-.2 14.8-5.2 21.6-6.8Z"/><path class="cls-6" d="M225 297.5c-3.2 2-9.6 4.1-14.8 14.1s-3.5 15-8.2 19.2-5.4 8.3-5.1 14-.3 8.7-3.1 12.3a14.64 14.64 0 0 0-2.8 8.1l54 1.9 4.8-21.9s5 4.5 18.1 5 18.2 2.1 22.9 5 9.5 5.1 14.4 2.9 11.1 3.1 16.3 5.4 8.3-1.4 9.4-6.8 6-35 15.7-54.8l-30.1-18.3 10.6-35.3s-2.7-1.6-12.8-.5-13 .2-18.5-1.3-11.6 2.8-17.2 3.3a37.14 37.14 0 0 0-16.9 5.6c-5.6 3.6-17.8 26.7-17.8 26.7l-11.1 12.3Z"/><path style="stroke:#6a80f2;stroke-miterlimit:10;fill:none" d="m244.5 362.7-51.4-1.8"/><path class="cls-26" d="M271.2 350.3c-5.2-3.3-10.5-9.1-14.1-13.4a3.36 3.36 0 0 0-5.9 1.5l-1.4 6.8s5 4.5 18.1 5c1.2 0 2.3.1 3.3.1Zm75.5-48.4-30.1-18.3-40.8 1.6-.3 7.1s1.2 4.9 8.7 3.9l54.6 26.7a124.85 124.85 0 0 1 7.9-21Z"/><path class="cls-30" d="m278 297.8-14.1 3.1a1.8 1.8 0 0 1-2.1-1.3l-5.5-25.2a1.8 1.8 0 0 1 1.3-2.1l14.1-3.1a1.8 1.8 0 0 1 2.1 1.3l5.5 25.2a1.75 1.75 0 0 1-1.3 2.1Z"/><path class="cls-31" d="M285.4 330s33.9-5.1 49.8-21m-1 8.5-24.6 19.4m-59.8 8.3s3.6-18.2 3.7-24.6m-14.9 9.3 7.5 9.8m12.5-12.4s-2.1 9.1-7.2 13.8"/><path style="stroke:#6a80f2;stroke-width:.5px;stroke-miterlimit:10;fill:none" d="m320.9 248.7-11 34.6"/><path class="cls-31" d="M279.9 267.5s4 9.7 12.3 13.7m-4.6-10 6 10.1"/><path class="cls-14" d="m278.6 296.6-14.1 3.1a1.8 1.8 0 0 1-2.1-1.3l-5.5-25.2a1.8 1.8 0 0 1 1.3-2.1l14.1-3.1a1.8 1.8 0 0 1 2.1 1.3l5.5 25.2a1.75 1.75 0 0 1-1.3 2.1Z"/><path d="M261.7 273.5a1.18 1.18 0 1 1-1.4-.9 1.24 1.24 0 0 1 1.4.9Z" style="stroke-width:.49px;stroke:#262f57;stroke-miterlimit:10;fill:none"/><path class="cls-34" d="M276.5 299.4s1.1 5.8 1.4 9.9c.9 12.8-.9 24.6-2 31.1-1.2 7.2-3.2 27.7-14.6 27.3s-11.3-35.5-12.2-43c-1.2-9.8-4.7-14.9-4.7-14.9"/><path class="cls-23" d="m318.9 275.6 6.5-21.5s19.5 1.7 33.1 10.1 14.2 28.3-1.1 35.9c-18.3 9.1-72.1-9.1-72.1-9.1a7.18 7.18 0 0 1-8.3-1.4s-6.3 3.1-6.7 2.3 5.9-4.7 5.9-4.7a26.23 26.23 0 0 0-4.9 1.4c-1.3.7-3.3 1.3-4 .7s3.8-4 8.7-4.3c0 0-4.5-1.3-6.2-1.1s-4.2 1.3-4.8.2c-.3-.6 2.9-2.9 6.1-2.6s5.3.7 5.3.7-1.9-2.4-3.3-2.5-5.2 1.3-5.9.9.3-1.7 2.8-2.4 4.5-1.5 6.4-.3 9 4 9 4Z"/><path class="cls-24" d="M318.9 275.6s9.8-1.4 16-2.6c0 0-.5-11.5-1.5-17.7-4.8-.9-8.1-1.2-8.1-1.2Z"/><path class="cls-25" d="M318.9 275.6s14.8-2.7 22.9-3.7"/><path class="cls-24" d="M365.5 283.8c-.1 2.3-1 4.1-2.2 4s-1.9-1.9-1.9-4.2 1-4.1 2.2-4 2 2 1.9 4.2Z"/><path class="cls-20" d="M227.4 270.5a23.76 23.76 0 0 0-6.1-11 6.54 6.54 0 0 0-3.7-8c-5.5-2.5-8 2.7-8 2.7a6 6 0 0 0-6.4.3c-3.2 2.2-2.2 8.6-2.2 8.6s-2.9.2-4.1 4.5 2.3 8 2.3 8a4.62 4.62 0 0 0-1.3 4.5c.7 2.6 2.9 3.6 6.3 3.3l10.7 2.7 1-2.3-4.1-4.9 9.9-13.4Z"/><path class="cls-23" d="m217.9 286.7 10.7 8.7-3.7 2.2a52.82 52.82 0 0 1 12.5-1.8c7.2-.2 14.3 1.8 17.9-4s-4.3-11.2-11.4-9.6c0 0-.5 3.1-5 .9s-9.6-4.9-9.6-4.9Z"/><path class="cls-24" d="m217.9 286.7 9.2 7.5c2-2 5.9-4.5 7.1-8.3a12.53 12.53 0 0 0 .7-4.9c-3-1.5-5.5-2.9-5.5-2.9Z"/><path class="cls-25" d="m244 287.6 1.9-4.5"/><path class="cls-23" d="M221.2 263.7s7.7 7 10.4 10.1 2.2 8.9-.4 11.7-8 5.5-14.9 1a1.67 1.67 0 0 1-2.1 1.2c-1.7-.4-3.8-1.9-4.1-3.5a1.59 1.59 0 0 1 2-1.7l2.1.6-4.7-5a5.72 5.72 0 0 0 3.3-5.4 6.94 6.94 0 0 0 4.5-5 7 7 0 0 0 3.9-4Z"/><path class="cls-25" d="M214.8 284.4s-2.8-1.3-3.5-.7.9 2.2 2.1 2.8"/><path class="cls-17" d="m227.7 276.5-6.4 6.9s4 2 6.8-.4c1.7-1.6 1.2-5.4-.4-6.5Z"/><path class="cls-25" d="m220.8 275.7 2.7 2-1.2 1.5m6.3 5.4s.5-1.9 1.8-2.1"/><path class="cls-30" d="M218.6 278.9c.4.3.6.8.4 1.1s-.7.2-1.1-.2-.6-.8-.4-1.1.7-.1 1.1.2Zm4.1-5.3c.4.3.6.8.4 1.1s-.7.2-1.1-.2-.6-.8-.4-1.1a.83.83 0 0 1 1.1.2Z"/><path d="m214.6 278.2 2.1-2.8m3.1-3.7 2.1-2.7" style="stroke:#262f57;stroke-miterlimit:10;fill:none"/><path class="cls-34" d="M213.8 285.1a24.84 24.84 0 0 1 7.2 8c2.8 5.1 15.6 20.8 22.7 17.3s-3.6-37-15.4-40"/><path transform="rotate(-12.37 276.332 298.637)" style="fill:#1fb86c" d="M275.72 297.19h1.3v3h-1.3z"/><path class="cls-28" d="m342.8 308.4 27.2 1.9 48.8-20.7m-42.3-7.5-4.5 19.2m4.6-9.5 9.8-16.1"/></svg>