<svg id="Calque_1" data-name="Calque 1" xmlns="http://www.w3.org/2000/svg" viewBox="0 0 450 450"><defs><style>.cls-1,.cls-10,.cls-11,.cls-9{fill:none}.cls-1{stroke:#c5edf9;stroke-width:3px}.cls-1,.cls-10,.cls-11,.cls-5,.cls-6,.cls-7{stroke-linecap:round}.cls-1,.cls-10,.cls-11,.cls-4,.cls-5,.cls-6,.cls-7,.cls-8,.cls-9{stroke-miterlimit:10}.cls-2{fill:#236d9b}.cls-4{fill:#0f7cff}.cls-11,.cls-4,.cls-5,.cls-6,.cls-7,.cls-8,.cls-9{stroke:#236d9b}.cls-5{fill:#fff}.cls-6{fill:#b9e5ef}.cls-7{fill:#c5edf9}.cls-8{fill:#a2dffe}.cls-10{stroke:#0f7cff}</style></defs><path class="cls-1" d="M78 95.5h293v125H78z"/><path class="cls-2" d="M284.4 191h11.3v5.6h-11.3zm0 11.3h11.3v5.3h-11.3z"/><path d="M301.4 202.3h11.3v5.3h-11.3zm17.1 0h11.3v5.3h-11.3z" style="fill:#b8dff2"/><path class="cls-4" d="M99.5 203.2s-4.4 2.5-5.7 1.6-2.1-5.1-2.3-6.7-2-5.3-1.9-7.8 0-12.1 12.1-15c0 0 5.8-1.2 15.9-.6 0 0 1.5.6 0 4.9 0 0 2.2 3.3 1.8 6.3a90.58 90.58 0 0 1-2.8 10.3l-9.7 2.4Z"/><path class="cls-5" d="m99.5 214.7 1.2-9.9 8.7 1.7 1 .7-.5 8.4-10.4-.9z"/><path class="cls-6" d="M113.4 213.6s4.9-2.1 8.3-1.5 9.2 6.9 9.2 6.9l6.8 10.1-3.9 15.8-26.2-6.1Z"/><path class="cls-4" d="M86.9 275.2s-2.4 11.5 10.7 18.9a38.53 38.53 0 0 0 6.5 1h35.6l16.8 44.7h20.9l-27.2-59.6-25-1.7Zm269.7-58.8.4-30.6s2.3-12.3 15.5-13.6c0 0 14.2-.5 17.7 14v33.1l-14.7 2.3-16.7-2.4Z"/><path class="cls-5" d="M368.7 203.5v11.7h10.7l-1.1-12.5-9.6.8z"/><path class="cls-6" d="m325.3 252.2 25.9-35.5s5.3-6.6 9.2-2.4 2.9 13.2 2.9 13.2l-5.9 1.3-15 20.5h6l.1 11.1h-23.2s-3.7-5.1 0-8.2Z"/><path class="cls-7" d="m392.4 248.1.3-16.6 12.6 17.6-12.8-.5-4.9-.2v12l26.5.2c10.8-3.1 5.3-11.5 5.3-11.5L400.5 223c-4.5-9.7-12.8-11-12.8-11s-17.3.3-24.7 0-8.6 6.8-8.6 6.8v58.5h38.2l.2-16"/><path class="cls-5" d="M348.4 251.9s4-.7 5.4 0 6.8 4.5 7.8 7.5 0 1.3 0 1.3l-13.1-.3Zm-18.9 43.2-3.2 2.1-19.9 36.1.2 6.5s-15.2 3.5-16.4 3.2-2.1-2.2-2.1-2.2 5.9-6 8.7-8.1 14.9-46.5 14.9-46.5 13.8-8.9 16.2-9 19.9 0 19.9 0l-2.6 8.5"/><path class="cls-8" d="M288 340.8s-5.7 3.9-6.1 4.9a8.72 8.72 0 0 0-.2 2.5s20.5-1.3 24.1-2.7.7-5.8.7-5.8l-16.4 3.2c.1 0-2.5-1.7-2.1-2.1Z"/><path class="cls-7" d="M394.5 301.6h-51a1.54 1.54 0 0 1-1.5-1.5v-6a1.54 1.54 0 0 1 1.5-1.5h51a1.54 1.54 0 0 1 1.5 1.5v6a1.54 1.54 0 0 1-1.5 1.5Zm-20 9.3H364a.27.27 0 0 1-.3-.3V302a.27.27 0 0 1 .3-.3h10.5a.27.27 0 0 1 .3.3v8.6a.32.32 0 0 1-.3.3Z"/><path class="cls-4" d="M364.9 310.9h8.2v18.3h-8.2z"/><path class="cls-7" d="M363.7 329.1h11.2v6.8h-11.2z"/><path class="cls-4" d="M344.6 339.9a3.67 3.67 0 0 1 3.5-3.7c3.6-.4 42.9-.3 42.9-.3s3.4 1.5 3 4Z"/><circle class="cls-4" cx="348.4" cy="344.8" r="3.7"/><circle class="cls-4" cx="369.3" cy="344.8" r="3.7"/><circle class="cls-4" cx="390" cy="344.8" r="3.7"/><path class="cls-7" d="M135.1 304.5h-51a1.54 1.54 0 0 1-1.5-1.5v-6a1.54 1.54 0 0 1 1.5-1.5h51a1.54 1.54 0 0 1 1.5 1.5v6a1.54 1.54 0 0 1-1.5 1.5Z"/><path class="cls-7" d="M115.2 310.9h-10.5a.27.27 0 0 1-.3-.3v-5.8a.27.27 0 0 1 .3-.3h10.5a.27.27 0 0 1 .3.3v5.8a.45.45 0 0 1-.3.3Z"/><path class="cls-4" d="M105.6 310.9h8.2v18.3h-8.2z"/><path class="cls-7" d="M104.3 329.1h11.2v6.8h-11.2z"/><path class="cls-4" d="M85.2 339.9a3.67 3.67 0 0 1 3.5-3.7c3.6-.4 42.9-.3 42.9-.3s3.4 1.5 3 4Z"/><circle class="cls-4" cx="89" cy="344.8" r="3.7"/><circle class="cls-4" cx="109.9" cy="344.8" r="3.7"/><path class="cls-5" d="M344 260.4a5.62 5.62 0 0 1 5.8-4.8c5.2.1 41.8 0 41.8 0v5Z"/><circle class="cls-4" cx="130.6" cy="344.8" r="3.7"/><path class="cls-9" d="m382 197.7 1.4-.1"/><path class="cls-5" d="m381.7 193 1.6-.2c-.3 0-2.5-.6-3.6-6-1-5.2-7.4-5.4-7.4-5.4-2.8 5.4-10 5.2-10 5.2v12.2s1.7 8.5 10.7 8.7 10.4-8.4 10.4-8.4v-1.6a2.25 2.25 0 0 0 2-2.8c-.3-2.6-2.2-2-2.2-2"/><path class="cls-10" d="M374.8 190.6s2.4-.6 3.2 0m-13.4-.1s3.1-.4 3.5 0"/><path class="cls-9" d="M369.8 202.3s.8 1.3 4.5 0m-4.5-4.6s.8.7 2.5 0"/><circle class="cls-2" cx="366.7" cy="193.7" r=".7"/><circle class="cls-2" cx="376.2" cy="193.7" r=".8"/><path class="cls-7" d="M86.9 261.3V278l38.3.5v-58.9s1.3-6.2-7.1-7.7-27 0-27 0-5.2 1.5-10.1 8.1-20.9 29.4-20.9 29.4-3.7 5.1 1.3 8.9c0 0 0 1.1 4.2 2.3l26.5.2v-11.6l-17.7.2L87 232.3v16.6"/><path class="cls-9" d="m168.9 339.8-9.3-26.9"/><path class="cls-5" d="M92 249.2h4.7l7.3 6.8s-.2 2.6-1.4 2.7-2.6 1.1-3.6.6-1.7.7-2.8.2-2.3.6-2.3.6H92v-10.9Z"/><path class="cls-9" d="m95.4 252.9 4.2 6.1m-5.5-3.6 2 3.6"/><path class="cls-5" d="M120.4 260.8H168l8.2-35s-46.1-.3-48 0-3.4 4.8-3.4 4.8l-5.2 30.2h-14.4l-.7-3.3 11.7-.3 5.4-28.4s1.3-5.5 11.5-3.9m-16.3-37.5.5 6.8a2.45 2.45 0 0 1 2.1 2.7 3.47 3.47 0 0 1-2.6 2.9 9.59 9.59 0 0 1-4 6.7 12.76 12.76 0 0 1-10.3 1.9c-5.9-1.5-7-9-7-9s-1.1-.3-1.2-2.3a2.57 2.57 0 0 1 1.2-2.6l-.1-5.3s1.2-3.1 4.1-3.8 7.6.6 11.1-.4 4-1.9 4-1.9 2.5 2.8 2.2 4.3Z"/><circle class="cls-2" cx="103.6" cy="195.2" r=".9"/><circle class="cls-2" cx="112.7" cy="195.2" r=".9"/><path class="cls-10" d="M101.1 191.6h4.2m5.9.4h3.4"/><path class="cls-9" d="m108.7 192.6 1.7 5.7s.6 2.2-.3 2.2h-2.2"/><path class="cls-11" d="M95.5 194.7h2.1m-2.1 4.8H97"/><path class="cls-9" d="M114.6 183.3a8.43 8.43 0 0 0 1.7-2.2m-11.8 22a4.55 4.55 0 0 0 4.9.4"/><path class="cls-5" d="m372.4 257.2 6.2-7.8h9.1v11l-6.2.2v-1.1s-1.8 0-2-1.5l-1.4 1.6s-2 .4-2.3-1.3c0 .1-3.5 1.5-3.4-1.1Z"/><path class="cls-9" d="m375.8 258.4 4.1-5.5m-.5 5.2 3.7-5.2m-1.6 6.7 3.6-4.8"/><path class="cls-4" d="M340.7 277.3h51.9s1.1 12.7-13.9 14.6h-38.1v-14.6Z"/><path class="cls-8" d="M303.6 341.8s-5.7 2.5-5.9 4.5 5.9 1.9 5.9 1.9l14.7-2s6.5-4.4 7-4.9-3.1-5.6-3.2-6.1"/><path class="cls-5" d="M303.6 341.8s4.7-5.7 9.1-6.6l14.6-50.6s3.2-8.3 13.4-7.3v14.6s-18.3 40-18.5 41a15.12 15.12 0 0 0 0 3.1s-11.1 7.1-15.3 7-3.3-1.2-3.3-1.2Z"/><path class="cls-9" d="M374.3 177s.3 2.2-2.3 4.9"/><path d="M122.8 246.8s2.2-20.6 5.5-20.3a15.8 15.8 0 0 0 4.5 0l-7.5 20.6Z" style="fill:#fff"/><path class="cls-5" d="M53.4 260h351.4v9.5H53.4z"/><path class="cls-11" d="M59.2 269.5v79.7m10.3-79.7v79.7m309.6-79.7v79.4m10.5-79.4v79.4"/><path class="cls-7" d="M334.4 203.2s7.1-.9 8.3 3.5v35.1s-2.2 5.3-7.7 3.5-16.3-14.1-16.3-14.1Z"/><path class="cls-11" d="M321.8 242.8v6.5l8 8.7.4 2h-34.4l8.7-19.4 17.3 2.2z"/><path class="cls-5" d="M277 209.2v36.1h58s4.9-.8 4-7l.1-31.4s-.8-3.9-4.7-3.8-55 0-55 0a3.89 3.89 0 0 0-2.5 3.5Z"/><path class="cls-8" d="m244.3 342.7 22.7-7.8h3.8l3.1 13.4-29.6.4v-6z"/><path class="cls-5" d="M200.1 226.2a16 16 0 0 1 2.1-2.5c.7-.6 8.6-4.9 8.6-4.9a1.45 1.45 0 0 1 1.2 0c.6.3 5.3-3.3 5.3-3.3s2.8-1.8 2.7 2.1c0 0-6.4 6.9-8.1 7.8s-4.3 2.4-4.3 2.4l-2.8 3.4Z"/><path class="cls-11" d="m206.9 224.5 5.1-3.3s.7-1.7 0-2.5"/><path class="cls-5" d="m158.8 289.4 14.2-.5s-8.1 42.3-8.7 44 10.7 6.7 10 8.2-16.8-2.4-16.8-2.4l-2-2.4s.9-41.8 1.8-43.3a10.39 10.39 0 0 0 1.2-4.1"/><path class="cls-5" d="M178.2 281.6s6.5-2.2 11.4 2.6-3.4 30.4-3.4 30.4l-3.3 18.3 9.4 8.4s-.4 1.4-2.9 1.4-15-5.8-15-5.8l1.8-50.3Z"/><path class="cls-8" d="m155.5 336.3-.6 12h3.1l1-4.3s11.4 6.3 20.7 4.5a4.54 4.54 0 0 0-2.2-6c-4-2.1-4.1-2.9-4.1-2.9s2.7 2-.6 1.7-15.2-2.7-15.2-2.7Z"/><path class="cls-5" d="M148.7 214.2v-14.4l-3.4-13.8 16.3-7.1 5.4.8 3.4 12.7-2.6 1.8a12.26 12.26 0 0 1-.4 2.4c-.3.9.4 5.3-5.2 6s-1.5 2.3-1.5 2.3L160 215Z"/><path class="cls-4" d="M167.4 174.5s-6.3-5.5-17.9-3.2-13.4 20.3-13.4 20.3-.3 11.3.6 14.6c0 0 25.3 1.9 29 .3 0 0-2.7-11.4-2.3-12.5a4.21 4.21 0 0 1-1.6-3.7c.2-2.6 2.1-2.7 2.1-2.7s-.1-5.8 4.2-8.8a4.29 4.29 0 0 0-.7-4.3Z"/><path class="cls-11" d="M221.4 256.8s-.9 3.4 0 3.4h16.8v-2.7l-3.7-1.2Z"/><path class="cls-5" d="M223.5 254.2c.4-.2 10.3-3.8 10.3-3.8l6.6.6.6 5.7a27.69 27.69 0 0 1-6.6.5c-2.5-.3-6.1 1.1-6.1 1.1l-2.3-1-3.3-1.3Z"/><path class="cls-11" d="m225.2 257 9.3-3.4"/><path class="cls-4" d="m261.9 288-1.5 48.9h12.3s6.1-46.4 5.2-50.2-16 1.3-16 1.3Z"/><path class="cls-8" d="M218.9 345.1c.3-.4 24.5-9.6 24.5-9.6l7.1-.6 1.3 4.3v9.6l-32.2-.5c-.1 0-2.6-.9-.7-3.2Z"/><path class="cls-5" d="m284.4 213.1.4-6.6s-6.8-2.6-7.4-9.8c0 0-2.4-.9-2.7-2.4s3.1-7.7 3.1-7.7l-1.1-2.1s-.4-6.3 2.7-8.1 16.8-1.9 16.8-1.9l5.8 5.6-.9 17.3-4.4 3.9-.1 13-11.4 1.2Z"/><path class="cls-11" d="M290.3 207.7s-4.8-.3-5.5-1.2m-3.1-7.6s-.5 1-3.6.9"/><path class="cls-10" d="m278.8 184.5 5.2-.2"/><circle class="cls-2" cx="282" cy="188.5" r="1.2"/><path class="cls-4" d="M275.3 167.6s-2.7 7.8 3.9 10.8l11.6.4s4.9 5.7 3.3 9.7l-.1 1.2s5.9 2 .7 5.7c0 0-.3 5.8-1.1 7.2s7.7 1 9.5-1.1 3.2-9.8 3.2-9.8 3.9-8.8-.5-16.1a18.57 18.57 0 0 0-12.3-8.4l-17.9-.2ZM129 275.5l-1.8 13.1 6.5 6.6h42l6.6-14.2s-28.6-4.9-33.5-5.5-13.7 0-13.7 0Z"/><path class="cls-8" d="m174.4 336.9-.4 11.3h3.8l.2-4.3s9.8 4.9 15.4 4.3l5.6-.5s.9-3.9-3.5-5.1-3.2-1.2-3.2-1.2a3.08 3.08 0 0 1-2.9 1.4c-2.2-.2-15-5.9-15-5.9Z"/><path class="cls-4" d="M239.4 337.9h12.9s4-40.9 3.9-42.7 56.6 0 56.6 0v-25.5l-36.7-1.3-5.4 10.1h-19.9s-10.3 5.3-9.4 13.5-2 45.9-2 45.9Z"/><path class="cls-7" d="M270.7 278.5h43.9v-58.9s-.1-7.4-11.2-8.4-28.8 0-28.8 0-5.7 2.7-6.6 8.7-11.5 27.2-11.5 27.2-14 2.5-18.8 1.9c0 0 .9 10.3.3 11s25.4.3 25.4.3 5.9-5 7.1-7.4 1.2 3.6 1.2 3.6Z"/><path class="cls-11" d="m282.6 228.1-12.1 24.6M164.9 231l3.9 9.1"/><path class="cls-7" d="m125.2 282.1 9.3-63.2s3.8-7.2 10.5-7.4 24.9 0 24.9 0 4.6 2.4 5.6 5.9 10.8 24.3 10.8 24.3l11.9-17.6 7.8 7.9s-12.3 22.2-13.2 23.6-3.7 4.9-8.2 4.9-7.9-3.8-7.9-3.8l-7.8-16.6s-3 5.7-5.9 7.2l-4.2 29.4-17.2-.5Z"/><path class="cls-11" d="m164.9 228.5 3.9 12.1"/><path d="m129.1 301.1.6 47.3h2.5l2.1-48.6-5.2 1.3zm29.8.2 1.7 47.7h2.5v-48.1l-4.2.4z" style="fill:#fff;stroke:#236d9b;stroke-miterlimit:10"/><path class="cls-8" d="m116.6 250.8 6 50.3a3.69 3.69 0 0 0 4.3 4h38.8a3.65 3.65 0 0 0 2.5-3.6 29.9 29.9 0 0 0 0-3.7s0-2.7-3.4-2.6l-6.3.2-9.2-45.6s-.4-2.6-4.1-2.2-26.9 0-26.9 0-2.3.1-1.7 3.2Z"/><path class="cls-9" d="m159.4 299.2-.9-3.8"/><path class="cls-8" d="M318.9 304.9h-47.8s-3.3-.1-3-3.3 0-3.5 0-3.5a3 3 0 0 1 3.5-2.7c3.3.3 14.5 0 14.5 0l9.5-45.5a3.26 3.26 0 0 1 3.2-2.3c2.5.2 28.3.4 28.3.4s1.7.2 1.2 3.3-6.3 50.8-6.3 50.8a2.72 2.72 0 0 1-3.1 2.8Z"/><path class="cls-9" d="m285 298.9 1.1-3.5"/><path class="cls-8" d="M300.2 311.9h-10.5a.32.32 0 0 1-.3-.3v-6.4a.32.32 0 0 1 .3-.3h10.5a.32.32 0 0 1 .3.3v6.4a.32.32 0 0 1-.3.3Z"/><path class="cls-4" d="M291 311.9h8.1v17.9H291z"/><path class="cls-8" d="M300 336.4h-10.2a.43.43 0 0 1-.4-.4v-5.8a.43.43 0 0 1 .4-.4H300a.43.43 0 0 1 .4.4v5.8c.1.2-.1.4-.4.4Zm-29.6 4.3s1.2-4.3 4.1-4.3h42.3a5.67 5.67 0 0 1 3.1 4.1Z"/><circle class="cls-8" cx="274.4" cy="344.7" r="3.2"/><circle class="cls-8" cx="295.2" cy="344.7" r="3.2"/><circle class="cls-8" cx="315.9" cy="344.7" r="3.2"/><path class="cls-11" d="M15 349.2h420"/><path class="cls-1" d="m101.1 161.5 53.6-23 37.6 28.5 39.6-17.5 19.9 8.5 62.8-28 42 18.5"/></svg>