<svg id="Layer_1" data-name="Layer 1" xmlns="http://www.w3.org/2000/svg" viewBox="0 0 2800 928.7"><defs><style>.cls-1{fill:#ffbdae}.cls-2{fill:#f83600}.cls-5{fill:#fff}</style></defs><path class="cls-1" d="M2370.3 460.3h117.1v180.3h-117.1z"/><path class="cls-2" d="M2487.3 644.7h-117.1a4 4 0 0 1-4-4V460.3a4 4 0 0 1 4-4h117.1a4 4 0 0 1 4 4v180.3a4 4 0 0 1-4 4.1Zm-113-8h109.1V464.3h-109.1Z"/><path class="cls-1" d="M2370.3 460.3h117l-14.7-48H2385l-14.7 48z"/><path class="cls-2" d="M2487.3 464.3h-117.1a3.89 3.89 0 0 1-3.2-1.6 3.83 3.83 0 0 1-.6-3.6l14.8-48a4 4 0 0 1 3.8-2.8h87.6a3.87 3.87 0 0 1 3.8 2.8l14.8 48a4 4 0 0 1-3.9 5.2Zm-111.6-8H2482l-12.3-40H2388Z"/><path class="cls-1" d="M1432.3 404.7h171v236h-171z"/><path class="cls-2" d="M1603.3 644.7h-171a4 4 0 0 1-4-4v-236a4 4 0 0 1 4-4h171a4 4 0 0 1 4 4v236a4 4 0 0 1-4 4Zm-167-8h163v-228h-163Z"/><path class="cls-1" d="M1432.3 404.7h171l-11.5-31h-148l-11.5 31z"/><path class="cls-2" d="M1603.3 408.7h-171a4 4 0 0 1-3.3-1.7 4.37 4.37 0 0 1-.5-3.7l11.5-31a4 4 0 0 1 3.8-2.6h148a4 4 0 0 1 3.8 2.6l11.5 31a3.81 3.81 0 0 1-.5 3.7 4.32 4.32 0 0 1-3.3 1.7Zm-165.2-8h159.5l-8.5-23h-142.4Z"/><path class="cls-1" d="M1603.3 422.7h161v218h-161z"/><path class="cls-2" d="M1764.3 644.7h-161a4 4 0 0 1-4-4v-218a4 4 0 0 1 4-4h161a4 4 0 0 1 4 4v218a4 4 0 0 1-4 4Zm-157-8h153v-210h-153Z"/><path class="cls-1" d="M1603.3 404.7h161v18h-161z"/><path class="cls-2" d="M1764.3 426.7h-161a4 4 0 0 1-4-4v-18a4 4 0 0 1 4-4h161a4 4 0 0 1 4 4v18a4 4 0 0 1-4 4Zm-157-8h153v-10h-153Z"/><path class="cls-1" d="M1764.3 454.7h128v186h-128z"/><path class="cls-2" d="M1892.3 644.7h-128a4 4 0 0 1-4-4v-186a4 4 0 0 1 4-4h128a4 4 0 0 1 4 4v186a4 4 0 0 1-4 4Zm-124-8h120v-178h-120v178Z"/><path class="cls-1" d="M1764.3 454.7h128l-11-20.5h-106l-11 20.5z"/><path class="cls-2" d="M1892.3 458.7h-128a3.94 3.94 0 0 1-3.5-5.8l11-20.5a4 4 0 0 1 3.5-2.1h106a3.92 3.92 0 0 1 3.5 2.1l11 20.5a3.89 3.89 0 0 1-.1 3.9 4.13 4.13 0 0 1-3.4 1.9Zm-121.3-8h114.6l-6.7-12.5h-101.2Z"/><path class="cls-1" d="M1892.3 404.7h163v236h-163z"/><path class="cls-2" d="M2055.3 644.7h-163a4 4 0 0 1-4-4v-236a4 4 0 0 1 4-4h163a4 4 0 0 1 4 4v236a4 4 0 0 1-4 4Zm-159-8h155v-228h-155Z"/><path class="cls-1" d="M1892.3 369h163v35.7h-163z"/><path class="cls-2" d="M2055.3 408.7h-163a4 4 0 0 1-4-4V369a4 4 0 0 1 4-4h163a4 4 0 0 1 4 4v35.7a4 4 0 0 1-4 4Zm-159-8h155V373h-155Z"/><path class="cls-1" d="M1892.3 355h163v14h-163z"/><path class="cls-2" d="M2055.3 373h-163a4 4 0 0 1-4-4v-14a4 4 0 0 1 4-4h163a4 4 0 0 1 4 4v14a4 4 0 0 1-4 4Zm-159-8h155v-6h-155Z"/><path class="cls-1" d="M1959.3 310.7h29v94h-29z"/><path class="cls-2" d="M1988.3 408.7h-29a4 4 0 0 1-4-4v-94a4 4 0 0 1 4-4h29a4 4 0 0 1 4 4v94a4 4 0 0 1-4 4Zm-25-8h21v-86h-21Z"/><path class="cls-1" d="M2055.3 355h-163l20-26h123l20 26z"/><path class="cls-2" d="M2055.3 359h-163a4.17 4.17 0 0 1-3.6-2.2 4 4 0 0 1 .4-4.2l20-26a4 4 0 0 1 3.2-1.6h123a4.18 4.18 0 0 1 3.2 1.6l20 26a4 4 0 0 1 .4 4.2 4.17 4.17 0 0 1-3.6 2.2Zm-154.9-8h146.8l-13.8-18h-119.1Z"/><path class="cls-1" d="M2055.3 439.7h84v201h-84z"/><path class="cls-2" d="M2139.3 644.7h-84a4 4 0 0 1-4-4v-201a4 4 0 0 1 4-4h84a4 4 0 0 1 4 4v201a4 4 0 0 1-4 4Zm-80-8h76v-193h-76Z"/><path class="cls-1" d="M2139.3 439.7h128v201h-128z"/><path class="cls-2" d="M2267.3 644.7h-128a4 4 0 0 1-4-4v-201a4 4 0 0 1 4-4h128a4 4 0 0 1 4 4v201a4 4 0 0 1-4 4Zm-124-8h120v-193h-120Z"/><path class="cls-1" d="M2131.7 418.3h143.2v21.4h-143.2z"/><path class="cls-2" d="M2274.9 443.7h-143.2a4 4 0 0 1-4-4v-21.4a4 4 0 0 1 4-4h143.2a4 4 0 0 1 4 4v21.4a4 4 0 0 1-4 4Zm-139.2-8h135.2v-13.4h-135.2Z"/><path class="cls-1" d="M2267.3 485h65.1v155.7h-65.1z"/><path class="cls-2" d="M2332.5 644.7h-65.1a4 4 0 0 1-4-4V485a4 4 0 0 1 4-4h65.1a4 4 0 0 1 4 4v155.7a4 4 0 0 1-4 4Zm-61.2-8h57.1V489h-57.1Z"/><path class="cls-1" d="M2332.5 513h75.6v127.7h-75.6z"/><path class="cls-2" d="M2408.1 644.7h-75.6a4 4 0 0 1-4-4V513a4 4 0 0 1 4-4h75.6a4 4 0 0 1 4 4v127.7a4 4 0 0 1-4 4Zm-71.6-8h67.6V517h-67.6Z"/><path class="cls-1" d="M2408.1 513h-75.6l37.8-67.3 37.8 67.3z"/><path class="cls-2" d="M2408.1 517h-75.6a4.29 4.29 0 0 1-3.5-2 4.07 4.07 0 0 1 0-4l37.8-67.3a3.84 3.84 0 0 1 3.5-2 4 4 0 0 1 3.5 2l37.8 67.3a4 4 0 0 1-3.5 6Zm-68.8-8h61.9l-31-55.2Z"/><path class="cls-1" d="M2596.1 435h-108.8l54.4-67.3 54.4 67.3z"/><path class="cls-2" d="M2596.1 439h-108.8a4.08 4.08 0 0 1-3.6-2.3 3.8 3.8 0 0 1 .5-4.2l54.4-67.3a4.2 4.2 0 0 1 3.1-1.5 3.75 3.75 0 0 1 3.1 1.5l54.4 67.3a3.8 3.8 0 0 1 .5 4.2 4 4 0 0 1-3.6 2.3Zm-100.4-8h92l-46-57Z"/><path class="cls-1" d="M2408.1 496.3h79.3v144.3h-79.3z"/><path class="cls-2" d="M2487.3 644.7H2408a4 4 0 0 1-4-4V496.3a4 4 0 0 1 4-4h79.3a4 4 0 0 1 4 4v144.3a4 4 0 0 1-4 4.1Zm-75.2-8h71.3V500.3h-71.3Z"/><path class="cls-1" d="M2487.3 435h108.8v205.7h-108.8z"/><path class="cls-2" d="M2596.1 644.7h-108.8a4 4 0 0 1-4-4V435a4 4 0 0 1 4-4h108.8a4 4 0 0 1 4 4v205.7a4 4 0 0 1-4 4Zm-104.8-8h100.8V439h-100.8Z"/><path class="cls-1" d="M2487.3 358.3h108.8V435h-108.8z"/><path class="cls-2" d="M2596.1 439h-108.8a4 4 0 0 1-4-4v-76.7a4 4 0 0 1 4-4h108.8a4 4 0 0 1 4 4V435a4 4 0 0 1-4 4Zm-104.8-8h100.8v-68.7h-100.8Z"/><path class="cls-1" d="M2596.1 283.3h-108.8L2541.7 75l54.4 208.3z"/><path class="cls-2" d="M2596.1 287.3h-108.8a4.18 4.18 0 0 1-3.2-1.6 4 4 0 0 1-.7-3.5l54.4-208.4a4 4 0 0 1 7.8 0l54.4 208.4a4 4 0 0 1-.7 3.5 3.76 3.76 0 0 1-3.2 1.6Zm-103.6-8h98.4l-49.2-188.5Z"/><path class="cls-1" d="M2596.1 346.3h-36.2v-63l18.1-32 18.1 32v63z"/><path class="cls-2" d="M2596.1 350.3h-36.3a4 4 0 0 1-4-4v-63.1a4.55 4.55 0 0 1 .5-2l18.1-32a3.84 3.84 0 0 1 3.5-2 4 4 0 0 1 3.5 2l18.1 32a4.55 4.55 0 0 1 .5 2v63.1a3.81 3.81 0 0 1-3.9 4Zm-32.2-8h28.3v-58l-14.1-24.9-14.1 24.9-.1 58Z"/><path class="cls-1" d="M2559.9 346.3h-36.3v-63l18.1-32 18.2 32v63z"/><path class="cls-2" d="M2559.9 350.3h-36.3a4 4 0 0 1-4-4v-63.1a4.55 4.55 0 0 1 .5-2l18.1-32a3.84 3.84 0 0 1 3.5-2 4 4 0 0 1 3.5 2l18.1 32a4.55 4.55 0 0 1 .5 2v63.1a3.81 3.81 0 0 1-3.9 4Zm-32.3-8h28.3v-58l-14.1-24.9-14.1 24.9-.1 58Z"/><path class="cls-1" d="M2523.6 346.3h-36.3v-63l18.2-32 18.1 32v63z"/><path class="cls-2" d="M2523.6 350.3h-36.3a4 4 0 0 1-4-4v-63.1a4.55 4.55 0 0 1 .5-2l18.1-32a3.84 3.84 0 0 1 3.5-2 4 4 0 0 1 3.5 2l18.1 32a4.55 4.55 0 0 1 .5 2v63.1a3.81 3.81 0 0 1-3.9 4Zm-32.3-8h28.3v-58l-14.1-24.9-14.1 24.9-.1 58Z"/><path class="cls-1" d="M2480.6 346.3h122.3v12h-122.3z"/><path class="cls-2" d="M2602.9 362.3h-122.3a4 4 0 0 1-4-4v-12a4 4 0 0 1 4-4h122.3a4 4 0 0 1 4 4v12a4 4 0 0 1-4 4Zm-118.3-8h114.3v-4h-114.3Z"/><path class="cls-1" d="M1327.3 366.3h105v274.3h-105z"/><path class="cls-2" d="M1432.3 644.7h-105a4 4 0 0 1-4-4V366.3a4 4 0 0 1 4-4h105a4 4 0 0 1 4 4v274.3a4 4 0 0 1-4 4.1Zm-101-8h97V370.3h-97Z"/><path class="cls-1" d="M1321.3 351h117v15.3h-117z"/><path class="cls-2" d="M1438.3 370.3h-117a4 4 0 0 1-4-4V351a4 4 0 0 1 4-4h117a4 4 0 0 1 4 4v15.3a4 4 0 0 1-4 4Zm-113-8h109V355h-109Z"/><path class="cls-1" d="M1222.3 384.3h105v256.3h-105z"/><path class="cls-2" d="M1327.3 644.7h-105a4 4 0 0 1-4-4V384.3a4 4 0 0 1 4-4h105a4 4 0 0 1 4 4v256.3a4 4 0 0 1-4 4.1Zm-101-8h97V388.3h-97Z"/><path class="cls-1" d="M1099.3 357h123v283.7h-123z"/><path class="cls-2" d="M1222.3 644.7h-123a4 4 0 0 1-4-4V357a4 4 0 0 1 4-4h123a4 4 0 0 1 4 4v283.7a4 4 0 0 1-4 4Zm-119-8h115V361h-115Z"/><path class="cls-1" d="M1099.3 339.7h123V357h-123z"/><path class="cls-2" d="M1222.3 361h-123a4 4 0 0 1-4-4v-17.3a4 4 0 0 1 4-4h123a4 4 0 0 1 4 4V357a4 4 0 0 1-4 4Zm-119-8h115v-9.3h-115Z"/><path class="cls-1" d="M867.3 461.7h232v179h-232z"/><path class="cls-2" d="M1099.3 644.7h-232a4 4 0 0 1-4-4v-179a4 4 0 0 1 4-4h232a4 4 0 0 1 4 4v179a4 4 0 0 1-4 4Zm-228-8h224v-171h-224v171Z"/><path class="cls-1" d="M867.3 446.3h232v15.3h-232z"/><path class="cls-2" d="M1099.3 465.7h-232a4 4 0 0 1-4-4v-15.3a4 4 0 0 1 4-4h232a4 4 0 0 1 4 4v15.3a4 4 0 0 1-4 4Zm-228-8h224v-7.3h-224v7.3Z"/><path class="cls-1" d="M1028.6 419.7h32v26.7h-32z"/><path class="cls-2" d="M1060.6 450.3h-32a4 4 0 0 1-4-4v-26.7a4 4 0 0 1 4-4h32a4 4 0 0 1 4 4v26.7a4 4 0 0 1-4 4Zm-28-8h24v-18.7h-24Z"/><path class="cls-1" d="M967.3 419.7h32v26.7h-32z"/><path class="cls-2" d="M999.3 450.3h-32a4 4 0 0 1-4-4v-26.7a4 4 0 0 1 4-4h32a4 4 0 0 1 4 4v26.7a4 4 0 0 1-4 4Zm-28-8h24v-18.7h-24Z"/><path class="cls-1" d="M906 419.7h32v26.7h-32z"/><path class="cls-2" d="M938 450.3h-32a4 4 0 0 1-4-4v-26.7a4 4 0 0 1 4-4h32a4 4 0 0 1 4 4v26.7a4 4 0 0 1-4 4Zm-28-8h24v-18.7h-24Z"/><path class="cls-1" d="M590 411.7h277.3v229H590z"/><path class="cls-2" d="M867.3 644.7H590a4 4 0 0 1-4-4v-229a4 4 0 0 1 4-4h277.3a4 4 0 0 1 4 4v229a4 4 0 0 1-4 4Zm-273.3-8h269.3v-221H594Z"/><path class="cls-1" d="M590 411.7h277.3V391l-138.7-12L590 391v20.7z"/><path class="cls-2" d="M867.3 415.7H590a4 4 0 0 1-4-4V391a4 4 0 0 1 3.7-4l138.7-12h.7l138.7 12a4 4 0 0 1 3.7 4v20.7a4.33 4.33 0 0 1-4.2 4Zm-273.3-8h269.3v-13L728.6 383 594 394.7Z"/><path class="cls-1" d="M417.3 370.7H590v270H417.3z"/><path class="cls-2" d="M590 644.7H417.3a4 4 0 0 1-4-4v-270a4 4 0 0 1 4-4H590a4 4 0 0 1 4 4v270a4 4 0 0 1-4 4Zm-168.7-8H586v-262H421.3Zm401.9-196.3h8v23.5h-8zm-28.1 0h8v23.5h-8zm-28.2 0h8v23.5h-8zm-28.2 0h8v23.5h-8zm-28.1 0h8v23.5h-8zm-28.2 0h8v23.5h-8zm-28.2 0h8v23.5h-8zm-28.1 0h8v23.5h-8zm197.1 49.4h8v23.5h-8zm-28.1 0h8v23.5h-8zm-28.2 0h8v23.5h-8zm-28.2 0h8v23.5h-8zm-28.1 0h8v23.5h-8zm-28.2 0h8v23.5h-8zm-28.2 0h8v23.5h-8zm-28.1 0h8v23.5h-8zm197.1 49.3h8v23.5h-8zm-28.1 0h8v23.5h-8zm-28.2 0h8v23.5h-8zm-28.2 0h8v23.5h-8zm-28.1 0h8v23.5h-8zm-28.2 0h8v23.5h-8zm-28.2 0h8v23.5h-8zm-28.1 0h8v23.5h-8zm197.1 49.3h8v23.5h-8zm-28.1 0h8v23.5h-8zm-28.2 0h8v23.5h-8zm-28.2 0h8v23.5h-8zm-28.1 0h8v23.5h-8zm-28.2 0h8v23.5h-8zm-28.2 0h8v23.5h-8zm-28.1 0h8v23.5h-8zm423.6-98.3h8v23.5h-8zm-28.1 0h8v23.5h-8zm-28.2 0h8v23.5h-8zm-28.2 0h8v23.5h-8zm-28.1 0h8v23.5h-8zm-28.2 0h8v23.5h-8zm140.8 49.3h8v23.5h-8zm-28.1 0h8v23.5h-8zm-28.2 0h8v23.5h-8zm-28.2 0h8v23.5h-8zm-28.1 0h8v23.5h-8zm-28.2 0h8v23.5h-8zm140.8 49.4h8v23.5h-8zm-28.1 0h8v23.5h-8zm-28.2 0h8v23.5h-8zm-28.2 0h8v23.5h-8zm-28.1 0h8v23.5h-8zm-28.2 0h8v23.5h-8z"/><path class="cls-2" d="M556 395.3h8v23.5h-8zm-28.2 0h8v23.5h-8zm-28.2 0h8v23.5h-8zm-28.1 0h8v23.5h-8zm-28.2 0h8v23.5h-8zM556 444.6h8v23.5h-8zm-28.2 0h8v23.5h-8zm-28.2 0h8v23.5h-8zm-28.1 0h8v23.5h-8zm-28.2 0h8v23.5h-8zM556 493.9h8v23.5h-8zm-28.2 0h8v23.5h-8zm-28.2 0h8v23.5h-8zm-28.1 0h8v23.5h-8zm-28.2 0h8v23.5h-8zM556 543.3h8v23.5h-8zm-28.2 0h8v23.5h-8zm-28.2 0h8v23.5h-8zm-28.1 0h8v23.5h-8zm-28.2 0h8v23.5h-8zM556 592.6h8v23.5h-8zm-28.2 0h8v23.5h-8zm-28.2 0h8v23.5h-8zm-28.1 0h8v23.5h-8zm-28.2 0h8v23.5h-8zm1112.8-155.7h8v23.5h-8zm-28.2 0h8v23.5h-8zm-28.2 0h8v23.5h-8zm-28.1 0h8v23.5h-8zm84.5 49.4h8v23.5h-8zm-28.2 0h8v23.5h-8zm-28.2 0h8v23.5h-8zm-28.1 0h8v23.5h-8zm84.5 49.3h8v23.5h-8zm-28.2 0h8v23.5h-8zm-28.2 0h8v23.5h-8zm-28.1 0h8v23.5h-8zm84.5 49.3h8v23.5h-8zm-28.2 0h8v23.5h-8zm-28.2 0h8v23.5h-8zm-28.1 0h8v23.5h-8zm540.5-148h8v23.5h-8zm-28.2 0h8v23.5h-8zm-28.2 0h8v23.5h-8zm-28.1 0h8v23.5h-8zm84.5 49.4h8v23.5h-8zm-28.2 0h8v23.5h-8zm-28.2 0h8v23.5h-8zm-28.1 0h8v23.5h-8zm84.5 49.3h8v23.5h-8zm-28.2 0h8v23.5h-8zm-28.2 0h8v23.5h-8zm-28.1 0h8v23.5h-8zm84.5 49.3h8v23.5h-8zm-28.2 0h8v23.5h-8zm-28.2 0h8v23.5h-8zm-28.1 0h8v23.5h-8zm-205.5-139h8v23.5h-8zm-28.2 0h8v23.5h-8zm-28.2 0h8v23.5h-8zm-28.1 0h8v23.5h-8zm84.5 49.4h8v23.5h-8zm-28.2 0h8v23.5h-8zm-28.2 0h8v23.5h-8zm-28.1 0h8v23.5h-8zm84.5 49.3h8v23.5h-8zm-28.2 0h8v23.5h-8zm-28.2 0h8v23.5h-8zm-28.1 0h8v23.5h-8zm84.5 49.3h8v23.5h-8zm-28.2 0h8v23.5h-8zm-28.2 0h8v23.5h-8zm-28.1 0h8v23.5h-8zm589.9-114.8h8v23.5h-8zm-28.2 0h8v23.5h-8zm-28.2 0h8v23.5h-8zm56.4 49.3h8v23.5h-8zm-28.2 0h8v23.5h-8zm-28.2 0h8v23.5h-8zm56.4 49.4h8v23.5h-8zm-28.2 0h8v23.5h-8zm-28.2 0h8v23.5h-8zm394.8-101h8v23.5h-8zm-28.2 0h8v23.5h-8zm-28.1 0h8v23.5h-8zm56.3 49.3h8v23.5h-8zm-28.2 0h8v23.5h-8zm-28.1 0h8v23.5h-8zm56.3 49.3h8v23.5h-8zm-28.2 0h8v23.5h-8zm-28.1 0h8v23.5h-8zm56.3-190.5h8v23.5h-8zm-28.2 0h8v23.5h-8zm-28.1 0h8v23.5h-8zM1185 388.4h8v23.5h-8zm-28.2 0h8v23.5h-8zm-28.2 0h8v23.5h-8zm56.4 49.4h8v23.5h-8zm-28.2 0h8v23.5h-8zm-28.2 0h8v23.5h-8zm56.4 49.3h8v23.5h-8zm-28.2 0h8v23.5h-8zm-28.2 0h8v23.5h-8zm56.4 49.3h8v23.5h-8zm-28.2 0h8v23.5h-8zm-28.2 0h8v23.5h-8zm56.4 49.4h8v23.5h-8zm-28.2 0h8v23.5h-8zm-28.2 0h8v23.5h-8zm261.3-192.7h8v23.5h-8zm-28.2 0h8v23.5h-8zm28.2 49.3h8v23.5h-8zm-28.2 0h8v23.5h-8zm28.2 49.4h8v23.5h-8zm-28.2 0h8v23.5h-8zm28.2 49.3h8v23.5h-8zm-28.2 0h8v23.5h-8zm28.2 49.3h8v23.5h-8zm-28.2 0h8v23.5h-8zm490.8-103.8h8v23.5h-8zm-28.2 0h8v23.5h-8zm-28.2 0h8v23.5h-8zm56.4 49.3h8v23.5h-8zm-28.2 0h8v23.5h-8zm-28.2 0h8v23.5h-8zm56.4 49.4h8v23.5h-8zm-28.2 0h8v23.5h-8zm-28.2 0h8v23.5h-8zm311.3-106.2h8v23.5h-8zm-28.2 0h8v23.5h-8zm28.2 49.3h8v23.5h-8zm-28.2 0h8v23.5h-8zm28.2 49.4h8v23.5h-8zm-28.2 0h8v23.5h-8zm301.1-37.4h8v23.5h-8zm-28.1 0h8v23.5h-8zm28.1 49.4h8v23.5h-8zm-28.1 0h8v23.5h-8zm91.5-57.7h8v23.5h-8zm0 49.3h8v23.5h-8z"/><path class="cls-1" d="M2596.1 460.3h117.1v180.3h-117.1z"/><path class="cls-2" d="M2713.2 644.7h-117.1a4 4 0 0 1-4-4V460.3a4 4 0 0 1 4-4h117.1a4 4 0 0 1 4 4v180.3a4 4 0 0 1-4 4.1Zm-113.1-8h109.1V464.3h-109.1Z"/><path class="cls-1" d="M2713.2 460.3h-117.1l14.8-48h87.6l14.7 48z"/><path class="cls-2" d="M2713.2 464.3h-117.1a3.89 3.89 0 0 1-3.2-1.6 3.83 3.83 0 0 1-.6-3.6l14.8-48a4 4 0 0 1 3.8-2.8h87.6a3.87 3.87 0 0 1 3.8 2.8l14.8 48a4 4 0 0 1-3.9 5.2Zm-111.7-8h106.3l-12.3-40h-81.7Z"/><path class="cls-1" d="M2675.4 513h75.6v127.7h-75.6z"/><path class="cls-2" d="M2751 644.7h-75.6a4 4 0 0 1-4-4V513a4 4 0 0 1 4-4h75.6a4 4 0 0 1 4 4v127.7a4 4 0 0 1-4 4Zm-71.6-8h67.6V517h-67.6Z"/><path class="cls-1" d="M2675.4 513h75.6l-37.8-67.3-37.8 67.3z"/><path class="cls-2" d="M2751 517h-75.6a4.29 4.29 0 0 1-3.5-2 4.07 4.07 0 0 1 0-4l37.8-67.3a3.84 3.84 0 0 1 3.5-2 4 4 0 0 1 3.5 2l37.8 67.3a4 4 0 0 1-3.5 6Zm-68.8-8h61.9l-31-55.2Z"/><path class="cls-1" d="M2596.1 496.3h79.3v144.3h-79.3z"/><path class="cls-2" d="M2675.4 644.7h-79.3a4 4 0 0 1-4-4V496.3a4 4 0 0 1 4-4h79.3a4 4 0 0 1 4 4v144.3a4 4 0 0 1-4 4.1Zm-75.3-8h71.3V500.3h-71.3Zm95-96.3h8v23.5h-8zm28.2 0h8v23.5h-8zm-28.2 49.4h8v23.5h-8zm28.2 0h8v23.5h-8z"/><path class="cls-2" d="M2631.8 532.1h8v23.5h-8zm0 49.3h8v23.5h-8zm-335.9-79.6h8v23.5h-8zm0 49.3h8v23.5h-8zm0 49.3h8v23.5h-8zm-1011-173.6h8v23.5h-8zm-28.2 0h8v23.5h-8zm28.2 49.3h8v23.5h-8zm-28.2 0h8v23.5h-8zm28.2 49.3h8v23.5h-8zm-28.2 0h8v23.5h-8zm28.2 49.4h8v23.5h-8zm-28.2 0h8v23.5h-8z"/><path d="M2713 466.2a36.83 36.83 0 0 0-18.4 4.8 38 38 0 0 0-75.2 7.6c0 1.1.1 2.1.1 3.1a38.17 38.17 0 0 0-34.3 2.1 38.13 38.13 0 0 0-32-17.5 34.11 34.11 0 0 0-8.5 1v-1a38 38 0 0 0-75.3-7.4 37.07 37.07 0 0 0-14.9-3 38.11 38.11 0 0 0-30 14.7 38.11 38.11 0 0 0-30-14.7 36.43 36.43 0 0 0-11.5 1.8v-1.8a38 38 0 0 0-76 0v1a39.54 39.54 0 0 0-8.5-1 38 38 0 0 0-38 38 36.7 36.7 0 0 0 2.1 12.4 39 39 0 0 0-11.9-1.9 38.12 38.12 0 0 0-27.8 12.1 38 38 0 0 0-72.7 15.4 37.9 37.9 0 0 0-25.3 9.7 38 38 0 0 0-75.3 7.3 37.84 37.84 0 0 0-23.1 7.8 38.12 38.12 0 0 0-45.6-16.9 38 38 0 0 0-75.4-5.2c-.2 1-.3 2.1-.4 3.1a37.08 37.08 0 0 0-14.4-5.6 37.7 37.7 0 0 0-19.8 1.9 37.92 37.92 0 0 0-28.6-22.6 41.81 41.81 0 0 0-8.6-.5c.1-.3.1-.6.2-1a38 38 0 0 0-73-19.9 38.27 38.27 0 0 0-14.2-5.5 37.81 37.81 0 0 0-32 9.5 38.47 38.47 0 0 0-7.8-10.1 38 38 0 1 0-54.2-53 46.13 46.13 0 0 0-7.5-2.1 38 38 0 0 0-43.8 31.1 3.08 3.08 0 0 0-.1 1 37 37 0 0 0-8.2-2.4 37.94 37.94 0 0 0-43.8 43.7 39.41 39.41 0 0 0-11.4-3.9 37.92 37.92 0 0 0-29.4 7.3 38.06 38.06 0 0 0-30.4-28.1 37.34 37.34 0 0 0-28.7 6.8 38 38 0 0 0-71-6.4 17 17 0 0 0-2.2-.4 38 38 0 0 0-43.8 31.1 37.73 37.73 0 0 0-29.7 7.5 38 38 0 0 0-62.5 10.2 37.93 37.93 0 0 0-20.5-10.6 33.48 33.48 0 0 0-7-.5c0-.2.1-.4.1-.6a38 38 0 0 0-69.7-26.5 38.5 38.5 0 0 0-13.8-5.3 38 38 0 0 0-43.8 31.1 34.52 34.52 0 0 0-.5 6.4 38.35 38.35 0 0 0-19.2 5.2 37.85 37.85 0 0 0-31-30.6 37.19 37.19 0 0 0-22.5 3.1 38 38 0 0 0-75.4-6.3 40.39 40.39 0 0 0-.5 7.7 35.89 35.89 0 0 0-3.5-.8 38 38 0 0 0-43.8 31.1 39.72 39.72 0 0 0-.1 12.4 37.56 37.56 0 0 0-23.5 7.8 37.54 37.54 0 0 0-25.6-16.9 38 38 0 0 0-43.8 30.7 38.32 38.32 0 0 0-13-4.8 39.36 39.36 0 0 0-7.6-.5 38 38 0 0 0-72.7-15.6c-.3-.1-.6-.1-.9-.2a38.06 38.06 0 0 0-28.6 6.6 38 38 0 0 0-75.2-2.4 38.47 38.47 0 0 0-.1 12.2 38.08 38.08 0 0 0-30.4 39.1 45.56 45.56 0 0 0-5.3-1.3 37.68 37.68 0 0 0-28.8 6.8 38.08 38.08 0 0 0-62.7-11.8 37.81 37.81 0 0 0-24.5-20.2 37.95 37.95 0 0 0-75.3-4 34.52 34.52 0 0 0-.5 6.4 39 39 0 0 0-19.3 5.2 38 38 0 0 0-71.4 23.7h-.6V870H2751V504.2a38 38 0 0 0-38-38Z" style="fill:#efd3d0"/><path class="cls-2" d="M2751 874H278.7a4 4 0 0 1-4-4V602.4a4.15 4.15 0 0 1 .3-1.6 42 42 0 0 1 77.2-27.6 42.13 42.13 0 0 1 13.9-3.7 31.06 31.06 0 0 1 .4-3.2 42 42 0 0 1 83 1.5 41.44 41.44 0 0 1 21.7 16.9 42 42 0 0 1 63.3 12.3 41.91 41.91 0 0 1 27.8-4.9c.2 0 .5.1.7.1.1-1.3.3-2.5.5-3.8a42.18 42.18 0 0 1 29.5-33.2 41.14 41.14 0 0 1 .5-9.9 42 42 0 0 1 82-3.5 41.92 41.92 0 0 1 24.4-4.4 42 42 0 0 1 78.8 16c1.5.1 3 .3 4.5.5a39.48 39.48 0 0 1 9.6 2.9 42 42 0 0 1 73-13.4 41.9 41.9 0 0 1 18.1-6.1 40.3 40.3 0 0 1 .5-9.2 42 42 0 0 1 47.4-34.5c.1-1.2.2-2.3.4-3.5a42 42 0 0 1 83 1.2 42 42 0 0 1 52.6 27.5 42.35 42.35 0 0 1 12.7-3.2 31.06 31.06 0 0 1 .4-3.2 42.15 42.15 0 0 1 60.4-30.4 42 42 0 0 1 75.3 28.6c1.1.1 2.1.2 3.2.4a42.61 42.61 0 0 1 18.7 8.2 42 42 0 0 1 64.1-9 42.47 42.47 0 0 1 26.2-6.7 42.09 42.09 0 0 1 47-30.8 42.28 42.28 0 0 1 43.6-20.7 41.83 41.83 0 0 1 31.8 25.5 42 42 0 0 1 59.2 21.2 42.35 42.35 0 0 1 27.9-5 43.38 43.38 0 0 1 6.2 1.6 41.36 41.36 0 0 1 .6-7 42.14 42.14 0 0 1 48.4-34.4c1.5.3 3.1.6 4.6 1a42.08 42.08 0 0 1 47.7-30.7 36.49 36.49 0 0 1 5.7 1.4 42 42 0 0 1 71.1 36.7 41.32 41.32 0 0 1-10.1 21 32.17 32.17 0 0 1 3.2 4.1 41.89 41.89 0 0 1 31.7-7.4 43.34 43.34 0 0 1 11.7 3.8 42 42 0 0 1 79.2 22.5c1.6.1 3.1.3 4.6.5a41.63 41.63 0 0 1 30 21.7 41.87 41.87 0 0 1 18.3-1 40.23 40.23 0 0 1 10.7 3.3 42 42 0 0 1 82.5 3.1 41.53 41.53 0 0 1 16.1-.4 42.07 42.07 0 0 1 27 16.8 41.76 41.76 0 0 1 18.1-6A42 42 0 0 1 2127 534a41 41 0 0 1 19.2-6.7 42 42 0 0 1 77.6-18.1 42.39 42.39 0 0 1 26.7-9.6 44.82 44.82 0 0 1 6.4.5 40.49 40.49 0 0 1-.6-7 42 42 0 0 1 42-42 37.08 37.08 0 0 1 4.7.3 42 42 0 0 1 83.7.4 39.09 39.09 0 0 1 7.6-.7 41.65 41.65 0 0 1 30 12.6 41.65 41.65 0 0 1 30-12.6 40.75 40.75 0 0 1 12.1 1.8 42 42 0 0 1 81.8 9 37.08 37.08 0 0 1 4.7-.3 41.68 41.68 0 0 1 33.2 16.3 42.53 42.53 0 0 1 17.9-4 41.28 41.28 0 0 1 11.1 1.5 42 42 0 0 1 81.8-10.7 42.75 42.75 0 0 1 15.8-3.1 42 42 0 0 1 42 42V870a3.6 3.6 0 0 1-3.7 4Zm-2468.3-8H2747V504.2a34 34 0 0 0-50.5-29.7 3.83 3.83 0 0 1-3.6.1 3.7 3.7 0 0 1-2.2-2.8 34 34 0 0 0-67.3 6.8 27.15 27.15 0 0 0 .1 2.8 4 4 0 0 1-1.7 3.6 3.89 3.89 0 0 1-3.9.4 33 33 0 0 0-13.5-2.8 34 34 0 0 0-17.1 4.6 4 4 0 0 1-5.4-1.3 33.94 33.94 0 0 0-28.6-15.7 32.88 32.88 0 0 0-7.6.9 3.78 3.78 0 0 1-3.4-.8 4.07 4.07 0 0 1-1.5-3.2v-.9a34 34 0 0 0-67.3-6.7 4 4 0 0 1-2.1 2.8 3.71 3.71 0 0 1-3.4.1 34 34 0 0 0-40.1 10.4 3.93 3.93 0 0 1-3.2 1.5 4.25 4.25 0 0 1-3.2-1.5 33.63 33.63 0 0 0-26.8-13.1 32.61 32.61 0 0 0-10.3 1.6 3.88 3.88 0 0 1-3.6-.6 4.42 4.42 0 0 1-1.6-3.4v-1.6a34 34 0 1 0-68 0v.9a4.07 4.07 0 0 1-1.5 3.2 3.85 3.85 0 0 1-3.4.8 32.88 32.88 0 0 0-7.6-.9 34.1 34.1 0 0 0-34 34 32.39 32.39 0 0 0 1.9 11.1 4.13 4.13 0 0 1-.9 4.1 4 4 0 0 1-4.1 1 34.73 34.73 0 0 0-10.7-1.7A33.83 33.83 0 0 0 2226 519a4 4 0 0 1-3.6 1.2 4.13 4.13 0 0 1-3-2.3 34 34 0 0 0-65.1 13.8 4 4 0 0 1-4 4 34 34 0 0 0-22.6 8.6 3.78 3.78 0 0 1-3.9.8 4.29 4.29 0 0 1-2.7-3 34 34 0 0 0-67.4 6.6 4 4 0 0 1-4 4 33.31 33.31 0 0 0-20.6 7 3.7 3.7 0 0 1-3.2.7 4 4 0 0 1-2.7-1.9 34.15 34.15 0 0 0-40.8-15.2 4.2 4.2 0 0 1-3.6-.5 3.73 3.73 0 0 1-1.7-3.2 34 34 0 0 0-67.5-4.6 21.86 21.86 0 0 0-.3 2.8 4 4 0 0 1-2.2 3.2 4.13 4.13 0 0 1-3.9-.2 31.35 31.35 0 0 0-12.9-5 34.42 34.42 0 0 0-17.7 1.7 4 4 0 0 1-5.1-2.2 34.13 34.13 0 0 0-25.6-20.3 32.9 32.9 0 0 0-7.7-.4 3.7 3.7 0 0 1-3.2-1.4 4.15 4.15 0 0 1-.9-3.4l.1-.4c0-.2.1-.3.1-.5a34 34 0 0 0-27.8-39.2 34.2 34.2 0 0 0-37.5 21.4 4 4 0 0 1-2.5 2.4 4.08 4.08 0 0 1-3.4-.4 34.06 34.06 0 0 0-41.4 3.6 4.21 4.21 0 0 1-3.4 1 4.16 4.16 0 0 1-2.9-2.1 34.08 34.08 0 0 0-7-9 4.16 4.16 0 0 1-1.3-3 3.77 3.77 0 0 1 1.3-2.9 34 34 0 1 0-48.4-47.5 4 4 0 0 1-4.5 1.1 31.9 31.9 0 0 0-6.7-1.9 34 34 0 0 0-39.2 27.8c0 .2-.1.3-.1.5v.3a4 4 0 0 1-2 2.9 3.94 3.94 0 0 1-3.5.2 32.74 32.74 0 0 0-7.4-2.1 34 34 0 0 0-39.2 27.8 35.69 35.69 0 0 0 0 11.3 4.17 4.17 0 0 1-1.6 3.9 4 4 0 0 1-4.2.3 33.78 33.78 0 0 0-36.5 3 4.12 4.12 0 0 1-3.7.6 4.06 4.06 0 0 1-2.6-2.8 34 34 0 0 0-52.9-19.1 3.78 3.78 0 0 1-3.7.5 4 4 0 0 1-2.5-2.7 33.94 33.94 0 0 0-63.5-5.7 4 4 0 0 1-4.5 2.2c-.7-.1-1.3-.3-2-.4a34 34 0 0 0-39.2 27.8 4 4 0 0 1-4.6 3.3 33.87 33.87 0 0 0-26.6 6.7 4 4 0 0 1-5.4-.4 33.51 33.51 0 0 0-19.2-10.4 34 34 0 0 0-36.7 19.5 3.81 3.81 0 0 1-2.9 2.3 4.06 4.06 0 0 1-3.5-1.1 33.81 33.81 0 0 0-18.3-9.5 43.42 43.42 0 0 0-6.3-.5 4.1 4.1 0 0 1-3.1-1.4 3.93 3.93 0 0 1-.9-3.3l.1-.5a34 34 0 0 0-62.3-23.7 4.52 4.52 0 0 1-2.5 1.8 4 4 0 0 1-3-.5 32.86 32.86 0 0 0-12.4-4.7 34 34 0 0 0-39.2 27.8 36.57 36.57 0 0 0-.5 5.7 3.63 3.63 0 0 1-1.2 2.8 4.2 4.2 0 0 1-2.8 1.2h-.1a33.35 33.35 0 0 0-17.1 4.7 4 4 0 0 1-6-2.7 34.15 34.15 0 0 0-27.8-27.4 33.47 33.47 0 0 0-20.2 2.8 4 4 0 0 1-3.8-.2 3.9 3.9 0 0 1-1.9-3.4 34 34 0 0 0-67.5-5.6 40.06 40.06 0 0 0-.5 6.9 4.13 4.13 0 0 1-1.5 3.3 3.72 3.72 0 0 1-3.5.7c-1.1-.3-2.1-.5-3.1-.7A34 34 0 0 0 893 530a37.55 37.55 0 0 0-.1 11.1 4 4 0 0 1-.9 3.2 4.1 4.1 0 0 1-3.1 1.4 34 34 0 0 0-21 7 3.95 3.95 0 0 1-5.8-1A34 34 0 0 0 800 564a3.81 3.81 0 0 1-2.3 2.9 4 4 0 0 1-3.7-.2 34.6 34.6 0 0 0-11.6-4.3 39.64 39.64 0 0 0-6.8-.5 4.36 4.36 0 0 1-2.9-1.1 4 4 0 0 1-1.2-2.9 34 34 0 0 0-65-13.9 4 4 0 0 1-4.4 2.3l-.3-.1c-.2 0-.3-.1-.5-.1a34.34 34.34 0 0 0-25.6 5.9 4.1 4.1 0 0 1-4 .4 3.86 3.86 0 0 1-2.3-3.2 34 34 0 0 0-67.3-2.1 36.21 36.21 0 0 0-.1 10.9 4 4 0 0 1-3.2 4.5 34.37 34.37 0 0 0-26.8 27.6 30.39 30.39 0 0 0-.4 7.4 3.87 3.87 0 0 1-1.6 3.4 4 4 0 0 1-3.7.6 46.41 46.41 0 0 0-4.7-1.2 34.11 34.11 0 0 0-25.7 6 3.82 3.82 0 0 1-3.4.6 4 4 0 0 1-2.6-2.3 33.91 33.91 0 0 0-56-10.5 4.12 4.12 0 0 1-3.5 1.2 4 4 0 0 1-3-2.2 33.94 33.94 0 0 0-21.9-18.1 3.94 3.94 0 0 1-3-3.6 34 34 0 0 0-67.4-3.6 36.57 36.57 0 0 0-.5 5.7 3.63 3.63 0 0 1-1.2 2.8 4.2 4.2 0 0 1-2.8 1.2h-.1a33.7 33.7 0 0 0-17.2 4.7 4 4 0 0 1-5.6-1.6 34 34 0 0 0-63.9 9.5 35.34 35.34 0 0 0 0 11.7 3.86 3.86 0 0 1-.5 2.8V866Z"/><path d="M2713 553.2a36.83 36.83 0 0 0-18.4 4.8 38 38 0 0 0-75.2 7.6c0 1.1.1 2.1.1 3.1a38.17 38.17 0 0 0-34.3 2.1 38.13 38.13 0 0 0-32-17.5 34.11 34.11 0 0 0-8.5 1v-1a38 38 0 0 0-75.3-7.4 37.07 37.07 0 0 0-14.9-3 38.11 38.11 0 0 0-30 14.7 38.11 38.11 0 0 0-30-14.7 36.43 36.43 0 0 0-11.5 1.8v-1.8a38 38 0 0 0-76 0v1a39.54 39.54 0 0 0-8.5-1 38 38 0 0 0-38 38 36.7 36.7 0 0 0 2.1 12.4 39 39 0 0 0-11.9-1.9 38.12 38.12 0 0 0-27.8 12.1 38 38 0 0 0-72.7 15.4 37.9 37.9 0 0 0-25.3 9.7 38 38 0 0 0-75.3 7.3 37.84 37.84 0 0 0-23.1 7.8 38.12 38.12 0 0 0-45.6-16.9 38 38 0 0 0-75.4-5.2c-.2 1-.3 2.1-.4 3.1a37.08 37.08 0 0 0-14.4-5.6 37.7 37.7 0 0 0-19.8 1.9 37.92 37.92 0 0 0-28.6-22.6 41.81 41.81 0 0 0-8.6-.5c.1-.3.1-.6.2-1a38 38 0 0 0-73-19.9 38.27 38.27 0 0 0-14.2-5.5 37.81 37.81 0 0 0-32 9.5 38.47 38.47 0 0 0-7.8-10.1 38 38 0 1 0-54.2-53 46.13 46.13 0 0 0-7.5-2.1 38 38 0 0 0-43.8 31.1 3.08 3.08 0 0 0-.1 1 37 37 0 0 0-8.2-2.4 37.94 37.94 0 0 0-43.8 43.7 39.41 39.41 0 0 0-11.4-3.9 37.92 37.92 0 0 0-29.4 7.3 38.06 38.06 0 0 0-30.4-28.1 37.34 37.34 0 0 0-28.7 6.8 38 38 0 0 0-71-6.4 17 17 0 0 0-2.2-.4 38 38 0 0 0-43.8 31.1 37.73 37.73 0 0 0-29.7 7.5 38 38 0 0 0-62.5 10.2 37.93 37.93 0 0 0-20.5-10.6 33.48 33.48 0 0 0-7-.5c0-.2.1-.4.1-.6a38 38 0 0 0-69.7-26.5 38.5 38.5 0 0 0-13.8-5.3 38 38 0 0 0-43.8 31.1 34.52 34.52 0 0 0-.5 6.4 38.35 38.35 0 0 0-19.2 5.2 37.85 37.85 0 0 0-31-30.6 37.19 37.19 0 0 0-22.5 3.1 38 38 0 0 0-75.4-6.3 40.39 40.39 0 0 0-.5 7.7 35.89 35.89 0 0 0-3.5-.8 38 38 0 0 0-43.8 31.1 39.72 39.72 0 0 0-.1 12.4 37.56 37.56 0 0 0-23.5 7.8 37.54 37.54 0 0 0-25.6-16.9 38 38 0 0 0-43.8 30.7 38.32 38.32 0 0 0-13-4.8 39.36 39.36 0 0 0-7.6-.5 38 38 0 0 0-72.7-15.6c-.3-.1-.6-.1-.9-.2a38.06 38.06 0 0 0-28.6 6.6 38 38 0 0 0-75.2-2.4 38.47 38.47 0 0 0-.1 12.2 38.08 38.08 0 0 0-30.4 39.1 45.56 45.56 0 0 0-5.3-1.3 37.68 37.68 0 0 0-28.8 6.8 38.08 38.08 0 0 0-62.7-11.8 37.81 37.81 0 0 0-24.5-20.2 37.95 37.95 0 0 0-75.3-4 34.52 34.52 0 0 0-.5 6.4 39 39 0 0 0-19.3 5.2 38 38 0 0 0-71.4 23.7h-.6V870H2751V591.2a38 38 0 0 0-38-38Z" style="fill:#fff2f0"/><path class="cls-2" d="M2751 874H278.7a4 4 0 0 1-4-4V689.3a4.15 4.15 0 0 1 .3-1.6 41.69 41.69 0 0 1 .3-12.2 42 42 0 0 1 76.9-15.4 42.13 42.13 0 0 1 13.9-3.7 31.06 31.06 0 0 1 .4-3.2 42 42 0 0 1 83 1.5 41.44 41.44 0 0 1 21.7 16.9 42 42 0 0 1 63.3 12.3 41.91 41.91 0 0 1 27.8-4.9c.2 0 .5.1.7.1.1-1.3.3-2.5.5-3.8a42.18 42.18 0 0 1 29.5-33.2 41.14 41.14 0 0 1 .5-9.9 42 42 0 0 1 82-3.5 41.92 41.92 0 0 1 24.4-4.4 42 42 0 0 1 78.8 16c1.5.1 3 .3 4.5.5a39.48 39.48 0 0 1 9.6 2.9 42 42 0 0 1 73-13.4 41.9 41.9 0 0 1 18.1-6.1 40.3 40.3 0 0 1 .5-9.2 42 42 0 0 1 47.4-34.5c.1-1.2.2-2.3.4-3.5a42 42 0 0 1 83 1.2 42 42 0 0 1 52.6 27.5 42.35 42.35 0 0 1 12.7-3.2 31.06 31.06 0 0 1 .4-3.2 42.15 42.15 0 0 1 60.4-30.4 42 42 0 0 1 75.3 28.6c1.1.1 2.1.2 3.2.4a42.61 42.61 0 0 1 18.7 8.2 42 42 0 0 1 64.1-9 42.47 42.47 0 0 1 26.2-6.7 42.09 42.09 0 0 1 47-30.8 42.28 42.28 0 0 1 43.6-20.7 41.83 41.83 0 0 1 31.8 25.5 42 42 0 0 1 59.2 21.2 42.35 42.35 0 0 1 27.9-5 43.38 43.38 0 0 1 6.2 1.6 41.36 41.36 0 0 1 .6-7 42.14 42.14 0 0 1 48.4-34.4c1.5.3 3.1.6 4.6 1a42.08 42.08 0 0 1 47.7-30.7 36.49 36.49 0 0 1 5.7 1.4 42 42 0 0 1 71.1 36.7 41.32 41.32 0 0 1-10.1 21 32.17 32.17 0 0 1 3.2 4.1 41.89 41.89 0 0 1 31.7-7.4 43.34 43.34 0 0 1 11.7 3.8 42 42 0 0 1 71.6-5.1 41.36 41.36 0 0 1 7.6 27.6c1.6.1 3.1.3 4.6.5a41.63 41.63 0 0 1 30 21.7 41.87 41.87 0 0 1 18.3-1 40.23 40.23 0 0 1 10.7 3.3 42 42 0 0 1 82.5 3.1 41.53 41.53 0 0 1 16.1-.4 42.07 42.07 0 0 1 27 16.8 41.76 41.76 0 0 1 18.1-6 42 42 0 0 1 81.4-10.3 41 41 0 0 1 19.2-6.7 42 42 0 0 1 77.6-18.1 42.39 42.39 0 0 1 26.7-9.6 44.82 44.82 0 0 1 6.4.5 40.49 40.49 0 0 1-.6-7 42 42 0 0 1 42-42 37.08 37.08 0 0 1 4.7.3 42 42 0 0 1 83.7.4 39.09 39.09 0 0 1 7.6-.7 41.65 41.65 0 0 1 30 12.6 41.65 41.65 0 0 1 30-12.6 40.75 40.75 0 0 1 12.1 1.8 42 42 0 0 1 81.8 9 37.08 37.08 0 0 1 4.7-.3 41.68 41.68 0 0 1 33.2 16.3 42.53 42.53 0 0 1 17.9-4 41.28 41.28 0 0 1 11.1 1.5 42 42 0 0 1 81.8-10.7 42.75 42.75 0 0 1 15.8-3.1 42 42 0 0 1 42 42V870a3.6 3.6 0 0 1-3.7 4Zm-2468.3-8H2747V591.2a34 34 0 0 0-50.5-29.7 3.83 3.83 0 0 1-3.6.1 3.7 3.7 0 0 1-2.2-2.8 34 34 0 0 0-67.3 6.8 27.15 27.15 0 0 0 .1 2.8 4 4 0 0 1-1.7 3.6 3.89 3.89 0 0 1-3.9.4 33 33 0 0 0-13.5-2.8 34 34 0 0 0-17.1 4.6 4 4 0 0 1-5.4-1.3 33.94 33.94 0 0 0-28.6-15.7 32.88 32.88 0 0 0-7.6.9 3.78 3.78 0 0 1-3.4-.8 4.07 4.07 0 0 1-1.5-3.2v-.9a34 34 0 0 0-67.3-6.7 4 4 0 0 1-2.1 2.8 3.71 3.71 0 0 1-3.4.1 34 34 0 0 0-40.1 10.4 3.93 3.93 0 0 1-3.2 1.5 4.25 4.25 0 0 1-3.2-1.5 33.63 33.63 0 0 0-26.8-13.1 32.61 32.61 0 0 0-10.3 1.6 3.88 3.88 0 0 1-3.6-.6 4.42 4.42 0 0 1-1.6-3.4v-1.6a34 34 0 0 0-68 0v.9a4.07 4.07 0 0 1-1.5 3.2 3.85 3.85 0 0 1-3.4.8 32.88 32.88 0 0 0-7.6-.9 34.1 34.1 0 0 0-34 34 32.39 32.39 0 0 0 1.9 11.1 4.13 4.13 0 0 1-.9 4.1 3.91 3.91 0 0 1-4.1 1 34.73 34.73 0 0 0-10.7-1.7A33.83 33.83 0 0 0 2226 606a4 4 0 0 1-3.6 1.2 4.13 4.13 0 0 1-3-2.3 34 34 0 0 0-65.1 13.8 4 4 0 0 1-4 4 34 34 0 0 0-22.6 8.6 3.78 3.78 0 0 1-3.9.8 4.09 4.09 0 0 1-2.7-3 34 34 0 0 0-67.4 6.6 4 4 0 0 1-4 4 33.31 33.31 0 0 0-20.6 7 3.7 3.7 0 0 1-3.2.7 4 4 0 0 1-2.7-1.9 34.15 34.15 0 0 0-40.8-15.2 4.2 4.2 0 0 1-3.6-.5 3.73 3.73 0 0 1-1.7-3.2 34 34 0 0 0-67.5-4.6 21.86 21.86 0 0 0-.3 2.8 4 4 0 0 1-2.2 3.2 4.13 4.13 0 0 1-3.9-.2 31.35 31.35 0 0 0-12.9-5 34.42 34.42 0 0 0-17.7 1.7 4 4 0 0 1-5.1-2.2 34.13 34.13 0 0 0-25.6-20.3 32.9 32.9 0 0 0-7.7-.4 3.7 3.7 0 0 1-3.2-1.4 4.15 4.15 0 0 1-.9-3.4l.1-.4c0-.2.1-.3.1-.5a34 34 0 0 0-27.8-39.2 34.2 34.2 0 0 0-37.5 21.4 4 4 0 0 1-2.5 2.4 4.08 4.08 0 0 1-3.4-.4 34.06 34.06 0 0 0-41.4 3.6 4.21 4.21 0 0 1-3.4 1 4.16 4.16 0 0 1-2.9-2.1 34.08 34.08 0 0 0-7-9 4.11 4.11 0 0 1-1.3-2.9 3.93 3.93 0 0 1 1.3-2.9 34 34 0 1 0-48.4-47.5 4 4 0 0 1-4.5 1.1 31.9 31.9 0 0 0-6.7-1.9 34 34 0 0 0-39.2 27.8c0 .2-.1.3-.1.5v.3a4 4 0 0 1-2 2.9 3.94 3.94 0 0 1-3.5.2 32.74 32.74 0 0 0-7.4-2.1 34 34 0 0 0-39.2 27.8 35.69 35.69 0 0 0 0 11.3 4.17 4.17 0 0 1-1.6 3.9 4 4 0 0 1-4.2.3 33.78 33.78 0 0 0-36.5 3 4.12 4.12 0 0 1-3.7.6 4.06 4.06 0 0 1-2.6-2.8 34 34 0 0 0-52.9-19.1 3.78 3.78 0 0 1-3.7.5 4 4 0 0 1-2.5-2.7 33.94 33.94 0 0 0-63.5-5.7 4 4 0 0 1-4.5 2.2c-.7-.1-1.3-.3-2-.4a34 34 0 0 0-39.2 27.8 4 4 0 0 1-4.6 3.3 33.87 33.87 0 0 0-26.6 6.7 4 4 0 0 1-5.4-.4 33.51 33.51 0 0 0-19.2-10.4 34 34 0 0 0-36.7 19.5 3.81 3.81 0 0 1-2.9 2.3 4.06 4.06 0 0 1-3.5-1.1 33.81 33.81 0 0 0-18.3-9.5 43.42 43.42 0 0 0-6.3-.5 4.1 4.1 0 0 1-3.1-1.4 3.93 3.93 0 0 1-.9-3.3l.1-.5a34 34 0 0 0-62.3-23.7 4.52 4.52 0 0 1-2.5 1.8 4 4 0 0 1-3-.5 32.86 32.86 0 0 0-12.4-4.7 34 34 0 0 0-39.2 27.8 36.57 36.57 0 0 0-.5 5.7 3.63 3.63 0 0 1-1.2 2.8 4.2 4.2 0 0 1-2.8 1.2h-.1a33.35 33.35 0 0 0-17.1 4.7 4 4 0 0 1-6-2.7 34.15 34.15 0 0 0-27.8-27.4 33.47 33.47 0 0 0-20.2 2.8 4 4 0 0 1-3.8-.2 3.9 3.9 0 0 1-1.9-3.4 34 34 0 0 0-67.5-5.6 40.06 40.06 0 0 0-.5 6.9 4.13 4.13 0 0 1-1.5 3.3 3.72 3.72 0 0 1-3.5.7c-1.1-.3-2.1-.5-3.1-.7a34 34 0 0 0-39.2 27.8 37.55 37.55 0 0 0-.1 11.1 4 4 0 0 1-.9 3.2 4.1 4.1 0 0 1-3.1 1.4 34 34 0 0 0-21 7 3.95 3.95 0 0 1-5.8-1 34 34 0 0 0-62.1 12.3 3.81 3.81 0 0 1-2.3 2.9 4 4 0 0 1-3.7-.2 34.6 34.6 0 0 0-11.6-4.3 39.64 39.64 0 0 0-6.8-.5 4.36 4.36 0 0 1-2.9-1.1 3.85 3.85 0 0 1-1.2-2.9 34 34 0 0 0-65-13.9 4 4 0 0 1-4.4 2.3l-.3-.1c-.2 0-.3-.1-.5-.1a34.34 34.34 0 0 0-25.6 5.9 4.1 4.1 0 0 1-4 .4 3.86 3.86 0 0 1-2.3-3.2 34 34 0 0 0-67.3-2.1 36.21 36.21 0 0 0-.1 10.9 4 4 0 0 1-3.2 4.5 34.37 34.37 0 0 0-26.8 27.6 30.39 30.39 0 0 0-.4 7.4 3.87 3.87 0 0 1-1.6 3.4 4 4 0 0 1-3.7.6 46.41 46.41 0 0 0-4.7-1.2 34.11 34.11 0 0 0-25.7 6 4.15 4.15 0 0 1-3.4.6 4 4 0 0 1-2.6-2.3 33.91 33.91 0 0 0-56-10.5 4.12 4.12 0 0 1-3.5 1.2 4 4 0 0 1-3-2.2 33.94 33.94 0 0 0-21.9-18.1 3.94 3.94 0 0 1-3-3.6 34 34 0 0 0-67.4-3.6 36.57 36.57 0 0 0-.5 5.7 3.63 3.63 0 0 1-1.2 2.8 4.2 4.2 0 0 1-2.8 1.2h-.1a33.7 33.7 0 0 0-17.2 4.7 4 4 0 0 1-5.6-1.6 34 34 0 0 0-63.9 9.5 35.34 35.34 0 0 0 0 11.7 3.86 3.86 0 0 1-.5 2.8V866Z"/><path class="cls-5" d="M305 724.4h117.1v180.3H305z"/><path class="cls-2" d="M422.1 908.7H305a4 4 0 0 1-4-4V724.4a4 4 0 0 1 4-4h117.1a4 4 0 0 1 4 4v180.3a4 4 0 0 1-4 4Zm-113.1-8h109.1V728.4H309Z"/><path class="cls-5" d="M422.1 724.4H305l14.7-48h87.6l14.8 48z"/><path class="cls-2" d="M422.1 728.4H305a3.89 3.89 0 0 1-3.2-1.6 3.83 3.83 0 0 1-.6-3.6l14.8-48a4 4 0 0 1 3.8-2.8h87.6a3.87 3.87 0 0 1 3.8 2.8l14.8 48a4.24 4.24 0 0 1-.6 3.6 4.54 4.54 0 0 1-3.3 1.6Zm-111.7-8h106.3l-12.3-40h-81.7Z"/><path class="cls-5" d="M1189 668.7h171v236h-171z"/><path class="cls-2" d="M1360 908.7h-171a4 4 0 0 1-4-4v-236a4 4 0 0 1 4-4h171a4 4 0 0 1 4 4v236a4 4 0 0 1-4 4Zm-167-8h163v-228h-163Z"/><path class="cls-5" d="M1360 668.7h-171l11.5-31h148l11.5 31z"/><path class="cls-2" d="M1360 672.7h-171a4 4 0 0 1-3.8-5.4l11.5-31a4 4 0 0 1 3.8-2.6h148a4 4 0 0 1 3.8 2.6l11.5 31a3.81 3.81 0 0 1-.5 3.7 4 4 0 0 1-3.3 1.7Zm-165.2-8h159.5l-8.5-23h-142.4Z"/><path class="cls-5" d="M1028 686.7h161v218h-161z"/><path class="cls-2" d="M1189 908.7h-161a4 4 0 0 1-4-4v-218a4 4 0 0 1 4-4h161a4 4 0 0 1 4 4v218a4 4 0 0 1-4 4Zm-157-8h153v-210h-153Z"/><path class="cls-5" d="M1028 668.7h161v18h-161z"/><path class="cls-2" d="M1189 690.7h-161a4 4 0 0 1-4-4v-18a4 4 0 0 1 4-4h161a4 4 0 0 1 4 4v18a4 4 0 0 1-4 4Zm-157-8h153v-10h-153Z"/><path class="cls-5" d="M900 718.7h128v186H900z"/><path class="cls-2" d="M1028 908.7H900a4 4 0 0 1-4-4v-186a4 4 0 0 1 4-4h128a4 4 0 0 1 4 4v186a4 4 0 0 1-4 4Zm-124-8h120v-178H904Z"/><path class="cls-5" d="M1028 718.7H900l11-20.5h106l11 20.5z"/><path class="cls-2" d="M1028 722.7H900a3.94 3.94 0 0 1-3.5-5.8l11-20.5a4 4 0 0 1 3.5-2.1h106a3.92 3.92 0 0 1 3.5 2.1l11 20.5a3.94 3.94 0 0 1-3.5 5.8Zm-121.3-8h114.6l-6.7-12.5H913.4Z"/><path class="cls-5" d="M737 668.7h163v236H737z"/><path class="cls-2" d="M900 908.7H737a4 4 0 0 1-4-4v-236a4 4 0 0 1 4-4h163a4 4 0 0 1 4 4v236a4 4 0 0 1-4 4Zm-159-8h155v-228H741Z"/><path class="cls-5" d="M737 633h163v35.7H737z"/><path class="cls-2" d="M900 672.7H737a4 4 0 0 1-4-4V633a4 4 0 0 1 4-4h163a4 4 0 0 1 4 4v35.7a4 4 0 0 1-4 4Zm-159-8h155V637H741Z"/><path class="cls-5" d="M737 619h163v14H737z"/><path class="cls-2" d="M900 637H737a4 4 0 0 1-4-4v-14a4 4 0 0 1 4-4h163a4 4 0 0 1 4 4v14a4 4 0 0 1-4 4Zm-159-8h155v-6H741Z"/><path class="cls-5" d="M804 574.7h29v94h-29z"/><path class="cls-2" d="M833 672.7h-29a4 4 0 0 1-4-4v-94a4 4 0 0 1 4-4h29a4 4 0 0 1 4 4v94a4 4 0 0 1-4 4Zm-25-8h21v-86h-21Z"/><path class="cls-5" d="M737 619h163l-20-26H757l-20 26z"/><path class="cls-2" d="M900 623H737a4.17 4.17 0 0 1-3.6-2.2 4 4 0 0 1 .4-4.2l20-26a4 4 0 0 1 3.2-1.6h123a4.18 4.18 0 0 1 3.2 1.6l20 26a4 4 0 0 1-3.2 6.4Zm-154.9-8h146.8L878 597H759Z"/><path class="cls-5" d="M653 703.7h84v201h-84z"/><path class="cls-2" d="M737 908.7h-84a4 4 0 0 1-4-4v-201a4 4 0 0 1 4-4h84a4 4 0 0 1 4 4v201a4 4 0 0 1-4 4Zm-80-8h76v-193h-76Z"/><path class="cls-5" d="M525 703.7h128v201H525z"/><path class="cls-2" d="M653 908.7H525a4 4 0 0 1-4-4v-201a4 4 0 0 1 4-4h128a4 4 0 0 1 4 4v201a4 4 0 0 1-4 4Zm-124-8h120v-193H529Z"/><path class="cls-5" d="M517.4 682.3h143.2v21.4H517.4z"/><path class="cls-2" d="M660.6 707.7H517.4a4 4 0 0 1-4-4v-21.4a4 4 0 0 1 4-4h143.2a4 4 0 0 1 4 4v21.4a4 4 0 0 1-4 4Zm-139.2-8h135.2v-13.4H521.4Z"/><path class="cls-5" d="M459.9 749H525v155.7h-65.1z"/><path class="cls-2" d="M525 908.7h-65.1a4 4 0 0 1-4-4V749a4 4 0 0 1 4-4H525a4 4 0 0 1 4 4v155.7a4 4 0 0 1-4 4Zm-61.1-8H521V753h-57.1Z"/><path class="cls-5" d="M384.3 777h75.6v127.7h-75.6z"/><path class="cls-2" d="M459.9 908.7h-75.6a4 4 0 0 1-4-4V777a4 4 0 0 1 4-4h75.6a4 4 0 0 1 4 4v127.7a4 4 0 0 1-4 4Zm-71.6-8h67.6V781h-67.6Z"/><path class="cls-5" d="M384.3 777h75.6l-37.8-67.3-37.8 67.3z"/><path class="cls-2" d="M459.9 781h-75.6a4.29 4.29 0 0 1-3.5-2 4.07 4.07 0 0 1 0-4l37.8-67.3a3.84 3.84 0 0 1 3.5-2 4 4 0 0 1 3.5 2l37.8 67.3a4 4 0 0 1-3.5 6Zm-68.8-8H453l-31-55.2Z"/><path class="cls-5" d="M196.2 699H305l-54.4-67.3-54.4 67.3z"/><path class="cls-2" d="M305 703H196.2a4.08 4.08 0 0 1-3.6-2.3 3.8 3.8 0 0 1 .5-4.2l54.4-67.3a4.2 4.2 0 0 1 3.1-1.5 3.75 3.75 0 0 1 3.1 1.5l54.4 67.3a3.8 3.8 0 0 1 .5 4.2 4.08 4.08 0 0 1-3.6 2.3Zm-100.4-8h92l-46-57Z"/><path class="cls-5" d="M305 760.4h79.3v144.3H305z"/><path class="cls-2" d="M384.3 908.7H305a4 4 0 0 1-4-4V760.4a4 4 0 0 1 4-4h79.3a4 4 0 0 1 4 4v144.3a4 4 0 0 1-4 4Zm-75.3-8h71.3V764.4H309Z"/><path class="cls-5" d="M196.2 699H305v205.7H196.2z"/><path class="cls-2" d="M305 908.7H196.2a4 4 0 0 1-4-4V699a4 4 0 0 1 4-4H305a4 4 0 0 1 4 4v205.7a4 4 0 0 1-4 4Zm-104.8-8H301V703H200.2Z"/><path class="cls-5" d="M196.2 622.4H305v76.7H196.2z"/><path class="cls-2" d="M305 703H196.2a4 4 0 0 1-4-4v-76.7a4 4 0 0 1 4-4H305a4 4 0 0 1 4 4V699a4 4 0 0 1-4 4Zm-104.8-8H301v-68.7H200.2Z"/><path class="cls-5" d="M196.2 516.4H305L250.6 259l-54.4 257.4z"/><path class="cls-2" d="M305 520.4H196.2a3.88 3.88 0 0 1-3.1-1.5 3.65 3.65 0 0 1-.8-3.3l54.4-257.4a4.06 4.06 0 0 1 3.9-3.2 4 4 0 0 1 3.9 3.2l54.4 257.4a4 4 0 0 1-3.9 4.8Zm-103.9-8H300l-49.5-234Z"/><path class="cls-5" d="M196.2 610.4h36.2v-94l-18.1-32-18.1 32v94z"/><path class="cls-2" d="M232.4 614.4h-36.3a4 4 0 0 1-4-4v-94a4.55 4.55 0 0 1 .5-2l18.1-32a3.84 3.84 0 0 1 3.5-2 4.16 4.16 0 0 1 3.5 2l18.1 32a4.55 4.55 0 0 1 .5 2v94a3.81 3.81 0 0 1-3.9 4Zm-32.2-8h28.3v-88.9l-14.1-24.9-14.1 24.9-.1 88.9Z"/><path class="cls-5" d="M232.4 610.4h36.3v-94l-18.1-32-18.2 32v94z"/><path class="cls-2" d="M268.7 614.4h-36.3a4 4 0 0 1-4-4v-94a4.55 4.55 0 0 1 .5-2l18.1-32a3.84 3.84 0 0 1 3.5-2 4 4 0 0 1 3.5 2l18.1 32a4.55 4.55 0 0 1 .5 2v94a3.87 3.87 0 0 1-3.9 4Zm-32.3-8h28.3v-88.9l-14.1-24.9-14.1 24.9-.1 88.9Z"/><path class="cls-5" d="M268.7 610.4H305v-94l-18.2-32-18.1 32v94z"/><path class="cls-2" d="M305 614.4h-36.3a4 4 0 0 1-4-4v-94a4.55 4.55 0 0 1 .5-2l18.1-32a3.84 3.84 0 0 1 3.5-2 4.16 4.16 0 0 1 3.5 2l18.1 32a4.55 4.55 0 0 1 .5 2v94a3.87 3.87 0 0 1-3.9 4Zm-32.3-8H301v-88.9l-14.1-24.9-14.1 24.9-.1 88.9Z"/><path class="cls-5" d="M189.4 610.4h122.3v12H189.4z"/><path class="cls-2" d="M311.7 626.4H189.4a4 4 0 0 1-4-4v-12a4 4 0 0 1 4-4h122.3a4 4 0 0 1 4 4v12a4 4 0 0 1-4 4Zm-118.3-8h114.3v-4H193.4Z"/><path class="cls-5" d="M1360 630.4h105v274.3h-105z"/><path class="cls-2" d="M1465 908.7h-105a4 4 0 0 1-4-4V630.4a4 4 0 0 1 4-4h105a4 4 0 0 1 4 4v274.3a4 4 0 0 1-4 4Zm-101-8h97V634.4h-97Z"/><path class="cls-5" d="M1354 615h117v15.3h-117z"/><path class="cls-2" d="M1471 634.4h-117a4 4 0 0 1-4-4V615a4 4 0 0 1 4-4h117a4 4 0 0 1 4 4v15.3a4 4 0 0 1-4 4.1Zm-113-8h109V619h-109Z"/><path class="cls-5" d="M1465 648.4h105v256.3h-105z"/><path class="cls-2" d="M1570 908.7h-105a4 4 0 0 1-4-4V648.4a4 4 0 0 1 4-4h105a4 4 0 0 1 4 4v256.3a4 4 0 0 1-4 4Zm-101-8h97V652.4h-97Z"/><path class="cls-5" d="M1570 621h123v283.7h-123z"/><path class="cls-2" d="M1693 908.7h-123a4 4 0 0 1-4-4V621a4 4 0 0 1 4-4h123a4 4 0 0 1 4 4v283.7a4 4 0 0 1-4 4Zm-119-8h115V625h-115Z"/><path class="cls-5" d="M1570 603.7h123V621h-123z"/><path class="cls-2" d="M1693 625h-123a4 4 0 0 1-4-4v-17.3a4 4 0 0 1 4-4h123a4 4 0 0 1 4 4V621a4 4 0 0 1-4 4Zm-119-8h115v-9.3h-115Z"/><path class="cls-5" d="M1693 725.7h232v179h-232z"/><path class="cls-2" d="M1925 908.7h-232a4 4 0 0 1-4-4v-179a4 4 0 0 1 4-4h232a4 4 0 0 1 4 4v179a4 4 0 0 1-4 4Zm-228-8h224v-171h-224Z"/><path class="cls-5" d="M1693 710.4h232v15.3h-232z"/><path class="cls-2" d="M1925 729.7h-232a4 4 0 0 1-4-4v-15.3a4 4 0 0 1 4-4h232a4 4 0 0 1 4 4v15.3a4 4 0 0 1-4 4Zm-228-8h224v-7.3h-224Z"/><path class="cls-5" d="M1731.7 683.7h32v26.7h-32z"/><path class="cls-2" d="M1763.7 714.4h-32a4 4 0 0 1-4-4v-26.7a4 4 0 0 1 4-4h32a4 4 0 0 1 4 4v26.7a4 4 0 0 1-4 4Zm-28-8h24v-18.7h-24Z"/><path class="cls-5" d="M1793 683.7h32v26.7h-32z"/><path class="cls-2" d="M1825 714.4h-32a4 4 0 0 1-4-4v-26.7a4 4 0 0 1 4-4h32a4 4 0 0 1 4 4v26.7a4 4 0 0 1-4 4Zm-28-8h24v-18.7h-24Z"/><path class="cls-5" d="M1854.3 683.7h32v26.7h-32z"/><path class="cls-2" d="M1886.3 714.4h-32a4 4 0 0 1-4-4v-26.7a4 4 0 0 1 4-4h32a4 4 0 0 1 4 4v26.7a4 4 0 0 1-4 4Zm-28-8h24v-18.7h-24Z"/><path class="cls-5" d="M1925 675.7h277.3v229H1925z"/><path class="cls-2" d="M2202.3 908.7H1925a4 4 0 0 1-4-4v-229a4 4 0 0 1 4-4h277.3a4 4 0 0 1 4 4v229a4 4 0 0 1-4 4Zm-273.3-8h269.3v-221H1929Z"/><path class="cls-5" d="M2202.3 675.7H1925V655l138.7-12 138.6 12v20.7z"/><path class="cls-2" d="M2202.3 679.7H1925a4 4 0 0 1-4-4V655a4 4 0 0 1 3.7-4l138.7-12h.7l138.7 12a4 4 0 0 1 3.7 4v20.7a4.33 4.33 0 0 1-4.2 4Zm-273.3-8h269.3v-13L2063.6 647 1929 658.7Z"/><path class="cls-5" d="M2202.3 634.7H2375v270h-172.7z"/><path class="cls-2" d="M2375 908.7h-172.7a4 4 0 0 1-4-4v-270a4 4 0 0 1 4-4H2375a4 4 0 0 1 4 4v270a4 4 0 0 1-4 4Zm-168.7-8H2371v-262h-164.7Z"/><path class="cls-5" d="M2668 580.7h83v324h-83z"/><path class="cls-2" d="M2751 908.7h-83a4 4 0 0 1-4-4v-324a4 4 0 0 1 4-4h83a4 4 0 0 1 4 4v324a4 4 0 0 1-4 4Zm-79-8h75v-316h-75Z"/><path class="cls-5" d="M2375 580.7h83v324h-83z"/><path class="cls-2" d="M2458 908.7h-83a4 4 0 0 1-4-4v-324a4 4 0 0 1 4-4h83a4 4 0 0 1 4 4v324a4 4 0 0 1-4 4Zm-79-8h75v-316h-75Z"/><path class="cls-5" d="M2668 545h83v35.7h-83z"/><path class="cls-2" d="M2751 584.7h-83a4 4 0 0 1-4-4V545a4 4 0 0 1 4-4h83a4 4 0 0 1 4 4v35.7a4 4 0 0 1-4 4Zm-79-8h75V549h-75Z"/><path class="cls-5" d="M2375 545h83v35.7h-83z"/><path class="cls-2" d="M2458 584.7h-83a4 4 0 0 1-4-4V545a4 4 0 0 1 4-4h83a4 4 0 0 1 4 4v35.7a4 4 0 0 1-4 4Zm-79-8h75V549h-75Z"/><path class="cls-5" d="M2416.5 503.2 2458 545h-83l41.5-41.8z"/><path class="cls-2" d="M2458 549h-83a4 4 0 0 1-2.8-6.9l41.5-41.8a4 4 0 0 1 2.8-1.2 3.78 3.78 0 0 1 2.8 1.2l41.5 41.8a4.18 4.18 0 0 1 .9 4.4 4 4 0 0 1-3.7 2.5Zm-73.4-8h63.8l-31.9-32.2Z"/><path class="cls-5" d="M2709.5 503.2 2751 545h-83l41.5-41.8z"/><path class="cls-2" d="M2751 549h-83a4 4 0 0 1-2.8-6.9l41.5-41.8a4 4 0 0 1 2.8-1.2 3.78 3.78 0 0 1 2.8 1.2l41.5 41.8a4.18 4.18 0 0 1 .9 4.4 4 4 0 0 1-3.7 2.5Zm-73.4-8h63.8l-31.9-32.2Z"/><path class="cls-5" d="M2458 580.7h210v324h-210z"/><path class="cls-2" d="M2668 908.7h-210a4 4 0 0 1-4-4v-324a4 4 0 0 1 4-4h210a4 4 0 0 1 4 4v324a4 4 0 0 1-4 4Zm-206-8h202v-316h-202Z"/><path class="cls-5" d="M2458 545h210v35.7h-210z"/><path class="cls-2" d="M2668 584.7h-210a4 4 0 0 1-4-4V545a4 4 0 0 1 4-4h210a4 4 0 0 1 4 4v35.7a4 4 0 0 1-4 4Zm-206-8h202V549h-202Z"/><path class="cls-5" d="M2585.7 580.7h-41.3V555a20.74 20.74 0 0 1 20.7-20.7 20.74 20.74 0 0 1 20.7 20.7l-.1 25.7Z"/><path class="cls-2" d="M2585.7 584.7h-41.3a4 4 0 0 1-4-4V555a24.7 24.7 0 0 1 49.4 0v25.7a4.17 4.17 0 0 1-4.1 4Zm-37.4-8h33.3V555a16.7 16.7 0 1 0-33.4 0l.1 21.7Z"/><path class="cls-5" d="M2645.7 580.7h-41.3V555a20.74 20.74 0 0 1 20.7-20.7 20.74 20.74 0 0 1 20.7 20.7l-.1 25.7Z"/><path class="cls-2" d="M2645.7 584.7h-41.3a4 4 0 0 1-4-4V555a24.7 24.7 0 0 1 49.4 0v25.7a4.17 4.17 0 0 1-4.1 4Zm-37.4-8h33.3V555a16.7 16.7 0 1 0-33.4 0l.1 21.7Z"/><path class="cls-5" d="M2525.7 580.7h-41.3V555a20.74 20.74 0 0 1 20.7-20.7 20.74 20.74 0 0 1 20.7 20.7l-.1 25.7Z"/><path class="cls-2" d="M2525.7 584.7h-41.3a4 4 0 0 1-4-4V555a24.7 24.7 0 0 1 49.4 0v25.7a4.17 4.17 0 0 1-4.1 4Zm-37.4-8h33.3V555a16.7 16.7 0 1 0-33.4 0l.1 21.7Zm-527.2 127.8h8V728h-8zm28.1 0h8V728h-8zm28.2 0h8V728h-8zm28.2 0h8V728h-8zm28.2 0h8V728h-8zm28.1 0h8V728h-8zm28.2 0h8V728h-8zm28.1 0h8V728h-8zm-197.1 49.3h8v23.5h-8zm28.1 0h8v23.5h-8zm28.2 0h8v23.5h-8zm28.2 0h8v23.5h-8zm28.2 0h8v23.5h-8zm28.1 0h8v23.5h-8zm28.2 0h8v23.5h-8zm28.1 0h8v23.5h-8zm-197.1 49.3h8v23.5h-8zm28.1 0h8v23.5h-8zm28.2 0h8v23.5h-8zm28.2 0h8v23.5h-8zm28.2 0h8v23.5h-8zm28.1 0h8v23.5h-8zm28.2 0h8v23.5h-8zm28.1 0h8v23.5h-8zm-197.1 49.4h8V876h-8zm28.1 0h8V876h-8zm28.2 0h8V876h-8zm28.2 0h8V876h-8zm28.2 0h8V876h-8zm28.1 0h8V876h-8zm28.2 0h8V876h-8zm28.1 0h8V876h-8zm-423.6-98.4h8v23.5h-8zm28.2 0h8v23.5h-8zm28.1 0h8v23.5h-8zm28.2 0h8v23.5h-8zm28.1 0h8v23.5h-8zm28.2 0h8v23.5h-8zm-140.8 49.4h8V827h-8zm28.2 0h8V827h-8zm28.1 0h8V827h-8zm28.2 0h8V827h-8zm28.1 0h8V827h-8zm28.2 0h8V827h-8zm-140.8 49.3h8v23.5h-8zm28.2 0h8v23.5h-8zm28.1 0h8v23.5h-8zm28.2 0h8v23.5h-8zm28.1 0h8v23.5h-8zm28.2 0h8v23.5h-8zm352.9-193.5h8v23.5h-8zm28.2 0h8v23.5h-8zm28.2 0h8v23.5h-8zm28.1 0h8v23.5h-8zm28.2 0h8v23.5h-8zm-112.7 49.3h8v23.5h-8zm28.2 0h8v23.5h-8zm28.2 0h8v23.5h-8zm28.1 0h8v23.5h-8zm28.2 0h8v23.5h-8zM2228.3 758h8v23.5h-8zm28.2 0h8v23.5h-8zm28.2 0h8v23.5h-8zm28.1 0h8v23.5h-8zm28.2 0h8v23.5h-8zm-112.7 49.3h8v23.5h-8zm28.2 0h8v23.5h-8zm28.2 0h8v23.5h-8zm28.1 0h8v23.5h-8zm28.2 0h8v23.5h-8zm-112.7 49.3h8v23.5h-8zm28.2 0h8v23.5h-8zm28.2 0h8v23.5h-8zm28.1 0h8v23.5h-8zm28.2 0h8v23.5h-8zm161.7-224.3h8v23.5h-8zm28.1 0h8v23.5h-8zm28.2 0h8v23.5h-8zm28.2 0h8v23.5h-8zm28.1 0h8v23.5h-8zm-112.6 49.3h8v23.5h-8zm28.1 0h8v23.5h-8zm28.2 0h8v23.5h-8zm28.2 0h8v23.5h-8zm28.1 0h8v23.5h-8zM2502.7 731h8v23.5h-8zm28.1 0h8v23.5h-8zm28.2 0h8v23.5h-8zm28.2 0h8v23.5h-8zm28.1 0h8v23.5h-8zm-112.6 49.3h8v23.5h-8zm28.1 0h8v23.5h-8zm28.2 0h8v23.5h-8zm28.2 0h8v23.5h-8zm28.1 0h8v23.5h-8zm-112.6 49.3h8v23.5h-8zm28.1 0h8v23.5h-8zm28.2 0h8v23.5h-8zm28.2 0h8v23.5h-8zm28.1 0h8v23.5h-8zM1228.2 701h8v23.5h-8zm28.2 0h8v23.5h-8zm28.2 0h8v23.5h-8zm28.2 0h8v23.5h-8zm-84.6 49.3h8v23.5h-8zm28.2 0h8v23.5h-8zm28.2 0h8v23.5h-8zm28.2 0h8v23.5h-8zm-84.6 49.3h8v23.5h-8zm28.2 0h8v23.5h-8zm28.2 0h8v23.5h-8zm28.2 0h8v23.5h-8zm-84.6 49.4h8v23.5h-8zm28.2 0h8v23.5h-8zm28.2 0h8v23.5h-8zm28.2 0h8v23.5h-8zM772.3 701h8v23.5h-8zm28.1 0h8v23.5h-8zm28.2 0h8v23.5h-8zm28.2 0h8v23.5h-8zm-84.5 49.3h8v23.5h-8zm28.1 0h8v23.5h-8zm28.2 0h8v23.5h-8zm28.2 0h8v23.5h-8zm-84.5 49.3h8v23.5h-8zm28.1 0h8v23.5h-8zm28.2 0h8v23.5h-8zm28.2 0h8v23.5h-8zM772.3 849h8v23.5h-8zm28.1 0h8v23.5h-8zm28.2 0h8v23.5h-8zm28.2 0h8v23.5h-8zm205.4-139h8v23.5h-8zm28.2 0h8v23.5h-8zm28.2 0h8v23.5h-8zm28.2 0h8v23.5h-8zm-84.6 49.3h8v23.5h-8zm28.2 0h8v23.5h-8zm28.2 0h8v23.5h-8zm28.2 0h8v23.5h-8zm-84.6 49.3h8v23.5h-8zm28.2 0h8v23.5h-8zm28.2 0h8v23.5h-8zm28.2 0h8v23.5h-8zm-84.6 49.4h8v23.5h-8zm28.2 0h8v23.5h-8zm28.2 0h8v23.5h-8zm28.2 0h8v23.5h-8zm-590-114.9h8v23.5h-8zm28.2 0h8v23.5h-8zm28.2 0h8v23.5h-8zm-56.4 49.4h8V816h-8zm28.2 0h8V816h-8zm28.2 0h8V816h-8zm-56.4 49.3h8v23.5h-8zm28.2 0h8v23.5h-8zm28.2 0h8v23.5h-8zm-394.8-101h8v23.5h-8zm28.2 0h8v23.5h-8zm28.1 0h8v23.5h-8zm-56.3 49.3h8v23.5h-8zm28.2 0h8v23.5h-8zm28.1 0h8v23.5h-8zm-56.3 49.4h8V863h-8zm28.2 0h8V863h-8zm28.1 0h8V863h-8zM218.4 649h8v23.5h-8zm28.2 0h8v23.5h-8zm28.1 0h8v23.5h-8zm1324.6 3.5h8V676h-8zm28.2 0h8V676h-8zm28.2 0h8V676h-8zm-56.4 49.3h8v23.5h-8zm28.2 0h8v23.5h-8zm28.2 0h8v23.5h-8zm-56.4 49.3h8v23.5h-8zm28.2 0h8v23.5h-8zm28.2 0h8v23.5h-8zm-56.4 49.4h8V824h-8zm28.2 0h8V824h-8zm28.2 0h8V824h-8zm-56.4 49.3h8v23.5h-8zm28.2 0h8v23.5h-8zm28.2 0h8v23.5h-8zm-261.3-192.7h8v23.5h-8zm28.2 0h8v23.5h-8zm-28.2 49.4h8V730h-8zm28.2 0h8V730h-8zm-28.2 49.3h8v23.5h-8zm28.2 0h8v23.5h-8zm-28.2 49.3h8v23.5h-8zm28.2 0h8v23.5h-8zm-28.2 49.4h8V878h-8zm28.2 0h8V878h-8zm989.9-222.2h8v23.5h-8zm0 49.3h8v23.5h-8zm0 49.4h8v23.5h-8zm0 49.3h8v23.5h-8zm0 49.3h8v23.5h-8zm293-197.3h8v23.5h-8zm0 49.3h8v23.5h-8zm0 49.4h8v23.5h-8zm0 49.3h8v23.5h-8zm0 49.3h8v23.5h-8zm-1773.7-79h8v23.5h-8zm28.2 0h8v23.5h-8zm28.2 0h8v23.5h-8zM931.8 800h8v23.5h-8zm28.2 0h8v23.5h-8zm28.2 0h8v23.5h-8zm-56.4 49.3h8v23.5h-8zm28.2 0h8v23.5h-8zm28.2 0h8v23.5h-8zM676.9 743.1h8v23.5h-8zm28.2 0h8v23.5h-8zm-28.2 49.4h8V816h-8zm28.2 0h8V816h-8zm-28.2 49.3h8v23.5h-8zm28.2 0h8v23.5h-8zM404 804.5h8V828h-8zm28.1 0h8V828h-8zM404 853.8h8v23.5h-8zm28.1 0h8v23.5h-8zm-91.5-57.7h8v23.5h-8zm0 49.4h8V869h-8z"/><path class="cls-5" d="M79.1 724.4h117.1v180.3H79.1z"/><path class="cls-2" d="M196.2 908.7H79.1a4 4 0 0 1-4-4V724.4a4 4 0 0 1 4-4h117.1a4 4 0 0 1 4 4v180.3a4 4 0 0 1-4 4Zm-113.1-8h109.1V728.4H83.1Z"/><path class="cls-5" d="M79.1 724.4h117.1l-14.8-48H93.9l-14.8 48z"/><path class="cls-2" d="M196.2 728.4H79.1a3.89 3.89 0 0 1-3.2-1.6 3.83 3.83 0 0 1-.6-3.6l14.8-48a4 4 0 0 1 3.8-2.8h87.6a3.87 3.87 0 0 1 3.8 2.8l14.8 48a4.24 4.24 0 0 1-.6 3.6 4.37 4.37 0 0 1-3.3 1.6Zm-111.7-8h106.3l-12.3-40H96.8Z"/><path class="cls-5" d="M41.3 777h75.6v127.7H41.3z"/><path class="cls-2" d="M116.9 908.7H41.3a4 4 0 0 1-4-4V777a4 4 0 0 1 4-4h75.6a4 4 0 0 1 4 4v127.7a4 4 0 0 1-4 4Zm-71.6-8h67.6V781H45.3Z"/><path class="cls-5" d="M116.9 777H41.3l37.8-67.3 37.8 67.3z"/><path class="cls-2" d="M116.9 781H41.3a4.29 4.29 0 0 1-3.5-2 4.07 4.07 0 0 1 0-4l37.8-67.3a3.84 3.84 0 0 1 3.5-2 4 4 0 0 1 3.5 2l37.8 67.3a4 4 0 0 1-3.5 6Zm-68.8-8H110l-31-55.2Z"/><path class="cls-5" d="M116.9 760.4h79.3v144.3h-79.3z"/><path class="cls-2" d="M196.2 908.7h-79.3a4 4 0 0 1-4-4V760.4a4 4 0 0 1 4-4h79.3a4 4 0 0 1 4 4v144.3a4 4 0 0 1-4 4Zm-75.3-8h71.3V764.4h-71.3Zm-31.7-96.2h8V828h-8zm-28.2 0h8V828h-8zm28.2 49.3h8v23.5h-8zm-28.2 0h8v23.5h-8z"/><path class="cls-2" d="M152.5 796.1h8v23.5h-8zm0 49.4h8V869h-8zm335.9-79.7h8v23.5h-8zm0 49.3h8v23.5h-8zm0 49.4h8V888h-8zm1011-173.7h8v23.5h-8zm28.2 0h8v23.5h-8zm-28.2 49.3h8v23.5h-8zm28.2 0h8v23.5h-8zm-28.2 49.4h8V813h-8zm28.2 0h8V813h-8zm-28.2 49.3h8v23.5h-8zm28.2 0h8v23.5h-8z"/><path class="cls-5" d="M2231.6 245.1a23 23 0 0 0-8.2 1.6c-7.7-12.8-20.1-21.1-34.1-21.1-15.6 0-29.1 10.2-36.5 25.5a23.14 23.14 0 0 0-15.2-5.9c-14.5 0-26.3 14.3-26.3 32h146.5c.1-17.8-11.6-32.1-26.2-32.1Z"/><path class="cls-2" d="M2257.9 281.1h-146.5a4 4 0 0 1-4-4c0-19.9 13.6-36 30.3-36a26.67 26.67 0 0 1 13.9 4c8.6-14.6 22.8-23.5 37.8-23.5 13.9 0 27.1 7.6 35.8 20.4a28.21 28.21 0 0 1 6.5-.8c16.7 0 30.3 16.1 30.3 36a4.15 4.15 0 0 1-4.1 3.9Zm-142.3-8h138.1c-1.5-13.6-10.8-24-22-24a17.37 17.37 0 0 0-6.7 1.3 4 4 0 0 1-4.9-1.7c-7.3-12.2-18.5-19.2-30.7-19.2-13.4 0-26 8.9-32.9 23.2a4.18 4.18 0 0 1-2.8 2.2 3.83 3.83 0 0 1-3.4-.9 19.22 19.22 0 0 0-12.6-4.9c-11.2 0-20.5 10.4-22.1 24Z"/><path class="cls-5" d="M1678.5 172.9a23 23 0 0 0-8.2 1.6c-7.7-12.8-20.1-21.1-34.1-21.1-15.6 0-29.1 10.2-36.5 25.5a23.14 23.14 0 0 0-15.2-5.9c-14.5 0-26.3 14.3-26.3 32h146.5c.1-17.7-11.7-32.1-26.2-32.1Z"/><path class="cls-2" d="M1704.8 208.9h-146.5a4 4 0 0 1-4-4c0-19.9 13.6-36 30.3-36a26.67 26.67 0 0 1 13.9 4c8.6-14.6 22.8-23.5 37.8-23.5 13.9 0 27.1 7.6 35.8 20.4a28.21 28.21 0 0 1 6.5-.8c16.7 0 30.3 16.1 30.3 36a4.15 4.15 0 0 1-4.1 3.9Zm-142.3-8h138.1c-1.5-13.6-10.8-24-22-24a17.37 17.37 0 0 0-6.7 1.3 4 4 0 0 1-4.9-1.7c-7.3-12.2-18.5-19.2-30.7-19.2-13.4 0-26 8.9-32.9 23.2a4.18 4.18 0 0 1-2.8 2.2 3.83 3.83 0 0 1-3.4-.9 19.22 19.22 0 0 0-12.6-4.9c-11.3 0-20.6 10.5-22.1 24Z"/><path class="cls-5" d="M2417.3 68.7a23 23 0 0 0-8.2 1.6c-7.7-12.8-20.1-21.1-34.1-21.1-15.6 0-29.1 10.2-36.5 25.5a23.14 23.14 0 0 0-15.2-5.9c-14.5 0-26.3 14.3-26.3 32h146.5c0-17.7-11.7-32.1-26.2-32.1Z"/><path class="cls-2" d="M2443.5 104.7H2297a4 4 0 0 1-4-4c0-19.9 13.6-36 30.3-36a26.67 26.67 0 0 1 13.9 4c8.6-14.6 22.8-23.5 37.8-23.5 13.9 0 27.1 7.6 35.8 20.4a28.21 28.21 0 0 1 6.5-.8c16.7 0 30.3 16.1 30.3 36a4.15 4.15 0 0 1-4.1 3.9Zm-142.3-8h138.1c-1.5-13.6-10.8-24-22-24a17.37 17.37 0 0 0-6.7 1.3 4 4 0 0 1-4.9-1.7c-7.2-12-18.7-19.2-30.7-19.2-13.4 0-26 8.9-32.9 23.2a4.18 4.18 0 0 1-2.8 2.2 3.83 3.83 0 0 1-3.4-.9 19.22 19.22 0 0 0-12.6-4.9c-11.2 0-20.5 10.5-22.1 24Z"/><path class="cls-5" d="M599.5 270.8a23 23 0 0 0-8.2 1.6c-7.7-12.8-20.1-21.1-34.1-21.1-15.6 0-29.1 10.2-36.5 25.5a23.14 23.14 0 0 0-15.2-5.9c-14.5 0-26.3 14.3-26.3 32h146.5c.1-17.7-11.7-32.1-26.2-32.1Z"/><path class="cls-2" d="M625.8 306.8H479.3a4 4 0 0 1-4-4c0-19.9 13.6-36 30.3-36a26.67 26.67 0 0 1 13.9 4c8.6-14.6 22.8-23.5 37.8-23.5 13.9 0 27.1 7.6 35.8 20.4a28.21 28.21 0 0 1 6.5-.8c16.7 0 30.3 16.1 30.3 36a4.15 4.15 0 0 1-4.1 3.9Zm-142.3-8h138.1c-1.5-13.6-10.8-24-22-24a17.37 17.37 0 0 0-6.7 1.3 4 4 0 0 1-4.9-1.7c-7.3-12.2-18.5-19.2-30.7-19.2-13.4 0-26 8.9-32.9 23.2a4.18 4.18 0 0 1-2.8 2.2 3.83 3.83 0 0 1-3.4-.9 19.22 19.22 0 0 0-12.6-4.9c-11.3 0-20.6 10.5-22.1 24Z"/><path class="cls-5" d="M329.1 81.8a23 23 0 0 0-8.2 1.6c-7.7-12.8-20.1-21.1-34.1-21.1-15.6 0-29.1 10.2-36.5 25.5a23.14 23.14 0 0 0-15.2-5.9c-14.5 0-26.3 14.3-26.3 32h146.5c.1-17.8-11.7-32.1-26.2-32.1Z"/><path class="cls-2" d="M355.4 117.8H208.8a4 4 0 0 1-4-4c0-19.9 13.6-36 30.3-36a26.67 26.67 0 0 1 13.9 4c8.6-14.6 22.8-23.5 37.8-23.5 13.9 0 27.1 7.6 35.8 20.4a28.21 28.21 0 0 1 6.5-.8c16.7 0 30.3 16.1 30.3 36a4 4 0 0 1-4 3.9Zm-142.3-8h138.1c-1.5-13.6-10.8-24-22-24a17.37 17.37 0 0 0-6.7 1.3 4 4 0 0 1-4.9-1.7c-7.3-12.2-18.5-19.2-30.7-19.2-13.4 0-26 8.9-32.9 23.2a4.18 4.18 0 0 1-2.8 2.2 3.83 3.83 0 0 1-3.4-.9 19.22 19.22 0 0 0-12.6-4.9c-11.3 0-20.6 10.5-22.1 24Z"/><path class="cls-5" d="M1091.6 219.3a23 23 0 0 0-8.2 1.6c-7.7-12.8-20.1-21.1-34.1-21.1-15.6 0-29.1 10.2-36.5 25.5a23.14 23.14 0 0 0-15.2-5.9c-14.5 0-26.3 14.3-26.3 32h146.5c.1-17.8-11.7-32.1-26.2-32.1Z"/><path class="cls-2" d="M1117.9 255.3H971.4a4 4 0 0 1-4-4c0-19.9 13.6-36 30.3-36a26.67 26.67 0 0 1 13.9 4c8.6-14.6 22.8-23.5 37.8-23.5 13.9 0 27.1 7.6 35.8 20.4a28.21 28.21 0 0 1 6.5-.8c16.7 0 30.3 16.1 30.3 36a4.15 4.15 0 0 1-4.1 3.9Zm-142.3-8h138.1c-1.5-13.6-10.8-24-22-24a17.37 17.37 0 0 0-6.7 1.3 4 4 0 0 1-4.9-1.7c-7.2-12-18.7-19.2-30.7-19.2-13.4 0-26 8.9-32.9 23.2a4.18 4.18 0 0 1-2.8 2.2 3.83 3.83 0 0 1-3.4-.9 19.22 19.22 0 0 0-12.6-4.9c-11.3 0-20.5 10.4-22.1 24Z"/><circle class="cls-5" cx="1400" cy="75" r="71"/><path class="cls-2" d="M1400 150a75 75 0 1 1 75-75 75 75 0 0 1-75 75Zm0-142a67 67 0 1 0 67 67 67.13 67.13 0 0 0-67-67ZM0 900.7h2800v8H0zm0 20h2800v8H0z"/></svg>