<svg version="1.1" id="Calque_1" xmlns="http://www.w3.org/2000/svg" x="0" y="0" viewBox="-599 686 800 600" style="enable-background:new -599 686 800 600" xml:space="preserve"><style>.st1{fill:#f6f6f6}</style><path d="M42.7 1217.4h-495.4c-1.3 0-2.3-1-2.3-2.3V756.9c0-1.3 1-2.3 2.3-2.3H54.7c1.3 0 2.3 1 2.3 2.3v446.2c0 8-6.4 14.3-14.3 14.3z" style="fill:#fff;stroke:#7f00ff;stroke-width:5;stroke-miterlimit:10"/><path id="XMLID_5_" class="st1" d="M-410 860.3h235.6v19.5H-410z"/><path id="XMLID_1_" class="st1" d="M-410 895.2h394.1v18.2H-410z"/><path id="XMLID_2_" class="st1" d="M-410 922.8h304v20.3h-304z"/><path id="XMLID_3_" class="st1" d="M-410 952.8h358.2v19.9H-410z"/><path d="M-455 812H57m-512 214.1H57m-512 64H57m-512 61.2H57" style="fill:none;stroke:#7f00ff;stroke-width:5;stroke-miterlimit:10"/><path d="M12.5 1060.8H-7.9m10.2 10.3v-20.4m7.2-259.5-14.4-14.4m0 14.4 14.4-14.4m3.2 344H-7.7m10.2 10.3v-20.4m10 70.6H-7.9m10.2 10.1v-20.3" style="stroke-linecap:round;fill:none;stroke:#7f00ff;stroke-width:5;stroke-miterlimit:10"/></svg>