<svg xmlns="http://www.w3.org/2000/svg" viewBox="-599 686 800 600" style="enable-background:new -599 686 800 600" xml:space="preserve"><path d="M-327.5 966.7h-166.1c-1.6 0-2.9-1.3-2.9-2.9v-166c0-1.6 1.3-2.9 2.9-2.9h166.1c1.6 0 2.9 1.3 2.9 2.9v166.1c0 1.5-1.3 2.8-2.9 2.8zm211.5 0h-166c-1.6 0-2.9-1.3-2.9-2.9v-166c0-1.6 1.3-2.9 2.9-2.9h166c1.6 0 2.9 1.3 2.9 2.9v166.1c0 1.5-1.3 2.8-2.9 2.8zm211.6 0H-70.5c-1.6 0-2.9-1.3-2.9-2.9v-166c0-1.6 1.3-2.9 2.9-2.9H95.6c1.6 0 2.9 1.3 2.9 2.9v166.1c0 1.5-1.3 2.8-2.9 2.8zm-423.1 210.4h-166.1c-1.6 0-2.9-1.3-2.9-2.9v-166c0-1.6 1.3-2.9 2.9-2.9h166.1c1.6 0 2.9 1.3 2.9 2.9v166.1c0 1.5-1.3 2.8-2.9 2.8zm211.5 0h-166c-1.6 0-2.9-1.3-2.9-2.9v-166c0-1.6 1.3-2.9 2.9-2.9h166c1.6 0 2.9 1.3 2.9 2.9v166.1c0 1.5-1.3 2.8-2.9 2.8zm211.6 0H-70.5c-1.6 0-2.9-1.3-2.9-2.9v-166c0-1.6 1.3-2.9 2.9-2.9H95.6c1.6 0 2.9 1.3 2.9 2.9v166.1c0 1.5-1.3 2.8-2.9 2.8z" style="fill:#fff;stroke:#7f00ff;stroke-width:5;stroke-miterlimit:10"/></svg>