<svg version="1.1" id="Calque_1" xmlns="http://www.w3.org/2000/svg" x="0" y="0" viewBox="-599 686 800 600" style="enable-background:new -599 686 800 600" xml:space="preserve"><style>.st0{fill:#fff;stroke:#7f00ff;stroke-width:5;stroke-miterlimit:10}.st1{fill:#f6f6f6}</style><path id="XMLID_1_" class="st0" d="M-5.7 1226.5h-386.5c-9.8 0-17.8-7.9-17.8-17.8V763.3c0-9.8 7.9-17.8 17.8-17.8H-5.7c9.8 0 17.8 7.9 17.8 17.8v445.5c-.1 9.8-8 17.7-17.8 17.7z"/><circle id="XMLID_2_" class="st0" cx="-199" cy="840.4" r="54.5"/><path id="XMLID_3_" class="st0" d="M-125.5 1186h-147c-21.8 0-39.5-17.7-39.5-39.5s17.7-39.5 39.5-39.5h147c21.8 0 39.5 17.7 39.5 39.5s-17.7 39.5-39.5 39.5z"/><path id="XMLID_5_" class="st1" d="M-332 947.8h267v33h-267z"/><path id="XMLID_7_" class="st1" d="M-296.5 1006.3h195v33h-195z"/></svg>