<svg version="1.1" id="Calque_1" xmlns="http://www.w3.org/2000/svg" x="0" y="0" viewBox="94 97 800 600" style="enable-background:new 94 97 800 600" xml:space="preserve"><style>.st0{fill:#fff;stroke:#7f00ff;stroke-width:5;stroke-miterlimit:10}</style><path class="st0" d="M782.5 627h-577c-9.9 0-18-8.1-18-18V185c0-9.9 8.1-18 18-18h577c9.9 0 18 8.1 18 18v424c0 9.9-8.1 18-18 18zm-595-402h613"/><path d="M439 346.3h31.6V366H439zm-76.1 0h31.6V366h-31.6zm153.2 0h31.6V366h-31.6zm77.2 0h31.6V366h-31.6zM439 416.1h31.6v19.7H439zm-76.1 0h31.6v19.7h-31.6zm153.2 0h31.6v19.7h-31.6zm77.2 0h31.6v19.7h-31.6zM439 485.4h31.6v19.7H439zm-76.1 0h31.6v19.7h-31.6zm153.2 0h31.6v19.7h-31.6zm77.2 0h31.6v19.7h-31.6zm75.1-139.1H700V366h-31.6zm0 69.8H700v19.7h-31.6zm0 69.3H700v19.7h-31.6zM288 346.3h31.6V366H288zm151-60.8h31.6v19.7H439zm-76.1 0h31.6v19.7h-31.6zm153.2 0h31.6v19.7h-31.6zm77.2 0h31.6v19.7h-31.6zm75.1 0H700v19.7h-31.6zm-380.4 0h31.6v19.7H288zm151 259.3h31.6v19.7H439zm-76.1 0h31.6v19.7h-31.6zm153.2 0h31.6v19.7h-31.6zm77.2 0h31.6v19.7h-31.6zm75.1 0H700v19.7h-31.6zm-380.4 0h31.6v19.7H288zm0-128.7h31.6v19.7H288zm0 69.3h31.6v19.7H288z" style="fill:#efefef"/><path d="m222.2 204.3-9.3-9.3 9.3-9.2m540 0 9.3 9.2-9.3 9.3" style="fill:#fff;stroke:#7f00ff;stroke-width:5;stroke-linecap:round;stroke-linejoin:round;stroke-miterlimit:10"/><circle class="st0" cx="532.1" cy="355" r="16"/></svg>