<svg version="1.1" id="Calque_1" xmlns="http://www.w3.org/2000/svg" x="0" y="0" viewBox="-399 -106 800 600" style="enable-background:new -399 -106 800 600" xml:space="preserve"><style>.st0{fill:#fff;stroke:#7f00ff;stroke-width:5;stroke-miterlimit:10}.st1{fill:#f6f6f6}.st2{fill:none;stroke:#7f00ff;stroke-width:5;stroke-miterlimit:10}</style><path class="st0" d="M-121.3 346h-244.1c-7.9 0-14.3-6.4-14.3-14.3V56.3c0-7.9 6.4-14.3 14.3-14.3h244.1c7.9 0 14.3 6.4 14.3 14.3v275.3c.1 8-6.4 14.4-14.3 14.4z"/><path id="XMLID_3_" class="st1" d="M-319.8 147.7h160.6V159h-160.6z"/><path id="XMLID_4_" class="st1" d="M-345.3 188.3h211.6v11.3h-211.6z"/><path id="XMLID_6_" class="st1" d="M-345.3 219.3h211.6v11.3h-211.6z"/><path id="XMLID_7_" class="st1" d="M-345.3 250.3h211.6v11.3h-211.6z"/><path id="XMLID_8_" class="st1" d="M-345.3 281.3h160.6v11.3h-160.6z"/><circle class="st0" cx="-250.3" cy="58.1" r="48.5"/><path class="st0" d="M367.4 346H123.3c-7.9 0-14.3-6.4-14.3-14.3V56.3c0-7.9 6.4-14.3 14.3-14.3h244.1c7.9 0 14.3 6.4 14.3 14.3v275.3c-.1 8-6.4 14.4-14.3 14.4z"/><path id="XMLID_11_" class="st1" d="M139.6 219.3h211.6v11.3H139.6z"/><path id="XMLID_10_" class="st1" d="M139.6 250.3h211.6v11.3H139.6z"/><path id="XMLID_9_" class="st1" d="M139.6 281.3h160.6v11.3H139.6z"/><path class="st2" d="M108.9 180.3 381.6 153"/><path class="st0" d="M165.9 394h-330.2c-7.9 0-14.3-6.4-14.3-14.3V8.3c0-7.9 6.4-14.3 14.3-14.3h330.2c7.9 0 14.3 6.4 14.3 14.3v371.3c.1 8-6.3 14.4-14.3 14.4z"/><path id="XMLID_5_" class="st1" d="M-134.8 208h262.7v22.6h-262.7z"/><path id="XMLID_1_" class="st1" d="M-134.8 252h262.7v22.6h-262.7z"/><path id="XMLID_2_" class="st1" d="M-134.8 296h262.7v22.6h-262.7z"/><path class="st2" d="M-178.5 164h358.8"/><path class="st0" d="m-74.1 123.8 47-40.7 20 20.4 42-45.4 41 65.7z"/><circle class="st0" cx="-28" cy="47.3" r="14.1"/></svg>