<svg xmlns="http://www.w3.org/2000/svg" viewBox="-599 686 800 600" style="enable-background:new -599 686 800 600" xml:space="preserve"><path d="M-336.9 924.6h-202c-4.7 0-8.5-3.8-8.5-8.5v-66.3c0-4.7 3.8-8.5 8.5-8.5h202c4.7 0 8.5 3.8 8.5 8.5v66.3c0 4.7-3.8 8.5-8.5 8.5zm238.9 0h-202c-4.7 0-8.5-3.8-8.5-8.5v-66.3c0-4.7 3.8-8.5 8.5-8.5h202c4.7 0 8.5 3.8 8.5 8.5v66.3c0 4.7-3.8 8.5-8.5 8.5zm238.9 0h-202c-4.7 0-8.5-3.8-8.5-8.5v-66.3c0-4.7 3.8-8.5 8.5-8.5h202c4.7 0 8.5 3.8 8.5 8.5v66.3c0 4.7-3.8 8.5-8.5 8.5zm-477.8 103h-202c-4.7 0-8.5-3.8-8.5-8.5v-66.3c0-4.7 3.8-8.5 8.5-8.5h202c4.7 0 8.5 3.8 8.5 8.5v66.3c0 4.7-3.8 8.5-8.5 8.5zm238.9 0h-202c-4.7 0-8.5-3.8-8.5-8.5v-66.3c0-4.7 3.8-8.5 8.5-8.5h202c4.7 0 8.5 3.8 8.5 8.5v66.3c0 4.7-3.8 8.5-8.5 8.5zm238.9 0h-202c-4.7 0-8.5-3.8-8.5-8.5v-66.3c0-4.7 3.8-8.5 8.5-8.5h202c4.7 0 8.5 3.8 8.5 8.5v66.3c0 4.7-3.8 8.5-8.5 8.5zm-477.8 103h-202c-4.7 0-8.5-3.8-8.5-8.5v-66.3c0-4.7 3.8-8.5 8.5-8.5h202c4.7 0 8.5 3.8 8.5 8.5v66.3c0 4.7-3.8 8.5-8.5 8.5zm238.9 0h-202c-4.7 0-8.5-3.8-8.5-8.5v-66.3c0-4.7 3.8-8.5 8.5-8.5h202c4.7 0 8.5 3.8 8.5 8.5v66.3c0 4.7-3.8 8.5-8.5 8.5zm238.9 0h-202c-4.7 0-8.5-3.8-8.5-8.5v-66.3c0-4.7 3.8-8.5 8.5-8.5h202c4.7 0 8.5 3.8 8.5 8.5v66.3c0 4.7-3.8 8.5-8.5 8.5z" style="fill:#fff;stroke:#7f00ff;stroke-width:5;stroke-miterlimit:10"/></svg>