<svg version="1.1" id="Calque_1" xmlns="http://www.w3.org/2000/svg" x="0" y="0" viewBox="-399 -106 800 600" style="enable-background:new -399 -106 800 600" xml:space="preserve"><style>.st0{fill:#fff;stroke:#7f00ff;stroke-width:5;stroke-miterlimit:10}</style><path class="st0" d="M-29 96.8h-244c-5.7 0-10.3-4.6-10.3-10.3v-89c0-5.7 4.6-10.3 10.3-10.3h244c5.7 0 10.3 4.6 10.3 10.3v89c-.1 5.7-4.6 10.3-10.3 10.3z"/><circle class="st0" cx="-227.9" cy="41.6" r="27"/><path class="st0" d="M-170.3 41.6h117.4M275 96.8H31c-5.7 0-10.3-4.6-10.3-10.3v-89c0-5.7 4.6-10.3 10.3-10.3h244c5.7 0 10.3 4.6 10.3 10.3v89c0 5.7-4.6 10.3-10.3 10.3z"/><circle class="st0" cx="76.1" cy="41.6" r="27"/><path class="st0" d="M133.8 41.6h117.3M-29 248.8h-244c-5.7 0-10.3-4.6-10.3-10.3v-89c0-5.7 4.6-10.3 10.3-10.3h244c5.7 0 10.3 4.6 10.3 10.3v89c-.1 5.7-4.6 10.3-10.3 10.3z"/><circle class="st0" cx="-227.9" cy="193.6" r="27"/><path class="st0" d="M-170.3 193.6h117.4M275 248.8H31c-5.7 0-10.3-4.6-10.3-10.3v-89c0-5.7 4.6-10.3 10.3-10.3h244c5.7 0 10.3 4.6 10.3 10.3v89c0 5.7-4.6 10.3-10.3 10.3z"/><circle class="st0" cx="76.1" cy="193.6" r="27"/><path class="st0" d="M133.8 193.6h117.3M-29 400.8h-244c-5.7 0-10.3-4.6-10.3-10.3v-89c0-5.7 4.6-10.3 10.3-10.3h244c5.7 0 10.3 4.6 10.3 10.3v89c-.1 5.7-4.6 10.3-10.3 10.3z"/><circle class="st0" cx="-227.9" cy="345.6" r="27"/><path class="st0" d="M-170.3 345.6h117.4M275 400.8H31c-5.7 0-10.3-4.6-10.3-10.3v-89c0-5.7 4.6-10.3 10.3-10.3h244c5.7 0 10.3 4.6 10.3 10.3v89c0 5.7-4.6 10.3-10.3 10.3z"/><circle class="st0" cx="76.1" cy="345.6" r="27"/><path class="st0" d="M133.8 345.6h117.3"/></svg>