<svg version="1.1" id="Calque_1" xmlns="http://www.w3.org/2000/svg" x="0" y="0" viewBox="0 0 800 600" style="enable-background:new 0 0 800 600" xml:space="preserve"><style>.st0{fill:#fff;stroke:#7f00ff;stroke-width:5;stroke-miterlimit:10}</style><path class="st0" d="M697.2 462.1H121c-15 0-27.1-12.1-27.1-27.1V157.2c0-15 12.1-27.1 27.1-27.1h576.2c15 0 27.1 12.1 27.1 27.1V435c0 15-12.2 27.1-27.1 27.1z"/><circle class="st0" cx="175.1" cy="209.3" r="35.8"/><path d="M239.9 198.5h133m-133 23.4h133m-233.6 55.4h474.4m-474.4 32h417.2m-417.2 32.1h350m147.6 80.1H535.3c-14.6 0-26.4-11.8-26.4-26.4 0-14.6 11.8-26.4 26.4-26.4h101.6c14.6 0 26.4 11.8 26.4 26.4 0 14.5-11.8 26.4-26.4 26.4z" style="fill:none;stroke:#7f00ff;stroke-width:5;stroke-miterlimit:10"/></svg>