<svg version="1.1" id="Calque_1" xmlns="http://www.w3.org/2000/svg" x="0" y="0" viewBox="-599 686 800 600" style="enable-background:new -599 686 800 600" xml:space="preserve"><style>.st0{fill:#fff;stroke:#7f00ff;stroke-width:5;stroke-miterlimit:10}</style><path class="st0" d="M27.9 889.5h18.7c4.8 0 8.6 3.9 8.6 8.6v307c0 4.8-3.9 8.6-8.6 8.6h-300.9c-4.8 0-8.6-3.9-8.6-8.6v-307c0-4.8 3.9-8.6 8.6-8.6h242.9c.4 0 .7-.2 1-.5l12.3-17.3c.5-.7 1.5-.7 2 0l10.8 16.7c.2.3.6.5 1 .5l12.2.6zm-481.2-131.2H55.2v85.5h-508.5z"/><circle class="st0" cx="-189" cy="976.2" r="29.2"/><circle class="st0" cx="-392.3" cy="801" r="19.2"/><circle class="st0" cx="-189" cy="1053.9" r="29.2"/><circle class="st0" cx="-189" cy="1131.5" r="29.2"/><path d="M-131 976.2H1M-328.9 801h132m65.9 252.9H1m-132 77.6H1" style="fill:none;stroke:#7f00ff;stroke-width:5;stroke-miterlimit:10"/><path style="fill:#fff;stroke:#7f00ff;stroke-width:3;stroke-linecap:round;stroke-linejoin:round;stroke-miterlimit:10" d="m-15.5 797.1 7.2 7.9 6.3-7.9"/></svg>