<svg version="1.1" id="Calque_1" xmlns="http://www.w3.org/2000/svg" x="0" y="0" viewBox="0 0 800 600" style="enable-background:new 0 0 800 600" xml:space="preserve"><style>.st0,.st1{fill:#fff;stroke:#7f00ff;stroke-width:5;stroke-miterlimit:10}.st1{fill:none}</style><path class="st0" d="M543.1 191.1H116.7c-6.6 0-11.9-5.3-11.9-11.9v-74.8c0-6.6 5.3-11.9 11.9-11.9H543c6.6 0 11.9 5.3 11.9 11.9v74.8c.1 6.6-5.2 11.9-11.8 11.9z"/><circle class="st0" cx="167.6" cy="141.8" r="25"/><path class="st1" d="M221.6 130.1h133m-133 23.4h133m163-25.7v28.1m14-14.1h-28.1"/><path class="st0" d="M683.3 337.4H256.9c-6.6 0-11.9-5.3-11.9-11.9v-74.8c0-6.6 5.3-11.9 11.9-11.9h426.3c6.6 0 11.9 5.3 11.9 11.9v74.8c.1 6.6-5.3 11.9-11.8 11.9z"/><circle class="st0" cx="307.7" cy="288.1" r="25"/><path class="st1" d="M361.7 276.4h133m-133 23.4h133m163-25.7v28.1m14.1-14.1h-28.1"/><path class="st0" d="M607.1 481.5H180.8c-6.6 0-11.9-5.3-11.9-11.9v-74.8c0-6.6 5.3-11.9 11.9-11.9h426.3c6.6 0 11.9 5.3 11.9 11.9v74.8c.1 6.6-5.3 11.9-11.9 11.9z"/><circle class="st0" cx="231.6" cy="432.2" r="25"/><path class="st1" d="M285.6 420.5h133m-133 23.4h133m163-25.8v28.1m14.1-14h-28.1"/></svg>