<svg version="1.1" id="Calque_1" xmlns="http://www.w3.org/2000/svg" x="0" y="0" viewBox="-599 686 800 600" style="enable-background:new -599 686 800 600" xml:space="preserve"><style>.st1{fill:#fff;stroke:#7f00ff;stroke-width:4;stroke-miterlimit:10}</style><path d="M-5.2 1236.5h-387.4c-5.9 0-10.7-4.8-10.7-10.7V746.2c0-5.9 4.8-10.7 10.7-10.7H-5.4c5.9 0 10.7 4.8 10.7 10.7v479.7c.1 5.8-4.7 10.6-10.5 10.6z" style="fill:#fff;stroke:#7f00ff;stroke-width:5;stroke-miterlimit:10"/><path class="st1" d="M-42.6 893.5h-312.5c-1.8 0-3.3-1.5-3.3-3.3v-39.5c0-1.8 1.5-3.3 3.3-3.3h312.5c1.8 0 3.3 1.5 3.3 3.3v39.5c-.1 1.8-1.6 3.3-3.3 3.3zm0 85.5h-312.5c-1.8 0-3.3-1.5-3.3-3.3v-39.5c0-1.8 1.5-3.3 3.3-3.3h312.5c1.8 0 3.3 1.5 3.3 3.3v39.5c-.1 1.8-1.6 3.3-3.3 3.3zm0 87.1h-312.5c-1.8 0-3.3-1.5-3.3-3.3v-39.5c0-1.8 1.5-3.3 3.3-3.3h312.5c1.8 0 3.3 1.5 3.3 3.3v39.5c-.1 1.8-1.6 3.3-3.3 3.3z"/><path id="XMLID_4_" style="fill:#f6f6f6" d="M-358.4 781.1h159.5v15.3h-159.5z"/><circle class="st1" cx="-339.2" cy="1114.5" r="12.3"/><circle cx="-339.2" cy="1114.5" r="6" style="fill:#7f00ff"/><circle class="st1" cx="-225.9" cy="1114.5" r="12.3"/><circle class="st1" cx="-112.9" cy="1114.5" r="12.3"/><path class="st1" d="M-148.2 1167.5h108.8v40h-108.8z"/></svg>