<svg xmlns="http://www.w3.org/2000/svg" viewBox="-599 686 800 600" style="enable-background:new -599 686 800 600" xml:space="preserve"><path d="M-321.1 974.1h-172.8c-4.5 0-8.1-3.6-8.1-8.1V838.8c0-4.5 3.6-8.1 8.1-8.1h172.8c4.5 0 8.1 3.6 8.1 8.1V966c0 4.5-3.6 8.1-8.1 8.1zm417-54H-76.9c-4.5 0-8.1-3.6-8.1-8.1v-73.2c0-4.5 3.6-8.1 8.1-8.1H95.9c4.5 0 8.1 3.6 8.1 8.1V912c0 4.5-3.6 8.1-8.1 8.1zm0 221.3H-76.9c-4.5 0-8.1-3.6-8.1-8.1V949.4c0-4.5 3.6-8.1 8.1-8.1H95.9c4.5 0 8.1 3.6 8.1 8.1v183.8c0 4.5-3.6 8.2-8.1 8.2zm-417 0h-172.8c-4.5 0-8.1-3.6-8.1-8.1V1006c0-4.5 3.6-8.1 8.1-8.1h172.8c4.5 0 8.1 3.6 8.1 8.1v127.2c0 4.5-3.6 8.2-8.1 8.2zm211 0h-172.8c-4.5 0-8.1-3.6-8.1-8.1V838.8c0-4.5 3.6-8.1 8.1-8.1h172.8c4.5 0 8.1 3.6 8.1 8.1v294.5c0 4.4-3.6 8.1-8.1 8.1z" style="fill:#fff;stroke:#7f00ff;stroke-width:5;stroke-miterlimit:10"/></svg>