<svg version="1.1" id="Calque_1" xmlns="http://www.w3.org/2000/svg" x="0" y="0" viewBox="94 97 800 600" style="enable-background:new 94 97 800 600" xml:space="preserve"><style>.st0{fill:#fff;stroke:#7f00ff;stroke-width:5;stroke-miterlimit:10}</style><path class="st0" d="M677 627H311c-9.9 0-18-8.1-18-18V185c0-9.9 8.1-18 18-18h366c9.9 0 18 8.1 18 18v424c0 9.9-8.1 18-18 18zM293 225h402"/><path class="st0" d="M658.5 209.5h-120c-6.6 0-12-5.4-12-12s5.4-12 12-12h120c6.6 0 12 5.4 12 12s-5.4 12-12 12zM365 260.7l3.3 6.8c.2.4.6.7 1.1.8l7.5 1.1c1.2.2 1.7 1.7.8 2.5l-5.4 5.3c-.3.3-.5.8-.4 1.3l1.3 7.5c.2 1.2-1.1 2.1-2.1 1.6l-6.7-3.5c-.4-.2-.9-.2-1.4 0l-6.7 3.5c-1.1.6-2.4-.4-2.1-1.6l1.3-7.5c.1-.5-.1-1-.4-1.3l-5.4-5.3c-.9-.9-.4-2.3.8-2.5l7.5-1.1c.5-.1.9-.4 1.1-.8l3.3-6.8c.5-1.1 2-1.1 2.6 0z"/><circle class="st0" cx="439.8" cy="263.1" r="6"/><circle class="st0" cx="455.7" cy="280.6" r="9.9"/><path class="st0" d="M529.5 261.3h25v25h-25zm112.5 21-14.7 8.5-14.7-8.5v-17l14.7-8.5 14.7 8.5zm-278.3 52v25.8c0 .9.7 1.5 1.5 1.5h23.1"/><path d="M438.1 337h35.3v22h-35.3zm86.2 0h35.3v22h-35.3zm86.3 0h35.3v22h-35.3zm-172.5 78h35.3v22h-35.3zm-85.1 0h35.3v22H353zm171.3 0h35.3v22h-35.3zm86.3 0h35.3v22h-35.3zm-172.5 77.5h35.3v22h-35.3zm-85.1 0h35.3v22H353zm171.3 0h35.3v22h-35.3zm86.3 0h35.3v22h-35.3z" style="fill:#efefef"/></svg>