<svg version="1.1" id="Calque_1" xmlns="http://www.w3.org/2000/svg" x="0" y="0" viewBox="-599 686 800 600" style="enable-background:new -599 686 800 600" xml:space="preserve"><style>.st0{fill:#fff;stroke:#7f00ff;stroke-width:5;stroke-miterlimit:10}</style><path class="st0" d="M68.7 1037.9h-533.6c-28.7 0-52-23.3-52-52s23.3-52 52-52H68.7c28.7 0 52 23.3 52 52-.1 28.9-23.3 52-52 52z"/><path class="st0" d="M63.2 1024.1h-93c-21 0-38-17-38-38s17-38 38-38h93c21 0 38 17 38 38 0 20.9-17 38-38 38z"/><circle class="st0" cx="-455.9" cy="981" r="23"/><path style="fill:none;stroke:#7f00ff;stroke-width:5;stroke-linecap:round;stroke-miterlimit:10" d="m-424 1014-15-17.4"/></svg>