<svg xmlns="http://www.w3.org/2000/svg" viewBox="-599 686 800 600" style="enable-background:new -599 686 800 600" xml:space="preserve"><path d="M19.2 879.2h-436.4c-2.6 0-4.8-2.1-4.8-4.8V762.6c0-2.6 2.1-4.8 4.8-4.8H19.3c2.6 0 4.8 2.1 4.8 4.8v111.8c-.1 2.6-2.2 4.8-4.9 4.8zm0 167.5h-436.4c-2.6 0-4.8-2.1-4.8-4.8V930.1c0-2.6 2.1-4.8 4.8-4.8H19.3c2.6 0 4.8 2.1 4.8 4.8v111.8c-.1 2.6-2.2 4.8-4.9 4.8zm0 167.5h-436.4c-2.6 0-4.8-2.1-4.8-4.8v-111.8c0-2.6 2.1-4.8 4.8-4.8H19.3c2.6 0 4.8 2.1 4.8 4.8v111.8c-.1 2.6-2.2 4.8-4.9 4.8z" style="fill:#fff;stroke:#7f00ff;stroke-width:5;stroke-miterlimit:10"/><path d="M-392 784h111v17h-111zm0 31.2h353v17h-353zm0 24.6h232.3v17H-392zm0 109.8h111v17h-111zm0 31.2h353v17h-353zm0 24.6h232.3v17H-392zm0 109.8h111v17h-111zm0 31.1h353v17h-353zm0 24.7h232.3v17H-392z" style="fill:#ededef"/><path d="m7.5 770.7-9 9.1m9 0-9-9.1m9 169.8-9 9.1m9 0-9-9.1m9 169.7-9 9.2m9 0-9-9.2" style="fill:none;stroke:#7f00ff;stroke-width:2;stroke-linecap:round;stroke-linejoin:round;stroke-miterlimit:10"/></svg>