<svg version="1.1" id="Calque_1" xmlns="http://www.w3.org/2000/svg" x="0" y="0" viewBox="-599 686 800 600" style="enable-background:new -599 686 800 600" xml:space="preserve"><style>.st0{fill:#fff;stroke:#7f00ff;stroke-width:5;stroke-miterlimit:10}.st1{fill:#f6f6f6}</style><path class="st0" d="M42.7 1217.4h-483.4c-7.9 0-14.3-6.4-14.3-14.3V768.9c0-7.9 6.4-14.3 14.3-14.3H42.6c7.9 0 14.3 6.4 14.3 14.3v434.2c.1 7.9-6.3 14.3-14.2 14.3z"/><path id="XMLID_5_" class="st1" d="M-410 891.1h235.6v26.2H-410z"/><path id="XMLID_1_" class="st1" d="M-410 976h394.1v26.2H-410z"/><path id="XMLID_2_" class="st1" d="M-410 1032.3h304v26.2h-304z"/><path id="XMLID_3_" class="st1" d="M-410 1082h358.2v26.2H-410z"/><path style="fill:none;stroke:#7f00ff;stroke-width:5;stroke-miterlimit:10" d="M-455 830.9H57"/><path d="m11.3 783.7-18 18m18 0-18-18" style="fill:none;stroke:#7f00ff;stroke-width:5;stroke-linecap:round;stroke-miterlimit:10"/><path class="st0" d="M26.6 1189.7h-78c-.2 0-.4-.2-.4-.4v-37.5c0-.2.2-.4.4-.4h78c.2 0 .4.2.4.4v37.5c-.1.2-.2.4-.4.4z"/></svg>