<svg version="1.1" id="Calque_1" xmlns="http://www.w3.org/2000/svg" x="0" y="0" viewBox="-599 686 800 600" style="enable-background:new -599 686 800 600" xml:space="preserve"><style>.st0{fill:#fff;stroke:#7f00ff;stroke-width:5;stroke-miterlimit:10}</style><path id="XMLID_3_" class="st0" d="M-125.5 1165.5h-147c-21.8 0-39.5-17.7-39.5-39.5s17.7-39.5 39.5-39.5h147c21.8 0 39.5 17.7 39.5 39.5s-17.7 39.5-39.5 39.5z"/><path class="st0" d="M-183.5 1007.5H17c3.6 0 6.5-2.9 6.5-6.5V813c0-3.6-2.9-6.5-6.5-6.5h-432c-3.6 0-6.5 2.9-6.5 6.5v188c0 3.6 2.9 6.5 6.5 6.5h202l16 17 13.5-17z"/><path d="M-384 847.5h224.5v17H-384zm0 45.5h368.5v17H-384zm0 33.5h308.5v17H-384z" style="fill:#f7f7f9"/></svg>