<svg version="1.1" id="Calque_1" xmlns="http://www.w3.org/2000/svg" x="0" y="0" viewBox="0 0 800 600" style="enable-background:new 0 0 800 600" xml:space="preserve"><style>.st0{fill:#fff;stroke:#7f00ff;stroke-width:5;stroke-miterlimit:10}</style><path class="st0" d="M230.9 444H44.7c-15 0-27.1-12.1-27.1-27.1V139.1c0-15 12.1-27.1 27.1-27.1h186.2c15 0 27.1 12.1 27.1 27.1v277.8c0 15-12.1 27.1-27.1 27.1zm262.5 0H307.2c-15 0-27.1-12.1-27.1-27.1V139.1c0-15 12.1-27.1 27.1-27.1h186.2c15 0 27.1 12.1 27.1 27.1v277.8c0 15-12.2 27.1-27.1 27.1zm261.9 0H569.1c-15 0-27.1-12.1-27.1-27.1V139.1c0-15 12.1-27.1 27.1-27.1h186.2c15 0 27.1 12.1 27.1 27.1v277.8c0 15-12.1 27.1-27.1 27.1z"/><path d="M49.1 319.4h171.7M49.1 342.8h133m-53.4 65.5H59.1c-5.5 0-10-4.5-10-10v-15.8c0-5.5 4.5-10 10-10h69.6c5.5 0 10 4.5 10 10v15.8c0 5.5-4.4 10-10 10zm175.9-88.9h171.8m-171.8 23.4h133m-53.3 65.5h-69.6c-5.5 0-10-4.5-10-10v-15.8c0-5.5 4.5-10 10-10h69.6c5.5 0 10 4.5 10 10v15.8c0 5.5-4.5 10-10 10zm182.8-88.9h171.8m-171.8 23.4h133m-53.4 65.5h-69.6c-5.5 0-10-4.5-10-10v-15.8c0-5.5 4.5-10 10-10h69.6c5.5 0 10 4.5 10 10v15.8c.1 5.5-4.4 10-10 10z" style="fill:none;stroke:#7f00ff;stroke-width:5;stroke-miterlimit:10"/><path class="st0" d="M212.6 262.6H63c-11.5 0-20.8-9.3-20.8-20.8v-82.3c0-11.5 9.3-20.8 20.8-20.8h149.7c11.5 0 20.8 9.3 20.8 20.8v82.3c0 11.4-9.4 20.8-20.9 20.8zm262.5 0H325.5c-11.5 0-20.8-9.3-20.8-20.8v-82.3c0-11.5 9.3-20.8 20.8-20.8h149.7c11.5 0 20.8 9.3 20.8 20.8v82.3c0 11.4-9.4 20.8-20.9 20.8zm262.5 0H587.9c-11.5 0-20.8-9.3-20.8-20.8v-82.3c0-11.5 9.3-20.8 20.8-20.8h149.7c11.5 0 20.8 9.3 20.8 20.8v82.3c.1 11.4-9.3 20.8-20.8 20.8z"/><circle class="st0" cx="182.1" cy="262.6" r="24.9"/><circle class="st0" cx="444.4" cy="262.6" r="24.9"/><circle class="st0" cx="706.7" cy="262.6" r="24.9"/></svg>