<svg version="1.1" id="Calque_1" xmlns="http://www.w3.org/2000/svg" x="0" y="0" viewBox="-599 686 800 600" style="enable-background:new -599 686 800 600" xml:space="preserve"><style>.st0{fill:#fff;stroke:#7f00ff;stroke-width:5;stroke-miterlimit:10}</style><path class="st0" d="M-336.9 1141.2h-202c-4.7 0-8.5-3.8-8.5-8.5V839.2c0-4.7 3.8-8.5 8.5-8.5h202c4.7 0 8.5 3.8 8.5 8.5v293.5c0 4.7-3.8 8.5-8.5 8.5zm238.9 0h-202c-4.7 0-8.5-3.8-8.5-8.5V839.2c0-4.7 3.8-8.5 8.5-8.5h202c4.7 0 8.5 3.8 8.5 8.5v293.5c0 4.7-3.8 8.5-8.5 8.5zm238.9 0h-202c-4.7 0-8.5-3.8-8.5-8.5V839.2c0-4.7 3.8-8.5 8.5-8.5h202c4.7 0 8.5 3.8 8.5 8.5v293.5c0 4.7-3.8 8.5-8.5 8.5zm-688.3-258.9h219m19.9 0h219m19.9 0h219"/><path class="st0" d="M-392.9 1125h-90c-10.1 0-18.3-8.2-18.3-18.3 0-10.1 8.2-18.3 18.3-18.3h90c10.1 0 18.3 8.2 18.3 18.3 0 10.1-8.2 18.3-18.3 18.3zm238.9 0h-90c-10.1 0-18.3-8.2-18.3-18.3 0-10.1 8.2-18.3 18.3-18.3h90c10.1 0 18.3 8.2 18.3 18.3 0 10.1-8.2 18.3-18.3 18.3zm238.9 0h-90c-10.1 0-18.3-8.2-18.3-18.3 0-10.1 8.2-18.3 18.3-18.3h90c10.1 0 18.3 8.2 18.3 18.3 0 10.1-8.2 18.3-18.3 18.3z"/><circle class="st0" cx="-437.9" cy="937.2" r="30.7"/><circle class="st0" cx="-199" cy="937.2" r="30.7"/><circle class="st0" cx="39.9" cy="937.2" r="30.7"/><path class="st0" d="M-492.9 997h110m-110 29.3h110m-110 29.4h110M-254 997h110m-110 29.3h110m-110 29.4h110M-15.1 997h110m-110 29.3h110m-110 29.4h110"/></svg>