<svg version="1.1" id="Calque_1" xmlns="http://www.w3.org/2000/svg" x="0" y="0" viewBox="-599 686 800 600" style="enable-background:new -599 686 800 600" xml:space="preserve"><style>.st0{fill:#fff;stroke:#7f00ff;stroke-width:5;stroke-miterlimit:10}.st1{fill:#f6f6f6}.st2{fill:none;stroke:#7f00ff;stroke-width:5;stroke-miterlimit:10}</style><path class="st0" d="M-68.3 1150.4h-457.5c-6.7 0-12.2-5.5-12.2-12.2v-300c0-6.7 5.5-12.2 12.2-12.2h457.5c6.7 0 12.2 5.5 12.2 12.2v300c0 6.7-5.4 12.2-12.2 12.2z"/><path id="XMLID_32_" class="st1" d="M-511.6 903.9h87.8v19h-87.8z"/><path id="XMLID_31_" class="st1" d="M-403.3 903.9h144.1v19h-144.1z"/><path id="XMLID_30_" class="st1" d="M-238.8 903.9h144.1v19h-144.1z"/><path class="st2" d="M-538 877.5h481.9M-538 943.8h481.9"/><path id="XMLID_29_" class="st1" d="M-511.6 971h87.8v19h-87.8z"/><path id="XMLID_28_" class="st1" d="M-403.3 971h144.1v19h-144.1z"/><path id="XMLID_27_" class="st1" d="M-238.8 971h144.1v19h-144.1z"/><path class="st2" d="M-538 1010.9h481.9"/><path id="XMLID_26_" class="st1" d="M-511.6 1038.1h87.8v19h-87.8z"/><path id="XMLID_25_" class="st1" d="M-403.3 1038.1h144.1v19h-144.1z"/><path id="XMLID_24_" class="st1" d="M-238.8 1038.1h144.1v19h-144.1z"/><path class="st2" d="M-538 1078.1h481.9"/><path id="XMLID_23_" class="st1" d="M-511.6 1105.2h87.8v19h-87.8z"/><path id="XMLID_22_" class="st1" d="M-403.3 1105.2h144.1v19h-144.1z"/><path id="XMLID_21_" class="st1" d="M-238.8 1105.2h144.1v19h-144.1z"/><path class="st0" d="M127.8 1179.2h-549.6c-6.7 0-12.2-5.5-12.2-12.2V805c0-6.7 5.5-12.2 12.2-12.2h549.6c6.7 0 12.2 5.5 12.2 12.2v362c0 6.7-5.5 12.2-12.2 12.2z"/><path id="XMLID_5_" class="st1" d="M-402.6 885.6H-298v22.6h-104.6z"/><path id="XMLID_12_" class="st1" d="M-273.6 885.6H-102v22.6h-171.6z"/><path id="XMLID_13_" class="st1" d="M-77.6 885.6H94v22.6H-77.6z"/><path class="st2" d="M-434 854.2h574m-574 79h574"/><path id="XMLID_14_" class="st1" d="M-402.6 965.6H-298v22.6h-104.6z"/><path id="XMLID_2_" class="st1" d="M-273.6 965.6H-102v22.6h-171.6z"/><path id="XMLID_1_" class="st1" d="M-77.6 965.6H94v22.6H-77.6z"/><path class="st2" d="M-434 1013.2h574"/><path id="XMLID_17_" class="st1" d="M-402.6 1045.5H-298v22.6h-104.6z"/><path id="XMLID_16_" class="st1" d="M-273.6 1045.5H-102v22.6h-171.6z"/><path id="XMLID_15_" class="st1" d="M-77.6 1045.5H94v22.6H-77.6z"/><path class="st2" d="M-434 1093.1h574"/><path id="XMLID_20_" class="st1" d="M-402.6 1125.5H-298v22.6h-104.6z"/><path id="XMLID_19_" class="st1" d="M-273.6 1125.5H-102v22.6h-171.6z"/><path id="XMLID_18_" class="st1" d="M-77.6 1125.5H94v22.6H-77.6z"/></svg>