<svg version="1.1" id="Calque_1" xmlns="http://www.w3.org/2000/svg" x="0" y="0" viewBox="-399 -106 800 600" style="enable-background:new -399 -106 800 600" xml:space="preserve"><style>.st1{fill:#f6f6f6}</style><path id="XMLID_1_" d="M284.4 434.5h-566.8c-14.4 0-26.1-7.9-26.1-17.8V-28.7c0-9.8 11.6-17.8 26.1-17.8h566.8c14.4 0 26.1 7.9 26.1 17.8v445.5c-.1 9.8-11.7 17.7-26.1 17.7z" style="fill:#fff;stroke:#7f00ff;stroke-width:5;stroke-miterlimit:10"/><path id="XMLID_5_" class="st1" d="M-241 132.8h483v33h-483z"/><path id="XMLID_2_" class="st1" d="M-245 1.5h84V17h-84z"/><path id="XMLID_6_" class="st1" d="M-141.7 1.5h84V17h-84z"/><path id="XMLID_8_" class="st1" d="M-38.3 1.5h84V17h-84z"/><path id="XMLID_7_" class="st1" d="M-241 197.8h400v33h-400z"/><path id="XMLID_3_" class="st1" d="M-241 261.8H51v33h-292z"/><path id="XMLID_4_" class="st1" d="M-241 327.8h421v33h-421z"/><path style="fill:none;stroke:#7f00ff;stroke-width:5;stroke-miterlimit:10" d="M-245 31.3h84"/></svg>