<svg version="1.1" id="Calque_1" xmlns="http://www.w3.org/2000/svg" x="0" y="0" viewBox="0 0 800 600" style="enable-background:new 0 0 800 600" xml:space="preserve"><style>.st0{fill:#fff;stroke:#7f00ff;stroke-width:5;stroke-miterlimit:10}</style><path class="st0" d="M661.1 492.2H138.9c-22.1 0-40-17.9-40-40V147.8c0-22.1 17.9-40 40-40H661c22.1 0 40 17.9 40 40v304.4c0 22.1-17.9 40-39.9 40z"/><path class="st0" d="m418.2 293.7-22-12.7c-4.8-2.8-10.8.7-10.8 6.3v25.5c0 5.6 6 9 10.8 6.3l22.1-12.7c4.7-2.9 4.7-9.9-.1-12.7z"/><circle cx="400" cy="300" r="52.1" style="fill:none;stroke:#7f00ff;stroke-width:5;stroke-miterlimit:10"/></svg>