<svg xmlns="http://www.w3.org/2000/svg" viewBox="0 0 100 100" style="enable-background:new 0 0 100 100" xml:space="preserve"><path d="M72.1 60.3c-.2-.6-.5-1.2-.7-1.8-.4-.9-.8-1.7-1.1-2.5-3.4-7.3-7-14.8-10.8-22.1l-.1-.3c-.4-.7-.8-1.5-1.2-2.3-.5-.9-1-1.8-1.8-2.7-1.6-2-3.8-3-6.2-3-2.4 0-4.6 1.1-6.3 2.9-.7.9-1.3 1.8-1.8 2.7-.4.8-.8 1.6-1.2 2.3l-.1.3C37 41.1 33.4 48.6 30 55.9v.1c-.3.8-.7 1.6-1.1 2.5-.2.5-.5 1.1-.7 1.8-.6 1.8-.8 3.5-.6 5.3.5 3.7 3 6.7 6.4 8.1 1.3.5 2.6.8 4 .8.4 0 .9 0 1.3-.1 1.6-.2 3.3-.7 4.9-1.7 2-1.1 3.9-2.7 6.1-5.1 2.2 2.3 4.1 4 6.1 5.1 1.6.9 3.3 1.5 4.9 1.7.4 0 .9.1 1.3.1 1.4 0 2.7-.2 4-.8 3.4-1.4 5.8-4.5 6.4-8.1-.1-1.8-.3-3.5-.9-5.3zM50 62.8c-2.6-3.3-4.4-6.5-4.9-9.1-.2-1.1-.3-2.1-.1-3 .1-.8.4-1.5.8-2.1.9-1.3 2.5-2.2 4.3-2.2 1.8 0 3.4.8 4.3 2.2.4.6.7 1.3.8 2.1.1.9.1 1.9-.1 3-.7 2.6-2.5 5.8-5.1 9.1zm19.5 2.3c-.3 2.5-2.1 4.7-4.4 5.7-1.2.5-2.4.6-3.7.5-1.2-.1-2.4-.5-3.7-1.3-1.8-1-3.5-2.5-5.6-4.7 3.2-4 5.2-7.6 5.9-10.8.3-1.5.4-2.9.2-4.2-.2-1.2-.6-2.3-1.3-3.3-1.5-2.2-4.1-3.5-6.9-3.5-2.8 0-5.4 1.3-6.9 3.5-.7 1-1.1 2.1-1.3 3.3-.2 1.3-.1 2.7.2 4.2.7 3.2 2.7 6.9 5.9 10.9-2 2.2-3.8 3.8-5.6 4.7-1.3.7-2.5 1.1-3.7 1.3-1.3.1-2.6 0-3.7-.5-2.4-1-4.1-3.2-4.4-5.7-.1-1.2 0-2.4.4-3.8.1-.5.4-1 .6-1.6.3-.8.7-1.6 1.1-2.4v-.1c3.4-7.3 7-14.7 10.8-22l.1-.3c.4-.7.8-1.5 1.2-2.2.4-.8.8-1.5 1.4-2.2 1-1.2 2.4-1.8 3.9-1.8s2.9.6 3.9 1.8c.5.6 1 1.4 1.4 2.2.4.7.8 1.5 1.2 2.2l.1.3c3.7 7.3 7.3 14.7 10.7 22 .4.8.7 1.7 1.1 2.4.2.6.5 1.1.6 1.6.6 1.3.7 2.6.5 3.8z" style="fill:#ff5a5f"/></svg>