<svg xmlns="http://www.w3.org/2000/svg" viewBox="0 0 100 100" style="enable-background:new 0 0 100 100" xml:space="preserve"><linearGradient id="a" gradientUnits="userSpaceOnUse" x1="-73.075" y1="37.773" x2="-74.22" y2="39.755" gradientTransform="translate(846.746 -361.76) scale(10.9488)"><stop offset="0" style="stop-color:#0052cc"/><stop offset=".92" style="stop-color:#2684ff"/></linearGradient><path d="M40.1 48.2c-.5-.6-1.3-.7-1.9-.3-.2.1-.3.3-.4.5L25.9 72.1c-.3.7-.1 1.6.6 1.9.2.1.4.2.6.2h16.5c.5 0 1-.3 1.3-.8 3.7-7.4 1.5-18.6-4.8-25.2z" style="fill:url(#a)"/><path d="M48.9 26.6c-6 9.3-6.7 21-1.8 30.9l8 15.9c.2.5.7.8 1.3.8h16.5c.8 0 1.4-.6 1.4-1.4 0-.2-.1-.4-.1-.6L51.3 26.6c-.3-.7-1.1-1-1.8-.6-.3.1-.5.3-.6.6z" style="fill:#2684ff"/></svg>