<svg xmlns="http://www.w3.org/2000/svg" viewBox="0 0 100 100" style="enable-background:new 0 0 100 100" xml:space="preserve"><path d="M50 27.4c12.5 0 22.6 10.1 22.6 22.6S62.5 72.6 50 72.6 27.4 62.5 27.4 50 37.5 27.4 50 27.4z" style="fill:#e74d89"/><path d="M50 74.2c-13.4 0-24.2-10.8-24.2-24.2 0-13.4 10.9-24.2 24.2-24.2S74.2 36.6 74.2 50 63.4 74.2 50 74.2zm20.4-20.9c-.7-.2-6.4-1.9-12.9-.9 2.7 7.4 3.8 13.5 4 14.7 4.7-3.1 8-8 8.9-13.8zM58.1 69.1c-.3-1.8-1.5-8.1-4.4-15.7h-.1c-11.7 4.1-15.9 12.2-16.2 12.9 3.5 2.7 7.9 4.4 12.7 4.4 2.8 0 5.5-.6 8-1.6zm-23.5-5.3c.5-.8 6.2-10.2 16.8-13.6.3-.1.5-.2.8-.2-.5-1.2-1.1-2.3-1.7-3.5-10.3 3.1-20.4 3-21.3 2.9v.6c.1 5.3 2.1 10.2 5.4 13.8zm-4.9-18c.9 0 9.4.1 19.1-2.5-3.4-6.1-7.1-11.2-7.7-11.9-5.7 2.7-10 8-11.4 14.4zm15.5-15.9c.6.8 4.3 5.9 7.7 12.1 7.4-2.8 10.5-6.9 10.8-7.5-3.7-3.2-8.5-5.2-13.7-5.2-1.7.1-3.3.3-4.8.6zm20.8 7c-.4.6-3.9 5-11.5 8.2.5 1 .9 2 1.4 3 .2.4.3.7.5 1.1 6.9-.9 13.7.5 14.4.7-.1-4.9-1.9-9.4-4.8-13z" style="fill:#b2215a"/></svg>