<svg xmlns="http://www.w3.org/2000/svg" viewBox="0 0 100 100" style="enable-background:new 0 0 100 100" xml:space="preserve"><path d="M38.7 86.4c6.5 0 11.8-5.3 11.8-11.8V62.8H38.7c-6.5 0-11.8 5.3-11.8 11.8 0 6.5 5.3 11.8 11.8 11.8z" style="fill:#0acf83"/><path d="M26.9 51c0-6.5 5.3-11.8 11.8-11.8h11.8v23.6H38.7c-6.5 0-11.8-5.3-11.8-11.8z" style="fill:#a259ff"/><path d="M26.9 27.4c0-6.5 5.3-11.8 11.8-11.8h11.8v23.6H38.7c-6.5 0-11.8-5.3-11.8-11.8z" style="fill:#f24e1e"/><path d="M50.5 15.6h11.8c6.5 0 11.8 5.3 11.8 11.8s-5.3 11.8-11.8 11.8H50.5V15.6z" style="fill:#ff7262"/><path d="M74.1 51c0 6.5-5.3 11.8-11.8 11.8-6.5 0-11.8-5.3-11.8-11.8s5.3-11.8 11.8-11.8S74.1 44.5 74.1 51z" style="fill:#1abcfe"/></svg>