<svg version="1.1" id="Layer_1" xmlns="http://www.w3.org/2000/svg" x="0" y="0" viewBox="0 0 100 100" style="enable-background:new 0 0 100 100" xml:space="preserve"><style>.st0{fill:#e24329}.st1{fill:#fc6d26}.st2{fill:#fca326}</style><path class="st0" d="m50 74.2 9.7-29.8H40.3L50 74.2z"/><path class="st1" d="m50 74.2-9.7-29.8H26.8L50 74.2z"/><path class="st2" d="m26.8 44.4-2.9 9.1c-.3.8 0 1.7.7 2.2L50 74.2 26.8 44.4z"/><path class="st0" d="M26.8 44.4h13.6l-5.8-17.9c-.3-.9-1.6-.9-1.9 0l-5.9 17.9z"/><path class="st1" d="m50 74.2 9.7-29.8h13.6L50 74.2z"/><path class="st2" d="m73.2 44.4 2.9 9.1c.3.8 0 1.7-.7 2.2L50 74.2l23.2-29.8z"/><path class="st0" d="M73.2 44.4H59.7l5.8-17.9c.3-.9 1.6-.9 1.9 0l5.8 17.9z"/></svg>