<svg xmlns="http://www.w3.org/2000/svg" viewBox="0 0 100 100" style="enable-background:new 0 0 100 100" xml:space="preserve"><path d="M73.7 50.5c0-2-.2-3.4-.5-4.9H50.5v9h13.3c-.3 2.2-1.7 5.6-4.9 7.9v.3l7.2 5.6h.5c4.5-4.3 7.1-10.5 7.1-17.9" style="fill:#4285f4"/><path d="M50.5 74.2c6.5 0 12-2.2 16-5.9l-7.6-5.9c-2 1.4-4.8 2.4-8.4 2.4-6.4 0-11.8-4.2-13.8-10.1h-.3L29 60.6l-.1.3c3.9 7.9 12.1 13.3 21.6 13.3" style="fill:#34a853"/><path d="M36.7 54.8c-.5-1.5-.8-3.1-.8-4.8 0-1.7.3-3.3.8-4.8v-.3L29.1 39l-.2.1c-1.6 3.3-2.6 7-2.6 10.9s.9 7.6 2.6 10.9l7.8-6.1" style="fill:#fbbc05"/><path d="M50.5 35.2c4.5 0 7.6 2 9.4 3.6l6.8-6.7c-4.2-3.9-9.7-6.3-16.2-6.3-9.5 0-17.6 5.4-21.6 13.3l7.8 6.1c1.9-5.8 7.4-10 13.8-10" style="fill:#eb4335"/></svg>