<svg xmlns="http://www.w3.org/2000/svg" viewBox="0 0 127.6 131.9" style="enable-background:new 0 0 127.6 131.9" xml:space="preserve"><path d="M126 62.3 69.3 5.5 63.8 0 1.5 62.3c-2 2-2 5.3 0 7.4l39 39 23.2 23.2L126 69.6c2.1-2 2.1-5.3 0-7.3zM63.8 85.4 44.3 65.9l19.5-19.5 19.5 19.5-19.5 19.5z" style="fill:#2684ff"/><linearGradient id="a" gradientUnits="userSpaceOnUse" x1="141.415" y1="193.909" x2="128.59" y2="181.087" gradientTransform="matrix(1.7409 0 0 -1.7409 -190.793 369.187)"><stop offset="0" style="stop-color:#0052cc"/><stop offset="1" style="stop-color:#2684ff"/></linearGradient><path d="M63.8 46.4C51 33.7 50.9 13 63.6.2L21 42.8 44.2 66l19.6-19.6z" style="fill:url(#a)"/><linearGradient id="b" gradientUnits="userSpaceOnUse" x1="151.182" y1="154.602" x2="163.982" y2="167.402" gradientTransform="matrix(1.7409 0 0 -1.7409 -190.793 369.187)"><stop offset="0" style="stop-color:#0052cc"/><stop offset="1" style="stop-color:#2684ff"/></linearGradient><path d="M83.3 65.9 63.8 85.4c6.2 6.2 9.6 14.5 9.6 23.2s-3.5 17.1-9.6 23.2L106.6 89c0 .1-23.3-23.1-23.3-23.1z" style="fill:url(#b)"/></svg>