<svg xmlns="http://www.w3.org/2000/svg" viewBox="0 0 100 100" style="enable-background:new 0 0 100 100" xml:space="preserve"><path d="M43.5 25.6c-2.7 0-4.9 2.2-4.9 4.9s2.2 4.9 4.9 4.9h4.9v-4.9c0-2.7-2.2-4.9-4.9-4.9m0 13h-13c-2.7 0-4.9 2.2-4.9 4.9s2.2 4.9 4.9 4.9h13c2.7 0 4.9-2.2 4.9-4.9s-2.2-4.9-4.9-4.9z" style="fill-rule:evenodd;clip-rule:evenodd;fill:#36c5f0"/><path d="M74.4 43.5c0-2.7-2.2-4.9-4.9-4.9s-4.9 2.2-4.9 4.9v4.9h4.9c2.7 0 4.9-2.2 4.9-4.9zm-13 0v-13c0-2.7-2.2-4.9-4.9-4.9s-4.9 2.2-4.9 4.9v13c0 2.7 2.2 4.9 4.9 4.9s4.9-2.2 4.9-4.9z" style="fill-rule:evenodd;clip-rule:evenodd;fill:#2eb67d"/><path d="M56.5 74.4c2.7 0 4.9-2.2 4.9-4.9s-2.2-4.9-4.9-4.9h-4.9v4.9c0 2.7 2.2 4.9 4.9 4.9zm0-13h13c2.7 0 4.9-2.2 4.9-4.9s-2.2-4.9-4.9-4.9h-13c-2.7 0-4.9 2.2-4.9 4.9s2.2 4.9 4.9 4.9z" style="fill-rule:evenodd;clip-rule:evenodd;fill:#ecb22e"/><path d="M25.6 56.5c0 2.7 2.2 4.9 4.9 4.9s4.9-2.2 4.9-4.9v-4.9h-4.9c-2.7 0-4.9 2.2-4.9 4.9zm13 0v13c0 2.7 2.2 4.9 4.9 4.9s4.9-2.2 4.9-4.9v-13c0-2.7-2.2-4.9-4.9-4.9s-4.9 2.2-4.9 4.9" style="fill-rule:evenodd;clip-rule:evenodd;fill:#e01e5a"/></svg>