<svg xmlns="http://www.w3.org/2000/svg" viewBox="0 0 100 100" style="enable-background:new 0 0 100 100" xml:space="preserve"><path d="M45.4 42.8c-1.3-1.3-3-2-4.9-2H30.4v18.4h6.9V47.7h2.2c.6 0 1.2.2 1.6.7l2.4 2.4c.4.4.7 1 .7 1.6v6.8h6.9v-7.8c0-1.8-.7-3.6-2-4.9l-3.7-3.7zm35.7-2v6.8c0 .6-.2 1.2-.7 1.6L78 51.6c-.4.4-1 .7-1.6.7h-3.3c.7-1.1 1.1-2.4 1.1-3.7v-7.8h-6.9v6.8c0 .6-.2 1.2-.7 1.6l-2.4 2.4c-.4.4-1 .7-1.6.7h-2.2V40.8h-6.9v18.4h10.1c1.8 0 3.6-.7 4.9-2l2.3-2.3v4.3h6.6c1.8 0 3.6-.7 4.9-2l3.7-3.7c1.3-1.3 2-3 2-4.9v-7.8h-6.9zM12 47.7h4.6v11.5h6.9V47.7h4.6v-6.9H12v6.9z" style="fill:#f42"/></svg>