<svg xmlns="http://www.w3.org/2000/svg" viewBox="0 0 64 64" style="enable-background:new 0 0 64 64" xml:space="preserve"><path style="fill-rule:evenodd;clip-rule:evenodd;fill:#797bf2" d="M0 0h64v64H0z"/><path d="M46.4 33.7c-.1-.1-.2-.1-.4-.2-.8.8-1.7 1.5-2.5 2.1-.4.3-.9.4-1.2.4-.7 0-1-.7-1.1-1.8-.1-1.5-.2-3.2-.2-6s-.6-4.7-2.3-4.9h-.2c-1 0-1.5.5-2.2 1.9-.6 1.2-1.5 2.9-3.1 6.1-1.4 2.8-3 5.2-4.4 6.9-.4.5-.7.8-1 1-.2.1-.4.2-.6.2-.5 0-.9-.5-1.1-1.5V37c0-2.2.8-5.7 2.2-10.9 1-3.8.6-6.3-1.7-6.3-.5 0-.9.2-1.4.5-.4.3-.8 1-1.2 1.9-.4 1-3 6.2-7.1 8.9 0 1 .5 2 1.7 2.1 1.1.1 1.8-.3 2.8-1-.1.6-.3 1.2-.4 1.7v.8l-.3 1.8c-.6 5.2 1.8 7.8 4.6 7.8.5 0 .9-.1 1.4-.2 3.1-.8 6.1-4.4 9.6-12.6-.1.9-.1 1.7 0 2.5.2 4.7 2.1 6.1 4.7 6.1 2 0 3.8-1 4.8-2.3.7-.9 1-1.9 1-2.7.1-.7-.1-1.1-.4-1.4" style="fill-rule:evenodd;clip-rule:evenodd;fill:#fff"/></svg>