<svg version="1.1" id="Layer_1" xmlns="http://www.w3.org/2000/svg" x="0" y="0" viewBox="0 0 100 100" style="enable-background:new 0 0 100 100" xml:space="preserve"><style>.st0{fill:#ff2bc2}</style><circle class="st0" cx="50" cy="50" r="50"/><circle cx="50" cy="50" r="45.4" style="fill:#2e001e"/><path class="st0" d="M73 45c-.6-.3-1.4-.4-2.4-.4-5.3 0-8.8 4.1-8.8 11 0 7.9 3.6 11 8.3 11 1 0 2.1-.1 2.9-.5V45zM54.4 55.9c0-10 6.3-17.7 16.5-17.7.9 0 1.3 0 2.2.1V27.2c0-.3.2-.4.4-.4h6.7c.3 0 .4.1.4.3v39.1c0 1.2 0 2.6.2 4.2 0 .3 0 .3-.3.5-3.5 1.7-7.2 2.5-10.7 2.5-9-.1-15.4-5.8-15.4-17.5zM40.1 49l11.7 23.2c.2.3.1.7-.3.7h-7.3c-.5 0-.7-.1-.9-.6-2.7-5.6-5.4-11.5-8.2-17.6H35c-2.5 5.7-5.3 12-7.9 17.6-.2.3-.4.5-.7.5h-6.9c-.4 0-.5-.3-.3-.6l11.4-22.5-11-22.4c-.3-.3 0-.6.3-.6h7.2c.4 0 .6.1.8.5 2.6 5.7 5.3 11.3 7.8 17h.1c2.4-5.6 5.1-11.3 7.6-16.9.2-.3.3-.6.8-.6h6.7c.3 0 .5.3.3.6L40.1 49z"/></svg>