<svg id="Calque_1" data-name="Calque 1" xmlns="http://www.w3.org/2000/svg" viewBox="0 0 450 450"><defs><style>.cls-1,.cls-3{fill:#fff}.cls-1{stroke:#c0d7f1}.cls-1,.cls-3,.cls-4{stroke-miterlimit:10;stroke-width:2px}.cls-4{fill:none}.cls-3,.cls-4{stroke:#00b289}</style></defs><path class="cls-1" d="M341.4 336.3H145.3a7.81 7.81 0 0 1-7.8-7.8v-141a7.81 7.81 0 0 1 7.8-7.8h196.1a7.81 7.81 0 0 1 7.8 7.8v140.9a7.83 7.83 0 0 1-7.8 7.9Z"/><path d="M157.7 267.5h82.9m-82.9 15.1h82.9m-82.9 15h82.9m-28.9-82.1h105.2m-105.2 16.2h105.2" style="fill:none;stroke-miterlimit:10;stroke-width:2px;stroke:#c0d7f1"/><path class="cls-3" d="M371 317.7H250.3a13.29 13.29 0 0 1-13.3-13.3V133.3a13.29 13.29 0 0 1 13.3-13.3h107.5a13.29 13.29 0 0 1 13.3 13.3v184.4Z"/><path class="cls-4" d="M237 171.4h134"/><circle class="cls-3" cx="304" cy="145.8" r="13.3"/><circle class="cls-3" cx="263.2" cy="194.7" r="9.9"/><path class="cls-4" d="M280.6 194.7h72.7"/><circle class="cls-3" cx="343.4" cy="225.3" r="9.9"/><path class="cls-4" d="M326 225.3h-72.6"/><circle class="cls-3" cx="263.2" cy="251.9" r="9.9"/><path class="cls-4" d="M280.6 251.9h72.7"/><circle class="cls-3" cx="343.4" cy="282.6" r="9.9"/><path class="cls-4" d="M326 282.6h-72.6"/><path class="cls-3" d="M386.7 319.2v-15.8h15.8a12.76 12.76 0 0 1 12.8 12.8v3a12.76 12.76 0 0 1-12.8 12.8h-3a12.76 12.76 0 0 1-12.8-12.8Z"/><path d="m404.9 313-7.7 7.7m7.7 0-7.7-7.7" style="stroke-linecap:round;stroke:#00b289;fill:none;stroke-miterlimit:10;stroke-width:2px"/><path class="cls-1" d="M157.7 204.6h41.2v41.2h-41.2z"/></svg>