<svg version="1.1" id="Calque_1" xmlns="http://www.w3.org/2000/svg" xmlns:xlink="http://www.w3.org/1999/xlink" x="0" y="0" viewBox="0 0 900 650" style="enable-background:new 0 0 900 650" xml:space="preserve"><style>.st1{clip-path:url(#SVGID_2_)}.st2{fill:#fff}.st4{fill:#91501c}.st6{fill:#b16827}.st7{fill:#c2eefc}.st8{opacity:.25;fill:#5d5d5d;enable-background:new}.st9{fill:#fbebba}.st10{fill:#cabc9c}.st11{fill:#8f8676}.st17{fill:#a2e04d}.st18{fill:#357315}.st19{fill:#5ecc2e}.st21{fill:#85361f}.st22{fill:#ff7d43}.st23{fill:#46d1fa}.st25{fill:#efc73e}.st27{fill:#d85d00}.st28{fill:#ff7b00}.st30{fill:#a14407}.st31{fill:#242221}.st32{fill:#5d2e07}.st33{fill:#00a615}.st34{clip-path:url(#SVGID_2_);fill:none}</style><defs><path id="SVGID_1_" d="M0 99h900v551H0z"/></defs><clipPath id="SVGID_2_"><use xlink:href="#SVGID_1_" style="overflow:visible"/></clipPath><g id="XMLID_631_" class="st1"><g id="XMLID_635_"><path id="XMLID_639_" class="st2" d="m496.6 160.2-1.8-.8.5-1.9c3.2-13.4-4.8-23.8-14.2-28.2-6.2-2.8-13.1-3.3-19.4-1.2-5.6 1.9-10.5 5.5-14.4 10.9l-1.2 1.7-1.8-1c-2.9-1.6-6.2-2.5-9.4-2.5-3 0-5.9.7-8.5 2.2-2.2 1.2-9.2 6-8.6 16.8l.1 1.9-1.8.5c-12.6 3.7-17.6 14.5-17 23.5.7 10 8.6 20.8 24.2 20.8 25.6 0 67.8-.1 68.6-.1 10.1 0 18.5-7.5 20.1-17.8 1.2-8.2-2.2-19-15.4-24.8z"/><path id="XMLID_636_" class="st2" d="M500.2 156.7c2.6-15.1-6.9-26.9-17.2-31.7-7.3-3.4-15.4-3.8-22.9-1.4-5.9 2-11.2 5.8-15.5 11-6.7-3-14.5-2.8-20.7.6-6.9 3.8-11 11-11.1 19.4-13.9 4.9-19.4 17.4-18.6 27.8.9 12.1 10.3 25.2 29 25.2 25.6 0 67.8-.1 68.6-.1 12.4 0 22.8-9.2 24.8-21.9 1.4-9-2.1-21.8-16.4-28.9zm11.8 28.2c-1.6 10.3-10 17.8-20.1 17.8-.8 0-43 .1-68.6.1-15.6 0-23.5-10.8-24.2-20.8-.7-9 4.3-19.8 17-23.5l1.8-.5-.1-1.9c-.6-10.8 6.5-15.6 8.6-16.8 2.6-1.4 5.5-2.2 8.5-2.2 3.2 0 6.5.9 9.4 2.5l1.8 1 1.2-1.7c3.9-5.4 8.7-9 14.4-10.9 6.3-2.1 13.3-1.7 19.4 1.2 9.4 4.3 17.4 14.7 14.2 28.2l-.5 1.9 1.8.8c13.2 5.9 16.6 16.7 15.4 24.8z"/></g><path id="XMLID_632_" class="st2" d="M434.8 137.2c-3 0-5.9.7-8.5 2.2-2.2 1.2-9.2 6-8.6 16.8l.1 1.9-1.8.5c-12.6 3.7-17.6 14.5-17 23.5.7 10 8.6 20.8 24.2 20.8 25.6 0 67.8-.1 68.6-.1 10.1 0 18.5-7.5 20.1-17.8 1.3-8.1-2.1-18.9-15.4-24.7l-1.8-.8.5-1.9c3.2-13.4-4.8-23.8-14.2-28.2-6.2-2.8-13.1-3.3-19.4-1.2-5.6 1.9-10.5 5.5-14.4 10.9l-1.2 1.7-1.8-1c-2.9-1.7-6.2-2.6-9.4-2.6z"/></g><g id="XMLID_622_" class="st1"><g id="XMLID_626_"><path id="XMLID_630_" class="st2" d="m594.4 309.5 1.8-.8-.5-1.9c-3.2-13.4 4.8-23.8 14.2-28.2 6.2-2.8 13.1-3.3 19.4-1.2 5.6 1.9 10.5 5.5 14.4 10.9l1.2 1.7 1.8-1c2.9-1.6 6.2-2.5 9.4-2.5 3 0 5.9.7 8.5 2.2 2.2 1.2 9.2 6 8.6 16.8l-.1 1.9 1.8.5c12.6 3.7 17.6 14.5 17 23.5-.7 10-8.6 20.8-24.2 20.8-25.6 0-67.8-.1-68.6-.1-10.1 0-18.5-7.5-20.1-17.8-1.2-8.2 2.2-19 15.4-24.8z"/><path id="XMLID_627_" class="st2" d="M574.4 334.9c1.9 12.7 12.4 21.9 24.8 21.9.8 0 43 .1 68.6.1 18.6 0 28.1-13.1 29-25.2.8-10.5-4.7-22.9-18.6-27.8-.1-8.4-4.2-15.5-11.1-19.4-6.2-3.4-14-3.6-20.7-.6-4.3-5.3-9.6-9-15.5-11-7.5-2.5-15.6-2-22.9 1.4-10.3 4.8-19.8 16.6-17.2 31.7-14.3 7.1-17.8 19.9-16.4 28.9zm20-25.4 1.8-.8-.5-1.9c-3.2-13.4 4.8-23.8 14.2-28.2 6.2-2.8 13.1-3.3 19.4-1.2 5.6 1.9 10.5 5.5 14.4 10.9l1.2 1.7 1.8-1c2.9-1.6 6.2-2.5 9.4-2.5 3 0 5.9.7 8.5 2.2 2.2 1.2 9.2 6 8.6 16.8l-.1 1.9 1.8.5c12.6 3.7 17.6 14.5 17 23.5-.7 10-8.6 20.8-24.2 20.8-25.6 0-67.8-.1-68.6-.1-10.1 0-18.5-7.5-20.1-17.8-1.2-8.2 2.2-19 15.4-24.8z"/></g><path id="XMLID_623_" class="st2" d="m646.8 289-1.8 1-1.2-1.7c-3.9-5.4-8.7-9-14.4-10.9-6.3-2.1-13.3-1.7-19.4 1.2-9.4 4.3-17.4 14.7-14.2 28.2l.5 1.9-1.8.8c-13.2 5.8-16.6 16.6-15.4 24.7 1.6 10.3 10 17.8 20.1 17.8.8 0 43 .1 68.6.1 15.6 0 23.5-10.8 24.2-20.8.7-9-4.3-19.8-17-23.5l-1.8-.5.1-1.9c.6-10.8-6.5-15.6-8.6-16.8-2.6-1.4-5.5-2.2-8.5-2.2-3.2.1-6.5 1-9.4 2.6z"/></g><g style="opacity:.14;clip-path:url(#SVGID_2_)"><path d="M0 350.7h87.4v273.2H0zm812.6 0H900v273.2h-87.4zm-574 29.6H326v243.6h-87.4zm231.7 61.9h163v181.7h-163zM651.1 497h138.3v126.9H651.1z"/><path d="M705.6 453.5h77.7v115.9h-77.7zM440.1 621.4h-87.3l1-376.7 86.3 63.2zM56.3 471.5h87.4v152.4H56.3zm130.6 31.9h87.4v120.5h-87.4z"/><path d="M404.9 503.4h87.4v120.5h-87.4zm202.5 67.1h87.4v53.4h-87.4zm145.7-40.1h87.4V624h-87.4zm-437.3-69.1h87.4v162.6h-87.4zM212.2 623.9h-87.3V269.1l43.7-50 43.6 50z"/><path d="M121.1 269.7h94.5v6.8h-94.5zm0 36.8h94.5v6.8h-94.5zm0 36.7h94.5v6.8h-94.5zm0 36.8h94.5v6.8h-94.5zm113.9-1h94.5v7.6H235zm231 59.4h174.1v7.6H466zm233.4 14.7h87.8v7.6h-87.8zm49.8-26.8h33.2v7.6h-33.2z"/><path d="M753.1 430.1h25.7v28.4h-25.7zM861 289.9h33.2v7.6H861z"/><path d="M864.9 293.7h25.7v61.9h-25.7z"/><path d="M861 334.4h6.6v16.3H861zm24.2 0h6.6v16.3h-6.6zm-764.1 82.3h94.5v6.8h-94.5zm0 36.8h94.5v6.8h-94.5zm0 36.7h94.5v6.8h-94.5zm0 36.8h94.5v6.8h-94.5zm0 36.7h94.5v6.8h-94.5zm0 36.8h94.5v6.8h-94.5zm65.8-370.9h14.6v27.2h-14.6zm221.9 46.9h14.6v27.2h-14.6z"/><path d="M0 600.5h900V650H0z"/></g><g class="st1"><path class="st4" d="M620.6 464.3h-99.7l99.7-52z"/><path class="st4" d="M537.2 408.2h38.7v48.6h-38.7z"/><path style="fill:#ffab44" d="M483.6 465.4h145.8V650H483.6z"/><path class="st6" d="M477.8 463.8h157.4V477H477.8zm0 51h157.4V528H477.8zm0 51h157.4V579H477.8z"/><path class="st7" d="M493.6 589.5H550v60.8h-56.4z"/><path class="st6" d="M491 586.8h4.1v63.4H491zm58.1 0h4.1v63.4h-4.1zm-28.3 0h2.1v63.4h-2.1z"/><path class="st6" d="M491 586.1h62.2v4.5H491z"/><path class="st7" d="M494.1 535.1h22.5v24.2h-22.5z"/><path class="st6" d="M493.1 534h1.6v25.3h-1.6zm23.1 0h1.6v25.3h-1.6zm-11.3 0h.8v25.3h-.8z"/><path class="st6" d="M493.1 533.7h24.8v1.8h-24.8zm0 23.9h24.8v1.8h-24.8z"/><path class="st7" d="M528.8 535.1h22.5v24.2h-22.5z"/><path class="st6" d="M527.8 534h1.6v25.3h-1.6zm23.1 0h1.6v25.3h-1.6zm-11.3 0h.8v25.3h-.8z"/><path class="st6" d="M527.8 533.7h24.8v1.8h-24.8zm0 23.9h24.8v1.8h-24.8z"/><path class="st7" d="M559.6 535.1h22.5v24.2h-22.5z"/><path class="st6" d="M558.5 534h1.6v25.3h-1.6zm23.2 0h1.6v25.3h-1.6zm-11.3 0h.8v25.3h-.8z"/><path class="st6" d="M558.5 533.7h24.8v1.8h-24.8zm0 23.9h24.8v1.8h-24.8z"/><path class="st7" d="M594.4 535.1h22.5v24.2h-22.5z"/><path class="st6" d="M593.4 534h1.6v25.3h-1.6zm23.1 0h1.6v25.3h-1.6zm-11.3 0h.8v25.3h-.8z"/><path class="st6" d="M593.4 533.7h24.8v1.8h-24.8zm0 23.9h24.8v1.8h-24.8z"/><path class="st7" d="M561 589.5h56.4v60.8H561z"/><path class="st6" d="M558.5 586.8h4.1v63.4h-4.1zm58.1 0h4.1v63.4h-4.1zm-28.4 0h2.1v63.4h-2.1z"/><path class="st6" d="M558.5 586.1h62.2v4.5h-62.2z"/><path class="st7" d="M483.6 482.6h145.8V509H483.6z"/><path class="st6" d="M482.6 479.5h146.8v4.6H482.6zm0 26.1h146.8v4.6H482.6z"/><path class="st6" d="M489.1 482.3h2v24.8h-2zm26.1 0h2v24.8h-2zm26.2 0h2v24.8h-2zm26.2 0h2v24.8h-2zm26.2 0h2v24.8h-2zm26.2 0h2v24.8h-2z"/><path class="st8" d="M561 650.3h59.7v-.3h8.7v-71h5.8v-13.2h-5.8V528h5.8v-13.2h-5.8v-37.9h5.8v-13.1h-14.6v-51.5l-44.7 23.3v-27.4h-19.4V650h2v.3z"/></g><g class="st1"><path class="st9" d="M155.1 639.5h185.3v10.8H155.1z"/><path class="st9" d="M162.9 531.7h171.7v118.6H162.9zm49.1-89h68.9v73.7H212z"/><circle class="st9" cx="246.4" cy="442.7" r="34.4"/><ellipse class="st9" cx="248.7" cy="531.3" rx="85.9" ry="20.8"/><path class="st9" d="m235.7 412.3 10.7-69.1 10.8 69.1z"/><path class="st10" d="M206.5 442.9h80.1v8.8h-80.1z"/><path class="st11" d="M206.5 449.1h80.1v2.6h-80.1z"/><path class="st10" d="M210.8 433.6h71.9v2.5h-71.9zm5.6-12.3h61.1v2.5h-61.1zm12.1-11.5h36.9v2.4h-36.9zm-22 93.7h80.1v8.8h-80.1zM161 529.4h174.7v8.8H161zm0 10.2h174.7v4.4H161z"/><path class="st10" d="M216.4 447.4h8.6V509h-8.6zM168 531.3h8.6v42.6H168zm25.1 0h8.6v42.6h-8.6zm25.1 0h8.6v42.6h-8.6zm25 0h8.6v42.6h-8.6zm25.1 0h8.6v42.6h-8.6zm25.1 0h8.6v42.6h-8.6zm25 0h8.6v42.6h-8.6zm-84.8-83.9h8.6V509h-8.6zm17.3 0h8.6V509h-8.6zm17.2 0h8.6V509h-8.6zM235 411.1s-9.8 11.9-11.3 31.9h3.3s1.3-17.5 9.8-31.9H235zm21.8 0s9.8 11.9 11.3 31.9h-3.3s-1.3-17.5-9.8-31.9h1.8zm-12.5.3h2.3v31.5h-2.3z"/><path class="st11" d="M206.5 510.5h80.1v2.6h-80.1zM161 535.4h174.7v2.8H161z"/><path class="st10" d="M161 569.7h174.7v8.8H161z"/><path class="st10" d="M172.3 577.7h17.5v72.5h-17.5z"/><path class="st10" d="m168 578.5 4.3 6.5h17.5l4.2-6.6zm26 71.7-4.3-6.5h-17.5l-4.2 6.6z"/><path class="st11" d="M177.5 642.7c0 .6-.5 1.1-1.1 1.1-.6 0-1.1-.5-1.1-1.1V587c0-.6.5-1.1 1.1-1.1.6 0 1.1.5 1.1 1.1v55.7zm8 0c0 .6-.5 1.1-1.1 1.1-.6 0-1.1-.5-1.1-1.1V587c0-.6.5-1.1 1.1-1.1.6 0 1.1.5 1.1 1.1v55.7z"/><path class="st10" d="M205 577.7h17.5v72.5H205z"/><path class="st10" d="m200.7 578.5 4.3 6.5h17.5l4.1-6.6zm25.9 71.7-4.3-6.5h-17.5l-4.1 6.6z"/><path class="st11" d="M210.2 642.7c0 .6-.5 1.1-1.1 1.1-.6 0-1.1-.5-1.1-1.1V587c0-.6.5-1.1 1.1-1.1.6 0 1.1.5 1.1 1.1v55.7zm8 0c0 .6-.5 1.1-1.1 1.1-.6 0-1.1-.5-1.1-1.1V587c0-.6.5-1.1 1.1-1.1.6 0 1.1.5 1.1 1.1v55.7z"/><path class="st10" d="M274.1 577.7h17.5v72.5h-17.5z"/><path class="st10" d="m269.8 578.5 4.3 6.5h17.5l4.2-6.6zm26 71.7-4.3-6.5H274l-4.2 6.6z"/><path class="st11" d="M279.3 642.7c0 .6-.5 1.1-1.1 1.1-.6 0-1.1-.5-1.1-1.1V587c0-.6.5-1.1 1.1-1.1.6 0 1.1.5 1.1 1.1v55.7zm8.1 0c0 .6-.5 1.1-1.1 1.1-.6 0-1.1-.5-1.1-1.1V587c0-.6.5-1.1 1.1-1.1.6 0 1.1.5 1.1 1.1v55.7z"/><path class="st10" d="M306.8 577.7h17.5v72.5h-17.5z"/><path class="st10" d="m302.5 578.5 4.3 6.5h17.5l4.1-6.6zm25.9 71.7-4.3-6.5h-17.4l-4.2 6.6z"/><path class="st11" d="M312 642.7c0 .6-.5 1.1-1.1 1.1-.6 0-1.1-.5-1.1-1.1V587c0-.6.5-1.1 1.1-1.1.6 0 1.1.5 1.1 1.1v55.7zm8 0c0 .6-.5 1.1-1.1 1.1-.6 0-1.1-.5-1.1-1.1V587c0-.6.5-1.1 1.1-1.1.6 0 1.1.5 1.1 1.1v55.7zm-159-67h174.7v2.8H161z"/><path class="st10" d="M228.8 643.7h39.3v6.5h-39.3z"/><path class="st10" d="M237.1 640h22.8v3.8h-22.8zm4-3.6h14.8v3.6h-14.8zm12.7 0h-10.9v-39.5l5.4-4.7 5.5 4.7z"/><path class="st8" d="M247.2 650.3h93.2v-10.8h-5.8v-61h1.1v-8.8h-1.1V544h1.1v-4.4h-1.1v-1.4h1.1v-8.8h-1.5c-2.8-7.4-21.4-13.6-47.6-16.7v-9.2h-5.7v-51.8h5.7v-8.8h-5.7v-.3c0-2.3-.2-4.5-.6-6.6h2.4v-2.5h-3c-1-3.5-2.5-6.8-4.4-9.8h2.3v-2.5h-4.1c-2.9-3.7-6.6-6.8-10.8-9h2.7v-2.4h-8.6l-9.6-61.7v302.2z"/><circle class="st10" cx="246.4" cy="344" r="2.6"/></g><path style="clip-path:url(#SVGID_2_);fill:#8c8c8c" d="M0 671.5h900v129.6H0z"/><path d="M0 678.7h900v6.4H0zm0 61.9h900v6.4H0zm27.4-32.5h22.7v3.8H27.4zm76.5 0h22.7v3.8h-22.7zm76.5 0h22.7v3.8h-22.7zm76.5 0h22.7v3.8h-22.7zm76.5 0h22.7v3.8h-22.7zm76.6 0h22.7v3.8H410zm76.5 0h22.7v3.8h-22.7zm76.5 0h22.7v3.8H563zm76.5 0h22.7v3.8h-22.7zm76.5 0h22.7v3.8H716zm76.5 0h22.7v3.8h-22.7zm76.5 0h22.7v3.8H869z" style="clip-path:url(#SVGID_2_);fill:#fff"/><path style="clip-path:url(#SVGID_2_);fill:#c1a9a9" d="M0 665.1h900v6.4H0z"/><path d="M0 650h900v15.1H0zm0 101.7h900v15.1H0z" style="clip-path:url(#SVGID_2_);fill:#cdcaca"/><path style="clip-path:url(#SVGID_2_);fill:#00844a" d="M0 766.8h900v34.3H0z"/><path style="clip-path:url(#SVGID_2_);fill:#00c147" d="M0 775.1h900v60.3H0z"/><g class="st1"><path class="st17" d="M658.2 583.6h105.2V650H658.2z"/><path class="st18" d="M763.5 557.2H656.9l-12.6 31h131.8z"/><path class="st19" d="M644.3 579h131.8v9.3H644.3z"/><path class="st18" d="M732.5 598.6h25.1V650h-25.1z"/><circle class="st17" cx="753.2" cy="623.9" r="3"/><path class="st7" d="M663.6 598.6h64V641h-64z"/><path class="st19" d="M663.6 636.6h64v4.4h-64z"/><ellipse class="st19" cx="650.8" cy="588.3" rx="6.6" ry="6.4"/><ellipse class="st19" cx="664.1" cy="588.3" rx="6.6" ry="6.4"/><ellipse class="st19" cx="677.4" cy="588.3" rx="6.6" ry="6.4"/><ellipse class="st19" cx="690.5" cy="588.3" rx="6.6" ry="6.4"/><ellipse class="st19" cx="703.4" cy="588.3" rx="6.6" ry="6.4"/><ellipse class="st19" cx="716.4" cy="588.3" rx="6.6" ry="6.4"/><ellipse class="st19" cx="730" cy="588.3" rx="6.6" ry="6.4"/><ellipse class="st19" cx="743" cy="588.3" rx="6.6" ry="6.4"/><ellipse class="st19" cx="756.2" cy="588.3" rx="6.6" ry="6.4"/><ellipse class="st19" cx="769.5" cy="588.3" rx="6.6" ry="6.4"/><path class="st19" d="M657.4 527h105.4v22.9H657.4z"/><path class="st18" d="m665 527 9.5-19.9h6.8l4.1 7.7h-6.2l-1.8-4.3-8.3 16.5zm34.9 0 9.5-19.9h6.8l4.1 7.7h-6.2l-1.8-4.3L704 527zm34.9 0 9.5-19.9h6.8l4.1 7.7H749l-1.8-4.3-8.3 16.5zm-55.2 22.9h5.8v7.3h-5.8zm55.2 0h5.8v7.3h-5.8z"/><path class="st21" d="M763.5 557.2h-22.9v-7.3h22.2V527h-23.9l8.3-16.5 1.8 4.3h6.2l-4.1-7.7h-6.8l-9.6 19.9h-23.9v22.9h23.9v7.3h-24V650h52.6v-59.4c1 2.4 3.3 4 6.1 4 3.6 0 6.6-2.9 6.6-6.4V579h-3.7l-8.8-21.8zm-43.2-42.4-4.1-7.7h-5.4v6.3l1.5-2.9 1.8 4.3z" style="opacity:.25"/></g><g class="st1"><path class="st21" d="M440.8 489.5h13.7v10.9h-13.7z"/><path class="st21" d="M438.8 484.1h17.6v5.5h-17.6z"/><path class="st22" d="M353 527h105.2v123.3H353z"/><path class="st21" d="M458.2 500.5H351.6L339 531.6h131.8zm-115.6 79.8h126v9.3h-126z"/><circle class="st21" cx="370.2" cy="554.1" r="13.6"/><circle class="st23" cx="370.2" cy="554.1" r="10.6"/><path class="st21" d="M368.9 542.6h2.6v22.9h-2.6z"/><path class="st21" d="M358.8 552.8h22.9v2.6h-22.9z"/><circle class="st21" cx="405.1" cy="554.1" r="13.6"/><circle class="st23" cx="405.1" cy="554.1" r="10.6"/><path class="st21" d="M403.8 542.6h2.6v22.9h-2.6z"/><path class="st21" d="M393.7 552.8h22.9v2.6h-22.9z"/><circle class="st21" cx="440.1" cy="554.1" r="13.6"/><circle class="st23" cx="440.1" cy="554.1" r="10.6"/><path class="st21" d="M438.8 542.6h2.6v22.9h-2.6z"/><path class="st21" d="M428.6 552.8h22.9v2.6h-22.9z"/><path style="fill:#e85e3c" d="M339 522.3h131.8v9.3H339z"/><path class="st9" d="M358.7 598.6h56.9v37.9h-56.9z"/><path class="st23" d="M362.7 602.4h49v30.5h-49z"/><path class="st9" d="M385.2 598.6h4.2v36.8h-4.2z"/><path class="st21" d="M423.3 600.5h25.1V650h-25.1z"/><circle class="st22" cx="443.2" cy="623.9" r="3"/><path class="st8" d="M458.2 500.5h-3.7v-11h1.9v-5.4h-17.6v5.4h2v11h-37v149.8h54.4v-60.8h10.4v-9.2h-10.4v-48.7h12.6v-9.3h-3.7z"/></g><g class="st1"><path class="st25" d="M18.8 584.9h121.5v65.3H18.8zm19.5-49h82.6v44.4H38.3z"/><path class="st9" d="M16.4 580.3h126v9.3h-126zm1.2 65.6h46.1v4.3H17.6zm76.4 0h47.5v4.3H94zM34.3 527h90.3v9.3H34.3zm9 18h28.1v18.7H43.3z"/><path class="st23" d="M45.2 546.8h24.2v15.1H45.2z"/><path class="st9" d="M56.4 545h2.1v18.2h-2.1zm-32.1 56.6h38.1V627H24.3z"/><path class="st23" d="M26.9 604.1h32.8v20.4H26.9z"/><path class="st9" d="M42.1 601.6h2.8v24.6h-2.8zm52.9 0h38.1V627H95z"/><path class="st23" d="M97.7 604.1h32.8v20.4H97.7z"/><path class="st9" d="M112.8 601.6h2.8v24.6h-2.8zM87.9 545H116v18.7H87.9z"/><path class="st23" d="M89.9 546.8h24.2v15.1H89.9z"/><path class="st9" d="M101 545h2.1v18.2H101zM90.5 650.3H68.3v-31.7c0-6.1 5-11.1 11.1-11.1s11.1 5 11.1 11.1v31.7z"/><circle cx="86.8" cy="629.6" r="2.4" style="fill:#7f714c"/><path class="st9" d="M103.1 516h13.7v10.9h-13.7z"/><path class="st9" d="M101 510.6h17.6v5.5H101z"/><path class="st8" d="M120.8 536.2h3.7V527h-7.8v-11h1.9v-5.4H101v5.4h2.1v11H79.5v123.3h62.1v-4.4h-1.3v-56.4h2.1v-9.2h-21.6z"/></g><g class="st1"><path class="st27" d="M862.2 641.8h13.1v6.8h-13.1zm-82.6-232.4V401h99.3v8.4z"/><path class="st27" d="M784 407.3h7.9v29H784zm20.6 0h8v29h-7.9zm20.7 0h7.9v29h-7.9zm20.6 0h7.9v29h-7.9zm20.6 0h7.9v29h-7.9z"/><path class="st28" d="M783.1 650.3V433.9h92.3V650z"/><path d="M779.6 437v-7.9h99.3v7.9zm0 74.1v-7.9h99.3v7.9zm0 74v-7.9h99.3v7.9z" style="fill:#ffecab"/><path class="st27" d="M783.1 456.9h13.1v6.8h-13.1z"/><path class="st27" d="M789.7 463.6h13.1v6.8h-13.1zm66 24h13.1v6.8h-13.1z"/><path class="st27" d="M862.2 494.4h13.1v6.8h-13.1zm-79.1 36.1h13.1v6.8h-13.1zm6.6 6.8h13.1v6.8h-13.1zm66 24h13.1v6.8h-13.1zm6.5 6.8h13.1v6.8h-13.1zm-79.1 36.1h13.1v6.8h-13.1zm6.6 6.8h13.1v6.8h-13.1zm66 24h13.1v6.8h-13.1z"/><path class="st9" d="M789 445.6h23.6V481H789z"/><path class="st23" d="M791.3 448.1h19v30.5h-19z"/><path class="st9" d="M789.7 462.2h22.9v2.6h-22.9zm27.6-16.6h23.6V481h-23.6z"/><path class="st23" d="M819.6 448.1h19v30.5h-19z"/><path class="st9" d="M817.9 462.2h22.9v2.6h-22.9zm27.6-16.6h23.6V481h-23.6z"/><path class="st23" d="M847.8 448.1h19v30.5h-19z"/><path class="st9" d="M846.2 462.2h22.9v2.6h-22.9zM789 520.7h23.6v35.4H789z"/><path class="st23" d="M791.3 523.2h19v30.5h-19z"/><path class="st9" d="M789.7 537.2h22.9v2.6h-22.9zm-.7 61.9h23.6v35.4H789z"/><path class="st23" d="M791.3 601.6h19v30.5h-19z"/><path class="st9" d="M789.7 615.6h22.9v2.6h-22.9zm55.8-16.5h23.6v35.4h-23.6z"/><path class="st23" d="M847.8 601.6h19v30.5h-19z"/><path class="st9" d="M846.2 615.6h22.9v2.6h-22.9zm-28.9-94.9h23.6v35.4h-23.6z"/><path class="st23" d="M819.6 523.2h19v30.5h-19z"/><path class="st9" d="M817.9 537.2h22.9v2.6h-22.9zm27.6-16.5h23.6v35.4h-23.6z"/><path class="st23" d="M847.8 523.2h19v30.5h-19z"/><path class="st9" d="M846.2 537.2h22.9v2.6h-22.9z"/><path class="st30" d="M846.2 628.2v-6.8H887v6.8z"/><path class="st30" d="M848.7 626.4h5.6v23.3h-5.6zm14.7 0h5.7v23.3h-5.7zm14.7 0h5.7v23.3h-5.7zm-106.5 1.8v-6.8h41v6.8z"/><path class="st30" d="M774.8 626.4h5.7v23.3h-5.7zm14.8 0h5.6v23.3h-5.6zm14.7 0h5.7v23.3h-5.7zm35.9 23.9H818V608c0-6.1 5-11.1 11.1-11.1s11.1 5 11.1 11.1v42.3z"/><circle class="st28" cx="835.2" cy="626.9" r="2"/><path class="st8" d="m840.2 650.1 35.2-.1v-21.8h2.8v21.5h5.7v-21.5h3.2v-6.8h-11.6v-36.3h3.6v-7.9h-3.6V511h3.6v-7.9h-3.6V437h3.6v-7.9h-4.5v-19.7h4.5V401h-49.9v249.3h11.1l-.1-.2zm13.6-240.7h12.7v19.7h-12.7v-19.7zm-20.6 0h12.7v19.7h-12.7v-19.7z"/></g><g class="st1"><path class="st31" d="M15.4 591.4h4.5v66.2h-4.5z"/><path class="st31" d="M12.7 657.6h9.8s-4.9-9-9.8 0zm12.1-74.5H10.4l4.5 11.3.1.5h5.2l.2-.5zm-15.2-1.9h15.6v1.8H9.6z"/><path class="st31" d="M16.5 573.7h1.8v15.6h-1.8z"/><ellipse class="st31" cx="17.5" cy="581.2" rx="7.1" ry="6.1"/><path class="st25" d="M11.5 583.1h5.7v11.3h-.9zm12.3 0h-5.7v11.3h.9z"/></g><g class="st1"><path class="st31" d="M171 591.4h4.5v66.2H171z"/><path class="st31" d="M168.3 657.6h9.8s-4.8-9-9.8 0zm12.2-74.5h-14.4l4.4 11.3.1.5h5.3l.1-.5zm-15.2-1.9h15.6v1.8h-15.6z"/><path class="st31" d="M172.1 573.7h1.8v15.6h-1.8z"/><ellipse class="st31" cx="173.2" cy="581.2" rx="7.1" ry="6.1"/><path class="st25" d="M167.2 583.1h5.6v11.3h-.9zm12.2 0h-5.7v11.3h.9z"/></g><g class="st1"><path class="st31" d="M326.6 591.4h4.5v66.2h-4.5z"/><path class="st31" d="M323.9 657.6h9.8c.1 0-4.8-9-9.8 0zm12.2-74.5h-14.4l4.4 11.3.2.5h5.2l.2-.5zm-15.2-1.9h15.6v1.8h-15.6z"/><path class="st31" d="M327.8 573.7h1.8v15.6h-1.8z"/><ellipse class="st31" cx="328.8" cy="581.2" rx="7.1" ry="6.1"/><path class="st25" d="M322.8 583.1h5.7v11.3h-1zm12.2 0h-5.6v11.3h.9z"/></g><g class="st1"><path class="st31" d="M482.3 591.4h4.5v66.2h-4.5z"/><path class="st31" d="M479.5 657.6h9.8c.1 0-4.8-9-9.8 0zm12.2-74.5h-14.4l4.5 11.3.1.5h5.2l.2-.5zm-15.2-1.9h15.6v1.8h-15.6z"/><path class="st31" d="M483.4 573.7h1.8v15.6h-1.8z"/><ellipse class="st31" cx="484.4" cy="581.2" rx="7.1" ry="6.1"/><path class="st25" d="M478.4 583.1h5.7v11.3h-.9zm12.3 0H485v11.3h.9z"/></g><g class="st1"><path class="st31" d="M637.9 591.4h4.5v66.2h-4.5z"/><path class="st31" d="M635.2 657.6h9.8s-4.9-9-9.8 0zm12.1-74.5H633l4.4 11.3.1.5h5.3l.1-.5zm-15.2-1.9h15.6v1.8h-15.6z"/><path class="st31" d="M639 573.7h1.8v15.6H639z"/><ellipse class="st31" cx="640.1" cy="581.2" rx="7.1" ry="6.1"/><path class="st25" d="M634 583.1h5.7v11.3h-.9zm12.3 0h-5.7v11.3h.9z"/></g><g class="st1"><path class="st31" d="M793.5 591.4h4.5v66.2h-4.5z"/><path class="st31" d="M790.8 657.6h9.8s-4.8-9-9.8 0zm12.2-74.5h-14.4l4.4 11.3.2.5h5.2l.2-.5zm-15.2-1.9h15.6v1.8h-15.6z"/><path class="st31" d="M794.7 573.7h1.8v15.6h-1.8z"/><ellipse class="st31" cx="795.7" cy="581.2" rx="7.1" ry="6.1"/><path class="st25" d="M789.7 583.1h5.7v11.3h-1zm12.2 0h-5.6v11.3h.9z"/></g><g class="st1"><path class="st32" d="M47.9 824.1c0 1.9-1.5 3.4-3.4 3.4s-3.4-1.5-3.4-3.4v-53.2c0-1.9 1.5-3.4 3.4-3.4s3.4 1.5 3.4 3.4v53.2z"/><circle class="st33" cx="45" cy="763.7" r="24"/><circle class="st33" cx="30.1" cy="778" r="14.5"/><circle class="st33" cx="58.2" cy="775.6" r="17"/><path class="st8" d="M44.5 827.4c1.9 0 3.4-1.5 3.4-3.4v-34.9c2.9 2.2 6.4 3.5 10.3 3.5 9.4 0 17-7.6 17-17 0-5.3-2.5-10.1-6.3-13.2-.7-12.6-11.2-22.6-23.9-22.6h-.4v87.6h-.1z"/></g><g class="st1"><path class="st32" d="M128.4 824.1c0 1.9-1.5 3.4-3.4 3.4s-3.4-1.5-3.4-3.4v-53.2c0-1.9 1.5-3.4 3.4-3.4s3.4 1.5 3.4 3.4v53.2z"/><circle class="st33" cx="125.4" cy="763.7" r="24"/><circle class="st33" cx="110.6" cy="778" r="14.5"/><circle transform="rotate(-80.781 138.613 775.599)" class="st33" cx="138.6" cy="775.6" r="17"/><path class="st8" d="M125 827.4c1.9 0 3.4-1.5 3.4-3.4v-34.9c2.9 2.2 6.4 3.5 10.3 3.5 9.4 0 17-7.6 17-17 0-5.3-2.5-10.1-6.3-13.2-.7-12.6-11.2-22.6-23.9-22.6h-.4l-.1 87.6z"/></g><g class="st1"><path class="st32" d="M208.9 824.1c0 1.9-1.5 3.4-3.4 3.4s-3.4-1.5-3.4-3.4v-53.2c0-1.9 1.5-3.4 3.4-3.4s3.4 1.5 3.4 3.4v53.2z"/><circle class="st33" cx="205.9" cy="763.7" r="24"/><circle class="st33" cx="191.1" cy="778" r="14.5"/><circle class="st33" cx="219.1" cy="775.6" r="17"/><path class="st8" d="M205.5 827.4c1.9 0 3.4-1.5 3.4-3.4v-34.9c2.9 2.2 6.4 3.5 10.3 3.5 9.4 0 17-7.6 17-17 0-5.3-2.5-10.1-6.3-13.2-.7-12.6-11.2-22.6-23.9-22.6h-.4l-.1 87.6z"/></g><g class="st1"><path class="st32" d="M289.3 824.1c0 1.9-1.5 3.4-3.4 3.4s-3.4-1.5-3.4-3.4v-53.2c0-1.9 1.5-3.4 3.4-3.4s3.4 1.5 3.4 3.4v53.2z"/><circle class="st33" cx="286.4" cy="763.7" r="24"/><circle class="st33" cx="271.6" cy="778" r="14.5"/><circle class="st33" cx="299.6" cy="775.6" r="17"/><path class="st8" d="M286 827.4c1.9 0 3.4-1.5 3.4-3.4v-34.9c2.9 2.2 6.4 3.5 10.3 3.5 9.4 0 17-7.6 17-17 0-5.3-2.5-10.1-6.3-13.2-.7-12.6-11.2-22.6-23.9-22.6h-.4l-.1 87.6z"/></g><g class="st1"><path class="st32" d="M369.8 824.1c0 1.9-1.5 3.4-3.4 3.4s-3.4-1.5-3.4-3.4v-53.2c0-1.9 1.5-3.4 3.4-3.4s3.4 1.5 3.4 3.4v53.2z"/><circle class="st33" cx="366.9" cy="763.7" r="24"/><circle class="st33" cx="352" cy="778" r="14.5"/><circle class="st33" cx="380.1" cy="775.6" r="17"/><path class="st8" d="M366.4 827.4c1.9 0 3.4-1.5 3.4-3.4v-34.9c2.9 2.2 6.4 3.5 10.3 3.5 9.4 0 17-7.6 17-17 0-5.3-2.5-10.1-6.3-13.2-.7-12.6-11.2-22.6-23.9-22.6h-.4l-.1 87.6z"/></g><g class="st1"><path class="st32" d="M450.3 824.1c0 1.9-1.5 3.4-3.4 3.4s-3.4-1.5-3.4-3.4v-53.2c0-1.9 1.5-3.4 3.4-3.4s3.4 1.5 3.4 3.4v53.2z"/><circle class="st33" cx="447.4" cy="763.7" r="24"/><circle class="st33" cx="432.5" cy="778" r="14.5"/><circle class="st33" cx="460.6" cy="775.6" r="17"/><path class="st8" d="M446.9 827.4c1.9 0 3.4-1.5 3.4-3.4v-34.9c2.9 2.2 6.4 3.5 10.3 3.5 9.4 0 17-7.6 17-17 0-5.3-2.5-10.1-6.3-13.2-.7-12.6-11.2-22.6-23.9-22.6h-.4l-.1 87.6z"/></g><g class="st1"><path class="st32" d="M530.8 824.1c0 1.9-1.5 3.4-3.4 3.4s-3.4-1.5-3.4-3.4v-53.2c0-1.9 1.5-3.4 3.4-3.4s3.4 1.5 3.4 3.4v53.2z"/><circle class="st33" cx="527.8" cy="763.7" r="24"/><circle class="st33" cx="513" cy="778" r="14.5"/><circle class="st33" cx="541" cy="775.6" r="17"/><path class="st8" d="M527.4 827.4c1.9 0 3.4-1.5 3.4-3.4v-34.9c2.9 2.2 6.4 3.5 10.3 3.5 9.4 0 17-7.6 17-17 0-5.3-2.5-10.1-6.3-13.2-.7-12.6-11.2-22.6-23.9-22.6h-.4l-.1 87.6z"/></g><g class="st1"><path class="st32" d="M611.3 824.1c0 1.9-1.5 3.4-3.4 3.4s-3.4-1.5-3.4-3.4v-53.2c0-1.9 1.5-3.4 3.4-3.4s3.4 1.5 3.4 3.4v53.2z"/><circle class="st33" cx="608.3" cy="763.7" r="24"/><circle class="st33" cx="593.5" cy="778" r="14.5"/><circle class="st33" cx="621.5" cy="775.6" r="17"/><path class="st8" d="M607.9 827.4c1.9 0 3.4-1.5 3.4-3.4v-34.9c2.9 2.2 6.4 3.5 10.3 3.5 9.4 0 17-7.6 17-17 0-5.3-2.5-10.1-6.3-13.2-.7-12.6-11.2-22.6-23.9-22.6h-.4l-.1 87.6z"/></g><g class="st1"><path class="st32" d="M691.7 824.1c0 1.9-1.5 3.4-3.4 3.4s-3.4-1.5-3.4-3.4v-53.2c0-1.9 1.5-3.4 3.4-3.4s3.4 1.5 3.4 3.4v53.2z"/><circle class="st33" cx="688.8" cy="763.7" r="24"/><circle class="st33" cx="674" cy="778" r="14.5"/><circle class="st33" cx="702" cy="775.6" r="17"/><path class="st8" d="M688.4 827.4c1.9 0 3.4-1.5 3.4-3.4v-34.9c2.9 2.2 6.4 3.5 10.3 3.5 9.4 0 17-7.6 17-17 0-5.3-2.5-10.1-6.3-13.2-.7-12.6-11.2-22.6-23.9-22.6h-.4l-.1 87.6z"/></g><g class="st1"><path class="st32" d="M772.2 824.1c0 1.9-1.5 3.4-3.4 3.4s-3.4-1.5-3.4-3.4v-53.2c0-1.9 1.5-3.4 3.4-3.4s3.4 1.5 3.4 3.4v53.2z"/><circle class="st33" cx="769.3" cy="763.7" r="24"/><circle class="st33" cx="754.5" cy="778" r="14.5"/><circle class="st33" cx="782.5" cy="775.6" r="17"/><path class="st8" d="M768.8 827.4c1.9 0 3.4-1.5 3.4-3.4v-34.9c2.9 2.2 6.4 3.5 10.3 3.5 9.4 0 17-7.6 17-17 0-5.3-2.5-10.1-6.3-13.2-.7-12.6-11.2-22.6-23.9-22.6h-.4l-.1 87.6z"/></g><g class="st1"><path class="st32" d="M852.7 824.1c0 1.9-1.5 3.4-3.4 3.4s-3.4-1.5-3.4-3.4v-53.2c0-1.9 1.5-3.4 3.4-3.4s3.4 1.5 3.4 3.4v53.2z"/><circle class="st33" cx="849.8" cy="763.7" r="24"/><circle class="st33" cx="834.9" cy="778" r="14.5"/><circle class="st33" cx="863" cy="775.6" r="17"/><path class="st8" d="M849.3 827.4c1.9 0 3.4-1.5 3.4-3.4v-34.9c2.9 2.2 6.4 3.5 10.3 3.5 9.4 0 17-7.6 17-17 0-5.3-2.5-10.1-6.3-13.2-.7-12.6-11.2-22.6-23.9-22.6h-.4l-.1 87.6z"/></g><g id="XMLID_640_" class="st1"><g id="XMLID_644_"><path id="XMLID_648_" class="st2" d="m149.6 241-1.8-.8.5-1.9c3.2-13.4-4.8-23.8-14.2-28.2-6.2-2.8-13.1-3.3-19.4-1.2-5.6 1.9-10.5 5.5-14.4 10.9l-1.2 1.7-1.8-1c-2.9-1.6-6.2-2.5-9.4-2.5-3 0-5.9.7-8.5 2.2-2.2 1.2-9.2 6-8.6 16.8l.1 1.9-1.8.5c-12.6 3.7-17.6 14.5-17 23.5.7 10 8.6 20.8 24.2 20.8 25.6 0 67.8-.1 68.6-.1 10.1 0 18.5-7.5 20.1-17.8 1.3-8.2-2.1-19-15.4-24.8z"/><path id="XMLID_645_" class="st2" d="M153.3 237.5c2.6-15.1-6.9-26.9-17.2-31.7-7.3-3.4-15.4-3.8-22.9-1.4-5.9 2-11.2 5.8-15.5 11-6.7-3-14.5-2.8-20.7.6-6.9 3.8-11 11-11.1 19.4-13.9 4.9-19.4 17.4-18.6 27.8.9 12.1 10.3 25.2 29 25.2 25.6 0 67.8-.1 68.6-.1 12.4 0 22.8-9.2 24.8-21.9 1.4-9-2.1-21.8-16.4-28.9zm11.7 28.2c-1.6 10.3-10 17.8-20.1 17.8-.8 0-43 .1-68.6.1-15.6 0-23.5-10.8-24.2-20.8-.7-9 4.3-19.8 17-23.5l1.8-.5-.1-1.9c-.6-10.8 6.5-15.6 8.6-16.8 2.6-1.4 5.5-2.2 8.5-2.2 3.2 0 6.5.9 9.4 2.5l1.8 1 1.2-1.7c3.9-5.4 8.7-9 14.4-10.9 6.3-2.1 13.3-1.7 19.4 1.2 9.4 4.3 17.4 14.7 14.2 28.2l-.5 1.9 1.8.8c13.3 5.9 16.7 16.7 15.4 24.8z"/></g><path id="XMLID_641_" class="st2" d="M87.8 218c-3 0-5.9.7-8.5 2.2-2.2 1.2-9.2 6-8.6 16.8l.1 1.9-1.8.5c-12.6 3.7-17.6 14.5-17 23.5.7 10 8.6 20.8 24.2 20.8 25.6 0 67.8-.1 68.6-.1 10.1 0 18.5-7.5 20.1-17.8 1.3-8.1-2.1-18.9-15.4-24.7l-1.8-.8.5-1.9c3.2-13.4-4.8-23.8-14.2-28.2-6.2-2.8-13.1-3.3-19.4-1.2-5.6 1.9-10.5 5.5-14.4 10.9l-1.2 1.7-1.8-1c-2.9-1.7-6.1-2.6-9.4-2.6z"/></g><path class="st34" d="M0 99h900v551H0z"/><path class="st34" d="M0 99h900v551H0z"/><path class="st34" d="M0 99h900v551H0z"/></svg>