<svg id="Calque_1" data-name="Calque 1" xmlns="http://www.w3.org/2000/svg" viewBox="0 0 450 450"><defs><clipPath id="clip-path"><circle cx="114.5" cy="163" r="49" style="fill:none"/></clipPath><style>.cls-14,.cls-15,.cls-17,.cls-18,.cls-3{fill:none}.cls-2{fill:#f1bd19}.cls-2,.cls-3,.cls-7,.cls-8{stroke:#231f20}.cls-14,.cls-15,.cls-17,.cls-18,.cls-2,.cls-21,.cls-3,.cls-7,.cls-8{stroke-linecap:round;stroke-linejoin:round}.cls-7{fill:#ececec}.cls-32{stroke:#696992}.cls-8{fill:#f6d1a7}.cls-14,.cls-15,.cls-17,.cls-18{stroke:#ececec}.cls-15{stroke-dasharray:4.45 1.78}.cls-17,.cls-18{stroke-dasharray:5.06 2.02}.cls-21{fill:#f2f2f4;stroke:#6e6e6e;stroke-width:2px}.cls-32{stroke-width:2px;fill:#fff;stroke-miterlimit:10}.cls-23{fill:#00d1b2}.cls-29{fill:#fbd7ce}.cls-30{fill:#5c5c74}.cls-33{fill:#facab8}.cls-34{fill:#edeff0}.cls-36{fill:#3ab2ed}</style></defs><path class="cls-2" d="M349.5 186h-19.7a2.65 2.65 0 0 0-2.6 2.6v10.5a2.65 2.65 0 0 0 2.6 2.6h1.6a6 6 0 0 1-1.6 4 .85.85 0 0 0 .5 1.4c4.1.4 6.8-2.5 6.8-5.3h12.3a2.65 2.65 0 0 0 2.6-2.6v-10.5a2.47 2.47 0 0 0-2.5-2.7Z"/><path class="cls-3" d="M330.6 190.4h18m-18 3.7h18m-18 3.6h18"/><path d="M312 368.5a14.53 14.53 0 0 1-3.8 9.9 14.8 14.8 0 0 1-22 0 14.53 14.53 0 0 1-3.8-9.9 14.8 14.8 0 0 1 29.6 0Z" style="stroke:#696992;fill:#ececec;stroke-linecap:round;stroke-linejoin:round"/><circle cx="297.2" cy="365.4" r="8.3" style="fill:#f6d1a7;stroke:#696992;stroke-linecap:round;stroke-linejoin:round"/><path d="M300.1 367.9a1.5 1.5 0 0 1 3 0m-11.8 0a1.5 1.5 0 0 1 3 0m-1 2.9a6.5 6.5 0 0 0 7.8 0" style="stroke:#696992;stroke-linecap:round;stroke-linejoin:round;fill:none"/><path class="cls-7" d="M349.9 287.7a14.25 14.25 0 0 1-3.6 9.4 13.93 13.93 0 0 1-10.4 4.7 13.77 13.77 0 0 1-10.4-4.7 14.25 14.25 0 0 1-3.6-9.4 14 14 0 1 1 28 0Z"/><circle class="cls-8" cx="335.9" cy="284.7" r="7.9"/><path d="M335.9 276.8a7.77 7.77 0 0 0-7.8 7.2h9.1a2.19 2.19 0 0 0 2-1.3l.3-.6.7.9a2.14 2.14 0 0 0 1.8.9h1.9a8.18 8.18 0 0 0-8-7.1Z" style="fill:#d6a500;stroke-linecap:round;stroke-linejoin:round;stroke:#231f20"/><path class="cls-3" d="M338.7 287a1.4 1.4 0 0 1 2.8 0m-11.3 0a1.4 1.4 0 0 1 2.8 0m-.8 2.8a5.86 5.86 0 0 0 3.7 1.2 6.53 6.53 0 0 0 3.7-1.2"/><path d="M346.3 297.1a13.93 13.93 0 0 1-10.4 4.7 13.77 13.77 0 0 1-10.4-4.7 8.12 8.12 0 0 1 2.9-1.9l4.3-1.4a1.79 1.79 0 0 1 1.7.4l.5.5a1.69 1.69 0 0 0 2.3 0l.5-.5a1.73 1.73 0 0 1 1.7-.4l4.3 1.4a6.72 6.72 0 0 1 2.6 1.9Z" style="fill:#424242;stroke-linecap:round;stroke-linejoin:round;stroke:#231f20"/><path class="cls-7" d="M274.1 268.9a14.17 14.17 0 0 1-3.7 9.6 14.34 14.34 0 0 1-10.7 4.8 14.46 14.46 0 0 1-14.4-14.4 14.4 14.4 0 0 1 28.8 0Z"/><circle class="cls-8" cx="259.7" cy="265.9" r="8.1"/><path d="M259.7 257.8a8 8 0 0 0-8 7.3h9.3a2.09 2.09 0 0 0 2-1.3l.3-.6.7.9a2.14 2.14 0 0 0 1.8.9h1.9a8 8 0 0 0-8-7.2Z" style="fill:#ff8c56;stroke-linecap:round;stroke-linejoin:round;stroke:#231f20"/><path class="cls-3" d="M262.6 268.3a1.5 1.5 0 0 1 3 0m-11.6 0a1.5 1.5 0 1 1 3 0m-1.1 2.8a6.36 6.36 0 0 0 3.8 1.2 7.13 7.13 0 0 0 3.8-1.2"/><path d="M270.4 278.6a14.34 14.34 0 0 1-10.7 4.8 14.15 14.15 0 0 1-10.7-4.8 6.72 6.72 0 0 1 3-1.9l4.4-1.5a1.79 1.79 0 0 1 1.7.4l.5.5a1.69 1.69 0 0 0 2.3 0l.5-.5a1.73 1.73 0 0 1 1.7-.4l4.4 1.5a6.14 6.14 0 0 1 2.9 1.9Z" style="fill:#add676;stroke-linecap:round;stroke-linejoin:round;stroke:#231f20"/><path d="M304.9 283a4.87 4.87 0 0 0-8.8-2.9 4.87 4.87 0 0 0-8.8 2.9s-.7 5.2 8.9 11.1c9.4-5.9 8.7-11.1 8.7-11.1Z" style="fill:#ec6f39;stroke-linecap:round;stroke-linejoin:round;stroke:#231f20"/><path class="cls-14" d="m412.4 210.7 7.3 7.4m0-7.4-7.3 7.4m-129.9 22.4 7.4 7.3m0-7.3-7.4 7.3"/><circle class="cls-14" cx="270.2" cy="369.6" r="3.8"/><circle class="cls-14" cx="416" cy="257.1" r="3.8"/><circle class="cls-14" cx="339.6" cy="330.9" r="3.8"/><path class="cls-14" transform="rotate(-45 328.062 359.772)" d="M324.62 356.32h6.9v6.9h-6.9z"/><path class="cls-14" transform="rotate(-45 273.78 340.936)" d="M270.33 337.49h6.9v6.9h-6.9z"/><path class="cls-14" transform="rotate(-45 274.909 289.22)" d="M271.46 285.76h6.9v6.9h-6.9z"/><path class="cls-14" transform="rotate(-45 321.81 312.012)" d="M318.36 308.56h6.9v6.9h-6.9z"/><circle class="cls-14" cx="377.1" cy="253.3" r="3.8"/><circle class="cls-14" cx="330.2" cy="219.4" r="3.8"/><path class="cls-14" transform="rotate(-45 365.207 289.216)" d="M361.76 285.76h6.9v6.9h-6.9z"/><path class="cls-14" transform="rotate(-45 365.2 231.91)" d="M361.75 228.46h6.9v6.9h-6.9z"/><path class="cls-14" d="m341.3 369.3.4 6.9-6.9-.4.5 6.8-6.9-.4.5 6.8-6.9-.4.4 6.8-6.8-.4.4 6.9-6.8-.5m112.5-92.8.4 6.8-6.8-.4.4 6.8-6.9-.4.5 6.9-6.9-.5.4 6.9-6.8-.5.4 6.9-6.8-.4m-77.7-99.6.4 6.8-6.8-.4.4 6.9-6.8-.5.4 6.9-6.9-.4.5 6.8-6.9-.4.4 6.8-6.8-.4m-14.7 27 .4 6.9-6.8-.5.4 6.9-6.8-.4.4 6.8-6.9-.4.5 6.8-6.9-.4.5 6.8-6.9-.4m-10.5-8.8 1.8-1.7"/><path class="cls-15" d="m225.5 320.5 17-17"/><path class="cls-14" d="m243.1 302.9 1.8-1.8m52.1-73 1.8-1.8"/><path class="cls-15" d="m300.1 225.1 16.9-17"/><path class="cls-14" d="m317.7 207.5 1.7-1.8M301.9 233l1.8-1.7"/><path style="stroke-dasharray:5.03 2.01;stroke:#ececec;stroke-linecap:round;stroke-linejoin:round;fill:none" d="m305.1 229.8 9.3-9.2"/><path class="cls-14" d="m315.1 219.9 1.8-1.8m63.5 54.3 1.8-1.8"/><path class="cls-17" d="m383.6 269.2 24.3-24.4"/><path class="cls-14" d="m408.6 244.1 1.8-1.7m-24.6 38.2 1.8-1.7"/><path class="cls-18" d="m389 277.4 14.4-14.3"/><path class="cls-14" d="m404.1 262.4 1.7-1.8m-145.6 69.1 1.7-1.8"/><path class="cls-18" d="m263.4 326.5 14.3-14.3"/><path class="cls-14" d="m278.4 311.4 1.8-1.7m56.1 8.3 1.8-1.8"/><path class="cls-18" d="m339.5 314.8 14.3-14.4"/><path class="cls-14" d="m354.6 299.7 1.7-1.7m-41.2-23.2 1.7-1.8"/><path class="cls-18" d="m318.3 271.6 14.3-14.3"/><path class="cls-14" d="m333.3 256.6 1.8-1.8m-27.6 14.5 1.8-1.8"/><path style="stroke-dasharray:4.84 1.94;stroke:#ececec;stroke-linecap:round;stroke-linejoin:round;fill:none" d="m310.6 266.1 8.9-8.9"/><path class="cls-14" d="m320.2 256.6 1.8-1.8m53.4-64.9.5 6.8-6.9-.4.4 6.9-6.8-.5.4 6.9-6.8-.5.4 6.9-6.9-.4.5 6.8-6.9-.4m27.2-2.6 1.7-1.8"/><path class="cls-18" d="m373.7 216.2 14.3-14.4"/><path class="cls-14" d="m388.7 201.1 1.8-1.7M197.3 398.3l1.7-1.8"/><path class="cls-17" d="m200.5 395.1 24.3-24.3"/><path class="cls-14" d="m225.5 370.1 1.8-1.8m147.6-30 1.7-1.8"/><path style="stroke-dasharray:4.21 1.68;stroke:#ececec;stroke-linecap:round;stroke-linejoin:round;fill:none" d="m377.8 335.3 11.9-11.9"/><path class="cls-14" d="m390.3 322.8 1.8-1.8"/><path class="cls-7" d="M350.1 248.6h-28.4a2 2 0 0 1-2-2V231a2 2 0 0 1 2-2h28.4a2 2 0 0 1 2 2v15.7a1.92 1.92 0 0 1-2 1.9Z"/><path class="cls-2" d="M319.7 233.5h32.4v2.9h-32.4z"/><path class="cls-7" d="M321.4 243.2h10.1v1.4h-10.1zm12.5 0H344v1.4h-10.1z"/><path class="cls-21" d="M369.6 333H81a19.82 19.82 0 0 1-14.5-6.3l-.5-.5v-8.3h318.5v8.3l-.5.5a19.6 19.6 0 0 1-14.4 6.3Z"/><path class="cls-21" d="M66.1 317.9h318.5v8.3H66.1z"/><path class="cls-21" d="M225.3 322.4h25.3a14.62 14.62 0 0 0 8.2-2.3l3.2-2.2h-73.4l3.2 2.2a14.39 14.39 0 0 0 8.2 2.3Zm135-4.5h-270V159.3a4.06 4.06 0 0 1 4.1-4.1h261.8a4.06 4.06 0 0 1 4.1 4.1Z"/><path style="stroke-miterlimit:10;fill:#fff;stroke-width:2px;stroke:#6e6e6e" d="M100.2 165.1h250.3v142.8H100.2z"/><path class="cls-23" d="M101.1 166.1h43v140.8h-43z"/><circle cx="114.1" cy="155.6" r="57" style="fill:#f2f2f4"/><circle cx="114.1" cy="155.6" r="57" style="stroke-width:3px;stroke-miterlimit:10;stroke:#696992;fill:none"/><g style="clip-path:url(#clip-path)"><path class="cls-23" d="M147.1 170.3c7.6 23.8-3.6 41.8-32.9 41.8-30.9 0-39.9-18-32.6-41.8 4.6-15 2.8-31.4 7.5-38.8 6.7-10.6 12.8-14.7 25-14.7 11.6 0 18.9 3.7 23.7 14 3.9 8.2 4.3 24.1 9.3 39.5Z"/><path d="M113.9 116.7c-11.6 0-17.8 3.7-24.7 14.5-2.5 3.9-3.1 10.3-3.9 17.8-.7 6.5-1.4 14-3.6 21-3.9 12.5-3 22.9 2.3 30 5.5 7.5 15.6 11.2 29.9 11.2 14 0 24.3-4.1 30-11.9 5.4-7.4 6.3-17.6 2.5-29.4a173.48 173.48 0 0 1-5-22.2c-1.2-7.1-2.3-13.2-4.3-17.4-4.3-9.5-11.3-13.6-23.2-13.6Z" style="stroke:#5c5c74;stroke-miterlimit:10;fill:none"/><path d="M72.3 225.9c0-17.5 18.9-31.7 42.1-31.7s42.1 14.2 42.1 31.7" style="stroke:#5d5c74;stroke-miterlimit:10;fill:#fff"/><path class="cls-29" d="M123.9 146c-9 0-16.8-3.7-20.6-9-1.5 6.1-5.7 10.5-10.8 11.2v19.5c0 7.5 4.7 16.9 12.1 21.6v7.5c0 4.2 2.6 10.1 9.6 10.1 6.7 0 9.8-5.9 9.8-10.1v-7c7.9-4.5 12.1-14.3 12.1-22.1v-24.8c-1.3 2.4-4.5 3.1-12.2 3.1Z"/><path class="cls-30" d="M114.1 207c-7.4 0-10-6.3-10-10.5v-7.4c-7-4.6-12.1-13.7-12.1-21.8v-19.5c0-.2.2-.3.3-.4 4.9-.6 9-4.8 10.5-10.8q.15-.3.3-.3a.52.52 0 0 1 .4.2c3.9 5.5 11.6 8.8 20.2 8.8 7.9 0 10.6-.7 11.8-2.9.1-.2.3-.2.5-.2s.3.2.3.4v24.8c0 7.4-3.8 17.5-12.1 22.4v6.7c.1 4.3-3 10.5-10.1 10.5Zm-21.3-58.9v19.2c0 7.9 5 16.8 11.9 21.3.1.1.2.2.2.3v7.5c0 3.9 2.5 9.6 9.2 9.6 6.4 0 9.4-5.6 9.4-9.6v-7c0-.1.1-.3.2-.3 7.9-4.5 11.9-14.4 11.9-21.8v-23.5c-1.9 1.9-5.5 2.3-11.7 2.3-8.6 0-16.3-3.2-20.5-8.5-1.7 5.7-5.7 9.8-10.6 10.5Z"/><path class="cls-30" d="M118.7 175.3s-1.9 2.2-4.3 2.2-4.3-2.2-4.3-2.2a30.69 30.69 0 0 0 4.3.3 28.94 28.94 0 0 0 4.3-.3Zm-4-5.8a2.14 2.14 0 0 1-1.7-.8 1.64 1.64 0 0 1-.2-1.2l.4.1a1 1 0 0 0 .1.9 1.7 1.7 0 0 0 2.6 0 1.15 1.15 0 0 0 .1-1l.3-.2a1.39 1.39 0 0 1-.1 1.3 1.51 1.51 0 0 1-1.5.9Zm-15.6-12.8a1.42 1.42 0 0 1-.6-.2 1 1 0 0 1-.1-1.2 4.93 4.93 0 0 1 3.9-1.6 3.51 3.51 0 0 1 2.8 1.7.86.86 0 1 1-1.4 1 2 2 0 0 0-1.5-.9 3 3 0 0 0-2.5 1 1.42 1.42 0 0 1-.6.2Zm31.4 0a1.42 1.42 0 0 1-.6-.2 3.39 3.39 0 0 0-2.7-1 2.56 2.56 0 0 0-1.9 1 .86.86 0 0 1-1.4-1 4.17 4.17 0 0 1 3.2-1.6 5 5 0 0 1 4 1.6.91.91 0 0 1 0 1.2c-.2-.1-.4 0-.6 0Z"/></g><path d="m76.9 109.1-2.2-3m-1.1-1.4-2.2-3.1m-1-1.3-2.2-3.1m-1-1.3-2.3-3.1m-1-1.4-2.3-3m-1-1.4-2.2-3.1m-1-1.3-2.3-3.1M57 223.3l2.7-2.8m1.2-1.2 2.6-2.8m1.1-1.1 2.7-2.9m1.2-1.1 2.6-2.9m1.2-1.1 2.6-2.8m88.2-88.9 3-2.4m1.2-1 3-2.5m1.3-1.1 2.9-2.4m1.3-1.1 2.9-2.4m1.3-1 3-2.4" style="stroke:#7f7fbc;stroke-miterlimit:10;stroke-width:2px;fill:none"/><circle class="cls-32" cx="198.6" cy="84.8" r="17.6"/><path class="cls-33" d="M192.4 85.7a1.33 1.33 0 1 1-2.6 0 1.3 1.3 0 0 1 2.6 0Z"/><path class="cls-30" d="M191.1 87.5a1.62 1.62 0 0 1-1.4-1.8 1.34 1.34 0 0 1 1.4-1.5 1.39 1.39 0 0 1 1.4 1.5 1.54 1.54 0 0 1-1.4 1.8Zm0-2.9a1 1 0 0 0-1 1.1c0 .8.5 1.4 1 1.4s1-.6 1-1.4a.89.89 0 0 0-1-1.1Z"/><path class="cls-29" d="M195.8 94.6c-2.2-.8-3.2-3-4-6.3a18.12 18.12 0 0 1-.7-5.4c0-5.5 2.9-7.6 7.4-7.6s7.6 1.2 7.6 6.7c0 8.3-2.7 13.2-7.6 13.2"/><path class="cls-30" d="M198.5 95.5a.2.2 0 1 1 0-.4c4.7 0 7.4-4.7 7.4-12.9 0-5.4-3-6.5-7.4-6.5a7.66 7.66 0 0 0-5.3 1.7c-1.3 1.2-1.9 3.1-1.9 5.7a17.69 17.69 0 0 0 .7 5.4c1.1 4.3 2.3 5.5 3.9 6.1.1.1.2.2.1.2s-.2.2-.2.1c-2.3-.8-3.3-3-4.1-6.3a17.94 17.94 0 0 1-.7-5.5c0-5.2 2.5-7.8 7.6-7.8 4.1 0 7.9.8 7.9 6.9-.1 8.4-3 13.3-8 13.3Z"/><path class="cls-30" d="M198.6 88.1h-.2a1.07 1.07 0 0 1-.8-.6c-.1-.1 0-.2.1-.3s.2 0 .3.1a.69.69 0 0 0 .5.3.57.57 0 0 0 .7-.2.45.45 0 0 0 0-.5 5.31 5.31 0 0 1-.6-2.7c0-.1.1-.2.2-.1s.2.1.1.2a5.66 5.66 0 0 0 .6 2.4.75.75 0 0 1 0 .9.87.87 0 0 1-.9.5Zm-4.1-3.7c-.1 0-.1 0-.1-.1a.19.19 0 0 1 0-.3 1.28 1.28 0 0 1 1-.4.84.84 0 0 1 .7.4c.1.1.1.2-.1.3s-.2.1-.3-.1a.52.52 0 0 0-.4-.2.71.71 0 0 0-.6.3c-.1.1-.1.1-.2.1Zm8.1 0c-.1 0-.1 0-.1-.1a1.08 1.08 0 0 0-.7-.3 1.42 1.42 0 0 0-.6.2.22.22 0 1 1-.4-.2 1.23 1.23 0 0 1 .8-.4 1.28 1.28 0 0 1 1 .4.19.19 0 0 1 0 .3Zm-4.1 6.4a1.21 1.21 0 0 1-1.2-.6c-.1-.1-.1-.2.1-.3s.2-.1.3.1a1.49 1.49 0 0 0 1 .3 1 1 0 0 0 1-.5.22.22 0 0 1 .4.2 1.84 1.84 0 0 1-1.4.6Z"/><path class="cls-33" d="M205.5 87.7a2 2 0 0 0 1.9-1.9c.1-1-.9-1.3-1.6-1.2"/><path class="cls-30" d="M205.6 87.9h-.1a.2.2 0 1 1 0-.4 1.33 1.33 0 0 0 1-.3 2 2 0 0 0 .6-1.4 1.17 1.17 0 0 0-.2-.7 1.8 1.8 0 0 0-1.1-.3.2.2 0 0 1 0-.4 1.59 1.59 0 0 1 1.4.4 1.16 1.16 0 0 1 .4 1 3 3 0 0 1-.8 1.7 1.92 1.92 0 0 1-1.2.4Z"/><circle class="cls-32" cx="45.9" cy="66.2" r="18"/><circle class="cls-32" cx="45.9" cy="232.8" r="18"/><path class="cls-29" d="M42.8 78.8c-2.8-1-3.9-3.8-5-7.6a23.24 23.24 0 0 1-.8-6.7c0-6.7 3.5-9.3 9.2-9.3s9.4 1.4 9.4 8.3c0 10.2-3.4 16.2-9.4 16.2"/><path class="cls-30" d="M46.1 79.9a.2.2 0 0 1 0-.4c5.8 0 9.2-5.9 9.2-15.9 0-6.7-3.7-8-9.2-8-2.9 0-5 .6-6.5 2.1s-2.3 3.9-2.3 7a25.36 25.36 0 0 0 .8 6.6c1.4 5.4 2.9 6.8 4.8 7.5.1.1.2.2.2.3s-.2.2-.3.2c-2.8-1-4-3.7-5.1-7.9a22.17 22.17 0 0 1-.9-6.7c0-6.4 3-9.5 9.4-9.5 5 0 9.6 1 9.6 8.5-.1 10.1-3.6 16.2-9.7 16.2Z"/><path class="cls-30" d="M46.2 70.9h-.3a1.82 1.82 0 0 1-1-.6.22.22 0 0 1 .4-.2 1.08 1.08 0 0 0 .6.4 1.1 1.1 0 0 0 .9-.2c.1-.2.1-.3-.1-.6a7.73 7.73 0 0 1-.8-3.4c.1-.1.2-.2.3-.2s.2.2.2.3a7.48 7.48 0 0 0 .8 3 1.08 1.08 0 0 1 0 1.1c-.1.2-.4.4-1 .4Zm-5-4.7c-.1 0-.1 0-.2-.1a.19.19 0 0 1 0-.3 1.46 1.46 0 0 1 1.2-.5 1.59 1.59 0 0 1 .9.6c.1.1.1.3-.1.3s-.3.1-.3-.1-.3-.2-.5-.3a1.14 1.14 0 0 0-.8.3c-.1.1-.1.1-.2.1Zm9.8 0c-.1 0-.1 0-.2-.1a1.4 1.4 0 0 0-.9-.3.71.71 0 0 0-.6.3.22.22 0 0 1-.4-.2 1.23 1.23 0 0 1 1-.5 1.5 1.5 0 0 1 1.2.5.19.19 0 0 1 0 .3ZM46 74a1.56 1.56 0 0 1-1.4-.6c-.1-.1-.1-.3.1-.3s.3-.1.3.1a1.25 1.25 0 0 0 1.1.4 1.21 1.21 0 0 0 1.2-.6c.1-.1.2-.2.3-.1s.2.2.1.3a1.88 1.88 0 0 1-1.7.8Z"/><path class="cls-33" d="M37.8 70.4a2.16 2.16 0 0 1-1.9-2.5 1.69 1.69 0 0 1 2.2-1.2"/><path class="cls-30" d="M37.8 70.6a2.47 2.47 0 0 1-1.6-.8 2.52 2.52 0 0 1-.6-2 1.68 1.68 0 0 1 .6-1.1 2.44 2.44 0 0 1 1.9-.2c.1.1.2.2.2.3s-.2.2-.3.2a1.7 1.7 0 0 0-1.4.2 1.58 1.58 0 0 0-.5.8 2.16 2.16 0 0 0 .5 1.7 1.41 1.41 0 0 0 1.2.6c.1 0 .2.1.2.3Z"/><path class="cls-33" d="M54.6 70.3a2.33 2.33 0 0 0 2.3-2.3 1.44 1.44 0 0 0-1.9-1.4"/><path class="cls-30" d="M54.8 70.6h-.2c-.1 0-.2-.1-.2-.3s.1-.2.3-.2a1.34 1.34 0 0 0 1.2-.4 2.14 2.14 0 0 0 .8-1.7 1.14 1.14 0 0 0-.3-.8 1.57 1.57 0 0 0-1.4-.3c-.1 0-.2-.1-.3-.2s.1-.2.2-.3a2 2 0 0 1 1.8.6 1.85 1.85 0 0 1 .5 1.2 3 3 0 0 1-1 2 3.26 3.26 0 0 1-1.4.4Z"/><path class="cls-23" d="M365.4 341.4h-19.7a2.65 2.65 0 0 0-2.6 2.6v10.5a2.65 2.65 0 0 0 2.6 2.6h1.6a6 6 0 0 1-1.6 4 .85.85 0 0 0 .5 1.4c4.1.4 6.8-2.5 6.8-5.3h12.3a2.65 2.65 0 0 0 2.6-2.6V344a2.5 2.5 0 0 0-2.5-2.6Zm-68.2 15.7a8.35 8.35 0 0 0-8.3 7.5h9.6a2.33 2.33 0 0 0 2.1-1.3l.3-.6.7 1a2.2 2.2 0 0 0 1.9.9h1.9a8.19 8.19 0 0 0-8.2-7.5Zm11 21.3a14.8 14.8 0 0 1-22 0 7.24 7.24 0 0 1 3.1-2l4.5-1.5a1.73 1.73 0 0 1 1.7.4l.5.5a1.63 1.63 0 0 0 2.4 0l.5-.5a1.57 1.57 0 0 1 1.7-.4l4.5 1.5a7.24 7.24 0 0 1 3.1 2Zm85.3-155.6 1.1 2.2a2.25 2.25 0 0 0 1.8 1.3l2.5.4a2.35 2.35 0 0 1 1.3 4l-1.8 1.7a2.29 2.29 0 0 0-.7 2.1l.4 2.5a2.37 2.37 0 0 1-3.4 2.5l-2.2-1.2a2.17 2.17 0 0 0-2.2 0l-2.2 1.2a2.37 2.37 0 0 1-3.4-2.5l.4-2.5a2.38 2.38 0 0 0-.7-2.1l-1.8-1.7a2.35 2.35 0 0 1 1.3-4l2.5-.4a2.42 2.42 0 0 0 1.8-1.3l1.1-2.2a2.37 2.37 0 0 1 4.2 0Zm-93.1-10.3h-57.9v-18.4a8 8 0 0 1 8-8h49.9a8 8 0 0 1 8 8v10.4a8 8 0 0 1-8 8Zm27.6-4a9.2 9.2 0 1 1 9.2-9.2 9.21 9.21 0 0 1-9.2 9.2Zm0-16.4a7.2 7.2 0 1 0 7.2 7.2 7.21 7.21 0 0 0-7.2-7.2Zm-27.6 94.4h-57.9v-18.4a8 8 0 0 1 8-8h49.9a8 8 0 0 1 8 8v10.4a8 8 0 0 1-8 8Zm27.6-4a9.2 9.2 0 1 1 9.2-9.2 9.21 9.21 0 0 1-9.2 9.2Zm0-16.4a7.2 7.2 0 1 0 7.2 7.2 7.21 7.21 0 0 0-7.2-7.2ZM39.8 58.8c1.3 1.4 3.6 3.2 9 3.6 2.4.2 4.1-.2 4.9.8a7.08 7.08 0 0 1 1.2 4.7c-.1.6 1.9-1.8 1.9-1.8-.8-1.2.8-3.9.3-7.5-.2-1.5-3.3-4.8-7.7-5.9a9.77 9.77 0 0 0-9.9 2.6c-1.1 1-2.6.6-3.8 3-1 2.2.7 6.3.4 7.6-.1.6.4.4 1.6 1.9.5.6.6-1.8.6-3.1a48.41 48.41 0 0 1 1.5-5.9Z"/><path class="cls-30" d="M54.9 68.2a.35.35 0 0 1-.2-.1c-.1-.1-.1-.1-.1-.2a6.81 6.81 0 0 0-1.1-4.5c-.6-.6-1.4-.6-2.9-.6a13.43 13.43 0 0 1-1.9-.1c-5.1-.3-7.5-2-8.8-3.4a53.62 53.62 0 0 0-1.4 5.4c0 .2-.1.6-.1.8-.1 2-.2 2.7-.7 2.7-.1 0-.2-.1-.3-.2a12.94 12.94 0 0 0-1.2-1.2.87.87 0 0 1-.5-.9 7 7 0 0 0-.3-2.2c-.3-1.8-.8-3.9-.1-5.4a3.64 3.64 0 0 1 2.6-2.3 2.92 2.92 0 0 0 1.2-.7 10 10 0 0 1 7.1-3 10.32 10.32 0 0 1 3 .4 15.36 15.36 0 0 1 5.5 2.9 6 6 0 0 1 2.3 3.3 18.67 18.67 0 0 1-.3 4.9c-.2 1.1-.4 2.1-.1 2.5a.19.19 0 0 1 0 .3c-1.3 1.6-1.6 1.6-1.7 1.6Zm-8.5-15.6a9.4 9.4 0 0 0-6.8 3 5 5 0 0 1-1.4.8 3.29 3.29 0 0 0-2.3 2.1c-.6 1.3-.2 3.4.2 5.1a8.35 8.35 0 0 1 .3 2.5c-.1.2-.1.2.3.4l1.1 1.1a11.49 11.49 0 0 0 .2-2.1c0-.3.1-.6.1-.8a41 41 0 0 1 1.5-5.9.22.22 0 0 1 .2-.2c.1 0 .2 0 .2.1 1.2 1.4 3.4 3.2 8.7 3.5a10.87 10.87 0 0 0 1.8.1c1.5 0 2.6 0 3.3.8a6.31 6.31 0 0 1 1.2 4.4c.3-.3.8-.9 1.3-1.4a5 5 0 0 1 .1-2.7 14 14 0 0 0 .3-4.7c-.2-1.4-3.2-4.7-7.5-5.7a9 9 0 0 0-2.8-.4Z"/><path class="cls-30" d="m40.6 57.6.1.1a.35.35 0 0 0 .2.1l.2.2c.1.1.2.1.2.2s.2.1.3.2.2.1.3.2.2.2.3.2.2.1.3.2.2.1.3.2.2.1.3.2.2.1.2.2a.31.31 0 0 0 .2.1c.1.1.1.1.2.1a.31.31 0 0 0 .2.1h-.4a.37.37 0 0 1-.3-.1c-.1 0-.2-.1-.3-.1a.37.37 0 0 0-.3-.1c-.1-.1-.2-.1-.3-.2s-.2-.2-.3-.2-.2-.2-.3-.2l-.3-.3c-.1-.1-.2-.2-.2-.3s-.1-.2-.2-.3a.31.31 0 0 1-.1-.2c-.1-.1-.1-.1-.1-.2Z"/><path class="cls-34" d="M56.2 233.9c0 1-.6 1.9-1.4 1.9a2 2 0 0 1-1.8-1.9 2 2 0 0 1 1.8-1.9c.7 0 1.4.9 1.4 1.9Z"/><path class="cls-30" d="M54.7 236a2.1 2.1 0 0 1 0-4.2 1.93 1.93 0 0 1 1.7 2.1 1.86 1.86 0 0 1-1.7 2.1Zm0-3.7a1.6 1.6 0 0 0 0 3.2c.7 0 1.2-.7 1.2-1.6a1.35 1.35 0 0 0-1.2-1.6Z"/><path class="cls-34" d="M39.7 235.5a1.8 1.8 0 0 1-1.7 1.9 1.9 1.9 0 1 1 0-3.8 1.74 1.74 0 0 1 1.7 1.9Z"/><path class="cls-30" d="M38.1 237.7a2.2 2.2 0 0 1 0-4.4 2.11 2.11 0 0 1 1.9 2.2 2 2 0 0 1-1.9 2.2Zm0-3.9a1.83 1.83 0 0 0-1.7 1.7 1.91 1.91 0 0 0 1.7 1.7 1.58 1.58 0 0 0 1.4-1.7 1.65 1.65 0 0 0-1.4-1.7Z"/><path class="cls-29" d="M43.5 245c-2-1-3.4-3.4-4.4-6.8-.6-2-2.3-1.9-2.3-4.5a9.52 9.52 0 0 1 9.6-9.8c5 0 8.3 1.3 8.3 7.4 0 9.2-4.1 14.4-8.3 14.4"/><path class="cls-30" d="M46.4 245.9a.2.2 0 0 1 0-.4c3.9 0 8.1-5 8.1-14.2 0-5.9-3.2-7.1-8.1-7.1a9.27 9.27 0 0 0-9.4 9.5 3.27 3.27 0 0 0 1.1 2.5 3.68 3.68 0 0 1 1.2 1.9c.9 3.4 2.3 5.6 4.3 6.7.1.1.2.2.1.3s-.2.2-.3.1c-2.1-1.1-3.6-3.4-4.5-7a4 4 0 0 0-1-1.7 3.52 3.52 0 0 1-1.2-2.8 9.43 9.43 0 0 1 3-7.3 10.21 10.21 0 0 1 6.9-2.6c4.5 0 8.6 1 8.6 7.6a20.17 20.17 0 0 1-2.6 10.7c-1.8 2.4-4 3.8-6.2 3.8Z"/><path class="cls-30" d="M46.5 237.9h-.3a1.39 1.39 0 0 1-.9-.6c-.1-.1 0-.2.1-.3s.2 0 .3.1a.75.75 0 0 0 .6.3.78.78 0 0 0 .8-.2.45.45 0 0 0 0-.5 7.87 7.87 0 0 1-.8-3c.1-.1.2-.2.3-.2s.2.2.2.3a5.36 5.36 0 0 0 .7 2.6.91.91 0 0 1 0 1 1.1 1.1 0 0 1-1 .5Z"/><path d="M416 190.9a4.87 4.87 0 0 0-8.8-2.9 4.87 4.87 0 0 0-8.8 2.9s-.7 5.2 8.9 11.1c9.4-5.9 8.7-11.1 8.7-11.1Z" style="fill:#3ab2ed;stroke:#696992;stroke-linecap:round;stroke-linejoin:round"/><path class="cls-36" d="M186.8 250.8h57.9v-18.4a8 8 0 0 0-8-8h-49.9a8 8 0 0 0-8 8v10.4a7.9 7.9 0 0 0 8 8Zm-27.7-4a9.2 9.2 0 1 1 9.2-9.2 9.21 9.21 0 0 1-9.2 9.2Zm0-16.4a7.2 7.2 0 1 0 7.2 7.2 7.21 7.21 0 0 0-7.2-7.2Z"/><path d="M205.9 84.7a18.4 18.4 0 0 0 .6-8.6 10.34 10.34 0 0 0-.9-2.5c-1.4.3-1.8-.6-5.6-1-2.7-.3-4 .5-4.5 1a3.55 3.55 0 0 0-2.6.3c-1.7.7-3 2.6-2.1 8.5a29.57 29.57 0 0 0 1 4.5s-.3-4.7.3-6.5a.31.31 0 0 0 .1-.2l.3-.6c1-1.2 2.9-1.4 3.6-.6a3.39 3.39 0 0 0 2.3.7 3.5 3.5 0 0 0 2.3-.7c.8-.8 3.4-.4 4.1 1.4s.3 6.5.3 6.5a6 6 0 0 0 .8-2.2Z" style="fill:#3ab2ed;stroke:#5c5c74;stroke-miterlimit:10"/><path class="cls-36" d="M39.5 234.4a6.63 6.63 0 0 1 .5-2.8 41.92 41.92 0 0 1 1.9-4.3c2.9 2.6 5.9 3.2 8.5 3.9s2.9 1.5 2.9 4.1-.8 6.1-1.3 6.7.2 3.1 1.8 2.9c2.2-.3 1.6-3.6 1.9-5 .2-1.2 3.9-3.8 3.4-6.3-.3-2.2-1.3-2.7-3-5.9-1.5-3-1.9-5.6-5.4-7-5.8-2.2-9.3-.1-10.3 1.2-.9 1.1-2.6 1.4-3.2 2.8-.8 1.7.2 3-.6 4.9s-3 3.6-3.2 5.3c-.3 2.9 3.8 4.5 4 5.1.2.8-.3 4.2 1.9 4.6 1.9.3 1.6-2.2 1.6-2.2a17 17 0 0 1-1.4-5.6 2.31 2.31 0 0 1-1.4-1.9c-.1-1.4.7-1.7.7-1.7"/><path class="cls-30" d="M53.6 245.3a1.68 1.68 0 0 1-1.5-1c-.5-.8-.6-1.9-.2-2.3.5-.7 1.2-4.1 1.2-6.7s-.3-3.3-2.7-3.9c-.2-.1-.5-.1-.7-.2-2.3-.6-5-1.2-7.6-3.4-.3.8-1.4 3-1.8 3.9a6.81 6.81 0 0 0-.4 2.7.2.2 0 1 1-.4 0 6.14 6.14 0 0 1 .5-2.9c.3-1.1 1.9-4.2 1.9-4.3s.1-.1.2-.1.1 0 .2.1a16.88 16.88 0 0 0 7.6 3.6c.2.1.5.1.7.2 2.6.7 3 1.7 3 4.3s-.8 6.2-1.4 6.9a2.38 2.38 0 0 0 .3 1.9 1.27 1.27 0 0 0 1.2.7c1.4-.2 1.5-2.1 1.5-3.6a4.87 4.87 0 0 1 .1-1.2 6.27 6.27 0 0 1 1.2-1.9c1-1.2 2.4-2.8 2.2-4.3a6.25 6.25 0 0 0-1.4-3.1 24 24 0 0 1-1.6-2.7c-.3-.6-.6-1.3-.9-1.9-1-2.1-1.7-3.9-4.4-5-5.9-2.2-9.2 0-9.9 1a4.19 4.19 0 0 1-1.5 1.2 3.59 3.59 0 0 0-1.7 1.5 5.58 5.58 0 0 0-.3 2.2 5.24 5.24 0 0 1-.3 2.7 9.63 9.63 0 0 1-1.6 2.5 6.18 6.18 0 0 0-1.5 2.7c-.2 1.9 1.7 3.2 3 4.1.6.5 1 .7 1 1a2.79 2.79 0 0 1 .1 1c.1 1.3.1 3.2 1.7 3.4a.78.78 0 0 0 .8-.2c.5-.4.5-1.4.5-1.8a19 19 0 0 1-1.4-5.5 2.74 2.74 0 0 1-1.4-2.1c-.1-1.7.8-1.9.9-1.9s.2.1.3.2-.1.2-.2.3-.6.2-.6 1.4a2.46 2.46 0 0 0 1.2 1.8l.2.2c.4 3.7 1.3 5.5 1.4 5.5v.1a3.25 3.25 0 0 1-.6 2.2 1.31 1.31 0 0 1-1.2.3c-1.9-.3-2-2.6-2.1-3.9 0-.3-.1-.7-.1-.8s-.6-.4-.9-.7c-1.3-.9-3.4-2.3-3.1-4.5.1-1 .9-1.9 1.7-3a12.76 12.76 0 0 0 1.5-2.3 8 8 0 0 0 .3-2.5 5.28 5.28 0 0 1 .3-2.4 4.72 4.72 0 0 1 1.9-1.8 3.81 3.81 0 0 0 1.4-1.1c.9-1.1 4.4-3.6 10.5-1.2 2.8 1.1 3.7 3 4.7 5.2.2.6.6 1.2.9 1.9.6 1.2 1.1 2 1.5 2.7a8.06 8.06 0 0 1 1.4 3.3c.3 1.8-1.1 3.4-2.3 4.7a3.28 3.28 0 0 0-1.2 2.8c0 1.6-.1 3.9-1.9 4.1-.1-.1-.1-.1-.2-.1Z"/><path class="cls-30" d="M42 233.8c-.1 0-.1 0-.2-.1a.19.19 0 0 1 0-.3 1.19 1.19 0 0 1 1.1-.4 1.37 1.37 0 0 1 .8.5c.1.1.1.2-.1.3s-.2.1-.3-.1a.52.52 0 0 0-.4-.2c-.2 0-.6.1-.7.3Zm8.8 0c-.1 0-.1 0-.2-.1a1.14 1.14 0 0 0-.8-.3.86.86 0 0 0-.6.3.37.37 0 0 1-.3.1c-.1 0-.1-.2-.1-.3a1.62 1.62 0 0 1 .9-.5 1.27 1.27 0 0 1 1.1.5q.3.15 0 .3Zm-4.4 6.9a1.49 1.49 0 0 1-1.3-.6c-.1-.1-.1-.2.1-.3s.2-.1.3.1a1.49 1.49 0 0 0 1 .3c.5 0 1-.2 1.1-.5.1-.1.2-.2.3-.1s.2.2.1.3a1.61 1.61 0 0 1-1.4.7Zm-3.9-15.4.2.2.2.2.2.2.2.2.3.3.3.3.3.3.3.3c.1.1.2.2.3.2s.2.2.3.2.2.1.3.2.2.1.2.2.1.1.2.1a.31.31 0 0 0 .2.1h-.2c-.1 0-.2 0-.2-.1s-.2-.1-.3-.1-.1-.1-.2-.1-.1-.1-.2-.1-.2-.1-.3-.2-.2-.1-.4-.2-.1-.1-.2-.1h-.1c-.2-.2-.5-.4-.6-.6s-.2-.2-.2-.3-.1-.2-.2-.3-.1-.2-.2-.3a.31.31 0 0 1-.1-.2 1 1 0 0 1-.1-.4Zm11.6 8.3a.1.1 0 0 0-.1-.1.1.1 0 0 0-.1-.1.35.35 0 0 1-.1-.2c0-.1-.1-.1-.1-.2s-.1-.1-.1-.2-.1-.1-.1-.2-.1-.1-.1-.2-.1-.1-.1-.2-.1-.1-.1-.2-.1-.1-.1-.2-.1-.1-.1-.2-.1-.1-.1-.2a.1.1 0 0 0-.1-.1l-.1-.1a829303603196.71 829303603196.71 0 0 0 .2.2l.1.1.1.1.1.1c.1.1.1.1.1.2s.1.1.1.2a.31.31 0 0 1 .1.2.9.9 0 0 1 .1.5v.4c.5.1.5.3.5.4Z"/><path d="M346.5 345.9h18m-18 3.6h18m-18 3.6h18" style="stroke:#fff;stroke-linecap:round;stroke-linejoin:round;fill:none"/><path d="M254.9 195.9h37.9m-37.9 4.3h30.8m-30.8 4.2h16m-16 65.5h37.9m-37.9 4.3h30.8m-30.8 4.2h16m-38.7-44.2h-37.8m37.8 4.3h-30.8m30.8 4.2h-15.9" style="stroke:#fff;stroke-miterlimit:10;fill:none"/></svg>