<svg id="Calque_1" data-name="Calque 1" xmlns="http://www.w3.org/2000/svg" viewBox="0 0 450 450"><defs><style>.cls-3{fill:#5c5c74}.cls-6{fill:#e4e6e9}.cls-7{fill:#cdcfd2}.cls-8{fill:#5d5c74}.cls-9{fill:#fff}</style></defs><path style="stroke-width:4px;stroke:#5d5c74;stroke-miterlimit:10;fill:none" d="M38.1 361.8H429"/><path d="M355.6 206.6c13.2 41.1-6.3 72.3-56.9 72.3-53.5 0-69-31.1-56.3-72.3 8-26 4.9-54.3 13.1-67.2 11.5-18.3 22.1-25.4 43.2-25.4 19.9 0 32.8 6.3 41 24.1 6.7 14.5 7.4 41.8 15.9 68.5Z" style="stroke-width:3px;fill:#f83600;stroke:#5d5c74;stroke-miterlimit:10"/><path class="cls-3" d="M298.4 278.9c-25.2 0-43-6.7-52.9-20.1-9.5-12.8-10.9-31.2-4.1-53.2 3.7-12.1 5-24.8 6.2-36.1 1.4-13 2.5-24.3 7-31.4 12.1-19.2 23.1-25.7 43.8-25.7 21.3 0 33.7 7.3 41.6 24.5 3.4 7.4 5.3 18.1 7.4 30.4 2 11.8 4.4 25.1 8.6 38.2 6.7 20.9 5.1 38.9-4.5 52.1-10.2 13.9-28.5 21.3-53.1 21.3Zm0-165c-20.1 0-30.9 6.3-42.6 25-4.2 6.8-5.4 17.9-6.8 30.7-1.2 11.3-2.5 24.1-6.3 36.3-6.6 21.6-5.2 39.5 3.9 51.9 9.6 12.9 27 19.5 51.7 19.5 24.1 0 42.1-7.1 51.9-20.6 9.4-12.8 10.8-30.4 4.3-50.8-4.2-13.2-6.5-26.6-8.6-38.4-2.1-12.2-4-22.8-7.3-30.1-7.6-16.4-19.6-23.5-40.2-23.5Z"/><path d="M226.4 302.8c0-30.3 32.6-54.8 72.9-54.8s72.9 24.5 72.9 54.8" style="fill:#344258;stroke-width:4px;stroke:#5d5c74;stroke-miterlimit:10"/><path d="M315.6 164.5c-15.6 0-29.2-6.4-35.6-15.6-2.6 10.4-9.9 18.2-18.7 19.3V202c0 13 8.1 29.2 20.9 37.4v13c0 7.3 4.6 17.5 16.6 17.5 11.7 0 16.9-10.2 16.9-17.5v-12.1c13.6-7.8 20.9-24.8 20.9-38.3v-42.9c-2.2 4.3-7.7 5.4-21 5.4Z" style="fill:#fbd7ce"/><path class="cls-3" d="M298.7 270.1c-12.7 0-17.3-10.9-17.3-18.2v-12.7c-12.1-8-20.9-23.8-20.9-37.8v-33.8a.67.67 0 0 1 .6-.7c8.4-1 15.5-8.4 18.1-18.8a.63.63 0 0 1 .6-.5.91.91 0 0 1 .7.3c6.6 9.5 20 15.3 35 15.3 13.6 0 18.3-1.2 20.3-5 .1-.3.5-.4.8-.4a.75.75 0 0 1 .5.7v42.9c0 12.7-6.6 30.2-20.9 38.7v11.7c.1 7.7-5.4 18.3-17.5 18.3Zm-36.8-101.7v33.1c0 13.7 8.7 29.1 20.6 36.8a.71.71 0 0 1 .3.6v13c0 6.7 4.2 16.8 15.9 16.8 11.1 0 16.2-9.8 16.2-16.8v-12.1a.55.55 0 0 1 .4-.6c13.5-7.8 20.6-24.8 20.6-37.7v-40.7c-3.2 3.3-9.5 3.9-20.3 3.9-14.8 0-28.2-5.6-35.3-14.7-3 10-10.1 17.1-18.4 18.4Z"/><path class="cls-3" d="M306.7 215.4s-3.3 3.7-7.3 3.7-7.3-3.7-7.3-3.7a54.44 54.44 0 0 0 7.3.5c4-.1 7.3-.5 7.3-.5Zm-7-10.2h-.1a3.23 3.23 0 0 1-2.7-1.3 2.58 2.58 0 0 1-.3-2.1l.7.2a1.6 1.6 0 0 0 .2 1.5 2.58 2.58 0 0 0 2.2 1 3.17 3.17 0 0 0 2.6-1.1 1.79 1.79 0 0 0 .1-1.6l.7-.3a2.24 2.24 0 0 1-.2 2.3 4 4 0 0 1-3.2 1.4Z"/><path class="cls-6" d="M379.9 287.3v86.3a8.07 8.07 0 0 1-8.1 8.1H225.4a8.07 8.07 0 0 1-8.1-8.1v-86.4a8.07 8.07 0 0 1 8.1-8.1h146.3a8.24 8.24 0 0 1 8.2 8.2"/><path class="cls-7" d="M379.9 364.1v9.5a8.07 8.07 0 0 1-8.1 8.1H225.4a8.07 8.07 0 0 1-8.1-8.1V364Z"/><path class="cls-8" d="M217.3 332.1a1.69 1.69 0 0 1-1.7-1.7v-17.1a1.66 1.66 0 0 1 1.7-1.6 1.64 1.64 0 0 1 1.6 1.6v17.1a1.5 1.5 0 0 1-1.6 1.7"/><path class="cls-8" d="M371.7 383.5H225.4a9.82 9.82 0 0 1-9.8-9.8v-32.8a1.66 1.66 0 0 1 1.7-1.6 1.64 1.64 0 0 1 1.6 1.6v32.8a6.53 6.53 0 0 0 6.4 6.5h146.4a6.47 6.47 0 0 0 6.4-6.5v-86.4a6.53 6.53 0 0 0-6.4-6.5H225.4a6.47 6.47 0 0 0-6.4 6.5v17a1.69 1.69 0 0 1-1.7 1.7 1.75 1.75 0 0 1-1.7-1.7v-17a9.82 9.82 0 0 1 9.8-9.8h146.3a9.82 9.82 0 0 1 9.8 9.8v86.3a9.77 9.77 0 0 1-9.8 9.9"/><path class="cls-9" d="M368.8 314.8a1.26 1.26 0 0 1-1.3-1.3v-15.6a6.87 6.87 0 0 0-6.8-6.8h-17.5a1.3 1.3 0 0 1 0-2.6h17.5a9.5 9.5 0 0 1 9.5 9.5v15.6a1.42 1.42 0 0 1-1.4 1.2m-35.3-23.7h-12.2a1.3 1.3 0 0 1 0-2.6h12.2a1.3 1.3 0 0 1 0 2.6m-30.2 46.2c6.4 7.6 1.5 11.1-4.6 11.1a11.1 11.1 0 0 1 0-22.2c6.1 0 9 5.6 4.6 11.1"/><path class="cls-8" d="M298.6 327.8a9.4 9.4 0 1 0 0 18.8c2.9 0 5.2-.9 5.7-2.2.7-1.3-.2-3.5-2.4-6.1a1.67 1.67 0 0 1 0-2.2c1.7-2.1 2.2-4.3 1.3-5.9-.6-1.4-2.4-2.4-4.6-2.4m0 22.3a12.8 12.8 0 0 1 0-25.6c3.5 0 6.4 1.6 7.7 4.3 1.2 2.5.9 5.5-1 8.4 2.5 3.3 3.2 6.3 2.1 8.7-1.2 2.7-4.5 4.2-8.8 4.2m-1.7-28.8a1.69 1.69 0 0 1-1.7-1.7.9.9 0 0 1 .1-.5c.1-.2 1.5-5.3 5.8-6.6a1.71 1.71 0 0 1 2.1 1.2 1.66 1.66 0 0 1-1.1 2c-2.4.8-3.5 4.2-3.5 4.3a1.9 1.9 0 0 1-1.7 1.3"/><path d="M134.4 371.1H158v-35.3h-23.7l.1 35.3Z" style="fill:#dfe1e2"/><path class="cls-8" d="M136.1 369.3h20.3v-31.9h-20.3Zm22 3.5h-23.7a1.69 1.69 0 0 1-1.7-1.7v-35.3a1.69 1.69 0 0 1 1.7-1.7h23.7a1.69 1.69 0 0 1 1.7 1.7v35.3a1.69 1.69 0 0 1-1.7 1.7Z"/><path class="cls-8" d="M158.1 366.4a1.7 1.7 0 1 1 0-3.4 9.6 9.6 0 0 0 0-19.2 1.7 1.7 0 1 1 0-3.4 13 13 0 0 1 0 26m-11.8-35.1a.91.91 0 0 1-.8-.4c-.3-.4-3.1-4.2-2.5-6.8a8.52 8.52 0 0 1 1.7-2.9 5.92 5.92 0 0 0 1.8-3.6 1.05 1.05 0 0 1 2.1.1 8.05 8.05 0 0 1-2.3 4.8 4.28 4.28 0 0 0-1.2 2c-.3 1.3 1.3 4 2.1 5.1a.9.9 0 0 1-.2 1.4 1.33 1.33 0 0 1-.7.3m-5.8-.7a.37.37 0 0 1-.3-.1c-.2-.2-2.1-1.4-2.3-2.8a2.28 2.28 0 0 1 .4-1.6 2.77 2.77 0 0 0 .3-2 .51.51 0 1 1 1-.2 4.27 4.27 0 0 1-.3 2.6 2.61 2.61 0 0 0-.3 1.1c.1.6 1.1 1.5 1.8 2.1a.49.49 0 0 1 .1.7.52.52 0 0 1-.4.2m11.6.2a.51.51 0 0 1-.5-.4c-.1-.3-.9-2.5-.2-3.6a3.1 3.1 0 0 1 1.2-1.1 3.16 3.16 0 0 0 1.4-1.4.43.43 0 0 1 .7-.2.61.61 0 0 1 .3.7 4.16 4.16 0 0 1-1.8 1.9c-.4.3-.8.5-.9.8a4.75 4.75 0 0 0 .3 2.8.52.52 0 0 1-.3.7h-.2"/><path class="cls-9" d="M142.3 355.3a1.47 1.47 0 0 1-1.5-1.5v-11a1.47 1.47 0 0 1 1.5-1.5 1.42 1.42 0 0 1 1.5 1.5v11a1.47 1.47 0 0 1-1.5 1.5m0 12.5a1.47 1.47 0 0 1-1.5-1.5v-5.6a1.47 1.47 0 0 1 1.5-1.5 1.42 1.42 0 0 1 1.5 1.5v5.6a1.47 1.47 0 0 1-1.5 1.5"/><path class="cls-7" d="M136.6 226.6 109 254.3s-6.4-5.9-7.3-11a19.23 19.23 0 0 1 5.9-20.9s6.1-7.2 18.8-4.1c-.1.1 6.9 2.3 10.2 8.3Z"/><path class="cls-8" d="M70.9 207.1a1 1 0 0 1 .5-.6 1.1 1.1 0 0 1 .8 0l33 14.5c.1.1.2.1.3.2a21.88 21.88 0 0 1 30.1.6 21.23 21.23 0 0 1 3.2 4.2 1.09 1.09 0 0 1 0 1.5l-2.3 2.3h-3.1l3.2-3.2a19.2 19.2 0 0 0-2.6-3.2 19.53 19.53 0 0 0-32.4 19.9 1.13 1.13 0 0 1-.3 1.1 1.09 1.09 0 0 1-1.5 0c-.1-.1-.1-.1-.1-.2h-.1v-.1c0-.1 0-.1-.1-.2a21.75 21.75 0 0 1 4.6-21.3l-31.8-13.9-12.8 40.9h-2ZM72.5 372a.91.91 0 0 1-.7-.3L50.1 345h2.4L73 370.1h35.4a.9.9 0 0 1 .9.9v5a.9.9 0 0 1-.9.9l-75.8.8a.9.9 0 0 1 0-1.8l74.8-.8V372Zm38.1-116.1a1.13 1.13 0 1 1-1.6-1.6l5.7-5.7v3.1Z"/><path d="M131.8 248.8a11 11 0 0 1-14.9.6l15.5-15.5a11 11 0 0 1-.6 14.9Z" style="fill:#edeeef"/><path class="cls-8" d="M136.5 229.9h-3.1l-18.7 18.7v3.1l.7-.7a13.18 13.18 0 0 0 18.6-18.6Zm-4.1 4.1a11 11 0 0 1-15.5 15.5Z"/><path class="cls-6" d="M38 339.7a11.2 11.2 0 1 1 11.2-11.2A11.31 11.31 0 0 1 38 339.7Z"/><path class="cls-8" d="M50.1 345h2.4l-5.6-6.9a13.06 13.06 0 0 0-4.3-21.7l1.5-4.9h-2l-1.4 4.4a13.33 13.33 0 0 0-2.8-.3 13 13 0 1 0 0 26 13.13 13.13 0 0 0 7.5-2.4ZM38 339.7a11.2 11.2 0 1 1 11.2-11.2A11.31 11.31 0 0 1 38 339.7Z"/><path class="cls-7" d="M32.6 372h74.8v3.9H32.6z"/><path style="stroke-width:3px;stroke:#5d5c74;stroke-miterlimit:10;fill:none" d="M41.5 316.9 59 248.2"/><path class="cls-3" d="M272.6 183.1a1.28 1.28 0 0 1-1-.4 1.42 1.42 0 0 1-.1-2 8.61 8.61 0 0 1 6.8-2.7 6.33 6.33 0 0 1 4.8 2.8 1.44 1.44 0 0 1-2.4 1.6 3.21 3.21 0 0 0-2.6-1.5 5.47 5.47 0 0 0-4.4 1.8 1.5 1.5 0 0 1-1.1.4Zm54.4 0a1.16 1.16 0 0 1-1-.4 6 6 0 0 0-4.7-1.9 4.51 4.51 0 0 0-3.4 1.7 1.43 1.43 0 1 1-2.3-1.7 7.6 7.6 0 0 1 5.5-2.8 9.2 9.2 0 0 1 7 2.8 1.42 1.42 0 0 1 0 2 2.61 2.61 0 0 1-1.1.3Z"/><path d="M278.4 83.9a4.3 4.3 0 1 1 4.3-4.3 3.4 3.4 0 0 1-.6 2.1l-1.6-1.2a1.37 1.37 0 0 0 .2-.9 2.3 2.3 0 1 0-2.3 2.3 2.3 2.3 0 0 0 1.56-.57l1.28 1.54a4.28 4.28 0 0 1-2.84 1.03Zm147.8 5.2a4.1 4.1 0 1 1 4.1-4.1 3.23 3.23 0 0 1-.6 2l-1.6-1.2a1.37 1.37 0 0 0 .2-.8 2.1 2.1 0 1 0-2.1 2.1 1.77 1.77 0 0 0 1.29-.41l1.42 1.42a3.67 3.67 0 0 1-2.71.99Zm-92.7-26.2a8.1 8.1 0 1 1 8.1-8.1 8.36 8.36 0 0 1-.91 3.75l-1.78-.9a6.33 6.33 0 0 0 .69-2.85 6.1 6.1 0 1 0-6.1 6.1 5.93 5.93 0 0 0 4-1.44l1.36 1.48a8 8 0 0 1-5.36 1.96Zm7.1-41.2a5.7 5.7 0 1 1 5.7-5.7 5 5 0 0 1-.77 2.75l-1.66-1.1a3.13 3.13 0 0 0 .43-1.65 3.7 3.7 0 1 0-3.7 3.7 3.8 3.8 0 0 0 2.44-.95l1.32 1.5a5.7 5.7 0 0 1-3.76 1.45Zm2.3 108.1a3.4 3.4 0 1 1 3.4-3.4 3 3 0 0 1-.47 1.66l-1.66-1.12a1 1 0 0 0 .13-.54 1.4 1.4 0 1 0-1.4 1.4 1.29 1.29 0 0 0 .89-.31l1.42 1.42a3.3 3.3 0 0 1-2.31.89Zm-52.3-93a5.7 5.7 0 1 1 5.7-5.7 5 5 0 0 1-.77 2.75l-1.66-1.1a3.13 3.13 0 0 0 .43-1.65 3.7 3.7 0 1 0-3.7 3.7 3.8 3.8 0 0 0 2.44-.95l1.32 1.5a5.7 5.7 0 0 1-3.76 1.45Zm67.8 68.9a5.7 5.7 0 1 1 5.7-5.7 5 5 0 0 1-.77 2.76l-1.66-1.11a3.13 3.13 0 0 0 .43-1.65 3.7 3.7 0 1 0-3.7 3.7 3.8 3.8 0 0 0 2.44-1l1.32 1.5a5.7 5.7 0 0 1-3.76 1.5Zm53.2-88.8a3.4 3.4 0 1 1 3.4-3.4 3 3 0 0 1-.47 1.65l-1.66-1.1a1.1 1.1 0 0 0 .13-.55 1.4 1.4 0 1 0-1.4 1.4 1.23 1.23 0 0 0 .89-.31l1.42 1.41a3.3 3.3 0 0 1-2.31.9ZM203.6 51a3.4 3.4 0 1 1 3.4-3.4 3 3 0 0 1-.47 1.65l-1.66-1.1a1.1 1.1 0 0 0 .13-.55 1.4 1.4 0 1 0-1.4 1.4 1.29 1.29 0 0 0 .89-.31l1.42 1.42a3.3 3.3 0 0 1-2.31.89Zm33.5-24.6a3.4 3.4 0 1 1 3.4-3.4 3 3 0 0 1-.47 1.65l-1.66-1.1a1.1 1.1 0 0 0 .13-.55 1.4 1.4 0 1 0-1.4 1.4 1.23 1.23 0 0 0 .89-.31l1.42 1.42a3.3 3.3 0 0 1-2.31.89Zm174.5 124.7a3.4 3.4 0 1 1 3.4-3.4 3 3 0 0 1-.47 1.65l-1.66-1.11a1 1 0 0 0 .13-.54 1.4 1.4 0 1 0-1.4 1.4 1.29 1.29 0 0 0 .89-.31l1.42 1.42a3.3 3.3 0 0 1-2.31.89Z" style="fill:#f83600"/></svg>