<svg id="Layer_1" data-name="Layer 1" xmlns="http://www.w3.org/2000/svg" viewBox="0 0 633.66 409.82"><defs><style>.cls-1,.cls-3{fill:none}.cls-1,.cls-3,.cls-4,.cls-5,.cls-8,.cls-9{stroke:#263238}.cls-1{stroke-miterlimit:10}.cls-2,.cls-5,.cls-9{fill:#263238}.cls-3,.cls-4,.cls-5,.cls-8,.cls-9{stroke-linecap:round;stroke-linejoin:round}.cls-4,.cls-8{fill:#fff}.cls-6{fill:#0f7cff}.cls-8,.cls-9{stroke-width:.5px}</style></defs><circle class="cls-1" cx="211.6" cy="127.06" r="80.55"/><circle class="cls-1" cx="211.6" cy="127.06" r="74.68"/><circle class="cls-2" cx="211.6" cy="127.06" r="4.2"/><path class="cls-3" d="M173.84 127.06h37.76V80.91"/><path class="cls-4" d="M399 118.56a1.92 1.92 0 1 0-1.92 1.91 1.92 1.92 0 0 0 1.92-1.91Z"/><path class="cls-5" d="M384.79 274.51h23.97v96.71h-23.97z"/><path class="cls-5" d="M245.52 114.98h302.52v183.49H245.52z"/><path class="cls-4" d="M256.42 121.6h280.72v170.27H256.42z"/><path class="cls-4" d="M256.42 281.61h280.72v10.25H256.42z"/><path class="cls-5" d="m397.5 363.82-88.87 5.74v5.79h175.12v-5.79l-86.25-5.74z"/><circle class="cls-4" cx="396.78" cy="206.73" r="56.67"/><path class="cls-4" d="M386.41 214.5h18.12v18.12h-18.12zm-8.9-24.5s-2.86-5.72-5.4-1.91 1.62 8.56 2.86 12.08 2.86 1.91 2.86 1.91Zm36.71 0s2.86-5.72 5.41-1.91-1.63 8.56-2.86 12.08-2.86 1.91-2.86 1.91Z"/><rect class="cls-4" x="376.21" y="164.58" width="38.86" height="58.11" rx="18.97"/><path class="cls-4" d="M398.11 189.67v8.79s2.11.2 1.34 2.11-2.87 3.63-6.5 1.14"/><path class="cls-2" d="M387.05 191.45c0 2-.64 3.66-1.43 3.66s-1.43-1.64-1.43-3.66.64-3.66 1.43-3.66 1.43 1.64 1.43 3.66Z"/><ellipse class="cls-2" cx="404.7" cy="191.45" rx="1.43" ry="3.66"/><path class="cls-4" d="M388.32 205s5.09 3.18 8.59 3.18 7.63-3.5 7.63-3.5m-22.26-19.75s3.82-3.18 8.27-1m9.85.37s3.18-3.82 8.91.95"/><path class="cls-5" d="M376.24 190.34s1.27-11.13 3.18-12.4 6-3.82 7-4.46a8.18 8.18 0 0 0 1.91-2.54s0-10.49-3.5-10.49-10.17 1.91-10.17 10.81c-.01 5.13 1.58 19.08 1.58 19.08Z"/><path class="cls-5" d="M386.41 173.48s4.66-3.54 13.76.57 13.15 10.23 14.05 16 .91 20.41.91 20.41 10.56-4.7 11.74-21.42-3.53-30.22-19.08-34.91-24.64 6.16-24.64 6.16Zm50.93 72.8c-7.8-4.48-26.34-14.16-41.7-14.77-15.66-.62-32.67 10.12-39.36 14.84a56.62 56.62 0 0 0 81.06-.07Z"/><path class="cls-4" d="M383.23 261.75a56.64 56.64 0 0 0 25.12.46v-28.54a57.05 57.05 0 0 0-12.71-2.16 42.14 42.14 0 0 0-12.41 1.55Z"/><rect class="cls-4" x="380.06" y="224.99" width="31.16" height="13.04" rx="1.86"/><path class="cls-3" d="M383.87 225.31v8.9m2.86 3.18v-8.26m5.09-4.14v7.95m9.22 5.09v-5.72"/><path class="cls-2" d="M124.08 250.85c2.76 1.21 9.5 1.06 9.5 1.06s-1.45-4.42-1.57-4.68c-1.48-3.09-6.16-8.2-10-7.69a4.55 4.55 0 0 0-3.65 5.7c.64 2.63 3.38 4.59 5.72 5.61Z"/><path class="cls-2" d="M126.41 270.37c2.86.42 8.87-1.33 9.35-1.47a80 80 0 0 0 3.65 10.1c.82 1.92 1.72 3.82 2.63 5.72-.54-.8-1-1.52-1.12-1.61-2.24-2.59-8.1-6.28-11.63-4.78a4.54 4.54 0 0 0-2 6.45c1.31 2.38 4.43 3.55 7 3.92s7.72-1 9.08-1.39l1.08 2.17c1.74 3.47 3.49 6.92 5.11 10.36.57 1.21 1.08 2.42 1.61 3.64-.49-.72-.91-1.31-1-1.4-2.25-2.59-8.1-6.28-11.64-4.78a4.54 4.54 0 0 0-2 6.45c1.31 2.38 4.43 3.55 7 3.92s7.23-.88 8.85-1.32c.49 1.25 1 2.51 1.42 3.75.27.86.59 1.66.81 2.54s.48 1.71.71 2.55c.4 1.64.81 3.33 1.16 4.94.24 1.12.46 2.19.68 3.26-.55-1.21-1.69-3.56-1.8-3.75-1.83-2.9-7.06-7.43-10.78-6.49a4.54 4.54 0 0 0-3 6.08c.93 2.54 3.84 4.18 6.28 4.93 2.7.82 8.67.07 9.41 0 .36 1.78.69 3.52 1 5.17.64 3.63 1.12 6.88 1.49 9.63h2.51c-.43-2.85-1-6.24-1.77-10.05-.35-1.81-.77-3.74-1.22-5.72a49.36 49.36 0 0 0 5.25-2.47c2 2.13 7 4.62 7.66 4.93-.69 1.69-1.37 3.32-2 4.85-1.39 3.2-2.72 6.05-3.88 8.46h2.72c1-2.22 2.1-4.76 3.25-7.57.71-1.71 1.42-3.55 2.14-5.45.72.16 6.63 1.35 9.39.73 2.49-.56 5.52-2 6.64-4.44a4.55 4.55 0 0 0-2.51-6.28c-3.64-1.22-9.19 2.91-11.23 5.67-.12.16-1.23 2.07-1.9 3.29.29-.78.58-1.53.86-2.33.59-1.58 1.12-3.18 1.7-4.9l.76-2.54c.27-.84.45-1.76.68-2.66.5-2.07.9-4.2 1.25-6.36 1.39.51 6.34 2.23 8.91 2.05s5.76-1.12 7.23-3.39a4.53 4.53 0 0 0-1.52-6.58c-3.41-1.76-9.53 1.48-12 3.9-.15.15-1.7 2.08-2.53 3.16.2-1.3.41-2.59.58-3.91.47-3.81.83-7.67 1.21-11.53.11-1.18.24-2.36.36-3.54.49.19 6.34 2.36 9.21 2.16 2.55-.18 5.76-1.12 7.24-3.39a4.54 4.54 0 0 0-1.53-6.58c-3.41-1.76-9.53 1.48-12 3.9-.18.18-2.4 3-2.94 3.7.28-2.59.58-5.18 1-7.71a81.31 81.31 0 0 1 2.21-10.14c.23.09 6.32 2.39 9.26 2.18 2.56-.18 5.76-1.12 7.24-3.39a4.54 4.54 0 0 0-1.53-6.58c-3.41-1.76-9.52 1.48-11.95 3.9-.19.19-2.59 3.18-3 3.76.06-.19.09-.4.15-.59a59.08 59.08 0 0 1 4-9.6c.87-1.7 1.8-3.29 2.74-4.81 1.09.55 6.1 3 8.77 3.08s5.84-.47 7.56-2.57a4.54 4.54 0 0 0-.79-6.71c-3.2-2.13-9.63.43-12.31 2.56-.15.12-1.5 1.46-2.47 2.46.43-.68.87-1.39 1.3-2 1.6-2.42 3.22-4.54 4.67-6.4.84-1.05 1.61-2 2.34-2.85 1.35 0 6.78-.19 9.16-1.31s5-3.12 5.53-5.77a4.55 4.55 0 0 0-3.8-5.59c-3.82-.41-8.35 4.82-9.75 8-.12.27-1.52 4.72-1.45 4.72h.08c-.72.82-1.48 1.71-2.3 2.69-1.49 1.84-3.16 3.92-4.83 6.32a79.57 79.57 0 0 0-5 8 58.8 58.8 0 0 0-4.28 9.63v.12c0-1.13 0-4.27-.06-4.51-.45-3.4-3.29-9.71-7.07-10.41a4.55 4.55 0 0 0-5.24 4.27c-.22 2.7 1.74 5.41 3.65 7.11 2.15 1.92 8.13 3.79 8.6 3.93a82.27 82.27 0 0 0-2.52 10.43c-.37 2.06-.67 4.14-1 6.23v-2c-.44-3.4-3.29-9.71-7.07-10.41a4.55 4.55 0 0 0-5.24 4.28c-.22 2.7 1.74 5.4 3.65 7.11s7 3.42 8.35 3.85c-.1.8-.21 1.6-.3 2.4-.46 3.86-.91 7.7-1.46 11.46-.19 1.33-.43 2.62-.66 3.92v-1.7c-.44-3.4-3.29-9.71-7.06-10.41a4.54 4.54 0 0 0-5.24 4.28c-.23 2.7 1.73 5.4 3.64 7.11s6.51 3.25 8.11 3.77c-.28 1.32-.56 2.65-.89 3.92-.25.86-.42 1.71-.72 2.56l-.81 2.52c-.58 1.59-1.16 3.23-1.77 4.76-.41 1.07-.82 2.08-1.23 3.1.21-1.32.56-3.91.57-4.13a17.71 17.71 0 0 0-2.37-8.58 5.6 5.6 0 0 0-.06-1 4.54 4.54 0 0 0-5.56-3.85c-3.7 1-6.06 7.49-6.23 10.92 0 .2.12 2.4.23 3.79-.19-.8-.36-1.59-.57-2.42-.38-1.64-.82-3.26-1.28-5-.26-.83-.51-1.68-.77-2.53s-.6-1.73-.9-2.6c-.73-2-1.57-4-2.47-6 1.44-.34 6.52-1.63 8.56-3.2s4.19-4.11 4.17-6.82a4.55 4.55 0 0 0-4.91-4.65c-3.81.41-7.13 6.49-7.82 9.85 0 .21-.27 2.68-.37 4-.54-1.19-1.08-2.39-1.67-3.58-1.71-3.43-3.54-6.86-5.35-10.28-.56-1.05-1.1-2.1-1.65-3.15.51-.12 6.59-1.53 8.87-3.28 2-1.56 4.19-4.11 4.17-6.82a4.55 4.55 0 0 0-4.91-4.65c-3.81.42-7.13 6.5-7.82 9.85 0 .26-.37 3.8-.41 4.71-1.2-2.31-2.38-4.63-3.44-7a79.69 79.69 0 0 1-3.75-9.68c.24-.05 6.58-1.5 8.92-3.29 2-1.56 4.19-4.11 4.17-6.82a4.55 4.55 0 0 0-4.91-4.65c-3.81.41-7.12 6.49-7.82 9.85-.05.26-.39 4.08-.41 4.78-.06-.2-.14-.39-.19-.58a58.63 58.63 0 0 1-1.95-10.22c-.21-1.9-.31-3.74-.36-5.52 1.21-.15 6.72-.89 9-2.27s4.61-3.62 4.89-6.32a4.55 4.55 0 0 0-4.37-5.16c-3.83 0-7.79 5.67-8.85 8.93-.06.18-.44 2.05-.7 3.41 0-.81-.05-1.64 0-2.41 0-2.9.19-5.56.37-7.91.11-1.34.24-2.55.38-3.68 1.11-.76 5.55-3.89 6.91-6.13s2.42-5.34 1.43-7.86a4.54 4.54 0 0 0-6.25-2.57c-3.41 1.76-4.31 8.62-3.75 12 .05.3 1.34 4.78 1.4 4.74l.06-.05c-.15 1.09-.29 2.25-.43 3.52-.23 2.36-.48 5-.54 7.93a79.78 79.78 0 0 0 .22 9.41 59.8 59.8 0 0 0 1.74 10.39.56.56 0 0 1 0 .12c-.6-.95-2.38-3.54-2.54-3.73-2.24-2.59-8.1-6.28-11.63-4.78a4.53 4.53 0 0 0-2 6.45c1.21 2.31 4.34 3.48 6.87 3.85Z"/><path class="cls-2" d="M192.24 252.34c.06 0 1.22-4.48 1.26-4.77.47-3.4-.61-10.24-4.06-11.91a4.54 4.54 0 0 0-6.18 2.74c-.93 2.55.24 5.67 1.63 7.82 1.64 2.52 7.34 6.11 7.35 6.12Z"/><path class="cls-4" d="M183.51 375.35h-36.83l-4.6-40.9h46.03l-4.6 40.9z"/><path class="cls-2" d="m142.92 341.94.45 3.96h43.45l.45-3.96h-44.35zm42.92 12.68.45-3.96H143.9l.45 3.96h41.49z"/><rect class="cls-5" x="518.4" y="206.57" width="69.56" height="49.39" rx="5.1"/><rect class="cls-4" x="521.41" y="203.13" width="69.56" height="49.39" rx="5.1"/><path class="cls-4" d="m572.51 227.12-27.09-15.64v31.28l27.09-15.64z"/><path class="cls-5" d="M486.75 114.98h61.28v40.67h-61.28z"/><path class="cls-4" d="M490.84 88.93h81.39v64h-81.39z"/><path class="cls-5" d="M502.39 79.52h6.66v17.42h-6.66zm26.46 0h6.66v17.42h-6.66zm26.46 0h6.66v17.42h-6.66z"/><path class="cls-4" d="M497.18 111.51h8.14v8.14h-8.14zm12.39 0h8.14v8.14h-8.14zm12.38 0h8.14v8.14h-8.14zm12.39 0h8.14v8.14h-8.14zm12.39 0h8.14v8.14h-8.14z"/><path class="cls-6" d="M559.12 111.51h8.14v8.14h-8.14z"/><path class="cls-4" d="M497.18 123.51h8.14v8.14h-8.14zm12.39 0h8.14v8.14h-8.14zm12.38 0h8.14v8.14h-8.14z"/><path class="cls-6" d="M534.34 123.51h8.14v8.14h-8.14z"/><path class="cls-4" d="M546.73 123.51h8.14v8.14h-8.14zm12.39 0h8.14v8.14h-8.14zm-61.94 12h8.14v8.14h-8.14zm12.39 0h8.14v8.14h-8.14z"/><path class="cls-6" d="M521.95 135.51h8.14v8.14h-8.14z"/><path class="cls-4" d="M534.34 135.51h8.14v8.14h-8.14zm12.39 0h8.14v8.14h-8.14zm12.39 0h8.14v8.14h-8.14z"/><path class="cls-6" d="M325.3 99.3h-54.12a3.63 3.63 0 0 0-3.63 3.63v34.34a3.64 3.64 0 0 0 3.63 3.63H275l8.29 11.1 1-11.09h41a3.63 3.63 0 0 0 3.63-3.63v-34.35a3.62 3.62 0 0 0-3.62-3.63Z"/><path d="M277.79 110.48h41.94m-41.94 8.9h41.94m-41.94 8.89h41.94" style="fill:#0169ee;stroke:#fff;stroke-miterlimit:10"/><path class="cls-4" d="M554.72 364.62c-4.24 0-8.48-2.71-10.74-4.83a2.24 2.24 0 1 1 3.06-3.28c.06.06 6.85 6.26 10.83 2.29 3.44-3.45 7-10.35 6.94-16.33a9.72 9.72 0 0 0-3-7.22c-1.8-1.67-3.53-2.41-5.15-2.2-2.82.36-4.79 3.4-4.81 3.43a2.24 2.24 0 0 1-3.8-2.39c.12-.19 3.07-4.84 8-5.49 3-.4 6 .73 8.82 3.36a14.24 14.24 0 0 1 4.41 10.43c.13 7.3-4 15.38-8.26 19.58a8.66 8.66 0 0 1-6.3 2.65Z"/><path class="cls-5" d="M552.6 359.8a16.75 16.75 0 0 1-5.56-3.29 2.24 2.24 0 1 0-3.06 3.28 19.06 19.06 0 0 0 8.28 4.55Zm-4.53-25.71a2.24 2.24 0 0 0 3.8 2.39 9.57 9.57 0 0 1 2.68-2.63l.37-5a13 13 0 0 0-6.85 5.24Z"/><path class="cls-4" d="M549.63 375.35H519.9l-3.72-49.55h37.17l-3.72 49.55z"/><ellipse class="cls-6" cx="530.52" cy="347.51" rx="8.08" ry="14.49"/><path class="cls-3" d="M513.11 277.4a28.45 28.45 0 0 1 1.71-4.6m7.26 48.54s8.36-8.37-.56-18.41c-6.69-7.52-9.93-14.73-9-22.33m26.98 27.19a16.49 16.49 0 0 0-1.8-4.31m.55 17.86a22.9 22.9 0 0 0 1.8-10"/><path class="cls-6" d="M439.06 88.79a19.85 19.85 0 0 0-26.13-28.35 23.52 23.52 0 0 0 .24-3.27 22.7 22.7 0 0 0-44.87-4.85h-.53a22.69 22.69 0 0 0-18 36.48Z"/><path class="cls-3" d="M373.45 105.81V78.94"/><path class="cls-2" d="m378.43 80.4-4.98-8.64-4.99 8.64h9.97z"/><path class="cls-3" d="M405.87 73.39v22"/><path class="cls-2" d="m400.88 93.93 4.99 8.64 4.99-8.64h-9.98z"/><rect class="cls-5" x="218.91" y="244.34" width="71.91" height="131.01" rx="4.12"/><rect class="cls-4" x="216.99" y="244.34" width="71.91" height="131.01" rx="4.12"/><path class="cls-6" d="M224.6 256.18h56.68v105.63H224.6z"/><circle class="cls-8" cx="252.94" cy="291.25" r="23.26"/><path class="cls-8" d="M248.69 294.44h7.44v7.44h-7.44zM245 284.39s-1.17-2.35-2.22-.78.67 3.51 1.18 5 1.17.78 1.17.78Zm15.1 0s1.18-2.35 2.22-.78-.67 3.51-1.17 5-1.18.78-1.18.78Z"/><path class="cls-8" d="M252.66 297.8h-.38a7.78 7.78 0 0 1-7.78-7.8v-8.75c0-4.31 3.48-7.31 7.78-7.31h.38c4.3 0 7.79 3 7.79 7.31V290a7.79 7.79 0 0 1-7.79 7.8Z"/><path class="cls-8" d="M253.49 284.25v3.61s.86.07.55.86-1.18 1.49-2.67.47"/><path class="cls-2" d="M249 285c0 .82-.27 1.5-.59 1.5s-.59-.68-.59-1.5.27-1.51.59-1.51.59.66.59 1.51Zm7.78 0c0 .82-.26 1.5-.59 1.5s-.59-.68-.59-1.5.27-1.51.59-1.51.59.66.59 1.51Z"/><path class="cls-8" d="M249.47 290.52a8.86 8.86 0 0 0 3.52 1.31 6.22 6.22 0 0 0 3.14-1.44M247 282.3a3.25 3.25 0 0 1 3.39-.39m4.04.09s1.3-1.57 3.65.39"/><path class="cls-9" d="M244.51 284.52s.52-4.57 1.31-5.09 2.48-1.57 2.87-1.83a3.41 3.41 0 0 0 .78-1s0-4.31-1.44-4.31a4.05 4.05 0 0 0-4.17 4.44c0 2.06.65 7.79.65 7.79Z"/><path class="cls-9" d="M248.69 277.6s1.91-1.45 5.64.23 5.4 4.2 5.77 6.56.37 8.38.37 8.38 4.34-1.93 4.82-8.8-1.44-12.4-7.83-14.33a9.69 9.69 0 0 0-10.11 2.53Zm20.9 29.88c-3.2-1.83-10.81-5.81-17.12-6.06s-13.41 4.16-16.15 6.09a23.23 23.23 0 0 0 33.27 0Z"/><path class="cls-8" d="M247.38 313.84a23.64 23.64 0 0 0 5.56.67 23.19 23.19 0 0 0 4.75-.49v-11.71a23.3 23.3 0 0 0-5.22-.89 17.06 17.06 0 0 0-5.09.64Z"/><rect class="cls-8" x="246.08" y="298.75" width="12.79" height="5.35" rx="1.86"/><path d="M247.64 298.88v3.65m1.18 1.31v-3.4m2.09-1.69v3.26m3.78 2.09v-2.35" style="stroke-width:.5px;stroke-linecap:round;stroke-linejoin:round;stroke:#263238;fill:none"/><path class="cls-1" d="M64.65 375.35h531.98m-559.6 0h14.32"/><path class="cls-4" d="M282.56 199.37v9.99l12.57 7.26v-24.51l-12.57 7.26zm-5.95 0h5.95v9.92h-5.95z"/></svg>