<svg id="Layer_1" data-name="Layer 1" xmlns="http://www.w3.org/2000/svg" viewBox="0 0 633.66 409.82"><defs><style>.cls-1,.cls-5{fill:#263238}.cls-2,.cls-3{fill:none}.cls-2,.cls-3,.cls-4,.cls-5{stroke:#263238}.cls-2{stroke-miterlimit:10}.cls-3,.cls-4,.cls-5{stroke-linecap:round;stroke-linejoin:round}.cls-10,.cls-4,.cls-7{fill:#fff}.cls-6,.cls-9{fill:#f5c62c}.cls-10,.cls-11,.cls-9{fill-rule:evenodd}.cls-11{fill:#ffecb6}</style></defs><path class="cls-1" d="M344.77 320.07c2.27 1 7.83.87 7.84.87s-1.2-3.64-1.3-3.86c-1.22-2.55-5.08-6.77-8.22-6.35a3.75 3.75 0 0 0-3 4.7c.51 2.18 2.74 3.8 4.68 4.64Z"/><path class="cls-1" d="M346.69 336.18c2.36.35 7.32-1.09 7.71-1.21a68.34 68.34 0 0 0 3 8.33q1 2.37 2.18 4.72c-.45-.66-.86-1.25-.93-1.33-1.85-2.14-6.68-5.19-9.6-3.95a3.75 3.75 0 0 0-1.66 5.33c1.08 2 3.66 2.93 5.75 3.24s6.38-.84 7.5-1.16l.89 1.8c1.43 2.86 2.88 5.71 4.21 8.55.47 1 .9 2 1.33 3-.4-.58-.75-1.08-.81-1.15-1.85-2.14-6.68-5.18-9.6-3.94a3.74 3.74 0 0 0-1.66 5.32c1.08 2 3.66 2.93 5.75 3.24s6-.73 7.3-1.1c.41 1 .82 2.08 1.17 3.11.22.7.49 1.37.67 2.09s.4 1.41.59 2.1c.32 1.36.67 2.75.95 4.08.21.92.38 1.81.56 2.7-.45-1-1.39-2.95-1.48-3.1-1.51-2.39-5.83-6.14-8.9-5.36a3.76 3.76 0 0 0-2.45 5c.77 2.1 3.17 3.45 5.19 4.07 2.23.68 7.16.06 7.77 0 .3 1.48.57 2.91.81 4.27.52 3 .92 5.68 1.23 8h2.07c-.36-2.36-.83-5.16-1.46-8.31-.29-1.49-.64-3.08-1-4.72a38.75 38.75 0 0 0 4.33-2c1.62 1.75 5.78 3.81 6.32 4.07-.57 1.39-1.13 2.74-1.69 4-1.15 2.64-2.24 5-3.2 7h2.25c.82-1.84 1.73-3.94 2.68-6.26.58-1.41 1.18-2.93 1.77-4.49.6.12 5.47 1.11 7.75.6 2.06-.47 4.55-1.63 5.48-3.67a3.75 3.75 0 0 0-2.07-5.18c-3-1-7.59 2.4-9.27 4.68-.1.13-1 1.71-1.57 2.71.24-.64.47-1.26.71-1.92.48-1.31.92-2.62 1.4-4l.63-2.1c.22-.69.37-1.46.56-2.19.41-1.72.74-3.48 1-5.26 1.14.42 5.23 1.84 7.35 1.69s4.75-.92 6-2.79a3.75 3.75 0 0 0-1.26-5.44c-2.82-1.45-7.87 1.23-9.87 3.22-.13.13-1.4 1.72-2.09 2.61.17-1.07.34-2.14.48-3.23.39-3.14.68-6.33 1-9.51.1-1 .2-1.95.31-2.92.4.15 5.23 1.95 7.6 1.78 2.11-.15 4.75-.92 6-2.8a3.74 3.74 0 0 0-1.26-5.43c-2.81-1.46-7.86 1.22-9.87 3.22-.15.15-2 2.44-2.42 3.05.22-2.14.47-4.27.79-6.36a66.3 66.3 0 0 1 1.83-8.37c.19.07 5.21 2 7.64 1.8 2.11-.15 4.76-.93 6-2.8a3.76 3.76 0 0 0-1.26-5.44c-2.82-1.45-7.87 1.23-9.87 3.22-.16.16-2.13 2.63-2.46 3.11.05-.16.08-.33.13-.49a48.5 48.5 0 0 1 3.31-7.92c.72-1.41 1.49-2.72 2.27-4 .9.45 5 2.45 7.23 2.54s4.83-.39 6.25-2.12a3.76 3.76 0 0 0-.66-5.55c-2.64-1.75-8 .36-10.16 2.12-.12.1-1.24 1.21-2 2 .36-.56.72-1.15 1.07-1.68 1.33-2 2.67-3.74 3.86-5.28.69-.87 1.33-1.64 1.93-2.36 1.12 0 5.6-.15 7.56-1.07s4.1-2.58 4.57-4.76a3.75 3.75 0 0 0-3.14-4.62c-3.15-.34-6.9 4-8.05 6.56-.1.23-1.25 3.9-1.19 3.9h.06c-.59.67-1.22 1.41-1.9 2.22-1.23 1.52-2.61 3.24-4 5.21a65.25 65.25 0 0 0-4.13 6.59 48.39 48.39 0 0 0-3.53 7.94.38.38 0 0 0 0 .1c0-.93 0-3.52-.05-3.72-.37-2.81-2.72-8-5.84-8.59a3.74 3.74 0 0 0-4.32 3.52c-.18 2.23 1.43 4.47 3 5.87 1.78 1.59 6.71 3.13 7.11 3.25a66.81 66.81 0 0 0-2.09 8.61c-.3 1.69-.55 3.41-.79 5.14v-1.62c-.36-2.81-2.71-8-5.83-8.6a3.76 3.76 0 0 0-4.32 3.53c-.19 2.23 1.43 4.46 3 5.87s5.78 2.82 6.89 3.18c-.08.66-.17 1.32-.25 2-.38 3.18-.75 6.35-1.2 9.45-.16 1.1-.36 2.17-.55 3.24v-1.4c-.36-2.81-2.72-8-5.83-8.59a3.75 3.75 0 0 0-4.33 3.52c-.18 2.23 1.44 4.46 3 5.87s5.38 2.69 6.7 3.12c-.24 1.09-.47 2.18-.74 3.23-.2.71-.35 1.41-.59 2.11l-.67 2.09c-.48 1.31-1 2.66-1.46 3.92-.34.89-.68 1.72-1 2.56.18-1.08.47-3.22.47-3.4a14.54 14.54 0 0 0-1.95-7.08 4.57 4.57 0 0 0-.05-.83 3.75 3.75 0 0 0-4.59-3.18c-3.06.81-5 6.19-5.15 9 0 .17.1 2 .19 3.13-.15-.66-.3-1.31-.46-2-.32-1.36-.69-2.7-1.07-4.15l-.63-2.09c-.2-.71-.5-1.42-.74-2.14-.61-1.66-1.3-3.31-2-4.95 1.19-.29 5.38-1.36 7.07-2.65s3.45-3.39 3.44-5.63a3.76 3.76 0 0 0-4.05-3.84c-3.15.34-5.89 5.36-6.46 8.13 0 .18-.22 2.21-.3 3.33-.45-1-.9-2-1.39-2.95-1.4-2.84-2.92-5.66-4.42-8.49l-1.35-2.6c.42-.1 5.43-1.26 7.32-2.71 1.68-1.29 3.46-3.39 3.44-5.63a3.76 3.76 0 0 0-4.05-3.84c-3.15.35-5.88 5.36-6.46 8.14 0 .2-.3 3.13-.33 3.88-1-1.91-2-3.82-2.85-5.75a64.87 64.87 0 0 1-3.09-8c.2-.05 5.43-1.24 7.36-2.72 1.68-1.29 3.46-3.39 3.44-5.63a3.75 3.75 0 0 0-4.05-3.84c-3.15.34-5.88 5.36-6.45 8.13-.05.22-.33 3.37-.34 3.94-.05-.15-.12-.31-.16-.47a48.12 48.12 0 0 1-1.61-8.44c-.17-1.57-.25-3.08-.3-4.56 1-.12 5.55-.73 7.44-1.87s3.81-3 4-5.21a3.76 3.76 0 0 0-3.61-4.27c-3.17 0-6.43 4.69-7.31 7.38 0 .14-.36 1.69-.58 2.81v-2c0-2.4.16-4.59.31-6.53.09-1.11.2-2.1.31-3 .92-.63 4.58-3.22 5.71-5.07s2-4.41 1.18-6.49a3.76 3.76 0 0 0-5.17-2.12c-2.81 1.45-3.55 7.12-3.09 9.91.05.24 1.11 3.94 1.16 3.91h.05c-.12.9-.24 1.86-.36 2.91-.19 1.94-.39 4.14-.45 6.54a66.75 66.75 0 0 0 .19 7.77 48.21 48.21 0 0 0 1.44 8.58v.1c-.5-.79-2-2.93-2.1-3.08-1.85-2.14-6.68-5.19-9.6-3.95a3.75 3.75 0 0 0-1.66 5.33c.9 1.86 3.5 2.83 5.59 3.13Z"/><path class="cls-1" d="M401 321.3c.05 0 1-3.7 1-3.94.39-2.81-.5-8.45-3.35-9.83a3.76 3.76 0 0 0-5.11 2.26c-.76 2.1.21 4.68 1.36 6.46 1.41 2.08 6.1 5.04 6.1 5.05Z"/><circle class="cls-2" cx="501.61" cy="59.57" r="42.52" transform="rotate(-13.04 501.63 59.591)"/><circle class="cls-2" cx="501.61" cy="59.57" r="39.42" transform="rotate(-13.06 501.52 59.575)"/><circle class="cls-1" cx="501.61" cy="59.57" r="2.21"/><path class="cls-3" d="M481.68 59.57h19.93V35.21"/><path class="cls-4" d="M77.6 380.53s8-40.56 8-43.76a185.06 185.06 0 0 0-3.2-29.35c-2.67-14.41-10.67-50.17-12.81-56s5.87-16.54 8-28.81 6.93-24 13.34-31.49 29.35-24 29.35-24H132s-4.27 70.44 1.6 81.11 16.54 33.09 17.61 42.69-5.34 25.62-4.27 34.69-8 24-10.14 30.42-1.07 26.68-1.07 26.68"/><path class="cls-5" d="m119.22 186.81-8.53 9.92s-2.14 11.43-3.21 16.76a42.92 42.92 0 0 1-3.2 9.61s3.73 8.54 5.87 11.74a30.37 30.37 0 0 1 3.2 6.4l5.87 3.74v-58.17Z"/><path class="cls-3" d="M89.75 224.45a69.39 69.39 0 0 1 8.62-.62m6.16-31.41s6.16 1.85 6.16 4.31"/><path class="cls-4" d="M67.5 387.44s2.66-25.33 2.66-28v-8c0-2.66 2.67-4.66 2.67-4.66s26-5.34 52 3.33 20 22.67 20 22.67l-1.33 20"/><rect class="cls-5" x="116.55" y="87.55" width="329.8" height="203.86" rx="9.59"/><rect class="cls-4" x="128.07" y="98.76" width="306.75" height="181.44" rx="9.59"/><path class="cls-4" d="M330.28 106.11h81.89v52.41h-81.89z"/><path class="cls-5" d="M330.28 152.68h81.89v5.84h-81.89z"/><path class="cls-4" d="M330.28 154.75h81.89v1.7h-81.89z"/><circle class="cls-6" cx="369.8" cy="132.06" r="12.06" transform="rotate(-4.82 369.684 132.071)"/><path class="cls-7" d="m376.79 132.32-10.5-6.06v12.12l10.5-6.06z"/><path class="cls-4" d="M330.28 164.18h81.89v52.41h-81.89z"/><path class="cls-5" d="M330.28 210.75h81.89v5.84h-81.89z"/><path class="cls-4" d="M330.28 212.82h81.89v1.7h-81.89z"/><circle class="cls-6" cx="369.8" cy="190.13" r="12.06" transform="rotate(-4.82 369.625 190.027)"/><path class="cls-7" d="m376.79 190.39-10.5-6.06v12.11l10.5-6.05z"/><path class="cls-4" d="M330.28 222.25h81.89v52.41h-81.89z"/><path class="cls-5" d="M330.28 268.82h81.89v5.84h-81.89z"/><path class="cls-4" d="M330.28 270.88h81.89v1.7h-81.89z"/><circle class="cls-6" cx="369.8" cy="248.19" r="12.06" transform="rotate(-82.79 369.802 248.192)"/><path class="cls-7" d="m376.79 248.45-10.5-6.05v12.11l10.5-6.06z"/><rect class="cls-6" x="159.6" y="121.07" width="151.06" height="153.53" rx="5.8"/><path class="cls-4" d="M102.16 262.11s9.59-20.87 10.66-28.87-1.07-26.68 1.6-34.15 1.07-17.08 7.47-20.82 14.94-2.67 16.54 12.28 0 38.42.54 46.42 14.41 19.75 14.94 36.83-5.34 34.68-6.91 42.2-8 25-8 25"/><path class="cls-3" d="M117.06 195.54a22.13 22.13 0 0 1 9.63-.19 79.86 79.86 0 0 1 8.54 2.13 61.65 61.65 0 0 0 0-10.67s.71-6.09-3-8.56-11.08-1.85-13.55 3.7-1.62 13.59-1.62 13.59Zm13.34 9.81s-12.32-3.69-15.4 1.23m3.08 1.85s3.69 1.23 11.7.62"/><path class="cls-5" d="M439.41 118.5s-13.87 4.27-12.8 8 26.68 35.75 30.95 34.69 9.07-14.95 9.07-24.55-27.22-18.14-27.22-18.14Z"/><path class="cls-4" d="M552.83 212.78 539.74 197s-17.08-40-21.88-48-15.48-30.95-19.21-32-9.07-1.6-10.67-2.67-8-3.2-16.55-3.73-26.15-4.27-33.62-6.41-8 0-17.07 3.21-36.29 12.8-38.43 14.41.54 6.4 7.47 9.07 10.14.53 18.15-.54 20.28-3.2 21.88-3.2 13.34 1.6 15.47 2.67 7.47 9.61 7.47 13.88a49.54 49.54 0 0 1-1.06 9.07l-.22 37.05s16.9 19.07 28.6 25.57 17.33 6.93 17.33 6.93l18.19 16.9"/><path class="cls-4" d="M488 114.23a48.34 48.34 0 0 1 8.53 12.28m41.63 146.6-40.58-45.74s-18.68-8-30.95-16-27.22-33.62-30.95-39.49-11.74-17.62-18.15-21.88-18.14-17.61-20.81-23 2.14-12.27 8-12.81 30.41 11.21 34.68 17.61 16.6 19.79 16.6 19.79"/><path class="cls-3" d="M426.07 132.91s-6.4 6.41-6.94 9.61m11.74-9.07s-4.8 7.47-8 10.14m-2.13-20.82c-6.94 4.81-11.74 13.88-11.74 13.88s-11.4-4.15-12.27-9.61.86-10.92 8-12.81 16.01 8.54 16.01 8.54Z"/><path class="cls-4" d="M552.16 305.11c-2-3.33-46.66-55.67-48.66-62.33s6-22 18.66-36c6.69-7.39 23.36-19.43 32.7-9.61 3.86 4.05 7.12 9 11.3 13M270.44 280l1.82-28.52a49.73 49.73 0 0 0 2.14 6.74c.92 1.84 19.61-6.74 19.61-6.74s-4.9-33.1-8-45-4-27.58-6.75-28.5-37.38-17.16-38.3-17.16-19.61 1.84-19.61 1.84L191.05 181l4.54 99Z"/><path class="cls-3" d="M246.4 203.37c0 1-.1 2-.18 2.94M244.56 177a184.54 184.54 0 0 1 1.88 22m22.36 1.83.09-4.85m-1 53.66.84-45.2"/><path class="cls-4" d="m297.77 279.97-2.21-18.66-21 4 7.17 14.66h16.04z"/><path class="cls-4" d="M271.22 256.64a93.57 93.57 0 0 0 10.67-5.64c6-3.67 11.67-4.67 13.33-1.67s5.34 11.33 4 12.67-21 7.66-23 7.66-5.65-6.71-5.65-6.71a11.57 11.57 0 0 1 .65-6.31ZM225.07 153.7a27.54 27.54 0 0 0-4.6 4.59A26.17 26.17 0 0 0 218 165l13.17 18.39 8.28-12.87 3.06-1.84 13.18 8.89s-4.6-15.94-9.5-20.84-18.37-4.26-21.12-3.03Z"/><path class="cls-5" d="M241.3 89.91s6.94 5.56 7.63 8.68-1.22 10-1.22 10l-9.19-17.94Z"/><path class="cls-4" d="M239.16 87.2s12.57 27.27 14.4 36.47.92 17.77-2.45 24.2-7.05 5.52-7.05 5.52v20.84s-16.24-12.87-17.16-14.41-2.45-4.29-2.45-4.29-1.84-13.48-7.66-17.46c0 0-7.66 1.22-9.5-5.82s-.3-9.5 4.6-10.12c0 0-4-10.11-4.9-16.85s10.41-8.89 17.16-13.18a36.67 36.67 0 0 1 15.01-4.9Z"/><path class="cls-5" d="m244.06 153.39-5.91-2.3 5.57 10.31.34-8.01zm-32.78-29.11s-4-1.53-8.28-7-5.51-9.81.31-19 26.69-17.82 32.48-16.9 9.5 8.27 2.45 12.87a53.12 53.12 0 0 1-15.63 6.43s3.37-2.76-.3-3.37-11 3.07-10.42 6.13 5.21 2.15 4.9 7-4.6 10.11-3.06 12 5.21 3.37 2.14 4.29-4.59-2.45-4.59-2.45Z"/><path class="cls-3" d="m232.73 129.18-4.6 3.68m2.45-1.23s5.82 5.52 15.94.92"/><path class="cls-5" d="M232.73 133.47a10.46 10.46 0 0 0 6.74 5.21c4.9 1.23 2.45-4.29 2.45-4.29s-6.74 0-9.19-.92Z"/><path class="cls-1" d="M227.46 115c.47 1.44.34 2.79-.31 3s-1.55-.79-2-2.23-.35-2.8.3-3 1.55.79 2.01 2.23Zm15.93-4.59c.48 1.45.34 2.79-.3 3s-1.55-.78-2-2.23-.34-2.79.3-3 1.52.82 2 2.23Z"/><rect class="cls-3" x="218.86" y="109.75" width="17.26" height="9.86" rx="2.04" transform="rotate(-18.3 227.46 114.664)"/><path class="cls-3" d="m234.5 108.22 4.45-1.49m-20.56 7.92-7.99 7.9m43.77-20.46-5.94 5.02"/><rect class="cls-3" x="239.08" y="103.62" width="17.26" height="9.86" rx="2.04" transform="rotate(-18.3 247.68 108.558)"/><path d="M220.78 109.88s3.67-4.6 9.19-4m7.66-2.44s2.45-2.45 7.05-1.23" style="stroke-width:2px;stroke-linecap:round;stroke-linejoin:round;stroke:#263238;fill:none"/><path class="cls-4" d="M238.55 109.26s9.19 17.78 8.27 19-7 0-7 0m-45.09 50.87s-5.21 0-6.74 4.6-15.94 57-14.41 58.53 20.84 2.75 23 2.14 11.33-35.85 11.33-35.85"/><path class="cls-4" d="M202.39 243.18s1.22-6.13-4-8.58-13.79-2.15-19 1.83-6.13 3.07-7.36 10.73 4 12.56 8.28 13.48 8 1.84 13.17-3.37 8.91-14.09 8.91-14.09Zm32.28-32.27s-2.15 46.88-10.11 64.35c0 0 7.66 2.45 20.22 1.23s24.21-8 24.21-8 4.29-25.74 6.44-38.31 3.37-19.61 3.37-19.61-2.76 2.15-18.39 3.07-25.74-2.73-25.74-2.73Z"/><path class="cls-4" d="M214.65 249.3s-17.78-11-20.23-11-9.8 2.45-12.87 9.5-2.76 10.73 1.23 12 29.72 3.68 32.79 3.68 10.41 1.53 14.7 1.53 15.63-1.22 17.17-3.67-11-1.54-12-1.84 11.49-2.7 13.18-3.07 4-2.76.61-3.67c0 0 5.83-2.76 2.15-5.21l-17.11-3 5.29-1.11s12 3.2 11.82-.47c-.07-1.53-9.81-4.6-12.87-4.6s-19.31 11-19.31 11Z"/><path class="cls-3" d="m249.27 252.68-15.62-1.23"/><path class="cls-5" d="M268.46 87.55a31 31 0 0 0 15 10.07l-12.06 21.24 22.37-19.57h.66c10.82 0 20.35-4.66 25.95-11.75Z"/><path class="cls-6" d="M296.46 42.12c-17.25 0-31.23 11.86-31.23 26.49 0 11.36 8.42 21 20.26 24.82l-12.06 21.24L295.8 95.1h.66c17.25 0 31.23-11.86 31.23-26.5s-13.98-26.48-31.23-26.48Z"/><path class="cls-1" d="M282.92 71.69a3.47 3.47 0 1 0-3.47 3.47 3.47 3.47 0 0 0 3.47-3.47Zm15.46 0a3.47 3.47 0 1 0-3.47 3.47 3.48 3.48 0 0 0 3.47-3.47Z"/><circle class="cls-1" cx="310.36" cy="71.69" r="3.47"/><circle class="cls-6" cx="241.66" cy="336.82" r="6.02"/><path class="cls-6" d="M241.66 321.61a15.24 15.24 0 0 0-13.91 9.08l4 3.6a10.2 10.2 0 0 1 20 1l4.09-3.94a15.22 15.22 0 0 0-14.18-9.74Z"/><path class="cls-6" d="M225 328.24a18.71 18.71 0 0 1 33.53.48l3.76-3.62a23.77 23.77 0 0 0-20.64-12c-8.72 0-18.85 7.23-23 14.25Z"/><path class="cls-9" d="M400.81 44.4v24.86a4.74 4.74 0 0 1-4.74 4.74h-30.23a4.74 4.74 0 0 1-4.74-4.74V39a4.74 4.74 0 0 1 4.74-4.74h27"/><path class="cls-10" d="M394.64 45.35h-27a1.11 1.11 0 0 0-1.11 1.11V62a1.11 1.11 0 0 0 1.11 1.11h27a1.11 1.11 0 0 0 1.11-1.11V46.46a1.11 1.11 0 0 0-1.11-1.11Zm.37 3.36L386.39 54l7.68 5.67a1 1 0 0 1-.6 1.81 1 1 0 0 1-.59-.2l-8.32-6.15-3.08 1.91-3.62-2-8.46 6.25a1 1 0 0 1-.6.2 1 1 0 0 1-.8-.41 1 1 0 0 1 .21-1.4l7.73-5.68-8.77-4.87a1 1 0 0 1 1-1.75l13.28 7.38L394 47a1 1 0 0 1 1.05 1.7Z"/><path class="cls-11" d="M405.65 37.78a7 7 0 1 0-7 7 7 7 0 0 0 7-7Z"/><path class="cls-9" d="M499.75 306.67v24.86a4.74 4.74 0 0 1-4.74 4.74h-30.23a4.74 4.74 0 0 1-4.74-4.74v-30.22a4.74 4.74 0 0 1 4.74-4.74h27"/><path class="cls-11" d="M504.58 300.05a7 7 0 1 0-7 7 7 7 0 0 0 7-7Z"/><path class="cls-10" d="M480.11 303.48c-7.09 0-12.84 4.91-12.84 11a10.53 10.53 0 0 0 5.23 8.81l-.58 5.1 5.24-3.25a15 15 0 0 0 2.95.3c7.09 0 12.83-4.91 12.83-11s-5.74-10.96-12.83-10.96Z"/></svg>