<svg id="Layer_1" data-name="Layer 1" xmlns="http://www.w3.org/2000/svg" viewBox="0 0 633.66 409.82"><defs><style>.cls-1{fill:#00d1b2}.cls-2,.cls-5{fill:#263238}.cls-2,.cls-3,.cls-4,.cls-6,.cls-7{stroke:#263238}.cls-2,.cls-3,.cls-4,.cls-6{stroke-linecap:round;stroke-linejoin:round}.cls-3,.cls-7{fill:#fff}.cls-4{fill:#d4d6d7}.cls-6{fill:none}.cls-7{stroke-miterlimit:10}</style></defs><ellipse class="cls-1" cx="349.25" cy="365.94" rx="47.9" ry="22.35"/><path class="cls-2" d="m259.75 194.62-107.72 32.29V75.98l107.72-32.29v150.93z"/><path class="cls-3" d="M265.23 189.14 157.5 221.43V70.5l107.73-32.29v150.93z"/><path class="cls-3" d="M265.23 46.28 157.5 78.57V70.5l107.73-32.29v8.07z"/><path class="cls-1" d="M175.36 84.13a8.42 8.42 0 0 1-5.76 7.5c-3.18 1-5.76-.84-5.76-4a8.41 8.41 0 0 1 5.76-7.49c3.18-.99 5.76.86 5.76 3.99Z"/><path class="cls-3" d="M211 142.67s-42.66 22.22-45 26.19-6 51.64-6 51.64l103.56-31.18s-2-44.09-4.18-45.93-39.1-4.98-48.38-.72Z"/><path class="cls-3" d="M181 164c4 7.66.86 36-1.1 50.46l25.44-7.59-6.69-57.68c-6.18 3.34-13.68 7.45-19.94 11.09A30.6 30.6 0 0 1 181 164Z"/><path class="cls-2" d="m201.74 175.55-.78-6.72-18 5.84a102 102 0 0 1 0 7Zm-2.47-21.34-20.2 6.55a29.06 29.06 0 0 1 2 3.24 11.93 11.93 0 0 1 1 2.78l18-5.85Zm5.8 50.1-.78-6.72-23.18 7.51c-.3 2.61-.61 5.05-.9 7.26Zm-22.97-8.86 21.15-6.85-.78-6.72-19.83 6.42c-.15 2.37-.33 4.77-.54 7.15Z"/><path class="cls-4" d="M202.83 129.13s-.16 20.55.32 22.11 5.36 7.87 12.35 7.83 10.78-6.65 12.29-10.89 2.29-18.94 2.29-18.94-19.97 5.69-27.25-.11Z"/><path class="cls-2" d="M208.87 131.43a12.69 12.69 0 0 1-6-2.3s-.09 11.74.07 18.14c8.8-1.78 20-7.21 20-7.21Z"/><path class="cls-4" d="M233.43 103.38s4.34-5.48 5.47-1.3-.78 9.76-1.86 12a15.94 15.94 0 0 1-3.79 4.37Z"/><path class="cls-4" d="M197 96.75s-1.85 26.35 2.84 34.81 14.51 14.59 22.28 11.11 11.66-9.14 13-17 2.37-29.65 1.24-33.84-3.56-11-18.91-9-18.94 8.33-20.45 13.92Z"/><path class="cls-2" d="M195.57 111.17a12.3 12.3 0 0 1 3.1-6.11c2.73-3 6.35-5 4.49-9.16s4.07-5.76 6.16-6.31 6.34 3.35 12.31 1.4 9.11-5.57 11.9-3.6 1.94 9.1 1.83 10 .7 7.2.7 7.2 3.33-12.65 3.67-15.44-5.29-14.83-14.55-16.42-21.79 1.67-27.73 8.92-4.89 12.57-4 16.65a25.44 25.44 0 0 1 0 8.71s.78 6.91 2.12 4.16Z"/><path class="cls-4" d="M197.58 112.05s-5.64-9.72-8.32-3.35 2.59 15.7 4.58 16.15 4.1-1.75 4.1-1.75"/><path class="cls-5" d="M211.85 110.37c-.24 2-1.11 3.62-1.94 3.58s-1.31-1.68-1.06-3.69 1.11-3.61 1.94-3.58 1.3 1.69 1.06 3.69Zm18.05-2.92c-.24 2-1.11 3.61-1.94 3.58s-1.3-1.69-1.06-3.69 1.11-3.62 1.94-3.58 1.31 1.68 1.06 3.69Z"/><path class="cls-6" d="M225.22 112a6.61 6.61 0 0 1-.08 4.45 6.74 6.74 0 0 1-6.66 3.78c-3.44-.13-5.29-3.81-5.29-3.81m-2.88 8.58s6.25 5.32 17.85-3.15m-22.92-18.09s2.32-2.41 7.35-2.22m12.06-2.03a6.31 6.31 0 0 1 8.13-.32"/><path class="cls-3" d="M253 157.13c-2-7.12-3.47-12.27-4.49-15.64-5-.48-11-.85-16.85-.93 1.2 2.59 2.9 8.26 4.08 20.51a359.86 359.86 0 0 1 1.26 36.38l19.26-5.75c-.14-9.9-.74-25.48-3.26-34.57Z"/><path class="cls-2" d="m234.26 149.84 15.28-5-1-3.4c-2.49-.24-5.24-.45-8.11-.62l-7.69 2.5a58.05 58.05 0 0 1 1.52 6.52Zm1.79 14.58 17.39-5.63c-.14-.57-.27-1.13-.42-1.66l-1.32-4.75-16.3 5.28c.12 1.08.25 2.2.36 3.41s.24 2.23.29 3.35Zm19.27 7.3c-.2-2.31-.45-4.58-.76-6.73l-18.08 5.86c.13 2.3.23 4.61.3 6.88Zm.84 16.02c-.05-2.17-.12-4.5-.23-6.89L237 187v7ZM290 39.87h118.67V190.8H290z"/><path class="cls-3" d="M290 36.48h118.67v150.93H290z"/><path class="cls-3" d="M290 36.48h118.67v8.06H290z"/><path class="cls-1" d="M307.85 55.49a5.76 5.76 0 1 1-5.76-5.76 5.76 5.76 0 0 1 5.76 5.76Z"/><path class="cls-2" d="M353.22 68.43S340 57.67 327.93 62.51s-21.26 41.43-18.84 52.19 15.07 18.3 15.07 18.3-2.42 6.45-4.57 3.23-4.85-3.23-3.77 6.18 12.38 10 21 11.3 28.52 4 37.94.27S386 141.61 385 139.18s-4.57 2.7-7.8 1.08-.27-3 5.11-8.07 7.27-22.6 4.58-33.9-8.89-22.6-18.61-27.44-12.64-5.92-15.06-2.42Z"/><path class="cls-3" d="m407.87 187.27-7.43-21.34.36 21.34h7.07zm-112.24 0 2.13-21.33-7.53 21.33h5.4z"/><path class="cls-3" d="m400.8 187.27-.36-21.34-35.56-16.62-28.46-4.66-38.66 21.29-3.7 21.33H400.8z"/><path class="cls-3" d="M341.54 138.67s-3.41-5.12-6-3.13-13.09 10-10.81 16.22 16.5 13.94 25.89 13.94 19.63-12.52 19.92-13.94-7.12-12.23-8.25-12.8-12.49 1.13-20.75-.29Z"/><path class="cls-3" d="M340.12 146.92s5.13 16.43 18.41 15.57m-18.41-32.07v16.5a21 21 0 0 0 10.53 3.7 10.87 10.87 0 0 0 9.1-4.27v-15.93s-15.36 3.13-19.63 0Z"/><path class="cls-6" d="M331.47 110.51s-2-5.19-3.45 0 6.33 13 6.33 9.79-2.88-9.79-2.88-9.79Zm36.12 0s2-5.19 3.45 0-6.33 13-6.33 9.79 2.88-9.79 2.88-9.79Z"/><path class="cls-3" d="M349.8 82.33S330.45 99.69 329.59 104s5.12 23.33 7.4 26.18 7.11 7.11 12.81 7.11 8.25-2 11.66-7.11 6.26-19.07 6-24.76-17.66-23.09-17.66-23.09Z"/><path class="cls-6" d="M335.57 104.24s5.69-.85 8.25 3.13m10.24.57a8.66 8.66 0 0 1 8-3.13"/><path class="cls-5" d="M342.17 107.34a1.74 1.74 0 1 0-1.73 1.74 1.73 1.73 0 0 0 1.73-1.74Zm16.67 0a1.74 1.74 0 1 0-1.74 1.74 1.74 1.74 0 0 0 1.74-1.74Z"/><path class="cls-6" d="M344.66 119.4s1.69 2.09 3.64 2.09 4.95-1.83 5.21-2.61m-12.24 3.78a14.72 14.72 0 0 0 7.16 2.34 10.91 10.91 0 0 0 6.77-1.56m-19.39-23.04a8.24 8.24 0 0 1 7.55-.78m9.89.52a7.57 7.57 0 0 1 8.72 1.17"/><path class="cls-2" d="m440.27 195.92 107.72 32.29V77.28L440.27 44.99v150.93z"/><path class="cls-3" d="m436.32 189.14 107.72 32.29V70.5L436.32 38.21v150.93z"/><path class="cls-3" d="m436.32 46.28 107.72 32.29V70.5L436.32 38.21v8.07z"/><path class="cls-1" d="M442.84 58.88a8.41 8.41 0 0 0 5.76 7.49c3.18 1 5.76-.84 5.76-4a8.42 8.42 0 0 0-5.76-7.5c-3.18-.98-5.76.82-5.76 4.01Z"/><path class="cls-2" d="M509.81 84.46s-.21-.44-.58-1.17c-1.56-3-6.1-11.08-11.79-14-7.07-3.7-16.44-5.29-15.26-2.64a11.51 11.51 0 0 0 3.37 4.19s-15-1.82-19.85 1.59-7.14 6.57-4.49 6.57h2.66s-12.42 13.39-12.94 19.69 5.67 7.86 5.67 7.86 2.71 13.11 5 16.78 3.55 2.1 3.55 2.1 7.27 8.12 13.79 11.27 14.47 2.87 24.53 2.07 14.55-1.32 16.87-8.93a74.15 74.15 0 0 0 2.79-14.69s2.88 5 2.93 0-.74-16.52-3.84-20.45a39.13 39.13 0 0 0-7.22-6.84s5.89 1 2-2.36c0 0-4.33-2.36-7.19-1.04Zm-60.61 64.58-10.8 40.36 11.67 3.67-.87-44.03zm75.14 10.95 13.1 59.09-14.36-4.27 1.26-54.82z"/><path class="cls-2" d="m481.83 136.16-32.63 12.88.87 44.03 73.01 21.74 1.26-54.82-26.46-21.49-16.05-2.34z"/><path class="cls-3" d="m475.6 200.03 12.51 3.89 12-63.6-2.23-1.82-16.05-2.34-3.77 1.49-2.46 62.38z"/><path class="cls-3" d="M480 131.7s.57 18.62 2.87 22.56 15.4-12.08 16.36-14.45 3.21-11.28 3.21-11.28-13.82 5.79-16.51 5-5.93-1.83-5.93-1.83Z"/><path class="cls-2" d="M502.48 128.53s-4.64 1.94-9.07 3.42l-5.06 5.51h11.7c1.06-3.52 2.43-8.93 2.43-8.93Z"/><path class="cls-3" d="m495.75 91-22.54 12.61s.84 12.85 1.33 17.84 6.35 17.3 10.09 17.82 18.46-8.93 20.21-11.56 2.73-10.23 2.73-10.23-11.43-17.8-11.82-26.48Z"/><path class="cls-6" d="m485 111.5-.61 4.2s-2.64.26-2 2.1 3.38 4.19 6.94.78m-8.64 3.94s.94 3.15 5.2 3.4a10.38 10.38 0 0 0 6.83-1.84"/><path class="cls-5" d="M496.25 114.09c-.1 1.52-.65 2.69-1.24 2.63s-1-1.34-.88-2.85.65-2.69 1.24-2.63.98 1.34.88 2.85Zm-14.52-3.92c-.1 1.51-.66 2.69-1.24 2.63s-1-1.34-.88-2.85.65-2.69 1.23-2.63.99 1.34.89 2.85Z"/><path class="cls-6" d="M478.25 103.64s3.89-2.11 6.68.78m5.93 1.83s6.63-.27 8.41 3.92"/><path class="cls-7" d="M335.79 168.4s-2-.28-2 2.31 1.29 5.47 3.46 6.19 1.72-2.59 1.15-3.89-2.61-4.61-2.61-4.61Zm23.8 0s2-.28 2 2.31-1.3 5.47-3.46 6.19-1.72-2.59-1.15-3.89 2.61-4.61 2.61-4.61Z"/><path class="cls-2" d="m328.31 273.68 1.51 77.55-1.51 1.95.64 4.32s-2.16-2.6-4.53-1.52 1.08 7.13 4.53 9.29 4.76 3.67 6.7 2 1.73-7.56 1.73-7.56a31.47 31.47 0 0 0 1.3-5.62v-4.59s2.37-1.51 2.37-5.4 6.7-66.1 6.7-66.1l-20.31-7.56Zm45.01 0-1.51 77.55 1.51 1.95-.65 4.32s2.16-2.6 4.54-1.52-1.08 7.13-4.54 9.29-4.75 3.67-6.7 2-1.72-7.56-1.72-7.56A31.47 31.47 0 0 1 363 354v-4.5s-2.38-1.51-2.38-5.4-6.69-66.1-6.69-66.1l20.3-7.56Z"/><path class="cls-3" d="M339.32 189.86s-17.71 10.59-17.93 11.88 6.48 43.42 6.48 43.42l-2.8 26.14s7.34 11.24 24.84 10.37 26.79-8.86 26.79-8.86l-4.54-30.89 3.24-41.69-18.79-9.94Z"/><path class="cls-6" d="M361.29 236.59c-4.77 5.73-11.23 12.66-17.13 16.24m24.28-25.48s-1.16 1.66-3.08 4.16m-11.25 18.14s-11.54 11.54-17.91 14.72"/><path class="cls-7" d="M340.98 180.5v8.5h13.39v-8.21l-13.39-.29z"/><path d="M347.6 147.23a18.56 18.56 0 0 0-10.94 4.77c-4.61 4.46-3.6 9.64-2.45 13.82s5.33 15.55 7.06 16.42 10.65 1.73 13 .29 6.77-12.82 7.06-20.6-4.08-15.42-13.73-14.7Z" style="stroke-miterlimit:10;stroke:#263238;fill:#263238"/><path class="cls-7" d="M358.55 192.02h-21.89l.86-5.76h20.17l.86 5.76z"/><path class="cls-3" d="M300.44 208.66a55.18 55.18 0 0 1-2.59-6.27c-1.08-3.24-3.24-4.54-4.11-5.62s-2.59-2.37-3.24-3.45-1.94.86-1.29 2.16l.64 1.29s-2.37-1.08-2.37-1.72 1.29-4.32-.65-3.46-1.94 6.48-1.51 8.42 9.93 6.92 9.93 6.92l1.95 3.89Zm-10.59-11.89 3.24 3.24"/><path class="cls-3" d="m321.39 201.74-5 22.47L300 206.5l-5.4 2.8s20.3 36.94 23.11 36.73 9.07-9.94 9.07-9.94Zm77.11 6.92a55.18 55.18 0 0 0 2.59-6.27c1.08-3.24 3.24-4.54 4.1-5.62s2.6-2.37 3.24-3.45 1.95.86 1.3 2.16l-.65 1.29s2.38-1.08 2.38-1.72-1.3-4.32.65-3.46 1.94 6.48 1.51 8.42-9.94 6.92-9.94 6.92l-1.94 3.89Zm10.58-11.89-3.24 3.24"/><path class="cls-3" d="m375.4 200.23 7.11 24 16.42-17.71 5.4 2.8S384 246.24 381.22 246s-9.08-9.94-9.08-9.94Z"/><path class="cls-1" d="M183.51 252.44h11.33v26.59h-11.33zm14.33-12.03h11.33v38.62h-11.33zm14.34 6.02h11.33v32.6h-11.33zm14.62 16.94h11.33v15.66H226.8zm14.62-31.33h11.33v46.99h-11.33zm14.62 24.6h11.33v22.39h-11.33z"/><path class="cls-6" d="M179.53 241.85v37.18h91.49m167.04-42.79A26.76 26.76 0 1 0 464.82 263a26.76 26.76 0 0 0-26.76-26.76Zm0 35.27a8.52 8.52 0 1 1 8.51-8.51 8.51 8.51 0 0 1-8.51 8.51Z"/><path class="cls-6" d="m456.56 243.68-13.3 12.59a8.5 8.5 0 0 1 3.31 6.73 8.4 8.4 0 0 1-1.39 4.65l14.54 11.05a26.72 26.72 0 0 0-3.16-35Z"/><path class="cls-1" d="M518.87 281.92a26.76 26.76 0 1 0-37.85 0 26.76 26.76 0 0 0 37.85 0ZM493.92 257a8.51 8.51 0 1 1 0 12 8.5 8.5 0 0 1 0-12Z"/><path class="cls-1" d="m500.52 289.75.5-18.31a8.5 8.5 0 0 1-9.41-6.69l-18.09 2.47a26.75 26.75 0 0 0 27 22.53Z"/><path class="cls-6" d="m411.84 333.52 17.84-13.64 21.76 13.06 27.2-22.27 27.88 19.9 13.6-15.3"/><path class="cls-5" d="m522.87 319.67 2.01-9.77-9.46 3.15 7.45 6.62z"/><path class="cls-3" d="M433.2 319.88a3.53 3.53 0 1 0-3.52 3.53 3.53 3.53 0 0 0 3.52-3.53Zm21.8 12.95a3.53 3.53 0 1 0-3.52 3.53 3.53 3.53 0 0 0 3.52-3.53Z"/><circle class="cls-3" cx="478.64" cy="310.67" r="3.52"/><path class="cls-3" d="M510.11 330a3.53 3.53 0 1 0-3.52 3.53 3.53 3.53 0 0 0 3.52-3.53Z"/><path class="cls-6" d="M179.53 297.74v37.18h94"/><path class="cls-1" d="m258.64 334.92-34.39-32.84-16.19 26-11.75-19.16-15.97 26h78.3z"/><path class="cls-6" d="m266.36 334.92-22.94-32.84-23.27 26-16.88-19.16-22.93 26h86.02zm-75.86.46v3.65m13.63-3.65v3.65m13.63-3.65v3.65m13.63-3.65v3.65m13.63-3.65v3.65m13.62-3.65v3.65"/><path class="cls-5" d="m109.11 324.31 1.45 18.69c0 2.84 4.13 5.13 9.23 5.13S129 345.86 129 343l1.45-18.71Z"/><path class="cls-5" d="M130.48 324.31c0 3.27-4.78 5.93-10.69 5.93s-10.68-2.66-10.68-5.93 4.78-5.94 10.68-5.94 10.69 2.63 10.69 5.94Z"/><path class="cls-1" d="M84.13 251.54c2.34 1 8.07.89 8.07.89s-1.23-3.74-1.33-4c-1.26-2.63-5.23-7-8.47-6.53a3.86 3.86 0 0 0-3.09 4.84c.53 2.26 2.83 3.93 4.82 4.8Z"/><path class="cls-1" d="M86.11 268.13c2.43.35 7.54-1.13 7.94-1.25a69 69 0 0 0 3.1 8.57c.71 1.63 1.47 3.25 2.25 4.86-.47-.68-.89-1.29-1-1.37-1.91-2.2-6.88-5.34-9.89-4.06a3.86 3.86 0 0 0-1.71 5.48c1.11 2 3.77 3 5.92 3.33s6.57-.85 7.72-1.18c.31.61.61 1.23.92 1.85 1.48 2.94 3 5.88 4.34 8.8.48 1 .92 2.06 1.36 3.09-.41-.61-.76-1.11-.83-1.18-1.9-2.21-6.88-5.34-9.88-4.07a3.86 3.86 0 0 0-1.71 5.49c1.11 2 3.76 3 5.91 3.33s6.14-.75 7.52-1.13c.42 1.07.85 2.14 1.21 3.19.23.73.5 1.41.69 2.16l.6 2.17c.34 1.39.69 2.83 1 4.19.21 1 .4 1.86.58 2.78-.47-1-1.43-3-1.53-3.19-1.55-2.47-6-6.32-9.16-5.51a3.86 3.86 0 0 0-2.46 5.16c.79 2.16 3.27 3.55 5.35 4.19 2.29.7 7.36.06 8 0 .31 1.52.59 3 .83 4.39.55 3.09 1 5.85 1.27 8.19h2.14c-.38-2.42-.86-5.3-1.51-8.54-.3-1.54-.65-3.18-1-4.86a42.59 42.59 0 0 0 4.46-2.1c1.67 1.81 6 3.92 6.5 4.19a147.9 147.9 0 0 1-1.73 4.12c-1.19 2.72-2.31 5.14-3.3 7.19h2.31c.85-1.89 1.79-4.05 2.77-6.44.6-1.45 1.21-3 1.82-4.62.61.13 5.63 1.15 8 .62 2.12-.48 4.69-1.68 5.64-3.78a3.85 3.85 0 0 0-2.13-5.33c-3.09-1-7.81 2.47-9.54 4.81-.1.14-1 1.76-1.62 2.8.25-.66.5-1.3.74-2 .49-1.34 1-2.7 1.44-4.16.21-.71.43-1.43.65-2.16s.38-1.5.58-2.26c.42-1.76.76-3.57 1.06-5.4 1.18.42 5.39 1.89 7.57 1.73s4.89-.94 6.15-2.87a3.86 3.86 0 0 0-1.3-5.6c-2.9-1.5-8.1 1.26-10.16 3.31-.13.13-1.45 1.77-2.15 2.69.17-1.1.35-2.2.49-3.32.4-3.24.7-6.52 1-9.8.1-1 .21-2 .32-3 .41.15 5.38 2 7.82 1.83 2.17-.15 4.89-.95 6.15-2.88a3.86 3.86 0 0 0-1.3-5.6c-2.9-1.49-8.09 1.27-10.16 3.32-.15.15-2 2.52-2.49 3.14.23-2.2.48-4.39.82-6.55a66.64 66.64 0 0 1 1.88-8.61c.19.07 5.37 2 7.87 1.85 2.17-.15 4.89-.95 6.15-2.88a3.86 3.86 0 0 0-1.3-5.6c-2.9-1.49-8.1 1.26-10.16 3.32-.16.16-2.2 2.7-2.53 3.19.05-.16.08-.34.13-.5a49.2 49.2 0 0 1 3.41-8.15c.74-1.45 1.53-2.8 2.33-4.09.93.46 5.18 2.53 7.45 2.62s5-.41 6.43-2.19a3.86 3.86 0 0 0-.67-5.7c-2.72-1.81-8.19.36-10.47 2.18-.12.1-1.27 1.24-2.09 2.08.36-.58.73-1.18 1.1-1.72 1.36-2.06 2.74-3.86 4-5.44.71-.89 1.37-1.69 2-2.43 1.15 0 5.76-.16 7.78-1.1s4.22-2.65 4.7-4.91a3.86 3.86 0 0 0-3.23-4.75c-3.24-.35-7.1 4.1-8.28 6.76-.1.23-1.29 4-1.23 4h.07c-.62.69-1.27 1.45-2 2.29-1.27 1.56-2.69 3.33-4.1 5.36a67.9 67.9 0 0 0-4.26 6.78 50.46 50.46 0 0 0-3.63 8.18v.1c0-.95 0-3.63-.05-3.83-.38-2.89-2.8-8.25-6-8.85a3.87 3.87 0 0 0-4.45 3.64c-.19 2.29 1.48 4.59 3.1 6 1.83 1.63 6.91 3.21 7.31 3.34a69 69 0 0 0-2.14 8.86c-.31 1.75-.57 3.51-.81 5.29v-1.67c-.38-2.89-2.8-8.25-6-8.84a3.85 3.85 0 0 0-4.45 3.63c-.19 2.29 1.48 4.59 3.1 6s6 2.91 7.09 3.27c-.08.68-.17 1.36-.25 2.05-.4 3.27-.77 6.54-1.24 9.73-.16 1.13-.37 2.23-.56 3.34v-1.45c-.38-2.89-2.8-8.25-6-8.84a3.85 3.85 0 0 0-4.45 3.63c-.19 2.29 1.48 4.59 3.1 6s5.53 2.76 6.89 3.2c-.24 1.13-.48 2.26-.76 3.33-.21.74-.36 1.46-.61 2.18s-.46 1.44-.69 2.14c-.49 1.35-1 2.74-1.5 4.05-.35.9-.7 1.76-1 2.63.17-1.12.47-3.32.48-3.5a15.1 15.1 0 0 0-2-7.29 4.91 4.91 0 0 0-.06-.86 3.86 3.86 0 0 0-4.72-3.27c-3.15.84-5.15 6.37-5.3 9.28 0 .17.1 2 .19 3.22-.15-.68-.3-1.35-.47-2.05-.33-1.4-.7-2.78-1.1-4.27-.21-.71-.43-1.43-.65-2.16s-.51-1.46-.76-2.2c-.63-1.7-1.34-3.4-2.1-5.1 1.22-.29 5.54-1.39 7.27-2.72s3.56-3.49 3.54-5.79a3.86 3.86 0 0 0-4.16-4c-3.25.36-6.06 5.52-6.65 8.38 0 .17-.23 2.27-.31 3.42-.47-1-.92-2-1.43-3-1.45-2.92-3-5.83-4.55-8.74-.47-.89-.93-1.78-1.39-2.68.43-.1 5.59-1.29 7.54-2.78 1.72-1.33 3.55-3.49 3.54-5.8a3.87 3.87 0 0 0-4.17-3.95c-3.25.35-6.06 5.52-6.65 8.37 0 .22-.32 3.23-.35 4-1-2-2-3.93-2.93-5.92a68.81 68.81 0 0 1-3.18-8.22c.2 0 5.6-1.27 7.58-2.8 1.73-1.32 3.56-3.49 3.54-5.79a3.85 3.85 0 0 0-4.16-3.95c-3.25.35-6.06 5.52-6.65 8.37 0 .22-.34 3.47-.35 4.06 0-.16-.12-.33-.17-.49a50.09 50.09 0 0 1-1.89-8.56c-.18-1.62-.26-3.18-.31-4.7 1-.13 5.72-.75 7.66-1.93s3.92-3.08 4.16-5.37a3.86 3.86 0 0 0-3.71-4.38c-3.27 0-6.63 4.82-7.53 7.59 0 .15-.38 1.74-.6 2.89v-2c0-2.46.16-4.72.32-6.72.09-1.14.2-2.16.32-3.12.94-.65 4.71-3.31 5.87-5.22s2.06-4.53 1.22-6.68a3.87 3.87 0 0 0-5.4-2.23c-2.9 1.5-3.66 7.33-3.18 10.21 0 .24 1.14 4.05 1.19 4-.12.92-.25 1.91-.36 3-.2 2-.41 4.26-.47 6.74a70.85 70.85 0 0 0 .19 8 51 51 0 0 0 1.49 8.82.45.45 0 0 0 0 .11c-.52-.81-2-3-2.16-3.17-1.91-2.21-6.88-5.34-9.89-4.07a3.87 3.87 0 0 0-1.71 5.49c1.2 1.99 3.9 2.98 6.01 3.3Z"/><path class="cls-1" d="M142.05 252.8s1-3.8 1.08-4.05c.4-2.89-.52-8.7-3.46-10.12a3.86 3.86 0 0 0-5.25 2.33c-.79 2.16.21 4.82 1.39 6.64 1.39 2.15 6.24 5.2 6.24 5.2Zm-13.82 71.51c0 2.58-3.78 4.68-8.44 4.68s-8.43-2.1-8.43-4.68 3.77-4.69 8.43-4.69 8.44 2.1 8.44 4.69ZM546.71 21.53H493.8a7.75 7.75 0 0 0-7.8 7.75V53a7.75 7.75 0 0 0 7.76 7.76h45.87l-1.82 7.3 9.07-7.31a7.76 7.76 0 0 0 7.59-7.75V29.28a7.75 7.75 0 0 0-7.76-7.75Z"/><circle class="cls-5" cx="502.37" cy="41.23" r="3.51"/><path class="cls-5" d="M523.77 41.23a3.52 3.52 0 1 0-3.51 3.51 3.51 3.51 0 0 0 3.51-3.51Z"/><circle class="cls-5" cx="538.14" cy="41.23" r="3.51"/><path class="cls-3" d="M252.73 69.59h42.41a6.22 6.22 0 0 1 6.21 6.22v19a6.21 6.21 0 0 1-6.21 6.21h-36.77l-9.49 5.85 3.69-5.85a6.21 6.21 0 0 1-6-6.21v-19a6.22 6.22 0 0 1 6.16-6.22Z"/><path class="cls-5" d="M285.45 85.38a2.82 2.82 0 1 1 2.82 2.82 2.81 2.81 0 0 1-2.82-2.82Zm-14.33 0a2.82 2.82 0 1 1 2.81 2.82 2.81 2.81 0 0 1-2.81-2.82Zm-14.34 0a2.82 2.82 0 1 1 2.82 2.82 2.81 2.81 0 0 1-2.82-2.82Z"/></svg>