<svg id="Layer_1" data-name="Layer 1" xmlns="http://www.w3.org/2000/svg" viewBox="0 0 633.66 409.82"><defs><style>.cls-11,.cls-12,.cls-2,.cls-8{fill:none}.cls-11,.cls-2,.cls-5,.cls-6,.cls-8{stroke:#263238}.cls-11,.cls-12,.cls-2,.cls-5,.cls-6,.cls-8{stroke-linecap:round;stroke-linejoin:round}.cls-3{fill:#8c8cf9}.cls-5,.cls-7{fill:#263238}.cls-13,.cls-6{fill:#fff}.cls-8{stroke-width:2px}.cls-11{stroke-width:3px}.cls-12{stroke:#8c8cf9}</style></defs><path d="M605.76 163.62S594.45 103.88 531 70.49s-140.84-24.6-173 12.3S328.43 184.71 294.52 183s-46.94-48.32-93.89-18.45-22.6 70.29-26.08 95.77-43.47-14.06-75.64-3.52-46.94 40.42-43.47 58-12.17 39.53-12.17 39.53H611s8.67-114.27-5.24-190.71Z" style="fill:#e9eaeb"/><path class="cls-2" d="M13.69 354.61h606.28"/><path class="cls-3" d="M116.58 259.43c2.55 1.11 8.77 1 8.78 1s-1.34-4.08-1.46-4.33c-1.36-2.85-5.68-7.57-9.2-7.1a4.21 4.21 0 0 0-3.37 5.26c.59 2.41 3.08 4.22 5.25 5.17Z"/><path class="cls-3" d="M118.73 277.46c2.64.39 8.2-1.23 8.64-1.36a75.3 75.3 0 0 0 3.37 9.33c.76 1.77 1.59 3.53 2.44 5.28-.51-.74-1-1.4-1-1.49-2.07-2.39-7.49-5.8-10.75-4.42a4.21 4.21 0 0 0-1.86 6c1.2 2.19 4.09 3.28 6.43 3.62s7.14-.94 8.4-1.29l1 2c1.61 3.2 3.23 6.39 4.72 9.57.53 1.12 1 2.24 1.49 3.36-.45-.66-.84-1.21-.9-1.29-2.08-2.39-7.49-5.8-10.75-4.42a4.2 4.2 0 0 0-1.86 6c1.2 2.19 4.09 3.28 6.43 3.62s6.68-.81 8.17-1.23c.46 1.17.92 2.33 1.31 3.48.25.79.55 1.53.76 2.34s.44 1.58.65 2.36c.37 1.51.75 3.07 1.07 4.56.23 1 .43 2 .63 3-.51-1.12-1.56-3.3-1.66-3.47-1.69-2.68-6.52-6.87-10-6a4.19 4.19 0 0 0-2.74 5.61c.86 2.35 3.55 3.86 5.81 4.55 2.49.76 8 .07 8.69 0 .33 1.64.64 3.25.9 4.77.6 3.35 1 6.36 1.38 8.91h2.33c-.41-2.64-.94-5.77-1.64-9.3-.33-1.67-.71-3.45-1.13-5.28a46.85 46.85 0 0 0 4.84-2.27c1.82 2 6.47 4.27 7.07 4.56-.63 1.56-1.26 3.06-1.88 4.48-1.28 3-2.51 5.58-3.59 7.82h2.5c.93-2.06 1.95-4.41 3-7 .65-1.57 1.31-3.27 2-5 .67.14 6.13 1.24 8.68.67 2.3-.52 5.1-1.83 6.13-4.11a4.19 4.19 0 0 0-2.32-5.8c-3.36-1.13-8.49 2.69-10.37 5.24-.11.15-1.13 1.91-1.76 3 .27-.72.54-1.41.8-2.15.54-1.47 1-2.94 1.57-4.53.23-.77.46-1.55.7-2.34s.42-1.64.63-2.46c.46-1.92.83-3.89 1.16-5.88 1.28.47 5.85 2.06 8.23 1.89s5.32-1 6.68-3.13a4.2 4.2 0 0 0-1.41-6.09c-3.15-1.62-8.8 1.38-11.05 3.61-.14.14-1.57 1.92-2.34 2.92.19-1.2.39-2.39.54-3.61.43-3.52.77-7.09 1.11-10.66.11-1.09.23-2.17.34-3.26.46.17 5.86 2.18 8.51 2 2.36-.16 5.32-1 6.69-3.13a4.19 4.19 0 0 0-1.41-6.08c-3.16-1.63-8.81 1.37-11.05 3.6-.17.17-2.23 2.74-2.72 3.42.26-2.4.53-4.78.9-7.12a74.75 74.75 0 0 1 2-9.37c.21.08 5.84 2.2 8.56 2 2.36-.16 5.32-1 6.68-3.13a4.2 4.2 0 0 0-1.41-6.09c-3.15-1.62-8.8 1.38-11.05 3.61-.17.18-2.38 2.94-2.75 3.47.06-.17.09-.37.15-.54a53.39 53.39 0 0 1 3.71-8.87c.8-1.58 1.66-3 2.53-4.44 1 .5 5.64 2.75 8.1 2.84s5.4-.44 7-2.37a4.2 4.2 0 0 0-.73-6.21c-3-2-8.9.4-11.38 2.37-.13.11-1.38 1.35-2.28 2.27.4-.63.81-1.28 1.2-1.88 1.49-2.23 3-4.19 4.32-5.91.77-1 1.49-1.83 2.16-2.63 1.25 0 6.27-.18 8.46-1.21s4.59-2.88 5.11-5.33a4.2 4.2 0 0 0-3.51-5.17c-3.53-.38-7.72 4.46-9 7.35-.12.25-1.41 4.36-1.34 4.36h.07c-.67.76-1.37 1.58-2.13 2.49-1.38 1.69-2.92 3.62-4.46 5.83a76.36 76.36 0 0 0-4.62 7.37 54 54 0 0 0-3.95 8.9s0 .07 0 .11v-4.17c-.41-3.14-3-9-6.53-9.62a4.2 4.2 0 0 0-4.84 3.95c-.21 2.5 1.6 5 3.37 6.57 2 1.78 7.51 3.5 7.95 3.64a74.8 74.8 0 0 0-2.33 9.63c-.34 1.9-.62 3.82-.88 5.75 0-.9 0-1.7-.05-1.81-.41-3.14-3-9-6.53-9.62a4.2 4.2 0 0 0-4.84 4c-.2 2.49 1.61 5 3.37 6.57s6.47 3.16 7.71 3.56c-.09.74-.19 1.48-.27 2.22-.43 3.56-.84 7.11-1.35 10.59-.17 1.22-.4 2.42-.61 3.62v-1.57c-.4-3.14-3-9-6.52-9.62a4.21 4.21 0 0 0-4.85 4c-.2 2.5 1.61 5 3.38 6.57s6 3 7.49 3.49c-.26 1.22-.52 2.44-.83 3.62-.22.79-.39 1.58-.66 2.36s-.5 1.57-.75 2.33c-.53 1.47-1.08 3-1.63 4.4-.38 1-.76 1.92-1.14 2.86.19-1.21.52-3.6.52-3.81a16.32 16.32 0 0 0-2.18-7.92 4.74 4.74 0 0 0-.06-.93 4.19 4.19 0 0 0-5.13-3.56c-3.43.91-5.61 6.93-5.77 10.09 0 .18.12 2.22.21 3.5-.17-.74-.33-1.47-.52-2.23-.36-1.52-.76-3-1.19-4.64-.23-.77-.47-1.55-.71-2.34s-.55-1.6-.82-2.4c-.68-1.86-1.46-3.7-2.28-5.54 1.32-.32 6-1.52 7.9-3s3.87-3.8 3.85-6.3a4.19 4.19 0 0 0-4.53-4.3c-3.53.38-6.59 6-7.23 9.1 0 .19-.25 2.47-.34 3.72-.5-1.1-1-2.2-1.54-3.3-1.58-3.18-3.27-6.34-4.95-9.5l-1.52-2.91c.47-.11 6.09-1.41 8.2-3 1.87-1.43 3.87-3.79 3.85-6.3a4.2 4.2 0 0 0-4.54-4.29c-3.52.38-6.58 6-7.22 9.1 0 .23-.35 3.51-.38 4.35-1.11-2.14-2.2-4.28-3.19-6.44a75.77 75.77 0 0 1-3.46-8.94c.22-.05 6.09-1.38 8.25-3 1.88-1.44 3.87-3.79 3.85-6.3a4.21 4.21 0 0 0-4.54-4.3c-3.52.39-6.58 6-7.22 9.11 0 .24-.37 3.77-.38 4.41 0-.18-.13-.36-.18-.53a54.34 54.34 0 0 1-1.8-9.44c-.2-1.76-.29-3.46-.34-5.11 1.12-.14 6.22-.82 8.33-2.09s4.26-3.35 4.52-5.84a4.2 4.2 0 0 0-4-4.77c-3.55 0-7.21 5.24-8.19 8.25 0 .17-.41 1.89-.65 3.15v-2.23c0-2.68.17-5.14.34-7.31.11-1.24.23-2.35.35-3.39 1-.71 5.13-3.6 6.39-5.67s2.24-4.94 1.32-7.27a4.19 4.19 0 0 0-5.78-2.37c-3.15 1.63-4 8-3.46 11.09 0 .27 1.24 4.41 1.29 4.38h.06c-.14 1-.27 2.07-.4 3.25-.21 2.17-.44 4.63-.5 7.32a74.12 74.12 0 0 0 .21 8.7 54.38 54.38 0 0 0 1.61 9.6v.11c-.55-.88-2.2-3.27-2.34-3.44-2.08-2.4-7.49-5.81-10.75-4.42a4.19 4.19 0 0 0-1.86 6c1.06 1.9 3.95 3.02 6.29 3.36Z"/><path class="cls-3" d="M179.56 260.8c.05 0 1.13-4.14 1.17-4.41.43-3.14-.57-9.46-3.76-11a4.19 4.19 0 0 0-5.71 2.53c-.86 2.35.23 5.24 1.51 7.22 1.51 2.33 6.78 5.65 6.79 5.66Z"/><path d="M564.22 305.6c1.52.67 5.24.58 5.24.58s-.8-2.43-.87-2.58c-.81-1.71-3.4-4.53-5.5-4.25a2.51 2.51 0 0 0-2 3.15c.33 1.5 1.83 2.5 3.13 3.1Z" style="fill:#f0ae00"/><path class="cls-3" d="M565.5 316.39c1.58.23 4.9-.74 5.17-.81a43.86 43.86 0 0 0 2 5.57c.46 1.06 1 2.11 1.46 3.16l-.62-.89c-1.24-1.43-4.48-3.47-6.43-2.64a2.51 2.51 0 0 0-1.11 3.57 5.24 5.24 0 0 0 3.85 2.16 16.61 16.61 0 0 0 5-.77l.59 1.2c1 1.92 1.93 3.83 2.83 5.73.31.67.6 1.34.88 2-.27-.4-.5-.73-.54-.77-1.24-1.44-4.47-3.48-6.43-2.65a2.52 2.52 0 0 0-1.11 3.57c.72 1.31 2.45 2 3.85 2.17a16.22 16.22 0 0 0 4.89-.74c.27.7.55 1.39.78 2.08.15.47.33.92.45 1.4s.27.95.4 1.41c.21.91.44 1.84.63 2.73.14.62.26 1.21.38 1.81-.31-.67-.93-2-1-2.08-1-1.6-3.9-4.11-6-3.58a2.51 2.51 0 0 0-1.64 3.35c.51 1.41 2.12 2.31 3.47 2.73s4.79 0 5.2 0a129.602 129.602 0 0 1 1.37 8.18h1.39c-.24-1.57-.56-3.45-1-5.55-.2-1-.43-2.07-.67-3.16a28.58 28.58 0 0 0 2.9-1.37 18.31 18.31 0 0 0 4.22 2.73c-.37.93-.75 1.83-1.12 2.68-.77 1.77-1.5 3.34-2.15 4.67H589c.55-1.23 1.16-2.63 1.8-4.18.39-.95.78-2 1.18-3 .4.08 3.66.74 5.19.4 1.37-.31 3.05-1.09 3.66-2.46a2.51 2.51 0 0 0-1.38-3.47c-2-.67-5.08 1.61-6.21 3.14-.06.09-.67 1.14-1 1.82l.48-1.29c.32-.88.62-1.76.94-2.71l.42-1.4c.15-.47.25-1 .38-1.47.27-1.15.49-2.33.69-3.52a16.36 16.36 0 0 0 4.92 1.14 5.25 5.25 0 0 0 4-1.88 2.51 2.51 0 0 0-.85-3.64c-1.88-1-5.26.82-6.6 2.16-.09.08-.94 1.15-1.4 1.75.11-.72.23-1.44.32-2.16.26-2.11.46-4.25.66-6.38l.21-1.95c.27.1 3.5 1.3 5.08 1.19 1.42-.1 3.19-.61 4-1.87a2.51 2.51 0 0 0-.84-3.64c-1.89-1-5.27.82-6.61 2.16-.1.1-1.33 1.64-1.62 2 .15-1.43.31-2.86.53-4.26a43.07 43.07 0 0 1 1.23-5.6c.12.05 3.49 1.32 5.11 1.2 1.41-.1 3.19-.61 4-1.87a2.51 2.51 0 0 0-.84-3.64c-1.89-1-5.27.82-6.61 2.16-.1.1-1.43 1.76-1.64 2.07 0-.1.05-.22.08-.32a32.17 32.17 0 0 1 2.22-5.3c.48-1 1-1.82 1.51-2.66a17.13 17.13 0 0 0 4.85 1.7 5.23 5.23 0 0 0 4.14-1.4 2.5 2.5 0 0 0-.44-3.71c-1.77-1.18-5.32.23-6.8 1.42-.08.06-.83.8-1.37 1.35.24-.37.48-.77.72-1.12a54.01 54.01 0 0 1 2.59-3.54c.46-.58.88-1.09 1.29-1.57a17.22 17.22 0 0 0 5.06-.72c1.28-.61 2.74-1.73 3.05-3.19a2.5 2.5 0 0 0-2.1-3.09c-2.11-.23-4.61 2.66-5.38 4.39-.07.15-.84 2.61-.8 2.61-.4.45-.82.94-1.27 1.49-.83 1-1.75 2.16-2.67 3.49a45.26 45.26 0 0 0-2.77 4.4 33.55 33.55 0 0 0-2.36 5.32s0 .05 0 .07v-2.49c-.25-1.88-1.82-5.37-3.91-5.75a2.51 2.51 0 0 0-2.89 2.36c-.12 1.49 1 3 2 3.93s4.5 2.09 4.76 2.17a45.7 45.7 0 0 0-1.4 5.76c-.2 1.14-.37 2.29-.52 3.44v-1.08c-.24-1.88-1.82-5.37-3.9-5.75a2.5 2.5 0 0 0-2.9 2.36c-.12 1.49 1 3 2 3.93a16.59 16.59 0 0 0 4.61 2.12c-.05.45-.11.89-.17 1.33-.25 2.13-.5 4.26-.8 6.34-.11.73-.24 1.44-.37 2.16v-.94c-.25-1.88-1.82-5.36-3.91-5.75a2.51 2.51 0 0 0-2.89 2.36c-.13 1.49 1 3 2 3.93a16.24 16.24 0 0 0 4.48 2.09c-.15.73-.31 1.46-.49 2.16-.14.48-.23.95-.4 1.42l-.45 1.39c-.32.88-.64 1.78-1 2.63-.23.59-.45 1.15-.68 1.71.11-.73.31-2.15.31-2.28a9.76 9.76 0 0 0-1.31-4.74 2.54 2.54 0 0 0 0-.55 2.5 2.5 0 0 0-3.07-2.13c-2.05.54-3.35 4.14-3.45 6 0 .11.07 1.33.13 2.1-.11-.45-.2-.88-.31-1.34-.22-.9-.46-1.8-.71-2.77-.14-.46-.29-.93-.43-1.4s-.33-1-.49-1.44c-.41-1.11-.87-2.21-1.37-3.31a16.6 16.6 0 0 0 4.73-1.77 5.25 5.25 0 0 0 2.3-3.77 2.5 2.5 0 0 0-2.71-2.57c-2.11.23-3.94 3.59-4.32 5.44 0 .12-.15 1.48-.2 2.23-.3-.66-.6-1.32-.93-2-.94-1.9-1.95-3.79-3-5.68-.3-.58-.6-1.16-.91-1.74.29-.07 3.64-.84 4.91-1.81a5.25 5.25 0 0 0 2.3-3.77 2.5 2.5 0 0 0-2.71-2.57c-2.11.23-3.94 3.59-4.32 5.44 0 .14-.21 2.1-.23 2.6-.66-1.27-1.31-2.56-1.9-3.84a43.6 43.6 0 0 1-2.07-5.35c.13 0 3.63-.83 4.93-1.82a5.25 5.25 0 0 0 2.3-3.77 2.51 2.51 0 0 0-2.71-2.57c-2.11.23-3.94 3.59-4.32 5.45 0 .14-.22 2.25-.23 2.63 0-.1-.08-.21-.11-.31a32 32 0 0 1-1.07-5.65c-.12-1-.18-2.07-.21-3 .67-.09 3.72-.49 5-1.26a5.24 5.24 0 0 0 2.71-3.49 2.51 2.51 0 0 0-2.42-2.85c-2.12 0-4.31 3.13-4.89 4.93 0 .1-.24 1.13-.39 1.89v-1.33c0-1.61.11-3.08.21-4.38.06-.74.13-1.4.2-2a16.68 16.68 0 0 0 3.83-3.39c.73-1.21 1.34-2.95.79-4.34a2.51 2.51 0 0 0-3.46-1.42c-1.88 1-2.38 4.76-2.07 6.63 0 .16.74 2.64.77 2.62-.08.6-.17 1.25-.24 2-.13 1.3-.26 2.77-.3 4.38a46.32 46.32 0 0 0 .12 5.2 32.65 32.65 0 0 0 1 5.74.14.14 0 0 0 0 .07c-.34-.52-1.32-2-1.41-2.06-1.24-1.43-4.47-3.47-6.43-2.64a2.51 2.51 0 0 0-1.11 3.56c.72 1.2 2.45 1.85 3.85 2.06Z"/><path class="cls-3" d="M601.88 306.42s.68-2.47.7-2.64c.26-1.87-.34-5.65-2.25-6.57a2.5 2.5 0 0 0-3.41 1.51c-.52 1.41.13 3.13.9 4.32.9 1.4 4.06 3.38 4.06 3.38Z"/><path class="cls-5" d="M385.51 309.57a256.72 256.72 0 0 1 30.17-2.47c15.6-.25 20.71.77 24.55 2s7.26 12 2.23 22.26-22.69 18.71-46.73 16.64-41.17-6.9-50.38-13.81-1-10.74 9.21-16.37 24.06-8.6 30.95-8.25Z"/><path class="cls-6" d="M365.56 333.19s35.8-19.69 48.33-23.27 26.85-4.35 33.5 0 5.11 18.41 2.05 23.78-27.88 16.62-41.69 20.71-67.77 3.84-82.6 5.12-50.64.51-55.75-2.3-2-5.89 5.37-7.68 32-1.79 43.47-5.11 38.88-6.91 47.32-11.25Z"/><path class="cls-5" d="M449.44 333.7c1.49-2.62 2.62-7.3 2.62-11.92-9.27 7.35-23.71 16.05-43.67 23.18-18.93 6.76-72.53 12.81-94.69 15.1 4.4-.09 8.38-.27 11.45-.53 14.83-1.28 68.79-1 82.6-5.12s38.62-15.34 41.69-20.71Z"/><path class="cls-5" d="M424.13 348.37c3.8-1.61 7.59-3.36 11.06-5.1.76-3.76 1.66-14.81-6.43-36.11a77.87 77.87 0 0 0-14.87 2.76s15.16 17.34 10.24 38.45Z"/><path class="cls-6" d="M330.55 341.64c-4.81 1-9.15 1.89-12.31 2.8-11.5 3.32-36.05 3.32-43.47 5.11s-10.49 4.86-5.37 7.68 40.92 3.58 55.75 2.3c1.75-.15 4.05-.28 6.76-.4-5.91-6.43-3.22-13.94-1.36-17.49Z"/><path class="cls-6" d="M307.25 301s-23.27 2.82-35 3.84-33 10.49-37.33 19.69S243.57 344.7 251 347s29.66 7.41 41.94 6.65 48.59-11.51 55-13.56 17.65-6.9 17.65-6.9-10.75 0-28.9-9.21-21-18.67-29.44-22.98Z"/><path class="cls-5" d="M257.29 308.27s18.35-1.91 26.76 4.21 13.76 24.85 13.76 24.85L336.66 324s-2.91-3.09-10.18-11.89-28.67-13.78-41.29-11.11-27.9 7.27-27.9 7.27Z"/><path class="cls-6" d="m346.07 340.67 1.84-.58c6.39-2 17.65-6.9 17.65-6.9s-8.25 0-22.51-6.2c2.03 3.42 4.06 8.41 3.02 13.68Z"/><path class="cls-5" d="M359.91 335.55a318.81 318.81 0 0 0-46.24 9.45c-22.11 6.25-48.77 4-61.69 2.34 8.24 2.41 29.18 7.08 41 6.35 12.27-.77 48.59-11.51 55-13.56 3.36-1.13 8.19-3.04 11.93-4.58Z"/><path class="cls-6" d="m384.13 226.64-5.25 51.69s2.49 12.44 4.15 17.42 3.31 13 2.48 13.82-1.38.28-7.18 1.93-12.72 11.61-21.56 15.5-16 1.94-24.33-1.38-23.77-23.49-27.09-24.05-13.26-2.21-17.41-3.59-9.12-7.19-9.12-7.19-.83 0-.83-3 .28-3.31.28-3.31a9.59 9.59 0 0 1-2.77-4.48c-.55-2.48 5.25-15.75 5.25-24.05s4.15-39.52 4.15-43.39 5.8-4.7 11.88-7.19 38.15-14.37 38.7-17.69 2.77-26.54 2.77-26.54 17.2 18.4 19.35 19.91a18.29 18.29 0 0 1 4.14 3.87l-1.93 9.08s8.29 6.08 13.82 9.4 13 6.35 13.27 8.56"/><path class="cls-2" d="M297.25 287.44a18.69 18.69 0 0 1 3.68 3.89m-22.93-3.6s7.94-5.51 15.88-2.26"/><path class="cls-6" d="M364.78 197.58c-2.83-2-5-3.55-5-3.55l1.93-9.12a18.29 18.29 0 0 0-4.11-3.91c-2.15-1.51-19.35-19.91-19.35-19.91s-2.21 23.22-2.77 26.54c-.18 1.08-3.68 3.06-8.53 5.32.85 5.34 3.88 14.23 14.61 17.62s19.02-6.38 23.22-12.99Z"/><path class="cls-7" d="m359.89 194.09-.08-.06 1.93-9.12a18.29 18.29 0 0 0-4.14-3.91c-1.22-.86-7.3-7.16-12.32-12.44l-1.28 6.09s0 17.35 15.89 19.44Z"/><path class="cls-5" d="M342.51 104.11s-.79-6.6-6.07-7.92-17.42-.53-21.65 7.39-1.05 14 .53 15a18.2 18.2 0 0 0 2.91 1.58l1.32-6.6s.52 5.81 4.22 7.13 11.35 0 11.35 0 6.6-4.69 7.39-16.58Zm48.81 23.58s9.4 6.08 9.4 12.16-11.61 8.29-11.61 8.29Z"/><path class="cls-6" d="M393.46 128.92s-1.06 12.67-2.11 19.8-5.54 12.93-5.81 17.69-10.82 16.36-16.1 20.32-13.2 2.64-17.16-.52a51.3 51.3 0 0 1-13.73-19c-3.16-8.18-.79-20.06 0-23.76s20.59-18.21 35.64-18.21 19.27 3.68 19.27 3.68Z"/><path class="cls-2" d="M376.83 158.49s1.06 9.5 1.06 10.29-2.38 3.17-6.34.79m-10.55 0s4.22 5.28 11.09 5"/><path class="cls-8" d="M375.25 150a32.73 32.73 0 0 0-19.8-3.7s-3.17 0-1.32 2.38c0 0-.79 7.92 1.05 10.3s6.08 4.22 10.3 4.22 8.45-4.98 9.77-13.2Z"/><path style="stroke-width:2px;fill:#fff;stroke-linecap:round;stroke-linejoin:round;stroke:#263238" d="m353.86 146.61-17.15-1.06"/><path class="cls-8" d="m375.25 150 4.48 1.32s-1.84 9.77-.79 12.41h0a5.81 5.81 0 0 0 3.95 3.46 21 21 0 0 0 4.24.76c2.11 0 6.59-4.22 7.65-11.61 0 0 1.32-.53.79-1.32s-6.91-4.49-15.62-3.7"/><path class="cls-8" d="M375 152.42s3.37.22 4.37 1.49"/><path class="cls-7" d="M365.87 155.43c-.31 1.73-1.16 3-1.92 2.89s-1.11-1.64-.8-3.37 1.16-3 1.91-2.89 1.11 1.64.81 3.37Z"/><ellipse class="cls-7" cx="383.92" cy="159.74" rx="2.85" ry="1.24" transform="rotate(-74.48 383.916 159.734)"/><path class="cls-8" d="M360.36 149.25S367 147 370 150.63m12.2 3.59s3-2.76 5.53 1.11"/><path class="cls-5" d="M347.79 144s14.26-7.66 26.4-10 21.38-1.32 23.49-8.45-12.14-19-26.92-23.23-32.47.26-39.6 10.82-4.75 23.23-2.64 28 3.7 8.45 7.66 9 11.61-6.14 11.61-6.14Z"/><path d="M337.47 135.59a15.47 15.47 0 0 0-3.84 3.19m53.5-21.17s3.84 2.31-7.32 6.93c-8.1 3.35-24.52 4.27-36 8.2m28.49-17.83a10.62 10.62 0 0 0 2.12-3.46m-43.49 22.71s-3.46-5 8.47-8.47c8.61-2.5 21-3.39 28.71-7.6" style="stroke:#fff;stroke-linecap:round;stroke-linejoin:round;fill:none"/><path class="cls-6" d="M340.4 154s-2.09-10.3-6.59-10.3-5.09 4.76-3.29 10.56 4.79 7.66 7.49 5.81"/><path class="cls-2" d="M305.35 301.55s1.11-1.38 1.11-5.8-3-19.07-4.42-29.3-2.77-29.85-2.77-38.15m33.94 41.3a27.83 27.83 0 0 0 2.27 3.21m-17.69-54.18s5 30.55 13.44 47.41m3.91-21.41c1.12 2.11 2.25 4.08 3.38 5.79m-17.41-40.36a286.41 286.41 0 0 0 12.11 30.75"/><path class="cls-6" d="M261.68 289.67s3 2.49 9.12 2.49 11.34-3.05 19.07-1.11 7.74 9.67 6.91 11.89-8.29 3.59-15.2 2.76-21-2.21-21-2.21 2.21-8.02 1.1-13.82Z"/><path class="cls-6" d="M256 282.64a8.09 8.09 0 0 0 4.16 4.8c3.52 1.92 4.8 7 4.8 9.91a13.14 13.14 0 0 1-.64 4.48s-1 3.84-4.16 4.48-5.12 2.56-8.95-1.28S242 289 242 289l.64-1.92a14.8 14.8 0 0 0 5.76-1.28c2.53-1.24 7.6-3.16 7.6-3.16Z"/><path class="cls-11" d="m238.13 269.53 22.07 36.78"/><path class="cls-6" d="M244.85 306a10.45 10.45 0 0 0 7 2.56c4.47 0 8.95-2.88 6.71-3.84s-3.84-1.92-5.44-1.28-8.27 2.56-8.27 2.56Z"/><path class="cls-6" d="M241.65 301.19s1.92 5.44 3.52 6.08 8.31-1 10.23-2.24-1.28-3.52-4.15-3.52-9.6-.32-9.6-.32Z"/><path class="cls-6" d="M240.37 292.88s-1.28 6.71 1.28 8.31 12.47 2.24 13.43.32-2.56-2.88-6.07-4.48-8.64-4.15-8.64-4.15Zm9.92-9.28s.32 12.48 1.6 13.75 4.15 1.6 4.79.64 1.28-11.83-.64-15.35-5.75.96-5.75.96Z"/><path class="cls-6" d="M242.61 287.12s-4.16-1-4.16 3.2 5.76 6.71 8.32 7 5.44-.64 3.2-2.55-5.44-6.05-7.36-7.65Z"/><path class="cls-5" d="m274 307.36 17.9-2.56s-2.3-3.32-8.18-3.32-9.46 2.81-10.23 3.83.51 2.05.51 2.05Z"/><path class="cls-6" d="m310.06 328.58 28.64-10s-6.9-14.58-19.94-19.69-32.39-3.8-40.58-.73l3 3.29s5.89.25 12.28 7.67 12.79 19.18 12.79 19.18Z"/><path class="cls-12" d="M292.19 299.57s11.37-1.62 23.29 23.83m-17.68-24.95s11.37-1.62 23.28 23.83"/><path class="cls-12" d="M302.5 297.56s11.38-1.63 23.29 23.82"/><path class="cls-6" d="M233.85 325.26s12.79-18.92 36.57-17.39l3.58-.51s2.3-5.37 8.95-4.09 23.79 27.62 23.79 27.62l3.32-2.31s-9.05-15.33-15.95-24-15.93-8.4-18.82-5.21a44.76 44.76 0 0 0-4.19 6.35s-2.66-4-10.53-2.21c-9.66 2.21-15 6.51-17.74 9.48-4 4.32-12.06 10.19-11.28 9.73Z"/><path class="cls-6" d="m306.74 330.89 30.43-10.49 1.53-1.79-28.64 9.97-3.32 2.31zM381.79 208s11 3.79 12.64 9.59 9.88 37.54 12.09 42.23 7.19 7.47 7.19 11.06.27 6.36.27 6.36 5.81.28 6.36 5S422 293 422 293l22.12 34.22s13.19 1.06 16.23.79 12.08.3 15.38 2c1.28.67 3.83 2.87 5.82 9.9 1 3.5 3.2 10.27 1.81 10s-3.08-4.13-3.63-5a55.56 55.56 0 0 1-2.17-5.55s1.11 8 1.38 9.68a6.14 6.14 0 0 1-.55 3.31h-.12a6.72 6.72 0 0 1-4.27.26l-1.14-.31h0a4.56 4.56 0 0 1-3.47.37l-1.23-.37s-1.79-5.67-3.45-7.89-6.87-4.61-6.87-4.61 5.62 6.42 5.35 10.57c-.12 1.68.27 3-1.11 2.21s-3-5-6.08-6.36-10.23-3.31-13-5-7.19-7.74-7.19-7.74L399.61 301s-3.59-3.59-4.15-5.53l-.55-1.93s-5-3-6.36-4.7-1.93-5.25-1.93-5.25l-7.46-8.59 5-47.27"/><path class="cls-6" d="m381.31 238.7-2.15 36.3 7.46 8.57s.55 3.59 1.93 5.25 6.36 4.7 6.36 4.7l.55 1.93c.56 1.94 4.15 5.53 4.15 5.53l5.42 4.88c2.2-4.29 7.44-12 16.9-13.28-.25-1.39-1.12-6.39-1.59-10.4-.55-4.69-6.36-5-6.36-5s-.27-2.77-.27-6.36-5-6.36-7.19-11.06-10.43-36.42-12.09-42.23-12.64-9.53-12.64-9.53"/><path class="cls-7" d="m380.88 249.68 3.64 31.07-5.36-5.73 1.72-25.34z"/><path class="cls-2" d="M406.55 282.1a28.82 28.82 0 0 1 2.46-1.55m-11.33 11.61a25.7 25.7 0 0 1 6.12-7.87m-.1-7.1a20.74 20.74 0 0 1 3.65-.24m-17.14 6.91a28.87 28.87 0 0 1 9.18-5.54m59.93 63.59s-3-4.15-7.19-4.42m8.57-4.7s3.32.83 7.46 6.08 5.25 13 5.25 13m-4.8-20.19s6.19 5 7.29 9.68 2.49 11.05 2.49 11.05m-.83-12.99a27.88 27.88 0 0 0-3.87-8.84"/><path class="cls-6" d="M561.31 350.47h-76.29l21.01-69.66h76.29l-21.01 69.66z"/><path class="cls-5" d="m561.31 350.47 17.8-59c-22.53 2.78-35.78 21.34-56.62 41.69-13.11 12.81-22.22 16.49-27.56 17.33Z"/><ellipse class="cls-6" cx="536.71" cy="312.32" rx="6.04" ry="5.8"/><path class="cls-6" d="M419.51 350.19h142.63v4.42H419.51z"/><path class="cls-5" d="M489.17 350.19h72.97v4.42h-72.97z"/><path class="cls-6" d="M233.71 338.29h-57.17a9.17 9.17 0 0 0-9.17 9.17v1a9.17 9.17 0 0 0 9.17 9.17h57.17a20 20 0 0 1-3.06-9.8 18.57 18.57 0 0 1 3.06-9.54Z"/><path class="cls-6" d="M206.57 338.29H149.4a9.17 9.17 0 0 0-9.17 9.17v1a9.17 9.17 0 0 0 9.17 9.17h57.17a20 20 0 0 1-3.06-9.8 18.57 18.57 0 0 1 3.06-9.54Z"/><path class="cls-6" d="M140.23 347.46v1a9.17 9.17 0 0 0 5.3 8.31l1.26.05V339.7l-.74-.77a9.16 9.16 0 0 0-5.82 8.53Z"/><path class="cls-11" d="M233.71 338.29H149.4a9.17 9.17 0 0 0-9.17 9.17v1a9.17 9.17 0 0 0 9.17 9.17h84.31"/><path class="cls-2" d="M147.08 342.56h27.96m4 2.57h4.28m-30.82 0h22.83m-28.25 5.7h14.27m28.53 3.14h3.14m-23.11 0h17.4m-34.81 0h12.27"/><path class="cls-6" d="M177.1 338.29H97a9.18 9.18 0 0 0-9.17 9.17v1a9.18 9.18 0 0 0 9.17 9.18h80.1a20.06 20.06 0 0 1-3-9.8 18.61 18.61 0 0 1 3-9.55Z"/><path class="cls-2" d="M128.4 341.33v13.85m.43-11.68h22.94m-22.94 3.46h31.59m-21.85 3.89h8.22m10.39 2.6h-24.67"/><path class="cls-5" d="M124.41 348.47v-1a9.18 9.18 0 0 1 9.18-9.17H97a9.18 9.18 0 0 0-9.17 9.17v1a9.18 9.18 0 0 0 9.17 9.17h36.57a9.18 9.18 0 0 1-9.16-9.17Z"/><path class="cls-11" d="M172.89 338.29H97a9.18 9.18 0 0 0-9.17 9.17v1a9.18 9.18 0 0 0 9.17 9.18h75.87"/><path class="cls-11" d="M178.81 338.29h-45a9.18 9.18 0 0 0-9.17 9.17v1a9.18 9.18 0 0 0 9.17 9.17h45"/><path class="cls-6" d="M224.62 319.24h-57.17a9.17 9.17 0 0 0-9.17 9.17v1a9.16 9.16 0 0 0 9.17 9.17h57.17a20 20 0 0 1-3.06-9.8 18.57 18.57 0 0 1 3.06-9.54Z"/><path class="cls-6" d="M197.48 319.24h-57.17a9.17 9.17 0 0 0-9.17 9.17v1a9.16 9.16 0 0 0 9.17 9.17h57.17a20 20 0 0 1-3.06-9.8 18.57 18.57 0 0 1 3.06-9.54Z"/><path class="cls-6" d="M131.14 328.41v1a9.17 9.17 0 0 0 5.3 8.31h1.26v-17.06l-.74-.78a9.16 9.16 0 0 0-5.82 8.53Z"/><path class="cls-11" d="M224.62 319.24h-84.31a9.17 9.17 0 0 0-9.17 9.17v1a9.16 9.16 0 0 0 9.17 9.17h84.31"/><path class="cls-2" d="M137.99 323.51h27.96m4 2.57h4.28m-30.82 0h22.83m-28.25 5.71h14.26m28.54 3.14h3.14m-23.11 0h17.4m-34.81 0h12.27m294.85-67.01H431a1.5 1.5 0 0 1-1.5-1.5v-5.68a1.5 1.5 0 0 1 1.5-1.49h26.19a1.5 1.5 0 0 1 1.5 1.49V263"/><path class="cls-2" d="M450.34 277.16V265a2 2 0 0 1 2-1.95h25.94a2 2 0 0 1 1.95 1.95v14.55m-.05 11.99v15.15a2 2 0 0 1-1.95 1.95h-25.94a2 2 0 0 1-2-1.95v-26.61m1.9-9.92h26.13m-13.65 7.89h13.65m-26.13 0h10.35m-10.35 7.88h26.13m-4.68 7.88h4.68m-26.13 0h19.09m-19.09 7.88h26.13m-43.56-38.3H449M247.79 113.55h-24.13a1.85 1.85 0 0 1-1.85-1.85v-7a1.85 1.85 0 0 1 1.85-1.85H256a1.85 1.85 0 0 1 1.85 1.85v2.75"/><path class="cls-2" d="M247.56 125v-15a2.41 2.41 0 0 1 2.4-2.4h32a2.4 2.4 0 0 1 2.4 2.4v18m.03 14.7v18.71a2.39 2.39 0 0 1-2.4 2.4H250a2.4 2.4 0 0 1-2.4-2.4v-32.86m2.24-12.23h32.26m-16.85 9.73h16.85m-32.26 0h12.78m-12.78 9.73h32.26m-5.78 9.73h5.78m-32.26 0h23.57m-23.57 9.73h32.26m-53.77-47.29h17.58"/><path class="cls-7" d="M289.19 143.67a5.34 5.34 0 0 1-3.71-1.5l-3.48-3.41a1.24 1.24 0 0 1-.17-1.54 1.22 1.22 0 0 1 .89-.58 1.25 1.25 0 0 1 1 .33l.68.64-3.4-7.12a1.44 1.44 0 0 1 0-1.15 1.47 1.47 0 0 1 2.7-.11l1.3 2.52a1.55 1.55 0 0 1 .93-.54 2 2 0 0 1 1.36.4 1.47 1.47 0 0 1 1-.58 1.88 1.88 0 0 1 1.15.27 1 1 0 0 1 1-.6 1.41 1.41 0 0 1 1.13.73l2.44 4.49a5.34 5.34 0 0 1-4.75 7.75Zm-6.27-6.48h-.09a.72.72 0 0 0-.49.32.68.68 0 0 0 .09.85l3.44 3.41a4.77 4.77 0 0 0 7.57-5.59L291 131.7a.85.85 0 0 0-.67-.45c-.22 0-.47 0-.55.55l-.08.51-.38-.35a1.52 1.52 0 0 0-1.05-.38 1.1 1.1 0 0 0-.75.57l-.18.29-.25-.23a1.62 1.62 0 0 0-1.14-.45 1.18 1.18 0 0 0-.81.67l-.27.46-1.73-3.42A.92.92 0 0 0 282 129a.94.94 0 0 0-.5.52 1 1 0 0 0 0 .71l4.7 9.75-2.8-2.63a.69.69 0 0 0-.48-.16Z"/><path class="cls-7" d="M286.18 135.58a.27.27 0 0 1-.25-.17l-1.28-3a.28.28 0 0 1 .15-.36.27.27 0 0 1 .36.14l1.28 3a.28.28 0 0 1-.15.36.2.2 0 0 1-.11.03Zm2.23-.66a.3.3 0 0 1-.26-.17l-1.15-2.64a.28.28 0 0 1 .15-.36.27.27 0 0 1 .36.15l1.11 2.63a.28.28 0 0 1-.15.37Zm2.18-.58a.28.28 0 0 1-.25-.16l-1.07-2.31a.26.26 0 0 1 .13-.36.27.27 0 0 1 .37.13l1.07 2.31a.27.27 0 0 1-.13.37Z"/><path class="cls-2" transform="rotate(-45 268.061 99.565)" d="M265.94 97.44h4.24v4.24h-4.24z"/><path class="cls-2" d="M242.18 124a2.22 2.22 0 1 0-2.22 2.23 2.22 2.22 0 0 0 2.22-2.23Z"/><path class="cls-2" transform="rotate(-45 544.56 60.016)" d="M538.47 53.93h12.17V66.1h-12.17z"/><path class="cls-2" transform="rotate(-45 247.771 296.42)" d="M241.69 290.33h12.17v12.17h-12.17z"/><path class="cls-2" transform="rotate(-45 210.279 279.66)" d="M204.19 273.57h12.17v12.17h-12.17z"/><path class="cls-2" transform="rotate(-45 528.556 71.885)" d="M525.24 68.56h6.64v6.64h-6.64z"/><circle class="cls-2" cx="530.12" cy="261.92" r="3.48"/><circle class="cls-2" cx="241.6" cy="231.78" r="3.48"/><circle class="cls-2" cx="395.03" cy="66.97" r="3.48"/><path class="cls-3" d="M412.76 98.47h168.66v152.14H412.76z"/><path class="cls-6" d="M422.28 90.65h169.99v152.8H422.28z"/><path class="cls-5" d="M467.06 90.65h125.22v20.73H467.06z"/><path class="cls-6" d="M422.28 90.65h169.99v10.78H422.28z"/><path class="cls-5" d="M429.74 126.31H533.4v66.34H429.74z"/><path class="cls-6" d="M429.74 185.26H533.4v7.39H429.74z"/><path class="cls-6" d="M429.74 187.87H533.4v2.16H429.74z"/><circle class="cls-3" cx="479.77" cy="159.15" r="15.26" transform="rotate(-58.49 479.723 159.154)"/><path class="cls-13" d="m488.61 159.48-13.28-7.67v15.34l13.28-7.67z"/><path class="cls-5" d="M542.7 126.31h40.93v26.2H542.7z"/><path class="cls-6" d="M542.7 149.58h40.93v2.92H542.7z"/><path class="cls-6" d="M542.7 150.62h40.93v.85H542.7z"/><circle class="cls-3" cx="562.46" cy="139.28" r="6.03"/><path class="cls-13" d="m565.95 139.41-5.24-3.03v6.06l5.24-3.03z"/><path class="cls-5" d="M542.7 155.09h40.93v26.2H542.7z"/><path class="cls-6" d="M542.7 178.37h40.93v2.92H542.7z"/><path class="cls-6" d="M542.7 179.4h40.93v.85H542.7z"/><path class="cls-3" d="M568.48 168.06a6 6 0 1 0-6 6 6 6 0 0 0 6-6Z"/><path class="cls-13" d="m565.95 168.19-5.24-3.03v6.06l5.24-3.03z"/><path class="cls-5" d="M542.7 183.88h40.93v26.2H542.7z"/><path class="cls-6" d="M542.7 207.16h40.93v2.92H542.7z"/><path class="cls-6" d="M542.7 208.19h40.93v.85H542.7z"/><path class="cls-3" d="M568.48 196.85a6 6 0 1 0-6 6 6 6 0 0 0 6-6Z"/><path class="cls-13" d="m565.95 196.98-5.24-3.03v6.06l5.24-3.03z"/><path class="cls-5" d="M542.7 212.66h40.93v26.2H542.7z"/><path class="cls-6" d="M542.7 235.94h40.93v2.92H542.7z"/><path class="cls-6" d="M542.7 236.97h40.93v.85H542.7z"/><path class="cls-3" d="M568.48 225.63a6 6 0 1 0-6 6 6 6 0 0 0 6-6Z"/><path class="cls-13" d="m565.95 225.76-5.24-3.02v6.05l5.24-3.03z"/><path class="cls-2" d="M430.55 199.65h79.37m-79.37 18.75h47.15m-47.15 7.42h47.15m-47.15 7.41h47.15m9.05-14.83h47.16m-47.16 7.42h47.16m-47.16 7.41h47.16m-103.36-27.47h100.31"/><path style="fill:#a2a7a9" d="M586.08 126.35h4.09v113.48h-4.09z"/><path class="cls-7" d="M586.08 153.88h4.09v14.51h-4.09z"/><path class="cls-2" d="M548.38 243.66v37.38"/><path class="cls-5" d="m489.17 350.19.28.28h.65a5.36 5.36 0 0 1-.93-.28Z"/></svg>