<svg id="OBJECTS" xmlns="http://www.w3.org/2000/svg" xmlns:xlink="http://www.w3.org/1999/xlink" viewBox="0 0 519 321.3"><defs><linearGradient id="linear-gradient" x1="126.8" y1="-1257.99" x2="127.41" y2="-1252.24" gradientTransform="matrix(1 0 0 -1 0 -1086.52)" gradientUnits="userSpaceOnUse"><stop offset="0" stop-color="#ffc5ae"/><stop offset="1" stop-color="#ea8b6a"/></linearGradient><linearGradient id="linear-gradient-2" x1="134.45" y1="-1255.96" x2="129.14" y2="-1256.34" xlink:href="#linear-gradient"/><linearGradient id="linear-gradient-3" x1="321.67" y1="-1213.68" x2="321.89" y2="-1208.62" xlink:href="#linear-gradient"/><linearGradient id="linear-gradient-4" x1="322.61" y1="-1215.83" x2="322.45" y2="-1212.23" xlink:href="#linear-gradient"/><linearGradient id="linear-gradient-5" x1="333.87" y1="-1211.73" x2="336.96" y2="-1228.06" xlink:href="#linear-gradient"/><linearGradient id="linear-gradient-6" x1="245.98" y1="-1187.65" x2="247.92" y2="-1191.77" xlink:href="#linear-gradient"/><linearGradient id="linear-gradient-7" x1="243.05" y1="-1187.53" x2="247.86" y2="-1189.54" xlink:href="#linear-gradient"/><linearGradient id="linear-gradient-8" x1="245.73" y1="-1186.04" x2="248.83" y2="-1192.62" xlink:href="#linear-gradient"/><linearGradient id="linear-gradient-9" x1="289.82" y1="-1192.46" x2="281.02" y2="-1202.91" xlink:href="#linear-gradient"/><linearGradient id="linear-gradient-10" x1="426.34" y1="-1147.97" x2="277.29" y2="-1182.47" gradientTransform="matrix(1 0 0 -1 0 -1086.52)" gradientUnits="userSpaceOnUse"><stop offset="0" stop-color="#fff" stop-opacity="0"/><stop offset="1" stop-color="#98c4f9"/></linearGradient><linearGradient id="linear-gradient-11" x1="-2107.51" y1="-459.54" x2="-2256.58" y2="-494.04" gradientTransform="scale(-1 1) rotate(-56 -612.137 -2057.174)" xlink:href="#linear-gradient-10"/><linearGradient id="linear-gradient-12" x1="441.86" y1="-1298.98" x2="227.9" y2="-1348.5" xlink:href="#linear-gradient-10"/><linearGradient id="linear-gradient-13" x1="-1702.59" y1="-1310.88" x2="-1916.55" y2="-1360.4" gradientTransform="rotate(180 -812.725 -543.26)" xlink:href="#linear-gradient-10"/><linearGradient id="linear-gradient-14" x1="127.39" y1="-1277.7" x2="132.26" y2="-1260.23" xlink:href="#linear-gradient"/><linearGradient id="linear-gradient-15" x1="311.54" y1="-1242.96" x2="315.52" y2="-1217.08" xlink:href="#linear-gradient"/><linearGradient id="linear-gradient-16" x1="265.28" y1="-1208.45" x2="264.34" y2="-1197.5" xlink:href="#linear-gradient"/><linearGradient id="linear-gradient-17" x1="263.67" y1="-1208.53" x2="264.11" y2="-1205.71" xlink:href="#linear-gradient"/><style>.cls-1{fill:#98c4f9}.cls-2{opacity:.25;isolation:isolate}.cls-11{fill:none;stroke-miterlimit:10}.cls-7{fill:#4fc1ea}.cls-10{fill:#12006d}.cls-11{stroke:#092533;stroke-width:.92px}.cls-17{fill:#8c8cf9}.cls-19{fill:#6767d3}.cls-24{fill:#039be5}</style></defs><path class="cls-1" d="m378.7 218.7-6.2-18.2-10.4 3.5-21.2-62.1-23.6 8 .1.2-7.6 32.8-10.8 46.9 6.3 13.9 22.3-7.6 8.1-2.8 9-3.1 7.4 21.6 23.6-8-7.4-21.6Zm-42.9-5.7-5.4 1.8-10.3 3.5 7-34.7.7-2.9 10.7 31.4Z"/><path class="cls-2" d="m368.3 222.2 7.4 21.7-15-6.5-24.1-86.5-8.8 29.8-4.1 16.9-13.9-14.6 7.6-32.8-.1-.2 23.6-8.1 21.2 62.1 10.4-3.5 6.2 18.2-10.4 3.5zm-32.6 11.1-8.1 2.8 1.2-16.7v-3l1.7-1.5 1.1-1 4.3-.8c-.1-.1-.4 12.2-.2 20.2Z"/><path d="M141.5 190.7v.4s-.3 6.8-5.4 6.5c-3.2-.2-7.1-1.7-9.7-2.8-1.6-.7-2.8-1.2-2.9-1.2-.3.1 3.9 17.5 3.8 18.5a.6.6 0 0 1-.1.4c-.3.9-1.3 2.1-2 2.2-.1 0-.2-.1-.4-.3-1.9-2.4-9.4-16.1-9.6-20.5-.2-4.9 2.3-7.9 5.6-8.4 2.5-.4 9.8.6 13.4 1.1 1.3.2 2.1.3 2.1.3Z" style="fill:#092533"/><path class="cls-2" d="M127.3 212.1a.6.6 0 0 1-.1.4c-.3.9-1.3 2.1-2 2.2-.1 0-.2-.1-.4-.3 2.7-3.8-4.3-22.2-2.8-22.2.8 0 2.4 1.3 4.3 2.6-1.6-.7-2.8-1.2-2.9-1.2-.3 0 3.9 17.5 3.9 18.5Zm14.2-21.4v.4s-.3 6.8-5.4 6.5c1-.8 1.2-2.2 1.1-3.9-.1-2-1.9-5.4-3-7.1 1.3.2 2.1.3 2.1.3Z"/><path d="M130.4 168.9a5.56 5.56 0 0 1-.9 1.7 2.42 2.42 0 0 1-1.9 1c-1.6 0-3.1-2.1-3.8-3.2 2.2-.2 3.9-2.3 4.5-2.1.4.1 1 1 1.5 1.7.3.4.5.8.6.9Z" style="fill:url(#linear-gradient)"/><path d="M132.6 169.1s-1.2 2.7-1.6 2.1c-.2-.3-.9-.5-1.5-.7a5.56 5.56 0 0 0 .9-1.7 1.33 1.33 0 0 1 .3-.7 4 4 0 0 0 1.9 1Z" style="fill:url(#linear-gradient-2)"/><path d="M136.1 193.1s-11.9-2.2-14.3-1.2 4.3 20 4.3 20" style="stroke-width:.46px;stroke:#fff;fill:none;stroke-miterlimit:10;opacity:.25;isolation:isolate"/><path class="cls-7" d="M336.6 136.5a19.45 19.45 0 0 1-7.9-1.1c0 .5.1 1.4.2 2.3a37 37 0 0 1 .2 4.6c0 .9-.1 1.6-.4 1.8-.5.3-1.8.1-3.3-.1a24.6 24.6 0 0 1-2.9-.7l-.9-.3a36.93 36.93 0 0 0-4.7-1c-.2-.1-.3-.1-.3-.2 0-.3.7-1 1.1-1.7 0-.1.1-.2.2-.4a28.11 28.11 0 0 0 1-3.1c.1-.5.2-.9.1-.8-.4.2-2.5 4.2-2.7 4.2a2.93 2.93 0 0 1-1-.6c-.9-.6-1.9-1.4-2-1.8v-.1c.5-.5 4.3-6.9 5.7-8.3a7.57 7.57 0 0 1 2-1.3 3.37 3.37 0 0 1 1.2-.3 10.68 10.68 0 0 1 2.5.3 24.52 24.52 0 0 1 6.7 3.3c1.9 1.1 3.1.8 3.6 1.1.3.2 2 4 1.6 4.2Z"/><path class="cls-2" d="M324.6 127.8c-.1 1.1-.5 2.2-1.6 2.1a2.29 2.29 0 0 1-2.1-2.1 3.37 3.37 0 0 1 1.2-.3 10.68 10.68 0 0 1 2.5.3Z"/><path class="cls-7" d="M323.9 125.5a5.48 5.48 0 0 0-.8-1.7c-.4.7-2.2 1.1-3.5 1.2h-1.5a4.13 4.13 0 0 1 3.6-5.4 2.45 2.45 0 0 1 2.7 3c1.4 1.4-.5 2.9-.5 2.9Z"/><path d="M323.9 125.5c-.1.2-.2.7-.4 1.1a1.47 1.47 0 0 1-2 .8h-.1a3 3 0 0 1-1.6-1.8c-.1-.2-.1-.4-.2-.5 1.3-.1 3.1-.5 3.5-1.2a.1.1 0 0 0 .1.1 5.6 5.6 0 0 1 .7 1.5Z" style="fill:url(#linear-gradient-3)"/><path d="M323.7 128.3c-.2 1-1.9 1-2 .3a9.44 9.44 0 0 0-.3-.9 1 1 0 0 1-.1-.4h.1a1.48 1.48 0 0 0 2-.8c-.1.2.2.5.3 1.1a.85.85 0 0 1 0 .7Z" style="fill:url(#linear-gradient-4)"/><path class="cls-10" d="M315 168.9c-.2 1.3-6.7 6.2-6.6 5.4s3.5-8.5 3.5-8.5l.4.4c.3.1.8-.7.9-1.1.8 1.1 1.9 2.6 1.8 3.8Zm4.5 22.8c-1.5-3.3 0-10.4 0-10.4.5.7 2.4-.1 2.4-.4v-.7s.2 3.4.5 6.2c.4 3-1.3 8.6-2.9 5.3Z"/><path class="cls-2" d="M323.1 123.9c-.7 1.5-2.6 1.6-3.4 1.6-.1-.2-.1-.4-.2-.5 1.4-.1 3.1-.5 3.6-1.1Zm.6 3.8a.76.76 0 0 1-.5.2 3.63 3.63 0 0 1-1.9-.1 1 1 0 0 1-.1-.4h.1a1.48 1.48 0 0 0 2-.8c0 .2.3.5.4 1.1Z"/><path class="cls-11" d="M332.6 13.2v137.7"/><path d="M338.4 134.5v.1c-.4 1.7-1.7 1.8-2 1.7s-.9-.9-1.5-3.6v-.2s-1.3-3.2-1.8-4.8c-1.5-.9-1.7-.5-1.9-1.5a2.9 2.9 0 0 1 .8-2.5c.4-.2 2 1.4 2.2 1.9.2.8 4.5 7.1 4.2 8.9Z" style="fill:url(#linear-gradient-5)"/><path class="cls-2" d="M338.3 134.6c-.4 1.7-1.7 1.8-2 1.7s-.9-.9-1.5-3.6a5.6 5.6 0 0 0 1.6 2.1 1.29 1.29 0 0 0 1.9-.2Z"/><path class="cls-7" d="m289.5 221.7-3.6-18.2c-2.6-13.4-7.7-23.2-15.2-29.4s-16.8-8.2-27.9-6-18.9 7.5-23.5 16-5.6 19.5-3 33l3.6 18.2c2.6 13.4 7.7 23.2 15.2 29.3a29.69 29.69 0 0 0 10.5 5.6 36.17 36.17 0 0 0 17.4.4 40.39 40.39 0 0 0 9.1-2.8 29.82 29.82 0 0 0 14.4-13.2c4.6-8.4 5.6-19.4 3-32.9Zm-22.2 24.4a9.36 9.36 0 0 1-7.7 6.7c-4.1.8-7.4-.3-9.9-3.4a28.37 28.37 0 0 1-4.5-9.4 50.34 50.34 0 0 1-1.5-6.4l-5-25.5c-1.2-6.7-1.2-11.9 0-15.5a9.27 9.27 0 0 1 7.7-6.6 9.52 9.52 0 0 1 7.8 1.5 19.36 19.36 0 0 1 2.1 2c2.6 3.2 4.6 8.3 6 15.5l4.8 24.7c1.4 7.2 1.4 12.7.2 16.4Z"/><path class="cls-11" d="M246.2 13.2v161"/><path class="cls-10" d="M284.5 111.9s-2.3-6.4-2.2-6.9 2.8-1.4 3-1.2 1.8 5.3 1.5 5.6a30.86 30.86 0 0 1-2.3 2.5Z"/><path d="M245.4 103.5a4.54 4.54 0 0 1 2.1 2.1c.6 1.5.4-4 .4-4l-.7-.6Z" style="fill:url(#linear-gradient-6)"/><path d="M244.7 103.5s1.8 1.3 2.1 1.4.9-3.4.6-4a1.47 1.47 0 0 0-1.9-.7c-.6.3-1.1 3.1-.8 3.3Z" style="fill:url(#linear-gradient-7)"/><path d="M249.4 103.9s-1.4-3.3-2.1-3.9-1.8.2-1.9.5 1.4.5 1.9 1-.8 4.2.4 5.5c1.4 1.3 1.7-3.1 1.7-3.1Z" style="fill:url(#linear-gradient-8)"/><path d="M282.7 112.7s1.3-.7 1.5-1.1-.2-1.7.6-3a1.58 1.58 0 0 1 2.9.6c.4 1.5-.7 3.4-1.2 4a46.67 46.67 0 0 1-3.9 3" style="fill:url(#linear-gradient-9)"/><path class="cls-7" d="M283.6 115.6a3 3 0 0 1-.7 1.1c-1.6 1.9-6.1 5.6-14.1 9.8a11.8 11.8 0 0 0-.4 2 31.63 31.63 0 0 0-.2 6.1c0 .5.1 1 .1 1.4.1 2 .3 3.7.3 4.6a1.29 1.29 0 0 1-.2.8 2.09 2.09 0 0 1-.6.4c-4 2.6-11.3-1.3-12.5-2.4-.1-.1-.1-.2-.2-.2-.2-.8.6-1.6 1-2.9a8.79 8.79 0 0 0 .2-1.4c.2-2 .4-5.7.5-8.5a26.62 26.62 0 0 0-.1-3.5c-.2-.9-6.9-11-8.9-14.6a5.66 5.66 0 0 1-.6-1.2c.1-.8 1.6-3.7 2-3.6.1 0 .3.3.6.7 1.6 2.2 5.7 8.7 6.5 9.5s4.4 4.6 6 6.3c.4.5.7.8.7.8a22.75 22.75 0 0 0 2.6-.2c7.5-1.2 15-6.4 16.9-7.9a3.61 3.61 0 0 0 .5-.4 9.09 9.09 0 0 1 .6 3.3Z"/><path class="cls-17" d="M264.8 124c-2.6.4-2.6-2.9-2.4-4.1.4.5.7.8.7.8a22.75 22.75 0 0 0 2.6-.2c.3 1.3 0 3.4-.9 3.5Z"/><path class="cls-1" d="M277.7 154.6c0 1.9-6.9 12.5-8.4 14.7a3 3 0 0 1-.3.4 6.63 6.63 0 0 1-1.6-.4c-.5-.2-.9-.4-.9-.8v-.3c.2-1.5 1.8-6.8 3.7-13.9-1-1.3-8.3-6-8.3-6-.3.7-10.3 23.9-11.5 26.1a.1.1 0 0 1-.1.1c-.5.7-2.7.7-2.8-.7-.6-5.9 4.4-23.5 6.8-31.4.4-1.4.8-2.5 1-3.1 1.2 1.2 8.5 5 12.5 2.4.2-.1.4-.3.6-.4a1.29 1.29 0 0 0 .2-.8c.1.1.2.2.2.3 2.9 3.3 8.9 12 8.9 13.8Z"/><path class="cls-10" d="M251.2 177.7c-.3 1.4-7.6 5.5-6.9 3 .5-2 2.6-5.5 3.3-6.8.1 1.4 2.3 1.3 2.8.7a.1.1 0 0 1 .1-.1 6.42 6.42 0 0 1 .7 3.2Zm20.5-1.2c-.6.3-7.7-2.5-7.6-3.4a39.56 39.56 0 0 1 2.4-4.7v.3c0 .8 2.6 1.1 2.6 1.1a3 3 0 0 0 .3-.4c.3 2.8 2.9 6.8 2.3 7.1Z"/><path d="M261.1 147.6s-8 15.6-10.9 26.4m12.8-26.4s8.8 5.8 9.2 6.7-4.6 14-4.6 14" style="stroke:#000;stroke-width:.46px;fill:none;stroke-miterlimit:10;opacity:.25;isolation:isolate"/><path class="cls-2" d="M268.9 140.9c-1 3.9-6.6 2.8-9.5 2.1a22.39 22.39 0 0 0-5-.4c.4-1.4.8-2.5 1-3.1 1.2 1.2 8.5 5 12.5 2.4.2-.1.4-.3.6-.4a1.29 1.29 0 0 0 .2-.8Zm-1.4 28.5c-.5-.2-.9-.4-.9-.8v-.3c.2-1.5 1.8-6.8 3.7-13.9-1-1.3-8.3-6-8.3-6s.6-2 1.3-2.1 8.3 6.4 9.2 7.8c.7 1.2-4.5 11-5 15.3Z"/><circle class="cls-7" cx="228.6" cy="122.9" r="4.3"/><circle class="cls-1" cx="153.2" cy="146.2" r="4.3"/><circle class="cls-7" cx="224.3" cy="278.1" r="4.3"/><path class="cls-19" d="M119.7 185.5a3.14 3.14 0 0 1-1.2-.1c-.2-.1-.9-.4-6.9-11.1l1.1-.6a115.55 115.55 0 0 0 6.4 10.6 51.19 51.19 0 0 0 7.4-.5l.1 1.2c-2 .2-5.1.5-6.9.5Zm163.9-69.9a3 3 0 0 1-.7 1.1 37.93 37.93 0 0 0-.4-4.1 3.61 3.61 0 0 0 .5-.4 9.79 9.79 0 0 1 .6 3.4Zm-33.7-11.5c-1.2 1-1.8 3.2-2 4.2a5.66 5.66 0 0 1-.6-1.2c.1-.8 1.6-3.7 2-3.6.1-.1.3.2.6.6ZM335.8 213a7 7 0 0 0-5.6-2.3c-3.5.3-5.5 1.6-5.6 5.3s.8 22.3 0 29.6 4.2 8.1 4.5 2.7-1.8-22.6-.3-25.4.6 3.1 2.3 5 3.4-1.5 1.7-6c-1.9-4.5 3-8.9 3-8.9Zm-6.8-70.7c-2.6 0-8.2-.2-11.2-2.6a28.11 28.11 0 0 0 1-3.1s6 1.8 10 1.1a37 37 0 0 1 .2 4.6Zm-60.6-6.3c-2.6.4-7.6.7-11.9-1.1.2-2 .4-5.7.5-8.5a24.42 24.42 0 0 0 11.5 2 32.44 32.44 0 0 0-.1 7.6Z"/><circle class="cls-19" cx="354" cy="135.9" r="1.7"/><circle class="cls-1" cx="227" cy="161.8" r="1.7"/><path d="M402.2 48.1s-6.6-6.6-19.2-4-21.5 22.6-30.6 27-27.3 17.5-28.6 28.6c17.7-14.7 24.3-8.3 35.8-10.1s12.4-15.3 29-14.8 34.3 21.1 50.9 9.5 36-25.2 20.3-36.5-47.6 6.1-57.6.3Z" style="fill:url(#linear-gradient-10)"/><path d="M133.1 93s-1.7 9.2 7.6 18.1 30.7 5 39.6 10.1 29.8 12.7 39.8 7.5c-22.1-6.3-20.6-15.4-28.5-23.9S172 103.2 163 89.2s-1.9-40.2-20.8-47.4-41.2-15.5-41.6 3.8c-.6 19.3 31.6 35.9 32.5 47.4Z" style="fill:url(#linear-gradient-11)"/><path d="M454.2 145.9s-27 29.6-32.7 64.3-33.4 32.5-42.8 48.9-31.8 17.7-42 24.3-33.6-4.9-37.6 0 21 12.4 53.4 12.8 38.6-24.8 67.3-28.3 57.5-15.9 67.7-62.8-7.2-72-33.3-59.2Z" style="fill:url(#linear-gradient-12)"/><path d="M64.8 157.8s27 29.6 32.7 64.3 33.4 32.5 42.8 48.9 31.8 17.7 42 24.3 33.6-4.9 37.6 0-21 12.4-53.4 12.8-38.6-24.8-67.3-28.3-57.5-15.9-67.7-62.8c-10-46.9 7.2-72 33.3-59.2Z" style="fill:url(#linear-gradient-13)"/><path class="cls-2" d="M269.1 249.5c1 1.6 2.4 12.3 3.1 18.3a40.39 40.39 0 0 1-9.1 2.8 36.17 36.17 0 0 1-17.4-.4l.6-1.5c3.3-9.9-.8-27.9-1-28.7 1.2 4.1 2.7 7.3 4.5 9.4a10.34 10.34 0 0 0 17.6-3.3c1.2-3.7 1.1-9.2-.2-16.4l-4.8-24.7c-1.4-7.2-3.4-12.3-6-15.5a12.91 12.91 0 0 0-2.1-2c7.8 1.5 14.2 25.8 16.9 37.5 2.5 11.8 2.8 17.2-2.1 24.5Z"/><path class="cls-24" d="M328.4 147.2a20.9 20.9 0 0 1-1.3 3.7c-.9 2.3-2.2 5.4-4.2 9.8 0 2.2-.8 16.4-.9 19.6v.7a2.36 2.36 0 0 1-1.1.6c-.5.1-1.1.2-1.3-.2-.5-.7-3.9-14-4-17.2s-.3-2.4 3.5-15c-.9.4-7 .3-7 .3s1.1 15.4 1.1 15.5v.1a4.05 4.05 0 0 1-.5.9c-.1.1-.2.2-.3.1s-.2-.1-.4-.4a37.88 37.88 0 0 1-6.1-9.3c-2-4.6-2.5-7.8-.6-11s11.7-3.5 11.7-3.5c.6.2 2 .3 3.5.7l1.2.3c2.1.7 6.2 1.6 7.1 1.1a8.47 8.47 0 0 1-.4 3.2Zm-81.5 97.6s.5 1.3 3.2 2.1 5.2-3.4 6.9-2.1 4.6 6.8 7.1 6 3.2 12.4 2 13.9-2-10.4-5.1-10.1-.8 9.3-2.5 11-1-4-2.9-5 2.1 45.1-.9 45.9-4.9-2.1-3.7-11.9-.3-43.9-2.1-45.7a6.11 6.11 0 0 1-2-4.1Z"/><circle class="cls-24" cx="378.7" cy="177.7" r="4.3"/><circle class="cls-24" cx="177.2" cy="139.3" r="1.7"/><path class="cls-24" d="m206.4 149.6-23.9-4.1v.2L129.8 205l-1.1 14.8 7.6 1.3 13.1 2.2 17.6 3 1.7.3-1.3 7.3-.6 3.4-1.9 11.2 15.5 2.7 8.3 1.4 3.8-21.9 10.5 1.8 3.2-18.4-10.5-1.8ZM176.6 180l-4.9 28.3-5.8-1-12.7-2.2 7.1-8.4 1.6-1.9 13.4-16 1.9-2.2Zm-45.9-11.7a1.33 1.33 0 0 0-.3.7 5.76 5.76 0 0 1-.5-.9c-.5-.7-1.1-1.6-1.5-1.7-.6-.2-2.3 1.9-4.5 2.1h-.4c-2.5-.1-5.1-3.6-3-7.7a2.56 2.56 0 0 0 2.2 1.5 1.4 1.4 0 0 1-1-1.3c2.7.5 4.1-1.5 6.4-.8s2.2 2.1 2.2 2.1 1.8-.7 2.3 1.5c.4 1.7-1.2 3.4-1.9 4.5Z"/><path class="cls-24" d="M140.9 191.9c-1.9-.3-7-5.8-7-8.2a4.48 4.48 0 0 0-.1-1.1c-.4-2.5-1.8-6.1-2.4-8.7-.7-3 .3-4.1.3-4.1 2.3-4 7.6 3.9 10.5 10.2a14.81 14.81 0 0 1 1.7 5.4c.3 4.6-1.1 6.8-3 6.5Zm-11.5 24.4c.2 1.1-7.3 8.7-6.9 6.7s2.7-8.3 2.7-8.3a3.67 3.67 0 0 0 2-2.2c.6 1.1 2 2.9 2.2 3.8Z"/><path class="cls-24" d="M137 179.9a.44.44 0 0 1-.3.1 16.93 16.93 0 0 1-4.5 0c-.2 0-.3-.1-.4-.1-.7-.3 0-1.1-.2-2.6s-.8-5.6 1.4-6.9 3.9 3.8 3.9 6.3c.2 2.6.6 2.8.1 3.2Z"/><path d="M136.7 180s-.1 6.2-1.3 9.1c-.4.9-.8 1.5-1.5 1.5-2.6-.1-8.3-6.2-8.9-6.4s-3.2.2-3.1-.2a4.7 4.7 0 0 1 2.2-1.7c1.1-.4.9-.2 8 3.1a39.12 39.12 0 0 1 0-4.9v-.6a12 12 0 0 0 4.6.1Z" style="fill:url(#linear-gradient-14)"/><path class="cls-2" d="M135.5 189.2c.2-1.2.4-4.9-.2-6.3-.4-1-2-1.8-3-2.2v-.6a16.93 16.93 0 0 0 4.5 0c-.1-.1-.2 6.2-1.3 9.1Zm31.4 37.2-17.6-3c2.1-6.8 4.7-16.3 3.8-18.3l12.7 2.2a12.15 12.15 0 0 1 1.6 5.8c.5 4.5-.2 9.2-.5 13.3Z"/><path class="cls-1" d="M153.9 205.3s1.9-2.7 6.2-1.8 4.6 6.1 2.8 12-2.3 26.3-1.4 33 .3 9.7-1.8 10-3.1-8-1.9-13.7 1.1-11.1-.9-10.2-.3 3.1-1.3 5.1-4 .8-3.9-3 6.2-28.3 2.2-31.4Z"/><path class="cls-2" d="m195.6 212.4 10.5 1.8-3.2 18.4-10.4-1.8-3.8 21.9-8.3-1.4 14.6-91.4 11.4-10.3-10.8 62.8z"/><path class="cls-11" d="M188.5 13.2v142.4"/><path d="M314.6 141.9a.76.76 0 0 0-.1.4c.1.5-.6 7-.3 7.6a12.67 12.67 0 0 1 .3 4.1c-.1 1.3-2.9 2.1-2.9 1s.3-3.8.4-4.9-.9-8.5-.6-9.5a14.94 14.94 0 0 1 1.3-2.5 2.48 2.48 0 0 1 .4-.6c0 .6 2.8 2.4 3 2.4 0 .1-1.1 1.3-1.5 2Z" style="fill:url(#linear-gradient-15)"/><path class="cls-2" d="M316.1 140a12.15 12.15 0 0 0-1.5 2v-.5a11.21 11.21 0 0 0-1.9-3.3 2.48 2.48 0 0 1 .4-.6c0 .6 2.8 2.4 3 2.4Zm2.9 9.2c-.9.4-7 .3-7 .3s1.1 15.4 1.1 15.5v.1a4.05 4.05 0 0 1-.5.9c-1.1-5.3-3.4-15.3-1.6-17.1 2.3-2.2 8.5-2.8 8.6-2.3a20.74 20.74 0 0 1-.6 2.6Zm9.4-2a5.41 5.41 0 0 1-3.5-1.6 19 19 0 0 0-4.6-2.9l1.2.3c2.1.7 6.2 1.6 7.1 1.1a4.89 4.89 0 0 1-.2 3.1Zm-1.2 3.7c-.9 2.3-2.2 5.4-4.2 9.8 0 2.2-.8 16.4-.9 19.6v.7a2.36 2.36 0 0 1-1.1.6c.1-4.8 0-15.2.8-18.2.8-3.8 5.1-12 5.4-12.5Z"/><path class="cls-2" d="m322.4 143.3-.9-.3a36.93 36.93 0 0 0-4.7-1c-.2-.1-.3-.1-.3-.2 0-.3.7-1 1.1-1.7s1.6-4.5 1.2-4.3-2.5 4.2-2.7 4.2a2.93 2.93 0 0 1-1-.6c.1-.1.1-.2.2-.3 1.3-2 3.5-4.4 3.9-6.5.3-1.5.7-.7.7 1.3-.2 1.8-.3 7.3 2.5 9.4Zm6.2.8c-.5.3-1.9.1-3.4-.1 2.7-2.7 1.2-10 1.6-9.6a13.4 13.4 0 0 0 1.7 1c.2 2 1 8.2.1 8.7Zm-60.7-15.3a20.65 20.65 0 0 1 1-2.4 17.66 17.66 0 0 0-.4 2 31.63 31.63 0 0 0-.2 6.1m-.4 7.4c-4.3 2.8-12.4-1.9-12.6-2.6s.6-1.6 1-2.9a8.79 8.79 0 0 0 .2-1.4c.2-2 .4-5.7.5-8.5a26.62 26.62 0 0 0-.1-3.5 67.2 67.2 0 0 1 2.3 9.4c.8 4.6.6 6.9 2.9 8.3a10.41 10.41 0 0 0 5.8 1.2Z"/><path class="cls-2" d="M268.3 134.5c-.5-2.1-.9-4.4-.4-5.7"/><path d="M267.4 116.8c0 .2-.1.5-.1.8-.3 1.6-1.1 3.9-2.3 3.7h-.2a3.78 3.78 0 0 1-2.1-2.2 7.78 7.78 0 0 1-.3-.9 3.73 3.73 0 0 1 .2-1.2 3.65 3.65 0 0 1 .5-1.1 7.86 7.86 0 0 0 2.3 1.1 2.57 2.57 0 0 0 2-.2Z" style="fill:url(#linear-gradient-16)"/><path d="M265 122.3c0 .6-.1 1-.5 1.1-.8.1-1.8-1-1.8-2.1v-2.2a3.75 3.75 0 0 0 2.1 2.2h.2Z" style="fill:url(#linear-gradient-17)"/><path class="cls-2" d="M267.4 116.8c0 .2-.1.5-.1.8-1.9 1-3.8-1.2-4.1-1.2-.1 0-.4.4-.6.6a3.65 3.65 0 0 1 .5-1.1 7.86 7.86 0 0 0 2.3 1.1 2.57 2.57 0 0 0 2-.2Zm-2.4 5.5a3.39 3.39 0 0 1-2.2-2.2v-1a3.75 3.75 0 0 0 2.1 2.2h.2a3.75 3.75 0 0 0-.1 1Z"/><path class="cls-17" d="M267.4 116.8a2.63 2.63 0 0 1-2 .2 9.25 9.25 0 0 1-2.3-1.1 3.65 3.65 0 0 0-.7 2.3c-1.8-1.6-2.3-3.2-.7-3.7-.6-2.8.7-3.3 3-3.5s2.8 2.2 4.1 2.1c.1 1.3-.2 3-1.4 3.7Z"/></svg>