<svg id="OBJECTS" xmlns="http://www.w3.org/2000/svg" viewBox="0 0 519 321.3"><defs><radialGradient id="radial-gradient" cx="-2287.68" cy="-379.92" r="79.88" gradientTransform="matrix(-.98 -.2 -.2 .98 -2081.93 85.46)" gradientUnits="userSpaceOnUse"><stop offset="0" stop-color="#ff8cd2"/><stop offset=".16" stop-color="#fb8ad1"/><stop offset=".32" stop-color="#f084cd"/><stop offset=".47" stop-color="#dc79c6"/><stop offset=".62" stop-color="#c16abd"/><stop offset=".77" stop-color="#9e57b1"/><stop offset=".92" stop-color="#7440a2"/><stop offset="1" stop-color="#5a3299"/></radialGradient><radialGradient id="radial-gradient-2" cx="246.42" cy="-119.32" r="92.36" gradientTransform="translate(0 297.4)" gradientUnits="userSpaceOnUse"><stop offset="0" stop-color="#ff8cd2"/><stop offset=".2" stop-color="#fb8ad1"/><stop offset=".38" stop-color="#f086cd"/><stop offset=".57" stop-color="#dc7ec6"/><stop offset=".75" stop-color="#c172bd"/><stop offset=".93" stop-color="#9f64b1"/><stop offset="1" stop-color="#8e5dab"/></radialGradient><radialGradient id="radial-gradient-3" cx="248.17" cy="-164.18" r="96.12" gradientTransform="translate(0 297.4)" gradientUnits="userSpaceOnUse"><stop offset="0" stop-color="#fffde0"/><stop offset=".17" stop-color="#fcf9df"/><stop offset=".32" stop-color="#f4eedb"/><stop offset=".48" stop-color="#e7dad5"/><stop offset=".63" stop-color="#d3bfcc"/><stop offset=".78" stop-color="#bb9cc0"/><stop offset=".93" stop-color="#9d72b2"/><stop offset="1" stop-color="#8e5dab"/></radialGradient><clipPath id="clip-path"><path d="M268.1 256.2H218a45.45 45.45 0 0 1-45.3-45.3v-41.7a45.45 45.45 0 0 1 45.3-45.3h50.1a45.45 45.45 0 0 1 45.3 45.3V211a45.37 45.37 0 0 1-45.3 45.2Z" style="fill:none"/></clipPath><style>.cls-3{fill:#2a0466}.cls-4{fill:#f83600}.cls-5{fill:#f99e8a}.cls-7{opacity:.1}.cls-30,.cls-31,.cls-8{fill:#fff}.cls-10{fill:#ced5d8}.cls-13{fill:#aeaeff}.cls-14{fill:#4d288a}.cls-15{fill:#cc2600}.cls-20{fill:#c3d2e8}.cls-30,.cls-31{isolation:isolate}.cls-23{fill:#f9c8c0}.cls-24{fill:#9e39a4}.cls-26{clip-path:url(#clip-path)}.cls-28,.cls-30{opacity:.2}.cls-31{opacity:.5}.cls-32{fill:#f7fb70}.cls-33{fill:#f7e470}.cls-34{opacity:.18}.cls-35{fill:#e4a9c2}</style></defs><path d="M322.7 184.3c1.1-.5 2.2-.9 3.3-1.3a4.43 4.43 0 0 1 2-.3 54.1 54.1 0 0 1-2.1-7.4 2.82 2.82 0 0 0-3.2-2.1 2.59 2.59 0 0 0-2.2 3 47 47 0 0 0 2.2 8.1Z" style="fill:#ff6098"/><path class="cls-3" d="M395.3 258.4c-17.5-2.1-39.5-6-54-18.1-7.1-5.9-9.8-12.5-7.3-18.1 1.4-3.1 4.2-5.7 8-7.7a46.46 46.46 0 0 0 18.6 10.1c15.2 4.2 26.2 1.7 30.4-2.6a6.72 6.72 0 0 0 1.6-7.4c-2.2-5.2-10.6-8.5-23.6-9.4-10.9-.7-19.4.6-25.8 3L342 207c-1.4 1.2-2.7 2.3-4.1 3.4l.2.2a11 11 0 0 0-2.1 1.4c-.1.1-.3.2-.4.3a2.18 2.18 0 0 0-.5.4 20.6 20.6 0 0 0-6.1 7.4c-3.4 7.8-.8 17.3 8.2 24.9 8.2 6.9 25.5 16.6 57.5 18.6h.3a2.63 2.63 0 0 0 2.7-2.3 2.56 2.56 0 0 0-2.4-2.9Zm-26.7-48c13.2.9 18 4.3 18.8 6.1.1.3.4.9-.5 1.9-2.5 2.6-11.1 5-24.7 1.2a42.29 42.29 0 0 1-14.5-7.4 64.41 64.41 0 0 1 20.9-1.8Z"/><path class="cls-4" d="M395 263.5h-.3c-34.8-4.3-48.7-13.2-57-20.5-9-8-12.1-17.2-8.7-25.4a21.64 21.64 0 0 1 9.2-10 70.49 70.49 0 0 1-9.7-14.5 87.94 87.94 0 0 1-7.8-21.9 2.75 2.75 0 1 1 5.4-1c.1.3 4 20.5 17.2 34.8 6.4-2.6 14.9-3.9 25.8-3.2 13 .9 21.3 4.4 23.6 9.9a7.17 7.17 0 0 1-1.6 7.8c-4.2 4.6-15.2 7.3-30.4 2.8a46.63 46.63 0 0 1-18.6-10.7c-3.9 2.1-6.7 4.8-8 8.1-2.5 5.9.2 12.9 7.3 19.2 14.5 12.9 36.5 17 54 19.2a2.8 2.8 0 0 1 2.4 3.1 3 3 0 0 1-2.8 2.3Zm-47.2-54.3a39.77 39.77 0 0 0 14.5 7.8c13.7 4 22.3 1.5 24.7-1.2a1.87 1.87 0 0 0 .6-2c-.8-2-5.7-5.6-18.8-6.5a57.24 57.24 0 0 0-21 1.9Z"/><path class="cls-5" d="M396 260.4a4.83 4.83 0 0 0 4.8-3.8c.2-.9-1.1-1.2-1.3-.4a3.45 3.45 0 0 1-3.5 2.8.7.7 0 0 0 0 1.4Zm-.4 2.2a8.81 8.81 0 0 1 2.5 2.2.65.65 0 0 0 .9.2c.3-.2.5-.6.2-.9a9.72 9.72 0 0 0-3-2.7c-.6-.5-1.3.7-.6 1.2Zm1.8-.8a6.53 6.53 0 0 0 3.4 0c.9-.2.5-1.5-.4-1.3a6.15 6.15 0 0 1-2.7 0 .67.67 0 0 0-.3 1.3Z"/><path class="cls-3" d="m342.1 211.6-4-4c-.4.2-.7.5-1.1.7 2.5 1.1 2.6 3.7 2.6 4.9a13.25 13.25 0 0 1 2.5-1.6Zm5.5-2.5 1.1-.1 2.4-.6a15.68 15.68 0 0 1-7.8-3.4 25.33 25.33 0 0 0 4.3 4.1Z"/><path class="cls-4" d="m398 254.9.1 1 1.1.2-1.1.2-.1 1-.2-1-1.1-.2 1.1-.2.2-1zm4.1 2.4.2 1.1 1 .2-1 .1-.2 1.1-.1-1.1-1.1-.1 1.1-.2.1-1.1zm-2.7-3.9.2.5.4.1-.4.1-.2.5-.1-.5-.5-.1.5-.1.1-.5zm1.8 2.4.1.3.3.1-.3.1-.1.3v-.3l-.3-.1.3-.1v-.3zm-1.5 1.5.1.3.2.1-.2.1-.1.3-.1-.3-.3-.1.3-.1.1-.3zm1.5-3.4.1.3h.3l-.3.1-.1.3v-.3l-.3-.1h.3v-.3zm-10 1.6 3.1 1 .4-.4 1.5.9-1.7-2.2-.5.7-1.5-1.9-1.3 1.9z"/><path class="cls-3" d="M458.4 273.6c-10.5-6.2-26.4-8.1-44.3-9.6a2.61 2.61 0 0 0-2.9 2.3 2.73 2.73 0 0 0 2.5 2.8c16.6 1.5 32.5 3.3 41.9 8.9 5.1 3 7.6 6.1 7.5 9.1-.1 3.6-3.7 7.1-7.1 9.5-5-5.5-14.3-3.8-18.4-1.8a.1.1 0 0 0-.1.1h-.1c-2.9 1.5-4.2 4.9-3.7 8.7l-2.1 1.1-.9.5a2.33 2.33 0 0 0-.9 3.3 2.71 2.71 0 0 0 3.5 1l2-1a2.18 2.18 0 0 0 .5.8c.2.3.3.5.5.8l-1.1.6-.9.5a2.33 2.33 0 0 0-.9 3.3 2.71 2.71 0 0 0 3.5 1l3-1.5a12.29 12.29 0 0 0 5.7 2.4c.4 0 .7.1 1.1.1h.2a2 2 0 0 0 .8-.1h.3a2.35 2.35 0 0 0 .8-.2.37.37 0 0 0 .3-.1 4.18 4.18 0 0 0 1-.4h.1l.6-.3a.1.1 0 0 0 .1-.1 3 3 0 0 0 .7-.5l.1-.1a3 3 0 0 1 .7-.5l.1-.1c.3-.2.5-.4.8-.6.5-.5 1.1-1 1.6-1.6a5.5 5.5 0 0 0 .7-.9c.2-.3.5-.6.7-.9a13.55 13.55 0 0 0 2-4.4 9.23 9.23 0 0 0 .1-3.7c4.2-2.8 10.1-7.8 10.2-14.1.2-5.6-3.3-10.2-10.2-14.3Z"/><path class="cls-4" d="M452.6 303.1a3 3 0 0 1-2.5-1.5 2.78 2.78 0 0 1 1.2-3.7c3.1-1.6 11.4-7 11.7-12.8.2-3.2-2.2-6.4-7.1-9.6-9.1-6-24.9-7.9-41.6-9.4a2.76 2.76 0 1 1 .5-5.5c18.1 1.7 33.9 3.6 44.1 10.3 6.6 4.3 9.8 9.2 9.5 14.5-.6 10.1-14.1 17.1-14.7 17.4a1.8 1.8 0 0 1-1.1.3Z"/><ellipse cx="443.45" cy="304.23" rx="9" ry="12.2" transform="rotate(-29.14 443.374 304.196)" style="fill:#fa8b29"/><path class="cls-4" d="M456.9 296.7c4.3 7.7-3.2 15.7-7.5 18.1s-10.5-.4-13.8-6.2-2.4-12.6 2-15 14.9-4.7 19.3 3.1Z"/><path class="cls-5" d="m452.1 307.2-7.1 8.4a7.55 7.55 0 0 0 4.4-.8c3.9-2.2 10.3-8.8 8.5-15.7a14.5 14.5 0 0 1-5.8 8.1Zm-1.9-3a19.15 19.15 0 0 0 7.1-6.6 5.94 5.94 0 0 0-.4-.8 3 3 0 0 0-.5-.7l-6.8 4.7Z"/><g class="cls-7"><ellipse class="cls-8" cx="443.51" cy="304.12" rx="9.1" ry="12.2" transform="rotate(-29.14 443.442 304.09)"/></g><ellipse cx="443.45" cy="304.23" rx="9" ry="12.2" transform="rotate(-29.14 443.374 304.196)" style="fill:#c42602"/><g class="cls-7"><ellipse class="cls-8" cx="443.65" cy="304.11" rx="6.9" ry="9.3" transform="rotate(-29.14 443.587 304.087)"/></g><ellipse class="cls-4" cx="443.45" cy="304.23" rx="6.7" ry="9.1" transform="rotate(-29.14 443.374 304.196)"/><path class="cls-3" d="M448.2 311.4c-3.1 1.7-7.5-.3-9.8-4.4s-1.7-8.9 1.4-10.7a4.75 4.75 0 0 1 2.6-.6 5 5 0 0 0-3.4.6c-3.2 1.8-3.9 6.8-1.5 11.2s7 6.4 10.3 4.6a5.82 5.82 0 0 0 2.3-2.6 4.35 4.35 0 0 1-1.9 1.9Z"/><path class="cls-10" d="m440.3 299.1-9.5 5.3a2.51 2.51 0 1 0 2.4 4.4l9.5-5.3Z"/><path class="cls-8" d="m441.2 298.6-9.5 5.3a2.51 2.51 0 1 0 2.4 4.4l9.5-5.3Z"/><path class="cls-10" d="m438.7 300-.8.4-1.9 6.8.8-.4 1.9-6.8zm-5.7 3.1-1.5 5.1a2.48 2.48 0 0 0 2.5 0l.9-.5 1.9-6.9Zm8-4.4-1.5.8-2 6.9 1.5-.9 2-6.8z" style="opacity:.24"/><path class="cls-10" d="m443.7 305.2-9.5 5.3a2.51 2.51 0 1 0 2.4 4.4l9.5-5.3Z"/><path class="cls-8" d="M444.5 304.7 435 310a2.51 2.51 0 1 0 2.4 4.4l9.5-5.3Z"/><path class="cls-10" d="m436.1 309.4-1.4 4.8a2.42 2.42 0 0 0 2.7.2l.6-.3 1.9-6.9Zm5.7-3.2-.8.4-1.9 6.9.7-.4 2-6.9zm2.3-1.3-1.5.9-2 6.8 1.5-.8 2-6.9z" style="opacity:.33"/><path class="cls-5" d="M412.4 262.2a6.58 6.58 0 0 1-2.8-.4c-.8-.3-1.2 1-.4 1.3a6.75 6.75 0 0 0 3.1.5c1-.1 1-1.4.1-1.4Zm1.2-1.6a2.62 2.62 0 0 1-1.6-1.3c-.4-.8-1.6-.1-1.2.7a4.31 4.31 0 0 0 2.4 2 .73.73 0 0 0 .4-1.4Zm-.4 3.2a5.33 5.33 0 0 0-2.3 1.6c-.5.7.4 1.7 1 1a4.31 4.31 0 0 1 1.7-1.3c.8-.2.4-1.6-.4-1.3Z"/><path class="cls-4" d="m408.4 257.7.3 1.7 1.7.2-1.7.3-.3 1.7-.2-1.7-1.7-.3 1.7-.2.2-1.7zm4.3-.7.1.9 1 .2-1 .1-.1 1-.2-1-.9-.1.9-.2.2-.9zm-2.8 7.6.1.5.5.1-.5.1-.1.5-.1-.5-.5-.1.5-.1.1-.5zm7.5-6.3-2.6.9-.3-.4-1.3.8 1.5-1.9.3.6 1.3-1.6 1.1 1.6zm-22-4.2.5 1.3h.3l.1.7.2-1.1h-.4l.2-1-.9.1z"/><path class="cls-5" d="M464.3 280.5a11.9 11.9 0 0 1-1.3 9.2.69.69 0 1 0 1.2.7 12.62 12.62 0 0 0 1.4-10.2.67.67 0 0 0-1.3.3Zm-1.9 12a.7.7 0 0 0 0-1.4.7.7 0 0 0 0 1.4Zm-2.1 2.1a.7.7 0 0 0 0-1.4.7.7 0 0 0 0 1.4ZM418 263.9c5.7.6 11.4 1.4 17.1 2.3.9.1 1.2-1.2.4-1.3-5.8-.9-11.6-1.7-17.5-2.4-.9-.1-.9 1.3 0 1.4Zm20.2 2.6a.7.7 0 0 0 0-1.4.7.7 0 0 0 0 1.4Zm2.4.5a.7.7 0 0 0 0-1.4.7.7 0 0 0 0 1.4Z"/><path class="cls-13" d="M331.8 216a18 18 0 0 0 .9 18.2c.5.7 1.7.1 1.2-.7a16.83 16.83 0 0 1-.9-16.8c.4-.8-.8-1.5-1.2-.7Zm3.1 20.4a.7.7 0 0 0 0-1.4c-.8 0-.8 1.4 0 1.4Zm1.3 2.2a.7.7 0 0 0 0-1.4c-.8 0-.8 1.4 0 1.4Z"/><path class="cls-5" d="M367.7 221.9a31.84 31.84 0 0 0 16.5-.8c.8-.3.5-1.6-.4-1.3a30.25 30.25 0 0 1-15.8.8c-.8-.2-1.2 1.2-.3 1.3Zm18.2-2.3.1.1c.6.6 1.6-.3 1-1l-.1-.1c-.7-.6-1.7.4-1 1Zm2.6-1a.7.7 0 0 0 0-1.4.7.7 0 0 0 0 1.4Zm1.3-2.6h.1a.7.7 0 0 0 0-1.4h-.1a.7.7 0 0 0 0 1.4Z"/><path class="cls-13" d="M333.2 196.6a92 92 0 0 0 6.9 9.5c.6.7 1.5-.3 1-1a85.58 85.58 0 0 1-6.6-9.2c-.6-.8-1.8-.1-1.3.7Zm9.6 11.3a.7.7 0 0 0 0-1.4.7.7 0 0 0 0 1.4Zm1.1 1.6.1.1c.6.6 1.6-.3 1-1l-.1-.1c-.6-.6-1.6.4-1 1Z"/><path class="cls-14" d="M268.1 256.2H218a45.45 45.45 0 0 1-45.3-45.3v-41.7a45.45 45.45 0 0 1 45.3-45.3h50.1a45.45 45.45 0 0 1 45.3 45.3V211a45.37 45.37 0 0 1-45.3 45.2Z"/><path class="cls-15" d="M223.2 291.2a6.52 6.52 0 0 1-4.7-7.9l8-31.1a6.52 6.52 0 0 1 7.9-4.7 6.52 6.52 0 0 1 4.7 7.9l-8 31.1a6.42 6.42 0 0 1-7.9 4.7Zm66.7 0a6.52 6.52 0 0 0 4.7-7.9l-8-31.1a6.52 6.52 0 0 0-7.9-4.7 6.52 6.52 0 0 0-4.7 7.9l8 31.1a6.42 6.42 0 0 0 7.9 4.7Z"/><path class="cls-4" d="M209.5 299.5a6.52 6.52 0 0 1-4.7-7.9l8-31.1a6.52 6.52 0 0 1 7.9-4.7 6.52 6.52 0 0 1 4.7 7.9l-8 31.1a6.42 6.42 0 0 1-7.9 4.7Zm94.5 0a6.52 6.52 0 0 0 4.7-7.9l-8-31.1a6.52 6.52 0 0 0-7.9-4.7 6.52 6.52 0 0 0-4.7 7.9l8 31.1a6.47 6.47 0 0 0 7.9 4.7Z"/><path class="cls-15" d="M197.1 269.5v-21.9a10.5 10.5 0 0 1 10.5-10.5H306a10.5 10.5 0 0 1 10.5 10.5v21.9A10.5 10.5 0 0 1 306 280h-98.3a10.52 10.52 0 0 1-10.6-10.5Z"/><circle class="cls-15" cx="258.4" cy="137.4" r="44.3"/><path class="cls-4" d="M286.9 106.1h-60.2a71.87 71.87 0 0 0-71.8 71.8v24.4a71.87 71.87 0 0 0 71.8 71.8h60.2a71.87 71.87 0 0 0 71.8-71.8v-24.4a71.87 71.87 0 0 0-71.8-71.8Z"/><path class="cls-8" d="M286.9 110.9h-60.2a67.17 67.17 0 0 0-67.1 67.1v24.4a67.17 67.17 0 0 0 67.1 67.1h60.2a67.17 67.17 0 0 0 67.1-67.1V178a67.3 67.3 0 0 0-67.1-67.1Z"/><path d="M334.9 152.6h-.6a14.3 14.3 0 0 0-14.3 14.3v46.4a14.3 14.3 0 0 0 14.3 14.3h.6a14.3 14.3 0 0 0 14.3-14.3v-46.4a14.3 14.3 0 0 0-14.3-14.3Z" style="fill:#f1e7f2"/><path d="M334.6 225.9a12.93 12.93 0 0 1-12.9-12.9v-45.8a12.93 12.93 0 0 1 12.9-12.9 12.93 12.93 0 0 1 12.9 12.9V213a12.93 12.93 0 0 1-12.9 12.9Z" style="fill:#becce4"/><path d="M341.7 218.2h-14.2a1.37 1.37 0 0 1-1.4-1.4v-.8a1.37 1.37 0 0 1 1.4-1.4h14.2a1.37 1.37 0 0 1 1.4 1.4v.8a1.43 1.43 0 0 1-1.4 1.4Zm-.4-6h-13.4a1.79 1.79 0 0 1-1.8-1.8 1.79 1.79 0 0 1 1.8-1.8h13.4a1.79 1.79 0 0 1 1.8 1.8 1.79 1.79 0 0 1-1.8 1.8Zm0-5.9h-13.4a1.79 1.79 0 0 1-1.8-1.8 1.79 1.79 0 0 1 1.8-1.8h13.4a1.79 1.79 0 0 1 1.8 1.8 1.79 1.79 0 0 1-1.8 1.8Zm0-6h-13.4a1.79 1.79 0 0 1-1.8-1.8 1.79 1.79 0 0 1 1.8-1.8h13.4a1.79 1.79 0 0 1 1.8 1.8 1.79 1.79 0 0 1-1.8 1.8Zm0-5.9h-13.4a1.79 1.79 0 0 1-1.8-1.8 1.79 1.79 0 0 1 1.8-1.8h13.4a1.79 1.79 0 0 1 1.8 1.8 1.79 1.79 0 0 1-1.8 1.8Zm0-6h-13.4a1.79 1.79 0 0 1-1.8-1.8 1.79 1.79 0 0 1 1.8-1.8h13.4a1.79 1.79 0 0 1 1.8 1.8 1.79 1.79 0 0 1-1.8 1.8Z" style="fill:#d5e1ef"/><path d="M341.3 218.6h-13.4a1.79 1.79 0 0 1-1.8-1.8 1.79 1.79 0 0 1 1.8-1.8h13.4a1.79 1.79 0 0 1 1.8 1.8 1.79 1.79 0 0 1-1.8 1.8Zm0-6h-13.4a1.79 1.79 0 0 1-1.8-1.8 1.79 1.79 0 0 1 1.8-1.8h13.4a1.79 1.79 0 0 1 1.8 1.8 1.79 1.79 0 0 1-1.8 1.8Zm0-5.9h-13.4a1.79 1.79 0 0 1-1.8-1.8 1.79 1.79 0 0 1 1.8-1.8h13.4a1.79 1.79 0 0 1 1.8 1.8 1.79 1.79 0 0 1-1.8 1.8Zm0-6h-13.4a1.79 1.79 0 0 1-1.8-1.8 1.79 1.79 0 0 1 1.8-1.8h13.4a1.79 1.79 0 0 1 1.8 1.8 1.79 1.79 0 0 1-1.8 1.8Zm0-5.9h-13.4a1.79 1.79 0 0 1-1.8-1.8 1.79 1.79 0 0 1 1.8-1.8h13.4a1.79 1.79 0 0 1 1.8 1.8 1.86 1.86 0 0 1-1.8 1.8Zm.4-6h-14.2a1.37 1.37 0 0 1-1.4-1.4v-.8a1.37 1.37 0 0 1 1.4-1.4h14.2a1.37 1.37 0 0 1 1.4 1.4v.8a1.43 1.43 0 0 1-1.4 1.4Z" style="fill:#9aa2be"/><circle class="cls-20" cx="321.7" cy="237.9" r="10.1"/><circle class="cls-4" cx="321.7" cy="237.9" r="8"/><circle class="cls-15" cx="321.7" cy="237.9" r="6.4"/><path class="cls-4" d="M325.7 233.9a2.23 2.23 0 0 0-3.2 0l-4.8 4.8a2.36 2.36 0 0 0-.7 1.6 2 2 0 0 0 .7 1.6 2.36 2.36 0 0 0 1.6.7 2.13 2.13 0 0 0 1.6-.7l4.8-4.8a2.23 2.23 0 0 0 0-3.2Z"/><path class="cls-15" d="m325.4 236.8-4.8 4.8a1.75 1.75 0 0 1-2.5 0 1.75 1.75 0 0 1 0-2.5l4.8-4.8a1.75 1.75 0 0 1 2.5 0 1.75 1.75 0 0 1 0 2.5Z"/><circle class="cls-20" cx="294" cy="256.2" r="3.6"/><circle class="cls-20" cx="302.8" cy="256.2" r="3.6"/><circle class="cls-20" cx="311.5" cy="256.2" r="3.6"/><circle class="cls-15" cx="294" cy="256.2" r="2.9"/><circle class="cls-15" cx="302.8" cy="256.2" r="2.9"/><circle class="cls-15" cx="311.5" cy="256.2" r="2.9"/><circle class="cls-4" cx="294" cy="256.2" r="2.3"/><circle class="cls-4" cx="302.8" cy="256.2" r="2.3"/><circle class="cls-4" cx="311.5" cy="256.2" r="2.3"/><path class="cls-20" d="M286.9 110.9h-34.2l-93 93a67.32 67.32 0 0 0 22.7 48.7L317 118a67.71 67.71 0 0 0-30.1-7.1Zm65.8 54.4a43.71 43.71 0 0 0-1.2-5.2L242.3 269.3h6.4Zm-7.9-21.2a69.13 69.13 0 0 0-8.5-11.6L203.6 265.2a67.94 67.94 0 0 0 16.3 3.8Z" style="opacity:.29"/><path d="M286.9 112.1a66 66 0 0 1 65.9 65.9v24.4a66 66 0 0 1-65.9 65.9h-60.2a66 66 0 0 1-65.9-65.9V178a66 66 0 0 1 65.9-65.9h60.2m0-1.2h-60.2a67.17 67.17 0 0 0-67.1 67.1v24.4a67.17 67.17 0 0 0 67.1 67.1h60.2a67.17 67.17 0 0 0 67.1-67.1V178a67.3 67.3 0 0 0-67.1-67.1Z" style="isolation:isolate;opacity:.42;fill:#c3d2e8"/><path class="cls-20" d="M259.5 121h-32.8a56.93 56.93 0 0 0-56.9 56.9v24.4a56.93 56.93 0 0 0 56.9 56.9h32.8a56.93 56.93 0 0 0 56.9-56.9v-24.4a56.93 56.93 0 0 0-56.9-56.9Z"/><path class="cls-14" d="M268.1 256.2H218a45.45 45.45 0 0 1-45.3-45.3v-41.7a45.45 45.45 0 0 1 45.3-45.3h50.1a45.45 45.45 0 0 1 45.3 45.3V211a45.37 45.37 0 0 1-45.3 45.2Z"/><path class="cls-23" d="M241.2 101.3a1.78 1.78 0 0 1-2.4-.6L216 60.5a1.78 1.78 0 0 1 .6-2.4 1.78 1.78 0 0 1 2.4.6l22.9 40.2a1.7 1.7 0 0 1-.7 2.4Z"/><path class="cls-15" d="M220.5 55.9a11.08 11.08 0 0 0-4.3 1.5 13.17 13.17 0 0 0-3.5 2.9l-1.4.8.9 1.5c.7 1.2 3.6.9 6.5-.8s4.7-4 4-5.2l-.9-1.5Z"/><ellipse class="cls-23" cx="216.59" cy="58.14" rx="6.1" ry="2.6" transform="rotate(-29.68 216.604 58.138)"/><path class="cls-23" d="M274.2 101.2a2.92 2.92 0 0 1-.9-.2 1.69 1.69 0 0 1-.6-2.4l5.3-9a2 2 0 0 1 1.3-.9l3.3-.4-1.4-3.8a1.8 1.8 0 0 1 .2-1.6 1.76 1.76 0 0 1 1.5-.8h4.2l-.9-7.1a2 2 0 0 1 .2-1.1l8.9-15.4a1.73 1.73 0 0 1 2.4-.7 1.81 1.81 0 0 1 .7 2.4L289.7 75l1.1 8.5a1.79 1.79 0 0 1-.4 1.4 1.61 1.61 0 0 1-1.3.6h-3.7l1.3 3.5a1.6 1.6 0 0 1-.2 1.5 1.56 1.56 0 0 1-1.3.8l-4.7.6-4.8 8.2a1.55 1.55 0 0 1-1.5 1.1Z"/><path class="cls-15" d="M293.4 55.9a11.08 11.08 0 0 1 4.3 1.5 13.17 13.17 0 0 1 3.5 2.9l1.4.8-.9 1.5c-.7 1.2-3.6.9-6.5-.8s-4.7-4-4-5.2l.9-1.5Z"/><ellipse class="cls-23" cx="297.26" cy="58.09" rx="2.6" ry="6.1" transform="rotate(-60.32 297.248 58.096)"/><path class="cls-24" d="m179.1 178.4.8-.5.5-.8.4.8.9.5-.9.4-.4.9-.5-.9-.8-.4zm52.7-14.2.9-.5.4-.8.5.8.8.5-.8.4-.5.9-.4-.9-.9-.4zm17.9 13.9.8-.4.5-.9.4.9.9.4-.9.5-.4.8-.5-.8-.8-.5zm10.4-2.9.8-.5.5-.8.5.8.8.5-.8.4-.5.9-.5-.9-.8-.4zm44.5 19.6.8-.5.5-.8.4.8.9.5-.9.4-.4.8-.5-.8-.8-.4zm-37.1-29.9.9-.4.4-.9.5.9.8.4-.8.5-.5.8-.4-.8-.9-.5zm-7.4-.5.8-.5.5-.8.5.8.8.5-.8.4-.5.9-.5-.9-.8-.4zm13.1 15 .9-.4.4-.9.5.9.8.4-.8.5-.5.8-.4-.8-.9-.5zm3.8-34.8.3-.1.1-.3.2.3.3.1-.3.2-.2.3-.1-.3-.3-.2zm-10.1 11.1.3-.1.2-.3.2.3.3.1-.3.2-.2.3-.2-.3-.3-.2zm-5 3.3.3-.1.2-.3.2.3.3.1-.3.2-.2.3-.2-.3-.3-.2zm31.3 75.1.3-.2.1-.3.2.3.3.2-.3.2-.2.3-.1-.3-.3-.2zm11.4-18.9.3-.2.2-.3.1.3.3.2-.3.2-.1.3-.2-.3-.3-.2zm-52.8 36.1.3-.1.2-.3.1.3.3.1-.3.2-.1.3-.2-.3-.3-.2zm20.9-3.2.4-.2.1-.3.2.3.3.2-.3.1-.2.3-.1-.3-.4-.1zm-18.8-15.3.3-.1.2-.4.2.4.3.1-.3.2-.2.3-.2-.3-.3-.2zm-35.6-103.6.3-.2.1-.3.2.3.3.2-.3.1-.2.3-.1-.3-.3-.1zm19.5 8.7.4-.2.1-.3.2.3.3.2-.3.1-.2.3-.1-.3-.4-.1zm6.5-8.7.3-.2.2-.3.2.3.3.2-.3.1-.2.3-.2-.3-.3-.1zm39 9.6.3-.2.2-.3.2.3.3.2-.3.2-.2.3-.2-.3-.3-.2zm-13.1 34 .3-.1.1-.3.2.3.3.1-.3.2-.2.3-.1-.3-.3-.2zm-10.5 9.6.4-.2.2-.5.3.5.4.2-.4.2-.3.4-.2-.4-.4-.2zm-4.6 14.3.4-.2.2-.4.2.4.5.2-.5.3-.2.4-.2-.4-.4-.3zM270 194l.4-.2.2-.4.3.4.4.2-.4.2-.3.4-.2-.4-.4-.2zm-49.7-9.4.5-.2.2-.4.2.4.4.2-.4.3-.2.4-.2-.4-.5-.3zm3.3-6.5.4-.2.2-.4.3.4.4.2-.4.3-.3.4-.2-.4-.4-.3zm-8.4-7.5.4-.2.2-.4.2.4.4.2-.4.2-.2.4-.2-.4-.4-.2zm7.8-.6.4-.2.2-.4.2.4.4.2-.4.2-.2.4-.2-.4-.4-.2zm-12.2-7.2.4-.2.2-.4.3.4.4.2-.4.2-.3.4-.2-.4-.4-.2zm1.1 36.1.8.5.5.8.4-.8.9-.5-.9-.5-.4-.8-.5.8-.8.5zm11.4 41.8.8.4.5.8.4-.8.9-.4-.9-.5-.4-.8-.5.8-.8.5zm11.5-13 .8.5.5.8.4-.8.9-.5-.9-.4-.4-.8-.5.8-.8.4zm43 5.1.8.5.5.8.4-.8.9-.5-.9-.4-.4-.9-.5.9-.8.4zm17.9-27.4.8.4.5.9.5-.9.8-.4-.8-.5-.5-.8-.5.8-.8.5zm-21.2 12.4.8.4.5.9.4-.9.9-.4-.9-.5-.4-.8-.5.8-.8.5zm-36.2-60.5.8.4.5.9.4-.9.9-.4-.9-.5-.4-.8-.5.8-.8.5zm0 25.7.8.5.5.8.4-.8.9-.5-.9-.5-.4-.8-.5.8-.8.5zm-20.9-40.1.9.4.4.9.5-.9.8-.4-.8-.5-.5-.8-.4.8-.9.5zm37.5-15 .9.4.4.9.5-.9.8-.4-.8-.5-.5-.8-.4.8-.9.5zm47 22.5.8.5.5.8.4-.8.9-.5-.9-.4-.4-.9-.5.9-.8.4zm-10.8 41.7.8.4.4.9.5-.9.8-.4-.8-.5-.5-.8-.4.8-.8.5zm0-43.6.8.5.4.8.5-.8.8-.5-.8-.4-.5-.9-.4.9-.8.4zM247.3 159l.9.5.4.8.5-.8.8-.5-.8-.4-.5-.8-.4.8-.9.4zm-65.6 63.3.8.5.5.8.4-.8.8-.5-.8-.4-.4-.9-.5.9-.8.4zm24.5 10.5.8.5.5.8.4-.8.9-.5-.9-.4-.4-.9-.5.9-.8.4z"/><path style="fill:#9539ff" d="m303.2 245.7.8.5.5.8.4-.8.8-.5-.8-.4-.4-.9-.5.9-.8.4z"/><path class="cls-24" d="m253.1 216.5.8.4.5.9.5-.9.8-.4-.8-.5-.5-.8-.5.8-.8.5zm-23.9-7.4.8.5.5.8.4-.8.9-.5-.9-.4-.4-.9-.5.9-.8.4zM196.6 221l.8.5.4.8.5-.8.8-.5-.8-.4-.5-.8-.4.8-.8.4zm19.6-8.8.4.2.2.4.2-.4.4-.2-.4-.2-.2-.4-.2.4-.4.2zm-25.5-10.4.4.2.2.4.3-.4.4-.2-.4-.3-.3-.4-.2.4-.4.3zm51.5 43.7.4.2.2.4.2-.4.4-.2-.4-.2-.2-.4-.2.4-.4.2zm12.8-44.3.4.3.2.4.2-.4.4-.3-.4-.2-.2-.4-.2.4-.4.2zm9.5 8.7.4.2.2.4.3-.4.4-.2-.4-.3-.3-.4-.2.4-.4.3zm-27.5-9.7.5.2.2.4.2-.4.4-.2-.4-.2-.2-.4-.2.4-.5.2zm-47.5-47.1.4.3.2.4.2-.4.4-.3-.4-.2-.2-.4-.2.4-.4.2zm-5.9 17 .4.3.2.4.3-.4.4-.3-.4-.2-.3-.4-.2.4-.4.2zm17.8 7.4.4.2.2.4.2-.4.5-.2-.5-.2-.2-.4-.2.4-.4.2zm.6-15.3.4.2.3.4.2-.4.4-.2-.4-.3-.2-.4-.3.4-.4.3zm-2.9 40.2.4.2.3.4.2-.4.4-.2-.4-.2-.2-.4-.3.4-.4.2zm50.2-59.5.4.2.2.4.2-.4.4-.2-.4-.2-.2-.4-.2.4-.4.2zm47.1 27.1.4.2.2.4.2-.4.4-.2-.4-.2-.2-.4-.2.4-.4.2zm-95.6-21.5.4-.2.2-.4.2.4.4.2-.4.2-.2.4-.2-.4-.4-.2zm-3.5-14.3.4-.2.2-.4.2.4.4.2-.4.3-.2.4-.2-.4-.4-.3zm51.3 53.2.4-.2.2-.4.3.4.4.2-.4.2-.3.4-.2-.4-.4-.2zm15.4.6.4-.2.2-.4.2.4.4.2-.4.2-.2.5-.2-.5-.4-.2z"/><g class="cls-26"><path d="M229 243.6c-.6 2.7-5.6 13-2.8 13.6 2.4.5 11.6 3.3 12.5 1 .4.2 4-3.9 4.4-3.8 1.3.3 1.3-.6 2.3-1.2.8 3.4 1.6-.7 5.3.1a9.61 9.61 0 0 0 6.9-1.2 18.78 18.78 0 0 0 33.9-6.8 18.14 18.14 0 0 0-.9-10.6c.7.2 1.4.4 2.2.6a18.79 18.79 0 1 0-14.6-22.2 18.14 18.14 0 0 0 .9 10.6c-.7-.2-1.4-.4-2.2-.6a18.83 18.83 0 0 0-21.5 12.1 2.92 2.92 0 0 0-.9-.2 9.54 9.54 0 0 0-9.7 3.9 4.56 4.56 0 0 0-2.9-1.7 5 5 0 0 0-5.7 3.1 5.64 5.64 0 0 0-1.2-.4 4.82 4.82 0 0 0-6 3.7Zm-63.7-50.5a19.72 19.72 0 0 0-5.8 10.1 19.05 19.05 0 0 0 14.8 22.5 25.58 25.58 0 0 0 4.7.4 12.82 12.82 0 0 0 19.4 12.2 8.87 8.87 0 0 0 6.9 7 9.18 9.18 0 0 0 5.7-.7c1.2 1.7.2 12.7 2.4 13.1 3.1.6 11.7-3.1 13.7-5.2 2.5.2 2.1-8.6 2.6-11.2a4.94 4.94 0 0 0-3.7-5.9 8.43 8.43 0 0 0-6.1-4.7 9.18 9.18 0 0 0-5.7.7 8.26 8.26 0 0 0-5.3-3.3 8.44 8.44 0 0 0-4.2.2 12.85 12.85 0 0 0-9.2-13.2 19.85 19.85 0 0 0 1.4-4.1 19.05 19.05 0 0 0-6.6-18.6 18.8 18.8 0 1 0-31.3-17.5 18.91 18.91 0 0 0 6.3 18.2Z" style="fill:url(#radial-gradient)"/><g class="cls-28"><path class="cls-8" d="m190.2 193.2.5-.5a18.89 18.89 0 0 1 6.2 18.3c0 .1-.1.3-.1.4a18.92 18.92 0 0 0-6.6-18.2Zm35.6 43a8.43 8.43 0 0 0-6.1-4.7 9.18 9.18 0 0 0-5.7.7 8.26 8.26 0 0 0-5.3-3.3 8.44 8.44 0 0 0-4.2.2 12.85 12.85 0 0 0-9.2-13.2c.1-.2.2-.5.3-.7a12.84 12.84 0 0 1 9 13.1 8.5 8.5 0 0 1 4.2-.2 9.48 9.48 0 0 1 5.3 3.3 8.53 8.53 0 0 1 5.7-.7 8.73 8.73 0 0 1 6.1 4.7 5 5 0 0 1 3.7 5.9c0 .1-.1.2-.1.4a4.76 4.76 0 0 0-3.7-5.5Zm-44.7-75.1a18.85 18.85 0 0 0-22.2 14.3.6.6 0 0 1 .1-.4 18.79 18.79 0 0 1 36.8 7.6c0 .1-.1.3-.1.4a18.59 18.59 0 0 0-14.6-21.9Zm48.5 81.1a5.11 5.11 0 0 1 5.4-2.5 5.64 5.64 0 0 1 1.2.4 5.12 5.12 0 0 1 5.7-3.1 5 5 0 0 1 2.9 1.7 9.47 9.47 0 0 1 9.7-3.9c.3.1.6.1.9.2a18.83 18.83 0 0 1 21.5-12.1 8.45 8.45 0 0 1 1.7.5l.3.9c-.7-.2-1.4-.4-2.2-.6a18.83 18.83 0 0 0-21.5 12.1 2.92 2.92 0 0 0-.9-.2 9.54 9.54 0 0 0-9.7 3.9 4.56 4.56 0 0 0-2.9-1.7 5 5 0 0 0-5.7 3.1 5.64 5.64 0 0 0-1.2-.4 5.06 5.06 0 0 0-5.9 3.6.76.76 0 0 1 .1-.4 4.71 4.71 0 0 0 .6-1.5Zm70.6-43.1a18.85 18.85 0 0 0-22.2 14.3.6.6 0 0 1 .1-.4 18.79 18.79 0 0 1 36.8 7.6c0 .1-.1.2-.1.4a18.69 18.69 0 0 0-14.6-21.9Zm-135-5.2a18.26 18.26 0 0 0-5.6 9.7.37.37 0 0 1 .1-.3 19.3 19.3 0 0 1 5.3-9.7c0 .1.1.2.2.3Zm125.7 41.6a18.67 18.67 0 0 1 .6 9.7c0 .1-.1.2-.1.3a18.59 18.59 0 0 0-1-10.2c.2.1.3.2.5.2Z"/></g></g><g class="cls-26"><path d="M231 254.9a7.72 7.72 0 0 0-1.5.2 6.22 6.22 0 0 0-6.1-5.1 6 6 0 0 0-3.9 1.4 11.53 11.53 0 0 0-10.6-7.1 4.1 4.1 0 0 0-1.1.1 23.15 23.15 0 0 0-22.8-19.9 26.35 26.35 0 0 0-2.8.2 23.08 23.08 0 1 0-19.4 10.6 26.35 26.35 0 0 0 2.8-.2 23.07 23.07 0 0 0 19.4 35.6 23.49 23.49 0 0 0 16-6.4 11.46 11.46 0 0 0 7.9 3.2 11.64 11.64 0 0 0 10.4-6.5 6.26 6.26 0 0 0 4.2 1.6 7.72 7.72 0 0 0 1.5-.2 6.2 6.2 0 0 0 12.3-1.1 6.42 6.42 0 0 0-6.3-6.4ZM338.2 196a23.1 23.1 0 1 0-42 13.2 23.44 23.44 0 0 0-11.9 26 15.75 15.75 0 0 0-14.3 13.6 10.51 10.51 0 0 0-12.1 1.4 10.78 10.78 0 0 0-6.6-2.3 10.56 10.56 0 0 0-8.5 4.2 6.26 6.26 0 0 0-6 6.2 6.33 6.33 0 0 0 5.4 6.2 10.89 10.89 0 0 0 9.1 5.1 10.62 10.62 0 0 0 7.1-2.7 10.75 10.75 0 0 0 16.6-4.4 15.5 15.5 0 0 0 10.6 4.2 15.72 15.72 0 0 0 15.6-14.1 22.55 22.55 0 0 0 5.8.8 23.43 23.43 0 0 0 23.4-23.4 22.79 22.79 0 0 0-4.4-13.6 23.21 23.21 0 0 0 12.2-20.4Z" style="fill:url(#radial-gradient-2)"/><g class="cls-28"><path class="cls-8" d="M296.3 210.2a2.51 2.51 0 0 1-.4-.7 23.23 23.23 0 0 0-12 20.4v.5a23 23 0 0 1 12.4-20.2ZM242.8 253a11 11 0 0 1 8.5-4.2 10.78 10.78 0 0 1 6.6 2.3 10.51 10.51 0 0 1 12.1-1.4 15.84 15.84 0 0 1 14.3-13.6c-.1-.3-.1-.6-.2-.9a15.73 15.73 0 0 0-14.1 13.5 10.51 10.51 0 0 0-12.1 1.4 10.78 10.78 0 0 0-6.6-2.3 10.56 10.56 0 0 0-8.5 4.2 6.26 6.26 0 0 0-6 6.2v.5a6.42 6.42 0 0 1 6-5.7Zm72.3-79.1a23 23 0 0 1 23 22.7v-.5a23.1 23.1 0 0 0-46.2 0v.5a23.31 23.31 0 0 1 23.2-22.7Zm-78.2 85.3a6.15 6.15 0 0 0-5.9-4.3 7.72 7.72 0 0 0-1.5.2 6.22 6.22 0 0 0-6.1-5.1 6 6 0 0 0-3.9 1.4 11.53 11.53 0 0 0-10.6-7.1 4.1 4.1 0 0 0-1.1.1 23.15 23.15 0 0 0-22.8-19.9c-.7 0-1.5.1-2.2.1-.2.3-.4.7-.6 1a24.58 24.58 0 0 1 2.8-.2 23 23 0 0 1 22.8 19.9c.4 0 .7-.1 1.1-.1a11.38 11.38 0 0 1 10.6 7.1 6 6 0 0 1 3.9-1.4 6.14 6.14 0 0 1 6.1 5.1 7.72 7.72 0 0 1 1.5-.2 6.16 6.16 0 0 1 6.2 5.8v-.5a5.82 5.82 0 0 1-.3-1.9Zm-74.1-69.1a23 23 0 0 1 23 22.7v-.5a23.1 23.1 0 0 0-46.2 0v.5a23.31 23.31 0 0 1 23.2-22.7Zm163.3 27.1a22.89 22.89 0 0 1 4.4 13.1v-.4a23.63 23.63 0 0 0-3.9-12.9c-.2.1-.3.2-.5.2Zm-161.2 18.9a22.5 22.5 0 0 0-3.1 11.5v.4a22.64 22.64 0 0 1 3.7-12c-.2 0-.4.1-.6.1Z"/></g></g><circle class="cls-30" cx="285.6" cy="194.7" r="1.9"/><path class="cls-30" d="m286.7 193.5-6.9-6.9v.6l-9.9-8.3.1.6-6.2-3.9 4.5 5.7h-.6l9.7 8.6-.6.1 7.6 5.6c.1.2.4.4.6.6a1.64 1.64 0 0 0 2.2-.7 1.87 1.87 0 0 0-.5-2Z"/><path class="cls-31" d="M285.3 195.8a3.45 3.45 0 0 1 .9-.8c.2-.2.4-.3.6-.5l-4-4v.4l-6-5 .1.4-8.1-6.2 7.1 7.3h-.4l5.8 5.2-.4.1Z"/><circle class="cls-32" cx="285.6" cy="194.7" r="1.5"/><path class="cls-33" d="M285 195.3a.55.55 0 0 0-.5.3 1.19 1.19 0 0 0 .9.5.37.37 0 0 0 .1-.3.54.54 0 0 0-.5-.5Zm0-.8a.3.3 0 1 0 .3.3.27.27 0 0 0-.3-.3Zm1-.1a.4.4 0 1 0-.4-.4c-.1.2.1.4.4.4Zm-1.1-.2a.47.47 0 0 0 .5-.5.37.37 0 0 0-.1-.3 1.46 1.46 0 0 0-.9.6.76.76 0 0 0 .5.2Zm.9.6c0-.1 0-.1-.1-.1s-.1 0-.1.1 0 .1.1.1.1 0 .1-.1Zm-.1.4a.2.2 0 1 0 .2-.2.22.22 0 0 0-.2.2Zm1.2-1.2a.68.68 0 0 0-.7.7.71.71 0 0 0 .3.6.52.52 0 0 0-.2.4c0 .1.1.3.2.3a1.43 1.43 0 0 0 .6-1.2 1.08 1.08 0 0 0-.2-.8Zm-.9 1.9a.32.32 0 0 0-.3.3c.2 0 .3-.1.5-.1a.22.22 0 0 0-.2-.2Z"/><g class="cls-34"><path class="cls-35" d="M284.9 194.2a.55.55 0 0 1-.5-.3 1.46 1.46 0 0 1 .9-.6 1.46 1.46 0 0 0-.9.6.55.55 0 0 0 .5.3Zm-.4 1.5a.55.55 0 0 1 .5-.3c-.2-.1-.4.1-.5.3a1.05 1.05 0 0 0 .9.5 1.05 1.05 0 0 1-.9-.5Zm.1-.9a.27.27 0 0 0 .3.3q-.15 0-.3-.3a.32.32 0 0 1 .3-.3.32.32 0 0 0-.3.3Zm1.4.6a.2.2 0 1 1 0-.4.22.22 0 0 0-.2.2c-.1.1 0 .2.2.2Zm0-1a.4.4 0 1 1 0-.8.43.43 0 0 0-.4.4c-.1.2.1.4.4.4Zm.4 1.2a.76.76 0 0 1 .2-.4.6.6 0 0 1-.3-.6.68.68 0 0 1 .7-.7.68.68 0 0 0-.7.7.71.71 0 0 0 .3.6c-.2.1-.3.3-.2.4s.1.3.2.3c-.2 0-.2-.2-.2-.3Zm-.6.6c0-.1.1-.3.2-.3-.1 0-.3.2-.2.3Zm-.1-1.3c-.1 0-.1 0-.1-.1s0-.1.1-.1c-.1 0-.1 0-.1.1a.1.1 0 0 0 .1.1Z"/></g><circle class="cls-30" cx="243.2" cy="184.7" r="39.1"/><circle class="cls-30" cx="243.2" cy="184.7" r="31.3"/><circle cx="243.2" cy="184.7" r="25.7" style="fill:#f8beca"/><path class="cls-35" d="M231.8 195.1a9.27 9.27 0 0 0-8.6 5.6 25.74 25.74 0 0 0 16.2 9.3 9.76 9.76 0 0 0 1.8-5.5 9.39 9.39 0 0 0-9.4-9.4Zm0-15.4a5.7 5.7 0 1 0 5.7 5.7 5.7 5.7 0 0 0-5.7-5.7Zm16.8-1.5a7 7 0 1 0-7-7 7 7 0 0 0 7 7Zm-18.1-3.3a9.38 9.38 0 0 0 7.3-15.3 25.88 25.88 0 0 0-15.6 10.3 9.56 9.56 0 0 0 8.3 5Zm16.3 11.2a1.8 1.8 0 1 0-1.8 1.8 1.73 1.73 0 0 0 1.8-1.8Zm-1.9 6.4a3.7 3.7 0 1 0 3.7-3.7 3.69 3.69 0 0 0-3.7 3.7Zm20.4-20.9a12 12 0 0 0-12 11.9 11.59 11.59 0 0 0 5.4 9.9 7.32 7.32 0 0 0-3.3 6.1 7.06 7.06 0 0 0 2.9 5.8 25.57 25.57 0 0 0 10.5-20.7 26.34 26.34 0 0 0-3.5-13Zm-16 33.8a4.44 4.44 0 0 0-4.4 4.4v.5a24.7 24.7 0 0 0 8.5-2.1 4.38 4.38 0 0 0-4.1-2.8Z"/><g class="cls-34"><path class="cls-35" d="M230.5 174.9h.2a9.33 9.33 0 0 1-8.2-5 25.71 25.71 0 0 1 15.4-10.2v-.1a25.88 25.88 0 0 0-15.6 10.3 9.28 9.28 0 0 0 8.2 5Zm-7.1 25.9a9.24 9.24 0 0 1 8.5-5.6h-.2a9.27 9.27 0 0 0-8.6 5.6 25.74 25.74 0 0 0 16.2 9.3 26.5 26.5 0 0 1-15.9-9.3Zm2.7-15.4a5.7 5.7 0 0 0 5.7 5.7h.1a5.7 5.7 0 0 1 0-11.4h-.1a5.63 5.63 0 0 0-5.7 5.7Zm22.5 10.8h.1a3.65 3.65 0 0 1-3.5-3.7 3.72 3.72 0 0 1 3.5-3.7h-.1a3.69 3.69 0 0 0-3.7 3.7 3.76 3.76 0 0 0 3.7 3.7Zm0-18h.1a7 7 0 0 1 0-14h-.1a7 7 0 1 0 0 14Zm7 21.4a7.19 7.19 0 0 1 3.3-6.1 11.86 11.86 0 0 1 6.3-21.8h-.1a11.86 11.86 0 0 0-11.9 11.9 11.59 11.59 0 0 0 5.4 9.9 7.32 7.32 0 0 0-3.3 6.1 7.06 7.06 0 0 0 2.9 5.8l.1-.1a7.42 7.42 0 0 1-2.7-5.7Zm-10.5 10.2a4.42 4.42 0 0 1 4.3-4.4h-.1a4.44 4.44 0 0 0-4.4 4.4v.5h.3c0-.2-.1-.3-.1-.5Zm0-21.8a1.84 1.84 0 0 1-1.7-1.8 1.77 1.77 0 0 1 1.7-1.8h-.1a1.8 1.8 0 0 0 0 3.6Z"/></g><circle class="cls-30" cx="283.8" cy="158.8" r="2.9"/><path class="cls-30" d="M285.4 156.9 275 146.5v.9L260.1 135l.1.9-9.3-5.8 6.8 8.6h-.9l14.5 12.8-.9.1 11.3 8.4a2 2 0 0 0 .9.9 2.45 2.45 0 0 0 3.3-1 2.59 2.59 0 0 0-.5-3Z"/><path class="cls-31" d="M283.2 160.3a8 8 0 0 1 1.3-1.3 3.59 3.59 0 0 1 1-.7l-6.1-6.1v.6l-9-7.5.1.6-12.2-9.3 10.7 11h-.6l8.8 7.8-.6.1Z"/><circle class="cls-32" cx="283.8" cy="158.8" r="2.2"/><path class="cls-33" d="M282.8 159.7a.75.75 0 0 0-.7.5 2.19 2.19 0 0 0 1.4.8.76.76 0 0 0 .2-.5 1 1 0 0 0-.9-.8Zm0-1.4a.5.5 0 1 0 .5.5.54.54 0 0 0-.5-.5Zm1.4-.1a.6.6 0 1 0-.6-.6.65.65 0 0 0 .6.6Zm-1.6-.3a.79.79 0 0 0 .8-.8.76.76 0 0 0-.2-.5 2.16 2.16 0 0 0-1.4.9c.3.2.5.4.8.4Zm1.5 1a.2.2 0 1 0-.2.2c.1-.1.2-.1.2-.2Zm-.2.5a.3.3 0 1 0 .3-.3.45.45 0 0 0-.3.3Zm1.8-1.8a1 1 0 0 0-1 1 1.05 1.05 0 0 0 .5.9.57.57 0 0 0 0 1 2.14 2.14 0 0 0 .9-1.8 4.87 4.87 0 0 0-.4-1.1Zm-1.4 3a.43.43 0 0 0-.4.4 1.45 1.45 0 0 0 .7-.2c0-.1-.2-.2-.3-.2Z"/><g class="cls-34"><path class="cls-35" d="M282.6 157.9a.84.84 0 0 1-.7-.4 2.38 2.38 0 0 1 1.3-.9 2.16 2.16 0 0 0-1.4.9c.3.2.5.4.8.4Zm-.6 2.3a.75.75 0 0 1 .7-.5.75.75 0 0 0-.7.5 2.19 2.19 0 0 0 1.4.8 2.85 2.85 0 0 1-1.4-.8Zm.3-1.4a.47.47 0 0 0 .5.5.5.5 0 0 1 0-1 .47.47 0 0 0-.5.5Zm1.9 1a.3.3 0 1 1 0-.6.27.27 0 0 0-.3.3.45.45 0 0 0 .3.3Zm0-1.6a.6.6 0 0 1 0-1.2.6.6 0 0 0 0 1.2Zm.6 1.9a.55.55 0 0 1 .3-.5 1.05 1.05 0 0 1-.5-.9 1 1 0 0 1 1-1 1 1 0 0 0-1 1 1.05 1.05 0 0 0 .5.9c-.2 0-.3.2-.3.5a.76.76 0 0 0 .2.5c-.1-.2-.2-.3-.2-.5Zm-.9.8a.43.43 0 0 1 .4-.4c-.2.1-.4.2-.4.4Zm0-1.9c-.1 0-.1-.1-.1-.2a.35.35 0 0 1 .1-.2.22.22 0 0 0-.2.2c0 .2.1.2.2.2Z"/></g><circle class="cls-30" cx="221.2" cy="222" r="1.4"/><path class="cls-30" d="m222 221.1-5-5v.4l-7.1-6 .1.4-4.5-2.8 3.2 4.1h-.4l6.9 6.1-.4.1 5.4 4c.1.2.3.3.4.4a1.17 1.17 0 0 0 1.6-.5c.3-.2.2-.8-.2-1.2Z"/><path class="cls-31" d="m221 222.8.6-.6a2.19 2.19 0 0 1 .5-.3l-2.9-2.9v.3l-4.3-3.6v.3l-5.8-4.5 5.1 5.3h-.3l4.2 3.7h-.3Z"/><circle class="cls-32" cx="221.2" cy="222" r="1.1"/><path class="cls-33" d="M220.7 222.5a.52.52 0 0 0-.4.2 1.61 1.61 0 0 0 .7.4c0-.1.1-.1.1-.2 0-.3-.1-.4-.4-.4Zm0-.7a.2.2 0 1 0 .2.2c0-.1 0-.2-.2-.2Zm.8 0a.3.3 0 1 0-.3-.3.27.27 0 0 0 .3.3Zm-.8-.2a.43.43 0 0 0 .4-.4c0-.1 0-.2-.1-.2a.92.92 0 0 0-.6.4c0 .1.1.2.3.2Zm.7.5c0-.1-.1-.1 0 0a.14.14 0 0 0-.2 0 .14.14 0 0 0 .2 0Zm-.1.2a.2.2 0 1 0 .2-.2Zm.8-.8a.47.47 0 0 0-.5.5.52.52 0 0 0 .2.4c-.1.1-.1.1-.1.3s0 .2.1.2a1 1 0 0 0 .4-.9.44.44 0 0 0-.1-.5Zm-.6 1.4a.22.22 0 0 0-.2.2.76.76 0 0 0 .4-.1c-.1-.1-.1-.1-.2-.1Z"/><g class="cls-34"><path class="cls-35" d="M220.7 221.6c-.1 0-.3-.1-.3-.2.2-.2.4-.4.6-.4a.92.92 0 0 0-.6.4c0 .1.1.2.3.2Zm-.3 1.1a.52.52 0 0 1 .4-.2.52.52 0 0 0-.4.2 1.61 1.61 0 0 0 .7.4 1.61 1.61 0 0 1-.7-.4Zm.1-.7a.22.22 0 0 0 .2.2c-.1.1-.2 0-.2-.2a.22.22 0 0 1 .2-.2.22.22 0 0 0-.2.2Zm1 .5c-.1 0-.1-.1-.1-.2s.1-.1.1-.2a.2.2 0 0 0 0 .4Zm0-.7a.3.3 0 0 1 0-.6.3.3 0 0 0 0 .6Zm.2.8c0-.1.1-.2.1-.3a.52.52 0 0 1-.2-.4.47.47 0 0 1 .5-.5.47.47 0 0 0-.5.5.52.52 0 0 0 .2.4c0 .1-.1.2-.1.3s0 .2.1.2a.35.35 0 0 1-.1-.2Zm-.4.5a.22.22 0 0 1 .2-.2.22.22 0 0 0-.2.2Z"/><path class="cls-35" d="M221.3 222.2c-.1-.1 0-.1 0-.2s-.1 0 0 .2Z"/></g><path d="M299 143.3a47.86 47.86 0 0 0-36.3-16.7h-19a185.4 185.4 0 0 0-68.2 54.5v24.7a48 48 0 0 0 17.3 36.8c16.7-28.4 50.4-73.2 106.2-99.3Zm11.6 28.9a48.27 48.27 0 0 0-4.5-18.1c-19 10-67.2 39.6-99.8 96.3a46.78 46.78 0 0 0 16.7 3.2c15.8-26.6 43.8-62.1 87.6-81.4Zm-69.9 81.4h5.7c13-20.8 33.9-47.1 64.2-65.3V184c-15.9 8.7-46 29.4-69.9 69.6Z" style="opacity:.19;fill:url(#radial-gradient-3);isolation:isolate"/><path class="cls-8" d="M290.4 205.8c-2.9 13.9-10.5 25.9-26.1 25.3-10.6-.4-10.6 16.2 0 16.5 22.8.8 37.6-16.5 42-37.5 2.2-10.3-13.8-14.8-15.9-4.3Zm-.6-25.7c-.1 2.3.1 4.6-.2 6.8.1-.7.2-1.5.3-2.2v.1l2.1-3.6c-1.4 1.8-2.4 3.5-2.4 5.8a8.43 8.43 0 0 0 2.4 5.8c3 2.8 8.8 3.6 11.7 0a9.76 9.76 0 0 0 2.5-6c0-.5.1-.9.1-1.4 0-1.8.1-3.6.1-5.4.1-4.3-3.9-8.5-8.3-8.3a8.64 8.64 0 0 0-8.3 8.4Zm-89.5-21c1.7-1.5 3.2-3.3 5-4.7-.6.4-1.2.9-1.8 1.3h.1c-1.4.4-2.7.7-4.1 1.1a8.67 8.67 0 0 0 5.9-2.4 8.43 8.43 0 0 0 2.4-5.8c-.2-4.1-3.6-8.8-8.2-8.3a10.11 10.11 0 0 0-6 2.5 9 9 0 0 0-1 .9c-1.3 1.2-2.6 2.5-3.9 3.7a8.24 8.24 0 0 0 0 11.7 8.5 8.5 0 0 0 11.6 0Zm18.3-12.4a32 32 0 0 1 2.7-2.5 8.65 8.65 0 0 1-1 .7l-2.2.6a4.82 4.82 0 0 0 3.2-1.3 4.22 4.22 0 0 0 1.3-3.2c-.1-2.2-2-4.8-4.5-4.5a5.92 5.92 0 0 0-3.3 1.3c-.2.2-.4.3-.6.5-.7.7-1.4 1.3-2.1 2a4.44 4.44 0 0 0 0 6.3 4.59 4.59 0 0 0 6.5.1Z" style="opacity:.17"/><path class="cls-4" d="m222.6 54.4 11.4-3.8 7.4 5.5 17.6-8.6 7.1 6.9h9.1l10.9-6.9 8.1 3.5-15-3.5-7.5 9.9-11-3-13.5-6.9-6.7 6.9-6.9-1.9-11 1.9z"/></svg>