<svg id="OBJECTS" xmlns="http://www.w3.org/2000/svg" xmlns:xlink="http://www.w3.org/1999/xlink" viewBox="0 0 519 321.3"><defs><linearGradient id="linear-gradient" x1="388.17" y1="72.16" x2="412.92" y2="72.16" gradientTransform="matrix(.81 .59 .59 -.81 -73.04 103.69)" gradientUnits="userSpaceOnUse"><stop offset="0" stop-color="#343a44"/><stop offset=".3" stop-color="#232d3e"/><stop offset=".64" stop-color="#182439"/><stop offset="1" stop-color="#142138"/></linearGradient><linearGradient id="linear-gradient-2" x1="316.2" y1="-677.75" x2="340.95" y2="-677.75" gradientTransform="matrix(1 0 0 -1 0 -392.6)" xlink:href="#linear-gradient"/><linearGradient id="linear-gradient-3" x1="362.2" y1="-600.45" x2="444.3" y2="-600.45" gradientTransform="matrix(1 0 0 -1 0 -392.6)" xlink:href="#linear-gradient"/><style>.cls-1{fill:#dca86e}.cls-6{fill:#fec4ad}.cls-8{fill:#f8d2a1}.cls-9{fill:none;stroke-miterlimit:10;stroke:#d4dbe2;stroke-width:.25px}.cls-10{fill:#ffba01}.cls-11{fill:#d2dceb}.cls-14{fill:#a6aeba}.cls-16{fill:#fff}.cls-17{fill:#0f7cff}</style></defs><path class="cls-1" d="m408 235.5 28.2 60.8h3.2L415 231.5l-7 4zm-29.1 1.3-28.1 59.5h-3.2l24.3-60.9 7 1.4z"/><path d="m307.4 283.3-14.3 12.5-16.9-11.9s5.7-1.9 15.6.7l10.1-8.5Z" style="fill:url(#linear-gradient)"/><path d="M390.2 214.2s-31.6 16.2-42.8 21.1-49.2 42.9-49.2 42.9 4.9 9.9 7.3 8.2c21.5-15.3 41.2-29.1 54-33.9 25.2-9.5 32.2-11.6 38.6-19 0 0-3.8-9-7.9-19.3Z" style="fill:#2167be"/><path d="m340.9 276.9-4.1 18.6-20.6.4s3.5-5 13-8.7l3.1-12.8Z" style="fill:url(#linear-gradient-2)"/><path d="M391 210.1s-29.4 3.2-40.2 9-19.3 58.7-19.3 58.7 8.3 4.5 9.4 1.7a369.79 369.79 0 0 1 17.6-40.4c10.6-1.9 35.1 10 52.8-7.4-.1-.1-15.4-11.7-20.3-21.6Z" style="fill:#277fd9"/><path class="cls-6" d="M441.7 174.3a41.81 41.81 0 0 0-3.5 7.9l-12.1-1.1s6.2-9.5 5.8-15.2Z"/><path class="cls-6" d="M439.1 154.8c-.7-.2-3.3-.9-3.8-.7-.7.3.1 1.2-.4 1.8-.8.9-2.5 1-3.5 1.5a7.42 7.42 0 0 0-2.9 2.6c-1 1.7 2.6 5.6 3.2 8.5 1.2 6.1 8.8 7 15.1 5.1a11.26 11.26 0 0 0 5.5-4.6c1.4-2.3.6-6.1-.6-8.4a10.05 10.05 0 0 0-3.4-3.4c-1.1-.8-1.4-4-2.8-4.2 0 .1-4.9 2.2-6.4 1.8Z"/><path d="M362.2 233.2s19.6 7.3 45.8-2.6 33.3-56.3 33.3-56.3l3 1.5s-2.9 51.1-37.4 62.2c-26.3 8.5-44.7-1.6-44.7-1.6v-3.2Z" style="fill:url(#linear-gradient-3)"/><path class="cls-8" d="M438.1 204.5s3.1 10.9 3.3 16.3-2.1 23.8-2.1 23.8l5 .6s4.4-21.9 4.5-29.1-4-18.7-4-18.7Z"/><path class="cls-8" d="M437.1 247.3c-1.2 2.3-1.7 3.9-1 4.5.5.4 1.3-1.8 2.2-2.6a6.67 6.67 0 0 1-.3 4.1c-.7 1.6-.6 3 .6 3.2s3.3 0 3.7-1 1.5-5.3 2-6.8-.2-3.1 0-3.9-3.7-2.2-3.7-2.2c-.2.3-1.4 2-1.4 2a9 9 0 0 1-1.4 1.4 8.79 8.79 0 0 0-.7 1.3Z"/><path class="cls-9" d="M407.6 25v37.7"/><circle class="cls-10" cx="407.6" cy="76.7" r="6.6"/><path class="cls-11" d="M438.8 79.5h-62.5l27.4-19.9h7.7l27.4 19.9z"/><path class="cls-9" d="M113.6 25v37.7"/><circle class="cls-10" cx="113.7" cy="76.7" r="6.6"/><path class="cls-11" d="M144.8 79.5H82.4l27.3-19.9h7.8l27.3 19.9z"/><path style="stroke:#a6aeba;stroke-width:.5px;fill:none;stroke-miterlimit:10" d="M46 296h427"/><path class="cls-11" d="M204 188.2h-10l-3-17.6h16.5l-3.5 17.6z"/><path class="cls-1" d="m318.3 193 16.4 103.1h3.2l-13-103.1h-6.6zm-113.7.1-21.5 103.2h-4.2l16.8-103.2h8.9z"/><path class="cls-1" d="M170.8 187h177.4v7.9H170.8z"/><path style="fill:#f3ba7a" d="M162.3 187h194.4v5.3H162.3z"/><path class="cls-14" d="M302.3 184.2h-6.9l-6.9-44h5.3l8.5 44z"/><path class="cls-11" d="M300.4 184.2h-27l-6.9-44h27l6.9 44z"/><path class="cls-11" d="M273.1 183.2h29.3v3.3h-29.3z"/><path class="cls-14" d="M302.3 183.2h36.9v3.3h-36.9zm-16.7-18.8c.8 3.4.2 7-1.2 8.1s-3.3-.7-4-4.1-.2-7 1.2-8.1 3.2.7 4 4.1Zm-41.9 22h-3.8a3.32 3.32 0 0 1-3.2-2.7l-1.5-9.8h13.2l-1.5 9.8a3.32 3.32 0 0 1-3.2 2.7Z"/><path class="cls-14" d="M247.2 184.3h-.6l-.1-.1a6.12 6.12 0 0 1-2.3-4.3c0-2.6 1.7-4.6 3.8-4.6a3.66 3.66 0 0 1 3.8 4.7c-.6 2.7-2.2 4.3-4.6 4.3Zm-.1-1.2c2.4.1 3.2-1.8 3.5-3.4a3.36 3.36 0 0 0-.4-2.5 2.66 2.66 0 0 0-2.2-.9c-1.4 0-2.6 1.5-2.6 3.4a4.73 4.73 0 0 0 1.7 3.4Z"/><path class="cls-11" d="M233.9 187.2h16.7l2.6-2.9h-22l2.7 2.9z"/><path style="fill:#b6bfcc" d="M65.2 123h80v173.1h-80z"/><path class="cls-11" d="M74.4 130.5H136v18.2H74.4z"/><path class="cls-16" d="M112.5 141.8H97.9a.86.86 0 0 1-.8-.8v-2.8a.86.86 0 0 1 .8-.8h14.5a.86.86 0 0 1 .8.8v2.8a.67.67 0 0 1-.7.8Z"/><path class="cls-11" d="M74.4 153.6H136v18.2H74.4z"/><path class="cls-16" d="M112.5 164.9H97.9a.86.86 0 0 1-.8-.8v-2.8a.86.86 0 0 1 .8-.8h14.5a.86.86 0 0 1 .8.8v2.8a.67.67 0 0 1-.7.8Z"/><path class="cls-11" d="M74.4 176.7H136v18.2H74.4z"/><path class="cls-16" d="M112.5 188H97.9a.86.86 0 0 1-.8-.8v-2.8a.86.86 0 0 1 .8-.8h14.5a.86.86 0 0 1 .8.8v2.8a.67.67 0 0 1-.7.8Z"/><path class="cls-11" d="M74.4 200.1H136v89H74.4z"/><path class="cls-16" d="M112.5 211.4H97.9a.86.86 0 0 1-.8-.8v-2.8a.86.86 0 0 1 .8-.8h14.5a.86.86 0 0 1 .8.8v2.8a.71.71 0 0 1-.7.8Z"/><path class="cls-17" d="M456.5 171s-.2-1 1.5-2.7c5.8-5.5-.4-16.2-6.7-18-3.2-1-5.3.1-6.5-3.2.1.2-1.3.8-1.4.9a2.32 2.32 0 0 0-1.1 2.2c-.1 4.7 4.1 9 7.2 12 1.4 1.3-2.1.4-3.5.7-.9.2-3.3 2.7-3.8 3.1 1.3 1.7 2.5.2 4.3 1s.6 2.8-.9 3.1a3.28 3.28 0 0 1-3.4-1.2c-1.1.6-1.3 4.1-2.1 5.1 1.2.7 8.1 1.9 9.7 1.8a7.16 7.16 0 0 0 6.7-4.8Zm-15.2 5.2c2.5 28.3-30.1 55.4-30.1 55.4s-21.3.8-20.3-21.6c0 0 1.7-4.1 14.8-16 8.8-8 15-19.9 21.2-19.6 17 .7 14.4 1.8 14.4 1.8Zm-240.1-11.3a26.35 26.35 0 0 1 3.7-6.1c2.4-2.9 6-7.7 6-7.7s-1.7 3.4-4.1 7.3a31.63 31.63 0 0 1-5.6 6.5Zm2.5-5.7a15.67 15.67 0 0 0 4.2-6.5c1.6-4.4 3-7.8 3-7.8a65.15 65.15 0 0 0-4.9 8.3c-1.4 3.5-2.3 6-2.3 6Zm-2.3 5a55.65 55.65 0 0 0 1.7-9.1 62.74 62.74 0 0 0 .2-6.5s-1.7 7.3-2.3 10.4a10.14 10.14 0 0 0 .4 5.2Zm-1.2 3.4a30.65 30.65 0 0 0-1-9.8 27.16 27.16 0 0 1-1.5-7.6 32.4 32.4 0 0 0 .1 9.1 58.51 58.51 0 0 0 2.4 8.3Zm.4-1.2a34.47 34.47 0 0 1 5.6-3.9 20.11 20.11 0 0 0 4.5-2.9s-3.2 4.1-5 4.9a42.48 42.48 0 0 1-5.1 1.9Zm-1.2 4.4a14.41 14.41 0 0 0-1.3-6.9 39.08 39.08 0 0 1-2-6s-.1 5.5 1 7.5 2.3 5.4 2.3 5.4Zm.3-2a12 12 0 0 1 4.2-1.7 10.29 10.29 0 0 0 2.6-.6 4.72 4.72 0 0 1-3.6 2.2 10.17 10.17 0 0 1-3.2.1Z"/><path class="cls-17" d="M198.3 173.5c.5-1.8 1-4.5 1.7-6.4a52.42 52.42 0 0 1 4.5-9.3c-1.9 4.3-3.4 6.8-4.4 10.5-.4 1.5-1.1 3.5-1.4 4.9 0 .4-.3.7-.4.3Zm1-7.2a27.84 27.84 0 0 0-1.6-7.4c-1.4-3.7-3.3-9.8-3.3-9.8s.6 4 1.6 8.7a30.76 30.76 0 0 0 3.3 8.5Zm-.6-6.5a16.63 16.63 0 0 1-2-8c-.1-5-.4-8.9-.4-8.9a62.56 62.56 0 0 1 2.1 10.1c.3 4 .3 6.8.3 6.8Zm.6 5.8a64.38 64.38 0 0 1 1.5-9.7c1.1-4.1 2-6.7 2-6.7s-.8 7.9-1.3 11.2a11.23 11.23 0 0 1-2.2 5.2Z"/><path class="cls-17" d="M199.3 169.4a29.45 29.45 0 0 1 4.4-9.5 33.43 33.43 0 0 0 4.2-7.1 34.45 34.45 0 0 1-3.3 9.1 62 62 0 0 1-5.3 7.5Zm0-1.3s-2.6-4.4-4.2-5.8a24.91 24.91 0 0 1-3.5-4.5s1.8 5.2 3.3 6.7 4.4 3.6 4.4 3.6Zm-.2 4.9a15 15 0 0 1 3.7-6.4 47.6 47.6 0 0 0 4.1-5.3s-1.8 5.5-3.6 7.2a51.58 51.58 0 0 0-4.2 4.5Zm.3-2.2a10.89 10.89 0 0 0-3.6-3.1 8.29 8.29 0 0 1-2.4-1.5 5 5 0 0 0 2.8 3.4 10.12 10.12 0 0 0 3.2 1.2Z"/><path class="cls-17" d="M199.2 176c.2-1.9.5-4.9.5-7a57.79 57.79 0 0 0-1.3-10.9c.5 5 1.1 8 .7 12-.1 1.6-.2 3.9-.3 5.4 0 .5.2.9.4.5Zm-2.7-8.9a26.35 26.35 0 0 0-3.7-6.1c-2.4-2.9-6-7.7-6-7.7s1.7 3.4 4.1 7.3a31.63 31.63 0 0 0 5.6 6.5Zm-2.5-5.6a15.67 15.67 0 0 1-4.2-6.5c-1.6-4.4-3-7.8-3-7.8a65.15 65.15 0 0 1 4.9 8.3c1.4 3.4 2.3 6 2.3 6Zm2.3 4.9a55.65 55.65 0 0 1-1.7-9.1 62.74 62.74 0 0 1-.2-6.5s1.7 7.3 2.3 10.4a10.14 10.14 0 0 1-.4 5.2Z"/><path class="cls-17" d="M197.5 169.8a30.65 30.65 0 0 1 1-9.8 27.16 27.16 0 0 0 1.5-7.6 32.4 32.4 0 0 1-.1 9.1 58.51 58.51 0 0 1-2.4 8.3Zm-.5-1.2a34.47 34.47 0 0 0-5.6-3.9 20.11 20.11 0 0 1-4.5-2.9s3.2 4.1 5 4.9a50.3 50.3 0 0 0 5.1 1.9Zm1.3 4.5a14.41 14.41 0 0 1 1.3-6.9 39.08 39.08 0 0 0 2-6s.1 5.5-1 7.5-2.3 5.4-2.3 5.4Zm-.3-2.1a12 12 0 0 0-4.2-1.7 10.29 10.29 0 0 1-2.6-.6 4.72 4.72 0 0 0 3.6 2.2 10.17 10.17 0 0 0 3.2.1Z"/><path class="cls-17" d="M199.4 175.8c-.5-1.8-1-4.5-1.7-6.4a52.42 52.42 0 0 0-4.5-9.3c1.9 4.3 3.4 6.8 4.4 10.5.4 1.5 1.1 3.5 1.4 4.9 0 .3.3.6.4.3Zm238.4 29.1c3.6 15.8 2.1 37 2.1 37l5.4.3c5.9-12.4 5.4-39.9 2.2-51.5-1.8-6.8-2.9-13.6-7.5-14.7-2.9-.7-8.8 1.4-9.6 4.3-1.6 6.3 5.7 16.9 7.4 24.6Z"/></svg>