<svg id="OBJECTS" xmlns="http://www.w3.org/2000/svg" viewBox="0 0 519 321.3"><defs><style>.cls-1{fill:#002e4f}.cls-2{fill:#ffeae6}.cls-3{fill:#e1f3f6}.cls-5{fill:#70190a}.cls-6{fill:#f83600}.cls-7{fill:#ffcdc2}.cls-8{fill:#00396a}.cls-9{fill:#cde5e8}.cls-11{fill:none;stroke:#e8f7ef;stroke-miterlimit:10;stroke-width:.87px}</style></defs><path class="cls-1" d="M385.8 273.3c-3.3 4.3-7.2 7.5-6.4 9 0 0 1.8 1.3 6.6 1.3 8.4 0 16.6-.6 15.2-1.5-1.9-1.2-7.3-1.6-12.5-3.4-1.3-.4 2.8-2.9 1.7-3.3a37.44 37.44 0 0 1-4.6-2.1ZM472 282s1.1 1.5 5.3 1.5c7.2 0 14.8-1 13.6-1.7-1.6-1-14.3-3.7-14.3-3.7l-2.8-3.5-4.8 2.7Z"/><path class="cls-2" d="M449.1 175.5a38.2 38.2 0 0 1-9.4-1.1 5.07 5.07 0 0 1 2.6-9.8c.2 0 11.6 3 18.3-2.7 4.5-3.8 6.2-11 5-21.4l-.4-3.3 10.3-5.8a5.06 5.06 0 1 1 5 8.8l-4.5 2.6c.7 12.2-2.3 21.3-8.9 26.9-5.6 4.6-12.5 5.8-18 5.8Z"/><path class="cls-3" d="M466.6 147.3c-.2 7.4-2.2 12.7-5.9 15.9-7.3 6.3-19.8 3.1-20 3a5.57 5.57 0 0 0-6.8 3.9 5.49 5.49 0 0 0 3.9 6.8 25.34 25.34 0 0 0 10.4 2c21.6-.8 34.6-19.4 34.9-30.3Z"/><path d="M436.9 121.5c-1.9-.9-3.8-1.8-5.7-2.8-17.9 10.2-40.8 23.2-41.2 23.7 0 0 11.4 18.1 12.1 18.8.5.5 28.6-19.7 48.9-34.4-4.6-1.8-9.5-3.2-14.1-5.3Zm.3-.5c4.7 2.1 9.6 3.6 14.4 5.4 11.2-8.1 19.8-14.3 19.8-14.3l-19.1-5.4-20.5 11.6q2.7 1.5 5.4 2.7Z" style="fill:#872b1f"/><path class="cls-5" d="m404.4 97.2 11.2 30.4 21.9 8.1-27.8-50.8-5.3 12.3zm34.3 46h-16.2l14.4 25.2 22.1 9.3-20.3-34.5z"/><path class="cls-6" d="m459 177.7-12.9-22.1-55.4 32.5-10.9-18.6L386.6 59l24.9-14.6 44.8 76.4 15.1-8.8 12.5 21.4-15.1 8.8 12.9 22.1ZM408.8 92l-1.4.8-3.8 59 30-17.6Z"/><path class="cls-5" d="m361.4 164.5 18.4 5.1 10.9 18.5-19.5-4.9-9.8-18.7z"/><path class="cls-5" d="m361.4 164.5 18.4 5.1 6.8-110.5-16.9-4.1-8.3 109.5z"/><path class="cls-7" d="m369.7 55 16.9 4.1 24.9-14.6-17.1-5L369.7 55z"/><path class="cls-1" d="M406.8 208.5s2.7 29.2 2.7 39.4c0 0-21.3 16.6-26.5 25.2 2.2 1.7 6.7 4 9.5 3.9a210 210 0 0 1 29.8-23.2s6.7-19.5 8.8-36Z"/><path class="cls-3" d="M421.9 209.9a29.35 29.35 0 0 0 13.8-3c-1.4-5.8 1.6-23 5.3-32.2 0 0 2.9-6.4.9-8.4-7.6-7.3-14-6.7-16-6.8-6.9 5.9-19.9 23.1-19.3 46 3.5 3.8 10.7 4.4 15.3 4.4Z"/><path class="cls-8" d="M468.8 278.1c2.8-.8 5.4-2 7.1-4.3-8.2-13.3-38.3-62.2-39.9-66 0-.1-.1-.2-.1-.3a28.79 28.79 0 0 1-14.8 3c-4.5-.2-10.9-.8-14.5-4.1v.7c.6 12.8 43 55.3 59.6 71.6.9-.2 1.8-.4 2.6-.6Z"/><path class="cls-2" d="M381.4 196.7a12.7 12.7 0 0 1-3.4-.5c-2.2-.7-5.2-2.6-6.6-7.4a5.06 5.06 0 1 1 9.7-2.9 3.93 3.93 0 0 1 .2.6c.5 0 2.6-.2 7.4-3 4.4-2.6 9.5-6.4 14.5-10.1 8.4-6.3 16.4-12.2 23-14.2a5.09 5.09 0 0 1 3.1 9.7c-5 1.6-12.6 7.2-20 12.7-10.7 8-20.3 15.1-27.9 15.1Z"/><path class="cls-2" d="M390.9 192.9c-.6-3-1.3-6.3-3.2-8.7-4.1 2.3-5.8 2.4-6.3 2.4-.1-.1-.1-.3-.2-.6a5.06 5.06 0 1 0-9.7 2.9 10.57 10.57 0 0 0 6.6 7.4 9.67 9.67 0 0 0 3.4.5c2.9 0 6.2-1.1 9.7-2.8a9.68 9.68 0 0 1-.3-1.1Z"/><path class="cls-3" d="M432.8 162.5a5 5 0 0 0-6.4-3.3c-6.6 2.1-14.6 8-23 14.2-5 3.7-10.2 7.5-14.5 10.1l-.6.3c1.9 2.5 5.2 14.9 5.2 15.2 5.4-2.8 31.2-22.5 36.8-28.4 1.9-2.1 3.3-5.5 2.5-8.1Z"/><path class="cls-2" d="M374.2 192.6a1.61 1.61 0 0 1-.9-.3c-4-2.8-6.1-8.3-6.1-8.6a1.49 1.49 0 0 1 2.8-1s1.9 4.9 5.1 7.2a1.46 1.46 0 0 1 .3 2.1 1.56 1.56 0 0 1-1.2.6Z"/><path class="cls-2" d="M374.2 188.9a1.43 1.43 0 0 1-1.2-.6c-1.9-2.7-3.4-9.1-3.6-9.8a1.49 1.49 0 1 1 2.9-.7c.4 1.8 1.8 6.9 3.1 8.8a1.48 1.48 0 0 1-.4 2.1 1.88 1.88 0 0 1-.8.2Z"/><path class="cls-2" d="M376.3 188.1a1.51 1.51 0 0 1-1.4-.9c-1.4-3.4-1.9-10.4-1.9-10.7a1.5 1.5 0 0 1 3-.2c.1 1.9.7 7.4 1.7 9.8a1.48 1.48 0 0 1-.8 1.9c-.2 0-.4.1-.6.1Z"/><path class="cls-2" d="M378.5 187.4a1.32 1.32 0 0 1-1.4-1.1 16.69 16.69 0 0 1 0-7.5 1.49 1.49 0 1 1 2.9.7 15.79 15.79 0 0 0 0 6.1 1.49 1.49 0 0 1-1.1 1.8Zm60-16.8a3.51 3.51 0 0 1-2-.5 4.83 4.83 0 0 1-2.3-6.4 32.84 32.84 0 0 1 3.5-5.3 4.76 4.76 0 0 1 7.3 6.1 17.2 17.2 0 0 0-2.2 3.3 4.56 4.56 0 0 1-4.3 2.8Z"/><path class="cls-7" d="m439.2 168.1 1.8 1.8a6.06 6.06 0 0 0 1.9-2 27 27 0 0 1 2.2-3.3 4.76 4.76 0 0 0-7.3-6.1c-.1.1-.5.6-1 1.3 0 2.9.3 6 2.4 8.3Z"/><path class="cls-2" d="M454.9 162.9a9.05 9.05 0 0 1-11.8 4.9 9.05 9.05 0 0 1-4.9-11.8l2.4-5.8a9.05 9.05 0 0 1 11.8-4.9 9.05 9.05 0 0 1 4.9 11.8Z"/><path class="cls-8" d="M439.2 155.3c-.7 3.1-5.2 2.1-6.9.5-2.3-2.2-3.7-8.5 1.4-8.2-3.7-5.6 8.8-11.6 10.1-5.2 1-1.7 2-3.1 4.1-3.3 1.6-.1 4.3 1.1 4.1 3a6.46 6.46 0 0 1 8 .2c.7.6 2.1 1.9 1.4 2.9-.4.5-2.2.7-2.9.9 1.1-.5 5.5.5 4.7 2.3-.4.9-2.6.1-3.2-.1v.2c2.4 1.3 3.4 2.6 3.1 5.6-.1 1.4-.8 3.9-2.4 4.1-.8.1-1.8-.4-1.8-1.3 2 2-.8 7.3-3.3 4.7-1-1-.5-2.7.4-3.6-1.5-.9-4.7-5.4-2.4-6.6-1.1 0-6-1.7-4.4-3.1.4 1.7-1.6 3.8-3.3 2.9 1 2.2-2 3.8-3.8 3.9 1.1 1.4-2.3 3.1-3.4 1Z"/><path class="cls-2" d="M269.6 137.3s-2.9-11.1 11.5-13.7l-1.1 13.3Z"/><path class="cls-9" d="M212 165.3a20.19 20.19 0 0 1-8.8-1.9c-13.1-6.2-14.5-24.7-14.6-25.5a5.06 5.06 0 1 1 10.1-.7c.3 3.7 2.4 14.1 8.8 17.1 5.3 2.5 13.5 0 23.7-7.3a5.09 5.09 0 1 1 5.9 8.3c-9.5 6.6-17.9 10-25.1 10Z"/><path class="cls-7" d="M239 174.8c1.4-3.7 2.7-7.5 4.2-11.1-1-.1-2.1-.2-3.1-.4a24.83 24.83 0 0 1-12.5-6 29.94 29.94 0 0 1-7.9-11.6 48.91 48.91 0 0 1-3.2-16 83.94 83.94 0 0 1 1.4-19 78.58 78.58 0 0 1 5.7-18.3 50.07 50.07 0 0 1 8.9-13.6 30.42 30.42 0 0 1 11.6-7.9 25.62 25.62 0 0 1 13.8-1 24.45 24.45 0 0 1 10.3 4.4c1.4-2.9 3-5.7 4.5-8.5 1.7-3.3 3.4-6.7 4.9-10.1.7-1.5 1.2-3 1.8-4.5a53.27 53.27 0 0 0-16.8-6 50.33 50.33 0 0 0-24.8 1 55.27 55.27 0 0 0-20.9 11.6 70 70 0 0 0-15.8 20.5 98 98 0 0 0-9.4 27.5 99 99 0 0 0-1.4 29 71.64 71.64 0 0 0 7.1 24.8 55.74 55.74 0 0 0 15.2 18.5 51 51 0 0 0 20.9 9.7c2-4.4 3.8-8.6 5.5-13Z"/><path class="cls-5" d="M307.7 98.5a71.64 71.64 0 0 0-7.1-24.8 55.74 55.74 0 0 0-15.2-18.5 51.42 51.42 0 0 0-5.4-3.7c-.6 1.5-1.2 3-1.8 4.4-1.6 3.4-3.2 6.8-4.9 10.1-1.5 2.8-3 5.7-4.5 8.6l1.5 1.2a31.65 31.65 0 0 1 8 11.7 51.56 51.56 0 0 1 3.4 16 80.41 80.41 0 0 1-1.5 19.1 86.24 86.24 0 0 1-5.6 18.2 49.35 49.35 0 0 1-9 13.7 30.75 30.75 0 0 1-11.7 7.9 23.9 23.9 0 0 1-9.9 1.5c-1.7 4-3.1 8.1-4.7 12.2s-3.2 7.9-5 11.9a5 5 0 0 0 1.2.2 50.38 50.38 0 0 0 24.8-1 56 56 0 0 0 20.9-11.6 70 70 0 0 0 15.8-20.5 98 98 0 0 0 9.4-27.5 103.18 103.18 0 0 0 1.3-29.1Z"/><path class="cls-6" d="M250.9 193.3a52.15 52.15 0 0 1-22.7-10 55.74 55.74 0 0 1-15.2-18.5 67.56 67.56 0 0 1-7.1-24.8 99 99 0 0 1 1.4-29 98 98 0 0 1 9.4-27.5A71.35 71.35 0 0 1 232.5 63a56 56 0 0 1 20.9-11.6 52.8 52.8 0 0 1 24.8-1 52.15 52.15 0 0 1 22.7 10 55.74 55.74 0 0 1 15.2 18.5 69.54 69.54 0 0 1 7.1 24.8 99 99 0 0 1-1.4 29 98 98 0 0 1-9.4 27.5 71.35 71.35 0 0 1-15.8 20.5 56 56 0 0 1-20.9 11.6 51.65 51.65 0 0 1-24.8 1Zm4.7-24.8a25 25 0 0 0 13.6-1 30.75 30.75 0 0 0 11.7-7.9 49.35 49.35 0 0 0 9-13.7 76 76 0 0 0 5.6-18.2 80 80 0 0 0 1.5-19.1 47.45 47.45 0 0 0-3.4-16 31.65 31.65 0 0 0-8-11.7 24.57 24.57 0 0 0-12.3-6 25.62 25.62 0 0 0-13.8 1 29.69 29.69 0 0 0-11.6 7.9 50.07 50.07 0 0 0-8.9 13.6 78.58 78.58 0 0 0-5.7 18.3 78.84 78.84 0 0 0-1.5 19 51.64 51.64 0 0 0 3.2 16 30.27 30.27 0 0 0 7.9 11.6 24.92 24.92 0 0 0 12.7 6.2Z"/><path class="cls-8" d="m340.4 118.8.4 18.7s-5.3 4.8-10.1 0l1.8-21Z"/><path class="cls-1" d="M318.4 267.6c-.3-.2-2.4-1.2-2.7-1.5a25.52 25.52 0 0 1-3.2 4 6.71 6.71 0 0 1 2.4 6.4 33.16 33.16 0 0 1-3.2 2.5c-2.9 1.4-8.3 3.4-8.3 3.4l13.5 1.1 10-10.2a82.76 82.76 0 0 1-8.5-5.7Zm-52.8.7c-2.1-.4-4.9 1.3-6.6 0a42 42 0 0 0-.3 5.8l-19.9 8.2h25.5c.2-2.7-.3-5.3.1-7.8.1-1.3 1-4.9 1.2-6.2Z"/><path class="cls-9" d="m288.8 177.8-22.5 42.8s9.1 7.7 18.1 10.3l16.9-50.5Z"/><path class="cls-1" d="M313.5 271.2a27.86 27.86 0 0 0 3.6-4.7c-5.8-5-8.7-10.1-16.6-19-3.3-3.7 5.4-24.7 7.5-28.2 3.8-6.3 4.4-10.9 7.3-21.8l-22 8.2c-5.2 18.8-11.3 37.5-5.2 46.5 6.5 9.5 17.9 17.1 23.5 20.9.2.2 1.7-2 1.9-1.9Z"/><path class="cls-2" d="M276.4 135.1a1.61 1.61 0 0 1-.9-.3 1.46 1.46 0 0 1-.3-2.1 12.93 12.93 0 0 0 2.2-4.5 1.47 1.47 0 0 1 2.9.5 14.77 14.77 0 0 1-2.7 5.7 1.21 1.21 0 0 1-1.2.7Zm37.4 67c6.6-18 12.1-46.2 14.2-57.5a20.39 20.39 0 0 0-3.2-1.1c-1.9-.5-4.3-1.2-6.3-.5a10.49 10.49 0 0 0-2.8 1.4 39.07 39.07 0 0 0-1.2 4.5s-14.1 26.9-23.2 45.3a86.06 86.06 0 0 1 22.5 7.9Z"/><path class="cls-8" d="m291 194.6-2.3 4.6c-1.8 3.2-3.7 6.2-5.6 9-18.1 27.3-24.9 49.1-26.2 59.4 1.7 1.3 8.3 2.1 10.4 2.5 3.3-17.1 12-28 27.6-40.8 5.2-4.3 9.1-9.8 12.5-14.3a52.1 52.1 0 0 0 6-12.3 86.89 86.89 0 0 0-22.4-8.1Z"/><path class="cls-2" d="M273.5 202.2a5 5 0 0 1-4.8-3.4 5.21 5.21 0 0 1 3.1-6.5c6.2-2.1 15.6-10.6 22-19.6 12.9-18.3 22-28.5 22.4-28.9a5.1 5.1 0 0 1 7.6 6.8 332 332 0 0 0-21.6 28c-6.3 8.9-17.4 20-26.9 23.3a6.72 6.72 0 0 1-1.8.3Z"/><path class="cls-2" d="M324.4 146.3h-.4a4.79 4.79 0 0 1-4.4-5.1 30.43 30.43 0 0 1 1.4-6.3 4.81 4.81 0 1 1 9.1 3.1 21.15 21.15 0 0 0-.9 3.8 4.81 4.81 0 0 1-4.8 4.5Z"/><path class="cls-7" d="M325.8 141.2a22 22 0 0 0 2.7 2.6 4.66 4.66 0 0 0 .6-2 19.28 19.28 0 0 1 .9-3.8 4.81 4.81 0 0 0-8.5-4.3c.6 2.7 2.8 5.8 4.3 7.5Z"/><path class="cls-2" d="M338.1 130.9a9 9 0 0 1-9.2 8.8 9 9 0 0 1-8.8-9.2l.1-6.3a9 9 0 0 1 9.2-8.8 9 9 0 0 1 8.8 9.2Zm-71.8 69.9a18.71 18.71 0 0 1-7.1-1.7 1.52 1.52 0 0 1 1.2-2.8c3.9 1.7 7.1 1.9 9 .7a1.46 1.46 0 0 1 1.5 2.5 7.78 7.78 0 0 1-4.6 1.3Z"/><path class="cls-2" d="M268.1 202.9a26 26 0 0 1-6.4-1l-.7-.2a1.49 1.49 0 1 1 .7-2.9l.7.2c3.6.9 6 1.5 11.3.1a1.49 1.49 0 1 1 .7 2.9 23.65 23.65 0 0 1-6.3.9Zm-1.9-5.1a13.43 13.43 0 0 1-8.1-3 1.49 1.49 0 1 1 2-2.2 9.43 9.43 0 0 0 8.2 2 1.49 1.49 0 1 1 .7 2.9 13.33 13.33 0 0 1-2.8.3Z"/><path class="cls-2" d="M269.3 196.2h-.2a9.42 9.42 0 0 1-7.2-4.4 1.48 1.48 0 0 1 2.6-1.4 6.83 6.83 0 0 0 5 2.9 1.5 1.5 0 0 1 1.3 1.7 1.52 1.52 0 0 1-1.5 1.2Zm17.9-59h-.2c-2.5-.4-9.2-1.5-10.8-1.5a1.5 1.5 0 0 1 0-3c2.1 0 10.4 1.4 11.3 1.5a1.41 1.41 0 0 1 1.2 1.7 1.58 1.58 0 0 1-1.5 1.3Z"/><path class="cls-2" d="M286.2 140.4a.6.6 0 0 1-.4-.1c-.1 0-7.2-2-10.5-2.1a1.5 1.5 0 0 1 .2-3c3.6.2 10.8 2.2 11.1 2.2a1.36 1.36 0 0 1 1 1.8 1.4 1.4 0 0 1-1.4 1.2Z"/><path class="cls-2" d="M285.5 143.6a.9.9 0 0 1-.5-.1c-6.7-2.2-8.4-2.3-9.3-2.4a6 6 0 0 1-1.2-.2 1.49 1.49 0 1 1 .7-2.9 1.48 1.48 0 0 0 .7.1c1.1.1 2.9.2 9.9 2.5a1.58 1.58 0 0 1 1 1.9 1.29 1.29 0 0 1-1.3 1.1Z"/><path class="cls-2" d="M282.5 146h-.1c-6.7-.5-7-4.1-7-4.6l3-.1v-.1s.3 1.5 4.3 1.7a1.55 1.55 0 0 1-.2 3.1Z"/><path class="cls-2" d="M276.9 144.2a8.55 8.55 0 0 0-3.3-.6c-1.7 0-4-2.9-4-5.9 0 0-.8-8.8 8.5-4.8Z"/><path class="cls-9" d="m306.2 170.4-13 64.2s20.2 4.9 32.6-2.3l3.1-89.2c0 .1-13.9-4.8-22.7 27.3Z"/><path class="cls-3" d="m309.2 205.8 12.5-.7s.3 19.1-7.2 18.4c.1 0-10.2 2.2-5.3-17.7Zm15.7-64.2a7.58 7.58 0 0 0-5-1.9 7.67 7.67 0 0 0-5.6 2.5c-.4.4-9.5 10.6-22.5 29.1-.9 1.2-1.8 2.4-2.8 3.7l-1.3 1.6 1.4 1.5c1.5 1.6 3.2 3.2 4.7 4.7l2.5 2.5 1.8 1.8 1.7-2c1.5-1.8 2.9-3.6 4.1-5.3a339.36 339.36 0 0 1 21.5-27.8 7.23 7.23 0 0 0-.5-10.4Z"/><path transform="rotate(-48.06 294.81 179.611)" style="fill:#f8fdff" d="M291.02 170.75h7.5v17.7h-7.5z"/><path class="cls-8" d="m311 134.5 11.5 4.5s4.9-23.7 1.3-27.3c0 0-12.8-1.2-12.8 22.8Z"/><path class="cls-8" d="M324.5 115.8c.4.6 9.3 6.5 16.3 4.9 0 0-1.2-10.5-17.5-9Z"/><circle class="cls-11" cx="326.4" cy="127" r="5"/><circle cx="338.3" cy="128" r="4.3" style="stroke-width:.75px;fill:none;stroke:#e8f7ef;stroke-miterlimit:10"/><path class="cls-11" d="M331.4 127s1.7-.6 2.6.3"/><path class="cls-2" d="M186.2 135.7h-.4a4.79 4.79 0 0 1-4.4-5.1 28.9 28.9 0 0 1 1.4-6.2 4.81 4.81 0 1 1 9.1 3.1 21.15 21.15 0 0 0-.9 3.8 4.94 4.94 0 0 1-4.8 4.4Z"/><path class="cls-1" d="M183.3 268.3a39.27 39.27 0 0 0 14.9 3.7c5.2-9.2 20.7-34 6.6-54.4l-20-10.7c0-.1 20 20.7-1.5 61.4Z"/><path class="cls-1" d="M193.7 276.4s1.8-3.7 3.3-6.3c-1.1-.1-5.9-.3-7.9-1.1a100.91 100.91 0 0 1-8.8 13.2h26.9Z"/><path class="cls-8" d="M226.9 218.7c-3.3-6.5-27.6-26-29.8-37.2a28.68 28.68 0 0 1-.5-3.1c-3.9 2.1-9 2.6-13 2.8-4.5.2-7.3.5-11.7-1.6.4 7-.8 13.7 3.3 20.7 8.1 14 34.8 26 37.8 30.6 5.9 9.1 7.9 28.9 9.9 41 3.2 0 10.6-.1 13.7-1.2-.9-6.2.8-31.7-9.7-52Z"/><path class="cls-1" d="M235.3 275.3s-.9-3.5-1.1-5.2c-3.1 1.1-4.9 0-8 0 .5 3 .1 8.6.4 11.9H252Z"/><path class="cls-9" d="M183.8 184.9c3.9-.2 12-1.3 15.3-4.5-.7-5.3-3-13.9-2.2-20.8 2.8-23.4-8.6-30.4-8.6-30.4s-5.3-3.7-9.5.7c-6.4 6.6-12.7 25.3-12.1 53 4.5 2.3 12.5 2.2 17.1 2Z"/><path class="cls-2" d="M242.4 192.3a4.87 4.87 0 0 1-1.2-.1c-18.4-4.3-34-15.3-45-31.9a85.54 85.54 0 0 1-11.3-24 5.11 5.11 0 1 1 9.9-2.5 79 79 0 0 0 10.1 21.2c9.7 14.4 22.8 23.6 38.7 27.3a5.14 5.14 0 0 1 3.8 6.1 5.22 5.22 0 0 1-5 3.9Z"/><path class="cls-3" d="M231.2 177a63.5 63.5 0 0 1-25.6-22.6 79.58 79.58 0 0 1-10-20.9 6 6 0 0 0-5.8-4.5 7.72 7.72 0 0 0-1.5.2 6.67 6.67 0 0 0-3.7 2.7 6 6 0 0 0-.7 4.5v.1a85.29 85.29 0 0 0 11.4 26.6 76.59 76.59 0 0 0 35 29c.1 0 .2.1.3.1a.76.76 0 0 0 .5-.2 1 1 0 0 0 .4-.7v-13.4a.66.66 0 0 0-.3-.9Z"/><path class="cls-2" d="M246.1 192.7a32.57 32.57 0 0 1-5.2-.5 1.53 1.53 0 1 1 .6-3c4.4.9 8.2.6 11-1a1.48 1.48 0 0 1 1.4 2.6 15 15 0 0 1-7.8 1.9Z"/><path class="cls-2" d="M246.3 189.3a8.58 8.58 0 0 1-2.2-.2 1.51 1.51 0 0 1 .4-3 16.16 16.16 0 0 0 9.2-1.8 1.41 1.41 0 0 1 2 .6 1.46 1.46 0 0 1-.5 2 17.26 17.26 0 0 1-8.9 2.4Z"/><path class="cls-2" d="M245 186.4h-.7a1.5 1.5 0 0 1 .2-3 7 7 0 0 0 5.4-1.9 1.49 1.49 0 1 1 2.3 1.9 10 10 0 0 1-7.2 3Zm-5.2-2.5a1.5 1.5 0 0 1 0-3 6.49 6.49 0 0 0 4.8-2.5 1.51 1.51 0 0 1 2.5 1.7 9.63 9.63 0 0 1-7.3 3.8Zm-4.8-33.7a1.43 1.43 0 0 1-1.2-.6 15.47 15.47 0 0 1-2.7-5.7 1.47 1.47 0 0 1 2.9-.5 12.93 12.93 0 0 0 2.2 4.5 1.55 1.55 0 0 1-.3 2.1 2.92 2.92 0 0 1-.9.2Z"/><path class="cls-2" d="M235.3 150.8h-.3a74.9 74.9 0 0 0-9.8-.6 1.5 1.5 0 0 1 0-3 71.67 71.67 0 0 1 10.4.7 1.54 1.54 0 0 1 1.2 1.7 1.59 1.59 0 0 1-1.5 1.2Z"/><path class="cls-2" d="M224.4 153.9a1.6 1.6 0 0 1-1.5-1.3 1.55 1.55 0 0 1 1.3-1.7c.9-.1 9.3-1.1 12-.7a1.47 1.47 0 1 1-.5 2.9c-1.7-.3-7.7.3-11.2.7a.1.1 0 0 1-.1.1Z"/><path class="cls-2" d="M226.3 157.3a1.59 1.59 0 0 1-1.5-1.2 1.41 1.41 0 0 1 1.2-1.7 36.3 36.3 0 0 0 6.3-1.6 31.37 31.37 0 0 1 3.4-1 1.46 1.46 0 0 1 .8 2.8c-1.5.4-2.4.7-3.3 1a51 51 0 0 1-6.7 1.7Z"/><path class="cls-2" d="M229.5 159.7a1.59 1.59 0 0 1-1.5-1.2 1.48 1.48 0 0 1 1.2-1.7c4.8-.8 5.8-2.6 5.8-2.6a1.58 1.58 0 0 1 1.9-1 1.45 1.45 0 0 1 .9 1.9c-.2.6-1.5 3.5-8.1 4.7 0-.1-.1-.1-.2-.1Z"/><path class="cls-2" d="m235.3 157.9-1.1-12.2a5.78 5.78 0 0 1 5.3 6c0 1.9-.6 3.9-4.2 6.2Zm-33.6-39.6a9.64 9.64 0 0 1-6.8 11.7 9.64 9.64 0 0 1-11.7-6.8l-1.7-6.4a9.64 9.64 0 0 1 6.8-11.7 9.64 9.64 0 0 1 11.7 6.8Z"/><path class="cls-8" d="M200.8 114.9a13.6 13.6 0 0 1-3.3 5.4 14.17 14.17 0 0 1-14.4 2.2l.2.7a9.57 9.57 0 0 0 18.5-4.9Z"/><path class="cls-8" d="M183.2 122.8c-3.6-2.3-7.5-11-1.8-13 3.5-1.2 2.1 9.6 2.1 12.7Z"/><path class="cls-8" d="M180.3 110.5c-4.3-3.1 1-12 11.7-12 6.6 0 6.6 5.1 2 7.8-3.8 2.3-9.7.9-12.5 4.8Z"/><path class="cls-8" d="M200.8 116.8a101.14 101.14 0 0 1-5.7-9.6c-.7-1.7-1.7-4.5 1.6-2.5 2.8 1.7 4.3 7.6 4 10.7Z"/><path class="cls-5" d="M125.2 138.1a53.31 53.31 0 0 0-4.9 4.6l-21.5 45 16-20.7 17-35.2Zm-12.8-7.4c1.6-2.1 3.1-4.6 4.8-6.9l-37.7-18.4-35.8 3.6 62.7 28.9c2.1-2.4 4.2-4.7 6-7.2Z"/><path class="cls-5" d="M117.8 124.1c-2 2.5-3.6 5.5-5.6 7.8-1.7 2.1-3.5 4.2-5.2 6.3l28.5 13.1 10.3-13.5Z"/><path class="cls-6" d="M74.9 176.3 86 153.2l-58-27.7 9.3-19.4 95.4-56.2 26 12.5-38.3 79.9 15.8 7.5-10.7 22.4-15.8-7.5-11.1 23.1Zm42.9-89.6-1.5-.7-51 29.9 31.3 15Z"/><path class="cls-5" d="m136.2 149.8 9.6-12-7.5 16.7-13.2 18.4 11.1-23.1zm-3.7-18.7 37.6-82.4-11.4 13.7-38.3 79.9c1.1-1.1 11.5-10.6 12.1-11.2Z"/><path class="cls-7" d="m37.3 106.1 17-14.8 93.2-53.5-14.8 12.1-95.4 56.2z"/><path class="cls-7" d="m132.7 49.9 26 12.4 11.4-13.6-22.6-10.9-14.8 12.1z"/><path class="cls-2" d="M100.7 110.1c-3.2-2.3-5.4-1.3-6.9-1a3.79 3.79 0 0 1-2.9-.7 1.51 1.51 0 0 0-1.7 2.5 16.56 16.56 0 0 0 3.6 1.5c-2.5 2.3-5 5-5.2 5.1a1.45 1.45 0 0 0 .1 2.1 1.43 1.43 0 0 0 1 .4 1.61 1.61 0 0 0 1.1-.5s1.8-1.9 3.8-3.8c-1.8 2.3-3.5 4.7-3.9 5.1a1.55 1.55 0 0 0 .3 2.1 1.61 1.61 0 0 0 .9.3 1.43 1.43 0 0 0 1.2-.6c1-1.4 2.4-3.2 3.7-4.9a39 39 0 0 1-2.4 4.1 1.6 1.6 0 0 0 .5 2.1 1.08 1.08 0 0 0 .8.2 1.46 1.46 0 0 0 1.3-.7c.5-.8.9-1.5 1.3-2.1a1.48 1.48 0 0 0 .6 1.8 1.2 1.2 0 0 0 .8.2 1.46 1.46 0 0 0 1.3-.7 16.53 16.53 0 0 0 2.4-5.3h.1c.8-4.1-.2-6.1-1.8-7.2Zm-3 10.5a22.41 22.41 0 0 0 1.1-2.2 9 9 0 0 1-1.1 2.2Z"/><path class="cls-8" d="M55 127c-4.7-.3-11.6 9-4.6 11.5-6.4-.2-7.9 8.8-2.1 11.3-10.2-2-9 11.2-4.2 16a5.5 5.5 0 0 0-6.1 6c.5 3.4 1.9 8.2 10.3 10.7s13.7-2.2 17.9-6.7c2.7 5.5 16-1.9 14.6-8.5 5 1.8 9.5-3.9 9.6-8.5s-3-7.9-6-10.7c2.1-1.9 2.5-5.5 1.9-8.2-.9-4.5-6.6-5-6.6-8.5 0-1.3.2-5.2-.8-6.9-1.7-2.7-4.7-5.4-8.4-4.1C55 113 55 127 55 127Z"/><path class="cls-1" d="M64.1 272c-4.3-.8-5-.5-9.3-1.6l-9.8 12h38.2l-22.2-6Zm71.2 3.4-2.3-3a30.22 30.22 0 0 1-6.5 3.2l6 6.7H155Z"/><path class="cls-1" d="M50.8 272c4.3 1 8.6 2.1 12.9 2.9L95.3 236l-5.4-15.4-22.1-25.5 6.4 36.1Z"/><path class="cls-8" d="M93.8 184.5c-8.7-2.3-20.4.6-28.8 3.8 0 0 5.2 20.6 8.6 26.7 9.9 17.9 52.6 62.4 52.6 62.4 2.3-.8 6.9-4.1 8.9-5.4Z"/><path class="cls-9" d="M63.8 196.3c8.4-3.1 25.1-8.4 33.7-6.3 0 0-11.4-26.8-16.6-32.7-3.5-4-22.6-15.2-22.6-.5.1 20.1 5.5 39.5 5.5 39.5Z"/><path class="cls-7" d="M71.2 155.5c-.1 0-.2.1-.3.1a4.82 4.82 0 0 1-5.9-3.4 31.4 31.4 0 0 1-.8-6.4 4.8 4.8 0 0 1 9.6-.1 18.44 18.44 0 0 0 .4 3.9 4.75 4.75 0 0 1-3 5.9Z"/><path class="cls-2" d="M74.4 150.8a3.55 3.55 0 0 0-.2-1 18.44 18.44 0 0 1-.4-3.9 4.72 4.72 0 0 0-4.8-4.7 4.87 4.87 0 0 0-4.8 4.8v.4c2.4 2.6 6.3 3.8 10.2 4.4Z"/><path class="cls-2" d="M79.1 136.5a9.17 9.17 0 0 1-5.8 11.4 9.17 9.17 0 0 1-11.4-5.8l-1.9-6a9.17 9.17 0 0 1 5.8-11.4 9.17 9.17 0 0 1 11.4 5.8Z"/><path class="cls-2" d="M132.3 131.7a.86.86 0 0 0-.6-.3 5.72 5.72 0 0 0 .7-.8 1.45 1.45 0 0 0-.1-2.1c-.1-.1-.2-.1-.2-.2a1.51 1.51 0 0 0-.2-1.9 1.4 1.4 0 0 0-1.5-.3 11.35 11.35 0 0 1 1.2-1.2 1.49 1.49 0 0 0-2.2-2 32.72 32.72 0 0 1-6.6 5.6 7.47 7.47 0 0 0-3.5-3 1.45 1.45 0 0 0-1.9.9 1.48 1.48 0 0 0 .8 1.9 4.58 4.58 0 0 1 2.1 1.9 4.2 4.2 0 0 0-.3 1.4c-22 29.7-51.1 19.2-52.4 18.7a5.1 5.1 0 1 0-3.7 9.5 55.35 55.35 0 0 0 17.7 2.8 50.29 50.29 0 0 0 6.5-.4c11-1.3 27.2-7.6 40.1-24.3a6.78 6.78 0 0 0 .9-.6c.3-.2.5-.4.8-.6a24.32 24.32 0 0 0 2.8-2.8 2 2 0 0 0-.4-2.2Z"/><path class="cls-3" d="m91.8 150.3-1.2.3a40.78 40.78 0 0 1-9.3 1 38.25 38.25 0 0 1-13.6-2.2 5.22 5.22 0 0 0-2.1-.4 6 6 0 0 0-5.6 3.8 5.3 5.3 0 0 0 .1 4.6c2.9 5.2 10.9 7.3 21.3 7.3a48.72 48.72 0 0 0 6.6-.4c1.3-.2 2.7-.4 4.1-.7l.9-.2a39.33 39.33 0 0 1-1.5-7.6 34.52 34.52 0 0 1 .3-5.5Z"/><path class="cls-8" d="M59.8 140.9c3.1-2 4.2-5.7 3.9-9.5 2.7 1.8 4.9.7 6.6-2.5 5.2 7.3 13.1-3.6 2.3-7.5-8.7-3.1-17.1 5.4-14.9 14Z"/></svg>