<svg id="OBJECTS" xmlns="http://www.w3.org/2000/svg" viewBox="0 0 519 321.3"><defs><clipPath id="clip-path"><path d="M339.9 222c0 10.5-33.2 18.9-74.2 18.9s-74.2-8.5-74.2-18.9c-6-13.9-14.7-98.7 74.2-98.7 95.8 0 77.9 88.8 74.2 98.7Z" style="fill:none"/></clipPath><style>.cls-16,.cls-2{fill:#fff}.cls-2{opacity:.03;isolation:isolate}.cls-3{fill:#41aff9}.cls-4{fill:#00a4ff}.cls-11{opacity:.4}.cls-6{fill:#6ebdff}.cls-7{fill:#f55}.cls-8{fill:#6b6bce}.cls-9{fill:#ff8f8f}.cls-10{clip-path:url(#clip-path)}.cls-12{fill:#dad0ff}.cls-13{fill:#b2a7ff}.cls-15{opacity:.3}.cls-20{fill:#d8e1ef}.cls-21{fill:#1c66ef}.cls-22{fill:#2e76ff}.cls-23{fill:#1a53d8}.cls-24{fill:#ebf8ff}.cls-25{fill:#85daff}.cls-26{fill:#1756c7}.cls-27{fill:#c9d6f1}</style></defs><circle class="cls-2" cx="193.4" cy="42.2" r="41.2"/><circle class="cls-2" cx="193.4" cy="42.2" r="20.5"/><circle class="cls-2" cx="193.4" cy="42.2" r="12.4"/><path class="cls-3" d="M197.2 46.5a8 8 0 0 1-8-8 8.5 8.5 0 0 1 2.2-5.6 9.38 9.38 0 1 0 11.3 11.4 8 8 0 0 1-5.5 2.2Zm98.1 27 1.5 2.7 2.7 1.5-2.7 1.5-1.5 2.7-1.5-2.7-2.7-1.5 2.7-1.5 1.5-2.7zm-59.7-54.2 1.5 2.8 2.8 1.5-2.8 1.4-1.5 2.8-1.4-2.8-2.8-1.4 2.8-1.5 1.4-2.8zM201.5 60l1.5 2.7 2.7 1.5-2.7 1.5-1.5 2.7-1.5-2.7-2.7-1.5 2.7-1.5 1.5-2.7zm109.4 2.1.7 1.3 1.4.8-1.4.7-.7 1.4-.7-1.4-1.4-.7 1.4-.8.7-1.3zm93.7-26 .7 1.3 1.4.8-1.4.7-.7 1.4-.8-1.4-1.3-.7 1.3-.8.8-1.3zm41.8 77 .8 1.4 1.3.7-1.3.8-.8 1.3-.7-1.3-1.4-.8 1.4-.7.7-1.4zm-81.9 36.5.8 1.4 1.3.8-1.3.7-.8 1.4-.7-1.4-1.4-.7 1.4-.8.7-1.4zm-38.7-7.9.7 1.3 1.4.8-1.4.7-.7 1.4-.8-1.4-1.3-.7 1.3-.8.8-1.3zm87.7 4.6.8 1.4 1.4.7-1.4.8-.8 1.3-.7-1.3-1.4-.8 1.4-.7.7-1.4zm-269.3-2.5.8 1.3 1.3.8-1.3.7-.8 1.4-.7-1.4-1.4-.7 1.4-.8.7-1.3zM355 105l.8.8 1.3.4-1.3.4-.8.7-.7-.7-1.4-.4 1.4-.4.7-.8zm-74.1-73.3.5.9.9.5-.9.5-.5.9-.5-.9-1-.5 1-.5.5-.9zm19.7-14.6.3.5.5.3-.5.3-.3.5-.2-.5-.6-.3.6-.3.2-.5zm-33.5 18.1.3.5.5.3-.5.3-.3.5-.3-.5-.5-.3.5-.3.3-.5zm-9.7-16.7.3.6.5.2-.5.3-.3.5-.3-.5-.5-.3.5-.2.3-.6zm-14.7 18.1.3.5.5.3-.5.3-.3.5-.3-.5-.5-.3.5-.3.3-.5zm31.9 31 .3.5.5.3-.5.3-.3.5-.3-.5-.5-.3.5-.3.3-.5zm-34 24.7.3.5.5.3-.5.2-.3.6-.3-.6-.5-.2.5-.3.3-.5zm15.1 10.5.3.5.5.3-.5.3-.3.5-.2-.5-.6-.3.6-.3.2-.5zm-38.3 17.9.3.5.5.3-.5.2-.3.6-.3-.6-.5-.2.5-.3.3-.5zm-82.3.8.3.5.5.3-.5.2-.3.5-.3-.5-.5-.2.5-.3.3-.5zm-38.9 5.7.3.5.5.3-.5.3-.3.5-.3-.5-.5-.3.5-.3.3-.5zm28.8 11.6.3.6.5.2-.5.3-.3.5-.3-.5-.5-.3.5-.2.3-.6zm61.2-10.8.3.5.5.3-.5.3-.3.5-.3-.5-.5-.3.5-.3.3-.5zm11.9 10 .3.6.5.2-.5.3-.3.5-.3-.5-.5-.3.5-.2.3-.6zm190.8-9.2.3.5.5.3-.5.3-.3.5-.3-.5-.5-.3.5-.3.3-.5zm-98.3-7.3.3.5.5.3-.5.2-.3.5-.3-.5-.5-.2.5-.3.3-.5zm90.2-28.4.3.5.5.3-.5.2-.3.6-.3-.6-.5-.2.5-.3.3-.5zm59.5 44.9.3.6.5.2-.5.3-.3.5-.2-.5-.5-.3.5-.2.2-.6zM423 156.3l.3.5.5.3-.5.3-.3.5-.3-.5-.5-.3.5-.3.3-.5zm-41.4-26.7.2.5.6.3-.6.2-.2.6-.3-.6-.5-.2.5-.3.3-.5zm-28.7.8.3.5.5.3-.5.2-.3.6-.3-.6-.5-.2.5-.3.3-.5zm5-56.9.3.5.5.3-.5.3-.3.5-.3-.5-.5-.3.5-.3.3-.5zm-236.8-.8.3.5.5.3-.5.3-.3.5-.3-.5-.5-.3.5-.3.3-.5zm52.1-27.3.2.5.6.3-.6.3-.2.5-.3-.5-.5-.3.5-.3.3-.5zm24.1-10.2.3.5.5.3-.5.3-.3.5-.3-.5-.5-.3.5-.3.3-.5zM151 16.3l.3.5.5.3-.5.3-.3.5-.3-.5-.5-.3.5-.3.3-.5zm71.7 64.8.3.6.5.2-.5.3-.3.5-.3-.5-.5-.3.5-.2.3-.6zm-84-5 .3.5.5.3-.5.3-.3.5-.2-.5-.6-.3.6-.3.2-.5zm274.8-20.2.3.5.5.3-.5.3-.3.5-.2-.5-.6-.3.6-.3.2-.5zm20.8-21.5.3.5.5.3-.5.3-.3.5-.3-.5-.5-.3.5-.3.3-.5zM139.5 27l.3.5.5.3-.5.3-.3.5-.2-.5-.6-.3.6-.3.2-.5zm77.1 72.9.3.5.5.3-.5.3-.3.5-.3-.5-.5-.3.5-.3.3-.5zm92.2 6.6.3.5.5.3-.5.3-.3.5-.3-.5-.5-.3.5-.3.3-.5zm18.8-29.6.3.5.5.3-.5.3-.3.5-.2-.5-.6-.3.6-.3.2-.5zm7.1 36.7.3.5.5.3-.5.3-.3.5-.3-.5-.5-.3.5-.3.3-.5zm94.5 25.2.3.6.5.2-.5.3-.3.5-.3-.5-.5-.3.5-.2.3-.6zM310.9 34.5l.5 1 .9.5-.9.5-.5.9-.5-.9-.9-.5.9-.5.5-1zm124.2-15.8.5.9 1 .5-1 .5-.5 1-.5-1-.9-.5.9-.5.5-.9zm-44 52.6.5.9.9.5-.9.5-.5.9-.5-.9-.9-.5.9-.5.5-.9zM262.6 90.5l.6.9.9.5-.9.5-.6 1-.5-1-.9-.5.9-.5.5-.9zM179 3.9l.5.9.9.5-.9.5-.5.9-.5-.9-.9-.5.9-.5.5-.9zm42.3 35.5.5.9.9.5-.9.5-.5.9-.5-.9-1-.5 1-.5.5-.9zm17.8 41.1.5.9 1 .5-1 .5-.5 1-.5-1-.9-.5.9-.5.5-.9zm11.3-12.7.5.9 1 .5-1 .5-.5.9-.5-.9-.9-.5.9-.5.5-.9zM168 103.6l.5.9.9.5-.9.6-.5.9-.5-.9-.9-.6.9-.5.5-.9zm173.4-70.5.5.9 1 .5-1 .5-.5 1-.5-1-.9-.5.9-.5.5-.9zm-53.8 27.5.5 1 .9.5-.9.5-.5.9-.5-.9-.9-.5.9-.5.5-1z"/><path class="cls-4" d="M166.8 199.6h-.2c-7-1.8-10.9-4.6-10.9-7.7 0-5.5 12.5-9.7 28.5-9.7a81.25 81.25 0 0 1 12.4.9c.3.1.6.4.5.7s-.4.6-.7.5a78.6 78.6 0 0 0-12.2-.9c-16.3 0-27.3 4.4-27.3 8.5 0 2.4 3.7 4.8 10 6.5a.79.79 0 0 1 .5.8c0 .2-.3.4-.6.4Z"/><path class="cls-4" d="M184.3 197.9c-8.3 0-17.1-2.1-17.1-6s8.8-6 17.1-6 17.1 2.1 17.1 6-8.9 6-17.1 6Zm0-10.7c-9.3 0-15.8 2.5-15.8 4.7s6.5 4.7 15.8 4.7 15.8-2.5 15.8-4.7-6.5-4.7-15.8-4.7Z"/><path class="cls-4" d="M185.2 195c-4.3 0-8.8-1.1-8.8-3.1s4.5-3.1 8.8-3.1a.3.3 0 0 1 0 .6c-4.8 0-8.1 1.3-8.1 2.4s3.3 2.4 8.1 2.4a.27.27 0 0 1 .3.3c0 .3-.2.5-.3.5Zm173.9 10.6a119 119 0 0 1-16.1-1 1 1 0 0 1-.8-1.1.94.94 0 0 1 1.1-.8 115.52 115.52 0 0 0 15.8 1c24.6 0 41.2-6.6 41.2-12.8 0-2.3-2.4-4.8-6.7-6.8a1 1 0 1 1 .8-1.8c5.1 2.5 7.8 5.4 7.8 8.6 0 8.2-19 14.7-43.1 14.7Zm-26.4-3h-.2c-10.6-2.8-16.5-6.9-16.5-11.7 0-8.2 18.9-14.7 43.1-14.7a124.87 124.87 0 0 1 18.8 1.4 1 1 0 0 1-.3 1.9 120.84 120.84 0 0 0-18.5-1.4c-24.6 0-41.2 6.6-41.2 12.8 0 3.7 5.6 7.3 15.1 9.8a1 1 0 0 1 .7 1.2 1.2 1.2 0 0 1-1 .7Z"/><path class="cls-4" d="M359.1 199.9c-12.5 0-25.8-3.2-25.8-9.1s13.3-9.1 25.8-9.1 25.8 3.2 25.8 9.1-13.3 9.1-25.8 9.1Zm0-16.2c-14.1 0-23.8 3.8-23.8 7.1s9.8 7.1 23.8 7.1 23.8-3.8 23.8-7.1-9.8-7.1-23.8-7.1Z"/><path class="cls-4" d="M355.2 195.5c-6.4 0-13.3-1.6-13.3-4.6s6.8-4.6 13.3-4.6a.5.5 0 0 1 0 1c-7.2 0-12.3 1.9-12.3 3.7s5 3.7 12.3 3.7a.47.47 0 0 1 .5.5c0 .1-.3.3-.5.3Zm16-2.8c2.2 0 4.6-.6 4.6-1.8s-2.4-1.8-4.6-1.8a.5.5 0 0 0 0 1c2.3 0 3.5.6 3.6.9-.1.2-1.3.8-3.6.8a.47.47 0 0 0-.5.5.46.46 0 0 0 .5.4Z"/><path transform="rotate(-11.48 225.167 63.281)" style="opacity:.4;fill:#ffa53e;isolation:isolate" d="M224.59 51.61h1.2v23.4h-1.2z"/><path class="cls-6" d="M244.1 155.8a.78.78 0 0 1-.6.9.78.78 0 0 1-.9-.6l-21-103.7a.78.78 0 0 1 .6-.9.78.78 0 0 1 .9.6Z"/><circle class="cls-7" cx="221.5" cy="48.3" r="3.8"/><path class="cls-8" d="m294.9 60.2.1.9-68.2 13-4.5-22.1 68.1-13.8.2.9-2.4 11 6.7 10.1zm-95.7 90.3V128c-1.7-.2-3.4-.4-5.1-.5s-3.4-.2-5.1-.2-3.1.1-4.6.2-3 .3-4.6.5v22.5h-20.1l29.1-54-.1-4.8a26.64 26.64 0 0 0-8.4-4.6 40.81 40.81 0 0 0-9.2-2l-39.8 80.4v4.4l48.5-2.5v19.7c1.7.2 3.4.4 5.1.5s3.4.2 5.1.2 3.1-.1 4.6-.2 3-.3 4.6-.5v-19.7h10.1a26.54 26.54 0 0 0 .6-4.2c.1-1.5.2-3 .2-4.4a46 46 0 0 0-.8-8.4h-10.1Zm179.1 0h-10.1V128c-1.7-.2-3.4-.4-5.1-.5s-3.4-.2-5.1-.2-3.1.1-4.6.2-3 .3-4.6.5v22.5h-20.1l29-58.8a26.64 26.64 0 0 0-8.4-4.6 40.81 40.81 0 0 0-9.2-2l-39.8 80.4 1.3 2h47.3v19.7c1.7.2 3.4.4 5.1.5s3.4.2 5.1.2 3.1-.1 4.6-.2 3-.3 4.6-.5v-19.7h10.1a26.54 26.54 0 0 0 .6-4.2c.1-1.5.2-3 .2-4.4a40 40 0 0 0-.9-8.4Z"/><path class="cls-8" d="M357.7 91.8v4.9h-1.9l-2.7-1.2a9.21 9.21 0 0 1-.6-2.4c.1-.5-.5-1.1 0-1.2"/><path class="cls-7" d="m295 61.1-68.1 13.8-4.4-22 68.1-13.8-2.3 11.9 6.7 10.1zm-95.8 93.4V132c-1.7-.2-3.4-.4-5.1-.5s-3.4-.2-5.1-.2-3.1.1-4.6.2-3 .3-4.6.5v22.5h-20.1l29.1-58-.1-.8a26.64 26.64 0 0 0-8.4-4.6 40.81 40.81 0 0 0-9.2-2l-39.8 80.4v.8l48.5 1.1v19.7c1.7.2 3.4.4 5.1.5s3.4.2 5.1.2 3.1-.1 4.6-.2 3-.3 4.6-.5v-19.7h10.1a26.54 26.54 0 0 0 .6-4.2c.1-1.5.2-3 .2-4.4a46 46 0 0 0-.8-8.4h-10.1Zm179.1 0h-10.1V132c-1.7-.2-3.4-.4-5.1-.5s-3.4-.2-5.1-.2-3.1.1-4.6.2-3 .3-4.6.5v22.5h-20.1l29-57.8v-.9a26.64 26.64 0 0 0-8.4-4.6 40.81 40.81 0 0 0-9.2-2l-39.8 80.4 1.3 2h47.3v19.7c1.7.2 3.4.4 5.1.5s3.4.2 5.1.2 3.1-.1 4.6-.2 3-.3 4.6-.5v-19.7h10.1a26.54 26.54 0 0 0 .6-4.2c.1-1.5.2-3 .2-4.4a38.86 38.86 0 0 0-.9-8.5Z"/><path class="cls-9" d="m258.8 68.4 6.6-1.3 17.5-26.5-6.5 1.3-17.6 26.5zm4.8-23.9L242 48.9c-4.3 6.2-10.4 15.7-15.5 23.8l.4 2.2L246 71Z"/><circle class="cls-9" cx="220.5" cy="47" r="1.5"/><circle class="cls-9" cx="221.9" cy="46.4" r=".7"/><circle class="cls-9" cx="222.7" cy="50" r=".7"/><path class="cls-9" d="M358.1 132.1c-1.6 0-3.1.1-4.6.2s-3 .3-4.6.5v20.5l19.4-19.4v-1.1c-1.7-.2-3.4-.4-5.1-.5s-3.4-.2-5.1-.2Z"/><path class="cls-9" d="M346.8 155.3h-18.1l26.2-53.1-41.3 41.3-13.3 26.9 1.2 1.9h28.3l17-17zm2 22 22-22h-2.6v-10.4l-27.4 27.4h8v5zm-149.6-33.1v-11.4c-1.7-.2-3.4-.4-5.1-.5s-3.4-.2-5.1-.2-3.1.1-4.6.2-3 .3-4.6.5v22.5h-20.1l16.2-32.9-41.4 41.4-3.3 6.6 1.3 2H171Zm10.5 13.5a20 20 0 0 0-.4-2.4h-10.1v-.1l-19.4 19.4v13Z"/><g class="cls-10"><path class="cls-7" d="m309.4 152-9.1 18.3 1.3 2h28.3a82.38 82.38 0 0 0-20.5-20.3Zm-100.1 20.3a26.54 26.54 0 0 0 .6-4.2c.1-1.5.2-3 .2-4.4v-1.8a86.37 86.37 0 0 0-8.6 10.4Zm-17.8 20.4c1 0 2-.1 3-.2 1.5-.1 3-.3 4.6-.5v-16.1a84.79 84.79 0 0 0-7.6 16.8Z"/></g><g class="cls-10"><circle class="cls-6" cx="265.7" cy="216.6" r="74.3"/></g><g class="cls-10"><g class="cls-11"><path class="cls-12" d="M203.6 175.8a11.88 11.88 0 0 0 7.8 3 11.42 11.42 0 0 0 9.6-5.1 7.4 7.4 0 0 0 3.6.9 7.7 7.7 0 0 0 0-15.4 7.46 7.46 0 0 0-3.8 1 7.52 7.52 0 0 0-1.5-1.6 73.49 73.49 0 0 0-15.7 17.2Zm44.5-17.6a6.9 6.9 0 1 0 6.9-6.9 6.91 6.91 0 0 0-6.9 6.9Zm36.1 44.1a12.72 12.72 0 0 0-12.7-12.7 10.88 10.88 0 0 0-4 .7 29.62 29.62 0 1 0 2.5 24.5 12.5 12.5 0 0 0 14.2-12.5ZM270.5 227a6.9 6.9 0 1 0 6.9-6.9 6.91 6.91 0 0 0-6.9 6.9Zm62.7 7.6a9.92 9.92 0 0 0-9.9-9.9 10.07 10.07 0 0 0-7.3 3.2 15.8 15.8 0 1 0 0 13.4 9.85 9.85 0 0 0 7.2 3.2 10 10 0 0 0 10-9.9Z"/><path class="cls-12" d="M307.6 214a6.9 6.9 0 1 0 6.9-6.9 7 7 0 0 0-6.9 6.9Zm-13-65.9a31.13 31.13 0 0 0 22.6 52.5 31.4 31.4 0 0 0 19.3-6.7 75.11 75.11 0 0 0-41.9-45.8Z"/></g></g><g class="cls-10"><path class="cls-13" d="M271.6 190.6a10.49 10.49 0 0 0-4.4.9 28.84 28.84 0 1 0 2.2 22.3 16.35 16.35 0 0 0 2.2.2 11.7 11.7 0 0 0 0-23.4Z"/><circle class="cls-13" cx="255" cy="158.2" r="5.9"/><circle class="cls-13" cx="314.5" cy="214" r="5.9"/><circle class="cls-13" cx="277.4" cy="227" r="5.9"/><path class="cls-13" d="M317.2 199.7a29.62 29.62 0 0 0 18.9-6.7 74.69 74.69 0 0 0-40.6-44.5 29.8 29.8 0 0 0-8.5 21 30.17 30.17 0 0 0 30.2 30.2Zm6.2 26a9 9 0 0 0-7.5 4.1 14.8 14.8 0 1 0 0 9.4 8.78 8.78 0 0 0 7.5 4.1 8.8 8.8 0 1 0 0-17.6Zm-102.6-53.3a6.45 6.45 0 0 0 3.9 1.2 6.7 6.7 0 1 0-4.1-12 9.14 9.14 0 0 0-2-2.4 74.63 74.63 0 0 0-14.4 15.8 10.63 10.63 0 0 0 7.3 2.9 10.81 10.81 0 0 0 9.3-5.5Z"/></g><g class="cls-10"><path class="cls-3" d="M308.6 214a5.9 5.9 0 1 0 5.9-5.9 5.91 5.91 0 0 0-5.9 5.9Zm8.6-14.3a29.62 29.62 0 0 0 18.9-6.7 74.69 74.69 0 0 0-40.6-44.5 29.8 29.8 0 0 0-8.5 21 30.17 30.17 0 0 0 30.2 30.2ZM255 164.1a5.9 5.9 0 1 0-5.9-5.9 5.85 5.85 0 0 0 5.9 5.9Zm16.6 26.5a10.49 10.49 0 0 0-4.4.9 28.84 28.84 0 1 0 2.2 22.3 16.35 16.35 0 0 0 2.2.2 11.7 11.7 0 0 0 0-23.4Zm51.8 35.1a9 9 0 0 0-7.5 4.1 14.8 14.8 0 1 0 0 9.4 8.78 8.78 0 0 0 7.5 4.1 8.8 8.8 0 1 0 0-17.6Zm-46-4.6a5.9 5.9 0 1 0 5.9 5.9 6 6 0 0 0-5.9-5.9Zm-56.6-48.7a6.45 6.45 0 0 0 3.9 1.2 6.7 6.7 0 1 0-4.1-12 9.14 9.14 0 0 0-2-2.4 74.63 74.63 0 0 0-14.4 15.8 10.63 10.63 0 0 0 7.3 2.9 10.81 10.81 0 0 0 9.3-5.5Z"/></g><g class="cls-10"><g class="cls-11"><path class="cls-13" d="M220.8 172.4a6.45 6.45 0 0 0 3.9 1.2 6.79 6.79 0 0 0 6.8-6.7v-.4a6.78 6.78 0 0 1-6.7 6.4 7.47 7.47 0 0 1-3.9-1.2 10.68 10.68 0 0 1-9.3 5.4 10.32 10.32 0 0 1-6.9-2.6c-.1.2-.2.3-.3.5a10.63 10.63 0 0 0 7.3 2.9 10.74 10.74 0 0 0 9.1-5.5Zm93.7 47.6a5.85 5.85 0 0 0 5.9-5.9v-.4a5.91 5.91 0 0 1-11.8 0v.4a5.91 5.91 0 0 0 5.9 5.9ZM255 164.1a5.85 5.85 0 0 0 5.9-5.9v-.4a5.91 5.91 0 0 1-11.8 0v.4a5.85 5.85 0 0 0 5.9 5.9Zm22.4 68.1a5.9 5.9 0 0 1-5.9-5.5v.4a5.9 5.9 0 0 0 11.8 0v-.4a6 6 0 0 1-5.9 5.5Zm39.8-33.3a30.22 30.22 0 0 1-30.2-29.8v.4a30.17 30.17 0 0 0 30.2 30.2 29.62 29.62 0 0 0 18.9-6.7c-.1-.2-.1-.4-.2-.6a29.68 29.68 0 0 1-18.7 6.5Zm6.2 43.8a9 9 0 0 1-7.5-4.1 14.78 14.78 0 0 1-28.8-4.4v.4a14.78 14.78 0 0 0 28.8 4.7 8.78 8.78 0 0 0 7.5 4.1 8.92 8.92 0 0 0 8.9-8.9v-.4a8.93 8.93 0 0 1-8.9 8.6Zm-51.8-29.4a15 15 0 0 1-2.2-.2 28.79 28.79 0 0 1-56.3-8.1v.4a28.79 28.79 0 0 0 56.3 8.5 16.35 16.35 0 0 0 2.2.2 11.65 11.65 0 0 0 11.7-11.7v-.4a11.77 11.77 0 0 1-11.7 11.3Z"/></g></g><path d="M265.7 240.9c-39.1 0-71.2-7.7-74-17.5a74.31 74.31 0 0 0 148 0c-2.9 9.8-34.9 17.5-74 17.5Z" style="fill:#9fd8ff"/><path class="cls-4" d="M223.5 250.5h-.2c-37.6-4.8-61-15.4-61-27.6 0-5.7 5.1-11.1 14.8-15.8a1.19 1.19 0 1 1 1.1 2.1c-8.8 4.2-13.5 9-13.5 13.7 0 10.6 23.7 20.7 58.9 25.2a1.2 1.2 0 0 1 1 1.3 1.27 1.27 0 0 1-1.1 1.1Zm28 2.2c-4.7-.2-9.3-.4-13.8-.8a1.2 1.2 0 0 1 .2-2.4c4.5.4 9.1.6 13.7.8a1.2 1.2 0 0 1 1.1 1.2 1.29 1.29 0 0 1-1.2 1.2Zm13.6.3h-5.9a1.22 1.22 0 0 1-1.2-1.2 1.29 1.29 0 0 1 1.2-1.2h5.9a315.76 315.76 0 0 0 41-2.5 1.16 1.16 0 0 1 .3 2.3 303.11 303.11 0 0 1-41.3 2.6Zm63.9-6.4a1.17 1.17 0 0 1-1.1-.9 1.16 1.16 0 0 1 .9-1.4c23.1-5.3 36.8-13.3 36.8-21.4 0-4.7-4.7-9.5-13.6-13.7a1.3 1.3 0 0 1-.6-1.6 1.17 1.17 0 0 1 1.6-.5c9.7 4.7 14.9 10.1 14.9 15.8 0 9.4-14.1 18-38.7 23.6 0 .1-.1.1-.2.1Z"/><path class="cls-4" d="M265.1 246.6c-32.6 0-62.4-4.9-77.8-12.7-7.2-3.7-10.8-7.7-10.8-12.1 0-3.6 2.4-7 7.3-10.1a1.15 1.15 0 1 1 1.3 1.9c-4.1 2.7-6.2 5.4-6.2 8.2 0 3.4 3.3 6.9 9.5 10.1 15.1 7.7 44.5 12.5 76.7 12.5a282.67 282.67 0 0 0 48-3.9 1.18 1.18 0 0 1 .5 2.3 301.17 301.17 0 0 1-48.5 3.8Zm74.4-38.7c.1.9.2 1.8.3 2.8 7.5 3.4 11.6 7.3 11.6 11 0 5.6-8.9 11.3-24.5 15.5a1.14 1.14 0 0 0-.8 1.4 1.17 1.17 0 0 0 1.1.9h.3c9.8-2.7 26.2-8.5 26.2-17.8 0-5.4-5.4-10-14.2-13.8Z"/><path class="cls-4" d="M183.1 202.3c3.3-1.1 6.7-2 10.3-3a26.81 26.81 0 0 1 .7-2.7c-28.5 7-46.7 18.3-46.7 31.2 0 6.5 4.5 12.6 13.3 18.2a1.42 1.42 0 0 0 .6.2 1.23 1.23 0 0 0 1-.5 1.16 1.16 0 0 0-.4-1.6c-8-5-12.2-10.6-12.2-16.2.1-9.5 12.2-18.8 33.4-25.6Zm82 64.4c-26.9 0-53.2-3-74-8.5a1.14 1.14 0 0 1 .6-2.2c20.6 5.5 46.7 8.5 73.4 8.5 3 0 6.1 0 9.1-.1a1.15 1.15 0 1 1 .1 2.3Zm26.3-1a1.2 1.2 0 0 1-.1-2.4c51.7-3.8 89.2-18.8 89.2-35.6q0-6.45-7.2-12.6a1.13 1.13 0 0 1 1.5-1.7c5.3 4.5 8.1 9.4 8.1 14.4-.1 18.3-37.7 33.9-91.5 37.9Z"/><circle class="cls-4" cx="333.2" cy="288.2" r="2.7"/><circle class="cls-4" cx="351" cy="266.7" r="2.7"/><circle class="cls-4" cx="277.3" cy="278.4" r="2.7"/><circle class="cls-4" cx="214" cy="255.9" r="2.7"/><circle class="cls-4" cx="182.6" cy="250.6" r="2.7"/><circle class="cls-4" cx="280.6" cy="293.5" r="2.7"/><circle class="cls-4" cx="367.8" cy="257.8" r="1"/><circle class="cls-4" cx="398" cy="214.2" r="1"/><circle class="cls-4" cx="158.3" cy="204.3" r="1"/><circle class="cls-4" cx="106.6" cy="223.7" r="1"/><circle class="cls-4" cx="337.2" cy="247.1" r="1"/><circle class="cls-4" cx="351.5" cy="233.5" r="1"/><circle class="cls-4" cx="175.8" cy="266.7" r="1"/><circle class="cls-4" cx="198.2" cy="277.4" r="1"/><circle class="cls-4" cx="242.2" cy="275.3" r="1"/><circle class="cls-4" cx="222.6" cy="274.3" r="1"/><circle class="cls-4" cx="391.6" cy="246.6" r="2.7"/><circle class="cls-4" cx="329" cy="273.2" r="2.7"/><circle class="cls-4" cx="378.9" cy="208.3" r="1.5"/><circle class="cls-4" cx="381.1" cy="249.6" r="1.5"/><circle class="cls-4" cx="145.5" cy="265.7" r="1.5"/><circle class="cls-4" cx="129.2" cy="246.1" r="1.5"/><circle class="cls-4" cx="146" cy="209.6" r="1.5"/><circle class="cls-4" cx="144.6" cy="223.7" r="1.5"/><path class="cls-4" d="M393.7 305.7a146.11 146.11 0 0 1-19.1-1.2 1.16 1.16 0 0 1 .3-2.3 142.59 142.59 0 0 0 18.8 1.2c29.3 0 49-7.9 49-15.2 0-2.8-2.8-5.7-8-8.1a1.12 1.12 0 0 1 1-2c6.1 2.9 9.3 6.4 9.3 10.2-.1 9.7-22.6 17.4-51.3 17.4Zm-31.4-3.6h-.3c-12.6-3.3-19.6-8.2-19.6-13.9 0-9.8 22.5-17.5 51.3-17.5a143.2 143.2 0 0 1 22.3 1.7 1.12 1.12 0 1 1-.4 2.2 140.24 140.24 0 0 0-22-1.7c-29.3 0-49 7.9-49 15.2 0 4.4 6.7 8.7 17.9 11.6a1.14 1.14 0 0 1 .8 1.4 1 1 0 0 1-1 1Z"/><path class="cls-4" d="M393.7 298.9c-14.9 0-30.6-3.8-30.6-10.8s15.8-10.8 30.6-10.8 30.6 3.8 30.6 10.8-15.8 10.8-30.6 10.8Zm0-19.2c-16.7 0-28.4 4.5-28.4 8.5s11.6 8.5 28.4 8.5 28.3-4.5 28.3-8.5-11.6-8.5-28.3-8.5Z"/><path class="cls-4" d="M395.2 293.7c-7.6 0-15.8-1.9-15.8-5.5s8.1-5.5 15.8-5.5a.6.6 0 0 1 0 1.2c-8.6 0-14.6 2.3-14.6 4.4s6 4.4 14.6 4.4a.65.65 0 0 1 .6.6.59.59 0 0 1-.6.4Z"/><path class="cls-4" d="M395.2 290.3a.6.6 0 0 1 0-1.2c2.8 0 4.2-.7 4.3-1-.1-.3-1.5-1-4.3-1a.6.6 0 0 1 0-1.2c2.6 0 5.4.7 5.4 2.2s-2.8 2.2-5.4 2.2Z"/><path class="cls-4" d="M395.2 290.3c-2.6 0-5.4-.7-5.4-2.2s2.8-2.2 5.4-2.2a.6.6 0 1 1 0 1.2c-2.8 0-4.2.7-4.3 1 .1.3 1.5 1 4.3 1a.65.65 0 0 1 .6.6.53.53 0 0 1-.6.6Zm-187.8-.1a94.57 94.57 0 0 1-12.1-.8c-.4-.1-.7-.4-.6-.8s.4-.7.8-.6a91.43 91.43 0 0 0 11.9.8c18.5 0 30.9-5 30.9-9.6 0-1.7-1.8-3.6-5-5.1a.74.74 0 0 1 .7-1.3c3.8 1.8 5.8 4.1 5.8 6.4-.1 6.2-14.3 11-32.4 11Zm-19.8-2.3h-.2c-8-2.1-12.4-5.2-12.4-8.7 0-6.2 14.2-11 32.4-11a90.58 90.58 0 0 1 14.1 1.1c.4.1.7.4.6.8s-.4.7-.8.6a87 87 0 0 0-13.9-1.1c-18.5 0-30.9 5-30.9 9.6 0 2.7 4.2 5.5 11.3 7.3a.72.72 0 0 1 .5.9.75.75 0 0 1-.7.5Z"/><path class="cls-4" d="M207.4 286c-9.4 0-19.3-2.4-19.3-6.8s10-6.8 19.3-6.8 19.3 2.4 19.3 6.8-10 6.8-19.3 6.8Zm0-12.2c-10.5 0-17.9 2.8-17.9 5.3s7.3 5.3 17.9 5.3 17.9-2.8 17.9-5.3-7.4-5.3-17.9-5.3Z"/><path class="cls-4" d="M208.4 282.7c-4.8 0-9.9-1.2-9.9-3.5s5.1-3.5 9.9-3.5a.4.4 0 0 1 0 .8c-5.4 0-9.2 1.5-9.2 2.8s3.8 2.8 9.2 2.8a.43.43 0 0 1 .4.4c-.1 0-.2.2-.4.2Z"/><path class="cls-4" d="M208.4 280.5a.4.4 0 0 1 0-.8 4.85 4.85 0 0 0 2.7-.6c0-.2-1-.6-2.7-.6a.4.4 0 0 1 0-.8c1.6 0 3.4.4 3.4 1.4s-1.8 1.4-3.4 1.4Z"/><path class="cls-4" d="M208.4 280.5c-1.6 0-3.4-.4-3.4-1.4s1.8-1.4 3.4-1.4a.4.4 0 0 1 0 .8 4.85 4.85 0 0 0-2.7.6c.1.2 1 .6 2.7.6a.43.43 0 0 1 .4.4c-.1.3-.2.4-.4.4ZM118.8 233a38.14 38.14 0 0 1-5.9-.4c-.2 0-.3-.2-.3-.4s.2-.3.4-.3a54.62 54.62 0 0 0 5.8.4c9.1 0 15.2-2.4 15.2-4.7 0-.9-.9-1.8-2.5-2.5a.38.38 0 0 1 .3-.7c1.9.9 2.9 2 2.9 3.2-.1 3-7 5.4-15.9 5.4Zm-9.7-1.1c-4-1-6.2-2.6-6.2-4.3 0-3 7-5.4 15.9-5.4a49.73 49.73 0 0 1 6.9.5c.2 0 .3.2.3.4s-.2.3-.4.3a48.26 48.26 0 0 0-6.8-.5c-9.1 0-15.2 2.4-15.2 4.7 0 1.3 2.1 2.7 5.5 3.6.2 0 .3.2.3.4a.32.32 0 0 1-.3.3Z"/><path class="cls-4" d="M118.8 230.9c-4.6 0-9.5-1.2-9.5-3.3s4.9-3.3 9.5-3.3 9.5 1.2 9.5 3.3-4.9 3.3-9.5 3.3Zm0-5.9c-5.2 0-8.8 1.4-8.8 2.6s3.6 2.6 8.8 2.6 8.8-1.4 8.8-2.6-3.6-2.6-8.8-2.6Z"/><path class="cls-4" d="M119.3 229.3c-2.4 0-4.9-.6-4.9-1.7s2.5-1.7 4.9-1.7a.2.2 0 1 1 0 .4c-2.7 0-4.5.7-4.5 1.4s1.9 1.4 4.5 1.4a.22.22 0 0 1 .2.2c-.1-.1-.1 0-.2 0Z"/><path class="cls-4" d="M119.3 228.3a.2.2 0 1 1 0-.4c.9 0 1.3-.2 1.3-.3s-.5-.3-1.3-.3a.2.2 0 1 1 0-.4c.8 0 1.7.2 1.7.7s-.9.7-1.7.7Z"/><path class="cls-4" d="M119.3 228.3c-.8 0-1.7-.2-1.7-.7s.9-.7 1.7-.7a.2.2 0 1 1 0 .4c-.9 0-1.3.2-1.3.3s.5.3 1.3.3a.22.22 0 0 1 .2.2c-.1.1-.1.2-.2.2Z"/><g class="cls-15"><path class="cls-16" d="M307.3 162.5c15.4 12.8 25.5 29.3 26.5 49.6.5 9.2-13.8 9.2-14.3 0-.8-16.6-9.8-29.2-22.3-39.5-7.1-5.9 3.1-16 10.1-10.1Z"/></g><g class="cls-15"><path class="cls-16" d="M284.8 164.4a10.93 10.93 0 0 0-1.5-.8c-.7-.3-.7-.3.2 0-.3-.1-.7-.3-1-.4-1.4-.5-2.7-.9-4.1-1.4-3.7-1.3-6.1-4.8-5-8.8 1-3.5 5.1-6.3 8.8-5 3.4 1.2 6.8 2.2 9.9 4a7.19 7.19 0 1 1-7.3 12.4Z"/></g><g class="cls-15"><path class="cls-16" d="M210.7 214.9c-.1-.6-.1-1.1-.2-1.7v-.9c.1-1.4.2-2.9.3-4.3.2-3.9-2.1-7.5-6.2-8-3.6-.5-7.8 2.3-8 6.2-.2 3.6-.7 7.1-.2 10.7a7.18 7.18 0 0 0 8 6.2 7.57 7.57 0 0 0 6.3-8.2Z"/></g><path class="cls-3" d="m22 83.4 1 1.8 1.7.9-1.7 1-1 1.7-.9-1.7-1.7-1 1.7-.9.9-1.8z"/><path d="M280.2 145.5c0-.8-1-1.5-2.8-2.1l.1-.1c-.2 0-.4-.1-.6-.1a42.07 42.07 0 0 0-11.9-1.4c-5.5 0-10.3.7-13 1.8-1.6.3-3.3.7-4.9 1.1a20.67 20.67 0 0 0-1.1 5c-.9.2-1.4.5-1.4.9l-.4 6.5a14.53 14.53 0 0 0-1.8 6.5s-.2.9 1.4 1.2a11.89 11.89 0 0 0 10.7-4.5l.6-9.2c0-.4-.5-.7-1.3-1 .1-.8.2-1.5.3-2a40.31 40.31 0 0 0 7.1 1c0 .5-.1 1.1-.1 1.7-.8.3-1.3.7-1.3 1.1l.3 6.5a14.67 14.67 0 0 0-1.1 6.7s0 1 1.5 1.1a11.81 11.81 0 0 0 10.2-5.6l-.4-9.2c0-.4-.5-.7-1.4-.9v-1.3c6.5-.6 11.3-2 11.3-3.7Z" style="opacity:.6;fill:#b2a7ff;isolation:isolate"/><path class="cls-4" d="M281.7 135.2a10.71 10.71 0 0 1-10.7 10.7 10.71 10.71 0 0 1-10.7-10.7v-9.6a10.71 10.71 0 0 1 10.7-10.7 10.71 10.71 0 0 1 10.7 10.7Z"/><path d="M281.7 131.2v-5.6a14.92 14.92 0 0 0-.2-2.1 5 5 0 0 0-.4 1.3 18.43 18.43 0 0 1-3.9 2.8 3.19 3.19 0 0 0 .3-1.4 1.7 1.7 0 0 0-.1-.7 12.37 12.37 0 0 0 3.5-3.7 10.7 10.7 0 0 0-20.7 3.8v9.6a10.73 10.73 0 0 0 10.1 10.7 4.82 4.82 0 0 1 .8-1.2c.2-.1.4-.3.6-.4s.1-.1.2-.1a10.7 10.7 0 0 0 1.6-1.4l.2-.2c.1-.1.2-.3.4-.4a1.38 1.38 0 0 0 .3-.4c.1-.1.2-.3.3-.4a5.58 5.58 0 0 0 .5-.8c.1-.1.1-.2.2-.4l.3-.6c.1-.1.1-.2.2-.4s.2-.5.3-.7a.35.35 0 0 1 .1-.2c.1-.3.2-.6.3-1a.37.37 0 0 1 .1-.3c0-.3.1-.5.1-.8v-.3c0-.4.1-.7.1-1.1v-1.1a15.33 15.33 0 0 0 3.7-1.6c.1-.3.6-.6 1.1-.9Z" style="fill:#1c2a8a"/><path d="M249.5 133.2a31.48 31.48 0 0 1-10.9-2.3 2.73 2.73 0 0 1 2.2-5c2.1.9 8.3 2.9 12.5 1.2a2.69 2.69 0 0 1 2 5 14.26 14.26 0 0 1-5.8 1.1Z" style="fill:#f5fafc"/><path class="cls-20" d="M250.7 133.1a15.19 15.19 0 0 0 4.7-1 2.94 2.94 0 0 0 1.5-1.4l.2-1.6c0-.2-.1-.3-.1-.5s-.1-.1-.1-.2l-1-1.1a2.87 2.87 0 0 0-2.4-.2 11 11 0 0 1-2.6.6c.3.8 1.5 3.4-.2 5.4Z"/><path class="cls-21" d="M245.7 130.5a3.55 3.55 0 0 1-4.5 2.3l-3.8-1.1a3.55 3.55 0 0 1-2.3-4.5 3.55 3.55 0 0 1 4.5-2.3l3.8 1.1a3.55 3.55 0 0 1 2.3 4.5Z"/><path class="cls-22" d="M240.4 123.5a3.23 3.23 0 0 1 .9 4.5l-1.7 2.5a3.23 3.23 0 0 1-4.5.9l-2.5-1.7a3.23 3.23 0 0 1-.9-4.5l1.7-2.5a3.23 3.23 0 0 1 4.5-.9Z"/><path class="cls-22" d="M232.6 126.1a1.43 1.43 0 0 1 .8 2 1.43 1.43 0 0 1-2 .8l-4.2-1.7a1.43 1.43 0 0 1-.8-2 1.43 1.43 0 0 1 2-.8Zm2-2.6a1.57 1.57 0 0 0 2.2 0 1.57 1.57 0 0 0 0-2.2l-3.2-3.2a1.57 1.57 0 0 0-2.2 0 1.57 1.57 0 0 0 0 2.2Zm-.7-.3a1.48 1.48 0 0 1 .4 2.1 1.48 1.48 0 0 1-2.1.4l-3.7-2.5a1.48 1.48 0 0 1-.4-2.1 1.48 1.48 0 0 1 2.1-.4Zm7.8 4.3a1.6 1.6 0 0 1-2.2.5 1.64 1.64 0 0 1-.7-2.2 4.28 4.28 0 0 0-.4-4.6 1.65 1.65 0 0 1 2.7-1.9c.1.2 2.8 4 .6 8.1Z"/><path class="cls-21" d="M237.3 128.9a.51.51 0 0 1-.5-.4c-1.3-4 1.2-5.9 1.3-5.9a.57.57 0 0 1 .7.9c-.1.1-2 1.5-.9 4.7a.61.61 0 0 1-.3.7Z"/><path class="cls-21" d="M235 128.2a.37.37 0 0 1-.3-.1.61.61 0 0 1-.1-.8 3.42 3.42 0 0 1 2.4-1 .55.55 0 1 1-.1 1.1 2.19 2.19 0 0 0-1.5.6c0 .1-.2.2-.4.2Zm-3.4-1h-.1c-.3-.1-.5-.3-.4-.6a8.31 8.31 0 0 1 2.9-5c.1-.1.1-.1.2-.1s.2-.3.4-.3a.57.57 0 0 1 .7.4c.1.4-.2.6-.5.9a7 7 0 0 0-2.5 4.4 1.08 1.08 0 0 1-.7.3Z"/><path class="cls-22" d="m244.3 146.9-1.1 6.4a15.38 15.38 0 0 0-2.6 6.3s-.3.9 1.2 1.4a11.83 11.83 0 0 0 11.1-3.2l1.6-9-1.5.5-1.9-.2-3.8-.9-2.3-1Z"/><ellipse class="cls-23" cx="249.4" cy="147.8" rx="1.5" ry="5.2" transform="rotate(-79.93 249.409 147.796)"/><path class="cls-24" d="M254.6 135.5a3.92 3.92 0 0 0-1.8.4c-.6.3-5.7 2.7-7.2 11.1-.1.5 1.5 1.2 3.6 1.6s3.9.3 4-.2c.6-3.9 2-5.2 2.5-5.6a3.85 3.85 0 0 0 2.4-3.3 3.66 3.66 0 0 0-3.5-4Z"/><path class="cls-20" d="m256.1 139.5-.9-1.8-3.2-1.4a10.58 10.58 0 0 0 2.6 7.8 3.94 3.94 0 0 1 1.1-1.3 3.76 3.76 0 0 0 1.8-1.5Z"/><ellipse class="cls-23" cx="250.11" cy="141.72" rx="3" ry="2.2" transform="rotate(-58.97 250.106 141.72)"/><ellipse class="cls-4" cx="249.49" cy="141.3" rx="1.6" ry="1.2" transform="rotate(-58.94 249.465 141.307)"/><ellipse class="cls-25" cx="249.22" cy="140.92" rx=".7" ry=".6" transform="rotate(-58.92 249.236 140.921)"/><path class="cls-26" d="M249.5 156.5c-.2 1.4.5 2.4 1.5 2.2s1.9-1.5 2.1-3-.5-2.4-1.5-2.2-1.9 1.6-2.1 3Z"/><path class="cls-24" d="M249.9 156.4c-.1 1.1.4 1.9 1.1 1.7a2.59 2.59 0 0 0 1.6-2.3c.1-1.1-.4-1.9-1.1-1.7a3 3 0 0 0-1.6 2.3Z"/><path class="cls-22" d="M250.3 156.4c-.1.8.3 1.4.8 1.3s1.1-.9 1.2-1.7-.3-1.4-.8-1.3-1.1.9-1.2 1.7Z"/><path class="cls-4" d="M250.7 156.3c-.1.5.2.8.5.7a1.32 1.32 0 0 0 .7-1c.1-.5-.2-.8-.5-.7a1.32 1.32 0 0 0-.7 1Z"/><path class="cls-16" d="M275.5 134.8a11.82 11.82 0 0 1-11.8 11.8 11.82 11.82 0 0 1-11.8-11.8v-10.5a11.82 11.82 0 0 1 11.8-11.8 11.82 11.82 0 0 1 11.8 11.8Z"/><path class="cls-20" d="M259.4 145.7a11.5 11.5 0 0 0 4.1.8 3.36 3.36 0 0 0 1.5-1.2l1.6-2.6.8-1.8 1.3-1.2-1.4-2.1s-5.9.9-7.9 8.1Z"/><path class="cls-24" d="M263.7 112.5a15.46 15.46 0 0 0-3.1.4 11.7 11.7 0 0 1 8.6 11.3v10.5a11.49 11.49 0 0 1-2.8 7.6 3.86 3.86 0 0 1 1.5 1.6 4.42 4.42 0 0 1 .6 1.6 11.71 11.71 0 0 0 6.9-10.7v-10.5a11.61 11.61 0 0 0-11.7-11.8Z"/><circle class="cls-24" cx="269.6" cy="130.4" r="2.2"/><circle class="cls-24" cx="269.6" cy="132.7" r="1.1"/><path class="cls-27" d="M284 107.7c-1.7 7.8-11.7 12.3-19.5 10.6l-7.3-1.6a14.59 14.59 0 0 1-11.1-17.3 14.59 14.59 0 0 1 17.3-11.1l9.1 2a14.88 14.88 0 0 1 11.5 17.4Z"/><path class="cls-25" d="M276.4 126.2a3.4 3.4 0 0 1-3.5 3.4h-18.5a3.46 3.46 0 0 1-3.5-3.4 3.48 3.48 0 0 1 3.5-3.5H273a3.46 3.46 0 0 1 3.4 3.5Z"/><path class="cls-23" d="M273 122.7h-18.5a3.48 3.48 0 0 0-3.5 3.5v.3c.2 0 .4.1.6.1l13.4 1.9a14.19 14.19 0 0 0 11.3-3.3 3.54 3.54 0 0 0-3.3-2.5Z"/><path class="cls-16" d="M282 116.9a14.37 14.37 0 0 1-17.1 11l-13.2-2.9a14.37 14.37 0 0 1-11-17.1l1.8-8.1a14.37 14.37 0 0 1 17.1-11l13.2 2.9a14.37 14.37 0 0 1 11 17.1Z"/><path class="cls-27" d="m256.4 88.5 15.6 3.4-1.5-2.1-7-1.5a15.37 15.37 0 0 0-7.1.2Z"/><path class="cls-27" d="m271.6 91.4-11.9-2.6a14.32 14.32 0 0 0-17.1 11l-1.8 8.1a14.3 14.3 0 0 0 1.8 10.6c.1 0 .1 0 .2.1l9.9 2.2a18.7 18.7 0 0 0 22.2-14.2 19 19 0 0 0-3.3-15.2Z"/><path class="cls-22" d="m269.6 91-10-2.2a14.32 14.32 0 0 0-17.1 11l-1.8 8.1a14.05 14.05 0 0 0 1 9.1 5 5 0 0 0 1.3.3l9.9 2.2a17.32 17.32 0 0 0 20.7-13.3 17 17 0 0 0-4-15.2Z"/><path d="M273.6 106.2c.1-.6.2-1.3.3-1.9l-23 14.8 2 .4a14.64 14.64 0 0 0 5.1.3l13.8-8.8a14.5 14.5 0 0 0 1.8-4.8Zm-4-15.2-1.8-.4-27.1 17.4a14.42 14.42 0 0 0 1 9 5 5 0 0 0 1.3.3l1.3.3 29.3-18.8a16.66 16.66 0 0 0-4-7.8Zm-28.2 14 23.4-15.1-3.2-.7-19.5 12.6-.7 3.2z" style="fill:#2e8dff"/><circle class="cls-16" cx="270.4" cy="113.4" r="7.8"/><circle class="cls-27" cx="270.4" cy="113.4" r="7"/><circle class="cls-25" cx="270.4" cy="113.4" r="4.9"/><circle class="cls-22" cx="270.4" cy="113.4" r="3.2"/><circle class="cls-23" cx="270.4" cy="113.4" r="1.9"/><path class="cls-25" d="M258 123.5a.75.75 0 0 1-.7.5l-3.2-.7a.75.75 0 0 1-.5-.7.75.75 0 0 1 .7-.5l3.2.7a.75.75 0 0 1 .5.7Zm2.9.7a.75.75 0 0 1-.7.5l-.3-.1a.75.75 0 0 1-.5-.7.75.75 0 0 1 .7-.5l.3.1a.51.51 0 0 1 .5.7Zm.4-1.8a.75.75 0 0 1-.7.5l-.3-.1a.75.75 0 0 1-.5-.7.75.75 0 0 1 .7-.5l.3.1a.75.75 0 0 1 .5.7Zm1.8.4a.75.75 0 0 1-.7.5l-.3-.1a.75.75 0 0 1-.5-.7.75.75 0 0 1 .7-.5l.3.1a.75.75 0 0 1 .5.7Zm-.4 1.8a.75.75 0 0 1-.7.5l-.3-.1a.75.75 0 0 1-.5-.7.75.75 0 0 1 .7-.5l.3.1a.51.51 0 0 1 .5.7Z"/><path d="M249.1 98.1a2 2 0 0 1-2.3 1.5 2 2 0 0 1-1.5-2.3l.4-1.9a2 2 0 0 1 2.3-1.5 2 2 0 0 1 1.5 2.3Zm-2.7 12.4a2 2 0 0 1-2.3 1.5 2 2 0 0 1-1.5-2.3l1.5-7a2 2 0 0 1 2.3-1.5 2 2 0 0 1 1.5 2.3Z" style="opacity:.3;isolation:isolate;fill:#fff"/><path class="cls-22" d="m259.2 149.9-.4 6.5a15.4 15.4 0 0 0-1.9 6.5s-.2.9 1.4 1.2a11.67 11.67 0 0 0 10.7-4.4l.6-9.2-1.4.7h-1.9l-3.9-.4-2.4-.8Z"/><ellipse class="cls-23" cx="264.39" cy="150.3" rx="1.5" ry="5.2" transform="rotate(-86.05 264.378 150.303)"/><path class="cls-24" d="M268.2 137.4a2.72 2.72 0 0 0-1.7.6c-.6.3-5.4 3.2-6 11.8 0 .5 1.7 1.1 3.8 1.2s3.9-.2 3.9-.7c.2-3.9 1.4-5.4 1.9-5.8a3.92 3.92 0 0 0 2.1-3.5 3.8 3.8 0 0 0-4-3.6Z"/><path class="cls-16" d="M266.8 150.2a.32.32 0 0 1-.3-.3c0-.2 0-5.7 4.1-8.4.1-.1.3 0 .4.1s0 .3-.1.4c-3.8 2.5-3.8 7.9-3.8 8s-.2.2-.3.2Z"/><ellipse class="cls-23" cx="264.4" cy="144.1" rx="3" ry="2.2" transform="rotate(-65.07 264.405 144.102)"/><ellipse class="cls-4" cx="263.78" cy="143.81" rx="1.6" ry="1.2" transform="rotate(-65.08 263.76 143.813)"/><ellipse class="cls-25" cx="263.47" cy="143.53" rx=".7" ry=".6" transform="rotate(-65.05 263.474 143.528)"/><path class="cls-26" d="M265.4 158.9c0 1.4.7 2.4 1.7 2.1s1.8-1.7 1.8-3.2-.7-2.4-1.7-2.1-1.8 1.8-1.8 3.2Z"/><path class="cls-24" d="M265.8 158.8c0 1.1.6 1.8 1.3 1.6s1.3-1.3 1.4-2.4-.6-1.8-1.3-1.6a2.6 2.6 0 0 0-1.4 2.4Z"/><path class="cls-22" d="M266.2 158.7c0 .8.4 1.3 1 1.2a2.06 2.06 0 0 0 1-1.8c0-.8-.4-1.3-1-1.2a1.87 1.87 0 0 0-1 1.8Z"/><path class="cls-4" d="M266.6 158.5c0 .5.2.8.6.7a1.17 1.17 0 0 0 .6-1c0-.5-.2-.8-.6-.7a1.17 1.17 0 0 0-.6 1Z"/><path class="cls-16" d="M279.2 132.1a32.59 32.59 0 0 0 8.3-7.4 2.72 2.72 0 1 0-4.4-3.2c-1.3 1.8-5.8 6.6-10.3 7.3a2.73 2.73 0 1 0 .8 5.4 18 18 0 0 0 5.6-2.1Z"/><path class="cls-21" d="M281.1 127.8a3.63 3.63 0 0 0 5.1-.3l2.7-2.9a3.63 3.63 0 0 0-.3-5.1 3.63 3.63 0 0 0-5.1.3l-2.7 2.9a3.72 3.72 0 0 0 .3 5.1Z"/><path class="cls-22" d="M282.3 119.2a3.28 3.28 0 0 0 1.4 4.4l2.7 1.4a3.28 3.28 0 0 0 4.4-1.4l1.4-2.7a3.28 3.28 0 0 0-1.4-4.4l-2.7-1.4a3.28 3.28 0 0 0-4.4 1.4Z"/><path class="cls-22" d="M290.4 117.6a1.59 1.59 0 0 0 .3 2.2 1.59 1.59 0 0 0 2.2-.3l2.8-3.5a1.59 1.59 0 0 0-.3-2.2 1.59 1.59 0 0 0-2.2.3Zm-3.1-1.3a1.46 1.46 0 0 1-1.9 1 1.46 1.46 0 0 1-1-1.9l1.2-4.3a1.46 1.46 0 0 1 1.9-1 1.46 1.46 0 0 1 1 1.9Zm.4-.7a1.53 1.53 0 0 0 .7 2.1 1.53 1.53 0 0 0 2.1-.7l2-4a1.53 1.53 0 0 0-.7-2.1 1.53 1.53 0 0 0-2.1.7Zm-4.6 7.6a1.58 1.58 0 0 0 2.1-.6 1.73 1.73 0 0 0-.5-2.3 4.88 4.88 0 0 1-2-4.2 1.66 1.66 0 0 0-3.3-.3c0 .2-.4 4.9 3.5 7.3Z"/><path class="cls-21" d="M287.6 122.3a.6.6 0 0 0 .3-.6c-.8-4.2-3.9-4.5-4.1-4.5a.55.55 0 0 0-.1 1.1c.1 0 2.4.3 3.1 3.6.1.3.3.5.6.4.1.1.2.1.2 0Z"/><path class="cls-21" d="M289.2 120.6c.1-.1.2-.2.2-.3a.52.52 0 0 0-.3-.7 2.86 2.86 0 0 0-2.6.4.51.51 0 1 0 .5.9 2 2 0 0 1 1.6-.2 1.76 1.76 0 0 1 .6-.1Zm2.6-2.6c.3-.3.3-.6.1-.8a8.76 8.76 0 0 0-5-2.9h-.2a.75.75 0 0 0-.5-.1.57.57 0 0 0-.4.7c.1.4.4.4.8.5a7.66 7.66 0 0 1 4.4 2.5.78.78 0 0 0 .8.1Z"/><g class="cls-15"><path class="cls-16" d="M227.8 126.1a.7.7 0 0 0 0-1.4.7.7 0 0 0 0 1.4Zm1.5.7a.7.7 0 0 0 0-1.4.7.7 0 0 0 0 1.4Zm-.1-4.5c.2.2.5.3.7.5.7.5 1.4-.7.7-1.2-.2-.2-.5-.3-.7-.5-.7-.5-1.4.7-.7 1.2Z"/><path class="cls-16" d="M231 123.5a.67.67 0 1 0 1-.9l-.1-.1c-.6-.6-1.5.4-.9 1Zm1.6-4.3a.7.7 0 0 0 0-1.4c-.8.1-.8 1.4 0 1.4Zm7.1 1.5a2.76 2.76 0 0 1 1 2.3.7.7 0 0 0 1.4 0 4.53 4.53 0 0 0-1.4-3.2c-.7-.6-1.7.3-1 .9Zm.9 4.7a.67.67 0 1 0 1-.9l-.1-.1c-.6-.6-1.5.4-.9 1Zm4.1 24.5c-.1 1.2-.4 2.4-.4 3.6-.1.9 1.3.9 1.4 0 .1-1.2.4-2.4.4-3.6a.7.7 0 0 0-1.4 0Zm-1.5 5.3a9.17 9.17 0 0 0-.9 2.3c-.3.8 1 1.2 1.3.4a8.36 8.36 0 0 1 .8-2 .7.7 0 0 0-1.2-.7Zm-1.6 4.1c0 .9 1.4.9 1.4.1v-.1a.7.7 0 0 0-1.4 0Zm18.3-6.5c0 .9-.2 1.8-.2 2.7s1.3.9 1.4 0a24.52 24.52 0 0 0 .2-2.7.7.7 0 0 0-1.4 0Zm-.2 5.1a.67.67 0 1 0 1-.9l-.1-.1c-.6-.6-1.5.4-.9 1Zm-1 1.3a5.22 5.22 0 0 0-.4 2.1c-.1.9 1.3.9 1.4 0a5.84 5.84 0 0 1 .4-1.8c.2-.8-1.1-1.1-1.4-.3Zm21.7-43.2a6.74 6.74 0 0 0 2.1 5.8c.6.6 1.5-.3 1-1a5.38 5.38 0 0 1-1.7-4.4c0-.9-1.3-1.2-1.4-.4Zm4.1 7.1a.7.7 0 0 0 0-1.4.7.7 0 0 0 0 1.4Zm2.2-11.1c.9 0 .9-1.4.1-1.4h-.1c-.8.1-.8 1.4 0 1.4Zm3.8.7a.67.67 0 1 0 1-.9l-.1-.1c-.6-.5-1.6.4-.9 1Zm3.2 1.9c-.3.4-.7.8-1 1.2-.6.7.4 1.6 1 1 .3-.4.7-.8 1-1.2.5-.7-.5-1.7-1-1Zm-8 2.3a2.23 2.23 0 0 1 1.3.6c.7.5 1.4-.6.7-1.2a4.45 4.45 0 0 0-2-.8.7.7 0 0 0 0 1.4Zm2.8 1.4a.67.67 0 1 0 1-.9l-.1-.1c-.6-.6-1.5.4-.9 1Z"/></g></svg>