<svg xmlns="http://www.w3.org/2000/svg" viewBox="0 0 496 274"><defs><style>.cls-2,.cls-28{fill:#f5f6ff}.cls-3{fill:#e6e8fc}.cls-11,.cls-13,.cls-19,.cls-23,.cls-24,.cls-31,.cls-35,.cls-38,.cls-39,.cls-43,.cls-44,.cls-46,.cls-6{fill:none}.cls-38{stroke-linecap:round}.cls-11,.cls-13,.cls-38,.cls-43,.cls-6{stroke-linejoin:round}.cls-18,.cls-22,.cls-5{fill:#fff}.cls-5{stroke:#cdd2f9}.cls-19,.cls-22,.cls-23,.cls-24,.cls-31,.cls-35,.cls-39,.cls-44,.cls-46,.cls-5{stroke-miterlimit:10}.cls-6{stroke:#fff}.cls-7{fill:#cdd2f9}.cls-8{fill:#ffc6b0}.cls-9{fill:#0b0b3a}.cls-10{fill:#182270}.cls-11,.cls-39,.cls-43{stroke:#2944b7}.cls-11,.cls-13,.cls-19,.cls-39{stroke-width:.75px}.cls-12{fill:#ffcbbd}.cls-13{stroke:#e88872}.cls-15{fill:#212237}.cls-17{fill:#0f7cff}.cls-19,.cls-44{stroke:#1f38b2}.cls-20{fill:#b6c2ff}.cls-21{fill:#8693f2}.cls-22,.cls-23{stroke:#8693f2}.cls-24{stroke:#277ef1;stroke-width:1.5px}.cls-26{fill:#e0ebfc;opacity:.75}.cls-28{mix-blend-mode:multiply}.cls-30{fill:#d4daff}.cls-31{stroke:#d4daff}.cls-33{fill:#fa0}.cls-34{fill:#e58303}.cls-35{stroke:#ffd550}.cls-36{fill:#ffc41f}.cls-38{stroke:#a53b00}.cls-43,.cls-44{stroke-width:.5px}.cls-42{fill:#202263}.cls-45{fill:#0029b7}.cls-46{stroke:#0029b7}</style></defs><g style="isolation:isolate"><g id="hero-people-4-core"><path class="cls-2" d="M361.05 69.3a20.18 20.18 0 0 0 .82 5.11 19.82 19.82 0 0 0 1.92 4.41l3.37-1.42a18.68 18.68 0 0 0 3.51 4.38l-2.11 3a20.53 20.53 0 0 0 6 3.91l.49.19a18.38 18.38 0 0 0 2.14.69l1.38-3.42.62.16c.24.06.47.11.71.15a18.74 18.74 0 0 0 4.24.35l.65 3.62a19.67 19.67 0 0 0 5.1-.82 19.9 19.9 0 0 0 4.42-1.92l-1.43-3.37a19.23 19.23 0 0 0 4.4-3.49l3 2.09a19.42 19.42 0 0 0 3-4.18 19.8 19.8 0 0 0 1.77-4.48l-3.39-1.37a19 19 0 0 0 .65-5.59l3.6-.64a19.74 19.74 0 0 0-.82-5.11 20 20 0 0 0-1.92-4.41l-3.35 1.42a18.8 18.8 0 0 0-3.5-4.4l2.08-3a20 20 0 0 0-8.66-4.79l-1.37 3.37a19 19 0 0 0-5.59-.66l-.65-3.57a19.91 19.91 0 0 0-9.51 2.74l1.41 3.33a18.49 18.49 0 0 0-4.42 3.51l-3-2.07a19.45 19.45 0 0 0-3 4.18 19.76 19.76 0 0 0-1.76 4.48l3.36 1.36a19.05 19.05 0 0 0-.64 5.6Zm10.62 1.78a12.25 12.25 0 1 1 15.72 8.51 12.29 12.29 0 0 1-15.72-8.51Z"/><path class="cls-2" d="M385.3 60.93a6.37 6.37 0 0 1 1.65.64 6 6 0 0 1 1.27.93 4.57 4.57 0 0 1 .83 1.09 2.4 2.4 0 0 1 .33 1.1.42.42 0 0 1-.13.31.41.41 0 0 1-.3.13h-2.66a1 1 0 0 1-.45-.08 1.26 1.26 0 0 1-.36-.24l-.19-.2a1.57 1.57 0 0 0-.38-.3 2.33 2.33 0 0 0-.61-.26 2.86 2.86 0 0 0-.89-.12 4.44 4.44 0 0 0-.74.06 2.23 2.23 0 0 0-.63.16 1.21 1.21 0 0 0-.45.31.8.8 0 0 0-.17.51.72.72 0 0 0 .19.51 1.82 1.82 0 0 0 .65.37 8.54 8.54 0 0 0 1.21.34c.5.11 1.12.24 1.87.38a10.8 10.8 0 0 1 2 .57 4.57 4.57 0 0 1 1.39.87 3.24 3.24 0 0 1 .83 1.21 4.61 4.61 0 0 1 .28 1.66 3.63 3.63 0 0 1-.33 1.56 4 4 0 0 1-.91 1.26 5 5 0 0 1-1.42.91 7.48 7.48 0 0 1-1.83.53v1.44a.57.57 0 0 1-.16.39.53.53 0 0 1-.39.16h-2.66a.49.49 0 0 1-.38-.16.54.54 0 0 1-.17-.39v-1.5a7 7 0 0 1-1.75-.64 6.24 6.24 0 0 1-1.34-.94 4.06 4.06 0 0 1-.87-1.15 3 3 0 0 1-.32-1.25.42.42 0 0 1 .13-.31.41.41 0 0 1 .3-.13h2.65a1.12 1.12 0 0 1 .45.07 1 1 0 0 1 .33.21l.24.26a2.15 2.15 0 0 0 .44.38 2.46 2.46 0 0 0 .69.33 3 3 0 0 0 1 .15 5.77 5.77 0 0 0 1.8-.24.86.86 0 0 0 .66-.82.64.64 0 0 0-.26-.51 2.73 2.73 0 0 0-.8-.37 10.93 10.93 0 0 0-1.35-.34l-1.94-.4a5.65 5.65 0 0 1-3.05-1.5 4 4 0 0 1-1-2.79 3.6 3.6 0 0 1 .27-1.37 4 4 0 0 1 .76-1.21 4.91 4.91 0 0 1 1.22-1 6.43 6.43 0 0 1 1.63-.63v-1.5a.54.54 0 0 1 .17-.39.49.49 0 0 1 .38-.16h2.66a.53.53 0 0 1 .39.16.57.57 0 0 1 .16.39Z"/><path class="cls-3" d="M342.19 33c1.91-1.51 5.14-.8 6.25-1.6 1.32-1 1.21-1.93 1.47-3.43a22.48 22.48 0 0 1 1.38-4.77 8.05 8.05 0 0 1 7.83-5.2 8.32 8.32 0 0 1 5.56 2.32c1.34 1.28 2 4.05 3.77 4.74 2.5 1 4.81-2.56 7.35-2.07a4.5 4.5 0 0 1 3.62 3.26 12.43 12.43 0 0 1-.07 3.22 3.24 3.24 0 0 0 1.11 2.89 2.8 2.8 0 0 0 1.36.4 15.17 15.17 0 0 0 3.65-.52 4.88 4.88 0 0 1 3.59.4c1.36.88 1.73 2.58 2.36 4a8.16 8.16 0 0 0 3.21 3.64c3.3 1.91 7.54.19 10.4 3h-60.92c-2 0-4.45-2.06-4.45-5.25a6.49 6.49 0 0 1 2.53-5.03ZM150.37 55.45c-4.09-.73-7.55-1.19-9.42-4.9s-3.07-7.8-5.56-11.14c-4.33-5.81-12.95-8.73-19.87-5.13-7.84 4.08-8.41 17.21-18.77 17.23-2.25 0-4.42-.86-6.67-1.09-4.94-.52-11.57 2.65-12.82 7.76-.33 1.37-2 7.58-6.31 7.58-2.81 0-9.64-1.14-13.25 4.22H152c3.52 0 5.72-3.36 5.72-5.76a9 9 0 0 0-7.35-8.77Z"/><path d="M183.57 49.7a2 2 0 1 1-2.57-1.14 2 2 0 0 1 2.57 1.14ZM97.54 32.5A2 2 0 1 1 95 31.36a2 2 0 0 1 2.54 1.14ZM21.91 137.34a2 2 0 1 1-2.56-1.14 2 2 0 0 1 2.56 1.14Zm227.32-84.78a2 2 0 1 1-2.56-1.14 2 2 0 0 1 2.56 1.14Zm176.38 9.3a2 2 0 1 1-2.56-1.14 2 2 0 0 1 2.56 1.14Zm52.19 101.48a2 2 0 1 1-2.56-1.14 2 2 0 0 1 2.56 1.14ZM207.57 21.3v3.87m1.94-1.94h-3.87m51.56-7.05v3.87m1.94-1.94h-3.87m-134.59 86.22v3.87m1.94-1.93h-3.87M51.4 85.4v3.88m1.94-1.94h-3.88m303.97-36.01v3.88m1.94-1.94h-3.88M37.95 158.61v3.88m1.94-1.94h-3.88m429.65-40.35v3.88m1.93-1.94h-3.87m-58.86-23.1v3.88m1.94-1.94h-3.87" style="stroke-linejoin:round;stroke-linecap:round;stroke:#b6c2ff;fill:none"/><path class="cls-5" d="M103.11 102.25a13.47 13.47 0 1 1-13.46-13.47 13.47 13.47 0 0 1 13.46 13.47Z"/><path class="cls-3" d="M91.33 95.56a6.21 6.21 0 0 1 2.77 1.49 4.31 4.31 0 0 1 .78 1 2.29 2.29 0 0 1 .31 1 .44.44 0 0 1-.12.3.41.41 0 0 1-.28.12h-2.52a.89.89 0 0 1-.43-.08 1.27 1.27 0 0 1-.34-.23 1.79 1.79 0 0 1-.18-.19 1.67 1.67 0 0 0-.36-.28 2.55 2.55 0 0 0-.57-.25 3 3 0 0 0-.85-.1 4 4 0 0 0-.7 0 2.51 2.51 0 0 0-.6.15 1.08 1.08 0 0 0-.42.3.71.71 0 0 0-.16.48.68.68 0 0 0 .18.48 1.55 1.55 0 0 0 .61.35 7.75 7.75 0 0 0 1.15.32l1.77.37a10.42 10.42 0 0 1 1.84.53 4.5 4.5 0 0 1 1.32.82 3.19 3.19 0 0 1 .79 1.16 4.32 4.32 0 0 1 .26 1.56 3.54 3.54 0 0 1-1.18 2.67 4.7 4.7 0 0 1-1.34.87 7.11 7.11 0 0 1-1.73.5v1.36a.49.49 0 0 1-.16.37.49.49 0 0 1-.36.15h-2.52a.49.49 0 0 1-.36-.15.49.49 0 0 1-.16-.37V109a6.78 6.78 0 0 1-1.66-.6 6.23 6.23 0 0 1-1.27-.9 3.86 3.86 0 0 1-.82-1.09 2.82 2.82 0 0 1-.3-1.18.44.44 0 0 1 .12-.3.39.39 0 0 1 .28-.12h2.52a1 1 0 0 1 .42.07 1.08 1.08 0 0 1 .31.2s.13.13.23.25a2.55 2.55 0 0 0 .41.35 2.39 2.39 0 0 0 .66.32 3 3 0 0 0 1 .14 5.85 5.85 0 0 0 1.7-.22.84.84 0 0 0 .68-.8.58.58 0 0 0-.25-.48 2.62 2.62 0 0 0-.75-.36 12.46 12.46 0 0 0-1.28-.32l-1.83-.38a5.38 5.38 0 0 1-2.9-1.41 3.74 3.74 0 0 1-.91-2.65 3.37 3.37 0 0 1 .25-1.29 4 4 0 0 1 .69-1.23 5 5 0 0 1 1.15-.9 6.1 6.1 0 0 1 1.55-.6v-1.38a.55.55 0 0 1 .52-.52h2.52a.55.55 0 0 1 .52.52Z"/><path class="cls-5" d="M173.17 29a9.36 9.36 0 1 1-9.36-9.35 9.36 9.36 0 0 1 9.36 9.35Z"/><path class="cls-3" d="M165 24.4a3.86 3.86 0 0 1 1.09.42 3.79 3.79 0 0 1 .83.61 2.76 2.76 0 0 1 .55.72 1.75 1.75 0 0 1 .22.72.25.25 0 0 1-.09.2.27.27 0 0 1-.2.09h-1.74a.87.87 0 0 1-.31-.05 1.38 1.38 0 0 1-.23-.16l-.13-.14a1.33 1.33 0 0 0-.24-.19 1.66 1.66 0 0 0-.4-.17 2 2 0 0 0-.59-.08 2.63 2.63 0 0 0-.49 0 1.64 1.64 0 0 0-.41.1.81.81 0 0 0-.3.21.52.52 0 0 0-.11.33.45.45 0 0 0 .13.34 1.13 1.13 0 0 0 .42.25c.2.07.47.14.8.22l1.23.25a7.27 7.27 0 0 1 1.28.37 3.14 3.14 0 0 1 .91.57 2.17 2.17 0 0 1 .55.8 3 3 0 0 1 .18 1.09 2.46 2.46 0 0 1-.21 1 2.55 2.55 0 0 1-.6.83 3.29 3.29 0 0 1-.94.6 5.26 5.26 0 0 1-1.2.35v.94a.33.33 0 0 1-.11.26.33.33 0 0 1-.25.1h-1.75a.33.33 0 0 1-.25-.1.36.36 0 0 1-.11-.26v-1a5 5 0 0 1-1.16-.42 4.21 4.21 0 0 1-.88-.63 2.62 2.62 0 0 1-.56-.75 1.94 1.94 0 0 1-.22-.82.29.29 0 0 1 .09-.21.26.26 0 0 1 .19-.09h1.75a.81.81 0 0 1 .3.05.85.85 0 0 1 .21.14l.16.17a1.49 1.49 0 0 0 .29.25 1.57 1.57 0 0 0 .45.22 2.17 2.17 0 0 0 .68.1 4 4 0 0 0 1.18-.16.57.57 0 0 0 .47-.55.42.42 0 0 0-.17-.34 2 2 0 0 0-.52-.24 6.79 6.79 0 0 0-.89-.22l-1.28-.27a3.8 3.8 0 0 1-2-1 2.62 2.62 0 0 1-.63-1.84 2.52 2.52 0 0 1 .17-.9 2.85 2.85 0 0 1 .5-.79 3.14 3.14 0 0 1 .8-.63 4.34 4.34 0 0 1 1.08-.42v-1a.36.36 0 0 1 .11-.25.34.34 0 0 1 .25-.11h1.75a.34.34 0 0 1 .25.11.32.32 0 0 1 .11.25Zm193.66 224.24c-1.51-23.85.94-57.78 11.49-88.29 11-31.65 30.46-59.42 52.1-51.31 8.31 3.11 9.42 17.07 5.93 30.06-10.31 38.31-34.19 61.47-43.37 109.54"/><path class="cls-6" d="M372.82 248.64c3.67-74.66 45.43-140.86 45.43-140.86"/><path class="cls-3" d="M112.42 248.64c-13-33-59.44-93.74-79.21-63.13-3.86 6-.26 15.56 5.72 22.31 17.62 19.9 36.25 14.05 56.2 40.82"/><path class="cls-6" d="M104.2 248.64C82.14 202.09 36 182 36 182"/><path class="cls-7" d="M121 248.64c7.57-50.64-22.58-146.48-61.69-121.38-9 5.75-4.69 27.89.41 40.39 12.8 31.4 34.48 39.33 43.28 81"/><path class="cls-6" d="M113.58 248.54c-.68-65.69-50.29-123.42-50.29-123.42"/><path class="cls-3" d="M158.79 248.64c10.07-39.59 8-123.78-34.6-113.63-8 1.9-10.89 13.9-9.77 24.48 3.29 31.21 23.67 50 24.49 89.15"/><path class="cls-6" d="M149.57 248.64c5.71-64.42-24-114.94-24-114.94"/><path class="cls-7" d="M385.74 248.64c3-29.76 12.17-66.89 26.93-89.11 11.83-17.79 30.29-25.76 41.22-14.67 6.07 6.16 3.77 24-5.47 37.39-16.34 23.73-35.86 32.21-46.74 66.39"/><path class="cls-6" d="M393.41 248.64c14.17-67.13 57.75-106 57.75-106"/><path class="cls-3" d="M401 248.64c9.89-27.86 35.71-60 55.29-65.86 7.91-2.36 20.08-1.49 21.6 7.36 1.21 7.1-5.91 17.86-14 23.88-14.89 11.07-28.89 15.55-45.4 34.62"/><path class="cls-6" d="M411.47 248.64C440.65 197 476 185.89 476 185.89"/><path class="cls-8" d="M342.88 144.46c.4 3 .79 6 1.19 9-5.15-.1-10.06.29-15.21.43 1.69-1 5.29-3 6.56-5.54"/><path class="cls-9" d="M344 157.39h-3a7.15 7.15 0 0 0 0-1.23 13.51 13.51 0 0 0-1.89.13 1.92 1.92 0 0 0-.55.56 1.47 1.47 0 0 1-1.15.54h-11.69c-1.44 0-1.67-1.52-.13-2.24s4.43-2.08 4.57-2.1c4.64.39 12.23-.36 13.72-1.75 1.12 1.06.12 6.06.12 6.09Z"/><path class="cls-8" d="M340.07 96.73c2.07 25.81 3.47 52.71 3.47 52.71l-8.12-1.12s-8.61-34.63-10.82-51.59m-5.11 47.73c.4 3 .79 6 1.19 9-5.15-.1-10.06.29-15.21.43 1.69-1 5.29-3 6.57-5.54"/><path class="cls-9" d="M320.56 157.39h-2.93a7.15 7.15 0 0 0 0-1.23 13.51 13.51 0 0 0-1.89.13 1.92 1.92 0 0 0-.55.56 1.46 1.46 0 0 1-1.15.54h-11.71c-1.44 0-1.66-1.52-.13-2.24s4.44-2.08 4.57-2.1c4.64.39 12.24-.36 13.72-1.75 1.13 1.06.09 6.06.07 6.09Z"/><path class="cls-8" d="M324 96.73c-1.66 25.8-3.81 52.71-3.81 52.71l-8.19-1.12s-3.55-33.2-3.55-51.59"/><path class="cls-10" d="M334.7 69.42c7.42 17.12 8.26 36.05 8.26 36.05s-10.56 2.78-19.19 2.78a135 135 0 0 1-17.61-1.37s2.3-29.59 5.85-38.65"/><path class="cls-11" d="M332.55 75.37c5.05 10.41 7.57 30.77 7.57 30.77"/><path class="cls-12" d="m305.18 36.1.5 3.48s2.53 1.63 4.66.77 2.11-2.13 2.11-2.13l-2.68-6.37"/><path class="cls-12" d="M301.5 30.31c-.44 2 .89 7.68 3.85 7.45s5.43-2.8 4.31-6.3c-1.17-3.67-7.02-6.46-8.16-1.15Z"/><path class="cls-13" d="M305.46 38a5.12 5.12 0 0 0 4.16-3.12"/><path d="M309.19 31.27zm-.04 0c0 .05.07.05.08 0 0-.05-.07-.05-.07 0Z" style="fill:#ff855a"/><path class="cls-15" d="M309.27 32.15a2.38 2.38 0 0 1-1.88-1.63 2.54 2.54 0 0 1-2.37.16 2.92 2.92 0 0 1-1.37-1.34 3.18 3.18 0 0 1-2.33 1.85 4.42 4.42 0 0 1 2.13-4.35 5.44 5.44 0 0 1 5.16-.41 5.52 5.52 0 0 1 2.83 4.19c.13 1.07-.17 3.22-1.08 3.1-.43-.06-1.09-1.57-1.09-1.57Z"/><path class="cls-12" d="M308.61 32a.76.76 0 0 1 .4-.71c.62-.38 1.22.36 1.28 1a1.9 1.9 0 0 1-.25 1.16c-.29.5-.76.7-1.14.24"/><path class="cls-15" d="M304.62 26.32a1 1 0 0 1-.76-1.15 2 2 0 0 1 .95-1.21 2.44 2.44 0 0 1 .71-.34 2.94 2.94 0 0 1 1.18-.05 2.06 2.06 0 0 1 1.24.58 1.38 1.38 0 0 1 0 1.61 2.43 2.43 0 0 1-1.5.93"/><path class="cls-12" d="M306 55.58c-5.31 13.72-19.61 28.52-19.61 28.52l-4.65-3.53s10-14 14.43-28.21"/><path class="cls-12" d="M282.92 79c-1.2 1.77-5.59 6.34-5.37 6.71s1.78-1.21 1.9-.87-2.11 2.94-1.79 3.26 2.58-2.34 2.58-2.34-2.18 3.15-1.68 3.42 2.14-2.13 2.94-2.94c-.75 1-1.76 2.7-1.39 2.9s1.62-1.37 2.65-2.52c-.57.77-1.52 2.23-1.19 2.42s3.66-3.4 6.64-6.91"/><path d="M280.11 84.63a8.84 8.84 0 0 0 2.78-1.13" style="stroke:#e8927e;stroke-width:.75px;stroke-miterlimit:10;fill:none"/><path class="cls-17" d="M304.69 40.23c-6.1 1.88-9 12.57-9 12.57l6.76 2.89 3-13.82"/><path class="cls-17" d="M304.69 40.23a5.47 5.47 0 0 0 3.41-.06 17.7 17.7 0 0 0 3.9-1.84s6.39-.31 12.62 6.26c3.19 3.37 8.51 12.95 11.67 25.75-11.87 3.84-29.18 6.23-29.18 6.23s-6.29-24.21-6.06-31.4c.12-2.41 3.64-4.94 3.64-4.94Z"/><path class="cls-18" d="m311.87 36.83-4.06 3.43 2.6 3.37 2.68-5.31-1.22-1.49zm-4.06 3.43-2.29-1.8-.83 1.77 1.23 3.73 1.89-3.7z"/><path class="cls-19" d="M302.17 55.39c-.72-3.62-1.08-6.22-1.08-6.22"/><path class="cls-20" d="M286.93 207.94h-57.19s2.37 36.42-9 36.42h75.09c-11.28 0-8.9-36.42-8.9-36.42Z"/><path class="cls-21" d="m229.09 229.83 57.65-11.68c-.1-5.77.19-10.21.19-10.21h-57.19a127 127 0 0 1-.65 21.89Z"/><rect class="cls-20" x="143.58" y="68.32" width="229.5" height="150.6" rx="5.57"/><rect class="cls-22" x="150.03" y="73.66" width="216.61" height="139.92" rx="2.59"/><path class="cls-23" d="M150.03 91.31h216.61"/><path class="cls-3" d="M340.62 85.81H191.39a3.7 3.7 0 0 1-3.7-3.7 3.7 3.7 0 0 1 3.7-3.7h149.23a3.7 3.7 0 0 1 3.71 3.7 3.71 3.71 0 0 1-3.71 3.7Z"/><path class="cls-22" d="M160.66 82.29a2 2 0 1 1-2-2 2 2 0 0 1 2 2Zm9.21 0a2 2 0 1 1-2-2 2 2 0 0 1 2 2Zm9.22 0a2 2 0 1 1-2-2 2 2 0 0 1 2 2Z"/><path class="cls-24" d="M318.79 142H197.88a8.3 8.3 0 0 1-8.3-8.3 8.29 8.29 0 0 1 8.3-8.29h120.91a8.29 8.29 0 0 1 8.29 8.29 8.3 8.3 0 0 1-8.29 8.3Z"/><path d="M318.79 125.42h-13.92V142h13.92a8.3 8.3 0 0 0 8.29-8.3 8.29 8.29 0 0 0-8.29-8.28Z" style="fill:#277ef1"/><path class="cls-18" d="m321.21 137.72-2.74-2.72a4.36 4.36 0 1 0-1.47 1.24l2.86 2.86a1 1 0 1 0 1.35-1.35Zm-3.1-5.33a3.1 3.1 0 1 1-3.1-3.1 3.1 3.1 0 0 1 3.1 3.1Z"/><path class="cls-26" d="M232.68 137.28h-34.6a3.57 3.57 0 0 1-3.57-3.57 3.57 3.57 0 0 1 3.57-3.57h34.6a3.57 3.57 0 0 1 3.57 3.57 3.57 3.57 0 0 1-3.57 3.57Z"/><path class="cls-20" d="M210.57 243.32h95.52v5.32h-95.52z"/><path class="cls-26" d="M242.1 160.31h-23.41a4 4 0 0 1-4-4 4 4 0 0 1 4-4h23.41a4 4 0 0 1 4 4 4 4 0 0 1-4 4Z"/><path class="cls-24" d="M218.99 157.32h22.81"/><path class="cls-26" d="M298 160.31h-41.59a4 4 0 0 1-4-4 4 4 0 0 1 4-4H298a4 4 0 0 1 4 4 4 4 0 0 1-4 4Z"/><path class="cls-24" d="M261.12 157.32h32.15"/><path class="cls-22" d="M324.21 97.99h8.76m4.25 0h8.76"/><path d="M349.14 95.62h1.18v1.18h-1.18zm1.64 0h1.18v1.18h-1.18zm1.65 0h1.18v1.18h-1.18zm-3.29 1.78h1.18v1.18h-1.18zm1.64 0h1.18v1.18h-1.18zm1.65 0h1.18v1.18h-1.18zm-3.29 1.79h1.18v1.18h-1.18zm1.64 0h1.18v1.18h-1.18zm1.65 0h1.18v1.18h-1.18z" style="opacity:.75;fill:#f5f6ff"/><path class="cls-2" d="M361.47 98a3 3 0 1 1-3-3 3 3 0 0 1 3 3Z"/><circle class="cls-21" cx="360.66" cy="78.41" r=".78"/><circle class="cls-21" cx="360.66" cy="82.11" r=".78"/><circle class="cls-21" cx="360.66" cy="85.81" r=".78"/><path class="cls-23" d="M293.27 243.61H244.4m-5.49 0h-15.95"/><rect class="cls-28" x="164.71" y="115.83" width="119.1" height="84.14" rx="3.68"/><rect class="cls-22" x="157.76" y="111.5" width="119.1" height="84.14" rx="3.68"/><path class="cls-21" d="M273.6 111.5H161a3.26 3.26 0 0 0-3.26 3.27v5.39h119.1v-5.39a3.26 3.26 0 0 0-3.24-3.27Z"/><path class="cls-2" d="M265 171.26h-94.43a1.61 1.61 0 0 1-1.61-1.61 1.61 1.61 0 0 1 1.61-1.61H265a1.61 1.61 0 0 1 1.6 1.61 1.61 1.61 0 0 1-1.6 1.61Zm0 5.6h-94.43a1.61 1.61 0 0 1-1.61-1.61 1.61 1.61 0 0 1 1.61-1.61H265a1.61 1.61 0 0 1 1.6 1.61 1.61 1.61 0 0 1-1.6 1.61Zm0 5.59h-94.43a1.61 1.61 0 0 1-1.61-1.61 1.61 1.61 0 0 1 1.61-1.61H265a1.61 1.61 0 0 1 1.6 1.61 1.61 1.61 0 0 1-1.6 1.61Zm0 5.55h-94.43a1.61 1.61 0 0 1-1.61-1.61 1.61 1.61 0 0 1 1.61-1.61H265a1.61 1.61 0 0 1 1.6 1.61A1.61 1.61 0 0 1 265 188Zm0-22.34h-94.43a1.61 1.61 0 0 1-1.61-1.61 1.61 1.61 0 0 1 1.61-1.61H265a1.61 1.61 0 0 1 1.6 1.61 1.61 1.61 0 0 1-1.6 1.61Z"/><path class="cls-20" d="M191.46 131.54a12.88 12.88 0 0 0-10.72-5.75v12.86Z" style="opacity:.75"/><path class="cls-3" d="m190.53 133.44-10.71 7.11v-12.86a12.87 12.87 0 1 0 10.71 5.75Zm64.27-5.75v12.86l-10.22 7.78a12.85 12.85 0 1 0 10.22-20.64Z"/><path class="cls-20" d="M227 147.68A12.85 12.85 0 0 0 216.85 127v12.86Z"/><path class="cls-3" d="m225.6 148.38-10.18-7.83v-12.86a12.86 12.86 0 1 0 10.18 20.69Z"/><path class="cls-20" d="M240.72 139.88a12.81 12.81 0 0 0 2.64 7.78l10.22-7.78V127a12.86 12.86 0 0 0-12.86 12.88Z"/><rect class="cls-28" x="229.77" y="90.71" width="130.92" height="96.23" rx="4.05"/><rect class="cls-22" x="222.12" y="85.95" width="130.92" height="96.23" rx="4.05"/><path class="cls-21" d="M349.46 86H225.71a3.59 3.59 0 0 0-3.59 3.59v5.92H353v-5.97a3.58 3.58 0 0 0-3.54-3.54Z"/><path class="cls-30" d="M322.75 113.1h8.76v6.17h-8.76z"/><path class="cls-31" d="M335.54 113.1h6.06m-6.06 6.17h12.25m-12.25-1.99h12.25m-12.25-1.93h12.25"/><path class="cls-30" d="M322.75 126.01h8.76v6.17h-8.76z"/><path class="cls-31" d="M335.54 126.01h6.06m-6.06 6.17h12.25m-12.25-1.99h12.25m-12.25-1.93h12.25"/><path class="cls-30" d="M322.75 138.91h8.76v6.17h-8.76z"/><path class="cls-31" d="M335.54 138.91h6.06m-6.06 6.17h12.25m-12.25-1.98h12.25m-12.25-1.94h12.25"/><path class="cls-30" d="M322.75 151.82h8.76v6.17h-8.76z"/><path class="cls-31" d="M335.54 151.82h6.06m-6.06 6.17h12.25M335.54 156h12.25m-12.25-1.93h12.25"/><path class="cls-30" d="M322.75 164.72h8.76v6.17h-8.76z"/><path class="cls-31" d="M335.54 164.72h6.06m-6.06 6.17h12.25m-12.25-1.98h12.25m-12.25-1.93h12.25"/><path d="M249.68 102.87h75.8m-65.43 3.85h55.06" style="stroke:#f5f6ff;stroke-width:2px;stroke-miterlimit:10;fill:none"/><path class="cls-20" d="M261.04 137.29v32.62h6.55v-37.38l-6.55 4.76zm-8.76 6.37-3.27-2.09v28.34h6.55v-28.63l-3.28 2.38zm-12.03-7.7-3.28 2.09v31.86h6.55v-31.85l-3.27-2.1zm56.88-6.28v40.23h6.55v-44.13l-6.55 3.9zm-20.79-3.51-3.27 2.38v41.36h6.55v-41.37l-3.28-2.37zm12.04 8.73-3.28-2.37v37.38h6.55v-36.96l-3.27 1.95z"/><path class="cls-31" d="M229.58 135.46v34.45h87.25"/><path class="cls-31" d="m228.13 136.31 1.45-1.07 1.45 1.07m84.78 32.53 1.45 1.07-1.45 1.08m-84.57-31.72 9.01-5.74 12.03 7.7 24.06-17.5 12.04 8.74 23.38-13.94"/><path class="cls-31" d="m308.85 118.01 2.77.47-.73 2.8m-73.92 53.37h6.36m5.77 0h6.36m5.77 0h6.36m5.77 0h6.36m5.77 0h6.36m5.77 0h6.35"/><path class="cls-23" d="M49.05 248.64h418.56"/><path class="cls-33" d="M97.13 200.23c-15.28 0-40.51 42.2-31.79 48.11s50.36 5.91 59.93 0-9.27-48.11-28.14-48.11Z"/><path class="cls-33" d="m101.18 207.28 7.2-18s-.23-2.92-5.17-3.82-4.28 2.92-8.77 2.92-9.78-4.38-13.44-.66l10.57 19.56Z"/><path class="cls-34" d="M99.94 216.66a8.61 8.61 0 0 1 2.31.89 8.79 8.79 0 0 1 1.78 1.3 6.47 6.47 0 0 1 1.16 1.52 3.6 3.6 0 0 1 .45 1.53.62.62 0 0 1-.18.44.59.59 0 0 1-.41.18h-3.72a1.58 1.58 0 0 1-.63-.11 2.11 2.11 0 0 1-.5-.34l-.27-.28a2.69 2.69 0 0 0-.52-.42 3.56 3.56 0 0 0-.85-.36 4.13 4.13 0 0 0-1.25-.16 6.85 6.85 0 0 0-1 .07 3.42 3.42 0 0 0-.88.23 1.53 1.53 0 0 0-.63.44 1 1 0 0 0-.24.7 1 1 0 0 0 .27.71 2.42 2.42 0 0 0 .91.53 13.79 13.79 0 0 0 1.68.47c.7.15 1.57.33 2.61.53a14.73 14.73 0 0 1 2.72.8 6.4 6.4 0 0 1 1.94 1.2 4.63 4.63 0 0 1 1.17 1.7 6.42 6.42 0 0 1 .38 2.31 5.07 5.07 0 0 1-.46 2.18 5.46 5.46 0 0 1-1.27 1.76 7 7 0 0 1-2 1.27 10 10 0 0 1-2.55.74v2a.73.73 0 0 1-.22.54.74.74 0 0 1-.54.23h-3.73a.79.79 0 0 1-.77-.77v-2.09a10 10 0 0 1-2.45-.9 8.28 8.28 0 0 1-1.87-1.31 5.5 5.5 0 0 1-1.2-1.61 4.11 4.11 0 0 1-.46-1.74.59.59 0 0 1 .19-.44.57.57 0 0 1 .41-.18H93a1.51 1.51 0 0 1 .62.1 1.4 1.4 0 0 1 .46.3c.07.07.19.19.34.36a3.36 3.36 0 0 0 .61.53 3.9 3.9 0 0 0 1 .47 4.54 4.54 0 0 0 1.43.19 8.19 8.19 0 0 0 2.51-.32 1.21 1.21 0 0 0 1-1.18.88.88 0 0 0-.36-.71 4.13 4.13 0 0 0-1.11-.52 16.5 16.5 0 0 0-1.88-.47l-2.71-.56a7.83 7.83 0 0 1-4.26-2.09 5.5 5.5 0 0 1-1.35-3.89 5.08 5.08 0 0 1 .37-1.92 5.54 5.54 0 0 1 1.06-1.68 6.52 6.52 0 0 1 1.7-1.33 8.94 8.94 0 0 1 2.28-.88v-2.1a.79.79 0 0 1 .77-.77h3.71a.74.74 0 0 1 .54.23.73.73 0 0 1 .22.54Z"/><path class="cls-35" d="M89.27 203.12c7.48 3.44 14.14-1.42 14.14-1.42"/><path class="cls-35" d="M99.19 203.69s5.58-3.16 3.92-8.15c-2.3-6.88-5 8.43-5 8.43 5.22 0 2.06 5.8 6.7 6.85m-7.6-6.67s-7.31-1.26-7.28-6.52c0-7.26 7.88 6.34 7.88 6.34-7.84 4.22-4.51 8.2-8.54 9.79"/><path class="cls-33" d="M365 195c-17 0-45.12 47-35.41 53.58s56.09 6.58 66.75 0S386 195 365 195Z"/><path class="cls-33" d="m369.47 202.87 8-20s-.25-3.26-5.76-4.26-4.75 3.25-9.76 3.25-10.89-4.88-15-.75l11.77 21.79Z"/><path class="cls-34" d="M368.09 213.31a9.62 9.62 0 0 1 2.57 1 9.21 9.21 0 0 1 2 1.45 6.91 6.91 0 0 1 1.29 1.69 4 4 0 0 1 .51 1.7.67.67 0 0 1-.21.49.62.62 0 0 1-.46.2h-4.13a1.75 1.75 0 0 1-.71-.12 2.18 2.18 0 0 1-.55-.38c-.07-.06-.17-.17-.3-.31a2.81 2.81 0 0 0-.59-.46 3.58 3.58 0 0 0-.94-.41 4.69 4.69 0 0 0-1.39-.18 8.42 8.42 0 0 0-1.15.08 4.24 4.24 0 0 0-1 .25 1.8 1.8 0 0 0-.7.49 1.18 1.18 0 0 0-.27.79 1.09 1.09 0 0 0 .3.79 2.79 2.79 0 0 0 1 .59 15.68 15.68 0 0 0 1.88.52l2.91.6a16.34 16.34 0 0 1 3 .88 7.21 7.21 0 0 1 2.16 1.34 5.06 5.06 0 0 1 1.29 1.89 7 7 0 0 1 .43 2.58 5.75 5.75 0 0 1-.51 2.43 6 6 0 0 1-1.42 1.95 7.5 7.5 0 0 1-2.21 1.42 11.31 11.31 0 0 1-2.84.82v2.25a.82.82 0 0 1-.25.6.86.86 0 0 1-.6.25h-4.13a.87.87 0 0 1-.86-.85v-2.34a11 11 0 0 1-2.73-1 9.74 9.74 0 0 1-2.08-1.47 6.08 6.08 0 0 1-1.34-1.79 4.6 4.6 0 0 1-.51-1.94.7.7 0 0 1 .67-.69h4.13a1.86 1.86 0 0 1 .7.11 2.26 2.26 0 0 1 .5.33l.38.41a3.79 3.79 0 0 0 .68.59 4.27 4.27 0 0 0 1.07.52 5.19 5.19 0 0 0 1.6.22 8.93 8.93 0 0 0 2.79-.37c.74-.24 1.12-.67 1.12-1.31a1 1 0 0 0-.41-.78 4.41 4.41 0 0 0-1.23-.59 18.89 18.89 0 0 0-2.1-.52l-3-.63a8.84 8.84 0 0 1-4.75-2.32 6.14 6.14 0 0 1-1.49-4.34 5.53 5.53 0 0 1 .41-2.13 6.13 6.13 0 0 1 1.18-1.88 7.43 7.43 0 0 1 1.89-1.48 10.09 10.09 0 0 1 2.54-1v-2.34a.89.89 0 0 1 .86-.85h4.13a.83.83 0 0 1 .6.26.78.78 0 0 1 .25.59Z"/><path class="cls-35" d="M356.2 198.23c8.33 3.84 15.76-1.57 15.76-1.57"/><path class="cls-35" d="M367.25 198.87s6.22-3.51 4.36-9.08c-2.55-7.66-5.52 9.39-5.52 9.39 5.82 0 2.3 6.46 7.47 7.64m-8.51-7.43s-8.15-1.41-8.11-7.27c0-8.08 8.78 7.06 8.78 7.06-8.73 4.7-5 9.14-9.52 10.91"/><path class="cls-36" d="M315.61 211.19c-12.73 0-33.74 35.15-26.48 40.07s41.95 4.92 49.91 0-7.73-40.07-23.43-40.07Z"/><path class="cls-36" d="m319 217.07 6-15s-.18-2.44-4.3-3.19-3.56 2.44-7.3 2.44-8.15-3.65-11.24-.56l8.8 16.29Z"/><path d="M318 224.87a7.84 7.84 0 0 1 1.92.75 6.81 6.81 0 0 1 1.48 1.08 5.37 5.37 0 0 1 1 1.27 2.91 2.91 0 0 1 .37 1.27.53.53 0 0 1-.15.37.46.46 0 0 1-.34.15h-3.09a1.3 1.3 0 0 1-.53-.09 2 2 0 0 1-.42-.29l-.22-.23a2.17 2.17 0 0 0-.44-.35 3 3 0 0 0-.71-.3 3.4 3.4 0 0 0-1-.13 5.9 5.9 0 0 0-.86.06 3.08 3.08 0 0 0-.74.19 1.28 1.28 0 0 0-.52.36.92.92 0 0 0-.2.59.82.82 0 0 0 .23.59 2.11 2.11 0 0 0 .75.44 12 12 0 0 0 1.41.39l2.17.45a11.71 11.71 0 0 1 2.26.66 5.18 5.18 0 0 1 1.62 1 3.75 3.75 0 0 1 1 1.42 5.29 5.29 0 0 1 .32 1.92 4.36 4.36 0 0 1-.38 1.82 4.71 4.71 0 0 1-1.06 1.46 6 6 0 0 1-1.65 1.06 8.79 8.79 0 0 1-2.13.61v1.68a.61.61 0 0 1-.19.45.62.62 0 0 1-.45.19h-3.09a.65.65 0 0 1-.45-.19.64.64 0 0 1-.18-.45v-1.75a8.27 8.27 0 0 1-2-.74 7 7 0 0 1-1.55-1.1 4.65 4.65 0 0 1-1-1.33 3.5 3.5 0 0 1-.37-1.45.53.53 0 0 1 .15-.37.48.48 0 0 1 .34-.15h3.09a1.42 1.42 0 0 1 .52.08 1.66 1.66 0 0 1 .38.25 3.55 3.55 0 0 1 .28.31 3.37 3.37 0 0 0 .51.43 3.14 3.14 0 0 0 .8.39 3.75 3.75 0 0 0 1.19.17 6.89 6.89 0 0 0 2.09-.27 1 1 0 0 0 .84-1 .69.69 0 0 0-.31-.59 2.92 2.92 0 0 0-.92-.44 15.57 15.57 0 0 0-1.57-.39c-.63-.12-1.38-.28-2.25-.47a6.62 6.62 0 0 1-3.55-1.74 4.58 4.58 0 0 1-1.12-3.24 4.13 4.13 0 0 1 .31-1.59 4.45 4.45 0 0 1 .88-1.41 5.93 5.93 0 0 1 1.42-1.11 7.37 7.37 0 0 1 1.9-.73v-1.74a.63.63 0 0 1 .63-.64h3.09a.65.65 0 0 1 .64.64Z" style="fill:#f2940c"/><path class="cls-38" d="M309.06 213.6c6.23 2.87 11.78-1.18 11.78-1.18"/><path class="cls-38" d="M317.32 214.08s4.65-2.63 3.27-6.79c-1.91-5.73-4.14 7-4.14 7 4.36 0 1.72 4.83 5.59 5.71m-6.37-5.54s-6.09-1.05-6.06-5.43c0-6 6.57 5.28 6.57 5.28-6.53 3.51-3.76 6.83-7.12 8.16"/><path class="cls-5" d="M460.52 99.78a9.36 9.36 0 1 1-9.36-9.36 9.36 9.36 0 0 1 9.36 9.36Z"/><path class="cls-3" d="M452.33 95.13a4.57 4.57 0 0 1 1.09.42 4.15 4.15 0 0 1 .83.61 3.28 3.28 0 0 1 .55.72 1.73 1.73 0 0 1 .21.72.32.32 0 0 1-.08.21.32.32 0 0 1-.2.08H453a.85.85 0 0 1-.3 0 1.38 1.38 0 0 1-.23-.16l-.13-.14a1.46 1.46 0 0 0-.25-.19 1.5 1.5 0 0 0-.4-.17 1.93 1.93 0 0 0-.58-.08 3.74 3.74 0 0 0-.49 0 2.16 2.16 0 0 0-.42.1.78.78 0 0 0-.29.21.47.47 0 0 0-.11.33.49.49 0 0 0 .12.34 1.28 1.28 0 0 0 .43.25 6.58 6.58 0 0 0 .8.22l1.22.25a7.39 7.39 0 0 1 1.29.37 3.14 3.14 0 0 1 .91.57 2.17 2.17 0 0 1 .55.8 3 3 0 0 1 .18 1.09 2.46 2.46 0 0 1-.21 1 2.74 2.74 0 0 1-.61.83 3.24 3.24 0 0 1-.93.6 5.06 5.06 0 0 1-1.2.35v.94a.36.36 0 0 1-.11.26.36.36 0 0 1-.25.11h-1.75a.36.36 0 0 1-.26-.11.35.35 0 0 1-.1-.26v-1a4.81 4.81 0 0 1-1.16-.42 4 4 0 0 1-.88-.63 2.67 2.67 0 0 1-.57-.75 2.07 2.07 0 0 1-.21-.82.29.29 0 0 1 .09-.21.25.25 0 0 1 .19-.09h1.75a.76.76 0 0 1 .29 0 1.13 1.13 0 0 1 .22.14l.16.18a1.39 1.39 0 0 0 .28.24 1.64 1.64 0 0 0 .46.22 1.89 1.89 0 0 0 .67.1 3.62 3.62 0 0 0 1.18-.16c.32-.1.48-.28.48-.55a.41.41 0 0 0-.18-.34 1.69 1.69 0 0 0-.52-.24 6.59 6.59 0 0 0-.88-.22l-1.28-.27a3.72 3.72 0 0 1-2-1 2.62 2.62 0 0 1-.63-1.84 2.32 2.32 0 0 1 .17-.9 2.46 2.46 0 0 1 .5-.79 3.38 3.38 0 0 1 .8-.63 4.34 4.34 0 0 1 1.08-.42v-1a.35.35 0 0 1 .1-.26.36.36 0 0 1 .26-.11H452a.36.36 0 0 1 .25.11.36.36 0 0 1 .11.26Z"/><path class="cls-10" d="M194.14 230.46s-33.45-3.26-35.47 5.68c-3 13.53 42.33 13.53 42.33 13.53l3.91-9.09-18.6-7.28"/><path class="cls-12" d="m193.17 251.78-9.24-.33s-1.47-.47-2.41-3.24-.55-3-.55-3l10.77-1.21"/><path class="cls-10" d="M204.91 229.3s25.59 1.55 24.51 13.18-39.22 10.7-39.22 10.7l-2.75-11.54s19.71-4.33 28.06-4.33"/><path class="cls-10" d="m203.2 228.06 19.62 10.34s-14.66 8.32-28.68 4.87-16.14-9.74-16.14-9.74Z"/><path class="cls-9" d="M184.56 244.67a1 1 0 0 0 .19.79c.3.29.92-.15 1.6.52a6 6 0 0 1 .68 3.8c-.25.52-.84.45-.8.78.07.69.89 1 .89 1s-2.05.29-4.74.49c-4.8.34-6.24.29-8 0-1.44-.24-3.13-2.91-1.3-4.73 2.74-2.75 8.74-2.56 8.74-2.56l2.74-.09"/><path class="cls-39" d="M187.87 243.4s17.58-6.66 27.64-7.31"/><path class="cls-39" d="M191.57 242.07s-13.28-7.92-21.82-8.54"/><path class="cls-12" d="M197 186.56s-2.32 6-.41 8c1 1.05 4 1.3 5.28.31 1-.74 2.46-5.38 1.94-6.21-1.99-3.14-6.81-2.1-6.81-2.1Z"/><path class="cls-12" d="m204.56 192.5.43 6.57s-4.21 3.3-7.66-.41l.73-4.27Z"/><path class="cls-9" d="M206.11 191.26c.3-1.37 1.18-3.6.35-4.47-.32-.33-.73-.54-1-.87a5 5 0 0 1-.69-1.16 4.8 4.8 0 0 0-1.45-1.8 2.44 2.44 0 0 0-2.21-.35 4.89 4.89 0 0 1-.8.31 2.82 2.82 0 0 1-1-.1 5.48 5.48 0 0 0-2.67.12 3.32 3.32 0 0 0-2.33 2 1.87 1.87 0 0 0 1.47 2.39c.51 0 1.07-.2 1.49.08a2 2 0 0 1 .36.36 2 2 0 0 0 2.1.47c.91-.36 1.36-.53 1.52.58a2.26 2.26 0 0 0 1.46 1.79 4.43 4.43 0 0 1 1.35.48 1.14 1.14 0 0 1 .3 1.34 3.87 3.87 0 0 0-.26.49c-.15.49.27 1 .65 1.31a5.94 5.94 0 0 0 1.36-2.97Z"/><path class="cls-12" d="M203.32 191.33c.6-.93 1.16-.85 1.51-.4s-.22 2-.57 2.25c-.72.53-1.34.54-1.46-.08"/><path class="cls-13" d="M197.85 195.6a5.62 5.62 0 0 0 4.24-.93"/><path class="cls-17" d="M190.17 200.22s-5.48 1.39-7.57 10.41c-1.21 5.23-2.57 10.54-2.57 10.54s-8.83 1-11.72 1.88l1.08 5s17.05 1.5 20.81-2.26 2.22-13.7 2.22-13.7"/><path class="cls-18" d="m199.64 200 6.24-.84 1.42.31s-11 30.91-11.2 30.91-4.06-.63-4.06-.63l2.84-30.45 1.34-.54Z"/><path class="cls-10" d="m199.11 201.61-.59 1.44s-4.74 9.33-4.74 11.55-.78 15.4-.58 15.4 3.42.39 3.42.39l3.35-14 .16-13.33"/><path class="cls-10" d="M198 200.25a5.85 5.85 0 0 0 .48 2.8 1.76 1.76 0 0 0 1.61 0c.24-.24 1.42-2.42 1-2.8a4.49 4.49 0 0 0-3.09 0Z"/><path class="cls-17" d="M195.49 221.49c5.66-15.1 11.95-22 11.95-22s6.82.64 8.74 4c2.41 4.23-.44 10.16-1 18.56s-1.28 6.26-1.28 6.26-8.43 3.21-15.89 3.21c0 0-8.65-.26-10.87-1.14v-12.1c0-5.31-1.34-13.82 1.38-17.13 1.19-1.45 6.54-1.85 6.54-1.85Z"/><path class="cls-21" d="M167 231h25.74l-2-15.4a1 1 0 0 0-1-.87h-23.8a1 1 0 0 0-.94 1.07Z"/><path class="cls-20" d="M176 222.72a1.91 1.91 0 0 0 1.88 1.77 1.62 1.62 0 0 0 1.64-1.77 1.92 1.92 0 0 0-1.88-1.76 1.62 1.62 0 0 0-1.64 1.76Z"/><path class="cls-18" d="m204.89 197.62-5.08 2.07-2.3-2.07-1.29 1.17.95 3.09 2.58-1.69 1.66 2.63 4.47-3.63-.99-1.57z"/><path class="cls-19" d="M208.91 200a49.73 49.73 0 0 0-2.62 11.38h-2.81l1.51 2.43s-5.88 3-9.56 12m-2.26-26.05a33.85 33.85 0 0 1-2 8.26l1.76 1.27-2.2 1.25s4 9.93 3.38 15.26"/><path style="stroke:#cae5ff;stroke-width:.75px;stroke-miterlimit:10;fill:none" d="m205.97 199.33-4.5 3.75-1.72-2.89-2.59 1.88-1.11-3.21"/><path class="cls-12" d="M191.18 228.58c-1.11-.07-6.13-.33-6.13 0s1.66.64 1.57.78-1.41.2-2.13.14-1.69-.06-1.75.22c-.12.53 3.41.81 3.41.81 0 .16-3.74-1-3.89-.59-.21.62 3.8 1.55 3.9 1.73 0 0-3.24-1.77-3.4-1.32s2.71 2.12 3.67 2.28c-.76-.28-2.9-1.95-3-1.62s1.81 1.55 2.14 1.65a19.86 19.86 0 0 0 5.33.9"/><path class="cls-18" d="m192.28 228.06-2.08.24.82 6.75 2.86-.14-1.6-6.85z"/><path class="cls-17" d="M207.76 212.12a111.39 111.39 0 0 1-.46 12.16 80.16 80.16 0 0 1-16.3 3.52c.53 3.36 1 7.63 1 7.63s17.48-1.25 22.48-4.77c5.41-3.79 6-26-.29-29"/><path class="cls-19" d="M192.54 227.45c13.5-2.17 15.36-3.17 15.36-3.17s1-8.3.62-13.07"/><path class="cls-12" d="m116.63 126.9-1.37 6.89s3.86 3.91 7.91.27v-4.62Z"/><path class="cls-12" d="M123.07 120.44s4.07 6.22 2 8.39c-1.06 1.14-4.86 2.16-6.26 1.11-1-.79-2.68-5.77-2.13-6.66 2.14-3.43 6.39-2.84 6.39-2.84Z"/><path class="cls-9" d="M116 120.9c.35-2.34 2.73-2.83 7.16-2.17.59.09 1.69-.22 1.92.33a2.21 2.21 0 0 1-2 3.25c-.82.12-1.71.82-1.36 1.7.09.23.33.63.14.8a2.78 2.78 0 0 1-.5.21c-.34.14-.36.63-.19 1s0 .65.23 1a2.07 2.07 0 0 1-1 2.4 5.28 5.28 0 0 1-4.39-.16c-1.3-.83-2-2.83-1.66-6.29.04-1.41 1.11-2.21 1.65-2.07Z"/><path class="cls-12" d="M122.17 125c-.65-1-1.26-.9-1.63-.42-.49.64.25 2.13.64 2.41.77.56 1.44.57 1.56-.09"/><path d="M123.05 130a2.48 2.48 0 0 1-1.33-1.56" style="stroke-width:.5px;stroke:#e88872;stroke-linejoin:round;fill:none"/><path class="cls-12" d="m112.05 243.25-2.2 9.24 7.7 2.96-16.15-2.07 1.38-11.09"/><path class="cls-9" d="M110.31 250.66c.48.17.13.5 1 1.49s5.65 2.88 7.94 3.57 1.73 2.57 1 2.57h-11.94c-.87 0-1.51-.71-2.18-.71-.18 0-.56-.13-.67 0a1.43 1.43 0 0 0-.15.7h-4c-.45 0-.72-.29-.68-.63L101 252s4.91.67 6.29.26c.56-.16 0-.59.21-.82a6 6 0 0 1 2.81-.78Z"/><path class="cls-42" d="M105.1 179.88c.6 21.37-4.14 67.53-4.14 67.53l13.1-.06s7.29-31.66 9.08-47.59c1.07-9.49 1.51-20.2 1.68-28.27"/><path class="cls-43" d="M121.49 200.2c-2 15.74-9.9 46.9-9.9 46.9"/><path class="cls-12" d="m133.79 242.92.48 9.57 7.69 2.96-16.15-2.07-.79-11.09"/><path class="cls-9" d="M134.72 250.66c.49.17.14.5.95 1.49s5.66 2.88 7.94 3.57 1.73 2.57 1 2.57h-11.88c-.88 0-1.51-.71-2.18-.71-.19 0-.56-.13-.67 0a1.32 1.32 0 0 0-.15.7h-4c-.45 0-.72-.29-.69-.63l.43-5.71s4.92.67 6.3.26c.56-.16 0-.59.21-.82a6 6 0 0 1 2.74-.72Z"/><path class="cls-42" d="M134.86 180.9s1.66 23.93 1.66 35.41.74 32.26.74 32.26H124s-3.28-35.29-10.69-59.81c-2.64-8.78-3-12.73-1.85-17.59l16.54-4.26Z"/><path class="cls-43" d="M129.65 180.22c4.74 32.14 5.66 68.41 5.66 68.41m-24.18-66.73a34.12 34.12 0 0 0 4.79 12c2 8 2.38 14 4 24.4m1.31-33.49a24.41 24.41 0 0 1-7.65.15m-5.46-.39a9.47 9.47 0 0 1-2.91-.06"/><path class="cls-12" d="M131.24 134.58a8.79 8.79 0 0 0-2.43-4c-.87-.66-1-.4-1.48-.66-.71-.41-1.11-.27-1.41.12-.19.24-.72.08-1 .29-.44.32-.13.79-.43.93-1.31.62.14 1.87.14 1.87s-.29-.67-.83-.39c-.35.19 1 2.11 2 3.38.49.66.87 1.14.87 1.14"/><path class="cls-18" d="M131.66 133.48c-.11-.12-1.2-1.6-1.2-1.6l-4.34 4 1.37.87"/><path class="cls-18" d="m127.04 138.07-1.36-1.28 5.42-4.45 1.25 1.86"/><path class="cls-17" d="M115.92 133.57a12.9 12.9 0 0 0-7.29.77c-8.53 4.21-13.22 18.58-13.44 22-.58 8.85 9.69 23.59 9.69 23.59l5.91-2.8s-6.34-15-4.63-19.91 9.74-13.55 9.74-13.55"/><path class="cls-17" d="M115.35 133.6s-7.14 1.57-9.84 11.85c-1.22 4.63.09 12.06-.19 18.46a165.58 165.58 0 0 1-1.82 17.93c13.18 2.67 32.15-.21 32.15-.21s-1.37-10.46-1.88-17.14a140.5 140.5 0 0 1-.46-15.23c0-13.7-9.7-14.67-9.7-14.67Z"/><path class="cls-17" d="M114.42 133.68a12 12 0 0 1 .84-1.8c1.76-.41 6.85-.23 8.19 1.12.55.54.29 1.27.41 2.2"/><path class="cls-44" d="M104.24 178.05c1.54-10.59 1-31.19 1-31.19"/><path class="cls-17" d="M124.06 144.88s4.41 18.08 14.54 18c9.58-.07 7-16.13-7.42-30.54l-8.79 7.37"/><path class="cls-44" d="M133.44 160.93a40.86 40.86 0 0 1-6-6.71m.05-18.13a44.5 44.5 0 0 1 12.35 15.34"/><path class="cls-12" d="M314.81 82.16c-.24 2.08-2 8-1.59 8.26s1-1.84 1.28-1.58-.48 3.51 0 3.66 1.18-3.17 1.18-3.17-.43 3.73.14 3.76c.41 0 .89-2.81 1.21-3.87-.19 1.19-.27 3.16.16 3.18s.79-1.91 1.15-3.36c-.14.93-.29 2.63.11 2.66s1.62-4.58 2.61-9"/><path class="cls-12" d="M324.46 52.36c1.67 14.51-4.21 33.64-4.21 33.64l-5.84-1.25s2.37-16.65-.3-31.27"/><path class="cls-17" d="M318.65 40.6c5.56 3.9 6 12.19 6 12.19l-10.61 2s-.53-6.45-.61-8.66"/><path class="cls-19" d="M313.68 54.79a29 29 0 0 0-1.22-5.62m12.67 3.52c-.31-3-.78-5.37-.78-5.37"/><circle class="cls-17" cx="140.69" cy="74.18" r="23.78" transform="rotate(-76.12 140.689 74.185)"/><circle class="cls-18" cx="140.69" cy="74.18" r="17.2"/><circle class="cls-17" cx="140.69" cy="74.18" r="11.82"/><circle class="cls-18" cx="140.69" cy="74.18" r="6.19"/><path class="cls-45" d="M141.65 75.14h-3.89l3.89-3.88v3.88zm-25.2-25.2H112v-1.12h3.33v-3.33h1.12v4.45z"/><path class="cls-45" d="M114.41 47.91h-4.44v-1.13h3.32v-3.32h1.12v4.45z"/><path class="cls-45" transform="rotate(-45 127.123 60.604)" d="M126.55 41.59h1.12v38.03h-1.12z"/><path class="cls-46" d="m368.25 258.29-7.41-99.08m37.49 99.08-7.41-99.08h-30.08m22.67 99.08 7.41-99.08"/><path class="cls-46" d="m353.43 258.29 7.41-99.08h30.08m6.22 85.04h-42.66m41.7-12.13h-40.79m39.6-12.47h-38.67m37.48-11.88h-36.59m35.84-12.41H358.1m34.21-12.3h-33.28m32.59-11.62h-31.69"/><path class="cls-12" d="m388.76 114.66 1.54 6.86s-3.76 4-7.89.47l-.07-4.62Z"/><path class="cls-12" d="M380 108.66s-1.84 7.19.8 8.6c1.36.73 5.29.47 6.27-1 .73-1.08.68-6.32-.14-7-3.12-2.53-6.93-.6-6.93-.6Z"/><path class="cls-17" d="M387.94 106.58c-1.09-2.1-3.51-1.67-7.17-.21-1.41.57-2.95 0-3.09.63a2.89 2.89 0 0 0 1.37 3.39 4 4 0 0 0 2.18 0c1.59-.55 2.92.21 2.87 1.16 0 .25-.11.7.12.8a2 2 0 0 0 .55 0c.36 0 .54.49.48.85s.78.28.72.64c-.15.85 1.49 1.93 2.35 2s1.09-.5 1.47-1.54c.52-1.42 1.43-7.83-1.85-7.72Z"/><path class="cls-12" d="M384.46 112.55c.3-1.15.91-1.25 1.41-.92.67.45.45 2.1.18 2.49-.55.78-1.18 1-1.51.42"/><path class="cls-13" d="M382.35 117.78a4.12 4.12 0 0 0 2.7-1.46"/><path class="cls-12" d="m411.47 221.89 7.46 5.87-4.19 7.1 11.36-11.65-7.97-7.83"/><path class="cls-9" d="M417.43 226.61c-.27.43.21.48.18 1.76s-2.63 5.77-4 7.73.24 3.09.83 2.62l9.29-7.38c.68-.54.74-1.48 1.27-1.9.14-.12.36-.45.52-.41s.56.45.56.45l3.15-2.5a.61.61 0 0 0 .15-.92l-3.89-4.2s-3.44 3.58-4.77 4.12c-.54.22-.35-.48-.68-.52a6.26 6.26 0 0 0-2.61 1.15Z"/><path class="cls-17" d="M406 165.41c0 7.11-.11 18.09 1.61 29.41.67 4.47 16 24.44 16 24.44l-9.11 8.56s-26.41-23.36-25.75-40.32c.7-18.32-2.57-43.11-2.57-43.11"/><path class="cls-12" d="m380.6 227.82.85 10.2-7.7 2.95 16.15-2.07-.03-11.08"/><path class="cls-9" d="M381 236.18c-.49.17-.14.51-1 1.49s-5.65 2.89-7.94 3.57-1.73 2.57-1 2.57H383c.87 0 1.51-.7 2.18-.7.18 0 .56-.13.67 0a1.43 1.43 0 0 1 .15.7h4c.45 0 .72-.29.69-.63l-.44-5.7s-4.91.66-6.29.26c-.56-.17 0-.59-.21-.83a6.27 6.27 0 0 0-2.75-.73Z"/><path class="cls-17" d="M376.2 166.42s-1.65 23.93-1.65 35.42 3.25 32.26 3.25 32.26H391s-.7-35.3 6.7-59.82c2.65-8.77 3-12.72 1.85-17.58l-16.48-4.27Z"/><path class="cls-19" d="M380.47 165.74c-5 29.73-.07 68.36-.07 68.36m19.83-65.19c0 3.69-1.09 5.46-3.94 8.3-2 8.59-2.29 16.37-3.65 24.08"/><path class="cls-19" d="M393.68 195.47c7.63 15.43 22.32 30.21 22.32 30.21m-26.16-55.35a24.24 24.24 0 0 0 7.65.16m5.45-.4a9.11 9.11 0 0 0 2.91-.06"/><path class="cls-10" d="M381.38 121.33a11.21 11.21 0 0 1 .67-2.09 18 18 0 0 1 7.57-1.92l.79 2.5"/><path class="cls-12" d="M348.52 138.41c-2.16.1-8.49-.64-8.68-.24s2 .69 1.8 1-3.67.08-3.76.53c-.12.61 3.42.64 3.42.64s-3.88.16-3.83.72c0 .4 3 .41 4.14.56-1.25 0-3.28.23-3.23.64s2.06.46 3.61.58c-1 0-2.74.14-2.72.52s4.93.85 9.57 1.11"/><path class="cls-18" d="m347.56 144.95-2.44-.1.61-6.92 2.62-.06"/><path class="cls-10" d="M384.82 119.29c.23-.05 2.9-.43 3.16-.44 2.76-.16 7.52 1.69 11.09 10.52 4.58 11.33 7.64 36.81 7.64 36.81s-19.33 3.69-32.94 2.48c-.97-17.77-5.28-46.03 11.05-49.37Z"/><path class="cls-11" d="M377.59 141.44a133.33 133.33 0 0 1 4.24 27.4"/><path class="cls-10" d="M387 119.08a19.62 19.62 0 0 0-12.25 5.73c-3.5 3.62-6.13 8-8.73 10.09-3 2.36-19.15 2.68-19.15 2.68l.11 7.94s15.76 2.12 21.05.49 11.35-6.26 11.35-6.26"/><path class="cls-11" d="M373.32 144a31.62 31.62 0 0 0 5.92-3.81"/></g></g></svg>