<svg xmlns="http://www.w3.org/2000/svg" viewBox="0 0 496 274"><defs><clipPath id="clip-path"><path class="cls-1" d="M260.72 235.86c0 2 9 3.71 20 3.71s20-1.66 20-3.71v-6.51h-40Z"/></clipPath><clipPath id="clip-path-2"><path class="cls-1" d="M262.73 229c0 2.05 9 3.72 20 3.72s20-1.67 20-3.72v-6.5h-40Z"/></clipPath><clipPath id="clip-path-3"><path class="cls-1" d="M260.72 222.16c0 2.06 9 3.72 20 3.72s20-1.66 20-3.72v-6.51h-40Z"/></clipPath><clipPath id="clip-path-4"><path class="cls-1" d="M261.78 215.05c0 2.06 9 3.72 20 3.72s20-1.66 20-3.72v-6.51h-40Z"/></clipPath><clipPath id="clip-path-5"><path class="cls-1" d="M260.11 207.81c0 2.05 9 3.71 20 3.71s20-1.66 20-3.71v-6.51h-40Z"/></clipPath><clipPath id="clip-path-6"><path class="cls-1" d="M259.41 200.31c0 2.05 9 3.72 20 3.72s20-1.67 20-3.72v-6.51h-40Z"/></clipPath><clipPath id="clip-path-7"><path class="cls-1" d="M384.65 226.56c0 2.05-9 3.72-20 3.72s-20-1.67-20-3.72v-6.51h40.07Z"/></clipPath><clipPath id="clip-path-8"><path class="cls-1" d="M387.15 219.71c0 2.06-9 3.72-20 3.72s-20-1.66-20-3.72v-6.51h40.07Z"/></clipPath><clipPath id="clip-path-9"><path class="cls-1" d="M385.26 212.87c0 2-9 3.71-20 3.71s-20-1.66-20-3.71v-6.51h40.07Z"/></clipPath><clipPath id="clip-path-10"><path class="cls-1" d="M382.64 205.76c0 2.05-9 3.71-20 3.71s-20-1.66-20-3.71v-6.51h40.07Z"/></clipPath><clipPath id="clip-path-11"><path class="cls-1" d="M381.45 198.51c0 2.05-9 3.72-20 3.72s-20-1.67-20-3.72V192h40.07Z"/></clipPath><clipPath id="clip-path-12"><path class="cls-1" d="M383.38 191c0 2.06-9 3.72-20 3.72s-20-1.66-20-3.72v-6.5h40.07Z"/></clipPath><clipPath id="clip-path-13"><path class="cls-1" d="M353 207.21c6.92 3.12 9.27 12.9 5.24 21.84s-12.92 13.66-19.85 10.54c-1.6-.73-5.68-2.26-5.68-2.26s-2.66-12.72.44-19.59c3.18-7.05 14-12.71 14-12.71s4.35 1.52 5.85 2.18Z"/></clipPath><clipPath id="clip-path-14"><path class="cls-1" d="M102.9 258.91c0 2.06 9 3.72 20 3.72s20-1.66 20-3.72v-6.51h-40Z"/></clipPath><clipPath id="clip-path-15"><path class="cls-1" d="M101.2 252.07c0 2.05 9 3.72 20 3.72s20-1.67 20-3.72v-6.51h-40Z"/></clipPath><clipPath id="clip-path-16"><path class="cls-1" d="M102 245.22c0 2.05 9 3.72 20 3.72s20-1.67 20-3.72v-6.51h-40Z"/></clipPath><clipPath id="clip-path-17"><path class="cls-1" d="M102.1 238.11c0 2 9 3.72 20 3.72s20-1.67 20-3.72v-6.51h-40Z"/></clipPath><clipPath id="clip-path-18"><path class="cls-1" d="M103.25 231.26c0 2.06 9 3.72 20 3.72s20-1.66 20-3.72v-6.51h-40Z"/></clipPath><style>.cls-1,.cls-14,.cls-17,.cls-4,.cls-40,.cls-42,.cls-47,.cls-55{fill:none}.cls-3{fill:#c7e3f9}.cls-4{stroke:#fff;stroke-linecap:round}.cls-17,.cls-4,.cls-40,.cls-42,.cls-47,.cls-55,.cls-7{stroke-linejoin:round}.cls-5{fill:#e3f1fc}.cls-40,.cls-42,.cls-47,.cls-55{stroke-width:.75px}.cls-45,.cls-7{fill:#fff}.cls-7{stroke:#c7e3f9}.cls-10,.cls-13{opacity:.75}.cls-11,.cls-13{fill:#c7e0ff}.cls-12{fill:#a7d2f9}.cls-14{stroke:#c7e0ff;stroke-miterlimit:10}.cls-15{fill:#f2940c}.cls-17{stroke:#ef9506;stroke-width:1.5px}.cls-17,.cls-20{opacity:.45;mix-blend-mode:multiply}.cls-18{fill:#ffc41f}.cls-19{fill:#f79f11}.cls-20{fill:#ef9506}.cls-32{fill:#fcaf15}.cls-34{fill:#ffd522}.cls-37{fill:#ffcbbd}.cls-38{fill:#182270}.cls-39{fill:#506ccd}.cls-40{stroke:#23378c}.cls-41{fill:#212237}.cls-42{stroke:#e88872}.cls-44{fill:#837fcb}.cls-47{stroke:#2944b7}.cls-51{fill:#ffc6b0}.cls-52{fill:#0b0b3a}.cls-54{fill:#172bce}.cls-55{stroke:#6a6ac6}.cls-56{fill:#6a6ac6}.cls-57{fill:#515bd4}</style></defs><g style="isolation:isolate"><g id="hero-people-5-core"><path class="cls-3" d="M209.53 252.27s10.69-27.6 25.44-38.49c15.34-11.33 32.27-5.16 33.75-24s-29.55-12.6-44.86 1.55c-25.71 23.75-25.6 61-25.6 61Z"/><path class="cls-4" d="M204.74 247.36s8.91-53.06 63.7-61.78"/><path class="cls-3" d="M147.28 252.27s-13.46-24.69-29.45-33.55c-16.63-9.21-33.84-3.4-36.46-19.37-3.08-18.66 27.42-15.9 44.68-4.38 24.92 16.63 35 57.3 35 57.3Z"/><path class="cls-4" d="M152 248s-12.85-53.11-70.83-51.79"/><path class="cls-5" d="M159.92 252.27s-10.22-48-28.84-61.77c-16.54-12.22-33.54-10.66-33.08-31.73s33-10.84 47.23 7c22.43 28.08 23.65 86.49 23.65 86.49Z"/><path class="cls-4" d="M165.72 251.6s-7.93-86.51-65.47-100.27"/><path class="cls-3" d="M169.19 249.61c0 3.94.51-45.07-8.4-67.62-8.08-20.47-29.94-28-19.91-46.9s40.48 7.13 44.1 32.64c5.08 35.79-3.34 81.88-3.34 81.88Z"/><path class="cls-4" d="M173.22 249.07s15.49-89.78-29-118.17"/><path class="cls-5" d="M194.62 251.77s5.09-40 22.44-56.38c14.79-13.94 32.51-12.45 30.12-32.41s-33.72-10.54-46.39 7.78c-19.24 27.85-16.67 81.51-16.67 81.51Z"/><path class="cls-4" d="M189.07 252.27s4.17-73.37 55.49-92.71"/><path d="M347.39 75.86v3.82m1.91-1.91h-3.82M110.9 43.27v3.82m1.91-1.91h-3.82M89.48 155.14v3.82m1.92-1.91h-3.83M219.99 9.65v3.82m1.91-1.91h-3.82m28.62 100.85v3.82m1.91-1.91h-3.82m91.88-10.81a1.34 1.34 0 1 1-1.34-1.34 1.34 1.34 0 0 1 1.34 1.34ZM171.32 35a1.34 1.34 0 1 1-1.32-1.33 1.34 1.34 0 0 1 1.32 1.33Zm114.57 6.33a1.33 1.33 0 1 1-1.33-1.33 1.34 1.34 0 0 1 1.33 1.33ZM88.91 95.69a1.34 1.34 0 1 1-1.34-1.33 1.33 1.33 0 0 1 1.34 1.33Zm179.97 71.85a1.33 1.33 0 1 1-1.33-1.33 1.33 1.33 0 0 1 1.33 1.33Zm132.98-24.24a1.33 1.33 0 1 1-1.33-1.33 1.32 1.32 0 0 1 1.33 1.33Z" style="stroke-width:.75px;stroke:#c9e1f4;stroke-linejoin:round;stroke-linecap:round;fill:none"/><path class="cls-7" d="m315.27 48.72-29.89 2.14 8.58 8.58-36.12 36.12h20.28l25.98-25.98 9.02 9.03 2.15-29.89z"/><path class="cls-7" d="m278.04 95.56-23.62-23.62h-20.27l23.61 23.62h20.28z"/><path class="cls-7" d="M234.06 71.94 194.8 111.2h20.27l39.26-39.26h-20.27z"/><path class="cls-5" d="M215.67 37.6a19.28 19.28 0 0 0 .79 4.94 19.79 19.79 0 0 0 1.86 4.28l3.26-1.38a18.27 18.27 0 0 0 3.4 4.24l-2 2.94a19.49 19.49 0 0 0 4.02 2.93 18.24 18.24 0 0 0 1.79.85l.48.2a19.7 19.7 0 0 0 2.06.66l1.34-3.26.61.15c.23.06.45.11.69.15a17.48 17.48 0 0 0 4.1.33l.63 3.52a19.3 19.3 0 0 0 4.94-.8 18.86 18.86 0 0 0 4.28-1.86l-1.39-3.27a18.09 18.09 0 0 0 4.27-3.38l2.92 2a18.72 18.72 0 0 0 2.93-4 19.2 19.2 0 0 0 1.71-4.34l-3.28-1.33a18.44 18.44 0 0 0 .63-5.41l3.49-.63a19.73 19.73 0 0 0-.79-4.94 19.5 19.5 0 0 0-1.86-4.27l-3.25 1.37a17.87 17.87 0 0 0-3.4-4.29l2-2.92a19.75 19.75 0 0 0-4.06-2.93 19.48 19.48 0 0 0-4.34-1.71l-1.32 3.27a18.22 18.22 0 0 0-5.42-.64l-.63-3.46a19 19 0 0 0-4.94.79 19.24 19.24 0 0 0-4.19 1.82l1.36 3.22a18.21 18.21 0 0 0-4.36 3.41l-2.89-2a19.36 19.36 0 0 0-2.94 4.05 19.16 19.16 0 0 0-1.7 4.34l3.25 1.32a18.5 18.5 0 0 0-.62 5.42ZM226 39.32a11.86 11.86 0 1 1 15.23 8.24A11.9 11.9 0 0 1 226 39.32Z"/><path class="cls-5" d="M239.15 29.49a6.19 6.19 0 0 1 1.61.62A5.92 5.92 0 0 1 242 31a4.44 4.44 0 0 1 .8 1.05 2.56 2.56 0 0 1 .32 1.07.43.43 0 0 1-.13.3.39.39 0 0 1-.29.13h-2.57a1 1 0 0 1-.44-.08 1.22 1.22 0 0 1-.35-.24l-.19-.19a1.67 1.67 0 0 0-.36-.29 2.33 2.33 0 0 0-.59-.25 2.72 2.72 0 0 0-.86-.11 4.21 4.21 0 0 0-.72.05 2.48 2.48 0 0 0-.61.15 1.16 1.16 0 0 0-.43.31.77.77 0 0 0 0 1 1.8 1.8 0 0 0 .63.37 8.5 8.5 0 0 0 1.17.32l1.81.37a9.9 9.9 0 0 1 1.89.56 4.48 4.48 0 0 1 1.35.83 3.28 3.28 0 0 1 .81 1.18 4.55 4.55 0 0 1 .26 1.6 3.59 3.59 0 0 1-.31 1.52 3.91 3.91 0 0 1-.89 1.22 4.8 4.8 0 0 1-1.38.88 6.77 6.77 0 0 1-1.77.51v1.4a.51.51 0 0 1-.15.34.51.51 0 0 1-.38.16h-2.57a.51.51 0 0 1-.38-.16.51.51 0 0 1-.15-.37V43.2a7.2 7.2 0 0 1-1.71-.62 6.07 6.07 0 0 1-1.29-.92 4 4 0 0 1-.84-1.11 2.82 2.82 0 0 1-.31-1.21.41.41 0 0 1 .12-.3.39.39 0 0 1 .29-.13h2.58a1 1 0 0 1 .43.07 1.08 1.08 0 0 1 .31.2l.24.26a2 2 0 0 0 .42.36 2.46 2.46 0 0 0 .67.33 3.15 3.15 0 0 0 1 .14 5.68 5.68 0 0 0 1.74-.23c.47-.15.7-.42.7-.82a.6.6 0 0 0-.25-.49 2.65 2.65 0 0 0-.77-.36 13 13 0 0 0-1.31-.33c-.53-.1-1.16-.23-1.88-.39a5.49 5.49 0 0 1-3-1.45 3.82 3.82 0 0 1-.93-2.7 3.39 3.39 0 0 1 .26-1.33 4 4 0 0 1 .73-1.17 4.78 4.78 0 0 1 1.18-.92 5.91 5.91 0 0 1 1.59-.61V28a.51.51 0 0 1 .15-.37.51.51 0 0 1 .38-.16h2.57a.51.51 0 0 1 .38.16.51.51 0 0 1 .15.37Z"/><circle class="cls-7" cx="97.66" cy="67.3" r="10.93" transform="rotate(-72.23 97.662 67.296)"/><path class="cls-3" d="M99 61.87a4.93 4.93 0 0 1 1.27.49 4.29 4.29 0 0 1 1 .72 3.25 3.25 0 0 1 .64.83 1.88 1.88 0 0 1 .25.84.3.3 0 0 1-.1.24.31.31 0 0 1-.23.11h-2a.73.73 0 0 1-.35-.07 1.06 1.06 0 0 1-.27-.18l-.21-.16a1.54 1.54 0 0 0-.29-.23 2.36 2.36 0 0 0-.47-.2 2.22 2.22 0 0 0-.68-.08 5.17 5.17 0 0 0-.57 0 2.19 2.19 0 0 0-.49.13 1 1 0 0 0-.34.24.59.59 0 0 0-.13.39.53.53 0 0 0 .15.39 1.26 1.26 0 0 0 .5.29 7.38 7.38 0 0 0 .92.26l1.44.29a8.39 8.39 0 0 1 1.5.44 3.68 3.68 0 0 1 1.06.66 2.5 2.5 0 0 1 .64.94 3.48 3.48 0 0 1 .21 1.27 2.77 2.77 0 0 1-.25 1.2 3 3 0 0 1-.7 1 3.85 3.85 0 0 1-1.09.7 5.55 5.55 0 0 1-1.4.4v1.11a.39.39 0 0 1-.13.3.4.4 0 0 1-.29.12h-2a.4.4 0 0 1-.29-.12.39.39 0 0 1-.13-.3v-1.15a5.81 5.81 0 0 1-1.35-.49 5.1 5.1 0 0 1-1-.73 3.22 3.22 0 0 1-.66-.88 2.44 2.44 0 0 1-.25-1 .37.37 0 0 1 .1-.24.32.32 0 0 1 .23-.1h2a1.08 1.08 0 0 1 .35 0 .89.89 0 0 1 .24.17 2 2 0 0 1 .19.2 2.67 2.67 0 0 0 .34.29 1.87 1.87 0 0 0 .53.25 2.22 2.22 0 0 0 .78.11 4.55 4.55 0 0 0 1.33-.09.66.66 0 0 0 .55-.64.47.47 0 0 0-.2-.39 2 2 0 0 0-.61-.29 8.24 8.24 0 0 0-1-.26l-1.49-.31a4.36 4.36 0 0 1-2.35-1.15 3 3 0 0 1-.74-2.14 2.7 2.7 0 0 1 .21-1 3 3 0 0 1 .58-.93 3.64 3.64 0 0 1 .94-.73 5 5 0 0 1 1.25-.49v-1.2a.39.39 0 0 1 .13-.3.4.4 0 0 1 .29-.12h2a.4.4 0 0 1 .29.12.39.39 0 0 1 .13.3Z"/><circle class="cls-7" cx="262.02" cy="110.19" r="7.76"/><path class="cls-3" d="M263 106.34a3.24 3.24 0 0 1 .9.35 3.09 3.09 0 0 1 .69.51 2.55 2.55 0 0 1 .46.59 1.27 1.27 0 0 1 .17.6.23.23 0 0 1-.07.17.21.21 0 0 1-.16.07h-1.45a.6.6 0 0 1-.25 0 .77.77 0 0 1-.19-.14l-.11-.11a2 2 0 0 0-.2-.16 1.59 1.59 0 0 0-.34-.14 1.65 1.65 0 0 0-.45-.08h-.41a1.53 1.53 0 0 0-.34.09.74.74 0 0 0-.25.17.45.45 0 0 0-.09.28.39.39 0 0 0 .1.28 1 1 0 0 0 .36.2 4.18 4.18 0 0 0 .66.19l1 .21a5.34 5.34 0 0 1 1.06.31 2.39 2.39 0 0 1 .76.47 1.88 1.88 0 0 1 .46.66 2.76 2.76 0 0 1 .14.91 2 2 0 0 1-.17.85 2.26 2.26 0 0 1-.5.69 2.66 2.66 0 0 1-.78.49 3.8 3.8 0 0 1-1 .29v.79a.31.31 0 0 1-.3.3h-1.45a.29.29 0 0 1-.22-.09.32.32 0 0 1-.08-.21v-.82a3.75 3.75 0 0 1-1-.35 3.14 3.14 0 0 1-.73-.51 2.12 2.12 0 0 1-.47-.63 1.57 1.57 0 0 1-.18-.68.21.21 0 0 1 .07-.17.23.23 0 0 1 .16-.08h1.45a.76.76 0 0 1 .25 0l.17.12.14.14a1.2 1.2 0 0 0 .23.21 1.49 1.49 0 0 0 .38.18 1.79 1.79 0 0 0 .56.08 3.06 3.06 0 0 0 1-.13.47.47 0 0 0 .39-.46.34.34 0 0 0-.14-.28 1.58 1.58 0 0 0-.43-.2 7.36 7.36 0 0 0-.74-.18l-1.06-.22a3.12 3.12 0 0 1-1.66-.82 2.32 2.32 0 0 1-.39-2.27 2.31 2.31 0 0 1 .42-.66 2.67 2.67 0 0 1 .66-.52 3.43 3.43 0 0 1 .9-.34v-.82a.29.29 0 0 1 .08-.21.29.29 0 0 1 .22-.09h1.45a.29.29 0 0 1 .21.09.26.26 0 0 1 .09.21Z"/><circle class="cls-7" cx="148.01" cy="27.88" r="12.43"/><path class="cls-3" d="M149.56 21.71a6 6 0 0 1 1.45.55 5.34 5.34 0 0 1 1.1.82 4 4 0 0 1 .73 1 2.14 2.14 0 0 1 .28 1 .36.36 0 0 1-.11.27.35.35 0 0 1-.26.12h-2.32a1.06 1.06 0 0 1-.4-.07 1.38 1.38 0 0 1-.31-.22l-.17-.17a1.35 1.35 0 0 0-.33-.26 2 2 0 0 0-.53-.23 2.51 2.51 0 0 0-.78-.1 4.63 4.63 0 0 0-.65 0 2.21 2.21 0 0 0-.55.15.91.91 0 0 0-.39.27.67.67 0 0 0-.15.44.64.64 0 0 0 .17.45 1.47 1.47 0 0 0 .57.33 9.19 9.19 0 0 0 1.05.29l1.64.34a9.34 9.34 0 0 1 1.7.49 3.85 3.85 0 0 1 1.21.76 2.77 2.77 0 0 1 .73 1.06 4 4 0 0 1 .24 1.45 3.37 3.37 0 0 1-.28 1.36 3.57 3.57 0 0 1-.8 1.1 4.72 4.72 0 0 1-1.24.8 7.09 7.09 0 0 1-1.6.46v1.26a.45.45 0 0 1-.14.33.46.46 0 0 1-.34.15h-2.32a.46.46 0 0 1-.34-.15.45.45 0 0 1-.14-.33v-1.36a6.14 6.14 0 0 1-1.53-.56 5.29 5.29 0 0 1-1.17-.83 3.4 3.4 0 0 1-.76-1 2.56 2.56 0 0 1-.28-1.09.39.39 0 0 1 .37-.39h2.32a1 1 0 0 1 .39.06 1.2 1.2 0 0 1 .29.19c0 .05.12.12.21.23a2.72 2.72 0 0 0 .38.33 2.4 2.4 0 0 0 .6.29 3 3 0 0 0 .9.12 5 5 0 0 0 1.57-.2c.42-.14.63-.38.63-.74a.55.55 0 0 0-.2-.48 2.47 2.47 0 0 0-.69-.33 9.7 9.7 0 0 0-1.18-.29l-1.7-.35a5.08 5.08 0 0 1-2.67-1.31 3.46 3.46 0 0 1-.84-2.44 3.23 3.23 0 0 1 .23-1.19 3.59 3.59 0 0 1 .67-1.06 4 4 0 0 1 1.06-.83 5.53 5.53 0 0 1 1.43-.55v-1.27a.48.48 0 0 1 .14-.34.45.45 0 0 1 .34-.14h2.32a.45.45 0 0 1 .34.14.48.48 0 0 1 .14.34Z"/><path class="cls-5" d="M87 123.25a2.26 2.26 0 1 0 1.89-2.58 2.27 2.27 0 0 0-1.89 2.58Zm-1.65 12.99a1.83 1.83 0 1 0 1.53-2.09 1.84 1.84 0 0 0-1.53 2.09Zm-8.58-5.51a3.56 3.56 0 1 0 3-4.06 3.54 3.54 0 0 0-3 4.06Z"/><path class="cls-5" d="m86.93 136.22.45-.53-6.55-5.5 8.65-7.02-.43-.54-9.31 7.55 7.19 6.04zM408.72 168a2.26 2.26 0 1 0-2 2.5 2.26 2.26 0 0 0 2-2.5Zm2.15-12.92a1.83 1.83 0 1 0-1.6 2 1.83 1.83 0 0 0 1.6-2Zm8.37 5.82a3.55 3.55 0 1 0-3.11 3.95 3.55 3.55 0 0 0 3.11-3.95Z"/><path class="cls-5" d="m409.29 155.04-.47.52 6.35 5.73-8.9 6.7.42.56 9.57-7.21-6.97-6.3zM177.35 24.14a12.19 12.19 0 0 0 .89 3.05 11.72 11.72 0 0 0 1.5 2.55l1.95-1.12a11.56 11.56 0 0 0 2.47 2.38l-1 2a12.06 12.06 0 0 0 2.78 1.53 11.25 11.25 0 0 0 1.2.4l.31.09a13 13 0 0 0 1.36.26l.59-2.2h.84a11.44 11.44 0 0 0 2.61-.1l.68 2.16a12.28 12.28 0 0 0 3.05-.88 12 12 0 0 0 2.55-1.51L198 30.94a11.56 11.56 0 0 0 2.42-2.47l2 1.06a12.52 12.52 0 0 0 1.53-2.79 11.82 11.82 0 0 0 .74-2.86l-2.17-.59a11.81 11.81 0 0 0 0-3.46l2.15-.67a12.11 12.11 0 0 0-2.39-5.61l-1.94 1.12a11.61 11.61 0 0 0-2.47-2.43l1.05-2A12.24 12.24 0 0 0 193.21 8l-.58 2.17a11.54 11.54 0 0 0-3.47 0L188.5 8a11.83 11.83 0 0 0-3.06.88 12 12 0 0 0-2.55 1.5l1.11 1.95a11.65 11.65 0 0 0-2.43 2.48l-2-1a12.09 12.09 0 0 0-1.54 2.78 12.51 12.51 0 0 0-.74 2.87l2.16.58a11.54 11.54 0 0 0 0 3.47Zm8.08-.3a6 6 0 1 1 8.12 3.16 6 6 0 0 1-8.12-3.16Zm-88.02 87.41a13.89 13.89 0 0 0 1 3.53 14.3 14.3 0 0 0 1.73 2.94l2.25-1.29a13.74 13.74 0 0 0 2.86 2.79l-1.22 2.32a14.25 14.25 0 0 0 3.21 1.77c.46.18.92.33 1.38.46l.37.1a14 14 0 0 0 1.57.3l.68-2.54c.15 0 .3 0 .45.06h.51a13.32 13.32 0 0 0 3-.13l.78 2.5a14.3 14.3 0 0 0 6.47-2.75l-1.3-2.26a13.22 13.22 0 0 0 2.8-2.84l2.31 1.21a13.7 13.7 0 0 0 1.78-3.21 14.15 14.15 0 0 0 .85-3.31l-2.51-.68a13.35 13.35 0 0 0 0-4l2.48-.77a13.78 13.78 0 0 0-1-3.53 14.37 14.37 0 0 0-1.73-3l-2.25 1.29a13.5 13.5 0 0 0-2.85-2.8l1.21-2.3a14.22 14.22 0 0 0-6.52-2.63l-.68 2.5a13.41 13.41 0 0 0-4 0l-.77-2.47a14.24 14.24 0 0 0-3.52 1 13.72 13.72 0 0 0-3 1.74l1.28 2.22a13.59 13.59 0 0 0-2.81 2.86L100 99.28a13.77 13.77 0 0 0-1.78 3.22 14.66 14.66 0 0 0-.85 3.31l2.49.67a13.42 13.42 0 0 0 0 4Zm9.32-.34a6.89 6.89 0 1 1 9.37 3.67 6.91 6.91 0 0 1-9.37-3.67Z"/><path d="m137.83 248.01-4.42.02 7.81-59.3 4.33.58-7.72 58.7zm73.58-.34 4.41.02-7.75-57.25-4.34.57 7.68 56.66z" style="fill:#5589e5"/><path style="stroke:#8dbbff;fill:#fff;stroke-linejoin:round" d="M120.04 48.19H229.2v145.77H120.04z"/><g class="cls-10"><circle class="cls-11" cx="140.56" cy="79.11" r="11.53" transform="rotate(-45 140.558 79.109)"/><path class="cls-12" d="M133 87.8a11.53 11.53 0 1 0 7.57-20.22v11.53Z"/></g><g class="cls-10"><circle class="cls-11" cx="170.89" cy="79.11" r="11.53" transform="matrix(.23 -.97 .97 .23 54.63 227.26)"/><path class="cls-12" d="M180.5 72.74a11.53 11.53 0 0 0-9.61-5.16v11.53Z"/></g><g class="cls-10"><circle class="cls-11" cx="140.56" cy="110.41" r="11.53" transform="rotate(-45 140.557 110.42)"/><path class="cls-12" d="M148.71 118.57a11.53 11.53 0 0 0-8.15-19.69v11.53Z"/></g><g class="cls-10"><circle class="cls-11" cx="170.89" cy="110.41" r="11.53" transform="rotate(-76.72 170.888 110.416)"/><path class="cls-12" d="M161.14 104.29a11.52 11.52 0 1 0 9.75-5.4v11.52Z"/></g><path class="cls-11" d="M146.37 55.93h56.5v5.68h-56.5z"/><path class="cls-13" d="M193.54 70.34h9.35v6.58h-9.35z"/><path class="cls-14" d="M207.18 70.34h6.47m-6.47 6.58h13.07m-13.07-2.12h13.07m-13.07-2.06h13.07"/><path class="cls-13" d="M193.54 85.35h9.35v6.58h-9.35z"/><path class="cls-14" d="M207.18 85.35h6.47m-6.47 6.58h13.07m-13.07-2.12h13.07m-13.07-2.06h13.07"/><path class="cls-13" d="M193.54 100.35h9.35v6.58h-9.35z"/><path class="cls-14" d="M207.18 100.35h6.47m-6.47 6.59h13.07m-13.07-2.12h13.07m-13.07-2.07h13.07"/><path class="cls-13" d="M193.54 115.36h9.35v6.58h-9.35z"/><path class="cls-14" d="M207.18 115.36h6.47m-6.47 6.58h13.07m-13.07-2.12h13.07m-13.07-2.06h13.07m-89.91 17v48.82h76.79"/><path class="cls-14" d="m128.81 135.97 1.53-1.52 1.53 1.52m.22 13.52 9.15-7.86 11.3 9.25 28.15-23.41"/><path class="cls-11" d="m141.24 144.02-2.77 2.37v37.19H144v-37.3l-2.76-2.26zm31.16-7.27v46.83h5.53v-51.43l-5.53 4.6zm-11.31 9.4v37.43h5.53v-42.03l-5.53 4.6zm-8.55 7.11-2.76-2.26v32.58h5.53v-32.62l-2.77 2.3z"/><path class="cls-5" d="M307 236.93c0 3.13-11.59 5.67-25.88 5.67s-25.88-2.54-25.88-5.67 11.59-5.67 25.88-5.67S307 233.8 307 236.93Z"/><path class="cls-15" d="M260.72 235.86c0 2 9 3.71 20 3.71s20-1.66 20-3.71v-6.51h-40Z"/><path class="cls-17" d="M297.86 229.6v11.08m-4.66-9.97v11.08m-5.85-11.08v11.08m-23.7-12.19v11.08m4.66-9.97v11.08m5.85-11.08v11.08m6.59-11.34v11.08" style="clip-path:url(#clip-path)"/><ellipse class="cls-18" cx="280.75" cy="229.6" rx="20.04" ry="3.72"/><ellipse class="cls-19" cx="280.75" cy="228.99" rx="15.53" ry="1.71"/><path class="cls-20" d="M295.32 229.58c-2.17-.65-7.87-1.12-14.57-1.12s-12.39.47-14.57 1.12c-.61-.18-1-.38-1-.59 0-.94 7-1.71 15.53-1.71s15.53.77 15.53 1.71c.04.21-.31.41-.92.59Z"/><path class="cls-15" d="M262.73 229c0 2.05 9 3.72 20 3.72s20-1.67 20-3.72v-6.5h-40Z"/><path class="cls-17" d="M299.87 222.75v11.09m-4.66-9.98v11.08m-5.85-11.08v11.08m-23.7-12.19v11.09m4.66-9.98v11.08m5.85-11.08v11.08m6.59-11.33v11.08" style="clip-path:url(#clip-path-2)"/><path class="cls-18" d="M262.73 222.75c0 2.06 9 3.72 20 3.72s20-1.66 20-3.72-9-3.71-20-3.71-20 1.66-20 3.71Z"/><ellipse class="cls-19" cx="282.76" cy="222.15" rx="15.53" ry="1.71"/><path class="cls-20" d="M297.33 222.74c-2.18-.66-7.87-1.13-14.57-1.13s-12.39.47-14.57 1.13c-.61-.19-1-.39-1-.59 0-1 7-1.72 15.53-1.72s15.53.77 15.53 1.72c.04.2-.31.4-.92.59Z"/><path class="cls-15" d="M260.72 222.16c0 2.06 9 3.72 20 3.72s20-1.66 20-3.72v-6.51h-40Z"/><path class="cls-17" d="M297.86 215.91v11.08m-4.66-9.98v11.09m-5.85-11.09v11.09m-23.7-12.19v11.08m4.66-9.98v11.09m5.85-11.09v11.09m6.59-11.34v11.08" style="clip-path:url(#clip-path-3)"/><path class="cls-18" d="M260.72 215.91c0 2.05 9 3.72 20 3.72s20-1.67 20-3.72-9-3.72-20-3.72-20 1.66-20 3.72Z"/><path class="cls-19" d="M265.22 215.3c0 .95 7 1.71 15.53 1.71s15.53-.76 15.53-1.71-6.95-1.71-15.53-1.71-15.53.77-15.53 1.71Z"/><path class="cls-20" d="M295.32 215.89c-2.17-.66-7.87-1.13-14.57-1.13s-12.39.47-14.57 1.13c-.61-.18-1-.38-1-.59 0-.94 7-1.71 15.53-1.71s15.53.77 15.53 1.71c.04.21-.31.41-.92.59Z"/><path class="cls-15" d="M261.78 215.05c0 2.06 9 3.72 20 3.72s20-1.66 20-3.72v-6.51h-40Z"/><path class="cls-17" d="M298.92 208.8v11.08m-4.66-9.98v11.09m-5.85-11.09v11.09m-23.7-12.19v11.08m4.66-9.98v11.09m5.85-11.09v11.09m6.59-11.34v11.08" style="clip-path:url(#clip-path-4)"/><path class="cls-18" d="M261.78 208.8c0 2 9 3.72 20 3.72s20-1.67 20-3.72-9-3.72-20-3.72-20 1.66-20 3.72Z"/><path class="cls-19" d="M266.28 208.19c0 .95 7 1.71 15.53 1.71s15.53-.76 15.53-1.71-6.95-1.71-15.53-1.71-15.53.77-15.53 1.71Z"/><path class="cls-20" d="M296.38 208.78c-2.17-.66-7.87-1.13-14.57-1.13s-12.39.47-14.57 1.13c-.61-.18-1-.38-1-.59 0-.94 7-1.71 15.53-1.71s15.53.77 15.53 1.71c.04.21-.3.41-.92.59Z"/><path class="cls-15" d="M260.11 207.81c0 2.05 9 3.71 20 3.71s20-1.66 20-3.71v-6.51h-40Z"/><path class="cls-17" d="M297.25 201.55v11.08m-4.66-9.97v11.08m-5.85-11.08v11.08m-23.7-12.19v11.08m4.66-9.97v11.08m5.85-11.08v11.08m6.59-11.34v11.08" style="clip-path:url(#clip-path-5)"/><path class="cls-18" d="M260.11 201.55c0 2 9 3.72 20 3.72s20-1.67 20-3.72-9-3.72-20-3.72-20 1.67-20 3.72Z"/><path class="cls-19" d="M264.61 200.94c0 .95 7 1.72 15.53 1.72s15.53-.77 15.53-1.72-6.95-1.71-15.53-1.71-15.53.77-15.53 1.71Z"/><path class="cls-20" d="M294.71 201.53c-2.17-.65-7.87-1.12-14.57-1.12s-12.39.47-14.57 1.12c-.61-.18-1-.38-1-.59 0-.94 7-1.71 15.53-1.71s15.53.77 15.53 1.71c.04.21-.31.41-.92.59Z"/><path class="cls-15" d="M259.41 200.31c0 2.05 9 3.72 20 3.72s20-1.67 20-3.72v-6.51h-40Z"/><path class="cls-17" d="M296.55 194.06v11.08m-4.66-9.98v11.08m-5.85-11.08v11.08m-23.7-12.18v11.08m4.66-9.98v11.08m5.85-11.08v11.08m6.59-11.33v11.08" style="clip-path:url(#clip-path-6)"/><path class="cls-18" d="M259.41 194.06c0 2.05 9 3.71 20 3.71s20-1.66 20-3.71-9-3.72-20-3.72-20 1.66-20 3.72Z"/><ellipse class="cls-19" cx="279.44" cy="193.45" rx="15.53" ry="1.71"/><path class="cls-20" d="M294 194c-2.17-.66-7.87-1.13-14.57-1.13s-12.39.47-14.57 1.13c-.61-.19-1-.38-1-.59 0-.95 7-1.71 15.53-1.71s15.53.76 15.53 1.71c.08.25-.3.44-.92.59Z"/><path class="cls-5" d="M346.61 232.17c-4.57-1.18-7.37-2.77-7.37-4.51 0-3.64 12.21-6.59 27.28-6.59s27.28 3 27.28 6.59-12.22 6.6-27.28 6.6h-3.2c-4.21 2.36-12.5 6.34-20.75 6.34-6.03-.05-1.65-4.3 4.04-8.43Z"/><path class="cls-15" d="M384.65 226.56c0 2.05-9 3.72-20 3.72s-20-1.67-20-3.72v-6.51h40.07Z"/><path class="cls-17" d="M347.51 220.3v11.08m4.66-9.97v11.08m5.85-11.08v11.08m23.7-12.19v11.08m-4.66-9.97v11.08m-5.85-11.08v11.08m-6.59-11.34v11.09" style="clip-path:url(#clip-path-7)"/><path class="cls-18" d="M384.65 220.3c0 2.06-9 3.72-20 3.72s-20-1.66-20-3.72 9-3.72 20-3.72 20 1.67 20 3.72Z"/><path class="cls-19" d="M380.14 219.7c0 .94-6.95 1.71-15.52 1.71s-15.53-.77-15.53-1.71 7-1.72 15.53-1.72 15.52.77 15.52 1.72Z"/><path class="cls-20" d="M350.05 220.28c2.17-.65 7.86-1.12 14.57-1.12s12.39.47 14.56 1.12c.61-.18 1-.38 1-.58 0-.95-6.95-1.72-15.52-1.72s-15.53.77-15.53 1.72c-.04.2.31.4.92.58Z"/><path class="cls-15" d="M387.15 219.71c0 2.06-9 3.72-20 3.72s-20-1.66-20-3.72v-6.51h40.07Z"/><path class="cls-17" d="M350.01 213.46v11.08m4.66-9.98v11.08m5.85-11.08v11.08m23.7-12.18v11.08m-4.66-9.98v11.08m-5.85-11.08v11.08m-6.6-11.33v11.08" style="clip-path:url(#clip-path-8)"/><path class="cls-18" d="M387.15 213.46c0 2-9 3.72-20 3.72s-20-1.67-20-3.72 9-3.72 20-3.72 20 1.66 20 3.72Z"/><path class="cls-19" d="M382.64 212.85c0 1-6.95 1.71-15.53 1.71s-15.53-.76-15.53-1.71 7-1.71 15.53-1.71 15.53.76 15.53 1.71Z"/><path class="cls-20" d="M352.54 213.44c2.18-.66 7.87-1.13 14.57-1.13s12.39.47 14.57 1.13c.61-.19 1-.38 1-.59 0-.95-6.95-1.71-15.53-1.71s-15.53.76-15.53 1.71c-.04.21.31.4.92.59Z"/><path class="cls-15" d="M385.26 212.87c0 2-9 3.71-20 3.71s-20-1.66-20-3.71v-6.51h40.07Z"/><path class="cls-17" d="M348.12 206.61v11.08m4.66-9.97v11.08m5.85-11.08v11.08m23.7-12.19v11.08m-4.66-9.97v11.08m-5.85-11.08v11.08m-6.6-11.34v11.08" style="clip-path:url(#clip-path-9)"/><path class="cls-18" d="M385.26 206.61c0 2-9 3.72-20 3.72s-20-1.67-20-3.72 9-3.72 20-3.72 20 1.67 20 3.72Z"/><ellipse class="cls-19" cx="365.22" cy="206" rx="15.53" ry="1.71"/><path class="cls-20" d="M350.65 206.59c2.18-.65 7.87-1.12 14.57-1.12s12.4.47 14.57 1.12c.61-.18 1-.38 1-.59 0-.94-6.95-1.71-15.53-1.71s-15.52.77-15.52 1.71c-.04.21.31.41.91.59Z"/><path class="cls-15" d="M382.64 205.76c0 2.05-9 3.71-20 3.71s-20-1.66-20-3.71v-6.51h40.07Z"/><path class="cls-17" d="M345.5 199.5v11.08m4.66-9.97v11.08m5.85-11.08v11.08m23.7-12.19v11.08m-4.66-9.97v11.08m-5.85-11.08v11.08m-6.59-11.34v11.08" style="clip-path:url(#clip-path-10)"/><path class="cls-18" d="M382.64 199.5c0 2.05-9 3.72-20 3.72s-20-1.67-20-3.72 9-3.72 20-3.72 20 1.67 20 3.72Z"/><path class="cls-19" d="M378.13 198.89c0 1-6.95 1.72-15.52 1.72s-15.53-.77-15.53-1.72 6.95-1.71 15.53-1.71 15.52.82 15.52 1.71Z"/><path class="cls-20" d="M348 199.48c2.17-.65 7.87-1.12 14.57-1.12s12.39.47 14.57 1.12c.6-.18.95-.38.95-.59 0-.94-6.95-1.71-15.52-1.71s-15.53.77-15.53 1.71c.04.21.39.41.96.59Z"/><path class="cls-15" d="M381.45 198.51c0 2.05-9 3.72-20 3.72s-20-1.67-20-3.72V192h40.07Z"/><path class="cls-17" d="M344.31 192.25v11.08m4.66-9.97v11.08m5.85-11.08v11.08m23.7-12.19v11.08m-4.66-9.97v11.08m-5.85-11.08v11.08m-6.59-11.34v11.09" style="clip-path:url(#clip-path-11)"/><ellipse class="cls-18" cx="361.42" cy="192.25" rx="20.04" ry="3.72"/><path class="cls-19" d="M377 191.65c0 .94-7 1.71-15.53 1.71s-15.53-.77-15.53-1.71 6.95-1.72 15.53-1.72 15.53.77 15.53 1.72Z"/><path class="cls-20" d="M346.85 192.23c2.18-.65 7.87-1.12 14.57-1.12s12.39.47 14.57 1.12c.61-.18 1-.38 1-.58 0-1-7-1.72-15.53-1.72s-15.53.77-15.53 1.72c-.04.2.31.4.92.58Z"/><path class="cls-15" d="M383.38 191c0 2.06-9 3.72-20 3.72s-20-1.66-20-3.72v-6.5h40.07Z"/><path class="cls-17" d="M346.24 184.76v11.08m4.66-9.98v11.09m5.84-11.09v11.09m23.71-12.19v11.08m-4.67-9.98v11.09m-5.84-11.09v11.09m-6.6-11.34v11.08" style="clip-path:url(#clip-path-12)"/><ellipse class="cls-18" cx="363.34" cy="184.76" rx="20.04" ry="3.72"/><path class="cls-19" d="M378.87 184.15c0 .95-6.95 1.71-15.53 1.71s-15.53-.76-15.53-1.71 6.95-1.71 15.53-1.71 15.53.76 15.53 1.71Z"/><path class="cls-20" d="M348.77 184.74c2.18-.66 7.87-1.13 14.57-1.13s12.39.47 14.57 1.13c.61-.18 1-.38 1-.59 0-1-6.95-1.71-15.53-1.71s-15.53.76-15.53 1.71c-.04.21.31.41.92.59Z"/><path class="cls-32" d="M353 207.21c6.92 3.12 9.27 12.9 5.24 21.84s-12.92 13.66-19.85 10.54c-1.6-.73-5.68-2.26-5.68-2.26s-2.66-12.72.44-19.59c3.18-7.05 14-12.71 14-12.71s4.35 1.52 5.85 2.18Z"/><path class="cls-17" d="m327.68 233.04 23.49 10.4M331.7 230.3l23.48 10.4m-21.38-15.14 23.48 10.4m-17.31-30.65 23.48 10.41m-22.81-5.59 23.48 10.4m-25.58-5.66 23.48 10.4m-26.39-5.3 23.48 10.41" style="clip-path:url(#clip-path-13)"/><path class="cls-34" d="M348.25 205.45c6.93 3.12 9.27 12.9 5.24 21.84s-12.91 13.71-19.84 10.53-9.28-12.9-5.25-21.84 12.92-13.66 19.85-10.53Z"/><path class="cls-19" d="M346.08 209.45c4.92 2.22 6.48 9.41 3.48 16.07s-9.42 10.25-14.34 8-6.48-9.41-3.48-16.07 9.42-10.22 14.34-8Z"/><path class="cls-20" d="M331.74 217.48c2.09-4.63 5.84-7.78 9.59-8.51a14.92 14.92 0 0 0-8.26 8.15c-3 6.65-1.44 13.85 3.48 16.07a7.82 7.82 0 0 0 4.76.48 8.11 8.11 0 0 1-6.09-.12c-4.93-2.22-6.48-9.41-3.48-16.07Z"/><g style="opacity:.45;mix-blend-mode:multiply"><path d="M344.73 215.84a5.71 5.71 0 0 1 1.11 1.26 5.46 5.46 0 0 1 .64 1.37 4.27 4.27 0 0 1 .22 1.34 2.9 2.9 0 0 1-.21 1.14.53.53 0 0 1-.25.24.37.37 0 0 1-.31 0l-2.22-1.06a.91.91 0 0 1-.35-.26 1.42 1.42 0 0 1-.19-.37c0-.05 0-.14-.07-.26a1.42 1.42 0 0 0-.19-.43 2.28 2.28 0 0 0-.39-.48 2.43 2.43 0 0 0-.7-.46 3.39 3.39 0 0 0-.64-.25 2.25 2.25 0 0 0-.6-.11 1.1 1.1 0 0 0-.51.12.77.77 0 0 0-.37.4.74.74 0 0 0-.06.54 1.53 1.53 0 0 0 .37.61 8.18 8.18 0 0 0 .87.79l1.39 1.11a8.73 8.73 0 0 1 1.38 1.3 4.38 4.38 0 0 1 .78 1.36 3.41 3.41 0 0 1 .16 1.46 5.07 5.07 0 0 1-.5 1.64 4.18 4.18 0 0 1-1 1.31 3.9 3.9 0 0 1-1.32.8 4.58 4.58 0 0 1-1.59.28 6.57 6.57 0 0 1-1.77-.25l-.63 1.34a.63.63 0 0 1-.31.29.44.44 0 0 1-.39 0l-2.23-1.07a.44.44 0 0 1-.25-.31.61.61 0 0 1 0-.42l.67-1.39a6 6 0 0 1-1.19-1.29 5.78 5.78 0 0 1-.7-1.41 4.07 4.07 0 0 1-.22-1.41 3.37 3.37 0 0 1 .28-1.28.53.53 0 0 1 .25-.24.34.34 0 0 1 .31 0l2.22 1.06a1 1 0 0 1 .35.25 1.07 1.07 0 0 1 .17.32l.09.34a2.35 2.35 0 0 0 .2.53 2.62 2.62 0 0 0 .43.58 2.8 2.8 0 0 0 .79.55 5.23 5.23 0 0 0 1.61.5.89.89 0 0 0 1-.49.66.66 0 0 0 0-.58 2.63 2.63 0 0 0-.49-.66 11 11 0 0 0-1-.85c-.41-.32-.89-.7-1.44-1.15a5.08 5.08 0 0 1-1.9-2.61 4.44 4.44 0 0 1 2.43-4.94 4.51 4.51 0 0 1 1.44-.39 5.46 5.46 0 0 1 1.65.07l.66-1.39a.59.59 0 0 1 .31-.29.44.44 0 0 1 .39 0l2.23 1.07a.44.44 0 0 1 .25.3.6.6 0 0 1 0 .42Z" style="fill:#ef9506"/></g><path class="cls-34" d="M345.46 216.13a5.85 5.85 0 0 1 1.1 1.25 5.68 5.68 0 0 1 .65 1.37 4.61 4.61 0 0 1 .21 1.34 2.81 2.81 0 0 1-.21 1.15.43.43 0 0 1-.25.23.35.35 0 0 1-.3 0l-2.23-1.07a.82.82 0 0 1-.35-.26 1.49 1.49 0 0 1-.19-.36c0-.06 0-.15-.07-.27a1.76 1.76 0 0 0-.18-.42 2.1 2.1 0 0 0-.4-.49 2.75 2.75 0 0 0-.69-.46 4.34 4.34 0 0 0-.65-.25 2.21 2.21 0 0 0-.6-.1 1 1 0 0 0-.51.11.85.85 0 0 0-.37.4.76.76 0 0 0-.06.55 1.64 1.64 0 0 0 .38.61 8 8 0 0 0 .86.79l1.39 1.1a9.24 9.24 0 0 1 1.38 1.31 4.18 4.18 0 0 1 .79 1.35 3.28 3.28 0 0 1 .15 1.46 4.93 4.93 0 0 1-.5 1.64 4.09 4.09 0 0 1-1 1.32 4 4 0 0 1-1.33.8 4.54 4.54 0 0 1-1.59.27 6.06 6.06 0 0 1-1.76-.24l-.64 1.33a.55.55 0 0 1-.31.29.44.44 0 0 1-.39 0l-2.23-1.06a.49.49 0 0 1-.25-.31.56.56 0 0 1 0-.42l.66-1.39a6.29 6.29 0 0 1-1.19-1.3 5.79 5.79 0 0 1-.7-1.41 3.82 3.82 0 0 1-.21-1.4 3.28 3.28 0 0 1 .28-1.29.41.41 0 0 1 .25-.23.35.35 0 0 1 .3 0l2.23 1.07a.85.85 0 0 1 .34.24 1.29 1.29 0 0 1 .18.33c0 .07.05.18.08.34a2.88 2.88 0 0 0 .2.52 2.45 2.45 0 0 0 1.27 1.13 4.67 4.67 0 0 0 1.61.5.86.86 0 0 0 1-.49.67.67 0 0 0 0-.57 2.56 2.56 0 0 0-.5-.67 10.9 10.9 0 0 0-1-.85c-.41-.32-.9-.7-1.45-1.15a5.09 5.09 0 0 1-1.89-2.6 4.35 4.35 0 0 1 .42-3 4 4 0 0 1 .83-1.16 4 4 0 0 1 1.17-.81 4.52 4.52 0 0 1 1.44-.4 5.79 5.79 0 0 1 1.65.07l.67-1.38a.55.55 0 0 1 .3-.3.5.5 0 0 1 .4 0l2.22 1.06a.44.44 0 0 1 .25.31.52.52 0 0 1 0 .42Z"/><ellipse class="cls-5" cx="335.33" cy="255.17" rx="76.16" ry="6.15"/><path class="cls-37" d="m310.08 236.02 2.95 12.43-10.35 3.98 21.73-2.78-1.86-14.92"/><path class="cls-38" d="M312.42 246c-.66.23-.18.68-1.28 2s-7.61 3.88-10.68 4.81-2.33 3.45-1.32 3.45h16c1.17 0 2-.95 2.93-.95.25 0 .76-.17.9 0a1.86 1.86 0 0 1 .2.94h5.41c.61 0 1-.39.93-.84l-.59-7.69s-6.61.9-8.47.36c-.75-.22 0-.8-.28-1.11a8.18 8.18 0 0 0-3.75-.97Z"/><path class="cls-37" d="m283.29 235.57-.64 12.88-10.36 3.98 21.73-2.78 1.08-14.92"/><path class="cls-38" d="M282 246c-.66.23-.18.68-1.28 2s-7.62 3.88-10.69 4.81-2.33 3.45-1.32 3.45h16c1.18 0 2-.95 2.94-.95.24 0 .75-.17.89 0a1.75 1.75 0 0 1 .2.94h5.42c.61 0 1-.39.92-.84l-.58-7.69s-6.61.9-8.47.36c-.76-.22 0-.8-.28-1.11A8.25 8.25 0 0 0 282 246Z"/><path class="cls-39" d="M282.86 162.6s-2 28.29-2 41.88-.87 38.15-.87 38.15h15.65s5.93-82.83 10.55-92L291 146.05Z"/><path class="cls-39" d="M318.06 161.39c0 32.36 6.5 79.87 6.5 79.87H309S298.08 206 296.72 184.9c-1.39-21.63-2.22-38.85-2.22-38.85"/><path class="cls-40" d="M313.54 161.08c0 35.07 7.71 80.18 7.71 80.18m-22.41-39.51c-3.94-17.76-3.49-47.17-3.16-52"/><path class="cls-40" d="M297.16 191.58c-4 23.23-4 51-4 51"/><path class="cls-37" d="M297.94 92.26s-3 7.79-.53 10.39c1.28 1.36 5.14 1.67 6.82.39 1.24-1 3.18-6.94 2.51-8-2.56-4.11-8.8-2.78-8.8-2.78Z"/><path class="cls-37" d="m307.45 100.17.51 8s-5.11 4-9.3-.48v-6.08Z"/><path class="cls-41" d="M309.72 98.33a15.06 15.06 0 0 0 .58-4.51 2.28 2.28 0 0 0-1.83-2.27s.31.16-.89-1.37-3.86-.83-5.56-.76c-2.23.08-4.48-1-5.58.14-.49.49-1.16 3.59.8 4.22 1.12.36 2.71-.29 3.91-.33 2.24-.09 3.94.26 4.48 1.59a3.73 3.73 0 0 1 .1 2 4.94 4.94 0 0 0-.06.69l1 .44c1.25.53-.76 2.93-.4 3.81.19.47 1.2.48 2-.09s1.09-1.74 1.45-3.56Z"/><path class="cls-37" d="M306.11 98.42c.78-1.2 1.51-1.09 2-.51.59.77-.29 2.57-.75 2.9-.92.68-1.73.69-1.88-.1"/><path class="cls-42" d="M298.66 103.85c2.76.66 5.78-1 5.78-1"/><path d="M258.73 150.08c-2.19 1.33-9.18 4.15-9.16 4.67s2.5-.43 2.44 0-3.77 2.17-3.6 2.69c.22.7 3.91-1.28 3.91-1.28s-3.94 2.37-3.57 2.92c.26.4 3.35-1.27 4.61-1.76-1.3.7-3.27 2.09-3 2.49s2.41-.69 4.08-1.44c-1 .57-2.77 1.69-2.53 2.08s5.6-1.91 10.56-4.27" style="fill:#f2b0a0"/><path class="cls-37" d="M317.93 170.8s-.9 3.33-2.9 4.89c-1.06.82-1.28.5-1.8.82-.86.52-1.35.35-1.72-.12-.23-.3-.88-.1-1.22-.34-.54-.39-.17-1-.53-1.14-1.61-.74.15-2.27.15-2.27s-.94.75-1.6.41 4-5.47 4-5.47"/><path class="cls-44" d="m301.47 109.31 7.57-1 1.73.38s-13.31 37.55-13.61 37.55-4.93-.77-4.93-.77l3.45-37 1.63-.65Z"/><path class="cls-45" d="m300.83 111.23-.72 1.76s-5.76 11.33-5.76 14-.93 18.68-.7 18.68 4.15.47 4.15.47l4.07-17 .19-16.19"/><path class="cls-45" d="M299.52 109.58c-.27.27.27 3.09.59 3.41a2.16 2.16 0 0 0 1.95 0c.29-.3 1.73-2.94 1.26-3.41s-3.32-.44-3.8 0Z"/><path class="cls-38" d="M295.27 142.11a131.32 131.32 0 0 1 15.5-33.44s7.7 2.06 11.7 4.58c0 0-2 18.65-2.68 28.86s2.28 21.78 2.28 21.78-14.86 2.46-23.93 2.46a50.89 50.89 0 0 1-2.87-15.45s-1.08 9.19-3.78 14.77c0 0-6.67-.54-9.37-1.62 0 0 3.6-20.08 3.6-26.52 0-5.17.71-19.28 1-24.68a2.92 2.92 0 0 1 2.19-2.67l6.78-1.72Z"/><path class="cls-45" d="m312.09 166.35-1.05 2 7.29 3.72 1.62-2.53-7.86-3.19z"/><path class="cls-38" d="M319.48 111.7c4.44.57 13.1 13.27 14.59 25.83S319.87 171 319.87 171l-9.1-4.26s10.54-16.73 10.54-23.83-6-15.06-6-15.06"/><path class="cls-45" d="m257.65 150.08-2.21 1.25 4.13 7.15 3.13-1.52-5.05-6.88z"/><path class="cls-38" d="M289.38 110.06c-3.44.34-6 5.51-9.28 12.71-2.84 6.26-6.35 12.6-9.62 15.87-8.16 8.15-14 11.06-14 11.06l5.16 8.78S285.4 147 289 133.17"/><path style="fill:#a2a2f4" d="m307.85 106.39-6.17 2.52-2.8-2.52-1.57 1.42 1.16 3.75 3.13-2.06 2.02 3.2 5.42-4.41-1.19-1.9z"/><path class="cls-47" d="M312.73 109.24a60 60 0 0 0-3.19 13.83h-3.41l1.83 3a66.22 66.22 0 0 0-11.71 18.56M293.61 109a40.83 40.83 0 0 1-2.49 10l2.15 1.55-2.67 1.51s3.83 15.47 3 21.94m26.4-7.08a33 33 0 0 0-4.46-7.7m-30.33 10.53c.88-5.94.71-16.09.71-16.09"/><path class="cls-38" transform="rotate(7.7 310.485 189.724)" d="M294.88 178.22h31.4v23.26h-31.4z"/><path d="m295.9 181.21 14.89 7.11 16.04-2.87m-18.4 4.81 3.95.53" style="stroke:#0b0b3a;stroke-width:.75px;stroke-linejoin:round;fill:none"/><path d="M317.09 173.15a4 4 0 0 1 3.38 4.44l-.25 1.82m-16.36-2.21.25-1.82a3.94 3.94 0 0 1 4.44-3.38" style="stroke:#0b0b3a;stroke-width:1.5px;stroke-linejoin:round;fill:none"/><path class="cls-41" d="M377.12 94.23s4.07 0 6.92 7.35c.41 1.07 1.06 2.43 2.24 2.8 1.45.45 2.77.3 4.18 1.2a2.77 2.77 0 0 1 .93.87c.7 1.19-.3 2.74 0 4.08a3.4 3.4 0 0 0 2.15 2.08 16.48 16.48 0 0 1 2.86 1.21 5.17 5.17 0 0 1 1.81 5.51 9.2 9.2 0 0 1-3.58 4.89c-4.89 3.68-11.41 4.09-17.52 4.24-2.93.08-5.94.1-8.67-1-3.44-1.34-6-4.26-8.33-7.11a9.7 9.7 0 0 1-1.79-2.79 6 6 0 0 1 .78-5.23 10.08 10.08 0 0 1 4.2-3.41 4.69 4.69 0 0 0 1.8-1.14c1-1.21.33-3.06.79-4.56s1.94-2.43 3.29-3.26 2.78-1.9 3-3.47"/><path class="cls-37" d="m372 106.65-.33 4.78a4 4 0 0 0 4 2.22c3-.3 3.78-1.89 3.78-1.89l-1.07-9"/><path class="cls-37" d="M371 96.66c-1.79 2-4.17 9.23-.94 10.92 3.4 1.78 7.51.43 8.67-4.24 1.19-4.91-3.07-11.86-7.73-6.68Z"/><path class="cls-42" d="M371.85 108.46a6.23 6.23 0 0 0 4.53-1.29"/><path d="M378.33 102.81Zm-.04-.03s.05.1.08 0-.05-.1-.08 0Z" style="fill:#ff855a"/><path class="cls-41" d="M377.84 103.85a3.12 3.12 0 0 1-.88-3.08 2.9 2.9 0 0 1-2.57-1.38 3.87 3.87 0 0 1-.53-2.41 3.83 3.83 0 0 1-3.66.56 5.7 5.7 0 0 1 5.12-3.5A6.33 6.33 0 0 1 381 97a7.59 7.59 0 0 1 .16 6.58c-.59 1.29-2.33 3.52-3.19 2.78-.45-.36-.13-2.51-.13-2.51Z"/><path class="cls-37" d="M377.23 103.28a1 1 0 0 1 .89-.54c.9 0 1 1.22.64 2a2.55 2.55 0 0 1-1 1.14c-.63.38-1.25.29-1.34-.48"/><path class="cls-51" d="M397.68 240.14q.66 5.38 1.33 10.77c-5.78-.12-11.29.34-17.07.52 1.9-1.2 5.94-3.57 7.37-6.65"/><path class="cls-52" d="M398.88 255.66h-3.29a12 12 0 0 0 0-1.48 16.37 16.37 0 0 0-2.13.15 2.51 2.51 0 0 0-.61.68 1.6 1.6 0 0 1-1.29.65h-13.14c-1.62 0-1.87-1.82-.15-2.69s5-2.5 5.13-2.53c5.21.48 13.73-.42 15.4-2.09 1.27 1.27.1 7.27.08 7.31Z"/><path class="cls-51" d="M394.52 182.85c2.33 31 3.9 63.27 3.9 63.27l-9.11-1.34s-9.67-41.57-12.15-61.93m-5.73 57.29q.66 5.38 1.33 10.77c-5.78-.12-11.29.34-17.07.52 1.9-1.2 5.94-3.57 7.37-6.65"/><path class="cls-52" d="M372.63 255.66h-3.3a10.34 10.34 0 0 0 0-1.48 16.37 16.37 0 0 0-2.13.15 2.51 2.51 0 0 0-.61.68 1.62 1.62 0 0 1-1.3.65h-13.1c-1.62 0-1.87-1.82-.15-2.69s5-2.5 5.12-2.53c5.22.48 13.74-.42 15.41-2.09 1.25 1.27.08 7.27.06 7.31Z"/><path class="cls-51" d="M376.45 182.85c-1.87 31-4.28 63.27-4.28 63.27l-9.11-1.34s-4-39.86-4-61.93"/><path class="cls-38" d="M388.5 150.08c8.33 20.54 9.27 43.26 9.27 43.26s-11.86 3.33-21.54 3.33a142.32 142.32 0 0 1-19.77-1.67s2.54-35.48 6.54-46.36"/><path class="cls-47" d="M386.08 157.21c5.67 12.5 8.5 36.94 8.5 36.94"/><path class="cls-44" d="M371.69 110.81a6.31 6.31 0 0 0 7.58-.16s14.12 2.81 14.12 10.45c0 3.62-3.47 19-4.29 30.13-13.78 3-27.33-.64-27.33-.64s-3.76-27.3-2.39-32.54c1.78-6.82 12.31-7.24 12.31-7.24Z"/><path class="cls-45" d="m379.19 109.72-4.73 2.25 2.23 4.79 4.5-5.63-2-1.41zm-4.73 2.25-2.72-1.91-1.94.96 1.85 5.53 2.81-4.58z"/><path style="fill:#5a7be5" d="m356.05 152.24-1.35 19.65 26.46 1.9 1.35-19.66-26.46-1.89z"/><path class="cls-54" d="M376.6 162.74h11.07v1.08a.84.84 0 0 1-.84.84h-9.38a.84.84 0 0 1-.84-.84v-1.08h-.01Z" transform="rotate(-86.07 382.152 163.685)"/><path class="cls-54" d="M384.12 162.16a1.67 1.67 0 1 0 1.43 1.77 1.62 1.62 0 0 0-1.43-1.77Zm-.06.88a.75.75 0 0 1 .68.83.73.73 0 1 1-.68-.83Z"/><path class="cls-37" d="M376.56 170s-.91 3.33-2.91 4.89c-1 .82-1.28.5-1.8.81-.85.52-1.35.36-1.71-.11-.24-.3-.88-.1-1.22-.35-.55-.39-.18-1-.54-1.13-1.6-.74.15-2.28.15-2.28s-.94.76-1.6.41 4-5.47 4-5.47"/><path class="cls-37" d="M393.39 134.6c-3.55 14.6-17.09 36.15-17.09 36.15l-6.1-3.08s6.42-16.81 8.76-22.22a120.7 120.7 0 0 0 4.57-13.75"/><path class="cls-44" d="M389.35 114.84c9.74 6.47 4 22.08 4 22.08l-11.6-3.85s2.49-6.76 2.49-9.41"/><path class="cls-37" d="M358.33 166.73s-.77 3.37.27 5.69c.54 1.21.89 1 1.2 1.56.51.86 1 1 1.57.7.35-.15.82.33 1.24.27.66-.09.61-.77 1-.75 1.76.1.93-2.08.93-2.08s.48 1.11 1.22 1.12-.93-6.7-.93-6.7"/><path class="cls-37" d="M356 126.5c-1.87 14.13 2.18 41.84 2.18 41.84l6.83-.09s-.49-20.16-.23-26.05.73-14 .73-14"/><path class="cls-44" d="M364.51 112.7c-10.43 2.85-9.45 18.38-9.45 18.38l11.17.67s0-6.59.77-9.91"/><path class="cls-55" d="M382.5 133.3c1.37-4.42 1.88-7 1.88-7m-18.48 5.4a63 63 0 0 1 .63-6.67"/><ellipse class="cls-5" cx="196.22" cy="255.17" rx="54.98" ry="6.15"/><path class="cls-37" d="m188.66 236.52-2.34 11.34 10.36 3.98-21.74-2.79 1.93-14.08"/><path class="cls-52" d="M186.93 245.39c.66.22.18.68 1.28 2s7.62 3.89 10.69 4.81 2.33 3.46 1.31 3.46h-16c-1.18 0-2-.95-2.94-.95-.24 0-.75-.17-.9 0a1.91 1.91 0 0 0-.2.95h-5.37c-.61 0-1-.39-.92-.85l.58-7.68s6.61.9 8.47.35c.75-.22 0-.79.28-1.11s3.06-1.21 3.72-.98Z"/><path class="cls-37" d="m217.98 234.97.64 12.89 10.35 3.98-21.73-2.79-1.07-14.92"/><path class="cls-52" d="M219.23 245.39c.66.22.18.68 1.28 2s7.61 3.89 10.69 4.81 2.32 3.46 1.31 3.46h-16c-1.17 0-2-.95-2.93-.95-.25 0-.75-.17-.9 0a1.91 1.91 0 0 0-.2.95h-5.38c-.61 0-1-.39-.93-.85l.59-7.68s6.61.9 8.47.35c.75-.22 0-.79.28-1.11s3.06-1.21 3.72-.98Z"/><path class="cls-38" d="M175.27 161s3 32.49 1.59 48.76-3.19 32.24-3.19 32.24h17.75s8.76-50.73 9.37-65.65.45-32.27.45-32.27l-16.37 2Z"/><path class="cls-47" d="M182.2 169.21a376.9 376.9 0 0 1-4.6 72.79"/><path class="cls-38" d="M216.23 156a420.51 420.51 0 0 1 3.82 42.88c.56 13.2 1.7 43.16 1.7 43.16h-17.14s-8.9-78.23-13.17-86.5l5.28-10.88Z"/><path class="cls-47" d="M199.13 195.57c2.13-14.39 3.16-41.29 3.16-41.29"/><path class="cls-47" d="M200.46 183.76c5.7 21.86 7.86 58.27 7.86 58.27"/><path class="cls-37" d="m190.58 100.16-.47 7.25s5.11 4 9.3-.49l-.89-5.19Z"/><path class="cls-37" d="M199.82 92.21s2.82 7.33.5 9.78c-1.2 1.27-4.84 1.57-6.41.37-1.17-.9-3-6.54-2.36-7.54 2.45-3.82 8.27-2.61 8.27-2.61Z"/><path class="cls-41" d="M192.55 97.41a7 7 0 0 0 1.32 2.56c.77.79 2.85 0 4.13-.07a14.45 14.45 0 0 0 3.24-.56c.42-.2.27 2.61-.53 3.41a6.91 6.91 0 0 1-4.32 1.47c-1.95 0-2.82-.54-3.26-1.24s-2.51-6.57-.58-5.57Z"/><path class="cls-41" d="M189.19 97.93c-.3-1.57-1.1-2.43-1-4.25a2.16 2.16 0 0 1 1.73-2.14s.19-.71 1.77-1.63c2.56-1.49 7.72-.06 10.42-.62.63-.13.21 3.77-1.63 4.36-3 1-7.11-.74-7.89 1.18a3.5 3.5 0 0 0-.1 1.93 4.34 4.34 0 0 1 .06.65l-.92.42c-1.17.49.71 2.74.37 3.58-.17.43-1.13.45-1.86-.08s-.61-1.7-.95-3.4Z"/><path class="cls-37" d="M192.13 98c-.73-1.13-1.41-1-1.83-.48-.56.72.26 2.41.7 2.73.87.64 1.62.65 1.76-.09"/><path class="cls-45" d="m199.49 100.43-2.77.43s.37 1.88 2 1.36c.98-.32.77-1.79.77-1.79Z"/><path class="cls-37" d="M244.63 149.53c2.34 1.05 9.62 3 9.67 3.48s-2.53-.11-2.41.31 4 1.68 3.91 2.21c-.13.72-4.05-.77-4.05-.77s4.21 1.85 3.91 2.45c-.21.42-3.48-.85-4.79-1.17 1.37.53 3.5 1.66 3.28 2.1s-2.48-.39-4.23-.92c1.06.44 3 1.33 2.77 1.74s-5.8-1.19-11-2.9"/><path class="cls-45" d="m244.94 148.64 2.88 1.18-3.47 8.05-3.05-1.59 3.64-7.64zm-56.61-42-2.87.69s7.67 34.78 8.26 34.78h8.67l.72-34.53-2.32-.9-5.65 1.37Z"/><path class="cls-56" d="m195.68 110.28.72 1.76s4.86 12.39 4.86 15.09.45 20.3 1.45 19.8-10.23-1.48-10.23-1.48l.28-19.09 1.69-14.36"/><path class="cls-56" d="M197 108.63c.27.27-.27 3.1-.59 3.41a2.16 2.16 0 0 1-2 0c-.29-.29-1.73-2.94-1.26-3.41s3.41-.43 3.85 0Z"/><path class="cls-44" d="M203.11 107.58c-3.7 13.71-4 34.55-4 34.55s-7.39-27.29-13.67-34.8a27.75 27.75 0 0 0-8 1.73l-3.83 55.28s14.47 3.19 22.33 2.25c0 0 2.46-3.79 3.91-15a122.48 122.48 0 0 0 4.5 14.89 55.69 55.69 0 0 0 14.65-2.69s-2.5-39.41-7-53.39c-1.44-1.82-8.89-2.82-8.89-2.82Z"/><path class="cls-45" d="m190.27 104.89 4.87 2.75 3.98-2.4 1.67 1.44-3.36 5.02-2.29-3.41-2.38 3.41-4.43-5.06 1.94-1.75z"/><path class="cls-44" d="M208.05 108.56s7.49 1.1 12.8 13.21c3.07 7 12.4 19.87 25.85 26.27l-3.89 10.44s-17.32-8.27-23.71-14.66a74 74 0 0 1-10.78-14.25"/><path class="cls-55" d="m200.95 106.74-3.17 5.29-2.64-3.74-2.38 3.98-4.78-5.53m-8.44 42.46c-3.93-12.9.24-22.46.24-22.46m37.57 14.9c-.86-9.95-2.27-20.54-2.27-20.54m-31.68-13.51c1 4.68.24 12 .24 12l4.69.59-2.87 3.55s9.83 9.5 12.17 15.24M205 107.9s.16 8.23 1 10.57l-3.62.72 3.62 2.34s-5.9 9.69-6.6 17.41"/><path class="cls-52" d="m163.61 163.34 13.01 14.79 19.98-17.47-13.01-14.79-19.98 17.47z"/><path class="cls-57" d="M184.58 151.91h11.07V153a.84.84 0 0 1-.84.84h-9.38a.84.84 0 0 1-.84-.84v-1.08Z" transform="rotate(-131.34 190.111 152.87)"/><path class="cls-57" d="M190.42 150.38a1.67 1.67 0 1 0 2.27.23 1.61 1.61 0 0 0-2.27-.23Zm.58.66a.79.79 0 0 1 1.05 1.18A.79.79 0 0 1 191 151Z"/><path class="cls-37" d="m181 162.8 2.63 3a6.61 6.61 0 0 1 3.36 1.41c.58.58 1.22 1.09 1.22 1.09l1.24-1s.65 1.93.32 2.48c-.12.2-.49.36-1.06.49a.8.8 0 0 1-.81 1.16c.6.65-.18 1.55-1.16.95.27.81-.52 1.29-1.38 1.26a5.61 5.61 0 0 1-3.32-1.3c-.79-.82-1.82-2.06-1.82-2.06l-2.61-2.93"/><path d="M188.08 168.31a2.06 2.06 0 0 1 1 .77.47.47 0 0 1 0 .28 1 1 0 0 1-.09.18 1.05 1.05 0 0 1-.23.29 1.06 1.06 0 0 1-.72.22 2.27 2.27 0 0 1-1.17-.54 6.3 6.3 0 0 1-.88-.83 8.27 8.27 0 0 1 1.08.51 3.16 3.16 0 0 0 1 .36.63.63 0 0 0 .39-.09 1.08 1.08 0 0 0 .22-.24 4.21 4.21 0 0 0-.6-.91Z" style="fill:#e88872"/><path class="cls-45" d="m182.79 162.38 2.09 2.43-6.7 5.68-2.84-3.49 7.45-4.62z"/><path class="cls-44" d="M182.19 107.69c-4 1.15-9 2.8-12.95 7.35-4.55 5.25-7.74 14-6.53 24.42C165 158.93 176 170.3 176 170.3l8.87-7.61s-7.37-11.51-7.37-23.93 2-12.42 2-12.42"/><path class="cls-5" d="M150.57 260.16c0 3.24-12 5.87-26.76 5.87s-26.76-2.63-26.76-5.87 12-5.86 26.76-5.86 26.76 2.63 26.76 5.86Z"/><path class="cls-32" d="M102.9 258.91c0 2.06 9 3.72 20 3.72s20-1.66 20-3.72v-6.51h-40Z"/><path class="cls-17" d="M140.04 252.66v11.08m-4.67-9.98v11.09m-5.84-11.09v11.09m-23.7-12.19v11.08m4.66-9.98v11.09m5.84-11.09v11.09m6.6-11.34v11.08" style="clip-path:url(#clip-path-14)"/><ellipse class="cls-34" cx="122.93" cy="252.66" rx="20.04" ry="3.72"/><path class="cls-19" d="M107.4 252.05c0 .95 6.95 1.71 15.53 1.71s15.53-.76 15.53-1.71-7-1.71-15.53-1.71-15.53.76-15.53 1.71Z"/><path class="cls-20" d="M137.5 252.64c-2.18-.66-7.87-1.13-14.57-1.13s-12.39.47-14.57 1.13c-.61-.18-1-.38-1-.59 0-1 6.95-1.71 15.53-1.71s15.53.76 15.53 1.71c.04.21-.31.41-.92.59Z"/><path class="cls-32" d="M101.2 252.07c0 2.05 9 3.72 20 3.72s20-1.67 20-3.72v-6.51h-40Z"/><path class="cls-17" d="M138.34 245.81v11.08m-4.66-9.97V258m-5.85-11.08V258m-23.7-12.19v11.08m4.66-9.97V258m5.85-11.08V258m6.6-11.34v11.08" style="clip-path:url(#clip-path-15)"/><path class="cls-34" d="M101.2 245.81c0 2.05 9 3.72 20 3.72s20-1.67 20-3.72-9-3.72-20-3.72-20 1.67-20 3.72Z"/><ellipse class="cls-19" cx="121.24" cy="245.2" rx="15.53" ry="1.71"/><path class="cls-20" d="M135.81 245.79c-2.18-.65-7.87-1.12-14.57-1.12s-12.39.47-14.57 1.12c-.61-.18-1-.38-1-.59 0-.94 7-1.71 15.53-1.71s15.53.77 15.53 1.71c.04.21-.31.41-.92.59Z"/><path class="cls-32" d="M102 245.22c0 2.05 9 3.72 20 3.72s20-1.67 20-3.72v-6.51h-40Z"/><path class="cls-17" d="M139.11 238.97v11.08m-4.66-9.98v11.08m-5.85-11.08v11.08m-23.7-12.18v11.08m4.66-9.98v11.08m5.85-11.08v11.08m6.6-11.33v11.08" style="clip-path:url(#clip-path-16)"/><path class="cls-34" d="M102 239c0 2.05 9 3.71 20 3.71s20-1.71 20-3.71-9-3.72-20-3.72-20 1.63-20 3.72Z"/><path class="cls-19" d="M106.48 238.36c0 .94 7 1.71 15.53 1.71s15.52-.77 15.52-1.71-6.95-1.71-15.52-1.71-15.53.76-15.53 1.71Z"/><path class="cls-20" d="M136.57 239c-2.17-.66-7.86-1.13-14.56-1.13s-12.4.47-14.57 1.13c-.61-.19-1-.38-1-.59 0-1 7-1.71 15.53-1.71s15.52.76 15.52 1.71c.04.16-.31.35-.92.59Z"/><path class="cls-32" d="M102.1 238.11c0 2 9 3.72 20 3.72s20-1.67 20-3.72v-6.51h-40Z"/><path class="cls-17" d="M139.24 231.85v11.09m-4.66-9.98v11.08m-5.84-11.08v11.08m-23.71-12.19v11.09m4.67-9.98v11.08m5.84-11.08v11.08m6.6-11.33v11.08" style="clip-path:url(#clip-path-17)"/><path class="cls-34" d="M102.1 231.85c0 2.06 9 3.72 20 3.72s20-1.66 20-3.72-9-3.71-20-3.71-20 1.66-20 3.71Z"/><path class="cls-19" d="M106.61 231.25c0 .94 7 1.71 15.53 1.71s15.53-.77 15.53-1.71-6.95-1.71-15.53-1.71-15.53.76-15.53 1.71Z"/><path class="cls-20" d="M136.71 231.84c-2.18-.66-7.87-1.13-14.57-1.13s-12.39.47-14.57 1.13c-.61-.19-1-.38-1-.59 0-.95 7-1.71 15.53-1.71s15.53.76 15.53 1.71c.04.21-.31.4-.92.59Z"/><path class="cls-32" d="M103.25 231.26c0 2.06 9 3.72 20 3.72s20-1.66 20-3.72v-6.51h-40Z"/><path class="cls-17" d="M140.39 225.01v11.08m-4.67-9.97v11.08m-5.84-11.08v11.08m-23.7-12.19v11.08m4.66-9.97v11.08m5.84-11.08v11.08m6.6-11.34v11.08" style="clip-path:url(#clip-path-18)"/><path class="cls-34" d="M103.25 225c0 2.05 9 3.72 20 3.72s20-1.67 20-3.72-9-3.72-20-3.72-20 1.72-20 3.72Z"/><ellipse class="cls-19" cx="123.28" cy="224.4" rx="15.53" ry="1.71"/><path class="cls-20" d="M137.85 225c-2.18-.66-7.87-1.12-14.57-1.12s-12.39.46-14.57 1.12c-.61-.18-1-.38-1-.59 0-.94 7-1.71 15.53-1.71s15.53.77 15.53 1.71c.04.2-.31.4-.92.59Z"/></g></g></svg>