<svg xmlns="http://www.w3.org/2000/svg" viewBox="0 0 496.33 274.21"><defs><clipPath id="clip-path"><circle class="cls-1" cx="240.25" cy="106.76" r="8.89" transform="rotate(-22.37 240.276 106.761)"/></clipPath><clipPath id="clip-path-2"><path class="cls-1" d="M312.89 206.01h-14.73l-2.51-9.52h14.73l2.51 9.52z"/></clipPath><clipPath id="clip-path-3"><path class="cls-1" d="M317.04 211.21H303l-2.39-9.07h14.04l2.39 9.07z"/></clipPath><style>.cls-1,.cls-14,.cls-24,.cls-26,.cls-36,.cls-4,.cls-45,.cls-56{fill:none}.cls-3{fill:#e1f1ff}.cls-24,.cls-26,.cls-4{stroke:#a1c7ff;stroke-linejoin:round}.cls-16{fill:#fff}.cls-14,.cls-36,.cls-45,.cls-56{stroke-miterlimit:10}.cls-26{stroke-linecap:round}.cls-14{stroke:#fff}.cls-15{fill:#00b289}.cls-17{fill:#a1c7ff}.cls-21{fill:#202263}.cls-24{stroke-width:.75px}.cls-47{mix-blend-mode:multiply}.cls-34{fill:#b8daff}.cls-35{fill:#ffceb6}.cls-36{stroke:#4d59a3}.cls-36,.cls-45,.cls-56{stroke-width:.5px}.cls-37,.cls-57{fill:#f2b18f}.cls-38{fill:#212237}.cls-39{fill:#ffd9c0}.cls-40{fill:#ffc088}.cls-41{fill:#ffaf5f}.cls-42{fill:#f78d37}.cls-43{fill:#ffcda4}.cls-44{fill:#ffead7}.cls-45{stroke:#028462}.cls-46,.cls-47{fill:#c7e2ff}.cls-48{fill:#f0f8ff}.cls-56{stroke:#4873d3}.cls-57{fill-rule:evenodd}.cls-58{fill:#22252d}.cls-59{fill:#ffd19f}.cls-60{fill:#6486f2}</style></defs><g style="isolation:isolate"><g id="Layer_1" data-name="Layer 1"><path class="cls-3" d="M306.54 64.47a5 5 0 0 1 2 .43 4.14 4.14 0 0 1-.1-.87 3.67 3.67 0 0 1 7.2-1 8.32 8.32 0 0 1 16.64.36 8.22 8.22 0 0 1-.16 1.58 5.73 5.73 0 1 1 4.36 9.45h-29.94a5 5 0 1 1 0-9.91Z"/><path class="cls-4" d="M210.14 204.15c-.49-.1-1-.2-1.48-.28"/><path d="M206.19 203.52c-18.21-1.94-41.44 7.68-59.28 9.26-36.24 3.22-57.84-13.38-67.37-29.67-11.93-20.41-8.27-46.84 12.27-66.56 23-22 46.75-20.16 75-29.55 25.39-8.45 46.71-29.55 66.19-51.6 32.65-37 95.47-30.62 112.27 23.76 5.73 18.55 6.82 36.93 24.73 48.38 21.53 13.8 49.09 12.31 72.42 21.48 19.84 7.81 35.29 28.25 31.78 50.21-3.9 24.35-28.57 43.53-50.94 50.15-23.21 6.88-45.11 4.18-68.46 5.19" style="stroke-dasharray:3.01 2.5;stroke-linejoin:round;stroke:#a1c7ff;fill:none"/><path class="cls-4" d="m353.49 234.62-1.49.08"/><path d="m205.88 262.49 5.34-41.79m62.82 41.79-5.34-41.79" style="stroke-width:2px;stroke-miterlimit:10;stroke:#89b5f4;fill:#fff"/><path style="stroke-miterlimit:10;stroke:#89b5f4;fill:#fff" d="M172.58 44.07h134.76v179.97H172.58z"/><path transform="rotate(90 239.96 134.05)" style="fill:#e9f1ff;stroke-miterlimit:10;stroke:#89b5f4" d="M157.37 74.07h165.17v119.96H157.37z"/><path class="cls-4" d="M217.73 133.31c.76-.56 1.23-.84 1.23-.84s.2.51.52 1.4"/><path d="M220.29 136.22c2.51 7.52 7.21 23.89 1.43 26.15s-11.8 15.56-14.08 21.22" style="stroke-dasharray:2.99 2.49;stroke-linejoin:round;stroke:#a1c7ff;fill:none"/><path class="cls-4" d="M207.18 184.75c-.35.89-.53 1.4-.53 1.4s-.1-.54-.25-1.48"/><path d="M206 182.27c-1-7-2.7-21.77-.86-30.75 1.79-8.71 8.16-14.76 11.58-17.47" style="stroke-dasharray:2.92 2.43;stroke-linejoin:round;stroke:#a1c7ff;fill:none"/><path class="cls-4" d="M262.78 133.31c-.77-.56-1.24-.84-1.24-.84s-.19.51-.51 1.4"/><path d="M260.22 136.22c-2.51 7.52-7.22 23.89-1.43 26.15s11.79 15.56 14.08 21.22" style="stroke-dasharray:2.99 2.49;stroke-linejoin:round;stroke:#a1c7ff;fill:none"/><path class="cls-4" d="m273.33 184.75.53 1.4s.1-.54.24-1.48"/><path d="M274.46 182.27c1-7 2.71-21.77.87-30.75-1.79-8.71-8.17-14.76-11.58-17.47" style="stroke-dasharray:2.92 2.43;stroke-linejoin:round;stroke:#a1c7ff;fill:none"/><path style="stroke-linecap:round;stroke:#202263;stroke-width:2px;stroke-linejoin:round;fill:none" d="M240.16 80.94V65.78"/><path class="cls-14" d="M256.73 163c1 18.5-16.47 29.72-16.47 29.72s-16.5-10.9-16.48-29.72c.01-8.57 32.49-8.56 32.95 0Z"/><path class="cls-14" d="M240.31 186.72c-4-3.51-11.65-11.67-11.91-23.13 1.21-.9 5.31-2.26 11.68-2.26 6.68 0 10.92 1.47 12.07 2.41.35 11.26-7.64 19.48-11.84 22.98Z"/><path class="cls-14" d="M240.38 180.24c-2.9-3.17-7.32-10.35-7.13-16.67a31.24 31.24 0 0 1 6.75-.67 30.68 30.68 0 0 1 7.31.79c.15 6.45-3.9 13.38-6.93 16.55Z"/><path class="cls-15" d="M261.39 97.24a48.65 48.65 0 0 0-21.13-22.57c-2.52 1-14.22 6.83-21.15 22.57-8.37 19 1 67.91 1 67.91h40.23s9.42-48.89 1.05-67.91Z"/><path class="cls-16" d="M219.1 159.14h42.3c.16-1 .32-2 .5-3.2h-43.29c.17 1.16.39 2.23.49 3.2Z"/><circle class="cls-17" cx="240.25" cy="106.76" r="8.89" transform="rotate(-22.37 240.276 106.761)"/><g style="clip-path:url(#clip-path)"><g style="opacity:.44"><path class="cls-16" transform="rotate(42.2 240.254 106.767)" d="M239.2 95.68h2.12v22.16h-2.12z"/><path class="cls-16" transform="rotate(42.2 242.361 108.871)" d="M241.67 97.78h1.37v22.16h-1.37z"/><path class="cls-16" transform="rotate(42.2 237.968 104.894)" d="M237.28 93.81h1.37v22.16h-1.37z"/></g></g><path d="M240.25 94.73a12 12 0 1 0 12 12 12 12 0 0 0-12-12Zm0 20.91a8.89 8.89 0 1 1 8.89-8.88 8.89 8.89 0 0 1-8.89 8.88Z" style="stroke-dasharray:3 2;stroke:#202263;stroke-miterlimit:10;fill:none"/><path class="cls-21" d="M256.33 88.58a48.83 48.83 0 0 0-16.07-13.91c-2 .83-9.69 4.61-16.26 13.9Z"/><path class="cls-16" d="M222.12 91.45h36.18c-.13-.21-.26-.42-.4-.63h-35.4c-.13.18-.26.42-.38.63Z"/><path d="M240.25 135.72c-8.51 1.41-2.73 44.57-.66 58.41a.66.66 0 0 0 1.32 0c2.09-13.84 7.86-57-.66-58.41Z" style="stroke-dasharray:3.03 2.52;stroke-linejoin:round;stroke:#a1c7ff;fill:none"/><path d="M272.99 67.21h12.21m-12.21 2.23h19.46m-19.46 2.23h19.46m-19.46 2.23h19.46m-101.61 7.22h12.21m-12.21 2.23h19.45m-19.45 2.23h19.45m-19.45 2.23h19.45m75.43 19.47h6.78m-19.51 2.23h19.46m-19.46 2.23h19.46m-19.46 2.23h19.46m-92.29 82.02h6.78m-19.51 2.23h19.45m-19.45 2.24h19.45m-19.45 2.23h19.45m70.45-9.75H265.2m19.51 2.23h-19.45m19.45 2.23h-19.45m19.45 2.23h-19.45" style="stroke:#89b5f4;stroke-linejoin:round;fill:none"/><path class="cls-24" d="M241.83 83.05h13.08V69.97h14.53"/><circle class="cls-17" cx="241.83" cy="83.05" r=".74"/><path class="cls-24" d="M228.24 106.76h-29.26V90.92"/><path class="cls-17" d="M229 106.78a.74.74 0 1 0-.74.74.74.74 0 0 0 .74-.74Z"/><path class="cls-24" d="M210.88 149.97h-17.5v42.7"/><path class="cls-17" d="M211.62 150a.74.74 0 0 0-1.48 0 .74.74 0 1 0 1.48 0Z"/><path class="cls-24" d="M239.57 149.27h16.38v43.4h7.25"/><path class="cls-17" d="M240.32 149.27a.75.75 0 0 0-.75-.74.74.74 0 0 0-.74.74.75.75 0 0 0 .74.75.76.76 0 0 0 .75-.75Z"/><path class="cls-24" d="M269.67 146.47h11.9v-29.92"/><circle class="cls-17" cx="269.67" cy="146.65" r=".74"/><path d="M312.77 34.14h8.63m28.89 136.54h8.63M304.39 34.14h5.14m133.12 78.59h8.63m-17.01 0h5.14m-81.28 54.15h5.14M88.98 152.73h8.63m-17.01 0h5.14M72.3 88.58A1.58 1.58 0 1 1 70.72 87a1.57 1.57 0 0 1 1.58 1.58Zm130.42-56.02a1.58 1.58 0 1 1-1.58-1.56 1.58 1.58 0 0 1 1.58 1.56Zm228.52 66.88a1.58 1.58 0 1 1-1.58-1.57 1.57 1.57 0 0 1 1.58 1.57Zm-103.77 53.89a1.58 1.58 0 1 1-1.58-1.57 1.57 1.57 0 0 1 1.58 1.57Zm-217.71-21.95v4.43m2.22-2.21h-4.43m126-118.92v4.43m2.21-2.21h-4.43m-99.82 32.35v4.43m2.21-2.21h-4.43m209.42 31.9v4.43m2.21-2.22h-4.43m105.23 104.87v4.43m2.22-2.21h-4.43" style="stroke-linecap:round;stroke-miterlimit:10;stroke:#a1c7ff;fill:none"/><path class="cls-26" d="M109.58 167.4a8.28 8.28 0 1 1-10.89-4.33 8.28 8.28 0 0 1 10.89 4.33Z"/><path class="cls-26" d="M103.75 174.79c-6.57 2.84-14.18 4.41-15.34 1.74-.9-2.1 3.11-5.22 5.32-6.67v1.2c-3.63 2.38-3.58 3.74-3.22 4.58.66 1.53 5.42 1.49 12.89-1.73s10.76-6.66 10.1-8.19c-.37-.85-1.34-1.82-5.55-.81l-.87-.76c4.37-1 7.81-.88 8.48.68 1.13 2.67-5.24 7.17-11.81 9.96Z"/><circle class="cls-26" cx="383" cy="68.48" r="11.79" transform="rotate(-82.57 383.002 68.48)"/><path class="cls-26" d="M381.15 74.61c-9.78-2.89-19.53-8.11-18.36-12.09.93-3.12 8.16-2.87 11.9-2.44l-1.13 1.27c-6.14-.69-7.34.84-7.7 2.08-.67 2.27 4.57 6.58 15.68 9.87s17.85 2.52 18.52.24c.38-1.26.19-3.2-5.33-5.94l-.26-1.6c5.73 2.85 9.34 6.16 8.66 8.48-1.13 3.95-12.2 3.02-21.98.13Zm-34.71 53.08-10.69 5.91-6.76-.81 10.7-5.92 6.75.82zm-6.07-11.22-10.7 5.92-6.76-.82 10.7-5.91 6.76.81zm-.01 0 6.08 11.22m-16.88-5.21 6.19 11.12m-12.95-11.93 6.19 11.12m4.51-17.03 6.19 11.11m99.01 31.51.24-7.45 5.78 4.73 7.17-2.08-2.72 6.95 4.19 6.18-7.45-.43-4.58 5.89-1.89-7.22-7.02-2.54 6.28-4.03zM158.06 26.55l4.33-4.27.76 6.03 5.4 2.8-5.5 2.58-.99 6-4.16-4.43-6.01.91 2.93-5.32-2.73-5.44 5.97 1.14zm-56.08 41.91-9.2 1.21-12.07-8.24 8.01-1.7 13.26 8.73z"/><path class="cls-26" d="m92.78 69.67 6.95-17.95 2.25 16.74m-21.27-7.03 19.02-9.71-11.01 8.01"/><path class="cls-3" d="M84 118.61a8.85 8.85 0 0 0-3.57.76A6.49 6.49 0 0 0 67.92 116a14.7 14.7 0 0 0-29.39.64 15.17 15.17 0 0 0 .27 2.79 10.12 10.12 0 1 0-7.69 16.69H84a8.76 8.76 0 0 0 0-17.51Z"/><path class="cls-17" d="M30.75 261.49h444.59v1H30.75z"/><path d="M400.6 193.43h14a6.91 6.91 0 0 1 6.91 6.91v103.42h-27.82V200.34a6.91 6.91 0 0 1 6.91-6.91Z" transform="rotate(90 407.585 248.595)" style="fill:#029971"/><path d="M453.25 234.7h-2.45a6.92 6.92 0 0 1 6.91 6.91v14a6.92 6.92 0 0 1-6.91 6.91h2.45a6.92 6.92 0 0 0 6.91-6.91v-14a6.92 6.92 0 0 0-6.91-6.91Zm-14.8 0H436a6.92 6.92 0 0 1 6.91 6.91v14a6.92 6.92 0 0 1-6.91 6.91h2.45a6.92 6.92 0 0 0 6.91-6.91v-14a6.92 6.92 0 0 0-6.91-6.91Z" style="mix-blend-mode:multiply;opacity:.55;fill:#00b289"/><path class="cls-15" d="M377.08 195.09h14A6.91 6.91 0 0 1 398 202v100.1h-27.84V202a6.91 6.91 0 0 1 6.92-6.91Z" transform="rotate(90 384.06 248.59)"/><path d="M330.55 238h100.1a3.6 3.6 0 0 1 3.6 3.6v14a3.6 3.6 0 0 1-3.6 3.6h-100.1V238Z" style="fill:#e9f1ff"/><path d="M434.25 243.41h-96.53m96.53 5.18h-37.14m37.14 4.91h-91.88m49.73-4.91h-37.15" style="stroke:#bbd8f9;stroke-miterlimit:10;fill:none"/><path d="M388 165.64h14a6.91 6.91 0 0 1 6.91 6.91V276H381.1V172.55a6.91 6.91 0 0 1 6.9-6.91Z" transform="rotate(90 394.99 220.8)" style="fill:#cbdcf4;stroke-miterlimit:10;stroke:#89b5f4"/><path class="cls-17" d="M440.66 206.9h-2.45a6.93 6.93 0 0 1 6.91 6.92v14a6.93 6.93 0 0 1-6.91 6.92h2.45a6.93 6.93 0 0 0 6.91-6.92v-14a6.93 6.93 0 0 0-6.91-6.92Zm-14.81 0h-2.45a6.94 6.94 0 0 1 6.92 6.92v14a6.94 6.94 0 0 1-6.92 6.92h2.45a6.93 6.93 0 0 0 6.92-6.92v-14a6.93 6.93 0 0 0-6.92-6.92Z"/><path class="cls-17" d="M364.48 167.29h14a6.91 6.91 0 0 1 6.91 6.91v100.1h-27.82V174.21a6.91 6.91 0 0 1 6.91-6.92Z" transform="rotate(90 371.47 220.8)"/><path d="M318 210.22h100.1a3.6 3.6 0 0 1 3.6 3.6v14a3.6 3.6 0 0 1-3.6 3.6H318v-21.2Z" style="fill:#d6e7fc"/><path class="cls-24" d="M421.66 215.62h-96.54m96.54 5.18h-37.15m37.15 4.91h-91.89m49.73-4.91h-37.14"/><path d="M404.27 251.79a.08.08 0 0 0 0-.15.08.08 0 0 0 0 .15Z" style="fill:#fe881c"/><path class="cls-34" d="m384.94 258.63 18.33-8.35-.69-1.46-18.33 8.35.69 1.46z"/><path class="cls-15" d="m397.21 243.87 1.75-.35s1.55 1.8 2.44 3.14a10.8 10.8 0 0 1 1.18 2.16l-18.33 8.35s.07-1.17 3.28-5.72a10.47 10.47 0 0 0 1.62-3.35Z"/><path class="cls-35" d="m396.32 237.34 2.64 6.18s-.34 1.28-3.46 2.7a26.17 26.17 0 0 1-6.35 1.88l-4.9-9.42"/><path class="cls-34" transform="rotate(179.94 405.008 261.797)" d="M394.93 261.15h20.14v1.33h-20.14z"/><path class="cls-15" d="m412.2 254.13 1.74.41s.67 2.28.93 3.86a15.26 15.26 0 0 1 .2 2.74h-20.14s.52-1.32 5.33-4.14a10.45 10.45 0 0 0 2.85-2.38Z"/><path class="cls-35" d="m414.1 247.82-.16 6.72s-.84 1-4.26 1a26.25 26.25 0 0 1-6.57-.93l-.56-10.6"/><path class="cls-21" d="M382.41 148.82s-12.86 32.86-14 48.39 14.42 49.17 14.42 49.17l17.38-7s-11.83-30-10-39.2 9.61-29.58 9.61-29.58l2.22-24.4"/><path class="cls-21" d="M413.44 151c5.29 10 3.61 47.33 3.07 59.56s.74 40.3.74 40.3h-19.84s-3.4-30.38-4.6-45.65c-1.05-13.28-3.62-36.17-2-51.44"/><path class="cls-36" d="M410.44 159.25c3.8 23.73 2.14 33 1.9 50.56s1.46 41 1.46 41m-16.74-3.73 19.96-.28"/><path class="cls-36" d="M402.73 160.85c.33 6.33 8.66 5.41 8.66 5.41M390 161.24c-.66 13.06 1.51 32.82 1.51 32.82"/><path class="cls-36" d="M386.61 162c-.32 9.48 3.38 9.54 3.38 9.54m-7.55-9.46c-1.34 3.86-5.83 2.81-5.83 2.81m14.32 21.96a53.39 53.39 0 0 0-4.73 15.42c-.88 7.71 8.4 28.56 8.4 28.56m-13.33 11.73 14.52-5.57"/><path class="cls-37" d="M389.66 94.6s-2.93 7.61-.52 10.16c1.25 1.32 5 1.63 6.66.38 1.22-.93 3.11-6.79 2.46-7.84-2.5-4-8.6-2.7-8.6-2.7Z"/><path class="cls-37" d="m398.73 102.4.57 8a5.68 5.68 0 0 1-8.52-.45l.63-5.2Z"/><path class="cls-38" d="M400.7 100.53c.32-1.63 1.15-2.51 1-4.4a2.24 2.24 0 0 0-1.7-2.23s-.21-1-1.85-1.69-7.37-2.11-10 .15c-.51.43-1.05 3.11.86 3.73 3.14 1 7.39-.77 8.2 1.23a3.59 3.59 0 0 1 .1 2 6.58 6.58 0 0 0-.06.67l1 .43c1.22.51-.74 2.86-.39 3.72.19.46 1.18.47 1.94-.08s.56-1.75.9-3.53Z"/><path class="cls-37" d="M397.65 100.62c.75-1.17 1.47-1.06 1.91-.5.58.75-.28 2.51-.73 2.84-.91.66-1.69.68-1.84-.1"/><path class="cls-15" d="M399.32 110.28a8.45 8.45 0 0 1-4.67 1.29c-2.9 0-3.81-1.72-3.81-1.72s-11.47.3-17.21 5.81c-6.27 6-12.38 18.59-7.49 26.75s18.59-2 18.59-2"/><path class="cls-15" d="M387 112.12c-8.87-2.48-9.73 47.29-9.73 47.29 5.74 3.56 39.91 2.41 39.91 2.41s3.35-28.94-7.22-46.16c-2.06-3.36-10.63-5.38-10.63-5.38s-6.13 3.57-12.33 1.84Z"/><path class="cls-39" d="m364.75 106.4 11.4-2.18 8.38 48s-.85 2.29-4.41 3a7.14 7.14 0 0 1-5.66-1Z"/><path class="cls-40" d="M368.92 101.16s5.74-.93 7.09 2.07-1.76 4.72-4.38 5.39-7.61.45-6.7-3.18c.79-3.2 6.08-3.22 7.28-2.34s1.34 3-2.09 3.49-2.18-2.43-.41-2.55"/><path class="cls-41" d="M368 106.06s1.14 1.45 3.41.36 2.37-5.14-3.37-3.63-3.48 6.54.56 6.24Z"/><path class="cls-42" d="m370 106.84-.54-2.83s-1.73.65-1.6 1.69c.14 1.3 2.14 1.14 2.14 1.14Z"/><path class="cls-43" d="m367.85 105.8.61 3.24a11.35 11.35 0 0 0 5.17-1.13l-.7-3.69a2.37 2.37 0 0 1-2.08 2.37c-2.24.58-3-.79-3-.79Z"/><path class="cls-44" d="m379.08 110 8.3-.32 1 41.74a3.85 3.85 0 0 1-3.44 1.92 4.79 4.79 0 0 1-3.9-1.64Z"/><path class="cls-40" d="M382.57 106.11s4.17 0 4.81 2.71-1.73 3.75-3.65 4-5.45-.64-4.43-3.59c.9-2.6 4.64-1.91 5.4-1s.65 2.72-1.83 2.67-1.3-2.35 0-2.21"/><path class="cls-41" d="M381.45 110.14a1.8 1.8 0 0 0 2.38.76c1.72-.62 2.2-4-2-3.52s-3.14 5.07-.24 5.35Z"/><path class="cls-42" d="m382.74 111.06-.09-2.47s-1.3.33-1.31 1.22c-.01 1.11 1.4 1.25 1.4 1.25Z"/><path class="cls-43" d="m381.34 109.9.1 2.82a6.86 6.86 0 0 0 3.78-.26l-.12-3.22a1.87 1.87 0 0 1-1.71 1.73 1.78 1.78 0 0 1-2.05-1.07Z"/><path class="cls-39" d="m395.78 110.5 10 3.26-13.58 39.48s-1.65 1.35-4.77.33a6.62 6.62 0 0 1-4.07-3.21Z"/><path class="cls-40" d="M401.31 108.37s5 1.77 4.78 4.59-3.4 2.77-5.77 2.15-6.26-2.92-4-5.25c2-2 6.21.2 6.79 1.38s-.19 2.82-3.13 1.71-.72-2.75.74-2.08"/><path class="cls-41" d="M398.54 111.66s.3 1.57 2.57 1.73 4.06-2.82-1.16-4.16-5.53 3.4-2.18 4.91Z"/><path class="cls-42" d="m399.76 113.07.76-2.34s-1.66-.26-2 .58c-.39 1.03 1.24 1.76 1.24 1.76Z"/><path class="cls-43" d="m398.5 111.39-.88 2.68a10.84 10.84 0 0 0 4.6 1.37l1-3.06s-.62 1.41-2.65.88-2.07-1.87-2.07-1.87Z"/><path class="cls-37" d="M386.72 129.52c1.09-.86 5.49-4.3 5.71-4s-1.25 1.83-1.06 1.92 1.6-.8 2.29-1.38 1.7-1.26 2-1c.5.46-2.93 3.27-2.93 3.27s3.12-3.72 3.58-3.38c.65.49-2.8 4.3-2.79 4.55 0 0 2.08-4.13 2.57-3.77s-1.28 4.1-2.16 5c.59-.84 1.59-4.08 1.95-3.82s-.77 2.89-1 3.23a24.12 24.12 0 0 1-4.56 4.56"/><path class="cls-15" d="M367.43 132.15c7.55-.16 21.88-6.56 21.88-6.56l5.68 8s-12.9 11.41-24.25 11.93Z"/><path class="cls-45" d="m387.76 138.8 7.23-5.24-5.68-8s-10.62 5-20.43 6.44"/><path class="cls-37" d="M383.84 150.42c-1.38-.14-7.65-.67-7.66-.3s2 .87 1.92 1-1.77.19-2.67.08-2.11-.14-2.2.2c-.17.65 4.24 1.17 4.24 1.17-.05.2-4.64-1.44-4.84-.91-.29.77 4.68 2.11 4.8 2.33 0 0-4-2.36-4.19-1.79s3.29 2.76 4.49 3c-1-.39-3.55-2.58-3.7-2.17s2.2 2 2.61 2.17a25 25 0 0 0 6.63 1.35"/><path class="cls-15" d="M405.19 157.87c6.48-3.8 12.73-14 13.43-24.27.45-6.74-4.06-15.39-9.84-19.24"/><path class="cls-15" d="M398.37 144.72a83.94 83.94 0 0 1-17.74 5.12l-1.51 11.86c4.85.38 17.79.45 26.75-4.17"/><path class="cls-45" d="M390.37 161.55s11.41-1.6 15.5-4c6.79-4 9.59-12 9.59-12m-34.83 4.29s12.48-2.12 18.69-5.61c4.91-2.77 5.87-16.48 5.87-16.48"/><path class="cls-17" d="M296.66 214.88a1.35 1.35 0 0 1-1.3-1l-4.94-18.77a1.35 1.35 0 0 1 1.3-1.69h23.85a1.35 1.35 0 0 1 1.3 1l4.94 18.76a1.34 1.34 0 0 1-1.3 1.69Z"/><path class="cls-46" d="M320.51 213.92h-23.85a.37.37 0 0 1-.36-.29l-4.95-18.76a.38.38 0 0 1 .37-.48h23.85a.38.38 0 0 1 .37.28l4.94 18.77a.39.39 0 0 1-.37.48Z"/><path class="cls-47" d="M313.36 207.66h-16.6l-2.83-10.73h16.61l2.82 10.73z"/><path class="cls-48" d="M313.99 206.62h-16.61l-2.82-10.73h16.6l2.83 10.73z"/><g style="clip-path:url(#clip-path-2)"><g style="opacity:.35"><path d="M294.04 197.64h21.52v.76h-21.52zm0 2.15h21.52v.76h-21.52zm0 2.16h21.52v.76h-21.52zm0 2.15h21.52v.76h-21.52z" style="fill:#a4d0ff"/></g></g><path class="cls-47" d="M317.49 212.78h-15.82l-2.7-10.22h15.83l2.69 10.22z"/><path class="cls-48" d="M318.08 211.79h-15.82l-2.69-10.23h15.82l2.69 10.23z"/><path class="cls-46" d="M299.07 203.23h20.51v.72h-20.51zm0 2.06h20.51v.72h-20.51zm0 2.05h20.51v.72h-20.51zm0 2.05h20.51v.72h-20.51z" style="clip-path:url(#clip-path-3)"/><path class="cls-34" transform="rotate(-95.97 231.504 251.848)" d="M221.44 251.4h20.14v.9h-20.14z"/><path class="cls-15" d="m240.11 258.2-.23 1.78s-2.2.89-3.75 1.31a18.58 18.58 0 0 1-3.13.53l-2.09-20s1.79.34 5.09 4.83a10.55 10.55 0 0 0 2.66 2.6Z"/><path class="cls-37" d="m254.48 259-14.6 1s-1.11-.74-1.46-4.14a26 26 0 0 1 .24-6.62l14.58-.95"/><path d="M340.81 262.07c-9.93.36-25.9.45-41.84.41-25.77-.05-51.47-.41-51.47-.41l-1.88-15.42s24.27-2.48 47.6-5.72c22.94-3.18 45.2 1.51 45.2 1.51" style="fill:#091e89"/><path style="stroke:#2058bc;stroke-width:.5px;stroke-miterlimit:10;fill:none" d="m246.8 256.35 78.78.07"/><path class="cls-34" transform="rotate(-125.98 247.62 253.5)" d="M237.56 253.05h20.14v.9h-20.14z"/><path class="cls-15" d="m258.25 254.7.69 1.65a38.89 38.89 0 0 1-2.58 3 18.68 18.68 0 0 1-2.45 2l-11.83-16.3s1.72-.6 6.82 1.64a10.31 10.31 0 0 0 3.6.92Z"/><path class="cls-37" d="m268.06 252.26-9.12 4.09s-1.32-.08-3.33-2.85a26.37 26.37 0 0 1-3.11-5.86l14.55-6.71"/><path d="M354.77 232s8.54 30-12.85 30-35.42-14.63-38.44-15-35.4 12.23-35.4 12.23l-9.5-14.69s25.9-13.36 36-15.42 37.33 4.59 37.33 4.59" style="fill:#103bb2"/><path class="cls-56" d="M345 234.26s2.65 15.12-2.67 19.35c-7.57 6-34.64-11.9-39.18-11.9s-38 13.13-38 13.13"/><path class="cls-56" d="M336.18 233.91c-.11 7.19 9.16 7.14 9.16 7.14m-83.2 2.32 8.8 14.71"/><path class="cls-57" d="M331.41 175.32c-1.15 3.77-1.13 7.26 2.07 8.23s7.87.67 9.52-4.71c1.16-3.78-.52-7.63-3.72-8.6s-6.72 1.3-7.87 5.08Z"/><path class="cls-57" d="M335 187.25a9.49 9.49 0 0 0 4.6.63c2.93-.38 3.51-1.5 3.51-1.5l-2.42-8.1-6.42 1.91Zm-2.88-11.95s-2 2.19-1.95 2.63 1.18.8 1.18.8"/><path class="cls-58" d="M331.75 173.15Zm6.93 5.09a5.93 5.93 0 0 1-3.49-5.86 3.83 3.83 0 0 1-3.44.76 7.75 7.75 0 0 1 8-4.34 6.8 6.8 0 0 1 4.55 2.88c1.65 2.45 1.68 3.81 2.46 6.58.28 1 1 3.22 2.18 3.93-1.52 1.18-6.49 3.27-12.78 1.94a8.32 8.32 0 0 0 2.61-6.83"/><path class="cls-37" d="M337.72 177.28a1.19 1.19 0 0 1 1.72-.13c1.17 1-.46 3.17-1.42 3.49s-1.21-.75-1.21-.75m-34.67 31.54c-1.25-.6-7-3.23-7.11-2.88s1.63 1.51 1.46 1.63-1.73-.42-2.54-.83-1.93-.85-2.13-.56c-.39.56 3.59 2.54 3.59 2.54-.12.17-3.88-2.93-4.25-2.5-.53.62 3.69 3.57 3.73 3.82 0 0-2.95-3.57-3.34-3.11s2.16 3.71 3.21 4.36c-.76-.69-2.47-3.63-2.75-3.29s1.39 2.64 1.72 2.92a24.87 24.87 0 0 0 5.78 3.52"/><path class="cls-15" d="M336 209.48s-3 16.61-12.53 18.15c-11.61 1.88-28.08-8.13-28.08-8.13l4.63-9.24c10.86 3 17.36 3.1 19.08 1.53s3.57-11.67 8.26-18.37 7.64-6.52 7.64-6.52 1 1 3.84.87a7.17 7.17 0 0 0 4.33-1.39s4.56 1.06 9.25 9.6 3.36 37.93 3.36 37.93-16.9 3.43-33.84-2.57c0 0-.6-27.66 3.47-33.77"/><path class="cls-45" d="M321.9 227.81c12.39-2 14.91-23.45 14.91-23.45"/><path class="cls-39" d="m122.7 201.32 10.9 9.21L99.48 249s-2.59.65-6-2.23-3.64-5.91-3.64-5.91Z"/><path class="cls-40" d="M130.39 201.89s5.35 4.75 3.92 7.89-5.33 1.33-8-.68-6.45-6.78-2.69-8.22c3.29-1.27 7.53 3.62 7.75 5.29s-1.43 3.13-4.57.26.28-3.56 1.79-2"/><path class="cls-41" d="M125.61 204.16s-.3 2 2.41 3.39 6.17-1 .34-5.42-8.22.89-4.75 4.45Z"/><path class="cls-42" d="m126.5 206.45 1.93-2.28s-1.93-1.2-2.69-.42c-.93.96.76 2.7.76 2.7Z"/><path class="cls-59" d="m125.67 203.82-2.21 2.6a16.36 16.36 0 0 0 5.06 4.09l2.51-3s-1.35 1.28-3.62-.44-1.74-3.25-1.74-3.25Z"/><path class="cls-44" d="m42.3 216.53 13.43-9.86 28.61 40.81s.08 3.2-4.11 6.28-7.77 2.44-7.77 2.44Z"/><path class="cls-40" d="M44.92 207.79s6.86-4.78 10.13-2.17.17 6.59-2.83 9-9.48 5.43-10.19.64c-.63-4.21 6.1-7.64 8.09-7.39s3.27 2.6-.86 5.37-4-1.4-1.85-2.67"/><path class="cls-41" d="M46.32 214s2.2.94 4.54-1.78.39-7.47-6.17-2-1.07 9.8 3.93 6.84Z"/><path class="cls-42" d="m49.2 213.67-2.15-2.92s-1.87 1.88-1.16 3c.87 1.36 3.31-.08 3.31-.08Z"/><path class="cls-59" d="m46 213.84 2.45 3.36a18.5 18.5 0 0 0 6-4.65l-2.8-3.8s1.13 2-1.43 4.07-4.22 1.02-4.22 1.02Z"/><path class="cls-34" d="m68.15 210.28 1.56 6.72-2.45 2.6-3.66-1.18-1.6-6.73a6.39 6.39 0 1 0 6.12-1.41Z"/><path class="cls-34" transform="rotate(-13.06 70.552 234.565)" d="M67.41 221.15h6.28v26.78h-6.28z"/><path class="cls-60" d="M73.14 245.68a6.38 6.38 0 1 0 7.65 4.77 6.37 6.37 0 0 0-7.65-4.77Zm5 7.29-2.71 2.53-3.54-1.08-.89-3.61 2.7-2.52 3.54 1.07Z"/><path class="cls-60" d="m70.69 259.67 2.06-7.21 3.68-1.17 2.85 3-2.07 7.22a6.9 6.9 0 1 0-6.52-1.87Z"/><path class="cls-17" transform="rotate(-73.7 82.002 236.053)" d="M66.67 232.08h28.95v6.79H66.67z"/><path class="cls-17" d="M84.55 223.59a6.9 6.9 0 1 0-4.74-8.53 6.9 6.9 0 0 0 4.74 8.53Zm-.89-9.51 3.89-1 2.78 2.92-1.1 3.84-3.89 1-2.78-2.87Z"/><path class="cls-44" d="m102.07 196.48 14.79 7.68-27.19 50s-3 1.82-7.62-.58a10.18 10.18 0 0 1-5.45-6.21Z"/><path class="cls-40" d="M111.43 194.27s7.3 4.07 6.15 8.65-6.18 3.76-9.73 2.18-9-6.26-4.73-9.55c3.74-2.89 9.72 1.78 10.29 3.84s-1.16 4.59-5.45 2.09-.31-4.69 1.79-3.25"/><path class="cls-41" d="M106.08 199s0 2.65 3.52 3.44 7.25-3.69-.57-7.1-9.74 4.29-4.91 7.55Z"/><path class="cls-42" d="m107.57 201.62 1.91-3.67s-2.54-.8-3.31.49c-.95 1.56 1.4 3.18 1.4 3.18Z"/><path class="cls-59" d="m106.1 198.56-2.2 4.2a16.16 16.16 0 0 0 6.84 3.32l2.49-4.78s-1.41 2.16-4.45.82-2.68-3.56-2.68-3.56Z"/><path style="fill:#ffac06" d="M48.19 231.53h51.86v30.96H48.19z"/><path style="fill:#ff8f08" d="M99.53 231.53h28.38v30.96H99.53z"/><path style="fill:#ffd8bd" d="M88.43 246.47H36.82l11.1-14.94h51.61l-11.1 14.94z"/><path style="fill:#ffc69f" d="M105.86 246.47h28.52l-6.47-14.94H99.39l6.47 14.94z"/><path d="m148.57 262.49 12.5-109.59m-47.61 109.59 12.5-109.59m-10.57 94.06h34.95m-33.35-13.42h34.88m-33.53-13.78h34.81m-33.32-13.15h34.74m-33.17-13.73h34.95m-33.4-13.6h34.75m-33.04-12.85h34.87m-21.06 96.06L125.96 152.9m47.62 109.59L161.07 152.9m10.58 94.06H136.7m33.35-13.42h-34.88m33.53-13.78h-34.81m33.31-13.15h-34.74m33.18-13.73h-34.95m33.39-13.6h-34.74m33.03-12.85h-34.86" style="stroke:#254bb7;stroke-miterlimit:10;fill:none"/><path style="fill:#254bb7" d="M120.66 150.36h45.26v3.17h-45.26z"/><path class="cls-21" d="m191.69 95.37-12.44 23.59h-32.87v-2.95h32.13L190 94.26l1.69 1.11z"/><path class="cls-57" d="M148.87 70.44c.17 4-.72 7.36-4.09 7.5s-7.84-1.32-8.1-7c-.18-4 2.42-7.31 5.79-7.45s6.23 2.98 6.4 6.95Z"/><path class="cls-57" d="M142.35 81.16a11.65 11.65 0 0 1-4.56-.8c-2.77-1.11-3.12-2.09-3.12-2.09l4.38-7.27 5.79 3.48Zm5.83-10.92s1.37 2.63 1.24 3.06-1.36.48-1.36.48"/><path class="cls-38" d="M140.27 70.78c.52 1 2 1.69 2.57-.11s.35-2.32 1.26-2.51c1.15-.24.83.6 4.76.85 2.34.16 3.42-1.62 3.16-2.9A2.5 2.5 0 0 0 150 64c-2.09-.37-1.42.07-2.76-.36s-1.87-1.58-4-1.68a4.11 4.11 0 0 0-3.34 1.59 2.57 2.57 0 0 0-3.12 1.12c-1.3 1.8-.5 2.55-1.3 4.37-.7 1.59-.2 4.3.6 5.09a3 3 0 0 0 4.22.08s-2.16-3.62-.58-3.51"/><path class="cls-37" d="M141.09 70.93a1.2 1.2 0 0 0-1.65-.56c-1.4.73-.34 3.2.51 3.75a1 1 0 0 0 1.37-.42"/><path class="cls-34" transform="rotate(6.83 176.894 199.663)" d="M166.79 199.19h20.14v.9h-20.14z"/><path class="cls-58" d="m170.64 191-1.78.2s-.93 2.18-1.37 3.72a19.29 19.29 0 0 0-.58 3.12l20 2.4s-.31-1.8-4.75-5.16a10.62 10.62 0 0 1-2.56-2.7Z"/><path class="cls-37" d="m166.29 177.36 2.57 13.79s.72 1.11 4.12 1.52a26 26 0 0 0 6.62-.14L178 175"/><path style="fill:#141744" d="m180.76 141.81 3.14 46.41-18.27 2.38-3.64-41.04"/><path class="cls-36" d="m165.47 187.18 17.54-2.3"/><path class="cls-34" transform="rotate(24.8 156.24 191.443)" d="M146.17 191h20.14v.9h-20.14z"/><path class="cls-58" d="m153 181.27-1.75-.36s-1.56 1.79-2.46 3.12a18.66 18.66 0 0 0-1.5 2.79l18.28 8.45s.25-1.81-2.93-6.38a10.38 10.38 0 0 1-1.6-3.35Z"/><path class="cls-37" d="m153.93 176-2.68 4.94s.34 1.28 3.44 2.72a26.52 26.52 0 0 0 6.35 1.91l5.49-8.44"/><path class="cls-21" d="M120.32 120.23s-5.63 30.13 9.06 30.13c11.48 0 24.8.19 30.08.27a1.7 1.7 0 0 1 1.58 2.24l-8.37 24.63 17.83 7.79s14.53-32.71 12.92-45S141 126.46 141 126.46l-4.22-8"/><path class="cls-36" d="M127.73 124s-3 16.53 4.66 19 25.91 2.74 31.36 4a3.85 3.85 0 0 1 2.88 4.67l-9.91 27.7"/><path class="cls-36" d="M139 126.08c-.72 5.47-11.78 7.53-11.78 7.53m26.47 40.92 18.02 7.95"/><path class="cls-37" d="M171 118.06c1.39-.09 7.67-.41 7.67 0s-2.07.8-2 1 1.77.25 2.67.17 2.11-.07 2.19.28c.15.66-4.28 1-4.28 1 0 .2 4.69-1.28 4.87-.74.26.77-4.75 1.94-4.88 2.15 0 0 4.06-2.21 4.26-1.64s-3.39 2.65-4.6 2.85c1-.35 3.64-2.45 3.78-2s-2.28 1.94-2.69 2.07a24.71 24.71 0 0 1-6.67 1.12"/><path class="cls-15" d="M143.57 91.79c0 13.34 1.92 18 6.59 20.87s15.47 3.84 22 4.39l-.75 10.19s-24.86-.5-31.22-4-7.34-22.56-7.34-22.56"/><path class="cls-15" d="M142.48 80.91c6.41 6.25 9 46.43 9 46.43-15.37.83-36.91 1-36.91 1s1.89-29.43 7.56-38.56A33.7 33.7 0 0 1 134.78 78a7.44 7.44 0 0 0 3.79 2.44 14.47 14.47 0 0 0 3.91.44"/><path class="cls-45" d="M151.23 113.21c-7.3-2.83-7.09-18.4-7.09-18.4m7.27 31.08s-10.79 0-15.82-9.28A54.76 54.76 0 0 1 129.82 97"/></g></g></svg>