<svg id="Layer_1" data-name="Layer 1" xmlns="http://www.w3.org/2000/svg" xmlns:xlink="http://www.w3.org/1999/xlink" viewBox="0 0 1363 812"><defs><linearGradient id="linear-gradient" x1="852.74" y1="520.91" x2="893.62" y2="520.91" gradientUnits="userSpaceOnUse"><stop offset="0" stop-color="#7eb3ff"/><stop offset="1" stop-color="#fff"/></linearGradient><linearGradient id="linear-gradient-2" x1="833.93" y1="506.81" x2="874.81" y2="506.81" xlink:href="#linear-gradient"/><linearGradient id="linear-gradient-3" x1="805.73" y1="492.7" x2="846.61" y2="492.7" xlink:href="#linear-gradient"/><linearGradient id="linear-gradient-4" x1="708.9" y1="584.2" x2="926.01" y2="584.2" xlink:href="#linear-gradient"/><clipPath id="clip-path"><path class="cls-1" d="M551.76 251.29a36 36 0 1 1-36-36 36 36 0 0 1 36 36Z"/></clipPath><clipPath id="clip-path-2"><path class="cls-1" d="M551.75 337.49a36 36 0 1 1-36-36 36 36 0 0 1 36 36Z"/></clipPath><clipPath id="clip-path-3"><path class="cls-1" d="M551.75 424.28a36 36 0 1 1-36-36 36 36 0 0 1 36 36Z"/></clipPath><clipPath id="clip-path-4"><circle class="cls-1" cx="516.08" cy="508.1" r="35.67"/></clipPath><style>.cls-1{fill:#8c8cf9}.cls-4{fill:#fff}.cls-5{fill:#d1ecfb}.cls-6{fill:#0063cb}.cls-7{fill:#f2efdc}.cls-8{fill:#c0beae}.cls-9{fill:#2c5871}.cls-10{fill:#0e303f}.cls-11{fill:#dcdac8}.cls-12{fill:#0253a2}.cls-13{fill:#387bff}.cls-19{fill:#d1dbea}.cls-20{fill:#bfcbdc}.cls-21{fill:#b6d2f8}.cls-31{fill:#a6dae9}</style></defs><path d="M687.76 657.16c-31.15 54-82.12 54-113.27 0L360.6 286.69c-31.15-53.95-5.66-98.1 56.64-98.1H845c62.3 0 87.79 44.14 56.64 98.1Z" style="fill:#e9f6ff"/><path class="cls-1" d="M551.76 251.29a36 36 0 1 1-36-36 36 36 0 0 1 36 36Z"/><g style="clip-path:url(#clip-path)"><path class="cls-4" d="M515.86 287.6a55.61 55.61 0 0 0 21-4l-1.53-15.87c-.18-1.95-2.84-3.29-6.12-3.77a91.26 91.26 0 0 0-26.71 0c-3.29.48-5.94 1.82-6.13 3.77l-1.52 15.87a55.52 55.52 0 0 0 21.01 4Z"/><path class="cls-5" d="m515.9 287.6-6.44-24.42c-2.17.15-4.35.39-6.53.7-.5 2.36-1.45 6.6-1.45 6.6s3 1 3.13 1.57-2.26 2.79-2.26 2.79l3.47 11.87a56.9 56.9 0 0 0 10 .89Z"/><path class="cls-5" d="M529.81 270.48s-1-4.31-1.47-6.66q-3.26-.45-6.51-.66l-6.44 24.43h.47a57.68 57.68 0 0 0 9.58-.81l3.5-12s-2.45-2.27-2.27-2.79 3.14-1.51 3.14-1.51Z"/><path class="cls-6" d="M520.22 287.47h.61a138.65 138.65 0 0 0 3.17-14.7 51.6 51.6 0 0 0 .66-9.52 87.82 87.82 0 0 0-17.61 0 49.92 49.92 0 0 0 .66 9.52 138.65 138.65 0 0 0 3.18 14.67h.6l1.53.08c.94 0 1.88.05 2.83.05s1.9 0 2.84-.05Z"/><path class="cls-7" d="M521.1 266.86a5.74 5.74 0 0 1-5.74 5.74 5.74 5.74 0 0 1-5.75-5.74v-8.45a5.74 5.74 0 0 1 5.75-5.75 5.74 5.74 0 0 1 5.74 5.75Z"/><path class="cls-8" d="M515.36 252.66a5.74 5.74 0 0 0-5.75 5.75v3.25l9.52 9.52a5.71 5.71 0 0 0 2-4.32v-8.45a5.74 5.74 0 0 0-5.77-5.75Z"/><path class="cls-9" d="M534.08 254c.76 2.19-1.19 4.18-4.35 4.35a247.92 247.92 0 0 1-28.33 0c-3.16-.17-5.12-2.16-4.36-4.35q3.25-9.92 6.5-19.83c.75-2.19 2.71-3.86 4.36-3.76 5.1.28 6.33-2.22 11.43-2.51 1.66-.09 7.59 3.23 8.26 6.27q3.24 9.95 6.49 19.83Z"/><path class="cls-10" d="M524.81 230.62c-2-1.58-4.49-2.74-5.48-2.69-5.1.29-6.33 2.79-11.43 2.51a3.09 3.09 0 0 0-1.62.42l-3.12 24.3a11.41 11.41 0 0 0 0 3.31q12.36.61 24.75 0a11.43 11.43 0 0 0 0-3.31Z"/><path class="cls-7" d="M525.26 248.81c-1.73 9.72-5.91 14.24-10.45 14.25s-8.73-4.53-10.45-14.25c-1.75-10.08 4.11-16.85 10.45-16.42 6.34-.39 12.19 6.34 10.45 16.42Z"/><path class="cls-9" d="M504.61 235.4c-2 3-3.05 6.32-2.7 9.16a12.35 12.35 0 0 0 9.94-15.37c-2.73.81-5.29 3.19-7.24 6.21Z"/><path class="cls-11" d="M514.81 232.39h-.7V263a5.36 5.36 0 0 0 .7.05c4.54 0 8.72-4.53 10.45-14.25 1.74-10.07-4.11-16.8-10.45-16.41Z"/><path class="cls-9" d="M515.12 243.46a15.73 15.73 0 0 0 14.62-.78c-.16-7.17-3.26-12.49-8.19-14.14-4.59-2.45-10.58-1-15.89 3.76a15.69 15.69 0 0 0 9.46 11.16Z"/><path class="cls-12" d="m515.86 279.98.14-7.09-3.23-3.66-3.16-5.12.5 6.88 2.87 1.61 2.88 7.38z"/><path class="cls-13" d="m509.61 263.06 3.16 6.17-3.72 3.09-.56-9.06 1.12-1.6v1.4z"/><path class="cls-12" d="m515.51 277.87.21-5.06 2.11-3.86 3.16-5.12-.49 6.88-4.29 2.17-.7 4.99z"/><path class="cls-13" d="m521.13 263.06-3.26 5.94 3.82 3.32.56-9.06-1.12-1.6v1.4z"/></g><path class="cls-1" d="M551.75 337.49a36 36 0 1 1-36-36 36 36 0 0 1 36 36Z"/><g style="clip-path:url(#clip-path-2)"><path d="M515.73 376.2a72.12 72.12 0 0 0 25.65-4.6l-1.86-18.08c-.22-2.22-3.45-4-7.48-4.3a82.73 82.73 0 0 0-32.62 0c-4 .3-7.25 2.08-7.48 4.3l-1.86 18.08a72.16 72.16 0 0 0 25.65 4.6Z" style="fill:#7eb3ff"/><path class="cls-11" d="M522.81 351.44a6.77 6.77 0 0 1-6.76 6.77 6.77 6.77 0 0 1-6.77-6.77v-6.95a6.77 6.77 0 0 1 6.77-6.76 6.76 6.76 0 0 1 6.76 6.76Z"/><path class="cls-8" d="M520.67 355.66c.11.12.24.23.36.35a6.74 6.74 0 0 0 1.78-4.57v-6.95a6.76 6.76 0 0 0-13.52-.2Z"/><path class="cls-11" d="M506.13 334.43c.48 2.76.17 4.59-.53 4.83s-1.73-1.16-2.5-3.83-.65-5.31.36-5.6 2.21 1.82 2.67 4.6Zm19 .4c-.22 2.79.24 4.59 1 4.77s1.63-1.31 2.15-4 .17-5.35-.86-5.55-2.08 1.95-2.29 4.78Z"/><path class="cls-7" d="M515.74 316.44c-6.87-.5-13.2 7.45-11.31 19.31a38.47 38.47 0 0 0 2.45 8.93c.91 1.33 2.05 1.51 3.77-2.6.52-.94 2.76-1.77 4.88-1.77h.47c2.12 0 4.36.83 4.87 1.77 1.73 4.1 2.86 3.93 3.77 2.6a38.44 38.44 0 0 0 2.46-8.93c1.84-11.86-4.5-19.81-11.36-19.31Z"/><path class="cls-11" d="M516 316.44v23.87c2.11 0 4.31.84 4.82 1.77 1.73 4.1 2.86 3.93 3.77 2.6a38.44 38.44 0 0 0 2.46-8.93c1.86-11.75-4.29-19.59-11.05-19.31Z"/><path class="cls-9" d="M527.14 335.28a15.92 15.92 0 0 1-.26 1.59 20.88 20.88 0 0 1-2.43 6.15c-.89.91-2 1-3.71-1.79-.5-.65-2.71-1.22-4.8-1.22h-.41c-2.08 0-4.29.57-4.8 1.22-1.7 2.82-2.82 2.7-3.71 1.78a20.44 20.44 0 0 1-2.42-6.14 13.63 13.63 0 0 1-.26-1.6 8.57 8.57 0 0 0-.15 5.26c1.9 6.89 1.79 10.25 11.55 10.1 10.38-.17 9.64-3.21 11.55-10.1a8.61 8.61 0 0 0-.15-5.25Z"/><path class="cls-10" d="M526.88 336.87a20.88 20.88 0 0 1-2.43 6.15c-.89.91-2 1-3.71-1.79-.47-.6-2.4-1.13-4.34-1.21v10.59c9.69-.28 9-3.34 10.89-10.08a8.61 8.61 0 0 0-.15-5.25 15.92 15.92 0 0 1-.26 1.59Z"/><path class="cls-7" d="M518.23 342.58h-5s-.94 2.13-.72 2.64.65.55 1.23-.38a6.36 6.36 0 0 1 .59-.81 1.86 1.86 0 0 0 .48.06h1.81a1.86 1.86 0 0 0 .48-.06 8.67 8.67 0 0 1 .59.81c.57.93 1 .89 1.23.38s-.57-2.38-.69-2.64Z"/><path d="M499.33 372.45a31.06 31.06 0 0 0-3.26-12.45 40.6 40.6 0 0 1 .08 11.91q1.58.28 3.18.54Z" style="fill:#8fc4d7"/><path class="cls-4" d="M504.72 348.34a92.9 92.9 0 0 0-9.36 1.47c-4 .39-7.12 2.07-7.29 4.05L486.71 370a77.6 77.6 0 0 0 21.23 3.34Z"/><path class="cls-5" d="m510 376.9-4.39-28.34c-2.17.16-3.54.36-5.72.68a57.17 57.17 0 0 1-2.26 6.9s6.27 1.5 6.45 2.05-5.58 2.48-5.58 2.48l2.5 14.95c3.23.6.27 1.86 3.72 1.86-.01 0 3.74.43 5.28-.58Z"/><path class="cls-4" d="M509.81 377.71 506.23 348c-2.17.16-4 .71-6.18 1-.5 2.45-1.8 6.55-1.8 6.55s6.27 1.5 6.45 2.05-5.58 3.25-5.58 3.25l2.44 14.15c3.24.6.27 1.86 3.72 1.86.01.04 2.95 1.86 4.53.85Zm17.33-29.83a93.58 93.58 0 0 1 9.4 1.19c4 .27 7.18 1.85 7.4 3.83l1.85 16.1a77.53 77.53 0 0 1-21.12 4Z"/><path class="cls-5" d="m522.19 376.2 4.4-28.33c2.17.16 3.53.35 5.71.67a57.81 57.81 0 0 0 2.27 6.9s-6.28 1.51-6.45 2.05 5.58 2.51 5.58 2.51l-2.44 14.95c-3.24.6-.27 1.86-3.72 1.86-.01-.03-3.77.4-5.35-.61Z"/><path class="cls-4" d="m522.42 377 3.58-29.71c2.17.16 4 .7 6.18 1 .5 2.45 1.8 6.55 1.8 6.55s-6.28 1.51-6.45 2.05 5.58 3.25 5.58 3.25l-2.44 14.18c-3.24.6-.27 1.86-3.72 1.86-.01.02-2.95 1.82-4.53.82Z"/></g><path class="cls-1" d="M551.75 424.28a36 36 0 1 1-36-36 36 36 0 0 1 36 36Z"/><g style="clip-path:url(#clip-path-3)"><path class="cls-4" d="M502.6 423.82a2.3 2.3 0 0 0 2.07 2.47h.51a2.29 2.29 0 0 0 2.07-2.47v-5.57a2.3 2.3 0 0 0-2.07-2.48h-.51a2.3 2.3 0 0 0-2.07 2.48Zm-14.53 26.55 6.22-13.26 22.73-4.06 21.37 3.79 7.85 10.01-6.76 7.57-20.93 9.47-27.5-7.84-2.98-5.68z"/><path style="fill:#7dc2f5" d="m508.04 437.19 5.35 25.34 7.9 1.16.46-8.14.47-10.92 2.79-10.46-16.97 3.02z"/><path class="cls-5" d="m525.01 433.24-4.42 14.64-1.39 16.27 4.69-.18 3.91-14-3.72-3.95 5.58-2.32-2.79-8.84-1.86-1.62z"/><path class="cls-6" d="m514.12 444.16-1.83-4.62 1.83-1.7h3.65l1.82 1.7-1.82 4.62h-3.65zm0 .08-1.83 20.11 1.83 7.4h3.65l1.82-7.4-1.82-20.11h-3.65z"/><path class="cls-5" d="m508.81 434.49 2.95 14.55 1.04 15.87-5.79-.47-2.69-15.17 3.95-3.25-4.88-4.18 2.32-6.28 3.1-1.07z"/><path class="cls-7" d="M526.47 430c.54 5.29-4.61 10.1-11.53 10.09-6.91 0-12.07-4.8-11.53-10.09l1.17-13.78a10.43 10.43 0 0 1 10.36-9.22 10.43 10.43 0 0 1 10.36 9.23Z"/><path class="cls-11" d="m526.47 430-1.17-13.78a10.43 10.43 0 0 0-10.36-9.22v33.1c6.92-.01 12.06-4.82 11.53-10.1Z"/><path class="cls-7" d="M518.71 438.44c0 1.51-1.69 2.73-3.77 2.73s-3.77-1.22-3.77-2.73 1.69-2.72 3.77-2.72 3.77 1.22 3.77 2.72Z"/><path class="cls-11" d="M518.71 438c0 1.24-1.32 2.25-2.94 2.25s-2.94-1-2.94-2.25 1.31-2.25 2.94-2.25 2.94.98 2.94 2.25Zm-2.94-16.65c-2.71.82-4.75 4.3-4.75 8.46a13.07 13.07 0 0 0 .08 1.42h4.67Z"/><path class="cls-4" d="M526.17 415.77h-.52a2.3 2.3 0 0 0-2.06 2.48s1.89 2.93 1.89 4.22v3.8h.69a2.29 2.29 0 0 0 2.06-2.47v-5.57a2.3 2.3 0 0 0-2.06-2.46Z"/></g><path class="cls-19" d="M564.86 251.26h39.53v4.82h-39.53zm45.17 0h38.68v4.82h-38.68zm-45.17 10.47h74.18v4.82h-74.18zm89.99-10.47h38.68v4.82h-38.68zm-10.44 10.47h44.03v4.82h-44.03z"/><path class="cls-20" d="M564.86 233.01h63.91v7.23h-63.91zm69.25 0h46.13v7.23h-46.13z"/><path class="cls-19" d="M564.86 335.85h39.53v4.82h-39.53zm45.17 0h38.68v4.82h-38.68zm-45.17 10.48h74.18v4.82h-74.18zm89.99-10.48h38.68v4.82h-38.68zm-10.44 10.48h44.03v4.82h-44.03z"/><path class="cls-20" d="M564.86 317.6h63.91v7.23h-63.91zm69.25 0h46.13v7.23h-46.13z"/><path class="cls-19" d="M564.86 507.57h39.53v4.82h-39.53zm45.17 0h38.68v4.82h-38.68zm-45.17 10.48h74.18v4.82h-74.18zm89.99-10.48h38.68v4.82h-38.68zm-10.44 10.48h44.03v4.82h-44.03z"/><path class="cls-20" d="M564.86 489.32h63.91v7.23h-63.91zm69.25 0h46.13v7.23h-46.13z"/><path class="cls-19" d="M564.86 426.13h34.67v4.82h-34.67zm39.61 0h33.92v4.82h-33.92zm-39.61 10.48h65.05v4.82h-65.05zm78.92-10.48h33.92v4.82h-33.92zm-9.16 10.48h38.62v4.82h-38.62z"/><path class="cls-20" d="M564.86 407.88h56.05v7.23h-56.05zm60.73 0h40.45v7.23h-40.45z"/><path class="cls-21" d="M661.54 310.07h-4.97v-16.34h4.97v16.34zm0 42.88h-4.97v-27.57h4.97v27.57zm0 32.68h-4.97v-26.29h4.97v26.29z"/><path class="cls-21" d="M839.21 592.18a26.64 26.64 0 0 1-26.56 26.56H685a26.64 26.64 0 0 1-26.55-26.56V271.86A26.62 26.62 0 0 1 685 245.31h127.65a26.63 26.63 0 0 1 26.56 26.55Z"/><rect x="662.19" y="249.05" width="173.27" height="365.94" rx="22.81" style="fill:#cee5ff"/><path class="cls-1" d="M670.19 292.45h157.28v280.33H670.19z"/><path style="stroke:#fff;stroke-width:5.57px;fill:#fff" d="M768.15 376.8H755.7v-12.55h-11.67v12.55h-12.44v11.76h12.44v12.55h11.67v-12.55h12.45V376.8z"/><path d="M852.74 496.21s17.86-9.4 26.32 4.7 9.4 19.75 14.1 37.61-28.16 16.92-40.42-42.31Z" style="fill:url(#linear-gradient)"/><path d="M833.93 482.11s17.87-9.4 26.33 4.7 9.4 19.74 14.1 37.61-28.2 16.92-40.43-42.31Z" style="fill:url(#linear-gradient-2)"/><path d="M805.73 468s17.86-9.4 26.32 4.7 9.4 19.74 14.1 37.6S818 527.24 805.73 468Z" style="fill:url(#linear-gradient-3)"/><path d="M847.73 803s-35.42-155.41-48.58-165.75-38.54-25.39-58.28-68.63-32-64.87-32-64.87 10.34-9.4 18.8-2.82 18.81 19.75 30.09 31 15 4.7 17.86-2.82S782.23 389 786 379.64s11.28-23.5 14.1-5.64 12.22 91.19 15 107.17 33.84 19.74 54.53 32.9 22.56 11.29 25.38 39.49 10.34 54.52 9.4 75.21S923.19 774.78 926 803Z" style="fill:url(#linear-gradient-4)"/><circle class="cls-1" cx="516.08" cy="508.1" r="35.67"/><g style="clip-path:url(#clip-path-4)"><path class="cls-9" d="M528.2 511.19c0 1.88-1 3.4-2.18 3.4-1.2 0-2.17-1.52-2.17-3.4v-3.4c0-1.87 1-3.39 2.17-3.39 1.2 0 2.18 1.52 2.18 3.39Z"/><path d="M516.08 543.77A35.53 35.53 0 0 0 541.61 533c-4.14-4.58-14.06-7.81-25.63-7.81s-21.32 3.17-25.53 7.7a35.56 35.56 0 0 0 25.63 10.88Z" style="fill:#8dcfff"/><path class="cls-9" d="M524 527.22a7.75 7.75 0 0 1-7.91 8.16 7.74 7.74 0 0 1-7.9-8.16c.17-2.82.35-5.65.52-8.48.32-4.33 3.62-7.6 7.38-7.6s7.07 3.27 7.38 7.6c.17 2.83.34 5.66.53 8.48Z"/><path class="cls-10" d="M524 522a7.74 7.74 0 0 1-7.91 8.15 7.73 7.73 0 0 1-7.9-8.15c.17-2.83.35-5.65.52-8.48.32-4.34 3.62-7.6 7.38-7.61 3.76 0 7.07 3.27 7.38 7.61.17 2.87.34 5.69.53 8.48Z"/><path class="cls-10" d="M523.46 518.74c-.31-4.3-3.57-7.55-7.3-7.6v22.68c0 .52 0 1 .09 1.55a7.73 7.73 0 0 0 7.76-8.15c-.2-2.82-.37-5.65-.55-8.48Z"/><path class="cls-9" d="M507.73 511.19c0 1.88-1 3.4-2.17 3.4-1.2 0-2.17-1.52-2.17-3.4v-3.4c0-1.87 1-3.39 2.17-3.39 1.2 0 2.17 1.52 2.17 3.39Z"/><path class="cls-10" d="M504.43 510a2.08 2.08 0 0 0 1.94 2.19 2.08 2.08 0 0 0 1.94-2.19v-5.8a2.08 2.08 0 0 0-1.94-2.2 2.08 2.08 0 0 0-1.94 2.2Zm19.42 0a2.08 2.08 0 0 0 1.95 2.19 2.08 2.08 0 0 0 1.94-2.19v-5.8a2.08 2.08 0 0 0-1.94-2.2 2.08 2.08 0 0 0-1.95 2.2Z"/><path class="cls-10" d="M529.5 499.68c0 8-6 14.41-13.42 14.41s-13.41-6.45-13.41-14.41 6-14.41 13.41-14.41 13.42 6.45 13.42 14.41Z"/><path class="cls-9" d="M527.2 516.32a10.87 10.87 0 0 1-11.12 11.46A10.87 10.87 0 0 1 505 516.32q.36-6 .73-11.92c.45-6.1 5.1-10.69 10.38-10.7 5.29 0 9.93 4.6 10.38 10.7q.35 5.96.71 11.92Z"/><path d="M526.46 504.4c-.44-6.06-5-10.62-10.27-10.69v31.88a19.49 19.49 0 0 0 .13 2.18 10.87 10.87 0 0 0 10.91-11.45q-.4-5.95-.77-11.92Z" style="fill:#24495d"/><path class="cls-4" d="M525.8 525.47a91.77 91.77 0 0 1 9.28 1.46c3.94.39 7.06 2.05 7.22 4l1.35 16a77 77 0 0 1-21 3.31Z"/><path class="cls-31" d="m520.52 553.78 4.36-28.09c2.15.16 3.51.35 5.67.67a55.57 55.57 0 0 0 2.24 6.84s-6.22 1.5-6.39 2 5.53 2.46 5.53 2.46l-2.42 14.82c-3.21.6-.27 1.85-3.69 1.85-.01.03-3.73.45-5.3-.55Z"/><path class="cls-4" d="m520.75 554.59 3.55-29.47c2.16.16 4 .69 6.13 1 .5 2.43 1.79 6.5 1.79 6.5s-6.22 1.49-6.4 2 5.53 3.22 5.53 3.22l-2.42 14.06c-3.2.59-.26 1.84-3.68 1.84-.02.04-2.93 1.85-4.5.85Zm-14.01-29.12a91.57 91.57 0 0 0-9.27 1.46c-4 .39-7.06 2.05-7.23 4l-1.34 16a77 77 0 0 0 21 3.31Z"/><path class="cls-31" d="m512 553.78-4.35-28.09c-2.16.16-3.51.35-5.67.67a56.83 56.83 0 0 1-2.25 6.84s6.23 1.5 6.4 2-5.53 2.46-5.53 2.46l2.4 14.85c3.21.6.27 1.85 3.69 1.85.05 0 3.77.42 5.31-.58Z"/><path class="cls-4" d="m511.8 554.59-3.56-29.47c-2.15.16-4 .69-6.12 1-.5 2.43-1.79 6.5-1.79 6.5s6.22 1.49 6.4 2-5.53 3.22-5.53 3.22l2.41 14.06c3.21.59.27 1.84 3.69 1.84.02.04 2.93 1.85 4.5.85Z"/></g><path class="cls-1" d="M760.3 222.89c-23.46 6.28-37.51-7.76-31.22-31.22L772.24 30.6c6.28-23.46 25.47-28.6 42.64-11.43l117.91 117.91c17.18 17.18 12 36.37-11.42 42.65ZM951 205.91c-1.9-7.1 2.35-11.35 9.44-9.45l48.73 13.06c7.1 1.9 8.66 7.71 3.46 12.9L977 258.1c-5.2 5.19-11 3.64-12.9-3.46Z"/><path style="fill:none" d="M694.46 80.81h289.81v210.25H694.46z"/></svg>