<svg id="Section1" xmlns="http://www.w3.org/2000/svg" viewBox="0 0 600 600"><defs><clipPath id="clip-path"><circle class="cls-1" cx="300.5" cy="291.5" r="35.2"/></clipPath><clipPath id="clip-path-10"><circle class="cls-1" cx="464.5" cy="195.3" r="27.8"/></clipPath><clipPath id="clip-path-13"><path class="cls-1" d="M448.7 169.8h32.5v31.6h-32.5z"/></clipPath><clipPath id="clip-path-18"><circle class="cls-1" cx="109.5" cy="318.3" r="27.8"/></clipPath><style>.cls-1,.cls-10,.cls-11{fill:none}.cls-2{fill:#fff}.cls-3{fill:#4a00e0}.cls-4{clip-path:url(#clip-path)}.cls-5{fill:#ccc;opacity:.5}.cls-12,.cls-20,.cls-5{isolation:isolate}.cls-11{stroke-miterlimit:10}.cls-8{fill:#6f7592}.cls-9{fill:#38332d}.cls-10,.cls-11{stroke:#6f7592;stroke-width:3px}.cls-10{stroke-linecap:round;stroke-linejoin:round}.cls-13{fill:#332d55}.cls-14{fill:#fafafa}.cls-18{clip-path:url(#clip-path-10)}.cls-19{fill:#54bbd3}.cls-20{fill:#e84376;opacity:.2}.cls-21{clip-path:url(#clip-path-13)}.cls-22{clip-path:url(#clip-path-18)}</style></defs><path class="cls-2" d="m283.8 273.3-3.4-1.1-2-3.6-.7-3.5v-2.5l.6-1.9 1.9-.9 2.9-8 4.3-8.2 30.1-.6 2.6 8.8v7.3l.9 1.2 1.8-.2 1.6 1.8.2 4.9-1.9 4.6-2.6 1.5-2.2.6-7.8 19.4.5 5.1 1.1 3.4 2.7 4-2.9.8-5.7.9-5.7.3-5.4-.4-7.7-1.1 3.4-4.6.9-3.8V291l-5.9-13.2-1.6-4.5z"/><path class="cls-3" d="m320.1 259.5-3-4c.4 5.8.4 12-1.1 17.6-.4 1.7-1.5 4.8-3.3 4.6s-7.1-2.5-11.4-2.6-8 1.7-12.1 2.2c-2.9.3-3.3-1.2-3.7-3.7a90.17 90.17 0 0 1-1.2-14.7c0-.7-.4-2.7 0-3.4l-3 4c.4 13.8 3.7 22 3.7 22a33 33 0 0 0 1.4 4.2c1.5 3.6 4.4 7.4 8 9 8.7 3.9 16.9 2.5 22-9 3.7-8.4 3.4-17.5 3.7-26.2ZM308.5 283a8.07 8.07 0 0 1-6.9 2.6 6.93 6.93 0 0 1-2-.3 10.11 10.11 0 0 1-4-1.7c-.6-.4-3.2-2.9-2.6-3.8 0 0 1.1-1.5 8.4-1.4s8.4 1.7 8.4 1.8c.4.6-1 2.5-1.3 2.8Z"/><g class="cls-4"><circle class="cls-5" cx="300.5" cy="291.5" r="35.2"/></g><path style="stroke-miterlimit:10;stroke:#fff;fill:#fff" d="m283.9 273.3-3.4-1.1-2-3.6-.7-3.5v-2.5l.6-1.9 1.9-.9 2.9-8 4.4-8.2 30-.6 2.6 8.8v7.3l.9 1.2 1.8-.2 1.6 1.8.2 4.9-1.9 4.6-2.6 1.5-2.2.6-7.8 19.4.5 5.1 1.2 3.4 2.6 4-2.9.8-5.7.9-5.7.3-5.4-.4-7.7-1.1 3.4-4.6.9-3.8V291l-5.9-13.2-1.6-4.5z" class="cls-4"/><g class="cls-4"><path class="cls-3" d="M256.3 327s4.4-9.2 12.7-12.4l7.1-2.6s9.7-3.7 11.6-5.6c0 0 18.1 2.6 26.3-1.2 0 0 7.4 5.1 9.8 5.9 0 0 11.4 2.8 15.2 7 0 0 6.4 4.8 6.2 8.8h-88.9Z"/></g><path d="M282.9 264.5c1.2-4.2 1.2-14.9 6.6-16.3 2.3-.6 10 5.7 20.7 0 4.3-2.3 8.6 12.4 9.4 14.5l.3-1.9 2-1.5s8.3-30-21.5-29.4-21.2 29.6-21.2 29.6 3.3-.4 3.7 5Z" style="fill:#40405b" class="cls-4"/><g class="cls-4"><path class="cls-8" d="M258.9 323.7c2.4-4.3 7-7.6 11.6-9.6 1.9 4.3 2.1 8.9 1.7 13.6h1.2a29.07 29.07 0 0 0-1.8-14c4.5-1.8 9.3-2.7 13.3-5.4.1-.1.2-.1.2-.2a17.68 17.68 0 0 0 2.2-1.6c.1.1.2.2.3.2 9 1.6 18.1 2.2 26.9-.4a11 11 0 0 0 1.1 1c4.3 3.3 10.2 4.5 15.1 6.5l.6.3c-3.1 3.5-3.9 8.7-3.8 13.6h1.2c-.1-4.8.6-9.9 3.7-13.1 4.2 2 8.3 5.2 10.5 9.1a33.89 33.89 0 0 1 1.8 3.9h1.1a28.13 28.13 0 0 0-5-8.7c-3.3-3.7-8.6-5.8-13.3-7.4-7.8-2.5-15.8-5.5-16.6-14.9-.2-2.3-.1-4.6-.1-7 3.7-2.6 5.9-7.2 7.2-11.7a55.42 55.42 0 0 0 1.5-17.7 4.87 4.87 0 0 1-1.1.4 55 55 0 0 1-1.3 16.2c-1.5 6.3-5.1 13.3-12.4 13.7a2.44 2.44 0 0 0 0 1.2 12.08 12.08 0 0 0 5.1-1.4c0 1.8-.1 3.5 0 5.3a16.37 16.37 0 0 0 3.7 9.6c-8.3 2.3-16.9 1.8-25.4.3 2.7-2.8 3.5-6.2 3.7-9.9.1-2 0-4.1 0-6.1a12.25 12.25 0 0 0 4.4 1.7c.7.1.9-1 .2-1.1-5.9-1.1-9.2-6.4-11-11.6a50.94 50.94 0 0 1-2.5-16.9c0-.7-1.1-.6-1.1.1a52.83 52.83 0 0 0 2.7 17.7 20.38 20.38 0 0 0 6.3 9.4c0 2.6.1 5.2-.1 7.8a14.35 14.35 0 0 1-3.4 8.2c-3.3 3.9-8.5 5.2-13.2 6.7s-10 3.6-13.3 7.4a28.13 28.13 0 0 0-5 8.7h1.1c.7-1.2 1.3-2.7 2-3.9Z"/></g><g class="cls-4"><path class="cls-8" d="M296.9 281.8a10.76 10.76 0 0 1 9.1.5c.5.2.9-.4.4-.7a11.77 11.77 0 0 0-9.7-.6c-.5.2-.3 1 .2.8Z"/></g><g class="cls-4"><path class="cls-9" d="M319.7 260.4c-.5.4 0 1.4.5.9 3.3-2.6 4 1.1 4 3.9-.1 3.2-1.5 7.1-5.1 7.5-.7.1-.7 1.2 0 1.1 4.8-.5 6.3-5.3 6.2-9.6-.1-3.7-2.1-6.5-5.6-3.8Z"/></g><g class="cls-4"><path class="cls-9" d="M282.8 260.4c.5.4 0 1.4-.5.9-3.3-2.6-4 1.1-4 3.9.1 3.2 1.5 7.1 5.1 7.5.7.1.7 1.2 0 1.1-4.8-.5-6.3-5.3-6.2-9.6 0-3.7 2.1-6.5 5.6-3.8Z"/></g><g class="cls-4"><path class="cls-3" d="m320.2 259.7-3-4c.4 5.8.4 12-1.1 17.6-.4 1.7-1.5 4.8-3.3 4.6s-7.1-2.5-11.4-2.6-8 1.7-12.1 2.2c-2.9.3-3.3-1.2-3.7-3.7a90.17 90.17 0 0 1-1.2-14.7c0-.7-.4-2.7 0-3.4l-3 4c.4 13.8 3.7 22 3.7 22a33 33 0 0 0 1.4 4.2c1.5 3.6 4.4 7.4 8 9 8.7 3.9 16.9 2.5 22-9 3.6-8.4 3.4-17.5 3.7-26.2Zm-11.6 23.5a8.07 8.07 0 0 1-6.9 2.6 6.93 6.93 0 0 1-2-.3 10.11 10.11 0 0 1-4-1.7c-.6-.4-3.2-2.9-2.6-3.8 0 0 1.1-1.5 8.4-1.4s8.4 1.7 8.4 1.8c.4.6-1 2.5-1.3 2.8Z"/></g><path class="cls-8" d="M319.7 260.4c-.5.4 0 1.4.5.9 3.3-2.6 4 1.1 4 3.9-.1 3.2-1.5 7.1-5.1 7.5-.7.1-.7 1.2 0 1.1 4.8-.5 6.3-5.3 6.2-9.6-.1-3.7-2.1-6.5-5.6-3.8Zm-36.9 0c.5.4 0 1.4-.5.9-3.3-2.6-4 1.1-4 3.9.1 3.2 1.5 7.1 5.1 7.5.7.1.7 1.2 0 1.1-4.8-.5-6.3-5.3-6.2-9.6 0-3.7 2.1-6.5 5.6-3.8Z"/><path class="cls-3" d="M282.9 264.5c1.2-4.2 1.2-14.9 6.6-16.3 2.3-.6 10 5.7 20.7 0 4.3-2.3 8.6 12.4 9.4 14.5l.3-1.9 2-1.5s8.3-30-21.5-29.4-21.2 29.6-21.2 29.6 3.3-.4 3.7 5Z"/><path class="cls-10" d="m249 83 3.8 7.3-7.3 3.8M143.8 273.5l-8.2-.7.6-8.2"/><path class="cls-11" d="M92.5 267.4s-6.7-28.3 22.4-48.7M249.2 272s-23.3-43.1 17.8-91.3m61.1 51.6s29.3-40.1 90.5-20"/><path class="cls-11" d="M351 273.2s35.8-38.9 9.1-92.5m5.1-82.4s46.4-9.2 81.2 47.6m54.9 201.6s37.6-44.5 8.9-94.1M392.8 425s-45.3-90.7 29.5-158.7m-218 135s-36.6-50.6-5.5-98.6 5.5-72 5.5-72"/><path class="cls-11" d="M136.6 272s43-31 91.2-3.3M110.1 392.2s-6.7 56.5 54.6 67.6m61.6-58.5s-16.1-54.6 26.8-87.1m30.9 47s14 64.6 84.8 79.1"/><path class="cls-11" d="M265.1 460.8s10.1-59.9 65-72.4 72.5-29.1 72.5-29.1M273.4 521.2s46.5 29.3 95.5-3.7"/><path class="cls-10" d="M361.3 516.3h8.2v8.3m-95.7 4-1.9-8 8-1.9m-8.2-60.4-7.3 3.8-3.8-7.3m-29.5-58.9-4.3 7.1-7-4.4m-12.5-3.8-2.2 7.9-7.9-2.1m-35.5 52.6 4.4 6.9-6.9 4.5M104 395.3l6.2-5.5 5.5 6.1m249.8 37.9 5 6.5-6.5 5.1m31.4-27.2-1.8 8.1-8.1-1.9m10.1-66.3 8.3.4-.4 8.2m-124.7-.2 4.8-6.7 6.7 4.8m-44.6-51.7 8.3.4-.5 8.2m255 26.7-8.3.5-.5-8.2m7.9-80.2 1.7-8.1 8 1.6M415 265.5l8.2-.6.6 8.2m-6.5-67.8 2.5 7.9-7.9 2.5m-76.8 17-8.2.6-.6-8.2m32 48.7-8.2.6-.6-8.2m7.1-78.9 3.1-7.6 7.6 3m-107.4-2.2 8.2-.7.7 8.2m-77.5-69.8-8 2-1.9-8m71 153.3-2.2 7.9-8-2.2m-13.7-9.4.3 8.3-8.2.2m-123.4-8.5-4.3 7-7-4.3m21.9-47.3 8.2.4-.4 8.2m85.7 11.4 2.5-7.9 7.9 2.6m157.8-128.3-6-5.6 5.6-6m80.1 47.2-2 8-8-1.9"/><g class="cls-12"><path class="cls-13" d="m291.83 330 2 3.65 2.09-3.65h1.79v.07l-3.14 5.13v3.65h-1.49v-3.65l-3-5.13V330Zm5.67 3.42a2.6 2.6 0 0 1 2.08-.93 2.64 2.64 0 0 1 2.1.93 3.43 3.43 0 0 1 .8 2.32 3.48 3.48 0 0 1-.78 2.32 2.63 2.63 0 0 1-2.11.93 2.59 2.59 0 0 1-2.09-.93 3.48 3.48 0 0 1-.78-2.32 3.52 3.52 0 0 1 .78-2.32Zm2.09.47a1.27 1.27 0 0 0-1.1.55 2.31 2.31 0 0 0 0 2.6 1.42 1.42 0 0 0 2.21 0 2.25 2.25 0 0 0 0-2.59 1.31 1.31 0 0 0-1.11-.56Zm3.87-1.28h1.37v3.27a2 2 0 0 0 .35 1.2 1.19 1.19 0 0 0 1 .47 1.25 1.25 0 0 0 1-.51 1.9 1.9 0 0 0 .4-1.24v-3.19H309v6.25h-1.23l-.09-.84a2.48 2.48 0 0 1-1.87.93 2 2 0 0 1-1.66-.82 3.53 3.53 0 0 1-.64-2.24Z"/></g><g class="cls-12"><path class="cls-13" d="M182.73 509.81a2.84 2.84 0 0 1 1.26.27 2.64 2.64 0 0 1 .92.71 3.09 3.09 0 0 1 .53 1 3.58 3.58 0 0 1 0 2.3 3.09 3.09 0 0 1-.53 1 2.64 2.64 0 0 1-.92.71 2.84 2.84 0 0 1-1.26.27h-2.22v2.61H179v-8.86h3.71Zm-2.22 1.59v3.14h2.22a1.26 1.26 0 0 0 1.06-.49 1.66 1.66 0 0 0 .38-1.08 1.82 1.82 0 0 0-.38-1.08 1.28 1.28 0 0 0-1.06-.49Zm10.13 1.9.05-.86H192v6.24h-1.29l-.07-.91a1.64 1.64 0 0 1-.75.79 2.26 2.26 0 0 1-1 .31 2.61 2.61 0 0 1-2.06-.86 3.48 3.48 0 0 1-.8-2.46 3.38 3.38 0 0 1 .82-2.41 2.65 2.65 0 0 1 2.07-.85 2 2 0 0 1 1 .28 1.8 1.8 0 0 1 .72.73Zm-1.64.37a1.56 1.56 0 0 0-1.18.5 2.32 2.32 0 0 0 0 2.77 1.54 1.54 0 0 0 1.18.51 1.48 1.48 0 0 0 1-.39 1.7 1.7 0 0 0 .52-.94 3.45 3.45 0 0 0 0-1.11 1.69 1.69 0 0 0-.52-1 1.48 1.48 0 0 0-1-.34Zm5.53 7.62h-1.37v-8.85h1.28l.09.86a1.9 1.9 0 0 1 .8-.74 2.16 2.16 0 0 1 1-.26 2.57 2.57 0 0 1 2 .93 3.47 3.47 0 0 1 .79 2.34 3.61 3.61 0 0 1-.75 2.34 2.5 2.5 0 0 1-2 .92 2.82 2.82 0 0 1-1.06-.21 1.54 1.54 0 0 1-.79-.67Zm.57-4.46a1.51 1.51 0 0 0 2.26 0 2.08 2.08 0 0 0 0-2.53 1.55 1.55 0 0 0-2.3 0 1.93 1.93 0 0 0-.43 1.27 1.87 1.87 0 0 0 .47 1.26Zm10.59-.72h-4.33a1.38 1.38 0 0 0 .5 1 1.71 1.71 0 0 0 1.15.37 2.26 2.26 0 0 0 .83-.16 1.5 1.5 0 0 0 .65-.42l.88 1a2.59 2.59 0 0 1-1.07.75 3.36 3.36 0 0 1-1.31.26 2.88 2.88 0 0 1-2.24-.9 4 4 0 0 1 0-4.78 2.75 2.75 0 0 1 2.15-.91 2.58 2.58 0 0 1 2.19 1 4 4 0 0 1 .6 2.79Zm-4.31-1.28h3a1.32 1.32 0 0 0-.45-.9 1.5 1.5 0 0 0-1-.31 1.6 1.6 0 0 0-1 .31 1.52 1.52 0 0 0-.55.9Zm5.36-2.39H208l.1.72a1.62 1.62 0 0 1 .68-.71 2.21 2.21 0 0 1 .89-.17 1.85 1.85 0 0 1 1.43.59l-.62 1.34a1.41 1.41 0 0 0-1-.4 1.37 1.37 0 0 0-1 .38 1.64 1.64 0 0 0-.4 1.2v3.29h-1.37Zm9.01-.01H217l1.22 4.69 1.27-4.69H221l-2 6.27h-1.6l-.57-1.84-.49-2.09-.5 2.09-.57 1.84h-1.6l-1.94-6.27h1.53l1.27 4.69Zm6.89.82a2.61 2.61 0 0 1 2.08-.94 2.66 2.66 0 0 1 2.1.94 3.41 3.41 0 0 1 .8 2.32 3.5 3.5 0 0 1-.78 2.32 2.63 2.63 0 0 1-2.11.93 2.59 2.59 0 0 1-2.09-.93 3.84 3.84 0 0 1 0-4.64Zm2.09.47a1.28 1.28 0 0 0-1.1.54 2.15 2.15 0 0 0-.4 1.31 2.09 2.09 0 0 0 .4 1.29 1.4 1.4 0 0 0 2.21 0 2.23 2.23 0 0 0 0-2.58 1.31 1.31 0 0 0-1.11-.56Zm3.84-1.28h1.27l.1.72a1.62 1.62 0 0 1 .68-.71 2.19 2.19 0 0 1 .88-.17 1.83 1.83 0 0 1 1.43.59l-.62 1.34a1.37 1.37 0 0 0-1-.4 1.41 1.41 0 0 0-1 .38 1.63 1.63 0 0 0-.39 1.2v3.29h-1.37Zm4.84-2.61h1.38V515l1.86-2.51h1.64v.09l-2.29 2.8 2.58 3.18v.12H237l-2.17-2.82v2.82h-1.38Z"/></g><g class="cls-12"><path class="cls-13" d="M293.37 166.84h-1.49V158h5.66v1.61h-4.17V162h3.94v1.54h-3.94Zm5.12-6.24h1.38v3.26a2 2 0 0 0 .34 1.21 1.19 1.19 0 0 0 1 .47 1.22 1.22 0 0 0 1-.51 1.92 1.92 0 0 0 .4-1.24v-3.19H304v6.25h-1.22l-.09-.85a2.49 2.49 0 0 1-1.88.94 2 2 0 0 1-1.66-.82 3.61 3.61 0 0 1-.64-2.24Zm12.16 6.24h-1.37v-3.27a2 2 0 0 0-.35-1.2 1.16 1.16 0 0 0-1-.47 1.25 1.25 0 0 0-1 .51 2 2 0 0 0-.4 1.24v3.19h-1.36v-6.25h1.23l.09.85a2.44 2.44 0 0 1 1.82-.94 2.08 2.08 0 0 1 1.68.82 3.4 3.4 0 0 1 .67 2.24Zm5.57-8.84h1.37v8.85h-1.28l-.09-.86a1.94 1.94 0 0 1-1.79 1 2.67 2.67 0 0 1-2.05-.88 4 4 0 0 1 0-4.8 2.63 2.63 0 0 1 2-.85 2.37 2.37 0 0 1 1 .27 1.58 1.58 0 0 1 .79.73Zm-1.7 3.9a1.47 1.47 0 0 0-1.13.5 1.89 1.89 0 0 0-.45 1.32 2 2 0 0 0 .46 1.33 1.44 1.44 0 0 0 1.12.51 1.48 1.48 0 0 0 1.14-.51 1.89 1.89 0 0 0 .47-1.33 1.86 1.86 0 0 0-.48-1.31 1.48 1.48 0 0 0-1.13-.52Zm4.39-2.39a.87.87 0 0 1-.25-.67.88.88 0 0 1 .25-.67.76.76 0 0 1 1.11 0 .89.89 0 0 1 .26.67.87.87 0 0 1-.26.67.76.76 0 0 1-1.11 0Zm1.24 1.07h-1.37v6.26h1.37Zm6.69 6.26h-1.37v-3.27a2 2 0 0 0-.35-1.2 1.16 1.16 0 0 0-1-.47 1.25 1.25 0 0 0-1 .51 2 2 0 0 0-.4 1.24v3.19h-1.36v-6.25h1.23l.09.85a2.46 2.46 0 0 1 1.82-.94 2.06 2.06 0 0 1 1.68.82 3.4 3.4 0 0 1 .67 2.24Zm4.98-6.09.56-.78 1 .86-.62.88a2.92 2.92 0 0 1 .58 1.85 3.46 3.46 0 0 1-.27 1.35 1.88 1.88 0 0 1-.9 1 2.19 2.19 0 0 1 1.15 2.06 2.84 2.84 0 0 1-4.79 2 2.67 2.67 0 0 1-.8-2h1.36a1.24 1.24 0 0 0 .42 1 1.52 1.52 0 0 0 1 .37 1.49 1.49 0 0 0 1-.35 1.25 1.25 0 0 0 .4-1 1.11 1.11 0 0 0-.42-.93 1.61 1.61 0 0 0-1-.32 2.6 2.6 0 0 1-2.05-.84 3.29 3.29 0 0 1-.76-2.3 3.25 3.25 0 0 1 .81-2.3 2.66 2.66 0 0 1 2-.86 2.06 2.06 0 0 1 1.33.31Zm-1.27 1.05a1.31 1.31 0 0 0-1 .48 1.88 1.88 0 0 0-.42 1.28 1.85 1.85 0 0 0 .42 1.27 1.33 1.33 0 0 0 1 .46 1.3 1.3 0 0 0 1-.47 1.89 1.89 0 0 0 .41-1.26 1.92 1.92 0 0 0-.41-1.27 1.29 1.29 0 0 0-1-.49Z"/></g><g class="cls-12"><path class="cls-13" d="m131.63 209.66 1 1.15a3.82 3.82 0 0 1-3 1.32 4.36 4.36 0 0 1-1.88-.39 3.48 3.48 0 0 1-1.31-1 4.6 4.6 0 0 1-.73-1.45 5.48 5.48 0 0 1-.25-1.69 5.75 5.75 0 0 1 .25-1.71 4.77 4.77 0 0 1 .76-1.49 3.42 3.42 0 0 1 1.32-1.07 4.08 4.08 0 0 1 1.84-.4 3.77 3.77 0 0 1 2.89 1.35l-1 1.08a2.43 2.43 0 0 0-1.9-.84 2.39 2.39 0 0 0-2 .92 3.37 3.37 0 0 0-.69 2.16 3.45 3.45 0 0 0 .69 2.12 2.4 2.4 0 0 0 2 .88 2.55 2.55 0 0 0 1.06-.24 2.44 2.44 0 0 0 .95-.7Zm2.16-3.16a2.57 2.57 0 0 1 2.08-.94 2.63 2.63 0 0 1 2.1.94 3.77 3.77 0 0 1 0 4.63 2.84 2.84 0 0 1-4.2 0 3.81 3.81 0 0 1 0-4.63Zm2.09.46a1.32 1.32 0 0 0-1.11.55 2.36 2.36 0 0 0 0 2.6 1.41 1.41 0 0 0 2.22 0 2.25 2.25 0 0 0 0-2.59 1.32 1.32 0 0 0-1.11-.52Zm9.29 4.96h-1.37v-3.26a2 2 0 0 0-.35-1.2 1.16 1.16 0 0 0-1-.47 1.25 1.25 0 0 0-1 .51 2 2 0 0 0-.4 1.24v3.18h-1.36v-6.25h1.23l.09.85a2.48 2.48 0 0 1 1.82-.94 2.11 2.11 0 0 1 1.68.82 3.43 3.43 0 0 1 .67 2.25Zm1.51-7.83 1.37-.16v1.77h1.53v1.3H148v2.69a1 1 0 0 0 .19.66.69.69 0 0 0 .53.23 1.42 1.42 0 0 0 .66-.19l.38 1.31a2.8 2.8 0 0 1-1.13.27 1.76 1.76 0 0 1-1.46-.55 2.47 2.47 0 0 1-.53-1.73V207h-1v-1.3h1Zm3.92 1.6h1.27l.1.72a1.56 1.56 0 0 1 .68-.71 2 2 0 0 1 .89-.18 1.79 1.79 0 0 1 1.42.6l-.61 1.34a1.42 1.42 0 0 0-1-.41 1.34 1.34 0 0 0-1 .39 1.57 1.57 0 0 0-.4 1.19v3.29h-1.35Zm9.23.86v-.86h1.31v6.23h-1.24l-.07-.91a1.66 1.66 0 0 1-.75.8 2.21 2.21 0 0 1-1.05.3 2.62 2.62 0 0 1-2.06-.85 3.52 3.52 0 0 1-.79-2.46 3.4 3.4 0 0 1 .81-2.42 2.72 2.72 0 0 1 2.08-.84 2.1 2.1 0 0 1 1 .27 1.71 1.71 0 0 1 .76.74Zm-1.64.36a1.52 1.52 0 0 0-1.17.51 2.26 2.26 0 0 0 0 2.76 1.49 1.49 0 0 0 1.17.52 1.44 1.44 0 0 0 1-.4 1.67 1.67 0 0 0 .52-.94 3.44 3.44 0 0 0 0-1.11 1.67 1.67 0 0 0-.52-.94 1.44 1.44 0 0 0-1-.4Zm8.12 3.2.92 1a2.78 2.78 0 0 1-2.13 1 2.83 2.83 0 0 1-2.11-.85 4 4 0 0 1 0-4.9 2.83 2.83 0 0 1 2.11-.85 2.62 2.62 0 0 1 2 .92l-.87 1a1.51 1.51 0 0 0-1.11-.5 1.47 1.47 0 0 0-1.15.52 2 2 0 0 0-.45 1.33 1.89 1.89 0 0 0 .45 1.34 1.49 1.49 0 0 0 1.13.48 1.53 1.53 0 0 0 1.21-.49Zm2.09-6.02 1.37-.16v1.77h1.53v1.3h-1.54v2.69a1 1 0 0 0 .2.66.65.65 0 0 0 .52.23 1.38 1.38 0 0 0 .66-.19l.39 1.31a2.88 2.88 0 0 1-1.14.27 1.74 1.74 0 0 1-1.45-.55 2.47 2.47 0 0 1-.54-1.73V207h-1v-1.3h1Zm8.31 2.24-.76 1a1.82 1.82 0 0 0-1.38-.55c-.67 0-1 .2-1 .62s.35.63 1 .68a5.5 5.5 0 0 1 .65.08 2.9 2.9 0 0 1 .63.18 1.82 1.82 0 0 1 .56.34 1.67 1.67 0 0 1 .38.56 2.17 2.17 0 0 1 .15.84 1.94 1.94 0 0 1-.62 1.46 2.5 2.5 0 0 1-1.76.59 4.05 4.05 0 0 1-1.39-.23 3 3 0 0 1-1.17-.9l.68-1.11a2.12 2.12 0 0 0 .85.61 2.86 2.86 0 0 0 1.06.27 1.11 1.11 0 0 0 .7-.2.66.66 0 0 0 .3-.55.53.53 0 0 0-.25-.47 2.13 2.13 0 0 0-.85-.19 3.79 3.79 0 0 1-.81-.14 3.12 3.12 0 0 1-.73-.32 1.43 1.43 0 0 1-.55-.59 1.79 1.79 0 0 1-.21-.88 1.88 1.88 0 0 1 .22-.91 1.62 1.62 0 0 1 .58-.61 2.86 2.86 0 0 1 .74-.32 2.76 2.76 0 0 1 .8-.11 2.92 2.92 0 0 1 2.18.85Z"/></g><g class="cls-12"><path class="cls-13" d="M440.44 376.18a2.91 2.91 0 0 1 1.26.27 2.6 2.6 0 0 1 .91.71 3.09 3.09 0 0 1 .53 1 3.43 3.43 0 0 1 .19 1.15 3.51 3.51 0 0 1-.19 1.15 3.2 3.2 0 0 1-.53 1 2.6 2.6 0 0 1-.91.71 2.91 2.91 0 0 1-1.26.27h-2.23V385h-1.48v-8.85h3.71Zm-2.23 1.59v3.14h2.23a1.27 1.27 0 0 0 1.06-.49 1.65 1.65 0 0 0 .37-1.08 1.71 1.71 0 0 0-.38-1.08 1.24 1.24 0 0 0-1.05-.49Zm6.02-1.57h1.36v8.8h-1.36Zm6.91 3.47.05-.86h1.31V385h-1.29l-.07-.91a1.66 1.66 0 0 1-.75.8 2.21 2.21 0 0 1-1.05.3 2.62 2.62 0 0 1-2.06-.85 3.52 3.52 0 0 1-.79-2.46 3.4 3.4 0 0 1 .81-2.42 2.72 2.72 0 0 1 2.08-.84 2.1 2.1 0 0 1 1 .27 1.71 1.71 0 0 1 .76.78Zm-1.64.37a1.51 1.51 0 0 0-1.17.5 2 2 0 0 0-.47 1.38 2 2 0 0 0 .47 1.39 1.52 1.52 0 0 0 1.17.51 1.46 1.46 0 0 0 1-.39 1.67 1.67 0 0 0 .52-.95 3.38 3.38 0 0 0 0-1.1 1.61 1.61 0 0 0-.52-.95 1.46 1.46 0 0 0-1-.43Zm9.62 4.96h-1.37v-3.26a2 2 0 0 0-.35-1.2 1.19 1.19 0 0 0-1-.47 1.25 1.25 0 0 0-1 .51 1.9 1.9 0 0 0-.4 1.24V385h-1.36v-6.25h1.23l.09.85a2.46 2.46 0 0 1 1.82-.93 2.1 2.1 0 0 1 1.68.81 3.51 3.51 0 0 1 .67 2.25Zm6.63 0h-1.37v-3.26a2 2 0 0 0-.35-1.2 1.16 1.16 0 0 0-1-.47 1.25 1.25 0 0 0-1 .51 2 2 0 0 0-.4 1.24V385h-1.36v-6.25h1.23l.09.85a2.48 2.48 0 0 1 1.82-.93 2.07 2.07 0 0 1 1.68.81 3.45 3.45 0 0 1 .67 2.25Zm1.31-7.28a1 1 0 0 1 0-1.34.81.81 0 0 1 .56-.24.77.77 0 0 1 .55.24 1 1 0 0 1 0 1.34.77.77 0 0 1-.55.24.81.81 0 0 1-.56-.24Zm1.24 1.06h-1.37V385h1.37ZM475 385h-1.37v-3.26a1.9 1.9 0 0 0-.35-1.2 1.16 1.16 0 0 0-1-.47 1.22 1.22 0 0 0-1 .51 1.9 1.9 0 0 0-.4 1.24V385h-1.36v-6.25h1.22l.09.85a2.48 2.48 0 0 1 1.82-.93 2.11 2.11 0 0 1 1.69.81 3.5 3.5 0 0 1 .66 2.25Zm5-6 .55-.79 1 .87-.62.88a2.91 2.91 0 0 1 .59 1.85 3.55 3.55 0 0 1-.28 1.35 1.86 1.86 0 0 1-.89 1 2.19 2.19 0 0 1 1.14 2.06 2.63 2.63 0 0 1-2.77 2.78 2.79 2.79 0 0 1-2-.77 2.68 2.68 0 0 1-.8-2h1.36a1.26 1.26 0 0 0 .43 1 1.53 1.53 0 0 0 1 .37 1.47 1.47 0 0 0 1-.35 1.25 1.25 0 0 0 .4-1 1.09 1.09 0 0 0-.42-.93 1.54 1.54 0 0 0-1-.32 2.63 2.63 0 0 1-2.06-.85 3.31 3.31 0 0 1-.76-2.29 3.25 3.25 0 0 1 .81-2.3 2.63 2.63 0 0 1 2-.86 2 2 0 0 1 1.32.3Zm-1.29 1a1.32 1.32 0 0 0-1 .48 1.88 1.88 0 0 0-.42 1.28 1.81 1.81 0 0 0 .42 1.26 1.31 1.31 0 0 0 1 .47 1.33 1.33 0 0 0 1-.47 1.84 1.84 0 0 0 .41-1.26 1.87 1.87 0 0 0-.41-1.27 1.29 1.29 0 0 0-1-.49Z"/></g><g class="cls-12"><path class="cls-13" d="M403.35 495a2.89 2.89 0 0 1 2 .65 2.39 2.39 0 0 1 .74 1.92 1.78 1.78 0 0 1-1 1.71 1.66 1.66 0 0 1 .94.83 2.53 2.53 0 0 1 .32 1.14c0 1.74-1 2.61-2.95 2.61h-3.73V495Zm-2.27 1.52v2h2.27c.83 0 1.24-.32 1.24-.95a1.12 1.12 0 0 0-.3-.74 1.21 1.21 0 0 0-.94-.35Zm0 3.51v2.27h2.27a2.39 2.39 0 0 0 .66-.08 1.24 1.24 0 0 0 .56-.33.89.89 0 0 0 .26-.65 1 1 0 0 0-.48-.89 1.8 1.8 0 0 0-1-.32Zm6.2-2.42h1.37v3.27a2 2 0 0 0 .35 1.2 1.16 1.16 0 0 0 1 .47 1.22 1.22 0 0 0 1-.51 1.92 1.92 0 0 0 .4-1.24v-3.19h1.36v6.25h-1.22l-.09-.85a2.48 2.48 0 0 1-1.88.94 2 2 0 0 1-1.66-.82 3.61 3.61 0 0 1-.63-2.24Zm11.08-2.61h1.38v8.84h-1.29l-.09-.86a1.9 1.9 0 0 1-1.78 1 2.66 2.66 0 0 1-2.06-.88 4 4 0 0 1 0-4.8 2.63 2.63 0 0 1 2-.85 2.37 2.37 0 0 1 1 .27 1.64 1.64 0 0 1 .78.73Zm-1.69 3.89a1.47 1.47 0 0 0-1.13.5 2.16 2.16 0 0 0 0 2.65 1.43 1.43 0 0 0 1.12.51 1.48 1.48 0 0 0 1.14-.51 1.87 1.87 0 0 0 .46-1.33 1.85 1.85 0 0 0-.47-1.31 1.48 1.48 0 0 0-1.12-.5Zm8.06-1.13.55-.78 1 .86-.62.89a2.88 2.88 0 0 1 .59 1.84 3.38 3.38 0 0 1-.28 1.36 1.84 1.84 0 0 1-.89 1 2.2 2.2 0 0 1 1.15 2.06 2.7 2.7 0 0 1-.78 2 3 3 0 0 1-4 0 2.66 2.66 0 0 1-.79-2H422a1.24 1.24 0 0 0 .42 1 1.48 1.48 0 0 0 1 .37 1.42 1.42 0 0 0 1-.35 1.25 1.25 0 0 0 .4-1 1.11 1.11 0 0 0-.42-.93 1.6 1.6 0 0 0-1-.32 2.63 2.63 0 0 1-2.06-.84 3.34 3.34 0 0 1-.75-2.3 3.2 3.2 0 0 1 .81-2.29 2.61 2.61 0 0 1 2-.87 2.08 2.08 0 0 1 1.33.3Zm-1.27 1.05a1.33 1.33 0 0 0-1 .48 2 2 0 0 0-.41 1.28 1.88 1.88 0 0 0 .41 1.27 1.36 1.36 0 0 0 1 .47 1.31 1.31 0 0 0 1-.48 1.81 1.81 0 0 0 .42-1.26 1.89 1.89 0 0 0-.42-1.27 1.32 1.32 0 0 0-1-.49Zm9.17 2.47h-4.33a1.43 1.43 0 0 0 .51 1 1.71 1.71 0 0 0 1.15.37 2.3 2.3 0 0 0 .83-.16 1.41 1.41 0 0 0 .65-.42l.88 1a2.59 2.59 0 0 1-1.07.75 3.36 3.36 0 0 1-1.31.26 2.88 2.88 0 0 1-2.24-.9 4 4 0 0 1 0-4.78 2.74 2.74 0 0 1 2.14-.91 2.59 2.59 0 0 1 2.2 1 4 4 0 0 1 .59 2.79Zm-4.3-1.28h3a1.35 1.35 0 0 0-.45-.9 1.52 1.52 0 0 0-1-.31 1.6 1.6 0 0 0-1 .31 1.51 1.51 0 0 0-.55.9Zm5.67-4 1.37-.17v1.77h1.53v1.4h-1.54v2.7a1 1 0 0 0 .19.66.68.68 0 0 0 .53.22 1.31 1.31 0 0 0 .66-.19l.38 1.32a2.8 2.8 0 0 1-1.13.27 1.77 1.77 0 0 1-1.46-.56 2.49 2.49 0 0 1-.53-1.72V499h-1v-1.33h1Z"/></g><g class="cls-12"><path class="cls-13" d="m85.92 364.19-.67-1.67h-4.11l-.68 1.67h-1.6l3.53-8.85H84l3.53 8.85ZM84.66 361l-1.46-3.8-1.47 3.8Zm7.16 1.38.92 1a2.78 2.78 0 0 1-2.13 1 2.83 2.83 0 0 1-2.11-.85 4 4 0 0 1 0-4.9 2.83 2.83 0 0 1 2.11-.85 2.62 2.62 0 0 1 2 .92l-.87 1a1.51 1.51 0 0 0-1.11-.5 1.47 1.47 0 0 0-1.15.52 2 2 0 0 0-.45 1.33 1.89 1.89 0 0 0 .45 1.34 1.49 1.49 0 0 0 1.13.48 1.53 1.53 0 0 0 1.21-.49Zm5.36 0 .93 1a2.93 2.93 0 0 1-4.25.13 4 4 0 0 1 0-4.9 2.83 2.83 0 0 1 2.11-.85 2.61 2.61 0 0 1 2 .92l-.86 1a1.55 1.55 0 0 0-1.12-.5 1.46 1.46 0 0 0-1.14.52 2 2 0 0 0-.45 1.33 1.89 1.89 0 0 0 .45 1.34 1.47 1.47 0 0 0 1.12.48 1.52 1.52 0 0 0 1.21-.47Zm2.17-3.61a2.79 2.79 0 0 1 4.18 0 3.39 3.39 0 0 1 .81 2.31 3.49 3.49 0 0 1-.79 2.32 2.63 2.63 0 0 1-2.1.93 2.6 2.6 0 0 1-2.1-.93 3.83 3.83 0 0 1 0-4.63Zm2.1.46a1.27 1.27 0 0 0-1.11.55 2.31 2.31 0 0 0 0 2.6 1.4 1.4 0 0 0 2.21 0 2.25 2.25 0 0 0 0-2.59 1.3 1.3 0 0 0-1.1-.56Zm3.86-1.23h1.38v3.26a2 2 0 0 0 .34 1.2 1.19 1.19 0 0 0 1 .47 1.22 1.22 0 0 0 1-.51 1.9 1.9 0 0 0 .4-1.24V358h1.36v6.25h-1.22l-.09-.85a2.51 2.51 0 0 1-1.88.93 2 2 0 0 1-1.66-.82 3.59 3.59 0 0 1-.64-2.24Zm12.16 6.19h-1.37v-3.26a2 2 0 0 0-.35-1.2 1.14 1.14 0 0 0-1-.47 1.25 1.25 0 0 0-1 .51 2 2 0 0 0-.4 1.23v3.19H112v-6.25h1.23l.09.85a2.49 2.49 0 0 1 1.82-.94 2.11 2.11 0 0 1 1.68.82 3.41 3.41 0 0 1 .67 2.25Zm1.53-7.83 1.37-.16v1.8h1.53v1.33h-1.54V362a1 1 0 0 0 .19.66.69.69 0 0 0 .53.23 1.42 1.42 0 0 0 .66-.19l.38 1.31a2.8 2.8 0 0 1-1.13.27 1.79 1.79 0 0 1-1.46-.55A2.47 2.47 0 0 1 119 362v-2.7h-1V358h1Zm8.25 2.46v-.86h1.31v6.23h-1.29l-.07-.91a1.66 1.66 0 0 1-.75.8 2.33 2.33 0 0 1-1 .3 2.62 2.62 0 0 1-2.06-.85 3.52 3.52 0 0 1-.79-2.46 3.4 3.4 0 0 1 .81-2.42 2.76 2.76 0 0 1 2.08-.85 2.1 2.1 0 0 1 1 .28 1.71 1.71 0 0 1 .76.74Zm-1.64.36a1.52 1.52 0 0 0-1.17.51 2.26 2.26 0 0 0 0 2.76 1.52 1.52 0 0 0 1.17.52 1.44 1.44 0 0 0 1-.4 1.67 1.67 0 0 0 .52-.94 3.44 3.44 0 0 0 0-1.11 1.67 1.67 0 0 0-.52-.94 1.44 1.44 0 0 0-1-.4Zm9.62 5.01h-1.38v-3.26a1.9 1.9 0 0 0-.35-1.2 1.13 1.13 0 0 0-1-.47 1.22 1.22 0 0 0-1 .51 1.89 1.89 0 0 0-.4 1.23v3.19h-1.36v-6.25H131l.09.85a2.5 2.5 0 0 1 1.83-.94 2.11 2.11 0 0 1 1.68.82 3.47 3.47 0 0 1 .67 2.25Zm1.5-7.83 1.37-.16v1.8h1.53v1.33h-1.54V362a1 1 0 0 0 .2.66.65.65 0 0 0 .52.23 1.45 1.45 0 0 0 .67-.19l.38 1.31a2.88 2.88 0 0 1-1.14.27 1.77 1.77 0 0 1-1.45-.55 2.47 2.47 0 0 1-.54-1.73v-2.7h-1V358h1Z"/></g><g class="cls-12"><path class="cls-13" d="M449.19 231.47a2.91 2.91 0 0 1 1.26.27 2.6 2.6 0 0 1 .91.71 3.2 3.2 0 0 1 .53 1 3.51 3.51 0 0 1 .19 1.15 3.47 3.47 0 0 1-.19 1.15 3.09 3.09 0 0 1-.53 1 2.6 2.6 0 0 1-.91.71 2.91 2.91 0 0 1-1.26.27H447v2.61h-1.48v-8.86h3.71Zm-2.23 1.6v3.13h2.23a1.29 1.29 0 0 0 1.06-.48 1.69 1.69 0 0 0 .37-1.09 1.76 1.76 0 0 0-.38-1.08 1.26 1.26 0 0 0-1.05-.48Zm10.13 1.93.05-.86h1.32v6.24h-1.3l-.07-.91a1.7 1.7 0 0 1-.75.8 2.33 2.33 0 0 1-1 .3 2.65 2.65 0 0 1-2.06-.85 3.52 3.52 0 0 1-.79-2.47 3.38 3.38 0 0 1 .81-2.41 2.69 2.69 0 0 1 2.08-.85 2.07 2.07 0 0 1 1.05.28 1.72 1.72 0 0 1 .66.73Zm-1.64.37a1.52 1.52 0 0 0-1.17.51 1.93 1.93 0 0 0-.47 1.37 2 2 0 0 0 .47 1.39 1.52 1.52 0 0 0 1.17.51 1.46 1.46 0 0 0 1-.39 1.64 1.64 0 0 0 .52-.94 3.44 3.44 0 0 0 0-1.11 1.64 1.64 0 0 0-.52-.95 1.46 1.46 0 0 0-1-.43Zm4.16-1.27h1.27l.11.72a1.52 1.52 0 0 1 .67-.7 2.08 2.08 0 0 1 .89-.18 1.85 1.85 0 0 1 1.43.59l-.62 1.34a1.41 1.41 0 0 0-1-.4 1.37 1.37 0 0 0-1 .38 1.63 1.63 0 0 0-.39 1.2v3.29h-1.38Zm5.79-1.59 1.38-.17v1.78h1.53v1.32h-1.54v2.7a1 1 0 0 0 .19.66.67.67 0 0 0 .53.22 1.33 1.33 0 0 0 .66-.19l.38 1.32a2.88 2.88 0 0 1-1.14.27 1.77 1.77 0 0 1-1.45-.55 2.49 2.49 0 0 1-.54-1.73v-2.7h-1v-1.32h1Zm9.38 7.83h-1.37v-3.26a2 2 0 0 0-.35-1.21 1.15 1.15 0 0 0-1-.46 1.24 1.24 0 0 0-1 .5 2 2 0 0 0-.39 1.24v3.19h-1.37v-6.25h1.23l.09.85a2.46 2.46 0 0 1 1.82-.94 2.06 2.06 0 0 1 1.68.82 3.4 3.4 0 0 1 .67 2.24Zm6.68-2.57h-4.33a1.43 1.43 0 0 0 .51 1 1.69 1.69 0 0 0 1.15.37 2.34 2.34 0 0 0 .83-.16 1.47 1.47 0 0 0 .65-.42l.88 1a2.78 2.78 0 0 1-1.07.76 3.59 3.59 0 0 1-1.32.25 2.86 2.86 0 0 1-2.23-.9 3.49 3.49 0 0 1-.82-2.42 3.43 3.43 0 0 1 .81-2.36 2.73 2.73 0 0 1 2.14-.91 2.58 2.58 0 0 1 2.19 1 4 4 0 0 1 .61 2.79Zm-4.31-1.28h3a1.35 1.35 0 0 0-.45-.9 1.52 1.52 0 0 0-1-.31 1.53 1.53 0 0 0-1.56 1.21Zm5.37-2.39h1.27l.1.72a1.52 1.52 0 0 1 .67-.7 2.11 2.11 0 0 1 .89-.18 1.83 1.83 0 0 1 1.43.59l-.62 1.34a1.37 1.37 0 0 0-1-.4 1.41 1.41 0 0 0-1 .38 1.63 1.63 0 0 0-.39 1.2v3.29h-1.37Z"/></g><path class="cls-14" d="m480.4 362.2-40.9 6.2a6.85 6.85 0 0 1-7.9-5.8l-7.5-48.8a6.85 6.85 0 0 1 5.8-7.9l40.9-6.2a6.85 6.85 0 0 1 7.9 5.8l7.5 48.8a6.78 6.78 0 0 1-5.8 7.9Z"/><path class="cls-8" d="m467.8 348.3-8.2 1.2a1 1 0 0 0-.8 1.2l1.2 8.2a1 1 0 0 0 1.2.8l8.2-1.2a1 1 0 0 0 .8-1.2l-1.2-8.2a1.16 1.16 0 0 0-1.2-.8Zm.2 8.3-6.2.9-.9-6.2 6.2-.9Zm-12.4-6.5-8.2 1.2a1 1 0 0 0-.8 1.2l1.2 8.2a1 1 0 0 0 1.2.8l8.2-1.2a1 1 0 0 0 .8-1.2l-1.2-8.2a1.13 1.13 0 0 0-1.2-.8Zm.3 8.4-6.2.9-.9-6.2 6.2-.9Zm-2.2-20.5-8.2 1.2a1 1 0 0 0-.8 1.2l1.2 8.2a1 1 0 0 0 1.2.8l8.2-1.2a1 1 0 0 0 .8-1.2l-1.2-8.2a1 1 0 0 0-1.2-.8Zm.3 8.3-6.2.9-.9-6.2 6.2-.9Zm-10.6 5.7-8.2 1.2a1 1 0 0 0-.8 1.2l1.2 8.2a1 1 0 0 0 1.2.8l8.2-1.2a1 1 0 0 0 .8-1.2l-1.2-8.2a1 1 0 0 0-1.2-.8Zm.3 8.3-6.2.9-.9-6.2 6.2-.9Zm33.2-34-8.2 1.2a1 1 0 0 0-.8 1.2l.6 4a1 1 0 0 0 1.2.8l8.2-1.2a1 1 0 0 0 .8-1.2l-.6-4a1.06 1.06 0 0 0-1.2-.8Zm-.4 4.1-6.2.9-.3-2 6.2-.9Zm-10.6 5.7-8.2 1.2a1 1 0 0 0-.8 1.2l1.2 8.2a1 1 0 0 0 1.2.8l8.2-1.2a1 1 0 0 0 .8-1.2l-1.2-8.2a1 1 0 0 0-1.2-.8Zm.3 8.3-6.2.9-.9-6.2 6.2-.9Zm-1.5-16.3-8.2 1.2a1 1 0 0 0-.8 1.2l.6 4a1 1 0 0 0 1.2.8l8.2-1.2a1 1 0 0 0 .8-1.2l-.6-4a1 1 0 0 0-1.2-.8Zm-.4 4.2-6.2.9-.3-2 6.2-.9Z"/><path class="cls-8" d="m472.8 299.2-44.7 6.8a5 5 0 0 0-4.2 5.8l8 52.7a5 5 0 0 0 5.8 4.2l44.7-6.8a5 5 0 0 0 4.2-5.8l-8-52.7a5.21 5.21 0 0 0-5.8-4.2Zm11.8 57.3a3.06 3.06 0 0 1-2.5 3.5l-44.7 6.8a3.06 3.06 0 0 1-3.5-2.5l-8-52.7a3.06 3.06 0 0 1 2.5-3.5l44.7-6.8a3.06 3.06 0 0 1 3.5 2.5Z"/><path class="cls-8" d="m473.6 304.6-44.7 6.8a1 1 0 0 0-.8 1.2l2.5 16.3a1 1 0 0 0 1.2.8l8.2-1.2a1 1 0 0 0-.4-2l-7.2 1.1-2.2-14.3 42.7-6.5 2.2 14.3-31.5 4.8a1 1 0 1 0 .4 2l32.5-5a1 1 0 0 0 .8-1.2l-2.5-16.3a1.16 1.16 0 0 0-1.2-.8Z"/><path class="cls-8" d="m466.5 311.8 4-.6a1 1 0 0 0-.4-2l-4 .6a1 1 0 0 0-.8 1.2 1 1 0 0 0 1.2.8Zm1.2 8 4-.6a1 1 0 0 0-.4-2l-4 .6a1 1 0 0 0-.8 1.2 1 1 0 0 0 1.2.8Zm-1.6-3.5a1 1 0 0 0 2-.4l-.4-2.7a1 1 0 1 0-2 .4Z"/><path class="cls-2" d="m430.5 487.9-.7-5.7 6.8-8.4 6.6 5.2-6.9 8.7-5.8.2z"/><path class="cls-2" d="m442.9 478.9-44 5.2a6.81 6.81 0 0 1-7.5-5.9l-3.4-28.7a6.81 6.81 0 0 1 5.9-7.5l44-5.2a6.81 6.81 0 0 1 7.5 5.9l3.4 28.7a6.75 6.75 0 0 1-5.9 7.5Z"/><path class="cls-3" d="M426.5 460.5a1.17 1.17 0 0 0-1.1-.9l-15.8 1.9a1 1 0 1 0 .2 2l15.8-1.9a1.17 1.17 0 0 0 .9-1.1Z"/><path class="cls-8" d="M407 448.7a1.17 1.17 0 0 0-1.1-.9L396 449a1 1 0 0 0 .2 2l9.9-1.2a.9.9 0 0 0 .9-1.1Z"/><path class="cls-3" d="M410.2 467.4a1 1 0 0 0 .2 2l5.9-.7a1 1 0 0 0-.2-2Z"/><path class="cls-8" d="m426.7 479.5-30.7 3.6a3 3 0 0 1-3.3-2.6l-4-33.7a3 3 0 0 1 2.6-3.3l49.5-5.8a3 3 0 0 1 3.3 2.6l2.9 23.8a1 1 0 0 0 2-.2l-2.8-23.8a5 5 0 0 0-5.5-4.4l-49.5 5.8a5 5 0 0 0-4.4 5.5l4 33.7a5 5 0 0 0 5.5 4.4l30.7-3.6a1.17 1.17 0 0 0 .9-1.1 1.4 1.4 0 0 0-1.2-.9Z"/><path class="cls-8" d="M435.6 444.4a1.17 1.17 0 0 0-.9 1.1c0 .5.6.9 1.1.9l2-.2a1.17 1.17 0 0 0 .9-1.1c0-.5-.6-.9-1.1-.9Zm-9.7 3.1a1 1 0 0 0-.2-2l-2 .2a1 1 0 0 0 .2 2Zm6-.7a1 1 0 0 0-.2-2l-2 .2a1 1 0 0 0 .2 2Zm4.5 12.5a1.17 1.17 0 0 0-1.1-.9l-5.9.7a1 1 0 0 0 .2 2l5.9-.7a1 1 0 0 0 .9-1.1Zm-16.1 8.9 11.9-1.4a1 1 0 0 0-.2-2l-11.9 1.4a1.17 1.17 0 0 0-.9 1.1 1 1 0 0 0 1.1.9Z"/><path class="cls-3" d="m403.4 469.7.5 1.3a.93.93 0 0 1-.6 1.2 3 3 0 0 1-1 .2 6 6 0 0 1-3.9-.7 6.22 6.22 0 0 1-2.2-3l-1.1.1-.1-1.7.9-.1v-.9l-.9.1-.2-1.8 1.1-.1a6.26 6.26 0 0 1 1.5-3.4 5.92 5.92 0 0 1 5.3-1.5l-.4 2.2a2 2 0 0 0-1.1 0 3.42 3.42 0 0 0-3.1 2.5l2.6-.3a.87.87 0 0 1 1 .9.86.86 0 0 1-.8.8l-3.1.4v.5c0 .2 0 .3.1.4l2.5-.3a.92.92 0 0 1 1 .9.86.86 0 0 1-.8.8l-2 .2a3.5 3.5 0 0 0 3.7 1.7 2.11 2.11 0 0 0 1.1-.4Zm67.6 0 .5 1.3a.93.93 0 0 1-.6 1.2 3 3 0 0 1-1 .2 6 6 0 0 1-3.9-.7 6.22 6.22 0 0 1-2.2-3l-1.1.1-.2-1.8.9-.1v-.9l-.9.1-.2-1.8 1.1-.1a6.26 6.26 0 0 1 1.5-3.4 5.92 5.92 0 0 1 5.3-1.5l-.4 2.2a2 2 0 0 0-1.1 0 3.42 3.42 0 0 0-3.1 2.5l2.6-.3a.87.87 0 0 1 1 .9.86.86 0 0 1-.8.8l-3.1.4v.5c0 .2 0 .3.1.4l2.5-.3a.92.92 0 0 1 1 .9.86.86 0 0 1-.8.8l-2 .2a3.5 3.5 0 0 0 3.7 1.7 1.38 1.38 0 0 0 1.2-.3Z"/><path class="cls-14" d="m276.3 141.1 1-3.3h5.4v-4.1h1.5v-3.5h1.8l.5-24.2-2.1-.4-.1-2.5-2-2.2.3-7.7s-7 .1-7.2 0-.3-1.5-.3-1.5l37.4-24.1 37.4 24.1-.7 1.5-7.1-.1.3 8.8-1.3.5-.4 3.2-1.6.7.1 23.6 1.4.9.1 3 1.5.1-.2 4-12.8-.4-.1-3 1.6-.4.1-3.4 2-1.3-.1-23.6-2.2-.8v-2.8l-1.2-1.5-.1-2.7-10.7.3v3.8l-1.3 1.1-.1 2.6h-1.5l.1 23.8 1.8 1.1v2.6l1.4 1.2.1 3.4h-13.3l1.5-4.3.5-3.5 1.8-.9-.3-23-1.8-1.5v-2.4l-1.3-.8-.2-2.7-10.5-.5.1 3.4-1.2 1.1-.3 2.8-1.7.5-.2 23.5 2 1.1v2.8l1.8.5-.2 2.6-.1.9 52.5-.1.5 2.5-1.9 2.4h-68.5Z"/><path class="cls-8" d="m350.1 90.5-25.4-16.4a1.08 1.08 0 1 0-1.2 1.8L348.6 92h-5.8l-28.5-18.4a3.07 3.07 0 0 0-3.2 0l-28.7 18.5h-5.8l36-23.2 5.1 3.3a1.08 1.08 0 1 0 1.2-1.8l-5.1-3.3a2.11 2.11 0 0 0-2.4 0L275 90.5a2.09 2.09 0 0 0-.9 2.3 2.13 2.13 0 0 0 2 1.5h5.5v7.1a1.83 1.83 0 0 0 1.4 1.8v1.9a1.79 1.79 0 0 0 1.8 1.8h.2v13.4a1.1 1.1 0 1 0 2.2 0v-14.5a1.11 1.11 0 0 0-1.1-1.1h-.9v-1.5h7.7v1.5h-.9a1.11 1.11 0 0 0-1.1 1.1V130a1.11 1.11 0 0 0 1.1 1.1h.9v1.6h-7.7v-1.6h.9a1.11 1.11 0 0 0 1.1-1.1v-2.9a1.1 1.1 0 1 0-2.2 0v1.7h-.2a1.79 1.79 0 0 0-1.8 1.8v1.9a1.83 1.83 0 0 0-1.4 1.8v2.2h-3.9a2.22 2.22 0 0 0-2.2 2.2v2.3a2.22 2.22 0 0 0 2.2 2.2h69.6a2.22 2.22 0 0 0 2.2-2.2v-2.3a2.22 2.22 0 0 0-2.2-2.2h-3.9v-2.2a1.83 1.83 0 0 0-1.4-1.8v-1.9a1.79 1.79 0 0 0-1.8-1.8h-.2v-22h.2a1.79 1.79 0 0 0 1.8-1.8v-1.9a1.83 1.83 0 0 0 1.4-1.8v-7h5.5a2.13 2.13 0 0 0 2-1.5 1.91 1.91 0 0 0-.8-2.3Zm-38-14.9a.6.6 0 0 1 .8 0l25.7 16.5h-52.2Zm-28.3 18.7h57.5V97h-57.4v-2.7Zm34.8 38.3v-1.9a1.79 1.79 0 0 0-1.8-1.8h-.2v-22h.2a1.79 1.79 0 0 0 1.8-1.8v-2a1.83 1.83 0 0 0 1.4-1.8v-2.2h8.4v2.2a1.83 1.83 0 0 0 1.4 1.8v1.9a1.79 1.79 0 0 0 1.8 1.8h.2v22h-.2a1.79 1.79 0 0 0-1.8 1.8v1.9a1.83 1.83 0 0 0-1.4 1.8v2.2H320v-2.2a1.63 1.63 0 0 0-1.4-1.7Zm-23.4 0v-1.9a1.79 1.79 0 0 0-1.8-1.8h-.2v-22h.2a1.79 1.79 0 0 0 1.8-1.8v-2a1.83 1.83 0 0 0 1.4-1.8v-2.2h8.4v2.2a1.83 1.83 0 0 0 1.4 1.8v1.9a1.79 1.79 0 0 0 1.8 1.8h.2v22h-.2a1.79 1.79 0 0 0-1.8 1.8v1.9a1.83 1.83 0 0 0-1.4 1.8v2.2h-8.4v-2.2a1.72 1.72 0 0 0-1.4-1.7Zm20.4-1.6h.9v1.6h-7.7V131h.9a1.11 1.11 0 0 0 1.1-1.1v-24.2a1.11 1.11 0 0 0-1.1-1.1h-.9v-1.5h7.7v1.5h-.9a1.11 1.11 0 0 0-1.1 1.1v24.2a1.11 1.11 0 0 0 1.1 1.1Zm-8-30h-.3v-1.8h10.6v1.8h-10.3Zm-.4 33.8c.1 0 .2.1.3.1h9.9a.37.37 0 0 0 .3-.1v1.8h-10.6v-1.8Zm-23-33.8h-.3v-1.8h10.6v1.8h-10.3Zm-.4 33.8c.1 0 .2.1.3.1h9.9a.37.37 0 0 0 .3-.1v1.8h-10.6v-1.8Zm63.6 3.9v2.3h-69.6v-2.3Zm-6.5-3.8a.37.37 0 0 0 .3-.1v1.8h-10.6v-1.8c.1 0 .2.1.3.1Zm-7.9-30.2h-.9v-1.5h7.7v1.5h-.8a1.11 1.11 0 0 0-1.1 1.1V130a1.11 1.11 0 0 0 1.1 1.1h.9v1.6h-7.7v-1.6h.9a1.11 1.11 0 0 0 1.1-1.1v-24.2a1.28 1.28 0 0 0-1.2-1.1Zm8.3-3.7h-10.6v-1.8h10.6v1.8Z"/><path class="cls-8" d="M307.3 83h10.5v7.2h-10.5z"/><path class="cls-2" d="M310.7 83h3.6v7.2h-3.6z"/><path class="cls-11" d="M183.9 118.6s22.5-36.2 67.7-28.8"/><path d="m231.9 497.7-40.8-2.5a5.73 5.73 0 0 1-5.4-6.1l3.9-63.6a5.73 5.73 0 0 1 6.1-5.4l40.8 2.5a5.73 5.73 0 0 1 5.4 6.1l-3.9 63.6a5.67 5.67 0 0 1-6.1 5.4Z" style="fill:#fafafa;stroke:#6f7592;stroke-width:3px;stroke-miterlimit:10"/><path class="cls-13" d="m209 431.6-11-.7a.81.81 0 0 1-.8-.9.81.81 0 0 1 .9-.8l11 .7a.81.81 0 0 1 .8.9.77.77 0 0 1-.9.8Zm-6.9 8.9-4.6-.3a.81.81 0 0 1-.8-.9.81.81 0 0 1 .9-.8l4.6.3a.81.81 0 0 1 .8.9.77.77 0 0 1-.9.8Zm11.7-4-16-1a.81.81 0 0 1-.8-.9.81.81 0 0 1 .9-.8l16 1a.81.81 0 0 1 .8.9.88.88 0 0 1-.9.8Zm12.4 13.2-29.1-1.8a.81.81 0 0 1-.8-.9.81.81 0 0 1 .9-.8l29.1 1.8a.81.81 0 0 1 .8.9.82.82 0 0 1-.9.8Zm3.5 11.1-33.2-2a.81.81 0 0 1-.8-.9.81.81 0 0 1 .9-.8l33.2 2a.81.81 0 0 1 .8.9 1 1 0 0 1-.9.8Zm1.6 5.9-35.2-2.1a.81.81 0 0 1-.8-.9.81.81 0 0 1 .9-.8l35.2 2.1a.81.81 0 0 1 .8.9.88.88 0 0 1-.9.8Zm-9.8 5.2-25.8-1.6a.81.81 0 0 1-.8-.9.81.81 0 0 1 .9-.8l25.8 1.6a.81.81 0 0 1 .8.9 1 1 0 0 1-.9.8Z"/><path class="cls-8" d="m228.6 478.1-33.2-2a.81.81 0 0 1-.8-.9.81.81 0 0 1 .9-.8l33.2 2a.81.81 0 0 1 .8.9.77.77 0 0 1-.9.8Zm-7.8 5.4-25.8-1.6a.81.81 0 0 1-.8-.9.81.81 0 0 1 .9-.8l25.8 1.6a.81.81 0 0 1 .8.9 1 1 0 0 1-.9.8Zm7.1 6.2-33.2-2a.81.81 0 0 1-.8-.9.81.81 0 0 1 .9-.8l33.2 2a.81.81 0 0 1 .8.9.82.82 0 0 1-.9.8Z"/><path class="cls-13" d="m233.8 455.6-37.1-2.2a.81.81 0 0 1-.8-.9.81.81 0 0 1 .9-.8l37.1 2.2a.81.81 0 0 1 .8.9.77.77 0 0 1-.9.8Z"/><path class="cls-13" transform="rotate(-86.54 232.786 433.607)" d="M231.31 431.31h3v4.6h-3z"/><path class="cls-13" d="m233 430.4-3.3 1.5c-.1 0 0 .1 0 .1l6.4.4c.1 0 .1-.1 0-.1l-3.1-1.9Z"/><path d="m195.2 469.4-2.4-46.9a4.58 4.58 0 0 1 4.3-4.8l43.2-2.2a4.58 4.58 0 0 1 4.8 4.3l3.3 66.1a4.58 4.58 0 0 1-4.3 4.8l-43.2 2.2a4.58 4.58 0 0 1-4.8-4.3l-.6-11.4" style="fill:#fafafa;stroke-linecap:round;stroke-linejoin:round;stroke:#6f7592;stroke-width:3px"/><path class="cls-3" d="m213 427.6-11 .6a.88.88 0 0 1-.9-.8.88.88 0 0 1 .8-.9l11-.6a.88.88 0 0 1 .9.8.88.88 0 0 1-.8.9Zm-5.9 9.6-4.6.2a.88.88 0 0 1-.9-.8.88.88 0 0 1 .8-.9l4.6-.2a.88.88 0 0 1 .9.8.88.88 0 0 1-.8.9Zm11.1-5.3-16 .8a.88.88 0 0 1-.9-.8.88.88 0 0 1 .8-.9l16-.8a.88.88 0 0 1 .9.8.81.81 0 0 1-.8.9Z"/><path class="cls-8" d="m232 443.7-29.1 1.5a.88.88 0 0 1-.9-.8.88.88 0 0 1 .8-.9l29.1-1.5a.88.88 0 0 1 .9.8 1 1 0 0 1-.8.9Zm4.7 10.5-33.3 1.7a.88.88 0 0 1-.9-.8.88.88 0 0 1 .8-.9l33.3-1.7a.88.88 0 0 1 .9.8.82.82 0 0 1-.8.9Zm2.2 5.7-35.2 1.8a.88.88 0 0 1-.9-.8.88.88 0 0 1 .8-.9l35.2-1.8a.88.88 0 0 1 .9.8.77.77 0 0 1-.8.9Zm-9.1 6.3-25.8 1.3a.88.88 0 0 1-.9-.8.88.88 0 0 1 .8-.9l25.8-1.3a.88.88 0 0 1 .9.8.88.88 0 0 1-.8.9Zm7.8 5.4-33.3 1.7a.88.88 0 0 1-.9-.8.88.88 0 0 1 .8-.9l33.3-1.7a.88.88 0 0 1 .9.8.88.88 0 0 1-.8.9Zm-7.3 6.2-25.8 1.3a.88.88 0 0 1-.9-.8.88.88 0 0 1 .8-.9l25.8-1.3a.88.88 0 0 1 .9.8.77.77 0 0 1-.8.9Zm7.8 5.4-33.3 1.7a.88.88 0 0 1-.9-.8.88.88 0 0 1 .8-.9l33.3-1.7a.88.88 0 0 1 .9.8.77.77 0 0 1-.8.9Zm2.1-34.5-37.1 1.9a.88.88 0 0 1-.9-.8.88.88 0 0 1 .8-.9l37.1-1.9a.88.88 0 0 1 .9.8.81.81 0 0 1-.8.9Z"/><path class="cls-14" d="m130.3 189.9-3.4-2.2-3.7-43.2 1.7-2.2 39.9-3.4 3 2.4v7.5l-7 .7 2.2 27.4 7.4-.1.1 8.3-1.6 1.6-18.5 1.5.5 7.5-5.7-1.9-4.4 2.6-.6-7.1-9.9.6z"/><path class="cls-8" d="M168 149.5a.85.85 0 0 0 .8-1l-.5-6.4a4.5 4.5 0 0 0-4.9-4.1l-36.8 3a4.46 4.46 0 0 0-4.2 4.9l3.3 40.8a4.58 4.58 0 0 0 4.9 4.2l9-.7.5 6.3a.75.75 0 0 0 .5.7 1.39 1.39 0 0 0 .9 0l4.3-2.6 4.6 1.9a.6.6 0 0 0 .4.1c.2 0 .3-.1.5-.2a.91.91 0 0 0 .4-.8l-.5-6.3 16.3-1.4a4.61 4.61 0 0 0 4.2-5l-.5-6.4a.85.85 0 0 0-1-.8l-6.4.5-2.1-26.1Zm-1.5-7.2.4 5.5-5.5.4-.4-5.4a2.85 2.85 0 0 1 2.5-3 2.73 2.73 0 0 1 3 2.5Zm-17.4 38.5-.3.3a6.7 6.7 0 0 1-4 1.8 6.37 6.37 0 0 1-4.4-1.3 6.84 6.84 0 0 1-2.5-4.6 6.42 6.42 0 0 1 12.8-1 6 6 0 0 1-1.6 4.8Zm.6 13.4-3.7-1.5a.75.75 0 0 0-.8.1l-3.4 2.1-.9-10.8a8.28 8.28 0 0 0 7.9-.6Zm.9-12.2a8.09 8.09 0 0 0 2-6.1 8.23 8.23 0 0 0-16.4 1.4 8.12 8.12 0 0 0 2.9 5.6l.5 5.5-9 .7a2.86 2.86 0 0 1-3-2.6l-3.3-40.8a2.7 2.7 0 0 1 2.5-2.9l33.2-2.7a4.52 4.52 0 0 0-.7 2.8l3.3 40.7a4.47 4.47 0 0 0 1.2 2.7l-12.7 1.1Zm18.8-4.5.4 5.5a2.79 2.79 0 0 1-2.5 3 2.7 2.7 0 0 1-2.9-2.5l-.4-5.5Z"/><path class="cls-8" d="M144 172a4.56 4.56 0 1 0 4.9 4.2 4.58 4.58 0 0 0-4.9-4.2Zm.6 7.3a2.76 2.76 0 0 1-.5-5.5 2.78 2.78 0 0 1 3 2.5 2.72 2.72 0 0 1-2.5 3Zm10.4-22-24.3 2a.91.91 0 0 0 .2 1.8l24.3-2a.85.85 0 0 0 .8-1 .89.89 0 0 0-1-.8Zm-3.3 3.9-17 1.4a.85.85 0 0 0-.8 1 .89.89 0 0 0 1 .8l17-1.4a.85.85 0 0 0 .8-1 1.08 1.08 0 0 0-1-.8Z"/><path class="cls-13" d="m154.7 153.6-3.6.3a.91.91 0 0 0 .2 1.8l3.6-.3a.85.85 0 0 0 .8-1 1 1 0 0 0-1-.8Z"/><path class="cls-8" d="m130.6 157.5 17-1.4a.85.85 0 0 0 .8-1 .89.89 0 0 0-1-.8l-17 1.4a.85.85 0 0 0-.8 1 1 1 0 0 0 1 .8Z"/><path class="cls-3" d="M133.2 152.2a.66.66 0 0 0 .6.1 1 1 0 0 0 .7-.4l1.9-2.9 2.3 2.5a1.08 1.08 0 0 0 .7.3 1 1 0 0 0 .7-.4l1.9-2.9 2.3 2.5a1.08 1.08 0 0 0 .7.3 1.27 1.27 0 0 0 .7-.4l1.9-2.9 2.3 2.5a.92.92 0 1 0 1.4-1.2l-3.1-3.4a1.08 1.08 0 0 0-.7-.3 1.27 1.27 0 0 0-.7.4l-1.9 2.9-2.3-2.5a1.08 1.08 0 0 0-.7-.3 1 1 0 0 0-.7.4l-1.9 2.9-2.3-2.5a1.08 1.08 0 0 0-.7-.3 1 1 0 0 0-.7.4l-2.5 3.9a.85.85 0 0 0 .1 1.3Z"/><path class="cls-14" d="m138.3 177.3-2.6-3.2 9.9-42.2 2.3-1.6 39 9.2 2.1 3.2-2.3 7.2-6.9-1.6-6.3 26.7 7 2.3-2.5 7.8-2 1-18.1-4.2-1.8 7.3-4.9-3.6-4.9 1.1 1.6-6.9-9.6-2.5z"/><path class="cls-8" d="M186.7 150.5a.92.92 0 0 0 1.1-.7l1.5-6.2a4.49 4.49 0 0 0-3.4-5.4l-36-8.5a4.53 4.53 0 0 0-5.5 3.3l-9.4 39.8a4.62 4.62 0 0 0 3.4 5.6l8.7 2.1-1.5 6.2a1 1 0 0 0 .2.9.9.9 0 0 0 .9.2l4.9-1.1 3.8 3.2a.52.52 0 0 0 .4.2h.5a.88.88 0 0 0 .6-.7l1.5-6.2 16 3.8a4.51 4.51 0 0 0 5.5-3.4l1.5-6.2a.92.92 0 0 0-.7-1.1l-6.2-1.5 6-25.5Zm.8-7.3-1.3 5.3-5.3-1.3 1.3-5.3a2.63 2.63 0 0 1 3.3-2 2.89 2.89 0 0 1 2 3.3ZM159 174.5a.76.76 0 0 0-.4.2 6.4 6.4 0 0 1-4.3.5 6.74 6.74 0 0 1-3.8-2.6 6.64 6.64 0 0 1-1-5.1 6.42 6.42 0 0 1 12.5 2.9 6.58 6.58 0 0 1-3 4.1Zm-3.5 12.9-3.1-2.6a.78.78 0 0 0-.8-.2l-3.9.9 2.5-10.5a8.18 8.18 0 0 0 3.7 1.9 7.76 7.76 0 0 0 4-.1ZM160 176a8.1 8.1 0 0 0 3.8-5.2 8.22 8.22 0 0 0-16-3.8 8.46 8.46 0 0 0 1 6.2l-1.3 5.4-8.7-2.1a2.73 2.73 0 0 1-2-3.4l9.4-39.8a2.7 2.7 0 0 1 3.3-2l32.4 7.7a4.58 4.58 0 0 0-1.5 2.5l-9.4 39.7a4.78 4.78 0 0 0 .3 2.9l-12.4-2.9Zm19.3 1.6-1.3 5.3a2.81 2.81 0 0 1-3.3 2.1 2.67 2.67 0 0 1-2-3.3l1.3-5.3Z"/><path class="cls-8" d="M156.8 164.5a4.57 4.57 0 1 0 3.4 5.5 4.56 4.56 0 0 0-3.4-5.5Zm-1.6 7.1a2.63 2.63 0 0 1-2-3.3 2.67 2.67 0 0 1 3.3-2 2.63 2.63 0 0 1 2 3.3 2.72 2.72 0 0 1-3.3 2Zm16.7-17.7-23.7-5.6a.92.92 0 0 0-.4 1.8l23.7 5.6a.92.92 0 1 0 .4-1.8Zm-4.4 2.7-16.6-3.9a.92.92 0 0 0-.4 1.8l16.6 3.9a.92.92 0 0 0 1.1-.7 1 1 0 0 0-.7-1.1Zm5.3-6.2-3.6-.8a.92.92 0 1 0-.4 1.8l3.6.8a.92.92 0 0 0 1.1-.7 1 1 0 0 0-.7-1.1Zm-24.2-3.9 16.6 3.9a.92.92 0 0 0 .4-1.8l-16.6-3.9a.92.92 0 0 0-.4 1.8Z"/><path class="cls-3" d="M152.7 142.3a.55.55 0 0 0 .5.3.78.78 0 0 0 .8-.2l2.7-2.2 1.4 3.1c.1.3.3.4.6.5a.78.78 0 0 0 .8-.2l2.7-2.2 1.4 3.1c.1.3.3.4.6.5a.78.78 0 0 0 .8-.2l2.7-2.2 1.4 3.1a.92.92 0 0 0 1.7-.7l-1.8-3.9c-.1-.3-.3-.4-.6-.5a.78.78 0 0 0-.8.2l-2.7 2.2-1.4-3.1c-.1-.3-.3-.4-.6-.5a.78.78 0 0 0-.8.2l-2.7 2.2-1.4-3.1c-.1-.3-.3-.4-.6-.5a.78.78 0 0 0-.8.2l-3.6 2.9c-.5 0-.6.6-.3 1Z"/><path class="cls-3" transform="rotate(-8.6 476.465 346.12)" d="M472.64 336.7h7.3v18.6h-7.3z"/><path class="cls-8" d="m478.1 334.3-8.2 1.2a1 1 0 0 0-.8 1.2l3.1 20.3a1 1 0 0 0 1.2.8l8.2-1.2a1 1 0 0 0 .8-1.2l-1.9-12.3a1 1 0 1 0-2 .4l1.7 11.3-6.2.9-2.8-18.3 6.2-.9.5 3a1 1 0 1 0 2-.4l-.6-4a1.1 1.1 0 0 0-1.2-.8Z"/><path class="cls-3" transform="rotate(-8.72 438.276 345.607)" d="M434.89 342.18h6.8v6.8h-6.8z"/><path class="cls-8" d="m441.6 339.8-8.2 1.2a1 1 0 0 0-.8 1.2l1.2 8.2a1 1 0 0 0 1.2.8l8.2-1.2a1 1 0 0 0 .8-1.2l-1.2-8.2a1.16 1.16 0 0 0-1.2-.8Zm.2 8.4-6.2.9-.9-6.2 6.2-.9Z"/><path class="cls-3" d="m439.7 469.8 2.6-3.1 2.7-.1 4 3.7v1.8l-2.7 3-6.6-5.3z"/><path class="cls-8" d="m448.3 468.2-2.2-1.7a3.83 3.83 0 0 0-5.4.6l-11.4 14.5a1 1 0 0 0-.2.7l.7 5.9a1.17 1.17 0 0 0 1.1.9l5.9-.7a1 1 0 0 0 .7-.4l11.4-14.5a3.63 3.63 0 0 0-.6-5.3Zm-8.4 3.1 1.8 1.4-7.6 9.6-1.8-1.4Zm-8.3 15.7-.5-4.5 5.1 4Zm5.8-2.1-1.8-1.4 7.6-9.6 1.8 1.4Zm9.9-12.6-1.1 1.4-5.1-4 1.1-1.4a1.72 1.72 0 0 1 2.6-.3l2.2 1.7a1.72 1.72 0 0 1 .3 2.6Z"/><circle id="SVGID" cx="464.5" cy="195.3" r="27.8" style="fill:#ccc"/><g class="cls-18"><circle class="cls-5" cx="464.5" cy="195.3" r="27.8"/></g><g class="cls-18"><path class="cls-2" d="m453.3 189-7.8-6.4 3.2-12.8 19.7-6.6 9.4 6.2 4.6 13.6-6.3 7 .1 1.6-2.2 1.2-2.4 2.4.1 4.7.9 3.6 1.9 3-3.3 1.7-3.4.5H463l-4.8-1.3-2.1-1.5-.2-.2 1.3-2.3.9-3.1v-6L456 192l-1.1-1.7-1.6-1.3z"/></g><g class="cls-18"><path class="cls-19" d="M484.1 176.9c-3.8-3.8-1-21.8-19.1-21.5-12.4.2-16.9 6.7-22 20.9-4.6 13 9.9 15.1 12.4 15.3l-.6-1.2c-.6-1.8-1.3-3.8-1.9-5.8h-.7c-1.3-.2-2.4-2-2.9-3.5-.7-1.1-1-2.2.1-2.9a.31.31 0 0 1 .2-.1 2 2 0 0 1 .8-.4l.2-.2a1 1 0 0 1 1.2.2 9.16 9.16 0 0 1 1.9-5.5c2.3-2.9 6.1-4.7 9.7-5.4 8.3-1.5 14.9 2.4 14.6 10.7v.6a.37.37 0 0 0 .3-.1 1.48 1.48 0 0 1 .7-.1 2.62 2.62 0 0 1 .9.5 1.64 1.64 0 0 1 .7 1.1 1.09 1.09 0 0 1 .1.5 3.13 3.13 0 0 1-.4 1.9c-.5 1.7-1.5 3.4-3.4 3.4-.2.8-.5 1.6-.7 2.4a21.72 21.72 0 0 1-1.9 4.1h.4c11 .4 13.2-11.1 9.4-14.9Z"/><path class="cls-3" d="M493.9 217.3c-5.2-6.2-15.3-7.7-15.3-7.7-.9 3.4-6.1 5.6-6.1 5.6-4.8.2-7-5.2-7-5.2s-3.3 4.9-6.8 4.7c-2.2-.1-5.4-6.2-5.4-6.2s-3.6 1.6-6.6 2.6 0-.1-5.6 2.3c-5 2.2-6.7 8.1-7 9.4h61.8"/><path class="cls-8" d="M492.7 215.9a18.19 18.19 0 0 0-8.7-5.2c-3.3-1.1-7-2-9.4-4.8a10.65 10.65 0 0 1-2.4-5.9c-.1-1.7-.1-3.3-.1-5 2.6-1.8 4.2-5.1 5.1-8.4a38.94 38.94 0 0 0 .8-15.2c-.1-.5-.9-.3-.8.2a40.44 40.44 0 0 1-.7 14.3c-1.1 4.5-3.6 9.7-8.8 10-.5 0-.5.9 0 .8a9.56 9.56 0 0 0 3.6-1.2v3.8a11.93 11.93 0 0 0 2.6 6.9 13.93 13.93 0 0 1-8 2.1h-.8c-3-.1-6.4-.8-8.8-2.7a11.58 11.58 0 0 0 2.1-6.3c.1-1.5 0-2.9 0-4.4a9.68 9.68 0 0 0 3.3 1.4c.5.1.6-.7.1-.8-4.2-.8-6.8-4.8-8.1-8.5a37.75 37.75 0 0 1-1.8-12.1c0-.5-.8-.4-.8.1a38.14 38.14 0 0 0 1.9 12.6 14.26 14.26 0 0 0 4.5 6.7 52.33 52.33 0 0 1-.1 5.6 10.65 10.65 0 0 1-2.4 5.9c-2.4 2.8-6.1 3.7-9.4 4.8a19.9 19.9 0 0 0-8.7 5.2 20.28 20.28 0 0 0-3.8 6.9h.8a21.69 21.69 0 0 1 1.5-3.5 15.87 15.87 0 0 1 8-7.1c3.2-1.3 6.6-1.9 9.6-3.7.1 3.2 2 5.9 5.4 6.1a6.7 6.7 0 0 0 6.8-4.7 6.17 6.17 0 0 0 5.6 5.2c3.8.4 6.3-2.4 8.2-5.2 2.2.9 4.6 1.4 6.8 2.3a15.82 15.82 0 0 1 8 7.1"/><path class="cls-14" d="M474.5 207a11.6 11.6 0 0 0 2.1 1.6 19.83 19.83 0 0 0 2 1.1c-1.6 2.4-3.5 4.6-6.5 4.8a5.36 5.36 0 0 1-5.8-5.1c2.8-.2 5.9-.7 8.2-2.4Zm-18.6-.6c2.5 1.9 5.8 2.6 9 2.8a6.07 6.07 0 0 1-5.8 4.7c-3.3 0-5-2.8-4.9-5.8.5-.6 1.1-1.1 1.7-1.7Z"/><path class="cls-20" d="M474.4 182.8c2.6 1.6-2.6 4.5-4.2 2.6s2.8-3.5 4.2-2.6Zm-18.5.5c-2.6 1.7 2.7 4.7 4.3 2.7s-2.8-3.7-4.3-2.7Z"/><path class="cls-8" d="M467.8 190.2a7.07 7.07 0 0 1-5.7-.1c-.5-.3-1 .4-.5.7a7.62 7.62 0 0 0 6.6.2c.5-.2.1-1-.4-.8Z"/><path class="cls-9" d="M480.5 178.1c-.8-1.1-2.1-.4-2.8.3-.3.3.1.9.4.6 1.3-1.3 2.1-.4 2.3 1a5.87 5.87 0 0 1-.4 2.3c-.5 1.4-1.4 3.2-3.1 3.1-.5 0-.5.7-.1.7 2.4.2 3.7-2.5 4.1-4.5a3.6 3.6 0 0 0-.4-3.5Zm-31.1-.5c.8-1.1 2.1-.4 2.8.3.3.3-.1.9-.4.6-1.3-1.3-2.1-.4-2.3 1a5.87 5.87 0 0 0 .4 2.3c.5 1.4 1.4 3.2 3.1 3.1.5 0 .5.7.1.7-2.4.2-3.7-2.5-4.1-4.5a3.6 3.6 0 0 1 .4-3.5Z"/><circle class="cls-14" cx="465.5" cy="215" r="1.2"/><circle class="cls-14" cx="465.5" cy="220.2" r="1.2"/><path class="cls-19" d="M450.5 176.2s14.8-1.2 21.5-8.4l6.4 9.9s4.4-20.4-13.7-20.1c-16.6.2-14.2 18.6-14.2 18.6Z"/></g><path class="cls-3" d="M484.1 176.9c-3.8-3.8-1-21.8-19.1-21.5-12.4.2-16.9 6.7-22 20.9-4.6 13 9.9 15.1 12.4 15.3l-.6-1.2c-.6-1.8-1.3-3.8-1.9-5.8h-.7c-1.3-.2-2.4-2-2.9-3.5-.7-1.1-1-2.2.1-2.9a.31.31 0 0 1 .2-.1 2 2 0 0 1 .8-.4l.2-.2a1 1 0 0 1 1.2.2 9.16 9.16 0 0 1 1.9-5.5c2.3-2.9 6.1-4.7 9.7-5.4 8.3-1.5 14.9 2.4 14.6 10.7v.6a.37.37 0 0 0 .3-.1 1.48 1.48 0 0 1 .7-.1 2.62 2.62 0 0 1 .9.5 1.64 1.64 0 0 1 .7 1.1 1.09 1.09 0 0 1 .1.5 3.13 3.13 0 0 1-.4 1.9c-.5 1.7-1.5 3.4-3.4 3.4-.2.8-.5 1.6-.7 2.4a21.72 21.72 0 0 1-1.9 4.1h.4c11 .4 13.2-11.1 9.4-14.9Z"/><path class="cls-3" d="M450.5 176.2s14.8-1.2 21.5-8.4l6.4 9.9s4.4-20.4-13.7-20.1c-16.6.2-14.2 18.6-14.2 18.6Z"/><g class="cls-21"><path class="cls-8" d="M492.7 215.9a18.19 18.19 0 0 0-8.7-5.2c-3.3-1.1-7-2-9.4-4.8a10.65 10.65 0 0 1-2.4-5.9c-.1-1.7-.1-3.3-.1-5 2.6-1.8 4.2-5.1 5.1-8.4a38.94 38.94 0 0 0 .8-15.2c-.1-.5-.9-.3-.8.2a40.44 40.44 0 0 1-.7 14.3c-1.1 4.5-3.6 9.7-8.8 10-.5 0-.5.9 0 .8a9.56 9.56 0 0 0 3.6-1.2v3.8a11.93 11.93 0 0 0 2.6 6.9 13.93 13.93 0 0 1-8 2.1h-.8c-3-.1-6.4-.8-8.8-2.7a11.58 11.58 0 0 0 2.1-6.3c.1-1.5 0-2.9 0-4.4a9.68 9.68 0 0 0 3.3 1.4c.5.1.6-.7.1-.8-4.2-.8-6.8-4.8-8.1-8.5a37.75 37.75 0 0 1-1.8-12.1c0-.5-.8-.4-.8.1a38.14 38.14 0 0 0 1.9 12.6 14.26 14.26 0 0 0 4.5 6.7 52.33 52.33 0 0 1-.1 5.6 10.65 10.65 0 0 1-2.4 5.9c-2.4 2.8-6.1 3.7-9.4 4.8a19.9 19.9 0 0 0-8.7 5.2 20.28 20.28 0 0 0-3.8 6.9h.8a21.69 21.69 0 0 1 1.5-3.5 15.87 15.87 0 0 1 8-7.1c3.2-1.3 6.6-1.9 9.6-3.7.1 3.2 2 5.9 5.4 6.1a6.7 6.7 0 0 0 6.8-4.7 6.17 6.17 0 0 0 5.6 5.2c3.8.4 6.3-2.4 8.2-5.2 2.2.9 4.6 1.4 6.8 2.3a15.82 15.82 0 0 1 8 7.1"/></g><g class="cls-21"><path class="cls-20" d="M474.4 182.8c2.6 1.6-2.6 4.5-4.2 2.6s2.8-3.5 4.2-2.6Z"/></g><g class="cls-21"><path class="cls-20" d="M455.9 183.3c-2.6 1.7 2.7 4.7 4.3 2.7s-2.8-3.7-4.3-2.7Z"/></g><g class="cls-21"><path class="cls-8" d="M480.5 178.1c-.8-1.1-2.1-.4-2.8.3-.3.3.1.9.4.6 1.3-1.3 2.1-.4 2.3 1a5.87 5.87 0 0 1-.4 2.3c-.5 1.4-1.4 3.2-3.1 3.1-.5 0-.5.7-.1.7 2.4.2 3.7-2.5 4.1-4.5a3.6 3.6 0 0 0-.4-3.5Z"/></g><g class="cls-21"><path class="cls-8" d="M449.4 177.6c.8-1.1 2.1-.4 2.8.3.3.3-.1.9-.4.6-1.3-1.3-2.1-.4-2.3 1a5.87 5.87 0 0 0 .4 2.3c.5 1.4 1.4 3.2 3.1 3.1.5 0 .5.7.1.7-2.4.2-3.7-2.5-4.1-4.5a3.6 3.6 0 0 1 .4-3.5Z"/></g><g class="cls-22"><circle class="cls-5" cx="109.5" cy="318.3" r="27.8"/></g><g class="cls-22"><path class="cls-2" d="m79.5 348 2-6.7 1.9-2.8 2.8-2.2 3.5-1.6 5.6-1.9 3.6-1.5 2.4-2.3 1.6-3.6.4-6.7-2.8-3.1-1.6-3.9-.9-2.9-2.4-1.1-1.2-1.7-.4-2.9.2-1.8 1.1-1.4 4.5-10.5 18.6-1.2 3.4 10.4.3 1.7 1.4-.1.8 1 .3 2.3-.5 2.6-1.3 1.9-1.6.8h-.4l-1.1 4.4-2 3.9-2.3 2.2.3 4.8.3 2.2 2.3 3.6 2.2 1.7 3.2 1.5 5.3 1.6 5.6 3.4 2.4 2.8 1 2.3.7 2.2-29.2 8.9-30-6.3z"/></g><g class="cls-22"><path class="cls-3" d="m109.4 332.3-2 4 1.4.7h3.4l1.5-1.5-3-3.6-1.3.4z"/><path d="M97.4 303c.8-2.7.8-9.7 4.3-10.6 1.5-.4 6.5 3.7 13.4 0 2.8-1.5 5.6 8.1 6.1 9.4l.2-1.2 1.3-1s5.4-19.5-14-19.1S95 299.8 95 299.8s2.1-.3 2.4 3.2Z" style="fill:#9043ff"/><path class="cls-8" d="M135.3 338.4c-2.1-2.4-5.6-3.8-8.6-4.8-2.4-.8-4.9-1.4-7-2.9-.1-.1-.2-.2-.3-.2a7.41 7.41 0 0 1-1.3-1.2 9.61 9.61 0 0 1-2.2-5.3c-.1-1.5-.1-3-.1-4.5 2.4-1.7 3.9-4.7 4.7-7.6a34.31 34.31 0 0 0 1-11.5c-.2.1-.5.2-.7.3a34.36 34.36 0 0 1-.9 10.6c-1 4.1-3.3 8.6-8 8.9a.4.4 0 0 0 0 .8 9 9 0 0 0 3.3-.9v3.5a13 13 0 0 0 .9 4c-2.1 1.5-4 3.2-6.2 4.5-2.6-1.3-5.2-2.3-7.8-3.6a11.07 11.07 0 0 0 1.3-4.8c.1-1.3 0-2.7 0-4a8.62 8.62 0 0 0 2.8 1.1c.5.1.6-.7.1-.7-3.8-.7-6-4.1-7.1-7.6a34.09 34.09 0 0 1-1.6-11c0-.5-.7-.4-.7.1a34.58 34.58 0 0 0 1.8 11.5 13 13 0 0 0 4.1 6.1 43.41 43.41 0 0 1-.1 5.1 9.32 9.32 0 0 1-2.2 5.3c-2.2 2.5-5.5 3.4-8.6 4.3s-6.5 2.3-8.6 4.8c-1.4 1.6-2.5 2.6-3.2 5.6h.7c.3 0 .7-1.7 1.2-2.5 1.6-3 4.8-5.1 8-6.4 2.9-1.2 6.1-1.7 8.8-3.4.1 0 .1-.1.2-.1 2.1 2.5 5.4 3.4 7.8 5.6a.36.36 0 0 0 .6-.2 37.42 37.42 0 0 0 2.7-4.2.1.1 0 0 1 .1.1.1.1 0 0 0 .1.1c.9 1.3 2 2.5 3 3.8 0 .1.1.1.2.1a.6.6 0 0 0 .4-.1c1.9-1.7 3.6-3.7 5.5-5.5.2.1.3.2.5.3 2.7 1.7 5.9 2.2 8.8 3.4 3.1 1.3 6.3 3.5 8 6.4.5.8.8 2.5 1.2 2.5h.7a10.15 10.15 0 0 0-3.3-5.8Zm-28.4-2.1c-2.3-1.9-5.4-2.9-7.4-5.2a10 10 0 0 0 2.2-2.4c2.5 1.3 5.2 2.4 7.7 3.6a33.36 33.36 0 0 1-2.5 4Zm6.8-.3c-.9-1.2-1.8-2.3-2.7-3.4l-.1-.1c0-.1 0-.2-.2-.3 2-1.2 3.8-2.8 5.8-4.2a9.55 9.55 0 0 0 2.4 2.9c-1.9 1.6-3.5 3.4-5.2 5.1Z"/><path class="cls-8" d="M113.6 313.5a10 10 0 0 1-8.1-.4c-.4-.2-.8.4-.4.6a10.36 10.36 0 0 0 8.6.5c.5-.2.3-.9-.1-.7Z"/><path class="cls-9" d="M121.3 300.4c-.4.3 0 .9.4.6 2.2-1.7 2.6.7 2.6 2.5 0 2.1-1 4.6-3.3 4.9-.4 0-.5.8 0 .7 3.1-.3 4.1-3.5 4.1-6.2-.2-2.5-1.5-4.3-3.8-2.5Zm-24 0c.4.3 0 .9-.4.6-2.2-1.7-2.6.7-2.6 2.5 0 2.1 1 4.6 3.3 4.9.4 0 .5.8 0 .7-3.1-.3-4.1-3.5-4.1-6.2.2-2.5 1.5-4.3 3.8-2.5Z"/><path class="cls-3" d="m108.8 337-.8 2.7v6.3h5v-6.3l-.8-2.7h-3.4z"/></g><g class="cls-22"><path class="cls-3" d="M117.6 300.2a4.5 4.5 0 0 0-6 2.9 2.35 2.35 0 0 0-.2.8 4.22 4.22 0 0 0-1.9-.3c-.6 0-1.3.3-2 .3a4.78 4.78 0 0 0-9.2-.8c-1.9 5.4 7 8.1 9 2.7a3.55 3.55 0 0 0 .2-1c.5 0 .9-.2 1.4-.2a3.59 3.59 0 0 1 2.5.3c.3 4.2 7.4 5.7 9.2 1a4.57 4.57 0 0 0-3-5.7Zm-11.2 5.2a3.32 3.32 0 0 1-2 2.3c-2.8 1.2-6.1-1-5.4-4.1a3.69 3.69 0 0 1 4.7-2.6 3.44 3.44 0 0 1 2.7 4.4Zm13.3 0a3.32 3.32 0 0 1-2 2.3c-2.8 1.2-6.1-1-5.4-4.1a3.69 3.69 0 0 1 4.7-2.6 3.44 3.44 0 0 1 2.7 4.4Z"/></g><path class="cls-3" d="M97.4 303c.8-2.7.8-9.7 4.3-10.6 1.5-.4 6.5 3.7 13.4 0 2.8-1.5 5.6 8.1 6.1 9.4l.2-1.2 1.3-1s5.4-19.5-14-19.1S95 299.8 95 299.8s2.1-.3 2.4 3.2Z"/><path class="cls-8" d="M121.3 300.4c-.4.3 0 .9.4.6 2.2-1.7 2.6.7 2.6 2.5 0 2.1-1 4.6-3.3 4.9-.4 0-.5.8 0 .7 3.1-.3 4.1-3.5 4.1-6.2-.2-2.5-1.5-4.3-3.8-2.5Zm-24 0c.4.3 0 .9-.4.6-2.2-1.7-2.6.7-2.6 2.5 0 2.1 1 4.6 3.3 4.9.4 0 .5.8 0 .7-3.1-.3-4.1-3.5-4.1-6.2.2-2.5 1.5-4.3 3.8-2.5Z"/></svg>