<svg id="Section1" xmlns="http://www.w3.org/2000/svg" viewBox="0 0 600 600"><defs><clipPath id="clip-path"><circle class="cls-1" cx="111.6" cy="316.6" r="44.8"/></clipPath><clipPath id="clip-path-9"><circle class="cls-1" cx="482.1" cy="317.1" r="44.8" transform="rotate(-80.78 482.118 317.097)"/></clipPath><style>.cls-1{fill:none}.cls-2{fill:#fff}.cls-3{fill:#837fcb}.cls-4{clip-path:url(#clip-path)}.cls-5{fill:#ccc;opacity:.5;isolation:isolate}.cls-7{fill:#6f7592}.cls-8{fill:#38332d}.cls-9{clip-path:url(#clip-path-9)}</style></defs><path class="cls-2" d="m90.4 293.3-4.3-1.4-2.6-4.6-.9-4.4v-3.2l.7-2.4 2.5-1.1 3.6-10.2 5.6-10.5 38.3-.7 3.3 11.2v9.3l1.2 1.4 2.3-.2 1.9 2.3.3 6.2-2.5 5.9-3.2 1.9-2.9.7-9.8 24.8.5 6.4 1.6 4.4 3.3 5.1-3.6 1.1-7.3 1.1-7.3.4-6.9-.5-9.7-1.4 4.3-6 1.1-4.7v-8.3l-7.5-16.8-2-5.8z"/><path class="cls-3" d="m136.6 275.8-3.8-5.2c.5 7.3.5 15.3-1.3 22.5-.6 2.1-1.9 6.1-4.2 5.9s-9-3.2-14.5-3.4c-5.3-.1-10.2 2.2-15.4 2.8-3.6.4-4.2-1.5-4.7-4.7a117 117 0 0 1-1.6-18.7c0-.9-.6-3.5.1-4.3l-3.8 5.2c.5 17.6 4.7 28 4.7 28a48.5 48.5 0 0 0 1.7 5.3c1.9 4.6 5.5 9.4 10.1 11.4 11 4.9 21.6 3.1 28-11.5 4.6-10.6 4.4-22.3 4.7-33.3Zm-14.8 29.9a11 11 0 0 1-8.8 3.4 10.05 10.05 0 0 1-2.5-.4 15.28 15.28 0 0 1-5.1-2.1c-.7-.5-4.1-3.7-3.3-4.8 0 0 1.4-1.9 10.7-1.7s10.7 2.2 10.7 2.2c.5.6-1.3 3-1.7 3.4Z"/><g class="cls-4"><circle class="cls-5" cx="111.6" cy="316.6" r="44.8"/></g><g class="cls-4"><path class="cls-2" d="m90.5 293.3-4.3-1.4-2.6-4.6-.9-4.4v-3.2l.8-2.4 2.4-1.1 3.7-10.2 5.5-10.5 38.3-.7 3.3 11.2v9.3l1.2 1.4 2.3-.2 1.9 2.3.3 6.2-2.4 5.9-3.3 1.9-2.8.7-9.9 24.8.6 6.4 1.5 4.4 3.3 5.1-3.6 1.1-7.2 1.1-7.4.4-6.9-.5-9.7-1.4 4.3-6 1.2-4.7v-8.3l-7.6-16.8-2-5.8z"/></g><g class="cls-4"><path class="cls-3" d="M55.4 362s5.6-11.9 16.2-15.9l9-3.4s12.4-4.7 14.7-7.1c0 0 23 3.3 33.5-1.5 0 0 9.5 6.5 12.5 7.5 0 0 14.6 3.7 19.4 9.1 0 0 8.2 5.4 7.9 11.4H55.4Z"/></g><path d="M89.2 282.1c1.6-5.3 1.5-19 8.4-20.7 2.9-.7 12.7 7.3 26.3 0 5.4-2.9 10.9 15.8 11.9 18.5l.4-2.4 2.5-1.9s10.5-38.2-27.4-37.4-27 37.7-27 37.7 4.4-.7 4.9 6.2Z" style="fill:#40405b" class="cls-4"/><g class="cls-4"><path class="cls-7" d="M58.6 357.4c3.1-5.5 8.9-9.7 14.8-12.3 2.4 5.5 2.7 11.4 2.2 17.3h1.5c.5-6.1.2-12.1-2.3-17.8 5.7-2.2 11.8-3.4 16.9-6.8.1-.1.2-.1.3-.2a18.9 18.9 0 0 0 2.7-2 1.38 1.38 0 0 0 .4.3c11.4 2 23 2.8 34.2-.5a17.41 17.41 0 0 0 1.4 1.2c5.4 4.3 13 5.7 19.3 8.3.3.1.5.2.8.3-4 4.4-4.9 11.1-4.8 17.3h1.5c-.1-6.1.8-12.5 4.8-16.6 5.4 2.6 10.5 6.6 13.4 11.6.9 1.6 1.6 3.4 2.3 5h1.4a33.49 33.49 0 0 0-6.4-11.1c-4.2-4.8-10.9-7.4-16.9-9.4-9.9-3.2-20.1-7-21.1-19a87.75 87.75 0 0 1-.1-8.9c4.7-3.3 7.6-9.1 9.1-14.9a68 68 0 0 0 1.9-22.5 7.84 7.84 0 0 1-1.4.5 68.57 68.57 0 0 1-1.7 20.7c-1.9 8-6.4 16.9-15.7 17.4-.2 0-.2 1.5 0 1.5a15.33 15.33 0 0 0 6.5-1.8c0 2.3-.1 4.5.1 6.8a21 21 0 0 0 4.7 12.2c-10.6 2.9-21.5 2.3-32.3.4 3.4-3.6 4.4-7.9 4.7-12.6.2-2.6 0-5.2.1-7.8a16.7 16.7 0 0 0 5.5 2.2c.9.2 1.2-1.3.2-1.5-7.5-1.4-11.7-8.1-14-14.8-2.4-6.9-3.1-14.3-3.1-21.5 0-.9-1.5-.8-1.5.2a69.25 69.25 0 0 0 3.4 22.6 26 26 0 0 0 8 12c-.1 3.3.1 6.7-.2 10a18 18 0 0 1-4.4 10.5c-4.2 5-10.8 6.6-16.8 8.5s-12.7 4.6-16.9 9.4a35.32 35.32 0 0 0-6.4 11.1h1.4c.9-1.8 1.6-3.7 2.5-5.3Z"/></g><g class="cls-4"><path class="cls-8" d="M136 276.9c-.7.5 0 1.7.7 1.2 4.3-3.3 5.1 1.4 5 4.9-.1 4.1-1.9 9-6.6 9.5-.9.1-.9 1.5 0 1.4 6.1-.6 8-6.8 7.9-12.2.1-4.7-2.5-8.2-7-4.8Z"/></g><g class="cls-4"><path class="cls-8" d="M89.1 276.9c.7.5 0 1.7-.7 1.2-4.3-3.3-5.1 1.4-5 4.9.1 4.1 1.9 9 6.6 9.5.9.1.9 1.5 0 1.4-6.1-.6-8-6.8-7.9-12.2-.1-4.7 2.5-8.2 7-4.8Z"/></g><g class="cls-4"><path class="cls-3" d="m136.7 276-3.8-5.2c.5 7.3.5 15.3-1.3 22.5-.6 2.1-1.9 6.1-4.2 5.9s-9-3.2-14.5-3.4c-5.3-.1-10.2 2.2-15.4 2.8-3.6.4-4.2-1.5-4.7-4.7a117 117 0 0 1-1.6-18.7c0-.9-.6-3.5.1-4.3l-3.8 5.2c.5 17.6 4.7 28 4.7 28a48.5 48.5 0 0 0 1.7 5.3c1.9 4.6 5.5 9.4 10.1 11.4 11 4.9 21.6 3.1 28-11.5 4.6-10.6 4.4-22.3 4.7-33.3Zm-14.8 29.9a11 11 0 0 1-8.8 3.4 10.05 10.05 0 0 1-2.5-.4 15.28 15.28 0 0 1-5.1-2.1c-.7-.5-4.1-3.7-3.3-4.8 0 0 1.4-1.9 10.7-1.7s10.7 2.2 10.7 2.2c.5.6-1.3 3.1-1.7 3.4Z"/></g><path class="cls-7" d="M136 276.9c-.7.5 0 1.7.7 1.2 4.3-3.3 5.1 1.4 5 4.9-.1 4.1-1.9 9-6.6 9.5-.9.1-.9 1.5 0 1.4 6.1-.6 8-6.8 7.9-12.2.1-4.7-2.5-8.2-7-4.8Zm-46.9 0c.7.5 0 1.7-.7 1.2-4.3-3.3-5.1 1.4-5 4.9.1 4.1 1.9 9 6.6 9.5.9.1.9 1.5 0 1.4-6.1-.6-8-6.8-7.9-12.2-.1-4.7 2.5-8.2 7-4.8Z"/><path class="cls-3" d="M89.2 282.1c1.6-5.3 1.5-19 8.4-20.7 2.9-.7 12.7 7.3 26.3 0 5.4-2.9 10.9 15.8 11.9 18.5l.4-2.4 2.5-1.9s10.5-38.2-27.4-37.4-27 37.7-27 37.7 4.4-.7 4.9 6.2Z"/><path class="cls-7" d="M113.3 306.4c-4.5 0-6.5-1.4-6.9-2.2a3.29 3.29 0 0 1-.5-2.2c0-.1.1-.2.1-.3a.37.37 0 0 1 .3-.1c.1 0 10.6 1 13.4.4a.6.6 0 0 1 .4.1c.1.1.1.2.1.4 0 0-.9 3.7-6.1 3.9Zm-6.7-3.9a3 3 0 0 0 .5 1.4c.3.5 2.1 1.9 6.9 1.8 3.3-.1 4.7-1.8 5.1-2.7a94.13 94.13 0 0 1-12.5-.5Zm18.1-17.1a.37.37 0 0 1-.3-.1 2.88 2.88 0 0 0-2.1-1.2 3.08 3.08 0 0 0-2.3 1.2c-.1.2-.4.2-.6 0s-.2-.4 0-.6a4.39 4.39 0 0 1 2.9-1.4 3.62 3.62 0 0 1 2.7 1.4.64.64 0 0 1 0 .6.37.37 0 0 1-.3.1Zm-19.6 0a.37.37 0 0 1-.3-.1 2.59 2.59 0 0 0-2.1-1.2 3.08 3.08 0 0 0-2.3 1.2c-.1.2-.4.2-.6 0s-.2-.4 0-.6a4.39 4.39 0 0 1 2.9-1.4 3.62 3.62 0 0 1 2.7 1.4.64.64 0 0 1 0 .6.37.37 0 0 1-.3.1Z"/><path class="cls-2" d="M471 262.4h23.1v14H469v-14h2z"/><g class="cls-9"><circle class="cls-5" cx="482.1" cy="317.1" r="44.8" transform="rotate(-80.78 482.118 317.097)"/></g><g class="cls-9"><path class="cls-2" d="m428.7 364.6 2.3-7.3 1.5-3.4 6.5-7.4 6-3.5 10.1-3.7 9.8-4 4.6-7.2 1-4.2.3-5.8v-5.6l-3.9-4-2.2-3.9-1.8-4.4-.5-2.2-4.9-1.5-2.6-3-.8-3.9.9-2.7 2.3-1.7 2.7-.6.8-15.1 16.3-10.1 24.8 1.2 6 19.3-3.3 3.9.7 1.3 3 .6 1.9 2.1.7 3.3-1.6 3.8-1.9 1.8-2 .9-2.5.7-4 10.4-3.9 4.4-1.5 1 .3 7.2.9 5.7 2.2 4.6 3.7 3.7 7.9 3.9 11.1 3.7 6.6 4.1 2.4 2.2 3.5 5.1 3.3 7v1.2l-106.7 2.1z"/></g><g class="cls-9"><path class="cls-3" d="M517.9 294c-4-8.9-2.7-20.7-3.6-30.2a37 37 0 0 0-6.8-17.4c-2.7-3.7-8.4-7.3-13.1-7.7a15.48 15.48 0 0 0-11.3 3.5c-2.7 2.4-6.3 4.8-6 8.8 0 0 1.5 4.7 3.7 11.4 7.6-3.1 18.7 3.1 21.2 10.4a38.72 38.72 0 0 1 2.1 13.4 3.52 3.52 0 0 1 3.3-.1 3.55 3.55 0 0 1 .9.4 3.18 3.18 0 0 1 1.1 1.2c.1.1.1.1.2.1 1.9 1.5 1.3 3.5.1 5.1a5.85 5.85 0 0 1-5.7 4.2l-1.3.3h-.4a34.13 34.13 0 0 1-2.4 6.3v.1a16.6 16.6 0 0 1-3.4 6.6c1.8 1.5 9.1 2.3 10.8 2.4a23.18 23.18 0 0 0 13.8-3.7c4.7-3.3 6.4-5.5 8.7-12.2-1.6 5-10 1.2-11.9-2.9Zm.9 67.9c-1.6-8-4.7-20.9-8.4-21.7a15.79 15.79 0 0 1-8.2-4.6c-19.6 31.1-38.6 1.2-38.6 1.2s-7.9.8-9.6 2.6c-3.3 3.6-4.4 15.1-4.9 22.4h69.7Z"/><path class="cls-7" d="M477.3 315c-7.1-1.4-11.4-8.1-13.6-14.4a64.25 64.25 0 0 1-3-20.4c0-.9-1.4-.7-1.4.2 0 1.3 0 2.6.1 3.8a6.33 6.33 0 0 0-5.9 7.2 9 9 0 0 0 7.8 7.2h.3c.3 1.1.6 2.1 1 3.2 1.5 4.4 4 8.6 7.6 11.3-.1 3.2.1 6.3-.1 9.5a17.18 17.18 0 0 1-4.1 9.9c-4 4.7-10.3 6.3-15.9 8.1s-10.7 3.9-14.7 8.4a36.36 36.36 0 0 0-6.7 12.1h1.3c.7-1 1.6-4.1 2.8-6.3a26.65 26.65 0 0 1 13.5-11.7 89.64 89.64 0 0 1 11.4-3.8c11.6-3 13.5-13 13.8-17.9.2-2.5 0-4.9 0-7.4a18.83 18.83 0 0 0 5.6 2.5.76.76 0 0 0 .2-1.5Zm-22.1-22.9a4.92 4.92 0 0 1 4.4-6.6 57.15 57.15 0 0 0 1.8 11.6 7.23 7.23 0 0 1-6.2-5Zm74.1 56.8c-4-4.5-9.1-6.8-14.7-8.6s-11.9-3.3-15.9-8a17.18 17.18 0 0 1-4.1-9.9c-.2-2.8-.1-5.6-.1-8.4 4.5-3.1 7.2-8.6 8.6-14.1a7.37 7.37 0 0 1 .4-1.4h.2a9 9 0 0 0 7.8-7.2 6.19 6.19 0 0 0-6-7.2h-.2a66.32 66.32 0 0 0-.7-10c-.1-.9-1.5-.5-1.3.4a68 68 0 0 1-1.1 24.2c-1.8 7.6-6.1 16.4-14.9 16.9a.7.7 0 0 0 0 1.4 13.87 13.87 0 0 0 6.1-2.1c0 2.1-.1 4.3.1 6.4.6 10.3 5.5 15.7 15 18.6 3.5 1 6.8 2 10.1 3.3a26.27 26.27 0 0 1 13.5 11.5c1.2 2.1 2.1 5.3 2.8 6.3h1.3a41 41 0 0 0-6.9-12.1Zm-24.2-63.4h.2a4.86 4.86 0 0 1 4.4 6.6 7.38 7.38 0 0 1-6 5 63.43 63.43 0 0 0 1.4-11.6Z"/><path d="M498.3 291.6c4.3 2.8-4.4 7.6-7 4.4s4.6-6 7-4.4Zm-31.3.7c-4.5 2.9 4.5 7.9 7.3 4.6s-4.7-6.2-7.3-4.6Z" style="fill:#e84376;opacity:.2;isolation:isolate"/><path d="M459.4 280.3s18.1-.8 22.8-12.9c0 0 5.5 10.3 22.8 12.1 0 0 9.6-31.1-23-31.1-31.2 0-22.6 31.9-22.6 31.9Z" style="fill:#ffc931"/></g><path class="cls-3" d="M459.4 280.3s18.1-.8 22.8-12.9c0 0 5.5 10.3 22.8 12.1 0 0 9.6-31.1-23-31.1-31.2 0-22.6 31.9-22.6 31.9Z"/><path class="cls-3" d="M528.1 299.1c-9-2.8-11-13.6-10-23.4a52.1 52.1 0 0 0-2-19s-4-15.8-17.8-18-17.9 11.8-17.9 11.8l3.7 11.9c10.7-2 16.7 2.3 20.1 7.6l-1.4 6.6 5.6 8.4a11.3 11.3 0 0 1 5.3 1.4c2.1 1 1.5 4.3 1.5 5.7s-1.7 3.3-4.3 4.9a8.22 8.22 0 0 1-4.3 1.5l-6.8 12c26 10.1 33.2-13.3 33.2-13.3-1.1 3-4.9 1.9-4.9 1.9Z"/><path class="cls-7" d="M482.9 308.1c-4.5 0-6.5-1.4-6.9-2.2a3.29 3.29 0 0 1-.5-2.2c0-.1.1-.2.1-.3a.37.37 0 0 1 .3-.1c.1 0 10.6 1 13.4.4a.6.6 0 0 1 .4.1c.1.1.1.2.1.4 0 0-.9 3.7-6.1 3.9Zm-6.7-4a3 3 0 0 0 .5 1.4c.3.5 2.1 1.9 6.9 1.8 3.3-.1 4.7-1.8 5.1-2.7-3.2.4-10.6-.3-12.5-.5Zm18.2-17a.37.37 0 0 1-.3-.1 2.88 2.88 0 0 0-2.1-1.2 3.08 3.08 0 0 0-2.3 1.2c-.1.2-.4.2-.6 0s-.2-.4 0-.6a4.39 4.39 0 0 1 2.9-1.4 3.62 3.62 0 0 1 2.7 1.4.64.64 0 0 1 0 .6.37.37 0 0 1-.3.1Zm-19.6 0a.37.37 0 0 1-.3-.1 2.59 2.59 0 0 0-2.1-1.2 3.08 3.08 0 0 0-2.3 1.2c-.1.2-.4.2-.6 0s-.2-.4 0-.6a4.39 4.39 0 0 1 2.9-1.4 3.62 3.62 0 0 1 2.7 1.4.64.64 0 0 1 0 .6.77.77 0 0 1-.3.1Z"/><path d="M170.8 317.1h77m-71.9 6.4-6.4-6.4 6.4-6.4m67.3 0 6.4 6.4-6.4 6.4m108.2-6.4h77m-71.8 6.4-6.4-6.4 6.4-6.4m67.2 0 6.5 6.4-6.5 6.4" style="stroke:#6f7592;stroke-miterlimit:10;stroke-width:3px;fill:none"/><path class="cls-3" d="M276.8 292.2h21.5v21.5h-21.5zm27.2 0h21.5v21.5H304zm-27.2 28.4h21.5v21.5h-21.5zm27.2 0h21.5v21.5H304z"/></svg>