<svg version="1.1" id="Layer_1" xmlns="http://www.w3.org/2000/svg" x="0" y="0" viewBox="0 0 230 230" style="enable-background:new 0 0 230 230" xml:space="preserve"><style>.st0{fill:#d4d4d4}.st1{fill:#f2f2f2}.st2{fill:#fff}.st3{fill:#414242}.st4{fill:#dfdfdf}.st5{fill:#a4a4a4}.st6{fill:#f1f1f1}.st8{fill:#dedede}.st9{fill:#837fcb}.st10{fill:#a3a3a3}.st11{fill:#f3ba26}.st12{fill:#f8e7cc}.st13{fill:#404141}.st14{fill:#db9c17}.st15{fill:#9f9fdd}.st16{fill:#6f6fb2}.st17{fill:#a2a2a2}.st18{fill:#d3d3d3}.st20{fill:#f2b92c}</style><g id="XMLID_2190_"><g id="XMLID_2326_"><g id="XMLID_2327_"><path id="XMLID_5710_" class="st0" d="m173.7 94.9-7.6 4.3c-1.2.7-2.8.7-4 0l-7.4-4.3c-1-.6-1-2.1 0-2.7l8.7-4.9c.5-.3 1.1-.3 1.5 0l8.7 4.9c1.2.6 1.2 2.1.1 2.7z"/></g></g><g id="XMLID_2191_"><g id="XMLID_2193_"><g id="XMLID_2289_"><g id="XMLID_2312_"><g id="XMLID_2313_"><g id="XMLID_2323_"><g id="XMLID_2325_"><path id="XMLID_5707_" class="st1" d="m172.5 89.7-9.5 5.4h-.1l-9.3-5.4v-.1l9.4-5.3h.1l9.4 5.4z"/></g></g><g id="XMLID_2321_"><g id="XMLID_2322_"><path id="XMLID_5704_" class="st2" d="m172.4 91.6-9.5 5.4h-.1l-9.3-5.4v-.1l9.4-5.3h.1l9.4 5.4c0-.1 0 0 0 0z"/></g></g><g id="XMLID_2315_"><g id="XMLID_2317_"><path id="XMLID_5699_" class="st3" d="m162.9 95.4-.2-.1-9.4-5.5v-.2c0-.1.1-.2.2-.3L163 84l.2.1 9.5 5.4v.2c0 .1-.1.2-.2.3l-9.6 5.4zm-8.8-5.7 8.8 5.1 9-5.1-8.9-5.1-8.9 5.1z"/></g></g></g></g><g id="XMLID_2301_"><g id="XMLID_2302_"><g id="XMLID_2309_"><g id="XMLID_2311_"><path id="XMLID_5694_" class="st4" d="M153.5 89.7v1.9l9.3 5.4h.1v-1.9l-9.4-5.4c.1 0 0 0 0 0z"/></g></g><g id="XMLID_2303_"><g id="XMLID_2305_"><path id="XMLID_5689_" class="st3" d="M162.9 97.4h-.2l-9.4-5.5v-2.2l.3-.2.2.1 9.4 5.5v2.2l-.2.1h-.1zm-9.1-5.9 8.8 5.1v-1.3l-8.8-5.1v1.3z"/></g></g></g></g><g id="XMLID_2290_"><g id="XMLID_2291_"><g id="XMLID_2298_"><g id="XMLID_2299_"><path id="XMLID_5684_" class="st5" d="M172.5 89.8v1.9l-9.5 5.4h-.1v-1.9l9.6-5.4c0-.1 0-.1 0 0z"/></g></g><g id="XMLID_2293_"><g id="XMLID_2294_"><path id="XMLID_5679_" class="st3" d="m163 97.4-.2-.1c-.1-.1-.2-.2-.2-.3v-2l.2-.1 9.7-5.5.2.1c.1.1.2.2.2.3v2.1l-.2.1-9.7 5.4zm.2-2.1v1.3l9-5.1v-1.3l-9 5.1z"/></g></g></g></g></g><g id="XMLID_2277_"><g id="XMLID_2279_"><g id="XMLID_2285_"><g id="XMLID_2287_"><path id="XMLID_5673_" class="st5" d="M163 90.7c-1.1 0-2-.9-2-2V81c0-.1.1-.2.2-.2h3.6c.1 0 .2.1.2.2v7.7c.1 1.1-.8 2-2 2z"/></g></g><g id="XMLID_2280_"><g id="XMLID_2281_"><path id="XMLID_5668_" class="st3" d="M163 91c-1.3 0-2.3-1-2.3-2.3V81c0-.3.2-.5.5-.5h3.6c.3 0 .5.2.5.5v7.7c.1 1.2-1 2.3-2.3 2.3zm-1.7-10v7.7c0 1 .8 1.7 1.7 1.7 1 0 1.7-.8 1.7-1.7V81h-3.4z"/></g></g></g></g><g id="XMLID_2264_"><g id="XMLID_2265_"><g id="XMLID_2275_"><g id="XMLID_2276_"><path id="XMLID_5663_" class="st6" d="M164.8 80.1h-3.6c-.1 0-.2.1-.2.2v2.4c0 1.1.9 2 2 2s2-.9 2-2v-2.4c.1-.1 0-.2-.2-.2z"/></g></g><g id="XMLID_2272_"><g id="XMLID_2273_"><path id="XMLID_5660_" class="st2" d="M164.9 79h-3.6c-.1 0-.2.1-.2.2v2.4c0 1.1.9 2 2 2s2-.9 2-2v-2.4c0-.1-.1-.2-.2-.2z"/></g></g><g id="XMLID_2267_"><g id="XMLID_2269_"><path id="XMLID_5655_" class="st3" d="M163 85.1c-1.3 0-2.3-1-2.3-2.3v-2.4c0-.3.2-.5.5-.5h3.6c.3 0 .5.2.5.5v2.4c.1 1.3-1 2.3-2.3 2.3zm-1.7-4.7v2.4c0 1 .8 1.7 1.7 1.7 1 0 1.7-.8 1.7-1.7v-2.4h-3.4z"/></g></g></g></g><g id="XMLID_2230_"><g id="XMLID_2231_"><g id="XMLID_2240_"><g id="XMLID_2263_"><circle id="XMLID_5650_" transform="rotate(-89.919 163.065 72.112)" class="st4" cx="163.1" cy="72.1" r="10.2"/></g></g><g id="XMLID_2238_"><g id="XMLID_2239_"><path id="XMLID_5647_" class="st2" d="m172.2 67.5-1.5-1.2c-1.8 2.8-5 4.7-8.6 4.7-2 0-3.9-.6-5.5-1.6-1 1.6-1.6 3.5-1.6 5.5 0 1.7.4 3.3 1.1 4.7 1.8 1.8 4.3 2.8 7 2.8 5.6 0 10.2-4.6 10.2-10.2 0-1.8-.4-3.3-1.1-4.7z"/></g></g><g id="XMLID_2232_"><g id="XMLID_2234_"><path id="XMLID_5642_" class="st3" d="M163.1 82.6c-5.8 0-10.5-4.7-10.5-10.5s4.7-10.5 10.5-10.5 10.5 4.7 10.5 10.5c-.1 5.8-4.8 10.5-10.5 10.5zm0-20.4c-5.5 0-9.9 4.4-9.9 9.9s4.4 9.9 9.9 9.9 9.9-4.4 9.9-9.9c0-5.4-4.5-9.9-9.9-9.9z"/></g></g></g></g><g id="XMLID_2219_"><g id="XMLID_2221_"><g id="XMLID_2227_"><g id="XMLID_2228_"><path id="XMLID_5637_" class="st5" d="M170 64.6c.1.5.1 1.1.1 1.7 0 5.6-4.6 10.2-10.2 10.2-2.7 0-5.1-1-6.9-2.7.8 4.8 5 8.5 10.1 8.6 5.6 0 10.2-4.6 10.2-10.2 0-3-1.3-5.7-3.3-7.6z"/></g></g><g id="XMLID_2222_"><g id="XMLID_2223_"><path id="XMLID_5632_" class="st3" d="M163.1 82.6c-5.2 0-9.5-3.7-10.3-8.8l.3-1.1.2.9c1.8 1.7 4.2 2.6 6.7 2.6 5.5 0 9.9-4.4 9.9-9.9 0-.5 0-1.1-.1-1.6l-.1-.8.6.6c2.1 2 3.4 4.8 3.4 7.7-.2 5.7-4.9 10.4-10.6 10.4zm-9.7-8.1c1.1 4.4 5 7.5 9.6 7.5 5.5 0 9.9-4.4 9.9-9.9 0-2.5-.9-4.9-2.6-6.7v.9c0 5.8-4.7 10.5-10.5 10.5-2.2 0-4.5-.8-6.4-2.3z"/></g></g></g></g><g id="XMLID_2205_"><g id="XMLID_2207_"><g id="XMLID_2217_"><g id="XMLID_2218_"><path id="XMLID_5627_" class="st4" d="M170.1 63.2c0 3.9-3.2 6.1-7.1 6.1-3.9 0-7.1-2.2-7.1-6.1 0-3.9 3.2-7.1 7.1-7.1 4 0 7.1 3.2 7.1 7.1z"/></g></g><g id="XMLID_2214_"><g id="XMLID_2215_"><path id="XMLID_5624_" class="st2" d="M170.2 63.2c0-1-.2-1.9-.6-2.8-1.3-1.6-3.3-2.6-5.5-2.6-3.9 0-7.1 3.2-7.1 7.1 0 .8.1 1.5.4 2.2 1.3 1.4 3.3 2.2 5.6 2.2 4.1 0 7.2-2.2 7.2-6.1z"/></g></g><g id="XMLID_2208_"><g id="XMLID_2209_"><path id="XMLID_5619_" class="st3" d="M163.1 69.6c-4.4 0-7.3-2.6-7.3-6.4 0-4.1 3.3-7.3 7.4-7.3 4.1 0 7.3 3.3 7.3 7.4-.1 3.7-3 6.3-7.4 6.3zm0-13.2c-3.7 0-6.8 3-6.8 6.8 0 4 3.4 5.8 6.8 5.8s6.8-1.8 6.8-5.8c0-3.8-3.1-6.8-6.8-6.8z"/></g></g></g></g><g id="XMLID_2194_"><g id="XMLID_2195_"><g id="XMLID_2203_"><g id="XMLID_2204_"><path id="XMLID_5614_" class="st5" d="M164.6 56.3c.9 1.2 1.4 2.6 1.4 4.2 0 3.9-3.2 6.1-7.1 6.1-.7 0-1.4-.1-2-.2 1.2 1.9 3.5 2.9 6.2 2.9 3.9 0 7.1-2.2 7.1-6.1-.1-3.4-2.4-6.2-5.6-6.9z"/></g></g><g id="XMLID_2197_"><g id="XMLID_2198_"><path id="XMLID_5609_" class="st3" d="M163.1 69.6c-2.9 0-5.2-1.1-6.4-3.1l-.4-.6.7.1c3.8.8 8.7-.8 8.7-5.6 0-1.5-.5-2.8-1.3-4l-.5-.6.7.2c3.4.7 5.8 3.8 5.8 7.2 0 3.8-2.9 6.4-7.3 6.4zm-5.6-2.8c1.2 1.4 3.2 2.2 5.5 2.2 3.4 0 6.8-1.8 6.8-5.8 0-2.9-1.9-5.5-4.6-6.4.7 1.1 1 2.4 1 3.7 0 3.8-3 6.4-7.4 6.4-.4-.1-.8-.1-1.3-.1z"/></g></g></g></g></g></g></g><g id="XMLID_45_"><g id="XMLID_189_"><g id="XMLID_2881_"><path id="XMLID_3291_" d="M179.1 148 122 181.1c-2.7 1.5-6 1.5-8.6 0l-88.5-51.3c-1.8-1-1.8-3.7 0-4.7L85 90.3c.8-.5 1.9-.5 2.7 0l91.5 53.1c1.7 1 1.7 3.6-.1 4.6z" style="fill:#d5d5d5"/></g></g><g id="XMLID_188_"><g id="XMLID_11725_"><g id="XMLID_10489_"><g id="XMLID_2684_"><g id="XMLID_2667_"><g id="XMLID_1350_"><g id="XMLID_1762_"><g id="XMLID_2879_"><path id="XMLID_3288_" class="st1" d="m159.1 84.7-57.1 33-69.5-40.4 57.1-33 69.5 40.4c0-.1 0-.1 0 0z"/></g></g><g id="XMLID_1763_"><g id="XMLID_2875_"><path id="XMLID_3283_" class="st3" d="m102.1 118-.2-.1-69.8-40.4v-.4l.2-.1 57.2-33.1.2.1 69.7 40.4v.4l-.2.1-57.1 33.1zm-69-40.7 68.9 40 56.4-32.6-68.9-40-56.4 32.6z"/></g></g></g></g><g id="XMLID_2672_"><g id="XMLID_583_"><g id="XMLID_1758_"><g id="XMLID_2871_"><path id="XMLID_3278_" class="st6" d="m149.2 84.4-46.9 27.1-59.9-34.7 46.9-27.1z"/></g></g><g id="XMLID_1852_"><g id="XMLID_2869_"><path id="XMLID_3275_" class="st2" d="m44.6 75.5 57.7 33.4 44.6-25.8-57.6-33.4z"/></g></g><g id="XMLID_1759_"><g id="XMLID_2861_"><path id="XMLID_3270_" class="st3" d="m102.3 111.9-.2-.1-60.5-35 47.6-27.5 60.6 35.1-47.5 27.5zM43 76.8l59.3 34.3 46.2-26.7-59.2-34.3L43 76.8z"/></g></g></g></g><g id="XMLID_2666_"><g id="XMLID_582_"><g id="XMLID_1754_"><g id="XMLID_2855_"><path id="XMLID_3265_" class="st4" d="m32.4 77.3-.1 43.9 69.5 40.3.1-43.9-69.5-40.3c.1 0 0 0 0 0z"/></g></g><g id="XMLID_1755_"><g id="XMLID_2851_"><path id="XMLID_3260_" class="st3" d="m102 162-.2-.1-69.7-40.4v-.2l.1-44.1.4-.2.2.1 69.7 40.4v.2l-.1 44.1-.4.2zm-69.3-40.9 68.9 40 .1-43.2-68.9-40-.1 43.2z"/></g></g></g></g><g id="XMLID_2668_"><g id="XMLID_581_"><g id="XMLID_1750_"><g id="XMLID_2847_"><path id="XMLID_3255_" class="st5" d="m159.1 84.7-.1 43.9-57.1 33 .1-43.9 57.1-33c0-.1 0 0 0 0z"/></g></g><g id="XMLID_1751_"><g id="XMLID_2843_"><path id="XMLID_3250_" class="st3" d="m102 162-.4-.2v-.2l.1-44.1.2-.1 57.2-33.1.4.2v.2l-.1 44.1-.2.1L102 162zm.4-44.2-.1 43.2 56.4-32.6.1-43.2-56.4 32.6z"/></g></g></g></g><g id="XMLID_2665_"><g id="XMLID_580_"><g id="XMLID_1746_"><g id="XMLID_2839_"><path id="XMLID_3245_" class="st5" d="M89.3 49.7v3.8L45.6 78.7l-3.2-1.9z"/></g></g><g id="XMLID_1747_"><g id="XMLID_2835_"><path id="XMLID_3240_" class="st3" d="m45.6 79.1-3.9-2.3 47.9-27.7v4.5l-44 25.5zM43 76.8l2.5 1.5 43.3-25v-2.9L43 76.8z"/></g></g></g></g><g id="XMLID_2683_"><g id="XMLID_579_"><g id="XMLID_1742_"><g id="XMLID_2831_"><path id="XMLID_3235_" class="st8" d="M89.3 49.7v3.8L146 86.3l3.2-1.9z"/></g></g><g id="XMLID_1743_"><g id="XMLID_2827_"><path id="XMLID_3230_" class="st3" d="m146 86.7-57.1-33v-4.5l61 35.3-3.9 2.2zM89.6 53.3 146 85.9l2.5-1.5-58.9-34.1v3z"/></g></g></g></g></g></g></g><g id="XMLID_734_"><g id="XMLID_2820_"><path id="XMLID_3222_" class="st3" d="M154.7 85c-.4.2-.9.2-1.3 0s-.4-.5 0-.7c.4-.2.9-.2 1.3 0 .3.2.3.5 0 .7z"/></g></g></g><g id="XMLID_10574_"><g id="XMLID_10450_"><g id="XMLID_10453_"><g id="XMLID_573_"><g id="XMLID_1738_"><g id="XMLID_2817_"><path id="XMLID_3218_" class="st6" d="M35.3 82.4v37.1l22.9 13.4.1-37.1z"/></g></g><g id="XMLID_1739_"><g id="XMLID_2813_"><path id="XMLID_3213_" class="st3" d="m58.5 133.5-23.6-13.7.1-38 23.6 13.7-.1 38zm-22.9-14.2 22.3 12.9V96L35.6 83v36.3z"/></g></g></g></g><g id="XMLID_4904_"><g id="XMLID_572_"><g id="XMLID_1734_"><g id="XMLID_2809_"><path id="XMLID_3208_" class="st9" d="M46.3 104.5v14.3l8.9 5.1v-14.3z"/></g></g><g id="XMLID_1735_"><g id="XMLID_2805_"><path id="XMLID_3203_" class="st3" d="m54.2 125.9-9.5-5.5v-15.1l9.5 5.5v15.1zm-8.9-6 8.2 4.8v-13.5l-8.2-4.7v13.4z"/></g></g></g></g><g id="XMLID_10452_"><g id="XMLID_571_"><g id="XMLID_1730_"><g id="XMLID_2801_"><path id="XMLID_3198_" class="st10" d="m35.3 119.5 2.7-1.6V84l-2.7-1.6z"/></g></g><g id="XMLID_1731_"><g id="XMLID_2796_"><path id="XMLID_3193_" class="st3" d="m34.9 119.6.1-37.8 3.4 2v34.3l-3 1.8c-.2.1-.5 0-.5-.3zm.7-36.6-.1 35.9 2-1.2V84.2L35.6 83z"/></g></g></g></g><g id="XMLID_10451_"><g id="XMLID_570_"><g id="XMLID_1725_"><g id="XMLID_2792_"><path id="XMLID_3188_" class="st2" d="M58.2 132.9v-3.2L38 117.9l-2.7 1.6z"/></g></g><g id="XMLID_1726_"><g id="XMLID_2788_"><path id="XMLID_3183_" class="st3" d="M58.5 133.5 35 119.8c-.2-.1-.2-.4 0-.5l3-1.8 20.6 12-.1 4zm-22.6-14 21.9 12.7v-2.4L38 118.3l-2.1 1.2z"/></g></g></g></g></g><g id="XMLID_10471_"><g id="XMLID_10474_"><g id="XMLID_569_"><g id="XMLID_1710_"><g id="XMLID_2783_"><path id="XMLID_3177_" class="st11" d="m55.9 97.9-2.3 1.3h-.1l-13.3-7.8v-.1l2.3-1.3h.1l13.3 7.8c.1 0 .1 0 0 .1z"/></g></g><g id="XMLID_1794_"><g id="XMLID_2781_"><path id="XMLID_3174_" class="st12" d="m56 98.9-2.3 1.3h-.1l-13.3-7.8v-.1l2.3-1.3h.1L56 98.8v.1z"/></g></g><g id="XMLID_1722_"><g id="XMLID_2777_"><path id="XMLID_3169_" class="st3" d="m53.6 99.6-.2-.1-13.5-7.9v-.2c0-.1.1-.3.2-.3l2.5-1.4.2.1 13.5 7.9v.2c0 .1-.1.3-.2.3l-2.5 1.4zm-12.8-8.3 12.8 7.5 1.7-1-12.8-7.5-1.7 1z"/></g></g></g></g><g id="XMLID_10473_"><g id="XMLID_568_"><g id="XMLID_1705_"><g id="XMLID_2773_"><path id="XMLID_3164_" class="st11" d="M40.1 91.4V98l13.3 7.8s.1 0 .1-.1v-6.6l-13.4-7.7c.1 0 0 0 0 0z"/></g></g><g id="XMLID_1449_"><g id="XMLID_2771_"><path id="XMLID_3161_" class="st13" d="m41.7 92.5-.1 6.6h.7v-6.6z"/></g></g><g id="XMLID_1450_"><g id="XMLID_2769_"><path id="XMLID_3158_" class="st13" d="M46.3 95.1v6.7l.7-.1v-6.6z"/></g></g><g id="XMLID_1706_"><g id="XMLID_2765_"><path id="XMLID_3153_" class="st3" d="M53.5 106.2c-.1 0-.1 0-.2-.1l-13.5-7.9v-6.9l.4-.2.2.1L53.9 99v6.9l-.2.2s-.1.1-.2.1zm-13-8.4 12.8 7.5v-5.9l-12.8-7.5v5.9z"/></g></g></g></g><g id="XMLID_10472_"><g id="XMLID_567_"><g id="XMLID_1701_"><g id="XMLID_2761_"><path id="XMLID_3148_" class="st14" d="M56 97.9v6.6l-2.3 1.3s-.1 0-.1-.1v-6.6l2.4-1.2c0-.1 0 0 0 0z"/></g></g><g id="XMLID_1702_"><g id="XMLID_2757_"><path id="XMLID_3143_" class="st3" d="m53.7 106.2-.2-.1c-.1-.1-.2-.2-.2-.3v-6.7l.2-.2 2.5-1.4.2.1c.1.1.2.2.2.3v6.7l-.2.2-2.5 1.4zm.2-6.8v5.9l1.7-1v-5.9l-1.7 1z"/></g></g></g></g></g><g id="XMLID_10542_"><g id="XMLID_564_"><g id="XMLID_1697_"><g id="XMLID_2752_"><path id="XMLID_3137_" class="st8" d="m55.5 123.6-3.9-2.2v-6l3.9 2.3z"/></g></g><g id="XMLID_1808_"><g id="XMLID_2750_"><path id="XMLID_3134_" class="st2" d="m56.8 122.5-4-2.3v-6l4 2.3z"/></g></g><g id="XMLID_1698_"><g id="XMLID_2746_"><path id="XMLID_3129_" class="st3" d="m55.9 124.2-4.6-2.7v-6.7l4.6 2.7v6.7zm-4-3 3.3 1.9V118l-3.3-1.9v5.1z"/></g></g></g></g></g><g id="XMLID_10575_"><g id="XMLID_10454_"><g id="XMLID_10457_"><g id="XMLID_560_"><g id="XMLID_1693_"><g id="XMLID_2741_"><path id="XMLID_3081_" class="st6" d="M75.8 106.1v37.1l22.9 13.3.1-37.1z"/></g></g><g id="XMLID_1694_"><g id="XMLID_2737_"><path id="XMLID_3076_" class="st3" d="m99.1 157.1-23.6-13.7.1-37.9 23.6 13.7-.1 37.9zm-23-14.1 22.3 12.9.1-36.3-22.3-12.9-.1 36.3z"/></g></g></g></g><g id="XMLID_4906_"><g id="XMLID_559_"><g id="XMLID_1689_"><g id="XMLID_2733_"><path id="XMLID_3071_" class="st9" d="M84.9 112.5v21l12.9 7.6.1-21z"/></g></g><g id="XMLID_1690_"><g id="XMLID_2729_"><path id="XMLID_3066_" class="st3" d="M96.7 142.7 83 134.8V113l13.7 7.9v21.8zm-12.9-8.4 12.3 7.1v-20.2l-12.3-7.1v20.2z"/></g></g></g></g><g id="XMLID_10456_"><g id="XMLID_558_"><g id="XMLID_1685_"><g id="XMLID_2725_"><path id="XMLID_3061_" class="st10" d="m75.8 143.2 2.7-1.6v-33.9l-2.7-1.6z"/></g></g><g id="XMLID_1686_"><g id="XMLID_2721_"><path id="XMLID_3056_" class="st3" d="m75.4 143.2.1-37.7 3.4 2v34.3l-2.9 1.7c-.3.1-.6 0-.6-.3zm.8-36.5-.1 35.9 2-1.2v-33.5l-1.9-1.2z"/></g></g></g></g><g id="XMLID_10455_"><g id="XMLID_557_"><g id="XMLID_452_"><g id="XMLID_2717_"><path id="XMLID_3051_" class="st2" d="M98.7 156.5v-3.2l-20.2-11.7-2.7 1.6z"/></g></g><g id="XMLID_1682_"><g id="XMLID_2713_"><path id="XMLID_3046_" class="st3" d="m99.1 157.1-23.5-13.6c-.2-.1-.2-.5 0-.6l2.9-1.7 20.6 12v3.9zm-22.6-13.9 21.9 12.7v-2.4L78.5 142l-2 1.2z"/></g></g></g></g></g><g id="XMLID_10537_"><g id="XMLID_451_"><g id="XMLID_447_"><g id="XMLID_2707_"><path id="XMLID_3039_" class="st8" d="m82.5 125.5 4.4 2.5v-6.8l-4.4-2.5v6.8z"/></g></g><g id="XMLID_1809_"><g id="XMLID_2704_"><path id="XMLID_3035_" class="st2" d="m83.8 124 4.4 2.5v-6.8l-4.4-2.5v6.8z"/></g></g><g id="XMLID_1679_"><g id="XMLID_2700_"><path id="XMLID_3030_" class="st3" d="m87.2 128.7-5.1-2.9v-7.6l5.1 2.9v7.6zm-4.4-3.4 3.7 2.1v-6l-3.7-2.1v6z"/></g></g></g></g><g id="XMLID_10539_"><g id="XMLID_446_"><g id="XMLID_1673_"><g id="XMLID_2695_"><path id="XMLID_3024_" class="st8" d="m85.2 132.9 5.6 3.2v-8.6l-5.6-3.2v8.6z"/></g></g><g id="XMLID_1811_"><g id="XMLID_2692_"><path id="XMLID_3020_" class="st2" d="m86.4 131.1 5.6 3.2v-8.6l-5.6-3.2v8.6z"/></g></g><g id="XMLID_1675_"><g id="XMLID_2688_"><path id="XMLID_3015_" class="st3" d="m91.1 136.8-6.3-3.6v-9.3l6.3 3.6v9.3zm-5.5-4.1 4.9 2.8v-7.8l-4.9-2.8v7.8z"/></g></g></g></g></g><g id="XMLID_4891_"><g id="XMLID_10443_"><g id="XMLID_10448_"><g id="XMLID_439_"><g id="XMLID_1661_"><g id="XMLID_2681_"><path id="XMLID_3009_" class="st6" d="m60.9 97.4-.1 40.4 12 6.9.1-40.3z"/></g></g><g id="XMLID_1670_"><g id="XMLID_2677_"><path id="XMLID_3004_" class="st3" d="M73.2 145.3 60.5 138l.1-41.2 12.7 7.4-.1 41.1zm-12-7.7 11.3 6.6.1-39.6L61.2 98v39.6z"/></g></g></g></g><g id="XMLID_10445_"><g id="XMLID_438_"><g id="XMLID_1657_"><g id="XMLID_2673_"><path id="XMLID_2999_" class="st10" d="m60.9 137.8 2.7-1.6V99l-2.7-1.6v40.4c-.1-.1 0 0 0 0z"/></g></g><g id="XMLID_1658_"><g id="XMLID_2664_"><path id="XMLID_2994_" class="st3" d="m60.9 138.1-.4-.2v-.2l.1-40.9 3.4 2-.1 37.5-3 1.8zm.3-40.1-.1 39.2 2-1.2.1-36.8-2-1.2z"/></g></g></g></g><g id="XMLID_10444_"><g id="XMLID_434_"><g id="XMLID_1653_"><g id="XMLID_2660_"><path id="XMLID_2989_" class="st4" d="M72.8 144.7v-3.1l-9.3-5.5-2.7 1.7z"/></g></g><g id="XMLID_1654_"><g id="XMLID_2656_"><path id="XMLID_2950_" class="st3" d="m73.2 145.3-13-7.6 3.4-2.1 9.6 5.6v4.1zm-11.7-7.5 11 6.4v-2.4l-9-5.2-2 1.2z"/></g></g></g></g></g></g><g id="XMLID_11699_"><g id="XMLID_10541_"><g id="XMLID_10407_"><g id="XMLID_10406_"><g id="XMLID_417_"><g id="XMLID_1642_"><g id="XMLID_2650_"><path id="XMLID_2943_" class="st9" d="m116.4 116.2 4.6 2.7.1.1 9.1 16.3v26.3c0 .1-.1.2-.2.1l-13.7-8-.1-.1.1-37.2c-.1-.2 0-.3.1-.2z"/></g></g><g id="XMLID_1643_"><g id="XMLID_2646_"><path id="XMLID_2938_" class="st3" d="M130 161.9c-.1 0-.2 0-.2-.1l-13.7-8c-.1-.1-.2-.2-.2-.4l.1-37.2c0-.2.1-.3.2-.4.1-.1.3-.1.5 0l4.6 2.7c.1 0 .1.1.2.2l9.1 16.3c0 .1.1.2.1.2v26.2c0 .2-.1.3-.2.4-.3.1-.4.1-.5.1zm-13.5-8.6 13.3 7.7v-25.7l-9-16.2-4.3-2.5v36.7z"/></g></g></g></g><g id="XMLID_4779_"><g id="XMLID_416_"><g id="XMLID_1638_"><g id="XMLID_2642_"><path id="XMLID_2933_" class="st9" d="m116.4 115.9 36.5-21.1h.1l4.6 2.7c.1.1.1.2 0 .2l-36.5 21.1h-.1l-4.6-2.7c-.1 0-.1-.1 0-.2z"/></g></g><g id="XMLID_1797_"><g id="XMLID_2640_"><path id="XMLID_2930_" class="st15" d="m116.6 117.9 36.5-21.1h.1l4.6 2.7c.1.1.1.2 0 .2l-36.5 21.1h-.1l-4.6-2.7c-.1 0-.1-.1 0-.2z"/></g></g><g id="XMLID_1639_"><g id="XMLID_2636_"><path id="XMLID_2925_" class="st3" d="M121.1 119.2c-.1 0-.2 0-.2-.1l-4.6-2.7c-.1-.1-.2-.2-.2-.4s.1-.3.2-.4l36.5-21.1c.1-.1.3-.1.5 0l4.6 2.7c.1.1.2.2.2.4s-.1.3-.2.4l-36.5 21.1c-.2.1-.3.1-.3.1zm-4.2-3.2 4.2 2.4 36.1-20.8-4.2-2.4-36.1 20.8z"/></g></g></g></g><g id="XMLID_10408_"><g id="XMLID_414_"><g id="XMLID_1634_"><g id="XMLID_2632_"><path id="XMLID_2920_" class="st9" d="m121.1 119 9 16.1c0 .1.1.1.2.1l36.5-21.1c.1 0 .1-.1.1-.2l-9-16.1c0-.1-.1-.1-.2-.1l-36.5 21.1c-.1 0-.1.1-.1.2z"/></g></g><g id="XMLID_1635_"><g id="XMLID_2628_"><path id="XMLID_2915_" class="st3" d="M130.2 135.5h-.1c-.1 0-.2-.1-.3-.2l-9-16.1c-.1-.2 0-.5.2-.6l36.5-21.1c.1-.1.2-.1.4 0 .1 0 .2.1.3.2l9 16.1c.1.2 0 .5-.2.6l-36.5 21.1h-.3zm-8.7-16.5 8.8 15.8 36.2-20.9-8.8-15.8-36.2 20.9z"/></g></g></g></g><g id="XMLID_10409_"><g id="XMLID_394_"><g id="XMLID_1630_"><g id="XMLID_2624_"><path id="XMLID_2910_" class="st16" d="m130.3 135.2 36.5-21.1c.1-.1.2 0 .2.1v26.2s0 .1-.1.1l-36.5 21c-.1.1-.2 0-.2-.1v-26.1s0-.1.1-.1z"/></g></g><g id="XMLID_1631_"><g id="XMLID_2620_"><path id="XMLID_2902_" class="st3" d="M130.3 161.9c-.1 0-.2 0-.2-.1-.1-.1-.2-.2-.2-.4v-26.1c0-.2.1-.3.2-.4l36.5-21.1c.1-.1.3-.1.5 0 .1.1.2.2.2.4v26.2c0 .2-.1.3-.2.4l-36.5 21c-.1.1-.2.1-.3.1zm.2-26.5V161l36.1-20.7v-25.8l-36.1 20.9z"/></g></g></g></g></g><g id="XMLID_10446_"><g id="XMLID_10468_"><g id="XMLID_10479_"><g id="XMLID_392_"><g id="XMLID_1626_"><g id="XMLID_2615_"><path id="XMLID_2896_" class="st6" d="m127 136.6-2.4 1.4-6.2-3.5v-.1l2.4-1.4 6.2 3.6c0-.1 0 0 0 0z"/></g></g><g id="XMLID_238_"><g id="XMLID_2613_"><path id="XMLID_2893_" class="st2" d="m127 137.9-2.4 1.4-6.2-3.5v-.1l2.4-1.4 6.2 3.6c0-.1 0 0 0 0z"/></g></g><g id="XMLID_1627_"><g id="XMLID_2609_"><path id="XMLID_2883_" class="st3" d="m124.6 138.4-.2-.1-6.3-3.6v-.2c0-.1.1-.3.2-.3l2.6-1.5.2.1 6.3 3.6v.2c0 .1-.1.3-.2.3l-2.6 1.5zm-5.6-4 5.6 3.2 1.8-1.1-5.6-3.2-1.8 1.1z"/></g></g></g></g><g id="XMLID_10478_"><g id="XMLID_391_"><g id="XMLID_1622_"><g id="XMLID_2605_"><path id="XMLID_2876_" class="st4" d="M118.3 134.5v10.7l6.2 3.5h.1V138l-6.3-3.5c0-.1 0 0 0 0z"/></g></g><g id="XMLID_1623_"><g id="XMLID_2601_"><path id="XMLID_2864_" class="st3" d="M124.5 149.1c-.1 0-.1 0-.2-.1l-6.3-3.6v-11.1l.4-.2.2.1 6.3 3.6v11.1l-.2.1c-.1.1-.1.1-.2.1zm-5.9-4.1 5.6 3.2v-10l-5.6-3.2v10z"/></g></g></g></g><g id="XMLID_10477_"><g id="XMLID_308_"><g id="XMLID_1618_"><g id="XMLID_2597_"><path id="XMLID_2856_" class="st17" d="M127.1 136.6v10.7l-2.4 1.4h-.1V138l2.5-1.4c-.1 0 0 0 0 0z"/></g></g><g id="XMLID_1619_"><g id="XMLID_2593_"><path id="XMLID_2833_" class="st3" d="m124.6 149.2-.2-.1c-.1-.1-.2-.2-.2-.3v-10.9l.2-.1 2.6-1.5.2.1c.1.1.2.2.2.3v10.9l-.2.1-2.6 1.5zm.3-11v10l1.8-1.1v-10l-1.8 1.1z"/></g></g></g></g></g></g><g id="XMLID_4766_"><g id="XMLID_4769_"><g id="XMLID_4725_"><g id="XMLID_4728_"><g id="XMLID_257_"><g id="XMLID_1614_"><g id="XMLID_2587_"><path id="XMLID_2824_" class="st2" d="m143 135.3-8.2 4.7-1.3-.8v-.1l8.2-4.7 1.3.9c.1 0 .1 0 0 0z"/></g></g><g id="XMLID_1615_"><g id="XMLID_2583_"><path id="XMLID_2818_" class="st3" d="m134.9 140.4-.2-.1-1.5-.9v-.4l.2-.1 8.3-4.8.2.1 1.5.9v.4l-.2.1-8.3 4.8zm-.8-1.2.7.4 7.6-4.3-.7-.4-7.6 4.3z"/></g></g></g></g><g id="XMLID_4727_"><g id="XMLID_256_"><g id="XMLID_1610_"><g id="XMLID_2579_"><path id="XMLID_2811_" class="st17" d="M134.8 140.1V154l8.2-4.7v-13.9l-8.2 4.7c0-.1 0-.1 0 0z"/></g></g><g id="XMLID_1611_"><g id="XMLID_2575_"><path id="XMLID_2804_" class="st3" d="m134.9 154.4-.4-.2v-14.3l.2-.1 8.3-4.8.4.2v14.3l-.2.1-8.3 4.8zm.3-14.2v13.2l7.6-4.3v-13.2l-7.6 4.3z"/></g></g></g></g><g id="XMLID_4726_"><g id="XMLID_255_"><g id="XMLID_1606_"><g id="XMLID_2571_"><path id="XMLID_2797_" class="st4" d="m134.8 154-1.3-.8v-13.9l1.3.8V154z"/></g></g><g id="XMLID_1607_"><g id="XMLID_2567_"><path id="XMLID_2790_" class="st3" d="m134.8 154.4-.2-.1-1.5-.9v-14.3l.4-.2.2.1 1.5.9v14.3l-.4.2zm-1-1.4.7.4v-13.2l-.7-.4V153z"/></g></g></g></g></g></g></g></g></g><g id="XMLID_11697_"><g id="XMLID_10420_"><g id="XMLID_10422_"><g id="XMLID_10424_"><g id="XMLID_10428_"><g id="XMLID_252_"><g id="XMLID_1602_"><g id="XMLID_2558_"><path id="XMLID_2473_" class="st17" d="m153.5 131.7-2.2-1.3h-.1l-4.3 2.5s-.1.1 0 .1l1.2 1.3 3.6 4.2 1.6 13.5.8 7c0 .1.1.1.1.1l4.3-2.5v-.1l.1-16.2c-.1-3.1-2.3-7-5.1-8.6z"/></g></g><g id="XMLID_1603_"><g id="XMLID_2554_"><path id="XMLID_2262_" class="st3" d="M154.1 159.4h-.2c-.1-.1-.2-.2-.2-.3l-.8-7-1.6-13.4-3.5-4.2-1.2-1.3c-.1-.1-.1-.2-.1-.4 0-.1.1-.2.2-.3l4.3-2.5c.1-.1.3-.1.4 0l2.2 1.3c2.9 1.7 5.2 5.7 5.2 9l-.1 16.2c0 .2-.1.3-.2.4l-4.3 2.5h-.1zm-6.8-26.4 1 1.1 3.6 4.3v.1l1.6 13.5.7 6.6 3.8-2.2.1-16c0-3.1-2.2-6.9-4.8-8.4l-2.1-1.2-3.9 2.2z"/></g></g></g></g><g id="XMLID_10427_"><g id="XMLID_247_"><g id="XMLID_1598_"><g id="XMLID_2550_"><path id="XMLID_2220_" class="st1" d="M158.3 138.8s.1 0 0 0c-.5-2.9-2.5-5.8-4.8-7.1l-2.2-1.3h-.1l-4.3 2.5s-.1.1 0 .1l1.2 1.3 3.6 4.2.4 2.8s0 .1.1.1l1.1.2h.1l4.9-2.8z"/></g></g><g id="XMLID_1573_"><g id="XMLID_2548_"><path id="XMLID_2210_" class="st2" d="M157.4 140.7c.7-.4 1-1.2.7-1.9-.8-2.4-2.5-4.6-4.5-5.8l-2.2-1.3h-.1l-4.3 2.5s-.1.1 0 .1l1.2 1.3 3.6 4.2.4 2.8s0 .1.1.1l1.1.2h.1l3.9-2.2z"/></g></g><g id="XMLID_1599_"><g id="XMLID_2544_"><path id="XMLID_2192_" class="st3" d="M153.4 142h-.2l-1.1-.2c-.2 0-.3-.2-.3-.4l-.4-2.7-3.5-4.2-1.2-1.3c-.1-.1-.1-.2-.1-.4 0-.1.1-.2.2-.3l4.3-2.5c.1-.1.3-.1.4 0l2.2 1.3c2.3 1.3 4.4 4.3 5 7.3 0 .2 0 .4-.2.5l-5.1 2.9zm-1-.9.8.2 4.8-2.7c-.6-2.7-2.5-5.4-4.6-6.6l-2.1-1.2-3.9 2.2 1 1.1 3.6 4.3v.1l.4 2.6z"/></g></g></g></g><g id="XMLID_10425_"><g id="XMLID_10426_"><g id="XMLID_246_"><g id="XMLID_1594_"><g id="XMLID_2526_"><path id="XMLID_2177_" class="st4" d="m153.9 159.1-2.9-1.7v-.1l.1-16.2c0-1.2-.9-2.8-2-3.4l-2.2-1.3V133c0-.1.1-.1.1-.1l2.1 1.2c2.8 1.6 5 5.5 5 8.7L154 159c0 .1-.1.1-.1.1z"/></g></g><g id="XMLID_1595_"><g id="XMLID_2522_"><path id="XMLID_2152_" class="st3" d="M153.9 159.4c-.1 0-.1 0-.2-.1l-2.9-1.7c-.1-.1-.2-.2-.2-.4l.1-16.2c0-1.1-.8-2.5-1.8-3.1l-2.2-1.3c-.1-.1-.2-.2-.2-.4v-3.3c0-.2.1-.3.2-.4.1-.1.3-.1.4 0l2.1 1.2c2.9 1.7 5.2 5.7 5.2 9l-.1 16.1c0 .2-.1.3-.2.4 0 .2-.1.2-.2.2zm-2.6-2.2 2.4 1.4.1-15.6c0-3.1-2.2-6.9-4.8-8.4l-1.8-1v2.7l2.1 1.2c1.2.7 2.1 2.3 2.1 3.7l-.1 16z"/></g></g></g></g></g></g></g></g></g><g id="XMLID_11698_"><g id="XMLID_10429_"><g id="XMLID_10431_"><g id="XMLID_10433_"><g id="XMLID_10437_"><g id="XMLID_245_"><g id="XMLID_1590_"><g id="XMLID_2513_"><path id="XMLID_2132_" class="st17" d="m164.4 125.4-2.3-1.3-4.5 2.5 1.3 1.4 3.6 4.2 1.6 13.5.8 7.1 4.5-2.5.1-16.2c-.1-3.2-2.3-7.1-5.1-8.7z"/></g></g><g id="XMLID_1591_"><g id="XMLID_2509_"><path id="XMLID_2116_" class="st3" d="m164.9 153.2-.3-.2v-.2l-.8-7.1-1.6-13.4-3.5-4.2-1.4-1.5.1-.3.1-.1 4.6-2.7.2.1 2.3 1.3c2.9 1.7 5.2 5.7 5.2 9l-.1 16.4-.2.1-4.6 2.8zm-6.7-26.5 1 1.1 3.7 4.4 1.6 13.5.7 6.6 3.9-2.2.1-16c0-3.1-2.2-6.9-4.8-8.4l-2.1-1.2-4.1 2.2z"/></g></g></g></g><g id="XMLID_10436_"><g id="XMLID_244_"><g id="XMLID_1586_"><g id="XMLID_2505_"><path id="XMLID_2093_" class="st1" d="M169.2 132.5c-.6-2.8-2.5-5.8-4.8-7.1l-2.3-1.3-4.5 2.5 1.3 1.4 3.6 4.2.4 2.8 1.2.2 5.1-2.7z"/></g></g><g id="XMLID_1574_"><g id="XMLID_2503_"><path id="XMLID_2081_" class="st2" d="M168.2 134.5c.7-.4 1-1.2.7-1.9-.8-2.4-2.5-4.7-4.5-5.8l-2.3-1.3-4.5 2.5 1.3 1.4 3.6 4.2.4 2.8 1.2.2 4.1-2.1z"/></g></g><g id="XMLID_1587_"><g id="XMLID_2499_"><path id="XMLID_2065_" class="st3" d="m164.2 135.7-1.5-.3v-.2l-.4-2.8-3.5-4.2-1.4-1.5.1-.3.1-.1 4.6-2.7.2.1 2.3 1.3c2.3 1.4 4.4 4.4 5 7.3l.1.3-.2.1-5.4 3zm-.9-.9.8.2 4.8-2.7c-.6-2.7-2.5-5.4-4.6-6.6l-2.1-1.2-3.9 2.2 1 1.1 3.7 4.4.3 2.6z"/></g></g></g></g><g id="XMLID_10434_"><g id="XMLID_10435_"><g id="XMLID_239_"><g id="XMLID_1582_"><g id="XMLID_2495_"><path id="XMLID_1801_" class="st4" d="m164.9 152.8-3-1.8.1-16.2c0-1.2-.9-2.8-2-3.4l-2.3-1.3v-3.5l2.3 1.3c2.8 1.6 5 5.5 5 8.7l-.1 16.2z"/></g></g><g id="XMLID_1583_"><g id="XMLID_2491_"><path id="XMLID_1782_" class="st3" d="m164.9 153.2-.2-.1-3.2-1.9v-.2l.1-16.2c0-1.1-.8-2.5-1.8-3.1l-2.4-1.4v-3.9l.3-.2.2.1 2.3 1.3c2.9 1.7 5.2 5.7 5.2 9l-.1 16.4-.4.2zm-2.7-2.3 2.4 1.4.1-15.6c0-3.1-2.2-6.9-4.8-8.4l-1.8-1v2.7l2.1 1.2c1.2.7 2.1 2.3 2.1 3.7l-.1 16z"/></g></g></g></g></g></g></g></g></g><g id="XMLID_978_"><g id="XMLID_1430_"><g id="XMLID_2888_"><path id="XMLID_1769_" class="st18" d="m24.1 122.5-1.3.8c-.7.4-1.5.4-2.2 0l-4.6-2.7c-.5-.3-.5-1.1 0-1.4l2-1.2c.2-.1.5-.1.8 0l5.3 3.1c.5.3.5 1 0 1.4z"/></g></g><g id="XMLID_4935_"><g id="XMLID_10488_"><g id="XMLID_10469_"><g id="XMLID_10476_"><g id="XMLID_235_"><g id="XMLID_1561_"><g id="XMLID_2482_"><path id="XMLID_1571_" class="st1" d="m22 107.5-2.3 1.3-4.4-2.6 2.3-1.3 4.4 2.6c.1-.1.1 0 0 0z"/></g></g><g id="XMLID_1813_"><g id="XMLID_2480_"><path id="XMLID_1567_" class="st2" d="m22 108.5-2.3 1.3-4.4-2.6 2.3-1.3 4.4 2.6c0-.1 0 0 0 0z"/></g></g><g id="XMLID_1562_"><g id="XMLID_2476_"><path id="XMLID_1480_" class="st3" d="m19.8 109.2-.2-.1-4.6-2.6v-.4l.2-.1 2.5-1.4.2.1 4.6 2.7v.4l-.2.1-2.5 1.3zm-3.8-3 3.7 2.2 1.6-1-3.7-2.2-1.6 1z"/></g></g></g></g><g id="XMLID_10475_"><g id="XMLID_234_"><g id="XMLID_1557_"><g id="XMLID_2472_"><path id="XMLID_1473_" class="st4" d="M15.3 106.3v12.2l4.4 2.6v-12.2l-4.4-2.6c0-.1 0 0 0 0z"/></g></g><g id="XMLID_1558_"><g id="XMLID_2468_"><path id="XMLID_1466_" class="st3" d="m19.7 121.4-.2-.1-4.6-2.7V106l.4-.2.2.1 4.6 2.6v12.6l-.4.3zm-4.1-3.1 3.7 2.2v-11.4l-3.7-2.2v11.4z"/></g></g></g></g><g id="XMLID_10470_"><g id="XMLID_233_"><g id="XMLID_1553_"><g id="XMLID_2464_"><path id="XMLID_1459_" class="st5" d="M22.1 107.5v12.2l-2.3 1.3v-12.2l2.3-1.3z"/></g></g><g id="XMLID_1554_"><g id="XMLID_2460_"><path id="XMLID_1447_" class="st3" d="m19.8 121.4-.4-.2v-12.6l.2-.1 2.5-1.4.4.2v12.6l-.2.1-2.5 1.4zm.3-12.4v11.4l1.6-1V108l-1.6 1z"/></g></g></g></g></g></g></g></g><g id="XMLID_980_"><g id="XMLID_1427_"><g id="XMLID_2891_"><path id="XMLID_1224_" class="st18" d="m181.7 131.4-1.3.8c-.7.4-1.5.4-2.2 0l-4.6-2.7c-.5-.3-.5-1.1 0-1.4l2-1.2c.2-.1.5-.1.8 0l5.3 3.1c.5.4.5 1.1 0 1.4z"/></g></g><g id="XMLID_1814_"><g id="XMLID_1815_"><g id="XMLID_1816_"><g id="XMLID_1891_"><g id="XMLID_1892_"><g id="XMLID_2064_"><g id="XMLID_2453_"><path id="XMLID_1076_" class="st1" d="m179.6 116.7-2.3 1.3-4.4-2.6 2.3-1.3 4.4 2.6z"/></g></g><g id="XMLID_2056_"><g id="XMLID_2451_"><path id="XMLID_1064_" class="st2" d="m179.6 117.7-2.3 1.3-4.4-2.6 2.3-1.3 4.4 2.6z"/></g></g><g id="XMLID_1894_"><g id="XMLID_2447_"><path id="XMLID_970_" class="st3" d="m177.3 118.4-.2-.1-4.6-2.6v-.4l.2-.1 2.5-1.4.2.1 4.6 2.7v.4l-.2.1-2.5 1.3zm-3.7-2.9 3.7 2.2 1.6-1-3.7-2.2-1.6 1z"/></g></g></g></g><g id="XMLID_1876_"><g id="XMLID_1877_"><g id="XMLID_1881_"><g id="XMLID_2443_"><path id="XMLID_962_" class="st4" d="M172.9 115.5v12.2l4.4 2.6v-12.2l-4.4-2.6z"/></g></g><g id="XMLID_1878_"><g id="XMLID_2439_"><path id="XMLID_956_" class="st3" d="m177.3 130.7-.2-.1-4.6-2.7v-12.6l.4-.2.2.1 4.6 2.6v12.6l-.4.3zm-4.1-3.2 3.7 2.2v-11.4l-3.7-2.2v11.4z"/></g></g></g></g><g id="XMLID_1817_"><g id="XMLID_1819_"><g id="XMLID_1823_"><g id="XMLID_2435_"><path id="XMLID_949_" class="st5" d="M179.6 116.7v12.2l-2.3 1.3V118l2.3-1.3z"/></g></g><g id="XMLID_1820_"><g id="XMLID_2431_"><path id="XMLID_942_" class="st3" d="m177.3 130.7-.4-.2v-12.6l.2-.1 2.5-1.4.4.2v12.6l-.2.1-2.5 1.4zm.4-12.5v11.4l1.6-1v-11.4l-1.6 1z"/></g></g></g></g></g></g></g></g><g id="XMLID_11695_"><g id="XMLID_10573_"><g id="XMLID_10538_"><g id="XMLID_10415_"><g id="XMLID_10463_"><g id="XMLID_10466_"><g id="XMLID_232_"><g id="XMLID_1549_"><g id="XMLID_2424_"><path id="XMLID_930_" class="st4" d="m98.6 164.2-2.4 1.4-3.4-2.1 2.4-1.4z"/></g></g><g id="XMLID_1550_"><g id="XMLID_2420_"><path id="XMLID_923_" class="st3" d="m96.2 166-4.1-2.5 3.1-1.8 4.1 2.5-3.1 1.8zm-2.7-2.5 2.7 1.7 1.8-1-2.7-1.7-1.8 1z"/></g></g></g></g><g id="XMLID_10465_"><g id="XMLID_228_"><g id="XMLID_1545_"><g id="XMLID_2416_"><path id="XMLID_916_" class="st9" d="M92.8 163.5v5.8l3.4 2v-5.8l-3.4-2z"/></g></g><g id="XMLID_1546_"><g id="XMLID_2412_"><path id="XMLID_909_" class="st3" d="m96.2 171.8-.2-.1-3.5-2.1v-6.2l.4-.2.2.1 3.5 2.1v6.2l-.4.2zm-3.1-2.7 2.7 1.6v-5l-2.7-1.6v5z"/></g></g></g></g><g id="XMLID_10464_"><g id="XMLID_227_"><g id="XMLID_1541_"><g id="XMLID_2408_"><path id="XMLID_902_" class="st16" d="M98.6 164.2v5.8l-2.4 1.4v-5.8l2.4-1.4z"/></g></g><g id="XMLID_1542_"><g id="XMLID_2404_"><path id="XMLID_895_" class="st3" d="m96.2 171.8-.4-.2v-6.2l.2-.1 2.6-1.5.4.2v6.2l-.2.1-2.6 1.5zm.3-6v5l1.7-1v-5l-1.7 1z"/></g></g></g></g></g><g id="XMLID_10459_"><g id="XMLID_10462_"><g id="XMLID_225_"><g id="XMLID_1537_"><g id="XMLID_2399_"><path id="XMLID_887_" class="st9" d="m103.9 141.5-2.4 1.4L88 135l2.4-1.4 13.5 7.9c0-.1 0-.1 0 0z"/></g></g><g id="XMLID_1798_"><g id="XMLID_2397_"><path id="XMLID_883_" class="st15" d="m103.9 142.6-2.4 1.4-13.5-7.9 2.4-1.4 13.5 7.9z"/></g></g><g id="XMLID_1538_"><g id="XMLID_2393_"><path id="XMLID_876_" class="st3" d="m101.5 143.2-.2-.1-13.6-7.9v-.4l.2-.1 2.6-1.5.2.1 13.6 8v.4l-.2.1-2.6 1.4zM88.7 135l12.8 7.5 1.7-1-12.8-7.5-1.7 1z"/></g></g></g></g><g id="XMLID_10461_"><g id="XMLID_224_"><g id="XMLID_220_"><g id="XMLID_2389_"><path id="XMLID_869_" class="st9" d="M88 135v26.6l13.4 7.9v-26.6L88 135z"/></g></g><g id="XMLID_1534_"><g id="XMLID_2385_"><path id="XMLID_862_" class="st3" d="m101.4 169.8-.2-.1-13.6-7.9v-27l.3-.2.2.1 13.6 8v27l-.3.1zm-13.1-8.4 12.8 7.5v-25.8l-12.8-7.5v25.8z"/></g></g></g></g><g id="XMLID_10549_"><g id="XMLID_218_"><g id="XMLID_1529_"><g id="XMLID_2380_"><path id="XMLID_853_" d="m99.9 166.5-10.4-6v-22.7l10.4 6v22.7z" style="fill:#f6e5cc"/></g></g><g id="XMLID_1531_"><g id="XMLID_2376_"><path id="XMLID_844_" class="st3" d="m100.3 167.1-11.1-6.4v-23.5l11.1 6.4v23.5zm-10.5-6.8 9.8 5.7v-21.9l-9.8-5.7v21.9z"/></g></g></g></g><g id="XMLID_4892_"><g id="XMLID_223_"><g id="XMLID_1824_"><g id="XMLID_2372_"><path id="XMLID_838_" class="st20" d="M91.1 141.2v15.6l7.9 4.6v-15.6z"/></g></g><g id="XMLID_1526_"><g id="XMLID_2368_"><path id="XMLID_831_" class="st3" d="m97.7 163.3-8.6-5v-16.4l8.6 5v16.4zm-7.9-5.4 7.2 4.2v-14.8l-7.2-4.2v14.8z"/></g></g></g></g><g id="XMLID_10460_"><g id="XMLID_222_"><g id="XMLID_1521_"><g id="XMLID_2364_"><path id="XMLID_824_" class="st16" d="M103.9 141.5v26.6l-2.4 1.4v-26.6l2.4-1.4c0-.1 0 0 0 0z"/></g></g><g id="XMLID_1522_"><g id="XMLID_2360_"><path id="XMLID_818_" class="st3" d="m101.4 169.8-.4-.2v-27l.2-.1 2.6-1.5.4.2v27l-.2.1-2.6 1.5zm.4-26.8v25.8l1.7-1V142l-1.7 1z"/></g></g></g></g></g></g></g></g></g><g id="XMLID_11713_"><g id="XMLID_10447_"><g id="XMLID_10411_"><g id="XMLID_10414_"><g id="XMLID_169_"><g id="XMLID_1386_"><g id="XMLID_2163_"><path id="XMLID_803_" class="st16" d="m121.2 88.8-18.8 10.8-18.9-10.9v-.1l18.8-10.8 18.9 11c0-.1 0 0 0 0z"/></g></g><g id="XMLID_1792_"><g id="XMLID_2161_"><path id="XMLID_799_" d="m121.2 91-18.8 10.8-18.9-10.9v-.1L102.4 80l18.8 11c0-.1 0 0 0 0z" style="fill:#178dc0"/></g></g><g id="XMLID_1796_"><g id="XMLID_2159_"><path id="XMLID_795_" class="st15" d="m85.4 89.6 17 9.8 17-9.8-17-9.8-17 9.8z"/></g></g><g id="XMLID_1387_"><g id="XMLID_1269_"><path id="XMLID_789_" class="st3" d="m102.4 100-.2-.1-19-11v-.4l.2-.1 19-10.9.2.1 19 11v.4l-.2.1-19 10.9zM84.2 88.7l18.2 10.5 18.2-10.5-18.2-10.5-18.2 10.5z"/></g></g></g></g><g id="XMLID_10413_"><g id="XMLID_168_"><g id="XMLID_1378_"><g id="XMLID_1265_"><path id="XMLID_782_" class="st20" d="M109.2 84.8c3.8 2.2 3.8 5.7 0 7.9s-9.9 2.2-13.7 0c-3.8-2.2-3.8-5.7 0-7.9s9.9-2.2 13.7 0z"/></g></g><g id="XMLID_1795_"><g id="XMLID_1263_"><path id="XMLID_778_" class="st12" d="M95.5 89.2c-.9.5-1.6 1.1-2 1.7.5.6 1.1 1.2 2 1.7 3.8 2.2 9.9 2.2 13.7 0 .9-.5 1.6-1.1 2-1.7-.5-.6-1.1-1.2-2-1.7-3.8-2.2-9.9-2.2-13.7 0z"/></g></g><g id="XMLID_1379_"><g id="XMLID_1259_"><path id="XMLID_771_" class="st3" d="M102.4 94.7c-2.5 0-5.1-.6-7-1.7-1.9-1.1-3-2.6-3-4.3 0-1.6 1.1-3.1 3-4.3 3.9-2.2 10.2-2.2 14.1 0 1.9 1.1 3 2.6 3 4.3 0 1.6-1.1 3.1-3 4.3-2 1.1-4.6 1.7-7.1 1.7zm0-11.2c-2.4 0-4.8.5-6.7 1.6-1.7.9-2.7 2.2-2.7 3.6s.9 2.7 2.7 3.7c3.7 2.1 9.7 2.1 13.4 0 1.7-1 2.7-2.3 2.7-3.7 0-1.4-.9-2.7-2.7-3.7-1.9-1-4.3-1.5-6.7-1.5z"/></g></g><g id="XMLID_1451_"><g id="XMLID_974_"><path id="XMLID_765_" class="st13" d="M102.4 90.7c-.5 0-.9-.1-1.3-.3-.4-.2-.7-.6-.7-1s.2-.8.7-1c.7-.4 1.9-.4 2.6 0 .4.2.7.6.7 1s-.2.8-.7 1c-.3.2-.8.3-1.3.3zm0-1.8c-.3 0-.6.1-.9.2-.2.1-.2.2-.2.3 0 .1.1.2.2.3.5.3 1.3.3 1.7 0 .2-.1.2-.2.2-.3 0-.1-.1-.2-.2-.3-.1-.1-.5-.2-.8-.2z"/></g></g></g></g><g id="XMLID_10410_"><g id="XMLID_166_"><g id="XMLID_1370_"><g id="XMLID_1251_"><path id="XMLID_757_" class="st9" d="M83.5 88.8v6.7l18.8 10.9h.1v-6.7L83.5 88.8c0-.1 0-.1 0 0z"/></g></g><g id="XMLID_1371_"><g id="XMLID_1247_"><path id="XMLID_749_" class="st3" d="m102.3 106.8-.2-.1-19-11v-7.1l.4-.2.2.1 19 11v7.1l-.4.2zM83.8 95.3l18.2 10.5v-6L83.8 89.3v6z"/></g></g></g></g><g id="XMLID_10412_"><g id="XMLID_160_"><g id="XMLID_1362_"><g id="XMLID_1243_"><path id="XMLID_735_" class="st16" d="M121.3 88.8v6.7l-18.8 10.8h-.1v-6.7l18.9-10.8c-.1 0 0 0 0 0z"/></g></g><g id="XMLID_1363_"><g id="XMLID_1239_"><path id="XMLID_728_" class="st3" d="m102.4 106.8-.4-.2v-7.1l.2-.1 19-10.9.4.2v7.1l-.2.1-19 10.9zm.3-7v6l18.2-10.5v-6l-18.2 10.5z"/></g></g></g></g><g id="XMLID_10416_"><g id="XMLID_133_"><g id="XMLID_1354_"><g id="XMLID_1235_"><path id="XMLID_722_" class="st20" d="M109.2 84.8c-1.2-.7-2.7-1.2-4.2-1.4v2.5c1.5.3 3 .7 4.2 1.4 1.3.8 2.2 1.7 2.6 2.7.7-1.8-.1-3.8-2.6-5.2z"/></g></g><g id="XMLID_1359_"><g id="XMLID_1231_"><path id="XMLID_714_" class="st3" d="m111.8 90.9-.3-.8c-.4-1-1.2-1.8-2.4-2.5-1.1-.7-2.6-1.1-4.1-1.4h-.3V83l.4.1c1.6.3 3.1.8 4.3 1.5 2.5 1.5 3.5 3.6 2.7 5.7l-.3.6zm-6.5-5.3c1.5.3 2.9.8 4.1 1.4 1 .6 1.8 1.3 2.3 2.1.2-1.5-.8-2.9-2.6-4-1-.6-2.3-1.1-3.7-1.3l-.1 1.8z"/></g></g></g></g><g id="XMLID_10419_"><g id="XMLID_132_"><g id="XMLID_1346_"><g id="XMLID_1227_"><path id="XMLID_707_" class="st14" d="M105 83.3c-3.3-.5-6.9-.1-9.5 1.4-2.5 1.4-3.3 3.4-2.6 5.2.4-1 1.3-1.9 2.6-2.7 2.6-1.5 6.2-1.9 9.5-1.4v-2.5z"/></g></g><g id="XMLID_1351_"><g id="XMLID_1223_"><path id="XMLID_700_" class="st3" d="m93.5 90.9-.8-.8c-.8-2 .2-4.2 2.7-5.7s6.3-2 9.7-1.5h.3v3.2l-.4-.1c-3.3-.5-6.9 0-9.3 1.4-1.2.7-2.1 1.6-2.4 2.5l.2 1zm8.9-7.4c-2.5 0-4.9.6-6.7 1.6-1.9 1.1-2.8 2.5-2.6 4 .5-.8 1.3-1.5 2.3-2.1 2.4-1.4 6-2 9.3-1.5v-1.9c-.8-.1-1.6-.1-2.3-.1z"/></g></g></g></g></g></g></g><g id="XMLID_11714_"><g id="XMLID_10458_"><g id="XMLID_10480_"><g id="XMLID_10486_"><g id="XMLID_110_"><g id="XMLID_1342_"><g id="XMLID_1216_"><path id="XMLID_690_" class="st16" d="M105 60.6 75.4 77.7l-10.8-6.2v-.1l29.5-17.1 10.9 6.3c0-.1 0 0 0 0z"/></g></g><g id="XMLID_1793_"><g id="XMLID_1214_"><path id="XMLID_685_" class="st15" d="M105 62.4 75.4 79.5l-10.8-6.2v-.1l29.5-17.1 10.9 6.3c0-.1 0 0 0 0z"/></g></g><g id="XMLID_1343_"><g id="XMLID_1210_"><path id="XMLID_654_" class="st3" d="m75.5 78.1-.3-.1-11-6.3v-.2c0-.1.1-.3.2-.3L94.1 54l.2.1 11 6.3v.2c0 .1-.1.3-.2.3L75.5 78.1zm-10.3-6.6 10.2 5.8 28.9-16.8-10.2-5.8-28.9 16.8z"/></g></g></g></g><g id="XMLID_10484_"><g id="XMLID_108_"><g id="XMLID_1335_"><g id="XMLID_1206_"><path id="XMLID_649_" class="st9" d="M64.5 71.6v3.7l10.8 6.2h.1v-3.7l-10.9-6.2c0-.1 0 0 0 0z"/></g></g><g id="XMLID_1336_"><g id="XMLID_1195_"><path id="XMLID_642_" class="st3" d="M75.4 81.8c-.1 0-.1 0-.2-.1l-11-6.3v-4.1l.4-.2.2.1 11 6.3v4.1l-.2.1c-.1.1-.2.1-.2.1zm-10.6-6.7L75 80.9v-3l-10.2-5.8v3z"/></g></g></g></g><g id="XMLID_10483_"><g id="XMLID_104_"><g id="XMLID_1329_"><g id="XMLID_1191_"><path id="XMLID_633_" class="st16" d="M105 60.6v3.7L75.5 81.5h-.1v-3.7L105 60.6z"/></g></g><g id="XMLID_1330_"><g id="XMLID_1187_"><path id="XMLID_627_" class="st3" d="m75.5 81.9-.2-.1c-.1-.1-.2-.2-.2-.3v-3.9l.2-.1L105 60.2l.2.1c.1.1.2.2.2.3v3.9l-.2.1-29.7 17.3zm.3-4v3l28.9-16.8v-3L75.8 77.9z"/></g></g></g></g></g></g></g><g id="XMLID_1424_"><g id="XMLID_1041_"><path id="XMLID_615_" class="st0" d="m146.9 176.3-15.6 9c-1.8 1-4 1-5.9 0l-15.6-9c-1.5-.9-1.5-3.1 0-4l17.4-10c.7-.4 1.6-.4 2.3 0l17.3 10c1.6 1 1.6 3.2.1 4z"/></g></g><g id="XMLID_11696_"><g id="XMLID_10531_"><g id="XMLID_10519_"><g id="XMLID_10521_"><g id="XMLID_10527_"><g id="XMLID_554_"><g id="XMLID_1418_"><g id="XMLID_1039_"><path id="XMLID_610_" class="st1" d="m143.4 163.6-18.7 10.8h-.1l-18.7-10.8c-.1 0-.1-.1 0-.2l18.7-10.8h.1l18.7 10.8c.1 0 .1.1 0 .2z"/></g></g><g id="XMLID_237_"><g id="XMLID_1037_"><path id="XMLID_607_" class="st2" d="m143.4 165.3-18.7 10.8h-.1l-18.7-10.8c-.1 0-.1-.1 0-.2l18.7-10.8h.1l18.7 10.8c.1.1.1.2 0 .2z"/></g></g><g id="XMLID_1419_"><g id="XMLID_1033_"><path id="XMLID_599_" class="st3" d="M124.6 174.7c-.1 0-.2 0-.2-.1l-18.7-10.8c-.1-.1-.2-.2-.2-.4s.1-.3.2-.4l18.7-10.8c.1-.1.3-.1.4 0l18.7 10.8c.1.1.2.2.2.4s-.1.3-.2.4l-18.7 10.8c0 .1-.1.1-.2.1zm-18.2-11.3 18.2 10.5 18.2-10.5-18.1-10.4-18.3 10.4z"/></g></g></g></g><g id="XMLID_10526_"><g id="XMLID_187_"><g id="XMLID_1414_"><g id="XMLID_1029_"><path id="XMLID_592_" class="st4" d="M131.5 159.5c3.8 2.2 3.8 5.7 0 7.9s-9.9 2.2-13.7 0c-3.8-2.2-3.8-5.7 0-7.9s9.9-2.2 13.7 0z"/></g></g><g id="XMLID_236_"><g id="XMLID_1027_"><path id="XMLID_588_" class="st4" d="M131.4 164.8c3.8 2.2 3.8 5.7 0 7.9s-9.9 2.2-13.7 0c-3.8-2.2-3.8-5.7 0-7.9 3.7-2.2 9.9-2.2 13.7 0z"/></g></g><g id="XMLID_1565_"><g id="XMLID_1025_"><path id="XMLID_578_" class="st2" d="M131.3 164.4c-3.8-2.2-9.9-2.2-13.7 0-.7.4-1.3.9-1.8 1.4.5.7 1.2 1.3 2.1 1.8 3.8 2.2 9.9 2.2 13.7 0 .7-.4 1.3-.9 1.8-1.4-.4-.7-1.1-1.3-2.1-1.8z"/></g></g><g id="XMLID_1415_"><g id="XMLID_1021_"><path id="XMLID_563_" class="st3" d="M124.6 169.4c-2.5 0-5.1-.6-7-1.7-1.9-1.1-3-2.6-3-4.3 0-1.6 1.1-3.1 3-4.3 3.9-2.2 10.2-2.2 14.1 0 1.9 1.1 3 2.6 3 4.3 0 1.6-1.1 3.1-3 4.3-2 1.1-4.5 1.7-7.1 1.7zm.1-11.2c-2.4 0-4.8.5-6.7 1.6-1.7 1-2.7 2.3-2.7 3.7 0 1.4.9 2.7 2.7 3.7 3.7 2.1 9.7 2.1 13.4 0 1.7-1 2.7-2.3 2.7-3.7 0-1.4-.9-2.7-2.7-3.7-1.9-1.1-4.3-1.6-6.7-1.6z"/></g></g><g id="XMLID_1452_"><g id="XMLID_971_"><path id="XMLID_552_" class="st13" d="M124.6 165.5c-.5 0-1-.1-1.4-.3-.5-.3-.7-.7-.7-1.1 0-.4.3-.8.7-1.1.8-.5 2-.5 2.8 0 .5.3.7.7.7 1.1 0 .4-.3.8-.7 1.1-.3.2-.8.3-1.4.3zm0-1.9c-.4 0-.7.1-1 .2-.2.1-.3.2-.3.3 0 .1.1.2.3.3.5.3 1.4.3 2 0 .2-.1.3-.2.3-.3 0-.1-.1-.2-.3-.3-.2-.1-.6-.2-1-.2z"/></g></g></g></g><g id="XMLID_10525_"><g id="XMLID_186_"><g id="XMLID_1410_"><g id="XMLID_1013_"><path id="XMLID_545_" class="st4" d="M105.8 163.6v6.7l18.7 10.8c.1 0 .1 0 .1-.1v-6.7l-18.7-10.8c-.1 0-.1 0-.1.1z"/></g></g><g id="XMLID_1411_"><g id="XMLID_1009_"><path id="XMLID_538_" class="st3" d="M124.5 181.4c-.1 0-.1 0-.2-.1l-18.7-10.8c-.1-.1-.2-.2-.2-.4v-6.6c0-.2.1-.3.2-.4.1-.1.3-.1.4 0l18.7 10.8c.1.1.2.2.2.4v6.6c0 .2-.1.3-.2.4 0 .1-.1.1-.2.1zM106.1 170l18.2 10.5v-6L106.1 164v6z"/></g></g></g></g><g id="XMLID_10524_"><g id="XMLID_185_"><g id="XMLID_1406_"><g id="XMLID_1005_"><path id="XMLID_531_" class="st10" d="M143.5 163.6v6.7l-18.7 10.8c-.1 0-.1 0-.1-.1v-6.7l18.7-10.8c.1 0 .1.1.1.1z"/></g></g><g id="XMLID_1407_"><g id="XMLID_1001_"><path id="XMLID_524_" class="st3" d="M124.7 181.4c-.1 0-.1 0-.2-.1s-.2-.2-.2-.4v-6.6c0-.2.1-.3.2-.4l18.7-10.8c.1-.1.3-.1.4 0 .1.1.2.2.2.4v6.6c0 .2-.1.3-.2.4l-18.7 10.8c0 .1-.1.1-.2.1zm.3-6.8v6l18.2-10.5v-6L125 174.6z"/></g></g></g></g><g id="XMLID_10523_"><g id="XMLID_184_"><g id="XMLID_1398_"><g id="XMLID_997_"><path id="XMLID_517_" class="st2" d="M131.5 159.5c-1.2-.7-2.7-1.2-4.2-1.4v2.5c1.5.3 3 .7 4.2 1.4 1.3.8 2.2 1.7 2.6 2.7.7-1.8-.1-3.8-2.6-5.2z"/></g></g><g id="XMLID_1399_"><g id="XMLID_993_"><path id="XMLID_511_" class="st3" d="M133.8 165.6v-.7c-.4-1-1.2-1.8-2.4-2.5-1.1-.7-2.6-1.1-4.1-1.4h-.3v-3.2l.4.1c1.6.3 3.1.8 4.3 1.5 2.5 1.4 3.5 3.6 2.7 5.7l-.6.5zm-6.2-5.3c1.5.3 2.9.8 4.1 1.4 1 .6 1.8 1.3 2.3 2.1.2-1.5-.8-2.9-2.6-4-1-.6-2.3-1.1-3.7-1.3l-.1 1.8z"/></g></g></g></g><g id="XMLID_10522_"><g id="XMLID_171_"><g id="XMLID_1390_"><g id="XMLID_989_"><path id="XMLID_505_" class="st10" d="M127.3 158.1c-3.3-.5-6.9-.1-9.5 1.4-2.5 1.4-3.3 3.4-2.6 5.2.4-1 1.3-1.9 2.6-2.7 2.6-1.5 6.2-1.9 9.5-1.4v-2.5z"/></g></g><g id="XMLID_1395_"><g id="XMLID_985_"><path id="XMLID_498_" class="st3" d="m115.7 165.6-.8-.7c-.8-2 .2-4.2 2.7-5.7s6.3-2 9.7-1.5h.3v3.2l-.4-.1c-3.3-.5-6.9 0-9.3 1.4-1.2.7-2.1 1.6-2.4 2.5l.2.9zm9-7.4c-2.5 0-4.9.6-6.7 1.6-1.9 1.1-2.8 2.5-2.6 4 .5-.8 1.3-1.5 2.3-2 2.4-1.4 6-2 9.3-1.5v-1.9c-.8-.1-1.6-.2-2.3-.2z"/></g></g></g></g></g></g></g></g><g id="XMLID_983_"><g id="XMLID_1030_"><g id="XMLID_1031_"><path id="XMLID_486_" class="st0" d="m214.3 122.6-12 6.8c-1.6.9-3.6.9-5.2 0l-9.1-5.2c-1-.6-1-2 0-2.6l13.9-7.9c.5-.3 1-.3 1.5 0l11 6.2c.9.7.9 2.1-.1 2.7z"/></g></g><g id="XMLID_984_"><g id="XMLID_991_"><g id="XMLID_992_"><g id="XMLID_994_"><g id="XMLID_1016_"><g id="XMLID_1017_"><g id="XMLID_1026_"><g id="XMLID_1028_"><path id="XMLID_481_" class="st9" d="m211.6 114.3-13.7 7.8h-.1l-11.3-6.4v-.1l13.7-7.8h.1l11.3 6.5c.1 0 .1 0 0 0z"/></g></g><g id="XMLID_1023_"><g id="XMLID_1024_"><path id="XMLID_477_" class="st15" d="m211.6 116.2-13.7 7.8h-.1l-11.3-6.4v-.1l13.7-7.8h.1l11.3 6.5c.1 0 .1 0 0 0z"/></g></g><g id="XMLID_1018_"><g id="XMLID_1019_"><path id="XMLID_471_" class="st3" d="m198 122.5-.2-.1-11.5-6.5v-.3c0-.1.1-.3.2-.4l13.8-7.9.2.1L212 114v.3c0 .1-.1.3-.2.4l-13.8 7.8zm-10.7-6.9 10.7 6.1 13.1-7.4-10.7-6.1-13.1 7.4z"/></g></g></g></g><g id="XMLID_1006_"><g id="XMLID_1007_"><g id="XMLID_1014_"><g id="XMLID_1015_"><path id="XMLID_464_" class="st9" d="M186.5 115.7v3.8l11.3 6.4h.1v-3.8l-11.4-6.4c.1 0 0 0 0 0z"/></g></g><g id="XMLID_1008_"><g id="XMLID_1010_"><path id="XMLID_457_" class="st3" d="M197.9 126.4c-.1 0-.1 0-.2-.1l-11.5-6.5v-4.3l.4-.3.2.1 11.5 6.5v4.3l-.2.2c-.1.1-.2.1-.2.1zm-11-7 10.7 6.1v-3.1l-10.7-6.1v3.1z"/></g></g></g></g><g id="XMLID_995_"><g id="XMLID_996_"><g id="XMLID_1003_"><g id="XMLID_1004_"><path id="XMLID_448_" class="st16" d="M211.7 114.4v3.8L198 126h-.1v-3.8l13.8-7.8c0-.1 0 0 0 0z"/></g></g><g id="XMLID_998_"><g id="XMLID_999_"><path id="XMLID_437_" class="st3" d="m198 126.4-.2-.1c-.1-.1-.2-.2-.2-.4v-4l.2-.2 13.8-7.9.2.1c.1.1.2.2.2.4v4l-.2.2-13.8 7.9zm.3-4.1v3.1l13.1-7.4v-3.1l-13.1 7.4z"/></g></g></g></g></g></g></g><g id="XMLID_988_"><g id="XMLID_990_"><path id="XMLID_426_" class="st3" d="M198.6 119.4c-.4.2-1 .2-1.3 0-.4-.2-.4-.6 0-.8.4-.2 1-.2 1.3 0 .4.3.4.6 0 .8z"/></g></g><g id="XMLID_986_"><g id="XMLID_987_"><ellipse id="XMLID_422_" transform="rotate(-89.919 200.18 110.891)" class="st3" cx="200.2" cy="110.9" rx=".5" ry=".9"/></g></g></g></g></g></svg>