<svg version="1.1" id="Layer_1" xmlns="http://www.w3.org/2000/svg" x="0" y="0" viewBox="0 0 230 230" style="enable-background:new 0 0 230 230" xml:space="preserve"><style>.st1{fill:#837fcb}.st2{fill:#9f9fdd}.st3{fill:#414242}.st4{fill:#6f6fb2}.st6{fill:#dfdfdf}.st7{fill:#a5a5a5}.st8{fill:#fff}.st9{fill:#d4d4d4}.st11{fill:#a4a4a4}</style><g id="XMLID_1297_"><g id="XMLID_2724_"><path id="XMLID_5904_" d="m48 149.8-1.9 1.1c-1 .6-2.2.6-3.1 0l-6.5-3.8c-.7-.4-.7-1.5 0-1.9l2.9-1.7c.3-.2.8-.2 1.1 0l7.5 4.3c.8.5.8 1.5 0 2z" style="fill:#d3d3d3"/></g><g id="XMLID_1298_"><g id="XMLID_1299_"><g id="XMLID_1300_"><g id="XMLID_2596_"><g id="XMLID_2598_"><g id="XMLID_2604_"><path id="XMLID_5902_" class="st1" d="m45.1 128.6-3.2 1.9-6.2-3.6 3.2-1.9 6.2 3.6z"/></g><g id="XMLID_2603_"><path id="XMLID_5900_" class="st2" d="m45.1 130-3.2 1.9-6.2-3.6 3.2-1.9 6.2 3.6z"/></g><g id="XMLID_2599_"><path id="XMLID_5896_" class="st3" d="m41.9 131.1-.3-.1-6.4-3.7v-.6l.2-.2 3.5-2 .3.1 6.4 3.7v.6l-.3.2-3.4 2zm-5.3-4.2 5.3 3.1 2.3-1.3-5.3-3.1-2.3 1.3z"/></g></g></g><g id="XMLID_1426_"><g id="XMLID_1448_"><g id="XMLID_2595_"><path id="XMLID_5892_" class="st1" d="M35.6 126.9v17.2l6.2 3.6v-17.2l-6.2-3.6z"/></g><g id="XMLID_2155_"><path id="XMLID_5888_" class="st3" d="m41.8 148.3-.3-.1-6.4-3.7v-17.8l.5-.3.3.1 6.4 3.7V148l-.5.3zm-5.7-4.4 5.3 3.1v-16.1l-5.3-3.1v16.1z"/></g></g></g><g id="XMLID_1301_"><g id="XMLID_1302_"><g id="XMLID_1306_"><path id="XMLID_5884_" class="st4" d="M45.2 128.7v17.2l-3.2 1.9v-17.2l3.2-1.9c-.1-.1 0-.1 0 0z"/></g><g id="XMLID_1303_"><path id="XMLID_5880_" class="st3" d="m41.9 148.3-.5-.3v-17.8l.3-.2 3.5-2 .5.3v17.8l-.3.2-3.5 2zm.4-17.5v16.1l2.3-1.3v-16.1l-2.3 1.3z"/></g></g></g></g></g></g></g><g id="XMLID_3404_"><g id="XMLID_12_"><g id="XMLID_3400_"><path id="XMLID_4781_" d="m191.2 151-61.6 35.6c-2.6 1.5-5.8 1.5-8.4 0l-62.7-36.4c-1.8-1-1.8-3.6 0-4.6l64.5-37.3c.8-.5 1.8-.5 2.6 0l65.3 37.9c1.8 1.1 2.1 3.8.3 4.8z" style="fill:#d5d5d5"/></g></g><g id="XMLID_47_"><g id="XMLID_5393_"><path id="XMLID_4777_" class="st6" d="m62.7 119.2-.1-35.7 116.9-1.6.1 61.4c.1.7-.2 1.4-1.1 1.9l-55.7 31.9c-1.7 1-4.6.9-6.6-.3l-51.9-30.1c-1.1-.6-1.6-26.7-1.6-27.5z"/></g><g id="XMLID_5389_"><path id="XMLID_4775_" class="st7" d="m119.7 118-.1 59.7 3.2-.6 56.8-32.7-.2-59.8-57.4 33.1z"/></g><g id="XMLID_5390_"><path id="XMLID_4771_" class="st3" d="M119.9 178.1c-1.4 0-2.8-.3-3.9-1L64.1 147c-1.4-.8-1.7-27.1-1.8-27.9L62.2 83l117.6-1.6.1 61.7c.2.8-.3 1.7-1.3 2.2L123 177.4c-.8.4-1.9.7-3.1.7zM63 83.8l.1 35.4c-.1 1.3.5 26.4 1.4 27.2l51.9 30.1c1.9 1.1 4.7 1.2 6.2.3l55.7-31.9c.7-.4 1-1 .9-1.6l-.1-61.1L63 83.8z"/></g><g id="XMLID_5383_"><g id="XMLID_5387_"><path id="XMLID_4768_" class="st6" d="m122.7 115.7 55.7-31.9c1.7-1 1.5-2.7-.5-3.8L126 49.9c-2-1.1-4.9-1.2-6.6-.3L63.7 81.5c-1.7 1-1.5 2.7.5 3.8l51.9 30.1c2 1.1 4.9 1.3 6.6.3z"/></g><g id="XMLID_5384_"><path id="XMLID_4763_" class="st3" d="M119.8 116.7c-1.4 0-2.8-.3-3.9-1L64 85.7c-1.1-.7-1.8-1.5-1.8-2.5 0-.8.5-1.5 1.3-2l55.7-31.9c1.8-1 4.9-.9 6.9.3L178 79.7c1.1.7 1.8 1.5 1.8 2.5 0 .8-.5 1.5-1.3 2L122.9 116c-.8.5-1.9.7-3.1.7zm2.5-67.3c-1 0-2 .2-2.7.6L63.9 81.8c-.6.4-1 .8-1 1.3 0 .6.5 1.3 1.4 1.8l51.9 30.1c1.9 1.1 4.7 1.2 6.2.3l55.7-31.9c.6-.4 1-.8 1-1.3 0-.6-.5-1.3-1.4-1.8l-51.9-30.1c-1-.5-2.3-.8-3.5-.8z"/></g></g><g id="XMLID_5382_"><path id="XMLID_4760_" class="st6" d="M62.6 76.9c.1.7.6 1.4 1.6 1.9l51.9 30.1c2 1.1 4.9 1.2 6.6.3l55.7-31.9c.6-.4 1-.9 1.1-1.4v7.7c.1.7-.2 1.4-1.1 1.9l-55.7 31.9c-1.7 1-4.6.9-6.6-.3l-51.9-30c-1.1-.7-1.7-1.5-1.6-2.3v-7.9z"/></g><g id="XMLID_5375_"><path id="XMLID_4756_" class="st6" d="m63.7 75.1 55.7-31.9c1.7-1 4.6-.9 6.6.3l51.9 30.1c2 1.1 2.2 2.8.5 3.8l-55.7 31.9c-1.7 1-4.6.9-6.6-.3L64.2 78.9c-2-1.1-2.2-2.8-.5-3.8zm7 3.3 46.3 26.8c1.6.9 4 1 5.4.2L172.2 77c1.4-.8 1.2-2.2-.4-3.1l-46.3-26.8c-1.6-.9-4-1-5.4-.2L70.3 75.3c-1.3.8-1.2 2.2.4 3.1z"/></g><g id="XMLID_5374_"><path id="XMLID_4754_" class="st8" d="M120.1 60.4 82.8 81.7l37.5 21.7c1.6.9 4 1 5.4.2L163.6 82l-36.9-21.4c-2-1.1-4.9-1.2-6.6-.2z"/></g><g id="XMLID_5371_"><path id="XMLID_4750_" class="st8" d="M126 45.1c-2-1.1-4.9-1.2-6.6-.3L63.7 76.7c-.5.3-.8.6-.9.9.3.5.7.9 1.4 1.3l51.9 30.1c2 1.1 4.9 1.2 6.6.3l55.7-31.9c.5-.3.8-.6.9-.9-.3-.5-.7-.9-1.4-1.3L126 45.1zm46.2 33.4L122.4 107c-1.4.8-3.8.7-5.4-.2L70.7 79.9c-1.2-.7-1.6-1.7-1.1-2.5-.5-.8-.3-1.6.6-2.2L120 46.8c1.4-.8 3.8-.7 5.4.2l46.3 26.8c1.2.7 1.6 1.7 1.1 2.5.5.9.3 1.7-.6 2.2z"/></g><g id="XMLID_5364_"><path id="XMLID_4748_" class="st6" d="m70.3 75.3 49.8-28.4c1.4-.8 3.8-.7 5.4.2l46.3 26.8c1.6.9 1.8 2.3.4 3.1l-5.9 3.4L125.9 57c-1.6-.9-4-1-5.4-.2l-43.8 25-5.9-3.4c-1.7-.9-1.8-2.3-.5-3.1z"/></g><g id="XMLID_5347_"><g id="XMLID_5353_"><g id="XMLID_5357_"><path id="XMLID_4746_" class="st6" d="m167.8 147.4.1-32.7-42.2 24.2v32.8z"/></g><g id="XMLID_5354_"><path id="XMLID_4742_" class="st3" d="M125.4 172.2v-33.4l.1-.1 42.5-24.5v33.3l-.1.1-42.5 24.6zm.6-33.1v32.2l41.6-24v-32.1L126 139.1z"/></g></g><g id="XMLID_5348_"><g id="XMLID_5352_"><path id="XMLID_4739_" class="st6" d="M167 146.8v-31.7l.9-.4-.1 32.7-42.1 24.3v-1.1z"/></g><g id="XMLID_5349_"><path id="XMLID_4735_" class="st3" d="M125.4 172.2v-1.7l.1-.1 41.2-23.8V115l1.4-.8v33.3l-.1.1-42.6 24.6zm.6-1.4v.4l41.6-24v-32.1l-.3.2v31.6l-.1.1-41.2 23.8z"/></g></g></g><g id="XMLID_5298_"><g id="XMLID_5304_"><g id="XMLID_5308_"><path id="XMLID_4731_" class="st6" d="m176.3 142.6.1-32.5-5.7 3.2-.1 32.6z"/></g><g id="XMLID_5305_"><path id="XMLID_4723_" class="st3" d="M170.3 146.4v-33.2l6.2-3.5v33.1l-6.2 3.6zm.6-32.9v32l5.2-3v-31.9l-5.2 2.9z"/></g></g><g id="XMLID_5299_"><g id="XMLID_5303_"><path id="XMLID_4720_" class="st6" d="M175.5 142v-31.4l.9-.5-.1 32.5-5.7 3.3v-1z"/></g><g id="XMLID_5300_"><path id="XMLID_4716_" class="st3" d="M170.3 146.4v-1.7l4.9-2.9v-31.4l1.4-.8v33.1l-6.3 3.7zm.6-1.4v.4l5.2-3v-31.9l-.3.2v31.4l-4.9 2.9z"/></g></g></g><g id="XMLID_5286_"><g id="XMLID_5294_"><g id="XMLID_5295_"><path id="XMLID_4710_" class="st3" d="m99 165.3-7.9-4.7v-29.9l7.9 4.4v30.2zm-7.4-4.9 6.9 4v-28.8l-6.9-3.8v28.6z"/></g></g><g id="XMLID_5289_"><g id="XMLID_5293_"><path id="XMLID_4707_" class="st6" d="M92.3 131.6v28.2l6.4 3.7v1.3l-7.4-4.3V131z"/></g><g id="XMLID_5290_"><path id="XMLID_4703_" class="st3" d="m99 165.3-7.9-4.7v-30.1l1.5.8v28.2l6.4 3.7v2.1zm-7.4-4.9 6.9 4v-.7l-6.4-3.7v-28.2l-.5-.3v28.9z"/></g></g><g id="XMLID_5287_"><g id="XMLID_5288_"><path id="XMLID_4700_" class="st6" d="M98.7 146v1.4l-6-3.3v-1.5z"/></g></g></g><g id="XMLID_5276_"><g id="XMLID_5282_"><g id="XMLID_5283_"><path id="XMLID_4694_" class="st3" d="m106.3 169.7-7.9-4.7v-30.1l7.9 4.4v30.4zm-7.3-5 6.9 4v-29.1l-6.9-3.8v28.9z"/></g></g><g id="XMLID_5277_"><g id="XMLID_5281_"><path id="XMLID_4691_" class="st6" d="M99.7 135.9v28.3l6.4 3.7v1.3l-7.4-4.3v-29.5z"/></g><g id="XMLID_5278_"><path id="XMLID_4687_" class="st3" d="m106.3 169.7-7.9-4.7v-30.1l1.5.8v28.2l6.4 3.7v2.1zm-7.3-5 6.9 4v-.7l-6.4-3.7v-28.2l-.5-.3v28.9z"/></g></g></g><g id="XMLID_5209_"><g id="XMLID_5224_"><path id="XMLID_4683_" class="st6" d="m110.8 132.5-10.2-5.9v-8.8l10.2 5.9z"/></g><g id="XMLID_5223_"><path id="XMLID_4681_" class="st6" d="m100.6 117.8 3.2-1.7L114 122l-3.2 1.7z"/></g><g id="XMLID_5222_"><path id="XMLID_4679_" class="st8" d="m102 118.5 1.8-.9 10.2 5.9-1.8.9z"/></g><g id="XMLID_5215_"><g id="XMLID_5221_"><path id="XMLID_4677_" class="st7" d="m110.8 132.5 3.2-1.7V122l-3.2 1.7z"/></g><g id="XMLID_5216_"><path id="XMLID_4671_" class="st3" d="m114.3 121.8-10.5-6.1-3.6 1.9v9.2l10.5 6.1 3.6-1.9v-9.2zm-10.5-5.3 9.5 5.5-1.9 1-.6.3-9.5-5.5 2.5-1.3zm-2.9 9.9v-8l9.5 5.5v8l-9.5-5.5zm12.7 4.2-2.5 1.4v-8l.6-.3 1.9-1v7.9z"/></g></g><g id="XMLID_5210_"><g id="XMLID_5214_"><path id="XMLID_4668_" class="st8" d="M109.2 127.7c0 1.6-1.1 2.2-2.4 1.4-1.3-.8-2.4-2.7-2.4-4.2 0-1.6 1.1-2.2 2.4-1.4 1.3.8 2.4 2.6 2.4 4.2z"/></g><g id="XMLID_5211_"><path id="XMLID_4664_" class="st3" d="M106.7 128.7c-.4 0-.8-.1-1.3-.4-1.5-.8-2.6-2.8-2.6-4.5 0-.9.3-1.6.9-1.9.6-.3 1.3-.3 2.1.2 1.5.9 2.6 2.8 2.6 4.5 0 .9-.3 1.6-.9 1.9-.2.1-.5.2-.8.2zm-2.2-6.3c-.2 0-.3 0-.5.1-.3.2-.5.7-.5 1.3 0 1.4 1 3.2 2.3 3.9.5.3 1 .4 1.4.2.3-.2.5-.7.5-1.3 0-1.4-1-3.2-2.3-3.9-.3-.2-.6-.3-.9-.3z"/></g></g></g><g id="XMLID_5208_"><path id="XMLID_4660_" class="st7" d="m122.5 46.3-.1 10-1.1.2-44.7 25.3-6.3-3.7-.9-1.2.5-1.4 50.2-28.6z"/></g><g id="XMLID_5207_"><path id="XMLID_4658_" class="st7" d="M119.7 109.9v8.1l2.7-.4L179 85l.5-.9-.3-7.5-56.5 32.7-1.5.5z"/></g><g id="XMLID_46_"><g id="XMLID_5206_"><path id="XMLID_4656_" class="st6" d="m133.7 175.7-.9 3.1s-.6.6-1.3.6c-.8 0-1.3-.6-1.3-.6l-1-2.9 4.5-.2z"/></g><g id="XMLID_5195_"><path id="XMLID_4654_" class="st7" d="m131.6 176.6-.2 2.7 1.4-.4.6-2.9z"/></g><g id="XMLID_5203_"><path id="XMLID_4650_" class="st3" d="M131.4 179.6c-.9 0-1.6-.6-1.6-.7l-.1-.1-1.2-3.4 5.5-.2-1.1 3.6.1.2s-.7.7-1.6.6zm-1-1.1c.1.1.5.4 1 .4s.9-.3 1-.4l.7-2.5-3.6.1.9 2.4z"/></g><g id="XMLID_5196_"><g id="XMLID_5201_"><path id="XMLID_4648_" class="st6" d="m127.8 171.9 2.1-8.1c.1-.8.8-1.3 1.6-1.3s1.4.6 1.6 1.3l2.1 8.1c.1.3.1.6.1.9 0 2.1-1.7 3.8-3.8 3.8-2.1 0-3.8-1.7-3.8-3.8-.1-.3 0-.6.1-.9z"/></g><g id="XMLID_5200_"><path id="XMLID_4646_" class="st8" d="m135 171.9-1.8-7.1c-.2-.1-.4-.1-.5-.1-.8 0-1.4.6-1.6 1.3l-2.1 8.1c-.1.3-.1.6-.1.9 0 .2 0 .4.1.6.7.5 1.5.9 2.4.9 2.1 0 3.8-1.7 3.8-3.8-.1-.2-.1-.5-.2-.8z"/></g><g id="XMLID_5197_"><path id="XMLID_4642_" class="st3" d="M131.4 177c-2.3 0-4.1-1.9-4.1-4.1v-.6l2.2-8.6v-.2c.3-.8 1-1.3 1.8-1.3.9 0 1.6.6 1.9 1.4l.1.2 2.2 8.6v.6c0 2.1-1.9 4-4.1 4zm-3.2-5.4-.1.4c-.1.3-.1.6-.1.8 0 1.9 1.5 3.4 3.4 3.4s3.4-1.5 3.4-3.4c0-.3 0-.5-.1-.8l-.1-.4-2-7.7c-.1-.6-.6-1-1.2-1s-1.1.4-1.2 1l-.1.3-1.9 7.4z"/></g></g></g><g id="XMLID_5187_"><g id="XMLID_5192_"><g id="XMLID_5193_"><path id="XMLID_4638_" class="st3" d="m132.7 161-.6-.3 10.1-22 .6.3z"/></g></g><g id="XMLID_5190_"><g id="XMLID_5191_"><path id="XMLID_4635_" class="st3" d="m140.2 152.2-.6-.3 8.1-17.1.6.2z"/></g></g><g id="XMLID_5188_"><g id="XMLID_5189_"><path id="XMLID_4632_" class="st3" d="m154 149.9-.6-.3 9-18.8.7.3z"/></g></g></g><g id="XMLID_5180_"><g id="XMLID_5185_"><g id="XMLID_5186_"><path id="XMLID_4628_" class="st3" d="m93.5 147.7-.4-.4 4.4-4.9.4.4z"/></g></g><g id="XMLID_5183_"><g id="XMLID_5184_"><path id="XMLID_4625_" transform="rotate(-48.723 94.755 149.149)" class="st3" d="M92.6 148.9h4.3v.5h-4.3z"/></g></g><g id="XMLID_5181_"><g id="XMLID_5182_"><path id="XMLID_4622_" transform="rotate(-48.718 102.149 154.203)" class="st3" d="M100 153.9h4.3v.5H100z"/></g></g></g><g id="XMLID_312_"><g id="XMLID_313_"><g id="XMLID_325_"><path id="XMLID_4618_" class="st4" d="m85.1 139.2 12.1-6.9v-4.4l-3.5 2.1-8.6 7.1z"/></g><g id="XMLID_324_"><path id="XMLID_4616_" class="st1" d="M85.1 137.1 53 118.2l8.5-7.1L93.7 130z"/></g><g id="XMLID_326_"><path id="XMLID_4614_" class="st2" d="M85.1 137.1 53 119.7l8.5-7.1 30.9 18.2z"/></g><g id="XMLID_323_"><path id="XMLID_4612_" class="st1" d="M97.2 127.9 65 109l-3.5 2.1L93.7 130z"/></g><g id="XMLID_322_"><path id="XMLID_4610_" class="st2" d="M95.9 128.7 65 110.6l-3.5 2 30.9 18.2z"/></g><g id="XMLID_314_"><g id="XMLID_321_"><path id="XMLID_4608_" class="st1" d="M85.1 139.2 53 120.3v-2.1l32.1 18.9z"/></g><g id="XMLID_315_"><path id="XMLID_4601_" class="st3" d="m52.7 118.1 8.4-7 .3-.2.1-.1 3.5-2 32.4 19v4.6l-12.3 7.1-32.4-19v-2.4zm32.4 18.7 8.2-6.8-31.7-18.6-8.2 6.8 31.7 18.6zM65 109.3l-3 1.7 4.9 2.9 26.8 15.7 3-1.7L65 109.3zm32 22.9v-3.8l-3.1 1.8-2.7 2.2-5.8 4.8v1.6l11.6-6.6zm-43.8-12 31.7 18.6v-1.6l-31.7-18.6v1.6z"/></g></g></g></g><g id="XMLID_343_"><g id="XMLID_349_"><g id="XMLID_354_"><path id="XMLID_4596_" class="st1" d="m183.7 96.4-6.3-3.6c-.3-.1-.6-.1-1 .1l-50.3 29c-.8.5-1.5 1.8-1.5 2.9v10.7c0 .6.2 1 .4 1.2 0 0 .1 0 .1.1l6.1 3.5 4-8.7 2.1-1.3 39.1-22.5c.8-.5 1.5-1.8 1.5-2.9v-.5l2.8-1.8 3-6.2z"/></g><g id="XMLID_353_"><path id="XMLID_4594_" class="st2" d="M177.4 95.4c-.3-.1-.6-.1-1 .1l-50.3 29c-.8.5-1.5 1.8-1.5 2.9l9 5.1 1.6 1.6 2.1-1.3 39.1-22.5c.8-.5 1.5-1.8 1.5-2.9v-.5l2.8-1.8 2.9-6-6.2-3.7z"/></g><g id="XMLID_350_"><path id="XMLID_4590_" class="st3" d="m131.4 140.7-6.5-3.7c-.1 0-.1-.1-.1-.1-.4-.3-.6-.8-.6-1.5v-10.7c0-1.3.8-2.7 1.7-3.2l50.4-29c.4-.3.9-.3 1.3-.1h.1l6.1 3.5c.3.2.4.5.2.8l-2.9 5.9-2.8 1.8v.3c0 1.3-.8 2.7-1.7 3.2l-39.1 22.5-2 1.3-4.1 9zM177 93.1c-.1 0-.3.1-.4.1l-50.4 29c-.7.4-1.4 1.6-1.4 2.6v10.7c0 .4.1.7.3.9l5.9 3.4 3.9-8.5 2.2-1.4 39.1-22.5c.7-.4 1.4-1.6 1.4-2.6v-.7l2.9-1.9 2.7-5.6-5.8-3.3-.2-.1c0-.1-.1-.1-.2-.1z"/></g></g><g id="XMLID_344_"><g id="XMLID_348_"><path id="XMLID_4587_" class="st4" d="m182.6 111.2-50.3 29c-.8.5-1.5 0-1.5-1.2v-10.7c0-1.1.7-2.4 1.5-2.9l50.3-29c.8-.5 1.5 0 1.5 1.2v10.7c.1 1.1-.6 2.4-1.5 2.9z"/></g><g id="XMLID_345_"><path id="XMLID_4583_" class="st3" d="M131.7 140.7c-.2 0-.4-.1-.6-.2-.4-.3-.7-.8-.7-1.5v-10.7c0-1.3.8-2.7 1.7-3.2l50.4-29c.5-.3 1-.3 1.4-.1.4.3.7.8.7 1.5v10.7c0 1.3-.8 2.7-1.7 3.2l-50.4 29c-.3.3-.6.3-.8.3zm51.5-44.1c-.2 0-.3.1-.4.1l-50.4 29c-.7.4-1.4 1.6-1.4 2.6V139c0 .5.1.8.3.9.2.1.5 0 .6-.1l50.4-29c.7-.4 1.4-1.6 1.4-2.6V97.5c0-.5-.1-.8-.3-.9 0 .1-.1 0-.2 0z"/></g></g></g><g id="XMLID_5366_"><path id="XMLID_4575_" class="st3" d="M119.8 110.3c-1.4 0-2.8-.3-3.9-1L64 79.2c-1.1-.7-1.8-1.5-1.8-2.5 0-.8.5-1.5 1.3-2l55.7-31.9c1.8-1 4.9-.9 6.9.3L178 73.2c1.1.7 1.8 1.5 1.8 2.5 0 .8-.5 1.5-1.3 2l-55.7 31.9c-.7.4-1.8.7-3 .7zM63.9 75.4c-.6.4-1 .8-1 1.3 0 .6.5 1.3 1.4 1.8l51.9 30.1c1.9 1.1 4.7 1.2 6.2.3L178.1 77c.6-.4 1-.8 1-1.3 0-.6-.5-1.3-1.4-1.8l-51.9-30.1c-1.9-1.1-4.7-1.2-6.2-.3L63.9 75.4zm56.2 30.9c-1.1 0-2.3-.3-3.2-.8L70.6 78.7c-.9-.5-1.5-1.3-1.5-2.1 0-.7.4-1.2 1.1-1.7L120 46.5c1.5-.9 4-.8 5.7.2L172 73.6c.9.5 1.5 1.3 1.5 2.1 0 .7-.4 1.2-1.1 1.7l-49.8 28.4c-.7.3-1.6.5-2.5.5zm2.4-59.6c-.8 0-1.6.2-2.2.5L70.5 75.6c-.3.2-.7.5-.7 1s.4 1 1.1 1.4l46.3 26.8c1.5.9 3.7.9 5 .2L172 76.7c.3-.2.7-.5.7-1s-.4-1-1.1-1.4l-46.3-26.8c-.8-.6-1.9-.8-2.8-.8z"/></g><g id="XMLID_5361_"><path id="XMLID_4571_" class="st3" d="m76.6 82.2-6.1-3.5c-.9-.5-1.5-1.3-1.5-2.1 0-.7.4-1.2 1.1-1.7l49.8-28.4c1.5-.9 4-.8 5.7.2L172 73.6c.9.5 1.5 1.3 1.5 2.1 0 .7-.4 1.2-1.1 1.7l-6.1 3.5-40.6-23.5c-1.5-.9-3.7-.9-5-.2l-44.1 25zm-6.1-6.6c-.3.2-.7.5-.7 1s.4 1 1.1 1.4l5.7 3.3 43.7-24.9c1.5-.9 4-.8 5.7.2L166.3 80l5.7-3.3c.3-.2.8-.5.7-1 0-.5-.4-1-1.1-1.4l-46.3-26.8c-1.5-.9-3.7-.9-5-.2L70.5 75.6z"/></g><g id="XMLID_5346_"><path id="XMLID_4569_" class="st7" d="M153.6 77.3V69l-18.2 10.1.3 8.3z"/></g><g id="XMLID_5345_"><path id="XMLID_4567_" class="st6" d="m135.4 79.1-17.2-10.2v8.3l17.5 10.2z"/></g><g id="XMLID_5336_"><g id="XMLID_5344_"><path id="XMLID_4565_" class="st6" d="m158.5 79.1-4.4-3.1-.5 1.3-18 10.5 3.7 2z"/></g><g id="XMLID_5343_"><path id="XMLID_4563_" class="st6" d="m153.6 69-17.8-10.6-17.6 10.5 17.2 10.2z"/></g><g id="XMLID_5342_"><path id="XMLID_4561_" class="st8" d="m151.9 70.1-16.1-9.5-17.6 10.5 17.2 10.2v-2.2z"/></g><g id="XMLID_5337_"><path id="XMLID_4555_" class="st3" d="M154 68.8 135.8 58l-17.9 10.7v8.6l17.8 10.4L154 77.5v-8.7zm-18.2-9.9L152.9 69l-17.5 9.7-16.5-9.8 16.9-10zM118.5 77v-7.4l16.5 9.8.1 3.5.1 3.9-16.7-9.8zm17.5 9.8-.1-4.1-.1-3.4 17.5-9.8V77L136 86.8z"/></g></g><g id="XMLID_5321_"><g id="XMLID_5335_"><path id="XMLID_4552_" class="st6" d="M134.6 67.9c-1.4.2-2 .8-2 1.6v.1l-4.3 2.1c-.4-.6-.7-1.3-.7-2 0-2.7 3.3-4.8 7.5-5l-.5 3.2z"/></g><g id="XMLID_5334_"><path id="XMLID_4550_" class="st6" d="M133.9 70.9c.6.3 1 .4 1.9.4.8 0 1.3 0 1.8-.4l4.5 1.9c-1.5 1.2-3.8 1.9-6.3 1.9-2.7 0-5.1-.9-6.6-2.2l4.7-1.6z"/></g><g id="XMLID_5322_"><g id="XMLID_5333_"><path id="XMLID_4548_" class="st6" d="M138.8 69.5c.1-.1 0 .2 0 0 0-.9-.6-1.9-2-2l-.5-2.8c4.2.2 7.5 2.4 7.5 5 0 .8-.3 1.6-.9 2.3l-4.1-2.5z"/></g><g id="XMLID_5323_"><g id="XMLID_5330_"><path id="XMLID_4544_" class="st3" d="m133.1 68.6-.1-.2v-.1c0-.3 0-1.1 1.7-1.3h.3l.6-3.9h-.4c-4.4.2-7.8 2.5-7.8 5.4 0 .8.2 1.5.7 2.2l.2.2 4.6-2.2.2-.1zm-.8-.4-3.8 1.8c-.3-.5-.4-1-.4-1.6 0-2.3 2.9-4.3 6.7-4.6l-.4 2.5c-1.7.3-2.1 1.2-2.1 1.9z"/></g><g id="XMLID_5327_"><path id="XMLID_4540_" class="st3" d="M137.4 69.4c-.5.3-.9.3-1.7.3-.9 0-1.2 0-1.7-.3l-.1-.1-5.5 1.9.4.4c1.6 1.4 4.1 2.2 6.8 2.2 2.5 0 4.9-.7 6.5-2l.5-.4-5.2-2.2v.2zm3.9 2.3c-1.5.9-3.5 1.5-5.6 1.5-2.3 0-4.4-.6-5.9-1.7l4-1.4c.6.3 1.1.3 1.9.3.8 0 1.3 0 1.9-.3l3.7 1.6z"/></g><g id="XMLID_5324_"><path id="XMLID_4536_" class="st3" d="M136.4 63.1h-.4l.6 3.5h.3c1.2.1 1.7.9 1.7 1.6l-.1.2.1.1v.2h.3l4.2 2.5.2-.2c.6-.8 1-1.6 1-2.5-.1-2.9-3.5-5.2-7.9-5.4zm6.4 7.2-3.6-2.2-.1-.1c-.1-.9-.8-1.8-2-2l-.4-2.1c3.8.3 6.7 2.3 6.7 4.6.1.6-.1 1.2-.6 1.8z"/></g></g></g></g><g id="XMLID_5320_"><path id="XMLID_4531_" class="st6" d="M132.6 68.3c0 1 1.4 1.8 3.1 1.8 1.7 0 3.1-.8 3.1-1.8 0-.7-.8-2.6-1.9-2.8-.4-.1-.8 1.1-1.2 1.1-.5 0-.8-1.2-1.2-1.1-1 .2-1.9 2.1-1.9 2.8z"/></g><g id="XMLID_5309_"><path id="XMLID_4529_" class="st7" d="M135.7 67.7v2.4l1.4-.3 1.2-.5.5-1-.6-1.8-1.3 1.1z"/></g><g id="XMLID_5317_"><path id="XMLID_4525_" class="st3" d="M135.7 70.4c-1.9 0-3.5-.9-3.5-2.1 0-.8.9-2.8 2.2-3.2.5-.1.7.3 1 .6.1.1.3.4.3.4.1 0 .2-.3.3-.4.2-.3.5-.8 1-.6 1.2.3 2.2 2.3 2.2 3.2 0 1.2-1.5 2.1-3.5 2.1zm-1.1-4.6c-.8.3-1.6 1.9-1.6 2.5 0 .7 1.1 1.4 2.8 1.4 1.6 0 2.8-.7 2.8-1.4 0-.6-.7-2.2-1.6-2.5l-.3.3c-.2.3-.5.7-.9.7s-.7-.4-.9-.7c-.2 0-.3-.2-.3-.3z"/></g><g id="XMLID_5379_"><path id="XMLID_4521_" class="st3" d="M119.8 118.4c-1.4 0-2.8-.3-3.9-1L64 87.4c-1.2-.7-1.9-1.7-1.8-2.6V77l.7-.1c.1.6.6 1.2 1.4 1.7l51.9 30.1c1.9 1.1 4.7 1.2 6.2.3l55.8-32c.5-.3.9-.7.9-1.1l.7.1v7.7c.2.8-.3 1.7-1.3 2.2l-55.7 31.9c-.7.4-1.8.6-3 .6zM63 78.3v6.5c-.1.7.5 1.4 1.4 2l51.9 30.1c1.9 1.1 4.7 1.2 6.2.3l55.7-31.9c.7-.4 1-1 .9-1.6v-6.5c-.2.2-.4.3-.6.4l-55.7 31.9c-1.8 1-4.9.9-6.9-.3L64 79.1c-.4-.2-.8-.5-1-.8z"/></g><g id="XMLID_5315_"><path id="XMLID_4519_" class="st6" d="M133.6 66.5c0 .7 1 1.2 2.2 1.2 1.2 0 2.2-.5 2.2-1.2s-1-1.2-2.2-1.2c-1.3 0-2.2.5-2.2 1.2z"/></g><g id="XMLID_5314_"><path id="XMLID_4517_" class="st8" d="M133.6 67.3c0 .7 1 1.2 2.2 1.2 1.2 0 2.2-.5 2.2-1.2s-1-1.2-2.2-1.2c-1.2 0-2.2.6-2.2 1.2z"/></g><g id="XMLID_5311_"><path id="XMLID_4513_" class="st3" d="M135.7 68.1c-1.4 0-2.5-.7-2.5-1.6 0-.9 1.1-1.6 2.5-1.6s2.5.7 2.5 1.6-1.1 1.6-2.5 1.6zm0-2.5c-1 0-1.8.5-1.8.9s.8.9 1.8.9 1.8-.5 1.8-.9-.7-.9-1.8-.9z"/></g></g></g><g id="XMLID_72_"><g id="XMLID_1425_"><g id="XMLID_2885_"><path id="XMLID_3804_" class="st9" d="m75.3 181-9.3 5.3c-1.5.9-3.4.8-4.9 0l-9-5.3c-1.3-.7-1.3-2.6 0-3.3l10.7-6c.6-.3 1.3-.3 1.9 0l10.6 6.1c1.3.6 1.3 2.4 0 3.2z"/></g></g><g id="XMLID_207_"><g id="XMLID_10554_"><g id="XMLID_10494_"><g id="XMLID_10500_"><g id="XMLID_217_"><g id="XMLID_1517_"><g id="XMLID_2351_"><path id="XMLID_3801_" d="M73.7 174.6 62 181.2h-.1l-11.4-6.6v-.1L62 168h.1l11.5 6.6h.1z" style="fill:#f2f2f2"/></g></g><g id="XMLID_192_"><g id="XMLID_2349_"><path id="XMLID_3798_" class="st8" d="m73.6 177-11.7 6.6h-.1L50.4 177v-.1l11.5-6.5h.1l11.5 6.6c.1-.1.1-.1.1 0z"/></g></g><g id="XMLID_1518_"><g id="XMLID_2345_"><path id="XMLID_3793_" class="st3" d="m62.1 181.7-.2-.1-11.6-6.7v-.3c0-.1.1-.3.2-.4l11.7-6.6.2.1 11.7 6.7v.3c0 .1-.1.3-.2.4l-11.8 6.6zm-10.9-7.1 10.8 6.3 11.1-6.3-10.9-6.2-11 6.2z"/></g></g></g></g><g id="XMLID_10496_"><g id="XMLID_216_"><g id="XMLID_1513_"><g id="XMLID_2341_"><path id="XMLID_3788_" class="st6" d="M50.5 174.7v2.4l11.4 6.6s.1 0 .1-.1v-2.4l-11.5-6.5c.1-.1 0-.1 0 0z"/></g></g><g id="XMLID_1514_"><g id="XMLID_2337_"><path id="XMLID_3783_" class="st3" d="M62 184c-.1 0-.1 0-.2-.1l-11.6-6.7v-2.8l.4-.3.2.1 11.6 6.7v2.8l-.2.2c-.1.1-.2.1-.2.1zm-11.1-7.2 10.8 6.3v-1.6l-10.8-6.3v1.6z"/></g></g></g></g><g id="XMLID_10495_"><g id="XMLID_215_"><g id="XMLID_1509_"><g id="XMLID_2333_"><path id="XMLID_3778_" class="st11" d="M73.8 174.7v2.4l-11.7 6.6s-.1 0-.1-.1v-2.4l11.8-6.5c0-.1 0 0 0 0z"/></g></g><g id="XMLID_1510_"><g id="XMLID_2329_"><path id="XMLID_3773_" class="st3" d="m62.1 184.1-.2-.1c-.1-.1-.2-.2-.2-.4v-2.5l.2-.2 11.8-6.7.2.1c.1.1.2.2.2.4v2.5l-.2.2-11.8 6.7zm.3-2.6v1.6l11.1-6.3v-1.6l-11.1 6.3z"/></g></g></g></g></g><g id="XMLID_10492_"><g id="XMLID_213_"><g id="XMLID_1505_"><g id="XMLID_2324_"><path id="XMLID_3767_" class="st11" d="M62.2 175.8c-1.4 0-2.5-1.1-2.5-2.5v-9.4c0-.2.1-.3.3-.3h4.4c.2 0 .3.1.3.3v9.4c0 1.4-1.2 2.5-2.5 2.5z"/></g></g><g id="XMLID_1506_"><g id="XMLID_2320_"><path id="XMLID_3762_" class="st3" d="M62.2 176.2c-1.6 0-2.8-1.3-2.8-2.8V164c0-.4.3-.6.6-.6h4.4c.4 0 .6.3.6.6v9.4c0 1.5-1.3 2.8-2.8 2.8zm-2.1-12.3v9.4c0 1.2 1 2.1 2.1 2.1 1.2 0 2.1-1 2.1-2.1v-9.4h-4.2z"/></g></g></g></g><g id="XMLID_10499_"><g id="XMLID_212_"><g id="XMLID_1501_"><g id="XMLID_2316_"><path id="XMLID_3757_" d="M64.4 162.8H60c-.2 0-.3.1-.3.3v3c0 1.4 1.1 2.5 2.5 2.5s2.5-1.1 2.5-2.5v-3c0-.1-.2-.3-.3-.3z" style="fill:#f1f1f1"/></g></g><g id="XMLID_614_"><g id="XMLID_2314_"><path id="XMLID_3754_" class="st8" d="M64.5 161.5h-4.4c-.2 0-.3.1-.3.3v3c0 1.4 1.1 2.5 2.5 2.5s2.5-1.1 2.5-2.5v-3c0-.2-.2-.3-.3-.3z"/></g></g><g id="XMLID_1502_"><g id="XMLID_2310_"><path id="XMLID_3749_" class="st3" d="M62.2 169c-1.6 0-2.8-1.3-2.8-2.8v-3c0-.4.3-.6.6-.6h4.4c.4 0 .6.3.6.6v3c0 1.5-1.3 2.8-2.8 2.8zm-2.1-5.8v2.9c0 1.2 1 2.1 2.1 2.1 1.2 0 2.1-1 2.1-2.1v-2.9h-4.2z"/></g></g></g></g><g id="XMLID_10467_"><g id="XMLID_211_"><g id="XMLID_1497_"><g id="XMLID_2306_"><circle id="XMLID_3744_" transform="rotate(-89.919 62.205 153.056)" class="st6" cx="62.2" cy="153.1" r="12.5"/></g></g><g id="XMLID_1436_"><g id="XMLID_2304_"><path id="XMLID_3741_" class="st8" d="m73.4 147.3-1.8-1.5c-2.2 3.5-6.1 5.8-10.6 5.8-2.5 0-4.8-.7-6.8-2-1.2 1.9-2 4.2-2 6.7 0 2.1.5 4 1.4 5.7 2.2 2.2 5.3 3.5 8.6 3.5 6.9 0 12.5-5.6 12.5-12.5 0-2-.5-3.9-1.3-5.7z"/></g></g><g id="XMLID_1498_"><g id="XMLID_2300_"><path id="XMLID_3736_" class="st3" d="M62.2 165.9c-7.1 0-12.9-5.8-12.8-12.9 0-7.1 5.8-12.9 12.9-12.8 7.1 0 12.9 5.8 12.8 12.9s-5.8 12.8-12.9 12.8zm0-25c-6.7 0-12.2 5.4-12.2 12.1 0 6.7 5.4 12.2 12.1 12.2s12.2-5.4 12.2-12.1-5.4-12.2-12.1-12.2z"/></g></g></g></g><g id="XMLID_10497_"><g id="XMLID_210_"><g id="XMLID_1493_"><g id="XMLID_2296_"><path id="XMLID_3731_" class="st11" d="M70.7 143.9c.1.7.2 1.3.2 2 0 6.9-5.6 12.5-12.5 12.5-3.3 0-6.3-1.3-8.5-3.3 1 5.9 6.1 10.5 12.3 10.5 6.9 0 12.5-5.6 12.5-12.5 0-3.7-1.5-6.9-4-9.2z"/></g></g><g id="XMLID_1494_"><g id="XMLID_2292_"><path id="XMLID_3726_" class="st3" d="M62.2 165.9c-6.3 0-11.7-4.5-12.7-10.8l.3-1.4.2 1.1c2.3 2.1 5.2 3.2 8.2 3.2 6.7 0 12.2-5.4 12.2-12.1 0-.7-.1-1.3-.2-2l-.2-1 .8.7c2.6 2.4 4.1 5.9 4.1 9.4.2 7.2-5.6 12.9-12.7 12.9zM50.4 156c1.3 5.4 6.1 9.2 11.8 9.2 6.7 0 12.2-5.4 12.2-12.1 0-3-1.1-6-3.2-8.2v1.1c0 7.1-5.8 12.9-12.9 12.8-2.9 0-5.6-1-7.9-2.8z"/></g></g></g></g><g id="XMLID_10397_"><g id="XMLID_209_"><g id="XMLID_1489_"><g id="XMLID_2288_"><path id="XMLID_3721_" class="st6" d="M70.9 142.1c0 4.8-3.9 7.5-8.7 7.5-4.8 0-8.7-2.7-8.6-7.5 0-4.8 3.9-8.7 8.7-8.6 4.7-.1 8.6 3.8 8.6 8.6z"/></g></g><g id="XMLID_1438_"><g id="XMLID_2286_"><path id="XMLID_3718_" class="st8" d="M71 142.1c0-1.2-.2-2.3-.7-3.4-1.6-1.9-4-3.2-6.7-3.2-4.8 0-8.7 3.9-8.7 8.6 0 1 .2 1.9.5 2.7 1.6 1.8 4.1 2.7 6.9 2.7 4.8.1 8.7-2.6 8.7-7.4z"/></g></g><g id="XMLID_1490_"><g id="XMLID_2282_"><path id="XMLID_3713_" class="st3" d="M62.2 149.9c-5.4 0-9-3.2-9-7.8 0-5 4.1-9 9-9 5 0 9 4.1 9 9 0 4.7-3.6 7.8-9 7.8zm0-16.1c-4.6 0-8.3 3.7-8.3 8.3 0 4.9 4.2 7.1 8.3 7.1 4.1 0 8.3-2.2 8.3-7.1 0-4.6-3.7-8.3-8.3-8.3z"/></g></g></g></g><g id="XMLID_10498_"><g id="XMLID_208_"><g id="XMLID_1485_"><g id="XMLID_2278_"><path id="XMLID_3708_" class="st11" d="M64.1 133.6c1.1 1.4 1.7 3.2 1.7 5.1 0 4.8-3.9 7.5-8.7 7.5-.9 0-1.7-.1-2.5-.3 1.5 2.3 4.3 3.6 7.6 3.6 4.8 0 8.7-2.7 8.7-7.5 0-4-2.9-7.5-6.8-8.4z"/></g></g><g id="XMLID_1486_"><g id="XMLID_2274_"><path id="XMLID_3703_" class="st3" d="M62.2 149.9c-3.5 0-6.4-1.4-7.9-3.8l-.5-.7.8.2c4.7 1 10.7-1 10.7-6.9 0-1.8-.6-3.5-1.6-4.9l-.6-.8.9.2c4.1.9 7.1 4.6 7.1 8.8.1 4.8-3.5 7.9-8.9 7.9zm-6.8-3.4c1.5 1.7 3.9 2.7 6.8 2.7 4.1 0 8.3-2.2 8.3-7.1 0-3.6-2.3-6.8-5.6-7.9.8 1.4 1.2 2.9 1.2 4.6 0 4.7-3.6 7.8-9 7.8-.6 0-1.1 0-1.7-.1z"/></g></g></g></g></g></g></g><g id="XMLID_49_"><g id="XMLID_2590_"><g id="XMLID_2591_"><path id="XMLID_3338_" class="st9" d="m194.2 164.7-11.7 6.6c-1.6.9-3.5.9-5.1 0l-8.8-5c-1-.6-1-2 0-2.6L182 156c.4-.3 1-.3 1.5 0l10.7 6.1c.9.6.9 2 0 2.6z"/></g></g><g id="XMLID_50_"><g id="XMLID_55_"><g id="XMLID_56_"><g id="XMLID_57_"><g id="XMLID_1230_"><g id="XMLID_1232_"><g id="XMLID_2588_"><g id="XMLID_2589_"><path id="XMLID_3335_" class="st1" d="m191.6 156.6-13.3 7.5h-.1l-11-6.2v-.1l13.3-7.5h.1l11 6.3z"/></g></g><g id="XMLID_2585_"><g id="XMLID_2586_"><path id="XMLID_3332_" class="st2" d="m191.6 158.5-13.3 7.5h-.1l-11-6.2v-.1l13.3-7.5h.1l11 6.3c0-.1 0-.1 0 0z"/></g></g><g id="XMLID_1233_"><g id="XMLID_1234_"><path id="XMLID_3327_" class="st3" d="m178.3 164.6-.2-.1-11.1-6.3v-.2c0-.1.1-.3.2-.3l13.5-7.6.2.1 11.1 6.3v.3c0 .1-.1.3-.2.3l-13.5 7.5zm-10.4-6.7 10.4 5.9 12.7-7.2-10.4-5.9-12.7 7.2z"/></g></g></g></g><g id="XMLID_70_"><g id="XMLID_71_"><g id="XMLID_1228_"><g id="XMLID_1229_"><path id="XMLID_3322_" class="st1" d="M167.2 158v3.7l11 6.2h.1v-3.7l-11.1-6.2c0-.1 0-.1 0 0z"/></g></g><g id="XMLID_86_"><g id="XMLID_87_"><path id="XMLID_3317_" class="st3" d="M178.2 168.3c-.1 0-.1 0-.2-.1l-11.1-6.3v-4.1l.4-.2.2.1 11.1 6.3v4.1l-.2.1c-.1.1-.1.1-.2.1zm-10.7-6.8 10.4 5.9v-3l-10.4-5.9v3z"/></g></g></g></g><g id="XMLID_58_"><g id="XMLID_59_"><g id="XMLID_64_"><g id="XMLID_65_"><path id="XMLID_3312_" class="st4" d="M191.6 156.7v3.7l-13.3 7.5h-.1v-3.7l13.4-7.5c0-.1 0-.1 0 0z"/></g></g><g id="XMLID_60_"><g id="XMLID_61_"><path id="XMLID_3307_" class="st3" d="m178.3 168.4-.2-.1c-.1-.1-.2-.2-.2-.3v-3.9l.2-.1 13.5-7.6.2.1c.1.1.2.2.2.3v3.9l-.2.1-13.5 7.6zm.3-4v3l12.7-7.2v-3l-12.7 7.2z"/></g></g></g></g></g></g></g><g id="XMLID_53_"><g id="XMLID_54_"><path id="XMLID_3299_" class="st3" d="M178.9 161.6c-.4.2-.9.2-1.3 0s-.4-.5 0-.7c.4-.2.9-.2 1.3 0s.4.5 0 .7z"/></g></g><g id="XMLID_51_"><g id="XMLID_52_"><ellipse id="XMLID_3296_" transform="rotate(-89.919 180.448 153.278)" class="st3" cx="180.4" cy="153.3" rx=".5" ry=".9"/></g></g></g></g></svg>