<svg version="1.1" id="Layer_1" xmlns="http://www.w3.org/2000/svg" x="0" y="0" viewBox="0 0 230 230" style="enable-background:new 0 0 230 230" xml:space="preserve"><style>.st0{fill:#d4d4d4}.st2{fill:#fff}.st3{fill:#414242}.st4{fill:#dfdfdf}.st5{fill:#a4a4a4}.st8{fill:#a5a5a5}.st9{fill:#837fcb}.st10{fill:#9f9fdd}.st11{fill:#6f6fb2}</style><g id="XMLID_1032_"><g id="XMLID_1220_"><g id="XMLID_1221_"><path id="XMLID_399_" class="st0" d="m54.6 147-9.1 5.2c-1.5.8-3.3.8-4.8 0l-8.8-5.2c-1.3-.7-1.2-2.5 0-3.3l10.5-5.9c.6-.3 1.3-.3 1.9 0l10.4 5.9c1.2.8 1.2 2.6-.1 3.3z"/></g></g><g id="XMLID_1034_"><g id="XMLID_1035_"><g id="XMLID_1151_"><g id="XMLID_1207_"><g id="XMLID_1208_"><g id="XMLID_1218_"><g id="XMLID_1219_"><path id="XMLID_396_" d="m53.1 140.9-11.4 6.5h-.1l-11.1-6.5v-.1l11.3-6.4h.1l11.3 6.4c-.1 0-.1 0-.1.1z" style="fill:#f2f2f2"/></g></g><g id="XMLID_1215_"><g id="XMLID_1217_"><path id="XMLID_390_" class="st2" d="m53 143.1-11.4 6.5h-.1l-11.1-6.5v-.1l11.3-6.4h.1L53 143v.1z"/></g></g><g id="XMLID_1209_"><g id="XMLID_1211_"><path id="XMLID_385_" class="st3" d="m41.7 147.7-.2-.1-11.4-6.6v-.3c0-.1.1-.3.2-.4l11.5-6.5.2.2 11.4 6.5v.3c0 .1-.1.3-.2.4l-11.5 6.5zm-10.6-6.9 10.6 6.2 10.8-6.1-10.7-6.1-10.7 6z"/></g></g></g></g><g id="XMLID_1189_"><g id="XMLID_1190_"><g id="XMLID_1197_"><g id="XMLID_1204_"><path id="XMLID_380_" class="st4" d="M30.4 140.9v2.4l11.1 6.5s.1 0 .1-.1v-2.4l-11.2-6.4c.1-.1 0-.1 0 0z"/></g></g><g id="XMLID_1192_"><g id="XMLID_1193_"><path id="XMLID_375_" class="st3" d="M41.6 150c-.1 0-.1 0-.2-.1l-11.3-6.6v-2.8l.4-.3.2.1 11.3 6.6v2.8l-.2.2c-.1.1-.1.1-.2.1zm-10.9-7 10.6 6.2v-1.6l-10.6-6.2v1.6z"/></g></g></g></g><g id="XMLID_1153_"><g id="XMLID_1165_"><g id="XMLID_1186_"><g id="XMLID_1188_"><path id="XMLID_370_" class="st5" d="M53.2 140.9v2.4l-11.4 6.5s-.1 0-.1-.1v-2.4l11.5-6.4c-.1-.1 0 0 0 0z"/></g></g><g id="XMLID_1166_"><g id="XMLID_1183_"><path id="XMLID_365_" class="st3" d="m41.8 150.1-.2-.1c-.1-.1-.2-.2-.2-.4v-2.5l.2-.2 11.6-6.6.2.1c.1.1.2.2.2.4v2.5l-.2.2-11.6 6.6zm.2-2.6v1.6l10.8-6.1v-1.6L42 147.5z"/></g></g></g></g></g><g id="XMLID_1140_"><g id="XMLID_1141_"><g id="XMLID_1148_"><g id="XMLID_1149_"><path id="XMLID_359_" class="st5" d="M41.8 142c-1.3 0-2.4-1.1-2.4-2.4v-9.2c0-.2.1-.3.3-.3H44c.2 0 .3.1.3.3v9.2c-.1 1.3-1.2 2.4-2.5 2.4z"/></g></g><g id="XMLID_1143_"><g id="XMLID_1144_"><path id="XMLID_342_" class="st3" d="M41.8 142.3c-1.5 0-2.8-1.2-2.8-2.8v-9.2c0-.4.3-.6.6-.6h4.3c.4 0 .6.3.6.6v9.2c.1 1.6-1.2 2.8-2.7 2.8zm-2.1-11.9v9.2c0 1.1.9 2.1 2.1 2.1 1.1 0 2.1-.9 2.1-2.1v-9.2h-4.2z"/></g></g></g></g><g id="XMLID_1127_"><g id="XMLID_1128_"><g id="XMLID_1137_"><g id="XMLID_1139_"><path id="XMLID_337_" d="M44 129.3h-4.3c-.2 0-.3.1-.3.3v2.9c0 1.3 1.1 2.4 2.4 2.4 1.3 0 2.4-1.1 2.4-2.4v-2.9c0-.1-.1-.3-.2-.3z" style="fill:#f1f1f1"/></g></g><g id="XMLID_1135_"><g id="XMLID_1136_"><path id="XMLID_334_" class="st2" d="M44 128h-4.3c-.2 0-.3.1-.3.3v2.9c0 1.3 1.1 2.4 2.4 2.4 1.3 0 2.4-1.1 2.4-2.4v-2.9c.1-.2 0-.3-.2-.3z"/></g></g><g id="XMLID_1129_"><g id="XMLID_1131_"><path id="XMLID_329_" class="st3" d="M41.8 135.3c-1.5 0-2.8-1.2-2.8-2.8v-2.9c0-.4.3-.6.6-.6h4.3c.4 0 .6.3.6.6v2.9c.1 1.6-1.2 2.8-2.7 2.8zm-2.1-5.6v2.9c0 1.1.9 2.1 2.1 2.1 1.1 0 2.1-.9 2.1-2.1v-2.9h-4.2z"/></g></g></g></g><g id="XMLID_1086_"><g id="XMLID_1110_"><g id="XMLID_1124_"><g id="XMLID_1126_"><circle id="XMLID_309_" transform="rotate(-47.468 41.834 119.747)" class="st4" cx="41.8" cy="119.7" r="12.2"/></g></g><g id="XMLID_1120_"><g id="XMLID_1122_"><path id="XMLID_305_" class="st2" d="M52.7 114.2c-.6-.5-1.2-1-1.8-1.4-2.2 3.4-6 5.7-10.3 5.7-2.5 0-4.7-.7-6.6-2-1.2 1.9-1.9 4.1-1.9 6.6 0 2 .5 3.9 1.4 5.6 2.2 2.1 5.2 3.4 8.4 3.4 6.8 0 12.2-5.5 12.3-12.2-.1-2.2-.6-4.1-1.5-5.7z"/></g></g><g id="XMLID_1112_"><g id="XMLID_1114_"><path id="XMLID_300_" class="st3" d="M41.8 132.3c-6.9 0-12.6-5.7-12.6-12.6 0-6.9 5.7-12.6 12.6-12.6 6.9 0 12.6 5.7 12.6 12.6 0 7-5.7 12.6-12.6 12.6zm0-24.5c-6.6 0-11.9 5.3-11.9 11.9 0 6.6 5.3 11.9 11.9 11.9 6.6 0 11.9-5.3 11.9-11.9 0-6.5-5.3-11.8-11.9-11.9z"/></g></g></g></g><g id="XMLID_1066_"><g id="XMLID_1069_"><g id="XMLID_1078_"><g id="XMLID_1081_"><path id="XMLID_295_" class="st5" d="M50.2 110.8c.1.7.2 1.3.2 2 0 6.8-5.5 12.2-12.3 12.2-3.2 0-6.1-1.2-8.3-3.3.9 5.8 6 10.2 12.1 10.3 6.8 0 12.2-5.5 12.3-12.2-.1-3.6-1.6-6.8-4-9z"/></g></g><g id="XMLID_1071_"><g id="XMLID_1072_"><path id="XMLID_290_" class="st3" d="M41.8 132.3c-6.2 0-11.4-4.4-12.4-10.5l.3-1.3.2 1c2.2 2 5.1 3.2 8.1 3.2 6.6 0 11.9-5.3 11.9-11.9 0-.6-.1-1.3-.2-1.9l-.2-1 .7.7c2.6 2.4 4 5.7 4 9.2.2 6.9-5.5 12.5-12.4 12.5zm-11.5-9.7c1.3 5.3 6 9 11.5 9 6.6 0 11.9-5.3 11.9-11.9 0-3-1.1-5.8-3.1-8v1c0 6.9-5.7 12.6-12.6 12.6-2.8 0-5.5-.9-7.7-2.7z"/></g></g></g></g><g id="XMLID_1050_"><g id="XMLID_1051_"><g id="XMLID_1063_"><g id="XMLID_1065_"><path id="XMLID_285_" class="st4" d="M50.3 109c0 4.7-3.8 7.3-8.5 7.3s-8.5-2.6-8.5-7.3c0-4.7 3.8-8.5 8.5-8.5 4.7.1 8.5 3.9 8.5 8.5z"/></g></g><g id="XMLID_1059_"><g id="XMLID_1060_"><path id="XMLID_282_" class="st2" d="M50.4 109c0-1.2-.2-2.3-.7-3.3-1.6-1.9-3.9-3.1-6.6-3.1-4.7 0-8.5 3.8-8.5 8.5 0 1 .2 1.8.5 2.6 1.5 1.7 4 2.7 6.8 2.7 4.7-.1 8.5-2.7 8.5-7.4z"/></g></g><g id="XMLID_1052_"><g id="XMLID_1053_"><path id="XMLID_277_" class="st3" d="M41.8 116.7c-5.3 0-8.8-3.1-8.8-7.7 0-4.9 4-8.8 8.8-8.8 4.9 0 8.8 4 8.8 8.8.1 4.6-3.5 7.7-8.8 7.7zm.1-15.8c-4.5 0-8.1 3.6-8.1 8.1 0 4.8 4.1 7 8.1 7s8.1-2.1 8.1-7c0-4.4-3.7-8.1-8.1-8.1z"/></g></g></g></g><g id="XMLID_1036_"><g id="XMLID_1038_"><g id="XMLID_1046_"><g id="XMLID_1048_"><path id="XMLID_272_" class="st5" d="M43.7 100.8c1 1.4 1.7 3.1 1.7 5 0 4.7-3.8 7.3-8.5 7.3-.8 0-1.6-.1-2.4-.3 1.4 2.3 4.2 3.5 7.4 3.5 4.7 0 8.5-2.6 8.5-7.3-.1-4-2.9-7.4-6.7-8.2z"/></g></g><g id="XMLID_1040_"><g id="XMLID_1042_"><path id="XMLID_267_" class="st3" d="M41.8 116.7c-3.4 0-6.2-1.3-7.7-3.7l-.4-.7.8.2c4.6 1 10.5-.9 10.5-6.7 0-1.7-.5-3.4-1.6-4.8l-.5-.7.9.2c4 .9 6.9 4.5 6.9 8.6 0 4.5-3.6 7.6-8.9 7.6zm-6.6-3.4c1.4 1.7 3.8 2.7 6.6 2.7 4 0 8.1-2.1 8.1-7 0-3.5-2.3-6.6-5.5-7.7.8 1.4 1.2 2.9 1.2 4.5 0 4.6-3.6 7.7-8.8 7.6-.5 0-1.1 0-1.6-.1z"/></g></g></g></g></g></g></g><g id="XMLID_3405_"><g id="XMLID_3402_"><g id="XMLID_3403_"><path id="XMLID_2130_" d="m199.5 170.8-58.8 33.9c-2.7 1.5-6 1.5-8.6 0l-66.6-39.3c-1.8-1-1.8-3.6 0-4.7l61.8-35.6c.8-.5 1.9-.5 2.7 0l69.3 40.9c1.8 1 2 3.7.2 4.8z" style="fill:#d5d5d5"/></g></g><g id="XMLID_48_"><g id="XMLID_9749_"><g id="XMLID_2261_"><path id="XMLID_2119_" class="st4" d="m177.1 164.3.1-101.1-77.3-8L60 53.8 59.9 155v.3c.1 1.1.9 2.2 2.4 3.1l58.4 33.9c2.9 1.7 7.4 1.9 10 .4l44.7-25.7c1.2-.7 1.8-1.7 1.7-2.7z"/></g><g id="XMLID_9994_"><path id="XMLID_2117_" class="st8" d="m130.7 192.7 42.9-25c1.2-.7 2.2-2.3 2.1-3.3l.1-101.1-10.1-1-40.3 27.9-.1 103.5c1.5-.1 4.3-.4 5.4-1z"/></g><g id="XMLID_2258_"><path id="XMLID_2105_" class="st3" d="M126.4 194c-2 0-4.1-.5-5.8-1.4l-58.4-33.9c-1.6-.9-2.5-2.1-2.6-3.4v-.3l.1-101.4L99.9 55l77.6 8-.1 101.4c.1 1.1-.6 2.2-1.9 2.9L130.8 193c-1.1.6-2.7 1-4.4 1zm-66-139.8L60.2 155v.3c.1 1 .9 2.1 2.3 2.9l58.4 33.9c2.9 1.7 7.2 1.8 9.6.4l44.7-25.7c1.1-.6 1.6-1.4 1.6-2.3l.2-101-77-8-39.6-1.3z"/></g></g><g id="XMLID_9747_"><g id="XMLID_10518_"><path id="XMLID_2094_" class="st4" d="m175.5 65.6-44.7 25.7c-2.6 1.5-7 1.3-10-.4L62.5 57c-2.9-1.7-3.3-4.3-.7-5.7l44.7-25.7c2.6-1.5 7-1.3 10 .4l58.4 33.9c2.9 1.6 3.2 4.2.6 5.7z"/></g><g id="XMLID_9991_"><path id="XMLID_2092_" class="st2" d="m174.8 62-58.4-33.9c-2.9-1.7-7.4-1.9-10-.4L61.8 53.4c-.7.4-1.1.9-1.4 1.4.4.7 1.1 1.5 2.1 2.1l58.4 33.9c2.9 1.7 7.4 1.9 10 .4l44.7-25.7c.7-.4 1.1-.9 1.4-1.4-.4-.8-1.1-1.5-2.2-2.1z"/></g><g id="XMLID_2256_"><path id="XMLID_2080_" class="st3" d="M126.6 92.6c-2 0-4.1-.5-5.8-1.4L62.3 57.3c-1.6-1-2.6-2.2-2.6-3.5 0-1.1.7-2.1 1.9-2.8l44.7-25.7c2.6-1.5 7.2-1.3 10.3.4L175 59.6c1.6 1 2.6 2.2 2.6 3.5 0 1.1-.7 2.1-1.9 2.8L131 91.6c-1.2.6-2.8 1-4.4 1zm-15.8-67.8c-1.6 0-3.1.3-4.2.9L61.9 51.5c-1 .6-1.6 1.4-1.6 2.2 0 1.1.8 2.1 2.3 3L121 90.6c2.9 1.7 7.2 1.8 9.6.4l44.7-25.7c1-.6 1.6-1.4 1.6-2.2 0-1.1-.8-2.1-2.3-3l-58.4-33.9c-1.5-.9-3.5-1.4-5.4-1.4z"/></g></g><g id="XMLID_9745_"><g id="XMLID_10514_"><path id="XMLID_2077_" class="st4" d="m164.8 64.5-35.1 20.2c-1.9 1.1-5.3 1-7.5-.3L73 56c-2.2-1.3-2.5-3.2-.5-4.3l35.1-20.2c1.9-1.1 5.3-1 7.5.3l49.2 28.5c2.2 1.2 2.5 3.1.5 4.2z"/></g><g id="XMLID_9992_"><path id="XMLID_2067_" class="st2" d="M107.9 44.8 83.1 58.9l41.7 24.2c2.2 1.3 5.6 1.4 7.5.3l24.8-14.1-41.7-24.2c-2.2-1.3-5.6-1.4-7.5-.3z"/></g><g id="XMLID_10515_"><path id="XMLID_1873_" class="st3" d="M126.5 85.8c-1.5 0-3.1-.4-4.4-1.1L72.9 56.2c-1.3-.7-2-1.7-2-2.7 0-.8.5-1.6 1.5-2.1l35.1-20.2c2-1.2 5.5-1 7.8.3L164.5 60c1.3.7 2 1.7 2 2.7 0 .8-.5 1.6-1.5 2.1L129.9 85c-.9.6-2.2.8-3.4.8zM110.9 31c-1.2 0-2.3.2-3.1.7L72.7 51.9c-.7.4-1.1 1-1.1 1.6 0 .8.6 1.6 1.7 2.2l49.2 28.5c2.1 1.2 5.4 1.4 7.2.3l35.1-20.2c.7-.4 1.1-1 1.1-1.6 0-.8-.6-1.6-1.7-2.2L115 32c-1.2-.7-2.7-1-4.1-1z"/></g></g><g id="XMLID_10507_"><path id="XMLID_1804_" class="st4" d="m73 56 5.2 3 29.3-16.9c1.9-1.1 5.3-1 7.5.3l44 25.5 5.8-3.3c1.9-1.1 1.7-3.1-.5-4.3l-49.2-28.5c-2.2-1.3-5.6-1.4-7.5-.3L72.5 51.6c-1.9 1.1-1.7 3.1.5 4.4z"/></g><g id="XMLID_9824_"><g id="XMLID_9822_"><g id="XMLID_10357_"><path id="XMLID_1802_" class="st4" d="m142.5 171.8-8.8 5v-16.7l8.8-5.1z"/></g><g id="XMLID_10358_"><path id="XMLID_1786_" class="st3" d="M133.4 177.3V160l.1-.1 9.2-5.3v17.3l-.1.1-9.2 5.3zm.5-17.1v16.2l8.3-4.8v-16.2l-8.3 4.8z"/></g></g><g id="XMLID_9831_"><g id="XMLID_10353_"><path id="XMLID_1783_" class="st4" d="M140.6 156.1v14.4l-6.9 4v2.3l8.8-5V155z"/></g><g id="XMLID_10354_"><path id="XMLID_1779_" class="st3" d="M133.4 177.3v-2.9l6.9-4V156l2.4-1.4v17.3l-.1.1-9.2 5.3zm.5-2.7v1.8l8.3-4.8v-16.2l-1.4.8v14.4l-6.9 4z"/></g></g></g><g id="XMLID_9833_"><g id="XMLID_9835_"><g id="XMLID_10349_"><path id="XMLID_1775_" class="st4" d="m169.6 156.2-8.8 5.1v-16.8l8.8-5z"/></g><g id="XMLID_10350_"><path id="XMLID_1771_" class="st3" d="M160.6 161.7v-17.3l.1-.1 9.2-5.3v17.3l-.1.1-9.2 5.3zm.5-17v16.2l8.3-4.8v-16.2l-8.3 4.8z"/></g></g><g id="XMLID_9834_"><g id="XMLID_10345_"><path id="XMLID_1576_" class="st4" d="m167.8 140.6-.1 14.3-6.9 4v2.4l8.8-5.1v-16.7z"/></g><g id="XMLID_10346_"><path id="XMLID_1570_" class="st3" d="M160.6 161.7v-2.9l6.9-4v-14.4l2.4-1.4v17.3l-.1.1-9.2 5.3zm.5-2.6v1.8l8.3-4.8v-16.2l-1.4.8v14.4l-6.9 4z"/></g></g></g><g id="XMLID_9843_"><g id="XMLID_9845_"><g id="XMLID_10341_"><path id="XMLID_1566_" class="st4" d="m142.5 146.1-8.8 5v-16.7l8.8-5.1z"/></g><g id="XMLID_10342_"><path id="XMLID_1482_" class="st3" d="M133.4 151.5v-17.3l.1-.1 9.2-5.3v17.3l-.1.1-9.2 5.3zm.6-17v16.2l8.3-4.8v-16.2l-8.3 4.8z"/></g></g><g id="XMLID_9844_"><g id="XMLID_10337_"><path id="XMLID_1479_" class="st4" d="M140.6 130.4v14.4l-6.9 4v2.3l8.8-5v-16.8z"/></g><g id="XMLID_10338_"><path id="XMLID_1475_" class="st3" d="M133.4 151.5v-2.9l6.9-4v-14.4l2.4-1.4v17.3l-.1.1-9.2 5.3zm.5-2.6v1.8l8.3-4.8v-16.2l-1.4.8v14.4l-6.9 4z"/></g></g></g><g id="XMLID_9840_"><g id="XMLID_9842_"><g id="XMLID_10333_"><path id="XMLID_1471_" class="st4" d="m169.7 130.5-8.8 5.1v-16.8l8.8-5z"/></g><g id="XMLID_10334_"><path id="XMLID_1467_" class="st3" d="M160.6 136v-17.3l.1-.1 9.2-5.3v17.3l-.1.1-9.2 5.3zm.5-17v16.2l8.3-4.8v-16.2l-8.3 4.8z"/></g></g><g id="XMLID_9841_"><g id="XMLID_10329_"><path id="XMLID_1464_" class="st4" d="M167.8 114.8v14.4l-6.9 4v2.4l8.8-5.1v-16.7z"/></g><g id="XMLID_10330_"><path id="XMLID_1460_" class="st3" d="M160.6 136v-2.9l6.9-4v-14.4l2.4-1.4v17.3l-.1.1-9.2 5.3zm.5-2.7v1.8l8.3-4.8v-16.2l-1.4.9v14.4l-6.9 3.9z"/></g></g></g><g id="XMLID_9837_"><g id="XMLID_9839_"><g id="XMLID_10325_"><path id="XMLID_1455_" class="st4" d="m156.1 138.4-8.8 5.1v-16.7l8.8-5.1z"/></g><g id="XMLID_10326_"><path id="XMLID_1446_" class="st3" d="M147 143.9v-17.3l.1-.1 9.2-5.3v17.3l-.1.1-9.2 5.3zm.5-17v16.2l8.3-4.8v-16.2l-8.3 4.8z"/></g></g><g id="XMLID_9838_"><g id="XMLID_10321_"><path id="XMLID_1443_" class="st4" d="M154.2 122.8v14.4l-6.9 3.9v2.4l8.8-5.1v-16.7z"/></g><g id="XMLID_10322_"><path id="XMLID_1437_" class="st3" d="M147 143.9V141l6.9-4v-14.4l2.4-1.4v17.3l-.1.1-9.2 5.3zm.5-2.6v1.8l8.3-4.8v-16.2l-1.4.8v14.4l-6.9 4z"/></g></g></g><g id="XMLID_9887_"><g id="XMLID_9892_"><g id="XMLID_10285_"><path id="XMLID_1225_" class="st4" d="m68.3 147.9 8.8 5.1v-16.7l-8.8-5.1z"/></g><g id="XMLID_10286_"><path id="XMLID_1079_" class="st3" d="M77.3 153.4 68 148v-17.3l9.3 5.4v17.3zm-8.8-5.6 8.3 4.8v-16.2l-8.3-4.8v16.2z"/></g></g><g id="XMLID_9888_"><g id="XMLID_10281_"><path id="XMLID_1070_" class="st2" d="M70.2 133.1v14.4l6.9 4v2.3l-8.8-5.1V132z"/></g><g id="XMLID_10282_"><path id="XMLID_1058_" class="st3" d="M77.3 153.4 68 148v-17.3l2.4 1.4v14.4l6.9 4v2.9zm-8.8-5.6 8.3 4.8v-1.8l-6.9-4v-14.4l-1.4-.8v16.2z"/></g></g></g><g id="XMLID_9893_"><g id="XMLID_9898_"><g id="XMLID_2247_"><path id="XMLID_979_" class="st9" d="m109.1 171 8.8 5.1v-16.8l-8.8-5.1z"/></g><g id="XMLID_2244_"><path id="XMLID_966_" class="st3" d="m118.1 176.5-9.3-5.4v-17.3l9.3 5.4v17.3zm-8.8-5.7 8.3 4.8v-16.2l-8.3-4.8v16.2z"/></g></g><g id="XMLID_9894_"><g id="XMLID_2243_"><path id="XMLID_963_" class="st2" d="m111 156.2-.1 14.3 7 4v2.4l-8.8-5.1v-16.7z"/></g><g id="XMLID_1286_"><path id="XMLID_959_" class="st3" d="m118.1 176.5-9.3-5.4v-17.3l2.4 1.4v14.4l6.9 4v2.9zm-8.8-5.7 8.3 4.8v-1.8l-6.9-4v-14.4l-1.4-.8v16.2z"/></g></g></g><g id="XMLID_9889_"><g id="XMLID_9891_"><g id="XMLID_10221_"><path id="XMLID_955_" class="st4" d="m156 164.2-8.8 5 .1-16.7 8.8-5.1z"/></g><g id="XMLID_10222_"><path id="XMLID_951_" class="st3" d="M147 169.6v-17.3l.1-.1 9.2-5.3v17.3l-.1.1-9.2 5.3zm.5-17v16.2l8.3-4.8v-16.2l-8.3 4.8z"/></g></g><g id="XMLID_9890_"><g id="XMLID_10217_"><path id="XMLID_948_" class="st4" d="M154.2 148.5v14.4l-7 4v2.3l8.8-5 .1-16.8z"/></g><g id="XMLID_10218_"><path id="XMLID_944_" class="st3" d="M147 169.6v-2.9l6.9-4v-14.4l2.4-1.4v17.3l-.1.1-9.2 5.3zm.5-2.6v1.8l8.3-4.8v-16.2l-1.4.8V163l-6.9 4z"/></g></g></g><g id="XMLID_9965_"><g id="XMLID_10199_"><path id="XMLID_940_" transform="rotate(-59.982 73.647 137.528)" class="st3" d="M73.4 133.5h.5v8h-.5z"/></g></g><g id="XMLID_9852_"><g id="XMLID_9909_"><g id="XMLID_10196_"><path id="XMLID_937_" class="st3" d="m147.4 155.7-.3-.4 7-4 .2.4z"/></g></g><g id="XMLID_9899_"><g id="XMLID_10195_"><path id="XMLID_934_" transform="rotate(-89.919 150.714 154.698)" class="st3" d="M149.5 154.5h2.4v.5h-2.4z"/></g></g><g id="XMLID_9874_"><g id="XMLID_10192_"><path id="XMLID_929_" class="st3" d="M150.4 157.8c-.1 0-.2 0-.3-.1-.2-.1-.3-.4-.3-.7 0-.6.3-1.2.8-1.4l.2-.1c.2-.1.5-.1.7 0 .2.1.3.4.3.7 0 .6-.3 1.2-.8 1.4l-.2.1c-.2.1-.3.1-.4.1zm.7-1.9h-.1l-.2.1c-.3.2-.5.6-.5 1 0 .2 0 .3.1.3h.2l.2-.1c.3-.2.5-.6.5-1-.1-.2-.2-.3-.2-.3z"/></g></g></g><g id="XMLID_9966_"><g id="XMLID_10186_"><path id="XMLID_925_" class="st3" d="m133.8 139.2-.2-.5 6.9-3.9.3.4z"/></g></g><g id="XMLID_10004_"><g id="XMLID_10185_"><path id="XMLID_922_" class="st3" d="m160.8 129.4-.2-.4 6.9-4 .2.5z"/></g></g><g id="XMLID_4939_"><g id="XMLID_4945_"><g id="XMLID_4995_"><path id="XMLID_919_" class="st4" d="m142.6 120.5-8.8 5.1v-16.8l8.8-5.1z"/></g><g id="XMLID_4947_"><path id="XMLID_915_" class="st3" d="M133.5 126v-17.3l.1-.1 9.2-5.3v17.3l-.1.1-9.2 5.3zm.5-17v16.2l8.3-4.8v-16.2L134 109z"/></g></g><g id="XMLID_4940_"><g id="XMLID_4944_"><path id="XMLID_912_" class="st4" d="M140.7 104.8v14.4l-6.9 4v2.4l8.8-5.1v-16.8z"/></g><g id="XMLID_4941_"><path id="XMLID_908_" class="st3" d="M133.5 126v-2.9l6.9-4v-14.4l2.4-1.4v17.3l-.1.1-9.2 5.3zm.5-2.7v1.8l8.3-4.8v-16.2l-1.3.9v14.4l-7 3.9z"/></g></g></g><g id="XMLID_4928_"><g id="XMLID_4934_"><g id="XMLID_4938_"><path id="XMLID_904_" class="st4" d="m169.7 104.9-8.8 5.1V93.3l8.9-5.1z"/></g><g id="XMLID_1277_"><path id="XMLID_900_" class="st3" d="M160.7 110.4V93.1l.1-.1 9.2-5.3V105l-.1.1-9.2 5.3zm.5-17v16.2l8.3-4.8V88.6l-8.3 4.8z"/></g></g><g id="XMLID_4929_"><g id="XMLID_4933_"><path id="XMLID_897_" class="st4" d="M167.9 89.3v14.3l-7 4v2.4l8.8-5.1.1-16.7z"/></g><g id="XMLID_4930_"><path id="XMLID_893_" class="st3" d="M160.7 110.4v-2.9l6.9-4V89.1l2.4-1.4V105l-.1.1-9.2 5.3zm.5-2.6v1.8l8.3-4.8V88.6l-1.4.8v14.4l-6.9 4z"/></g></g></g><g id="XMLID_4917_"><g id="XMLID_4923_"><g id="XMLID_4927_"><path id="XMLID_889_" class="st4" d="m156.1 112.9-8.8 5 .1-16.7 8.8-5.1z"/></g><g id="XMLID_4924_"><path id="XMLID_885_" class="st3" d="M147.1 118.4v-17.3l.1-.1 9.2-5.3V113l-.1.1-9.2 5.3zm.5-17.1v16.2l8.3-4.8V96.5l-8.3 4.8z"/></g></g><g id="XMLID_4918_"><g id="XMLID_4922_"><path id="XMLID_882_" class="st4" d="M154.3 97.2v14.4l-7 4v2.3l8.8-5 .1-16.8z"/></g><g id="XMLID_4919_"><path id="XMLID_878_" class="st3" d="M147.1 118.4v-2.9l6.9-4V97.1l2.4-1.4V113l-.1.1-9.2 5.3zm.5-2.7v1.8l8.3-4.8V96.5l-1.4.8v14.4l-6.9 4z"/></g></g></g><g id="XMLID_4883_"><g id="XMLID_4884_"><path id="XMLID_874_" class="st3" d="m133.9 113.6-.2-.4 6.9-4 .2.4z"/></g></g><g id="XMLID_4881_"><g id="XMLID_4882_"><path id="XMLID_871_" class="st3" d="m160.9 103.9-.3-.4 6.9-4 .3.4z"/></g></g><g id="XMLID_9974_"><g id="XMLID_10115_"><path id="XMLID_868_" class="st4" d="m99.2 65.8-10.4-6 9.7-5.6 10.3 6.1z"/></g><g id="XMLID_10116_"><path id="XMLID_864_" class="st3" d="m99.2 64.5-10.9-6.4 10.2-5.9 10.9 6.4-10.2 5.9zm-9.7-6.4 9.7 5.7 9-5.2-9.7-5.7-9 5.2z"/></g></g><g id="XMLID_9984_"><g id="XMLID_10111_"><path id="XMLID_861_" class="st2" d="m102.1 60-5-2.8 1.8-1.1 5 2.9z"/></g><g id="XMLID_10112_"><path id="XMLID_857_" class="st3" d="m102.1 59.6-5.6-3.2 2.4-1.4 5.6 3.2-2.4 1.4zm-4.4-3.3 4.4 2.5 1.2-.7-4.4-2.5-1.2.7z"/></g></g><g id="XMLID_9900_"><g id="XMLID_10008_"><g id="XMLID_10035_"><path id="XMLID_854_" class="st9" d="m168.5 185.2-12.4-7.2v-4.5l3.6 2.1 8.8 7.4z"/></g><g id="XMLID_10027_"><path id="XMLID_852_" class="st9" d="m168.5 183 14-8-8.9-7.4-13.9 8z"/></g><g id="XMLID_10031_"><path id="XMLID_850_" class="st9" d="m156.1 173.5 13.9-8 3.6 2.1-13.9 8z"/></g><g id="XMLID_10007_"><path id="XMLID_848_" class="st10" d="m156.1 175.1 13.9-7.9 3.6 2-13.9 8z"/></g><g id="XMLID_10010_"><g id="XMLID_10023_"><path id="XMLID_846_" class="st11" d="m168.5 185.2 14-8V175l-14 8z"/></g><g id="XMLID_10640_"><path id="XMLID_839_" class="st3" d="m182.7 174.9-8.7-7.2-.3-.2-.1-.1-3.6-2.1-14.2 8.1v4.8l12.7 7.3 14.2-8.1v-2.5zm-14.1 7.8-8.5-7 13.5-7.7 8.5 7-13.5 7.7zm1.4-16.9 3.1 1.8-5.1 2.9-8.3 4.8-3.1-1.8 13.4-7.7zm-13.7 12.1V174l3.2 1.9 2.8 2.3 6 5v1.6l-12-6.9zm25.9-.9-13.4 7.7v-1.6l13.4-7.7v1.6z"/></g></g></g></g><g id="XMLID_9908_"><path id="XMLID_834_" class="st4" d="M83 158s-.1 0-.1-.1l-.2-.1c-.6-.4-1.2-1.3-1.4-2.2 0-.2-.1 0-.1 0v1.2c.3.6.8 1.2 1.3 1.5l.2.1c.1.1.2.1.4.2l-.1-.6z"/></g><g id="XMLID_9902_"><g id="XMLID_9825_"><g id="XMLID_9823_"><g id="XMLID_10180_"><path id="XMLID_832_" class="st4" d="M101.1 180.9 81 169.3l.1-19.1 20 11.6z"/></g><g id="XMLID_10181_"><path id="XMLID_828_" class="st3" d="m101.3 181.3-20.5-11.9v-19.7l20.5 11.9v19.7zm-20-12.2 19.5 11.3v-18.5l-19.5-11.3v18.5z"/></g></g><g id="XMLID_9828_"><g id="XMLID_10176_"><path id="XMLID_825_" class="st4" d="m82.9 168.1.1-16.8-1.9-1.1-.1 19.1 20.1 11.6v-2.3z"/></g><g id="XMLID_10177_"><path id="XMLID_821_" class="st3" d="m101.3 181.3-20.5-11.9v-19.7l2.4 1.4v16.8l18.1 10.5v2.9zm-20-12.2 19.5 11.3v-1.8l-18.1-10.5v-16.8l-1.4-.8v18.6z"/></g></g></g><g id="XMLID_9856_"><g id="XMLID_9754_"><g id="XMLID_9751_"><g id="XMLID_10172_"><path id="XMLID_817_" class="st11" d="m98.3 165.7 7.5-4.1v-10.3l-8.9 4.1z"/></g><g id="XMLID_10173_"><path id="XMLID_813_" class="st3" d="m98.1 166.1-1.5-10.9 9.5-4.1v10.6l-8 4.4zm-1-10.6 1.3 9.8 7.1-3.8v-9.8l-8.4 3.8z"/></g></g><g id="XMLID_9752_"><g id="XMLID_10168_"><path id="XMLID_810_" d="M98.2 165v-.6c0-4.8 2.9-10.4 6.6-12.5l1-.6-27.7-15.9-1 .6c-3.6 2.1-6.6 7.7-6.6 12.5v.8c0 1.2.7 2.6 1.6 3.1l.2.1c.9.5 1.6 0 1.6-1.2 0 1.2.7 2.6 1.6 3.1l.2.1c.9.5 1.6 0 1.6-1.2 0 1.2.7 2.6 1.6 3.1l.2.1c.9.5 1.6 0 1.6-1.2 0 1.2.7 2.6 1.6 3.1l.2.1c.9.5 1.6 0 1.6-1.2 0 1.2.7 2.6 1.6 3.1l.2.1c.9.5 1.6 0 1.6-1.2 0 1.2.7 2.6 1.6 3.1l.2.1c.9.5 1.6 0 1.6-1.2 0 1.2.7 2.6 1.6 3.1l.2.1c.9.5 1.6 0 1.6-1.2 0 1.2.7 2.6 1.6 3.1l.2.1c.9.5 1.6 0 1.6-1.2l.5-.3z" style="fill:#9595d8"/></g><g id="XMLID_10003_"><path id="XMLID_808_" class="st10" d="M98.6 161.9c.7-3.9 3.1-7.9 5.9-9.8l-25.8-14.8-1 .6c-2.7 1.6-5.1 5.1-6.1 8.9l27 15.1z"/></g><g id="XMLID_10169_"><path id="XMLID_804_" class="st3" d="M97.3 167c-.2 0-.5-.1-.8-.2l-.2-.1c-.7-.4-1.3-1.2-1.5-2.1-.1.1-.2.3-.4.4-.4.2-.8.2-1.3-.1l-.2-.1c-.7-.4-1.3-1.2-1.5-2.1-.1.2-.2.3-.4.4-.4.2-.8.2-1.3-.1l-.2-.1c-.7-.4-1.3-1.2-1.5-2.1-.1.1-.2.3-.4.4-.4.2-.8.2-1.3-.1l-.2-.1c-.7-.4-1.3-1.2-1.5-2.1-.1.1-.2.3-.4.4-.4.2-.8.2-1.3-.1l-.2-.1c-.7-.4-1.3-1.2-1.5-2.1-.1.1-.2.3-.4.4-.4.2-.8.2-1.3-.1l-.2-.1c-.7-.4-1.3-1.2-1.5-2.1-.1.2-.2.3-.4.4-.4.2-.8.2-1.3-.1l-.2-.1c-.7-.4-1.3-1.2-1.5-2.1-.1.1-.2.3-.4.4-.4.2-.8.2-1.3-.1l-.2-.1c-1-.6-1.7-2-1.7-3.3v-.8c0-4.9 3-10.6 6.7-12.7l1.1-.7.1.1 27.8 16-1.1.9c-3.5 2-6.4 7.6-6.4 12.3v.9c0 .7-.2 1.3-.7 1.5-.7-.7-.8-.6-1-.6zm-2.8-3.7h.5c0 1.1.7 2.4 1.5 2.9l.2.1c.2.1.5.2.8.1.3-.2.4-.5.4-1.1v-1c0-4.9 3-10.6 6.7-12.7l.6-.4L78 135.5l-.9.5c-3.5 2-6.4 7.6-6.4 12.3v.8c0 1.1.7 2.4 1.5 2.9l.2.1c.2.1.5.2.8.1.3-.2.4-.6.4-1.1h.5c0 1.1.7 2.4 1.5 2.9l.2.1c.2.1.5.2.8.1.3-.2.4-.6.4-1.1h.5c0 1.1.7 2.4 1.5 2.9l.2.1c.2.1.5.2.8.1.3-.2.4-.6.4-1.1h.5c0 1.1.7 2.4 1.5 2.9l.2.1c.2.1.5.2.8.1.3-.2.4-.6.4-1.1h.5c0 1.1.7 2.4 1.5 2.9l.2.1c.2.1.5.2.8.1.3-.2.4-.6.4-1.1h.5c0 1.1.7 2.4 1.5 2.9l.2.1c.2.1.5.2.8.1.3-.2.4-.6.4-1.1h.5c0 1.1.7 2.4 1.5 2.9l.2.1c.2.1.5.2.8.1.8.1.9-.3.9-.9z"/></g></g></g><g id="XMLID_9961_"><g id="XMLID_9972_"><g id="XMLID_10164_"><path id="XMLID_800_" class="st9" d="M77.4 153.3v-.8c0-4.8 2.9-10.4 6.6-12.5l1-.6-3.5-2.1-1 .6c-3.6 2.1-6.6 7.7-6.6 12.5v.8c0 1.2.7 2.6 1.6 3.1l.2.1c1 .6 1.7.1 1.7-1.1 0 .3 0 .3 0 0z"/></g><g id="XMLID_10165_"><path id="XMLID_796_" class="st3" d="M76.4 154.9c-.2 0-.5-.1-.8-.2l-.2-.1c-1-.6-1.7-2-1.7-3.3v-.8c0-4.9 3-10.6 6.7-12.7l1.1-.7 4 2.3-1.4.8c-3.5 2-6.4 7.6-6.4 12.3v1.2c-.1.5-.3.9-.6 1.1-.3.1-.5.1-.7.1zm5.1-17.3-.9.5c-3.5 2-6.4 7.6-6.4 12.3v.8c0 1.1.7 2.4 1.5 2.9l.2.1c.2.1.5.2.8.1.3-.2.4-.6.4-1.1v-.8c0-4.9 3-10.6 6.7-12.7l.6-.4-2.9-1.7z"/></g></g></g><g id="XMLID_9962_"><g id="XMLID_9967_"><g id="XMLID_10160_"><path id="XMLID_792_" class="st9" d="M84.3 157.3v-.8c0-4.8 2.9-10.4 6.6-12.5l1-.6-3.5-2.1-1 .6c-3.6 2.1-6.6 7.7-6.6 12.5v.8c0 1.2.7 2.6 1.6 3.1l.2.1c1 .6 1.7 0 1.7-1.1 0 .2 0 .3 0 0z"/></g><g id="XMLID_10161_"><path id="XMLID_788_" class="st3" d="M83.4 158.9c-.2 0-.5-.1-.8-.2l-.2-.1c-1-.6-1.7-2-1.7-3.3v-.8c0-4.9 3-10.6 6.7-12.7l1.1-.7 4 2.3-1.4.8c-3.5 2-6.4 7.6-6.4 12.3v1.2c-.1.5-.3.9-.6 1.1-.4 0-.5.1-.7.1zm5.1-17.3-.9.5c-3.5 2-6.4 7.6-6.4 12.3v.8c0 1.1.7 2.4 1.5 2.9l.2.1c.2.1.5.2.8.1.3-.2.4-.6.4-1.1v-.8c0-4.9 3-10.6 6.7-12.7l.6-.4-2.9-1.7z"/></g></g></g><g id="XMLID_9970_"><g id="XMLID_9971_"><g id="XMLID_10156_"><path id="XMLID_784_" class="st9" d="M98.2 165.2v-.8c0-4.8 2.9-10.4 6.6-12.5l1-.6-3.5-2.1-1 .6c-3.6 2.1-6.6 7.7-6.6 12.5v.8c0 1.2.7 2.6 1.6 3.1l.2.1c1 .6 1.7.1 1.7-1.1 0 .3 0 .3 0 0z"/></g><g id="XMLID_10157_"><path id="XMLID_780_" class="st3" d="M97.2 166.9c-.2 0-.5-.1-.8-.2l-.2-.1c-1-.6-1.7-2-1.7-3.3v-.8c0-4.9 3-10.6 6.7-12.7l1.1-.7 3.7 2.2-1.1.9c-3.5 2-6.4 7.6-6.4 12.3v1.2c-.1.5-.3.9-.6 1.1-.3 0-.5.1-.7.1zm5.1-17.4-.9.5c-3.5 2-6.4 7.6-6.4 12.3v.8c0 1.1.7 2.4 1.5 2.9l.2.1c.2.1.5.2.8.1.3-.2.4-.6.4-1.1v-.8c0-4.9 3-10.6 6.7-12.7l.6-.4-2.9-1.7z"/></g></g></g><g id="XMLID_9968_"><g id="XMLID_9969_"><g id="XMLID_10151_"><path id="XMLID_776_" class="st9" d="M91.3 161.3v-.8c0-4.8 2.9-10.4 6.6-12.5l1-.6-3.5-2.1-1 .6c-3.6 2.1-6.6 7.7-6.6 12.5v.8c0 1.2.7 2.6 1.6 3.1l.2.1c.9.6 1.7 0 1.7-1.1 0 .3 0 .3 0 0z"/></g><g id="XMLID_10153_"><path id="XMLID_772_" class="st3" d="M90.3 162.9c-.2 0-.5-.1-.8-.2l-.2-.1c-1-.6-1.7-2-1.7-3.3v-.8c0-4.9 3-10.6 6.7-12.7l1.1-.7 4 2.3-1.4.8c-3.5 2-6.4 7.6-6.4 12.3v1.2c-.1.5-.3.9-.6 1.1-.3.1-.5.1-.7.1zm5.1-17.3-.9.5c-3.5 2-6.4 7.6-6.4 12.3v.8c0 1.1.7 2.4 1.5 2.9l.2.1c.2.1.5.2.8.1.3-.2.4-.6.4-1.1v-.8c0-4.9 3-10.6 6.7-12.7l.6-.4-2.9-1.7z"/></g></g></g></g><g id="XMLID_9964_"><g id="XMLID_10152_"><path id="XMLID_767_" transform="rotate(-89.919 91.507 167.753)" class="st3" d="M86.2 167.5h10.5v.5H86.2z"/></g></g><g id="XMLID_9903_"><g id="XMLID_9963_"><path id="XMLID_764_" transform="rotate(-33.912 87.742 165.888)" class="st3" d="M85 165.6h5.5v.5H85z"/></g></g><g id="XMLID_9904_"><g id="XMLID_9907_"><path id="XMLID_761_" transform="rotate(-30.905 97.573 172.414)" class="st3" d="M93.5 172.2h8.2v.5h-8.2z"/></g></g><g id="XMLID_9905_"><g id="XMLID_9906_"><path id="XMLID_758_" transform="rotate(-33.488 96.035 170.319)" class="st3" d="M94.2 170.1h3.7v.5h-3.7z"/></g></g></g><g id="XMLID_10556_"><g id="XMLID_9743_"><g id="XMLID_10551_"><g id="XMLID_10657_"><path id="XMLID_754_" class="st4" d="m73.4 165.6-11.6-6.7 4.9-2.9 11.6 6.8z"/></g><g id="XMLID_10561_"><path id="XMLID_752_" class="st2" d="m73.4 166.6-11.6-6.7 4.9-2.8 11.6 6.7z"/></g><g id="XMLID_10652_"><path id="XMLID_750_" class="st4" d="M61.8 158.9v1.8l11.6 6.7v-1.8z"/></g><g id="XMLID_10647_"><path id="XMLID_748_" class="st8" d="M78.3 162.8v1.8l-4.9 2.8v-1.8z"/></g><g id="XMLID_10565_"><path id="XMLID_740_" class="st8" d="m77.4 165.1-.9 4.1-3.7 2.1.6-3.9z"/></g><g id="XMLID_10552_"><g id="XMLID_10559_"><path id="XMLID_738_" class="st4" d="m62.5 161.1.7 4.7 9.6 5.5.6-3.9z"/></g><g id="XMLID_10660_"><path id="XMLID_729_" class="st3" d="M78.5 162.9v-.3l-.2-.1-11.6-6.7-5.1 3v2.1l.8.4.7 4.7 9.8 5.7 3.9-2.2.9-4.1.9-.5-.1-2zm-11.8-6.6 11.1 6.4-.9.5-3.5 2-8.7-5-2.4-1.4 4.4-2.5zm-4.7 4.2v-1.2l2.4 1.4 8.7 5v1.2l-5.6-3.2-5.4-3.1-.1-.1zm.8 1.1 7 4 3.3 1.9-.5 3.4-9.2-5.3-.6-4zm13.4 7.4-3.1 1.8.5-3.1.1-.3 3.4-2-.9 3.6zm1.8-4.6-4.4 2.5v-1.2l3.5-2 .9-.5v1.2z"/></g></g></g><g id="XMLID_9762_"><g id="XMLID_1272_"><g id="XMLID_10544_"><g id="XMLID_1276_"><path id="XMLID_725_" class="st4" d="m69.1 153.4-1.1.6-1.1-.7c-2.8 1.7-2.2 5.4-2.2 5.4 0 .5.3 1 1 1.4 1.3.7 3.4.8 4.7 0 .6-.4 1-.9 1-1.4.1-4.2-2.3-5.3-2.3-5.3z"/></g><g id="XMLID_10545_"><path id="XMLID_721_" class="st3" d="M67.9 161c-.9 0-1.8-.2-2.5-.6-.7-.4-1.1-1-1.1-1.6 0 0-.6-3.9 2.3-5.6l.1-.1 1.1.7 1.1-.6.1.1c.1.1 2.6 1.3 2.3 5.7 0 .6-.4 1.1-1.1 1.6-.5.2-1.4.4-2.3.4zm-1.1-7.3c-2.5 1.6-2 5.1-2 5.1 0 .5.3.9.9 1.2 1.2.7 3.2.7 4.4 0 .5-.3.8-.7.9-1.1.2-3.6-1.5-4.9-1.9-5.1l-1.1.6-1.2-.7z"/></g></g><g id="XMLID_1273_"><g id="XMLID_10543_"><path id="XMLID_718_" class="st4" d="M69.1 154.7c-.6.4-1.6.4-2.3 0-.6-.4-.6-.9 0-1.3s1.6-.4 2.3 0c.6.3.6.9 0 1.3z"/></g><g id="XMLID_10557_"><ellipse id="XMLID_716_" transform="rotate(-89.919 67.922 154.693)" class="st2" cx="67.9" cy="154.7" rx=".9" ry="1.6"/></g><g id="XMLID_10540_"><path id="XMLID_712_" class="st3" d="M67.9 155.2c-.4 0-.9-.1-1.2-.3-.4-.2-.6-.5-.6-.9 0-.3.2-.6.6-.9.7-.4 1.8-.4 2.5 0 .4.2.6.5.6.9 0 .3-.2.6-.6.9-.4.2-.8.3-1.3.3zm0-1.8c-.4 0-.7.1-1 .2-.2.1-.3.3-.3.4s.1.3.3.4c.5.3 1.5.3 2 0 .2-.1.3-.3.3-.4s-.1-.3-.3-.4c-.2-.2-.6-.2-1-.2z"/></g></g></g><g id="XMLID_9989_"><g id="XMLID_10037_"><g id="XMLID_10536_"><path id="XMLID_708_" class="st4" d="m73.6 156-1.1.6-1.1-.7c-2.8 1.7-2.2 5.4-2.2 5.4 0 .5.3 1 1 1.4 1.3.7 3.4.8 4.7 0 .6-.4 1-.9 1-1.4.2-4.1-2.3-5.3-2.3-5.3z"/></g><g id="XMLID_1271_"><path id="XMLID_704_" class="st3" d="M72.5 163.6c-.9 0-1.8-.2-2.5-.6-.7-.4-1.1-1-1.1-1.6 0 0-.6-3.9 2.3-5.6l.1-.1 1.1.7 1.1-.6.1.1c.1.1 2.6 1.3 2.3 5.7 0 .6-.4 1.1-1.1 1.6-.5.2-1.4.4-2.3.4zm-1.1-7.3c-2.5 1.6-2 5.1-2 5.1 0 .5.3.9.9 1.2 1.2.7 3.2.7 4.4 0 .5-.3.8-.7.8-1.1.2-3.5-1.5-4.9-1.9-5.1l-1.1.6-1.1-.7z"/></g></g><g id="XMLID_10026_"><g id="XMLID_10034_"><path id="XMLID_701_" class="st4" d="M73.6 157.3c-.6.4-1.6.4-2.3 0-.6-.4-.6-.9 0-1.3s1.6-.4 2.3 0 .7.9 0 1.3z"/></g><g id="XMLID_10560_"><path id="XMLID_699_" class="st2" d="M73.6 158c-.6.4-1.6.4-2.3 0-.6-.4-.6-.9 0-1.3s1.6-.4 2.3 0c.6.4.6 1 0 1.3z"/></g><g id="XMLID_10028_"><path id="XMLID_695_" class="st3" d="M72.5 157.8c-.4 0-.9-.1-1.2-.3-.4-.2-.6-.5-.6-.9 0-.3.2-.6.6-.9.7-.4 1.8-.4 2.5 0 .4.2.6.5.6.9 0 .3-.2.6-.6.9-.4.2-.8.3-1.3.3zm0-1.8c-.4 0-.7.1-1 .2-.2.1-.3.3-.3.4s.1.3.3.4c.5.3 1.5.3 2 0 .2-.1.3-.3.3-.4s-.1-.3-.3-.4c-.3-.1-.6-.2-1-.2z"/></g></g></g></g></g></g><g id="XMLID_10564_"><g id="XMLID_10648_"><g id="XMLID_10683_"><g id="XMLID_10697_"><path id="XMLID_688_" class="st4" d="m109.1 186.3-11.6-6.7 4.9-2.8 11.6 6.7z"/></g><g id="XMLID_10696_"><path id="XMLID_686_" class="st2" d="m109.1 187.3-11.6-6.7 4.9-2.8 11.6 6.7z"/></g><g id="XMLID_10695_"><path id="XMLID_684_" class="st4" d="M97.5 179.6v1.8l11.6 6.7v-1.8z"/></g><g id="XMLID_10694_"><path id="XMLID_682_" class="st8" d="M114 183.5v1.8l-4.9 2.8v-1.8z"/></g><g id="XMLID_10693_"><path id="XMLID_680_" class="st8" d="m113.1 185.8-.9 4.1-3.7 2.2.6-4z"/></g><g id="XMLID_10684_"><g id="XMLID_10692_"><path id="XMLID_656_" class="st4" d="m98.3 181.8.7 4.7 9.5 5.6.6-4z"/></g><g id="XMLID_10685_"><path id="XMLID_648_" class="st3" d="M114.3 183.7v-.3l-.2-.1-11.6-6.7-5.1 3v2.1l.6.3.7 4.7 9.8 5.7 3.9-2.2.9-4.1.9-.5.1-1.9zm-11.9-6.6 11.1 6.4-.9.5-3.5 2-8.7-5-2.4-1.4 4.4-2.5zm-4.6 4.2v-1.2l2.4 1.4 8.7 5v1.2l-5.6-3.2-5.4-3.1-.1-.1zm.8 1 7 4 3.3 1.9-.5 3.4-9.2-5.3-.6-4zm13.4 7.5-3.1 1.8.5-3.1.1-.3 3.4-2-.9 3.6zm1.8-4.6-4.4 2.5v-1.2l3.5-2 .9-.5v1.2z"/></g></g></g><g id="XMLID_10649_"><g id="XMLID_10671_"><g id="XMLID_10678_"><g id="XMLID_10682_"><path id="XMLID_644_" class="st4" d="m104.8 174.1-1.1.6-1.1-.7c-2.8 1.7-2.2 5.4-2.2 5.4 0 .5.3 1 1 1.4 1.3.7 3.4.8 4.7 0 .6-.4 1-.9 1-1.4.1-4.1-2.3-5.3-2.3-5.3z"/></g><g id="XMLID_10679_"><path id="XMLID_639_" class="st3" d="M103.7 181.7c-.9 0-1.8-.2-2.5-.6-.7-.4-1.1-1-1.1-1.6 0 0-.6-3.9 2.3-5.6l.1-.1 1.1.7 1.1-.6.1.1c.1.1 2.6 1.3 2.3 5.7 0 .6-.4 1.1-1.1 1.6-.5.2-1.4.4-2.3.4zm-1.1-7.3c-2.5 1.6-2 5.1-2 5.1 0 .5.3.9.9 1.2 1.2.7 3.2.7 4.4 0 .5-.3.8-.7.9-1.1.2-3.6-1.5-4.9-1.9-5.1l-1.1.6-1.2-.7z"/></g></g><g id="XMLID_10672_"><g id="XMLID_10677_"><path id="XMLID_636_" class="st4" d="M104.8 175.4c-.6.4-1.6.4-2.3 0-.6-.4-.6-.9 0-1.3s1.6-.4 2.3 0c.6.4.6 1 0 1.3z"/></g><g id="XMLID_10676_"><path id="XMLID_634_" class="st2" d="M104.8 176.1c-.6.4-1.6.4-2.3 0-.6-.4-.6-.9 0-1.3s1.6-.4 2.3 0c.6.3.6.9 0 1.3z"/></g><g id="XMLID_10673_"><path id="XMLID_630_" class="st3" d="M103.7 175.9c-.4 0-.9-.1-1.2-.3-.4-.2-.6-.5-.6-.9 0-.3.2-.6.6-.9.7-.4 1.8-.4 2.5 0 .4.2.6.5.6.9 0 .3-.2.6-.6.9-.4.2-.9.3-1.3.3zm0-1.8c-.4 0-.7.1-1 .2-.2.1-.3.3-.3.4 0 .2.1.3.3.4.5.3 1.5.3 2 0 .2-.1.3-.3.3-.4 0-.2-.1-.3-.3-.4-.3-.1-.6-.2-1-.2z"/></g></g></g><g id="XMLID_10650_"><g id="XMLID_10666_"><g id="XMLID_10670_"><path id="XMLID_626_" class="st4" d="m109.4 176.7-1.1.6-1.1-.7c-2.8 1.7-2.2 5.4-2.2 5.4 0 .5.3 1 1 1.4 1.3.7 3.4.8 4.7 0 .6-.4 1-.9 1-1.4.1-4.1-2.3-5.3-2.3-5.3z"/></g><g id="XMLID_10667_"><path id="XMLID_622_" class="st3" d="M108.2 184.3c-.9 0-1.8-.2-2.5-.6-.7-.4-1.1-1-1.1-1.6 0 0-.6-3.9 2.3-5.6l.1-.1 1.1.7 1.1-.6.1.1c.1.1 2.6 1.3 2.3 5.7 0 .6-.4 1.1-1.1 1.6-.5.2-1.4.4-2.3.4zm-1.1-7.3c-2.5 1.6-2 5.1-2 5.1 0 .5.3.9.9 1.2 1.2.7 3.2.7 4.4 0 .5-.3.8-.7.8-1.1.2-3.5-1.5-4.9-1.9-5.1l-1.1.6-1.1-.7z"/></g></g><g id="XMLID_10651_"><g id="XMLID_10665_"><path id="XMLID_619_" class="st4" d="M109.4 178c-.6.4-1.6.4-2.3 0-.6-.4-.6-.9 0-1.3s1.6-.4 2.3 0c.6.4.6 1 0 1.3z"/></g><g id="XMLID_10656_"><path id="XMLID_617_" class="st2" d="M109.4 178.8c-.6.4-1.6.4-2.3 0-.6-.4-.6-.9 0-1.3s1.6-.4 2.3 0c.6.3.6.9 0 1.3z"/></g><g id="XMLID_10653_"><path id="XMLID_612_" class="st3" d="M108.2 178.6c-.4 0-.9-.1-1.2-.3-.4-.2-.6-.5-.6-.9 0-.3.2-.6.6-.9.7-.4 1.8-.4 2.5 0 .4.2.6.5.6.9 0 .3-.2.6-.6.9-.4.2-.8.3-1.3.3zm.1-1.9c-.4 0-.7.1-1 .2-.2.1-.3.3-.3.4 0 .2.1.3.3.4.5.3 1.5.3 2 0 .2-.1.3-.3.3-.4 0-.2-.1-.3-.3-.4-.3-.1-.7-.2-1-.2z"/></g></g></g></g></g></g><g id="XMLID_9979_"><g id="XMLID_9980_"><path id="XMLID_605_" class="st4" d="M105 151.1z"/></g></g><g id="XMLID_9973_"><path id="XMLID_602_" class="st8" d="M110.7 30.6v10.8h-1.6L78.3 59 72 55.2l-.8-1.3.3-1.4 1-.9 35.7-20.5 1.2-.5z"/></g><g id="XMLID_80_"><g id="XMLID_69_"><g id="XMLID_9870_"><g id="XMLID_9872_"><g id="XMLID_10309_"><path id="XMLID_600_" class="st9" d="m68.3 122 8.8 5.1.1-16.7-8.9-5.1z"/></g><g id="XMLID_10310_"><path id="XMLID_596_" class="st3" d="m77.4 127.5-9.3-5.4v-17.3l9.3 5.4v17.3zm-8.8-5.6 8.3 4.8v-16.2l-8.3-4.8v16.2z"/></g></g><g id="XMLID_9871_"><g id="XMLID_10305_"><path id="XMLID_593_" class="st2" d="M70.2 107.2v14.4l6.9 4v2.3l-8.8-5.1v-16.7z"/></g><g id="XMLID_10306_"><path id="XMLID_589_" class="st3" d="m77.4 127.5-9.3-5.4v-17.3l2.4 1.4v14.4l6.9 4v2.9zm-8.8-5.6 8.3 4.8v-1.8l-6.9-4v-14.4l-1.4-.8v16.2z"/></g></g></g><g id="XMLID_9867_"><g id="XMLID_9869_"><g id="XMLID_10301_"><path id="XMLID_585_" class="st4" d="m81.9 130 8.8 5.1v-16.7l-8.8-5.1z"/></g><g id="XMLID_10302_"><path id="XMLID_575_" class="st3" d="m91 135.5-9.3-5.4v-17.3l9.3 5.4v17.3zm-8.8-5.6 8.3 4.8v-16.2l-8.3-4.8v16.2z"/></g></g><g id="XMLID_9868_"><g id="XMLID_10297_"><path id="XMLID_565_" class="st2" d="M83.8 115.2v14.4l6.9 4v2.3l-8.8-5.1v-16.7z"/></g><g id="XMLID_10298_"><path id="XMLID_556_" class="st3" d="m91 135.5-9.3-5.4v-17.3l2.4 1.4v14.4l6.9 4v2.9zm-8.8-5.6 8.3 4.8v-1.8l-6.9-4v-14.4l-1.4-.8v16.2z"/></g></g></g><g id="XMLID_9895_"><g id="XMLID_9897_"><g id="XMLID_2255_"><path id="XMLID_551_" class="st4" d="m109.1 145.3 8.8 5.1v-16.8l-8.8-5.1z"/></g><g id="XMLID_2252_"><path id="XMLID_547_" class="st3" d="m118.2 150.8-9.3-5.4v-17.3l9.3 5.4v17.3zm-8.9-5.7 8.3 4.8v-16.2l-8.3-4.8v16.2z"/></g></g><g id="XMLID_9896_"><g id="XMLID_2251_"><path id="XMLID_544_" class="st2" d="M111 130.4v14.4l6.9 4v2.4l-8.8-5.1v-16.8z"/></g><g id="XMLID_2248_"><path id="XMLID_540_" class="st3" d="m118.2 150.8-9.3-5.4v-17.3l2.4 1.4v14.4l6.9 4v2.9zm-8.9-5.7 8.3 4.8v-1.8l-6.9-4v-14.4l-1.4-.8v16.2z"/></g></g></g><g id="XMLID_9915_"><g id="XMLID_9917_"><g id="XMLID_1285_"><path id="XMLID_536_" class="st4" d="m95.6 137.7 8.8 5.1V126l-8.8-5.1z"/></g><g id="XMLID_1282_"><path id="XMLID_532_" class="st3" d="m104.6 143.2-9.3-5.4v-17.3l9.3 5.4v17.3zm-8.8-5.7 8.3 4.8v-16.2l-8.3-4.8v16.2z"/></g></g><g id="XMLID_9916_"><g id="XMLID_1281_"><path id="XMLID_529_" class="st2" d="M97.5 122.8v14.4l6.9 4v2.4l-8.8-5.1v-16.8z"/></g><g id="XMLID_1278_"><path id="XMLID_525_" class="st3" d="m104.6 143.2-9.3-5.4v-17.3l2.4 1.4v14.4l6.9 4v2.9zm-8.8-5.7 8.3 4.8v-1.8l-6.9-4v-14.4l-1.4-.8v16.2z"/></g></g></g><g id="XMLID_9836_"><g id="XMLID_9851_"><g id="XMLID_10204_"><path id="XMLID_521_" transform="rotate(-59.982 100.865 132.26)" class="st3" d="M100.6 128.3h.5v8h-.5z"/></g></g><g id="XMLID_9850_"><g id="XMLID_10203_"><path id="XMLID_518_" transform="rotate(-89.919 100.864 133.469)" class="st3" d="M99.7 133.2h2.4v.5h-2.4z"/></g></g><g id="XMLID_9846_"><g id="XMLID_10200_"><path id="XMLID_513_" class="st3" d="M101.2 136.6c-.1 0-.3 0-.4-.1l-.2-.1c-.4-.2-.8-.9-.8-1.4 0-.3.1-.6.3-.7.2-.1.4-.1.7 0l.2.1c.4.2.8.9.8 1.4 0 .3-.1.6-.3.7-.1.1-.2.1-.3.1zm-.7-1.9c-.1 0-.1.1-.1.3 0 .4.2.8.5 1l.2.1s.1.1.2 0c0 0 .1-.1.1-.3 0-.4-.2-.8-.5-1l-.2-.1h-.2z"/></g></g></g><g id="XMLID_10006_"><g id="XMLID_10197_"><path id="XMLID_509_" transform="rotate(-59.982 73.685 110.618)" class="st3" d="M73.4 106.6h.5v8h-.5z"/></g></g></g></g><g id="XMLID_84_"><g id="XMLID_90_"><g id="XMLID_150_"><g id="XMLID_161_"><g id="XMLID_165_"><path id="XMLID_504_" class="st4" d="m68.5 97.3 8.8 5.1V85.6l-8.8-5.1z"/></g><g id="XMLID_162_"><path id="XMLID_500_" class="st3" d="m77.5 102.8-9.3-5.4V80.1l9.3 5.4v17.3zm-8.8-5.7 8.3 4.8V85.7l-8.3-4.8v16.2z"/></g></g><g id="XMLID_151_"><g id="XMLID_155_"><path id="XMLID_497_" class="st2" d="M70.4 82.4v14.4l6.9 4v2.4l-8.8-5.1V81.3z"/></g><g id="XMLID_152_"><path id="XMLID_493_" class="st3" d="m77.5 102.8-9.3-5.4V80.1l2.4 1.4v14.4l6.9 4v2.9zm-8.8-5.7 8.3 4.8v-1.8l-6.9-4V81.7l-1.4-.8v16.2z"/></g></g></g><g id="XMLID_139_"><g id="XMLID_145_"><g id="XMLID_149_"><path id="XMLID_489_" class="st4" d="m82.1 105.2 8.8 5.1V93.6l-8.8-5.1z"/></g><g id="XMLID_146_"><path id="XMLID_485_" class="st3" d="m91.1 110.7-9.3-5.4V88l9.3 5.4v17.3zm-8.8-5.6 8.3 4.8V93.7l-8.3-4.8v16.2z"/></g></g><g id="XMLID_140_"><g id="XMLID_144_"><path id="XMLID_482_" class="st2" d="M84 90.4v14.4l6.9 4v2.3l-8.8-5V89.3z"/></g><g id="XMLID_141_"><path id="XMLID_478_" class="st3" d="m91.1 110.7-9.3-5.4V88l2.4 1.4v14.4l6.9 4v2.9zm-8.8-5.6 8.3 4.8v-1.8l-6.9-4V89.7l-1.4-.8v16.2z"/></g></g></g><g id="XMLID_119_"><g id="XMLID_125_"><g id="XMLID_138_"><path id="XMLID_474_" class="st9" d="m109.3 120.5 8.8 5.1v-16.8l-8.8-5z"/></g><g id="XMLID_126_"><path id="XMLID_470_" class="st3" d="m118.3 126-9.3-5.4v-17.3l9.3 5.4V126zm-8.8-5.6 8.3 4.8V109l-8.3-4.8v16.2z"/></g></g><g id="XMLID_120_"><g id="XMLID_124_"><path id="XMLID_467_" class="st2" d="m111.2 105.7-.1 14.3 7 4v2.4l-8.8-5.1v-16.7z"/></g><g id="XMLID_121_"><path id="XMLID_463_" class="st3" d="m118.3 126-9.3-5.4v-17.3l2.4 1.4v14.4l6.9 4v2.9zm-8.8-5.6 8.3 4.8v-1.8l-6.9-4V105l-1.4-.8v16.2z"/></g></g></g><g id="XMLID_103_"><g id="XMLID_114_"><g id="XMLID_118_"><path id="XMLID_459_" class="st4" d="m95.7 112.9 8.9 5.1v-16.8l-8.8-5z"/></g><g id="XMLID_115_"><path id="XMLID_455_" class="st3" d="m104.8 118.4-9.3-5.4V95.7l9.3 5.4v17.3zm-8.8-5.6 8.3 4.8v-16.2L96 96.6v16.2z"/></g></g><g id="XMLID_105_"><g id="XMLID_113_"><path id="XMLID_450_" class="st2" d="M97.6 98.1v14.3l7 4v2.4l-8.9-5.1.1-16.7z"/></g><g id="XMLID_106_"><path id="XMLID_444_" class="st3" d="m104.8 118.4-9.3-5.4V95.7l2.4 1.4v14.4l6.9 4v2.9zm-8.8-5.6 8.3 4.8v-1.8l-6.9-4V97.4l-1.4-.8v16.2z"/></g></g></g><g id="XMLID_93_"><g id="XMLID_101_"><g id="XMLID_102_"><path id="XMLID_440_" transform="rotate(-59.982 101.025 107.492)" class="st3" d="M100.8 103.5h.5v8h-.5z"/></g></g><g id="XMLID_99_"><g id="XMLID_100_"><path id="XMLID_435_" transform="rotate(-89.919 101.024 108.699)" class="st3" d="M99.8 108.5h2.4v.5h-2.4z"/></g></g><g id="XMLID_94_"><g id="XMLID_95_"><path id="XMLID_429_" class="st3" d="M101.4 111.8c-.1 0-.3 0-.4-.1l-.2-.1c-.4-.2-.8-.9-.8-1.4 0-.3.1-.6.3-.7.2-.1.4-.1.7 0l.2.1c.4.2.8.9.8 1.4 0 .3-.1.6-.3.7-.1.1-.2.1-.3.1zm-.7-1.9s-.1 0 0 0c-.1 0-.1.1-.1.3 0 .4.2.8.5 1l.2.1s.1.1.2 0c0 0 .1-.1.1-.3 0-.4-.2-.8-.5-1l-.2-.1h-.2z"/></g></g></g><g id="XMLID_91_"><g id="XMLID_92_"><path id="XMLID_425_" transform="rotate(-59.982 73.845 85.85)" class="st3" d="M73.6 81.9h.5v8h-.5z"/></g></g></g></g><g id="XMLID_2836_"><g id="XMLID_2850_"><path id="XMLID_420_" class="st4" d="m152.3 186.7-.9 3.2s-.6.6-1.4.6c-.8 0-1.4-.6-1.4-.6l-1-3 4.7-.2z"/></g><g id="XMLID_2849_"><path id="XMLID_418_" class="st8" d="m150.1 187.7-.1 2.7 1.4-.4.6-2.9z"/></g><g id="XMLID_2845_"><path id="XMLID_411_" class="st3" d="M150 190.8c-.9 0-1.6-.7-1.6-.7l-.1-.1-1.2-3.5 5.7-.2-1.1 3.7-.1.1s-.7.7-1.6.7zm-1.1-1.2c.1.1.6.4 1 .4.5 0 .9-.3 1-.4l.8-2.6-3.7.1.9 2.5z"/></g><g id="XMLID_2837_"><g id="XMLID_2844_"><path id="XMLID_409_" class="st4" d="m146.2 182.8 2.1-8.3c.1-.8.8-1.4 1.6-1.4s1.5.6 1.6 1.4l2.1 8.3c.1.3.1.6.1 1 0 2.1-1.7 3.9-3.9 3.9-2.1 0-3.9-1.7-3.9-3.9.2-.3.2-.7.3-1z"/></g><g id="XMLID_2842_"><path id="XMLID_407_" class="st2" d="m153.7 182.8-1.8-7.2c-.2-.1-.4-.1-.6-.1-.8 0-1.5.6-1.6 1.4l-2.1 8.3c-.1.3-.1.6-.1 1 0 .2 0 .4.1.6.7.6 1.5.9 2.5.9 2.1 0 3.9-1.7 3.9-3.9-.2-.3-.3-.6-.3-1z"/></g><g id="XMLID_2838_"><path id="XMLID_403_" class="st3" d="M149.9 188c-2.3 0-4.2-1.9-4.2-4.2v-.6l2.3-8.9v-.2c.3-.8 1-1.4 1.9-1.4.9 0 1.7.6 1.9 1.5l.1.2 2.2 8.8v.6c0 2.3-1.9 4.2-4.2 4.2zm-3.2-5.5-.1.5c-.1.3-.1.6-.1.9 0 1.9 1.6 3.5 3.5 3.5s3.5-1.6 3.5-3.5c0-.3 0-.5-.1-.9l-.1-.5-2-7.9c-.1-.6-.6-1.1-1.2-1.1s-1.1.4-1.2 1.1l-.1.3-2.1 7.6z"/></g></g></g><g id="XMLID_10511_"><path id="XMLID_395_" class="st3" d="m159 68.2-44-25.5c-2.1-1.2-5.4-1.4-7.2-.3l-29.5 17-5.4-3.1c-1.3-.7-2-1.7-2-2.7 0-.8.5-1.6 1.5-2.1l35.1-20.2c2-1.2 5.5-1 7.8.3l49.2 28.5c1.3.7 2 1.7 2 2.7 0 .8-.5 1.6-1.5 2.1l-6 3.3zm-48.1-27.1c1.5 0 3.1.4 4.4 1.1L159 67.5l5.6-3.3c.7-.4 1.1-1 1.1-1.6 0-.8-.6-1.6-1.7-2.2L115 32c-2.1-1.2-5.4-1.4-7.2-.3L72.7 51.9c-.7.4-1.1 1-1.1 1.6 0 .8.6 1.6 1.7 2.2l5.1 3 29.2-16.8c.8-.6 2-.8 3.3-.8z"/></g><g id="XMLID_10043_"><g id="XMLID_10049_"><g id="XMLID_10066_"><g id="XMLID_10070_"><path id="XMLID_389_" class="st4" d="M124.8 56.9v3.8c0 .3.2.6.6.9.8.5 2.2.5 3 0 .4-.2.6-.6.6-.9v-3.8h-4.2z"/></g><g id="XMLID_10067_"><path id="XMLID_384_" class="st3" d="M126.9 62.3c-.6 0-1.2-.1-1.7-.4-.5-.3-.8-.7-.8-1.1v-4.1h4.9v4.1c0 .4-.3.9-.8 1.1-.4.2-1 .4-1.6.4zm-1.8-5.1v3.5c0 .2.2.4.5.6.7.4 2 .4 2.7 0 .3-.2.5-.4.5-.6v-3.5h-3.7z"/></g></g><g id="XMLID_10061_"><g id="XMLID_10065_"><path id="XMLID_381_" class="st4" d="M133.4 52.9h-12.9l4.3 4.2c.1.1.2.2.4.3 1 .6 2.6.6 3.6 0 .1-.1.3-.2.4-.3l4.2-4.2z"/></g><g id="XMLID_10062_"><path id="XMLID_376_" class="st3" d="M126.9 58.1c-.7 0-1.4-.2-1.9-.5-.1-.1-.2-.1-.3-.2l-.1-.1-4.8-4.8h14.4l-5 4.8c-.1.1-.2.2-.3.2-.6.5-1.3.6-2 .6zm-2-1.2.3.3c.9.5 2.4.5 3.3 0 .1-.1.2-.1.3-.2l.1-.1 3.7-3.6h-11.4l3.7 3.6z"/></g></g><g id="XMLID_10056_"><g id="XMLID_10060_"><path id="XMLID_372_" class="st4" d="M134.5 49.5c0-.1-.1-.4-.2-.4-.9-2.1-2.4-3.9-4.2-5.3L129 43h-4.1l-1.2.9c-1.7 1.3-3.1 3-4.1 5l-.1.2c-.1.1-.1.1-.1.3v.1c-.7 1.9.8 4.1 4.6 5.1 2.3.6 4.8.5 7.1-.3 2.9-1.2 4.1-3 3.4-4.8z"/></g><g id="XMLID_10057_"><path id="XMLID_364_" class="st3" d="M127 55.3c-1 0-2.1-.1-3.1-.4-2.3-.6-3.9-1.7-4.6-3-.4-.8-.5-1.7-.2-2.5l.1-.1c0-.1 0-.1.1-.2l.1-.2c1-2 2.4-3.8 4.2-5.1l1.3-1h4.3l1.2.9c1.9 1.4 3.4 3.3 4.3 5.4 0 .1.2.4.2.4v.1c.7 2-.7 3.9-3.7 5.1-1.4.3-2.8.6-4.2.6zm-2-12-1.1.8c-1.7 1.3-3.1 3-4 4.9l-.1.2c0 .1 0 .1-.1.1v.1c-.3.7-.2 1.4.1 2 .6 1.2 2.1 2.2 4.2 2.7 2.3.6 4.8.5 6.9-.3 2.6-1 3.9-2.7 3.3-4.3v-.1s-.1-.2-.1-.3c-.9-2-2.4-3.8-4.2-5.1l-1-.8-3.9.1z"/></g></g><g id="XMLID_10050_"><g id="XMLID_10055_"><path id="XMLID_360_" class="st4" d="M128.7 42.8c1 .6 1 1.5 0 2.1-1 .6-2.6.6-3.6 0s-1-1.5 0-2.1c1-.5 2.6-.5 3.6 0z"/></g><g id="XMLID_10054_"><path id="XMLID_356_" class="st2" d="M128.7 43.8c1 .6 1 1.5 0 2.1-1 .6-2.6.6-3.6 0s-1-1.5 0-2.1c1-.6 2.6-.6 3.6 0z"/></g><g id="XMLID_10051_"><path id="XMLID_335_" class="st3" d="M126.9 45.6c-.7 0-1.4-.2-1.9-.5-.6-.3-.9-.8-.9-1.3s.3-1 .9-1.3c1.1-.6 2.8-.6 3.9 0 .6.3.9.8.9 1.3s-.3 1-.9 1.3c-.6.4-1.3.5-2 .5zm0-2.9c-.6 0-1.2.1-1.6.4-.4.2-.6.5-.6.8 0 .3.2.5.6.8.9.5 2.4.5 3.3 0 .4-.2.6-.5.6-.8 0-.3-.2-.5-.6-.8-.5-.3-1.1-.4-1.7-.4z"/></g></g></g></g><g id="XMLID_10071_"><g id="XMLID_10077_"><g id="XMLID_10094_"><g id="XMLID_10098_"><path id="XMLID_327_" class="st4" d="M139 65.2V69c0 .3.2.6.6.9.8.5 2.2.5 3 0 .4-.2.6-.6.6-.9v-3.8H139z"/></g><g id="XMLID_10095_"><path id="XMLID_306_" class="st3" d="M141.1 70.6c-.6 0-1.2-.1-1.7-.4-.5-.3-.8-.7-.8-1.1V65h4.9v4.1c0 .4-.3.9-.8 1.1-.4.3-1 .4-1.6.4zm-1.8-5.1V69c0 .2.2.4.5.6.7.4 2 .4 2.7 0 .3-.2.5-.4.5-.6v-3.5h-3.7z"/></g></g><g id="XMLID_10089_"><g id="XMLID_10093_"><path id="XMLID_301_" class="st4" d="M147.6 61.3h-12.9l4.3 4.2c.1.1.2.2.4.3 1 .6 2.6.6 3.6 0 .1-.1.3-.2.4-.3l4.2-4.2z"/></g><g id="XMLID_10090_"><path id="XMLID_293_" class="st3" d="M141.1 66.5c-.7 0-1.4-.2-1.9-.5-.1-.1-.2-.1-.3-.2l-.1-.1-4.8-4.8h14.4l-5 4.8c-.1.1-.2.2-.3.2-.6.4-1.3.6-2 .6zm-2-1.3.3.3c.9.5 2.4.5 3.3 0 .1-.1.2-.1.3-.2l.1-.1 3.7-3.6h-11.4l3.7 3.6z"/></g></g><g id="XMLID_10084_"><g id="XMLID_10088_"><path id="XMLID_288_" class="st4" d="M148.7 57.9c0-.1-.1-.4-.2-.4-.9-2.1-2.4-3.9-4.2-5.3l-1.1-.8h-4.1l-1.2.9c-1.7 1.3-3.1 3-4.1 5l-.1.2c-.1.1-.1.1-.1.3v.1c-.7 1.9.8 4.1 4.6 5.1 2.3.6 4.9.5 7.1-.3 2.9-1.3 4.1-3.1 3.4-4.8z"/></g><g id="XMLID_10085_"><path id="XMLID_281_" class="st3" d="M141.2 63.6c-1 0-2.1-.1-3.1-.4-2.3-.6-3.9-1.7-4.6-3-.4-.8-.5-1.7-.2-2.5l.1-.1c0-.1 0-.1.1-.2l.1-.2c1-2 2.4-3.8 4.2-5.1l1.3-1h4.3l1.2.9c1.9 1.4 3.4 3.3 4.3 5.4 0 .1.2.4.2.4v.1c.7 2-.7 3.9-3.7 5.1-1.4.4-2.8.6-4.2.6zm-2-11.9-1.1.8c-1.7 1.3-3.1 3-4 4.9l-.1.2c0 .1 0 .1-.1.1v.1c-.3.7-.2 1.4.1 2 .6 1.2 2.1 2.2 4.2 2.7 2.3.6 4.8.5 6.9-.3 2.6-1 3.9-2.7 3.3-4.3v-.1s-.1-.2-.1-.3c-.9-2-2.4-3.8-4.2-5.1l-1-.8-3.9.1z"/></g></g><g id="XMLID_10078_"><g id="XMLID_10083_"><path id="XMLID_276_" class="st4" d="M142.9 51.2c1 .6 1 1.5 0 2.1-1 .6-2.6.6-3.6 0s-1-1.5 0-2.1c1-.6 2.6-.6 3.6 0z"/></g><g id="XMLID_10082_"><path id="XMLID_273_" class="st2" d="M142.9 52.1c1 .6 1 1.5 0 2.1-1 .6-2.6.6-3.6 0s-1-1.5 0-2.1c1-.6 2.6-.6 3.6 0z"/></g><g id="XMLID_10079_"><path id="XMLID_266_" class="st3" d="M141.1 54c-.7 0-1.4-.2-1.9-.5-.6-.3-.9-.8-.9-1.3s.3-1 .9-1.3c1.1-.6 2.8-.6 3.9 0 .6.3.9.8.9 1.3s-.3 1-.9 1.3c-.6.3-1.3.5-2 .5zm0-2.9c-.6 0-1.2.1-1.6.4-.4.2-.6.5-.6.8 0 .3.2.5.6.8.9.5 2.4.5 3.3 0 .4-.2.6-.5.6-.8 0-.3-.2-.5-.6-.8-.5-.3-1.1-.4-1.7-.4z"/></g></g></g></g></g></g><g id="XMLID_1241_"><g id="XMLID_969_"><path id="XMLID_355_" class="st0" d="m197.6 169.1-1.8 1.1c-.9.5-2.1.5-3.1 0l-6.3-3.7c-.7-.4-.7-1.5 0-1.9l2.8-1.6c.3-.2.8-.2 1.1 0l7.3 4.3c.8.4.8 1.4 0 1.8z"/></g><g id="XMLID_658_"><g id="XMLID_659_"><g id="XMLID_660_"><g id="XMLID_673_"><g id="XMLID_674_"><g id="XMLID_679_"><path id="XMLID_338_" class="st2" d="m194.8 148.5-3.2 1.8-6.1-3.5 3.2-1.8 6.1 3.5c0-.1 0-.1 0 0z"/></g><g id="XMLID_678_"><path id="XMLID_332_" class="st2" d="m194.7 149.8-3.2 1.8-6.1-3.5 3.2-1.8 6.1 3.5c.1 0 .1 0 0 0z"/></g><g id="XMLID_675_"><path id="XMLID_310_" class="st3" d="m191.6 150.8-.3-.1-6.3-3.7v-.6l.2-.2 3.4-2 .3.1 6.3 3.7v.6l-.2.2-3.4 2zm-5.2-4.1 5.2 3 2.3-1.3-5.2-3-2.3 1.3z"/></g></g></g><g id="XMLID_667_"><g id="XMLID_668_"><g id="XMLID_672_"><path id="XMLID_298_" class="st4" d="M185.5 146.8v16.8l6.1 3.5v-16.8l-6.1-3.5z"/></g><g id="XMLID_669_"><path id="XMLID_291_" class="st3" d="m191.6 167.7-.3-.1-6.3-3.7v-17.4l.5-.3.3.1 6.3 3.7v17.4l-.5.3zm-5.7-4.4 5.2 3v-15.8l-5.2-3v15.8z"/></g></g></g><g id="XMLID_661_"><g id="XMLID_662_"><g id="XMLID_666_"><path id="XMLID_280_" class="st5" d="M194.8 148.5v16.8l-3.2 1.8v-16.8l3.2-1.8c0-.1 0 0 0 0z"/></g><g id="XMLID_663_"><path id="XMLID_270_" class="st3" d="m191.6 167.7-.5-.3V150l.3-.2 3.4-2 .5.3v17.4l-.3.2-3.4 2zm.5-17.1v15.8l2.3-1.3v-15.8l-2.3 1.3z"/></g></g></g></g></g></g></g></svg>