<svg version="1.1" id="Calque_1" xmlns="http://www.w3.org/2000/svg" x="0" y="0" viewBox="-124 126 200 200" style="enable-background:new -124 126 200 200" xml:space="preserve"><style>.st0,.st1{fill:none;stroke:#7700f4;stroke-miterlimit:10}.st0{stroke-width:3;stroke-linecap:round;stroke-linejoin:round}.st1{stroke-width:2}.st1,.st2{stroke-linecap:round;stroke-linejoin:round}.st2,.st3{fill:none;stroke:#c0d7f1;stroke-miterlimit:10}.st4{fill:#c0d7f1}.st6{fill:#7700f4}.st7{fill:#fff}</style><g id="XMLID_13_"><path id="XMLID_8_" class="st0" d="M-28.7 158.1v5.9"/><path id="XMLID_2_" class="st0" d="M-25.8 161.1h-5.8"/></g><g id="XMLID_17_"><path id="XMLID_27_" class="st1" d="M-67.8 149.7v4.9"/><path id="XMLID_26_" class="st1" d="M-65.3 152.1h-5"/></g><g id="XMLID_28_"><path id="XMLID_30_" class="st2" d="M-48.7 167.1v2.7"/><path id="XMLID_29_" class="st2" d="M-47.4 168.4H-50"/></g><path id="XMLID_14_" class="st3" d="M-51.3 146.7c-.1 0-.2.1-.2.1h-.6c-.7-.2-1.1-.9-.9-1.6s.9-1.1 1.6-.9c.7.2 1.1.9.9 1.6"/><path id="XMLID_16_" class="st3" d="M-16.7 148c-.1 0-.2.1-.2.1h-.4c-.6-.2-.9-.7-.7-1.3.2-.6.7-.9 1.3-.7.6.2.9.7.7 1.3"/><path class="st4" d="M27 170c-1 0-1.9-.8-1.9-1.9v-8.3c0-1 .8-1.9 1.9-1.9 1 0 1.9.8 1.9 1.9v8.3c0 1.1-.8 1.9-1.9 1.9z"/><path class="st4" d="M31.2 165.9h-8.3c-1 0-1.9-.8-1.9-1.9 0-1 .8-1.9 1.9-1.9h8.3c1 0 1.9.8 1.9 1.9 0 1-.9 1.9-1.9 1.9z"/><path d="M81.9 220.6v-554.8M-90.2 220.6v-554.8" style="fill:none"/><path class="st6" d="M-24 297.6c-31 0-56.3-25.3-56.3-56.3S-55 185-24 185s56.3 25.3 56.3 56.3S7 297.6-24 297.6zm0-110c-29.6 0-53.7 24.1-53.7 53.7S-53.6 295-24 295s53.7-24.1 53.7-53.7S5.6 187.6-24 187.6z"/><path class="st6" d="M-24 297.6c-.7 0-1.3-.6-1.3-1.3v-73.4c0-.7.6-1.3 1.3-1.3s1.3.6 1.3 1.3v73.4c0 .7-.6 1.3-1.3 1.3z"/><path class="st7" d="M-13.9 222.9c0 5.6-4.5 10.1-10.1 10.1s-10.1-4.5-10.1-10.1 4.5-10.1 10.1-10.1 10.1 4.5 10.1 10.1z"/><path class="st6" d="M-24 234.3c-6.3 0-11.4-5.1-11.4-11.4s5.1-11.4 11.4-11.4 11.4 5.1 11.4 11.4-5.1 11.4-11.4 11.4zm0-20.2c-4.8 0-8.8 3.9-8.8 8.8s3.9 8.8 8.8 8.8 8.8-3.9 8.8-8.8-3.9-8.8-8.8-8.8zm13.8 81.7c-.7 0-1.3-.6-1.3-1.3v-45.9c0-.4.1-.7.4-.9l14.9-14.9c.5-.5 1.3-.5 1.8 0s.5 1.3 0 1.8l-14.5 14.5v45.3c0 .8-.6 1.4-1.3 1.4zm13.7-5.6c-.7 0-1.3-.6-1.3-1.3v-24.8c0-.6.4-1.1 1-1.3l16.8-4.6c.7-.2 1.4.2 1.6.9.2.7-.2 1.4-.9 1.6L4.9 265v23.8c-.1.8-.7 1.4-1.4 1.4z"/><path class="st7" d="M14.8 233.8c0 5.6-4.5 10.1-10.1 10.1s-10.1-4.5-10.1-10.1 4.5-10.1 10.1-10.1 10.1 4.5 10.1 10.1z"/><path class="st6" d="M4.7 245.2c-6.3 0-11.4-5.1-11.4-11.4s5.1-11.4 11.4-11.4 11.4 5.1 11.4 11.4c0 6.2-5.1 11.4-11.4 11.4zm0-20.2c-4.9 0-8.8 3.9-8.8 8.8s3.9 8.8 8.8 8.8c4.8 0 8.8-3.9 8.8-8.8s-4-8.8-8.8-8.8z"/><path class="st7" d="M30.4 259.6c0 5.6-4.5 10.1-10.1 10.1s-10.1-4.5-10.1-10.1 4.5-10.1 10.1-10.1 10.1 4.5 10.1 10.1z"/><path class="st6" d="M20.3 271c-6.3 0-11.4-5.1-11.4-11.4s5.1-11.4 11.4-11.4 11.4 5.1 11.4 11.4c0 6.3-5.1 11.4-11.4 11.4zm0-20.2c-4.8 0-8.8 3.9-8.8 8.8 0 4.8 3.9 8.8 8.8 8.8 4.8 0 8.8-3.9 8.8-8.8s-4-8.8-8.8-8.8zm-58.1 45c-.7 0-1.3-.6-1.3-1.3v-45.3l-14.5-14.5c-.5-.5-.5-1.3 0-1.8s1.3-.5 1.8 0l14.9 14.9c.3.3.4.6.4.9v45.9c0 .6-.6 1.2-1.3 1.2zm-13.7-5.6c-.7 0-1.3-.6-1.3-1.3v-23.8l-15.9-4.3c-.7-.2-1.1-.9-.9-1.6.2-.7.9-1.1 1.6-.9l16.8 4.6c.5.2 1 .7 1 1.3V289c0 .6-.6 1.2-1.3 1.2z"/><path class="st7" d="M-62.8 233.8c0 5.6 4.5 10.1 10.1 10.1s10.1-4.5 10.1-10.1-4.5-10.1-10.1-10.1-10.1 4.5-10.1 10.1z"/><path class="st6" d="M-52.7 245.2c-6.3 0-11.4-5.1-11.4-11.4s5.1-11.4 11.4-11.4 11.4 5.1 11.4 11.4c0 6.2-5.1 11.4-11.4 11.4zm0-20.2c-4.9 0-8.8 3.9-8.8 8.8s3.9 8.8 8.8 8.8c4.8 0 8.8-3.9 8.8-8.8s-3.9-8.8-8.8-8.8z"/><path class="st7" d="M-78.4 259.6c0 5.6 4.5 10.1 10.1 10.1s10.1-4.5 10.1-10.1-4.5-10.1-10.1-10.1-10.1 4.5-10.1 10.1z"/><path class="st6" d="M-68.3 271c-6.3 0-11.4-5.1-11.4-11.4s5.1-11.4 11.4-11.4c6.3 0 11.4 5.1 11.4 11.4 0 6.3-5.1 11.4-11.4 11.4zm0-20.2c-4.8 0-8.8 3.9-8.8 8.8 0 4.8 3.9 8.8 8.8 8.8 4.8 0 8.8-3.9 8.8-8.8s-3.9-8.8-8.8-8.8z"/></svg>