<svg version="1.1" id="Calque_1" xmlns="http://www.w3.org/2000/svg" x="0" y="0" viewBox="-124 126 200 200" style="enable-background:new -124 126 200 200" xml:space="preserve"><style>.st0,.st1{fill:none;stroke:#7700f4;stroke-miterlimit:10}.st0{stroke-width:3;stroke-linecap:round;stroke-linejoin:round}.st1{stroke-width:2}.st1,.st2{stroke-linecap:round;stroke-linejoin:round}.st2,.st3{fill:none;stroke:#c0d7f1;stroke-miterlimit:10}.st4{fill:#c0d7f1}.st6{fill:#7700f4}.st7{fill:#fff}</style><g id="XMLID_13_"><path id="XMLID_8_" class="st0" d="M-98.2 165.5v5.9"/><path id="XMLID_2_" class="st0" d="M-95.3 168.5h-5.8"/></g><g id="XMLID_17_"><path id="XMLID_27_" class="st1" d="M-67.8 149.7v4.9"/><path id="XMLID_26_" class="st1" d="M-65.3 152.1h-5"/></g><g id="XMLID_28_"><path id="XMLID_30_" class="st2" d="M-48.7 177.7v2.6"/><path id="XMLID_29_" class="st2" d="M-47.4 179H-50"/></g><path id="XMLID_14_" class="st3" d="M-51.3 146.7c-.1 0-.2.1-.2.1h-.6c-.7-.2-1.1-.9-.9-1.6s.9-1.1 1.6-.9c.7.2 1.1.9.9 1.6"/><path id="XMLID_16_" class="st3" d="M-26.5 132.2c-.1 0-.2.1-.2.1h-.4c-.6-.2-.9-.7-.7-1.3.2-.6.7-.9 1.3-.7.6.2.9.7.7 1.3"/><path class="st4" d="M-84.1 139.2c-1 0-1.9-.8-1.9-1.9V129c0-1 .8-1.9 1.9-1.9 1 0 1.9.8 1.9 1.9v8.3c0 1-.9 1.9-1.9 1.9z"/><path class="st4" d="M-79.9 135h-8.3c-1 0-1.9-.8-1.9-1.9s.8-1.9 1.9-1.9h8.3c1 0 1.9.8 1.9 1.9s-.9 1.9-1.9 1.9z"/><path d="M81.9 220.6v-554.8M-90.2 220.6v-554.8" style="fill:none"/><path class="st6" d="M1.3 298.5h-50.6c-.4 0-.8-.2-1-.5l-31.5-39.6c-.3-.3-.4-.7-.3-1.1l11.3-49.3c.1-.4.4-.7.7-.9l45.6-22c.4-.2.8-.2 1.2 0l45.6 22c.4.2.6.5.7.9l11.3 49.3c.1.4 0 .8-.3 1.1L2.3 298c-.3.3-.6.5-1 .5zm-50-2.7H.7l30.8-38.5-11-48.1-44.5-21.4-44.4 21.4-11 48.1 30.7 38.5z"/><path class="st6" d="M-24 298.5c-.7 0-1.3-.6-1.3-1.3v-32.4c0-.7.6-1.3 1.3-1.3s1.3.6 1.3 1.3v32.4c0 .7-.6 1.3-1.3 1.3zm25.1 0c-.7 0-1.3-.6-1.3-1.3v-32.4c0-.7.6-1.3 1.3-1.3s1.3.6 1.3 1.3v32.4c0 .7-.6 1.3-1.3 1.3zm-12.6-55.9c-.3 0-.7-.1-.9-.4-.5-.5-.5-1.3 0-1.9l33-33c.5-.5 1.3-.5 1.9 0 .5.5.5 1.3 0 1.9l-33.1 33c-.2.3-.5.4-.9.4zm-24.9 0c-.3 0-.7-.1-.9-.4l-33-33c-.5-.5-.5-1.3 0-1.9.5-.5 1.3-.5 1.9 0l33 33c.5.5.5 1.3 0 1.9-.3.3-.7.4-1 .4zm-12.7 55.9c-.7 0-1.3-.6-1.3-1.3v-32.4c0-.7.6-1.3 1.3-1.3.7 0 1.3.6 1.3 1.3v32.4c0 .7-.6 1.3-1.3 1.3zm25.1-82.6c-.7 0-1.3-.6-1.3-1.3v-28.3c0-.7.6-1.3 1.3-1.3s1.3.6 1.3 1.3v28.3c0 .8-.6 1.3-1.3 1.3z"/><path class="st7" d="M-4.3 241.3c0 3.9-3.2 7.1-7.1 7.1s-7.2-3.2-7.2-7.1 3.2-7.2 7.2-7.2 7.1 3.2 7.1 7.2z"/><path class="st6" d="M-11.5 249.8c-4.7 0-8.5-3.8-8.5-8.5s3.8-8.5 8.5-8.5 8.4 3.8 8.4 8.5c.1 4.7-3.7 8.5-8.4 8.5zm0-14.3c-3.2 0-5.8 2.6-5.8 5.8 0 3.2 2.6 5.8 5.8 5.8 3.2 0 5.8-2.6 5.8-5.8.1-3.2-2.5-5.8-5.8-5.8z"/><path class="st7" d="M-43.5 241.3c0 3.9 3.2 7.1 7.1 7.1s7.2-3.2 7.2-7.1-3.2-7.2-7.2-7.2c-3.9.1-7.1 3.2-7.1 7.2z"/><path class="st6" d="M-36.4 249.8c-4.7 0-8.4-3.8-8.4-8.5s3.8-8.5 8.4-8.5 8.5 3.8 8.5 8.5-3.8 8.5-8.5 8.5zm0-14.3c-3.2 0-5.8 2.6-5.8 5.8 0 3.2 2.6 5.8 5.8 5.8 3.2 0 5.8-2.6 5.8-5.8 0-3.2-2.6-5.8-5.8-5.8z"/><path class="st7" d="M8.2 264.8c0 3.9-3.2 7.1-7.1 7.1s-7.1-3.2-7.1-7.1c0-3.9 3.2-7.2 7.1-7.2 3.9 0 7.1 3.2 7.1 7.2z"/><path class="st6" d="M1.1 273.2c-4.7 0-8.5-3.8-8.5-8.5s3.8-8.5 8.5-8.5 8.4 3.8 8.4 8.5-3.8 8.5-8.4 8.5zm0-14.3c-3.2 0-5.8 2.6-5.8 5.8 0 3.2 2.6 5.8 5.8 5.8 3.2 0 5.8-2.6 5.8-5.8 0-3.2-2.6-5.8-5.8-5.8z"/><path class="st7" d="M-42 264.8c0 3.9-3.2 7.1-7.1 7.1s-7.1-3.2-7.1-7.1c0-3.9 3.2-7.2 7.1-7.2 4 0 7.1 3.2 7.1 7.2z"/><path class="st6" d="M-49.1 273.2c-4.7 0-8.5-3.8-8.5-8.5s3.8-8.5 8.5-8.5 8.4 3.8 8.4 8.5c.1 4.7-3.7 8.5-8.4 8.5zm0-14.3c-3.2 0-5.8 2.6-5.8 5.8 0 3.2 2.6 5.8 5.8 5.8 3.2 0 5.8-2.6 5.8-5.8 0-3.2-2.6-5.8-5.8-5.8z"/><path class="st7" d="M-16.9 264.8c0 3.9-3.2 7.1-7.1 7.1s-7.1-3.2-7.1-7.1c0-3.9 3.2-7.2 7.1-7.2s7.1 3.2 7.1 7.2z"/><path class="st6" d="M-24 273.2c-4.7 0-8.5-3.8-8.5-8.5s3.8-8.5 8.5-8.5 8.4 3.8 8.4 8.5-3.7 8.5-8.4 8.5zm0-14.3c-3.2 0-5.8 2.6-5.8 5.8 0 3.2 2.6 5.8 5.8 5.8 3.2 0 5.8-2.6 5.8-5.8 0-3.2-2.6-5.8-5.8-5.8z"/><path class="st7" d="M-16.9 214.6c0 3.9-3.2 7.1-7.1 7.1s-7.1-3.2-7.1-7.1c0-3.9 3.2-7.2 7.1-7.2s7.1 3.3 7.1 7.2z"/><path class="st6" d="M-24 223.1c-4.7 0-8.5-3.8-8.5-8.4s3.8-8.5 8.5-8.5 8.4 3.8 8.4 8.5-3.7 8.4-8.4 8.4zm0-14.3c-3.2 0-5.8 2.6-5.8 5.8 0 3.2 2.6 5.8 5.8 5.8 3.2 0 5.8-2.6 5.8-5.8 0-3.2-2.6-5.8-5.8-5.8z"/></svg>