<svg version="1.1" id="OBJECTS" xmlns="http://www.w3.org/2000/svg" xmlns:xlink="http://www.w3.org/1999/xlink" x="0" y="0" viewBox="0 0 750 480.1" style="enable-background:new 0 0 750 480.1" xml:space="preserve"><style>.st3{clip-path:url(#SVGID_3_)}.st5{fill:#fff}.st13{fill:#bce0ed}.st15{fill:#383838}</style><linearGradient id="SVGID_1_" gradientUnits="userSpaceOnUse" x1="375" y1="480.091" x2="375" y2="0"><stop offset="0" style="stop-color:#fff"/><stop offset=".132" style="stop-color:#fbfeff"/><stop offset=".277" style="stop-color:#edf9ff"/><stop offset=".427" style="stop-color:#d8f2ff"/><stop offset=".582" style="stop-color:#b9e8ff"/><stop offset=".739" style="stop-color:#92dcff"/><stop offset=".897" style="stop-color:#62ccff"/><stop offset="1" style="stop-color:#3fc1ff"/></linearGradient><path style="fill:url(#SVGID_1_)" d="M0 0h750v480.1H0z"/><defs><path id="SVGID_2_" d="M0 0h750v480.1H0z"/></defs><clipPath id="SVGID_3_"><use xlink:href="#SVGID_2_" style="overflow:visible"/></clipPath><path d="M822.7 406.8c2.2-51.8-10-109.7-49.8-142.2-96.8-18.2-199.4 7.2-297.6 8.8-43.3.7-71.7 3-114.8 7.8-41 4.6-94.3-16.4-133.3 1.5-55.1 25.3-93.3 18.1-186.6 19-47.6.4-84.3-14.9-108-3.5-9 4.3-5.8 40.4-1.6 72.2-2.3 29.8 9.9 92.9 10.7 105 1.1 16.8-1.3 32.1 7.5 46.4 12.3 20.1 40.1 22.3 63.7 22.2 172.9-.8 345.6-9.9 518.4-12.6 96.5-1.5 194.1 11.4 285.4-6.6 9.7-32 13.9-76.7 6-118z" style="clip-path:url(#SVGID_3_);fill:#59a1e5"/><linearGradient id="SVGID_4_" gradientUnits="userSpaceOnUse" x1="-71.462" y1="393.336" x2="828.554" y2="393.336"><stop offset="0" style="stop-color:#3fc1ff"/><stop offset="1" style="stop-color:#009ae9"/></linearGradient><path d="M824.4 399.1c2.2-51.8-10-109.7-49.8-142.2-96.8-18.2-199.4 7.2-297.6 8.8-43.3.7-72.6 19.4-115.6 24.3-41 4.6-84-.2-130.3 1.9-60.5 2.8-95.5 1.3-188.8 2.2-47.6.4-84.3-14.9-108-3.5-9 4.3-5.8 40.4-1.6 72.2-2.3 29.8 9.9 92.9 10.7 105 1.1 16.8-1.3 32.1 7.5 46.4 12.3 20.1 40.1 22.3 63.7 22.2 172.9-.8 345.6-9.9 518.4-12.6 96.5-1.5 194.1 11.4 285.4-6.6 9.7-32.2 13.9-76.8 6-118.1z" style="clip-path:url(#SVGID_3_);fill:url(#SVGID_4_)"/><g class="st3"><linearGradient id="SVGID_5_" gradientUnits="userSpaceOnUse" x1="287.11" y1="189.287" x2="817.016" y2="189.287"><stop offset="0" style="stop-color:#fff"/><stop offset=".132" style="stop-color:#fbfeff"/><stop offset=".277" style="stop-color:#edf9ff"/><stop offset=".427" style="stop-color:#d8f2ff"/><stop offset=".582" style="stop-color:#b9e8ff"/><stop offset=".739" style="stop-color:#92dcff"/><stop offset=".897" style="stop-color:#62ccff"/><stop offset="1" style="stop-color:#3fc1ff"/></linearGradient><path style="fill:url(#SVGID_5_)" d="m817 288.9-200.3-139-17.8 10.2-70.3-71.7-67.8 79.2-24.2-10.3-57 52.2-13.3-12.1-36.4 46.5-42.8 46.3z"/><path class="st5" d="m615.1 151.1-1.6 74.5-33.9 18.6-11.1 39.4s-216.7-2.5-263.5 0c25.4-35.4 62.7-81.5 62.7-81.5l14.9 12.3 58.2-52.2 19.4 7.5 68.6-79.6-26.8 93.3-21 52.2 61.4-49.7 38.8 3.7 33.9-38.5z"/></g><linearGradient id="SVGID_6_" gradientUnits="userSpaceOnUse" x1="361.994" y1="584.289" x2="361.994" y2="298.89"><stop offset="0" style="stop-color:#3fc1ff"/><stop offset="1" style="stop-color:#009ae9"/></linearGradient><path d="M800.7 447c1.1-26 24.8-87.9 17-113-12.3-39.4-65.8-32-106.9-34.3-28.6-1.6-88 5.1-126.7 5.8-16.9.3-26.5-7.7-39.2-6.5-24.8 2.4-17.7 3.5-42.3 5.4-16.8 1.3-30.2-2.8-46.8-2.5-28.8.5-60.7-7.5-71.9 2.9-5.9 5.5 7 3.3-4.9 11.7-14.2 10-31.2 9.2-57.1 11.7-23 2.2-36.1-14.2-59.6-15-28.9-1-68.6 6.1-84.2 5.2-21-1.2-42.9-2.9-57-4.5-6.8-.8-14.7-11.6-21.4-12.3-24-2.6-41.1 3.4-91.4 3.9-47.6.4-74 21.6-97.6 33.1-9 4.3-5.8 40.4-1.6 72.2-2.3 29.8 9.9 92.9 10.7 105 1.1 16.8-1.3 32.1 7.5 46.4 12.3 20.1 40.1 22.3 63.7 22.2 172.9-.8 345.6-9.9 518.4-12.6 96.5-1.5 194.1 11.4 285.4-6.6 9.6-32.3 13.7-76.9 5.9-118.2z" style="opacity:.25;clip-path:url(#SVGID_3_);fill:url(#SVGID_6_)"/><linearGradient id="SVGID_7_" gradientUnits="userSpaceOnUse" x1="367.178" y1="595.522" x2="367.178" y2="308.501"><stop offset="0" style="stop-color:#0063e9"/><stop offset=".503" style="stop-color:#3fc1ff"/><stop offset="1" style="stop-color:#009ae9"/></linearGradient><path d="M805.8 458.2c1.1-26 24.8-87.9 17-113-12.3-39.4-85.2-28.4-126.4-30.8-28.6-1.6-68.6 1.6-107.3 2.3-16.9.3-26.5-7.7-39.2-6.5-24.8 2.4-17.7 3.5-42.3 5.4-16.8 1.3-21.4-5-38-4.8-43.3.7-32.8-11.6-68.3 13.4-14.2 10-48.4 12.7-74.4 15.2-23 2.2-47.1-7.7-70.6-8.5-28.9-1-56.3 6.7-71.9 5.8-21-1.2-43.7 3.3-57.9 1.7-6.8-.8-12.6-10.7-19.2-11.4-24-2.6-43.7-1.5-94-1.1-47.6.4-74 12.3-97.6 23.8-9 4.3-5.8 40.4-1.6 72.2-2.3 29.8 9.9 92.9 10.7 105 1.1 16.8-1.3 32.1 7.5 46.4 12.3 20.1 40.1 22.3 63.7 22.2 172.9-.8 345.6-9.9 518.4-12.6 96.5-1.5 194.1 11.4 285.4-6.6 9.8-32.1 13.9-76.7 6-118.1z" style="clip-path:url(#SVGID_3_);fill:url(#SVGID_7_)"/><linearGradient id="SVGID_8_" gradientUnits="userSpaceOnUse" x1="380.446" y1="519.27" x2="915.552" y2="519.27"><stop offset="0" style="stop-color:#fff"/><stop offset=".132" style="stop-color:#fbfeff"/><stop offset=".277" style="stop-color:#edf9ff"/><stop offset=".427" style="stop-color:#d8f2ff"/><stop offset=".582" style="stop-color:#b9e8ff"/><stop offset=".739" style="stop-color:#92dcff"/><stop offset=".897" style="stop-color:#62ccff"/><stop offset="1" style="stop-color:#3fc1ff"/></linearGradient><path d="M456 525.6c13.6-5.8 18.1-18.5 30.5-26.6 24.6-16.2 35.3-6.8 51.2-12.3 22.2-7.8 41.7-12.4 64.2-19.3 30.2-9.2 63.3 4.9 94.6.5 34.3-4.9 68.1 9.7 102.4 4.8 17.2-2.5 51.3-25.5 68.3-21.6 24.6 5.7 27.2 7.3 37.8 30.2s12.4 49.2 9.1 74.2c-1.1 8.3-3 17.1-8.8 23.3-8.4 9-22.3 9.9-34.6 8.6-12.3-1.3-24.5-.8-36.8-.8H382.2c-5 0 2.6-19.6 4-21.7 4.6-6.6 41.7-13.8 48.1-18.7 13.1-10.2 6.5-14 21.7-20.6z" style="clip-path:url(#SVGID_3_);fill:url(#SVGID_8_)"/><linearGradient id="SVGID_9_" gradientUnits="userSpaceOnUse" x1="-26.792" y1="343.632" x2="36.799" y2="343.632"><stop offset="0" style="stop-color:#fff"/><stop offset=".395" style="stop-color:#fdfeff"/><stop offset=".537" style="stop-color:#f6fcff"/><stop offset=".638" style="stop-color:#ebf8ff"/><stop offset=".72" style="stop-color:#daf3ff"/><stop offset=".79" style="stop-color:#c4ecff"/><stop offset=".852" style="stop-color:#a8e3ff"/><stop offset=".908" style="stop-color:#88d9ff"/><stop offset=".958" style="stop-color:#64cdff"/><stop offset="1" style="stop-color:#3fc1ff"/></linearGradient><path d="M36.8 350.9c-7.6-.4-14.2-5.2-20.7-9.2-6.5-4-14.3-7.5-21.6-5.1-4.6 1.5-7.9 5-11.6 8-2.8 2.3-7.9 4.1-9.7 6.9 21.3-.4 42.3-1.9 63.6-.6z" style="clip-path:url(#SVGID_3_);fill:url(#SVGID_9_)"/><linearGradient id="SVGID_10_" gradientUnits="userSpaceOnUse" x1="713.305" y1="339.527" x2="776.897" y2="339.527"><stop offset="0" style="stop-color:#fff"/><stop offset=".395" style="stop-color:#fdfeff"/><stop offset=".537" style="stop-color:#f6fcff"/><stop offset=".638" style="stop-color:#ebf8ff"/><stop offset=".72" style="stop-color:#daf3ff"/><stop offset=".79" style="stop-color:#c4ecff"/><stop offset=".852" style="stop-color:#a8e3ff"/><stop offset=".908" style="stop-color:#88d9ff"/><stop offset=".958" style="stop-color:#64cdff"/><stop offset="1" style="stop-color:#3fc1ff"/></linearGradient><path d="M776.9 346.7c-7.6-.4-14.2-5.2-20.7-9.2-6.5-4-14.3-7.5-21.6-5.1-4.6 1.5-7.9 5-11.6 8-2.8 2.3-7.9 4.1-9.7 6.9 21.3-.3 42.3-1.8 63.6-.6z" style="clip-path:url(#SVGID_3_);fill:url(#SVGID_10_)"/><g class="st3"><linearGradient id="SVGID_11_" gradientUnits="userSpaceOnUse" x1="261.204" y1="461.16" x2="796.304" y2="461.16"><stop offset="0" style="stop-color:#fff"/><stop offset=".395" style="stop-color:#fdfeff"/><stop offset=".537" style="stop-color:#f6fcff"/><stop offset=".638" style="stop-color:#ebf8ff"/><stop offset=".72" style="stop-color:#daf3ff"/><stop offset=".79" style="stop-color:#c4ecff"/><stop offset=".852" style="stop-color:#a8e3ff"/><stop offset=".908" style="stop-color:#88d9ff"/><stop offset=".958" style="stop-color:#64cdff"/><stop offset="1" style="stop-color:#3fc1ff"/></linearGradient><path d="M794.8 497.4c-1.1 8.3-3 17.1-8.7 23.3-8.4 9-22.3 9.9-34.6 8.6-12.3-1.3-24.5-.8-36.8-.8H263c-5 0 2.6-19.6 4-21.7 3.7-5.2 27.8-10.9 40.7-15.4 3.4-1.2 6-2.3 7.3-3.3 13.2-10.1 6.6-14 21.8-20.5 13.5-5.8 18.1-18.5 30.5-26.6 24.6-16.2 35.3-6.8 51.2-12.3 10.8-3.8 20.9-6.8 31.1-9.7 10.8-3.1 21.6-6 33.2-9.6 1.1-.3 2.1-.6 3.2-.9 7.3-1.8 14.7-2.4 22.2-2.3 22.8.3 46.4 6.9 69.1 3.6 34.3-4.9 68.1 9.7 102.4 4.8 10.4-1.5 27.2-10.6 42.5-16.7 4.4-1.7 8.6-3.2 12.6-4.2 5-1.2 9.5-1.6 13.2-.8 24.6 5.7 27.2 7.3 37.8 30.2 10.5 23 12.3 49.3 9 74.3z" style="fill:url(#SVGID_11_)"/><linearGradient id="SVGID_12_" gradientUnits="userSpaceOnUse" x1="449.466" y1="419.406" x2="734.654" y2="419.406"><stop offset="0" style="stop-color:#3fc1ff"/><stop offset="1" style="stop-color:#009ae9"/></linearGradient><path d="M734.7 393.8c-3.7 7.7-4.6 16.4-6.8 24.6-2.3 8.5-6.6 17.3-14.5 21-5.5 2.6-11.8 2.3-17.8 1.9-32.3-2.3-64.9-8-96.9-3-20.8 3.2-42.3 10.8-62.3 4.2-15.1-5-28.2-17.8-44-16.8-6 .4-11.7 2.8-17.4 4.5-5.8 1.7-12.1 2.7-17.7.3-4.5-1.9-8-6.8-7.7-11.4 10.8-3.1 21.6-6 33.2-9.6 1.1-.3 2.1-.6 3.2-.9 7.3-1.8 14.7-2.4 22.2-2.3 22.8.3 46.4 6.9 69.1 3.6 34.3-4.9 68.1 9.7 102.4 4.8 10.4-1.5 27.2-10.6 42.5-16.7 4.2-1.8 8.5-3.2 12.5-4.2z" style="opacity:.15;fill:url(#SVGID_12_)"/></g><path class="st5" d="M545.8 371.4c-.1.9-.1 1.8-.1 2.7-.2 4.3-.5 8.6-3.8 11.8-1.3 1.3-2.9 2.4-4.6 3.3-2.1 1.1-4.4 1.8-6.7 2.5-2.4.7-4.8 1.2-7.1 1.9-1.2.4-2.5.8-3.6 1.3-1.5.7-1.6.8-2 2.5 0 .1 0 .2-.1.3-.2.2-.5-.2-.5-.4-.3-1.6-3.4 1.8-3.9 2.4-1.5 1.9-2.9 4.4-2.4 6.9-.8-.3-1.9 1.8-2.7 2.3-1.1.7-2.4.7-3.7.5-.2 0-.4-.1-.6-.1-3.6-1-7.4-3.6-10.1-6.8-.7-.9-1.3-1.8-1.9-2.7-1.3-2.4-2-5.1-1.6-7.8.6-4.1 3.5-7.1 6.9-9.5-.3-.2-.6-.3-.9-.5 1-.1 2-.5 3-.9 2-.9 3.9-2.3 5.6-3.4 2.4-1.5 5.2-3.2 7.7-5.2 1.3-1.1 2.5-2.2 3.5-3.4 2.7-3.4 3.9-8.4 4.9-12.5 1-4.1 3-4.6 7.6-4.4 3.9.2 7.7 1.6 10.7 4.1 4.3 3.2 6.8 9.3 6.4 15.1z"/><path class="st13" d="M545.8 371.4c-.1.9-.1 1.8-.1 2.7-.2 4.3-.5 8.6-3.8 11.8-1.3 1.3-2.9 2.4-4.6 3.3L512.7 372c1.3-1.1 2.5-2.2 3.5-3.4 2.7-3.4 3.9-8.4 4.9-12.5 1-4.1 3-4.6 7.6-4.4 3.9.2 7.7 1.6 10.7 4.1 4.3 3.7 6.8 9.8 6.4 15.6z"/><path class="st5" d="M662 382.4c.2 2.6-3.4 7.7-6 10.9-.5.6-1 1.2-1.4 1.6-5.4 6.1-8 9.4-9.5 11.7-1.3 2-1.8 3.3-2.6 5-.3.7-.6 1.4-.7 2.1-1 4.5 1.1 8.3-2.4 8.6-1.3.1-7.8 1.7-14.8 1.8-4.1.1-8.7-.2-11.9-.9-1.1-.2-2.2-.4-3.1-.6-3.8-.7-6.1-1-6.1-3.6 0-.7.3-1.3.7-1.7.9-.9 2.6-1.2 3.9-1.4 2.5-.3 4.9 0 7-1.7 2.9-2.3 4.3-6 5.4-9.5-.3-.1-.6-.2-1-.3 1.3-2.3 2.3-4.1 2.8-6.7.1-.3.1-.5.1-.8.3-1.8.4-3.5.2-5.1-.5-3.6-2.7-8.2-4.9-12.6-2.3-4.7-4.5-9.3-4.7-12.8-.6-9.1 6.8-11.5 11.4-11.9 7.4-.4 36 8.9 37.6 27.9z"/><path d="M662 382.4c.2 2.6-3.4 7.7-6 10.9-.5.6-1 1.2-1.4 1.6-5.4 6.1-8 9.4-9.5 11.7-.5-.4-1-.8-1.5-1.1-2.9-2.4-6.1-4.3-9.5-5.7-3.1-1.3-6.3-2.1-9.6-2.6-.8-.1-1.5-.2-2.2-.2.3-1.8.4-3.5.2-5.1-.5-3.6-2.7-8.2-4.9-12.6-2.3-4.7-4.5-9.3-4.7-12.8-.6-9.1 6.8-11.5 11.4-11.9 7.5-.5 36.1 8.8 37.7 27.8z" style="fill:#9bcfdd"/><path class="st5" d="M512.9 347.3c-.2.4-.5.7-.8 1.1-3.4 4.8-7.6 8.8-12.8 9.3-.8.1-1.2-.1-1.6.5-.1.2-.4 1.6-.3 1.8-.4-1.4-4.1-5-5.7-3.2-.2.2-.2 1.3 0 1.4-1.4-.7-2.7-1.7-3.8-2.8-.2-.2-2.6-3.6-3-3-.3.4-.4 1-.6 1.5-1.2-1.1-2.5-2.3-3.7-3.4-.4-.3-1-1.2-1.5-1.1-.5.1-.8.6-.6 1.1-.4-.8-1-2.8-1.9-3-.9-.2-1.6.8-1.5 1.6-.5-3.8-3.6-4.4-6.6-5.9-2.1-1-4.1-2.2-5.8-3.7-.7-.6-1.5-1.3-2.1-2.1-.1-.2-.3-.3-.4-.5-.2-.3-.3-.5-.5-.8l-.3-.6c-.2-.4-.3-.9-.4-1.3 0-.2-.1-.4-.1-.6 0-.3-.1-.5-.1-.8v-1.6c.1-.8.3-1.5.5-2.2.1-.3.2-.5.4-.7.1-.1.1-.2.2-.2.1-.1.2-.2.3-.2.1-.1.2-.2.4-.2.1-.1.2-.1.4-.2.1-.1.3-.1.4-.2.2-.1.3-.1.5-.1.3-.1.7-.2 1.1-.2.5-.1 1.1-.1 1.7-.2 2.4-.1 5.4 0 8.4-.3.3 0 .6-.1.8-.1 1.8-.5 2.8-1.8 5.1-2.3 9-1.7 19.2-1.1 27.5.2 1.1.2 2.1.4 3.1.6 2.2.4 4.2.9 5.9 1.4.3.1.6.2.8.4 3.6 2 2.2 12.2-3.4 20.6z"/><path class="st5" d="M688.7 354.1c-.8-7-4-13.8-7.8-19.7-2.4-3.7-5.1-7.1-8.2-10.2-1.5-1.5-9.7-6.8-8.5-8.7-4.6-.8-8.8-2.7-13.2-4.1.2-.4.3-.7.5-1.1-1.4.2-2.8.2-4.2.1-.3-.1-.7-.1-1-.2l.6.2c-2.8-.2-5.6-.8-8.5-.8-1.9 0-4 .2-6.5.5-7.6.9-17.8 3-28.2 4.6-7.2 1.1-14.4 1.9-21 1.9-7.2 0-11.9-1.5-16.1-3-2.8-1-5.2-2-8.1-2.5-2.8-.5-5.8-.5-9.8.3-.9.2-1.9.4-2.8.6-3.2.8-6 2.2-9 3.6-2.1.9-4.2 1.7-6.4 2.3-1.8.6-3.7 1.1-5.6 1.5-2 .5-4.4 1.6-6.4 1.6-.1-.3-.2-.7-.3-1-2.8 2.1-6.1 2.3-9.4 3h-.2c-1.7.3-3.3.9-4.7 1.6-.8.4-1.5.8-2.2 1.3-6.5 4.6-8.7 13.1-8.7 19.6 0 3 .9 5.9 2.4 8.5.8 1.4 1.9 2.7 3 3.9.3.3.6.7.9 1.1 0 .1.1.1.1.2.3.4.6.9.8 1.3.3.5.5 1 .7 1.5.4.7.5 0 1-.1 1-.4 2.2.9 2.9 1.4 1 .7 2.1 1.3 3.1 1.9.4.2 1.1.4 1.5.8.4.4.4 1 .8 1.3.7.5 1.4-.1 2.1 0 .8.1 1.7.7 2.4 1.1.4.2.8.3 1.3.5 1.4.5 2.8 1.1 4.2 1.5 4 1.4 8.2 2.5 12.3 3.5.7.2 1.5.3 2.2.5.3.1.7.2 1 .2 2.9.7 6 1.3 9.1 1.9.2 0 .5.1.7.1 11 2.2 23.1 4.5 36 8.4.6.2 1.3.4 1.9.6.3.1.5.2.8.2 1.2.4 2.3.7 3.5 1.2.7.2 1.4.5 2.1.7 1.5.5 2.9 1 4.4 1.6 1.5.6 2 1.6 3 2.9-.5-.8.8-1.3 1.2-1.2.8.1 1.9 1.4 2.4 2 0-.5.1-1 .1-1.5l-.5-.1 4.2.9c.5.1 1.5 0 2 .3s.8 1 1.4 1.3c.4-1.4.7-1.1 2.2-1 1.1.1 2.1 0 3.1.4 1.1.4 2.1 1.2 3 1.9-.7-.6.3-1.9.9-2 1.9-.5 3.5.4 4.9 1.7.1-.9 0-1.4.8-1.6.9-.3 2.7-.2 3.5.3 1.1.6 1.6 1.9 2.9 2.3-.7-.2-1.7-1.8-1.1-2.4.5-.5 3 0 3.7 0 3.6.2 7 .4 10.2.4h7.3c2.4-.1 4.8-.2 7-.4 1.3-.1 2.5-.3 3.8-.4 12.7-1.8 21.9-6.3 27.3-14.7.3-.4.5-.9.7-1.4 1.9-5.4 1.5-14.6.5-22.9zm-90.6 36.7c.4 0 1 .2 1.4.4l-1.4-.4z"/><ellipse transform="rotate(19.098 483.742 329.96)" class="st15" cx="483.7" cy="329.9" rx="2" ry="1.3"/><path class="st5" d="M591.6 412.7c.2 6-7.1 12.9-10.7 14.8-1.6.8-9 1.8-15.8 1.9-1.4 0-2.8 0-4.1-.1-5.7-.3-7.6-.2-8.9-3.1-.4-1-.2-1.9.5-2.7 2.3-2.7 9.5-4.4 9.5-7.4-.1-4.5-5.7-12.4-9.5-18.2-.1.5-.1 1-.2 1.5-1.7-6.3-6.2-11.1-10.5-16.1-2.4-2.8-4.7-5.7-6.3-8.9 0-.1-.1-.2-.1-.2-3.4-6.8 2.1-13.4 6.4-16.7.9-.7 1.7-1.2 2.4-1.6 6.7-3.6 21.7-10.1 30.7 6.7 1.5 2.8 2.5 9.5 3.8 12.8 1.4 3.4 2.9 6.7 4.4 10 .7 1.4 1.3 2.9 2 4.3 1 2.1 1.9 4.2 2.7 6.3.8 2.1 1.3 4.3 3.4 5.5-2.1.9-.8 2.6-.5 4.5.5 2.2.7 4.4.8 6.7z"/><ellipse transform="rotate(19.1 484.565 329.725)" cx="484.5" cy="329.7" rx=".7" ry=".5" style="fill:#fcfcfc"/><path class="st13" d="M509.3 342c-.7.6-1.7.1-1.7-.8-.1-3.7-.1-11.2 1.6-12.7 2.2-1.9 15.2 1 .1 13.5z"/><path class="st15" d="M510.8 337.8c-.5.5-1.4.1-1.4-.6 0-1.9.1-4.7.8-5.3 1-.9 6.9.4.6 5.9z"/><path class="st13" d="M474.1 326.1c-.1.4-.2.8-.3 1.1-.9 2.3-3.4 2.6-4.9 4.4-.8 1-1.2 2.3-1.3 3.6-.1 1.3 0 2.7.3 4 .3 1.3.9 2.5.7 3.9-2.1-1-4.1-2.2-5.8-3.7-.7-.6-1.5-1.3-2.1-2.1-.1-.2-.3-.3-.4-.5-.2-.3-.3-.5-.5-.8l-.3-.6c-.2-.4-.3-.9-.4-1.3 0-.2-.1-.4-.1-.6 0-.3-.1-.5-.1-.8v-1.6c.1-.8.3-1.5.5-2.2.1-.3.2-.5.4-.7.1-.1.1-.2.2-.2.1-.1.2-.2.3-.2.1-.1.2-.2.4-.2.1-.1.2-.1.4-.2.1-.1.3-.1.4-.2.2-.1.3-.1.5-.1.3-.1.7-.2 1.1-.2.5-.1 1.1-.1 1.7-.2 2.4-.1 5.4 0 8.4-.3.3-.2.6-.2.9-.3zM649 393.9c-1.7 0-3.4.1-5.2 0h-2.1c-3.3-.1-6.7-.2-10.2-.4-.7 0-3.2-.6-3.7 0-.6.6.5 2.2 1.1 2.4-1.2-.4-1.8-1.7-2.9-2.3-.8-.5-2.6-.6-3.5-.3-.8.3-.7.8-.8 1.6-1.4-1.2-3-2.1-4.9-1.7-.6.1-1.5 1.5-.9 2-.9-.7-1.9-1.5-3-1.9-1-.4-2.1-.3-3.1-.4-1.4-.1-1.7-.4-2.2 1-.5-.3-.9-1-1.4-1.3-.5-.3-1.4-.2-2-.3-1.4-.2-2.8-.5-4.2-.9l.5.1c0 .5-.1 1-.1 1.5-.4-.6-1.6-1.9-2.4-2-.4 0-1.7.5-1.2 1.2-.9-1.4-1.4-2.3-3-2.9-1.4-.6-2.9-1.1-4.4-1.6-.7-.2-1.4-.5-2.1-.7-1.2-.4-2.3-.8-3.5-1.2-.3-.1-.5-.2-.8-.2l-.2-.3-4.4-10c.7.4 27.2 16.2 62 9.2 5.4 7.2 7.7 9 8.6 9.4z"/><path class="st15" d="M462.8 329.7c-.7 2.1-2.3 3.6-3.7 3.8 0-.3-.1-.5-.1-.8v-1.6c.1-.8.3-1.5.5-2.2.1-.3.2-.5.4-.7.1-.1.1-.2.2-.2.1-.1.2-.2.3-.2.1-.1.2-.2.4-.2.1-.1.2-.1.4-.2.1-.1.3-.1.4-.2.2-.1.3-.1.5-.1.3-.1.7-.2 1.1-.2.1.7 0 1.7-.4 2.8z"/><path class="st5" d="M687.1 381.4c-1.5 3.2-2.6 6.8-2.4 10.3.2 2.7 1.5 7.5 4.5 8.1.3.1.7.1.9.3.2.2.1.6.3.9.2.4 1 .7 1.3.9 2 1.5 4.4 3.9 6.9 4.1-.3 1 .6 1.1.8 2 .2.9.2 2-.4 2.7-.6.8-2.3 5.9-5.7 10.2-3.5 4.5-9.3 8-13.5 8.1-2.3.1-5.3-.1-8-.6-3.9-.7-7.3-1.9-7.4-3.7 0-.4.3-.8 1-1.2 2.4-1.4 8.5-2.6 6.7-5.1-1.7-2.3-4.6-4.8-7.9-7.4-.2.5-.4 1-.6 1.6-.5-1-.9-2.3-1.6-3.2-1-1.2-2.7-2.1-3.9-3-5.9-4.6-12.6-11.3-17.9-15.6-7.1-5.8-14.3-16.3-11.4-20 4.6-6 44.4-29 59.5-17.2 2.5 1.9 3.3 19 0 25.3-1 2-2 3.6-.9 5.8-.5 0-1-.2-1.4-.5"/><path class="st15" d="M503.9 409c-3.6-1-7.4-3.6-10.1-6.8-.7-.9-1.3-1.8-1.9-2.7 1.4-.3 2.7.9 2.6 2.6 1.1-.2 2.2-.1 3.1.6.9.7 1.4 1.8 1.3 2.9 1.7-.5 3.7.4 4.5 2 .4.4.6.9.5 1.4zm61.2 20.4c-1.4 0-2.8 0-4.1-.1-5.7-.3-7.6-.2-8.9-3.1-.4-1-.2-1.9.5-2.7 1-.3 2-.4 2.8 0 1.3.6 2.1 2.1 1.8 3.5.6-.6 1.5-.9 2.3-.6.8.2 1.5.9 1.7 1.7.7-.4 1.4-.6 2.1-.5.7.1 1.4.6 1.6 1.4.2 0 .2.2.2.4z"/><path class="st5" d="M691.9 349.8c1.2 1.7 2.3 3.5 2.3 5.6.1 2.4-1.8 4.9-4.2 4.8-1.5-.1-2.8-1.1-3.5-2.4-.8-1.3-1.1-2.7-1.3-4.2-.3-1.9-2.2-9.2-.3-10.4 2-1.3 5.9 5 7 6.6z"/><path class="st13" d="M631.8 310.1c-13.7 3.5-27.5 6.9-41.2 10.4-4.5 1.1-9.2 2.3-13.7 1.2-4-1-7.4-3.5-10.7-6-1.7-1.3-3.4-2.5-5.3-3.6-.6-.3-1.6-.7-2.5-1.1 2.8.5 5.3 1.5 8.1 2.5 4.1 1.5 8.8 3 16.1 3 6.6 0 13.9-.8 21-1.9 10.4-1.5 20.6-3.6 28.2-4.5z"/><path d="M616.7 365.8c3.2 6.5 8.7 11.8 15 15.4-2.2-1.3-4.4-5.6-5.8-7.7-1.9-2.9-3.5-5.8-4.9-8.9-2.9-6.2-3.6-12.9-6-19-3.6 5-.8 15.1 1.7 20.2zm-87.3-9.3c.2 2.8 1.6 5.5 3.7 7.3-.7-2.6-1.5-5.3-1.5-8.1 0-2.7.7-5.5 2.5-7.5-3.9-.1-5 5.5-4.7 8.3z" style="fill:#f0f1f2"/><path class="st15" d="M609.6 422.7c-3.8-.7-6.1-1-6.1-3.6 0-.7.3-1.3.7-1.7 1.6.4 2.8 1.8.9 2.6 1-.4 2.3.5 2.3 1.6.6-.7 2.1-.2 2.2.7v.4zm62.2 5.7c-3.9-.7-7.3-1.9-7.4-3.7 0-.4.3-.8 1-1.2 1.1.1 2.2 1.1 1.9 2.4.6-.2 1.3-.3 1.9-.1.6.2 1.1.9.9 1.4.4 0 .9 0 1.3.2.2.2.4.6.4 1z"/><linearGradient id="SVGID_13_" gradientUnits="userSpaceOnUse" x1="39.859" y1="441.6" x2="208.931" y2="441.6"><stop offset="0" style="stop-color:#3fc1ff"/><stop offset="1" style="stop-color:#009ae9"/></linearGradient><path d="M84.9 452.4c7.8.4 15.5-1.9 23.3-3.1 10.2-1.5 20.6-1.2 30.9-.9 17 .5 34 1.1 51 1.6 4.1.1 8.4.2 12.2-1.3 3.8-1.6 7-5.3 6.6-9.5-51.1-9.1-103.6-10.9-155.2-5.1-8.9 1-22.2 7.5-6.7 10.5 12.3 2.3 25.4 7.2 37.9 7.8z" style="opacity:.25;fill:url(#SVGID_13_)"/><linearGradient id="SVGID_14_" gradientUnits="userSpaceOnUse" x1="51.566" y1="420.257" x2="191.163" y2="420.257"><stop offset="0" style="stop-color:#fff"/><stop offset=".395" style="stop-color:#fdfeff"/><stop offset=".537" style="stop-color:#f6fcff"/><stop offset=".638" style="stop-color:#ebf8ff"/><stop offset=".72" style="stop-color:#daf3ff"/><stop offset=".79" style="stop-color:#c4ecff"/><stop offset=".852" style="stop-color:#a8e3ff"/><stop offset=".908" style="stop-color:#88d9ff"/><stop offset=".958" style="stop-color:#64cdff"/><stop offset="1" style="stop-color:#3fc1ff"/></linearGradient><path d="M52.1 439.6c1.3-2.1 3.5-4 5-5.9 1.8-2.1 3.2-4.8 5.4-6.5 2.2-1.8 4.4-.9 7.2-.5.4.1.8.1 1.1 0 .3-.2.6-.5.8-.8 1.5-2.6 2.2-5.9 4.5-7.9 2.5-2.2 5-.9 7.8-.4 3.1.6 4.9-2.1 7.2-4.2 2.5-2.2 5-4.4 7.5-6.7 2.1-1.9 5.1-6.1 7.7-7 2.5-.9 4.3 2.3 6 3.8 2 1.8 4.3 3.4 7 3.5 5 .2 10.5-1.6 14.9-3.8.8-.4 1.7-.8 2.5-.5.7.3 1 1 1.3 1.7 1.9 4.6 3.5 10.8 6.8 14.7 3.6 5.8 10.1 9.1 16.9 8.8 10.1-.5 20.4.8 28.1 7.1 1 .8 1.6 2.1 1.3 3.4-.5 2.1-2.7 2.3-4.5 2.3-35.9 0-71.8 0-107.8-.1H65.3c-4.4 0-9.4.6-13.8-.1l.6-.9z" style="fill:url(#SVGID_14_)"/><linearGradient id="SVGID_15_" gradientUnits="userSpaceOnUse" x1="51.566" y1="438.146" x2="191.163" y2="438.146"><stop offset="0" style="stop-color:#3fc1ff"/><stop offset="1" style="stop-color:#009ae9"/></linearGradient><path d="M190.1 435.4c-.7.2-1.5.2-2.3.2-35.9 0-71.8 0-107.8-.1H66.5c-3.6 0-7.6.4-11.3.2-1.2 1.3-2.4 2.6-3.3 4-.2.3-.4.6-.5.9 4.3.8 9.3.1 13.8.1h13.5c35.9 0 71.8 0 107.8.1 1.8 0 4.1-.2 4.5-2.3.3-1.2-.1-2.3-.9-3.1z" style="opacity:.25;fill:url(#SVGID_15_)"/><linearGradient id="SVGID_16_" gradientUnits="userSpaceOnUse" x1="208.122" y1="351.663" x2="256.999" y2="351.663"><stop offset="0" style="stop-color:#3fc1ff"/><stop offset="1" style="stop-color:#009ae9"/></linearGradient><path d="M221.1 354.4c2.3.1 4.5-.5 6.7-.8 2.9-.4 5.9-.3 8.9-.2 4.9.1 9.8.3 14.7.4 1.2 0 2.4.1 3.5-.3s2-1.4 1.9-2.4c-14.8-2.3-29.9-2.8-44.9-1.3-2.6.3-6.4 1.9-1.9 2.7 3.7.5 7.5 1.8 11.1 1.9z" style="opacity:.25;fill:url(#SVGID_16_)"/><linearGradient id="SVGID_17_" gradientUnits="userSpaceOnUse" x1="216.922" y1="343.038" x2="257.317" y2="343.038"><stop offset="0" style="stop-color:#fff"/><stop offset=".395" style="stop-color:#fdfeff"/><stop offset=".537" style="stop-color:#f6fcff"/><stop offset=".638" style="stop-color:#ebf8ff"/><stop offset=".72" style="stop-color:#daf3ff"/><stop offset=".79" style="stop-color:#c4ecff"/><stop offset=".852" style="stop-color:#a8e3ff"/><stop offset=".908" style="stop-color:#88d9ff"/><stop offset=".958" style="stop-color:#64cdff"/><stop offset="1" style="stop-color:#3fc1ff"/></linearGradient><path d="M257.3 351.5c-1-3.1-5-4-7.1-6.5-2.7-3-2.7-8.5-6.4-10.1-2.5-1.1-5.3.2-7.4 1.9-2.1 1.7-3.8 3.9-6.1 5.2-5.8 3.1-23 9.3-5.9 8.9 10.9-.3 21.9-.1 32.9.6z" style="fill:url(#SVGID_17_)"/><linearGradient id="SVGID_18_" gradientUnits="userSpaceOnUse" x1="324.315" y1="388.026" x2="429.107" y2="388.026"><stop offset="0" style="stop-color:#3fc1ff"/><stop offset="1" style="stop-color:#009ae9"/></linearGradient><path d="M352.2 394.7c4.9.2 9.6-1.2 14.4-1.9 6.3-1 12.7-.8 19.1-.6 10.5.3 21.1.7 31.6 1 2.6.1 5.2.1 7.6-.8 2.4-1 4.4-3.3 4.1-5.9-31.7-5.7-64.2-6.7-96.2-3.2-5.5.6-13.8 4.6-4.1 6.5 7.7 1.5 15.8 4.5 23.5 4.9z" style="opacity:.25;fill:url(#SVGID_18_)"/><linearGradient id="SVGID_19_" gradientUnits="userSpaceOnUse" x1="155.841" y1="302.349" x2="368.924" y2="302.349"><stop offset="0" style="stop-color:#3fc1ff"/><stop offset="1" style="stop-color:#009ae9"/></linearGradient><path d="M221.1 306.4c9.6.9 19.2.7 28.7-.7 13-1.9 25.6.5 38.7.9 21.8.7 17.1 8.4 38.9 9.1 5.3.2 31.5-2.7 36.4-4.7.6-.3 1.2-.6 1.8-1.1 6.6-5.4 2.6-16.3-6-16.5-63.2-1.9-124.1-8-186.1-1.1-11.4 1.3-28.5 9.6-8.5 13.4 16.9 3.2 39.9-.8 56.1.7z" style="opacity:9.000000e-002;fill:url(#SVGID_19_)"/><linearGradient id="SVGID_20_" gradientUnits="userSpaceOnUse" x1="333.304" y1="374.39" x2="429.978" y2="374.39"><stop offset="0" style="stop-color:#fff"/><stop offset=".395" style="stop-color:#fdfeff"/><stop offset=".537" style="stop-color:#f6fcff"/><stop offset=".638" style="stop-color:#ebf8ff"/><stop offset=".72" style="stop-color:#daf3ff"/><stop offset=".79" style="stop-color:#c4ecff"/><stop offset=".852" style="stop-color:#a8e3ff"/><stop offset=".908" style="stop-color:#88d9ff"/><stop offset=".958" style="stop-color:#64cdff"/><stop offset="1" style="stop-color:#3fc1ff"/></linearGradient><path d="M430 386.5c-11.6-.7-21.6-7.9-31.5-13.9-7.6-4.6-15.5-6.9-23.7-10.1-2.7-1-5.8-1.6-8.4-.4-1.3.6-2.4 1.6-3.5 2.6-3.1 2.9-6.1 5.7-8.9 8.8-2.4 2.7-5.5 3.7-8.7 5.1-3.8 1.8-9.6 5.1-12 8.7 32.3-.4 64.3-2.7 96.7-.8z" style="fill:url(#SVGID_20_)"/><linearGradient id="SVGID_21_" gradientUnits="userSpaceOnUse" x1="333.304" y1="384.142" x2="429.978" y2="384.142"><stop offset="0" style="stop-color:#3fc1ff"/><stop offset="1" style="stop-color:#009ae9"/></linearGradient><path d="M412.6 381c-24.7-.5-49.2.9-73.9 1.4-2.2 1.5-4.2 3.2-5.4 5 32.3-.5 64.3-2.8 96.7-.9-6.2-.4-11.9-2.6-17.4-5.5z" style="opacity:.25;fill:url(#SVGID_21_)"/><linearGradient id="SVGID_22_" gradientUnits="userSpaceOnUse" x1="221.717" y1="252.278" x2="314.493" y2="345.054"><stop offset="0" style="stop-color:#fff"/><stop offset=".395" style="stop-color:#fdfeff"/><stop offset=".537" style="stop-color:#f6fcff"/><stop offset=".638" style="stop-color:#ebf8ff"/><stop offset=".72" style="stop-color:#daf3ff"/><stop offset=".79" style="stop-color:#c4ecff"/><stop offset=".852" style="stop-color:#a8e3ff"/><stop offset=".908" style="stop-color:#88d9ff"/><stop offset=".958" style="stop-color:#64cdff"/><stop offset="1" style="stop-color:#3fc1ff"/></linearGradient><path d="M361.7 297.8S347 300 342.3 300c-9.6 0-19.2-.1-28.7-.1H280c-10.6.1-21.2.4-31.7.7l-11.6.4c-10.5.3-20.9 2-31.4 1.9-4.7 0-9.3-.3-14-.5-2.3-.1-4.7-.2-7-.3-1.6 0-6.5.9-7.8.1-2.8-1.7 4.6-7.5 6.6-9.6 5.9-6.3 11.9-12.3 17.5-18.9l1.5-1.8c.4-.5.9-1 1.5-1.3 1.3-.5 2.7.6 3.5 1.8 3.2 4.8 6.4.3 9.6-2.2 4.1-3.3 8.2-6.5 12.3-9.8.6-.5 1.2-.9 2-1 1 0 1.8.7 2.5 1.4 2.8 2.9 5.9 8.5 10.4 8.8 4.5.4 10.1-5.3 13.6-7.7 10.1-6.9 20.3-13.7 30.4-20.6 1.3-.9 2.7-1.8 4.3-1.8 1.5 0 2.9.9 4.1 1.7 6.3 4.2 12.8 8.4 19.1 12.6 5.3 3.6 8.4 9.3 12.9 13.8 5.2 5.7 12.7 10.6 18.9 15 4.3 3.4 14.5 15.2 14.5 15.2z" style="fill:url(#SVGID_22_)"/><linearGradient id="SVGID_23_" gradientUnits="userSpaceOnUse" x1="341.84" y1="269.881" x2="272.199" y2="269.881"><stop offset="0" style="stop-color:#fff"/><stop offset=".132" style="stop-color:#fbfeff"/><stop offset=".277" style="stop-color:#edf9ff"/><stop offset=".427" style="stop-color:#d8f2ff"/><stop offset=".582" style="stop-color:#b9e8ff"/><stop offset=".739" style="stop-color:#92dcff"/><stop offset=".897" style="stop-color:#62ccff"/><stop offset="1" style="stop-color:#3fc1ff"/></linearGradient><path d="M361.7 297.8S347 300 342.3 300c-9.6 0-19.2-.1-28.7-.1h-2.8l-18.7-60.2c1.5 0 2.9.9 4.1 1.7 6.3 4.2 12.8 8.4 19.1 12.6 5.3 3.6 8.4 9.3 12.9 13.8 5.2 5.7 12.7 10.6 18.9 15 4.4 3.2 14.6 15 14.6 15z" style="fill:url(#SVGID_23_)"/><linearGradient id="SVGID_24_" gradientUnits="userSpaceOnUse" x1="353.079" y1="321.798" x2="285.68" y2="230.204"><stop offset="0" style="stop-color:#fff"/><stop offset=".132" style="stop-color:#fbfeff"/><stop offset=".277" style="stop-color:#edf9ff"/><stop offset=".427" style="stop-color:#d8f2ff"/><stop offset=".582" style="stop-color:#b9e8ff"/><stop offset=".739" style="stop-color:#92dcff"/><stop offset=".897" style="stop-color:#62ccff"/><stop offset="1" style="stop-color:#3fc1ff"/></linearGradient><path d="M361.7 297.8S347 300 342.3 300c-9.6 0-19.2-.1-28.7-.1h-2.8l-18.7-60.2c1.5 0 2.9.9 4.1 1.7 6.3 4.2 12.8 8.4 19.1 12.6 5.3 3.6 8.4 9.3 12.9 13.8 5.2 5.7 12.7 10.6 18.9 15 4.4 3.2 14.6 15 14.6 15z" style="fill:url(#SVGID_24_)"/><linearGradient id="SVGID_25_" gradientUnits="userSpaceOnUse" x1="222.435" y1="253.069" x2="314.456" y2="345.09"><stop offset="0" style="stop-color:#3fc1ff"/><stop offset="1" style="stop-color:#009ae9"/></linearGradient><path d="M343 292.3c-9.6 0-19.2-.1-28.7-.1h-33.5c-10.6.1-21.2.4-31.7.7l-11.6.4c-10.5.3-20.9 2-31.4 1.9-4.7 0-9.3-.3-14-.5-2.3-.1-4.7-.2-7-.3-.8 0-2.4.2-4 .3-2.8 2.6-6.5 6.3-4.4 7.5 1.3.8 6.1-.1 7.8-.1 2.3 0 4.7.1 7 .3 4.7.2 9.3.5 14 .5 10.5 0 20.9-1.6 31.4-1.9l11.6-.4c10.6-.3 21.1-.6 31.7-.7h33.5c9.6 0 19.2.1 28.7.1 4.7 0 19.4-2.2 19.4-2.2s-2.8-3.3-6.1-6.8c-4.6.6-10.1 1.3-12.7 1.3z" style="opacity:.11;fill:url(#SVGID_25_)"/></svg>