<svg version="1.1" id="Layer_1" xmlns="http://www.w3.org/2000/svg" x="0" y="0" viewBox="0 0 151.5 331.7" style="enable-background:new 0 0 151.5 331.7" xml:space="preserve"><style>.st2{fill:#46acc3}.st3{fill:#e8625b}.st4{fill:#c76847}.st5{fill:#cf5854}.st6{fill:#e87950}.st7{fill:#31869b}.st8{fill:#1b4e61}.st9{fill:#184657}.st10{fill:#c4603d}.st11{fill:#e97951}.st12{fill:#dd4f31}.st13{fill:#11303b}.st14{fill:#102f3b}.st15{fill:#163441}.st16{fill:#12323e}.st17{fill:#12313d}.st26{fill:#f9f7dc}.st27{fill:#af3116}.st30{fill:#247082}.st31{fill:#206e7f}.st32{fill:#206e80}.st35{fill:#c4613d}.st38{fill:#ab3e3b}.st39{fill:#ab3e3a}.st41{fill:#b75b58}.st45{fill:#348799}</style><path d="M97 50.2c.3-.2.7-.1 1.1-.1.4.3.9.3 1.3.7.4.3.8.5 1.3.8.5.3 1 .7 1.5 1 1.2.5 2.3 1.2 3.4 1.9l3.6 2.1c1.3.8 2.7 1.6 4 2.3 2.9 1.7 5.7 3.5 8.4 5.4 1.6 1.2 3.1 2.6 4.6 3.9.8.7 1.5 1.5 2.2 2.3 1.1 1.2 2.1 2.4 3.1 3.7 1.5 1.8 2.6 3.8 3.9 5.8 1.8 3.1 3.3 6.5 4.2 10 .7 2.8 1.3 5.6 1.8 8.4.4 2.2.9 4.3 1.1 6.6.2 1.6.3 3.2.7 4.7.1.4.2.8.1 1.2-.5.5-1.1.9-1.8 1.2-1.1.5-2.3.6-3.4 1-3 1.1-6.1 1.2-9.2 1.2-1.5-.1-3-.2-4.6-.4-.1-.3-.3-.5-.6-.7.1-1 0-2 .1-3 .2-2.3.8-4.7 1.8-6.8.7-1.6 1.5-3.2 2.6-4.5.6-.7 1.3-1.4 2-2.1.7-.7 1.4-1.5 1.6-2.4.1-.4.1-.8-.2-1.1-.3-.3-.7-.3-1-.2-.5.1-1 .5-1.4.9-.9.8-1.7 1.7-2.4 2.8-.7 1.1-1.1 2.3-2 3.3-.4.7-1 1.1-1.4 1.8-.1.2-.4.2-.6.1.1-.8.6-1.6.9-2.3.5-1 1-1.9 1.5-2.9.6-1.2 1.4-2.2 1.9-3.4.3-.7.8-1.3.7-2.1 0-.3-.1-.6-.4-.8-.4-.3-.9 0-1.2.2-.4.4-.7.8-1 1.3-1.1 1.7-1.9 3.7-2.7 5.6-.1.3-.3.5-.4.7-.1-1 0-2-.1-3-.1-.8-.1-1.6-.2-2.5-.1-1.2-.3-2.4-.5-3.6-.1-.5-.2-1-.5-1.3-.4-.3-1-.2-1.3.1-.4.4-.7 1-.7 1.6-.1 1.6-.2 3.3 0 4.9.2 1.4.3 2.7.5 4.1.1.7 0 1.3 0 2 0 .8-.2 1.6-.1 2.4 0 .2-.1.3-.2.4-.8-1.8-1.5-3.6-2.4-5.4-.8-1.4-1.5-2.8-2.6-4-.3-.3-.5-.7-.9-.8-.4-.1-.5.5-.5.8.8 3.5 1.6 7 2.2 10.6.2 1.3.8 2.6.9 3.9.2 2 .5 4 .4 5.9 0 .7.1 1.5 0 2.2 0 2-.6 4-1.5 5.8-.3.7-.6 1.5-1.2 2.2-.6.8-1.1 1.7-1.6 2.5-.4.7-.4 1.6-.2 2.3.7 2.1 1.5 4.1 2.3 6.1.8 2.2 1.2 4.4 1.7 6.6.3 1.2.5 2.5.7 3.7.1 1 .4 2 .5 3.1.2 2.5.4 4.9.5 7.4.2 1 .3 2.1.7 3.1.1.4.6.4.9.2.1 1.7.2 3.4.2 5.1 0 1 0 2.1-.1 3.1-.1 1.5-.3 3-.4 4.5 0 .4-.1.8-.3 1.1-.2.3-.6.4-.9.6h-.1c-.4.1-.8 0-1.1 0-.6.1-1.2.3-1.9.4l-2.7.3c-2.1.2-4.1.5-6.2.6-2.6.2-5.2.3-7.8-.2-.8-.2-1.7-.3-2.5-.5-2.4-.6-4.7-1.5-7.1-2.1-1.1-.3-2.3-.5-3.5-.7-1.3-.2-2.6-.1-4-.2-1.5 0-2.9.2-4.4.4l-3.6.6c-1.2.2-2.3.3-3.5.4h-1.4c-2.3.3-4.5 0-6.8-.2-1.2-.1-2.4-.3-3.6-.6-2-.5-4.1-.8-6.1-1.4-.8-.2-1.6-.5-2.4-.8-.9-.3-1.7-.6-2.6-.9-1.7-.5-3.3-1.3-5-1.6-.8-.2-1.5-.4-2.2-.7-.2-.1-.5-.3-.8-.2-.1.1-.2.3-.1.5.3.4.6.6 1 .9-1.1-.3-2.2-1-3.3-1.4-.4-.5-.7-1-1.3-1.2-.9-.3-1.9.4-1.9 1.4-.6-.2-1.1-.6-1.7-.5-.2-.2-.3-.4-.4-.7-.4-2.2-.6-4.4-.8-6.6.5-1 1.1-1.8 1.7-2.7.2.3.3.5.6.6.4.1.7-.1 1-.3.1.5.2.9.3 1.4.1.3.2.6.4.7.3.1.6.1.8.4.4.4.3 1 .8 1.4.4.3 1.1.1 1.3-.5.1-.6.2-1.2.1-1.7-.2-1.4-.3-2.7-.3-4.1-.2-1.2 0-2.4-.2-3.5-.1-1.5 0-3 0-4.5.1-2.5.2-5 .6-7.5.2-.9.1-1.9.3-2.8.2-1.8.6-3.7 1.3-5.4.3-.7.8-1.2 1.1-1.9.7-1.6 1.7-3.1 2.6-4.6.5-.8 1-1.5 1.6-2.2.5-.6.9-1.2 1.5-1.7 1.4-1.1 2.8-2.2 4.4-2.9.7-.3 1.5-.6 2.2-1 1.3-.6 2.6-.9 4-1.2 1.5-.3 2.9-.7 4.4-.9 1.2-.1 2.4-.3 3.5-.8-.7-.1-1.4 0-2.1-.2-.7-.1-1.5-.1-2.2-.2-1-.2-1.9-.2-2.9-.3-1.5-.3-2.9-.7-4.4-.9-.7-.1-1.4-.1-2.1-.4-.5-.2-.9-.3-1.4-.5-.7-.2-1.2-.8-1.9-1-.6-.2-1.1-.6-1.7-.9-.4-.2-.6-.5-.8-.8-.3-.5-.7-.9-1-1.5-.3-.7-.4-1.5-.6-2.2-.2-.8-.1-1.6-.1-2.4 0-.7.3-1.4.3-2.1 0-.4.2-.9.3-1.3.2-.6.1-1.3.4-1.8.3-.7.5-1.5.3-2.2-.1-.5-.7-.8-1.2-.6-.6.2-1.2.6-1.5 1.2-.3.5-.7.9-1 1.4-.2.4-.4.7-.6 1.1-.5.8-.9 1.7-1.5 2.5 0-.9.1-1.7.1-2.6-.4-2.5-.9-5-1.5-7.5-.3-1.2-.4-2.4-.9-3.5-.4-.9-.6-1.7-1.1-2.6-.6-1.4-1-2.9-2.2-3.9-.7-.6-1.9-.6-2.5.2-.4.6-.3 1.3-.2 2 .3 2.2 1.8 3.9 2.7 5.9.5.8.7 1.8 1 2.7.2.8.4 1.6.5 2.3.1.4-.2.8-.4 1.1-.6-.4-1.2-.9-1.8-1.3-.5-.4-1.2-.6-1.7-1-.8-.6-1.7-1.2-2.6-1.6-.5-.3-1.2-.4-1.8-.2.3.7.6 1.5 1.1 2 .5.5 1.1 1.1 1.6 1.5.8.8 1.6 1.5 2.3 2.4.7.8 1.2 1.6 1.5 2.6.1.3.1.8-.2 1-.2.2-.6.2-.8 0-1-.5-2-1.1-2.8-1.8-.6-.4-1.3-.7-2-1.1-.7-.4-1.5-.5-2.3-.6-.3 0-.7-.1-.9.2.1.4.2.9.3 1.3.3.5.7.9 1.2 1.2 1 .7 1.9 1.5 3 2.1.7.3 1.3.9 2 1.2.8.3 1.6.6 2.3 1-1.1.2-2.2.2-3.4.2-1.2.1-2.5 0-3.8 0-1.6-.1-3.1-.4-4.7-.5-.7-.1-1.3-.2-2-.3-.7-.2-1.5-.3-2.3-.4-1.5-.2-3-.5-4.5-.9-.3-.1-.7-.1-.9-.4.2-.3.2-.7.3-1 .4-.8.4-1.6.7-2.4.5-1.9 1.1-3.7 1.8-5.6.7-1.8 1.6-3.5 2.5-5.2 1-2 2.1-3.8 3.2-5.7 2.5-4.4 5.6-8.5 9.1-12.1 1.1-1.3 2.3-2.5 3.6-3.6 2.7-2.4 5.6-4.6 8.7-6.3 1-.6 2-1.1 3-1.5 1-.4 2-.9 3-1.3.9-.3 1.7-.7 2.6-1 1.1-.3 2.2-.6 3.3-1 2.2-.8 4.5-1.2 6.7-1.7 1.4-.4 2.8-.7 4.2-.6.3 0 .4.2.7.3.3 0 .6 0 .9.1v.3h3.7c1.7 0 3.3.4 4.9.6 1.9.2 3.7.2 5.6.3 1.6.1 3.2.2 4.8.1 1.7-.1 3.4-.4 5-.6 1.7-.4 3.4-1 5.1-1.6 1.6-.4 2.5-.8 3.4-1.2z" style="fill:#837fcb"/><path d="M30.6 80.2c.6-.8 1.8-.8 2.5-.2 1.2 1 1.6 2.6 2.2 3.9.4.8.7 1.7 1.1 2.6.5 1.1.6 2.3.9 3.5.6 2.5 1.1 5 1.5 7.5 0 .9-.1 1.7-.1 2.6.6-.7 1-1.6 1.5-2.5.2-.3.4-.7.6-1.1.3-.5.7-.9 1-1.4.4-.5.9-.9 1.5-1.2.5-.2 1.1.1 1.2.6.1.8-.1 1.5-.3 2.2-.2.6-.2 1.2-.4 1.8-.1.4-.2.8-.3 1.3-.1.7-.3 1.4-.3 2.1 0 .8-.1 1.6.1 2.4.1.7.2 1.5.6 2.2.2.5.6 1 1 1.5.2.3.5.6.8.8.6.3 1.1.7 1.7.9.7.2 1.2.8 1.9 1 .5.2.9.3 1.4.5.7.3 1.4.3 2.1.4 1.5.2 3 .6 4.4.9 1 .1 1.9.2 2.9.3.7.1 1.5.1 2.2.2.7.1 1.4.1 2.1.2-1.1.5-2.3.7-3.5.8-1.5.2-3 .6-4.4.9-1.3.3-2.7.6-4 1.2-.7.3-1.5.6-2.2 1-1.6.7-3.1 1.8-4.4 2.9-.6.5-1 1.2-1.5 1.7-.6.7-1.1 1.4-1.6 2.2-.9 1.5-1.8 3-2.6 4.6-.3.7-.8 1.2-1.1 1.9-.7 1.7-1.1 3.6-1.3 5.4-.1.9-.1 1.9-.3 2.8-.4 2.5-.5 5-.6 7.5v4.5c.1 1.2 0 2.4.2 3.5 0 1.4.1 2.7.3 4.1.1.6 0 1.2-.1 1.7-.2.5-.8.8-1.3.5-.5-.3-.4-1-.8-1.4-.2-.3-.6-.2-.8-.4-.3-.2-.4-.5-.4-.7-.1-.5-.2-.9-.3-1.4-.3.1-.7.4-1 .3-.3-.1-.5-.4-.6-.6-.1-.3-.2-.6-.2-.8 0 0 0-.1-.1-.2-.2-.1-.5-.2-.7-.4-.3-.3-.4-.7-.4-1.1 0-1.1-.1-2.2-.2-3.3 0-.5 0-1.1-.1-1.6-.2 0-.4 0-.7.1-.1-1.3.1-2.6.1-3.9 0-1.6.1-3.3.2-4.9 0-.9.2-1.8.2-2.6.1-2 .1-4 .3-5.9.3-2.3.3-4.7.5-7 .4-2.6.6-5.3 1.1-7.9.2-1.3.4-2.6.7-3.8.3-1.7.5-3.5 1-5.2.4-1.6.8-3.2 1.4-4.8-.9.2-1.8.3-2.6.3-.7-.4-1.5-.7-2.3-1-.7-.3-1.3-.9-2-1.2-1.1-.6-2-1.4-3-2.1-.4-.4-.9-.7-1.2-1.2-.1-.4-.2-.9-.3-1.3.2-.3.6-.2.9-.2.8.1 1.6.2 2.3.6.7.4 1.3.7 2 1.1.9.7 1.8 1.3 2.8 1.8.3.1.6.2.8 0 .3-.2.3-.7.2-1-.3-1-.8-1.8-1.5-2.6-.7-.9-1.5-1.6-2.3-2.4-.6-.5-1.1-1-1.6-1.5-.5-.6-.9-1.3-1.1-2 .6-.2 1.2-.1 1.8.2.9.5 1.8 1 2.6 1.6.5.4 1.2.6 1.7 1 .6.4 1.2.9 1.8 1.3.2-.3.5-.7.4-1.1-.1-.8-.3-1.6-.5-2.3-.3-.9-.5-1.8-1-2.7-.9-2-2.4-3.7-2.7-5.9-.1-.8-.2-1.5.2-2.1zm89.2 7.8c.3-.4 1-.4 1.3-.1.3.3.4.8.5 1.3.2 1.2.4 2.4.5 3.6.1.8.1 1.6.2 2.5.1 1 0 2 .1 3 .2-.2.3-.5.4-.7.9-1.9 1.6-3.9 2.7-5.6.3-.4.6-.9 1-1.3.3-.3.8-.5 1.2-.2.3.1.4.5.4.8 0 .8-.4 1.4-.7 2.1-.6 1.2-1.3 2.3-1.9 3.4-.5.9-1 1.9-1.5 2.9-.4.8-.8 1.5-.9 2.3.2.1.4.1.6-.1.4-.7 1-1.2 1.4-1.8.8-1 1.3-2.2 2-3.3.7-1 1.5-2 2.4-2.8.4-.4.9-.7 1.4-.9.3-.1.7-.1 1 .2.3.3.3.7.2 1.1-.2 1-1 1.7-1.6 2.4-.6.7-1.4 1.4-2 2.1-1.1 1.3-2 2.9-2.6 4.5-1 2.2-1.6 4.5-1.8 6.8-.1 1-.1 2-.1 3 .3.2.4.4.6.7-1.4-.2-2.7-.5-4-.8-.2 1.2-.5 2.3-.7 3.5-.3 1.5-.4 3.1-.7 4.6-.2 1-.2 2-.5 3-.3 1.1-.6 2.3-.8 3.4-.1 1.4.2 2.7.4 4.1.3 2.6.9 5.1 1.1 7.7.5 3.1.4 6.1.3 9.2 0 2.5-.3 4.9-.5 7.4.1 1.2.1 2.4.2 3.7-.3.2-.8.2-.9-.2-.4-1-.5-2.1-.7-3.1-.2-2.5-.3-4.9-.5-7.4-.1-1-.4-2-.5-3.1-.2-1.3-.4-2.5-.7-3.7-.5-2.2-1-4.5-1.7-6.6-.7-2-1.6-4-2.3-6.1-.2-.8-.3-1.6.2-2.3.5-.8 1-1.7 1.6-2.5.5-.7.8-1.4 1.2-2.2.9-1.8 1.4-3.8 1.5-5.8.1-.7 0-1.5 0-2.2 0-2-.2-4-.4-5.9-.1-1.4-.7-2.6-.9-3.9-.5-3.6-1.3-7.1-2.2-10.6-.1-.3 0-.9.5-.8.4.1.6.5.9.8 1.1 1.2 1.8 2.6 2.6 4 .9 1.8 1.6 3.6 2.4 5.4.1-.1.2-.2.2-.4 0-.8.2-1.6.1-2.4 0-.7.1-1.3 0-2-.2-1.4-.3-2.7-.5-4.1-.2-1.6-.2-3.3 0-4.9-.2-.7.1-1.2.5-1.7z" style="fill:#6464af"/><path class="st2" d="M29.5 149c.2 0 .4 0 .7-.1.2.5.1 1.1.1 1.6.1 1.1.2 2.2.2 3.3 0 .4.1.8.4 1.1.2.2.5.2.7.4 0 0 0 .1.1.2-.5.8-1.1 1.6-1.6 2.4-.2-1.6-.3-3.3-.4-4.9-.1-1.4-.2-2.7-.2-4z"/><path class="st3" d="M31.7 155.5c.1.3.1.6.2.8-.6.9-1.2 1.7-1.7 2.7.2 2.2.4 4.4.8 6.6 0 .3.2.5.4.7.6-.1 1.1.3 1.7.5 0 .4.1.7.3 1.1-.7.4-1.5.5-2.2.8-1.3.4-2.7.9-4 1.5-.5.2-1 .1-1.4.3-.5.3-.9.9-1.4 1.2 0-.6.1-1.2.1-1.8 0-.1 0-.3.2-.3.3-.1.2.3.3.4.8-3.1 2-6.1 3.5-8.9.6-1 1.1-2.1 1.7-3.1.4-.9 1-1.7 1.5-2.5z"/><path class="st4" d="M36.8 274c.1 1.2.3 2.4.5 3.6.5-.3 1-.6 1.5-.7.4-.1.9-.2 1.3-.3.8-.2 1.7-.2 2.5-.3 1.2-.3 2.3-.1 3.5-.1.8 0 1.5.2 2.2.3 1.5.2 3.1.6 4.6.9.1-.9.2-1.9.2-2.8-5.4 0-10.7.3-16.3-.6zm36.8 6.3v.7c.1 1.4.3 2.8.5 4.3 1.4.2 2.8.2 4.2-.2 1-.3 2-.6 3.1-.8 1.4-.2 2.8-.5 4.3-.3 1.1.2 2.1.3 3.2.6.6.1 1.3.1 1.9.5.2-.8.7-1.6.8-2.4.1 0 .1-.1.2-.1-6.3 0-12.6.6-18.2-2.3z"/><path class="st5" d="M116.7 174.1c-.6.1-1.2.3-1.9.4l-2.7.3c-.4.2-.9.3-1.4.3-.9.1-1.8.4-2.7.3-.7 0-1.4.1-2.1-.1-2.6.2-5.2.3-7.8-.2-.8-.2-1.7-.3-2.5-.5-2.4-.6-4.7-1.5-7.1-2.1-1.1-.3-2.3-.5-3.5-.7-1.3-.2-2.6-.1-4-.2-1.5 0-2.9.2-4.4.4l-3.6.6c-1.2.2-2.3.3-3.5.4h-1.4c-2.3.3-4.5 0-6.8-.2-1.2-.1-2.4-.3-3.6-.6-.3 0-.6.1-1 0-1-.2-2.1-.3-3.1-.5-1.1-.3-2.2-.7-3.2-1.1-.4-.2-.9-.2-1.2-.6-.9-.3-1.7-.6-2.6-.9-1.7-.5-3.3-1.3-5-1.6-.5.2-1-.2-1.5-.1-.2 0-.3.2-.3.3.1.3.2.6.4.9-.4-.1-.8-.2-1.1-.4-.4-.2-.7-.6-1.2-.5-.4 0-.6.4-.6.8 0 .6.5 1 .9 1.4-.3-.1-.6-.2-.9-.4-.2-.3-.3-.6-.4-.9-.4-.6-.5-1.3-.7-2-.4-.5-.7-1-1.3-1.2-.9-.3-1.9.4-1.9 1.4 0 .4.1.7.3 1.1-.7.4-1.5.5-2.2.8-1.3.5-2.7.9-4 1.5-.5.2-1 .1-1.4.3-.5.3-.9.9-1.4 1.2-.1 1.3.1 2.6.1 3.9 0 1.6.1 3.1.1 4.7.1 2.3.1 4.7-.4 7-.2 1.2-.5 2.4-.9 3.5-.8 2.3-1.9 4.6-2 7-.2 2.7-.3 5.4.3 8 .3 1.1.5 2.3.5 3.4.1 1.5.1 2.9-.2 4.4-.2 1.2-.5 2.3-.8 3.5-.5 2.4-.7 4.9-.1 7.3.3 1 .6 1.9 1 2.8.9 2 1.4 4.1 1.4 6.3 0 .8 0 1.6-.2 2.4-.2 1.2-.5 2.5-.5 3.7 0 .9.2 1.8.6 2.6.5 1.1 1.1 2 1.8 3 .5.8.9 1.7 1.2 2.5.3.9.6 1.9.6 2.8.1 2.1 0 4.3.8 6.2.4.9.7 1.9 1.3 2.8.8 1.4 1.4 2.9 2.5 4.1.3.4.8.6 1.1 1 .2.6 0 1.3.2 1.9.1 1 .6 1.9 1.2 2.8.2.3.4.6.5.9.3.9.7 1.7 1.2 2.4.3.4.4.9 1 1v.2c5.6.9 10.9.6 16.3.5v-.2c.8-.3 1.2-1.1 1.4-1.8.3-.9.4-1.8.4-2.7.1-1.8.2-3.6.2-5.4 0-.3.2-.5.4-.8.9-1.4 1.4-3 1.5-4.7.2-2.1.1-4.2.1-6.4 0-1 .4-1.9.8-2.7.4-.9.8-1.8 1.2-2.6.8-1.6 1.7-3 2.3-4.7.7-1.9.8-3.9.8-5.9v-3.1c0-1.2-.2-2.5.1-3.7.9-3.4 1.7-6.9 2.6-10.3.5-2.1 1-4.3 1.5-6.4.3-1.3.5-2.7.8-4 0 3-.1 5.9-.1 8.9v5.7c0 2.4-.6 4.8-1.3 7.2-.4 1.5-1 3-1 4.6-.2 2.1.4 4.3 1.9 5.9.6.6.9 1.3 1.2 2.1.7 2.1.6 4.3.1 6.4-.3.9-.6 1.7-.7 2.6-.1.8-.2 1.6 0 2.4.2.7.6 1.4 1 2 1 1.5 1.6 3.4 1.3 5.3-.1.7-.6 1.3-.8 1.9-.3.8-.6 1.8-.2 2.7.5 1.2 1.3 2.2 2.1 3.1.4.4.4 1.1.4 1.7 0 1.2 0 2.3.4 3.4.6 1.4.7 3 1.2 4.4.1.4.4.7.7.9 5.6 2.9 11.9 2.3 18 2.3.5-.3.7-.8 1-1.2.4-.8.8-1.6 1.1-2.4.6-1.3.9-2.8 1.2-4.2.2-1.1 1-1.9 1.6-2.7.9-1.4 1.7-2.9 2.4-4.4 1.2-2.4 2-5.1 2.1-7.8.1-1.7 0-3.5.3-5.2.4-2.9 1.6-5.6 2.6-8.3.6-1.7 1-3.5 1.1-5.3.2-2 .4-4.1 1.5-5.9.9-1.4 2.1-2.6 2.9-4 1-1.7 1.7-3.5 2-5.5.2-1 .2-2.1.4-3.1.3-2.3.5-4.5.6-6.8.1-1.4.1-2.8.1-4.2 0-2.4-.2-4.8.4-7.1.6-2.2 1.3-4.3 1.7-6.5.5-2.1.9-4.3 1.1-6.5.2-2 .1-4 .3-6 .5-3.8 1.3-7.6 1.7-11.4.2.2-.2.2-.6.2z"/><path class="st3" d="M38.8 166.6c.3-.2.5 0 .8.2.7.4 1.4.6 2.2.7-.5.2-1-.2-1.5-.1-.2 0-.3.2-.3.3.1.3.2.6.4.9-.4-.1-.8-.2-1.1-.4-.4-.2-.7-.6-1.2-.5-.4 0-.6.4-.6.8 0 .6.5 1 .9 1.4-.3-.1-.6-.2-.9-.4-.2-.3-.3-.6-.4-.9-.4-.6-.5-1.3-.7-2 1.1.4 2.1 1.1 3.3 1.4-.3-.3-.7-.5-1-.9-.1-.2 0-.3.1-.5zm10.5 3.5c.8.3 1.6.6 2.4.8 2 .6 4.1.9 6.1 1.4-.3 0-.6.1-1 0-1-.2-2.1-.3-3.1-.5-1.1-.3-2.1-.7-3.2-1.1-.4-.2-.8-.3-1.2-.6zm-6 2.3c.2-.1.5-.1.7-.1.1.2.1.5 0 .8-.2.7-.2 1.4-.4 2.1-.3 1.3-.6 2.5-.7 3.8-.2 1.2-.2 2.5-.3 3.7 0 1.7-.2 3.4-.2 5.2-.1 1.1.2 2.1.3 3.2.1.8.2 1.7.6 2.4 0-1 .2-2.1.3-3.1.4-2.7 1-5.4 1.6-8 .6-2.2 1.1-4.5 1.9-6.7.2-.6.4-1.2.8-1.7.2-.3.5-.1.7 0 1.4.7 2.9 1.1 4.4 1.5 2.2.7 4.5.9 6.7 1.1 2.9.3 5.8.3 8.7.2 2.3-.2 4.7-.3 7-.8 1-.2 2-.4 2.9-.7 1.4-.4 2.8-.8 4.2-.7 1.4-.1 2.9.1 4.3.4 1.1.2 2.2.5 3.3.9.4.1.8.2 1.1.4.3.8.4 1.6.7 2.4.7 2.5 1.2 5.1 1.7 7.7.2.8.3 1.7.4 2.5.1.7.4 1.3.4 2 .2 1.4 0 2.7.3 4.1.1.4 0 .9.1 1.3.5-.8.5-1.7.8-2.6.3-1.4.6-2.7.7-4.1.2-2.2.6-4.3.6-6.4.1-1.7.1-3.5-.1-5.2 1 .1 2.1.4 3.1.5 2.7.3 5.4 0 8-.6 1.8-.4 3.6-1.1 5.3-1.6.8-.3 1.6-.6 2.4-.8-.2.5-.3 1.1-.7 1.5-.7.8-1.2 1.9-1.6 2.9-.8 2.1-1.5 4.1-2.2 6.2-.7 1.9-1.2 3.8-1.7 5.8-.7 2.4-1.2 4.8-2 7.2-.6 2-1.2 4-1.9 6-.5 1.4-.8 2.9-1 4.3-.1 1.1-.2 2.2-.2 3.3 0 1.2.2 2.4.3 3.6 0 .5.2 1 0 1.5-.3.8-.4 1.7-.9 2.5-.5.9-.8 1.8-1.2 2.8-.8 2-1.9 3.9-2.9 5.7l-.9 1.5c-.1.2-.2.3-.2.6.7-.5 1.4-1 2-1.6.6-.7 1.4-1.2 2-1.9l1.2-1.5c.5-.7.8-1.6 1.2-2.3.1-.2.3-.5.6-.4.3.2.3.6.3.8 0 1.2 0 2.4-.2 3.5-.5 3.4-2.2 6.6-4.1 9.4-.9 1.3-1.9 2.5-2.9 3.7-1 1.2-2 2.3-2.9 3.6-1.1 1.5-2.3 3-3.7 4.4-.3.4-.6.8-.9 1.3-.2.3-.1.7.1.9.8-.4 1.6-.9 2.5-1.3 1.1-.5 2-1.3 3.1-1.9.4-.2.8-.4 1.3-.4.4.1.5.6.4 1-.2 1.5-.9 2.9-1.6 4.2-.3.7-.6 1.3-1 1.9-.5.8-.8 1.6-1.4 2.3-.8.9-1.5 2-2.4 2.8-1.3 1.3-2.5 2.6-3.6 4.1-.2.3-.1.6 0 .9.2.2.5.1.7.1.8-.3 1.3-.9 1.9-1.5.4-.4 1-.7 1.4-1.1l1.2-.9c.2.2.4.4.4.8-.1.7-.5 1.2-.8 1.8-.9 1.3-1.8 2.7-3.1 3.6-1.3 1.3-2.8 2.5-4.4 3.5-.7.4-1.3 1-2.1 1.3-.5.1-1 .2-1.4-.1-.6-.4-.9-1.1-1.3-1.7-.8-1.2-1.9-2.3-2.6-3.6-.1-.2-.3-.4-.4-.6-1.1-1-1.9-2.3-2.6-3.6-.8-1.6-1.3-3.4-1.9-5.1-.7-2.3-1.2-4.7-1.6-7.1-.1-.7 0-1.4-.2-2.2-.1-.3.4-.4.6-.2.3.3.5.6.7 1 .7 1.2 1.7 2.3 2.5 3.5.5.7 1.4 1.1 2.1 1.6.4.3.9.5 1.4.7-.2-.4-.5-.7-.7-1.1-1.1-1.6-2-3.4-2.7-5.2-.8-2.1-1.8-4.2-2.3-6.4-.4-1.3-.6-2.7-.8-4 0-.3.4-.5.7-.3.6.4 1.1.8 1.5 1.3 1 .9 2 1.9 3.2 2.8.9.7 1.9 1.4 2.8 2.1.4.3.8.6 1.3.5 0-.2-.1-.4-.2-.6-.2-.3-.3-.7-.5-1-1.7-2.6-3.2-5.4-4.7-8.2-1.4-2.6-2.5-5.5-3.2-8.4-.3-1-.5-2-.3-3 .3-1.3.8-2.6 1.1-3.9.5-1.9.9-3.9.9-5.9.1-1.5 0-3-.2-4.5-.1-2.2-.8-4.2-1.4-6.3-.7-2.3-1.5-4.7-2-7.1-.3-1.5-.6-3.1-.9-4.6-.1-.5-.1-1.1-.2-1.6-.4.4-.9.7-1 1.3-.2.8-.5 1.6-.7 2.5-.2.7-.5 1.3-.7 1.9-1.1 4.3-2.5 8.6-4.2 12.6-.5 1-1 1.9-1.5 3-.3 1.1-.6 2.1-1.1 3.1-.8 1.9-1.6 3.8-2.6 5.6-.3.7-.8 1.3-1.2 2-.7 1.3-1.5 2.6-2.2 3.9-.3.6-.5 1.3-.9 1.9-.5.7-.8 1.5-.9 2.3-.1.4.5.7.8.4.8-.7 1.5-1.5 2.3-2.2.2-.2.6-.3.8 0 .2.5-.1.9-.2 1.4-.4 1.9-1.2 3.6-1.8 5.4-.9 2.3-1.8 4.6-2.9 6.9-.3.8-.7 1.5-1 2.3-.3.8-.7 1.6-.9 2.5-.1.6-.5 1.1-.6 1.6 0 .4.3.9.7.8.6-.2 1.1-.7 1.5-1.1.5-.5.9-1 1.4-1.4.3-.2.7-.2.9.1.2.4.1.9 0 1.4-.3 1.3-.2 2.6-.4 3.9-.1.5 0 1.1 0 1.7 0 1.2.1 2.5-.3 3.6-.4 1.6-1.5 3-2.5 4.2-.9.9-1.8 1.9-2.8 2.6-.4.3-.9.4-1.2.8-.4.4-.7.9-1.2 1.2-.5.2-1.1-.1-1.3-.6-.1-.4 0-.8-.1-1.2-.1-.2-.2-.4-.4-.6-.4.1-.9.2-1 .6-.2.4-.4.8-.7 1.1-.3.3-.7.5-1 .3-.3-.2-.3-.5-.5-.7-.5-.7-1-1.5-1.9-1.9-1.4-.8-2.9-1.2-4.2-2.2-.6-.5-1.2-1.1-1.5-1.9-.3-.8-.2-1.6-.3-2.4 0-1.3.2-2.7-.2-4-.3-.9-.7-1.8-1.1-2.7-.2-.3-.4-.7-.4-1.1.1-.3.4-.3.7-.2.6.2 1 .7 1.5 1.1.8.7 1.5 1.5 2.3 2.1.3.3.6.6.9.8.1.1.3 0 .4 0 .1-.2 0-.3-.1-.5-.7-1.5-1.6-2.8-2.5-4.2-.8-1.3-1.7-2.4-2.4-3.7-.5-.8-1-1.7-1.5-2.6-.5-1-.8-2.2-1-3.4-.1-.5 0-1 .1-1.5.2-.6.1-1.3.3-1.9.3-.9.5-1.8 1.1-2.5.7-.9 2-1.3 3.1-1 1.2.4 2.3 1.2 3.3 2 .3.2.7.2 1 .3.1 0 .2-.1.2-.1-.5-.8-1.1-1.6-1.7-2.4-.7-1-1.4-2-2-3l-.9-1.5c-.6-.8-1-1.8-1.5-2.7-.9-1.8-1.7-3.8-2.2-5.8-.5-2.1-.7-4.4-.5-6.6.2-1.1.3-2.3.6-3.4.4-1.9 1.4-3.6 2.3-5.3 1.2-2.2 2.3-4.3 3.1-6.7.6-1.9.8-3.9.9-5.9.1-2-.1-3.9 0-5.9.1-2.1.4-4.3.7-6.4.1-.5.2-1.1.5-1.6.7-1.3 1.9-2.3 3.1-3 .7.2 1.4.1 2.1-.2z"/><path class="st3" d="M106 175.5c2.1-.1 4.1-.4 6.2-.6-.4.2-.9.3-1.4.3-.9.1-1.8.4-2.7.3-.7 0-1.4.1-2.1 0zm-68.7 89.6c1.3.4 2.6.5 3.9.6.8.1 1.7 0 2.5.3.9.3 1.9.2 2.8.2 1.3-.1 2.6-.2 3.9-.4.5-.1 1-.2 1.5-.1.2.7.4 1.5.5 2.3-.1 1.1-.2 2.1-.3 3.2-.1.6 0 1.3-.3 1.8-.8.1-1.6.1-2.4.2-1.5.4-3.1.4-4.7.4-1.1.1-2.1-.2-3.2-.1-.6 0-1.1-.1-1.7-.1-.6 0-1.2-.3-1.8-.5-.5-1.9-.6-3.8-.8-5.8.1-.7 0-1.4.1-2zm39 7.4c.1-.2.3-.4.5-.6.1.2.2.4.2.7.6.2 1.3.1 2 .3.8.2 1.6.6 2.4.7 1.3.2 2.5.6 3.8.6 1 0 2-.2 2.9-.5.2-.1.5.1.7.1.5.2 1.1.1 1.7.2 0 .1.1.3.1.5.4.1.9.1 1.4.1.1.3.3.6.2.9-.4 2-.9 3.9-1.7 5.8-.9.2-1.8.3-2.7.4h-1.5c-1.3 0-2.6-.1-3.9-.2-.7 0-1.4-.4-2.1-.5-1.2-.3-2.4-.7-3.7-.9-.2 0-.4-.1-.5-.2-.1-1.1-.4-2.1-.6-3.2-.2-.9-.1-1.9-.2-2.9-.1-.2.1-.4.3-.5 0-.3.1-.6.1-.9.1-.1.4 0 .6.1zm-30.6 15.6c-2-.3-4.1.5-5.2 2.1h.1c-.1.3-.1.6-.2.9 0 .3-.1.6-.1.9.8-.1 1.7-.2 2.5-.1 1.3.1 2.6.3 3.9.7.6.2 1.2.4 1.6.9.1-.5.3-.9.4-1.4.1-.5.1-.9.1-1.4-.7-1.4-1.7-2.3-3.1-2.6z"/><path class="st6" d="M48.4 276.3c-.7-.1-1.5-.3-2.2-.3-1.2 0-2.3-.1-3.5.1-.8.2-1.7.1-2.5.3-.4.1-.9.2-1.3.3-.5.2-1 .5-1.5.7.2 1.4.4 2.8.5 4.2.2 1.3.4 2.6.5 3.9.2 1.2.4 2.4.5 3.5l.1.1c.3.5.7.9 1.2 1.1.1 0 .2-.1.3-.1 1.1-1.6 3.2-2.5 5.2-2.1 1.4.2 2.5 1.2 3 2.5v-.1c.8.4 1.8.7 2.6.2.1-.3.2-.6.4-.8.3-.9.3-1.8.5-2.8.3-1.7.3-3.5.5-5.3.1-1.5.2-3.1.4-4.6-1.7-.2-3.2-.6-4.7-.8z"/><path class="st3" d="M76 281.3c.6.1 1.2.3 1.8.4.5.2 1 .4 1.5.5 1 .2 2 .3 3.1.3.6 0 1.2.2 1.9.2.9.1 1.8.1 2.6 0 .4-.1.8 0 1.2.1.6.2 1.3 0 2 .1.1.2-.3.2-.4.2-1.4.1-2.7 0-4.1.1-1.1 0-2.2-.1-3.3-.3-2-.4-4-.8-6-1.4-.2 0-.2-.1-.3-.2z"/><path class="st6" d="M87.8 301.1c0-.8-.1-1.5-.1-2.3 0-.7.1-1.3.1-2 .1-1.6.5-3.1.9-4.6.3-1.1.5-2.2.8-3.3.3-1.2.8-2.4 1.2-3.7-.6-.4-1.2-.4-1.9-.5-1-.2-2.1-.4-3.2-.6-1.4-.2-2.9 0-4.3.3-1 .2-2.1.5-3.1.8-1.4.4-2.8.4-4.2.2.2 1 .3 2.1.4 3.1.2 1.7.4 3.3.4 5 .1 1.9.2 3.7.1 5.6l-.3 3.3h.1c.3.1.4.4.6.7.3.6.7 1.1 1.2 1.7.7.8 1.6 1.2 2.5 1.7.3.2.8.1.8-.3.1-.9.3-1.8.8-2.6.4-.6 1.1-.8 1.6-1.2.4-.3.9-.5 1.4-.5 1.2-1.1 2.9-.5 4.2-.8z"/><path class="st3" d="M92.3 309.9c-.8-1.5-1.7-2.9-2.4-4.3-.4-.6-.3-1.4-.5-2-.1-.6-.2-1.3-.5-1.9-.2-.4-.7-.6-1.1-.6-1.3.3-3-.2-4 .9h.1c-.5.4-1.1.8-1.4 1.3-.7 1.1-.8 2.4-.7 3.7.7.1 1.3.2 2 .4.4.1.8-.3 1.2-.4 1.3-.7 2.8-1.1 4.4-1.1.3 0 .5.1.7.3-.4.2-.9.2-1.4.3-1.4.2-2.9.5-4.2 1.1.6.2 1 .6 1.6.9.5 0 1-.3 1.5-.5 1.1-.3 2.2-.6 3.3-.4v.3c-1.4.2-2.9.4-4.3.9.4.4.9.8 1.3 1.2.1.2.4.1.5 0 1.1-.4 2.3-.6 3.5-.5 0 .1.1.2.1.3-1.2.2-2.4.4-3.6.8l.9.9c1.1-.4 2.2-.6 3.4-.5.2 0 .4.2.3.4-1.1.2-2.2.1-3.3.5.3.4.6.8 1 1.2 1.1-.3 2.2-.4 3.3-.5-.6-1-1-1.9-1.7-2.7z"/><path class="st7" d="M38.1 290.3c.1-.5.3-.9.7-1.1l.1.1c0 .4 0 .8.2 1.1.3.4.8.6 1.3.7 0 .3-.1.6-.1.9-.1.1-.1.2-.2.2 0 .1.1.2.1.3v1.8H39v-.6c-.2-.1-.4-.1-.6-.1-.1.3-.3.5-.3.8.1.1.2.2.3.4.3 0 .5 0 .8-.1.3 0 .7 0 1-.1v.1c0 .7.1 1.3.1 2l-.1.1c-.5 0-1 .1-1.5.2 0-.3.1-.6-.1-.8H38c-.1.3-.2.7-.1 1.1.2.1.5 0 .8.1.5.2 1.1-.1 1.6-.1h.1v1.9c0 .1-.1.2-.1.3 0-.1-.1-.2-.1-.3-.5 0-1 .2-1.5.1 0-.2.1-.5-.1-.7h-.5c-.1.1-.2.3-.3.4 0 .3.1.5.3.7.7-.2 1.5-.1 2.3-.1v.2c-.1.5-.1 1.1-.3 1.6v.1h-1.3c-.1-.2-.1-.4-.1-.7H38c-.2.3-.2.6-.2 1 .2.1.4.1.6 0 .3-.1.5.1.8.1h.8c-.1.6-.4 1.1-.5 1.7 0 .6.4 1.1.7 1.5 1.1 1.2 2.9 1.8 4.5 1.4.8-.3 1.7-.7 2.2-1.5.1-.5.2-1 .2-1.5.3.2.6.3 1 .3.1.1.2.3.3.5.5 0 .8-.5.8-1l-.4-.4c-.3.1-.5.3-.7.5-.3-.2-.7-.3-1.1-.3v-2.2c.2.1.4.3.5.4h.6c.1.1.3.2.4.4.2-.2.4-.3.5-.5.1-.3 0-.5-.1-.7h-.6v.3c-.4 0-.9-.1-1.2-.3.2-1.1.3-2.2.5-3.2.2-1.1.4-2.3.7-3.4.3.3.7.4 1.1.5 0 .2 0 .4.1.5h.5c.2-.3.3-.5.3-.9 0-.1-.1-.2-.2-.3-.2 0-.5 0-.6.2h-.3l-.5-.5h-.4c.1-.5.3-.9.4-1.4.6 0 1.2.1 1.8-.2.4-.3.7-.6.8-1.1.1-.3.2-.6.4-.8.6.1.5.8.4 1.3-.2.6-.1 1.2-.2 1.8-.2 1.2-.3 2.5-.4 3.7-.2 1.7-.2 3.4-.3 5.1-.2 1.8 0 3.7-.2 5.5-.3.9-.8 1.6-1.3 2.4-1.1 1.5-2.8 2.7-4.6 3-1.4.3-2.9.5-4.3.2-1-.2-1.9-.6-2.8-1.1-.6-.3-1.2-.7-1.6-1.2-.5-.8-1-1.7-1.2-2.7-.2-.7-.4-1.3-.4-2 .3-1.3.7-2.5 1-3.7.7-2.5 1.2-5.1 1.8-7.7.2-1.4.3-2.8.5-4.2z"/><path class="st4" d="M38.9 289.3c.3.5.7.9 1.2 1.1.2 0 .3-.1.4-.2-.1.3-.1.6-.2.9-.5-.1-1-.3-1.3-.7-.1-.3 0-.7-.1-1.1zm9.8 1.2c.8.4 1.8.7 2.6.2-.1.5-.5.8-.8 1.1-.6.3-1.2.2-1.8.2.1-.5.1-1 0-1.5z"/><path class="st8" d="M38.2 292c.2-.1.3-.3.5-.4.1.1.2.2.4.2 0 .2.1.5.2.7-.1.1-.2.2-.3.4h-.6c-.2-.3-.2-.6-.2-.9z"/><path class="st5" d="M40.3 292c.8-.1 1.7-.2 2.5-.1 1.3.1 2.6.3 3.9.7.6.2 1.2.4 1.6.9v.1c-.6.2-1.1-.1-1.7-.2-1.1-.4-2.3-.5-3.5-.6-.9-.1-1.9 0-2.8-.1 0-.1-.1-.2-.1-.3-.1-.3 0-.3.1-.4z"/><path class="st3" d="M40.2 292.5c.9.1 1.9 0 2.8.1 1.2.1 2.4.3 3.5.6.5.1 1.1.5 1.7.2v.2c-.3 1.1-.5 2.3-.7 3.4-.2 1.1-.3 2.2-.5 3.2 0 .1 0 .3-.1.4v2.6c0 .5 0 1-.2 1.5-.5.7-1.4 1.1-2.2 1.5-1.6.5-3.4-.2-4.5-1.4-.3-.4-.7-.9-.7-1.5.1-.6.4-1.1.5-1.7v-.1c1.2.3 2.4.3 3.6.6.9.2 1.7.4 2.6.7.2.1.5.1.7.1 0-.2.1-.5-.2-.6-1.1-.4-2.2-.7-3.3-1-1.1-.2-2.1-.5-3.2-.4.2-.5.2-1.1.3-1.6 1.5.2 3 .2 4.5.6.7.2 1.4.4 2.1.4 0-.2 0-.4-.2-.5-.6-.3-1.3-.5-2-.7-1.4-.3-2.9-.6-4.3-.4.1-.6 0-1.3 0-1.9 1 .1 1.9.1 2.9.3 1 .2 2.1.4 3 .8.3.1.6.2.8 0 .1-.2-.1-.4-.3-.5-.9-.4-1.8-.6-2.8-.8-.7-.2-1.5-.2-2.3-.3-.5 0-1-.1-1.5.1 0-.7-.1-1.3-.1-2 1.7-.2 3.5 0 5.2.4.6.1 1.2.4 1.9.5.3 0 .4-.4.2-.5-.4-.3-1-.4-1.5-.6-1.9-.6-3.9-.9-5.8-.4.1-.2.1-.7.1-1.3z"/><path class="st8" d="M48.2 293.4h.4c.2.1.3.3.5.5h.3c.2-.2.4-.2.6-.2 0 .1.1.2.2.3 0 .3-.1.6-.3.9h-.5c-.2-.1-.1-.3-.1-.5-.4-.1-.8-.2-1.1-.5v-.5zm-9.8.2c.2 0 .4 0 .6.1v.6h1.2v.4c-.3.1-.7 0-1 .1-.3.1-.5.1-.8.1-.1-.1-.2-.2-.3-.4 0-.3.1-.6.3-.9z"/><path class="st5" d="M40.2 294.1c1.9-.5 3.9-.1 5.8.4.5.2 1 .3 1.5.6.2.2.1.6-.2.5-.6-.1-1.2-.4-1.9-.5-1.7-.4-3.4-.6-5.2-.4v-.6z"/><path class="st8" d="M49 295.4c.2 0 .5-.1.6.1v.7l-.4.4c-.3 0-.5-.2-.6-.4v-.5c.2 0 .3-.2.4-.3zm-11.1.8h.6c.2.2.1.5.1.8.5 0 1-.2 1.5-.2v.4c-.5 0-1.1.3-1.6.1-.3 0-.5 0-.8-.1 0-.3.1-.7.2-1z"/><path class="st5" d="M40.3 296.7c.5-.2 1-.2 1.5-.1.8.1 1.5.1 2.3.3.9.2 1.9.4 2.8.8.2.1.4.3.3.5-.2.2-.6 0-.8 0-1-.4-2-.6-3-.8-1-.2-1.9-.2-2.9-.3h-.1v-.4h-.1z"/><path class="st8" d="M48.2 298.4c.1-.3.3-.7.7-.6l.3.3c.1.3-.1.6-.3.9h-.6c0-.1-.1-.2-.2-.2.1-.1.1-.3.1-.4zm-10.3.1h.5c.2.2.1.4.1.7.5 0 1-.2 1.5-.1 0 .1.1.2.1.3v.2c-.8.1-1.5-.1-2.3.1-.2-.2-.3-.5-.3-.7.2-.3.3-.4.4-.5z"/><path class="st5" d="M40.3 299c1.4-.2 2.9.1 4.3.4.7.2 1.3.4 2 .7.2.1.2.3.2.5-.7.1-1.4-.2-2.1-.4-1.5-.4-3-.5-4.5-.6v-.4s.1-.1.1-.2z"/><path class="st8" d="M48.2 300.3h.6c.1.2.2.5.1.7-.1.2-.3.4-.5.5l-.4-.4h-.6c-.2-.1-.4-.3-.5-.4 0-.1 0-.3.1-.4.4.2.8.4 1.2.3v-.3zm-10.3.3h.7c0 .2.1.4.1.7H40c0 .1-.1.4-.1.4h-.8c-.3 0-.5-.2-.8-.1-.2.1-.4.1-.6 0-.1-.3-.1-.7.2-1z"/><path class="st5" d="M40 301.2c1.1-.1 2.2.2 3.2.4 1.1.3 2.2.6 3.3 1 .3.1.2.4.2.6-.2 0-.5 0-.7-.1-.8-.3-1.7-.5-2.6-.7-1.2-.3-2.4-.3-3.6-.6 0-.1.1-.3.1-.3 0-.2.1-.3.1-.3z"/><path class="st4" d="M81.7 306.9c-.1-1.3.1-2.6.7-3.7.3-.6.9-.9 1.4-1.3-.5.1-1 .2-1.4.5-.5.4-1.2.6-1.6 1.2-.5.8-.7 1.7-.8 2.6 0 .4-.5.5-.8.3-.9-.5-1.8-.9-2.5-1.7-.4-.5-.9-1-1.2-1.7-.1-.3-.2-.6-.6-.7.2.7-.1 1.5.4 2.1.6.8 1.4 1.4 2.1 2.1.7.6 1.2 1.5 2.1 1.9.4.3.9.1 1.3.1.3 0 .6-.1.8-.1.1-.6.1-1.1.1-1.6.1 0 .1 0 0 0z"/><path class="st5" d="M94.1 312.7c0-.1-.1-.2-.2-.3-1.1.1-2.2.2-3.3.5-.3-.4-.7-.7-1-1.2 1.1-.4 2.2-.3 3.3-.5.1-.2-.1-.4-.3-.4-1.2-.1-2.3.1-3.4.5l-.9-.9c1.2-.4 2.4-.6 3.6-.8 0-.1-.1-.2-.1-.3-1.2-.1-2.4.1-3.5.5-.2.1-.4.2-.5 0-.4-.4-.9-.8-1.3-1.2 1.4-.5 2.8-.7 4.3-.9v-.3c-1.1-.3-2.3.1-3.3.4-.5.1-.9.5-1.5.5-.5-.3-1-.6-1.6-.9 1.3-.7 2.7-.9 4.2-1.1.5-.1 1 0 1.4-.3-.2-.2-.4-.4-.7-.3-1.5.1-3 .4-4.4 1.1-.4.2-.7.5-1.2.4-.6-.2-1.3-.3-1.9-.4-.1.5-.2 1-.2 1.5.4-.1.8-.1 1.1-.1h.3c.4 0 .8.1 1.3.2.4.1.8.2 1 .6.2 0 .3 0 .4.1.5.5 1 .9 1.4 1.5.5.4.8 1 1.3 1.4.5.4 1.4 1.3 1.4 1.3.5.4 1 .8 1.5 1.1-.2-.4-.4-.7-.6-1.1.8-.2 1.7-.4 2.5-.5.4.2.7.1.9-.1z"/><path class="st7" d="M73.9 303.2c.2-.4.5-.9 1-.8h.1c.2.7-.1 1.5.4 2.1.6.8 1.4 1.4 2.1 2.1.7.6 1.2 1.5 2.1 1.9.4.3.9.1 1.3.1.7-.1 1.3-.2 2-.2-.4.4-.9.8-1.2 1.3-.1-.1-.3-.3-.4-.3-.4-.1-.7.2-1 .5 0 .3.2.6.4.9h.7c.7-.6 1-1.4 1.8-1.9v-.4c.4 0 .8.1 1.3.2.4.1.8.2 1 .6-.7.4-1.5.9-1.9 1.5-.2 0-.5 0-.7-.1-.3.1-.5.3-.7.6-.1.4.2.6.5.8h.5c.3-.3.4-.7.8-1 .4-.4.9-.9 1.4-1.1.2-.2.6-.2.6-.6.5.5 1 .9 1.4 1.5-.5 0-1 .3-1.4.6-.3.2-.6.6-1 .5l-.3-.3c-.4 0-.7.2-1 .5v.5c.3.2.6.5 1 .4.3-.2.4-.5.7-.7.6-.4 1.2-.9 1.9-1.2v-.4c.5.4.8 1 1.3 1.4H88c-.4.3-.8.6-1.3.9-.2.1-.3-.1-.5-.2h-.3c-.3.2-.7.4-.6.9.2.3.5.6.8.5.3-.2.5-.5.8-.6.6-.2 1.1-.7 1.6-.9v-.4c.5.4.9.9 1.4 1.3-.2.1-.3.1-.5.1-.4.3-.8.6-1.3.8l-.3-.3h-.5c-.3.2-.5.5-.5.9.2.1.3.3.5.5.2 0 .5.1.7-.2.3-.5.8-.6 1.2-.9.2-.1.5-.3.7-.4v-.5c.5.4 1 .8 1.5 1.1.8.5 1.9.5 2.8 0 .3-.2.6-.5.9-.7.7.9 1.7 1.5 2.5 2.4l.9 1.2c.3.4.6.9.8 1.4-.6.6-1.3 1.1-2.1 1.5-1.8.7-3.8 1.1-5.7.8-.9-.2-1.7-.3-2.6-.7-.9-.3-1.7-.9-2.5-1.4l-2.4-1.8c-.9-.7-1.8-1.5-2.8-2-.7-.4-1.4-.6-2.1-.9-1.2-.5-2.5-.6-3.8-1.1-1-.3-1.9-.9-2.6-1.7.1-1.3.4-2.5.6-3.8.2-1.7 0-3.3.6-4.8z"/><path class="st8" d="M47.9 303.2c.2-.2.4-.4.7-.5l.4.4c.1.5-.2 1-.8 1-.1-.2-.2-.3-.3-.5-.4 0-.7-.1-1-.3v-.4c.4 0 .7.1 1 .3z"/><path class="st2" d="M34.5 308.7c-.1-1 0-1.9.2-2.9 0 .7.3 1.4.4 2 .2 1 .7 1.9 1.2 2.7.4.6 1 .9 1.6 1.2.9.5 1.8.9 2.8 1.1 1.4.3 2.9.2 4.3-.2 1.8-.4 3.5-1.5 4.6-3 .5-.8 1-1.6 1.3-2.4 0 1.1-.2 2.1-.4 3.2-.3 1.1-.6 2.2-1.2 3.1-.5.8-1.2 1.3-1.9 1.9-.5.4-1 .8-1.6 1.1-.6.3-1.3.3-1.9.4-1.7.2-3.5-.2-5-.9-.8-.4-1.5-.9-2.1-1.5-.8-.8-1.3-1.8-1.7-2.8-.2-1-.6-2-.6-3z"/><path class="st9" d="M82.8 308.3h.3v.4c-.7.5-1.1 1.3-1.8 1.9h-.7c-.2-.2-.4-.5-.4-.9.3-.2.6-.5 1-.5.2.1.3.2.4.3.3-.4.8-.8 1.2-1.2zm2.5.8c.2 0 .3 0 .4.1 0 .4-.4.5-.6.6-.5.3-1 .7-1.4 1.1-.3.3-.4.7-.8 1h-.5c-.2-.2-.5-.5-.5-.8.2-.3.4-.4.7-.6.2.1.4.1.7.1.5-.6 1.3-1.1 2-1.5zm.4 2.2c.4-.3.9-.6 1.4-.6v.4c-.7.3-1.3.8-1.9 1.2-.3.2-.4.6-.7.7-.4.1-.7-.2-1-.4v-.5c.3-.3.6-.5 1-.5l.3.3c.4 0 .6-.4.9-.6z"/><path class="st2" d="M72.6 314.9c-.2-1.1-.1-2.2 0-3.3.7.8 1.6 1.4 2.6 1.7 1.2.4 2.5.6 3.8 1.1.7.3 1.5.5 2.1.9 1 .6 1.9 1.3 2.8 2l2.4 1.8c.8.5 1.6 1.1 2.5 1.4.8.3 1.7.5 2.6.7 1.9.3 3.9-.1 5.7-.8.8-.3 1.5-.9 2.1-1.5.1.4.1.9 0 1.3-.2.5-.7.8-1.1 1.1-.8.5-1.7.9-2.5 1.1-1.7.3-3.4.6-5.1.6-1.2 0-2.4-.3-3.6-.7-1.8-.5-3.4-1.4-5-2.3-1.9-1.1-4-1.8-6.2-2.4-.9-.3-1.8-.7-2.6-1.3-.3-.4-.4-.9-.5-1.4z"/><path class="st9" d="M87.8 312.2h.6v.4c-.5.3-1 .7-1.6.9-.4.1-.5.4-.8.6-.4.1-.7-.2-.8-.5-.1-.4.3-.6.6-.9h.3c.1.1.3.3.5.2.4-.1.8-.4 1.2-.7z"/><path class="st3" d="M94.1 312.7c.3.4.6.8 1 1.2-.3.2-.5.5-.9.7-.9.5-1.9.4-2.8 0-.2-.4-.4-.7-.6-1.1.8-.2 1.7-.3 2.5-.5.3 0 .6-.1.8-.3z"/><path class="st9" d="M89.4 313.6c.2 0 .3-.1.5-.1v.5c-.2.1-.5.3-.7.4-.4.3-1 .4-1.2.9-.1.3-.4.2-.7.2l-.5-.5c-.1-.4.2-.7.5-.9h.5l.3.3c.4-.2.8-.5 1.3-.8z"/><path class="st8" d="M87.6 5c1.6-.9 3.4-1.8 5.3-1.9.7-.1 1.4.2 2.1.3 1.1.4 1.9 1.4 2.9 2 .6.4 1.3 0 1.9.3.6.2 1 .7 1.2 1.3.5 1.4.8 2.9.2 4.3-.2.6-.7 1.2-1.3 1.4-1.8.2-3.6 0-5.4-.3-.4-.1-.8.1-1 .4-.7.6-1.3 1.3-2 2-.7.6-1.5 1.2-2.4 1.6-1.5.8-3.3.6-4.9.9-.8.1-1.7.2-2.5.6-.2.1-.2.3-.2.5-.1 1-.3 2-.4 3-.2.9-.5 1.8-.8 2.7-.1.8.1 1.7.4 2.5.7 1.6 1.5 3.2 2.4 4.7.6.9 1.2 1.9 1.9 2.8.7.9 1.5 1.7 2.5 2.2 1 .2 2-.2 2.8-.6 1.7-.9 3.2-2.2 5-2.8 1.1-.3 2.2-.7 3.4-.7 1 0 2.1 0 3 .5.2.1.3.2.3.4.4.8.6 1.8.7 2.7 0 1.1.2 2.1.2 3.2 0 1.9.1 3.9-.5 5.8-.4 1-.6 2.1-1.3 2.9-.8.9-1.6 1.7-2.7 2.1-1.8.6-3.7.9-5.5.9-1.2 0-2.4-.3-3.6-.7-1.7-.7-3.4-1.6-4.6-3-.8-.8-1.3-1.7-2.1-2.5-.8-.9-1.3-2-1.9-3-.6-1-1-2.2-1.5-3.3-.3-1.2-.7-2.4-.9-3.6v-.2c-.1-1.1-.4-2.2-.4-3.4-.1-2-.2-4-.2-5.9 0-.4-.3-.6-.6-.8-1.1-.5-2.4-.5-3.6 0-.8.3-1.4 1-1.7 1.8-.2.5-.5 1-.6 1.5-.8-.2-1.4-.7-1.7-1.4-.2-.3-.2-.7-.4-.9-.5-.4-1.1-.4-1.7-.6-.7-.3-1.1-1.1-1.1-1.9 0-.6.3-1.3-.1-1.8-.2-.9-.8-1-1.3-1-.6.1-1.3 0-1.8-.3-.3-.2-.5-.6-.5-1-.2-1 .4-2.1 1.3-2.5 1-.6 2.3-.5 3.2-1.2.8-.6 1-1.6 1.2-2.4.3-1.2 1-2.4 2.1-3.1 1.1-.7 2.5-.4 3.7-.7 1.1-.3 2.1-1 2.8-1.9.9-1.1 2.2-1.9 3.6-2.1 1.1-.2 2.2.1 3.3.4 1.2.4 2.7.4 3.8-.2z"/><path class="st10" d="M93.5 12.8c.3-.3.6-.5 1-.4 1.8.3 3.6.5 5.4.3-.2.2-.4.3-.6.4-1.6.2-3.3.2-4.9-.3-.6.6-1.2 1.2-1.8 1.9-.7.8-1.3 1.7-2 2.5-1.2 1.1-2.7 1.8-4.3 1.9-1.3.2-2.7-.1-4-.1-.3.8-.6 1.6-1.2 2.2.2-1 .3-2 .4-3 0-.2 0-.4.2-.5.8-.3 1.6-.5 2.5-.6 1.6-.2 3.4-.1 4.9-.9.9-.4 1.7-.9 2.4-1.6.7-.5 1.3-1.2 2-1.8z"/><path class="st11" d="M92.6 14.7c.5-.7 1.1-1.3 1.8-1.9 1.6.5 3.2.5 4.9.3.3 0 .5-.2.6-.4.2 1 .6 2.1.7 3.1.6 3 .9 6.1 1 9.2 0 1.6.3 3.2.4 4.8 0 .9 0 1.8-.1 2.6-.9-.5-2-.4-3-.5-1.2 0-2.3.4-3.4.7-1.9.5-3.4 1.8-5 2.8-.8.5-1.8.8-2.8.6-1-.5-1.9-1.3-2.5-2.2-.7-.9-1.3-1.8-1.9-2.8-.9-1.5-1.7-3.1-2.4-4.7-.4-.8-.6-1.6-.4-2.5.3-.9.6-1.8.8-2.7.6-.6.9-1.4 1.2-2.2 1.3 0 2.7.2 4 .1 1.6-.2 3.1-.8 4.3-1.9.6-.7 1.2-1.6 1.8-2.4z"/><path class="st12" d="M73.5 24c1.1-.5 2.5-.5 3.6 0 .3.2.7.4.6.8-.1 2 0 4 .2 5.9 0 1.1.3 2.2.4 3.4-1.2-.2-2.6 0-3.7-.7-.3-.2-.5-.3-.8-.5-.6-.4-1.1-1-1.5-1.6-.4-.6-.8-1.3-.9-2-.1-.7-.1-1.3-.1-2 .1-.5.3-1 .6-1.5.2-.8.8-1.5 1.6-1.8z"/><path class="st10" d="M83.8 28.6c.4.6.6 1.2.9 1.9.5 1.1 1.1 2.1 2 3 .5.6 1.1 1 1.7 1.6-.8-.2-1.4-.6-2.1-1.1-1.5-1.1-2.3-3-2.5-4.8v-.6zm-10.1 4.3c.3.2.5.3.8.5 1.1.7 2.5.5 3.7.7v.2c-1 1.1-2.6 1.5-4 1.7h-1v-.4c.2-.9.4-1.8.5-2.7z"/><path class="st11" d="M74.3 36c1.5-.2 3-.6 4-1.7.2 1.2.6 2.4.9 3.6 0 1 .4 1.9.6 2.9.3 1 .6 1.9.9 2.9.6 1.8 1.4 3.6 2.5 5.1 1.6 2.1 3.7 3.7 5.8 5.2.7.6 1.5 1 2.4 1.4-3.7 1.7-7.8 2.4-11.8 2.4h-1.4c-1.3-.1-2.6-.1-3.9-.3-1.7-.2-3.4-.5-5-1.1-1.6-.5-3-1.4-4.4-2.3-.7-.5-1.4-.9-2.1-1.5-.2-.2-.3-.3-.4-.6.1-.1.2-.2.3-.2 1.7-.7 3.3-1.8 4.9-2.8 1.1-.7 2.2-1.5 3.1-2.4.5-.6 1.1-1.2 1.4-2 .4-1.3.6-2.6.7-4 .2-1.6.2-3.3.4-4.9v.4c.4 0 .8 0 1.1-.1zm21.5-.8c1.2-.7 2.7-1.1 4-.7.6.2 1.2.6 1.5 1.3-.5.1-1.1.1-1.7.1-1 0-1.9.2-2.9.3-.8.1-1.5.5-2.3.3.4-.6.9-1 1.4-1.3z"/><path class="st10" d="M79.2 38c.5 1.1.9 2.3 1.5 3.3s1.1 2.1 1.9 3c.7.8 1.3 1.8 2.1 2.5 1.2 1.4 2.9 2.3 4.6 3 1.2.4 2.4.7 3.6.7 1.9 0 3.8-.3 5.5-.9 0 .3.1.7-.1 1-.7 1.1-1.7 1.9-2.7 2.6-1.3 1-2.7 1.7-4.2 2.4-.8-.4-1.6-.8-2.4-1.4-2.2-1.5-4.3-3.1-5.8-5.2-1.1-1.6-1.9-3.3-2.5-5.1-.3-1-.7-1.9-.9-2.9-.2-1.1-.6-2-.6-3zm-67.5 63.1 3 .6c2.4.3 4.8.8 7.2.9 1.6.2 3.2.2 4.7.3 2 .2 4 0 6 0 .9 0 1.8-.1 2.6-.2-.3 1.1-.8 2.1-1.2 3.2-.5 1.1-.8 2.2-1.4 3.3-.7 0-1.4 0-2.1-.2-1-.2-2.1-.5-3.1-.7-1.7-.3-3.4-.9-5.1-1.5-1.5-.5-2.9-.9-4.3-1.6-1.1-.6-2.1-1.2-3.2-1.7s-2.2-1.2-3.1-2.1v-.3z"/><path class="st11" d="M11.7 101.6c.9.8 2 1.5 3.1 2.1 1.1.5 2.1 1.2 3.2 1.7 1.4.7 2.8 1.2 4.3 1.6 1.7.6 3.4 1.1 5.1 1.5 1 .2 2.1.5 3.1.7.7.1 1.4.1 2.1.2-.9 2.3-1.9 4.6-2.9 7-.4.9-.7 1.9-1 2.8-.2.6-.5 1.2-.6 1.9-.2 1-.1 2 0 3 0 1.3.2 2.6.3 3.8.1 1.8.5 3.6.6 5.5.4 3.7 1.1 7.3 1.6 11 .4 2.4.6 4.9 1.5 7.2.6 1.6 1.6 3.1 2.7 4.4 1 1.1 1.9 2.3 2.6 3.6.5 1.2 1.1 2.4 1.4 3.7.2.8.6 1.6.7 2.5.3 1.1.6 2.2.8 3.4.1.4.1.8.1 1.2 0 .2-.3.3-.4.4-.8.3-1.7 0-2.2-.7-.7-1-1.3-2.1-1.8-3.2-.8.3-1.6.5-2.3.8-1.3.5-2.6.9-3.8 1.4-1.6.7-3.3 1.3-4.9 2-1.4-1.5-2.5-3.2-3.6-4.9-1-1.7-1.7-3.6-2.7-5.3-.5-1.1-1.1-2.3-1.6-3.4-1.6-3.7-3.2-7.4-4.5-11.3-.8-2.4-1.4-4.9-1.9-7.5-.3-1.5-.4-3-.6-4.4-.3-2.1-.6-4.2-.7-6.2-.1-2.1-.4-4.3-.4-6.4 0-1.4 0-2.8.1-4.1.2-1.8.5-3.6.7-5.4.3-2.3.7-4.6 1.2-6.9.4-1.4.6-2.6.7-3.7z"/><path class="st10" d="M138.4 112.8c.9-.1 1.7-.3 2.5-.5 0 .3.1.6.1.9v.5l-2.4.9c-2.3.9-4.7 1.5-7.1 2.1-1.9.5-3.7 1.1-5.6 1.3-1.8.3-3.6.4-5.4.2v-.3c-.2-1.5-.2-2.9-.2-4.4 0-.2 0-.4.1-.6 2 0 4 .6 6 .5 1.4 0 2.8.2 4.2.1 2.6 0 5.2-.3 7.8-.7z"/><path class="st11" d="M141 113.7v-.5c.1 3-.1 6.1.3 9.1.1.9.4 1.8.6 2.7.6 2.4.9 4.9 1.1 7.4.3 3 .4 6 .2 8.9-.2 2.6-.5 5.2-.8 7.8-.7 6-2.1 11.9-4.2 17.5-.4 1-.8 2-1.1 3-.2.9-.4 1.8-.4 2.7-.6 0-1.1 0-1.7-.1-.4-.1-.8-.3-1.1-.6.1-.2.1-.4.2-.6-.8-.3-1.7-.2-2.6-.3-1.3-.2-2.5-.4-3.7-.6-1.2-.2-2.3-.6-3.4-1 .3-1.1.6-2.2.6-3.4 0-1.3-.2-2.7-.3-4-.2-1.3-.3-2.5-.5-3.8-.6-2.7-.8-5.5-1.1-8.2-.2-1.5-.3-2.9-.4-4.4v-7.8c0-2.8 0-5.7-.5-8.4-.1-.9-.4-1.7-.6-2.5-.3-1.5-.4-3.1-.5-4.6-.1-1.4-.4-2.7-.4-4.1v.3c1.8.2 3.6 0 5.4-.2 1.9-.3 3.8-.8 5.6-1.3 2.4-.6 4.8-1.2 7.1-2.1.6-.4 1.4-.7 2.2-.9z"/><path class="st10" d="M19 117.8c.1-.2.2-.4.4-.3 1.3-.2 2.5.2 3.7.5 1.3.4 2.5.9 3.7 1.6v.3c-.8-.3-1.6-.8-2.5-1-1.7-.7-3.5-1.2-5.3-1.1zm110.6 5.3c.5-.1 1-.4 1.6-.4-.5.5-1.2.6-1.8.9-1 .3-2.1.6-3.2.7-.5 0-.9 0-1.4-.2.6-.3 1.2-.1 1.9-.3.9-.2 1.9-.5 2.9-.7zm-5.3 46.1c1.1.4 2.2.8 3.4 1 1.2.2 2.5.5 3.7.6.9.1 1.8 0 2.6.3-.1.2-.1.4-.2.6.4.2.7.4 1.1.6.6.1 1.1.1 1.7.1 0 .2 0 .5-.1.7-1 .1-2.1.1-3-.5-.5-.3-.8-1-1.5-1-2-.1-4-.4-5.9-1-.7-.2-1.4-.4-2.2-.6.3-.3.3-.6.4-.8z"/><path class="st11" d="M122.8 173.9c.5-1.3 1-2.6 1.3-4 .7.2 1.5.4 2.2.6 1.9.6 3.9 1 5.9 1 .7 0 1 .7 1.5 1 .9.6 2 .6 3 .5-.1 1.3-.3 2.6-.5 3.9-.2 1.1-.4 2.3-.7 3.4-.8 2.7-2.2 5.3-4.2 7.3-1 .9-2.1 1.7-3.2 2.4-.8.3-1.8.6-2.7.5-.2 0-.4-.2-.5-.3-.5.1-1.1.2-1.6.2-.2-.2-.5-.5-.4-.8.1-.8.5-1.5.9-2.1.7-1 1.4-2.1 1.8-3.3.2-.7.2-1.4 0-2-.2-1.2-.7-2.3-.8-3.5-.4.9-.8 1.8-1.1 2.8-.3.9-.5 2-1.2 2.7-.5.5-1.3.6-1.9.3-.4-.1-.2-.6-.2-.9 0-1.5.2-3 .5-4.4.4-1.9 1.2-3.6 1.9-5.3z"/><path class="st13" d="M92 3.9c1.4-.2 2.8.2 4 .9 1.3.8 2.5 1.8 3.4 3 .6.9 1 1.9 1 3 0 .5 0 1-.1 1.4h-.3c.1-.7.1-1.4 0-2.1-.3-1.5-1.2-2.7-2.4-3.7-.7-.6-1.5-1.2-2.3-1.6-1-.6-2.2-.8-3.3-.9z"/><path class="st14" d="M89.4 4.8c.7-.4 1.5-.5 2.3-.5 1.5 0 3 .4 4.2 1.2.8.6 1.6 1.4 2.1 2.2.7.9 1 2 1.2 3.1 0 .6.1 1.3-.2 1.8-.2-.7-.1-1.4-.3-2.1-.2-.9-.5-1.8-1-2.5-.9-1.4-2.1-2.5-3.6-3.1-1.4-.5-2.9-.6-4.4-.3 0 .2-.2.2-.3.2z"/><path class="st14" d="M87.9 5.7c.8-.4 1.6-.5 2.4-.6.9-.1 1.8-.1 2.7.2 1.2.4 2.2 1 3.1 1.8.6.6 1.1 1.4 1.4 2.2.4.9.6 1.9.2 2.9-.1.1-.2.5-.4.4.1-.5.3-1 .2-1.5 0-.8-.4-1.6-.8-2.3-.3-.6-.8-1.2-1.3-1.7-1.1-.9-2.4-1.6-3.8-1.7-1.1-.1-2.2 0-3.3.2 0 .1-.2.1-.4.1zM77.8 7c1-.9 2.4-1.3 3.7-1.2.5.1 1 .1 1.5.4-1.3-.1-2.7-.2-3.9.4-.8.3-1.3 1.1-2.1 1.2.2-.3.5-.5.8-.8z"/><path class="st15" d="M87.1 6.4c1.6-.5 3.3-.7 5-.3 1.1.3 2.3.8 3.1 1.7 1.1 1.2 1.6 2.9 1.2 4.5h-.2c.1-1.3-.1-2.6-.8-3.7-.5-.8-1.2-1.5-2.1-1.8-1.6-.8-3.6-.8-5.3-.4-1.4.3-2.6 1-3.8 1.8-.6.4-1.2.9-1.9 1.2-.6.3-1.2.5-1.9.5-.8.1-1.5-.1-2.3-.1-2.7.2-5.2 2-6.1 4.6-.3.9-.9 1.7-1.8 2.2-1.5.7-3.3.1-4.9.7-.6.2-1 .6-1.6.9.3-.5.9-.7 1.4-1 .6-.3 1.2-.4 1.9-.4.8-.1 1.7.1 2.5-.2 1.1-.2 1.9-1.2 2.3-2.2.5-1.1 1.2-2.1 2.1-2.9 1.4-1.3 3.3-2 5.1-1.8 1.1.1 2.4.1 3.4-.5 1.5-1.1 2.9-2.3 4.7-2.8z"/><path class="st16" d="M86 6.3c.2-.1.4-.1.6-.2v.1c-.3.1-.5.2-.8.3-1.3.6-2.5 1.3-3.8 1.9-.8.3-1.7.6-2.6.7-1.2.1-2.4 0-3.5.4-1.6.5-3.2 1.5-4 3.1-.6 1.1-1.3 2.3-2.4 3-.9.5-2 .3-3 .6-.6.1-1.2.4-1.8.5.1-.1.2-.1.4-.2.7-.4 1.4-.6 2.2-.7.7-.1 1.4 0 2.1-.4 1.1-.7 1.8-1.8 2.5-2.9.7-1.3 1.9-2.4 3.4-2.9 1.2-.5 2.6-.6 3.9-.7.9 0 1.8-.3 2.6-.6 1.3-.7 2.7-1.6 4.2-2z"/><path class="st17" d="M80 7.7c1.6-.1 2.9-1.1 4.4-1.5h.3c-1.2.6-2.3 1.3-3.6 1.6-.9.2-1.9.1-2.8.3-.6.1-1.2.3-1.8.4.9-.7 2.3-.8 3.5-.8z"/><path class="st16" d="M99.1 6.3c1 .5 1.6 1.5 1.9 2.5.3.8.2 1.7-.1 2.5.1-1.4-.2-3-1.1-4.1-.1-.4-.6-.6-.7-.9zM84.7 8.4C86 7.1 88 6.5 89.8 6.7c1.6.1 3.2.7 4.5 1.7 1.2.9 1.5 2.6 1.1 4l-.2.1c.1-.8.2-1.7-.2-2.5-.3-1-1.2-1.6-2.1-2.1-1.7-.9-3.7-1.2-5.6-.7-1.1.3-2.1.8-2.8 1.7-.9.9-1.8 2-3.1 2.3-1.6.3-3.2-.5-4.7-.2-1.6.4-3 1.5-3.6 3.1-.3.8-.5 1.7-1.1 2.4v-.3c0-.2.2-.3.2-.5.4-.8.5-1.6.9-2.4.7-1.3 2.1-2.3 3.5-2.6 1.6-.3 3.1.5 4.6.3 1.6-.5 2.5-1.7 3.5-2.6z"/><path class="st17" d="M87.1 8.7c1.1-.6 2.5-.7 3.7-.4 1.2.3 2.1 1.1 2.8 2.1.3.4.4.9.6 1.3 0 0 .1.1.1.2-.5-.2-.6-.8-.9-1.3-.6-.9-1.5-1.7-2.5-2-1.3-.3-2.8-.2-4 .5-1.1.6-1.9 1.6-2.9 2.2-1 .6-2.2.9-3.3.7-1.5-.2-3-.4-4.4.2-1.1.5-1.6 1.6-2.2 2.6-.4.8-.9 1.5-1.5 2.2-.4.5-.9.9-1.4 1.2-.8.5-1.7.6-2.6.9-.7.2-1.4.2-2.2.1-.5-.1-1 .2-1.4.3.2-.4.5-.5.9-.6.6-.1 1.2.1 1.8.1.6 0 1.2-.2 1.8-.4 1.1-.3 2.2-.7 2.9-1.6 1.3-1.3 1.7-3.2 2.9-4.5.7-.8 1.9-1 2.9-1s2 .2 3.1.3c.8 0 1.6-.3 2.3-.6 1.2-.6 2.2-1.8 3.5-2.5z"/><path class="st13" d="M71.5 9.9c.6-.2 1.3-.3 1.9-.4v.2c-1.3.4-2.8.8-3.6 2-.6.8-.7 2-1.6 2.6.1-.3.3-.6.4-.9.3-.6.4-1.2.8-1.7.6-.8 1.3-1.5 2.1-1.8z"/><path d="M85.4 11.7c.8-.8 1.8-1.5 3-1.7.9-.1 1.8.1 2.5.5 1 .5 1.9 1.3 3.1 1.6v.2c-1.5-.3-2.6-1.6-4.1-1.9-.7-.2-1.5-.2-2.2.1-1.2.5-2 1.7-3.1 2.2-1.1.6-2.5 1-3.8.5-1.2-.4-2.6-.6-3.8-.1-.9.3-1.6 1.1-2.1 2-.5.8-.9 1.8-1.6 2.5-.7.7-1.6 1.3-2.6 1.6-.6.2-1.2.3-1.8.4-.1 0-.3-.1-.4-.1.8-.2 1.5-.4 2.3-.6.9-.3 1.7-.8 2.4-1.5.6-.6.9-1.5 1.3-2.3.4-.8 1-1.6 1.8-2.1 1-.5 2.1-.7 3.2-.5.8.1 1.6.4 2.4.5 1.2.2 2.6-.3 3.5-1.3z" style="fill:#102f3a"/><path class="st15" d="M71.4 11.4c.3-.3.6-.6 1.1-.8-.5.6-1.1 1.1-1.6 1.7-.6.8-1.1 1.7-1.9 2.3-.3.2-.7.4-1.1.4.9-.4 1.7-1.2 2.2-2.1.3-.4.7-1 1.3-1.5z"/><path class="st14" d="M85.4 13.1c1.5-.7 3-1.5 4.7-1.5v.2c-.7.1-1.3.2-2 .4-.8.3-1.5.7-2.3 1-1.1.5-2.2.9-3.4 1.2-.9.3-1.9.3-2.8.7-1 .4-2.1.9-2.9 1.7-1.4 1.2-2.4 2.8-3.9 3.9-1.3.9-3 1.2-4.6 1.1-.2 0-.4-.1-.6-.2.4-.2.8-.2 1.2-.2 1.3-.1 2.8-.3 3.9-1.1.8-.6 1.5-1.4 2.1-2.1.8-1 1.7-1.8 2.8-2.5 1-.6 2.1-1 3.2-1.3 1.6-.2 3.2-.6 4.6-1.3z"/><path class="st14" d="M89.9 13.1c.6-.3 1.2-.8 2-.8-.5.3-1.1.5-1.6.9-1 .6-2 1.2-3.2 1.4-1.2.2-2.4.2-3.5.2-1.9.2-3.8 1-5.3 2.4-.8.8-1.5 1.7-2.3 2.4-1.1 1-2.2 2.2-3.7 2.8-1.5.6-3 .6-4.5.6-.2 0-.4-.1-.6-.2 1.4-.2 2.8 0 4.1-.4.9-.3 1.7-.6 2.5-1.2.9-.7 1.7-1.5 2.5-2.3.8-.9 1.6-1.9 2.6-2.5 1.1-.9 2.5-1.5 3.9-1.7 1.5-.3 3-.1 4.4-.4.9-.3 1.8-.7 2.7-1.2z"/><path d="M91.8 13c.2-.2.4-.5.8-.5-.4.8-1.2 1.4-1.9 1.9-.8.4-1.5.9-2.4 1.1-1.5.4-3.1.2-4.6.5-1.5.2-2.9.9-4.1 1.8-1.6 1.2-2.8 2.9-4.4 4.1-1.2 1-2.6 1.7-4.2 1.9-1.2.2-2.4.2-3.6-.1.2-.2.6-.1.9-.1 1.8.2 3.6-.1 5.2-1 1-.5 1.8-1.2 2.6-2 .7-.7 1.3-1.4 2-2.1 1.1-1.1 2.5-1.9 3.9-2.4 1.3-.5 2.8-.6 4.2-.5 1 0 2 0 2.9-.5 1.1-.7 1.9-1.4 2.7-2.1z" style="fill:#11313d"/><path d="M78.2 14c.6-.1 1.2-.1 1.8-.1-.3.2-.6.2-.9.3-.7.1-1.3.3-1.9.7-.7.4-1.2 1-1.6 1.7-.6.8-1.3 1.4-2 2.1-1.2 1.1-2.7 2-4.3 2.3-.6.1-1.3.2-1.9 0 .3-.1.6-.2.9-.2 1.6-.2 3.2-.7 4.5-1.7 1-.8 1.9-1.6 2.6-2.7.6-1.1 1.5-2.1 2.8-2.4z" style="fill:#11303c"/><path d="M71 17.2c.4-.3.7-.7 1-1.1v.3c-.4.6-1 1-1.6 1.3-1 .4-2.2.6-3.3.5-.7 0-1.4-.1-2.1.2-.4.1-.7.4-1.1.5.4-.6 1.2-.9 1.9-.9.8-.1 1.6.1 2.4 0 1.1-.1 2-.3 2.8-.8z" style="fill:#24404b"/><path class="st14" d="M80.2 18.3c.5-.2.9-.5 1.5-.6-.8.6-1.7 1-2.5 1.7-1 .9-1.6 2.2-2.7 2.9-.6.2-1 .8-1.6.8.4-.3.9-.6 1.4-.9.3-.1.5-.4.7-.6l.9-1.2c.5-.9 1.4-1.6 2.3-2.1z"/><path d="M67.4 20c.3 0 .6-.2 1-.2.1 0 .3.1.4.1-.7.1-1.3.4-2 .4-.2 0-.3-.1-.5-.2.4-.2.8-.1 1.1-.1z" style="fill:#2b4651"/><path class="st8" d="M89.5 22.3c1.6-.7 3.4-.9 5.1-.4.6.1 1.4.3 1.6.9.1.2-.1.4-.2.6-.7-.5-1.6-.8-2.5-.9-.3-.1-.7-.1-1 0-1.1.1-2.1.2-3.1.6-.4.1-.7.1-1.1 0 .4-.4.8-.6 1.2-.8z"/><path d="M100.3 23.3c-.2-.7.4-1.4 1.1-1.5.1.2.1.3.1.5-.4.2-.8.5-1.1.8l-.1.2z" style="fill:#1d5062"/><path d="M92.6 22.5c.3-.1.7-.1 1 0h-1z" style="fill:#3d6372"/><path class="st14" d="M100.4 23.2c.3-.3.7-.7 1.1-.8.5-.1 1 .1 1.4.3-.7-.1-1.6-.1-2.1.5-.3.6-.2 1.4-.2 2.1.1.9.1 1.8.5 2.5.4.6.9 1.3 1.6 1.5-.5.1-1-.1-1.3-.5-.9-1-1.3-2.3-1.3-3.7H99c-.3 0-.6.1-.9.1-.4.1-.8.1-1.2.2-.2 1.2-.4 2.5-1.2 3.5-.6.8-1.5 1.4-2.5 1.4-1.1.1-2.3-.2-3.3-.7-.6-.3-1-.9-1.4-1.5-.3-.4-.4-.8-.5-1.2-.1-.7-.2-1.4-.1-2.1l-1.5-.3c-1.6-.3-3.2-.6-4.8-.7v-.2c.2 0 .4 0 .6.1.7.1 1.4.2 2.1.2-1-.1-1.9-.4-2.9-.3l-.2.2c-1.6-.1-3.2-.2-4.9-.1-.2 0-.4-.1-.6-.2.2-.4.7-.5 1.1-.5.8 0 1.6 0 2.4.1 1.7.2 3.4.3 5.1.6.8.1 1.5.2 2.3.4.5.1 1 .3 1.5.3.3-.5.7-1 1.3-1.3 1-.4 2.1-.5 3.1-.6h1c.9.1 1.7.4 2.5.9l.6.6c.2.3.2.7.3 1 1-.3 2.1-.3 3.2-.3.1-.5.1-1 .3-1.5z"/><path class="st2" d="M100.9 23.2c.5-.6 1.4-.7 2.1-.5.6.4.8 1.1.8 1.8 0 1.3 0 2.6-.4 3.9-.1.4-.2.8-.5 1-.8-.2-1.3-.8-1.6-1.5-.4-.8-.4-1.7-.5-2.5-.2-.8-.3-1.6.1-2.2zm-10.9.1c1.1-.4 2.3-.5 3.5-.4 1 .1 2.2.3 2.7 1.3.4.5.3 1.2.2 1.7 0 .8-.4 1.4-.6 2.1-.4.8-1 1.5-1.9 1.8-.8.2-1.7.3-2.6 0-1.3-.2-2.4-1.2-2.9-2.4-.4-.8-.4-1.7-.2-2.6l-.2.3.1-.3.3-.3h.1l.1-.1c.3-.5.8-.9 1.4-1.1z"/><path d="M91.2 23.6c.5-.4 1.2-.3 1.8-.3.5 0 1.1.1 1.6.4-.5-.1-1-.2-1.5-.2-.6 0-1.2.1-1.9.1zm11.5.1c.4.2.4.7.4 1.1-.1.9-.2 1.9-.5 2.8.1-1.3.4-2.6.1-3.9z" style="fill:#e6f0da"/><path class="st26" d="M97.4 25.2c.6-.5 1.5-.3 2.2-.3-.3.1-.7.1-1 .2-.4 0-.8.2-1.2.1z"/><path class="st12" d="M98.1 25.3c.3-.1.6-.1.9-.1.5.8 1 1.6 1.4 2.3.5.7.9 1.4 1.1 2.2.1.4.1.8-.2 1.2-.3.4-.8.6-1.2.8-.5.2-1.1.2-1.7.3-.2 0-.6.1-.6-.2-.1-.6 0-1.2 0-1.9.1-1.6.1-3.1.3-4.6z"/><path class="st27" d="M73.5 27c.2-.8.9-1.4 1.7-1.4.5-.1 1.1.2 1.5.5.2.1.2.3.2.5-.6-.1-1.1-.7-1.7-.5-.7 0-1.4.6-1.5 1.4-.2 1.2.3 2.7 1.5 3.2.5.2 1.2.2 1.7 0 .1 0 .2.1.2.2-1.1.9-2.8.1-3.3-1.1-.4-.9-.5-1.9-.3-2.8z"/><path class="st26" d="M99.8 27.8c.6.5.8 1.3.9 2-.2-.7-.7-1.3-.9-2z"/><path d="M90.5 28.9c.8.4 1.6.4 2.5.5-.4.2-.8.1-1.2.1-.5 0-1-.1-1.3-.6z" style="fill:#b6dcd3"/><path class="st12" d="M87.5 31c.3-.6 1-1 1.7-.8.6.1 1.1.7 1.2 1.3-.4-.1-.8-.3-1.1-.4.2.5.7.6 1.1.6 0 .5-.2 1.1-.6 1.4-.6.4-1.4.5-2 .1-.6-.6-.7-1.5-.3-2.2z"/><path class="st27" d="M98.6 30.8c.2 0 .5.1.5.3-.1.5-1.2.5-.9-.1.2-.1.3-.2.4-.2z"/><path class="st10" d="M95.8 35.7c.8-.4 1.5-.8 2.4-.9.9-.1 1.9 0 2.6.7-.4.2-.9 0-1.3-.1-.6 0-1.2 0-1.8.1-.8.1-1.6.5-2.4.7 0-.3.2-.4.5-.5z"/><path d="M80 22.4c.3-1.1.3-2.3.7-3.5.1.6 0 1.2-.1 1.8-.1.5-.2.9-.3 1.4l-.3.3zm-.4-1.7c-.1.7-.2 1.3-.2 2 .2-.5.3-1.1.4-1.6.1-.7.3-1.3.4-2-.4.5-.5 1.1-.6 1.6zm-.9 1.8c.2-.5.2-1.1.4-1.6.1-.4.3-.8.2-1.3-.5.9-.5 1.9-.6 2.9zm-.6-1.3c-.1.5-.3 1.1-.2 1.6.2-.8.4-1.5.5-2.3-.1.2-.2.4-.3.7zm.7 3.2c-.1.3-.2.6-.1.9.1.8.1 1.5.3 2.3 0-.6-.1-1.2-.1-1.9 0-.4 0-.8-.1-1.3zm.6 0c-.1.7 0 1.3.1 2 .1.5.2 1 .5 1.4-.2-.8-.3-1.5-.4-2.3 0-.4 0-.8-.2-1.1zm-1.3 1.2c0 .8.1 1.5.2 2.3.1-.6 0-1.2 0-1.8 0-.5.1-1-.1-1.5-.2.3-.1.6-.1 1zm1.2 2.3c-.1.6.2 1.2.3 1.7.2.5.3 1.1.7 1.5-.4-1-.7-2.1-1-3.2zm1.3-.1c.1.6.4 1.2.7 1.8.3.6.6 1.2 1.1 1.7-.1-.3-.2-.5-.3-.7-.6-.9-1-1.9-1.5-2.8zm-1.9 2c.2.6.3 1.2.6 1.8-.2-1.1-.5-2.2-.8-3.3-.1.6.1 1 .2 1.5zm1.3-1.3c.1.6.4 1.1.6 1.7.2.5.4.9.7 1.3-.3-.7-.7-1.4-.9-2.2-.1-.2-.1-.6-.4-.8zm-1.6 1.9c-.1.8.1 1.5.2 2.2.2.6.3 1.3.6 1.9-.1-.6-.3-1.2-.4-1.8-.2-.7-.3-1.5-.4-2.3zm1.7 1.4c.2.6.5 1.2.8 1.8.2.4.4.8.7 1-.4-.8-.7-1.5-1-2.3-.2-.2-.2-.5-.5-.5zm-.7.2c0 .4.1.8.3 1.2.2.5.3 1 .7 1.4-.2-.5-.4-.9-.5-1.4-.2-.4-.3-.8-.5-1.2zm2.6.1c.5 1 1.2 2.1 2.1 2.9-.5-.7-1-1.4-1.4-2.2-.2-.3-.3-.7-.7-.7zm-.7-.1c0 .5.3 1 .5 1.4.3.5.5.9.9 1.3-.2-.4-.5-.8-.7-1.3-.2-.4-.3-.9-.7-1.4zm17.3.6c.3 0 .5 0 .8-.1-.3-.1-.6-.2-.8.1zm1.8-.2c.4.3.8.5 1.2.6-.3-.2-.7-.5-1.2-.6zm-17 0c.1.5.3.9.6 1.3.4.6.8 1.2 1.3 1.7-.3-.6-.7-1.1-1-1.6-.4-.5-.6-1-.9-1.4zm13.3.6c.6-.1 1.2-.3 1.8-.3-.6-.1-1.3-.1-1.8.3zm2.8-.2c.5.1.9.2 1.4.3-.3-.2-.7-.4-1.1-.5-.1.1-.2.2-.3.2zm-4.6.5c-.2.1-.3.2-.4.4.6-.3 1.3-.5 1.9-.9-.5.2-1 .3-1.5.5zm3 0c.3.1.7-.1 1-.2-.4 0-.7 0-1 .2zm1.2-.1c.4.2.9.3 1.4.5-.4-.3-.9-.6-1.4-.5zm-3.4.8c.7-.1 1.3-.5 2-.7-.6.2-1.5.2-2 .7zm5.6-.7c.3.4.7.7 1 1-.2-.4-.5-.9-1-1zm-3.9.8c.5-.1 1-.2 1.4-.4-.5 0-1.1-.1-1.4.4zm-3.9.9c.4-.1.7-.4 1-.6.3-.3.7-.4 1-.7-.7.3-1.5.7-2 1.3zm5.5-1.1c.4 0 .7.1 1.1.2-.1-.1-.3-.3-.5-.3s-.5-.2-.6.1zm1.8-.2c.3.4.7.6 1.1.9-.3-.4-.6-.9-1.1-.9zm-5.6 1c-.2.1-.4.3-.5.4.4-.1.8-.3 1.1-.5.4-.2.8-.4 1.1-.6-.5.1-1.1.4-1.7.7zm-3.2.6c.7-.3 1.3-.9 1.9-1.2-.7.2-1.4.6-1.9 1.2zm8.2-1.1c.5.3 1 .5 1.4.8-.3-.5-.8-.9-1.4-.8zm1.8.5c.2.4.4.7.6 1 0-.4-.1-.9-.6-1zm-.6.4c.2.3.5.7.8.9-.2-.3-.3-.8-.8-.9zm-22 .1c0 .8.3 1.7.6 2.4l-.6-2.4zm.8 0c.1.6.3 1.2.5 1.8.1.2.2.5.4.7-.3-.7-.5-1.4-.7-2.2 0-.2-.1-.3-.2-.3zm3.3.1c.1.5.4.9.6 1.3.2.4.4.8.8 1.1-.3-.6-.6-1.1-.9-1.7-.1-.2-.2-.6-.5-.7zm-2.2.1c.1.5.3 1 .5 1.5.1.3.3.7.5.9-.2-.6-.5-1.2-.7-1.7 0-.3 0-.6-.3-.7zm.9 0c.1.5.4.9.6 1.4.2.3.4.7.7 1-.2-.6-.5-1.2-.8-1.7-.2-.3-.3-.6-.5-.7zm9.1.9h.2c.3-.2.7-.5.9-.8-.4.1-.8.4-1.1.8zm-6.6-.5c.2.7.6 1.2.8 1.9 0-.6-.3-1.1-.5-1.6 0-.2-.2-.3-.3-.3zm5.6.7c-.2.3-.4.5-.3.9.5-.5.8-1.2 1.1-1.7-.4.2-.6.5-.8.8zm2.1.4c.4-.3.9-.6 1-1.1-.4.2-.8.6-1 1.1zm-3.4 0c.3-.3.6-.6.8-.9-.4.1-.6.5-.8.9zm2.1.1c-.2.1-.3.3-.3.5.5-.4 1-.8 1.4-1.2-.4.1-.7.4-1.1.7zm2.8-.7c-.4.3-.7.7-.8 1.2.4-.4.8-.8 1.1-1.2h-.3zm-8.1.1c.1.6.4 1.2.6 1.7 0-.5-.2-1-.3-1.4-.1-.2-.2-.2-.3-.3zm1 0c.1.6.4 1.1.5 1.6 0-.5-.1-1.2-.5-1.6zm13.1 0c0 .7.2 1.3.1 2 .3-.3.2-.8.2-1.2 0-.3.1-.7-.3-.8zm-1.8.1c.1.6.2 1.2.4 1.8.1-.5 0-1.1-.1-1.6-.1 0-.2-.1-.3-.2zm2.7 0c.2.6.3 1.1.3 1.7.2-.5.1-1 0-1.4 0-.2-.2-.2-.3-.3zm.8 0c.1.6.1 1.3.2 1.9.1-.5.1-1 0-1.5 0-.2-.1-.3-.2-.4zm-2.4.8c.1.4.1.7.1 1.1.1-.6.2-1.4-.2-1.9-.1.3 0 .6.1.8zm-1.9-.6c0 .6.2 1.1.2 1.7.1-.5.2-1.2-.2-1.7zm-9.3.2v1.8c.3-.5.2-1.2.2-1.7 0-.1-.1-.1-.2-.1zm14.4-.1c-.1.7 0 1.3.1 2 .1-.7.1-1.4-.1-2zm-13.4.8c-.2.3-.4.6-.3 1 .4-.4.6-1.1.8-1.6-.2.1-.4.4-.5.6zm7.3-.6c.1.6.3 1.2.3 1.7.1-.5.1-1-.1-1.5.1-.1 0-.2-.2-.2zm-.9.1c.1.5.2 1.1.4 1.6 0-.6.1-1.3-.4-1.6zm-.8.1c0 .4.2.8.3 1.2.1.3.1.6.3.9 0-.4-.1-.8-.2-1.2-.1-.4-.2-.7-.4-.9zm-3.3 1.6c.3-.1.4-.4.6-.6.2-.3.5-.5.6-.9-.6.3-.9.9-1.2 1.5zm2.3-1c-.2.3-.3.7-.3 1.1.3-.4.5-.9.6-1.3-.1 0-.3 0-.3.2zm-2.9.4c-.3.3-.6.6-.6 1 .3-.2.5-.6.8-.9.2-.3.4-.5.6-.8-.3.2-.5.5-.8.7zm-1 .2c-.2.3-.5.5-.4.9.5-.3.7-.9 1-1.4-.3.1-.4.3-.6.5zm-9.4-.3c-.1.8.4 1.6.8 2.3l-.3-.9c-.1-.5-.2-1-.5-1.4zm1.8-.1c-.1.6.3 1.2.6 1.7-.2-.5-.3-1.1-.6-1.7zm2.9.1c0 .6.2 1.2.3 1.9.1-.5 0-1.1-.1-1.6 0-.1 0-.3-.2-.3zm7.2.8c.4-.2.6-.5.9-.8-.5 0-.7.5-.9.8zm2-.9c-.1.5-.2 1.1.1 1.6 0-.4.1-.8.1-1.2 0-.1-.1-.3-.2-.4zm-10.1.2c.1.6.2 1.2.4 1.7 0-.5-.1-1.1-.2-1.6-.1 0-.2-.1-.2-.1zm-.9.3c0 .5.2 1 .4 1.5-.1-.5-.2-1.1-.4-1.5zm2.9 0c0 .5 0 1.1.1 1.6.3-.5.1-1.1.2-1.6h-.3zm-4.7 0c.1.5.3 1 .6 1.4-.2-.5-.4-.9-.6-1.4zm19.5.1c.1.5.1 1.1.3 1.6.1-.3.1-.6.1-.9 0-.3 0-.7-.4-.7zm-1.8 0c0 .7.2 1.3.3 1.9.1-.2.1-.5.1-.7-.1-.4-.1-.9-.4-1.2zm1.2 1.8c.1-.6 0-1.2-.2-1.8-.1.7.1 1.2.2 1.8zm1.6-1.7c.1.5.1 1 .2 1.5.1-.5.1-1.1-.2-1.5zm-3.7.1c0 .6.1 1.2.2 1.8.1-.5.1-1 0-1.6 0 0 0-.1-.2-.2zm-1.8.2c.1.6.2 1.1.3 1.7.2-.5.1-1 0-1.5-.1-.2-.2-.2-.3-.2zm1.1 0c.1.5.1 1 .2 1.6.1-.5.1-1 0-1.5-.1-.1-.2-.1-.2-.1zm-10.4.3-.3 1.5c.3-.6.4-1.2.6-1.8l-.3.3zm.6 1.1c.3-.4.7-.8.9-1.2-.5.2-.6.7-.9 1.2zm3.1-.2c.5-.2.8-.6 1-1-.4.2-.8.5-1 1zm4.8-1.1c.1.5.1 1 .2 1.5.2-.4.1-.7.1-1.1-.1-.2-.1-.4-.3-.4zm-6.1 1.7c.2-.2.4-.5.6-.7.2-.2.4-.4.5-.7-.5.2-.9.7-1.1 1.4zm2.3.1.9-1.5c-.6.3-.7.9-.9 1.5zm-3.1.2c.2-.5.6-.9.7-1.5-.4.3-.6.9-.7 1.5zm4.3-1c-.2.5-.3 1-.3 1.5.3-.6.4-1.2.6-1.8-.1 0-.3.1-.3.3zm1.9-.5c0 .6.1 1.2.1 1.8.1-.6.2-1.3-.1-1.8zm-1.1.6c0 .5-.1 1 .1 1.5.1-.5.1-1 .1-1.5h-.2zm-11.4 0c.1.5.3 1 .5 1.4-.1-.4-.1-1-.5-1.4zm1.5 1.7c0-.6 0-1.1-.1-1.7-.1.6 0 1.1.1 1.7zm.8-1.3c0 .5 0 1 .2 1.4.1-.6.1-1.1 0-1.7-.2.1-.2.2-.2.3zm.9 1.5c.1-.5.2-1 .2-1.6-.2.5-.2 1.1-.2 1.6zm4.4.5c.1-.7.4-1.3.5-1.9-.5.5-.6 1.3-.5 1.9zm10.9-1.9c0 .7 0 1.4-.1 2.1.2-.5.3-1.1.3-1.7 0-.1-.1-.3-.2-.4zm.8 0c0 .7-.1 1.4 0 2 .2-.5.2-1.1.2-1.7 0-.1-.1-.2-.2-.3zm-13.8.5c-.2.5-.4 1-.4 1.6.3-.6.5-1.3.8-1.9-.2 0-.3.1-.4.3zm12.1-.5c-.1.7 0 1.3 0 2 .2-.2.2-.5.2-.8 0-.4.1-.8-.2-1.2zm2.5.1c0 .7 0 1.5-.1 2.2.2-.5.3-1 .3-1.5 0-.3 0-.5-.2-.7zm-7 0c-.1.6-.1 1.1 0 1.7.2-.5.3-1.2 0-1.7zm3.6.8c0 .4-.1.8 0 1.2.2-.6.3-1.3.2-1.9-.3.1-.2.5-.2.7zm-13 1.2c.2-.6.3-1.2.3-1.8-.3.5-.2 1.2-.3 1.8zm4.7 0c.2-.6.4-1.2.5-1.8-.5.5-.5 1.2-.5 1.8zm5.5-1.8v1.9c.3-.5.2-1 .2-1.5 0-.2-.1-.3-.2-.4zm1 .1c0 .6 0 1.1-.1 1.7h.2c.1-.6.2-1.1.2-1.7h-.3zm.8-.1v1.7c.3-.4.3-1 .2-1.5 0-.1-.1-.1-.2-.2zm-3.7.1c-.1.4 0 .8 0 1.2 0 .2 0 .4.2.6 0-.6.1-1.3-.2-1.8zm-5.5 2c.1-.3.2-.7.3-1.1.1-.2.3-.5.2-.7-.4.4-.6 1.1-.5 1.8zm3 0c.2-.5.2-1.1.3-1.7-.5.4-.4 1.1-.3 1.7zm-5-1.2c-.2.5-.2 1.1-.3 1.6.2-.6.4-1.2.4-1.8 0 .1-.1.2-.1.2zm1.2.6c-.1.5-.2 1.1-.2 1.6.2-.7.3-1.5.6-2.2-.2.1-.3.3-.4.6zm4.8-.5c-.1.5-.1 1 .1 1.5v-1.6c.1 0 0 .1-.1.1zm-10.3.1c.1.5.4 1 .5 1.5 0-.5-.2-1.1-.5-1.5zm1 .5c.1.6.1 1.3.4 1.8 0-.6-.1-1.2-.2-1.9 0 0-.1 0-.2.1zm10.1 0c-.1.5-.1 1 .1 1.4 0-.4.1-.8 0-1.2 0-.1-.1-.2-.1-.2zm-9 .3c0 .6 0 1.1.1 1.7v-1.9c0 .1 0 .2-.1.2zm4.7-.1c-.1.5-.2 1.1 0 1.6.1-.5.2-1.1.2-1.6 0 .1-.1 0-.2 0zm-3.8.5c-.1.6-.2 1.3 0 1.9.1-.6.1-1.3.2-1.9h-.2zm4.8 1.9c-.1-.7-.1-1.4-.1-2.1-.2.7-.2 1.5.1 2.1zm4.2-.3c.1-.6.3-1.2.1-1.8-.2.6-.1 1.2-.1 1.8zm.5-.3c.3-.4.4-1.1.2-1.5-.1.5-.1 1-.2 1.5zm.6.1c.1-.5.2-1 .1-1.5-.1.5-.1 1-.1 1.5zm2-.9c0 .4-.1.8-.2 1.1.4-.5.5-1.2.3-1.8-.1.2-.1.5-.1.7zm-1.1-.4c0 .6-.1 1.2-.2 1.8.4-.5.4-1.1.4-1.7-.1-.1-.2-.1-.2-.1zm2.4 0c-.1.6-.1 1.2-.4 1.8.4-.6.5-1.2.6-1.9-.1 0-.1.1-.2.1zm1.6 1.8c.3-.6.6-1.3.4-1.9-.2.6-.3 1.3-.4 1.9zm-.7-1.2c0 .4-.2.8-.2 1.3.4-.5.5-1.2.5-1.9-.3.1-.3.4-.3.6zm1.8-.5c-.1.6-.3 1.3-.3 1.9.4-.5.5-1.2.5-1.9h-.2zm-10.5 1.6c0-.5.1-1 .1-1.6-.4.5-.2 1.1-.1 1.6zM92 44c0 .4 0 .8.1 1.1.1-.5.1-1 .1-1.5-.2.1-.3.2-.2.4zm-4.9.2c-.1.5-.1 1.1 0 1.6.1-.7.1-1.3.2-2-.1.2-.2.3-.2.4zm5.9-.1c.1.4 0 1 .3 1.3 0-.4 0-.9-.1-1.3H93zm-6.7.6c.1.5.1 1 .2 1.4.1-.7 0-1.3 0-2-.3.1-.2.4-.2.6zm2.5 1.2v-1.7c-.4.5-.2 1.2 0 1.7zm-4.5-1.1c.1.6.3 1.2.7 1.7-.1-.4-.3-.8-.4-1.2-.1-.3-.1-.5-.3-.5zm3.3.6c0 .5 0 1 .1 1.4 0-.7.1-1.4.1-2.2-.2.3-.1.6-.2.8zm6.2-.4c0 .3.1.7.1 1 .2-.3.1-.7.1-1 0-.1-.1 0-.2 0zm-4.5 0c0 .6 0 1.2.2 1.7 0-.5 0-1.1-.1-1.6l-.1-.1zm5.7.6c.3-.1.2-.4.2-.6-.3.1-.2.4-.2.6zm-4.1-.2c.1.4.1.8.3 1.1 0-.4-.1-.8-.1-1.1h-.2zm.7 0c0 .3.1.7.3.9 0-.3 0-.6-.1-1 0 .1-.1.1-.2.1zm1.3.9c0-.3.1-.7-.1-1-.2.3-.1.7.1 1zm2.7-.8-.3 1.5c.3-.4.4-1 .4-1.5h-.1zm1.6 1.5c.3-.5.5-1 .5-1.5-.3.4-.3 1-.5 1.5zm1.3-1.5c-.2.5-.3 1.1-.4 1.7.4-.5.5-1.1.6-1.7h-.2zm-13.2 0c0 .2-.1.4 0 .6.1.5.3 1 .6 1.4-.2-.7-.4-1.4-.6-2zM96.1 47c.3-.4.5-1 .4-1.5-.2.5-.2 1-.4 1.5zm3.2-.8c-.1.4-.2.7-.4 1.1.4-.4.6-1 .7-1.6-.2 0-.2.3-.3.5zm1.1 0c-.2.4-.4.8-.6 1.1.2-.1.3-.2.4-.3.3-.4.6-.9.6-1.4-.3.1-.3.4-.4.6zm-10.1 1.1c0-.5-.1-1-.2-1.6-.2.5 0 1.1.2 1.6zm4.2.1c.4-.4.6-1 .5-1.6-.3.6-.4 1.1-.5 1.6zm-.5-1.3c0 .4-.1.9 0 1.3.2-.4.2-.9.2-1.3H94zm6.2 1.7c.5-.3.8-.8 1-1.2.1-.2.1-.4.2-.6-.5.6-.8 1.2-1.2 1.8zm-7.1-1.3v1.1c.3-.4.1-.9.2-1.4-.1.1-.2.2-.2.3zm-6.9 0c-.1.5.2 1 .5 1.4 0-.5-.2-1-.5-1.4zm5.9-.1c-.2.4-.1.9.2 1.3 0-.4-.1-.9-.2-1.3zm-3.9.6c0 .5.1 1 .3 1.4-.1-.6-.1-1.2-.2-1.8 0 .1-.1.2-.1.4zm-1.1.3c.1.4.3.8.5 1.2-.2-.6-.3-1.2-.4-1.7-.2 0-.1.3-.1.5zm1.8-.5c0 .5.3 1 .5 1.5 0-.5-.2-1-.3-1.6-.1 0-.2.1-.2.1zm2.3 0c-.1.4.2.8.4 1.1-.1-.4-.2-.7-.4-1.1zm-1.3.7c.1.2.2.5.4.7 0-.2-.1-.5-.2-.7 0-.1-.1 0-.2 0zm5 1.4c.4-.4.8-.9.7-1.5-.3.4-.5 1-.7 1.5zm.7.2c.3-.3.6-.7.8-1.1.1-.1 0-.3 0-.5-.3.5-.5 1-.8 1.6zm2.6-1.4c-.3.5-.7 1-.9 1.5.4-.4.8-.9 1.1-1.5h-.2zm-1 .1c-.3.4-.5.8-.7 1.3.4-.4.8-.8 1-1.4-.1 0-.2.1-.3.1zm1.8.2c-.2.4-.5.7-.7 1.1.5-.3.9-.8 1-1.3-.1 0-.2.1-.3.2zm-4.7-.2c-.2.4-.3.9-.5 1.3v.2c.3-.4.6-.8.6-1.2 0-.1 0-.2-.1-.3zm-1.1 1.6c.1-.5.4-1 .3-1.5-.3.5-.4 1-.3 1.5zm-.9-1.2c0 .4.1.9.2 1.3.1-.5 0-.9 0-1.4 0 .1-.2.1-.2.1zm-1.4.2c.2.5.4 1.1 1 1.2-.3-.4-.5-.8-.8-1.2 0-.1-.1 0-.2 0zm-.7.1c.1.6.6 1 1.1 1.3-.4-.4-.8-.9-1.1-1.3zm-1.1.1c0 .4.3.8.6 1.1-.1-.3-.3-.7-.4-1-.1 0-.1-.1-.2-.1zm.7.5c.1.2.3.4.5.6l-.3-.6h-.2zm4.2.9c.3-.2.6-.4.8-.8-.4 0-.6.5-.8.8zm.8 0c.3-.2.6-.4.7-.8-.4.2-.6.5-.7.8zm-2-.3c0 .2.1.4.2.5.1-.2.1-.4.1-.5-.1-.1-.2 0-.3 0z" style="fill:#223f4a"/><path class="st30" d="M100.2 51.6h.2c.1.2.1.3 0 .5-.8 1.3-1.9 2.3-3.1 3.2-.7.5-1.3.9-2 1.4-.9.7-2 1.2-3 1.7-1.1.5-2.1 1-3.2 1.3-.8.2-1.7.5-2.5.7-2 .3-4 .8-6 .9-1.5.2-2.9.1-4.4.1-1.2 0-2.3-.2-3.4-.4-1.2-.2-2.4-.5-3.5-.8-1.1-.4-2.2-.9-3.2-1.5-.6-.4-1.3-.6-1.9-1.1-.7-.6-1.6-1.1-2.2-1.8-.6-.5-1-1.2-1.5-1.8-.3-.3-.5-.7-.8-1.1-.1-.1-.1-.2-.1-.4.1 0 .3.1.4.1.1.6.7.9 1 1.4.6.8 1.2 1.6 2 2.2.5.4 1 .7 1.4 1.1.6.5 1.3.8 1.9 1.2 1 .5 1.9 1 2.9 1.4 1.9.5 3.8.9 5.7 1.2 1.9.2 3.9.1 5.8-.1.6-.1 1.2-.1 1.7-.1 1.4-.2 2.7-.6 4.1-.7.9-.1 1.7-.5 2.6-.7.8-.2 1.4-.5 2.1-.8 1-.4 1.9-.9 2.9-1.4.8-.4 1.5-.9 2.2-1.4.9-.6 1.9-1.3 2.6-2.1.5-.8 1-1.4 1.3-2.2zM62.4 70.1c.1 0 .3-.1.4-.1-.2.2-.5.3-.8.4-2 .9-4 1.9-5.8 3.1-1.2.7-2.3 1.5-3.3 2.5-.5.4-1 .9-1.5 1.3.7-.7 1.3-1.5 2-2.1 1.3-1.1 2.7-2 4.2-2.8 1.5-.9 3.1-1.6 4.8-2.3zm43.7.1c.7.9 1.3 1.8 2 2.6 1.4 1.8 2.8 3.6 3.9 5.6.5.9 1 1.8 1.3 2.8-.9-2.2-2.3-4.2-3.7-6.1-1.2-1.6-2.5-3.1-3.5-4.9z"/><path class="st31" d="M43.4 86.2c.1-.3.1-.6.4-.8-.7 2.7-1.4 5.5-2.4 8.1-.2.6-.6 1.2-.9 1.8-.6 1.1-1.3 2.1-2.1 3.1-.6.8-1.4 1.5-1.9 2.4-.5.8-1 1.6-1.5 2.3h-.3c.1-.6.4-1.2.8-1.8.2-.2.2-.5.2-.7h-1.4c-.5 0-1.1.2-1.6.1-.5 0-1-.2-1.5-.4s-1-.1-1.5 0c-.7.1-1.3.6-2 .6-1.8 0-3.5-.4-5.3-.7-2.1-.5-4.3-.8-6.4-1.4-1.1-.2-2.1-.5-3.2-.9-.3-.1-.6-.2-.7-.5.9.2 1.7.5 2.6.7 2.8.6 5.7 1.2 8.5 1.9 1.3.3 2.6.5 3.9.6.5 0 1.1 0 1.6-.3.8-.4 1.9-.6 2.8-.3.7.2 1.4.4 2.1.3.8-.1 1.5-.2 2.3-.1-.6-1.7-1.6-3.2-2.6-4.6-.4-.6-1.3-.8-1.6-1.5.7.4 1.4.7 1.9 1.3 1 1.3 1.8 2.6 2.4 4.1.1-1.9.2-3.9-.1-5.8-.1-1.1-.2-2.2-.5-3.3-.3-1.1-.6-2.3-1-3.4-.1-.2 0-.4 0-.6.6 1.2 1.1 2.5 1.4 3.9.4 1.5.5 3.1.7 4.7.1 1.4 0 2.8 0 4.2 0 .4-.1.8-.3 1.2.5-1 1.3-1.8 2-2.6 1-1.2 1.9-2.6 2.6-4 1.1-2.3 1.8-4.9 2.6-7.6z"/><path class="st32" d="M120.4 90.9c.6 1.3.8 2.8 1 4.2.2 1 .2 2.1.4 3.1.1.9 0 1.8.2 2.7.7-2.1 1.9-4 3-5.9.5-.9 1-1.8 1.6-2.6-1.2 2.8-2.9 5.3-4.1 8.1-.3.7-.5 1.4-.5 2.2 0 1.8-.3 3.5-.6 5.3 1-1.6 2.2-3.2 3.3-4.7 1.5-2 2.7-4.1 4.1-6.1.4-.6.8-1.3 1.3-1.8-.1.5-.4.9-.6 1.3-1.2 1.9-2.3 3.9-3.6 5.7-1.4 1.8-2.9 3.6-4.1 5.5-.3.5-.5 1-.6 1.6.4.1.8.3 1.2.2.6-.1 1.3-.4 1.9-.1.8.5 1.6 1 2.6 1.3 1.3.4 2.6.5 3.9.4 1.5 0 2.9-.3 4.4-.5 2.5-.4 4.9-1.1 7.2-2.2.3-.1.6-.3 1-.3-.5.5-1.2.7-1.8 1-2 1-4.1 1.4-6.3 1.7-2.6.3-5.3 1-8 .4-1.1-.2-2.1-.8-3-1.4-.5-.3-1.2 0-1.7.1-.4.1-.8-.1-1.2-.2l-.3 1.8c0 .5.1 1.1.1 1.6h-.2v-.3h-.1v-.3c0-1.2-.4-2.3-.8-3.4-.6-1.8-1.2-3.6-2-5.4-.6-1.6-1.4-3.2-2.2-4.7-.2-.5-.7-1-.6-1.7.1.2.1.3.2.5.5.8 1 1.7 1.4 2.5.5 1 1 2 1.4 3 .9 2 1.7 4.1 2.4 6.2.1.4.2.9.4 1.3.2-1 .1-2 .3-2.9.8-3.6.9-7.3.5-10.9-.1-1.6-.4-3.3-.7-4.9-.7-.4-.9-.9-.8-1.4z"/><path class="st30" d="M135.4 98.4c.2-.3.4-.5.7-.7-1 1.6-2.2 3-3.5 4.3-.9.9-1.7 1.9-2.5 2.9-.2.2-.3.4-.5.5.6-.6 1-1.4 1.6-2 1.3-1.8 2.9-3.3 4.2-5z"/><path class="st31" d="M33.9 107.5c0-.7 0-1.4.4-2 0 .6-.1 1.2-.1 1.8 0 .3-.1.6.1.9-.1 1 .3 1.9.9 2.7.9 1.1 2 2 3.2 2.7 1.4.8 3 1.2 4.5 1.5 1.4.3 2.7.6 4.1.7.5 0 .9-.1 1.4-.1-.2.3-.6.3-1 .4-1.1.1-2.2-.1-3.3-.3-1.9-.3-3.8-.6-5.5-1.5-1.1-.6-2.2-1.3-3.1-2.3-.6-.6-1-1.3-1.3-2.1-.4-.8-.3-1.6-.3-2.4z"/><path class="st32" d="M97.1 107.6c1-.2 2-.4 3-.7v.2c-2.1.6-4.3 1-6.5 1.5-5.1 1.1-10.2 2.4-15.1 4-1.4.5-2.8.9-4.2 1.3-.7.2-1.3.6-1.9.8.1-.2.2-.4.4-.5.9-.6 1.9-.9 2.9-1.2 2.2-.7 4.3-1.4 6.5-2.1 2.3-.7 4.6-1.3 7-1.8 2.6-.5 5.2-1 7.9-1.5zm5.5 5.3c1.1-.5 2.2-1 3.2-1.7-.5.6-1.2.9-1.9 1.3-1.3.7-2.6 1.3-4 1.7-1.9.6-3.8 1.3-5.7 1.8-2.3.6-4.6 1-7 1.2l-3 .3c-.4 0-.8.1-1.2 0 2.1-.4 4.3-.5 6.4-.9 2.5-.5 5-1 7.5-1.8 1.9-.6 3.9-1.1 5.7-1.9z"/><path d="M117 121.5c.1-.1.1-.3.2-.4-.1 1.2-.7 2.2-1.1 3.2-1 2.2-1.6 4.6-1.3 7-.3-.3-.3-.8-.3-1.2-.1-2 .3-4.1 1.2-5.9.4-.8.9-1.7 1.3-2.7z" style="fill:#206f80"/><path d="M38 123.8c.3-.5.5-1 1-1.4.1.3-.3.6-.4.9-1.9 3.8-3 7.8-4.2 11.9-.5 1.9-1.1 3.8-1.4 5.8-.2-.3-.1-.6 0-.9.4-2.2 1-4.3 1.6-6.4.9-3.4 1.8-6.8 3.4-9.9z" style="fill:#216f81"/><path class="st31" d="M48.8 129c.3-1 .6-2.1 1.2-3-.8 2.3-1.3 4.6-1.8 7-.6 2.5-2.8 13.4-3.4 16.3-.6 2.5-1.1 4.9-1.9 7.4l-2.1 6c-.3.7-.5 1.6-1.1 2.2.5-1 .9-2 1.2-3.1.8-2.4 1.6-4.8 2.2-7.3.5-2.1.9-4.2 1.4-6.3.6-2.6 1-5.3 1.6-7.9.8-3.7 1.7-7.5 2.7-11.3z"/><path class="st30" d="M103 140c.5.8.9 1.7 1.1 2.6.5 1.6.5 3.4.5 5v5.2c0 1.1.1 2.2-.1 3.4-.1-.6 0-1.2-.1-1.8-.2-2.7-.2-5.4-.3-8.1 0-1.6-.2-3.2-.7-4.7 0-.6-.3-1-.4-1.6zm-43 5.3c.2-.4.2-.8.5-1.2-.3 1.8-1.1 3.4-2.1 4.8-1.5 2.3-3.1 4.6-4.4 7-.3.5-.5 1-.9 1.4.9-1.8 1.9-3.5 3-5.2.8-1.3 1.6-2.5 2.5-3.8.5-.9 1-1.9 1.4-3z"/><path class="st32" d="M114.2 149.9c0-.3-.1-.7.1-1 .6 2.3.2 4.6-.1 6.9-.4 3-1.1 5.9-1.5 8.9-.2.9-.2 1.8-.3 2.7-.1-.4-.1-.8-.1-1.2.2-2.7.7-5.4 1.2-8 .3-1.6.5-3.1.7-4.7 0-1.3.2-2.5 0-3.6z"/><path class="st31" d="M91.4 163.3c1.8-.3 3.7-.4 5.5-.4 1 0 2 .1 3 .1v.3c-1 .1-2 0-2.9 0-2.6.1-5.2.4-7.8.9-1 .2-2 .5-3 1-.3.1-.6.4-.9.4.1-.5.6-.7 1-.9 1.6-.7 3.4-1.1 5.1-1.4z"/><path class="st35" d="M34.7 163.9c.3.2.4.5.6.8.3.6.6 1.2.9 1.9.1.2.1.4.1.6-.6-1.1-1.3-2.2-1.6-3.3zm-.8.7c.4 0 .5.3.7.6.5.6.8 1.2 1.2 1.8-.4-.3-.7-.6-1-1-.3-.5-.7-.9-.9-1.4z"/><path d="M124.2 166.6c.1-.3.1-.6.4-.8.6.1 1.3.3 1.9.4 1.5.5 3.1.7 4.6 1 1 .2 2 .3 3 .5.4-.4.7-.9 1.2-1.1.7-.3 1.4-.1 2.1 0 .4.1 1 0 1.3.5.1.1 0 .3 0 .5v-.2c-.8-.3-1.7-.5-2.6-.4-.3 0-.5.3-.6.6-.4 1-.5 2.1-.7 3.2 0 .3 0 .8.4.9.8.4 1.7.3 2.6.2 0 .3-.3.6-.6.6-.9.1-1.8.1-2.6-.2-.5-.2-.8-.8-1.2-1.1-.7-.2-1.4-.1-2.2-.2-2.4-.3-4.7-1-6.9-1.8-.3-.1-.6-.3-.6-.7.2-.6.3-1.3.5-1.9z" style="fill:#f9f8dc"/><path d="M135.5 167.5c.1-.3.3-.6.6-.6.9-.1 1.8 0 2.6.4v.2c-.3 1.5-.4 3-.8 4.5-.8 0-1.8.1-2.6-.2-.4-.1-.4-.6-.4-.9.1-1.3.3-2.4.6-3.4z" style="fill:#143f4e"/><path class="st38" d="M46.2 170.5c.1-.3.1-.7.3-.9.3-.1.2.3.2.5-.2 1-.5 2-.7 3-.4 1.9-.8 3.7-1 5.6h-.2c0-1.1.2-2.1.4-3.1.2-1.7.6-3.5 1-5.1zm48 5.8c0-.6-.2-1.1-.1-1.7.3-.1.4.2.4.5.2 1.4.2 2.9.3 4.3v6.3h-.3c0-3.1 0-6.3-.3-9.4z"/><path class="st35" d="M124.8 177.9c.1-.3.2-.7.5-.9-.2.8-.5 1.5-1 2.1.2-.5.4-.9.5-1.2zm.4.3c.2-.3.3-.6.7-.7-.2.7-.6 1.2-1.1 1.7-.1-.4.2-.7.4-1z"/><path class="st39" d="M103.5 181.6c.1-.3.1-.7.5-.7.1.5-.2 1-.3 1.5-.7 2.1-1.4 4.2-2 6.3-.3 1-.6 2.1-.7 3.1h-.2c.2-2 .8-3.9 1.4-5.9.4-1.5.8-2.9 1.3-4.3z"/><path class="st35" d="M132 183h.2c-.2.8-.6 1.6-1 2.4-.7 1.3-1.6 2.3-2.5 3.4-.5.5-1 1.2-1.7 1.4 1.3-1.1 2.4-2.5 3.3-3.9.7-1 1.2-2.1 1.7-3.3z"/><path class="st10" d="M128.2 184.8c.3-.6.4-1.2.7-1.8v.9c.2-.3.5-.6.8-.8-.1.4-.4.7-.7 1-.3.3-.4.7-.6 1.1-.9 1.6-1.9 3.1-3.1 4.4-.1.2-.3.3-.5.4.4-.6.9-1.1 1.3-1.7.8-1.1 1.5-2.3 2.1-3.5z"/><path class="st35" d="M131.1 187.4c1.1-1.4 1.5-3.2 2.8-4.4-.4.7-.8 1.3-1.2 2-.4.9-.9 1.7-1.6 2.4z"/><path class="st38" d="M69 195.2c.1-.7.2-1.5.5-2.2.1.1.1.3.1.5-.3 1.5-.3 3-.4 4.5 0 1.4-.3 2.8-.4 4.2-.2 2.1-.9 4.2-1.3 6.3-.1.6-.2 1.3-.3 1.9 0 .2-.1.2-.3.3 0-1.4.2-2.7.4-4.1.2-1.2.5-2.4.8-3.6.2-1.2.4-2.3.5-3.5.3-1.5.2-2.9.4-4.3zm41.9 12.3c.4-1.3.5-2.7 1.1-4-.1 1.1-.4 2.1-.5 3.2-.3 1.7-1 3.3-1.8 4.9l-3.3 6c-1 1.9-2 3.8-2.9 5.8-.2.5-.4 1-.8 1.3 0-.4.2-.7.4-1 1.6-3.6 3.3-7.2 5.2-10.7 1-1.8 2-3.6 2.6-5.5zm-87.7-.7h.2c.4 1.3.8 2.6 1 3.9.4 1.9.8 3.8 1.3 5.6 1 3.5 3.1 6.6 5 9.7.5.8 1.1 1.6 1.6 2.4.1.1.2.3.2.5-.5-.5-.9-1.1-1.3-1.6-1.3-1.8-2.5-3.7-3.7-5.5-.9-1.5-1.7-3-2.2-4.6-.6-2-1.1-4-1.5-6.1 0-1.5-.3-2.9-.6-4.3zm41.7 6.3c.3-.5.4-1 .7-1.4-.1.8-.5 1.5-.8 2.2-.9 1.9-2.3 3.4-3.6 5-1.4 1.7-2.7 3.4-4 5.2-.8 1.1-1.5 2.3-2.3 3.4-.1.2-.2.1-.4.1 2.1-3.7 4.5-7.1 7.1-10.4 1.4-1.2 2.5-2.6 3.3-4.1zm-28.4 5.6c-.1-.3-.2-.7 0-1 .6 1.8 1.4 3.6 2.2 5.4.8 2 1.6 3.9 2.3 6 .4 1.3.9 2.7 1.1 4.1.1.4.2.8 0 1.1-.2-.5-.3-1-.4-1.5-.5-1.8-1.1-3.5-1.7-5.2-.8-2.1-1.7-4.1-2.6-6.2-.3-1-.6-1.9-.9-2.7z"/><path d="M68.2 225.7c-.1-.5-.3-.9-.2-1.4.5 1.8 1.1 3.6 2 5.3.8 1.6 1.7 3.1 2.7 4.6 1.2 1.7 2.3 3.4 3.6 5-.3-.1-.5-.3-.7-.6-1-1.2-1.9-2.5-2.8-3.7-.9-1.3-1.8-2.5-2.5-3.9-.8-1.7-1.6-3.4-2.1-5.3z" style="fill:#ac413e"/><path class="st39" d="M102 230.7c.1-.1.2-.2.4-.2-.3.9-.9 1.5-1.5 2.2-2.9 3.3-5.8 6.7-8.6 10.1H92c2.2-2.9 4.6-5.7 7-8.5 1-1.2 2.1-2.3 3-3.6z"/><path class="st38" d="M59.9 232.1c.1-.2.2-.6.5-.6-.1 1-.6 1.9-1.1 2.8-1.8 2.9-3.7 5.7-5.2 8.7-.3.6-.5 1.2-.9 1.7-.1-.4.2-.7.3-1 .7-1.7 1.5-3.2 2.4-4.8.9-1.5 1.7-3 2.6-4.5.6-.8 1.1-1.5 1.4-2.3zm-35.5.8c.1 2.2.8 4.4 1.9 6.4 1.6 2.7 4 4.8 6.1 7.1.2.3.6.6.5 1-.4-.3-.6-.7-.9-1-.9-.9-1.9-1.8-2.8-2.8-1.1-1.2-2.3-2.4-3.1-3.8-1-1.8-1.7-3.9-1.8-5.9 0-.3.1-.7.1-1z"/><path class="st39" d="M104 237.1c.2-.3.4-.7.7-.9-.1.7-.5 1.2-.9 1.8-1.8 2.4-4.1 4.4-6.2 6.5-1 1-2 2-3 3.1-.2.2-.3.4-.6.3 2.2-2.7 4.7-5 7.1-7.5 1-1.1 2-2.1 2.9-3.3z"/><path class="st38" d="M34.2 239.3c.5 0 .7.5.9.8.9 1.5 1.7 3 2.4 4.5.6 1.4 1.3 2.9 1.4 4.5h-.3c-.2-1.5-.8-2.8-1.5-4.2-.6-1.2-1.2-2.4-1.9-3.6-.3-.5-.5-1-.8-1.5 0-.1-.1-.3-.2-.5z"/><path class="st39" d="M75 244.1h.3c.4.5.9.9 1.3 1.4 1.3 1.4 2.4 3.1 3.4 4.7.7 1.3 1.3 2.6 1.7 4.1h-.2c-.4-1.5-1.1-2.9-1.9-4.2-.9-1.5-2-3-3.2-4.3-.6-.6-1.1-1.1-1.4-1.7z"/><path class="st38" d="M100.6 252.2c0 .1.1.2.1.2-.5 1.2-1.4 2.3-2.3 3.3-1 1.1-2.1 2.1-3.2 3.1-1.6 1.4-3.1 2.9-4.7 4.3-.2.2-.4.5-.8.5.8-1 1.8-1.8 2.7-2.7 1.2-1.2 2.4-2.3 3.7-3.5 1.1-1.1 2.2-2.2 3.2-3.4.4-.6.8-1.2 1.3-1.8z"/><path class="st39" d="M90.3 255.6c.5-.5.8-1.2 1.4-1.6 0 .4-.3.6-.5.9-1.8 2.4-3.5 4.8-5.3 7.2-.2.2-.3.6-.7.5 1.8-2.4 3.4-4.7 5.1-7zm-14.8 3.1c.7.4 1 1.1 1.5 1.7.8 1.4 1.6 2.7 2.3 4.2H79c-.9-1.6-1.8-3.2-2.8-4.8-.3-.4-.8-.7-.7-1.1z"/><path class="st41" d="M40.4 266v-.1.1c.2 1.2.1 2.4.1 3.6 0 1.5.1 3 0 4.5v.1-.1c-.1-1.1-.1-2.1-.1-3.2 0-.9-.1-1.8 0-2.7 0-.7-.1-1.4 0-2.2zm11.7 4.3c.2-1.3.3-2.7.4-4 .1.9 0 1.7-.1 2.6-.1 1.2-.3 2.4-.5 3.7-.1.5-.1 1.1-.4 1.6.3-1.4.4-2.7.6-3.9z"/><path class="st38" d="M55.1 264.4c-.2 0-.4 0-.5.1-.6.3-1.1.7-1.8.8-1 .2-1.9.5-2.9.6-.8.1-1.5 0-2.3.1-1.2.1-2.5.1-3.7 0-1.6-.1-3.1-.5-4.7-.7-1.1-.1-2.1-.3-3.1-.4-.9-.1-1.9-.2-2.8-.5-.2-.1-.5-.2-.8-.1-.1.2 0 .3.2.4.3.2.7.2 1 .3.2 3 1.9 5.6 3 8.4-.2 0-.4 0-.6.1.4.5 1.2.4 1.8.7l.1-.1c.2 0 .4.1.6.1.7.2 1.5 0 2.2.3 1.4.2 2.9.4 4.3.4 1.3 0 2.5 0 3.8-.1 1.3-.1 2.7 0 3.9-.4.3-.2.7-.2.8-.6-.5.1-1 .2-1.4.3.7-1.8 1.2-3.6 1.3-5.5 0-.9.2-1.8.1-2.8-.2.4-.2.8-.2 1.2-.3 2.4-.4 4.9-1.3 7.1-.8.3-1.6.4-2.4.4-1.2.1-2.5.1-3.7.1.2-1.3.3-2.6.4-3.9.1-1.4.2-2.7.2-4.1 1.2 0 2.4 0 3.6-.1 0 2.6-.3 5.2-.6 7.8.3-.9.3-1.9.4-2.8.2-1.7.4-3.3.3-5 .3 0 .7-.1 1-.2 1-.3 2-.4 2.9-1 .5-.2 1-.4.9-.9zm-18.3 9.2c-.5-1.5-1.2-3-1.7-4.6-.5-1.3-.8-2.6-1.1-3.9l1.8.3c-.1 1.1.2 2.3.3 3.4.3 1.7.9 3.4 1.5 5-.2-.1-.5-.2-.8-.2zm.9.1c-.7-1.8-1.1-3.6-1.4-5.5-.2-.9-.2-1.9-.4-2.8.5.1 1 .2 1.5.2.1 1.9.3 3.8.7 5.7.1.7.3 1.4.6 2.1h.1c-.2-.4-.3-.9-.4-1.4-.3-1.9-.6-3.8-.8-5.7v-.7c.5.1 1 .1 1.5.2 0 1.9 0 3.8.2 5.7.1.8.1 1.7.2 2.5-.7 0-1.2-.1-1.8-.3zm1.7.4c0-.9 0-1.8-.1-2.6 0-.9-.1-1.8-.1-2.6V266c.4 0 .8.1 1.2.1-.1.7 0 1.5-.1 2.2-.1.9 0 1.8 0 2.7 0 1.1 0 2.1.1 3.2-.3 0-.6-.1-1-.1zm1.1.1c.1-1.5 0-3 0-4.5 0-1.2.1-2.4 0-3.6 1.1.1 2.2.4 3.3.4-.2 2.1-.4 4.3-.7 6.4-.1.5-.2 1-.2 1.4.2-.4.3-1 .4-1.5.3-1.6.5-3.2.6-4.8v-1.5c.5 0 .9 0 1.4.1-.2 1.7-.4 3.4-.7 5.2-.1.9-.3 1.9-.4 2.8-1.2-.1-2.5-.3-3.7-.4zm5.6.3h-1.8c.3-1.7.6-3.5.9-5.2.1-.9.3-1.9.3-2.8h1.2c-.1 2.7-.3 5.4-.6 8z"/><path class="st41" d="M48.6 266.9c.2.4.1.9.1 1.4-.1 2.1-.2 4.1-.5 6.2 0-1 .2-2.1.2-3.1 0-1.6 0-3.1.2-4.5zm23.4 5.8c-.1-.6-.2-1.1-.1-1.7.2 1.8.5 3.7 1 5.4.2.9.5 1.9.7 2.8-.4-1.4-.8-2.7-1.1-4.1-.2-.7-.4-1.5-.5-2.4z"/><path d="M72.9 271.3c.6 2.8.8 5.6 1.7 8.3.1.1.1.3.2.4-.1 0-.1-.1-.2-.1-.5-.9-.7-2-1-3-.3-1.4-.5-2.8-.7-4.2 0-.4-.1-.9 0-1.4z" style="fill:#b55552"/><path d="M75.9 277.6c-.4-1.7-.7-3.6-.4-5.3.2 1.3.2 2.7.4 4 .2 1.4.5 2.8.7 4.2-.3-1-.5-2-.7-2.9z" style="fill:#b55451"/><path class="st41" d="M76.5 272.4c.1 0 .3.1.4.1-.1 0-.2-.1-.3-.1.2 1.3.2 2.6.4 3.9.2 1.7.5 3.3.8 4.9-.3-.4-.3-1-.5-1.5-.5-2.3-.7-4.8-.8-7.3z"/><path d="m79 273 .1.1c.2 1.8.2 3.6.3 5.4.1 1.1.1 2.3.3 3.4-.2 0-.3-.1-.5-.1.1 0 .3 0 .4.1-.4-2.9-.6-5.9-.6-8.9z" style="fill:#b65755"/><path class="st41" d="M85.7 274.3h.1c-.2 2.7-.5 5.3-.9 8 .1-1.5.4-2.9.5-4.3.2-1.2.2-2.4.3-3.7z"/><path class="st38" d="M93.9 273.6c-.7 0-1.3.3-1.9.3-.8.1-1.6 0-2.3-.1-1.5-.1-3.1-.1-4.6-.4-1.4-.2-2.9-.3-4.3-.6-1.7-.4-3.4-.6-5-1.2-1.5-.3-3-1-4.4-1.6-.3-.2-.4.3-.2.4.9.6 2 .9 3 1.3.1.6.1 1.2.2 1.8.1 1.7.4 3.4.8 5 .2.7.3 1.5.6 2.1 0-.2-.1-.5-.2-.7-.7-2.7-1-5.5-1.3-8.3.8.2 1.5.4 2.3.7.1 0 .3.1.4.1l.9.3c.1 3.1.5 6.1 1.1 9.1-.9-.2-1.8-.2-2.6-.5-.6-.2-1.2-.4-1.8-.7-.4-.2-.9-.3-1.3-.2.1.1.2.3.4.3.8.3 1.5.7 2.4 1 1.7.6 3.5.8 5.4 1l1.8.3c0 .1 0 .2.1.3v-.3c2.3.3 4.7.3 7 .1.6-.1 1.3-.2 1.6-.8-.4 0-.8.1-1.1.1.4-.7.8-1.5 1.1-2.3.8-1.9 1.6-3.8 2-5.9.6-.1 1.3-.2 1.6-.8-.7 0-1.2.2-1.7.2zm-14.7 8.3s-.1 0-.2-.1c-.1-.3-.2-.6-.2-1-.3-1.7-.5-3.3-.7-5-.1-.7 0-1.3-.1-2v-1c.4.1.7.2 1.1.2 0 3 .1 6 .6 8.9h-.5zm.5.1c-.2-1.1-.2-2.3-.3-3.4-.1-1.8-.1-3.6-.3-5.4.5.1 1 .2 1.6.3 0 .2 0 .3.1.5-.1.4 0 .9 0 1.3.1 2.3 0 4.6.1 6.9-.5-.1-.9-.2-1.2-.2zm1.2.1v-5.3c0-1.1.1-2.2-.1-3.3.5.1.9.2 1.4.2.1 2.9-.1 5.8-.1 8.6-.4-.1-.8-.2-1.2-.2zm1.3.3c0-2.9.2-5.8.1-8.7.5.1 1.1.1 1.6.2 0 1.9-.2 3.7-.3 5.5-.1 1-.3 2-.3 3.1-.4 0-.8-.1-1.1-.1zm1.2.1c.2-1.6.5-3.2.6-4.8.1-1.3.3-2.6.2-3.8 1.1.2 2.3.3 3.4.4 0 1-.2 2-.3 3-.2 1.7-.4 3.5-.8 5.2-1.1 0-2.1.1-3.1 0zm3.1.1c.3-1.2.5-2.4.7-3.5.2-1.6.5-3.1.6-4.7.6 0 1.1 0 1.7.1-.3 2.8-.7 5.6-1.5 8.2-.5-.1-1-.1-1.5-.1zm4.3-.7c-.1.2-.2.5-.5.6-.8.1-1.6.2-2.3.1.5-1.5.8-2.9 1.1-4.4.2-1.3.5-2.5.6-3.8.7.1 1.4.1 2 .1-.4 1.6-.7 3.2-1.2 4.8-.3.9-.7 1.8-.9 2.7 1-2.4 1.8-4.9 2.3-7.5.5 0 1.1-.1 1.6-.2-.8 2.6-1.5 5.2-2.7 7.6z"/><path class="st26" d="M40.2 291.6c2.4-.5 4.8-.1 7.1.6.9.3 1.7.7 2.4 1.3.2.1.2.4.1.6-.2.1-.4-.1-.6-.2-.7-.6-1.5-.9-2.3-1.2-2.1-.6-4.4-1-6.6-.6-.6.1-1.2.3-1.8.2.4-.5 1.1-.6 1.7-.7zm-.3 2.1c2.4-.5 4.8-.1 7.1.6.9.3 1.7.7 2.4 1.3.2.1.2.4.1.6-.2.1-.4-.1-.6-.2-.7-.6-1.5-.9-2.3-1.2-2.1-.6-4.4-1-6.6-.6-.6.1-1.2.3-1.8.2.4-.6 1.1-.6 1.7-.7zm-.4 2.4c2.4-.5 4.8-.1 7.1.6.9.3 1.7.7 2.4 1.3.2.1.2.4.1.6-.2.1-.4-.1-.6-.2-.7-.6-1.5-.9-2.3-1.2-2.1-.6-4.4-1-6.6-.6-.6.1-1.2.3-1.8.2.4-.5 1.1-.5 1.7-.7zm-.2 2.4c2.4-.5 4.8-.1 7.1.6.9.3 1.7.7 2.4 1.3.2.1.2.4.1.6-.2.1-.4-.1-.6-.2-.7-.6-1.5-.9-2.3-1.2-2.1-.6-4.4-1-6.6-.6-.6.1-1.2.3-1.8.2.4-.5 1.1-.6 1.7-.7zm-1 2.3c1.1-.3 2.3-.2 3.5-.1 2.2.1 4.4.7 6.3 1.9.2.1.4.3.4.5-.1.1-.2.3-.4.3-.4-.1-.7-.4-1.1-.5-.8-.4-1.7-.8-2.6-1-1.2-.3-2.5-.4-3.7-.6-.8-.1-1.7 0-2.5-.1.1-.1.1-.3.1-.4z"/><path class="st9" d="M73.4 305.3c.3.1.5.4.7.6.8.8 1.6 1.5 2.4 2.2.9.6 1.9 1.2 3 1.4.2.1.6 0 .6.3-.9 0-1.8-.3-2.6-.7-.9-.4-1.7-1.1-2.5-1.8-.6-.6-1.3-1.2-1.6-2z"/><path class="st14" d="M34.7 305.7c.1 0 .2 0 .2-.1.1.4.1.8.3 1.2.3.8.3 1.6.8 2.3.5.7.9 1.6 1.7 2 .6.3 1.2.7 1.8.9.6-.7 1.5-1.2 2.5-1.3.7 0 1.4.2 2.1.4.5.2.9.6 1.1 1.2 1.4-.3 2.6-1.1 3.6-2.1.9-.8 1.5-1.9 2.1-3h.2c-.2.9-.7 1.7-1.3 2.4-.3.4-.6.7-.9 1-.4.5-1 .9-1.5 1.3-.6.5-1.3.6-2 .8-1.8.4-3.6.5-5.4 0-.6-.2-1.3-.4-1.9-.8-.5-.3-1.2-.6-1.5-1.2-.6-.8-1.3-1.6-1.4-2.7-.2-.8-.6-1.5-.5-2.3z"/><path class="st45" d="M34.7 308.7c.3.1.4.4.5.7l.9 1.5c.3.5.5 1 1 1.4.6.5 1.3.9 2 1.3.8.4 1.7.6 2.6.7 1 .1 2 .1 3-.1.9-.1 1.7-.4 2.5-.9.6-.3 1-.9 1.5-1.3.6-.5 1-1.3 1.6-1.9 0 .5-.3.9-.5 1.3s-.6.8-.9 1.1c-.4.4-.7.8-1.2 1.1-1.9 1.2-4.3 1.6-6.5 1.2-1-.2-2.1-.5-2.9-1.1-.8-.5-1.7-1-2.2-1.9-.5-1-1.3-1.9-1.4-3.1z"/><path class="st26" d="M90.2 308.9c.6 0 1.2-.1 1.8.1.2.1.5.2.6.5-.1.1-.1.2-.2.3-1-.4-2.1-.2-3.1 0-1.5.3-3 1-4.2 2-.3.2-.7.7-1.2.5.1-.6.6-1 1-1.3.6-.5 1.3-.9 2-1.2 1-.4 2.1-.8 3.3-.9zm-1.7-2.3c.6-.1 1.3-.3 1.9-.2.3 0 .5.2.7.4 0 .1-.1.2-.1.4-1.1-.3-2.2.1-3.2.5-1.6.6-3 1.5-4.1 2.8-.3.3-.6.8-1.1.7 0-.6.5-1.1.8-1.5.5-.6 1.2-1.1 1.9-1.6.9-.6 2-1.2 3.2-1.5zm-1.2-1.8c.7-.2 1.3-.4 2-.2.3.1.6.2.7.5 0 .1-.1.3-.2.4-1.2-.4-2.3.1-3.4.5-1.6.6-3.2 1.7-4.3 3.2-.3.3-.6 1-1.2.8 0-.7.5-1.3.9-1.8.6-.7 1.3-1.3 2-1.8 1.1-.7 2.2-1.4 3.5-1.6zm1.8 6.2c1.1-.4 2.3-.7 3.4-.6.3 0 .7.1.8.4.1.2 0 .3-.1.5-.6-.5-1.4-.4-2.1-.3-1.4.3-2.8.7-4 1.6-.4.2-.7.6-1.1.8-.1.1-.4 0-.4-.2.1-.3.4-.5.6-.7 1-.6 1.9-1.2 2.9-1.5z"/><path class="st9" d="M72.5 311.6c.3 0 .6.3.8.5.5.4 1.1.9 1.7 1.1 1.3.4 2.6.6 3.9 1 .7.2 1.5.4 2.1.8 1.9 1 3.4 2.6 5.3 3.8.9.6 1.8 1.3 2.9 1.6 1 .3 2 .4 3 .6 1.2.1 2.4.1 3.6-.3 0-.5.1-1 .4-1.4.5-.7 1.1-1.5 1.9-1.8.2-.1.3 0 .4.2.2.2.4.4.5.7.1.2.1.5.1.8-.8.8-1.8 1.4-2.9 1.8-1.6.7-3.3.7-5 .4-.9-.2-1.9-.3-2.7-.7-2.2-1.1-4.2-2.7-6.2-4.2-.7-.5-1.4-.9-2.1-1.3-.8-.3-1.6-.6-2.4-.8-1-.3-2.1-.5-3.1-.8-.6-.2-1-.6-1.5-.9-.3-.5-.6-.7-.7-1.1z"/><path class="st26" d="M88.8 313.3c1.1-.7 2.4-1.2 3.7-1.3.5 0 1.2-.1 1.6.3.1.1.3.4.1.5-.5-.1-1-.3-1.6-.2-1.8.2-3.4 1-4.9 2-.2.1-.4.1-.5.1.3-.6 1-1 1.6-1.4z"/><path d="M44.5 312.4c.3-.2 0 .3 0 0z" style="fill:#4a6169"/><path class="st45" d="M73 314.2c.4-.3.7.2 1.1.4.6.3 1.3.5 2 .8 1.2.4 2.6.3 3.8.8 1.7.7 3 2.1 4.6 3.1 1.2.8 2.5 1.3 3.8 1.8 2.3.8 4.8 1.1 7.1.4 1-.2 1.9-.6 2.7-1.2.2-.2.4-.3.7-.4-.1.4-.5.5-.8.7-1.7 1.1-3.8 1.6-5.9 1.6-1.4-.1-2.7-.4-4-.8-1.8-.6-3.5-1.4-5.1-2.5-1-.6-1.9-1.4-3-2-.9-.5-1.9-.6-2.9-.7-1-.1-2-.5-3-.9-.4-.3-.8-.7-1.1-1.1z"/><path d="M97.2 319.5c.1.1.1.1 0 0z" style="fill:#596f77"/></svg>