<svg id="Layer_1" data-name="Layer 1" xmlns="http://www.w3.org/2000/svg" viewBox="0 0 512 512"><defs><clipPath id="clip-path"><path class="cls-1" d="M580.54 0h512v512h-512z"/></clipPath><clipPath id="clip-path-4"><path class="cls-1" d="M0 0h512v512H0z"/></clipPath><clipPath id="clip-path-7"><path class="cls-1" d="M580.54-585.07h512v512h-512z"/></clipPath><clipPath id="clip-path-10"><path class="cls-1" d="M0-585.07h512v512H0z"/></clipPath><clipPath id="clip-path-13"><path class="cls-1" d="M580.54-1170.14h512v512h-512z"/></clipPath><clipPath id="clip-path-14"><path class="cls-1" d="M0-1170.14h512v512H0z"/></clipPath><style>.cls-1{fill:none}.cls-2{clip-path:url(#clip-path)}.cls-3{fill:#ffeaae}.cls-12,.cls-3,.cls-6,.cls-9{opacity:.5;isolation:isolate}.cls-5{clip-path:url(#clip-path-4)}.cls-6{fill:#af92f7}.cls-8{clip-path:url(#clip-path-7)}.cls-9{fill:#70c4e5}.cls-11{clip-path:url(#clip-path-10)}.cls-12{fill:#6bceb4}</style></defs><g class="cls-2"><path class="cls-3" d="M505.14 630.8S594.74 414.9 800 388.1s184.1-186 184.1-186-35.56-266.2 347.9-216S1500.24 705 1500.24 705l-636.6 141.2Z"/></g><g class="cls-2"><path class="cls-3" d="M787.74 1431.5s-414-277.4-389.1-415.9-62-346.9 310.1-605.6S1171 515.7 1171 515.7s-239.4 828.6-264.8 816.7-118.46 99.1-118.46 99.1Z"/></g><path d="M391.14 683.3s222-252.8 416.9-280.4 447.2-67.8 438-259.6 282.6 625.6 282.6 625.6-848.2 140.7-854.2 140.9-283.3-226.5-283.3-226.5Z" style="fill:#f5c62c" class="cls-2"/><g class="cls-5"><path class="cls-6" d="M-75.4 630.8s89.6-215.9 294.9-242.7 184.1-186 184.1-186S368-64.1 751.5-13.9 919.7 705 919.7 705L283.1 846.2Z"/></g><g class="cls-5"><path class="cls-6" d="M207.2 1431.5s-414-277.4-389.1-415.9-62-346.9 310.1-605.6 462.3 105.7 462.3 105.7-239.4 828.6-264.8 816.7-118.5 99.1-118.5 99.1Z"/></g><path d="M-189.4 683.3s222-252.8 416.9-280.4 447.2-67.8 438-259.6 282.6 625.6 282.6 625.6S99.9 909.6 93.9 909.8s-283.3-226.5-283.3-226.5Z" style="fill:#4a00e0" class="cls-5"/><g class="cls-8"><path class="cls-9" d="M505.14 45.73S594.74-170.17 800-197s184.1-186 184.1-186-35.6-266.2 347.9-216 168.2 718.9 168.2 718.9L863.6 261.1Z"/></g><g class="cls-8"><path class="cls-9" d="M787.74 846.43s-414-277.4-389.1-415.9-62-346.9 310.1-605.6S1171-69.37 1171-69.37s-239.4 828.6-264.8 816.7-118.46 99.1-118.46 99.1Z"/></g><path d="M391.14 98.23s222-252.8 416.9-280.4 447.2-67.8 438-259.6 282.6 625.6 282.6 625.6-848.2 140.7-854.2 140.9-283.3-226.5-283.3-226.5Z" style="fill:#039be5" class="cls-8"/><g class="cls-11"><path class="cls-12" d="M-75.4 45.73S14.2-170.17 219.5-197s184.1-186 184.1-186S368-649.17 751.5-599s168.2 718.9 168.2 718.9L283.1 261.13Z"/></g><g class="cls-11"><path class="cls-12" d="M207.2 846.43s-414-277.4-389.1-415.9-62-346.9 310.1-605.6 462.3 105.7 462.3 105.7-239.4 828.6-264.8 816.7-118.5 99.1-118.5 99.1Z"/></g><path d="M-189.4 98.23s222-252.8 416.9-280.4 447.2-67.8 438-259.6 282.6 625.6 282.6 625.6-848.2 140.7-854.2 140.9-283.3-226.5-283.3-226.5Z" style="fill:#00b289" class="cls-11"/><g style="clip-path:url(#clip-path-13)"><path d="M787.74 261.36s-414-277.4-389.1-415.9-62-346.9 310.1-605.6S1171-654.44 1171-654.44s-239.4 828.6-264.8 816.7-118.46 99.1-118.46 99.1Z" style="fill:#a5a5db;opacity:.5;isolation:isolate"/></g><g style="clip-path:url(#clip-path-14)"><path d="M207.2 261.36S-206.8-16-181.9-154.54s-62-346.9 310.1-605.6 462.3 105.7 462.3 105.7-239.4 828.6-264.8 816.7-118.5 99.1-118.5 99.1Z" style="fill:#b1b1f2;opacity:.5;isolation:isolate"/></g></svg>