<svg id="Layer_1" data-name="Layer 1" xmlns="http://www.w3.org/2000/svg" viewBox="0 0 512 512"><defs><clipPath id="clip-path"><path class="cls-1" d="M0 0h512v512H0z"/></clipPath><clipPath id="clip-path-4"><path class="cls-1" d="M-598.68 0h512v512h-512z"/></clipPath><clipPath id="clip-path-6"><path class="cls-1" d="M0-585.07h512v512H0z"/></clipPath><clipPath id="clip-path-9"><path class="cls-1" d="M-598.68-585.07h512v512h-512z"/></clipPath><style>.cls-1{fill:none}.cls-2{clip-path:url(#clip-path)}.cls-3{fill:#97cbff}.cls-3,.cls-9{opacity:.5;isolation:isolate}.cls-5{clip-path:url(#clip-path-4)}.cls-8{clip-path:url(#clip-path-6)}.cls-9{fill:#8aeddc}.cls-11{clip-path:url(#clip-path-9)}</style></defs><g class="cls-2"><path class="cls-3" d="M-75.4 630.8s89.6-215.9 294.9-242.7 184.1-186 184.1-186S368-64.1 751.5-13.9 919.7 705 919.7 705L283.1 846.2Z"/></g><g class="cls-2"><path class="cls-3" d="M207.2 1431.5s-414-277.4-389.1-415.9-62-346.9 310.1-605.6 462.3 105.7 462.3 105.7-239.4 828.6-264.8 816.7-118.5 99.1-118.5 99.1Z"/></g><path d="M-189.4 683.3s222-252.8 416.9-280.4 447.2-67.8 438-259.6 282.6 625.6 282.6 625.6S99.9 909.6 93.9 909.8s-283.3-226.5-283.3-226.5Z" style="fill:#0f7cff" class="cls-2"/><path d="M-674.08 630.8s89.6-215.9 294.9-242.7 184.1-186 184.1-186-35.6-266.2 347.9-216S321 705 321 705l-636.6 141.2Z" style="fill:#70c4e5;opacity:.5;isolation:isolate" class="cls-5"/><path d="M-788.08 683.3s222-252.8 416.9-280.4S76 335.1 66.82 143.3s282.6 625.6 282.6 625.6-848.2 140.7-854.2 140.9-283.3-226.5-283.3-226.5Z" style="fill:#039be5" class="cls-5"/><g class="cls-8"><path class="cls-9" d="M-75.4 45.73S14.2-170.17 219.5-197s184.1-186 184.1-186S368-649.17 751.5-599s168.2 718.9 168.2 718.9L283.1 261.13Z"/></g><g class="cls-8"><path class="cls-9" d="M207.2 846.43s-414-277.4-389.1-415.9-62-346.9 310.1-605.6 462.3 105.7 462.3 105.7-239.4 828.6-264.8 816.7-118.5 99.1-118.5 99.1Z"/></g><path d="M-189.4 98.23s222-252.8 416.9-280.4 447.2-67.8 438-259.6 282.6 625.6 282.6 625.6-848.2 140.7-854.2 140.9-283.3-226.5-283.3-226.5Z" style="fill:#00d1b2" class="cls-8"/><path d="M-674.08 45.73s89.6-215.9 294.9-242.7 184.1-186 184.1-186-35.6-266.2 347.9-216S321 119.93 321 119.93l-636.6 141.2Z" style="fill:#a5a5db;opacity:.5;isolation:isolate" class="cls-11"/><path d="M-788.08 98.23s222-252.8 416.9-280.4S76-250 66.82-441.77s282.6 625.6 282.6 625.6-848.2 140.7-854.2 140.9-283.3-226.5-283.3-226.5Z" style="fill:#837fcb" class="cls-11"/></svg>