<svg id="Layer_1" data-name="Layer 1" xmlns="http://www.w3.org/2000/svg" viewBox="0 0 512 512"><defs><clipPath id="clip-path"><path class="cls-1" d="M580.54-589.61h512v512h-512z"/></clipPath><clipPath id="clip-path-4"><path class="cls-1" d="M0 0h512v512H0z"/></clipPath><clipPath id="clip-path-7"><path class="cls-1" d="M0-589.61h512v512H0z"/></clipPath><clipPath id="clip-path-10"><path class="cls-1" d="M580.54-1174.68h512v512h-512z"/></clipPath><clipPath id="clip-path-11"><path class="cls-1" d="M0-1174.68h512v512H0z"/></clipPath><style>.cls-1{fill:none}.cls-2{clip-path:url(#clip-path)}.cls-3{fill:#ffeaae}.cls-3,.cls-6,.cls-9{opacity:.5;isolation:isolate}.cls-5{clip-path:url(#clip-path-4)}.cls-6{fill:#ffc0c0}.cls-8{clip-path:url(#clip-path-7)}.cls-9{fill:#af92f7}</style></defs><g class="cls-2"><path class="cls-3" d="M505.14 41.19s89.6-215.9 294.9-242.7 184.1-186 184.1-186-35.6-266.2 347.9-216 168.2 718.9 168.2 718.9l-636.6 141.2Z"/></g><g class="cls-2"><path class="cls-3" d="M787.74 841.89s-414-277.4-389.1-415.9-62-346.9 310.1-605.6S1171-73.91 1171-73.91s-239.4 828.6-264.8 816.7-118.46 99.1-118.46 99.1Z"/></g><path d="M391.14 93.69s222-252.8 416.9-280.4 447.2-67.8 438-259.6 282.6 625.6 282.6 625.6-848.2 140.71-854.2 140.9-283.3-226.5-283.3-226.5Z" style="fill:#f5c62c" class="cls-2"/><g class="cls-5"><path class="cls-6" d="M-75.4 630.8s89.6-215.9 294.9-242.7 184.1-186 184.1-186S368-64.1 751.5-13.9 919.7 705 919.7 705L283.1 846.2Z"/></g><g class="cls-5"><path class="cls-6" d="M207.2 1431.5s-414-277.4-389.1-415.9-62-346.9 310.1-605.6 462.3 105.7 462.3 105.7-239.4 828.6-264.8 816.7-118.5 99.1-118.5 99.1Z"/></g><path d="M-189.4 683.3s222-252.8 416.9-280.4 447.2-67.8 438-259.6 282.6 625.6 282.6 625.6S99.9 909.6 93.9 909.8s-283.3-226.5-283.3-226.5Z" style="fill:#f55" class="cls-5"/><g class="cls-8"><path class="cls-9" d="M-75.4 41.19s89.6-215.9 294.9-242.7 184.1-186 184.1-186-35.6-266.2 347.9-216 168.2 718.9 168.2 718.9l-636.6 141.2Z"/></g><g class="cls-8"><path class="cls-9" d="M207.2 841.89s-414-277.4-389.1-415.9-62-346.9 310.1-605.6 462.3 105.7 462.3 105.7-239.4 828.6-264.8 816.7-118.5 99.1-118.5 99.1Z"/></g><path d="M-189.4 93.69s222-252.8 416.9-280.4 447.2-67.8 438-259.6 282.6 625.6 282.6 625.6S99.9 320 93.9 320.19s-283.3-226.5-283.3-226.5Z" style="fill:#4a00e0" class="cls-8"/><g style="clip-path:url(#clip-path-10)"><path d="M787.74 256.82s-414-277.4-389.1-415.9-62-346.9 310.1-605.6S1171-659 1171-659 931.6 169.6 906.2 157.7s-118.46 99.12-118.46 99.12Z" style="fill:#70c4e5;opacity:.5;isolation:isolate"/></g><g style="clip-path:url(#clip-path-11)"><path d="M207.2 256.82s-414-277.4-389.1-415.9-62-346.9 310.1-605.6S590.5-659 590.5-659 351.1 169.6 325.7 157.7s-118.5 99.12-118.5 99.12Z" style="fill:#6bceb4;opacity:.5;isolation:isolate"/></g></svg>