<svg id="Layer_1" data-name="Layer 1" xmlns="http://www.w3.org/2000/svg" viewBox="0 0 512 512"><defs><clipPath id="clip-path"><path class="cls-1" d="M598.68 0h512v512h-512z"/></clipPath><clipPath id="clip-path-3"><path class="cls-1" d="M0 0h512v512H0z"/></clipPath><clipPath id="clip-path-6"><path class="cls-1" d="M-580.54 0h512v512h-512z"/></clipPath><clipPath id="clip-path-9"><path class="cls-1" d="M598.68-585.07h512v512h-512z"/></clipPath><clipPath id="clip-path-11"><path class="cls-1" d="M0-585.07h512v512H0z"/></clipPath><clipPath id="clip-path-14"><path class="cls-1" d="M-580.54-585.07h512v512h-512z"/></clipPath><clipPath id="clip-path-17"><path class="cls-1" d="M598.68-1170.14h512v512h-512z"/></clipPath><clipPath id="clip-path-18"><path class="cls-1" d="M0-1170.14h512v512H0z"/></clipPath><clipPath id="clip-path-19"><path class="cls-1" d="M-580.54-1170.14h512v512h-512z"/></clipPath><style>.cls-1{fill:none}.cls-2{clip-path:url(#clip-path)}.cls-15,.cls-18,.cls-6,.cls-9{opacity:.5;isolation:isolate}.cls-5{clip-path:url(#clip-path-3)}.cls-6{fill:#ffeaae}.cls-8{clip-path:url(#clip-path-6)}.cls-9{fill:#af92f7}.cls-11{clip-path:url(#clip-path-9)}.cls-14{clip-path:url(#clip-path-11)}.cls-15{fill:#70c4e5}.cls-17{clip-path:url(#clip-path-14)}.cls-18{fill:#6bceb4}</style></defs><path d="M805.88 1431.5s-414-277.4-389.1-415.9-62-346.9 310.1-605.6 462.3 105.7 462.3 105.7-239.4 828.6-264.8 816.7-118.5 99.1-118.5 99.1Z" style="opacity:.5;isolation:isolate;fill:#ff9e88" class="cls-2"/><path d="M409.28 683.3s222-252.8 416.9-280.4 447.2-67.8 438-259.6 282.6 625.6 282.6 625.6-848.2 140.7-854.2 140.9-283.3-226.5-283.3-226.5Z" style="fill:#f83600" class="cls-2"/><g class="cls-5"><path class="cls-6" d="M-75.4 630.8s89.6-215.9 294.9-242.7 184.1-186 184.1-186S368-64.1 751.5-13.9 919.7 705 919.7 705L283.1 846.2Z"/></g><g class="cls-5"><path class="cls-6" d="M207.2 1431.5s-414-277.4-389.1-415.9-62-346.9 310.1-605.6 462.3 105.7 462.3 105.7-239.4 828.6-264.8 816.7-118.5 99.1-118.5 99.1Z"/></g><path d="M-189.4 683.3s222-252.8 416.9-280.4 447.2-67.8 438-259.6 282.6 625.6 282.6 625.6S99.9 909.6 93.9 909.8s-283.3-226.5-283.3-226.5Z" style="fill:#f5c62c" class="cls-5"/><g class="cls-8"><path class="cls-9" d="M-655.94 630.8s89.6-215.9 294.9-242.7 184.1-186 184.1-186-35.6-266.2 347.94-216S339.16 705 339.16 705l-636.6 141.2Z"/></g><g class="cls-8"><path class="cls-9" d="M-373.34 1431.5s-414-277.4-389.1-415.9-62-346.9 310.1-605.6S10 515.7 10 515.7s-239.4 828.6-264.8 816.7-118.54 99.1-118.54 99.1Z"/></g><path d="M-769.94 683.3s222-252.8 416.9-280.4S94.16 335.1 85 143.3s282.6 625.6 282.6 625.6-848.2 140.7-854.2 140.9-283.34-226.5-283.34-226.5Z" style="fill:#4a00e0" class="cls-8"/><path d="M805.88 846.43s-414-277.4-389.1-415.9-62-346.9 310.1-605.6 462.3 105.7 462.3 105.7-239.4 828.6-264.8 816.7-118.5 99.1-118.5 99.1Z" style="fill:#97cbff;opacity:.5;isolation:isolate" class="cls-11"/><path d="M409.28 98.23s222-252.8 416.9-280.4 447.2-67.8 438-259.6 282.6 625.6 282.6 625.6-848.2 140.7-854.2 140.9-283.3-226.5-283.3-226.5Z" style="fill:#0f7cff" class="cls-11"/><g class="cls-14"><path class="cls-15" d="M-75.4 45.73S14.2-170.17 219.5-197s184.1-186 184.1-186S368-649.17 751.5-599s168.2 718.9 168.2 718.9L283.1 261.13Z"/></g><g class="cls-14"><path class="cls-15" d="M207.2 846.43s-414-277.4-389.1-415.9-62-346.9 310.1-605.6 462.3 105.7 462.3 105.7-239.4 828.6-264.8 816.7-118.5 99.1-118.5 99.1Z"/></g><path d="M-189.4 98.23s222-252.8 416.9-280.4 447.2-67.8 438-259.6 282.6 625.6 282.6 625.6-848.2 140.7-854.2 140.9-283.3-226.5-283.3-226.5Z" style="fill:#039be5" class="cls-14"/><g class="cls-17"><path class="cls-18" d="M-655.94 45.73S-566.34-170.17-361-197s184.1-186 184.1-186-35.6-266.2 347.9-216 168.2 718.9 168.2 718.9l-636.6 141.2Z"/></g><g class="cls-17"><path class="cls-18" d="M-373.34 846.43s-414-277.4-389.1-415.9-62-346.9 310.1-605.6S10-69.37 10-69.37s-239.4 828.6-264.8 816.7-118.54 99.1-118.54 99.1Z"/></g><path d="M-769.94 98.23s222-252.8 416.9-280.4S94.16-250 85-441.77s282.6 625.6 282.6 625.6-848.2 140.7-854.2 140.9-283.34-226.5-283.34-226.5Z" style="fill:#00b289" class="cls-17"/><g style="clip-path:url(#clip-path-17)"><path d="M805.88 261.36s-414-277.4-389.1-415.9-62-346.9 310.1-605.6 462.3 105.7 462.3 105.7-239.4 828.6-264.8 816.7-118.5 99.1-118.5 99.1Z" style="fill:#8aeddc;opacity:.5;isolation:isolate"/></g><g style="clip-path:url(#clip-path-18)"><path d="M207.2 261.36S-206.8-16-181.9-154.54s-62-346.9 310.1-605.6 462.3 105.7 462.3 105.7-239.4 828.6-264.8 816.7-118.5 99.1-118.5 99.1Z" style="fill:#a5a5db;opacity:.5;isolation:isolate"/></g><g style="clip-path:url(#clip-path-19)"><path d="M-373.34 261.36s-414-277.4-389.1-415.9-62-346.9 310.1-605.6S10-654.44 10-654.44s-239.4 828.6-264.8 816.7-118.54 99.1-118.54 99.1Z" style="fill:#b1b1f2;opacity:.5;isolation:isolate"/></g></svg>