<svg id="Layer_1" data-name="Layer 1" xmlns="http://www.w3.org/2000/svg" viewBox="0 0 512 512"><defs><clipPath id="clip-path"><path class="cls-1" d="M580.54 0h512v512h-512z"/></clipPath><clipPath id="clip-path-4"><path class="cls-1" d="M0 0h512v512H0z"/></clipPath><style>.cls-1{fill:none}.cls-2{clip-path:url(#clip-path)}.cls-3{fill:#a5a5db}.cls-3,.cls-6{opacity:.5;isolation:isolate}.cls-5{clip-path:url(#clip-path-4)}.cls-6{fill:#b1b1f2}</style></defs><g class="cls-2"><path class="cls-3" d="M505.14 630.8S594.74 414.9 800 388.1s184.1-186 184.1-186-35.56-266.2 347.9-216S1500.24 705 1500.24 705l-636.6 141.2Z"/></g><g class="cls-2"><path class="cls-3" d="M787.74 1431.5s-414-277.4-389.1-415.9-62-346.9 310.1-605.6S1171 515.7 1171 515.7s-239.4 828.6-264.8 816.7-118.46 99.1-118.46 99.1Z"/></g><path d="M391.14 683.3s222-252.8 416.9-280.4 447.2-67.8 438-259.6 282.6 625.6 282.6 625.6-848.2 140.7-854.2 140.9-283.3-226.5-283.3-226.5Z" style="fill:#837fcb" class="cls-2"/><g class="cls-5"><path class="cls-6" d="M-75.4 630.8s89.6-215.9 294.9-242.7 184.1-186 184.1-186S368-64.1 751.5-13.9 919.7 705 919.7 705L283.1 846.2Z"/></g><g class="cls-5"><path class="cls-6" d="M207.2 1431.5s-414-277.4-389.1-415.9-62-346.9 310.1-605.6 462.3 105.7 462.3 105.7-239.4 828.6-264.8 816.7-118.5 99.1-118.5 99.1Z"/></g><path d="M-189.4 683.3s222-252.8 416.9-280.4 447.2-67.8 438-259.6 282.6 625.6 282.6 625.6S99.9 909.6 93.9 909.8s-283.3-226.5-283.3-226.5Z" style="fill:#8c8cf9" class="cls-5"/></svg>