<svg version="1.1" id="Calque_1" xmlns="http://www.w3.org/2000/svg" x="0" y="0" viewBox="-124 126 200 200" style="enable-background:new -124 126 200 200" xml:space="preserve"><style>.st0,.st1{fill:none;stroke:#7700f4;stroke-miterlimit:10}.st0{stroke-width:3;stroke-linecap:round;stroke-linejoin:round}.st1{stroke-width:2}.st1,.st2{stroke-linecap:round;stroke-linejoin:round}.st2,.st3{fill:none;stroke:#c0d7f1;stroke-miterlimit:10}.st4{fill:#c0d7f1}.st6{fill:#7700f4}.st7{fill:#fff}</style><g id="XMLID_13_"><path id="XMLID_8_" class="st0" d="M-65.9 151.4v5.8"/><path id="XMLID_2_" class="st0" d="M-63 154.3h-5.9"/></g><g id="XMLID_17_"><path id="XMLID_27_" class="st1" d="M46.9 135v4.9"/><path id="XMLID_26_" class="st1" d="M49.3 137.5h-4.9"/></g><g id="XMLID_28_"><path id="XMLID_30_" class="st2" d="M19.3 137.9v2.6"/><path id="XMLID_29_" class="st2" d="M20.6 139.2H18"/></g><path id="XMLID_14_" class="st3" d="M51.1 177.6c-.1 0-.2.1-.2.1h-.6c-.7-.2-1.1-.9-.9-1.6.2-.7.9-1.1 1.6-.9.7.2 1.1.9.9 1.6"/><path id="XMLID_16_" class="st3" d="M-26.5 132.2c-.1 0-.2.1-.2.1h-.4c-.6-.2-.9-.7-.7-1.3.2-.6.7-.9 1.3-.7.6.2.9.7.7 1.3"/><path class="st4" d="M-97.8 146.5c-1 0-1.9-.8-1.9-1.9v-8.3c0-1 .8-1.9 1.9-1.9 1 0 1.9.8 1.9 1.9v8.3c0 1.1-.8 1.9-1.9 1.9z"/><path class="st4" d="M-93.6 142.4h-8.3c-1 0-1.9-.8-1.9-1.9s.8-1.9 1.9-1.9h8.3c1 0 1.9.8 1.9 1.9s-.9 1.9-1.9 1.9z"/><path d="M81.9 220.6v-554.8" style="fill:none"/><path class="st6" d="M-24 298.1c-31.3 0-56.7-25.4-56.7-56.7s25.4-56.7 56.7-56.7c31.3 0 56.7 25.4 56.7 56.7S7.2 298.1-24 298.1zm0-110.6c-29.8 0-54 24.2-54 54s24.2 54 54 54 54-24.2 54-54-24.2-54-54-54z"/><path class="st6" d="M-58.3 229c-.7 0-1.3-.6-1.3-1.3v-29.6c0-.7.6-1.3 1.3-1.3.7 0 1.3.6 1.3 1.3v29.6c0 .7-.6 1.3-1.3 1.3zm49.9-13.7c-.7 0-1.3-.6-1.3-1.3v-25.5c0-.7.6-1.3 1.3-1.3s1.3.6 1.3 1.3V214c.1.7-.5 1.3-1.3 1.3zm25 26.9h-25c-.7 0-1.3-.6-1.3-1.3s.6-1.3 1.3-1.3h23.7v-35.8c0-.7.6-1.3 1.3-1.3.7 0 1.3.6 1.3 1.3v37.1c.1.7-.5 1.3-1.3 1.3z"/><path class="st7" d="M-50.7 227.7c0 4.2-3.4 7.6-7.6 7.6-4.2 0-7.6-3.4-7.6-7.6s3.4-7.6 7.6-7.6 7.6 3.4 7.6 7.6z"/><path class="st6" d="M-58.3 236.6c-4.9 0-8.9-4-8.9-8.9s4-8.9 8.9-8.9 8.9 4 8.9 8.9-4 8.9-8.9 8.9zm0-15.2c-3.5 0-6.3 2.8-6.3 6.3s2.8 6.3 6.3 6.3 6.3-2.8 6.3-6.3-2.9-6.3-6.3-6.3zm25 76c-.7 0-1.3-.6-1.3-1.3V186.9c0-.7.6-1.3 1.3-1.3s1.3.6 1.3 1.3V296c0 .8-.6 1.4-1.3 1.4z"/><path class="st7" d="M-25.7 214c0 4.2-3.4 7.6-7.6 7.6-4.2 0-7.6-3.4-7.6-7.6s3.4-7.6 7.6-7.6 7.6 3.4 7.6 7.6z"/><path class="st6" d="M-33.3 222.9c-4.9 0-8.9-4-8.9-8.9s4-8.9 8.9-8.9 8.9 4 8.9 8.9-4 8.9-8.9 8.9zm0-15.2c-3.5 0-6.3 2.8-6.3 6.3s2.8 6.3 6.3 6.3 6.3-2.8 6.3-6.3c-.1-3.5-2.9-6.3-6.3-6.3z"/><path class="st7" d="M-.7 214c0 4.2-3.4 7.6-7.6 7.6-4.2 0-7.6-3.4-7.6-7.6s3.4-7.6 7.6-7.6 7.6 3.4 7.6 7.6z"/><path class="st6" d="M-8.4 222.9c-4.9 0-8.9-4-8.9-8.9s4-8.9 8.9-8.9 8.9 4 8.9 8.9c.1 4.9-3.9 8.9-8.9 8.9zm0-15.2c-3.5 0-6.3 2.8-6.3 6.3s2.8 6.3 6.3 6.3 6.3-2.8 6.3-6.3-2.8-6.3-6.3-6.3zm0 88.3c-.7 0-1.3-.6-1.3-1.3V269c0-.7.6-1.3 1.3-1.3s1.4.5 1.4 1.3v25.7c0 .7-.6 1.3-1.4 1.3z"/><path class="st7" d="M-16 269c0-4.2 3.4-7.6 7.6-7.6 4.2 0 7.6 3.4 7.6 7.6 0 4.2-3.4 7.6-7.6 7.6s-7.6-3.4-7.6-7.6z"/><path class="st6" d="M-8.4 277.9c-4.9 0-8.9-4-8.9-8.9s4-8.9 8.9-8.9 8.9 4 8.9 8.9c.1 4.9-3.9 8.9-8.9 8.9zm0-15.2c-3.5 0-6.3 2.8-6.3 6.3s2.8 6.3 6.3 6.3 6.3-2.8 6.3-6.3-2.8-6.3-6.3-6.3z"/><path class="st7" d="M-.7 240.9c0 4.2-3.4 7.6-7.6 7.6-4.2 0-7.6-3.4-7.6-7.6s3.4-7.6 7.6-7.6c4.2 0 7.6 3.4 7.6 7.6z"/><path class="st6" d="M-8.4 249.9c-4.9 0-8.9-4-8.9-8.9s4-8.9 8.9-8.9 8.9 4 8.9 8.9c.1 4.9-3.9 8.9-8.9 8.9zm0-15.3c-3.5 0-6.3 2.8-6.3 6.3s2.8 6.3 6.3 6.3 6.3-2.8 6.3-6.3-2.8-6.3-6.3-6.3zm-49.9 51.6c-.7 0-1.3-.6-1.3-1.3v-28.7c0-.7.6-1.3 1.3-1.3.7 0 1.3.6 1.3 1.3v28.7c0 .7-.6 1.3-1.3 1.3z"/><path class="st7" d="M-65.9 256.1c0-4.2 3.4-7.6 7.6-7.6s7.6 3.4 7.6 7.6c0 4.2-3.4 7.6-7.6 7.6-4.2 0-7.6-3.4-7.6-7.6z"/><path class="st6" d="M-58.3 265.1c-4.9 0-8.9-4-8.9-8.9s4-8.9 8.9-8.9 8.9 4 8.9 8.9-4 8.9-8.9 8.9zm0-15.2c-3.5 0-6.3 2.8-6.3 6.3s2.8 6.3 6.3 6.3 6.3-2.8 6.3-6.3c-.1-3.5-2.9-6.3-6.3-6.3zm74.9 30.4c-.7 0-1.3-.6-1.3-1.3v-22.9c0-.7.6-1.3 1.3-1.3.7 0 1.3.6 1.3 1.3V279c.1.7-.5 1.3-1.3 1.3z"/><path class="st7" d="M9 256.1c0-4.2 3.4-7.6 7.6-7.6 4.2 0 7.6 3.4 7.6 7.6 0 4.2-3.4 7.6-7.6 7.6S9 260.3 9 256.1z"/><path class="st6" d="M16.6 265.1c-4.9 0-8.9-4-8.9-8.9s4-8.9 8.9-8.9 8.9 4 8.9 8.9c.1 4.9-3.9 8.9-8.9 8.9zm0-15.2c-3.5 0-6.3 2.8-6.3 6.3s2.8 6.3 6.3 6.3 6.3-2.8 6.3-6.3-2.8-6.3-6.3-6.3z"/></svg>