<svg version="1.1" id="Layer_1" xmlns="http://www.w3.org/2000/svg" x="0" y="0" viewBox="0 0 129.1 109.5" style="enable-background:new 0 0 129.1 109.5" xml:space="preserve"><style>.st0{stroke-width:2}.st0,.st2,.st3{fill:none;stroke:#3b3b59;stroke-linecap:round;stroke-linejoin:round;stroke-miterlimit:10}.st3{stroke:#837fcb;stroke-width:2}</style><g id="XMLID_29_"><g id="XMLID_30_"><path id="XMLID_31_" class="st0" d="M29.4 95.3c0 2.6-2.1 4.7-4.7 4.7S20 97.9 20 95.3s2.1-4.7 4.7-4.7 4.7 2.1 4.7 4.7z"/><path id="XMLID_32_" d="M56 95.3c0 2.6-2.1 4.7-4.7 4.7s-4.7-2.1-4.7-4.7 2.1-4.7 4.7-4.7 4.7 2.1 4.7 4.7z" style="fill:none;stroke:#837fcb;stroke-width:3;stroke-linecap:round;stroke-linejoin:round;stroke-miterlimit:10"/><path id="XMLID_33_" class="st0" d="M82.6 95.3c0 2.6-2.1 4.7-4.7 4.7s-4.7-2.1-4.7-4.7 2.1-4.7 4.7-4.7 4.7 2.1 4.7 4.7z"/><path id="XMLID_34_" class="st2" d="M109.2 95.3c0 2.6-2.1 4.7-4.7 4.7s-4.7-2.1-4.7-4.7 2.1-4.7 4.7-4.7c2.5 0 4.7 2.1 4.7 4.7z"/></g><g id="XMLID_35_"><path id="XMLID_38_" class="st0" d="M29.4 68.3c0 2.6-2.1 4.7-4.7 4.7S20 70.9 20 68.3s2.1-4.7 4.7-4.7 4.7 2.1 4.7 4.7z"/><path id="XMLID_37_" class="st2" d="M56 68.3c0 2.6-2.1 4.7-4.7 4.7s-4.7-2.1-4.7-4.7 2.1-4.7 4.7-4.7 4.7 2.1 4.7 4.7z"/><path id="XMLID_36_" class="st0" d="M82.6 68.3c0 2.6-2.1 4.7-4.7 4.7s-4.7-2.1-4.7-4.7 2.1-4.7 4.7-4.7c2.6-.1 4.7 2.1 4.7 4.7z"/><circle id="XMLID_39_" class="st3" cx="104.4" cy="68.3" r="4.7"/></g><g id="XMLID_40_"><path id="XMLID_43_" class="st3" d="M29.4 41.2c0 2.6-2.1 4.7-4.7 4.7S20 43.8 20 41.2s2.1-4.7 4.7-4.7 4.7 2.1 4.7 4.7z"/><path id="XMLID_42_" class="st0" d="M56 41.2c0 2.6-2.1 4.7-4.7 4.7s-4.7-2.1-4.7-4.7 2.1-4.7 4.7-4.7 4.7 2.1 4.7 4.7z"/><path id="XMLID_41_" class="st0" d="M82.6 41.2c0 2.6-2.1 4.7-4.7 4.7s-4.7-2.1-4.7-4.7 2.1-4.7 4.7-4.7 4.7 2.1 4.7 4.7z"/><path id="XMLID_44_" class="st0" d="M109.2 41.2c0 2.6-2.1 4.7-4.7 4.7s-4.7-2.1-4.7-4.7 2.1-4.7 4.7-4.7c2.5 0 4.7 2.1 4.7 4.7z"/></g><g id="XMLID_45_"><path id="XMLID_48_" class="st0" d="M29.4 14.2c0 2.6-2.1 4.7-4.7 4.7S20 16.8 20 14.2s2.1-4.7 4.7-4.7 4.7 2.1 4.7 4.7z"/><path id="XMLID_47_" class="st0" d="M56 14.2c0 2.6-2.1 4.7-4.7 4.7s-4.7-2.1-4.7-4.7 2.1-4.7 4.7-4.7 4.7 2.1 4.7 4.7z"/><path id="XMLID_46_" class="st3" d="M82.6 14.2c0 2.6-2.1 4.7-4.7 4.7s-4.7-2.1-4.7-4.7 2.1-4.7 4.7-4.7c2.6-.1 4.7 2.1 4.7 4.7z"/><path id="XMLID_49_" class="st0" d="M109.2 14.2c0 2.6-2.1 4.7-4.7 4.7s-4.7-2.1-4.7-4.7 2.1-4.7 4.7-4.7c2.5-.1 4.7 2.1 4.7 4.7z"/></g></g></svg>