<svg xmlns="http://www.w3.org/2000/svg" viewBox="320 -55 1920 1186.8" style="enable-background:new 320 -55 1920 1186.8" xml:space="preserve"><path d="M2075.5 23.3c-67 29.5-120.4 65.5-120.4 65.5-65.5 34-100.5 149-100.5 149-17 71-78.5 156-78.5 156s-99 140-346 168c-189.9 21.5-234.4 124-244.8 170.2-5.2 22.3-16.9 36.8-21.1 41.3-28.7 30.2-53.1 41.6-59.4 44.2-61.6 24.1-145 38.6-204.7 88.3-95.3 79.3-288 83.3-288 83.3-209.3 1.4-292.1 142.7-292.1 142.7h1920V-54.7c-74-4.5-97.5 48.5-164.5 78z" style="fill:#0f7cff"/></svg>