<svg id="wavy-2-core" xmlns="http://www.w3.org/2000/svg" viewBox="0 0 587.33 359.42"><defs><clipPath id="clip-path"><path class="cls-1" d="M0 767.41V408h587.33v359.41"/></clipPath><clipPath id="clip-path-2"><path class="cls-1" d="M0 359.42V0h587.33v359.42"/></clipPath><style>.cls-1{fill:none}.cls-1,.cls-6{opacity:.09}.cls-7{opacity:.23}.cls-6,.cls-7{fill:#00d1b2}</style></defs><g style="clip-path:url(#clip-path)"><path d="M234.24 343.09c-32.44 24.86-58 58.24-71.06 97-28.94 85.81 13.34 198.27 104.72 224.72 85.37 24.7 183.24-27.51 198.68-117.53 8.45-49.27 14.91-96.8 65.56-119.93 10.33-4.72 21.36-7.9 31.35-13.31 54.73-29.62-29.64-72.5-54-85.24-55.31-28.92-120.29-41.22-181.87-28.54a231.27 231.27 0 0 0-93.38 42.83Z" style="fill:#0f7cff;opacity:.09"/><path d="M295.35 319.88c-31.57 17.11-58.36 42.55-75 74.34-36.94 70.52-15.74 173.92 59.91 209.46 70.67 33.2 162.79 1.37 188.58-74.62 14.12-41.59 26.28-81.94 73.41-95 9.62-2.67 19.63-3.92 29-7.23 51.57-18.16-15.74-67-35.13-81.41-44-32.71-98.71-52.34-153.89-49.82a203.18 203.18 0 0 0-86.88 24.28Z" style="opacity:.23;fill:#0f7cff"/></g><g style="clip-path:url(#clip-path-2)"><circle class="cls-6" cx="567.6" cy="205.63" r="68.46"/><path class="cls-6" d="M234.24-64.91C201.8-40 176.23-6.67 163.18 32c-28.94 85.9 13.34 198.36 104.72 224.81 85.37 24.7 183.24-27.51 198.68-117.53C475 90 481.49 42.48 532.14 19.35c10.33-4.72 21.36-7.9 31.35-13.31 54.73-29.62-29.64-72.5-54-85.24-55.31-28.92-120.29-41.22-181.87-28.54a231.27 231.27 0 0 0-93.38 42.83Z"/><circle class="cls-6" cx="113" cy="83.02" r="17.57" transform="rotate(-80.64 113.01 83.016)"/><circle class="cls-6" cx="217.62" cy="286.01" r="34.25"/><path class="cls-6" d="M135.72 108.67a4 4 0 1 1-4-4 4 4 0 0 1 4 4Z"/><circle class="cls-7" cx="383.63" cy="437.85" r="116.28"/><circle class="cls-7" cx="528.13" cy="119.46" r="9.84"/><path class="cls-7" d="M551.41 92a3 3 0 1 1-3-3 3 3 0 0 1 3 3Z"/><circle class="cls-7" cx="569.09" cy="193.7" r="56.53"/><path class="cls-7" d="M295.35-88.12C263.78-71 237-45.57 220.34-13.78c-36.94 70.52-15.74 173.92 59.91 209.46 70.67 33.2 162.79 1.37 188.58-74.62C483 79.47 495.11 39.12 542.24 26c9.62-2.67 19.63-3.92 29-7.23 51.57-18.16-15.74-67-35.13-81.41-44-32.71-98.71-52.34-153.89-49.82a203.18 203.18 0 0 0-86.87 24.34Z"/></g></svg>