<svg version="1.1" id="Layer_1" xmlns="http://www.w3.org/2000/svg" x="0" y="0" viewBox="0 0 151.5 331.7" style="enable-background:new 0 0 151.5 331.7" xml:space="preserve"><style>.st0{fill:#3b53b5}.st1{fill:#fff}.st2{fill:#e97951}.st3{fill:#c4603d}.st4{fill:#f9f8dc}.st5{fill:#d4c9a3}.st7{fill:#5b75c9}.st9{fill:#afa079}.st11{fill:#6464af}.st12{fill:#143f4f}.st13{fill:#1b4e61}.st14{fill:#28667d}.st16{fill:#f4a187}.st17{fill:#d3826c}.st18{fill:#151c2d}.st20{fill:#fc9dc2}.st21{fill:#ff2453}.st23{fill:#ff227d}.st24{fill:#c56442}.st25{fill:#8a7d5b}.st26{fill:#14333e}.st29{fill:#102f3b}.st31{fill:#46acc3}</style><path class="st0" d="M114.6 53.9h.3c.1.2.1.4.2.6.2.1.4.1.6.2.2-.2.4-.3.6-.1.4.3.4.9.5 1.4.1.6.3 1.2.2 1.8-.2.4-.2 1.1-.7 1.3-.1.6 0 1.1-.2 1.7-.1.3-.4.2-.7.3 0 .5-.1.9-.1 1.4.1.5.2.9.4 1.4.2 0 .4 0 .5.2.2.6.3 1.3.6 2 .1.3.2.5.3.8.2.1.5.1.6.3 0 .5-.4.9-.8 1.2h-.2c-.2-.1-.3-.2-.5-.3 0-.1-.1-.2-.1-.3-.3-.1-.6-.2-.8-.5-.5-.8-1.1-1.7-1.1-2.7.1-.9-.2-1.8.1-2.6 0-.2.2-.2.4-.3 0-.5-.1-1-.2-1.5-.2-1.2-.1-2.4 0-3.6v-1.9c0-.2.1-.3.2-.4-.1-.2-.1-.3-.1-.4z"/><path class="st1" d="M115.1 64.6c-.1-.5-.3-1.1-.1-1.6.2.5.3 1 .4 1.5-.1 0-.2 0-.3.1z"/><path class="st2" d="M31.3 279.2c.6-.1 1.2-.1 1.8-.1 1.8-.1 3.5.3 5.2.8.9.3 1.9.6 2.8 1.1.4.2.7.4 1 .8.2.3.1.6 0 .9-.2.5-.4 1-.5 1.5-1.2-.4-2.5-.6-3.7-1-1.6-.6-3.2-1.2-4.8-1.9-.7-.3-1.4-.6-2.1-.6-.4 0-.8-.2-1.2-.3 0-.1 0-.4.2-.4.4-.4.8-.7 1.3-.8z"/><path class="st3" d="M29.8 280.2c.4.2.8.3 1.2.3.7.1 1.4.4 2.1.6 1.6.7 3.1 1.4 4.8 1.9 1.2.4 2.5.6 3.7 1-.3.9-.6 1.8-1 2.7-1.6-.1-3.2-.6-4.7-1.2-1.4-.5-2.9-.9-4.1-1.7-.6-.4-1.1-.9-1.6-1.3-.2-.2-.3-.3-.4-.6v-1.7z"/><path class="st2" d="M29.8 284.3c-.1-.7-.1-1.5 0-2.2.1.2.2.4.4.6.5.5 1 1 1.6 1.3 1.3.8 2.7 1.2 4.1 1.7 1.5.6 3.1 1.1 4.7 1.2-.5 1.5-1.1 2.9-1.5 4.3-.3.9-.6 1.9-1 2.8-.5 1.2-.7 2.4-1.2 3.6-.3.8-.6 1.6-.8 2.4-.6.6-1 1.3-1.6 1.7-.7.5-1.5.8-2.3.7-.8 0-1.5-.4-2.3-.8-.8-.4-1.2-1.3-1.4-2.1-.3-.8-.4-1.6-.4-2.4 0-1 0-2.1.2-3.1.1-.3.1-.7 0-1 .5-1.5 1-3.1 1.3-4.7 0-1.2.2-2.6.2-4zm67.4 4.6c.4 0 .8-.2 1.3-.2.4.2.1.8.1 1.1-.8.1-1.6.4-2.5.6-1.4.3-2.9.6-4.4.8-.9.1-1.8-.3-2.7-.5-.8-.3-1.6-.5-2.5-.8 0-.2.1-.3.1-.5h.2c0 .1.1.2.1.3 1.1-.5 2.2-.5 3.4-.6 2.3-.1 4.6 0 6.9-.2z"/><path class="st3" d="M96.1 290.4c.8-.2 1.6-.4 2.5-.6-.2 1.1-.4 2.1-.6 3.2-.8.3-1.6.6-2.4.8-1.6.4-3.2.4-4.8.3-1.2-.1-2.4-.4-3.6-.9-.2-.8-.3-1.6-.5-2.4-.1-.3-.1-.6-.1-.9.8.3 1.6.5 2.5.8.9.3 1.8.7 2.7.5 1.4-.1 2.8-.4 4.3-.8z"/><path class="st2" d="M95.5 293.8c.8-.2 1.6-.5 2.4-.8-.2 1-.4 1.9-.6 2.9-.3 1.6-.7 3.2-.5 4.9.2 1.5.5 3.1.6 4.6-.7.6-1.4 1.2-2.3 1.5-.6.1-1.2 0-1.8 0-.9 0-1.8.1-2.6-.2-.7-.3-1.3-.8-1.8-1.4 0 .1-.1.3-.1.4 0-1.6 0-3.1-.1-4.7 0-1-.2-2-.4-3-.3-1.6-.7-3.3-1.1-4.9 1.1.5 2.3.8 3.6.9 1.5.2 3.1.1 4.7-.2z"/><path class="st3" d="M27.5 294.2c.3-.3.4-.7.6-1 .1.3.1.7 0 1-.2 1-.2 2-.2 3.1 0 .8.1 1.6.4 2.4.3.8.6 1.7 1.4 2.1.7.3 1.4.8 2.3.8.8.1 1.7-.2 2.3-.7.7-.5 1.1-1.2 1.6-1.7 0 .1 0 .3-.1.5v.4c-.5.9-1.1 1.7-2 2.2-.8.4-1.8.3-2.7.2-.9-.2-1.7-.8-2.4-1.4-.7-.7-1.1-1.7-1.3-2.7-.3-1.1-.3-2.3-.2-3.5.1-.8 0-1.3.3-1.7z"/><path class="st4" d="M26.4 297c.2-.4.3-.9.5-1.3h.4c0 1.2 0 2.3.2 3.5.2 1 .6 1.9 1.3 2.7.7.7 1.4 1.3 2.4 1.4.9.1 1.9.2 2.7-.2.9-.4 1.5-1.3 2-2.2v-.4c.4.4.2.9.1 1.4-.4 1-.8 2-1.3 3-.9 2.1-1.6 4.3-2.3 6.5-.4 1.1-.6 2.3-1 3.5-.3.7-.4 1.4-.8 2.1-.3.3-.5.6-.7.9-.3.5-.9.8-1.5.9-.8.1-1.6-.3-2.2-.7-.5-.3-.9-.8-1.3-1.3-.3-.4-.7-.8-.8-1.3-.7-2-1.6-4.1-1.5-6.3 0-1.2.1-2.5.4-3.7.1-.3.1-.6 0-1 0-.5.4-.9.6-1.3 1-2 2.1-4 2.8-6.2z"/><path class="st5" d="M23 304.6v1c-.2 1.2-.3 2.5-.4 3.7-.1 2.2.8 4.3 1.5 6.3.2.5.5.9.8 1.3.4.4.7 1 1.3 1.3.7.4 1.4.8 2.2.7.6-.1 1.2-.4 1.5-.9.2-.3.4-.6.7-.9-.2.9-.7 1.8-1.4 2.4-.5.4-1.2.7-1.8.7-.8 0-1.5-.6-2-1.1-.5-.5-1-1-1.4-1.6-1-1.8-1.4-3.9-1.8-5.9-.5-2.5-.1-4.9.8-7z"/><path class="st3" d="M88.9 305.3c.5.6 1.1 1 1.8 1.4.8.4 1.7.2 2.6.2.6 0 1.2.1 1.8 0 .9-.3 1.6-1 2.3-1.5 0 .1 0 .2.1.4v.2c-.2.4-.5.8-.9 1-1.1.5-2.3.9-3.5.8-1-.1-2.1-.1-3.1-.6-.6-.2-.9-.7-1.3-1.2v-.2c.1-.2.2-.3.2-.5z"/><path class="st4" d="M88.5 306.4c0-.2-.1-.6.2-.6v.2c.4.5.7 1 1.3 1.2 1 .5 2.1.5 3.1.6 1.2.1 2.4-.3 3.5-.8.4-.2.7-.6.9-1v-.2c.1.1.3.2.3.4.2 1.3.3 2.7.6 4 .3 1.3.5 2.7.8 4v.1c-.2.7-.1 1.4-.2 2.1-.1 1.1-.4 2.3-.7 3.4-.3 1-.7 2-1.3 2.8-.4.6-.9 1.1-1.5 1.5-.5.3-1.2.3-1.7 0-.9-.5-1.6-1.3-2.1-2.2-.4-.8-.9-1.5-1.1-2.4-.5-1.7-.7-3.6-1-5.4-.2-.8-.3-1.7-.5-2.5v.8c-.2-1 0-2-.1-3-.3-.9-.4-2-.5-3z"/><path class="st5" d="M89 311.6c.2.8.3 1.6.5 2.5.3 1.8.5 3.6 1 5.4.3.8.7 1.6 1.1 2.4.5.9 1.2 1.7 2.1 2.2.5.3 1.2.2 1.7 0 .6-.3 1.1-.9 1.5-1.5.6-.8 1-1.8 1.3-2.8.3-1.1.6-2.2.7-3.4.1-.7 0-1.5.2-2.1.2 1.5.5 3 .3 4.6 0 .9-.2 1.7-.6 2.6-.8 1.8-2.4 3.2-4.3 3.7-.5-.1-1.1-.2-1.5-.6-1.3-1.2-2.1-2.8-2.8-4.3-.4-1-.7-2.1-.8-3.1-.2-1.5-.4-3-.5-4.5 0-.5 0-.8.1-1.1z"/><path d="M84.2 6.9c.9-.2 1.9-.1 2.8 0 1.1.1 2.1.6 3 1.1.3.2.5.4.8.6.6-.3 1.3-.6 2-.7.8-.1 1.5-.1 2.3-.1 1 0 2 .2 3 .6 1.8.6 3.5 1.6 4.9 2.9.9.9 1.8 1.8 2.4 3 1.2 1.8 1.6 3.9 1.9 6 .3 1.5.3 3 .6 4.4.3 1.1.9 2.1 1.5 3.1 1 1.5 2.4 2.7 3.3 4.2 1.2 1.7 1.9 3.6 2.4 5.6.5 1.9.7 4 .3 6-.2 1.2-.4 2.4 0 3.6.3.9 1 1.7 1.6 2.4.8 1 1.5 2 1.9 3.2.5 1.6.5 3.3.1 4.9-.2.9-.4 1.7-.8 2.5-.1.2-.5.1-.5-.1 0-.3 0-.6.1-1l-.3.3v-.7c-.4 1.2-1 2.3-1.2 3.6.1 0 .2-.1.3-.1-.1.3-.1.5-.2.8.1.1.2.1.4.2 0 .3-.1.5-.1.8.1.1.2.2.2.3-.1-.3.2-.8.6-.5.2.6.3 1.2.7 1.7.2.5.7.8.9 1.2.1 0 .2-.1.3-.1 0 .1 0 .3-.1.4-.2.1-.4 0-.6-.1-.1.2 0 .4-.3.5h-.3c.1.2.1.6-.2.5-.8-.4-1.4-1.2-1.6-2.1-.4-1.4-.7-3-.3-4.4.5-1.4.9-3 .8-4.5-.1-.8-.3-1.6-.9-2.1.1-.1.1-.3.1-.4-.3 0-.5 0-.7-.1 0 1.3.2 2.5 0 3.8-.1.8-.3 1.6-.7 2.4-.2.4-.4.7-.5 1.1-.1.6-.1 1.3.1 1.9.2.8.4 1.7.8 2.4.3.5.7.9 1 1.3.3.6.9.9 1.3 1.5s1 1.1 1.3 1.7c.4.6.5 1.3.7 2 .5 1.3.7 2.7.9 4.1.2 1.7.2 3.4.5 5.1.5 3.2 1 6.5 1.3 9.7.1 1.4.5 2.8.2 4.3-.2 1.4-.7 2.8-1.3 4.1-1.5 3.2-3.9 6-7.2 7.5-.7.3-1.4.6-2.1.7-.6.1-1.3.2-1.9.4-.6.2-1.2.3-1.7.7.3-2 1-4.2 2.6-5.6.9-1 2.2-1.8 2.8-3.1.5-.9.2-2 0-2.9-.3-1-.9-1.9-1.4-2.7-.6-1-1-2-1.1-3.1-.1-1.4-.1-2.8 0-4.2.1-1 .4-1.9.2-2.8-.1-.5-.1-1-.2-1.5-.5-1.1-1.3-2-2.4-2.6-.9-.6-2-.8-2.9-1.1-.8-.3-1.7-.4-2.5-.9-.9-.6-1.3-1.8-1.7-2.8-.6-1.6 0-3.5-.7-5.1-.4-.9-.7-1.8-1.5-2.4-.6-.4-1.1-.7-1.7-1 0-.3.1-.6-.2-.7-.2-.2-.5.1-.7.2-1.1-.6-2.3-1.2-3.5-1.5-.4-.1-.7-.2-1.1-.2-2.2.2-4.5-.2-6.7-.7-.8-.2-1.7-.5-2.5-.8-.9-.4-1.8-.7-2.6-1.1-.7-.3-1.3-.7-2-1-1.2-.4-2.4-.9-3.6-1.3-1.2-.4-2.3-1-3.6-1.3-.9-.2-2-.1-2.7-.9.7-.1 1.3-.5 1.8-.9.6-.5 1.3-.8 1.9-1.3.2.1.3.2.5.2.3-.1.3-.5.5-.8.2-.5.7-.8 1.1-1.1.3-.2.4-.5.5-.8.2-.3.5-.5.6-.8.4-1.2.6-2.5.8-3.8.5-1.2.5-2.5.4-3.7 0-.6-.4-1.1-.6-1.6-.3-1.1-.7-2.2-1-3.4-.3-1.1-.5-2.2-.8-3.3-.1-.7 0-1.5 0-2.2.2-1.2.2-2.4.4-3.7.2-1.3.5-2.5.8-3.7.2-1 .4-1.9.8-2.8.5-.9.9-1.8 1.6-2.6.2-.2.2-.5.3-.7 0 0-.1-.1-.2-.1-.6.5-1 1.1-1.5 1.7-.6.8-1 1.7-1.3 2.6-.8 1.9-1.2 4-1.7 6-.2 1.1-.5 2.2-.6 3.3-.4.6-.6 1.5-.6 2.5-.1 1.5-.1 2.9.1 4.4.3 2.3.3 4.8-.4 7-.4 1.1-.7 2.2-1.3 3.2-1 1.6-2.6 2.9-4.4 3.5-2.1.6-4.2 1.1-6.2 2-1.5.7-3 1.6-4.3 2.7-1 .8-2 1.7-3.1 2.5-.4.3-.8.5-1.2.8-.2.1-.4.3-.6.3-.8-.1-1.7-.2-2.4-.7-.6-.4-.8-1.2-1.1-1.8.1-.6.3-1.1.5-1.6.1-.1.2-.1.3.1.1.4.1.9.3 1.3.4.7 1 1.4 1.9 1.5.7.1 1.5-.2 2-.7.5-.5 1-1 1.3-1.7.6-1.5 1.1-3.1 1.2-4.7.2-1.1 0-2.1 0-3.2 0-1.3-.2-2.6-.3-3.9 0-1.3-.1-2.6.4-3.8.5-1.2 1.3-2.3 2.1-3.5 1.2-1.9 1.9-4.1 3-6.1.4-.7.9-1.3 1.4-1.9.8-1 1.8-1.9 2.9-2.6 1.6-1.1 3.1-2.4 4-4.2.5-.9.9-2 1.3-3 .7-1.9.9-3.9 1.5-5.9.2-.9.5-1.8 1.1-2.5.7-.8 1.6-1.5 2.5-2.1.9-.5 1.9-.8 2.8-1.3.9-.6 1.6-1.4 2.3-2.1.7-.6 1.5-1.1 2.4-1.5.6-.2 1.4-.4 2.2-.5z" style="fill:#92a5ff"/><path class="st7" d="M77.5 20.4s.1.1.2.1c-.1.3-.2.5-.3.7-.6.8-1.1 1.7-1.6 2.6-.4.9-.6 1.9-.8 2.8-.3 1.2-.6 2.5-.8 3.7-.2 1.2-.3 2.4-.4 3.7 0 .7-.1 1.5 0 2.2.3 1.1.5 2.2.8 3.3.3 1.1.7 2.2 1 3.4.2.5.5 1 .6 1.6.1 1.2.1 2.5-.4 3.7-.2 1.3-.4 2.6-.8 3.8-.1.3-.4.5-.6.8-.2.3-.3.6-.5.8-.4.3-.9.6-1.1 1.1-.2.3-.2.6-.5.8-.2-.1-.3-.2-.5-.2-.6.5-1.3.8-1.9 1.3-.5.4-1.2.8-1.8.9-.1 0-.2 0-.2.1-.1-.2-.1-.5-.3-.6h-.7c-1.1.2-2.1.5-3.2.6-.5.1-1 .1-1.4.2-.3.2-.1.6-.1.8-1.1.4-2.2.8-3.2 1.2-.3.2-.7-.1-1 0-1 .6-2 1.2-3.1 1.9-1.4.9-2.9 1.8-4.2 2.8-.7.6-1.4 1.1-2.1 1.8.1.2.5.5.4.8-.2.4-.7 0-1 0-.6.1-.9.6-1.2 1-.5-.6-.9-1.3-1.3-1.9-.2-.3-.4-.7-.5-1-.5-1.6-.5-3.4 0-5 .2-.7.5-1.3 1-1.8.1.5-.3 1-.3 1.5-.2 1 0 2.1.4 3.1.5 1.2 1.3 2.2 2.2 3.1.5-.5.9-1 1.4-1.5-1-.4-1.9-1.1-2.4-2-.1-.2-.1-.4-.2-.6v-1.2c.3.6.5 1.4 1.1 1.8.7.5 1.6.6 2.4.7.2 0 .4-.1.6-.3.4-.3.8-.5 1.2-.8 1.1-.8 2.1-1.7 3.1-2.5 1.3-1.1 2.8-2 4.3-2.7 2-.9 4.1-1.4 6.2-2 1.8-.6 3.4-1.8 4.4-3.5.6-1 1-2.1 1.3-3.2.7-2.3.7-4.7.4-7-.2-1.5-.1-2.9-.1-4.4 0-1 .2-1.9.3-2.8.1-1.1.4-2.2.6-3.3.5-2 .9-4.1 1.7-6 .3-.9.7-1.8 1.3-2.6.6-.7 1-1.3 1.6-1.8z"/><path d="M66.8 57c.2 0 .5-.1.7 0 .2.1.2.4.3.6.1 0 .2 0 .2-.1.7.7 1.8.6 2.7.9 1.3.2 2.4.9 3.6 1.3 1.2.4 2.4.9 3.6 1.3.7.2 1.3.6 2 1 .9.4 1.8.7 2.6 1.1.8.3 1.6.6 2.5.8 2.2.5 4.4.9 6.7.7.4 0 .8.1 1.1.2 1.1.6 2.3 1.2 3.5 1.7-.2.5 0 1 .2 1.5.2.6.2 1.2.3 1.8.1.6.7 1.1 1 1.6.7.9 1.3 1.9 1.9 2.9.3.5.4 1.1.6 1.6.5 1.7 1.3 3.4 2.8 4.4.8.5 1.6 1 2.3 1.7 1 1 1.8 2.3 2 3.7.2 1.5.1 3-.3 4.4-.3.8-.4 1.7-.3 2.5.1.8.5 1.5 1 2.1.9 1.1 1.1 2.7 1 4.1-.1 1-.3 2.1-.8 3-.4.7-.9 1.3-1.4 1.9-1.5 1.4-3.3 2.5-5.3 2.9-1.1.3-2.2.3-3.3.5-1.4.2-2.9.5-4.2 1-.2.1-.5.2-.6.4-.4.4-.5 1-.2 1.4.4.6.9 1.1 1.5 1.5.4.3.8.5 1.1 1 .2.5.3 1 .5 1.5.3.5.8.9 1.3 1.2.6.3 1.3.5 1.7 1.2.4.6.3 1.4.8 2 .5.6 1.2 1 1.9 1.4.5.2.9.6 1.3.9-2.9 1.3-6 2.1-9.1 2.9-1 .3-1.9.5-2.9.6-1.7.3-3.4.5-5.2.7-2.1.3-4.3.3-6.4.3-3.1 0-6.1-.4-9.1-1.1-2.2-.5-4.4-1.2-6.5-2 .3-.4.5-.8.8-1.2.5-.6 1.2-1.1 1.9-1.5.5-.2.4-.8.4-1.2 0-.7-.6-1.2-.7-1.9.1-.4.4-.7.8-.9.5-.2.8-.6.8-1.1.1-.5-.3-.9-.5-1.4 0-.8.4-1.6 1-2.2.4-.3.7-.7 1-1.1.8-.7.5-2.2-.5-2.5-1-.3-2-.5-2.9-.8-1-.4-2.2-.6-3.1-1.2-1.4-.8-2.7-1.6-3.9-2.6-1-.9-2-1.9-2.7-3-.4-.7-1-1.3-1.3-2.1-.9-2-1.7-4-1.9-6.2-.1-1.1 0-2.1-.1-3.2-.1-.3-.3-.6-.6-.7h-.6c1-3.7 3-6.9 4.9-10.2 1.1-2 2.1-4.2 3-6.4.7-2 1.2-4.2 1.4-6.3.7-1.7 1.2-3.6 1.2-5.5 0-.3-.2-.6.1-.8.4-.2.9-.2 1.4-.2.9-.3 2-.6 3-.8z" style="fill:#837fcb"/><path class="st7" d="M46 58.4c.1 0 .3 0 .4.1 0 .6-.1 1.1 0 1.7.1.6.3 1.3.7 1.8 0 .2.1.4.2.6.5.9 1.4 1.6 2.4 2-.5.5-.9 1-1.4 1.5-.9-.9-1.7-1.9-2.2-3.1-.4-1-.6-2-.4-3.1 0-.6.4-1 .3-1.5z"/><path class="st1" d="M72.9 58.4c2.3.3 4.5.8 6.7 1.2 2.4.4 4.8 1 7.1 1.7 1.9.6 3.8 1.4 5.5 2.4-.4 0-.8.1-1.2.1-1-.5-1.9-1.2-2.9-1.7-.9-.4-1.8-.7-2.7-.9-2.7-.5-5.4-.8-8.1-1.2-.5-.1-1-.4-1.6-.5-.8-.4-1.8-.7-2.8-1.1z"/><path class="st9" d="M59 59.8c1-.5 2.1-.8 3.1-1.1 0 1.9-.6 3.7-1.2 5.5-.8 1.8-1.8 3.6-3.4 4.8-.8.6-1.7 1.2-2.7 1.4-1.5.4-3.2.7-4.6-.1-1.2-.6-2.4-1.3-3.4-2.3.4-.4.6-.9 1.2-1 .3 0 .8.4 1 0 .1-.3-.2-.5-.4-.8l2.1-1.8c1.3-1.1 2.8-1.9 4.2-2.8 1-.6 2-1.3 3.1-1.8.4-.1.7.2 1 0z"/><path d="M77.4 60c2.7.4 5.4.7 8.1 1.2.9.2 1.9.5 2.7.9 1 .5 1.9 1.2 2.9 1.7-1.9.2-3.8-.2-5.6-.6-.9-.2-1.8-.5-2.7-.9-.9-.4-1.8-.7-2.6-1.1-.7-.4-1.3-.8-2.1-1-.3 0-.5-.1-.7-.2z" style="fill:#fcc14b"/><path class="st1" d="M92.8 64.7c1.2.3 2.4.9 3.5 1.5.3.1.5.3.8.5-.3-.1-.5-.2-.8-.3-1.2-.5-2.3-1.1-3.5-1.7z"/><path class="st11" d="M96.3 66.2c.2-.1.4-.4.7-.2.3.1.2.5.2.7.6.3 1.2.6 1.7 1 .8.6 1.1 1.5 1.5 2.4.7 1.6 0 3.5.7 5.1.4 1 .8 2.1 1.7 2.8.8.5 1.7.6 2.5.9 1 .3 2.1.5 2.9 1.1 1 .6 1.9 1.5 2.4 2.6.1.5.1 1 .2 1.5.1 1-.2 1.9-.2 2.8-.1 1.4-.2 2.8 0 4.2.1 1.1.5 2.1 1.1 3.1.5.9 1.1 1.7 1.4 2.7.3.9.5 2 0 2.9-.6 1.3-1.9 2.1-2.8 3.1-1.6 1.4-2.3 3.5-2.6 5.6-.1.7-.3 1.5-.3 2.2l.3 3.9c0 .5.1 1 0 1.5 0 .2 0 .4-.1.6-.5 1-1.4 1.6-2.3 2.2-.8.4-1.6 1-2.5 1.3-.4-.3-.8-.7-1.3-.9-.7-.4-1.4-.8-1.9-1.4-.5-.5-.4-1.3-.8-2-.3-.6-1.1-.9-1.7-1.2-.5-.2-1.1-.6-1.3-1.2-.3-.5-.3-1-.5-1.5-.3-.4-.7-.7-1.1-1-.6-.4-1.2-.9-1.5-1.5-.3-.4-.2-1.1.2-1.4.2-.2.4-.3.6-.4 1.4-.5 2.8-.8 4.2-1 1.1-.2 2.2-.2 3.3-.5 2-.5 3.8-1.5 5.3-2.9.6-.5 1.1-1.2 1.4-1.9.5-.9.7-2 .8-3 .1-1.4-.1-3-1-4.1-.5-.6-.9-1.3-1-2.1-.1-.8 0-1.7.3-2.5.4-1.4.5-2.9.3-4.4-.2-1.4-1-2.7-2-3.7-.7-.6-1.5-1.2-2.3-1.7-1.5-1-2.3-2.7-2.8-4.4-.2-.5-.3-1.1-.6-1.6-.6-1-1.2-2-1.9-2.9-.4-.5-.9-1-1-1.6-.1-.6-.1-1.2-.3-1.8-.1-.5-.3-1-.2-1.5.3.1.5.2.8.3 0 .1-.2 0-.5-.2zM51.6 87.1h.6c.3.1.5.4.6.7.2 1.1 0 2.1.1 3.2.2 2.2.9 4.3 1.9 6.2.3.7.9 1.4 1.3 2.1.7 1.1 1.7 2 2.7 3 1.2 1 2.6 1.8 3.9 2.6 1 .6 2.1.8 3.1 1.2 1 .3 2 .5 2.9.8 1 .3 1.3 1.9.5 2.5-.3.3-.7.7-1 1.1-.6.6-1 1.4-1 2.2.2.5.6.9.5 1.4 0 .5-.4.9-.8 1.1-.4.2-.7.5-.8.9.1.7.6 1.2.7 1.9 0 .4 0 1-.4 1.2-.7.4-1.4.9-1.9 1.5-.3.4-.5.8-.8 1.2-.4-.1-.8-.4-1.3-.6-.9-.4-1.8-.7-2.6-1.3-1.1-.8-2.3-1.3-3.3-2.2-.3-1.9-.6-3.9-.7-5.8-.1-1.9-.5-3.8-1.1-5.6-.4-1.5-1.2-2.8-1.6-4.3-.4-1.1-.7-2.3-1-3.4-.2-1.3-.7-2.5-.9-3.7-.3-1.4-.4-2.8-.3-4.2.2-1.3.5-2.5.7-3.7z"/><path class="st9" d="M107.1 114.5c.1 0 .2.1.1.2-.1 0-.2-.1-.1-.2z"/><path class="st12" d="M107.8 116.9c0-.2 0-.4.1-.6.5.6 1.1 1 1.6 1.6.8.9 1.6 1.7 2.4 2.6.6.6 1 1.4 1.6 2 1.4 1.6 2.6 3.3 3.7 5.1.7 1.5 1.6 3 2.3 4.6-.5-.2-.9-.6-1.3-.9-1.4-1.1-3-2.1-4.5-3-2.9-1.7-5.8-3.4-8.3-5.7-.7-.6-1.2-1.3-1.9-1.8-2.1 1-4.3 1.7-6.6 2.5-.9.3-1.9.6-2.8.8-1.3.3-2.6.4-3.8.6-1.2.2-2.5.4-3.7.5-2.6.4-5.3.5-7.9.6-1 .1-1.9-.1-2.9-.1-2.7-.2-5.3-.8-7.9-1.4-1.6-.4-3.1-1.1-4.6-1.7-.6.5-1.1 1.1-1.6 1.7-.5.4-.5 1.1-.9 1.6-.5.8-1.4 1.2-2.1 1.8-.4.4-.9.8-1 1.4-.2.7-.3 1.4-.7 2-.8 1.2-2.1 1.9-3 3-.4.6-.6 1.4-1 2-.5.9-1.6 1.2-2.1 2-.3.4-.4 1-.6 1.4-.3.6-.8 1-1.2 1.6l-.9 1.5c-.5.7-.7 1.5-1 2.3-.7 2.1-1.4 4.3-1.8 6.5-.6 2.7-.5 5.5-.5 8.3.1 2.6.4 5.2.6 7.8 0 1.5.2 2.9 0 4.4-.1 2.2-.6 4.3-1.2 6.4-.6 1.8-1.4 3.6-2.2 5.4-1 2.2-2.2 4.3-2.9 6.6-.5 1.5-.9 3-1 4.6-.1-.2-.1-.3-.2-.5 0 .5.1.9 0 1.4-.1.3-.1.6 0 .9.1.5.1 1.1 0 1.6 0 .2-.2.4-.3.5-.1-1.4-.2-2.8-.3-4.1v-8.2c0-2 .2-3.9.4-5.9 0 .2 0 .4.1.6.2-.7.3-1.4.4-2.1.1-.6.4-1.1.5-1.7.1-1 .4-1.9.7-2.8.1-.4-.1-.7 0-1.1.4-1.7.9-3.5 1.3-5.2.1-.3.1-.6.1-.9.1-.5.2-1.1.4-1.6.1-1.3.4-2.6.7-3.9.7-2.6.4-5.3.6-7.9.1-1.2.2-2.5.3-3.7.2-2.7.4-5.3 1-7.9.2-.9.6-1.8.9-2.7.5-1.3 1-2.7 1.7-3.9.8-1.6 1.6-3.2 2.4-4.9 1.1-2 2.3-3.8 3.5-5.8.5-.9 1-1.8 1.5-2.6.8-1.2 1.6-2.4 2.5-3.5.2-.3.5-.6.4-.9.9 1 2.2 1.4 3.3 2.2.8.6 1.7.9 2.6 1.3.4.2.8.5 1.3.6 2.1.8 4.3 1.4 6.5 2 3 .7 6 1 9.1 1.1 2.2.1 4.3 0 6.4-.3 1.7-.2 3.5-.4 5.2-.7 1-.1 2-.3 2.9-.6 3.1-.9 6.2-1.6 9.1-2.9.9-.3 1.7-.9 2.5-1.3.7-.9 1.6-1.6 2.1-2.6z"/><path class="st13" d="M96.9 123.3c2.2-.7 4.4-1.5 6.6-2.5.7.6 1.2 1.2 1.9 1.8 2.5 2.3 5.4 4.1 8.3 5.7 1.6.9 3.1 1.9 4.5 3 .4.3.8.7 1.3.9.5.9.7 1.9 1.1 2.9.3.7.5 1.4.8 2.1.8 1.9 1.1 3.9 1.6 5.9.3 1.3.6 2.7.8 4 .5 2.6.2 5.3.2 7.9 0 .5 0 1.1.1 1.6.4 1.2.8 2.4 1 3.6.3 1.2.5 2.4.8 3.6.2 1.1.5 2.2.7 3.2.2 1.3.3 2.6.3 3.9 0 2 0 4-.1 5.9-.1 1.5-.2 3-.5 4.4-.4 2.3-.8 4.6-1.6 6.8-.8 1.9-1.4 3.9-2.2 5.8-1.5 4.3-3.5 8.5-5 12.8-.7 1.9-1.3 3.8-2 5.6-1.1 3.1-2.3 6.3-3.2 9.5-.4 1.4-.7 2.9-1.2 4.4-.5 1.7-1.1 3.3-1.6 4.9-.5 1.6-1 3.3-1.4 4.9-.3 1.1-.7 2.2-1.2 3.3-.7 1.9-1.4 3.8-1.9 5.8-.4 1.4-.6 2.7-.6 4.2.1 1.5.1 3 .3 4.5.1.8.2 1.6.2 2.4 0 1.2.2 2.4.2 3.6 0 1.5 0 3-.1 4.5-.1 1.4-.3 2.8-.5 4.2-.5 3-1.1 5.9-1.8 8.9-.6 2.1-1 4.3-2 6.3-1.2.6-2.1 1.5-3.3 2.2-1.8 1.1-3.9 1.6-6 1.3-1.3-.1-2.5-.5-3.6-1-1.1-.4-1.9-1.2-2.9-1.7l-.1.1c-.3-1.2-.5-2.5-.6-3.7-.1-2-.5-3.9-.7-5.8.3-.9.3-1.8.4-2.7.3-1.1.3-2.3.5-3.4.6-2.7 1.5-5.3 2.2-8 .5-2 1.1-4 1.6-6 .4-1.6.7-3.2.3-4.8-.2-.9-.9-1.6-1.4-2.4-.6-.9-1.2-1.8-1.6-2.9-.8-1.7-1.2-3.6-1.5-5.5-.3-2.1-.5-4.1-.4-6.2 0-2.8-.2-5.6-.1-8.4.2-2.7.3-5.5.3-8.2 0-2.8.2-5.6.3-8.3.1-2.8.3-5.6.7-8.4.3-2.4.7-4.7 1.1-7.1.4-2.3.9-4.6 1.7-6.9 1.1-3.4 2.3-6.8 3.7-10.1.7-1.5 1.7-2.8 2.7-4.2 1.4-1.8 2.7-3.6 4.2-5.3.5-.7 1.1-1.3 1.8-1.8 2.3-2.2 4.7-4.3 6.5-6.9.2-.3.6-.7.4-1.1-.3-.3-.6 0-.9.1-.6.3-.9.9-1.5 1.2-1.9 1.3-3.6 2.7-5.4 4-1.3.9-2.6 1.9-3.9 2.9-2.8 1.9-6 3-8.9 4.6-1.2.2-2.4.4-3.6.5-.8.1-1.5-.2-2.2-.2-1.2-.1-2.4-.2-3.5-.5-.8-.2-1.7-.4-2.4-.8-1.8-.8-3.3-1.9-4.9-3-3.3-2.3-6.6-4.7-9.3-7.6l-1.5-1.5c-.2-.2-.4-.1-.6-.1 0 .6.4 1.1.8 1.7.8 1.1 1.6 2.3 2.5 3.3 1.2 1.4 2.3 3 3.7 4.3 1 1.1 2.2 2 3.4 3.1h-.6c.2.2.5.4.8.5.5.1.8.5 1.2.9.3.3.6.5.8.9.4.6.9 1.1 1.3 1.6.3.5.5 1 .8 1.5.2.3.4.7.5 1.1.1.5.5.8.7 1.3.3.9.5 1.9.7 2.8.3 1.3.5 2.6.4 4 0 1.3 0 2.6-.1 3.9-.3 2.2-.7 4.4-1.3 6.6-.5 2.2-1 4.4-1.6 6.5-1 3.7-2.2 7.4-3.4 11l-2.1 5.1c-.4 1-.9 2.1-1.3 3.1s-1 1.9-1.4 2.9c-.4.8-.9 1.6-1.3 2.4-1.2 2-2.4 4.1-3.5 6.1-.9 1.5-1.9 2.9-2.9 4.3-.6 1-1.4 1.9-2.1 2.8-.5.7-1.1 1.4-1.7 2.1-.8.9-1.6 1.8-2 2.9-.7 1.8-1 3.6-1.2 5.5-.1 2-.4 4-.5 6-.2 2.7-.5 5.4-.7 8.1-.1 1.5-.4 3-.6 4.5-.3 1.7-.5 3.5-.8 5.2-.2 1.6-.6 3.1-.9 4.6v.7c-.4.9-.9 1.9-1.4 2.8-.8.2-1.5.5-2.3.7-1 .2-2 .1-3.1.2-1.8.2-3.5-.6-4.9-1.5-.4-.3-.9-.6-1.2-1-.8-1.1-1.6-2.2-2.5-3.2-.2-.3-.4-.7-.7-1-.1-1.5 0-3 0-4.6 0-1.6.1-3.3.2-4.9.2-2.5.4-5 .6-7.4.4-3.9 1-7.9 1.8-11.7.4-2.3 1.1-4.5 1.5-6.8.5-2.1 1-4.3 1.4-6.4.9-4 1.8-8 2.5-12.1.6-2.7.4-5.6.4-8.3 0-2.9-.1-5.8-.2-8.8 0-1.4-.3-2.7-.4-4.1.1-.2.3-.3.3-.5.1-.5.1-1.1 0-1.6-.1-.3 0-.6 0-.9.1-.5 0-.9 0-1.4.1.2.1.3.2.5.1-1.6.5-3.1 1-4.6.7-2.3 1.9-4.4 2.9-6.6.8-1.8 1.6-3.5 2.2-5.4.6-2.1 1.1-4.2 1.2-6.4.1-1.5-.1-2.9 0-4.4-.1-2.6-.4-5.2-.6-7.8 0-2.8-.1-5.6.5-8.3.5-2.2 1.1-4.4 1.8-6.5.3-.8.5-1.6 1-2.3l.9-1.5c.3-.6.9-1 1.2-1.6.2-.5.4-1 .6-1.4.6-.8 1.6-1.2 2.1-2 .4-.6.6-1.4 1-2 .9-1.1 2.2-1.9 3-3 .4-.6.5-1.3.7-2 .2-.6.6-1 1-1.4.7-.6 1.6-1 2.1-1.8.4-.5.4-1.2.9-1.6.6-.5 1-1.2 1.6-1.7 1.5.6 3 1.3 4.6 1.7 2.6.6 5.3 1.2 7.9 1.4 1 .1 1.9.2 2.9.1 2.6-.1 5.3-.2 7.9-.6 1.2-.2 2.5-.3 3.7-.5 1.3-.2 2.6-.3 3.8-.6 1.1-.6 2-1 2.9-1.2z"/><path class="st14" d="M123.4 154.7c.2.1.1.5 0 .7-.2-.1-.1-.5 0-.7z"/><path d="M58.3 155.8c.2 0 .5-.1.6.1l1.5 1.5c2.8 2.9 6 5.3 9.3 7.6 1.6 1 3.2 2.2 4.9 3 .8.4 1.6.6 2.4.8 1.1.3 2.3.5 3.5.5.8 0 1.5.3 2.2.2 1.2-.1 2.4-.2 3.6-.5 2.9-1.6 6.1-2.7 8.9-4.6 1.3-1 2.6-2 3.9-2.9 1.8-1.3 3.5-2.8 5.4-4 .5-.3.9-.9 1.5-1.2.3-.1.6-.4.9-.1.2.4-.2.8-.4 1.1-1.8 2.6-4.2 4.7-6.5 6.9-.7.5-1.3 1.1-1.8 1.8-1.5 1.7-2.9 3.5-4.2 5.3-1 1.3-2 2.7-2.7 4.2-1.4 3.3-2.5 6.7-3.7 10.1-.8 2.2-1.3 4.5-1.7 6.9-.4 2.4-.8 4.7-1.1 7.1-.4 2.8-.6 5.6-.7 8.4-.1 2.8-.3 5.5-.3 8.3 0 2.7-.1 5.5-.3 8.2-.1 2.8.1 5.6.1 8.4 0 2.1.1 4.2.4 6.2.4 1.9.8 3.7 1.5 5.5.4 1 1 1.9 1.6 2.9.5.8 1.2 1.5 1.4 2.4.5 1.6.1 3.2-.3 4.8-.5 2-1 4-1.6 6-.7 2.7-1.7 5.3-2.2 8-.2 1.1-.3 2.3-.5 3.4-.1.9-.1 1.8-.4 2.7-.4-3.4-.4-6.9-.3-10.4.1-2.2.5-4.4.8-6.5.3-1.7.5-3.4.7-5.1.1-1.2.1-2.5 0-3.7 0-.9-.3-1.7-.5-2.5-1-3.6-2-7.2-2.3-10.9-.4-3.2-.4-6.4-.4-9.6-.1-2.9.1-5.8-.1-8.7-.1-3.1-.2-6.1-.2-9.2 0-2.6 0-5.3-.1-7.9 0-2.8-.3-5.6-.2-8.4.1-1.3 0-2.6.2-3.9.1-.7.1-1.4.1-2.1-.2.9-.5 1.8-.7 2.7-.4 1.5-.9 2.9-1.4 4.4-.4 1.1-.9 2.2-1.3 3.4-.3 1-.8 2-1.2 3.1-1.3 3.9-3.2 7.5-5.1 11.1-.5 1-1 1.9-1.6 2.8-1.1 1.8-2.3 3.6-3.3 5.5-1.2 2.4-2.7 4.6-3.9 7.1-.8 1.8-1.6 3.7-2.5 5.5-1 2-1.9 4-2.8 6.1-.3.9-.7 1.8-1 2.7-1.1 3.8-1.7 7.7-2.9 11.5-.5 1.8-.9 3.6-1.5 5.4-.4 1.5-.9 3.1-1.3 4.6-.4 1.5-.9 2.9-1.4 4.4-.5 1.5-1 3.1-1.5 4.6-.7 2-1.4 4-2.5 5.9v-.7c.3-1.5.7-3.1.9-4.6.3-1.7.5-3.5.8-5.2.2-1.5.5-3 .6-4.5.2-2.7.5-5.4.7-8.1.1-2 .4-4 .5-6 .1-1.9.5-3.7 1.2-5.5.4-1.1 1.2-2 2-2.9.6-.7 1.1-1.3 1.7-2.1.7-.9 1.5-1.8 2.1-2.8 1-1.5 1.9-2.9 2.9-4.3 1.2-2 2.4-4 3.5-6.1.5-.8 1-1.5 1.3-2.4.4-1 .9-1.9 1.4-2.9.5-1 .9-2 1.3-3.1l2.1-5.1c1.3-3.6 2.5-7.3 3.4-11 .6-2.2 1-4.4 1.6-6.5.5-2.2.9-4.4 1.3-6.6.2-1.3.1-2.6.1-3.9 0-1.3-.1-2.7-.4-4-.2-.9-.4-1.9-.7-2.8-.2-.5-.6-.8-.7-1.3-.1-.4-.3-.7-.5-1.1-.3-.5-.5-1-.8-1.5-.4-.6-.9-1.1-1.3-1.6-.2-.3-.5-.6-.8-.9-.4-.3-.7-.7-1.2-.9-.3-.1-.6-.2-.8-.5h.6c-1.1-1-2.3-2-3.4-3.1-1.4-1.3-2.5-2.9-3.7-4.3-.9-1.1-1.7-2.2-2.5-3.3.2-.2-.2-.7-.2-1.3z" style="fill:#184657"/><path class="st13" d="M39 172.4c.6-1.7 1.1-3.5 1.7-5.2 0 .3 0 .6-.1.9-.4 1.8-.9 3.5-1.3 5.2-.1.4.1.7 0 1.1-.2.9-.5 1.9-.7 2.8-.1.6-.4 1.1-.5 1.7-.2.7-.2 1.4-.4 2.1 0-.2 0-.4-.1-.6.1-1 .3-2 .3-3.1.3-1.5.6-3.2 1.1-4.9z"/><path class="st14" d="M38.7 211.7c.1.2.1.5.1.7v2.5c0 .2 0 .4-.1.6-.1-.6 0-1.3 0-1.9v-1.9z"/><path class="st13" d="M82.2 227.2h.1c0 .5 0 1.1-.1 1.6-.1-.6 0-1.1 0-1.6z"/><path class="st14" d="M104 249h.1v.9c-.2-.3-.2-.6-.1-.9zm-73.6 19.6c-.2-.3-.1-.6 0-.9v.9z"/><path class="st13" d="M84 267.8c.1.9.1 1.8 0 2.7-.1-.4-.1-.8-.1-1.1 0-.6 0-1.1.1-1.6z"/><path class="st14" d="M30.2 273.3c0-.6 0-1.3.1-1.9.1.6.1 1.3.1 1.9h-.2z"/><path class="st12" d="M29.7 273.9c.3.3.5.6.7 1 .9 1 1.8 2 2.5 3.2.4.4.8.7 1.2 1 1.5.9 3.2 1.7 4.9 1.5 1-.1 2.1.1 3.1-.2.8-.2 1.5-.5 2.3-.7-.2.3-.4.7-.5 1-.7.3-1.5.6-2.3.6-.8 0-1.5.1-2.3.1-1.2-.1-2.4-.2-3.5-.7-1.2-.5-2.4-1.1-3.3-1.9-.6-.5-1.1-1.1-1.6-1.7-.4-.6-.7-1.2-1.1-1.8 0-.6-.1-1-.1-1.4z"/><path class="st14" d="M28.6 277.1c.1-.8.5-1.5 1.2-1.9.4.6.6 1.2 1.1 1.8.4.6 1 1.2 1.6 1.7 1 .9 2.1 1.4 3.3 1.9 1.1.5 2.3.6 3.5.7.8.1 1.5 0 2.3-.1.8 0 1.5-.3 2.3-.6.3.2.7.4.6.8-.3.8-.7 1.6-1.2 2.3-.5.7-1.3 1.2-2.2 1.2-.8 0-1.6 0-2.4-.1-1.9-.2-3.7-1-5.4-1.8-.8-.3-1.5-.7-2.2-1.2-.6-.5-1.3-.9-2-1.3-.4-.3-.8-.8-.7-1.3 0-.7 0-1.4.2-2.1z"/><path class="st12" d="M97.6 285.8c1.1-.7 2.1-1.6 3.3-2.2-.2.3-.2.6-.1 1-.7.5-1.5 1-2.2 1.5-1.7 1.3-4 2-6.2 1.8-1-.1-2-.1-2.9-.3-1.1-.3-2.2-.7-3.1-1.3-.5-.3-1.1-.5-1.3-1-.1-.2-.1-.4-.1-.7l.1-.1c1 .5 1.9 1.3 2.9 1.7 1.1.5 2.3.9 3.6 1 2.1.3 4.2-.2 6-1.4z"/><path class="st14" d="M98.6 286.1c.7-.5 1.5-1 2.2-1.5.3.5.8.9.8 1.5 0 .5-.1 1-.3 1.4-.3.8-.6 1.6-1.2 2.2-.6.5-1.2 1-1.9 1.3-.8.4-1.6.7-2.5.7-1.5.1-2.9.5-4.4.4-1.3 0-2.6-.4-3.8-.9-.7-.3-1.3-.7-1.9-1.2-.5-.5-1.1-1.1-1-1.8 0-1-.1-2 .4-2.9.3.5.9.8 1.3 1 1 .6 2 1 3.1 1.3 1 .2 1.9.2 2.9.3 2.3.2 4.6-.5 6.3-1.8z"/><path class="st16" d="M88.6 13.8c.2-.2.3-.5.5-.6.1.3.3.5.3.8-.4 1.2 0 2.5.6 3.6.4.7.8 1.5 1.4 2.1.6.7 1.2 1.5 1.9 2.2.7.7 1.1 1.7 1.4 2.7.3 1-.2 2-.3 3.1-.1 1.2.3 2.4.6 3.6.3 1 .2 2 0 3-.1.5-.2 1.1-.4 1.6-.3.8-.3 1.6-.7 2.3-.4 1.1-1.1 2.3-1.1 3.5 0 .6.1 1.2.1 1.9 0 1-.2 2.1-.6 3-.6 1.6-1.6 3-1.8 4.7-.1.8-.2 1.5-.3 2.3-.1.9.1 1.7.4 2.5.3.9.9 1.7 1.5 2.4.8.8 1.5 1.7 2.2 2.6.6.7.8 1.5 1 2.3.5 1.8.3 3.7 1.1 5.3.2.4.3.9.7 1-1.2.4-2.2 1.1-3.4 1.4-1.4.4-2.7.9-4.1 1.1-1.3.2-2.5.5-3.8.4-1.4 0-2.7 0-4.1-.1-1.3-.1-2.6-.1-3.8-.3-1.2-.3-2.4-.7-3.6-1-1.4-.6-2.9-1.4-3.9-2.7-.4-.6-.8-1.2-1.2-1.9-.4-.8-.6-1.6-.8-2.5-.2-.9-.4-1.9-.5-2.9-.1-1.2-.2-2.3-.1-3.5.8.2 1.7 0 2.5-.1.6-.1 1.3-.2 1.9-.5 1.2-.7 2.4-1.5 3.4-2.5.8-.8 1.4-1.7 2-2.7.6-1 1.1-2.1 1.4-3.2.1-.4.2-.8.4-1.1.7-.7 1.8-.2 2.7-.4-.5-.5-1.2-.8-1.8-1.1-1.1-.7-2.1-1.6-3.1-2.4-.5-.4-.9-.9-1.3-1.3-.3-.3-.4-.7-.7-.8-.4-.9-.7-1.9-.9-2.9-.4-2-.4-4-.1-6 .3-2 .4-4.1.8-6.1.2-1.1.5-2.3 1-3.4.4-.4.7-1 1.1-1.5 1.4-1.6 3-2.8 4.8-3.8.8-.5 1.7-.9 2.6-1.2.8-.3 1.6-.7 2.3-1.2.3-.2.7-.5.8-.9.3-.1.7-.4 1-.8z"/><path class="st17" d="M90 17.7c-.6-1.1-1-2.4-.6-3.6.2.5.3 1.1.6 1.5.3.5.6 1.1 1 1.6s.9.8 1.3 1.3c.2.3.5.5.8.7.9.6 1.7 1.2 2.6 1.8.6.6 1.2 1.3 1.5 2.1.2.7.4 1.4.5 2.2.1 1.7-.2 3.5.1 5.2.1 1.1.4 2.2.2 3.4-.1.7-.3 1.5-.7 2.1-.8 1.2-1.8 2.3-2.6 3.6-.5.8-.7 1.7-.9 2.5-.3 1.3.1 2.8-.5 4-.5 1.1-1.4 2-1.9 3.2-.4 1.1-.8 2.3-.5 3.5.3.9.6 1.8 1.3 2.4.4.4.9.8 1.4 1.2.8.8 1.7 1.3 2.6 2 .4.4 1 .8 1.2 1.3.8 1.5.8 3.2.9 4.9 0 1 .3 1.9.6 2.8.2.5.5.9.7 1.3-.8.4-1.6.9-2.4 1.3-.5-.1-.6-.7-.7-1-.8-1.7-.6-3.6-1.1-5.3-.3-.8-.5-1.7-1-2.3-.8-.9-1.5-1.7-2.2-2.6-.6-.7-1.2-1.5-1.5-2.4-.3-.8-.5-1.7-.4-2.5.1-.8.2-1.5.3-2.3.3-1.7 1.2-3.2 1.8-4.7.4-1 .6-2 .6-3 0-.6-.2-1.2-.1-1.9 0-1.3.7-2.4 1.1-3.5.4-.7.5-1.5.7-2.3.2-.5.3-1.1.4-1.6.2-1 .3-2 0-3-.2-1.2-.7-2.4-.6-3.6.1-1 .6-2 .3-3.1-.3-1-.6-2-1.4-2.7-.7-.7-1.2-1.5-1.9-2.2-.7-.8-1.1-1.6-1.5-2.3zm-9.6-.2c2.3-1.1 4.9-1.5 7.1-2.7-.2.4-.5.7-.8.9-.7.5-1.5 1-2.3 1.2-.9.3-1.8.7-2.6 1.2-1.8 1-3.5 2.2-4.8 3.8-.4.4-.7 1-1.1 1.5.4-1.1 1-2.1 1.6-3.1.7-1.1 1.7-2.2 2.9-2.8zm1.5 14c.4-.1.6.3.9.5.3.1.7-.3 1 0 .1.4-.2.6-.4.9-.2.3-.4.7-.7.8-.2.1-.4.2-.5 0-.3-.5-.3-1.1-.3-1.7-.1-.2-.2-.4 0-.5zM75 41.7c.3.2.5.6.7.8.4.5.8 1 1.3 1.3 1 .8 2 1.7 3.1 2.4.6.3 1.3.6 1.8 1.1-.9.2-1.9-.2-2.7.4-.2.3-.3.8-.4 1.1-.3 1.1-.8 2.2-1.4 3.2-.6 1-1.2 1.9-2 2.7-1 1.1-2.2 1.8-3.4 2.5-.6.3-1.2.4-1.9.5-.8.1-1.7.3-2.5.1.1-.2 0-.6.3-.7.5-.1 1-.4 1.4-.7 1.1-.6 2.1-1.3 3-2.1.9-.9 1.8-1.9 2.3-3 .5-1.1.7-2.3.8-3.6.1-1.1.1-2.2.1-3.3 0-.5 0-1-.1-1.4.1-.3-.2-.7-.4-1.3z"/><path class="st16" d="M115.2 53.2c.4 0 .7-.3 1.1-.3 1.5 0 3 .2 4.5.7.6.2 1.3.6 1.7 1.1.6.7 1.3 1.2 1.9 1.9.5.6.9 1.2 1.4 1.8.5.7 1.2 1.3 1.5 2.1.3 1.1.1 2.2-.1 3.3-.3 1.2-.5 2.4-.9 3.6-.3 1.1-.7 2.1-1.2 3.1-.6 1.6-1.3 3.2-2.1 4.7-.2.5-.6 1-.4 1.5.5 1.5 1.2 3 1.7 4.6.5 1 .9 2 1.3 3.1.2.9.7 1.8 1 2.7.3 1.1.8 2.1 1.1 3.3.2.8.6 1.6.7 2.4.3 1.3.6 2.6.8 3.9.5 3 .4 6 .2 9-.2 2-.8 3.9-1.4 5.8-.4 1.3-1.1 2.5-1.6 3.8-.6 1.1-1.2 2.1-1.9 3.1-.5.6-.9 1.2-1.4 1.8-.6.6-1.2 1.3-2.1 1.4-.9.2-1.7-.2-2.5-.5-.9-.5-1.7-1-2.5-1.5-.7-.4-1.3-1-1.9-1.5-.1-.5-.4-.9-.5-1.4-.7-1.8-1.4-3.7-1.6-5.7 0-1.2.2-2.5.3-3.7.1-.4.1-.8.4-1.1.5-.5 1.2-.8 1.8-1.2 1.5-1 2.8-2.3 3.7-3.9.6-1.2 1-2.4 1.3-3.6.2-.9.3-1.7.2-2.6 0-.4.1-.8.2-1.1.1-1.5 0-2.9-.3-4.3-.4-2.1-1.4-4-2.1-6.1 0-.5 0-1.1.2-1.5.7-1.4 1.2-3 1.4-4.6.2-1.4.1-2.9-.3-4.3-.1-.4-.4-.8-.6-1.3-.1-1.1-.7-2-1.1-2.9.7-.7 1.5-1.3 2.4-1.8.7-.4 1.6-.5 2.1-1.1-.4-.3-.9-.6-1.3-.9-.2-.2-.4-.4-.6-.5-.2 0-.4.1-.6.1-1.1.1-2.2 0-3.3 0-.6.3-1.2.8-1.9.9-.3 0-.6 0-.7-.3-.1-.5 0-1 .1-1.5-.3-.1-.3-.4-.3-.6-.1 0-.2-.1-.2-.1 0-.2-.2-.4 0-.6.8-1.4 1.7-2.6 2.9-3.6.5-.4.9-.8 1.4-1 1.2-.5 2.4-.4 3.6-.6-.6-.6-1.1-1.2-1.8-1.6-1.1-.3-2.5-.2-3.6-.6-.4-.2-.7-.4-.8-.9 0-.6.4-.9.7-.9zm-53.2 5c.1-.1.3 0 .4 0-.1.5 0 .9 0 1.4-.2.8-.1 1.7-.2 2.5-.1 1.5-.2 3.1-.3 4.6-.4 2.5-.7 4.9-1.2 7.4-.1.4-.2.8-.1 1.2v.1c-.5.4-.9.9-1.3 1.5-1.1 1.4-2.3 2.7-3.2 4.2-.6.9-1.1 1.9-1.6 2.9h-.1c-.8.9-1.3 1.9-1.9 2.9-1.2 2.2-2.4 4.3-3.4 6.6-1.9 4.7-2.4 9.8-2.4 14.9v1.2c0 .3.3.3.5.5-.7 1.7-1.5 3.3-2.2 5-.5 1.3-1 2.5-1.2 3.9-.3 1.6-.1 3.2-.1 4.8.2 1.4.2 2.8.3 4.1.1 1.5.1 3 .2 4.5v3.8c0 1.6-.2 3.2-.2 4.8-.2 2.2-.6 4.4-1 6.6v-.4c-.8 1.9-1.4 3.9-2 5.9-.4 1.5-.8 3-.9 4.5-.1.8-.2 1.5-.4 2.3-.8 2.9-.9 6.1.4 8.9.3 1 .3 2.1.6 3.1-.3 1.8-.8 3.5-1.4 5.3-.3 1-.6 2-.7 3.1-.1.8-.4 1.6-.8 2.3-.3.6-1.3.5-1.5-.1-.1-.5-.1-.9-.1-1.4 0-1.5 0-3.1-.1-4.6-.2.9-.4 1.9-.7 2.9-.4 1.2-.5 2.5-.3 3.7.3 1.2.8 2.3 1.4 3.3.3.5.2 1 .1 1.5 0 .3-.2.6-.5.6-.9 0-1.7-.4-2.3-1 0 .3-.1.7-.2 1-.1.3-.4.4-.7.3-.4-.2-.5-.7-.6-1.1-.4-.9-.6-1.9-.8-3-.5-3-.3-6-.2-9 0-2.4.9-4.8.5-7.2-.7-1.7-1.4-3.5-2-5.2-.4-1.2-.7-2.4-1-3.6-.3-1.3-.5-2.5-.7-3.8-.1-1.3-.4-2.6-.5-3.8-.1-1.3-.3-2.6-.4-3.8-.1-1.7-.2-3.4-.3-5.2 0-2.8.1-5.6.2-8.4.1-1.8.3-3.5.4-5.3.2-.1.6-.1.6-.4.2-1.2.3-2.3.5-3.5.1-.6.4-1.1.6-1.7.4-1 .6-2 1.1-2.9.4-.9.9-1.9 1-2.9.1-.7-.3-1.4-.4-2.2-.3-1.7-.7-3.3-1-4.9-.2-1.1-.3-2.2-.1-3.2-.1-.2-.2-.5-.2-.8-.1-1.8-.1-3.6 0-5.4v-1c.9-3.7 2.1-7.3 3.4-10.9.4-1 .8-2.1 1.2-3.1.7-1.6 1.6-3.2 2.4-4.7.5-1 1-1.9 1.5-2.9.6-1 1.3-2 2-3.1.5-.8 1.1-1.5 1.6-2.3l1.8-2.4c.7-.9 1.5-1.7 2.3-2.5.6-.6 1.1-1.3 1.7-1.8.8-.8 1.8-1.4 2.6-2.2 1.4-1.1 2.9-2.1 4.4-3 1.7-1.1 3.5-1.8 5.3-2.6.8-.4 1.5-.5 2.2-.8z"/><path class="st17" d="M62.3 62.1c.1-.8 0-1.7.2-2.5.4 1.6.2 3.2.1 4.9-.1 2-.1 4-.3 5.9-.2 1.3-.4 2.7-.9 4-.2.3-.4.6-.7.8-.1-.4.1-.8.1-1.2.5-2.4.8-4.9 1.2-7.4.1-1.4.2-3 .3-4.5z"/><path class="st3" d="M119.1 64.4c.2 0 .4-.1.6-.1.2.1.4.4.6.5.4.4.9.6 1.3.9-.5.6-1.4.7-2.1 1.1-.9.5-1.7 1-2.4 1.8-.1-.1-.2-.3-.3-.4.9-1.3 1.8-2.6 2.8-3.7-.2-.1-.3-.1-.5-.1zm-.9 7.1c.2.4.4.8.6 1.3.4 1.4.5 2.9.3 4.3-.2 1.6-.7 3.1-1.4 4.6-.2.5-.2 1-.2 1.5-.6-1.3-.7-2.8-.5-4.2.2-1.3.6-2.6.9-3.8.2-1.3.4-2.5.3-3.7zM54.4 83.9h.1c-.5 1.3-1 2.6-1.3 3.9-.4 1.7-.8 3.3-.7 5 0 .9 0 1.9.1 2.8.1.9 0 1.7 0 2.6-.2.6-.5 1.1-.7 1.6-.6 1.1-.9 2.4-1.6 3.5-1.1 2.2-2.1 4.5-3.2 6.7-.2-.1-.5-.2-.5-.5-.1-.4 0-.8 0-1.2 0-5 .5-10.2 2.4-14.9.9-2.3 2.2-4.4 3.4-6.6.7-.9 1.2-2 2-2.9zm62.3 17c1.6-1.7 2.4-4 3-6.2.1.9 0 1.8-.2 2.6-.3 1.2-.8 2.5-1.3 3.6-.9 1.6-2.2 2.9-3.7 3.9-.6.4-1.3.7-1.8 1.2-.3.3-.3.7-.4 1.1-.2 1.2-.3 2.5-.3 3.7.2 2 .8 3.9 1.6 5.7.2.5.5.9.5 1.4-1.5-1.3-2.8-2.9-3.8-4.6-.9-1.6-1.8-3.1-2.4-4.8.6-.8 1.2-1.6 2-2.2.7-.6 1.4-1.3 2.2-1.8.9-.6 1.7-1.2 2.6-1.8.5-.5 1.3-1.1 2-1.8zm-87-.6v1c-.2 1.8-.1 3.6 0 5.4 0 .3.1.5.2.8-.1 1.1-.1 2.2.1 3.2.3 1.7.7 3.3 1 4.9.1.7.4 1.4.4 2.2-.1 1-.5 2-1 2.9-.5.9-.7 2-1.1 2.9-.2.6-.5 1.1-.6 1.7-.2 1.2-.3 2.3-.5 3.5 0 .3-.4.3-.6.4.2-2.9.5-5.9.5-8.8 0-1.9-.1-3.9-.1-5.8v-4.3c.1-2.3.5-4.5.9-6.8.3-1 .5-2.1.8-3.2zM41 153.1c.6-2 1.2-3.9 2-5.9v.4c-.2 1.3-.3 2.6-.5 3.9-.3 1.5-.6 3-.7 4.5-.3 2.4-.9 4.8-1.2 7.2-.1.7 0 1.4 0 2.1 0 .4.1.9.2 1.3.3 1.7.2 3.5-.2 5.2-.3-1-.3-2.1-.6-3.1-1.3-2.8-1.2-6-.4-8.9.2-.7.3-1.5.4-2.3.3-1.4.6-3 1-4.4z"/><path class="st0" d="M85.1 7.6c1.1-.1 2.1 0 3.2 0v.2c-1.1 0-2.1 0-3.2.2-1.9.3-3.7 1.2-5 2.6-.7.7-1.6 1.2-2.6 1.5-1.3.4-2.6 1.1-3.7 1.9-.5.4-.9.8-1.3 1.2 1.1-1.7 3-2.9 4.9-3.5.7-.2 1.4-.6 2-1 .5-.4.9-.8 1.3-1.2 1.2-1 2.7-1.7 4.4-1.9z"/><path class="st0" d="M84.6 9.2c1-.5 2.1-.6 3.2-.6.7 0 1.5 0 2.1.4-.7.1-1.4-.1-2.1 0-1 .1-2.1.2-3 .7-1.7.7-3.1 2-4.7 2.8-.8.4-1.7.8-2.6 1.1-1.9.6-3.7 1.9-4.8 3.6-.8 1.4-1.3 2.9-2.1 4.2.3-1.1.8-2.1 1.2-3.1.7-1.8 2.1-3.4 3.8-4.4 1.1-.6 2.3-.9 3.4-1.5 1.2-.5 2.3-1.2 3.4-2 .6-.4 1.4-.8 2.2-1.2zm6.1-.5h.2c-.3.8-.6 1.5-.9 2.2-.2.5-.3 1.1-.5 1.6.4.9.9 1.8 1.5 2.7.9 1.1 2.2 1.7 3.3 2.5 1.2 1 2.4 2 3.3 3.3.8 1.3 1.3 2.9 1.3 4.4 0 1-.4 2-.1 3.1.3 1.7 1.1 3.3.8 5.1-.1.8-.6 1.5-1 2.2-.6 1-1.4 1.8-2 2.9-.5.9-.8 1.9-1 2.9-.1.7 0 1.4 0 2.1 0 1.5-.6 2.9-1.4 4-.5.7-1.1 1.4-1.3 2.2-.4 1.3.1 2.6.9 3.6 1.2 1.6 2.7 2.9 3.9 4.5.6.8 1.1 1.8 1.3 2.9.2.9.2 1.7.3 2.6.1.9.1 1.8.5 2.6s1.1 1.4 1.7 2c.9 1.2 1.4 2.6 1.4 4.1.1 1.1-.4 2.1 0 3.2.3.9.8 1.8 1.7 2.1.8.3 1.6.3 2.4.5.7.2 1.4.3 2 .7.7.4 1.3 1 1.8 1.6.7.8 1 2 .8 3.1-.1-.6-.2-1.3-.4-1.9-.2-.5-.5-1-.9-1.4-.6-.7-1.4-1.3-2.2-1.5-.7-.2-1.4-.4-2.1-.5-.8-.1-1.5-.3-2.1-.7-1-.8-1.5-2.1-1.3-3.4.1-1.1.2-2.2-.1-3.3-.2-.9-.6-1.7-1.1-2.4-.5-.6-1.1-1.1-1.5-1.7-.5-.8-.6-1.8-.6-2.8-.1-1.9-.3-3.9-1.5-5.5-1.2-1.5-2.6-2.8-3.7-4.2-.8-1-1.4-2.2-1.3-3.4 0-1.1.6-2 1.2-2.9 1-1.3 1.7-2.8 1.6-4.5-.2-2.3.6-4.6 2-6.4.7-.8 1.2-1.7 1.8-2.7.5-1.1.3-2.4-.1-3.6-.4-1.3-.8-2.7-.5-4.2.3-2-.2-4.1-1.4-5.7-1.2-1.7-2.9-3-4.6-4.2-.7-.5-1.4-1.1-1.8-1.9-.4-.8-.8-1.5-1-2.3-.1.3-.2.6-.4.9h-.2c.1-.6.4-1.1.6-1.7-.2-.8.2-1.8.7-2.8z"/><path class="st0" d="M92.7 8.9c.6-.1 1.2 0 1.8 0 .7 0 1.3 0 2 .2 1.8.5 3.5 1.2 4.8 2.5 1.2 1.2 2.3 2.5 3 4 .5.9.7 1.8 1 2.8.4 1.5.4 3.1.8 4.7.3 1.8.8 3.6 1.7 5.1 1 1.4 2.4 2.6 3.4 3.9.6.8 1.2 1.6 1.6 2.5.6 1.3.9 2.8.9 4.2.1 1.3-.2 2.6-.3 3.9-.1 2 .3 4 1.4 5.6.8 1.2 1.7 2.2 2.4 3.4.2.3.4.7.4 1.1-.4-.1-.5-.6-.8-.9-.8-1.2-1.8-2.2-2.5-3.4-.5-.8-.9-1.8-1.1-2.7-.2-1.3-.3-2.6-.1-3.8.1-1.1.3-2.2.2-3.3-.1-1.4-.3-2.9-1-4.2-.6-1.2-1.4-2.3-2.4-3.2-.9-1-1.9-1.9-2.6-3-.9-1.5-1.4-3.2-1.7-4.9-.4-1.8-.4-3.7-1-5.5-.3-1.2-.8-2.4-1.5-3.5-.8-1-1.6-2.1-2.5-2.9-.9-.8-2-1.3-3.1-1.7-.6-.2-1.2-.4-1.9-.5-.7-.1-1.5-.1-2.2-.2-.9-.1-1.7.3-2.6.3.7-.3 1.3-.4 1.9-.5zM87 10.4c.8-.3 1.6-.7 2.4-.8 0 .1.1.2.1.2-.7.2-1.4.4-2.1.8-1 .4-1.9 1-2.8 1.6-1 .6-2.1.8-3.1 1-1.2.4-2.5.7-3.6 1.4-1.5.7-2.6 1.9-3.6 3.1-.9 1.2-1.8 2.5-2.5 3.9-1 2.1-2 4.3-2.6 6.6-.5 1.6-.8 3.3-1.3 5-.6 2-.8 4.1-1 6.2 0 1.5.1 3 .4 4.5.2.8.3 1.6.2 2.4-.1 1.3-.7 2.5-1.4 3.6-1 1.5-2.3 2.9-3.2 4.5-.6 1-.8 2.2-1.3 3.3-.1-.2-.1-.5-.1-.7.2-1 .5-1.9 1-2.8.9-1.6 2.2-2.9 3.2-4.4.7-1 1.2-2.2 1.3-3.5.1-1.3-.3-2.6-.4-4-.1-1.3-.2-2.7-.1-4.1.1-1.8.4-3.5.9-5.2.3-1.2.6-2.4.9-3.7.7-2.4 1.4-4.7 2.6-6.9.5-1.1 1.2-2.2 1.9-3.3.8-1.3 1.8-2.5 3-3.5 1.1-.9 2.3-1.6 3.6-2.1 1.1-.4 2.2-.7 3.3-1 1.5-.3 2.8-1.4 4.3-2.1z"/><path class="st0" d="M91.4 10.4c.7-.2 1.4 0 2.1 0 .9 0 1.7.4 2.5.8.9.6 1.6 1.3 2.4 2 1 .8 1.8 1.8 2.5 2.8 1.1 1.7 2.1 3.5 2.7 5.4.4 1.3.8 2.6 1.2 4 .2.8.3 1.7.6 2.5.3 1.1.5 2.3 1.1 3.3.5.8.9 1.6 1.5 2.4.3.4.7.7 1 1.1.8 1.1 1.5 2.4 1.6 3.8.1 1.3-.2 2.7-.1 4 .2 1 .4 1.9.8 2.8.4.8.8 1.6.9 2.4.1.8-.1 1.5-.1 2.3 0 .8.1 1.5.3 2.3.2.6.4 1.1.7 1.6.3.9.6 1.8.4 2.7-.2 1.3-.4 2.6-.5 3.9h-.3c0-1.4.3-2.7.5-4 .1-1-.2-2-.6-2.9-.6-1.2-.9-2.6-.8-3.9 0-.6.2-1.2.1-1.8-.2-1-.6-1.8-1-2.7-.4-.9-.6-2-.7-3 0-1.6.4-3.1 0-4.7-.3-1.1-1-2.1-1.7-3-.6-.6-1.1-1.3-1.6-2-.5-.8-1-1.7-1.2-2.6-.4-1.3-.7-2.5-.9-3.8-.4-1.9-1-3.7-1.6-5.6-.6-1.5-1.4-3-2.3-4.4-.7-1-1.5-1.9-2.4-2.7-.7-.6-1.4-1.3-2.1-1.8-.4-.3-.9-.5-1.4-.7-1.3-.4-2.5-.2-3.6-.5z"/><path class="st0" d="M96.4 10.4c.7.1 1.5.3 2.1.8.8.6 1.6 1.1 2.3 1.9 1.5 1.5 2.4 3.5 3 5.5.2.7.5 1.5.4 2.3-.2-1-.5-2-.9-3-.6-1.5-1.2-3-2.3-4.2-.4-.5-.9-1-1.5-1.4-.7-.5-1.3-1.2-2.1-1.4-.3-.2-.6-.3-1-.5zm-10.6 2.4c1.2-.7 2.3-1.7 3.6-2.1-.2.4-.6.5-1 .7-.9.5-1.7 1.3-2.6 1.8-.7.3-1.3.7-2.1.9-1.1.3-2.3.6-3.4 1-1.9.7-3.6 1.9-4.9 3.5-.9 1.1-1.6 2.3-2.3 3.5-.4.8-.9 1.6-1.2 2.4-.7 1.5-1.3 3-1.6 4.6-.3 1.3-.6 2.7-.8 4-.3 1.5-.6 3-.6 4.6-.1 1.6 0 3.1.1 4.7.1 1.1.2 2.3.1 3.4-.2 1.9-1 3.6-1.9 5.2-.6 1.1-1.4 2-2.2 3-.6.7-1.2 1.5-1.8 2.2-.3.3-.5.6-.9.7.3-.5.7-.9 1-1.3l2.1-2.7c1.1-1.4 2-2.9 2.7-4.5.4-1.2.7-2.4.7-3.6-.1-2.3-.4-4.7-.2-7 0-1.6.3-3.2.6-4.7.5-2.5.9-5 1.9-7.4.7-1.9 1.8-3.7 2.8-5.5 1.1-1.8 2.7-3.4 4.6-4.5 1.7-1 3.6-1.4 5.4-2 .8-.2 1.3-.5 1.9-.9zm4.7-1c0-.1.1-.2.1-.2.9.4 1.7.9 2.5 1.4.9.7 1.8 1.4 2.6 2.3 1.2 1.3 2.1 2.8 2.9 4.4.9 1.8 1.7 3.7 1.8 5.7.2 1.2-.1 2.4.2 3.5.3 1 .5 2 .7 3 .2 1.2 0 2.4-.1 3.5-.1.9-.6 1.8-.8 2.7-.2.8-.5 1.5-.7 2.2-.2.6-.2 1.2-.4 1.8-.6 1.3-.5 2.9-1.3 4.2-.4.7-.8 1.5-1 2.4-.2.9-.5 1.8-.4 2.7.2 1.6.7 3.2 1.6 4.5.6.9 1.3 1.9 1.7 2.9.8 2 .2 4.2 1 6.1.5 1.3 1.6 2.1 2.5 3.1.6.6.8 1.4 1.1 2.2.2.7.2 1.4.5 2 .4.9 1.3 1.4 1.8 2.1.5.6.7 1.3 1.2 1.8.8.8 1.9 1.2 2.7 2 1.2.9 2.1 2.2 2.8 3.5.5.8.7 1.7.9 2.6.2.8.2 1.6.1 2.4-.1.9-.5 1.7-.4 2.6.1 1.1.5 2.3 1 3.3.6 1.1 1 2.4 1 3.7 0 .5-.1.9-.2 1.4 0 .1-.1.3-.2.3 0-.9.1-1.8-.1-2.6-.2-1.2-.7-2.2-1.2-3.3-.5-1.4-1-2.9-.5-4.4.4-1.3.4-2.6 0-3.9-.3-1.3-1-2.5-1.8-3.6s-1.9-2-3.1-2.7c-.6-.3-1.2-.8-1.6-1.3-.4-.5-.6-1.1-1-1.5-.4-.6-1-1-1.5-1.6-.4-.5-.6-1.1-.7-1.7-.1-.9-.4-1.8-.8-2.6-.6-1-1.6-1.7-2.3-2.7-.6-.8-.9-1.8-1.1-2.8-.1-1.2-.1-2.3-.3-3.5-.2-1-.7-1.9-1.3-2.8-.6-.8-1.1-1.6-1.5-2.5-.5-1.3-.9-2.8-.8-4.3.3-1.4.6-2.8 1.4-4 .7-1.1.7-2.5 1.1-3.7.5-1.2.6-2.4 1-3.6.2-.6.3-1.2.6-1.8.9-2 1-4.4.5-6.5-.2-.9-.5-1.7-.6-2.5-.1-1 .1-2-.1-3.1-.2-1.8-.9-3.6-1.7-5.2-.8-1.6-1.6-3.1-2.8-4.4-.6-.6-1.2-1.2-1.8-1.7-1-.7-2.1-1.2-3.2-1.8z"/><path class="st0" d="M92.6 11.7c.6-.1 1.2.2 1.8.3.7.3 1.4.4 1.9.9.4.3.9.6 1.3 1 .7.7 1.3 1.4 2 2.2.6.7 1 1.5 1.5 2.3.6 1 1 2.2 1.3 3.3.3 1.1.6 2.2.8 3.3.3 1.7.3 3.5.9 5.2.4 1.3.9 2.6 1.7 3.7.4.7.9 1.2 1.4 1.8.6.7.9 1.6 1.1 2.4.2 1.1-.3 2.1-.5 3.1s0 2.1.7 2.8c.6.6 1.2 1.2 1.4 2.1.5 1.2.4 2.5-.1 3.6-.3.9-.5 2 .1 2.9.7 1 1.3 2.1 1.4 3.3.1.8-.1 1.7-.3 2.5-.4 1.8-.2 3.6.2 5.3.2.7.3 1.4.6 2 .5.9 1 1.9 1.5 2.8.5.9 1.2 1.7 1.7 2.7.4.9.9 1.8.7 2.8-.1-.9-.5-1.7-.9-2.5-.5-1.1-1.3-1.9-1.9-3-.6-1.1-1.2-2.1-1.6-3.2-.6-1.8-1-3.6-.9-5.5 0-1 .3-1.9.5-2.9s-.1-2-.6-2.9c-.4-.9-1.1-1.6-1.2-2.5-.2-1.3.6-2.5.6-3.7.1-.8-.2-1.6-.5-2.3-.4-.9-1.3-1.3-1.7-2.2-.4-.8-.4-1.8-.2-2.7.2-.8.5-1.6.4-2.5-.1-.6-.3-1.1-.5-1.7-.3-.6-.8-1.1-1.2-1.6-1.3-1.5-2.1-3.3-2.5-5.2-.3-1.3-.4-2.6-.6-3.8-.2-1-.3-2-.6-3-.3-1.2-.6-2.3-1.1-3.4-.3-.8-.8-1.6-1.3-2.3-.5-.8-1.1-1.5-1.7-2.2-.5-.5-.9-1-1.5-1.5-.5-.4-1-.9-1.7-1.1-.6-.1-1.5-.3-2.4-.6zm-4.4 1.1c.2-.1.4-.2.6-.2-.1.3-.3.5-.5.7-1 .9-2.2 1.5-3.4 1.8-1.8.5-3.6.9-5.3 1.8-1.8 1-3.2 2.6-4.3 4.4-.6 1-1.1 1.9-1.5 2.9-.9 2.2-1.6 4.5-2.1 6.8-.4 2.1-.6 4.2-.6 6.2-.1 2.4.1 4.9.2 7.3.1 1.1-.2 2.3-.6 3.3-.4 1.2-.9 2.4-1.6 3.4-.9 1.3-1.9 2.5-3.1 3.5-.5.4-1.1.9-1.6 1.3-.2.1-.4.2-.6.2 1.4-1.4 2.9-2.6 4.1-4.1.8-.9 1.5-1.9 1.9-3 .5-1.3 1.1-2.6 1.1-4 0-1.6-.1-3.1-.2-4.7-.1-2.4 0-4.9.2-7.3.3-2.2.8-4.3 1.5-6.3.6-1.6 1.1-3.3 2-4.8 1-1.8 2.2-3.4 3.8-4.7 1.5-1.2 3.2-1.8 5-2.3 1-.4 2.1-.6 3.1-1.1.6-.1 1.3-.6 1.9-1.1z"/><path class="st0" d="M90.7 12.9c.3.1.5.4.7.6 1.3 1.2 2.5 2.4 3.7 3.6.5.5.9 1 1.3 1.6-.4-.4-.8-.9-1.2-1.4-1.3-1.3-2.9-2.5-4.2-3.8-.2-.2-.2-.4-.3-.6zm6.5 2.7c1.3 1 2.1 2.5 2.8 3.9.5 1 1 2.1 1.3 3.3.4 1.2.7 2.4.8 3.7.1 1.2.1 2.4.3 3.6.1 1.1.2 2.2.6 3.3.3.9.8 1.7 1.4 2.4.9 1.1 1.6 2.6 1.6 4 .1 1.3-.5 2.5-.1 3.7.3 1 1.2 1.6 1.6 2.4.6 1.1.6 2.5.1 3.6-.4.8-.5 1.7-.3 2.6.3 1.4 1.5 2.3 1.7 3.7.2 1.5-.4 2.9-.5 4.4-.1 1.2.2 2.5.5 3.7.4 1.6 1 3.1 1.8 4.5.8 1.5 1.8 3 2.3 4.7.4 1 .2 2.1.3 3.2 0 .7.2 1.4.2 2.1-.3-.7-.4-1.5-.5-2.3-.1-.9 0-1.9-.3-2.8-.5-1.7-1.5-3.2-2.3-4.7-.8-1.4-1.5-2.9-1.8-4.5-.3-1.4-.6-2.9-.4-4.3.1-1.3.7-2.6.4-3.9-.2-.9-.8-1.5-1.3-2.3-.6-1-.8-2.4-.4-3.5.2-.5.4-1 .5-1.5.2-.7.1-1.5-.2-2.1-.4-1-1.4-1.5-1.8-2.5-.4-.9-.2-1.9 0-2.8.3-1.7-.2-3.4-1.2-4.8-.4-.6-.9-1.1-1.3-1.8s-.7-1.6-.8-2.4c-.2-1.7-.4-3.5-.5-5.2-.1-1.2-.3-2.4-.7-3.5-.5-1.8-1.3-3.5-2.1-5.1-.3-1-1-1.9-1.7-2.8z"/><path class="st7" d="M83.1 22.3h-.2c0 .3 0 .5-.1.8-.1-.5-.1-1-.3-1.4 0 .1-.1.4-.1.5-.5-.8-1.5-1.3-2.4-1.3-1.2-.1-2.4.3-3.4 1-.3.2-.3.5-.4.8 1.1 0 2.1.1 3.1.3.6.2 1.1.4 1.7.6.6.2 1.2.5 1.8.5.2-.6.4-1.2.3-1.8zm12 2.1c-.9-.8-1.9-1.5-3-1.8-1.1-.2-2.3 0-3.2.7v-.4c-.3.2-.5.6-.6.9v-.5c-.4.4-.3 1-.2 1.4 1.2.1 2.3-.3 3.4-.4 1.1-.1 2.3.1 3.3.6.2.1.4.2.7.4 0-.3-.2-.6-.4-.9z"/><path class="st18" d="M78.1 25.4c.3-.1.6.1.7.4.1.5-.3 1.1-.8.9-.6-.3-.4-1 .1-1.3z"/><path d="M84.3 25.9c.3-.2.3.2.2.4-.2 1.8-.4 3.5-.7 5.3 0 .4-.5.6-.8.4-.6-.2-1.3-.4-1.7-.9-.3-.3-.1-.8.1-1.1.6-.9 1.2-1.8 1.9-2.7.3-.4.6-.9 1-1.4zm-2.7 4.9c.4-.8.9-1.5 1.4-2.2-.6.6-1 1.4-1.4 2.2zm1.3.2c-.1 0-.2.2-.2.3 0 .4.7.5.8.2.1-.3-.4-.6-.6-.5z" style="fill:#e99679"/><path class="st0" d="M68.1 26.8c-.2 1.1-.7 2-1.4 2.9-.7.9-1.6 1.5-2.5 2.2-.9.7-1.8 1.4-2.4 2.3-.8 1.2-1.3 2.7-2 4-.9 1.6-2.2 2.9-3.3 4.4-.5.8-1.1 1.5-1.4 2.4-.4 1.8.2 3.6.4 5.4l.3 2.4c0 1.2-.1 2.5-.3 3.7-.3 1.8-.9 3.5-2.1 4.9-.1.2-.3.3-.5.4.2-.4.5-.8.7-1.2 1.1-2 1.5-4.2 1.7-6.4.2-2.1-.3-4.3-.6-6.4-.2-.8-.2-1.6-.1-2.5.1-.7.4-1.4.8-2 .7-1.1 1.5-2.2 2.4-3.2.8-.9 1.4-1.8 1.9-2.9.5-1.1 1-2.2 1.6-3.3.6-.9 1.5-1.6 2.3-2.3.8-.6 1.7-1.1 2.4-1.9.6-.7 1.1-1.4 1.5-2.3.3-.1.4-.4.6-.6z"/><path class="st18" d="M90.5 27.1c.3-.2.7 0 .7.3.1.4-.2 1-.7.9-.5-.2-.4-1 0-1.2z"/><path class="st17" d="M76.5 27.5v-.2c.5.1 1 .4 1.6.4.5.1 1-.1 1.4-.1-.8.8-2.1.5-3-.1z"/><path class="st16" d="M81.6 30.8c.3-.8.8-1.6 1.4-2.2-.5.7-.9 1.4-1.4 2.2z"/><path class="st17" d="M90.9 29c.5-.1 1-.2 1.6-.3-.4.7-1.3.7-2 .7-.5-.1-1.1-.1-1.4-.5.6-.1 1.2.2 1.8.1z"/><path class="st20" d="M75.4 29.9c.5-.2 1 .1 1.1.5.2.6.2 1.3-.3 1.7-.4.4-1 .5-1.4.2-.4-.3-.5-.8-.4-1.3.2-.4.5-.9 1-1.1z"/><path class="st0" d="M66.6 30.8c.1-.3.3-.7.5-1 0 .2-.1.5-.1.7-.6 1.8-1.2 3.7-1.6 5.6-.2 1.2-.3 2.5-.2 3.7.2 1.8.7 3.6.7 5.4-.1 1.7-1 3.4-2.3 4.5-1.4 1.3-2.2 3-2.5 4.9-.2.8-.1 1.7-.4 2.5 0 .2-.2.3-.3.4 0-.5.1-.9.1-1.4 0-2.1.6-4.1 1.9-5.7.5-.6 1.1-1.1 1.6-1.7 1-1.2 1.6-2.8 1.4-4.4-.1-1.5-.5-2.9-.6-4.4 0-1.3 0-2.6.2-3.8.4-1.8.9-3.6 1.6-5.3zm40.6-.6c.1 0 .3.1.4.2.7.9 1.3 2 2.1 2.8.4.4.9.8 1.2 1.3.7 1 1 2.3 1.2 3.5.2 2.2-.4 4.5.3 6.6.3 1.3 1.1 2.5 1.2 3.9.1.8 0 1.7.5 2.5.3.6 1 1.1 1.2 1.8-.7-.5-1.2-1.1-1.6-1.8-.5-.8-.3-1.9-.5-2.8-.2-1.2-.9-2.2-1.2-3.3-.7-2.2-.1-4.5-.3-6.7-.1-1.4-.5-2.8-1.4-3.8-.5-.5-1-1-1.5-1.6-.4-.6-.8-1.2-1.3-1.8-.1-.3-.2-.5-.3-.8z"/><path class="st20" d="M90.9 32c.6-.2 1.5.1 1.7.8.3.9-.4 2-1.4 2.1-.7.1-1.4-.4-1.4-1.1-.2-.8.4-1.5 1.1-1.8z"/><path class="st0" d="M64.8 33.1c.2-.3.4-.6.7-.8-.2.6-.5 1.2-1.1 1.6-.7.5-1.3 1-1.9 1.7-.4.5-.6 1.2-.7 1.8-.3 1-.5 2.1-1 3-.5 1-1.3 1.7-2 2.5-.6.6-1 1.4-1.3 2.2-.5 1.5-.3 3.1-.1 4.7.2 1.4.1 2.9 0 4.4-.1 1.4-.5 2.7-1.1 3.9-.3.7-.6 1.4-1.1 1.9.5-.9.8-1.9 1.2-2.8.3-1 .6-2.1.6-3.1.1-1.5.1-2.9-.1-4.4-.2-1.4-.3-2.8 0-4.2.1-.7.5-1.4.9-2 .8-1.2 2-2 2.6-3.3.7-1.3.8-2.7 1.3-4 .3-.8 1-1.4 1.7-1.9.5-.5 1-.8 1.4-1.2z"/><path class="st21" d="M78.8 34.7c.9-.4 1.9-.7 2.9-.5 1.3.2 2.6.6 3.5 1.5-1.2-.2-2.4-.2-3.7-.3-.8-.1-1.7-.6-2.7-.7zm2.6-.2c.5.2 1 .2 1.5.2-.5-.1-1-.3-1.5-.2z"/><path class="st20" d="M81.4 34.5c.5-.1 1 .1 1.5.2-.5 0-1-.1-1.5-.2z"/><path class="st21" d="M79.8 36.2c-.5-.4-1-.8-1.2-1.4.3.2.6.3.9.4 1 .3 2 .6 3.1.6.9 0 1.8 0 2.7.1-.4.5-1 .8-1.5 1.1-.9.3-1.9.2-2.7-.2-.5-.2-.9-.4-1.3-.6zm1-.3c.5.4 1.2.3 1.8.3l-1.8-.3z"/><path d="m78.6 34.8.2-.1c1 .1 1.8.6 2.8.7 1.2.1 2.4.1 3.7.3h.1s-.1.1-.1.2c-.9 0-1.8-.1-2.7-.1-1.1 0-2.1-.3-3.1-.6-.3-.1-.6-.3-.9-.4z" style="fill:#e21a4e"/><path class="st0" d="M63.5 36.3c.1-.4.4-.8.7-1.1-.9 2.1-1.1 4.4-.7 6.6.1 1.1.6 2.2.4 3.3-.1 1.5-1 2.9-2 4-1 1-1.7 2.2-2.1 3.4-.4 1.3-.6 2.7-.7 4-.1.5-.1 1-.4 1.4 0-.6.1-1.2.1-1.8 0-1 .2-2.1.4-3.1.2-1.1.7-2 1.3-3 .6-.9 1.4-1.6 2-2.5.6-.9 1-1.8 1-2.9 0-.9-.3-1.8-.4-2.6-.1-.7-.2-1.3-.2-2 0-1.1.2-2.4.6-3.7z"/><path class="st20" d="m80.8 35.9 1.8.3c-.6 0-1.3.1-1.8-.3z"/><path class="st0" d="M102.2 37.1c-.1-.3-.2-.7-.1-1 .7 2 1.1 4 1.1 6.1 0 2.3-.7 4.5-1.4 6.6-.5 1.4-.8 2.8-.4 4.3.1.5.3.9.6 1.3.5 1 1.1 1.9 1.3 3 .2 1 0 2.1-.1 3.1 0 .7 0 1.4.4 1.9.7.8 1.4 1.4 2 2.3.7 1.1 1.4 2.3 1.5 3.6.1.5 0 1 .2 1.5.4.7 1.1 1.1 1.7 1.6.9.6 1.4 1.6 1.8 2.5.2.4.3.9.4 1.4-.7-1-1-2.2-1.8-3.1-.7-.7-1.6-1-2.2-1.8-.5-.5-.5-1.1-.5-1.8 0-.8-.3-1.5-.6-2.2-.5-1-1-1.9-1.8-2.7-.6-.7-1.4-1.2-1.5-2.1-.2-1.2.2-2.4.1-3.5 0-1.4-.9-2.6-1.6-3.9-.6-1-.6-2.1-.5-3.2.1-1 .4-2 .8-3 .4-1.2.8-2.5 1-3.8.4-2.4.1-4.8-.4-7.1zm-3.2-.5h.3c-.4 1-1 1.9-1.5 2.9-.5 1.1-.4 2.4-.5 3.6-.2 2-1.1 3.8-2.1 5.5-.9 1.5-.6 3.3-.1 4.8.3.8 1.1 1.5 1.1 2.4-.4-1-1.3-1.7-1.6-2.8-.4-1.1-.5-2.4-.2-3.6.2-.7.6-1.2.9-1.8.7-1.3 1.4-2.8 1.6-4.3.1-1.2-.1-2.5.4-3.7.4-1.1 1.1-2 1.7-3z"/><path class="st0" d="M101 40.4c.1-.9.1-1.9.4-2.8-.1.8-.1 1.7-.2 2.6-.1 1.4-.1 2.8-.3 4.2-.3 1.5-1 2.9-1.6 4.3-.6 1.3-.9 2.8-.6 4.2.2.8.4 1.6.9 2.3.6.8 1 1.6 1.4 2.5.5 1.1.5 2.2.5 3.4-.1 1-.1 2 .3 3 .4.9 1.3 1.4 2 2.1.5.5 1.1 1.1 1.4 1.8.3.6.5 1.4.6 2.1 0 .7.2 1.4.7 1.9.7.7 1.7 1.2 2.4 2 .5.6.5 1.4 1 2 .3.5.9.8 1.4 1.2.8.6 1.3 1.4 1.7 2.3.1.2 0 .4-.1.6-.1-.6-.4-1-.7-1.4-.5-.6-1.1-1.1-1.7-1.5-.6-.4-1-.8-1.3-1.5-.2-.4-.3-.9-.5-1.3-.7-1-2.1-1.4-2.8-2.5-.6-.9-.3-2.1-.7-3.2-.3-1-1.1-1.8-1.9-2.5-.7-.6-1.4-1.1-1.8-1.9-.5-1.1-.3-2.4-.3-3.6 0-.9-.1-1.8-.4-2.7-.4-.8-.8-1.6-1.4-2.4-.6-.8-.9-1.8-1.1-2.8-.2-1.4.1-2.9.7-4.2.5-1.2 1.1-2.4 1.5-3.7.3-1.6.3-3 .5-4.5z"/><path class="st17" d="M79.5 38c1.2-.5 2.5-.2 3.7.1-.1 0-.3 0-.4.1.3.1.6.2.8.4-.6-.1-1.3-.3-1.9-.3-.7-.2-1.5-.1-2.2-.3z"/><path class="st0" d="M61.4 41.6c.2-.6.3-1.2.6-1.8-.1 1.1-.3 2.4-1 3.3-.6.9-1.4 1.6-1.8 2.6-.5 1.4 0 2.8-.4 4.2h-.2c.1-.6 0-1.2 0-1.7-.1-.7 0-1.4.1-2.1.2-.7.6-1.4 1-2 .8-.8 1.4-1.6 1.7-2.5zm42.4-1.5c.5 1.3.7 2.7.9 4.1.2 1.2.2 2.4-.1 3.5-.4 1.4-.9 2.9-.7 4.5.1.7.5 1.2.9 1.8.7 1 1.1 2.2 1.1 3.5 0 .7-.3 1.3-.4 2-.1 1 .3 2.1 1 2.8.7.8 1.3 1.9 1.6 2.9.3.9.2 1.9.6 2.7.2.5.5.8.6 1.3-.8-.5-1.2-1.6-1.3-2.5-.2-1.5-.7-3-1.7-4.2-.7-.8-1.1-1.8-1.1-2.9 0-.6.3-1.2.3-1.7.2-1.3-.2-2.6-1-3.7-.4-.6-.9-1.1-1-1.9-.2-1.5.2-3.1.7-4.5.3-.9.4-1.9.3-2.9-.1-1-.1-2-.3-2.9-.2-.6-.3-1.2-.4-1.9zM61.4 45c.1-.3-.1-.7.2-.9.1.4.3.8.2 1.2-.1.7-.5 1.3-.8 2-.4.6-.7 1.4-1.2 1.9.2-.5.5-.9.7-1.4.3-.9.8-1.8.9-2.8z"/><path class="st23" d="M114.6 53.3c.6-.5 1.9-.2 2 0 .1.2-.1.5-.3.6-.5.1-.9.1-1.4-.1-.2 0-.3-.2-.3-.5z"/><path class="st0" d="M58.1 53.4c.2.9 0 1.8-.1 2.7-.2 1.1-.4 2.3-1.1 3.2-.1 0-.1.1-.2.1.4-.8.6-1.6.8-2.4l.6-3.6z"/><path class="st24" d="M120.3 56.9c1.1-.2 2.3-.2 3.2.4-.7-.1-1.5-.2-2.2-.2-.3 0-.6-.1-1-.2z"/><path class="st11" d="M64.5 59.4c0-.2.1-.4.2-.6.2.7.1 1.4.2 2 .2 1.9.3 3.7.2 5.6-.1 2.2-.3 4.4-.4 6.6 0 .9 0 1.8-.2 2.7-.1-.5-.1-.9-.1-1.4 0-2.4.1-4.8.2-7.2V63c0-1.1-.2-2.3-.1-3.6z"/><path class="st17" d="M118 59.5c1.8-.5 3.9-.4 5.6.3-1.1 0-2.2-.3-3.3-.3-.8 0-1.7.1-2.5.4-.9.4-1.8.7-2.5 1.2-.6.4-1.2 1.1-1.9 1.4.6-.8 1.3-1.4 2.2-2 .8-.4 1.6-.7 2.4-1z"/><path class="st23" d="M112.5 62.7c-.1-.2.6-1.1.9-1.1.3 0 .4.3.3.5 0 .2-.6.9-.8.9-.1 0-.4-.1-.4-.3z"/><path class="st17" d="M117.4 61.9c.7-.2 1.4-.2 2.2-.2.7 0 1.4.1 2 .3.5.2 1 .5 1.4.7-.4 0-.8-.2-1.2-.3-1-.4-2-.4-3.1-.4-.7 0-1.4.3-2.1.5-.9.3-1.8.8-2.7 1.4 0 0-.1 0-.1.1.2-.4.6-.6 1-.8.9-.6 1.7-1 2.6-1.3z"/><path class="st23" d="M113.6 62.7c.3-.1.5.3.4.5-.2.5-.9 1.2-1.1 1.1-.2-.1 0-.7.2-1 .1-.3.3-.5.5-.6zM113 65c-.1-.1.5-1 .9-1.2 0 0 .1 0 .1-.1.2.1.4.2.4.4-.2.4-.8 1.1-1 1.1-.3.1-.3-.1-.4-.2 0 0 .1.2 0 0z"/><path class="st25" d="M114.3 66.6c.2.4.4.8.6 1.1.3.5.7 1 1 1.5.5.9.9 1.8 1.2 2.7.1.4.1.8.1 1.2-.1.9-.2 1.7-.4 2.6-.5 1.6-.9 3.3-.7 5 .2 1.5.6 2.9 1.2 4.2.4 1 .7 2 1 3 .4 1.4.5 2.9.4 4.3-.1 1-.3 2.1-.5 3.1-.3 1.5-1 2.8-1.9 4-.5.5-1 1-1.7 1.5.1-.5.5-.9.9-1.2.7-.6 1.1-1.3 1.6-2.1.6-1.2.9-2.5 1.1-3.9.3-1.6.3-3.3-.1-4.9-.3-1.3-.8-2.6-1.3-3.9-.7-1.8-1.2-3.7-1.1-5.7.1-1.2.5-2.5.8-3.7.2-.8.3-1.7.3-2.6 0-.7-.2-1.4-.5-2-.4-.8-.8-1.6-1.3-2.4-.3-.4-.7-1-.7-1.8z"/><path class="st11" d="M66.4 69.7c-.1-.3-.1-.5-.1-.8.3.8.6 1.6 1 2.4.6 1.2 1 2.6 1.8 3.7.6.9 1.3 1.8 1.7 2.8-.1-.1-.3-.2-.4-.3-.9-1.4-2.1-2.6-2.8-4.2-.3-1.2-.8-2.4-1.2-3.6zM62.8 75c.3-.9.4-1.8.7-2.6.2 1.3-.2 2.7-.7 3.9-.7 1.5-1.4 2.9-2.2 4.3-.3.6-.6 1.3-1.2 1.8.2-.5.5-1 .8-1.5.9-1.9 1.9-3.9 2.6-5.9zm34.7 1.1c.8-1.1 1.5-2.2 2-3.4.1.5-.1 1-.4 1.5-.6 1.2-1.4 2.4-2.3 3.5-1.1 1.4-2.3 2.7-3.5 4-.4.4-.7.8-1.3.9 1.1-1 2-2.1 2.9-3.2 1-1.1 1.8-2.2 2.6-3.3z"/><path class="st25" d="M103.4 73.1c.2.2.2.5.3.7.1.6.3 1.2.7 1.7.6.7 1.5 1.2 2.3 1.6v.2c-1-.3-2-.8-2.7-1.6-.7-.8-.7-1.7-.6-2.6zm11.2 3.4c0-.7-.2-1.4-.1-2.1.3.9.5 1.9.3 2.9-.1.9-.5 1.8-.4 2.7.1.7.1 1.4.4 2.1.5 1.3.9 2.7 1.2 4.1.2 1.1-.2 2.2-.1 3.3.2 1.3 1 2.5 1 3.8 0 .7-.1 1.3-.1 2 0 .3 0 .7-.3.9 0-1.3.3-2.7-.2-4-.3-.9-.7-1.8-.8-2.7-.1-1.1.3-2.2.1-3.3-.3-1.3-.6-2.5-1-3.7-.4-1-.5-2-.5-3.1.2-1 .5-1.9.5-2.9z"/><path class="st11" d="M100.6 78.9c.2-.3.2-.8.5-1 .1 1-.6 1.8-1.1 2.6-1 1.3-2 2.6-3.1 3.8-.2.3-.5.6-.8.7.9-1 1.6-2.2 2.5-3.2.7-.9 1.5-1.9 2-2.9zm-23.4 5.2v-.2c1.5.5 3.1 1 4.7 1.2 2 .2 4-.1 5.9-.4.5-.1 1-.3 1.5-.3-.6.4-1.4.5-2.1.7-2 .4-4.1.8-6.1.3-1.4-.2-2.7-.6-3.9-1.3z"/><path class="st25" d="M112.1 85.7c.1-.6.1-1.1.2-1.7.3.7.3 1.5.2 2.3-.2 1.5-.5 3-.1 4.4.2 1.4 1 2.6 1.5 3.9.4.9.8 1.8.8 2.8.1 1.1-.3 2.2-.8 3.2-.4.8-1.1 1.2-1.6 1.9-.4.5-.9.9-1.3 1.4-.5.6-1 1.1-1.4 1.7.1-.6.5-1.1.9-1.6.5-.7 1.2-1.2 1.7-1.9.4-.6 1.1-1 1.4-1.7.6-1 .9-2.2.7-3.3-.2-1.6-1.1-2.9-1.8-4.3s-.9-3-.8-4.6c.1-.7.3-1.6.4-2.5z"/><path class="st11" d="M89.1 88c.5-.1.9-.3 1.4-.5-.2.4-.6.5-.9.7-.9.3-1.9.5-2.8.7-1.3.2-2.6.3-3.9 0-.2-.1-.5-.2-.7-.3.7 0 1.4.2 2.2.2 1.5-.2 3.1-.4 4.7-.8zm-4.3 23.5c1.9-.1 3.7-.3 5.6-.7-.9.4-1.8.5-2.8.6-1.9.2-3.8.5-5.7.6-2.1 0-4.1-.2-6.2-.6-.5-.1-.9-.2-1.4-.4.5-.1 1 0 1.5.1 3 .5 6 .6 9 .4zm8.7 1.6c.7-.2 1.5-.4 2.1-.8-.2.3-.5.5-.9.6-1.9.7-3.8 1.4-5.8 1.7-2.7.5-5.4.5-8.1.6-.9 0-1.7 0-2.6-.2v-.3c1.2.1 2.4 0 3.6 0 1.4-.1 2.8-.1 4.3-.2 2.5-.2 5-.8 7.4-1.4zm2.2 4.6c1.4-.3 2.8-.6 4.1-1.1-.3.4-.9.5-1.4.8-1.2.5-2.5.8-3.7 1.1-2.2.5-4.4.9-6.6 1.1-1 .1-2 .1-2.9-.1v-.3c3.6 0 7.1-.7 10.5-1.5zm-29.1.2c.5.1 1 .3 1.5.4 1.4.4 2.9.7 4.4 1 2.3.5 4.7.6 7.1.6.6 0 1.1-.1 1.7-.1-.6.3-1.3.3-1.9.3-2.3 0-4.6 0-6.8-.4-1.4-.3-2.7-.5-4.1-.9-.5-.1-1.1-.3-1.5-.5-.3-.1-.3-.2-.4-.4z"/><path class="st26" d="M108.6 121c.4-.4.6-.8 1-1.2-.1.8-.8 1.4-1.4 1.9-1.7 1.5-3.6 2.9-5.4 4.2-.6.4-1.3.9-2 1 1-.4 1.9-1.1 2.8-1.7 1.7-1.3 3.4-2.7 5-4.2z"/><path d="M55.3 121.4c.3 0 .6.2.8.4.8.5 1.6.9 2.4 1.3 2.2 1.1 4.4 2.3 6.8 3.1 1.3.4 2.5.9 3.9 1-.6.2-1.3 0-1.9-.2-3.6-1-7.1-2.6-10.4-4.4-.5-.3-1.1-.7-1.6-1.2z" style="fill:#12323e"/><path class="st26" d="M109.4 125.5c1-.9 1.9-1.9 2.6-3.1.1.6-.4 1.1-.7 1.5-1.3 1.5-2.9 2.7-4.5 3.8-.9.6-1.9 1.2-2.8 1.7-.3.2-.7.3-1 .4.7-.3 1.4-.7 2.1-1.2 1.5-.9 3-2 4.3-3.1z"/><path d="M53.3 124.5c.4 0 .7.4 1.1.6 1.8 1.3 3.8 2.1 5.8 3 1.1.4 2.2.8 3.4 1.1.4.1.8.1 1.2.2-.8.1-1.6-.1-2.3-.3-2-.6-3.9-1.4-5.8-2.3-1-.5-2-1.1-2.9-1.8-.2-.2-.4-.3-.5-.5z" style="fill:#13333e"/><path class="st29" d="M121.6 151.3c0-.4-.1-.9.2-1.3.1.4.2.7.2 1.1.2 1.7 0 3.4.1 5.1.1 1.6.4 3.3 1.2 4.7-.1 0-.2 0-.2.1-1.1-1.7-1.4-3.7-1.5-5.7v-4z"/><path class="st26" d="M59.8 153c.2.1.5.2.7.3 1.7 1.2 3.3 2.6 5.1 3.7 1.9 1.2 3.9 2.4 5.9 3.5 1.3.7 2.6 1.4 4 2 .5.2 1 .5 1.5.7 0 0-.1 0-.1.1-1-.5-2.1-.9-3.1-1.4-.1 0-.2-.1-.2-.1-1.8-.9-3.6-1.9-5.4-2.9-1.9-1.1-3.8-2.3-5.6-3.7-1-.7-1.9-1.5-2.8-2.2zm41.4 5.1c2-1.6 3.9-3.2 5.7-5-.6.9-1.4 1.6-2.2 2.3-1.5 1.4-3.1 2.7-4.8 3.9-1.7 1.2-3.6 2.3-5.5 3.3-.3.2-.7.4-1 .5-1 .5-1.9 1.1-2.9 1.4 1.8-.9 3.5-1.9 5.2-2.9 1.9-.9 3.7-2.1 5.5-3.5z"/><path class="st29" d="M60.2 158.2c.8.7 1.5 1.5 2.2 2.2 1.2 1.3 2.4 2.5 3.8 3.6.9.7 1.7 1.4 2.6 2.1 1.7 1.3 3.4 2.6 5.2 3.9 1.4 1.1 2.9 2 4.3 2.9.8.6 1.6 1.2 2.4 1.9.3.2.6.5.8.9 1.7-.7 3.4-1.5 5-2.5 2.6-1.7 5-3.6 7.4-5.5 1.8-1.2 3.5-2.6 5.2-4 1-.8 1.9-1.6 2.7-2.4.2-.2.4-.5.6-.5-.6.7-1.3 1.3-1.9 2-1.2 1.2-2.6 2.2-3.9 3.3-1 .8-2 1.5-3.1 2.3-1.6 1.2-3.2 2.5-4.8 3.7-1.6 1.1-3.2 2.3-5 3.1-.7.3-1.3.6-2 .9.5 1 .5 2.2.5 3.3 0 1.2-.1 2.5-.2 3.7-.1 1.3-.1 2.7-.7 3.9 0-.6.2-1.2.2-1.8 0-1.5.3-3.1.3-4.6 0-1.6.1-3.4-.8-4.9-.7-.7-1.5-1.2-2.2-1.8-1.7-1.2-3.5-2.2-5.2-3.5-1.9-1.3-3.7-2.8-5.5-4.1-2-1.6-3.9-3.3-5.6-5.2-.8-1-1.7-1.8-2.3-2.9z"/><path d="m36.1 175.8.3-1.8c.2.5.1 1 0 1.5s-.1 1-.4 1.5c0-.4.1-.8.1-1.2z" style="fill:#c4613e"/><path class="st3" d="M32.2 178.9c.2.7 0 1.4.1 2.1.1.9.2 1.8.4 2.7.4 1.3 1.2 2.4 2 3.4v.1s-.1.1-.2.1c-.7-.6-1.3-1.2-1.7-2.1-.7-1.2-.7-2.7-.8-4.1 0-.7 0-1.4.2-2.2z"/><path class="st31" d="M36.9 181c.4-.1.8.1.8.5.1.5.1 1.1-.2 1.6-.3.1-.7.1-1-.1-.2-.3-.2-.6-.1-1 0-.3.1-.8.5-1z"/><path class="st24" d="M32.5 186.1c-.6-.9-.9-2.1-1-3.2.4.9.5 1.9 1 2.8.3.6.8 1.2 1.4 1.6-.6-.1-1.1-.7-1.4-1.2z"/><path class="st31" d="M34.9 186.6c.2 0 .4-.1.6-.1.6.3.9.9 1.1 1.4.1.3-.2.5-.3.8-.7-.2-1.2-.8-1.6-1.4l-.1-.1v-.2c.2-.1.2-.3.3-.4zm-2.6 1.2c-.1-.2.2-.4.4-.5.3-.1.6.2.7.5.2.4.4.9.2 1.4-.2 0-.6.1-.7-.2l-.6-1.2z"/><path class="st29" d="M40.7 213.5c.1.6 0 1.2.1 1.8.3 2.6-.3 5.3-.9 7.9-1 4.2-2.2 8.4-3.1 12.6-.1.7-.3 1.4-.5 2.2h-.2c.3-1.2.5-2.5.8-3.7.9-4.7 2.3-9.3 3.2-13.9.3-1.4.5-2.9.4-4.3v-2h.1c0-.2 0-.5.1-.6zm63.7 30.5c.1-.5.2-1.1.4-1.6 0 2-.6 3.9-1.4 5.7-1.3 3-2.8 5.9-4 9-.2.4-.3.8-.6 1.2 0-.5.3-1 .4-1.4 1.3-3.2 2.8-6.2 4.1-9.4.5-1.3.9-2.4 1.1-3.5z"/><path d="M91.7 243.3c0 .5-.1 1.1 0 1.6.4 1.9 1.2 3.6 2.2 5.2h-.2c-1-1.3-1.7-2.8-2.2-4.4-.1-.7-.3-1.7.2-2.4z" style="fill:#12313d"/><path class="st26" d="M32.6 257.1c0-.2.1-.4.1-.5-.1 1.8.3 3.6.7 5.4.8 3.6 1.3 7.3 2 10.9 0 .1.1.3.1.4v.4c-.3-.5-.3-1.1-.4-1.7l-1.2-6.6c-.3-1.8-.7-3.5-1-5.3-.3-.9-.4-1.9-.3-3z"/><path class="st29" d="M31.6 271.6c-.1-.6-.3-1.1-.1-1.7.2 1.2.6 2.4.7 3.7.1 1.2.3 2.3.5 3.5.1.7.5 1.3.6 2-.3-.3-.4-.8-.7-1.1-.4-.6-.4-1.4-.6-2.1-.1-1.5-.2-2.9-.4-4.3zm12.5-.5c0-.2.1-.2.3-.3-.2 1.4-.6 2.8-1.1 4.2-.6 1.6-1.3 3.2-2.2 4.6-.2.4-.5.8-.9 1 .5-1.2 1.1-2.3 1.7-3.4.9-1.9 1.7-4 2.2-6.1zm54.2 12.3c.7-2 .7-4.1 1.5-6.1.1.9-.1 1.8-.2 2.7-.3 2.1-1 4.2-2.1 6-.1 0-.2.1-.3.1.4-.7.7-1.7 1.1-2.7zm-12.4-4.9s.1-.1.2-.1c0 .9.3 1.8.3 2.8.1 1.4.4 2.7.9 4 .2.5.2 1 .6 1.4v.2c-.5-.3-.7-.8-.9-1.3-.6-1.4-.8-2.9-.9-4.4-.2-.9-.4-1.8-.2-2.6z"/><path d="M26.7 302.5h.3c.3 2.2.5 4.4.2 6.7-.1 1-.3 2.1-.5 3.1-.1.4-.2.7-.4 1 0-.5.1-1 .2-1.5.2-1.7.4-3.5.3-5.3-.1-1.3-.3-2.7-.1-4zm6.3 2c.1-.2.3-.2.5-.2-.3 1-.9 1.8-1.4 2.7-.9 1.6-1.4 3.3-1.9 5l-.9 3.3c0-1 .3-2 .5-3 .5-1.9.9-3.9 1.9-5.7.4-.7.8-1.5 1.3-2.1zm62.7 5.9c.1-.7.2-1.4.7-2 .2.7-.1 1.3-.1 2-.2 2.3-.3 4.7.1 7 .1.5.2 1 .2 1.6-.2-.3-.4-.7-.4-1-.3-1.2-.6-2.5-.6-3.7-.2-1.4-.1-2.7.1-3.9zm-5.4-1.1c.3 0 .5.3.6.6 1.1 2 1.3 4.3 1.3 6.5 0 1.2.1 2.4-.1 3.5h-.2c0-1.2-.1-2.3-.1-3.5-.1-1.7-.3-3.4-.8-5-.2-.7-.6-1.4-.7-2.1z" style="fill:#d4c9a2"/></svg>