<svg version="1.1" id="Layer_1" xmlns="http://www.w3.org/2000/svg" x="0" y="0" viewBox="131 -131 512 512" style="enable-background:new 131 -131 512 512" xml:space="preserve"><style>.st0{fill:#7f00ff}.st1{fill:#6b05e2}</style><path class="st0" d="M387 381c-.9 0-1.8-.1-2.8-.2C260.1 360.1 170 253.7 170 127.8V-47.5c0-9.2 7.5-16.7 16.7-16.7 78.9 0 133.5-25.6 191.1-64 5.6-3.7 12.9-3.7 18.5 0 57.6 38.4 112.1 64 191.1 64 9.2 0 16.7 7.5 16.7 16.7v175.3c0 125.9-90.1 232.3-214.3 253-1 .1-1.9.2-2.8.2z"/><path class="st1" d="M389.8 380.8C513.9 360.1 604 253.7 604 127.8V-47.5c0-9.2-7.5-16.7-16.7-16.7-78.9 0-133.5-25.6-191.1-64-2.8-1.9-6-2.8-9.3-2.8v512c1 0 1.9-.1 2.9-.2z"/><path class="st1" d="M387 269.7c-82.9 0-150.3-67.4-150.3-150.3S304.1-30.8 387-30.8s150.3 67.4 150.3 150.3S469.9 269.7 387 269.7z"/><path class="st0" d="M537.3 119.4c0-82.9-67.4-150.3-150.3-150.3v300.5c82.9.1 150.3-67.3 150.3-150.2z"/><path d="M423.6 162.9c14.9-11.2 24.6-29 24.6-49 0-33.8-27.5-61.2-61.2-61.2s-61.2 27.5-61.2 61.2c0 20 9.7 37.8 24.6 49-31 7.7-58.9 25.3-80.1 51.1 27.6 34 69.6 55.7 116.7 55.7S476.1 248 503.7 214c-21.1-25.8-49.1-43.4-80.1-51.1z" style="fill:#e6f3ff"/><path d="M423.6 162.9c14.9-11.2 24.6-29 24.6-49 0-33.8-27.5-61.2-61.2-61.2v217c47 0 89.1-21.7 116.7-55.7-21.1-25.8-49.1-43.4-80.1-51.1z" style="fill:#cfdbe6"/></svg>