<svg version="1.1" id="Calque_1" xmlns="http://www.w3.org/2000/svg" x="0" y="0" viewBox="-299 301 200 200" style="enable-background:new -299 301 200 200" xml:space="preserve"><style>.st1{fill:none;stroke:#c0d7f1;stroke-width:3;stroke-linecap:round;stroke-miterlimit:10}.st2,.st3{stroke-width:3;stroke-linejoin:round}.st2{fill:none;stroke:#c0d7f1;stroke-linecap:round;stroke-miterlimit:10}.st3{stroke:#7e50ff}.st3,.st4,.st5{fill:none;stroke-linecap:round;stroke-miterlimit:10}.st4{stroke:#7e50ff;stroke-width:2;stroke-linejoin:round}.st5{stroke:#c0d7f1}</style><path id="XMLID_78_" class="st1" d="M-243.1 369.8v98.6"/><path id="XMLID_77_" class="st1" d="M-232.4 369.8v98.6"/><path id="XMLID_76_" class="st1" d="M-221.7 369.8v98.6"/><path id="XMLID_75_" class="st1" d="M-211.1 369.8v98.6"/><path id="XMLID_74_" class="st1" d="M-200.4 369.8v98.6"/><path id="XMLID_73_" class="st1" d="M-253.7 471.1v-98.7c0-2.9 2.4-5.3 5.3-5.3h53.3c2.9 0 5.3 2.4 5.3 5.3v98.7"/><path id="XMLID_71_" class="st2" d="M-232.9 367.1v-8h24.5v8"/><path id="XMLID_70_" class="st2" d="M-221.7 351.1v5.3"/><path id="XMLID_69_" class="st3" d="M-149.7 424.4c0-.5-.1-.9-.1-1.3.1-.4.1-.9.1-1.3 0-3-1.4-5.6-3.6-7.3.6-1 .9-2.1.9-3.4 0-2.9-1.8-5.3-4.4-6.2 1.1-1.2 1.7-2.7 1.7-4.4a6.7 6.7 0 0 0-13.4 0c0 2.9 1.8 5.3 4.4 6.2-.1.1-.3.3-.4.5-1.2-1.6-3.1-2.7-5.3-2.7-3.7 0-6.7 3-6.7 6.7 0 1.9.8 3.6 2.1 4.8-1.3 1.6-2.1 3.6-2.1 5.8 0 2 .7 3.9 1.8 5.4-2.7 1.6-4.4 4.6-4.4 7.9 0 5.2 4.2 9.3 9.3 9.3 1.3 0 2.4-.3 3.5-.7 1.7 2 4.3 3.4 7.1 3.4 5.2 0 9.3-4.2 9.3-9.3 0-2.6-1.1-5-2.8-6.7 1.9-1.7 3-4.1 3-6.7z"/><path id="XMLID_68_" class="st3" d="M-163.1 447.1v24"/><path id="XMLID_67_" class="st3" d="M-168.4 428.4s-1.6 4.2 2.7 5.3"/><path id="XMLID_66_" class="st3" d="M-163.1 417.8s1.3.3 2.7 2.7"/><path id="XMLID_72_" class="st1" d="M-261.7 471.1h117.3"/><path id="XMLID_40_" class="st4" d="M-199.6 349.5c-.2-.2-.4-.5-.5-.8-.2-.5-.4-1.1-.4-1.7 0-2.3 1.9-4.1 4.1-4.1s4.1 1.9 4.1 4.1c0 2.3-1.9 4.1-4.1 4.1"/><path id="XMLID_39_" class="st5" d="M-161.2 358.1c-.1-.2-.2-.4-.3-.5-.2-.4-.2-.7-.2-1.2 0-1.5 1.3-2.8 2.8-2.8s2.8 1.3 2.8 2.8-1.3 2.8-2.8 2.8"/><path id="XMLID_38_" class="st5" d="M-168 324.9c-.1-.2-.2-.4-.3-.5-.2-.4-.2-.7-.2-1.2 0-1.5 1.3-2.8 2.8-2.8s2.8 1.3 2.8 2.8-1.3 2.8-2.8 2.8"/><path id="XMLID_37_" d="M-178.7 370.5c.2 0 .4.1.6.2.4.1.7.3 1 .6 1.1 1.1 1.1 2.9 0 3.9-1.1 1.1-2.9 1.1-3.9 0-1.1-1.1-1.1-2.9 0-3.9" style="fill:none;stroke:#7e50ff;stroke-linecap:round;stroke-linejoin:round;stroke-miterlimit:10"/><path id="XMLID_34_" class="st4" d="M-143.6 381.5c-.2-.2-.4-.5-.5-.8-.2-.5-.4-1.1-.4-1.7 0-2.3 1.9-4.1 4.1-4.1 2.3 0 4.1 1.9 4.1 4.1 0 2.3-1.9 4.1-4.1 4.1"/></svg>