<svg version="1.1" id="Calque_1" xmlns="http://www.w3.org/2000/svg" xmlns:xlink="http://www.w3.org/1999/xlink" x="0" y="0" viewBox="-124 126 200 200" style="enable-background:new -124 126 200 200" xml:space="preserve"><style>.st0,.st1{fill:none;stroke:#7700f4;stroke-miterlimit:10}.st0{stroke-width:3;stroke-linecap:round;stroke-linejoin:round}.st1{stroke-width:2}.st1,.st2{stroke-linecap:round;stroke-linejoin:round}.st2,.st3{fill:none;stroke:#c0d7f1;stroke-miterlimit:10}.st4{fill:#c0d7f1}.st7{fill:#7700f4}.st8{fill:#fff}</style><g id="XMLID_13_"><path id="XMLID_8_" class="st0" d="M-57.3 161.7v5.8"/><path id="XMLID_2_" class="st0" d="M-54.4 164.7h-5.9"/></g><g id="XMLID_17_"><path id="XMLID_27_" class="st1" d="M24.1 133.1v5"/><path id="XMLID_26_" class="st1" d="M26.6 135.6h-4.9"/></g><g id="XMLID_28_"><path id="XMLID_30_" class="st2" d="M30.8 181.6v2.6"/><path id="XMLID_29_" class="st2" d="M32.1 182.9h-2.6"/></g><path id="XMLID_14_" class="st3" d="M-10.4 151.3c-.1 0-.2.1-.2.1h-.6c-.7-.2-1.1-.9-.9-1.6.2-.7.9-1.1 1.6-.9.7.2 1.1.9.9 1.6"/><path id="XMLID_16_" class="st3" d="M-92 168.5c-.1 0-.2.1-.2.1h-.4c-.6-.2-.9-.7-.7-1.3.2-.6.7-.9 1.3-.7.6.2.9.7.7 1.3"/><path class="st4" d="M-54.4 143.5c-1 0-1.9-.8-1.9-1.9v-8.3c0-1 .8-1.9 1.9-1.9 1 0 1.9.8 1.9 1.9v8.3c-.1 1.1-.9 1.9-1.9 1.9z"/><path class="st4" d="M-50.3 139.4h-8.3c-1 0-1.9-.8-1.9-1.9s.8-1.9 1.9-1.9h8.3c1 0 1.9.8 1.9 1.9s-.8 1.9-1.9 1.9z"/><path d="M81.9 220.6v-554.8" style="fill:none"/><defs><circle id="SVGID_1_" cx="-25.8" cy="238.2" r="56.6"/></defs><clipPath id="SVGID_2_"><use xlink:href="#SVGID_1_" style="overflow:visible"/></clipPath><g style="clip-path:url(#SVGID_2_)"><path class="st7" d="M-6.6 233.7c-.4 0-.7-.1-1-.4l-7.4-5.8-.3-.3-5.7-7.2c-.5-.6-.4-1.5.1-2.1l19.1-19.1v-16.4c0-.4.2-.8.5-1.1l8.4-8.4c.6-.6 1.6-.6 2.3 0s.6 1.6 0 2.3l-8 8v16.4c0 .4-.2.8-.5 1.1l-18.6 18.6 4.8 6.1 6.1 4.8 18.6-18.6c.3-.3.7-.5 1.1-.5h16.4l8-8c.6-.6 1.6-.6 2.3 0 .6.6.6 1.6 0 2.3l-8.4 8.4c-.3.3-.7.5-1.1.5H13.7l-19.1 19.1c-.4.2-.8.3-1.2.3z"/><circle class="st8" cx="8.3" cy="173.8" r="6.6"/><path d="M8.3 182c-2.2 0-4.2-.9-5.8-2.4-3.2-3.2-3.2-8.4 0-11.5 3.1-3.1 8.4-3.1 11.5 0 1.5 1.5 2.4 3.6 2.4 5.8s-.8 4.2-2.4 5.8c-1.5 1.5-3.5 2.3-5.7 2.3zm0-13.1c-1.3 0-2.6.5-3.5 1.5-1.9 1.9-1.9 5.1 0 7.1 1.9 1.9 5.2 1.9 7.1 0 .9-.9 1.5-2.2 1.5-3.5 0-1.3-.5-2.6-1.5-3.5-1-1.1-2.3-1.6-3.6-1.6z"/><path class="st8" d="M43.2 208.7c-2.6 2.6-6.8 2.6-9.3 0-2.6-2.6-2.6-6.8 0-9.3s6.8-2.6 9.3 0c2.5 2.6 2.5 6.8 0 9.3z"/><path d="M38.5 212.3c-2.2 0-4.2-.9-5.8-2.4-3.2-3.2-3.2-8.4 0-11.5 3.1-3.1 8.4-3.1 11.5 0 1.5 1.5 2.4 3.6 2.4 5.8s-.9 4.2-2.4 5.8c-1.5 1.4-3.5 2.3-5.7 2.3zm0-13.2c-1.3 0-2.6.5-3.5 1.5-1.9 1.9-1.9 5.1 0 7.1 1.9 1.9 5.2 1.9 7.1 0 .9-.9 1.5-2.2 1.5-3.5 0-1.3-.5-2.6-1.5-3.5-1-1.1-2.2-1.6-3.6-1.6z"/><path class="st7" d="M-14 228c-.4 0-.8-.2-1.1-.5-.6-.6-.6-1.6 0-2.3l31.6-31.6c.6-.6 1.6-.6 2.3 0 .6.6.6 1.6 0 2.3l-31.6 31.6c-.4.3-.8.5-1.2.5zm-45.8 76c-.4 0-.8-.2-1.1-.5-.6-.6-.6-1.6 0-2.3l8-8v-16.4c0-.4.2-.8.5-1.1l18.6-18.6-4.8-6.1-6.1-4.8-18.6 18.6c-.3.3-.7.5-1.1.5h-16.4l-8 8c-.6.6-1.6.6-2.3 0-.6-.6-.6-1.6 0-2.3l8.4-8.4c.3-.3.7-.5 1.1-.5h16.4L-46 243c.6-.6 1.5-.6 2.1-.1l7.4 5.8.3.3 5.8 7.4c.5.6.4 1.5-.1 2.1l-19.1 19.1V294c0 .4-.2.8-.5 1.1l-8.4 8.4c-.5.4-.9.5-1.3.5z"/><path class="st8" d="M-64.5 297.8c2.6-2.6 6.8-2.6 9.3 0 2.6 2.6 2.6 6.8 0 9.3-2.6 2.6-6.8 2.6-9.3 0-2.5-2.5-2.5-6.7 0-9.3z"/><path d="M-59.8 310.6c-2.2 0-4.2-.9-5.8-2.4-3.2-3.2-3.2-8.4 0-11.5 3.1-3.1 8.4-3.1 11.5 0 3.2 3.2 3.2 8.4 0 11.5-1.5 1.6-3.5 2.4-5.7 2.4zm0-13.1c-1.3 0-2.6.5-3.5 1.5-1.9 1.9-1.9 5.1 0 7.1 1.9 1.9 5.2 1.9 7.1 0 1.9-1.9 1.9-5.1 0-7.1-1.1-1-2.3-1.5-3.6-1.5z"/><path class="st8" d="M-94.7 267.6c2.6-2.6 6.8-2.6 9.3 0 2.6 2.6 2.6 6.8 0 9.3-2.6 2.6-6.8 2.6-9.3 0s-2.6-6.8 0-9.3z"/><path d="M-90.1 280.4c-2.2 0-4.2-.9-5.8-2.4-3.2-3.2-3.2-8.4 0-11.5 3.1-3.1 8.4-3.1 11.5 0 1.5 1.5 2.4 3.6 2.4 5.8 0 2.2-.9 4.2-2.4 5.8-1.4 1.4-3.5 2.3-5.7 2.3zm0-13.1c-1.3 0-2.6.5-3.5 1.5-1.9 1.9-1.9 5.1 0 7.1 1.9 1.9 5.2 1.9 7.1 0 .9-.9 1.5-2.2 1.5-3.5 0-1.3-.5-2.6-1.5-3.5-1-1.1-2.3-1.6-3.6-1.6z"/><path class="st7" d="M-69.2 283.2c-.4 0-.8-.2-1.1-.5-.6-.6-.6-1.6 0-2.3l31.6-31.6c.6-.6 1.6-.6 2.3 0 .6.6.6 1.6 0 2.3L-68 282.7c-.4.3-.8.5-1.2.5zM8.3 304c-.4 0-.8-.2-1.1-.5l-8.4-8.4c-.3-.3-.5-.7-.5-1.1v-16.4l-19.1-19.1c-.6-.6-.6-1.5-.1-2.1l5.8-7.4.3-.3 7.4-5.8c.6-.5 1.5-.4 2.1.1l19.1 19.1h16.4c.4 0 .8.2 1.1.5l8.4 8.4c.6.6.6 1.6 0 2.3-.6.6-1.6.6-2.3 0l-8-8H13c-.4 0-.8-.2-1.1-.5l-18.6-18.6-6.1 4.8-4.8 6.1L1 275.9c.3.3.5.7.5 1.1v16.4l8 8c.6.6.6 1.6 0 2.3-.4.2-.8.3-1.2.3z"/><path class="st8" d="M33.9 276.9c-2.6-2.6-2.6-6.8 0-9.3s6.7-2.6 9.3 0c2.6 2.6 2.6 6.8 0 9.3-2.6 2.6-6.7 2.6-9.3 0z"/><path d="M38.5 280.4c-2.2 0-4.2-.9-5.8-2.4-3.2-3.2-3.2-8.4 0-11.5 3.1-3.1 8.4-3.1 11.5 0 1.5 1.5 2.4 3.6 2.4 5.8 0 2.2-.9 4.2-2.4 5.8-1.5 1.4-3.5 2.3-5.7 2.3zm0-13.1c-1.3 0-2.6.5-3.5 1.5-1.9 1.9-1.9 5.1 0 7.1 1.9 1.9 5.2 1.9 7.1 0 .9-.9 1.5-2.2 1.5-3.5 0-1.3-.5-2.6-1.5-3.5-1-1.1-2.2-1.6-3.6-1.6z"/><circle class="st8" cx="8.3" cy="302.5" r="6.6"/><path d="M8.3 310.6c-2.2 0-4.2-.9-5.8-2.4-3.2-3.2-3.2-8.4 0-11.5 3.1-3.1 8.4-3.1 11.5 0 1.5 1.5 2.4 3.6 2.4 5.8s-.8 4.2-2.4 5.8c-1.5 1.5-3.5 2.3-5.7 2.3zm0-13.1c-1.3 0-2.6.5-3.5 1.5-1.9 1.9-1.9 5.1 0 7.1 1.9 1.9 5.2 1.9 7.1 0 .9-.9 1.5-2.2 1.5-3.5 0-1.3-.5-2.6-1.5-3.5-1-1.1-2.3-1.6-3.6-1.6z"/><path class="st7" d="M17.6 283.2c-.4 0-.8-.2-1.1-.5l-31.6-31.6c-.6-.6-.6-1.6 0-2.3.6-.6 1.6-.6 2.3 0l31.6 31.6c.6.6.6 1.6 0 2.3-.3.3-.7.5-1.2.5zm-62.5-49.5c-.4 0-.8-.2-1.1-.5l-19.1-19.1h-16.4c-.4 0-.8-.2-1.1-.5l-8.5-8.4c-.6-.6-.6-1.6 0-2.3.6-.6 1.6-.6 2.3 0l8 8h16.4c.4 0 .8.2 1.1.5l18.6 18.6 6.1-4.8 4.8-6.1-18.6-18.6c-.3-.3-.5-.7-.5-1.1V183l-8-8c-.6-.6-.6-1.6 0-2.3s1.6-.6 2.3 0l8.4 8.4c.3.3.5.7.5 1.1v16.4l19.1 19.1c.6.6.6 1.5.1 2.1l-5.8 7.4-.3.3-7.4 5.8c-.3.3-.6.4-.9.4z"/><path class="st8" d="M-85.4 199.5c2.6 2.6 2.6 6.7 0 9.3-2.6 2.6-6.8 2.6-9.3 0s-2.6-6.8 0-9.3c2.5-2.6 6.7-2.6 9.3 0z"/><path d="M-90.1 212.3c-2.2 0-4.2-.9-5.8-2.4-3.2-3.2-3.2-8.4 0-11.5 3.1-3.1 8.4-3.1 11.5 0 1.5 1.5 2.4 3.6 2.4 5.8s-.9 4.2-2.4 5.8c-1.4 1.4-3.5 2.3-5.7 2.3zm0-13.2c-1.3 0-2.6.5-3.5 1.5-1.9 1.9-1.9 5.1 0 7.1 1.9 1.9 5.2 1.9 7.1 0 .9-.9 1.5-2.2 1.5-3.5 0-1.3-.5-2.6-1.5-3.5-1-1.1-2.2-1.6-3.6-1.6z"/><path class="st8" d="M-55.2 169.2c2.6 2.6 2.6 6.7 0 9.3-2.6 2.6-6.8 2.6-9.3 0-2.6-2.6-2.6-6.8 0-9.3 2.6-2.5 6.7-2.5 9.3 0z"/><path d="M-59.8 182c-2.2 0-4.2-.9-5.8-2.4-3.2-3.2-3.2-8.4 0-11.5 3.1-3.1 8.4-3.1 11.5 0 3.2 3.2 3.2 8.4 0 11.5-1.5 1.6-3.5 2.4-5.7 2.4zm0-13.1c-1.3 0-2.6.5-3.5 1.5-1.9 1.9-1.9 5.1 0 7.1 1.9 1.9 5.2 1.9 7.1 0 1.9-1.9 1.9-5.1 0-7.1-1.1-1-2.3-1.5-3.6-1.5z"/><path class="st7" d="M-37.6 228c-.4 0-.8-.2-1.1-.5l-31.6-31.6c-.6-.6-.6-1.6 0-2.3s1.6-.6 2.3 0l31.6 31.6c.6.6.6 1.6 0 2.3-.3.3-.8.5-1.2.5z"/><path class="st8" d="M-8.4 255.5c-9.6 9.6-25.1 9.6-34.7 0s-9.6-25.1 0-34.7 25.1-9.6 34.7 0c9.6 9.6 9.6 25.1 0 34.7z"/><path class="st7" d="M-25.7 264.3c-7 0-13.5-2.7-18.5-7.7-4.9-4.9-7.7-11.5-7.7-18.5s2.7-13.5 7.7-18.5 11.5-7.7 18.5-7.7 13.5 2.7 18.5 7.7c4.9 4.9 7.7 11.5 7.7 18.5s-2.7 13.5-7.7 18.5-11.6 7.7-18.5 7.7zm0-49.1c-6.1 0-11.9 2.4-16.3 6.7-4.3 4.3-6.7 10.1-6.7 16.3 0 6.1 2.4 11.9 6.7 16.3 4.3 4.3 10.1 6.7 16.3 6.7 6.1 0 11.9-2.4 16.3-6.7 4.3-4.3 6.7-10.1 6.7-16.3 0-6.1-2.4-11.9-6.7-16.3-4.5-4.3-10.2-6.7-16.3-6.7z"/><path class="st8" d="M-17.4 246.6c-4.6 4.6-12.1 4.6-16.8 0-4.6-4.6-4.6-12.2 0-16.8 4.6-4.6 12.2-4.6 16.8 0s4.6 12.1 0 16.8z"/><path class="st7" d="M-25.7 251.6c-3.6 0-6.9-1.4-9.5-3.9-5.3-5.3-5.3-13.8 0-19 2.5-2.5 5.9-3.9 9.5-3.9s6.9 1.4 9.5 3.9c2.5 2.5 3.9 5.9 3.9 9.5s-1.4 7-3.9 9.5-6 3.9-9.5 3.9zm-.1-23.7c-2.7 0-5.3 1.1-7.3 3-4 4-4 10.5 0 14.5 3.9 3.9 10.7 3.9 14.5 0 1.9-1.9 3-4.5 3-7.3s-1.1-5.3-3-7.3c-1.9-1.8-4.4-2.9-7.2-2.9z"/></g><circle cx="-25.8" cy="238.2" r="56.6" style="fill:none;stroke:#7700f4;stroke-width:3;stroke-miterlimit:10"/></svg>