<svg version="1.1" id="Calque_1" xmlns="http://www.w3.org/2000/svg" x="0" y="0" viewBox="-205 297 200 200" style="enable-background:new -205 297 200 200" xml:space="preserve"><style>.st0{fill:none;stroke:#c0d7f1;stroke-width:3;stroke-miterlimit:10}.st1,.st2{stroke-width:3;stroke-linecap:round;stroke-linejoin:round}.st1{fill:none;stroke:#4fc1ea}.st2{stroke-dasharray:5,5}.st2,.st3,.st4,.st5{fill:none;stroke:#4fc1ea}.st3{stroke-width:3;stroke-linecap:round;stroke-linejoin:round;stroke-dasharray:3.9708,3.9708}.st4,.st5{stroke-miterlimit:10}.st4{stroke-width:3;stroke-linecap:round;stroke-linejoin:round}.st5{stroke-width:2}.st5,.st6{stroke-linecap:round;stroke-linejoin:round}.st6,.st7{fill:none;stroke:#c0d7f1;stroke-miterlimit:10}</style><path id="XMLID_25_" class="st0" d="M-59.5 461.7h-91c-2.5 0-4.5-2-4.5-4.5v-91c0-2.5 2-4.5 4.5-4.5h90.9c2.5 0 4.5 2 4.5 4.5v90.9c.1 2.5-1.9 4.6-4.4 4.6z"/><circle id="XMLID_24_" class="st0" cx="-145.9" cy="370.8" r="1.1"/><circle id="XMLID_23_" class="st0" cx="-136.8" cy="370.8" r="1.1"/><circle id="XMLID_22_" class="st0" cx="-127.7" cy="370.8" r="1.1"/><path id="XMLID_21_" class="st0" d="M-155 379.9h100"/><g id="XMLID_5_"><g id="XMLID_6_"><path id="XMLID_20_" class="st1" d="M-70.9 444.4v5.7h-5.7"/><path id="XMLID_19_" class="st2" d="M-88 450.1h-39.7"/><path id="XMLID_18_" class="st1" d="M-133.4 450.1h-5.7v-5.7"/><path id="XMLID_12_" class="st3" d="M-139.1 435.3v-31.6"/><path id="XMLID_11_" class="st1" d="M-139.1 399.2v-5.7h5.7"/><path id="XMLID_10_" class="st2" d="M-122 393.5h39.7"/><path id="XMLID_9_" class="st1" d="M-76.6 393.5h5.7v5.7"/><path id="XMLID_7_" class="st3" d="M-70.9 408.3v31.6"/></g></g><path id="XMLID_4_" class="st4" d="M-105 409.4v22.7"/><path id="XMLID_3_" class="st4" d="M-93.6 420.8h-22.8"/><g id="XMLID_13_"><path id="XMLID_8_" class="st4" d="M-84.4 337.5v7.1"/><path id="XMLID_2_" class="st4" d="M-80.9 341.1H-88"/></g><g id="XMLID_17_"><path id="XMLID_27_" class="st5" d="M-131.9 327.2v6"/><path id="XMLID_26_" class="st5" d="M-128.9 330.2h-6"/></g><g id="XMLID_28_"><path id="XMLID_30_" class="st6" d="M-108.7 348.4v3.2"/><path id="XMLID_29_" class="st6" d="M-107.1 350h-3.2"/></g><path id="XMLID_14_" class="st7" d="M-111.9 323.6c-.1 0-.2.1-.3.1h-.7c-.8-.2-1.3-1.1-1.1-1.9.2-.8 1.1-1.3 1.9-1.1.8.2 1.3 1.1 1.1 1.9"/><path id="XMLID_16_" class="st7" d="M-69.8 325.2c-.1 0-.2.1-.3.1h-.5c-.7-.2-1.1-.9-.9-1.6.2-.7.9-1.1 1.6-.9.7.2 1.1.9.9 1.6"/></svg>