<svg xmlns="http://www.w3.org/2000/svg" viewBox="-127.8 357 175.5 75.3" style="enable-background:new -127.8 357 175.5 75.3" xml:space="preserve"><path d="M-53.3 425.7h1.2v-9.4h-1.2v9.4zm.6-13.2c-.5 0-.8.3-.8.8 0 .4.4.8.8.8.5 0 .8-.4.8-.8 0-.5-.4-.8-.8-.8zm-15.8-38.2c5 0 10.2 1.6 11.1 1.6 3-.1 3.3-2.5 3.3-3.3 0-1.4-.7-2.4-2.2-3-.9-.3-5.6-1.8-12-1.8-8.9 0-12.8 2-14.5 3.2-2.6 1.9-3.9 4.6-3.9 8.1v13c0 3.4 1.3 6.1 3.9 8.2 1.7 1.3 4.9 3.1 14.5 3.1 4.7 0 10.8-1.2 12-1.7 1.5-.6 2.6-2 2-4.1-.2-.8-.7-1.5-1.5-1.9-.8-.4-1.6-.5-2.4-.3-2.1.5-3.9.9-5.4 1.1-1.5.2-3.1.3-5 .3-4.8 0-5.2-3.2-5.2-4.8v-13c.2-5.1 4.8-4.7 5.3-4.7zm67.9 42 3.2 9.4h2.6l1.9-5.6 1.9 5.6h2.6l3.2-9.4H12l-1.9 6.2-1.9-6.2H5.7l-1.9 6.2-1.9-6.2H-.6zm-49.5 4.4v.5c0 3.3 1.7 4.6 4.1 4.6.8 0 1.4-.1 2-.4v.7c0 2.1-1 3-2.5 3-1.2 0-2.1-.3-2.9-.8-.2.3-.3.7-.5 1 .9.6 2 .9 3.3.9 2.1 0 3.7-1.4 3.7-4.1v-9.4c-.9-.5-2-.8-3.4-.8-2 .2-3.8 1.5-3.8 4.8zm6.2-3.1v6.7c-.5.3-1.2.4-1.9.4-1.8 0-3-.8-3-3.5v-.5c0-2.6 1.1-3.4 2.7-3.5h.9c.5.1.9.3 1.3.4zM-94.8 371c-1.7-1.3-4.3-3.2-14.5-3.2-1.9 0-6.5.2-11.9 1.8-1.4.4-2.3 1.4-2.3 3 0 1.9 1.5 2.9 2.1 3.2.5.3 1.3.2 2.2 0 1.9-.5 3.4-.8 5.1-1.1 1.7-.3 3.4-.4 5-.4 5.5.3 5.2 3.9 5.2 4.8v1.8c-4.7 0-8.1.3-10.3.8-2.3.5-4.1 1.3-5.3 2.3-2.6 1.9-3.9 4.6-3.9 8.1 0 3.4 1.3 6.1 3.9 8.2 1.6 1.2 3.4 2.1 5.5 2.5 2.1.5 4.5.7 7.2.7 1.9 0 4.1-.2 6.6-.5s4.8-.7 6.9-1.2c.7-.2 2.5-1.1 2.5-3.2V379c-.1-3.4-1.4-6.1-4-8zm-9.1 25.4c-1.1.4-2.2.6-3.2.6-1.3 0-2.2-.4-2.6-1.2-.5-.8-.7-1.8-.7-3.7 0-1.6.2-2.7.7-3.6.5-.9 1.2-1.2 2.4-1.2s2.3.2 3.5.5v8.6zm44.6 20.5v8.8h1.2v-8.1c.4-.1 1-.4 1.7-.4.6 0 1 .1 1.4.3l.5-1.1c-.5-.3-1.1-.4-1.9-.4-1.3.1-2.3.5-2.9.9zm93.7-21.3c-2.1.5-4.7 1.3-9.8 1.3-5.2 0-5.2-3.8-5.2-4.8v-1.7c4.6 0 8-.3 10.3-.8 2.3-.6 9.2-2.6 9.2-10.6 0-8.8-8.3-11.3-16.6-11.3-5.7 0-11.5 1.2-13.5 1.7-2 .6-2.5 2-2.5 3.2v19.1c0 8.7 5.5 11.7 18.4 11.7 5.9 0 10.5-1.3 11.5-1.6 2.2-.6 3.4-2.8 2.2-4.8-.2-.5-1.2-2.2-4-1.4zm-14.9-20.7c1.1-.4 2.2-.6 3.2-.6 2.3 0 2.9 1.4 3 2.1.2.7.3 1.6.3 2.7 0 .9-.1 1.8-.3 2.7-.2.9-.6 1.5-1.1 1.8-.8.4-1.7.8-5.1-.2v-8.5zm21.9-10.1c-.1-.1-.2-.1-.4-.2.4-.1.7-.3.9-.5.2-.2.3-.5.3-.8 0-.4-.1-.7-.4-.9-.3-.2-.7-.3-1.2-.3h-2v4.4h1.1v-1.7h.1c.1 0 .3.1.4.2.1.2.4.7.9 1.5h1.3c-.5-.8-.7-1.3-.7-1.3-.1-.1-.2-.3-.3-.4zm-1.2-.8h-.5v-1.1h.5c.3 0 .5 0 .6.2.1.1.2.2.2.4s-.1.3-.2.4c0 .1-.2.1-.6.1zm-16.7 48.5v17.9l15.5-8.9-7.8-4.5-7.7-4.5zm-60.5 3.6c-.9 0-1.6.1-2.1.3v-3.9h-1.2v13.2h1.2v-8.1c.5-.2 1.1-.4 2-.4 1.8 0 3 .9 3 3.4v5h1.2v-5c0-3.2-1.8-4.5-4.1-4.5zm81.1-53.8c-.4-.6-.9-1.1-1.5-1.5-.6-.4-1.3-.6-2.1-.6-.7 0-1.4.2-2.1.6-.6.4-1.1.9-1.5 1.5-.4.6-.6 1.3-.6 2.1 0 .7.2 1.4.6 2.1.4.6.9 1.1 1.5 1.5.6.4 1.3.6 2.1.6.7 0 1.4-.2 2.1-.6.6-.4 1.1-.9 1.5-1.5.4-.6.6-1.3.6-2.1s-.2-1.5-.6-2.1zm-1.2 4.4c-.7.7-1.4 1-2.4 1-.9 0-1.7-.3-2.4-1s-1-1.4-1-2.4c0-.9.3-1.7 1-2.4s1.4-1 2.4-1c.9 0 1.7.3 2.4 1s1 1.4 1 2.4-.4 1.8-1 2.4zm-70.4 58c-.3 0-.6 0-.9-.1-.8-.2-1.2-.8-1.2-2.1v-5.1h3.8v-1.1h-3.8v-2.8h-1.2v9.1c0 2.4 1.3 3.3 3 3.3 1 0 2-.3 2.7-.9-.1-.4-.3-.7-.5-1-.5.4-1.1.7-1.9.7zm11.6-8.7c-1.5 0-3.2.3-4.2.9v8.8h2.4v-7.2c.3-.1.8-.2 1.6-.2 1.2 0 1.9.6 1.9 2.4v5h2.4v-4.8c.1-3.4-1.7-4.9-4.1-4.9zm14.3 5v-.1c0-3.5-1.8-4.9-4.2-4.9-2.4 0-4.2 1.4-4.2 4.9v.1c0 3.5 1.8 4.9 4.2 4.9 2.3 0 4.2-1.4 4.2-4.9zm-2.5 0c0 2-.6 2.6-1.7 2.6s-1.7-.6-1.7-2.6v-.1c0-2 .6-2.6 1.7-2.6s1.7.6 1.7 2.6v.1zm-3.4-19h6.4c1.4 0 3.3-.9 3.3-3.3v-19.3c0-9.3-8.4-11.6-16.5-11.6-2 0-3.9.1-5.6.3-1.7.2-3.5.5-5.3.8-1.5-.5-2.8-.7-3.9-.9-1.1-.1-2.7-.2-4.7-.2-5.6 0-12.3 1.3-13.6 1.7-.7.2-1.3.6-1.8 1.2s-.7 1.2-.7 2v26c0 2.6 2 3.3 3.2 3.3h6.5c1.2 0 3.3-.9 3.3-3.3v-23.8c1.1-.4 2.2-.6 3.2-.6 2.2 0 3.3 1.2 3.3 4.8v19.6c0 2.5 2 3.3 3.2 3.3h6.5c1.4 0 3.2-1 3.2-3.3v-23.8c1.5-.4 2.9-.6 3.3-.6 1.3 0 2.2.4 2.6 1.2.4.8.6 2 .6 3.6v19.6c.2 2.4 2.2 3.3 3.5 3.3z" style="fill:#7e50ff"/></svg>