<svg xmlns="http://www.w3.org/2000/svg" viewBox="-196.3 346.2 150 150" style="enable-background:new -196.3 346.2 150 150" xml:space="preserve"><path style="fill:#fff" d="M-196.3 346.2h150v150h-150z"/><path d="M-99.2 395c-3-2.3-7.7-5.7-25.9-5.7-3.4 0-11.6.4-21.3 3.2-2.5.7-4.1 2.5-4.1 5.4 0 3.4 2.7 5.2 3.8 5.7.9.5 2.3.4 3.9 0 3.4-.9 6.1-1.4 9.1-2s6.1-.7 8.9-.7c9.8.5 9.3 7 9.3 8.6v3.2c-8.4 0-14.5.5-18.4 1.4-4.1.9-7.3 2.3-9.5 4.1-4.7 3.4-7 8.2-7 14.5 0 6.1 2.3 10.9 7 14.7 2.9 2.1 6.1 3.8 9.8 4.5 3.8.9 8.1 1.3 12.9 1.3 3.4 0 7.3-.4 11.8-.9 4.5-.5 8.6-1.3 12.3-2.1 1.3-.4 4.5-2 4.5-5.7v-35.1c-.1-6.1-2.4-11-7.1-14.4zm-16.1 45.5h-.2c-2 .7-3.9 1.1-5.7 1.1-2.3 0-3.9-.7-4.7-2.1-.9-1.4-1.3-3.2-1.3-6.6 0-2.9.4-4.8 1.3-6.4.9-1.6 2.1-2.1 4.3-2.1 2.1 0 4.1.4 6.3.9v15.2z" style="fill:#7e50ff"/></svg>