<svg version="1.1" id="Capa_1" xmlns="http://www.w3.org/2000/svg" x="0" y="0" viewBox="35.2 -275 720.8 720.8" style="enable-background:new 35.2 -275 720.8 720.8" xml:space="preserve"><style>.st0{fill:none;stroke:#7f00ff;stroke-width:20;stroke-miterlimit:10}</style><path class="st0" d="M389.2-197.3c-95.8 0-173.4 77.6-173.4 173.4 0 39 12.9 75 34.6 103.9l138.8 185L528 80c21.7-29 34.6-64.9 34.6-103.9 0-95.8-77.6-173.4-173.4-173.4zm0 289c-63.8 0-115.6-51.8-115.6-115.6s51.8-115.6 115.6-115.6S504.8-87.7 504.8-23.9 453.1 91.7 389.2 91.7z"/><path class="st0" d="M504.8 182.1h100.8l124 186h-668l96-186h116"/></svg>