<svg version="1.1" id="Calque_1" xmlns="http://www.w3.org/2000/svg" x="0" y="0" viewBox="0 0 1400 980" style="enable-background:new 0 0 1400 980" xml:space="preserve"><style>.st1{fill:#42313e}.st2{fill:#524253}.st4{fill:#f7b58f}.st5{fill:#fff}.st7{fill:#4a00e0}.st8{fill:#ee8e61}.st9{fill:#191919}</style><path id="XMLID_111_" d="M794.4 784.1c-3.5 0-6.3-2.8-6.3-6.3V89.4c0-3.5 2.8-6.3 6.3-6.3s6.3 2.8 6.3 6.3v688.3c0 3.5-2.8 6.4-6.3 6.4z" style="fill:#c2c5c3"/><path id="XMLID_110_" class="st1" d="M802.5 858.3h-17.2c-2 0-3.7-1.7-3.7-3.7V750.5c0-2 1.7-3.7 3.7-3.7h17.2c2 0 3.7 1.7 3.7 3.7v104.1c-.1 2.1-1.7 3.7-3.7 3.7z"/><path id="XMLID_109_" class="st1" d="M738.1 853.9v-17.2c0-2 1.7-3.7 3.7-3.7h104.1c2 0 3.7 1.7 3.7 3.7v17.2c0 2-1.7 3.7-3.7 3.7H741.8c-2 0-3.7-1.7-3.7-3.7z"/><path id="XMLID_108_" class="st2" d="M927.8 131.4H659.9c-3.7 0-6.7-2.8-6.7-6.3s3-6.3 6.7-6.3h267.8c3.7 0 6.7 2.8 6.7 6.3.1 3.4-2.9 6.3-6.6 6.3z"/><path id="XMLID_107_" class="st2" d="M927.8 459.5H659.9c-3.7 0-6.7-2.8-6.7-6.3s3-6.3 6.7-6.3h267.8c3.7 0 6.7 2.8 6.7 6.3.1 3.4-2.9 6.3-6.6 6.3z"/><path id="XMLID_106_" style="fill:#fff;stroke:#dadada;stroke-miterlimit:10" d="M659.9 131.4h267.8v315.5H659.9z"/><path id="XMLID_101_" class="st4" d="M590 600.8s2.7 14 0 27.9c-2.7 14-22.9 167.5-21.5 184 1.3 16.4 4 24.6 17.5 31.2 13.5 6.6 16.2 12.3.7 13.1s-22.9 0-31.6-12.3l-6.1-7.4v14l-5.4.8s-2-17.2-4-28.7 12.8-22.2 10.1-37-8.7-69-4-91.2 14.8-41.1 14.1-53.4c-.7-12.3-3.4-41.1-3.4-41.1H590v.1z"/><path id="XMLID_100_" class="st4" d="M549 600.8s-2.7 27.4-6.7 44.7-28.2 123.1-32.9 147.3c-4.7 24.3-1.3 31.8-13.4 52.7s-25.5 26.9-25.5 0 24.2-37.1 22.8-55.9c-1.3-18.8 3.4-88.6 6-108.2 2.7-19.6 16.1-43.1 16.1-50.9 0-7.8-.7-29.8-.7-29.8H549v.1z"/><path id="XMLID_97_" class="st4" d="M579.1 283.7h-52.9l-9.1 66.8 41.3 81.6 29.8-81.6z"/><path id="XMLID_96_" class="st4" d="M533.6 258h38.1v29.1h-38.1z"/><path id="XMLID_95_" class="st5" d="M524.4 299.5s10.1 13.2 28.2 13.2 28.6-13.2 28.6-13.2v77.4l-22.9 53.8-33.9-52.3v-78.9z"/><path id="XMLID_94_" d="M533.6 265.1c4 2.3 10.6 5.2 19.1 5.2 8.4 0 15.1-2.9 19.1-5.2V254h-38.1l-.1 11.1z" style="fill:#f5a673"/><path id="XMLID_140_" class="st7" d="M610.6 231.1c6.3 9.4-16.4 18.5-11.8-6.8 4.6-25.3 5.7-40.6 0-62.6-7.6-29.5-45.9-27.9-45.9-27.9s-16.5-1.3-23.7 5.7c0 0-15.2.5-22.3 22.2-7.1 21.7-4.6 37.3 0 62.6s-18.1 16.2-11.8 6.8c0 0-9.1 12 1 23.2 10.2 11.2 37.5 14.6 56.7 3.4 19.2 11.2 46.5 7.8 56.7-3.4 10.2-11.2 1.1-23.2 1.1-23.2z"/><path id="XMLID_91_" class="st8" d="M508.7 196.2s-10.1-4.2-9.7 5.7 9.7 17.5 9.7 17.5v-23.2z"/><path id="XMLID_89_" class="st8" d="M593.1 198s10.1-4.2 9.7 5.7c-.4 9.9-9.7 17.5-9.7 17.5V198z"/><path id="XMLID_88_" class="st4" d="M552.7 155.1c-2.3-.1-33.2-.8-44.5 19 0 0 2.2 40.3 3.4 49.4 2.8 21.4 23.4 41.5 41 41.7h.2c17.6-.2 38.1-20.3 41-41.7 1.2-9.1 3.4-49.4 3.4-49.4-11.3-19.8-42.2-19.1-44.5-19z"/><circle id="XMLID_46_" class="st5" cx="504.3" cy="214.7" r="2.3"/><circle id="XMLID_45_" class="st5" cx="597.2" cy="216.5" r="2.3"/><path id="XMLID_40_" class="st4" d="M495.2 415.3s6.1 6 9 5.1c1.9-.6 14.1-9.7 16.2-9.8 2.2-.1 11.7 2.9 13.6 3 2 .2 2.8 3.2-2.9 2.8-5.9-.4-9.5-1.3-10-1.3-.6.1-5.5 2.6-5.5 2.6s6.2-.7 7.3-.3c1.2.4 10.9 7.4 12.3 10.1 1.3 2.7-6.3 11.7-10.5 10.4-4.2-1.3-6-5.2-9.4-4.3-3.4.9-8 3.6-11.9 2.9-3.9-.6-4.6-2.7-7.4-4.4-2.8-1.7-8.6-5.3-8.6-5.3l7.8-11.5z"/><circle id="XMLID_222_" class="st9" cx="567.8" cy="207.9" r="4.5"/><circle id="XMLID_221_" class="st9" cx="537.3" cy="207.9" r="4.5"/><path id="XMLID_92_" d="M552 248c-.4 0-.7 0-1.1-.1-4-.4-6.8-3.4-7-3.5-.5-.5-.5-1.3 0-1.8s1.3-.5 1.8 0c0 0 2.4 2.4 5.3 2.7 4.8.4 7-2.8 7.1-3 .4-.6 1.2-.8 1.8-.4.6.4.8 1.2.4 1.7-.1.4-2.7 4.4-8.3 4.4z" style="fill:#23201d"/><path id="XMLID_386_" class="st8" d="M588.1 164.3c.5.7 1 1.5 1.5 2.3 0 0-2.4 43.6-3.7 53.5-2.8 20.9-21.2 40.6-38.7 44.5 1.8.4 3.6.6 5.4.7h.2c17.6-.2 38.1-20.3 41-41.7 1.2-9.1 3.4-49.4 3.4-49.4-2.4-4.2-5.5-7.4-9.1-9.9z"/><path id="XMLID_385_" class="st8" d="M562.3 258c.9 2.8 1.4 5.8 1.4 8.9 0 7.9-3.2 15-8.4 20.2h16.3V258h-9.3z"/><g id="XMLID_375_"><circle id="XMLID_37_" class="st5" cx="536.1" cy="281" r="2.5"/><circle id="XMLID_36_" class="st5" cx="540.4" cy="283.5" r="2.5"/><circle id="XMLID_35_" class="st5" cx="545" cy="285.4" r="2.5"/><circle id="XMLID_34_" class="st5" cx="550" cy="286.8" r="2.5"/><circle id="XMLID_33_" class="st5" cx="555" cy="286.8" r="2.5"/><circle id="XMLID_32_" class="st5" cx="560" cy="285.4" r="2.5"/><circle id="XMLID_31_" class="st5" cx="564.7" cy="283.5" r="2.5"/><circle id="XMLID_30_" class="st5" cx="568.9" cy="281" r="2.5"/></g><path id="XMLID_99_" class="st4" d="M697.5 287.1s3.3-5.8 5.4-8.6c2.1-2.8-2.3-7.9-1.3-12.4s1.9-13.2 3.4-16.7c1.5-3.4 5.4-4.6 6-1.6s1.2 15 1.2 15 10.2-4.2 14.7-8.7c4.5-4.5 7.5-11.4 8.4-13.1.9-1.7 3.6-1.4 4.1.8.5 2.1-3.3 9.5-3.3 9.5s3.9-5.6 5-8.4c1.1-2.9 4.4-2.3 3.6 1.2-.8 3.5-2.6 7.2-2.6 7.2s2.4-2.3 3.6-4.1c1.2-1.8 3.3-.7 2.3 1.8-1.1 2.6-5.7 8.7-5.7 8.7s2.6-1.8 3.6-3.2c1.1-1.4 2.1 0 1.7 2.3-.5 2.3-8.4 15.3-12.6 18.5-4.2 3.2-10.8 6.6-13.5 8.6s-9.1 11.3-9.1 11.3l-14.9-8.1z"/><path id="XMLID_220_" class="st7" d="M574.2 195.7c-.3 0-.7-.1-.9-.4-.1-.1-1.7-1.7-5.3-1.7-3.7 0-5.8 1.7-5.8 1.8-.5.4-1.3.4-1.8-.1s-.4-1.3.1-1.8c.1-.1 2.8-2.4 7.5-2.4 4.8 0 7 2.4 7.1 2.5.5.5.4 1.3-.1 1.8-.2.2-.5.3-.8.3z"/><path id="XMLID_93_" class="st7" d="M543.7 195.7c-.3 0-.7-.1-.9-.4-.1-.1-1.7-1.7-5.3-1.7-3.7 0-5.8 1.7-5.8 1.8-.5.4-1.3.4-1.8-.1s-.4-1.3.1-1.8c.1-.1 2.8-2.4 7.5-2.4 4.8 0 7 2.4 7.1 2.5.5.5.4 1.3-.1 1.8-.2.2-.5.3-.8.3z"/><path id="XMLID_49_" class="st7" d="M538.6 162.2s7.6 25.1 46.2 26.9c0 0 .2-10.4-3.8-16.2 0 0 14.3 16.5 12.2 38.7 0 0 9.9-22 6.3-42.1-3.7-20.1-54.6-25-62.4-18 0 0-27.5-.1-29.6 21.4s2.1 24.6 2.1 24.6 28-12.6 29-35.3z"/><path id="XMLID_38_" class="st7" d="m548.9 837.3 6.1 7.4c8.7 12.3 16.2 13.1 31.6 12.3 15-.8 12.9-6.3.4-12.6-1.3 2.9-6.1 5.3-14.9 4-12.8-2-25.6-26.4-25.6-34.4 0-3.7-1.5-4.9-3.2-5.1-2.6 4.9-4.7 9.7-3.9 14.5 2 11.5 4 28.7 4 28.7l5.4-.8v-14h.1z"/><path id="XMLID_29_" class="st7" d="M496.5 844.6c-4.3 3-11.1 7-16.7 7-5.5 0-7.8-7.4-8.7-13.4-.4 2.3-.6 4.8-.6 7.4 0 26.9 13.4 20.9 25.5 0 .1-.4.3-.7.5-1z"/><path id="XMLID_98_" class="st7" d="m613.9 478.3-59.9 11v-.1l-.2.1-.2-.1v.1l-52.3-11s-6.7 41.4 4.2 126.6c0 0 19.3 3.9 48 3.9h.4c28.8 0 45.6-3.9 45.6-3.9 11.1-85.2 14.4-126.6 14.4-126.6z"/><path id="XMLID_44_" class="st7" d="m618.9 299.2-47.2-23.6-1.8 72.7-11.5 83.9-23-83.9-1.8-72.7-47.2 23.6s21.2 120.6 23.1 134c.6 3.9-26.1 47.2-26.1 47.2l69.3 15.6 69.3-15.6s-12.2-45.8-11.6-49.7c1.8-13.4 8.5-131.5 8.5-131.5z"/><path id="XMLID_41_" class="st7" d="M486.4 299.2s-53.2 76.1-53.2 81.8c0 7.5 51.6 47 51.6 47l11.4-14s-35.8-33.7-35.2-34.4c5.4-7 32.8-38.1 32.8-38.1l-7.4-42.3z"/><path id="XMLID_576_" class="st7" d="M738.5 359.6h-34.1c-1.3 0-2.4-1.1-2.4-2.4v-65.1c0-1.3 1.1-2.4 2.4-2.4h34.1c1.3 0 2.4 1.1 2.4 2.4v65.1c0 1.3-1.1 2.4-2.4 2.4z"/><path id="XMLID_578_" class="st7" d="M786.8 359.6h-34.1c-1.3 0-2.4-1.1-2.4-2.4V235.6c0-1.3 1.1-2.4 2.4-2.4h34.1c1.3 0 2.4 1.1 2.4 2.4v121.7c-.1 1.2-1.1 2.3-2.4 2.3z"/><path id="XMLID_579_" class="st7" d="M835 359.6h-34.1c-1.3 0-2.4-1.1-2.4-2.4v-88.9c0-1.3 1.1-2.4 2.4-2.4H835c1.3 0 2.4 1.1 2.4 2.4v88.9c0 1.3-1.1 2.4-2.4 2.4z"/><path id="XMLID_580_" class="st7" d="M883.3 359.6h-34.1c-1.3 0-2.4-1.1-2.4-2.4V221.1c0-1.3 1.1-2.4 2.4-2.4h34.1c1.3 0 2.4 1.1 2.4 2.4v136.1c-.1 1.3-1.1 2.4-2.4 2.4z"/><path id="XMLID_28_" class="st7" d="M618.9 299.2s33.7 53.1 36 53.1 37.4-62.5 37.4-62.5l19.9 9.8s-43.1 86.2-57.1 86.2c-14.1 0-44.8-46.8-44.8-46.8l8.6-39.8z"/><path id="XMLID_27_" class="st2" d="m695.1 283.1-10.5 14.5 14 7.2 6.5-6.1-1.6 8.4 9.6 5.5 5.4-17.5z"/><path id="XMLID_39_" class="st2" d="m503.8 412.5-11.6-13.6-10.2 12 4.4 7.7-7.8-3.5-7.6 8.1 15.8 9.3z"/><path id="XMLID_2_" class="st2" d="M522.1 280.1c-.1 2.1-13.3 53.1-13 55.2s14.7 4.7 14.7 4.7-7.6 7.3-7.3 8.5 41.6 82.2 41.6 82.2l-23-83.9-1.9-72.7"/><path id="XMLID_1_" class="st2" d="M582.6 280.1c.1 2.1 13.3 53.1 13 55.2s-14.7 4.7-14.7 4.7 7.6 7.3 7.3 8.5-30.1 82.2-30.1 82.2l11.5-83.9 1.9-72.7"/></svg>