<svg version="1.1" id="Calque_1" xmlns="http://www.w3.org/2000/svg" x="0" y="0" viewBox="0 0 1400 980" style="enable-background:new 0 0 1400 980" xml:space="preserve"><style>.st0{fill:#ee8e61}.st1{fill:#0f7cff}.st3{fill:#e4e3e3}.st4{fill:#f7b58f}.st5{fill:#54c0ea}.st6{fill:#62aef9}.st7{fill:#0b83b2}.st8{fill:#392836}.st9{fill:#fdd142}.st10{fill:#039be5}.st11{fill:#fff}.st12{fill:#5e4495}.st13{fill:none}.st14{fill:#191919}.st15{fill:#23201d}.st16{fill:#e9e9e9}.st18{fill:#f6f6f6}.st20{fill:#f9fcfd}.st21{fill:#3b98f4}.st22{fill:#d0907b}.st24{fill:#a95b44}</style><g id="XMLID_53_"><g id="XMLID_917_"><path id="XMLID_918_" class="st0" d="M1142.7 302c5.5-1.4 9.8 6.4 8.7 12-1.5 7.4-8.8 9.7-13 10.9-.1-6.3 1.8-15.1 3-21.2l1.3-1.7z"/></g><g id="XMLID_915_"><path id="XMLID_916_" class="st1" d="M1061.6 232.8c-10.5 14.2-14.5 30.7-15.7 47.8-.4 7.1 1 12.7 3.3 19.2 1.7 5 10.1 16.2 10.7 5.1.4-6.1-.2-12.7-1.4-18.5 4.7-5.1 4-12.8 8.4-18.7 4.1-5.6 10.6-9.4 17.5-11.4 3.4-1.1 7.4-1.7 11.1-1.5 3.2.2 6.9 2.2 9.8 1.9 3.2-.1 6.3-3.3 9.4-4.1 3.2-.9 6.1-.9 9.2-.2 17.2 2.8 19.1 15.7 19.1 30.8-.1 6.9.8 13.5.1 20.1-.2 2.9-1.4 8 2.7 5.5 2.6-1.6 4.3-8 5.6-10.4 4.1-8.5 5.8-15.7 5.8-25.2 0-12.1.3-23.5-9.1-32.3-11.8-11.4-27.4-12.1-43-13.2-12.2-.8-23 1-34.8 3.6l-8.7 1.5z"/></g><g id="XMLID_913_"><path id="XMLID_914_" d="M1199.8 394.2c.3-.3 0-1.2.6-1.2 6.9-1.3 14.8 2.6 20.1 7.1 9.1 7.9-9.6 12.6-16.4 6.1l-4.3-12z" style="fill:#463277"/></g><g id="XMLID_911_"><path id="XMLID_912_" class="st3" d="M1202.4 393c-2.1-4.6 7.5-2.5 9.8-1.6 2.3.8 8.4 2.4 9.6 4.4 1.8 2.9-2.5 4.7-5.7 4.5l-13.7-7.3z"/></g><g id="XMLID_909_"><path id="XMLID_910_" class="st3" d="M1086.3 379.3c-1.2-.4-6.5.5-8.4 2.5-4.9 4.7-4.7 17.1-5 22.9-.1 13.1-2.2 25.9-3.1 38.6-.8 18.9-.4 37.4-.5 56 .1 3.1-1 10.1.6 12.3 2.4 3 10.5 3.7 14 4 7.7.6 26.3 1 31.1-6 3-4.7 1.6-18.2 1.5-23.6.2-10.8-.8-21.2.1-32 1.6-16.6 3.2-34 1.3-50.6-.9-8.5-.3-17.7-8.9-21.4-2-1.1-3.9-1.9-6.2-2.2l-16.5-.5z"/></g><g id="XMLID_906_"><g id="XMLID_907_"><path id="XMLID_908_" class="st4" d="M1202.5 399.5c6.2-21.7 4.3-43.7 7.2-65.7.8-4.6 4.5-29.2 8.1-28.2 4 1.2.6 25 .8 29.4-.1 1.9-.5 3.3-.5 5.2 2.5-7 3.7-14.5 5.6-21.2.9-3.1 1.4-9.8 3.9-12 3.3-2.9 8.6-2.9 7.1 2.5 7.4-7.1 3.7 10.8 3.3 14-1.5 6.9-3.5 14-5.5 20.8 1.4-6.4 6.4-15.6 13-16.7-.4 11.5-8.6 16.5-13.7 25.7-4.1 7.6-3.5 24.1-15.7 22.5-2.4 8.5-4.4 17.2-5.5 25.9l-8.1-2.2z"/></g></g><g id="XMLID_903_"><g id="XMLID_904_"><path id="XMLID_905_" class="st0" d="M1224.4 341.6s.1-.5.4-1.4.6-2.2 1.1-3.7c.9-3.1 2.3-7.1 3.8-11.1 1.3-4.1 2.7-8.1 3.8-11 .6-1.5 1.1-2.7 1.5-3.6s.6-1.4.6-1.4-.1.5-.3 1.4c-.2.9-.5 2.2-.8 3.8-.7 3.1-1.9 7.3-3.2 11.4-1.5 4-3.2 7.9-4.5 10.8-.7 1.5-1.3 2.6-1.7 3.5-.4.8-.7 1.3-.7 1.3z"/></g></g><g id="XMLID_900_"><g id="XMLID_901_"><path id="XMLID_902_" class="st4" d="M1204.7 332.5c-6.9 1.9-3.9 37.2 3.2 41.2 12.7 6.5 8.2-16.6 5-20.9-2.4-3.6-3.1-.9-4.9-6.7-1-3.2-1.3-7.2-1.3-10.6l-2-3z"/></g></g><g id="XMLID_897_"><g id="XMLID_898_"><path id="XMLID_899_" class="st0" d="M1215.9 371.2V370c0-.4.1-.8 0-1.4 0-.5-.1-1.1-.1-1.7s-.2-1.3-.2-2c-.1-.7-.2-1.5-.4-2.2-.1-.8-.3-1.6-.5-2.4l-.6-2.4c-.2-.8-.4-1.6-.8-2.4-.2-.4-.3-.8-.4-1.1-.2-.3-.3-.7-.5-1-.4-.6-.9-1.3-1.3-1.7-.4-.4-1.1-.8-1.6-1.4s-.7-1.2-.9-1.7c-.2-.5-.3-1-.4-1.3-.2-.7-.2-1.2-.2-1.2s.2.4.5 1.1c.2.3.3.8.6 1.2.2.5.6.9 1 1.3.4.3 1.1.6 1.7 1.1.7.6 1.2 1.1 1.7 1.8s1 1.5 1.2 2.3c.4.8.6 1.7.9 2.5s.4 1.7.6 2.5.3 1.7.4 2.5.2 1.6.2 2.4.1 1.5 0 2.1c-.1.7-.1 1.3-.2 1.8s-.3 1-.3 1.3c-.2.7-.4 1.2-.4 1.2z"/></g></g><g id="XMLID_894_"><g id="XMLID_895_"><path id="XMLID_896_" class="st0" d="M1214.9 339.4s1.2 0 3 .2c.9.1 1.9.2 3 .3.6.1 1.1.1 1.7.3.6.1 1.2.3 1.8.4.6.2 1.2.4 1.7.6.6.2 1.1.5 1.6.8 1.1.5 1.9 1.3 2.6 1.8.4.3.6.6.9.9.2.3.4.5.6.7.3.4.5.7.5.7s-.3-.2-.7-.4c-.2-.1-.5-.3-.8-.5s-.6-.4-1-.6-.8-.4-1.3-.6c-.4-.3-.9-.4-1.4-.6l-1.5-.6c-.5-.2-1.1-.3-1.6-.5-2.2-.6-4.6-1.2-6.3-1.7-1.7-.7-2.8-1.2-2.8-1.2z"/></g></g><g id="XMLID_892_"><path id="XMLID_893_" class="st4" d="M1039.4 545.7c-1.9 1.2-5.4 1.6-7.3 3.6-4.6 3.6-4.8 9.7-4.7 15.1.2 10.4 9 25.7 19.9 28.6 2.1-11.2-2.4-25.4-5.3-36.6 1.2 3.4 4 8 6.8 10.3 4.1-5.1-3.8-18.4-8.5-21.4l-.9.4z"/></g><g id="XMLID_887_"><g id="XMLID_890_"><path id="XMLID_891_" class="st1" d="M1085.9 829.9c.2-4.8-2-10.2-3.8-14.6l-23.1.9c-4.8 4.8-13.2 9.4-20 13.5-3.7 2.2-14.5 6.7-16.5 10.8 5.4 9.2 52.6-3.9 63.4-10.6z"/></g><g id="XMLID_888_"><path id="XMLID_889_" class="st5" d="M1022.5 840.4c-1.1 2.1.3 4.1 6.3 5.4 9 2 19.3.4 28.5-1.8 4.2-.9 8.7-4.6 13-4.7 5-.6 6.7 2.5 11.9-1.6 2.6-2 3.6-4.8 3.7-7.8-10.8 6.7-58 19.8-63.4 10.5z"/></g></g><g id="XMLID_882_"><g id="XMLID_885_"><path id="XMLID_886_" class="st1" d="M1091.3 831.4c-.5-4.7 1.2-10.3 2.7-14.9l23.1-.9c5.2 4.4 13.8 8.4 20.9 12 3.9 1.9 15 5.7 17.3 9.5-4.7 9.8-52.8.2-64-5.7z"/></g><g id="XMLID_883_"><path id="XMLID_884_" class="st5" d="M1155.3 837.2c1.2 2 0 4.1-5.9 5.9-8.8 2.6-19.2 1.9-28.6.3-4.3-.6-9-3.9-13.3-3.8-5-.2-6.5 2.9-12-.7-2.8-1.8-4-4.5-4.3-7.5 11.3 5.9 59.4 15.5 64.1 5.8z"/></g></g><g id="XMLID_880_"><path id="XMLID_881_" class="st6" d="M1039.2 534.2s5.1 109.2 8.5 127.2c3.4 17.9-2.6 58 3.4 88.4 3 15.2 8.1 32.9 5.3 48.2-.5 2.8-1.8 4.8 1.4 7.1-3.3 1.7-3.4 5.4 0 6.8-10.4 3.6 7.7 7 10.6 7.1 4 .1 18 2.4 19-2.4L1089 594s1.1 108 2.3 111.1c1.3 3.1-5.5 87.7-.7 109.9.7 3.3 12.5 4 14.6 3.9 4.1-.1 14.1-1.2 16.7-4.9 1.9-2.9 1-10.3-2.7-11.3 2.1-1.8 3.9-4.1 3.2-7-.5-.1-1 0-1.5-.1 6.6-3.8 1.8-7.4 0-11.5 0 0 5.9-73.8 7-92.9 1-19.1 13.4-139.2 8.8-155.1l-10.7-22.8-80.2 7.2-6.9.3.3 13.4z"/></g><g id="XMLID_864_"><path id="XMLID_865_" class="st7" d="M1093.9 520.5s.4 3.3 1 8.2c.3 2.5.7 5.4 1 8.5s.4 6.5.5 9.8c-.1 1.7 0 3.4-.2 5-.1 1.7-.3 3.3-.6 4.8-.2 1.6-.6 3.1-1 4.4-.5 1.4-.8 2.7-1.4 3.9-.3.6-.5 1.1-.7 1.7-.3.5-.6 1-.8 1.4-.5.9-1 1.7-1.5 2.2-.9 1.1-1.4 1.8-1.4 1.8s.4-.7 1.2-2c.4-.6.8-1.4 1.2-2.3.5-.9.8-2 1.2-3.1.5-1.1.7-2.5 1-3.8.3-1.4.5-2.8.7-4.4.2-1.5.3-3.1.4-4.7.1-1.6.1-3.3.1-4.9 0-1.6 0-3.3-.1-4.9-.1-1.6-.1-3.2-.2-4.8-.1-3.1-.3-6-.4-8.5-.2-5 0-8.3 0-8.3z"/></g><g id="XMLID_851_"><g id="XMLID_856_"><path id="XMLID_857_" class="st8" d="M1069.9 510.2c-4.8-.4-9.5-1-14.2-1.7-3.5-.5-8.4-.3-11.5-2.4l.5 12.5c4 .4 8.2 1.3 12.3 1.7 7.6.8 15.3 1.4 23.1 2.1.2-3.8.7-7.7.9-11.5-3.8-.1-7.5-.3-11.1-.7z"/></g><g id="XMLID_854_"><path id="XMLID_855_" class="st8" d="M1132.9 506.9c-1.1-.1-2.1.4-3.1.7-9.2 2.8-19.6 3.7-29.5 3.8-.4 3.9-.1 8.2-.2 12.3 5.7 0 11.4-.4 17-.8 4.3-.3 14.7-2 15.5-6.7.7-2.9.5-6.4.3-9.3z"/></g><g id="XMLID_852_"><path id="XMLID_853_" class="st9" d="m1092.1 511.3-11.3-.3c-.1 3.8-.7 7.7-.9 11.5 2 .2 3.9.4 5.9.6 4.7.5 9.5.7 14.4.7.1-4.1-.2-8.4.2-12.3-2.8-.1-5.6-.1-8.3-.2z"/></g></g><g id="XMLID_849_"><path id="XMLID_850_" class="st10" d="M1093.1 398.1c-3.5 14.5-3.9 20.7-8 45-1.6 7.8-4.3 27-2.8 30.5 2.6 6.2 8.9 17.1 13.3 21.9 3.7-5.3 8.5-16.6 11.4-22.4 1.5-3-5-51.2-9.3-75.1l-4.6.1z"/></g><g id="XMLID_847_"><path id="XMLID_848_" class="st10" d="M1093.4 385c-1.4 1.5-5.7 5.3-5.9 7.4-.8 3.2 3.6 8.3 6.6 9.4 4.1 1.4 7.5-3 9.1-7.1 1.7-3.8 1.3-5.8-1.6-8.9l-8.2-.8z"/></g><g id="XMLID_845_"><path id="XMLID_846_" class="st11" d="M1086.9 377.6c-2.3.6-7.2.1-9.2 1.9-4.3 3.8-4.9 15.1-3.1 20.3 2.5 8.6 10 8.2 15.1 2 4.5-5 5-10.5 6-16.9 1.3 6.1 8.4 27.6 17.5 20.8 6.8-5.3.5-19.7-1.1-26-6.9.7-18.9 8.8-25.2.8v-2.9z"/></g><g id="XMLID_843_"><path id="XMLID_844_" class="st4" d="M1064.2 243.7c-1.8 2.6-3.3 5.4-4.5 8.3-3.2 7.9-4.7 16.4-5.8 24.8-.9 7.4-1.6 13.2 0 26.4-1.9-2.3-4.3-1.7-6.9.2-3.4 2.7-3.6 5-3 9.2.9 7.4 6.9 13.7 14.3 13.3 4.5 13.4 10.8 27.4 28.3 31 1.2 7.4.6 16.1 1 23.5 3.8 3.9 20.5 5.6 19.8-.7-.3-2.9-1.1-17.4-2-22.1 8.2-2 11.8-3.1 17.3-6.7 6.8-4.4 11.7-11.1 15.2-18.3 3-6.7 5.8-14.1 6.7-21.3.7-6.6 2.4-12.7 3.6-19.3 1.2-8.2.7-17.4.3-25.9-1.3-25.1-24.5-39.9-48.3-39.5-12.2.2-24.5 4.2-33.1 13.3-1 1.2-2 2.5-2.9 3.8z"/></g><g id="XMLID_824_"><path id="XMLID_825_" class="st0" d="M1094 357.5s1.2-.2 2.9-.3h1.4c.5-.1 1-.1 1.5-.2.5 0 1.1-.1 1.6-.1.6 0 1.1 0 1.7-.2 1.1-.2 2.3-.3 3.4-.4s2.1-.3 3-.4c1.7-.2 3-.2 3-.2s-1.1.5-2.7 1.1c-.8.3-1.8.7-2.9.9-1.1.2-2.3.4-3.4.6-1.2.2-2.4.1-3.5.1-.6 0-1.1 0-1.6-.1s-1-.2-1.4-.3c-1.9-.1-3-.5-3-.5z"/></g><g id="XMLID_821_"><g id="XMLID_822_"><path id="XMLID_823_" class="st12" d="M1103.9 247.6c1.6-7.9.7-17 .3-24.9-3.9.1-15.2-4.6-18.1-2.4-4.9 3.8 6.5 6.3 8.8 7-1.7 0-7.9-.3-8.1 1.9s6 2.8 7.5 3.3c-2.2 0-10.6-.5-10.6 2.9.1 3.5 6.7 2.3 8.9 3 5 1.4 9 5.5 10.8 8.7l.5.5z"/></g></g><g id="XMLID_818_"><g id="XMLID_819_"><path id="XMLID_820_" class="st12" d="M1107.9 222.6c-.9 3-.3 7.7-.5 11.1-.2 4.7-1.3 9.4-1 14.1 2.4-6 6.5-8.3 12.7-9.4 1.5 0 5.4.4 5.9-1.3.9-2.7-3.5-3.1-5.2-3.1 2.9-4 7.3-6.1-.9-6.2 2.9-2.8 6.8-5.1 1.4-6.7-1.7-.5-4.9.1-6.7.4l-5.7 1.1z"/></g></g><g id="XMLID_816_"><path id="XMLID_817_" class="st12" d="M1041.6 269.8s0-.4.1-1.1.1-1.6.3-2.8c.2-1.2.5-2.5.9-3.9s.9-2.8 1.5-4.3c1.1-2.9 2.5-5.6 3.5-7.7 1.1-2.1 1.9-3.4 1.9-3.4s-.3 1.5-1 3.8c-.7 2.2-1.7 5.1-2.9 7.9-.6 1.4-1.1 2.8-1.6 4.2-.3.7-.5 1.3-.8 1.9-.2.6-.4 1.2-.6 1.7-.4 1.1-.7 2-1 2.6-.1.8-.3 1.1-.3 1.1z"/></g><g id="XMLID_814_"><path id="XMLID_815_" class="st12" d="M1051.6 274.8s.3-1.3.8-3.2c.1-.5.3-1 .5-1.5.1-.5.3-1.1.4-1.7.3-1.2.7-2.4 1.1-3.7.4-1.3.8-2.5 1.3-3.7.4-1.2.9-2.2 1.4-3.1.9-1.8 1.7-2.9 1.7-2.9s-.2 1.4-.7 3.3c-.1.5-.3 1-.4 1.5-.2.5-.3 1.1-.5 1.7-.3 1.2-.7 2.5-1.1 3.7-.4 1.3-.9 2.5-1.3 3.7-.2.6-.5 1.1-.7 1.7-.3.5-.5 1-.8 1.4-.9 1.7-1.7 2.8-1.7 2.8z"/></g><g id="XMLID_809_"><g id="XMLID_812_"><path id="XMLID_813_" class="st1" d="M1061.6 414.9c2.8-4.4 8-7.1 11.7-10.6-2.9-2.5-11-.7-13.7-3.5-2.1-2.6 2.2-6.7 4.2-9.1 3.7-4.7 7.9-8.4 12.4-11.8-4.6 1-9.8 2.5-14.1 3.5-12.1 2.4-22.9 3.5-25.3 17-4.3 24.8-7.3 50.1-11.1 74.9-.8 5.2-7.5 16.2-3.1 18.3-7.3 3.2-1.6 31.3-1.4 38.2.7 12.6 1.3 22.5 6.3 34.2 0-5 .4-10 2.5-13.9 1.7-3.7 4-3.8 7.4-5.2.2 4.6.7 7.7 2.1 12 3.7 10.8 10 21.1 18.4 29.2 3.1 3.4 8.5 10.7 13.1 6.3 3-3.1 2.4-12.6 2.7-16.5 2.1-25.2 2.5-50 3.3-75.6.1-3.6.3-7.2.4-10.8-7.4-21.3-13.2-42.6-16.9-65-.8-4.9-1.5-7.8 1.1-11.6z"/></g><g id="XMLID_810_"><path id="XMLID_811_" class="st6" d="M1080.6 406c.3-7-.8-20.8 3.4-26.5l-1.7-.4c-1.8 0-4 .4-6.2.8-4.5 3.4-8.6 7.1-12.4 11.8-2 2.4-6.2 6.5-4.2 9.1 2.7 2.8 10.7.9 13.7 3.5-3.7 3.5-8.8 6.3-11.7 10.6-2.5 3.8-1.9 6.7-1.2 11.3 3.8 22.4 9.5 43.7 16.9 65 .7-18.4 1.4-36.6 1.8-54.8.3-10 1-20.4 1.6-30.4z"/></g></g><g id="XMLID_807_"><path id="XMLID_808_" class="st11" d="M1200.1 398c.8-1.5 1.6-4.6 2.2-6.9v.8c4.3 2.8 12.4 6 19.6 6.2-.7 3.5-2.6 7.1-3.7 9.7l-18.1-9.8z"/></g><g id="XMLID_802_"><g id="XMLID_805_"><path id="XMLID_806_" class="st1" d="M1199.8 393.1c-1.1 4.9-11.5 48-17.3 48.7-3-4.3-3-6.3-5.2-1.6-5.9-5.1-11.6-8.5-16.6-14.4-5-5.4-9.1-13.4-13-19.7-2.7-4.6-3.9-9.5-6.1-13.8-2.4-5.5-7.7-7.7-12.3-9.9l-15.3-4.1c1.7 3.6 4.5 7.9 5.9 10.4.9 1.7 5.3 6.8 4.8 8.9-.2 3.5-6.3 3.6-8.6 5.4-3.7 2.7-1.7 3.8 1.6 7.5 3 3.4 5.6 4.8 5.7 9.2.4 6.1-2.6 13.4-3.4 19.2-2.9 15.3-8.2 36.3-12.7 53.2-.4 18.3-.8 33.5-1.1 40.5-.1 8.4-.6 48.1 1.8 51.5 5.4 8 16.6 2.3 22.6-2.2 6.3-5.3 9.9-13.8 10-21.6 0-16.2-.6-32.4-1.5-48.6-.6-15.3-1.5-62.5-1.7-72.1 10.4 10.7 20.3 18.7 33.2 26.3 7.9 4.7 19.3 11.7 29.4 9.5 8.4-1.9 11.8-18.7 14.2-26.3 3.8-11.1 6-22.6 8-36 .4-2.6.5-5.5.7-8.1-5.6-1.3-22.7-4.1-23.1-11.9z"/></g><g id="XMLID_803_"><path id="XMLID_804_" class="st6" d="M1123.3 419.5c-.1-4.3-2.7-5.7-5.7-9.2-3.3-3.7-5.3-4.8-1.6-7.5 2.3-1.8 8.4-1.9 8.6-5.4.5-2-3.9-7.2-4.8-8.9-1.4-2.5-4.2-6.8-5.9-10.4l-5.6-1.5c.9 3.7-.1 69.2-1.1 115.2 4.5-16.9 9.8-37.9 12.7-53.2.8-5.8 3.8-13.1 3.4-19.1z"/></g></g><g id="XMLID_800_"><path id="XMLID_801_" class="st12" d="m1146.1 246.3.6 1.2c.4.8.9 1.9 1.5 3.2.3.7.6 1.4 1 2.2s.6 1.7.8 2.5c.6 1.8 1.1 3.7 1.6 5.6.4 1.9.7 3.9 1 5.7.1.9.3 1.8.4 2.6.1.8.1 1.6.2 2.4.1 1.5.1 2.7.2 3.6v1.4s-.1-.5-.3-1.3c-.2-.8-.5-2-.8-3.5-.2-.7-.3-1.5-.5-2.3-.1-.8-.4-1.7-.6-2.6-.4-1.8-.8-3.7-1.2-5.6-.5-1.9-1-3.7-1.4-5.5-.2-.9-.3-1.8-.6-2.6-.2-.8-.5-1.6-.7-2.3-.4-1.4-.7-2.6-.9-3.5-.2-.7-.3-1.2-.3-1.2z"/></g><g id="XMLID_798_"><path id="XMLID_799_" class="st12" d="M1156 246.9s.2.4.6 1c.3.6.9 1.5 1.4 2.7.2.6.5 1.2.8 1.9s.5 1.4.7 2.1c.2.7.5 1.5.6 2.3.2.8.4 1.6.5 2.4s.2 1.6.4 2.4c.1.8.2 1.6.2 2.4.1 1.5.2 3 .2 4.2s-.1 2.3-.1 3-.1 1.1-.1 1.1-.1-.4-.2-1.1-.3-1.7-.5-2.9-.4-2.6-.7-4.1c-.2-1.5-.5-3.1-.8-4.7s-.6-3.2-1-4.7c-.2-.7-.3-1.5-.5-2.1-.2-.7-.3-1.3-.5-1.9-.3-1.2-.6-2.2-.8-2.9-.1-.7-.2-1.1-.2-1.1z"/></g><g id="XMLID_796_"><path id="XMLID_797_" class="st7" d="M1041.2 391.6s-.1.6-.4 1.7c-.2 1.1-.7 2.8-1.1 4.9s-.9 4.7-1.2 7.7c-.2 1.5-.4 3.1-.5 4.8-.1 1.7-.3 3.5-.3 5.3-.1 1.9-.2 3.8-.2 5.8v6.2c.1 4.3.3 8.8.6 13.4.5 9.3 1.3 19.2 1.5 29.2.1 5-.1 10-.1 14.9-.1 4.9-.2 9.7-.2 14.4-.1 9.3-.4 18-.6 25.5-.1 3.7-.2 7.1-.3 10.2-.2 3-.3 5.7-.5 7.8-.4 4.3-.6 6.8-.6 6.8s.4-2.5.6-6.8c.1-2.2.5-4.8.5-7.8v-10.2c0-7.5-.3-16.2-.2-25.5 0-4.7-.1-9.5 0-14.4 0-4.9.1-9.9 0-14.8-.2-9.9-.9-19.8-1.4-29.2-.2-4.7-.4-9.2-.3-13.5 0-2.1 0-4.2.1-6.2 0-2 .2-4 .3-5.8.1-1.9.3-3.7.5-5.3.2-1.7.4-3.3.7-4.8.4-3 1-5.6 1.5-7.7.4-2.1 1-3.7 1.3-4.9.1-1.2.3-1.7.3-1.7z"/></g><g id="XMLID_794_"><path id="XMLID_795_" class="st7" d="M1022 494.7s.7-.5 1.8-1c.6-.3 1.2-.5 2-.7.7-.2 1.5-.4 2.4-.5.4 0 .8-.1 1.2-.1.4-.1.8 0 1.2 0 .8 0 1.5.1 2.1.2s1.1.3 1.5.5c.3.1.5.2.5.2s-.2 0-.6.1-.9.1-1.4.2c-.6.1-1.3.2-2 .3-.7.1-1.5.2-2.3.3-1.6.2-3.1.4-4.4.5h-2z"/></g><g id="XMLID_792_"><path id="XMLID_793_" class="st7" d="m1020.1 499.3.6-.3c.4-.1.9-.4 1.6-.6.4-.1.7-.2 1.2-.2.4-.1.8-.1 1.3-.1.4 0 .9 0 1.4.1s.9.1 1.4.2.9.2 1.4.4c.5.1.9.3 1.3.5.8.3 1.6.7 2.2 1 1.2.7 1.9 1.3 1.9 1.3s-1-.1-2.3-.4c-.7-.1-1.4-.3-2.3-.5-.8-.2-1.7-.4-2.5-.6-.9-.1-1.7-.3-2.5-.4-.4 0-.8-.2-1.2-.2s-.7-.1-1.1-.1c-.7-.1-1.3 0-1.7-.1-.5.1-.7 0-.7 0z"/></g><g id="XMLID_790_"><path id="XMLID_791_" class="st7" d="M1028.6 490.2s.4-.4 1.1-.9l.6-.3c.2-.1.4-.3.6-.4.4-.3.8-.5 1.2-.8.4-.3.8-.6 1.2-.8l.6-.3.6-.3c.7-.4 1.3-.6 1.3-.6s-.2.6-.6 1.3c-.2.4-.5.8-.9 1.1-.4.4-.8.7-1.2 1.1-.5.3-1.1.6-1.6.7-.3.1-.5.2-.7.2s-.5 0-.7.1c-.9 0-1.5-.1-1.5-.1z"/></g><g id="XMLID_788_"><path id="XMLID_789_" class="st7" d="M1060.1 531c0 1.1-.1 2.2-.1 3.3s-.2 2.2-.2 3.3v7.4h-5.9c-1.7 0-3.4-.1-5.1-.2-1.7-.1-3.4-.4-5.1-.7-.8-.2-1.7-.4-2.5-.6l-2.4-.9c.9.1 1.7.2 2.5.3s1.7.1 2.5.2l2.5.1h2.5c3.4 0 6.8 0 10.2.1l-.9.8c.1-2.2.3-4.5.5-6.7.2-1.1.4-2.1.7-3.2.2-1.1.5-2.2.8-3.2z"/></g><g id="XMLID_786_"><path id="XMLID_787_" class="st7" d="M1022.2 545.3v-.7c0-.2.1-.5.1-.8s.1-.7.3-1.1c.1-.4.3-.8.5-1.3s.5-.8.8-1.3c.3-.4.6-.9 1-1.2.4-.4.8-.8 1.1-1.2.9-.7 1.7-1.4 2.6-1.8.9-.5 1.7-.9 2.4-1.2 1.5-.6 2.5-.9 2.5-.9s-.8.8-2 1.7c-.6.5-1.3 1-2.1 1.6-.8.6-1.5 1.3-2.3 1.9-.7.7-1.5 1.3-2.1 2-.3.4-.7.7-.9 1-.2.3-.5.6-.7.9l-.6.9c-.2.3-.3.5-.4.7-.1.6-.2.8-.2.8z"/></g><g id="XMLID_782_"><path id="XMLID_783_" class="st7" d="M1177.2 440.1s.3.8.5 2 .4 2.8.4 4.4v2.3c0 .7-.1 1.4-.1 2-.1 1.2-.3 2-.3 2s-.4-.7-.7-1.9c-.4-1.2-.5-2.8-.6-4.4 0-1.6.1-3.2.3-4.4l.5-2z"/></g><g id="XMLID_780_"><path id="XMLID_781_" class="st7" d="M1182.4 441.8s.4.5.8 1.4c.1.2.2.4.3.7.1.3.2.5.4.8.3.5.5 1 .7 1.6.5 1.1.9 2.2 1.2 3.2.3.9.3 1.6.3 1.6s-.6-.4-1.2-1.1-1.3-1.8-1.9-2.9c-.2-.6-.4-1.3-.6-1.9s-.1-1.1-.2-1.6c.1-1.2.2-1.8.2-1.8z"/></g><g id="XMLID_778_"><path id="XMLID_779_" class="st7" d="M1122 529.2s.2.4.4 1.3c.2.8.4 2 .6 3.5.2 1.4.4 3.1.6 4.9.1.9.3 1.8.5 2.6.1.4.2.9.4 1.2.1.2.2.3.3.4l.1.1c-.3-.2-.1 0-.1-.1h.1l.3.2c.6.2 1.5.2 2.3.1.9-.1 1.8-.2 2.6-.5 1.7-.4 3.3-.9 4.7-1.4 1.4-.5 2.5-.9 3.3-1.2s1.2-.6 1.2-.6-.3.4-1 .9-1.7 1.2-3 1.9-2.9 1.4-4.7 1.9c-.9.3-1.8.5-2.8.7-1 .1-2.1.2-3.4-.3l-.3-.2h-.1l-.2-.1-.2-.2c-.3-.3-.4-.5-.5-.8-.2-.5-.4-1-.5-1.5-.2-1-.3-2-.4-2.9-.1-1.8-.1-3.6-.1-5 0-1.5.1-2.7.1-3.5-.2-.9-.2-1.4-.2-1.4z"/></g><g id="XMLID_776_"><path id="XMLID_777_" class="st7" d="M1136.1 405.9s.1.6.2 1.6.3 2.4.4 4.2c.1.9.1 1.8.2 2.8s.2 2 .3 3.1c.2 2.1.4 4.4.5 6.7.1 2.3.2 4.6.2 6.8 0 1.1.1 2.1 0 3.1s-.2 1.9-.2 2.8c-.1 1.7-.3 3.2-.4 4.2s-.2 1.6-.2 1.6-.1-.6-.1-1.6-.2-2.4-.2-4.2c0-.9-.1-1.8-.1-2.8s-.2-2-.2-3.1c-.2-2.1-.3-4.4-.4-6.7-.1-2.3-.3-4.6-.3-6.8-.1-2.2 0-4.2 0-5.9 0-1.7.2-3.2.2-4.2s.1-1.6.1-1.6z"/></g><g id="XMLID_774_"><path id="XMLID_775_" class="st7" d="M1196.6 409.1s.3.2.9.4c.6.3 1.3.8 2.2 1.2.5.2 1 .4 1.5.7.5.3 1.1.4 1.7.7 1.2.5 2.5.9 3.8 1.3 2.7.7 5.3 1.5 7.3 2 2 .6 3.3 1.1 3.3 1.1s-1.4.1-3.5-.1c-1-.1-2.3-.2-3.6-.4-.6-.1-1.3-.2-2-.4s-1.4-.3-2.1-.5-1.3-.5-2-.7-1.3-.6-1.9-.8c-.6-.3-1.2-.6-1.7-.9s-1-.7-1.4-1c-.9-.6-1.4-1.3-1.9-1.7-.4-.7-.6-.9-.6-.9z"/></g><circle id="XMLID_57_" class="st14" cx="1084.6" cy="294.3" r="4.5"/><circle id="XMLID_56_" class="st14" cx="1118.5" cy="294.3" r="4.5"/><path id="XMLID_55_" class="st1" d="M1088.2 277.4c-.3 0-.7-.1-.9-.4-.1-.1-1.7-1.7-5.3-1.7-3.7 0-5.8 1.7-5.8 1.8-.5.4-1.3.4-1.8-.1s-.4-1.3.1-1.8c.1-.1 2.8-2.4 7.5-2.4 4.8 0 7 2.4 7.1 2.5.5.5.4 1.3-.1 1.8-.2.2-.5.3-.8.3z"/><path id="XMLID_54_" class="st1" d="M1125.4 277.4c-.3 0-.7-.1-.9-.4-.1-.1-1.7-1.7-5.3-1.7-3.7 0-5.8 1.7-5.8 1.8-.5.4-1.3.4-1.8-.1s-.4-1.3.1-1.8c.1-.1 2.8-2.4 7.5-2.4 4.8 0 7 2.4 7.1 2.5.5.5.4 1.3-.1 1.8-.2.2-.5.3-.8.3z"/><path id="XMLID_49_" class="st15" d="M1100.3 337.4c-.4 0-.7 0-1.1-.1-4-.4-6.8-3.4-7-3.5-.5-.5-.5-1.3 0-1.8s1.3-.5 1.8 0c0 0 2.4 2.4 5.3 2.7 4.8.4 7-2.8 7.1-3 .4-.6 1.2-.8 1.8-.4.6.4.8 1.2.4 1.7-.1.4-2.7 4.4-8.3 4.4z"/><g id="XMLID_52_"><path id="XMLID_772_" class="st1" d="M180.9 824.8c-2 4.1-8 7.4-11.9 10.2-3.5 2.6-9.7 5.3-11.7 9.3-2.4 4.9 4.5 4.7 7.8 4.5 7.5-.4 14.5-3.4 21.4-6.3 3.6-1.5 7.2-3.3 10.8-4.8 2-.9 5.5-1.1 6.7-3.1 1.1-1.8.1-4.1 0-6-.1-2 .1-3.9-.3-5.8l-22.8 2z"/><path id="XMLID_770_" class="st1" d="M253.3 824.8c2 4.1 8 7.4 11.9 10.2 3.5 2.6 9.7 5.3 11.7 9.3 2.4 4.9-4.5 4.6-7.8 4.5-7.5-.4-14.5-3.4-21.4-6.3-3.6-1.5-7.2-3.3-10.8-4.8-2-.9-5.5-1.1-6.7-3.1-1.1-1.8-.1-4.1 0-6 .1-2-.1-3.9.3-5.8l22.8 2z"/><path id="XMLID_768_" class="st6" d="M167.7 538c-1.3 20.1 3.4 211.5 7.7 250.2.5 5.2 3.3 11.3 2.8 16.1-.5 4.3-3.3 4.7-4.3 8.5-.9 4.3 4.3 5.2-.5 9.4.5 2.4.9 2.4.9 4.7 8.5 2.4 26.5 5.7 34 .5.3-25.7.9-54.3.9-79.4 0-20.3 10.5-135.1 11-139.3-.9 38.3 1.8 209.7 5.5 214-2.4 1.4-1.4 2.2-.5 4.6 7.6 1.6 16.1 1.8 23.7.5 2.9-.5 6.4-.4 8.4-2.8 1.9-2.2 2.4-6.4-.3-8.1 2.5-2.3 2.7-4.4 2.3-7.7-.8-7.2-1.4-15.2-1-22.5 2.4-44.4 0-89.3 4.3-133.7 1.9-21.3 3.8-42.5 4.7-64.2.9-13.2 3-34.4 3-47.6L167.7 538z"/><path id="XMLID_746_" class="st1" d="M283.3 412.7c0-10.9-.9-21.3-1.9-32.1-.5-6.6.9-10.4-5.7-14.2-4.7-2.8-10.4-2.4-15.1-3.8-4.2-.9-14.3-5-18.2-6.4-4.2 6.7-13.7 7.7-21.1 6.2-6.2-1.2-11.3-2.5-13.7-7.8-8.9 1.9-13.4 6.2-18.7 6.5-10.4.5-26.9-3.3-29.3 9.9-.9 5.2 1.4 10.4 2.4 15.6 1.4 7.6-1.9 10.9-2.8 17.9-.5 4.7.9 9 .5 13.7-.9 5.2-2.4 9.4-2.8 14.6-.5 10.9-.1 28.5 1.8 35.1 1.7 6 7.3 6.4 8.7 11.1 1.4 4.3-5.3 91.7 1.8 95 9.4 4.7 19.5 3.8 28.8.2 12.1-4.7 21.7-11.6 29.3-19.1 4.7 9 12.5 16.3 21.5 20.1 9.9 4.3 23.8 10.2 27.1-1.6 5.7-17.5.8-82.4 1.1-98.7 12.6-.8 6.3-51.4 6.3-62.2z"/><path id="XMLID_744_" class="st16" d="M219.7 362.4c7.4 1.5 16.9.4 21.1-6.2-.1 0-.1 0-.2-.1l-17-1.5c-7.5-1.2-13.1-.9-17.7.1 2.5 5.2 7.6 6.5 13.8 7.7z"/><path id="XMLID_741_" class="st16" d="M237.3 361.7c-9 4.7-19.4-.5-28.8 0-.9 11.8.9 59 18.4 61.4 11.3 1.9 14.6-42.5 14.6-53.4l-4.2-8z"/><path id="XMLID_739_" class="st1" d="M268.3 248.9c13.2-.9 17.5 9 14.6 21.3-.5 3.8-5.2 13.2-10.4 12.8-6.1-.9-6.1-15.6-6.6-20.3l2.4-13.8z"/><path id="XMLID_737_" class="st4" d="M275.5 279.9c-2.4-24.1 2.8-50.5-24.1-62.8-19.8-9-47.2-3.6-62.8 12-1.4 1.4-2.8 2.9-3.8 4.9h.5c-10.4 12-9.4 31-9 46.6-14.2.5-13.2 17.6-3.8 25.2 4.7 3.8 10.6-.9 12.5 5.9 2 7.1 12.5 16.8 19.1 20.1 5.2 3.3 9 4.1 11.3 6.3 4.4 4.1-.5 17.5 1.4 22.7 1.9 4.7 6.1 5.6 11.3 3.7 6.6-2.8 3.8-4.2 4.3-11.2 0-1.9-.5-11.3-.5-13.2 15.1.3 25.6-1.7 33.6-11.1 7.6-9.4 6.9-17.3 8.8-28.1.4 0 .8-.1 1.2-.1-.1-8-.4-15.6 0-20.9z"/><path id="XMLID_735_" class="st0" d="M275.5 279.9c-.4 5.2-.1 12.8.1 20.6 8-1.7 9.9-21.9-.1-20.6z"/><path id="XMLID_732_" class="st1" d="M169.1 282c1.4-.9 2.8-1.4 4.3-1.9 7.1-1.4 8.5 6.1 12.3 6.6 6.6.9 3.8-9.4 3.3-13.7-.5-2.8-2.4-3.8-1.9-6.1.5-2.8 5.2-5.7 5.7-9 3.3-12.8-13.7-23.6-21.7-12.8-2.3 2.9-3.2 6.7-3.7 10.3-.7 5.5-1.2 10.8-.5 16.4.2 3.5 1 6.9 2.2 10.2z"/><path id="XMLID_720_" class="st1" d="M222.2 374.9c-3.8 13.5-7.6 23.1-9.4 31.6 3.3 6.1 11.4 13.5 16.6 18.2 11.8-15.6 3.7-34.3-1.9-50.8l-5.3 1z"/><path id="XMLID_718_" class="st1" d="M228.3 364.5c-.7-.2-1.5-.2-2.3-.2-6.4.3-11.2 11.1-4 13.9 9.1 3.5 14.5-11.8 6.3-13.7z"/><path id="XMLID_716_" class="st11" d="M207.4 355.1c5.4 3.2 9.3 4.2 16.7 4.2 1.9 11.8-10.4 21.3-16.1 29.8-2.4-9.4-4.3-19.4-6.6-28.8l6-5.2z"/><path id="XMLID_712_" class="st7" d="m173 382 .8 2.4c.4 1.6 1.2 3.8 1.9 6.5.4 1.3.8 2.8 1.2 4.3.5 1.5.7 3.2 1.1 4.9.7 3.4 1.3 7.1 2 10.8.4 3.7.8 7.4 1.1 10.9.2 1.7.4 3.4.4 5s.1 3.1.1 4.5c.1 2.8 0 5.1 0 6.7v2.6s-.1-.9-.3-2.5-.5-3.9-.7-6.7c-.1-1.4-.2-2.9-.4-4.5-.1-1.6-.5-3.2-.6-5-.5-3.4-.9-7.1-1.3-10.8-.6-3.6-1.2-7.3-1.8-10.7-.3-1.7-.4-3.4-.8-4.9-.3-1.6-.6-3-.9-4.4-.6-2.7-.9-5-1.3-6.6-.3-1.6-.5-2.5-.5-2.5z"/><path id="XMLID_710_" class="st7" d="M160.8 434.9s1.2.1 2.8.4c.8.1 1.8.3 2.8.5s2.1.5 3.2.9c.5.2 1.1.4 1.6.6s1 .5 1.5.7c1 .5 1.8 1 2.5 1.6.7.5 1.2 1.1 1.5 1.4.3.4.5.6.5.6s-.3-.1-.7-.3c-.5-.2-1.1-.5-1.8-.8-.4-.2-.8-.3-1.2-.5s-.9-.3-1.4-.5c-.9-.4-2-.7-3-1.1-2.1-.7-4.2-1.4-5.8-2.1-1.6-.8-2.5-1.4-2.5-1.4z"/><path id="XMLID_708_" class="st6" d="M206.1 354.6c-9.9 5.5-15.4 5.2-26.9 12.4 8.5 1.6 23.7 10.7 22.9 11.8-.9 1.1-12.5 10.8-15.8 15.1 12.8 11.3 25.6 26.2 43 30.9-13.1-21-23.2-70.2-23.2-70.2z"/><path id="XMLID_706_" class="st6" d="M240.6 356.1c9.9 1.8 19.6 4.7 29.2 11.7-7.1 1.6-19.7 10.5-19 11.6s10.4 10.6 13.1 14.8c-10.6 11.2-20.4 26.5-34.9 31.2 9.4-24 11.6-69.3 11.6-69.3z"/><path id="XMLID_704_" class="st7" d="M229 422.9s0 2.1.1 5.7c0 3.6.1 8.8 0 15v10c0 3.6-.1 7.3-.3 11.2-.3 7.8-.6 16-.9 24.3-.4 8.3-.7 16.5-1 24.3-.1 3.9-.4 7.6-.5 11.2-.1 3.6-.2 6.9-.3 10-.1 6.2-.4 11.4-.5 15s-.2 5.7-.2 5.7 0-2.1-.1-5.7c0-3.6-.1-8.8-.2-15v-10c-.1-3.6.1-7.3.2-11.2.3-7.8.5-16 .8-24.3.4-8.3.8-16.5 1.1-24.3.1-3.9.4-7.6.5-11.2s.2-6.9.3-10c.2-6.2.5-11.4.6-15 .3-3.7.4-5.7.4-5.7z"/><path id="XMLID_702_" class="st7" d="M169.7 524.6s.4-.2 1.1-.4c.4-.1.8-.3 1.3-.4.5-.1 1-.4 1.6-.6.6-.2 1.2-.5 1.8-.7.6-.3 1.3-.6 2-1 .7-.3 1.4-.7 2.2-1 .7-.4 1.5-.7 2.2-1.1 3-1.5 6-3 8.3-4s3.9-1.6 3.9-1.6-.3.3-.9.7c-.6.4-1.5 1.1-2.5 1.8-1.1.7-2.3 1.5-3.7 2.3s-2.9 1.6-4.4 2.4c-1.6.7-3.1 1.5-4.6 2-.8.3-1.5.5-2.2.8-.7.2-1.4.4-2 .5s-1.2.3-1.7.3-1 .1-1.3.1c-.6-.1-1.1-.1-1.1-.1z"/><path id="XMLID_700_" class="st7" d="M250.5 512.8s1 .8 2.3 2c.3.3.7.7 1.1 1 .4.4.8.7 1.2 1.1.9.7 1.7 1.6 2.6 2.4.9.8 1.8 1.6 2.6 2.4.4.4.8.8 1.2 1.1.4.3.7.7 1.1 1 1.3 1.3 2.1 2.2 2.1 2.2s-1.1-.5-2.7-1.4c-.8-.5-1.7-1-2.6-1.7s-1.9-1.5-2.8-2.2c-.9-.9-1.8-1.8-2.5-2.6-.4-.4-.8-.8-1.1-1.3-.3-.4-.6-.8-.8-1.2-1.2-1.7-1.7-2.8-1.7-2.8z"/><path id="XMLID_698_" class="st7" d="M265.1 389.5s.1.7.3 2c.1 1.3.4 3.1.6 5.3.1 1.1.2 2.3.3 3.5.2 1.3.1 2.6.1 4 0 2.8-.1 5.7-.2 8.7-.3 2.9-.7 5.9-1.1 8.6-.2 1.4-.3 2.7-.6 3.9-.3 1.2-.5 2.4-.8 3.5-.5 2.2-1 3.9-1.3 5.2l-.5 2s.1-.7.2-2c.2-1.3.3-3.1.6-5.3.2-1.1.3-2.3.5-3.5s.2-2.6.4-3.9c.2-2.7.6-5.6.9-8.5.1-2.9.2-5.8.4-8.6 0-1.4.3-2.7.2-4v-3.6c0-2.2.1-4.1.1-5.3-.1-1.2-.1-2-.1-2z"/><path id="XMLID_696_" class="st7" d="M169.3 428.3s.9.4 2.1 1.1c1.2.7 2.8 1.8 4.3 3 .7.6 1.4 1.3 2.1 1.9.7.6 1.2 1.3 1.6 1.9.9 1.2 1.3 2 1.3 2s-.9-.5-2-1.3c-.3-.2-.6-.4-.9-.7-.3-.3-.7-.5-1-.8-.7-.5-1.4-1.1-2.1-1.7-1.5-1.2-2.9-2.5-3.8-3.6-1.1-1-1.6-1.8-1.6-1.8z"/><path id="XMLID_694_" class="st7" d="M264.7 433.9s.8-.6 2-1.3c.6-.3 1.3-.7 2.1-1.2l2.4-1.2c.9-.4 1.7-.7 2.6-1 .8-.3 1.6-.5 2.3-.6 1.4-.3 2.4-.3 2.4-.3s-.8.6-2 1.3c-.3.2-.6.3-1 .5s-.7.4-1.1.6l-2.4 1.2c-1.7.7-3.5 1.5-4.8 1.7-1.6.3-2.5.3-2.5.3z"/><path id="XMLID_692_" class="st1" d="M276.9 449.5c-3.3-14.6-37.3-8.5-49.1-10.9-4.7-1.4-12.3-5.7-17.5-3.3-4.7 1.9-4.7 9-3.3 14.6 2.8 9.9 19.8 13.7 28.8 18.4 10.4 5.7 21.7 7.1 33.1 7.1 11.8.5 10.9-3.8 12.3-14.2l-4.3-11.7z"/><path id="XMLID_690_" class="st7" d="M275.8 446.7c-.6-.8-1.3-1.6-2.1-2.2-.8-.7-1.7-1.1-2.6-1.6-.9-.4-1.9-.8-2.9-1.1-1-.3-2-.5-3-.7-4.1-.8-8.2-1-12.4-1.1-4.1-.1-8.3 0-12.5.1-2.1 0-4.2.1-6.3 0-2.1 0-4.2-.1-6.3-.5h-.1c-2.3-.7-4.5-1.7-6.7-2.4-2.2-.8-4.4-1.4-6.7-1.5-1.1 0-2.2.1-3.2.5-.3.1-.5.2-.7.3-.3.1-.5.3-.7.4-.4.2-.8.6-1 1-1.2 1.7-1.6 4-1.5 6.3 0 1.1.1 2.3.3 3.4.1.6.2 1.1.3 1.7.1.2.1.7.2.7l.3.8.3.8.4.7c.3.5.5.9.9 1.3.7.9 1.5 1.7 2.3 2.4 1.7 1.5 3.8 2.7 5.8 3.8 2.1 1.1 4.2 2 6.4 3l6.6 2.7c1.1.5 2.2.9 3.3 1.4l3.2 1.6c1.1.5 2.1 1.1 3.2 1.6l3.2 1.3c2.2.7 4.5 1.5 6.8 2 1.1.3 2.3.5 3.5.7s2.3.4 3.5.5c2.3.3 4.7.5 7 .7 2.4.1 4.7.2 7.1.2 1.2 0 2.4-.1 3.5-.4 1.1-.2 2.3-.7 3.1-1.6-.8.9-1.9 1.4-3.1 1.7-1.2.3-2.3.5-3.5.5-2.4.1-4.7 0-7.1 0-2.4-.1-4.8-.2-7.1-.4-1.2-.1-2.4-.3-3.5-.5-1.2-.2-2.4-.4-3.5-.6-2.4-.4-4.6-1.1-6.9-1.8l-3.4-1.3c-1.1-.4-2.2-1-3.2-1.5-2.2-1-4.2-2-6.4-2.9L224 464c-2.2-.9-4.4-1.9-6.5-3s-4.2-2.3-6.1-3.9c-.9-.8-1.8-1.6-2.6-2.6-.4-.5-.8-1-1.1-1.6l-.5-.8-.3-.8-.3-.8c-.2-.5-.2-.6-.3-1-.1-.6-.3-1.2-.4-1.8-.2-1.2-.3-2.4-.3-3.7 0-2.4.3-5.1 1.9-7.3.2-.3.4-.5.7-.8.2-.2.5-.5.8-.7s.6-.4.8-.5.6-.3.9-.4c1.2-.5 2.5-.6 3.8-.6 2.5.1 4.9.8 7.1 1.6 2.3.8 4.4 1.8 6.6 2.5h-.1c2 .4 4 .5 6.1.6s4.1.1 6.2.1c4.2 0 8.3 0 12.5.2s8.4.6 12.4 1.5c1 .2 2 .5 3 .9 1 .3 2 .8 2.9 1.2.9.5 1.8 1.1 2.6 1.8.8.9 1.4 1.7 2 2.6z"/><path id="XMLID_688_" class="st7" d="M162.6 415.4s.1-.2.4-.4c.3-.3.7-.5 1.1-1 .2-.2.4-.4.7-.6l.7-.7c.5-.5 1-1.1 1.6-1.6 1.1-1.1 2.2-2.3 3-3.1.9-.8 1.6-1.4 1.6-1.4s-.2.8-.7 1.9c-.3.6-.6 1.2-1.1 1.8-.2.3-.4.7-.7 1s-.5.6-.8.9c-.6.6-1.2 1.2-1.9 1.6-.6.5-1.3.8-1.9 1-.6.3-1.1.3-1.4.4-.4.1-.6.2-.6.2z"/><path id="XMLID_684_" class="st1" d="M211.5 295.8c-9.5 0-17.2-7.7-17.2-17.2s7.7-17.2 17.2-17.2 17.2 7.7 17.2 17.2-7.8 17.2-17.2 17.2zm0-32.7c-8.5 0-15.5 6.9-15.5 15.5 0 8.5 6.9 15.5 15.5 15.5 8.5 0 15.5-6.9 15.5-15.5-.1-10.7-4.8-15.5-15.5-15.5z"/><path id="XMLID_677_" class="st1" d="M228.6 278.7c-.2 0-.5-.1-.6-.3-.3-.3-.3-.9 0-1.2.1-.1 9.7-9 19.1-.5.4.3.4.9.1 1.2-.3.4-.9.4-1.2.1-8.2-7.4-16.4.1-16.7.5-.3.1-.5.2-.7.2z"/><path id="XMLID_675_" class="st10" d="M169.7 282.9c-.4 0-.8-.3-.8-.7-.1-.5.2-.9.7-1l25.6-5.5c.5-.1.9.2 1 .7s-.2.9-.7 1l-25.6 5.5h-.2z"/><path id="XMLID_673_" class="st4" d="M233.8 439.2c6.8-2.5 11.5-5.3 16.7-5.3 7.1 0 15.6 3.3 19.4 9.4-9.8 2.6-14.6 7.6-19.8 9.9-5.7 2.8-2.8 2.8-8 .9-4.3-.9-5.2-4.7-10.4-3.8.9-3.8.5-7.6-1.9-10.4l1.4-.5 2.6-.2z"/><path id="XMLID_671_" class="st1" d="M162.8 444.8c18.4-6.6 40.1 1.4 59.5-3.8 5.2-.9 11.3-5.2 15.6-2.8 4.3 2.4 9 11.8 9 16.5 0 7.1-5.2 8-11.8 10.9-7.6 3.3-15.6 6.1-23.6 8-12.3 2.4-30.2 7.1-42.5 5.2-10.4-1.9-17.5-24.1-9-31.6l2.8-2.4z"/><path id="XMLID_668_" class="st7" d="m165.7 443.5 3.4-.7c1.1-.2 2.3-.4 3.4-.5l3.5-.3 3.5-.2c4.6-.1 9.2.1 13.8.3 2.3.1 4.6.2 6.9.2 2.3 0 4.6 0 6.9-.1l3.4-.2 3.4-.4 3.4-.6 3.3-.8c2.4-.5 4.7-1.5 7.1-2.3 1.2-.4 2.4-.8 3.8-1.1 1.3-.2 2.7-.3 4.1.1.7.2 1.4.6 1.9.9.5.4 1.1.9 1.6 1.3.9.9 1.7 2 2.5 3.1 1.5 2.2 2.6 4.5 3.5 6.9.5 1.2.8 2.5 1 3.8.1.7.2 1.4.1 2.1l-.1.9-.2 1c-.3 1.4-.9 2.7-1.8 3.8-.9 1.1-2.1 1.8-3.2 2.4-2.3 1.2-4.7 2-7 3-2.4.9-4.6 2-7 2.8-2.4.9-4.8 1.8-7.2 2.5l-3.6 1.1-3.7.9c-2.4.7-5 1.1-7.4 1.6l-7.4 1.4c-2.5.5-5 .9-7.5 1.3s-5 .7-7.5 1c-2.5.2-5 .5-7.6.4-2.5.1-5-.3-7.5-.5 2.5.1 5 .4 7.5.2 2.5 0 5-.4 7.5-.6 2.5-.4 5-.7 7.4-1.2 2.5-.5 4.9-.9 7.4-1.5l7.4-1.6c2.5-.6 4.9-1 7.3-1.7l3.6-1 3.6-1.2c2.4-.7 4.7-1.6 7.1-2.5 2.3-.9 4.7-1.9 7-2.9s4.7-1.8 6.9-3c1.1-.6 2-1.2 2.7-2.1.7-.8 1.2-1.9 1.4-3l.1-.8v-.9c0-.5 0-1.1-.1-1.7-.2-1.2-.5-2.3-.9-3.5-.8-2.3-1.9-4.5-3.3-6.6-.7-1-1.4-2-2.2-2.8-.4-.5-.8-.8-1.3-1.1-.6-.4-.9-.6-1.5-.8-2.1-.6-4.6.1-6.9.9-2.4.8-4.7 1.8-7.3 2.3h.1l-3.4.8-3.6.7-3.5.3-3.5.1c-2.3 0-4.6 0-6.9-.1-2.3-.1-4.6-.2-6.9-.4l-6.9-.4-6.9-.3H176l-3.4.2-3.4.4-3.5.7z"/><path id="XMLID_666_" class="st7" d="M220.7 441s.4.2 1.1.6c.3.2.7.5 1.2.8s1 .6 1.5 1 1.1.9 1.7 1.4c.3.3.6.5.9.8l.9.9c.5.7 1.3 1.3 1.7 2.1l1.5 2.4c.4.9.7 1.7 1.1 2.6.3.9.5 1.8.7 2.6.2.8.3 1.7.4 2.5.1.8.1 1.5.2 2.2 0 1.4-.1 2.5-.1 3.3s-.1 1.3-.1 1.3l-.3-1.2c-.1-.8-.3-1.9-.6-3.2-.2-.7-.3-1.4-.5-2.1-.1-.8-.3-1.5-.6-2.3s-.5-1.6-.8-2.4-.7-1.6-1.1-2.4c-.4-.8-.9-1.5-1.3-2.2-.4-.8-1-1.4-1.5-2-.5-.7-1-1.3-1.5-1.8s-1-1.1-1.5-1.6l-1.3-1.3-1-1c-.4-.6-.7-1-.7-1z"/><path id="XMLID_664_" class="st4" d="M196.2 430.5c.4-4-5.1-5.8-9-3-7 5.1-17.3 25.8-5 15.8-1.9 5.7 3.1 4.4 6.8 3-1.5 4.1 1.6 6 8.5 2.7 0 1.5 0 1.5.5 1.9 7.1 1.9 22.2-12.8 10.4-13.2.6-3.4-.5-4.9-3.3-5.7.1-4.2-6-3.7-8.9-1.5z"/><path id="XMLID_661_" class="st0" d="M182 443.7s.6-1.1 1.6-2.6c.5-.8 1.1-1.7 1.8-2.6.4-.5.7-1 1.1-1.4.4-.5.8-.9 1.2-1.4.5-.4.9-.9 1.4-1.3s1-.8 1.4-1.1c.9-.7 2-1.2 2.8-1.6 1.7-.7 2.9-1.1 2.9-1.1s-.9.8-2.4 1.9c-.7.6-1.5 1.2-2.3 2-.8.7-1.7 1.6-2.5 2.4-1.6 1.7-3.2 3.6-4.6 4.9-1.4 1.1-2.4 1.9-2.4 1.9z"/><path id="XMLID_658_" class="st0" d="M189.1 446.4s.7-1.2 1.8-2.9c.3-.4.6-.9 1-1.3.4-.5.7-1 1.1-1.5.9-1 1.9-1.9 2.9-2.9.5-.5 1-.9 1.6-1.3.5-.4 1.1-.8 1.6-1.2 1-.8 2.1-1.3 3-1.8 1.8-.9 3.1-1.4 3.1-1.4s-1 1-2.5 2.3c-.4.3-.8.7-1.3 1-.4.4-.9.8-1.4 1.2l-1.5 1.2c-.5.4-1 .8-1.5 1.3-1 .9-1.9 1.8-2.9 2.6-.9.9-1.7 1.8-2.5 2.5-1.4 1.3-2.5 2.2-2.5 2.2z"/><path id="XMLID_656_" class="st0" d="M197.6 449s.5-.9 1.4-2.1c.2-.3.5-.6.7-1 .3-.3.5-.7.8-1.1.5-.7 1.2-1.5 1.8-2.2.7-.7 1.4-1.5 2-2.1.3-.3.7-.6 1-.9s.7-.5 1-.7c1.2-.9 2.1-1.3 2.1-1.3s-.5.9-1.4 2.1c-.4.6-1 1.2-1.6 1.9-.6.7-1.2 1.5-1.8 2.2-.7.7-1.3 1.5-2 2.1-.6.7-1.3 1.2-1.9 1.7-1.2 1-2.1 1.4-2.1 1.4z"/><circle id="XMLID_1325_" class="st14" cx="212.7" cy="279.3" r="4.5"/><circle id="XMLID_1326_" class="st14" cx="257.6" cy="279.9" r="4.5"/><path id="XMLID_1324_" class="st1" d="M218.7 251.9c-.3 0-.7-.1-.9-.4-.1-.1-1.7-1.7-5.3-1.7-3.7 0-5.8 1.7-5.8 1.8-.5.4-1.3.4-1.8-.1s-.4-1.3.1-1.8c.1-.1 2.8-2.4 7.5-2.4 4.8 0 7 2.4 7.1 2.5.5.5.4 1.3-.1 1.8-.2.2-.5.3-.8.3z"/><path id="XMLID_1323_" class="st1" d="M264.8 251.9c-.3 0-.7-.1-.9-.4-.1-.1-1.7-1.7-5.3-1.7-3.7 0-5.8 1.7-5.8 1.8-.5.4-1.3.4-1.8-.1s-.4-1.3.1-1.8c.1-.1 2.8-2.4 7.5-2.4 4.8 0 7 2.4 7.1 2.5.5.5.4 1.3-.1 1.8-.2.2-.5.3-.8.3z"/><path id="XMLID_1322_" class="st15" d="M233.6 319.5c-.4 0-.7 0-1.1-.1-4-.4-6.8-3.4-7-3.5-.5-.5-.5-1.3 0-1.8s1.3-.5 1.8 0c0 0 2.4 2.4 5.3 2.7 4.8.4 7-2.8 7.1-3 .4-.6 1.2-.8 1.8-.4s.8 1.2.4 1.7c-.1.4-2.7 4.4-8.3 4.4z"/><path id="XMLID_751_" class="st0" d="M275.5 279.9c-2.1-21.6 1.8-45.2-16.8-58.6 7.1 16.5 11.1 35.3 11.1 55.3 0 21.6-4.7 41.9-12.9 59.3 3.2-1.7 6.1-3.9 8.8-7 7.6-9.4 6.9-17.3 8.8-28.1.4 0 .8-.1 1.2-.1-.3-7.9-.6-15.5-.2-20.8z"/><path id="XMLID_682_" class="st1" d="M261.8 295.8c-5.2 0-9.8-2.2-13.1-6.3-.3-.4-.2-.9.1-1.2.4-.3.9-.2 1.2.1 3 3.7 7 5.6 11.7 5.6 8.5 0 15.5-6.9 15.5-15.5 0-8.5-6.9-15.5-15.5-15.5-8.5 0-15.2 6.6-15.2 15 0 .5-.4.9-.9.9s-.9-.4-.9-.9c0-11.6 9.7-16.7 17-16.7 9.5 0 17.2 7.7 17.2 17.2.1 9.6-7.6 17.3-17.1 17.3z"/><g id="XMLID_655_"><path id="XMLID_657_" class="st0" d="M228.7 364.2c6.1-2.7 3.4-4.1 3.9-11.1 0-1.9-.5-11.3-.5-13.2h-3.4v24.3z"/><path id="XMLID_662_" class="st0" d="M232.1 339.9h2c-.5.1-1.2.1-2 0z"/><path id="XMLID_665_" class="st0" d="M234.1 340c1.5 0 1.3 0 0 0z"/></g><path id="XMLID_714_" class="st11" d="M242.5 357.5c-5.8 1.7-13.1 1.8-19.2 1.8 1.9 8 9.3 22.2 15.4 27.9 2.8-8.5 4.7-17.9 3.3-26.9l.5-2.8z"/></g><g id="XMLID_51_"><g id="XMLID_1044_"><g id="XMLID_1047_"><path id="XMLID_1048_" class="st4" d="M427.2 772.8c.8 1 1 2.1 1.7 3 3.1-.8 6.1-3.1 9-4.5 1.8-.9 3.2-1.7 4.7-2.7-.1-1.4-.3-3-.3-4.1-.1-2.5-.2-5-.5-7.4s-.5-4.7-.8-7.1c-.1-1.3-.1-4.1-1-4.9l-12.5 3.6c.9 4.3 1.7 8.6 2.3 12.9.3 1.7 0 2.6-1.4 3.9-1.3 1.1-2.9 2.1-4.3 3-.9.6-1.8 1.2-2.6 1.8.6.1 1.2.2 1.8.4 1.4.5 2.9.9 3.9 2.1z"/></g><g id="XMLID_1045_"><path id="XMLID_1046_" class="st1" d="M437.9 771.3c-2.9 1.5-5.9 3.7-9 4.5-.7-.8-.9-2-1.7-3-1-1.2-2.5-1.6-3.9-2.2-.6-.2-1.2-.3-1.8-.4-2.4 1.7-4.9 3.5-7.5 5.1-1.7 1.1-7.7 4.1-6.6 7.1.9 3 6.6 1.3 8.4.9 4-1 7.6-1.9 11.4-3.5 3.1-1.4 5.9-3.1 9-4.6 1.8-.8 5.8-2 6.3-3.7.2-.8.2-1.8.2-2.9-1.6.9-3.1 1.8-4.8 2.7z"/></g></g><g id="XMLID_1042_"><path id="XMLID_1043_" class="st5" d="M420.6 772.7c-1.8 1.5-4.7 2.8-6.7 4.4-1.2.9-3.2 2.2-1.3 2.9.9.3 2.4-.3 3.1-.5 2.5-.6 4.6-1.7 6.7-2.8 1.3-.7 3-.6 2.5-2-.3-1.1-2.4-1.7-3.3-2.3v-.1l-1 .4z"/></g><g id="XMLID_1037_"><g id="XMLID_1040_"><path id="XMLID_1041_" class="st4" d="M460.7 772.1c-.7 1-.9 2.2-1.6 3.1-3.1-.7-6.2-2.8-9.2-4.1-1.8-.8-3.3-1.6-4.8-2.5 0-1.4.2-3 .1-4.2-.1-2.5 0-5 .2-7.5.2-2.4.3-4.8.5-7.1.1-1.3-.1-4.1.8-5l12.7 3.1c-.7 4.3-1.3 8.7-1.8 13-.2 1.7.2 2.6 1.6 3.9 1.3 1 3 2 4.4 2.8.9.6 1.8 1.1 2.7 1.7-.6.1-1.2.3-1.8.5-1.4.6-2.9 1.1-3.8 2.3z"/></g><g id="XMLID_1038_"><path id="XMLID_1039_" class="st1" d="M450 771c2.9 1.3 6 3.4 9.2 4.1.6-.9.8-2.1 1.6-3.1.9-1.2 2.4-1.7 3.8-2.4.6-.2 1.2-.4 1.8-.5 2.5 1.6 5 3.3 7.7 4.7 1.7 1 7.9 3.7 6.9 6.8-.8 3-6.5 1.5-8.4 1.3-4-.8-7.7-1.6-11.5-3-3.2-1.2-6-2.9-9.2-4.2-1.9-.7-5.9-1.7-6.4-3.4-.2-.8-.3-1.8-.3-2.9 1.4 1 3 1.8 4.8 2.6z"/></g></g><g id="XMLID_1035_"><path id="XMLID_1036_" class="st5" d="M466.8 771.7c1.9 1.5 5 2.6 7.1 4.1 1.2.8 3.4 2.1 1.6 2.9-.9.3-2.3-.2-3.1-.4-2.5-.5-4.6-1.5-6.8-2.5-1.3-.6-3.4-.5-3-1.9.3-1.1 2.8-1.8 2.8-2.4v-.1l1.4.3z"/></g><g id="XMLID_1033_"><path id="XMLID_1034_" class="st1" d="M475.6 175.7c-9.5-10.6 2.5-24.3 14.4-25.8 15.5-1.8 28.5 13.8 21.6 28.3-5.1 11.5-15.6 11.7-26.2 9.6l-9.8-12.1z"/></g><g id="XMLID_1030_"><g id="XMLID_1031_"><path id="XMLID_1032_" class="st8" d="M507.5 183.9c3.7 5.3 7.5 10.6 11.4 15.7.7.9 1.9-.4 1.2-1.2-3.9-5-7.6-10.1-11.2-15.3-.5-.9-2-.1-1.4.8z"/></g></g><g id="XMLID_1027_"><g id="XMLID_1028_"><path id="XMLID_1029_" class="st8" d="M473.9 132.5c4.3 7.9 9.5 15.3 14.6 22.7.6.9 2.1.1 1.5-.9-5-7.5-10.3-14.8-14.6-22.7-.5-1-2-.1-1.5.9z"/></g></g><g id="XMLID_1025_"><path id="XMLID_1026_" d="M490.7 152.6s0 .1.1.3c0 .2.1.5.1.9s-.1.9-.3 1.3c-.1.5-.4.9-.6 1.3-.3.4-.6.8-.9 1.1s-.7.6-1 .8c-.6.4-1.2.6-1.2.6s.1-.5.4-1.2.7-1.5 1.2-2.2c.2-.4.5-.7.7-1.1.3-.3.5-.6.7-.9.2-.2.4-.5.5-.7.2-.1.3-.2.3-.2z" style="fill:#59398e"/></g><g id="XMLID_1023_"><path id="XMLID_1024_" class="st4" d="M425.3 184.8c-1.4.8-2.7 1.7-3.9 2.7-5.1 4.2-7.1 12.3-8.4 18.4-1.9 9-1.9 21.6-.5 30.6-16-4.1-14.4 25.8 3.5 24.5 1.4 8.1 3.6 15.2 9.5 21.1 3.1 2.9 6.4 6.2 10.4 7.6 2.4.8 11.3 4.2 11.3 4.2 1 2.6.9 18 .9 18 1.8 2.1 6.9 1.6 9.3 1.3 4.5-.7 5.1 2 5.6-1.9.8-4.5.3-13.5.2-18 9.9-2.3 17-2.2 24.1-9.5 5.6-5.5 9.2-16.1 9.7-24.5 7.2-1.4 13.3-6.3 15-13.8 1.1-5.4-3.7-14.9-11.1-11.1-.3-6.4.5-7.8-.9-14.1-1.6-5.7-2.3-11.3-4.6-17-3.2-7.7-7.2-13.9-14.2-18.9-7.1-5-14.8-4.7-23-5.6-5.4-.6-10.9-.7-16.2.2-5.4.8-11.6 2.8-16.7 5.8z"/></g><g id="XMLID_1019_"><path id="XMLID_1020_" class="st12" d="M491.4 183.2c-.9 1.5-5 3.1-5.3 5.5-.3 2.1 4.4 8.3 5.3 10.4 1 2.7 2.3 8 6.2 7.4.8-3.3-1-6-2.3-9.2 1.8 2.1 2.8 4.7 5.8 5.3-.1-3-1.6-5.4-2.9-8 1.3 2.7 2.8 5.9 5.8 6.2 1.4-5.4-8.1-13.6-11.5-17.4l-1.1-.2z"/></g><g id="XMLID_1017_"><path id="XMLID_1018_" class="st12" d="M460.2 171c-9.2 1.7-19.1 2.2-28.3 6.6-7.1 3.8-13 10.2-.7 9.3-2.1 2.1-5.6 4.3-6.1 7.6 2.7.8 5.1-1 7.1-2.6-8.5 7.4 3.1 5.6 7.6 5.2 6.9-1 14.7-1.2 20.6-4.6 8.3-4.7 0-12.6.2-20.1l-.4-1.4z"/></g><g id="XMLID_1008_"><path id="XMLID_1009_" class="st4" d="M362.9 415.5c4.6 6.8 12.5 11.4 17.5 17.9 3.1 4.4 9.5 22 17.2 17.9 1.5-.6 4.9-9.1 4.9-10.6-.1-3.9-5.3-7.7-8-10-4-3.8-8.3-7.3-12.2-11.1-2.4-2.3-5-8-7.7-9.4v.3l-11.7 5z"/></g><g id="XMLID_1006_"><path id="XMLID_1007_" class="st4" d="M508.2 418.3c-3.5 6.1-11.8 8.9-16.8 13.9 1.3 4.5 1.7 8.7 2.4 13.1.7 4.5.5 9.9 5.9 7.7 4.5-1.9 5.5-8.5 8.7-11.9 3.2-3.7 6.4-6.7 9-11l-9.2-11.8z"/></g><g id="XMLID_1004_"><path id="XMLID_1005_" class="st1" d="M407.4 420.2c-1.5 12.2-11.7 22.8-16.6 33.4-10 20.2-6.8 47.6-1.1 73 4.9 21.7 9.3 34.6 15.8 56.2 7.5 25 4.5 38 .7 62.4-5.4 31.4 11.2 63.1 19.7 92.5-3.9 2.9-7.2 3.6-1 7.8 0 0-1.8 2-1.9 2.2-.4.8-.4 2.1.2 2.8.7.9 1.7.6 2.6 1.1-.2-.1-2.1 2-2.1 2.3-.8 6.2 27.1 4.8 31 4.7 4.4-.1 18.5.8 13.9-7.3-.3-.6-.5-.2-.5-.8 0-.3.7-1.1.8-1.5.6-1.6.1-2.9-.3-4.5-.6-2.2 1.7-3.9 1.1-6.2s-2.4-4-2-6.6c1-5.6 9-38.3 9.9-44.7 1-6.9 1.5-14.1 2.2-21.2 1.3-15.1 1.6-30.3 1.2-45.4-.6-27.8 13-58.6 18.7-86.8 4.1-20.4 4.6-31.1 3.4-49.4-1.2-16.5-7.7-40.9-16.7-52.8l-79-11.2z"/></g><g id="XMLID_1002_"><path id="XMLID_1003_" class="st7" d="M441.6 501.6s.2 1 .6 2.8l.3 1.5c.1.6.1 1.2.2 1.9.2 1.3.4 2.9.4 4.7.3 3.5.2 7.7.2 12.6-.1 4.9-.4 10.4-.4 16.3 0 12-.1 25.9-.1 40.9-.1 7.5-.1 15.2-.2 23.1v5.9c0 2 .1 4 .1 5.9.1 4 .2 8 .2 11.9.1 8 .2 16 .4 23.8.1 3.9.1 7.8.2 11.7.1 3.8.3 7.7.4 11.4.2 7.5.4 14.7.7 21.6.2 6.9.4 13.3.5 19.3l.5 39.9s-.6-16-1.5-39.9c-.2-6-.4-12.5-.7-19.3-.3-6.9-.6-14.1-.9-21.6-.1-3.7-.3-7.5-.4-11.4l-.3-11.7c-.2-7.9-.3-15.8-.5-23.8-.1-4-.1-8-.2-12 0-2-.1-4-.1-6s0-4 .1-5.9c.1-7.9.2-15.6.3-23.1.2-15 .5-28.9.7-40.9 0-6 .5-11.5.7-16.3.2-4.9.3-9.1.2-12.6 0-1.7-.2-3.3-.3-4.6-.1-.7-.1-1.3-.2-1.9s-.2-1.1-.3-1.5c-.5-1.7-.6-2.7-.6-2.7z"/></g><g id="XMLID_1000_"><path id="XMLID_1001_" class="st7" d="M418.8 493.4s.7.2 2 .4c1.3.3 3.1.7 5.3 1.4 2.2.7 4.7 1.5 7.4 2.3 1.3.4 2.7.9 4.1 1.2 1.4.4 2.9.7 4.3 1l2.2.3c.7.1 1.5.1 2.2.1.7.1 1.4 0 2.1 0h1.1l1-.1c.7-.1 1.4-.2 2-.3.6-.2 1.3-.3 1.9-.5 1.2-.3 2.3-.8 3.4-1.2 1-.5 2-.9 2.8-1.3s1.5-.8 2.1-1.1c1.2-.6 1.8-1 1.8-1s-.6.5-1.6 1.3c-.5.4-1.2.9-2 1.4s-1.7 1.1-2.7 1.6c-1.1.4-2.2 1.1-3.4 1.5-.6.2-1.3.4-1.9.6-.7.2-1.4.3-2.1.4l-1.1.2-1.1.1c-.7 0-1.5.2-2.3.1-.8 0-1.5-.1-2.3-.1l-2.3-.3c-1.5-.3-3-.6-4.5-1.1-1.5-.4-2.8-.9-4.2-1.4-2.7-1-5.1-2-7.2-2.8s-3.8-1.6-5.1-2c-1.2-.4-1.9-.7-1.9-.7z"/></g><g id="XMLID_998_"><path id="XMLID_999_" class="st7" d="M444.7 440.2s.2.9.5 2.6c.1.8.3 1.8.5 3 .2 1.1.3 2.5.4 3.9s.2 3 .4 4.6c.1 1.6.1 3.4.2 5.1 0 1.8.1 3.6.1 5.5s0 3.8-.1 5.7c-.1 3.8-.2 7.6-.4 11.2-.2 3.6-.4 6.9-.6 9.7-.4 5.7-.6 9.5-.6 9.5s-.1-1-.2-2.6c-.1-1.7-.2-4-.2-6.9v-9.7c.1-3.6.1-7.4.2-11.2.1-3.8.2-7.6.2-11.1 0-1.8.1-3.5.1-5.1s0-3.2-.1-4.6 0-2.7-.1-3.9c-.1-1.2-.2-2.2-.2-3 0-1.8-.1-2.7-.1-2.7z"/></g><g id="XMLID_996_"><path id="XMLID_997_" class="st7" d="m436.7 440.3.3 2.1c.1 1.3.2 3.2.2 5.5s.1 4.9.1 7.7 0 5.8.1 8.8.3 6 .6 8.7c.2 1.4.4 2.7.6 3.9.3 1.2.6 2.4 1 3.4s.9 1.9 1.4 2.6c.2.4.6.6.8.9.3.2.6.4.8.6.6.3 1 .5 1.4.6.3.1.5.1.5.1h-.5c-.4 0-.9-.1-1.5-.4-.3-.2-.6-.3-1-.6-.3-.3-.7-.5-1-.9-.7-.7-1.3-1.6-1.8-2.6-1-2.1-1.8-4.7-2.3-7.5s-.7-5.9-.8-8.9c-.1-3-.1-6.1.1-8.9.1-2.8.3-5.5.5-7.7.1-2.3.3-4.1.4-5.4.1-1.2.1-2 .1-2z"/></g><g id="XMLID_974_"><path id="XMLID_975_" class="st18" d="M476.2 313.3c-9.2 1.4-21.4-1.3-31.3-1.6-4.6.1-14.5-1.4-18.5.4-5.7 3-5 9.4-6 15.8-5.1 31.9-15.3 106.4-18 112.9 0 0 27.2 16 36.6 22.2 3.8-6.4 7.1-14.1 10.4-20 5.9 7.5 8.6 13.9 12.7 18.9 6.3 7.6 33.8-14.6 34.9-19.3 1.1-4.1-6.2-18.4-7.5-23-7.1-34 .2-69.5-5.7-102.9l-7.6-3.4z"/></g><g id="XMLID_972_"><path id="XMLID_973_" class="st11" d="M449.4 442.9s.2-2 .5-5.6c.2-1.8.3-3.9.6-6.4.1-2.5.3-5.3.4-8.3s.4-6.3.5-9.8.2-7.2.4-11c.4-7.6.5-15.7.7-23.9.5-16.2.9-32.5 1.3-44.7.2-6.1.4-11.2.5-14.7.1-3.6.2-5.6.2-5.6s.2 8.1.3 20.3c0 6.1 0 13.2-.1 20.8-.1 3.8-.1 7.7-.2 11.7s-.1 8.1-.3 12.1c-.3 8.1-.5 16.3-1 23.9-.2 3.8-.4 7.5-.6 11s-.5 6.8-.8 9.8c-.2 3-.5 5.8-.7 8.3-.3 2.5-.6 4.6-.9 6.4-.6 3.7-.8 5.7-.8 5.7z"/></g><g id="XMLID_967_"><g id="XMLID_970_"><path id="XMLID_971_" class="st6" d="M439.2 310.5c0-.4.8-2.2 1.2-2.6-1.6.6-3.2.9-4.8 1.1-6.5 7-14 12.7-19.1 17.7 4 2.1 11.1 3.2 14.6 6.2-2.1 4-10.5 4.6-12.1 8.9-1 3.4 5.6 46.7 13.7 65.6 5-35.9 8.1-91.2 6.5-96.9z"/></g><g id="XMLID_968_"><path id="XMLID_969_" class="st1" d="M419.1 341.8c1.6-4.4 10-5 12.1-8.9-3.5-3-10.7-4.1-14.6-6.2 5.1-4.9 12.6-10.7 19.1-17.7-7.5.8-15.7-1.6-22.9.4-3.5.9-25.8 28.8-35.8 38.1-6.4 6-34.1 24.2-36.9 32.9-3.7 9.2 31.2 55.9 42.2 63.1 3-3.5 11.4-11.5 12.8-15.4.8-2.3-6-8.8-8.3-13.6-3.2-6.4-7.1-12.7-10-18.9-8.7-18.6.6-7.8-1.2-14.3.5 3 3.4 1.8 3.9.5 0-1.3-.5-1.9-.5-3.2 4.4 2.5 23-15 27.6-19.6 1.2 11.6-2.6 49.8-2.8 59l-.3 3.9c1.4 4.7 15.5 15.3 20.8 16 3.1.8 6.1-12.4 8.6-30.6-8.2-18.8-14.9-62.1-13.8-65.5z"/></g></g><g id="XMLID_962_"><g id="XMLID_965_"><path id="XMLID_966_" class="st6" d="M479.6 338.4c-2.2-3-6-5.2-8.3-8.2 3.4-1.4 7.8-2.3 10.8-4.6-3.4-5-7.5-12.6-11.8-17.4l-4.2-1.4c1.9 6.9 1.3 17.3 1.4 25.1.2 8.4 1.7 52.4 2 83 6.2-22.2 13.8-71.7 10.1-76.5z"/></g><g id="XMLID_963_"><path id="XMLID_964_" class="st10" d="M489.1 307.7c-6.5-.7-11.5 3.8-17.6.9l-1.2-.4c4.3 4.8 8.4 12.4 11.8 17.4-3 2.2-7.3 3.2-10.8 4.6 2.2 3 6.1 5.3 8.3 8.2 3.6 4.8-3.9 54.3-10.2 76.6.1 8.9.1 16.7-.1 22.1 4.8-.5 18.9-7.4 21.9-11.3 3.4-4.4.9-16.5 1.2-22.6.9-16.5.9-29.5 3.6-47.5 6.3 5.9 13 14.8 17.5 21 7.3 10 4.7 16.4 9 15.9.7 7.5-20.8 23-28.4 31 8.4 5.5 12.8 11.7 15.2 21.7 14-15.1 39.5-40.7 41.1-46.3 1.8-5.5-50.4-90.3-61.3-91.3z"/></g></g><g id="XMLID_958_"><path id="XMLID_959_" class="st11" d="M447.5 304c-4.6 1.5-7.8 7.9-8.2 12.5-.5 3.9 1.3 9.3 5.1 8.1 3.3-1.2 8.5-8.9 10.1-11.7-3.9-2.1-5-4.4-7-7.9v-1z"/></g><g id="XMLID_948_"><path id="XMLID_949_" class="st4" d="M395.3 437.5c-4 2 1.7 9.2 3.1 11.4 1 1.6 3.1 5.4 5.4 5.3 2.5-.2 1.7-3.8 1.3-5.4 2.5 3.7 6.9 2.7 5-1.9 3.7 3 3.1-7.4 3-9.2-.2-3.1-1.4-7-2.7-9.8 1.5 1.2 5.8 9.7 8.1 7.2 2.3-2.5-.7-9-2.2-11.1-2.4-3.3-6.5-8.5-11.2-8.2-4.4.2-1.5 5.5-.3 7.6-4-.7-7.4 3.2-4.4 6.6-3 .4-5.4 4.4-3.3 7.1l-1.8.4z"/></g><g id="XMLID_946_"><path id="XMLID_947_" class="st0" d="M405.1 448.9s-.1-.2-.3-.5l-.3-.6c-.1-.3-.3-.5-.5-.8s-.4-.5-.5-.9c-.2-.3-.4-.6-.6-1-.4-.7-.9-1.4-1.3-2.1-.5-.7-.9-1.4-1.3-2.1s-.8-1.3-1.1-1.9c-.3-.6-.6-1-.8-1.4-.2-.3-.3-.6-.3-.6s.8.4 1.8 1.3c.5.4 1.1 1 1.6 1.6.6.6 1 1.4 1.6 2.1.4.8.9 1.5 1.2 2.3.3.8.6 1.5.7 2.2.2.7.2 1.2.2 1.6-.1.6-.1.8-.1.8z"/></g><g id="XMLID_944_"><path id="XMLID_945_" class="st0" d="M410.3 446.5s-.6-.8-1.3-2.1c-.2-.3-.4-.7-.5-1-.2-.4-.4-.7-.6-1.1-.4-.8-.9-1.6-1.3-2.4-.5-.8-.9-1.6-1.3-2.4l-.6-1.2c-.2-.4-.4-.7-.5-1-.6-1.3-.9-2.3-.9-2.3s.8.6 1.8 1.7c.5.5 1.1 1.2 1.6 2l1.5 2.4c.4.9.8 1.8 1.1 2.7.4.9.5 1.7.7 2.4.2 1.3.3 2.3.3 2.3z"/></g><g id="XMLID_942_"><path id="XMLID_943_" class="st0" d="M407.1 424.6s.4 0 1 .1c.5.1 1.1.5 1.6 1 .4.6.8 1.2.9 1.8.1.6 0 1 0 1l-.8-.4c-.2-.1-.4-.3-.7-.5l-.6-.6c-.4-.4-.7-1-1-1.4-.4-.5-.4-1-.4-1z"/></g><g id="XMLID_940_"><path id="XMLID_941_" class="st4" d="M499.4 439.6c3.9 2.1-2.1 9.1-3.6 11.3-1.1 1.6-3.3 5.3-5.6 5-2.5-.3-1.5-3.8-1-5.4-2.6 3.6-7 2.4-4.9-2.1-3.8 2.9-2.8-7.6-2.7-9.3.3-3.1 1.7-6.9 3.1-9.7-1.6 1.1-6.2 9.5-8.4 6.8-2.2-2.6 1.1-8.9 2.7-11 2.6-3.2 6.9-8.2 11.5-7.8 4.4.4 1.3 5.6 0 7.6 4-.5 7.3 3.5 4.1 6.8 3 .6 5.2 4.6 3 7.2l1.8.6z"/></g><g id="XMLID_938_"><path id="XMLID_939_" class="st0" d="M489 450.6v-.6c0-.4 0-.9.3-1.6.2-.7.5-1.4.8-2.2.3-.8.9-1.5 1.3-2.2.6-.7 1.1-1.4 1.7-2s1.1-1.1 1.7-1.5c1-.8 1.9-1.2 1.9-1.2s-.1.2-.3.5c-.2.3-.5.8-.8 1.4-.4.5-.8 1.2-1.2 1.8-.5.7-.9 1.3-1.4 2s-1 1.4-1.4 2c-.2.3-.5.6-.7.9s-.4.6-.6.8c-.2.3-.4.5-.5.7s-.3.4-.4.6c-.2.4-.4.6-.4.6z"/></g><g id="XMLID_936_"><path id="XMLID_937_" class="st0" d="M483.9 448s.1-1 .5-2.4c.2-.7.4-1.5.8-2.4.4-.8.8-1.7 1.3-2.6.5-.8 1.1-1.6 1.6-2.4s1.1-1.4 1.6-1.9c1-1 1.8-1.6 1.8-1.6s-.3 1-1 2.2c-.2.3-.4.7-.6 1s-.4.8-.6 1.1c-.4.8-.9 1.6-1.4 2.4-.4.8-.9 1.6-1.4 2.4-.2.4-.5.7-.7 1.1s-.4.7-.6 1c-.6 1.4-1.3 2.1-1.3 2.1z"/></g><g id="XMLID_934_"><path id="XMLID_935_" class="st0" d="M488.1 426.3s-.1.4-.4.9-.6 1-1.1 1.4c-.2.2-.4.4-.7.6-.3.2-.5.3-.7.5-.4.3-.9.4-.9.4s-.1-.4 0-1 .5-1.2.9-1.7c.5-.5 1.2-.9 1.7-1 .7-.1 1.2-.1 1.2-.1z"/></g><g id="XMLID_932_"><path id="XMLID_933_" class="st11" d="M443 384.6s1.1-.6 2.9-1.3c1.8-.7 4.2-1.5 6.6-2.1s4.9-1.1 6.8-1.4 3.2-.3 3.2-.3-1.1.6-2.9 1.3c-1.8.7-4.2 1.5-6.6 2.1s-4.9 1.1-6.8 1.4c-1.9.3-3.2.3-3.2.3z"/></g><g id="XMLID_930_"><path id="XMLID_931_" class="st7" d="M522.7 393.3s.2-.2.5-.4l.5-.5c.2-.2.4-.4.7-.5.6-.3 1.3-.8 2.1-1.1.4-.1.8-.3 1.2-.4s.9-.2 1.3-.3c.9-.1 1.8-.3 2.6-.2.8 0 1.6 0 2.3.1 1.3.2 2.2.4 2.2.4s-.9.3-2.1.6c-1.3.3-3 .5-4.6.8-.8.1-1.6.3-2.4.5-.8.1-1.4.4-2.1.5-.6.2-1.2.3-1.5.4-.5.1-.7.1-.7.1z"/></g><g id="XMLID_928_"><path id="XMLID_929_" class="st7" d="M521.7 389.4s.1-.2.3-.5.4-.7.8-1.1c.8-.9 2-1.8 3.4-2.5 1.3-.7 2.8-1.2 3.9-1.5 1.1-.3 1.9-.3 1.9-.3s-.6.5-1.5 1.2c-.9.6-2.2 1.4-3.5 2.1-.6.3-1.3.7-1.9 1-.6.3-1.2.6-1.7.8-.5.2-.9.5-1.2.6-.3.1-.5.2-.5.2z"/></g><g id="XMLID_926_"><path id="XMLID_927_" class="st7" d="M360.8 373.9s1 .3 2.4.9c.7.3 1.5.7 2.3 1.1s1.7 1 2.5 1.6c.4.3.8.7 1.2 1 .4.3.7.7 1.1 1.1.7.7 1.2 1.5 1.6 2.1.4.7.6 1.3.7 1.7.1.4.2.7.2.7l-.5-.5c-.3-.3-.7-.8-1.2-1.3-.3-.2-.6-.5-.9-.8s-.6-.5-1-.8c-.7-.6-1.4-1.2-2.2-1.7-1.6-1.1-3.2-2.3-4.3-3.2-1.3-1.2-1.9-1.9-1.9-1.9z"/></g><g id="XMLID_924_"><path id="XMLID_925_" class="st7" d="M363.3 370.8s.2 0 .6-.1c.4 0 .9-.2 1.5-.1.7 0 1.4 0 2.2.2.4.1.8.1 1.2.3.4.1.8.3 1.2.4l1.2.6c.4.2.7.4 1.1.7.7.5 1.2 1 1.7 1.5s.7 1 .9 1.3c.2.3.3.5.3.5s-.2-.1-.5-.3c-.3-.2-.7-.5-1.3-.8-.3-.1-.6-.3-.8-.5-.3-.2-.6-.3-1-.5-.6-.4-1.4-.6-2.1-1-.7-.3-1.5-.6-2.2-.8-.4-.1-.7-.3-1-.4l-.9-.3c-.6-.2-1.1-.4-1.4-.5-.5-.1-.7-.2-.7-.2z"/></g><g id="XMLID_922_"><path id="XMLID_923_" class="st7" d="M406.9 362.4s-.1-.5-.2-1.3c-.1-.9-.3-2.1-.4-3.5-.3-2.9-.6-6.8-.7-10.7 0-3.9.1-7.8.2-10.8.1-1.5.2-2.7.3-3.5.1-.9.2-1.3.2-1.3s.1.5.2 1.3c.1.9.3 2.1.4 3.5.3 2.9.4 6.8.5 10.7 0 2 .1 3.9.1 5.7 0 1.8 0 3.5-.1 5s-.2 2.7-.2 3.5c-.2.9-.3 1.4-.3 1.4z"/></g><g id="XMLID_920_"><path id="XMLID_921_" class="st7" d="M496.1 355.5s-.4-1.6-.7-4c-.3-2.4-.7-5.5-.8-8.7-.1-3.2-.1-6.4 0-8.8s.3-4 .3-4 .4 1.6.7 4c.3 2.4.6 5.5.8 8.7.2 3.2.2 6.4.1 8.8-.2 2.4-.4 4-.4 4z"/></g><circle id="XMLID_47_" class="st14" cx="439" cy="241.2" r="4.5"/><circle id="XMLID_46_" class="st14" cx="473" cy="241.2" r="4.5"/><path id="XMLID_44_" class="st1" d="M442.6 222.2c-.3 0-.7-.1-.9-.4-.1-.1-1.7-1.7-5.3-1.7-3.7 0-5.8 1.7-5.8 1.8-.5.4-1.3.4-1.8-.1s-.4-1.3.1-1.8c.1-.1 2.8-2.4 7.5-2.4 9.2 0 4.8.2 7.1 2.5.5.5.4 1.3-.1 1.8-.1.2-.4.3-.8.3z"/><path id="XMLID_42_" class="st1" d="M480.7 220.8c-.3 0-.7-.1-.9-.4-.1-.1-1.7-1.7-5.3-1.7-3.7 0-5.8 1.7-5.8 1.8-.5.4-1.3.4-1.8-.1s-.4-1.3.1-1.8c.1-.1 2.8-2.4 7.5-2.4 4.8 0 7 2.4 7.1 2.5.5.5.4 1.3-.1 1.8-.2.2-.5.3-.8.3z"/><path id="XMLID_41_" class="st15" d="M456.8 275.2c-.4 0-.7 0-1.1-.1-4-.4-6.8-3.4-7-3.5-.5-.5-.5-1.3 0-1.8s1.3-.5 1.8 0c0 0 2.4 2.4 5.3 2.7 4.8.4 7-2.8 7.1-3 .4-.6 1.2-.8 1.8-.4.6.4.8 1.2.4 1.7-.2.4-2.8 4.4-8.3 4.4z"/><path id="XMLID_40_" class="st0" d="M500.8 233.5c-.3-6.4.5-7.8-.9-14.1-1.6-5.7-2.3-11.3-4.6-17-3.2-7.7-7.2-13.9-14.2-18.9-2.1-1.5-4.2-2.5-6.4-3.2 9 16.1 14.2 34.8 14.2 54.8s-5.2 38.7-14.2 54.8c4.5-1.2 8.5-2.9 12.5-7.1 5.6-5.5 9.2-16.1 9.7-24.5 7.2-1.4 13.3-6.3 15-13.8 1.1-5.3-3.7-14.8-11.1-11z"/><g id="XMLID_1021_"><path id="XMLID_1022_" class="st1" d="M406.6 199.8c-1.3 6.7-2 16.2-1 23.1.7 5.7 8.9 22.6 10.7 9.7.7-7.2-1-16.2 1.6-23.1 3.1-8.2 24.1-7.4 31.6-8.5 11.4-1.4 26.5-6 33.8-15.1.7 4.8.2 9 2.4 13.7 2.2 5 6.2 9.2 8.7 13.9 4.1 7.4 3.4 17 7.7 23.8 15-10.5 9.8-32.6 2.9-46.2-1.9-4.2-3.8-8.3-8-10-1.2-.6-3.6-.2-4.5-.8-1.8-1.2-1.3-2.7-2.5-4.4-3.1-5-11.3-8.7-17.6-10.1-6.9-1.6-15.9-1.1-23.1.2-6.9 1.3-37.9 8.4-42.7 33.8z"/></g><path id="XMLID_39_" class="st0" d="M465.5 293.1c-2.6.2-5.2.3-7.9.4v20c4.2-.6 4.9 1.9 5.4-1.9.8-4.5.3-13.5.2-18 .8-.2 1.6-.4 2.3-.5z"/><g id="XMLID_960_"><path id="XMLID_961_" class="st11" d="M463.4 303.4c5.1 4.2 6.4 8.1 7 12.7.6 3.8 0 9.1-3.9 8.1-3.3-1-10.4-8.5-12.1-11.2 3.8-2.3 6.8-4.9 8.7-8.5l.3-1.1z"/></g></g><g id="XMLID_48_"><g id="XMLID_1165_"><path id="XMLID_1166_" class="st18" d="M675.2 362.8c-3.9 2-15.2.5-21.6 1-17.2 1.5-18.2 11.8-23.6 26-4.4 11.3-12.8 21.6-18.7 32.4-5.9 11.3-15.7 20.6-19.1 32.9-1 4.4-4.4 18.2 2.5 20.1 6.4 2 12.3-11.8 15.2-15.7 8.8-13.7 19.6-29 25.5-44.2.5 10.8-2 25.6-2.9 36.4-.5 7.4-1 14.2-1 21.1 0 5.9-2.5 10.8-2.9 15.7-2 23.1 46.2 21.6 60.4 19.6 9.3-1 20.1 0 28-4.4 14.7-7.9 7.7-14.4 6.2-25.2-1-9.8 1.2-48.2.2-61 8.1 19 24.3 39 27.7 49.4 0 0-2 7.5-10.8 24.4-5.1 9.9-9.1 15.9-17.9 25.6 5.4 3.9 5.4 12 11.7 15.9 7.4-9.3 39.3-57.7 38.8-66-1-7.9-11.3-22.3-15.2-28.7-5.4-8.3-34.5-74.1-47.1-73.9l-35.4-1.4z"/></g><g id="XMLID_1163_"><path id="XMLID_1164_" class="st0" d="M722.2 517.5c4.9-3.2 10.9 6 11.9 10 .8 3.4-1.3 6-4.4 3.6-2.8-2.1-4.7-5.1-6.1-8.1-.6-1.4-.9-2.8-1.6-4.2l.2-1.3z"/></g><g id="XMLID_1161_"><path id="XMLID_1162_" class="st1" d="M700.4 227.2c0-1.2 1.2-3.5 1.2-5.8 25.5 10.4 22 49.8 10.4 68.3-8.1-15-8.1-41.7-10.4-57.9l-1.2-4.6z"/></g><g id="XMLID_1150_"><g id="XMLID_1159_"><path id="XMLID_1160_" class="st4" d="M580.3 402.5c.4-5.3-1.5-9.5-3.8-13.3-5-7.2-3.4-11.4-3.1-20.6.4-8.4-.4-13-4.2-20.6-2.7-5.3-5-11.8-5-17.9 5.7-1.1 8.4 13.3 11.1 17.2 0-6.1-4.6-32.4 3.8-31.3-1.1-5 5.8-8.5 6.6-2.7 10-4 8.7 24.6 8.3 30.2 4.6-9.5 6.6 9.1 6.6 11.3 0 6.1-.9 12.7-1.2 18.8-.4 8.4-6.5 10.3-10.3 17.2-2.3 4.2-1.9 11.1-.8 16l-8-4.3z"/></g><g id="XMLID_1157_"><path id="XMLID_1158_" class="st0" d="M584.9 384.6s-.3-.7-.6-1.9-.9-3-1.2-5.2c-.1-1.1-.2-2.3 0-3.7v-.3l.1-.2.2-.4c.1-.3.3-.6.4-.9.4-.6.9-1.2 1.4-1.8 1.1-1 2.4-1.8 3.7-2.4 1.2-.7 2.6-1.2 3.4-2.2.9-.8 1.1-2.1 1.3-3.4s.2-2.7.2-4.1c0-2.7-.1-5.2-.2-7.4s0-4 .1-5.3c0-.6.1-1.1.2-1.5.1-.3.1-.5.1-.5v2c0 1.3.3 3.1.5 5.2.2 2.2.6 4.7.8 7.4.1 1.4.1 2.8-.1 4.3-.2 1.4-.5 3.2-1.7 4.5l-.9.8-1 .6c-.7.4-1.3.7-2 1-1.3.6-2.4 1.2-3.4 2-.4.4-.8.8-1.2 1.3-.3.5-.6 1.1-.8 1.6-.3 1.1-.3 2.2-.3 3.3.1 2.1.3 3.9.5 5.2.4 1.2.5 2 .5 2z"/></g><g id="XMLID_1155_"><path id="XMLID_1156_" class="st0" d="M579.2 315.9s.1.1.2.3c.1.2.3.4.5.9.3.8.8 1.9 1.1 3.3.7 2.8 1.3 6.6 1.7 10.4s.6 7.6.6 10.5c.1 2.9.1 4.8.1 4.8s-.2-.5-.4-1.3-.5-2-.8-3.4c-.5-2.8-1-6.6-1.4-10.4-.3-3.8-.7-7.6-.9-10.4-.1-1.4-.2-2.6-.4-3.4-.1-.4-.2-.7-.2-.9-.1-.3-.1-.4-.1-.4z"/></g><g id="XMLID_1153_"><path id="XMLID_1154_" class="st0" d="m585.8 313.2.3 1.2c.2.8.5 1.9.8 3.2.6 2.7 1.2 6.3 1.7 9.9.4 3.6.6 7.3.6 10v4.6l-.3-1.2c-.2-.8-.4-1.9-.6-3.2-.5-2.7-1-6.3-1.3-9.9-.2-1.8-.4-3.6-.6-5.3-.2-1.7-.3-3.3-.3-4.7-.1-1.4-.1-2.5-.1-3.3-.3-.9-.2-1.3-.2-1.3z"/></g><g id="XMLID_1151_"><path id="XMLID_1152_" d="M574.1 348.6s.9-.8 2.3-1.7c.7-.5 1.5-1 2.5-1.4 1-.5 2-.9 3.1-1.3s2.2-.7 3.2-1 2-.5 2.8-.7c1.7-.3 2.8-.4 2.8-.4s-1 .6-2.5 1.4c-.8.4-1.7.8-2.6 1.2-1 .4-2 .8-3.1 1.2-1 .4-2.1.8-3.1 1.1-.5.2-1 .3-1.4.5-.5.2-.9.3-1.3.5-1.6.4-2.7.6-2.7.6z" style="fill:#f49d84"/></g></g><g id="XMLID_1148_"><path id="XMLID_1149_" class="st4" d="M633.7 294.6c.4-3.8-9-1.7-11.4 0-8 5.3-3 21.4 9.9 21.4 2.8 0 5.7 1.5 5.7 1.5s3.8 5.7 5.3 8c3.1 4.6 5.7 8 10.3 10.7 6.3 3.4 15 7.8 17.8 8.2 1.6.2.9 3.7.9 5.2-.1 6.3-.9 12.3-.9 19.9 3.4 0 8.3.8 11.7 0 5.7-.8 5.2 5.2 5.6-.1.4-6.9-1.9-18.3-1.1-25.2 20.2-2.3 34.7-19.1 32.8-40-.8-9.2-5.7-17.9-5.7-27.1 0-9.5 1.1-17.9-1.1-27.8-1.5-7.6-4.6-16.4-11.1-21-11.1-8.4-27.1-7.2-38.5-1.1-11.4 6.1-22.9 9.9-28.6 22.1-5.7 11.8-4.2 24-4.2 36.6l2.6 8.7z"/></g><g id="XMLID_1131_"><g id="XMLID_1138_"><path id="XMLID_1139_" class="st13" d="M651 826.4c.6-.4 1.1-.7 1.6-1.1-.6.3-1.1.7-1.6 1.1z"/></g><g id="XMLID_1136_"><path id="XMLID_1137_" class="st5" d="M615.3 834.6c1.3 5.7 12 4.7 17.3 3.4 3.8-.8 10.3-2.7 13.3-5.3 2-1.4 3.1-4.4 5.1-6.2-12 7.5-26.6 13.7-35.7 8.1z"/></g><g id="XMLID_1134_"><path id="XMLID_1135_" class="st1" d="m661.6 801-11.8.4c-3.1 5.3-9.9 11.1-14.5 15.3-5.3 4.2-18.3 8.8-19.8 14.9-.3 1.2-.3 2.2-.1 3.1 9.2 5.5 23.8-.6 35.7-8.2.5-.4 1-.8 1.6-1.1 4.5-3 8.6-6.1 11.7-8.8.1-5.2-.2-12-2.8-15.6z"/></g><g id="XMLID_1132_"><path id="XMLID_1133_" class="st5" d="M652.6 825.4c.3-.1.6-.3.9-.3 0 3.8 3.8 3.4 6.9 2.3 3.8-1.9 3.4-4.2 3.8-8.4.1-.7.1-1.5.1-2.4-3.1 2.7-7.2 5.8-11.7 8.8z"/></g></g><g id="XMLID_1122_"><g id="XMLID_1129_"><path id="XMLID_1130_" class="st13" d="M692.8 826.4c-.6-.4-1.1-.7-1.6-1.1.6.3 1.1.7 1.6 1.1z"/></g><g id="XMLID_1127_"><path id="XMLID_1128_" class="st5" d="M728.5 834.6c-1.3 5.7-12 4.7-17.3 3.4-3.8-.8-10.3-2.7-13.3-5.3-2-1.4-3.1-4.4-5.1-6.2 11.9 7.5 26.5 13.7 35.7 8.1z"/></g><g id="XMLID_1125_"><path id="XMLID_1126_" class="st1" d="m682.2 801 11.8.4c3.1 5.3 9.9 11.1 14.5 15.3 5.3 4.2 18.3 8.8 19.8 14.9.3 1.2.3 2.2.1 3.1-9.2 5.5-23.8-.6-35.7-8.2-.5-.4-1-.8-1.6-1.1-4.5-3-8.6-6.1-11.7-8.8-.2-5.2.2-12 2.8-15.6z"/></g><g id="XMLID_1123_"><path id="XMLID_1124_" class="st5" d="M691.2 825.4c-.3-.1-.6-.3-.9-.3 0 3.8-3.8 3.4-6.9 2.3-3.8-1.9-3.4-4.2-3.8-8.4-.1-.7-.1-1.5-.1-2.4 3.1 2.7 7.1 5.8 11.7 8.8z"/></g></g><g id="XMLID_1120_"><path id="XMLID_1121_" class="st8" d="M632.4 501.3v9.8c14 4.4 84.4 4.1 85.4-.5.6-2.7 1-4.9 0-8.4 0 0-82.4-.9-85.4-.9z"/></g><g id="XMLID_1118_"><path id="XMLID_1119_" class="st6" d="M642.3 501.1c1 2 1.5 5 1 7.5-3.4 1.5-6.9 2-10.3 2-3 11.5-2.1 24.7-2 36.4.1 20.7.9 41.5 1.9 62.2 2 43.2 4.8 86.3 8 129.4.5 6.7 1 13.4 1.6 20.2.2 2.2.5 4.5.6 6.7.2 6.4 4.6 14.1 3.3 20.2-.6 2.7-4 3.8-3.9 6.9.1 3.3 3.1 4.3 3 8.3-.1 3.2-2.9 4 0 6.4 1.7 1.4 6.1 1.3 8.3 1.6 4.8.7 12.9 3.6 14.2-3.2l-3.4-255.5h15c-.5 24-.9 49.6-1.4 74.6-.7 39.5-1.4 78.8-2.2 118.3-.3 15.2-.6 30.4-1.3 45.6-.2 5.2-.7 12.4 1 17.1 2 5.4 7.9 4.5 13.7 4.4 5.5-.1 12.1-1.5 7.9-8.3 4.9-3.6-1.1-4.7-2-7.4-.7-2.1 1.1-7 .5-9.8 0 0 3.4-10.3 3.4-22.6s3.2-57 3.2-57l15.8-194.3-7.9-2v-6.6l-9-.9v7.5l-50 2v-9.7h-9z"/></g><g id="XMLID_1108_"><path id="XMLID_1109_" class="st7" d="M648.2 797.8s.2 0 .7.2c.4.1 1 .3 1.7.4.3.1.7.1 1.1.3.4.1.8.1 1.2.2.8.2 1.7.2 2.6.3.9 0 1.8.1 2.6 0 .4-.1.8 0 1.2-.1s.7-.1 1.1-.2c.3 0 .6-.1.9-.2.3-.1.5-.2.7-.2.4-.1.6-.2.6-.2l-.5.5c-.2.1-.3.3-.6.5-.2.2-.5.4-.8.6-.3.2-.7.4-1.1.5-.4.2-.8.2-1.3.3s-.9.2-1.4.2h-1.5c-.5-.1-1-.2-1.5-.2s-.9-.2-1.4-.4c-.9-.3-1.7-.7-2.3-1-.7-.3-1.1-.8-1.4-1-.5-.3-.6-.5-.6-.5z"/></g><g id="XMLID_1106_"><path id="XMLID_1107_" class="st7" d="M651.6 793.4h.3c.2 0 .5 0 .8-.1.2 0 .6-.1.9-.1.3-.1.7-.1 1.1-.2.7-.1 1.5-.2 2.2-.2.6 0 1.1.1 1.1.1s-.3.4-.8.8c-.3.2-.6.4-1 .6-.4.2-.8.3-1.3.4-.4.1-.9.1-1.3 0s-.8-.2-1.2-.4-.5-.4-.6-.6c-.2-.2-.2-.3-.2-.3z"/></g><g id="XMLID_1104_"><path id="XMLID_1105_" class="st7" d="M676.6 794.9s.2.1.6.2c.4.1.8.4 1.4.7.3.1.6.3.9.4.3.2.7.3 1 .4.7.3 1.5.5 2.3.8.8.2 1.6.5 2.3.6.4 0 .7.2 1.1.2.3 0 .7.1 1 .1.6.1 1.1 0 1.5 0h.6s-.2.1-.5.3c-.4.1-.9.5-1.5.6-.3.1-.7.2-1.1.2-.4.1-.8 0-1.2 0s-.9 0-1.3-.1-.9-.2-1.3-.3c-.4-.2-.8-.3-1.3-.5-.4-.1-.8-.4-1.2-.6-.7-.4-1.4-.9-1.9-1.4-.5-.4-.8-.9-1.1-1.2-.1-.2-.3-.4-.3-.4z"/></g><g id="XMLID_1102_"><path id="XMLID_1103_" class="st7" d="M681.5 790.9s.4-.3 1.1-.6c.2-.1.3-.1.5-.2s.4-.2.5-.3c.4-.2.7-.3 1.1-.4.4-.2.8-.3 1.2-.4.2-.1.4-.1.6-.2.2-.1.4-.1.5-.2.7-.2 1.2-.2 1.2-.2s-.2.5-.7 1.1c-.2.3-.6.6-1 .8-.4.3-.8.5-1.3.7-.5.1-1 .3-1.5.3-.5.1-.9 0-1.2-.1-.5 0-1-.3-1-.3z"/></g><g id="XMLID_1100_"><path id="XMLID_1101_" class="st7" d="M671.2 509.1s.1.6.3 1.7.4 2.6.7 4.4c.5 3.6 1 8.5 1.4 13.3s.6 9.7.6 13.4v6.1s-.1-.6-.3-1.6c-.2-1.1-.4-2.6-.7-4.4-.5-3.6-1-8.5-1.4-13.3s-.6-9.7-.6-13.4v-6.2z"/></g><g id="XMLID_1098_"><path id="XMLID_1099_" class="st7" d="m677.1 506.7.3 1.2c.2.8.4 1.9.7 3.2.3 1.3.6 2.9.8 4.6.2 1.7.4 3.5.4 5.4 0 1.8-.1 3.7-.5 5.4-.1.9-.5 1.7-.8 2.4-.4.7-.7 1.4-1.1 2-.4.6-.8 1.1-1.3 1.4-.5.4-.8.7-1.2.8-.7.3-1.2.5-1.2.5s.4-.3 1-.8c.3-.2.6-.6 1-1s.6-.9.9-1.5c.3-.5.5-1.2.8-1.9.2-.7.4-1.5.5-2.3.2-.8.2-1.6.2-2.5s.1-1.7 0-2.6c0-1.8-.1-3.6-.2-5.2-.1-1.7-.2-3.3-.3-4.6-.1-1.4 0-2.5-.1-3.3.1-.8.1-1.2.1-1.2z"/></g><g id="XMLID_1092_"><path id="XMLID_1093_" class="st11" d="M750.7 467.8s0-.2.1-.6.3-.9.7-1.5c.4-.5.9-1.2 1.5-1.7.6-.6 1.4-1 2.2-1.4.4-.2.8-.4 1.2-.5.4-.2.8-.2 1.3-.3.8-.1 1.6-.2 2.3 0 .3 0 .6.1.9.2.3.1.5.2.6.3.3.2.5.3.5.3h-.6c-.4 0-.9 0-1.5.2-.3 0-.6.1-.9.2-.3.1-.7.2-1 .3-.7.3-1.4.5-2.1.9-1.4.7-2.8 1.5-3.7 2.2-.5.4-.8.7-1.1.9-.3.4-.4.5-.4.5z"/></g><g id="XMLID_1090_"><path id="XMLID_1091_" class="st11" d="M723.6 419s-.3-1.6-.5-4-.3-5.5-.3-8.7.2-6.3.5-8.7c.2-2.4.5-3.9.5-3.9s.3 1.6.5 4 .3 5.5.3 8.7-.2 6.3-.5 8.7c-.2 2.3-.5 3.9-.5 3.9z"/></g><g id="XMLID_1088_"><path id="XMLID_1089_" class="st11" d="M635.3 415.8s-.2-1.2-.2-3c-.1-1.8 0-4.2.2-6.6.3-2.4.8-4.8 1.2-6.6.4-1.8.9-2.9.9-2.9s.1 1.2.1 3.1c0 1.8-.2 4.2-.5 6.6-.2 2.4-.6 4.8-.9 6.6-.4 1.6-.8 2.8-.8 2.8z"/></g><g id="XMLID_1086_"><path id="XMLID_1087_" class="st18" d="M576.4 398.3c4 0 8.7.3 13-2 4.9 16.6 10.7 34 14.5 51.2 1.2 5.8 2.9 13.4.3 18.9-2.3 4.9-7.6 12.8-14 8.4-4.1-3.2-4.9-12.5-6.1-17.2-1.7-7-2.6-13.7-3.2-20.6-.6-6.7-1.1-13.4-2-20.1-.6-5.2-.6-12.8-2.6-17.4l.1-1.2z"/></g><g id="XMLID_1084_"><path id="XMLID_1085_" class="st11" d="M578.3 411h3.6c.4 0 .8-.1 1.3-.1.4 0 .9-.1 1.3-.2s.9-.1 1.3-.2.9-.2 1.3-.4c.4-.1.8-.3 1.2-.5.4-.1.8-.3 1.1-.5.4-.2.7-.3 1-.5.3-.1.6-.3.9-.5.3-.1.5-.3.7-.4l.6-.3s-.1.2-.4.6c-.1.2-.3.4-.5.6s-.4.5-.7.8-.6.5-.9.8c-.3.3-.7.6-1.2.8-.4.2-.9.5-1.3.7-.5.2-1 .3-1.5.5-.5.1-1 .1-1.5.2s-1 0-1.5 0-.9 0-1.4-.1l-1.2-.3c-.7-.2-1.3-.5-1.7-.6-.3-.3-.5-.4-.5-.4z"/></g><g id="XMLID_1082_"><path id="XMLID_1083_" class="st11" d="M730.9 506.7s.3 0 .9.1c.6.1 1.4.2 2.3.5.5.1 1 .3 1.5.5s1.1.4 1.7.7c.6.3 1.1.7 1.7 1 .5.4 1.1.9 1.5 1.4.5.5.9 1.1 1.2 1.7.4.6.5 1.3.7 1.9.2.6.3 1.2.3 1.8.1.6.1 1.1 0 1.6-.1 2-.4 3.3-.4 3.3s-.1-.3-.2-.9c-.1-.6-.2-1.3-.4-2.3l-.3-1.5c-.1-.5-.3-1-.5-1.6-.2-.5-.5-1-.7-1.5-.3-.5-.6-1-1-1.4-.4-.5-.8-.8-1.3-1.2-.5-.3-.9-.8-1.4-1-1-.6-1.9-1.2-2.8-1.6-.8-.4-1.6-.8-2.1-1.1-.4-.3-.7-.4-.7-.4z"/></g><g id="XMLID_1080_"><path id="XMLID_1081_" class="st10" d="M675.7 379.7c1.5 7.6-11.9 85.5-8.7 92.2 2.3 4.9 7.9 17.4 12.5 20.4 4.8-5.5 10-15.4 11.8-22.4 1.7-9-8.7-80-9.3-87.2 0-.9 0-1.7-.3-2.3l-6-.7z"/></g><g id="XMLID_1078_"><path id="XMLID_1079_" class="st11" d="M724.8 412.9s.1 0 0 0c.1-.1.1-.2.1-.3.1-.2.1-.5.3-.8.2-.7.7-1.5 1.2-2.3.6-.8 1.2-1.4 1.9-1.9.6-.4 1.2-.6 1.2-.6s-.1.5-.4 1.2c-.3.7-.7 1.5-1.2 2.3-.6.8-1.2 1.4-1.8 1.9-.3.2-.6.4-.8.5h-.5z"/></g><g id="XMLID_1076_"><path id="XMLID_1077_" class="st11" d="M628.9 405.9s.5.1 1.1.4 1.2.8 1.8 1.3 1.1 1.1 1.4 1.7c.3.5.4 1 .4 1s-.5 0-1.1-.3c-.6-.2-1.3-.7-2-1.2-.6-.6-1-1.3-1.3-1.8-.3-.6-.3-1.1-.3-1.1z"/></g><g id="XMLID_1064_"><path id="XMLID_1065_" class="st9" d="M664 499.7c0 4.8-.1 7 .5 12.4 6.1.1 26 .3 26.4-.7.4-1.1 0-11.2-.1-11.9l-26.8.2z"/></g><g id="XMLID_1062_"><path id="XMLID_1063_" class="st10" d="M679.7 369.6c-5.5-1.5-9.6 7.6-4.7 11.6 7.6 7 16-4.9 7.8-10.5l-3.1-1.1z"/></g><g id="XMLID_1060_"><path id="XMLID_1061_" class="st20" d="M671.3 357.6c-3.5-.9-8.7 5.2-9.6 9-2 8.1 5.8 13.7 11.3 18 2.6-4.9 6.1-11 8.1-16.3-7.3-.3-9.9-2.1-9.6-10.2l-.2-.5z"/></g><g id="XMLID_1056_"><path id="XMLID_1057_" class="st4" d="M716.9 517.4c2.6 2.4 6.3.7 8.7 3.7 2.8 3.2 5.8 7.4 6.7 11.7 1.3 6-1.3 12.1-5 16.8-2.2 2.8-7.6 12.1-11.9 9.1-5.4 3.4-6.9-3.3-3.7-6.7-2.2 3.2-4.8 2.4-4.7-1.3 0-3.2 2.2-5.2 3.3-8-.7 1.5-3.5 5.2-5.8 3.5-2.2-1.5.2-6.9.9-8.6 1.3-2.8 2.8-5.4 4.7-7.6 2-2.2 5.2-4.3 6.5-7.1l.3-5.5z"/></g><g id="XMLID_1054_"><path id="XMLID_1055_" class="st0" d="M710 543.1s.4-1.1 1.2-2.6c.4-.7.9-1.6 1.5-2.5s1.3-1.8 2-2.7 1.3-1.8 2-2.5c.3-.4.7-.8.9-1.2.3-.4.5-.7.8-1.1 1-1.3 1.8-2.2 1.8-2.2s-.3 1.1-1 2.7c-.2.4-.4.8-.6 1.3-.2.5-.5.9-.8 1.3-.6.9-1.2 1.8-1.9 2.7s-1.4 1.7-2.1 2.5c-.7.8-1.3 1.5-1.9 2.1-1 1.5-1.9 2.2-1.9 2.2z"/></g><g id="XMLID_1052_"><path id="XMLID_1053_" class="st0" d="M710.5 553.3s.6-1.2 1.8-2.9c1.1-1.7 2.8-3.9 4.4-6 .8-1.1 1.7-2.1 2.4-3.1.8-1 1.5-1.9 2.1-2.7s1.1-1.5 1.4-2c.4-.5.6-.8.6-.8l-.3.9c-.2.6-.4 1.4-.9 2.3-.4.9-1 2-1.7 3.1-.6 1.1-1.5 2.2-2.3 3.3-.9 1.1-1.7 2.1-2.6 3-.9.9-1.7 1.8-2.4 2.5-1.4 1.5-2.5 2.4-2.5 2.4z"/></g><g id="XMLID_1050_"><path id="XMLID_1051_" class="st0" d="M714.3 559.4s.6-1 1.6-2.2c.3-.3.5-.7.9-1 .3-.3.5-.8.9-1.2.6-.8 1.2-1.6 1.9-2.5 1.2-1.8 2.6-3.4 3.6-4.7 1.1-1.2 1.9-2 1.9-2s-.4 1.1-1.1 2.5c-.4.7-.8 1.6-1.3 2.5s-1.1 1.8-1.8 2.7-1.4 1.7-2.2 2.5c-.4.4-.7.8-1.1 1.1-.4.3-.7.6-1.1.8-1.2 1-2.2 1.5-2.2 1.5z"/></g><circle id="XMLID_38_" class="st14" cx="663.9" cy="280.4" r="4.5"/><circle id="XMLID_37_" class="st14" cx="697.8" cy="280.4" r="4.5"/><path id="XMLID_36_" class="st1" d="M667.5 263.5c-.3 0-.7-.1-.9-.4-.1-.1-1.7-1.7-5.3-1.7-3.7 0-5.8 1.7-5.8 1.8-.5.4-1.3.4-1.8-.1s-.4-1.3.1-1.8c.1-.1 2.8-2.4 7.5-2.4 4.8 0 7 2.4 7.1 2.5.5.5.4 1.3-.1 1.8-.2.2-.5.3-.8.3z"/><path id="XMLID_35_" class="st1" d="M704.8 263.5c-.3 0-.7-.1-.9-.4-.1-.1-1.7-1.7-5.3-1.7-3.7 0-5.8 1.7-5.8 1.8-.5.4-1.3.4-1.8-.1s-.4-1.3.1-1.8c.1-.1 2.8-2.4 7.5-2.4 4.8 0 7 2.4 7.1 2.5.5.5.4 1.3-.1 1.8-.2.2-.5.3-.8.3z"/><path id="XMLID_34_" class="st15" d="M681.2 323.5c-.4 0-.7 0-1.1-.1-4-.4-6.8-3.4-7-3.5-.5-.5-.5-1.3 0-1.8s1.3-.5 1.8 0c0 0 2.4 2.4 5.3 2.7 4.8.4 7-2.8 7.1-3 .4-.6 1.2-.8 1.8-.4s.8 1.2.4 1.7c-.1.4-2.8 4.4-8.3 4.4z"/><path id="XMLID_33_" class="st0" d="M720.3 303.2c-.8-9.2-5.7-17.9-5.7-27.1 0-9.5 1.1-17.9-1.1-27.8-1.5-7.6-4.6-16.4-11.1-21-2.4-1.8-5.1-3.2-7.9-4.2 6.9 11.1 10.9 24 10.9 37.8 0 2.5-.1 5-.4 7.4 5.2 7.8 8.3 17.5 8.3 28.1 0 22.1-13.7 40.6-32.1 45.7v26.7c.6-.1 1.3-.1 1.8-.3 5.7-.8 5.2 5.2 5.6-.1.4-6.9-1.9-18.3-1.1-25.2 20.2-2.3 34.7-19.1 32.8-40z"/><g id="XMLID_1146_"><path id="XMLID_1147_" class="st1" d="M645.2 230.1c-8.4 1.1-14.1 3.4-19.4 12.6-4.2 8-4.6 17.9-3.4 26.7 1.1 7.2 4.2 17.9 8.8 23.3 8.4 10.3 7.2-11.1 6.9-16.4-.4-3.8-.8-7.6-2.3-11.1 12.6-.8 16.4-15.6 16-26.3 6.9-.8 14.1 2.7 21.4 2.7 8.4 0 16-1.9 23.6-5.3 3.4-1.5 6.1-3.8 9.5-5.7 3.8-2.3 7.2-1.5 11.1-3.4 2.3-1.5 6.9-5.7 5.7-8.8-1.1-3.4.8 2.8-2.3 3.9 2.7-2.3-1.9-13.1-5.3-15.8-4.6-3.8-7.6 4.2-10.3 6.9-2.7-5.3-9.9-3.1-14.1-.8-6.5 3.4-9.5 4.6-17.5 4.2-13.7-.4-23.3-1.5-27.5 13.7l-.9-.4z"/></g><g id="XMLID_1066_"><path id="XMLID_1067_" class="st1" d="M700.1 306.5c-23.7 5.3-42.3-.6-42.3-.6-1.7 5.8-2.5 13.7-2.5 19.8 0 8.1 2.3 11.8 9.3 16.2 9 5.5 33 4.5 37.2-5.7 2.5-6 1.7-30.5-1.7-29.7zm0 20.8c-.5 6.2-6.6 9.7-14 9.7-1.5-2.3 0-5.9-1.6-9-.3.6-1.9 2.3-1.9 3.1-.3-.6-1.7-2-2-2.6h-.3c-.3.9-.9 1.7-1.2 2.9-.6-.9-2.3-2-2.9-2.9-.3 2.3-.5 5.3-.5 7.6v.8c-4.9 0-13.6-1.8-15.6-6.7-1.7-4.7-.7-15.6 1.3-20 5.5 1.7 12.8 3.4 18.6 3.4 4.4 0 17.6-3 18.3-3.1 1.6-.2 2.1 13.4 1.8 16.8z"/></g><g id="XMLID_1058_"><path id="XMLID_1059_" class="st20" d="M688.6 357.6c3.5-.9 8.7 5.2 9.6 9 2 8.1-5.8 13.7-11.3 18-2.6-4.9-6.1-11-8.1-16.3 7.3-.3 9.5-3 9.2-10.8l.6.1z"/></g></g><g id="XMLID_27_"><g id="XMLID_1289_"><path id="XMLID_1290_" class="st1" d="M856.8 185.1c-7.9 4.9-14.4 11.8-15 20.2-.9 9.5.9 18.7 2.2 27.8 1.7 10.8 3.9 20.8-2.2 29.1-7.4 9.1-10.8 15.6-3.5 26-7.4-.4-23 .4-11.3 11.3-5.2-1.7-13-4.3-18.2-1.3-6.9 4.3-4.3 12.2 2.6 14.3-13.9 2.2-9.1 15.6 3.5 13.5-3 8.7 7.4 16.1 15.2 11.3-3 10 10 22.1 16.1 10.9 6.5 6.9 17.4 10.4 23 1.3 6.9 7.4 26.5 13.9 25.6-2.6 6.1 4.3 34.3 14.8 33.4-.9 7.4 1.3 14.3 5.2 21.3.4 4.8-3.9 6.9-10.4 2.6-15.6 18.7-3 6.1-32.1-4.8-22.6 5.6-7.8 2.8-26.5-8-15.2 6.9-4.3 10.6-23-1.5-16.1 15.2-3.5 0-21.5-.9-29.3-1.3-10.9.4-22.5.4-33.3s-2.2-27.3-12.6-33.8c-12.2-7.6-34.9-6.1-48.5-3.2-6.8 1.5-13.5 4.1-19.4 7.8z"/></g><g id="XMLID_1287_"><path id="XMLID_1288_" class="st21" d="M845.4 267.2c-9.4 4.5-1.8 18.7 3.6 24.5-7.1 0-29.8 2.2-15.1 13.8-15.1-4.5-19.6 10.7-3.1 11.6-13.4 10.2 12 34.3 15.6 15.6-.4 19.6 36.1 19.2 33.4-2.7 9.4 10.7 32.5 13.4 37.9-2.2 4.5 14.7 26.3 4 16-9.8 8 5.3 11.1-18.3-.4-22.3 6.2-6.7 5.3-15.6 0-22.3-2.7-3.1-12.9-10.2-11.1-1.3 9.8-13.8-38.3-21.8-47.2-4.9-6.2-9.4-20-8-26.3.4l-3.3-.4z"/></g><g id="XMLID_1279_"><g id="XMLID_1284_"><path id="XMLID_1286_" class="st1" d="M859.6 775.4c-2.7 2.7-6.1 5.2-9.3 7.5-2.3 1.8-5 3-8.1 2-1.8-.6-2.8-1.9-3.6-3.3-7.6 6-13.4 10.5-9.9 11.5 8.2 4.3 20-.9 26.5-5.6 2.2-1.7 8.7-9.5 11.3-9.1 3 .5 3.9 6.1 4.3 8.4.1.7 0 3.2 1.2 3.2 1.1 0 1.4-3.1 1.5-4 .2-1.3.3-2.7.5-4 .2-2.3.2-4.7.8-6.9.9-3.7-.3-7-.8-10.6-3 2.3-6.2 4-9.5 6.1-2.1 1.3-3.3 3.1-4.9 4.8z"/></g><g id="XMLID_1280_"><path id="XMLID_1282_" class="st22" d="M874.2 756.2c.3-7.4 0-14.8-.2-22.2l-10.2 3.8c-.8 9.3.6 16-4.4 24.1-4.1 6.6-13.4 13.8-20.9 19.7.8 1.4 1.9 2.6 3.6 3.3 3 1.1 5.8-.2 8.1-2 3.2-2.3 6.5-4.7 9.3-7.5 1.5-1.7 2.7-3.5 4.7-4.9 3.3-2.1 6.5-3.8 9.5-6.1-.1-.7-.2-1.4-.2-2.1.1-2.2.7-4 .7-6.1z"/></g></g><g id="XMLID_1274_"><g id="XMLID_1277_"><path id="XMLID_1278_" class="st1" d="M912.5 775.4c2.7 2.7 6.1 5.2 9.3 7.5 2.3 1.8 5 3 8.1 2 1.8-.6 2.8-1.9 3.6-3.3 7.6 6 13.4 10.5 9.9 11.5-8.2 4.3-20-.9-26.5-5.6-2.2-1.7-8.7-9.5-11.3-9.1-3 .5-3.9 6.1-4.3 8.4-.1.7 0 3.2-1.2 3.2-1.1 0-1.4-3.1-1.5-4-.2-1.3-.3-2.7-.5-4-.2-2.3-.2-4.7-.8-6.9-.9-3.7.3-7 .8-10.6 3 2.3 6.2 4 9.5 6.1 2.2 1.3 3.4 3.1 4.9 4.8z"/></g><g id="XMLID_1275_"><path id="XMLID_1276_" class="st22" d="M897.9 756.2c-.3-7.4 0-14.8.2-22.2l10.2 3.8c.8 9.3-.6 16 4.4 24.1 4.1 6.6 13.4 13.8 20.9 19.7-.8 1.4-1.9 2.6-3.6 3.3-3 1.1-5.8-.2-8.1-2-3.2-2.3-6.5-4.7-9.3-7.5-1.5-1.7-2.7-3.5-4.7-4.9-3.3-2.1-6.5-3.8-9.5-6.1.1-.7.2-1.4.2-2.1 0-2.2-.6-4-.7-6.1z"/></g></g><g id="XMLID_1272_"><path id="XMLID_1273_" class="st22" d="M814.4 496.1c2.6 11 7.4 23 14.3 32.1 2.2-10-1.3-21.1-1.3-32.1h-13z"/></g><g id="XMLID_1270_"><path id="XMLID_1271_" class="st22" d="M972 364.6c0-5.6 2.2-13.9-.9-18.2-1.7-3.9-3.9-6.9-4.3-11.3-.9-5.2 1.7-10 1.3-14.8-.4-3.5-9.5-27.3 1.7-27.3 4.3 0 4.4 11.3 5.3 14.3 1.3 5.6-1 6.9 2.9 10.4 7.4 6.5 20.3 8.9 18.5 18.9-1.3 5.2-12 17.1-13.8 21.5-2.2 3.9-.9 11.7-2.6 14.3l-8.1-7.8z"/></g><g id="XMLID_1268_"><path id="XMLID_1269_" d="M991.5 313.6c-.6-.5-1.2-.9-1.9-1.2-5.2-2.6-12.8-2.8-15.7 3.2-.8 1.6-1.5 3.8-1.6 5.6-.1 1.8 0 4.2 1 5.8.4.7 1.3.8 1.7 1.3.3.5.2 2 .2 2.6.1 1.4.5 4.5 2.6 4.3.1.9-.3 1.9-.3 2.9 0 1.2.1 2.3.3 3.4.2.9.4 2 1.2 2.5.3.2.9.1 1.2.2.4.3.1.4.2.9.1 1 .5 1.6 1.6 1.9 1.4.4 2.1-.1 2.8-1.2 1-1.7 1.9-3.9 4.1-4.1 1.6-.2 2.6.8 4-.4 1.3-1 2.3-2.6 3.2-4 1.4-2 1.5-4.5 1.6-6.9.3-5.9-1.4-12.9-6.2-16.8z" style="fill:#dc9e8c"/></g><g id="XMLID_1266_"><path id="XMLID_1267_" class="st24" d="M977.9 335.2s.1.4.1 1v1.9c0 .2.1.5.1.7.1.5.2 1.1.3 1.8 0 .3.1.7.1.9.1.3.1.6.2.9.2.5.5.9.9.9h.4c.1 0 .4.1.6.2h.1l.1.1.1.1c0-.1.4.5.3.9 0 .1-.1.3 0 .3 0 0 0 .1 0 0l.1.3c.1.5.2.4.2.6l.2.2c.1 0 .2.1.3.1.6.2 1 .2 1.3 0 .4-.2.7-.7 1.1-1.2.3-.5.7-1 1-1.5.4-.5.8-.8 1.1-1.1.2-.1.4-.2.6-.4.2-.1.4-.1.5-.2.3-.1.6-.1.8-.1h.3s-.1 0-.2.1c-.2.1-.4.1-.6.3-.1.1-.3.2-.4.3l-.4.4c-.3.3-.5.7-.8 1.2-.2.5-.5 1-.8 1.6-.3.5-.5 1.3-1.3 1.9s-2 .6-2.7.3l-.7-.3c-.2-.1-.4-.3-.6-.5-.4-.4-.7-1.1-.7-1.4v-1.1c0 .1 0 .2.1.3l.1.1v-.1l-.1-.1v-.1l.1.1h.1-.2l-.4-.1c-1.1-.3-1.6-1.3-1.8-2.1-.1-.4-.2-.8-.2-1.1v-3.6c.1-.3.1-.5.1-.8.1-.4.2-.8.3-1.1.1-.3.1-.6.2-.7.1.2.1.1.1.1z"/></g><g id="XMLID_1264_"><path id="XMLID_1265_" class="st24" d="m975.6 313.1-.6.9c-.2.3-.3.7-.5 1.1s-.3.9-.5 1.5-.3 1.2-.5 1.8c-.1.6-.3 1.3-.3 2-.1.6 0 1.4 0 2.2.1.7.1 1.5.3 2.1.1.4.1.7.3 1l.2.5.1.2v.1c0-.1.1.1-.1-.1l.1.1.3.3c.1 0 .1.1.3.2.3.2 1 .6 1.1 1.2 0 .2.1.3.1.5v.9c0 .4 0 .7-.1 1 0 .6 0 1.2.1 1.8.1 1.1.5 2 1 2.4s1 .4 1 .4-.4.2-1.1-.1c-.7-.3-1.4-1.3-1.8-2.5-.2-.6-.3-1.2-.4-2 0-.3-.1-.7-.1-1l-.1-.5v-.3s-.1-.3 0-.1c0 0-.1 0-.1-.1 0 0-.2-.1-.3-.2-.1 0-.4-.2-.6-.4-.3-.2-.3-.3-.5-.5l-.1-.1c-.2-.3-.1-.1-.1-.1v-.1l-.1-.3-.3-.6c-.2-.4-.3-.8-.4-1.2-.2-.8-.2-1.7-.3-2.5 0-.8 0-1.5.2-2.4.1-.8.4-1.5.6-2.2.3-.7.5-1.3.8-1.8s.5-1 .9-1.4c.3-.4.5-.8.8-1l.7-.7z"/></g><g id="XMLID_1262_"><path id="XMLID_1263_" class="st24" d="M980.2 346.4s-.1-.3-.2-.8-.3-1.2-.2-2.2c0-.5 0-1 .1-1.5s.2-1.1.3-1.6c.1-.6.3-1.1.5-1.7s.4-1.2.7-1.7.6-1.1.9-1.6c.3-.5.8-.9 1.1-1.4.7-.9 1.6-1.6 2.3-2.1.7-.6 1.5-.8 1.9-1.1.5-.2.8-.3.8-.3l-.6.6c-.3.4-.9.9-1.4 1.5-.3.3-.6.7-.9 1.1l-.9 1.2c-.3.4-.6.9-.9 1.4-.3.5-.5 1-.8 1.5s-.5 1-.7 1.5-.5 1-.6 1.5c-.2.5-.4 1-.5 1.5s-.2.9-.3 1.3l-.3 1.2c-.1.4-.1.7-.2.9 0 .5-.1.8-.1.8z"/></g><g id="XMLID_1260_"><path id="XMLID_1261_" class="st24" d="M978 336.6s0-.3-.1-.7c0-.5-.1-1.1.1-1.9.1-.8.3-1.7.6-2.6.1-.5.3-.9.5-1.4s.4-.9.7-1.4c.3-.4.5-.9.8-1.3l.9-1.2c.5-.8 1.2-1.4 1.7-2 .5-.5 1.1-.9 1.4-1.2.4-.3.6-.4.6-.4l-.3.6c-.2.4-.5.9-.9 1.6-.3.7-.8 1.4-1.2 2.2-.5.8-.9 1.6-1.4 2.5-.3.4-.5.9-.7 1.3s-.5.8-.6 1.3c-.4.8-.8 1.6-1 2.3-.1.3-.3.6-.4.9-.1.3-.2.5-.3.8-.3.4-.4.6-.4.6z"/></g><g id="XMLID_1258_"><path id="XMLID_1259_" class="st24" d="M975.2 329.6s-.2-1-.2-2.4c0-1.5.2-3.5 1-5.4.2-.5.5-.9.7-1.4l.9-1.2c.7-.7 1.5-1.2 2.2-1.5.3-.2.7-.2 1-.3.3-.1.6-.1.8-.1h.7l-.6.3c-.2.1-.4.2-.6.4-.2.2-.5.3-.8.5-1.1.8-2.1 2.2-2.8 3.8-.7 1.6-1.2 3.4-1.6 4.8-.3 1.6-.7 2.5-.7 2.5z"/></g><g id="XMLID_1256_"><path id="XMLID_1257_" class="st24" d="M976.3 353.8s-.2-.7-.2-1.7v-.8c0-.3-.1-.6-.1-.9-.1-.6 0-1.2 0-1.8-.1-.6-.1-1.2-.1-1.8v-.9c0-.3-.1-.5-.1-.8-.1-1 0-1.7 0-1.7s.5.5.9 1.5c.1.2.3.5.4.8l.3.9c.1.6.2 1.3.3 2 0 .7-.1 1.4-.2 2.1 0 .3-.1.6-.2.9-.1.3-.2.5-.3.8-.3.8-.7 1.4-.7 1.4z"/></g><g id="XMLID_1254_"><path id="XMLID_1255_" class="st18" d="M842.3 452.4c-.8 3.1-1.5 6.3-2.1 9.4-2.4 11.4-.5 37.3-9.5 37.1-3.3-.1-10.9.9-13.8-1-4.3-2.8-3.3-9-3.3-14.7-.9-12.4 1.9-22.3 4.3-34.7 1-4.3 1-9.5 1.9-14.3.9-3.3 2.4-6.7 3.3-10.5.5-1.9 1-5.7 1.4-7.1 3.3-6.2 5.2-7.1 6.2-14.7 1-7.1 1.4-13.8 1.9-20.9 1.4-14.3 5.7-29.9 9.5-43.7 3.8-14.3 7.6-17.6 21.4-19.5 5.4-.6 30.4-1 37 .1 7.2 1.2 13.6-.9 20.5 1.9 9 3.7 15.2 26.1 17.2 31.8 5.7 16.3 4.9 13.7 8.1 21.5 2.6 6.3 9.1 17.5 13.3 22.8 5.7-15.3 6.1-25.8 9.7-39.6 2.4 3.3 5 4.6 7.8 6.4s7.6 2.6 10.7 3.6c.6 6.7-14.9 63.6-22.4 63.3-4.8-.2-16.3-17.9-19.5-22.3-5.3-7.6-22.3-33.7-24.7-37 .1 9.3-1.7 22.5-.5 31.8 1.2 9.2 4.7 18.6 7.2 27.1 1.9 6.5 5.6 16.9 2.7 23.8-4.2 9.9-24.2 13.8-33.5 14.3-15 .7-29.6-7.2-42.4-13.3-1.6-.8-3-1.6-4.1-2.5l-8.3.9z"/></g><g id="XMLID_1252_"><path id="XMLID_1253_" class="st11" d="M809.3 481.8s.5.2 1.3.6c.4.2.9.4 1.4.7.5.3 1.2.5 1.9.7s1.5.5 2.2.8c.8.3 1.7.4 2.6.6.9.2 1.8.5 2.8.6s1.9.3 2.9.5c1 .1 2 .1 2.9.2 1 .1 1.9.1 2.8.1.9 0 1.8.1 2.7 0 .8-.1 1.6-.1 2.4-.2.7 0 1.4-.1 2-.2s1.1-.2 1.6-.3c.9-.1 1.4-.2 1.4-.2s-.5.2-1.3.5c-.4.2-.9.4-1.5.6l-.9.3c-.3.1-.7.2-1.1.2-.7.2-1.6.3-2.4.5-.9.2-1.8.2-2.7.3-1 .1-2 .2-3 .1s-2-.1-3.1-.2c-1-.2-2-.4-3-.5s-1.9-.5-2.9-.8c-.9-.3-1.8-.6-2.6-.9l-2.2-1.1c-.7-.3-1.3-.7-1.8-1.1s-.9-.7-1.3-.9c-.7-.5-1.1-.9-1.1-.9z"/></g><g id="XMLID_1250_"><path id="XMLID_1251_" class="st1" d="M840.4 436.8c-5.5 18.4-16.9 36.4-15.8 56.6.4 6.6 1.1 12.9 1.1 19.8 0 9.2 3.7 16.5 5.1 25.3 3.3 18 7.1 26.8 9.3 44.8 1.5 11.4 1.3 13.6 2.4 25.3.4 5.5.7 25.7 1.1 31.2.4 6.2 2.2 16.2 2.6 22.4 3.9 19.9 10.5 40.8 11.4 61 .1 2.4-.9 3.4-1.2 5.5-.1.8-.5 1.7-.3 2.6.3 1.2 1.6 1.3 1.9 2.3.7 2.2-.3 2.8-.4 5-.2 10.4 17.6 8.6 22.6 4V588.1L876 507s5.6 1.5 9.4-1.5c3.8-2.9 3.7 128.6 3.7 128.6.7 24.8 1.5 49.5 2.2 74.3.2 6.5.4 12.9.6 19.4.1 1.9.1 3.8.2 5.7.4 5.8 5.9 8.7 11.5 10.1 3.2.8 11.4 2.3 13.9-.5 1.4-1.5.8-4.1.8-6.2 0-1.8-1.3-4.6-1.1-5.9.3-2.1 2.3-3.6 2.2-6.3 0-2.2-.6-7.1-1.5-9.2 0 0 12.1-65 4.4-96.3 0 0-2.2-9.9 6.2-38.9s25-101.8 2.2-134.5l-11.4-15.1-78.9 6.1z"/></g><g id="XMLID_1248_"><path id="XMLID_1249_" class="st7" d="M867.6 501.4s.3.2.7.6c.5.4 1.1.9 2 1.4.4.3.9.5 1.4.8s1.1.5 1.6.7l1.8.6c.6.2 1.3.3 1.9.4 1.3.2 2.6.3 3.8.2.6-.1 1.2-.1 1.8-.2s1.1-.2 1.6-.3c1-.2 1.8-.5 2.4-.7l.9-.3s-.3.2-.7.6c-.2.2-.5.4-.9.6s-.8.5-1.3.7-1 .4-1.6.6-1.2.3-1.9.4-1.4.2-2.1.1c-.7 0-1.4-.1-2.2-.2-.7-.2-1.4-.3-2.1-.5-.7-.2-1.3-.5-1.9-.8-.6-.3-1.2-.6-1.7-1s-1-.7-1.3-1.1c-.4-.4-.7-.7-1-1.1-.3-.3-.5-.6-.6-.9-.4-.3-.6-.6-.6-.6z"/></g><g id="XMLID_1246_"><path id="XMLID_1247_" class="st7" d="M879 498.9s-.1-.5-.2-1.3-.2-2.1-.3-3.5c0-.7-.1-1.5-.1-2.3s-.2-1.7-.2-2.6c-.1-1.8-.2-3.7-.3-5.6s-.3-3.8-.4-5.6c-.1-.9-.1-1.8-.1-2.6-.1-.8-.1-1.6-.1-2.3-.1-1.4-.1-2.7-.1-3.5v-1.3s.1.5.3 1.3.5 2 .8 3.4.6 3.1.8 4.9.4 3.7.6 5.7c.1 1.9.1 3.9.1 5.7 0 1.8-.1 3.5-.2 5-.1 1.4-.3 2.7-.4 3.5-.1.6-.2 1.1-.2 1.1z"/></g><g id="XMLID_1244_"><path id="XMLID_1245_" class="st7" d="m883.4 467.3.3 1.2c.1.8.4 1.9.5 3.2.1.7.1 1.4.2 2.2.1.8 0 1.6 0 2.5s0 1.7-.1 2.6l-.3 2.7c-.2.9-.3 1.8-.5 2.7-.1.9-.4 1.7-.6 2.6-.4 1.7-.9 3.2-1.4 4.4-.4 1.3-1 2.3-1.3 3s-.6 1.1-.6 1.1.1-.5.2-1.2c.2-.8.4-1.9.7-3.2.1-.7.3-1.4.4-2.1.2-.7.3-1.6.4-2.4.3-1.6.5-3.4.8-5.1.2-1.8.4-3.5.5-5.2 0-.8.2-1.6.2-2.4s.1-1.5.1-2.1c.1-1.3.1-2.5.1-3.3.4-.8.4-1.2.4-1.2z"/></g><g id="XMLID_1230_"><path id="XMLID_1231_" class="st22" d="M858.7 193.2c-.4 9.5 5.7 17.8-2.2 26.5-2.2 2.6-6 3.2-7.3 5.8-.9 2.2.4 9.2.4 11.4.9 5.2 1.7 10.6 1.7 15.3-6.1 0-9.1-2.2-12.6 3.5-2.6 4.3-2.2 11.3.4 15.6 3.5 6.9 12.5 5 12.6 6.1.4 4.4 4.7 10.6 7.8 13.9 5.5 5.9 12.9 12 19.4 14.2 2.7.9 1 4.8 1.9 14.2.6 5.9 1.8.9 8.2 2 10.9 2 7 0 7.9-7.2.2-1.8-.2-5.1.3-8 18.2-2.6 30.4-13 31.2-32.6 7.4-.9 13-3 14.8-11.3 2.2-8.2-2.6-15.2-11.3-14.3-.4-7.4 1.3-19.5-2.2-26-2.2-4.3-6.1-5.6-7.8-11.7-1.3-4.8-.3-6.5-1.4-11.5-11.7 3.5-22.7 7-36.7 6-7-.5-15.4.2-22.1-7.4l-3-4.5z"/></g><g id="XMLID_1218_"><path id="XMLID_1219_" class="st11" d="M827.8 416.3s.8 0 2 .3c.3.1.6.1.9.2.3.1.7.1 1 .2.7.1 1.4.3 2.1.4.7.1 1.5.2 2.1.4.3.1.7.2 1 .2s.6.1.9.2c1.1.2 1.9.6 1.9.6s-.8.3-1.9.4c-.6.1-1.3.2-2 .1-.7 0-1.5-.1-2.3-.2-.8-.2-1.6-.4-2.3-.7-.3-.1-.7-.2-1-.4-.3-.2-.6-.3-.8-.5-1-.7-1.6-1.2-1.6-1.2z"/></g><g id="XMLID_1216_"><path id="XMLID_1217_" class="st11" d="M825.5 422.9s.9-.3 2.2-.5c.7-.1 1.5-.2 2.3-.3.8-.1 1.7-.2 2.6-.2.9-.1 1.7-.2 2.6-.2.4 0 .8 0 1.2-.1.4 0 .7-.1 1.1-.1 1.3-.1 2.3 0 2.3 0s-.8.5-2.1 1c-.3.1-.7.3-1.1.4-.4.2-.8.2-1.2.3-.8.2-1.8.3-2.7.4-1.8.1-3.7 0-5-.2-1.3-.2-2.2-.5-2.2-.5z"/></g><g id="XMLID_1209_"><path id="XMLID_1210_" class="st6" d="M884.9 331.7c1.5 6.6-3.3 16.2-4.8 22.8-1.5 9.2 1.8 21.3 9.6 27.2 5.9-9.2 8.1-14.3 5.5-24.6-2.2-8.8-4-17.6-6.2-26.5l-4.1 1.1z"/></g><g id="XMLID_1207_"><path id="XMLID_1208_" class="st24" d="M853.3 282s-.6-1-1.3-2.7c-.2-.4-.4-.9-.5-1.3-.1-.5-.3-1-.4-1.6-.3-1.1-.5-2.3-.7-3.5-.1-1.2-.2-2.4-.3-3.5s0-2.2 0-3.1c.1-1.8.3-3 .3-3s.4 1.2.7 2.9c.1.9.3 1.9.5 3s.3 2.3.4 3.4c0 .6.2 1.1.2 1.7.1.6.1 1.1.2 1.7.1.5.1 1.1.2 1.6s.2 1 .3 1.4c.4 1.8.4 3 .4 3z"/></g><g id="XMLID_1205_"><path id="XMLID_1206_" class="st24" d="M928.1 276.8V268c0-2.2 0-4.4.1-6 .1-1.7.3-2.8.3-2.8s.4 1.1.7 2.7c.2.8.3 1.8.4 2.8.1 1 .1 2.2.2 3.3 0 1.1 0 2.2-.2 3.3-.1 1-.3 2-.5 2.9-.2.8-.5 1.5-.7 1.9-.1.5-.3.7-.3.7z"/></g><g id="XMLID_1203_"><path id="XMLID_1204_" class="st9" d="M849.6 274.6c-.8-.3-1.7-.4-2.5-.1-1.8.8-1.6 3.2-2.1 4.8-.7 2.5-.5 5.8.7 8.3 2.8 6.1 6.1 2 6.3-2.4.1-2.7 1-6.9-.7-9.3-.4-.5-1-1-1.7-1.3z"/></g><g id="XMLID_1196_"><g id="XMLID_1199_"><path id="XMLID_1200_" class="st1" d="M889.6 374.5c-.2.3-.5.7-.7 1-6.6-9.6-10-19.3-13.6-32.3-2.8-10.3-2.6-16.4-4.8-26.7l-17.1 2.5c3.3 18.4 6.5 30.7 2.9 49.5-.7 4.4-4 9.2-6.6 13.2-2.9 5.1-4 .4-4 9.2 0 9.2 0 18-1.8 26.8-1.5 6.6-6.6 17.3-5.1 23.5 1.1 7 9.6 16.5 14 22 4.4 5.9 14.3 17.3 20.9 12.5 7-5.1 11.4-17.3 13.6-25.3l.2.2c.4-23.5 3.5-52.5 2.1-76.1z"/></g><g id="XMLID_1197_"><path id="XMLID_1198_" class="st1" d="M931.5 435.3c-2.9-8.8-6.6-15.4-7-25-.4-7.3-.7-14.3-1.1-21.3-.7-9.2-8.1-12.5-9.2-22.4-2.2-16.2.8-30.8 1.2-50.2l-13.2-.7v1.6c0 11-.4 18-2.6 29-1.4 8.4-4.6 20.6-10.1 28.1 1.4 23.6-1.7 52.7-2.4 76.1 6.2 8 10.2 17.1 18.2 24 4.8 4.4 6.6 3.3 11.4-1.5 3.3-3.7 6.2-8.4 8.8-12.9 4.6-7.5 9.3-16.3 6-24.8z"/></g></g><g id="XMLID_1194_"><path id="XMLID_1195_" class="st6" d="M882.6 319c.4 3.7-3.2 14.6 4.1 14.9 7 .4 10.4-14.8.1-14.8l-4.2-.1z"/></g><g id="XMLID_1192_"><path id="XMLID_1193_" class="st11" d="M886.8 317.4c-5 .9-12.4-4.5-13.4-1.6-2 5.4 2.3 18.5 4.9 22.6 2.2-6.6 7.2-11 7.9-17.9l.6-3.1z"/></g><g id="XMLID_1190_"><path id="XMLID_1191_" class="st11" d="M898.7 316.1c-1.8 1-8.2 2.3-11.9 1.9 0 5.1 5.4 18.7 10.2 20.9 1.8-9.2 4-14.8 4-22.8h-2.3z"/></g><g id="XMLID_1188_"><path id="XMLID_1189_" class="st11" d="M958.8 395.6s0 .3.1.8c0 .5.1 1.2.1 2-.1 1.7-.4 3.9-.7 6-.1.5-.1 1.1-.2 1.6s-.1 1-.1 1.5-.1 1-.1 1.4v1.3c0 .8.2 1.5.2 2s.1.8.1.8-.1-.2-.4-.7c-.2-.4-.6-1.1-.8-1.9-.1-.4-.2-.9-.3-1.4s-.1-1-.2-1.5c0-.5-.1-1.1 0-1.6.1-.6.1-1.1.2-1.7.4-2.2 1-4.3 1.5-5.9.2-.8.4-1.5.6-1.9-.1-.6 0-.8 0-.8z"/></g><g id="XMLID_1186_"><path id="XMLID_1187_" class="st11" d="M967.1 364.5s.2.3.5.9c.1.3.4.6.6.9.2.3.5.7.8 1.1.6.8 1.5 1.6 2.5 2.4.5.4 1 .7 1.6 1.1.5.4 1.2.7 1.7 1 1.2.7 2.4 1.2 3.6 1.7 1.2.5 2.3.9 3.3 1.2 1 .3 1.8.6 2.4.8l.9.3h-1c-.6 0-1.5 0-2.6-.2-1.1-.1-2.3-.4-3.6-.8-.6-.2-1.3-.4-2-.7-.7-.3-1.3-.6-2-.9-.6-.4-1.3-.7-1.9-1.2-.6-.4-1.1-.9-1.7-1.3-.5-.5-1-1-1.4-1.5s-.7-1-1-1.5-.5-.9-.6-1.4c-.2-.4-.3-.8-.3-1.1.2-.5.2-.8.2-.8z"/></g><g id="XMLID_1184_"><path id="XMLID_1185_" class="st11" d="M919.8 370.4s-.2-1.3-.3-3.1c-.1-.9-.1-2 0-3.2s.2-2.4.3-3.7c.2-1.2.4-2.5.7-3.6.2-1.2.6-2.2.9-3.1.6-1.8 1.2-2.9 1.2-2.9s0 1.3-.2 3.1c-.1.9-.3 2-.4 3.2-.1 1.2-.3 2.4-.5 3.6l-.3 1.8-.3 1.8c-.2 1.1-.4 2.2-.5 3.1-.2 1.7-.6 3-.6 3z"/></g><g id="XMLID_1182_"><path id="XMLID_1183_" class="st11" d="M845.5 384.9v-1.2c0-.8 0-1.9-.1-3.1 0-.6-.1-1.3-.1-2.1 0-.7-.1-1.5-.1-2.3-.1-1.6-.2-3.3-.3-5-.2-3.4-.4-6.9-.3-9.5 0-1.3.1-2.4.1-3.1 0-.8.1-1.2.1-1.2s.1.4.2 1.2c.1.7.3 1.8.5 3.1.4 2.6.8 6 1.1 9.4.1 1.7.2 3.5.1 5.1 0 1.6-.1 3.2-.3 4.5-.1 1.3-.4 2.3-.6 3.1-.2.7-.3 1.1-.3 1.1z"/></g><g id="XMLID_1180_"><circle id="XMLID_1181_" class="st9" cx="884.9" cy="384.8" r="3.1"/></g><g id="XMLID_1178_"><circle id="XMLID_1179_" class="st9" cx="884.9" cy="407.4" r="3.1"/></g><g id="XMLID_1176_"><circle id="XMLID_1177_" class="st9" cx="883.1" cy="433.4" r="3.1"/></g><g id="XMLID_1174_"><path id="XMLID_1175_" class="st7" d="M846.1 408s.1.3.2.9c.1.6.4 1.3.7 2.1.2.4.4.9.6 1.3.2.5.6.9.8 1.4.6.9 1.4 1.9 2.2 2.8s1.7 1.7 2.6 2.4c.9.7 1.8 1.3 2.6 1.8s1.5.9 2 1.2c.5.3.8.4.8.4s-.3 0-.9-.1c-.6-.1-1.4-.3-2.3-.6-.9-.3-2-.8-3-1.5-.5-.3-1.1-.7-1.6-1.1s-1-.9-1.5-1.3c-.4-.5-.9-1-1.3-1.5s-.7-1.1-1-1.6c-.3-.6-.5-1.1-.7-1.7-.2-.5-.3-1.1-.4-1.6-.1-.5-.1-.9-.1-1.4v-1c.3-.6.3-.9.3-.9z"/></g><g id="XMLID_1172_"><path id="XMLID_1173_" class="st7" d="M845.7 418.4s.7.6 1.6 1.7c.9 1.1 1.9 2.6 2.9 4.1.9 1.6 1.7 3.2 2.2 4.5s.7 2.2.7 2.2-.7-.6-1.6-1.7c-.9-1.1-1.9-2.6-2.9-4.1-.9-1.6-1.7-3.2-2.2-4.5-.5-1.2-.7-2.2-.7-2.2z"/></g><g id="XMLID_1170_"><path id="XMLID_1171_" class="st7" d="M921.6 408s-.2 1-.6 2.3c-.2.7-.5 1.5-1 2.2-.4.8-.9 1.6-1.4 2.5-1.1 1.5-2.3 3-3.4 4-1 1-1.8 1.6-1.8 1.6s.3-.9 1-2.2c.3-.6.8-1.3 1.2-2.1.4-.8 1-1.5 1.5-2.3s1-1.5 1.5-2.2c.2-.4.5-.7.7-1s.4-.7.7-.9c.9-1.2 1.6-1.9 1.6-1.9z"/></g><g id="XMLID_1168_"><path id="XMLID_1169_" class="st21" d="M868 189.2c6.6 5.8 16.2 9.9 25.3 8.3 4-.8 11.1-6.1 3.5-7.8 4.3 1.5 16.4-2 7.8-4.5 5.8 2 12.1-2 4.8-5.6-3.3-1.5-7.3-2-10.6-1.8-6.8.3-18.5.8-24.3 4.5 1 1 2 2 2.8 3-2 1.5-5.6 2.3-8.1 3l-1.2.9z"/></g><circle id="XMLID_32_" class="st14" cx="873.3" cy="244.7" r="4.5"/><circle id="XMLID_31_" class="st14" cx="907.3" cy="244.7" r="4.5"/><path id="XMLID_30_" class="st1" d="M877 227.9c-.3 0-.7-.1-.9-.4-.1-.1-1.7-1.7-5.3-1.7-3.7 0-5.8 1.7-5.8 1.8-.5.4-1.3.4-1.8-.1s-.4-1.3.1-1.8c.1-.1 2.8-2.4 7.5-2.4 4.8 0 7 2.4 7.1 2.5.5.5.4 1.3-.1 1.8-.2.1-.5.3-.8.3z"/><path id="XMLID_29_" class="st1" d="M914.2 227.9c-.3 0-.7-.1-.9-.4-.1-.1-1.7-1.7-5.3-1.7-3.7 0-5.8 1.7-5.8 1.8-.5.4-1.3.4-1.8-.1s-.4-1.3.1-1.8c.1-.1 2.8-2.4 7.5-2.4 4.8 0 7 2.4 7.1 2.5.5.5.4 1.3-.1 1.8-.2.1-.5.3-.8.3z"/><path id="XMLID_28_" class="st15" d="M889.1 287.8c-.4 0-.7 0-1.1-.1-4-.4-6.8-3.4-7-3.5-.5-.5-.5-1.3 0-1.8s1.3-.5 1.8 0c0 0 2.4 2.4 5.3 2.7 4.8.4 7-2.8 7.1-3 .4-.6 1.2-.8 1.8-.4s.8 1.2.4 1.7c-.1.4-2.7 4.4-8.3 4.4z"/><g id="XMLID_43_"><path id="XMLID_45_" d="M932 248.4c-.4-7.4 1.3-19.5-2.2-26-2.2-4.3-6.1-5.6-7.8-11.7-1.3-4.8-.3-6.5-1.4-11.5-2.8.8-5.6 1.7-8.4 2.5 7 13.7 11 29.8 11 47.1 0 20.9-5.9 40.1-15.7 55.3 12.4-4.6 20.3-14.4 21-30 7.4-.9 13-3 14.8-11.3 2.2-8.3-2.6-15.3-11.3-14.4z" style="fill:#bd7f6f"/></g><g id="XMLID_1201_"><path id="XMLID_1202_" class="st9" d="M930.8 272.9c.8-.3 1.7-.4 2.5-.1 1.8.8 1.6 3.2 2.1 4.8.7 2.5.5 5.8-.7 8.3-2.8 6.1-6.1 2-6.3-2.4-.1-2.7-1-6.9.7-9.3.3-.5 1-1 1.7-1.3z"/></g></g><path id="XMLID_50_" class="st0" d="M1148.6 266.2c-.8-15-9.4-26.3-21.3-32.9 8.3 13.5 13.2 29.8 13.2 47.3 0 33.7-18 62.8-44.1 76.5v26.6c5.6.7 11.5-.1 11-3.9-.3-2.9-1.1-17.4-2-22.1 8.2-2 11.8-3.1 17.3-6.7 6.8-4.4 11.7-11.1 15.2-18.3 3-6.7 5.8-14.1 6.7-21.3.7-6.6 2.4-12.7 3.6-19.3 1.2-8.2.8-17.5.4-25.9z"/><g id="XMLID_841_"><path id="XMLID_842_" class="st1" d="M1105.9 221.6c-7.2-5-9.9-5.6-15.4-6-12.7-.5-26.9 3.4-36.2 12.3-9.3 8.6-14.9 20.6-18.1 32.6-.7 2.7-1.6 4.2-1.8 5.4-.1 1.2 28.6 15.2 31.7 12.5 1.6-1.3 7.9-14.9 10.7-18.2 3.6-4.8 8.8-11.3 15.4-11.1 4.8.2 10.4 3.8 13.6 7.1 4.9-4.1 6.9-10.2 14-11.4 5.5-.6 10.3 1.1 13.8 5.5 6 7.8 7 20.5 5.9 30 6.1.1 26.3-7 28.1-7.9 1.6-.8-.4-4.7-1-8.2-2.4-12.4-4.8-27.9-13.9-37.2-6.5-6.5-15.3-10.5-24.2-10.9-7.1-.3-13.9-1.1-22.6 5.5z"/></g></g></svg>