<svg version="1.1" id="Calque_1" xmlns="http://www.w3.org/2000/svg" x="0" y="0" viewBox="-155 247 300 300" style="enable-background:new -155 247 300 300" xml:space="preserve"><style>.st1{fill:none}</style><path style="fill:#571ee2" d="M-155 247.5h300v299.6h-300z"/><path class="st1" d="M-155 247.5h300v299.6h-300z"/><path class="st1" d="M-155 247.5h300v299.6h-300z"/><path d="M83.1 471v43.7H-93.1V279.3H83.1v43H-49v54.1H78.4v41.4H-49V471H83.1z" style="fill:#421cb7"/><path d="M70.8 415.8c0-7.7-3.8-14.5-9.5-18.8v-9.5c0-31.4-25.5-56.9-56.9-56.9h-19c-31.4 0-56.9 25.5-56.9 56.9v9.5c-5.7 4.3-9.5 11.1-9.5 18.8 0 7.8 3.8 14.6 9.6 19h-.1v4.9c0 13.1 10.6 23.7 23.7 23.7h85.3c13.1 0 23.7-10.6 23.7-23.7v-4.9h-.1c5.9-4.3 9.7-11.2 9.7-19zm-127.9-9.4H47.1c5.2 0 9.5 4.3 9.5 9.5s-4.3 9.5-9.5 9.5H-57.1c-5.2 0-9.5-4.3-9.5-9.5 0-5.3 4.3-9.5 9.5-9.5zM37.6 378c2.6 0 4.7 2.1 4.7 4.7s-2.1 4.7-4.7 4.7-4.7-2.1-4.7-4.7c0-2.5 2.1-4.7 4.7-4.7zM9.2 349.6c2.6 0 4.7 2.1 4.7 4.7s-2.1 4.7-4.7 4.7-4.7-2.1-4.7-4.7 2.1-4.7 4.7-4.7zM-19.2 378c2.6 0 4.7 2.1 4.7 4.7s-2.1 4.7-4.7 4.7-4.7-2.1-4.7-4.7c-.1-2.5 2.1-4.7 4.7-4.7zm-28.4-18.9c2.6 0 4.7 2.1 4.7 4.7s-2.1 4.7-4.7 4.7-4.7-2.1-4.7-4.7c-.1-2.6 2-4.7 4.7-4.7z" style="fill:#fafafa"/></svg>