<svg version="1.1" id="Calque_1" xmlns="http://www.w3.org/2000/svg" x="0" y="0" viewBox="-155 247 300 300" style="enable-background:new -155 247 300 300" xml:space="preserve"><style>.st2{fill:#fff}</style><path style="fill:#fcb035" d="M-155 247.5h300v299.6h-300z"/><path style="fill:#dd9731" d="m-102.3 340.8 78.6 205.8h168.3v-93L63.4 317z"/><path class="st2" d="M52.3 399c-1.2-3.7-1.7-8.4-1.1-13.4 1.2-11.4 7.1-20.1 13.2-19.4.9.1 1.8.5 2.6 1l25.3-54.8L-73.9 339c1.3 7.8 2.9 15.7 5.3 23.5 13 41.6 40.7 74.5 75.5 95 0 0 10.4 6.8 16.1 5.1L52.3 399zm1.1-34c-.7 6.5-6.5 11.2-13 10.5-6.5-.7-11.2-6.5-10.5-13 .7-6.5 6.5-11.2 13-10.5 6.5.6 11.2 6.5 10.5 13zm-82-3.8c1-9.3 9.3-16 18.6-15s16 9.3 15 18.6-9.3 16-18.6 15-16-9.3-15-18.6zm23.7 44.3c.6-6 6.1-10.4 12.1-9.8 6 .7 10.4 6.1 9.8 12.1-.6 6-6.1 10.4-12.1 9.8-6.1-.6-10.5-6.1-9.8-12.1z"/><path class="st2" d="M-71.3 423.9c-28.4-41.6-30.9-80.5-31-83.1l20.3-1.1-10.1.5 10.1-.5c.2 3.6 6 87.9 101.1 135.2L10 493.1c-39.1-19.5-64.7-44.8-81.3-69.2z"/></svg>