<svg xmlns="http://www.w3.org/2000/svg" xmlns:xlink="http://www.w3.org/1999/xlink" viewBox="-155 247 300 300" style="enable-background:new -155 247 300 300" xml:space="preserve"><defs><path id="a" d="M-155 247.5h300v299.6h-300z"/></defs><clipPath id="b"><use xlink:href="#a" style="overflow:visible"/></clipPath><path style="clip-path:url(#b);fill:#ff5629" d="M-155 247.5h300v299.6h-300z"/><path d="M-218.7 355.9S7.6 310.5 180.9 497.1s-109.8 110-109.8 110-162.3-28.3-162.3 0-105.7-106-105.7-106l-18.4-145.3" style="clip-path:url(#b);fill:#ff7e27"/><g style="clip-path:url(#b)"><path d="M-4.9 330.4c14 0 26.1 3.3 36.3 9.9 10.2 6.6 17.7 14.9 22.3 24.9 4.7 10 7 20.7 6.8 32.3-.1 8.5-1.5 16.6-4.2 24.4-2.7 7.7-6.6 14.7-11.8 21-5.2 6.3-12 11.3-20.5 15-8.5 3.8-18.2 5.7-29 5.7s-20.5-1.8-29.1-5.5-15.5-8.6-20.7-14.9c-5.2-6.3-9.2-13.3-11.9-21-2.7-7.7-4-15.9-4-24.5s1.4-16.9 4.2-24.8c2.8-7.9 6.8-15 12-21.4 5.2-6.4 12.1-11.5 20.7-15.3 8.7-3.9 18.3-5.8 28.9-5.8zm0 21.9c-9.5 0-17.5 2.4-24.2 7.1-6.6 4.7-11.3 10.5-14 17.1-2.7 6.7-4 13.9-3.7 21.5.4 11.9 4 22.1 10.9 30.6s17.2 12.8 31.1 12.8c13.9 0 24.2-4.3 31.1-12.9 6.9-8.6 10.4-18.8 10.7-30.7.1-5.6-.6-11-2.2-16.2-1.6-5.2-4-10.1-7.2-14.6s-7.6-8.1-13.2-10.8c-5.8-2.6-12.1-3.9-19.3-3.9z" style="fill:#fafafa"/></g><path style="clip-path:url(#b);fill:none" d="M-155 247.5h300v299.6h-300z"/></svg>