<svg xmlns="http://www.w3.org/2000/svg" viewBox="-155 247 300 300" style="enable-background:new -155 247 300 300" xml:space="preserve"><path style="fill:#1ce5a7" d="M-155 247.2h300V547h-300z"/><path d="M47.6 354.1c0-.6-.5-1-1.1-1H26.8v-5.5c0-17.5-14.2-31.8-31.8-31.8s-31.8 14.2-31.8 31.8v5.5h-19.7c-.6 0-1 .4-1.1 1l-7.7 100.8c0 .3.1.6.3.8.2.2.5.4.8.4H54.1c.3 0 .6-.1.8-.4.2-.2.3-.5.3-.8l-7.6-100.8zm-75.6-6.4c0-12.7 10.3-23 23-23s23 10.3 23 23v5.5h-46v-5.5zm-4.4 36.1c-6 0-11-4.9-11-11 0-4.4 2.2-8.3 6.6-10v10c0 2.4 2 4.4 4.4 4.4s4.4-2 4.4-4.4v-10c4.4 1.7 6.6 5.7 6.6 10 0 6.1-4.9 11-11 11zm54.8 0c-6 0-11-4.9-11-11 0-4.4 2.2-8.3 6.6-10v10c0 2.4 2 4.4 4.4 4.4s4.4-2 4.4-4.4v-10c4.4 1.7 6.6 5.7 6.6 10-.1 6.1-5 11-11 11z" style="fill:#fff"/></svg>