<svg version="1.1" id="Calque_1" xmlns="http://www.w3.org/2000/svg" xmlns:xlink="http://www.w3.org/1999/xlink" x="0" y="0" viewBox="-155 247 300 300" style="enable-background:new -155 247 300 300" xml:space="preserve"><style>.st1{fill:none}</style><linearGradient id="SVGID_1_" gradientUnits="userSpaceOnUse" x1="-154.9" y1="547.2" x2="144.9" y2="247.4"><stop offset="0" style="stop-color:#9031ff"/><stop offset="1" style="stop-color:#0ff"/></linearGradient><path style="fill:url(#SVGID_1_)" d="M-155 247.5h300v299.6h-300z"/><path class="st1" d="M-155 247.5h300v299.6h-300z"/><path class="st1" d="M-155 247.5h300v299.6h-300z"/><image style="overflow:visible;opacity:.75" width="275" height="302" xlink:href="7C2248B8.png" transform="translate(-144 252)"/><path d="m47.6 349.7-20.8 10.7c-2.5-4.2-6.8-7.9-12.9-10.9-6.1-3-12.8-4.6-20.1-4.6-9.4 0-16.5 1.7-21.4 5.2-4.9 3.4-7.3 7.9-7.3 13.3 0 3.8 1.5 7 4.6 9.4 3 2.5 6.6 4.2 10.7 5.3 4.1 1.1 9.3 2 15.7 2.8 6.5.8 12.2 1.7 17.1 2.8 4.9 1.1 9.9 2.7 15.1 4.9 5.2 2.2 9.4 4.8 12.6 7.7 3.2 3 5.9 6.9 8 11.9 2.1 5 3.2 10.6 3.2 17 0 9.9-2.8 18.3-8.3 25.1C38 457.1 31 462 22.5 465s-18.2 4.5-28.9 4.5c-31.1 0-51.3-11.4-60.5-34.1l21.8-11.3c2.9 7.3 7.9 12.8 15 16.5 7 3.6 15.1 5.4 24.1 5.4 9.1 0 16.7-1.7 22.8-5.2 6.1-3.4 9.1-8.7 9.1-15.7 0-11.4-10.7-18.2-32.2-20.4-8.1-.9-15-2.1-20.7-3.7-5.8-1.5-11.4-3.8-17-6.8s-9.8-7.2-12.6-12.5c-2.8-5.3-4.3-11.6-4.3-19.1 0-9 2.8-16.7 8.3-23 5.6-6.4 12.2-10.8 20.1-13.4 7.8-2.6 16.3-3.9 25.4-4.1 27.5 0 45.7 9.2 54.7 27.6z" style="fill:#a53cef;stroke:#fff;stroke-width:10;stroke-miterlimit:10"/></svg>