<svg version="1.1" id="Layer_1" xmlns="http://www.w3.org/2000/svg" xmlns:xlink="http://www.w3.org/1999/xlink" x="0" y="0" viewBox="0 0 1080 810" style="enable-background:new 0 0 1080 810" xml:space="preserve"><style>.st1{fill:#699f63}.st4{clip-path:url(#XMLID_3_)}.st5{fill:none}</style><path style="fill:#242033" d="M0 0h1080v810H0z"/><path class="st1" d="M537.4 435c-1.5 0-3-.4-4.3-1.2l-13.8-8.2c-2.1-1.2-1.1-1.6-.4-1.8 2.7-1 3.3-1.2 6.2-2.8.3-.2.7-.1 1 .1l10.6 6.3c.4.2.9.2 1.3 0l41.3-23.8c.4-.2.6-.7.6-1.1v-47.6c0-.5-.2-.9-.6-1.1L538 329.9c-.4-.2-.9-.2-1.3 0l-41.3 23.8c-.4.2-.7.7-.7 1.1v47.6c0 .5.3.9.7 1.1l11.3 6.5c6.1 3.1 9.9-.5 9.9-4.2v-47c0-.7.5-1.2 1.2-1.2h5.2c.7 0 1.2.5 1.2 1.2v47c0 8.2-4.5 12.9-12.2 12.9-2.4 0-4.3 0-9.5-2.6l-10.8-6.2c-2.7-1.5-4.3-4.4-4.3-7.5v-47.6c0-3.1 1.7-6 4.3-7.5l41.3-23.9c2.6-1.5 6.1-1.5 8.7 0l41.3 23.9c2.7 1.5 4.3 4.4 4.3 7.5v47.6c0 3.1-1.7 6-4.3 7.5l-41.3 23.8c-1.3.9-2.8 1.3-4.3 1.3z"/><path class="st1" d="M550.1 402.2c-18.1 0-21.8-8.3-21.8-15.2 0-.7.5-1.2 1.2-1.2h5.3c.6 0 1.1.4 1.2 1 .8 5.4 3.2 8.2 14.1 8.2 8.7 0 12.4-2 12.4-6.6 0-2.7-1-4.6-14.6-6-11.3-1.1-18.3-3.6-18.3-12.6 0-8.3 7-13.3 18.8-13.3 13.2 0 19.8 4.6 20.6 14.4 0 .3-.1.7-.3.9-.2.2-.5.4-.9.4h-5.4c-.6 0-1-.4-1.2-.9-1.3-5.7-4.4-7.5-12.9-7.5-9.5 0-10.6 3.3-10.6 5.8 0 3 1.3 3.9 14.1 5.6 12.7 1.7 18.7 4.1 18.7 13 .2 8.8-7.3 14-20.4 14zm59.6-50c0 4.4-3.6 8-8 8-4.3 0-8-3.5-8-8s3.7-8 8-8 8 3.5 8 8zm-14.7 0c0 3.7 3 6.7 6.7 6.7s6.7-3.1 6.7-6.7c0-3.7-3-6.7-6.7-6.7-3.6 0-6.7 2.9-6.7 6.7zm3.7-4.5h3.1c1.1 0 3.1 0 3.1 2.4 0 1.6-1.1 2-1.7 2.2 1.2.1 1.3.9 1.5 2 .1.7.2 1.9.5 2.4h-1.9c0-.4-.3-2.7-.3-2.8-.1-.5-.3-.8-.9-.8h-1.6v3.6h-1.7v-9zm1.7 3.9h1.4c1.1 0 1.3-.8 1.3-1.3 0-1.2-.8-1.2-1.3-1.2h-1.4v2.5z"/><path d="M409.5 248.6c0-1.9-1-3.7-2.6-4.6l-43.8-25.2c-.7-.4-1.6-.7-2.4-.7h-.5c-.8 0-1.7.3-2.4.7L314.1 244c-1.6.9-2.6 2.7-2.6 4.6l.1 67.8c0 .9.5 1.8 1.3 2.3.8.5 1.8.5 2.6 0l26-14.9c1.6-1 2.6-2.7 2.6-4.6v-31.7c0-1.9 1-3.6 2.6-4.6l11.1-6.4c.8-.5 1.7-.7 2.6-.7.9 0 1.8.2 2.6.7l11.1 6.4c1.6.9 2.6 2.7 2.6 4.6v31.7c0 1.9 1 3.6 2.6 4.6l26 14.9c.8.5 1.8.5 2.6 0s1.3-1.3 1.3-2.3l.3-67.8zm210.6-93.3c-.8-.5-1.8-.4-2.6 0-.8.5-1.3 1.3-1.3 2.3v67.2c0 .7-.4 1.3-.9 1.6-.6.3-1.3.3-1.9 0l-11-6.3c-1.6-.9-3.6-.9-5.3 0l-43.8 25.3c-1.6.9-2.6 2.7-2.6 4.6v50.5c0 1.9 1 3.6 2.6 4.6l43.8 25.3c1.6.9 3.7.9 5.3 0l43.8-25.3c1.6-.9 2.6-2.7 2.6-4.6v-126c0-1.9-1-3.7-2.7-4.6l-26-14.6zm-4 128.6c0 .5-.3.9-.7 1.1l-15 8.7c-.4.2-.9.2-1.3 0l-15-8.7c-.4-.2-.7-.7-.7-1.1v-17.4c0-.5.3-.9.7-1.1l15-8.7c.4-.2.9-.2 1.3 0l15 8.7c.4.2.7.7.7 1.1v17.4zm149.8-17.8c1.6-.9 2.6-2.7 2.6-4.6v-12.2c0-1.9-1-3.6-2.6-4.6l-43.5-25.3c-1.6-1-3.7-1-5.3 0l-43.8 25.3c-1.6.9-2.6 2.7-2.6 4.6v50.5c0 1.9 1 3.7 2.7 4.6l43.5 24.8c1.6.9 3.6.9 5.2 0l26.3-14.6c.8-.5 1.4-1.3 1.4-2.3 0-1-.5-1.8-1.3-2.3l-44-25.3c-.8-.5-1.3-1.3-1.3-2.3v-15.8c0-.9.5-1.8 1.3-2.3l13.7-7.9c.8-.5 1.8-.5 2.6 0l13.7 7.9c.8.5 1.3 1.3 1.3 2.3V279c0 .9.5 1.8 1.3 2.3.8.5 1.8.5 2.6 0l26.2-15.2z" style="fill-rule:evenodd;clip-rule:evenodd;fill:#fff"/><path d="M719.1 263.7c.3-.2.7-.2 1 0l8.4 4.8c.3.2.5.5.5.9v9.7c0 .4-.2.7-.5.9l-8.4 4.8c-.3.2-.7.2-1 0l-8.4-4.8c-.3-.2-.5-.5-.5-.9v-9.7c0-.4.2-.7.5-.9l8.4-4.8z" style="fill-rule:evenodd;clip-rule:evenodd;fill:#699f63"/><defs><path id="XMLID_143_" d="M482.8 219.7c-1.6-.9-3.6-.9-5.3 0L434 244.8c-1.6.9-2.6 2.7-2.6 4.6v50.3c0 1.9 1 3.6 2.6 4.6l43.5 25.1c1.6.9 3.6.9 5.3 0l43.5-25.1c1.6-.9 2.6-2.7 2.6-4.6v-50.3c0-1.9-1-3.6-2.6-4.6l-43.5-25.1z"/></defs><linearGradient id="XMLID_2_" gradientUnits="userSpaceOnUse" x1="497.849" y1="238.406" x2="458.514" y2="318.65"><stop offset="0" style="stop-color:#41873f"/><stop offset=".329" style="stop-color:#418b3d"/><stop offset=".635" style="stop-color:#419637"/><stop offset=".932" style="stop-color:#3fa92d"/><stop offset="1" style="stop-color:#3fae2a"/></linearGradient><use xlink:href="#XMLID_143_" style="overflow:visible;fill-rule:evenodd;clip-rule:evenodd;fill:url(#XMLID_2_)"/><clipPath id="XMLID_3_"><use xlink:href="#XMLID_143_" style="overflow:visible"/></clipPath><g class="st4"><path class="st5" d="m477.4 219.7-43.6 25.1c-1.6.9-2.8 2.7-2.8 4.6v50.3c0 1.2.5 2.4 1.4 3.3l49-83.9c-1.3-.3-2.8-.1-4 .6zm4.2 110.2c.4-.1.8-.3 1.2-.5l44-25.1c1.6-.9 3.2-2.7 3.2-4.6v-50.3c0-1.4-1-2.7-2-3.7l-46.4 84.2z"/><linearGradient id="SVGID_1_" gradientUnits="userSpaceOnUse" x1="473.519" y1="280.401" x2="583.891" y2="198.853"><stop offset=".138" style="stop-color:#41873f"/><stop offset=".403" style="stop-color:#54a044"/><stop offset=".714" style="stop-color:#66b848"/><stop offset=".908" style="stop-color:#6cc04a"/></linearGradient><path d="m526.4 244.8-43.7-25.1c-.4-.2-.9-.4-1.4-.5l-49 83.9c.4.5.9.9 1.5 1.2l43.7 25.1c1.2.7 2.7.9 4.1.5l46-84.2-1.2-.9z" style="fill:url(#SVGID_1_)"/></g><g class="st4"><path class="st5" d="M530 299.7v-50.3c0-1.9-1.6-3.6-3.2-4.6l-43.9-25.1c-.5-.3-1.2-.5-1.7-.6l48.2 81.8c.2-.4.6-.8.6-1.2zm-96.2-54.9c-1.6.9-2.8 2.7-2.8 4.6v50.3c0 1.9 1.2 3.6 2.8 4.6l43.7 25.1c1 .6 2.2.8 3.4.7l-46.8-85.4-.3.1z"/><linearGradient id="SVGID_2_" gradientUnits="userSpaceOnUse" x1="429.812" y1="210.629" x2="530.481" y2="210.629"><stop offset=".092" style="stop-color:#6cc04a"/><stop offset=".286" style="stop-color:#66b848"/><stop offset=".597" style="stop-color:#54a044"/><stop offset=".862" style="stop-color:#41873f"/></linearGradient><path style="fill:url(#SVGID_2_)" d="m476.1 210.5-.6.3h.8z"/><linearGradient id="SVGID_3_" gradientUnits="userSpaceOnUse" x1="429.812" y1="274.509" x2="530.481" y2="274.509"><stop offset=".092" style="stop-color:#6cc04a"/><stop offset=".286" style="stop-color:#66b848"/><stop offset=".597" style="stop-color:#54a044"/><stop offset=".862" style="stop-color:#41873f"/></linearGradient><path d="M526.4 304.2c1.3-.7 2.2-2 2.6-3.3l-47.9-81.8c-1.2-.2-2.6-.1-3.7.6l-43.4 25 46.9 85.4c.7-.1 1.3-.3 1.9-.7l43.6-25.2z" style="fill:url(#SVGID_3_)"/><linearGradient id="SVGID_4_" gradientUnits="userSpaceOnUse" x1="429.812" y1="303.248" x2="530.481" y2="303.248"><stop offset=".092" style="stop-color:#6cc04a"/><stop offset=".286" style="stop-color:#66b848"/><stop offset=".597" style="stop-color:#54a044"/><stop offset=".862" style="stop-color:#41873f"/></linearGradient><path style="fill:url(#SVGID_4_)" d="m530.5 303.4-.3-.5v.7z"/><linearGradient id="SVGID_5_" gradientUnits="userSpaceOnUse" x1="428.974" y1="316.237" x2="531.293" y2="316.237"><stop offset=".092" style="stop-color:#6cc04a"/><stop offset=".286" style="stop-color:#66b848"/><stop offset=".597" style="stop-color:#54a044"/><stop offset=".862" style="stop-color:#41873f"/></linearGradient><path d="m526.4 304.2-43.6 25.1c-.6.3-1.3.6-1.9.7l1.3 1.6 48.8-28v-.7l-1.6-2c-.4 1.4-1.7 2.6-3 3.3z" style="fill:url(#SVGID_5_)"/><linearGradient id="SVGID_6_" gradientUnits="userSpaceOnUse" x1="545.551" y1="236.027" x2="483.465" y2="362.682"><stop offset="0" style="stop-color:#41873f"/><stop offset=".329" style="stop-color:#418b3d"/><stop offset=".635" style="stop-color:#419637"/><stop offset=".932" style="stop-color:#3fa92d"/><stop offset="1" style="stop-color:#3fae2a"/></linearGradient><path d="m526.4 304.2-43.6 25.1c-.6.3-1.3.6-1.9.7l1.3 1.6 48.8-28v-.7l-1.6-2c-.4 1.4-1.7 2.6-3 3.3z" style="fill:url(#SVGID_6_)"/></g></svg>