<svg xmlns="http://www.w3.org/2000/svg" viewBox="0 0 512.001 512.001" style="enable-background:new 0 0 512.001 512.001" xml:space="preserve"><path style="fill:#e16b5a" d="M255.333.048s150.936-6.78 230.932 144.636H242.501s-46.036-1.512-85.28 54.244c-11.32 23.352-23.392 47.46-9.808 94.916C127.793 260.704 43.265 113.8 43.265 113.8S102.889 6.072 255.333.048z"/><path style="fill:#cc6152" d="M255.333.048c-2.604.104-5.116.308-7.668.468 40.752 2.968 150.852 22.468 215.148 144.168h23.444C406.265-6.736 255.333.048 255.333.048z"/><path style="fill:#ffd464" d="M478.409 384.488s-69.6 133.852-240.968 127.268c21.14-36.524 121.912-210.704 121.912-210.704s24.328-39.044-4.4-100.844c-14.604-21.464-58.844-43.96-106.812-55.952 38.576-.384 237.644.024 237.644.024s63.632 105.42-7.376 240.208z"/><path style="fill:#f2c95f" d="M485.781 144.284s-101.54-.208-173.636-.184c69.164.016 152.012.184 152.012.184s63.636 105.416-7.372 240.204c0 0-63.776 122.416-219.348 127.268 171.368 6.584 240.972-127.268 240.972-127.268 71.008-134.788 7.372-240.204 7.372-240.204z"/><path style="fill:#74b340" d="M33.333 385.504S-47.991 258.4 43.413 113.552l121.84 210.752s21.696 40.552 89.684 46.616c25.916-1.888 52.876-3.492 87.264-38.952-18.96 33.532-104.172 180.028-104.172 180.028s-123.272 2.296-204.696-126.492z"/><circle style="fill:#fff" cx="254.721" cy="258.08" r="116"/><circle style="fill:#2995cc" cx="254.681" cy="258.08" r="92"/><path style="fill:#268cbf" d="M254.705 166.1c-1.832 0-3.644.068-5.444.172 48.272 2.82 86.552 42.848 86.552 91.824 0 48.984-38.28 89.016-86.552 91.836 1.804.1 3.616.172 5.444.172 50.804 0 92-41.196 92-92.008 0-50.804-41.196-91.996-92-91.996z"/></svg>