<svg xmlns="http://www.w3.org/2000/svg" viewBox="0 0 512 512" style="enable-background:new 0 0 512 512" xml:space="preserve"><circle style="fill:#2995cc" cx="256" cy="256" r="256"/><path style="fill:#f5f5f5" d="M232 246.516V129.532c-40 6.324-72.536 12.624-112 18.944v99.456c39.464-.46 72-.952 112-1.416zm16-.232c40-.48 88.536-.936 128-1.42V107.52c-39.464 6.324-88 12.62-128 18.948v119.816zm1.6 19.436c-.016 39.936 0 79.876 0 119.816 39.46 6.324 86.928 12.624 126.4 18.944V267.136c-39.464-.468-86.928-.944-126.4-1.416zm-17.6-.236c-40-.476-72.536-.944-112-1.42v99.456c39.464 6.328 72 12.62 112 18.944v-116.98z"/></svg>