<svg xmlns="http://www.w3.org/2000/svg" viewBox="0 0 511.719 511.719" style="enable-background:new 0 0 511.719 511.719" xml:space="preserve"><path style="fill:#2179a6" d="M255.044 503.909c135.492 0 245.332-112.728 245.332-251.768 0-139.028-109.844-251.76-245.332-251.76C119.536.381 9.692 113.113 9.692 252.141c-.004 139.04 109.856 251.768 245.352 251.768z"/><path style="fill:#195d80" d="M498.216 285.105c-1.28.976-2.58 1.944-3.984 2.836 2.172-5.876 4.14-13.444 5.772-22.156.236-4.52.376-9.068.376-13.652 0-52.572-15.732-101.364-42.584-141.744-24.308-28.752-57.408-53.424-101.264-65.828 47.196 31.912 64.828 59.024 75.984 83.148-12.624-13.236-34.228-27.044-48.812-28.192 21.876 16.684 58.484 66.18 54.588 141.168-5.612-12.08-15.88-30.988-23.172-37.604 7.852 73.648.976 89.46-3.792 109.024-1.048-8.992-4.204-15.744-6.024-19.848 0 0-.84 23.016-15.42 55.808-11.048 24.836-22.448 32.508-27.492 31.64-1.376-.092-2.108-.696-2.096-.752.36-3.216.684-6.584-.148-8.732 0 0-4.66 1.648-7.668 5.984-1.212 1.748-2.78 3.452-4.84 5.056-.352.28 3.328-4.836 3.052-4.6a65.298 65.298 0 0 0-5.708 5.36c-7.152 7.612-13.596 16.056-16.956 13.664 3.128-.976 5.624-5.06 6.3-9.06-2.808 2.012-9.94 7.48-25.94 9.916-6.544 1-34.38 6.188-71.4-12.796 5.4-.632 13.476-2.584 19.632 1.148-6.156-6.892-21.032-5.46-31.696-8.916-9.292-3.016-21.42-16.388-28.388-23.14 28.492 7.156 58.748 1.992 76.24-10.272 17.676-12.4 28.148-21.452 37.544-19.308 9.38 2.144 15.632-7.508 8.324-16.088-7.28-8.584-24.944-20.124-48.98-13.944-18.4 4.728-34.084 19.876-59.928 9.344a63.766 63.766 0 0 1-4.832-2.204c-1.652-.844 5.404 1 3.664-.048-4.968-1.88-14-6.124-16.24-7.736-.364-.28 3.74.764 3.312.492-24.532-14.884-22.924-26.788-22.924-34.16 0-5.896 3.492-13.868 10.044-17.604 3.536 1.292 5.732 2.476 5.732 2.476s-1.632-2.576-2.668-3.824c.24-.088.488-.156.736-.228 2.888 1.004 13.16 5.316 18.644 9.804 6.516-12.488 1.644-33.168.976-34.448 0-.024.016-.028.016-.06 1.38-6.348 38.272-26.176 41.032-28.268 3.82-2.9 7.712-7.372 10.148-12.52 1.768-3.288 3.04-7.968 2.696-14.712-.252-4.868-3.072-7.844-42.416-7.504-10.752.084-17.752-6.332-21.984-12.448a132.89 132.89 0 0 1-2.296-3.74c-.928-1.7-1.556-3.212-2.032-4.432 4.7-17.492 20.368-42.356 34.52-49.936-26.144-8.424-58.144 15.576-67.24 28.46-.028.044-.064.08-.088.116-22.996-5.86-42.512-4.44-58.832.924-12.116-6.016-19.804-18.668-24.16-30.376a252.078 252.078 0 0 0-29.64 39.904 149.64 149.64 0 0 0-.752 28.752c-.012 1.428.208 2.812.164 4.092-6.188 8.74-10.224 16.26-11.796 19.968-7.548 15.096-15.28 38.308-21.52 74.36 0 0 4.192-13.588 12.572-28.976-6 18.824-10.708 47.84-8.38 90.908.14.612.272 1.24.416 1.848.488-4.148 1.84-13.936 4.492-26.32 1.6 30.064 8.56 67.024 31.396 107.1a298.544 298.544 0 0 0 7.748 12.892c44.844 60.032 115.404 98.78 194.804 98.78 124.588.008 227.42-95.344 243.168-218.796z"/><path style="fill:#e78244" d="M440.992 401.377c14.088-27.196 33.208-43.12 43.56-61.928 13.736-25.02 39.688-95.364 20.12-152.1 8.968 35.524 6.168 71.616-22.44 89.744 9.252-25.028 15.052-79.94 5.516-129.412-6.204-32.148-25.82-60.952-38.608-69.932 11.772 9.056 21.244 41.488 20.98 56.372-24.632-42.544-64.828-83.22-125.588-100.404 47.196 31.912 64.828 59.024 75.984 83.148-12.616-13.236-34.224-27.044-48.812-28.192 21.876 16.684 58.492 66.18 54.592 141.168-5.608-12.08-15.884-30.988-23.172-37.604 7.852 73.652.976 89.464-3.792 109.024-1.048-8.992-4.204-15.744-6.024-19.848 0 0-.84 23.016-15.424 55.808-11.044 24.836-22.444 32.508-27.492 31.64-1.368-.092-2.104-.696-2.092-.752.36-3.216.684-6.584-.148-8.732 0 0-4.66 1.648-7.668 5.984-1.212 1.748-2.776 3.452-4.84 5.056-.352.28 3.328-4.836 3.056-4.6a64.747 64.747 0 0 0-5.712 5.36c-7.152 7.612-13.6 16.056-16.952 13.664 3.124-.976 5.62-5.06 6.296-9.06-2.812 2.012-9.944 7.48-25.936 9.916-6.548 1-34.384 6.188-71.404-12.796 5.4-.632 13.476-2.584 19.632 1.148-6.156-6.892-21.032-5.46-31.696-8.916-9.292-3.016-21.42-16.388-28.388-23.14 28.492 7.156 58.748 1.992 76.24-10.272 17.676-12.4 28.152-21.452 37.544-19.308 9.376 2.144 15.632-7.512 8.324-16.088-7.276-8.584-24.94-20.124-48.98-13.944-18.4 4.728-34.084 19.876-59.928 9.344a63.766 63.766 0 0 1-4.832-2.204c-1.652-.844 5.404 1 3.664-.052-4.968-1.876-14-6.12-16.24-7.732-.364-.28 3.74.764 3.312.492-24.532-14.884-22.924-26.788-22.924-34.164 0-5.896 3.492-13.868 10.044-17.604 3.536 1.292 5.732 2.476 5.732 2.476s-1.632-2.576-2.668-3.824c.24-.088.488-.156.736-.228 2.888 1.004 13.16 5.316 18.644 9.804 6.516-12.488 1.644-33.168.976-34.448 0-.024.016-.028.016-.06 1.38-6.348 38.272-26.176 41.032-28.268 3.82-2.9 7.712-7.372 10.148-12.52 1.768-3.288 3.04-7.968 2.696-14.712-.252-4.868-3.068-7.844-42.412-7.504-10.752.084-17.752-6.332-21.984-12.448a132.89 132.89 0 0 1-2.296-3.74c-.928-1.7-1.556-3.212-2.032-4.432 4.7-17.492 20.368-42.356 34.52-49.936-26.148-8.428-58.148 15.572-67.244 28.452-.028.044-.064.084-.088.116-22.996-5.86-42.512-4.44-58.832.924-19.984-9.92-27.984-37.92-28.724-49.9-11.26 7.98-21.632 40.168-23 46.588-2 10.148-4.052 24.004-2.832 41.596-.012 1.428.208 2.812.164 4.092-6.188 8.74-10.224 16.26-11.796 19.968-7.548 15.096-15.28 38.308-21.52 74.36 0 0 4.192-13.588 12.572-28.976-6.18 19.384-11.008 49.532-8.172 94.752.112-1.492 1.404-12.916 4.7-28.312 1.6 30.064 8.56 67.024 31.396 107.1 17.4 30.568 63.26 101.576 178.328 128.148-12.632-3.736-20.484-11.22-20.484-11.22s42.976 14.164 74.344 12.956c-9.82-1.74-11.78-6.612-11.78-6.612s111.516 6.468 150.076-47.476c-13.18 15.812-46.56 20.276-59.188 20.416 19.22-18.112 61.708-17.688 107.732-64.14 25.248-25.488 27.972-44.876 30.728-63-4.224 23.736-26.256 37.972-49.26 50.924z"/><path style="fill:#144f66" d="M248.94 160.637c1.78-4.464 3.804-14.952-2.028-17.152-4.864-1.196-8.988-2.06-16.916-1.88 2.612.668 10.112 2.184 12.06 5.772 3.716 6.864-5.064 23.312-6.34 26.812 4 .004 11.472-9.16 13.224-13.552z"/></svg>