<svg xmlns="http://www.w3.org/2000/svg" viewBox="163.7 -24.4 80.4 80.4" style="enable-background:new 163.7 -24.4 80.4 80.4" xml:space="preserve"><linearGradient id="a" gradientUnits="userSpaceOnUse" x1="197.2" y1="54.289" x2="197.2" y2="-23.628" gradientTransform="matrix(1 0 0 -1 0 31.2)"><stop offset=".3" style="stop-color:#ff1b2d"/><stop offset=".438" style="stop-color:#fa1a2c"/><stop offset=".594" style="stop-color:#ed1528"/><stop offset=".758" style="stop-color:#d60e21"/><stop offset=".927" style="stop-color:#b70519"/><stop offset="1" style="stop-color:#a70014"/></linearGradient><path d="M190.7 38.5c-4.4-5.2-7.3-13-7.5-21.7v-1.9c.2-8.7 3.1-16.5 7.5-21.7C196.5-14.3 205-19 214.6-19c5.9 0 11.4 1.8 16.1 4.9-7.1-6.4-16.4-10.3-26.6-10.3h-.2c-22.2 0-40.2 18-40.2 40.2 0 21.6 17 39.2 38.3 40.2h1.9c10.3 0 19.7-3.9 26.8-10.2-4.7 3.1-10.2 4.9-16.1 4.9-9.6 0-18.2-4.8-23.9-12.2z" style="fill:url(#a)"/><linearGradient id="b" gradientUnits="userSpaceOnUse" x1="217.4" y1="49.697" x2="217.4" y2="-19.217" gradientTransform="matrix(1 0 0 -1 0 31.2)"><stop offset="0" style="stop-color:#9c0000"/><stop offset=".7" style="stop-color:#ff4b4b"/></linearGradient><path d="M190.7-6.9c3.7-4.4 8.5-7 13.7-7 11.7 0 21.2 13.3 21.2 29.6s-9.5 29.6-21.2 29.6c-5.2 0-10-2.6-13.7-7 5.8 7.5 14.3 12.2 23.9 12.2 5.9 0 11.4-1.8 16.1-4.9 8.2-7.4 13.4-18.1 13.4-30s-5.2-22.6-13.4-30c-4.7-3.1-10.2-4.9-16.1-4.9-9.6.2-18.2 5-23.9 12.4z" style="fill:url(#b)"/></svg>