<svg version="1.1" id="Calque_1" xmlns="http://www.w3.org/2000/svg" x="0" y="0" viewBox="-200 246 302 302" style="enable-background:new -200 246 302 302" xml:space="preserve"><style>.st0{fill:#27346a}</style><path class="st0" d="M37.7 273.1C24.1 257.6-.4 251-31.7 251h-90.9c-6.4 0-11.9 4.7-12.9 11l-37.9 240.1c-.8 4.7 2.9 9 7.7 9h56.1l14.1-89.4-.4 2.8c1-6.3 6.4-11 12.8-11h26.7C-4 413.5 37 392.2 49 330.6c.4-1.8.7-3.6.9-5.3-1.5-.8-1.5-.8 0 0 3.7-22.7.1-38.2-12.2-52.2"/><path class="st0" d="M-73.9 317.1c1.5-.7 3.2-1.1 4.9-1.1H2.3c8.4 0 16.3.6 23.5 1.7 2.1.3 4.1.7 6 1.1 1.9.4 3.8.9 5.7 1.4.9.3 1.8.5 2.7.8 3.5 1.2 6.8 2.6 9.9 4.2 3.6-22.8 0-38.2-12.3-52.3C24.1 257.6-.4 251-31.7 251h-90.9c-6.4 0-11.8 4.7-12.9 11l-37.9 240.1c-.8 4.7 2.9 9 7.7 9h56.1l29.2-185.5c.8-3.8 3.2-6.9 6.5-8.5z"/><path d="M49.1 330.7c-12 61.6-53 82.9-105.4 82.9H-83c-6.4 0-11.8 4.7-12.8 11l-17.5 111.2c-.7 4.1 2.5 7.9 6.7 7.9h47.3c5.6 0 10.4-4.1 11.2-9.6l.5-2.4 8.9-56.5.6-3.1c.9-5.5 5.6-9.6 11.2-9.6h7.1c45.8 0 81.7-18.6 92.2-72.5 4.4-22.5 2.1-41.3-9.5-54.5-3.5-4-7.9-7.3-13-10-.2 1.6-.5 3.3-.8 5.2z" style="fill:#2790c3"/><path d="M37.5 320.3c-1.8-.5-3.7-1-5.7-1.4-1.9-.4-3.9-.8-6-1.1-7.2-1.2-15.1-1.7-23.5-1.7H-69c-1.8 0-3.4.4-4.9 1.1-3.3 1.6-5.7 4.7-6.3 8.5l-15.1 96.1-.4 2.8c1-6.3 6.4-11 12.8-11h26.7c52.4 0 93.4-21.3 105.4-82.9.4-1.8.7-3.6.9-5.3-3-1.6-6.3-3-9.9-4.2l-2.7-.9" style="fill:#1f264f"/></svg>