<svg xmlns="http://www.w3.org/2000/svg" viewBox="0 0 512 512" style="enable-background:new 0 0 512 512" xml:space="preserve"><circle style="fill:#f5f5f5" cx="256" cy="256" r="256"/><path style="fill:#e6e6e6" d="M256 0c-1.34 0-2.664.08-4 .1C391.532 2.248 504 115.956 504 256S391.532 509.752 252 511.9c1.336.024 2.66.1 4 .1 141.384 0 256-114.616 256-256S397.384 0 256 0z"/><path style="fill:#88c5cc" d="M256 489.244C127.392 489.244 22.752 384.608 22.752 256c0-128.612 104.64-233.244 233.248-233.244S489.252 127.388 489.252 256c0 128.608-104.644 233.244-233.252 233.244z"/><path style="fill:#80b9bf" d="M45.508 256c0-124.796 98.524-227 221.868-232.956-3.768-.18-7.56-.288-11.376-.288C127.392 22.756 22.752 127.388 22.752 256c0 128.608 104.64 233.244 233.252 233.244 3.816 0 7.6-.104 11.376-.284C144.032 483 45.508 380.796 45.508 256z"/><path style="fill:#f5f5f5" d="M256 170.668c-47.056 0-85.332 38.28-85.332 85.332 0 47.056 38.276 85.332 85.332 85.332s85.332-38.276 85.332-85.332c0-47.052-38.276-85.332-85.332-85.332zm0 147.912c-34.504 0-62.58-28.072-62.58-62.58s28.076-62.58 62.58-62.58 62.58 28.072 62.58 62.58-28.076 62.58-62.58 62.58z"/><path style="fill:#f5f5f5" d="m256 108.088-17.072 68.268h34.144zm0 295.828-17.072-68.272h34.144zM108.084 256l68.272 17.072v-34.14zm295.832 0-68.272 17.072v-34.14z"/><path style="fill:#e16b5a" d="m396.792 115.204-160.9 120.684L256 256l20.116 20.108z"/><path style="fill:#e6e6e6" d="m115.208 396.792 120.684-160.904L256 256l20.116 20.108z"/></svg>