<svg xmlns="http://www.w3.org/2000/svg" viewBox="-177 269 256 256" style="enable-background:new -177 269 256 256" xml:space="preserve"><filter height="200%" x="-50%" y="-50%" width="200%" filterUnits="objectBoundingBox" id="b"><feOffset dx="2" dy="2" result="shadowOffsetOuter1" in="SourceAlpha"/><feGaussianBlur stdDeviation="3.5" result="shadowBlurOuter1" in="shadowOffsetOuter1"/><feColorMatrix values="0 0 0 0 0 0 0 0 0 0 0 0 0 0 0 0 0 0 0.185125113 0" result="shadowMatrixOuter1" in="shadowBlurOuter1"/><feMerge><feMergeNode in="shadowMatrixOuter1"/><feMergeNode in="SourceGraphic"/></feMerge></filter><linearGradient id="a" gradientUnits="userSpaceOnUse" x1="-352.437" y1="792.24" x2="-353.345" y2="792.77" gradientTransform="matrix(256 0 0 -256 90270 203266)"><stop offset="0" style="stop-color:#2697d4"/><stop offset=".5" style="stop-color:#207bcb"/><stop offset="1" style="stop-color:#2285ce"/></linearGradient><path d="M-133.3 269H35.3c24.2 0 43.8 19.6 43.8 43.8v168.5c0 24.2-19.6 43.8-43.8 43.8h-168.5c-24.2 0-43.8-19.6-43.8-43.8V312.8c0-24.2 19.6-43.8 43.7-43.8z" style="fill:url(#a)"/><g style="filter:url(#b)"><path d="M-37.3 380c-12.9-4.8-20-8.5-20-14.3 0-5 4.1-7.8 11.3-7.8 13.3 0 26.9 5.1 36.3 9.7l5.3-32.8c-7.4-3.5-22.7-9.4-43.7-9.4-14.9 0-27.3 3.9-36.1 11.2-9.2 7.6-14 18.6-14 31.9 0 24.1 14.7 34.4 38.6 43 15.4 5.5 20.5 9.4 20.5 15.4 0 5.8-5 9.2-14 9.2-11.2 0-29.6-5.5-41.6-12.6l-5.3 33.1c10.3 5.8 29.4 11.9 49.2 11.9 15.8 0 28.9-3.7 37.7-10.8 10-7.8 15.1-19.3 15.1-34.1 0-24.7-15.1-34.9-39.3-43.6z" style="fill:#fff"/></g></svg>