<svg version="1.1" id="Layer_1" xmlns="http://www.w3.org/2000/svg" x="0" y="0" viewBox="0 0 538.7 538.7" style="enable-background:new 0 0 538.7 538.7" xml:space="preserve"><style>.st1,.st2{fill-rule:evenodd;clip-rule:evenodd;fill:#fff}.st2{fill:#2e3192}</style><path d="M364.8 365.9c-11.2 8.7-35.2 8.6-44.8 0-11.3 8.7-35.3 8.6-45 0-11.3 8.7-35.3 8.6-44.9 0-11.4 8.7-40.4 11.7-50 2.9M363 159.2c-11.2 8.7-32.7 12.2-44.8 0-11.3 11.1-35.3 9.8-45 0-12.4 10.5-34.6 11-44.8 0-13.2 13.5-33 14.7-45 0m34.9 148.6c-10.7 1.3-22.3-.8-28.3-6.1-11.4 8.8-40.8 12.9-50.2 3.9m76.6-34.2c-10.7 1.3-23.5-.8-29.5-6.1-11.4 8.8-41.4 16.6-50.8 7.5m79.1-35.3c-10.7 1.3-22.3-3.2-28.3-8.5-11.4 8.8-40.8 12.3-50.2 3.3m272.2 74.3c-11.2 8.5-31.5 3-41-5.7-9.1 7-32.6 5.7-44.1 5.1m85.5-36.3c-11 8.5-30.1 1.8-39.6-6.9-9.1 7-31.4 8.7-44.1 5.1m79.6-32.8c-13 9.1-30.2 1.8-39.8-6.9-9.8 9.4-31.4 8.7-44.1 5.1m-37.8 98.6c-11.3 8.8-35.3 8.8-44.9 0-11.4 8.8-35.4 8.8-45 0-11.4 8.8-35.4 8.8-44.8-.3m120.8-122.2c-11.3 8.8-29.9-2.1-39.5-10.9-11.4 8.8-35.4 8.8-45 0-11.4 8.8-30 11.2-39.5 2.1m257.9 131.5c-11.2 8.6-35.2 8.5-44.7-.2-11.2 8.8-35.2 8.8-44.8 0-11.3 8.8-35.3 8.8-45 0m110.3-142.3c-13 10.4-39.3 17.6-50.1 2.2-11.2 8.8-44.8 11.8-55.7 9.1" style="fill:none;stroke:#2e3192;stroke-width:8.3174;stroke-miterlimit:2.6131"/><path class="st1" d="M269.6 142.4c-70 0-127 57.1-127 127.1s57 127.1 127 127.1c70.1 0 127.2-57.1 127.2-127.1s-57.1-127.1-127.2-127.1zm0-20.1c-81.1 0-147.1 66.2-147.1 147.2 0 81.1 66 147.1 147.1 147.1s147.2-66 147.2-147.1c.1-81.1-66.1-147.2-147.2-147.2z"/><path class="st2" d="M269.3 0c148.4 0 269.4 120.9 269.4 269.3s-121 269.4-269.4 269.4C121 538.7 0 417.7 0 269.3 0 120.9 121 0 269.3 0zm0 29.1c132.4 0 240.3 107.9 240.3 240.2 0 132.4-107.9 240.3-240.3 240.3-132.3 0-240.2-107.9-240.2-240.3C29.1 137 137 29.1 269.3 29.1zm0 17c123 0 223.3 100.2 223.3 223.1 0 122.8-100.3 223.1-223.3 223.1-122.8 0-223.1-100.3-223.1-223.1 0-122.9 100.2-223.1 223.1-223.1zm0 92.6c72 0 130.6 58.7 130.6 130.6s-58.6 130.5-130.6 130.5c-71.8 0-130.5-58.6-130.5-130.5s58.7-130.6 130.5-130.6z"/><path class="st1" d="M269.6 190.8c-43.5 0-78.8 35.3-78.8 78.8s35.3 78.8 78.8 78.8 78.8-35.3 78.8-78.8c0-43.6-35.3-78.8-78.8-78.8z"/><path class="st2" d="M312.4 255.6c-5.7-18.3-22.9-31.2-42.9-31.2-19.7 0-36.8 13-42.5 31.2h85.4zM338 302l-38.6.2c-7.9 7.2-18.6 11.6-30 11.6-21.2 0-41.2-16.1-45.1-36.5l121.2.5c.3-2.6-.2-5.7-.2-8.5 0-41.9-34.1-75.9-75.9-75.9-41.8 0-75.9 34-75.9 75.9 0 41.7 34.1 75.8 75.9 75.8 30.2 0 56.3-17.7 68.6-43.1z"/><path class="st1" d="m399 424.5-9.9 7.3-3.7-4.7 9.9-8.1 3.7 5.5zM355.5 389l11-8.1 7.3 9.9 17.2 22.7-11 8.3-7.3-10.2-17.2-22.6zM185.4 81l12-4.4 1.8 5.5-12 5.5-1.8-6.6zm32.9 45.3-11.7 5.5-4.7-11.7-11-26.3 12-5.5 4.4 11.7 11 26.3zm244.4 80.9 2.6 12.8-5.5 1-3.4-12 6.3-1.8zm-50.1 26.4L410 221l11.7-2.9 28.2-7.3 2.9 12.8-12 2.9-28.2 7.1zm-285.1 150 2.6 2.9 20.1 19.8 5.5-5.5-1.8-.8-20.1-20.1 5.5-5.5.8 1 20.9 20.1 4.7-5.5-2.9-2.9-19.8-19.8 6.3-6.5 11.7 11 20.1 20.1-8.1 8.9-20.1 21.1-11.7-11-20.2-20 6.5-7.3zm-23.8-52.7c-1 1-1.8 1.8-2.6 1.8v5.5c0 1 .8 1.8 1.6 3.7l2.9 6.3c.8 2.9 1.8 3.7 2.6 4.7 1 1.8 1.8 1.8 2.9 2.6 0 0 1.8 1 2.6 0 1 0 1.8 0 3.7-.8l5.5-2.9c1.8-.8 2.9-1.8 3.7-2.6 1-1 1-2.9 1-3.7 0-1.8-1-3.7-1.8-6.3l-3.7-6.5c-1-1.8-1.8-3.7-1.8-4.4l-2.9-2.9c-.8 0-1.8 0-2.6 1h-1l6.5 13.6-8.3 3.7-11.7-25.6 12.8-5.2c1.8-1 3.7-1 4.4-1 1.8 0 3.7 0 4.7 1.8 1.8.8 2.6 2.6 4.4 4.4 1 1.8 2.9 4.7 3.7 7.3l6.3 12.8c1.8 3.7 2.9 6.3 2.9 8.1.8 2.9.8 4.7 0 6.5 0 2.6-1 3.7-2.9 5.5-.8 1.8-2.6 2.6-5.5 3.7l-9.9 5.5c-2.6.8-5.5 1.6-7.3 1.6-2.6 0-4.4 0-6.3-.8-1.8-.8-2.9-1.8-4.7-4.4-1.6-1.8-2.6-4.7-4.4-7.3L93 343.8c-1.8-3.7-3.7-7.3-3.7-9.1-.8-2.6-.8-4.4-.8-6.3.8-1 .8-1.8 1.8-2.9 0-.8.8-1.8 1.8-2.6 1.8-1 2.6-1 4.4-1.8 1-1 1-1 1.8-1l5.4 10.8zm-18.2-72.6v3.4l1.8 29.2 7.3-1v-1.8l-1.8-28.2 8.3-.8v1.8l1.6 28.2h7.3l-.8-3.7-1.8-29 9.9-1 1 16.4 1.8 29-12 1-29 1.8-1-16.4-1.8-28.2 9.2-.7zm1.8-56.3 5.5-11 21.9 11.7c1.8 0 3.7 1 4.4 1 1 0 1.8-1 3.7-1.8 0-1 1.8-2.9 2.9-5.5l2.6-6.5c1.8-1.8 1.8-3.7 2.6-4.4 0-1 0-2.9-.8-3.7-.8-1-1.8-1.8-3.7-2.9l-21.9-10.7 5.5-11 25.6 12.8c2.6.8 4.4 2.6 5.5 3.7.8 1.8 1.8 2.6 1.8 4.4.8 1.8.8 3.7 0 5.5-1 2.6-1.8 4.4-2.9 7.3l-6.3 12.8c-1.8 3.4-3.7 6.3-5.5 8.1-.8 1.8-2.6 3.7-4.4 4.4-1 1-2.9 1-4.7 1-1.8 0-4.4-1-6.3-1.8L87.3 202zm2.9-14.6-6.5-2.9 4.7-8.1 6.3 3.7-4.5 7.3zm6.2-11.8-6.3-2.9 3.7-8.1 6.3 3.7-3.7 7.3zm101-40.1-14.6 10.2H181l-36.3-8.3h.8l17.2 23.7-9.9 7.3-7.3-10.2-17.2-22.7 14.6-11h1.8l35.5 9.1v-.8l-18.3-22.7 9.9-8.3 7.3 10.2 18.3 23.5zm51.6-27.2 12-31 13.6-1.8-5.5 12.8-11.7 31-14.6 1.8-8.1-12-18.3-26.3L230 81l19 27.3zm86.4-9.1-3.7-1-27.1-7-1.8 6.3h1.8l27.1 8.1-1.8 7.3h-1.8l-28.2-7.3-1.8 6.5 4.7.8 27.1 8.3-2.6 8.9-15.4-4.4-27.4-7.3 2.9-11.7 7-28.2 15.7 4.4 28.2 7.3-2.9 9zm50.1 20.1c2.6 1.8 4.4 3.4 6.3 4.4 1.8 1.8 2.9 3.7 2.9 4.4.8 1.8.8 3.7 0 5.5-1 1.8-1.8 3.7-3.7 6.5-1 1.8-1.8 2.6-3.7 3.7-1 .8-2.9 1.8-3.7 1.8-1.8 0-2.9 0-4.7-1 2.9 3.7 2.9 7.3 1 9.9l-5.5 7.3-9.9-7.3 3.7-5.2c.8-1 .8-1.8.8-1.8v-2.9c-.8 0-1.8-.8-2.6-1.8l-15.7-11-5.2 8.3-10.2-7.3 6.5-10.2L359 99.9l3.7 1.8 22.8 17.6zm-6.6 8.1-16.2-11.7-5.5 8.1 16.4 11.7c.8 0 1.8 1 1.8 1 .8 0 1.6 0 2.6-1l1.8-1.8c.8-1.8 1.8-2.6.8-3.7.2-.8.2-1.8-1.7-2.6zm12.8 32.6 6.5 11-1.8 1.8c-1 1-1 1.8 0 2.9 0 0 0 1.6.8 2.6l9.1 13.6c0 1 .8 1.8 1.8 1.8.8 1 1.8 0 2.6 0 1-.8 1.8-.8 1.8-1.8v-1.8c0-.8-.8-1.8-1.8-3.7l-9.9-17.2c-.8-1.8-1.8-3.7-2.6-5.5v-4.4c0-1 .8-1.8 1.8-3.7.8-1 2.6-1.8 4.4-3.7 2.6-1 4.4-1.8 5.5-1.8 1.8-.8 3.7-.8 4.4-.8 1.8.8 3.7 1.6 4.7 3.4 1.8 1 3.7 3.7 5.5 7.3l9.9 16.4c1.8 1.8 2.6 3.7 3.7 5.5v4.4c0 1-1 2.9-1.8 3.7-1 1-1.8 1.8-3.7 2.9 0 .8-1 .8-1.8 1.8l-6.3-11c2.6-1 2.6-2.9 1.8-5.5l-8.3-11.7c-.8-1.8-1.8-2.9-1.8-2.9-.8-.8-.8-1.8-1.8-1.8-.8 0-1.8 0-1.8 1-1.8.8-1.8 1.8-1.8 2.6 0 1 0 1.8 1 3.7l11 17.2c.8 1.8 1.8 3.7 1.8 5.5.8 1.8.8 3.7.8 4.7-.8 1.8-1.8 2.6-2.6 4.4-1 1-2.9 1.8-4.7 3.7-1.8.8-2.6 1.8-4.4 1.8-1 0-1.8.8-3.7.8-1 0-1.8-.8-3.7-.8 0-1-1.8-1.8-1.8-1.8-1.8-1.8-1.8-2.6-3.7-3.7-.8-.8-1.8-2.6-2.6-4.4l-9.1-14.6c-1.8-2.9-2.9-5.5-3.7-7.3-1-1.8-1.8-3.7-1.8-5.5 0-.8.8-2.6 1.8-3.7.8-.8 1.8-2.6 3.7-3.7.8.1 1.8-.7 2.6-1.7zm25.6 106.4-1-12.8h1.8l30-1.8-1.8-17.2 10.2-1 .8 18.3L459 281h-9.1l-1.8-17.5-1.8 1-29 1.9zm18 73.6 1-2.6 7.3-28.2-6.5-1.8v1.8l-8.1 27.1-7.3-1.8v-1.8l7.3-27.1-6.3-1.8-1 3.7-8.1 27.1-9.1-1.8 4.4-16.4 7.3-27.1 12 3.7 28.2 7.3-4.7 15.4-7.3 27.1-9.1-2.8zm-23.5 6.3-7.3 10.2h-.8c-1-1-1.8-1.8-2.9-1.8 0 0-.8.8-1.8.8 0 1-.8 1.8-1.8 2.9l-9.9 12.5c-1 1-1 1.8-1 2.9 0 .8 0 1.8 1 2.6.8 1 1.8 1 2.6 1 1 0 1-1 1.8-1 1-.8 1.8-1.8 2.9-2.6l11.7-15.4c1.8-1.8 2.6-3.7 4.4-4.7 1-.8 2.9-1.8 3.7-1.8 1.8 0 2.9 0 4.7 1 1.8 0 2.6 1.8 5.5 2.6 1.8 1.8 2.6 2.9 3.7 4.7.8.8 1.8 2.6 1.8 3.7 0 1.8 0 3.7-1 5.2-.8 2.9-2.6 4.7-4.4 8.3l-12 15.4c-1.8 1.8-2.6 2.9-4.4 3.7-1 1.8-1.8 1.8-3.7 2.6h-4.4c-1-.8-2.9-1.8-4.7-2.6 0 0-.8-.8-.8-1.8l6.3-9.1h1c1.8 1.8 3.4 1 5.2-.8l9.1-12c0-.8 1-1.8 1.8-2.6v-1.8c0-.8-.8-.8-.8-1.8-1-.8-2.9-.8-2.9-.8-.8 0-1.8.8-3.7 2.6l-12.5 16.4c-1 1.8-2.9 2.6-3.7 3.7-1.8 1.8-3.7 1.8-4.7 1.8-1.8.8-2.6 0-4.4 0-1.8-1-3.7-1.8-5.5-3.7-1-1-2.9-1.8-3.7-2.9-.8-.8-.8-1.8-1.8-3.7v-3.7c0-.8 0-1.8 1-2.6 0-1 .8-2.9 1.6-3.7 1-1.8 1.8-2.6 3.7-4.4l10.2-13.8c1.8-2.6 3.7-4.4 5.5-6.3.8-1 2.6-2.9 3.7-2.9 1.8-.8 2.6-.8 4.4-.8 1.8.8 3.7.8 4.4 2.6 1.1 0 1.9 1.1 2.9 1.9zM208.3 451.6l-7-2.9.3-1.3 6.8-17.2-10.2 2.6-2.1-6.5 13.3-2.6 8.3 3.4-2.6 7-6.8 17.5zm54-8.8-1 10.2c0 1.6-.3 3.1-.8 4.2-.3 1-1.3 1.6-2.3 2.3-1 .5-2.3.8-4.2 1-1.6 0-3.7 0-6-.3l-7.3-.5c-2.3 0-4.2-.3-5.5-1-1.3-.5-2.3-1.3-2.9-2.3-.8-1-.8-2.3-.8-3.7 0-.5 0-1 .3-1.6l7 .5c0 .8.3 1.3.8 2.1.5.3 1.3.5 2.6.8l7.3.3c1.6.3 2.6-.3 3.4-.5.5-.5 1-1.3 1-2.6l.3-2.9c-.5.3-1 .8-1.6.8-.5.5-1.3.8-2.1.5-.8.3-1.6.3-2.9 0l-5.7-.5c-1.6 0-3.1 0-4.2-.3-1.3-.3-2.3-.8-3.1-1.3-.8-.5-1.3-1.3-1.8-1.8-.3-.8-.3-1.8-.3-2.9l.3-5.2c.3-1.8 1-3.4 2.1-3.9 1.8-1 3.7-1.3 6.3-1l11.7.8c1.8 0 3.1.3 4.2.5 1.3.8 2.3 1 3.1 1.8.8 1 1 1.8 1.6 2.9.5 1 .5 2.3.5 3.6zm-10.9-3.4-7.3-.5c-1.3-.3-2.1 0-2.9.5-.8.5-1 1-1 2.1 0 .5.3 1 .3 1.6.3.5.5.5 1 .8.5 0 1.3.5 2.1.5l7.6.3c1 .3 2.1 0 2.6-.3.5-.5.8-1 1-1.8 0-1-.3-1.8-.8-2.3-.5-.7-1.3-.9-2.6-.9zm25.3 14.1 7.3-1v.3c.3.5.5 1 .5 1 .5.5 1 .5 1.6.8h2.3l8.1-1c1-.3 1.8-.5 2.3-.8.3-.8.8-1.3.5-2.3l-.3-1.8c0-.8-.3-1-1-1.3-.8-.5-1.8-.5-3.1-.3l-8.3 1c-1 0-1.3.3-1.8.5-.3.3-.5.5-.5 1l-6.8 1-2.1-15.9 9.9-1.3 18.3-2.1.8 5.5-3.1.5-18.5 2.1.8 5c.5-.8 1.3-1 2.3-1.6.8-.3 2.1-.5 3.9-.8l7-1c2.1-.3 3.9-.3 5.2 0 1.3.5 2.3 1 2.9 1.8 1 .8 1.3 2.1 1.6 3.7l.5 4.2c.3 1.3 0 2.3 0 3.4-.5.8-1 1.8-1.8 2.3-.5.5-1.6 1.3-2.9 1.6-1.3.5-2.9.8-4.4.8l-9.1 1.3c-2.1.3-3.9.3-5 .3-1.6 0-2.6-.3-3.7-.5-.8-.5-1.6-1-2.1-2.1-.5-.8-.8-2.1-1-3.1-.1-.7-.1-1-.3-1.2zm43.8-7.1 6.8-2.3v.3c.3.5.8.8 1 1h1.6c.5 0 1.6-.3 2.1-.5l7.6-2.9c1-.5 1.8-.8 2.1-1.6.3-.5.5-1 0-2.1l-.5-1.6c-.3-.8-.8-1.3-1.6-1.3-.8-.3-1.8 0-2.9.5l-8.3 3.1c-.5.3-1 .5-1 1-.5.3-.5.5-.5 1.3l-6.5 2.3-5.7-14.9 9.4-3.7 17.2-6.5 2.1 5.2-2.9 1-17.2 6.5 1.6 4.7c.5-.8 1-1.3 1.8-2.1 1-.5 2.1-1 3.7-1.8l6.8-2.3c1.8-.8 3.7-1.3 5-1.3 1.6-.3 2.6.5 3.4.8 1.3.8 1.8 1.8 2.3 3.1l1.6 4.2c.5 1 .5 2.1.5 3.4 0 .8-.3 1.8-1 2.3-.5 1-1.3 1.8-2.3 2.3-1 .5-2.6 1.6-4.2 2.1l-8.6 3.4c-2.1.8-3.7 1.3-5 1.3-1.3.5-2.3.5-3.4.3-1 0-1.8-.5-2.6-1.3-.5-.5-1.3-1.6-1.6-2.9-.5-.2-.8-.7-.8-1z"/></svg>