<svg xmlns="http://www.w3.org/2000/svg" viewBox="0 0 179.5 178.8" style="enable-background:new 0 0 179.5 178.8" xml:space="preserve"><path d="M173 55.6c-9.1 11.7-18.1 23.4-27.1 35.1-10.7 12.7-17.9 27.7-31.2 38.4-3.2 1.3-6.1 3.9-9.4 4.1 7.8-11.1 16.2-21.3 24.5-32.2v-3.8c13.1-16.9 26-33.9 38.6-50.9-2.1-3.7-4.3-7.6-7.2-10.8-10.6 13.9-21.1 28.1-32.6 41.5-1.5-2.9-2.9-5.8-4.3-8.6 9.6-13.7 21-26.7 31.2-40.1-3-3-5.9-6-9.2-8.2-10.1 13-20.2 26.2-30.4 38.9l-6.8-5.5 30.3-38.7c-3.3-2.5-7.1-4-10.6-6L97.4 48.9c-3.3-.7-6.9-.6-10.3-.9l32.8-42.8c-3.9-1.4-8.1-2.9-12.2-3.3-13.2 16.9-27 33.9-39.4 51.3l-3.8 1.2C57 63.5 50.3 73.2 42.7 82c.8-15.7 14.2-26.8 22.5-39.8L98.1.4c-20.3-1.9-39 3-55.2 12.5C11.9 32.3-3.6 65.3.7 101.5 3.8 133 29.9 164.7 60.4 174c35.5 11.7 74.2 1.5 98.4-27.4 20.6-23.8 26.7-61.5 14.2-91zM41.5 89.7c9.1-11 16.7-22.6 25.9-33.6 4.5-2.2 9-4.5 14.4-4.5C69.2 68.4 56.2 85 43.4 101.7c-2.5-3-2.3-7.8-1.9-12zm12.9 32.7c-2.6-1.3-4.7-4-6-6.5l18.5-25 30-38.9c3.2.3 6.3 1 8.6 3.4l-.7 1.4-50.4 65.6zm10.1 8.6c6-9.7 13.3-18.8 20.4-28.1 9.8-13.8 20.6-27.2 31-40.8 2.2 2.3 3.6 5.4 5.7 7.9-6.4 9.1-13.4 18-20.1 26.9-10.3 12.3-18.9 25.3-28.8 37.7-3.2-.2-5.5-2.4-8.2-3.6zm20.6 6 33.4-43.9 8.4-10.1.5.7c.3 4.2.5 9-.3 13L96.2 137c-3.7 0-7.5 1.1-11.1 0z" style="fill:#3b348c"/></svg>