<svg version="1.1" id="Calque_1" xmlns="http://www.w3.org/2000/svg" x="0" y="0" viewBox="0 0 180 70" style="enable-background:new 0 0 180 70" xml:space="preserve"><style>.st0{fill:#2897d4}</style><g id="XMLID_3_"><path id="XMLID_6_" class="st0" d="M95.5 19.4c-.2.2-.3.4-.5.5-.7.6-1.6 1.1-2.6 1.5-1 .4-2 .7-3.1 1-1.1.2-2.2.4-3.2.4-1.1 0-2.1-.1-3-.3-.6-.1-1.2-.4-1.8-.7-.6-.3-1-.7-1.4-1.1-.4-.4-.7-1-.9-1.6-.2-.6-.2-1.2 0-1.9.1-.2.2-.5.3-.7.2-.2.4-.3.7-.2.3.1.4.2.5.4s0 .4-.1.7c-.1.5-.1 1 .1 1.4.2.4.4.8.7 1.1.3.3.7.6 1.1.8.4.2.9.4 1.4.5.7.2 1.5.2 2.5.2.9 0 1.8-.1 2.8-.3.9-.2 1.8-.4 2.7-.7.9-.3 1.6-.7 2.2-1.2l.3-.3c.1-.1.2-.2.2-.4.1-.3 0-.5-.1-.7-.1-.2-.3-.4-.5-.6-.2-.2-.5-.3-.7-.4-.3-.1-.5-.2-.7-.3-.9-.3-1.8-.6-2.6-.9-.9-.2-1.8-.5-2.7-.8-.9-.3-1.8-.6-2.6-.9-.8-.4-1.6-.8-2.4-1.4-.2-.1-.4-.3-.6-.5-.2-.2-.4-.4-.6-.7-.2-.2-.3-.5-.4-.7-.1-.3-.1-.5 0-.8.1-.5.4-.9.8-1.2.5-.3 1-.5 1.7-.7.7-.2 1.4-.2 2.1-.3h2.3c.7 0 1.4.1 2.1.2.6.1 1.1.2 1.5.3.4.1 1 .2 1.7.5.7.2 1.4.5 2.1.9.7.3 1.2.8 1.7 1.2.4.5.6 1 .5 1.5 0 .2-.1.3-.2.5l-.4.4c-.1.1-.3.2-.5.3-.2.1-.4.1-.5 0-.2 0-.3-.1-.5-.3-.1-.1-.2-.3-.1-.5 0-.2.1-.3.3-.4.1-.1.3-.2.4-.3-.2-.3-.4-.6-.8-.9-.4-.3-.8-.5-1.3-.7-.5-.2-1-.4-1.5-.5-.5-.2-.9-.3-1.2-.3-.5-.1-1.1-.2-1.8-.3-.6-.1-1.3-.1-2-.1s-1.3 0-2 .1c-.6.1-1.2.2-1.7.3-.2.1-.4.1-.6.2-.2.1-.3.3-.4.5-.1.3.1.6.5 1s.8.7 1.3 1c.5.3 1 .6 1.6.8.5.2.9.4 1.2.5.9.3 1.8.6 2.7.8.9.2 1.8.5 2.8.7.4.1.8.3 1.3.5s1 .4 1.4.7c.4.3.8.6 1.1 1 .3.4.3.9.2 1.4-.6.4-.7.6-.8.8z"/><path id="XMLID_8_" class="st0" d="M105.8 22.4c-.1.4-.4.8-.6 1.2-.3.4-.6.7-1 1-.4.3-.8.5-1.2.6s-.9.2-1.3.1-.7-.3-1-.6c-.3-.3-.5-.6-.6-1-.4.4-.9.8-1.4 1-.6.3-1.1.4-1.7.2-.6-.1-1.1-.5-1.5-1-.3-.5-.4-1.1-.3-1.7.1-.5.4-1 .8-1.6.4-.6.9-1 1.4-1.5s1.1-.8 1.7-1c.6-.2 1.2-.3 1.7-.2.3.1.6.2.9.5s.4.6.3.9c0 .1-.1.3-.2.4.1.1.1.3.1.5-.1.2-.1.5-.2.7-.1.2-.2.5-.2.7 0 .2-.1.4-.1.7v.7c0 .2.1.5.2.7.1.2.3.3.5.4.3.1.6 0 .8-.1.2-.1.5-.3.7-.4l.6-.6c.2-.2.3-.5.5-.7.2-.2.3-.4.5-.5.2-.1.3-.2.5-.1.2 0 .3.1.3.3.1.1.1.3 0 .4h-.2zm-5.7-3.2c-.3-.1-.7 0-1.1.2-.4.2-.8.5-1.2.8-.4.3-.7.7-1 1.1-.3.4-.4.7-.5 1-.1.3 0 .6.1.8s.4.4.7.5c.3.1.6 0 .9-.1.3-.1.6-.3.8-.5s.5-.5.7-.8c.2-.3.3-.6.4-.8 0-.1 0-.3.1-.4 0-.1 0-.3.1-.4 0-.2.1-.4.2-.6.1-.2.2-.4.4-.5-.2-.2-.4-.3-.6-.3z"/><path id="XMLID_11_" class="st0" d="M113 24.6c-.2.2-.5.4-.8.5l-.9.3h-.8c-.5-.1-.9-.3-1.2-.6-.2.3-.4.5-.6.8-.2.2-.5.5-.8.6s-.6.3-.9.4c-.3.1-.7.1-1 0-.4-.1-.7-.2-1-.5s-.4-.5-.6-.8c-.1-.3-.2-.6-.2-1s0-.7.1-1.1c0-.2.2-.5.3-1 .2-.4.4-.9.6-1.3.2-.4.5-.8.8-1.1.3-.3.6-.4.9-.3.2 0 .3.1.4.3.1.2.1.3.1.5 0 .1-.1.2-.3.4-.2.2-.3.5-.5.7l-.6.9c-.2.3-.3.7-.4 1 0 .2-.1.3-.1.5s0 .4.1.6c0 .2.1.3.2.5.1.1.2.2.4.3.2 0 .3 0 .6-.1.2-.1.4-.2.7-.4s.4-.4.6-.6c.2-.2.3-.4.3-.5 0-.1 0-.4-.1-.7-.1-.4-.1-.7 0-1.1 0-.2.1-.3.1-.5.1-.2.1-.3.2-.4s.2-.2.4-.3c.1-.1.3-.1.5 0 .2 0 .4.2.5.3.1.2.2.3.2.5v.6c0 .2 0 .4-.1.6-.1.3-.2.6-.3.8.1.2.2.3.4.4.2.1.3.2.5.2.3.1.5 0 .7 0 .2-.1.4-.2.5-.3l.4-.4c.1-.1.3-.1.4-.1.4.1.5.3.4.6.3.4.1.6-.1.8z"/><path id="XMLID_13_" class="st0" d="M119.2 25.5c-.3.3-.6.6-1 .9s-.8.5-1.2.7c-.4.2-.9.3-1.3.4-.5.1-.9.1-1.3 0s-.8-.3-1.1-.5c-.3-.3-.5-.5-.7-.9-.2-.3-.3-.7-.3-1.1 0-.4 0-.8.1-1.2.1-.4.3-.9.5-1.3s.5-.8.9-1.2c.3-.3.7-.6 1.2-.8.4-.2.9-.2 1.4-.1.4.1.8.3.9.7.2.3.2.7.1 1.2-.1.4-.3.7-.5 1.1-.3.3-.6.6-.9.8-.3.2-.7.4-1.1.5-.4.1-.8.1-1.2.1 0 .4.1.8.3 1 .2.3.5.5.9.5.4.1.7.1 1 0l.9-.3c.3-.2.6-.3.9-.6.3-.2.5-.4.8-.6.1-.1.2-.1.2-.2h.3c.2 0 .3.1.3.2s.1.3.1.4c-.1.1-.2.2-.2.3zm-3.3-3.6c0-.2-.1-.3-.2-.3-.2 0-.4 0-.6.1-.2.1-.4.3-.6.4-.2.2-.3.4-.4.6l-.3.6c.1.1.2.1.3.1h.5c.2 0 .4-.1.6-.2s.3-.2.5-.4c.1-.1.2-.3.3-.5 0-.1 0-.2-.1-.4z"/><path id="XMLID_16_" class="st0" d="M130.3 19.8c-.2.5-.4 1-.5 1.6-.3 1-.7 2.1-1 3.2-.3 1.1-.6 2.1-.8 3.2l-.1.4c0 .2-.1.3-.1.6 0 .2-.1.4-.1.7v.7c0 .2 0 .4.1.6 0 .1.1.2.1.3v.3c0 .2-.2.4-.3.5-.2.1-.4.2-.6.1-.3-.1-.5-.3-.6-.6-.1-.3-.1-.7-.1-1.2 0-.4.1-.9.1-1.3.1-.4.1-.7.2-1 .3-1.4.6-2.7 1-4l1.2-3.9c-.1.1-.2.2-.4.3-.1.1-.3.1-.4.1-.2 0-.4-.2-.5-.4-.1-.2-.1-.4-.1-.6 0-.1.2-.3.4-.6s.5-.5.8-.7l.9-.6c.3-.1.5-.2.7-.2.3.1.4.2.5.4.1.2.1.4 0 .7 0 .3-.2.9-.4 1.4z"/><path id="XMLID_18_" class="st0" d="M141.7 30.1c-.5.8-1.1 1.4-1.8 1.9s-1.5.9-2.4 1.1c-.9.2-1.8.2-2.8 0-.8-.2-1.4-.5-2-1s-1.1-1.1-1.4-1.8c-.4-.7-.6-1.4-.7-2.2-.1-.8-.1-1.5 0-2.3.2-1 .6-1.9 1.1-2.7.5-.9 1.2-1.6 1.9-2.2s1.6-1 2.5-1.3c.9-.3 1.9-.3 3-.1.9.2 1.7.6 2.3 1.1.6.5 1 1.2 1.3 1.9.3.7.4 1.5.4 2.4 0 .9-.1 1.7-.3 2.5-.2 1.1-.6 1.9-1.1 2.7zm-.1-4.7c0-.7-.1-1.3-.3-2-.2-.6-.6-1.1-1-1.6-.5-.5-1-.8-1.8-.9-.8-.2-1.5-.1-2.3.1s-1.4.6-2 1.1c-.6.5-1.1 1.1-1.5 1.8-.4.7-.7 1.4-.9 2.1-.1.6-.1 1.2 0 1.8.1.6.3 1.2.6 1.8.3.6.7 1.1 1.2 1.5.5.4 1 .7 1.6.8.8.2 1.5.2 2.2 0 .7-.2 1.3-.5 1.8-.9s1-.9 1.4-1.6c.4-.6.6-1.3.8-2.1.2-.6.2-1.2.2-1.9z"/><path id="XMLID_21_" class="st0" d="m153.5 27.1-.9 1.2c-.3.4-.7.7-1.1 1.1-.4.3-.7.7-1 .9-.2.2-.5.5-.8.9-.4.4-.7.8-1.1 1.2-.4.4-.7.8-.9 1.2-.3.4-.4.7-.5 1 0 .1 0 .2.1.3l.2.2c.1.1.2.1.2.2.1.1.1.2 0 .4s-.2.4-.4.5c-.2.1-.4.1-.6.1-.2 0-.4-.1-.5-.3-.1-.1-.2-.3-.3-.5-.1-.2-.1-.4-.1-.6 0-.2 0-.4.1-.6.1-.5.4-1 .7-1.6.4-.5.8-1 1.3-1.6l1.5-1.5c.5-.5 1-1 1.5-1.4.5-.5.9-.9 1.2-1.3.3-.4.5-.8.6-1.2.1-.4 0-.6-.2-.8-.2-.2-.5-.3-.8-.4-.3-.1-.7-.2-1-.2-.4 0-.6-.1-.8-.2-.1.3-.3.6-.6 1s-.6.7-1 1c-.4.3-.7.5-1.1.7-.4.2-.8.2-1.1.1-.4-.1-.6-.3-.8-.6s-.1-.7-.1-1c.1-.4.3-.8.5-1.3.3-.5.6-.9 1-1.3s.8-.7 1.3-.9c.4-.2.9-.3 1.3-.2.7.2 1.1.6 1.1 1.3l.2.1c.1 0 .2.1.4.1.1 0 .3.1.4.1h.2c.4.1.8.2 1.1.3.4.1.7.3.9.5.3.2.4.5.6.8.1.3.1.7 0 1.2-.2.3-.4.7-.7 1.1zm-4.9-3.8c0-.1 0-.1-.1-.1s-.3 0-.5.2l-.6.6c-.2.2-.4.5-.6.7s-.3.4-.3.6v.2h.1c.2 0 .3 0 .6-.2.2-.1.4-.3.6-.5.2-.2.4-.4.5-.7.2-.2.2-.4.3-.6-.1-.1 0-.2 0-.2zm6.2 11.2c-.3.4-.6.7-1 1s-.8.5-1.3.6c-.5.1-.9.1-1.4 0-.5-.1-.8-.3-1-.7-.2-.3-.3-.7-.1-1.2.1-.4.3-.8.5-1.2s.6-.7 1-1 .8-.5 1.2-.6c.4-.1.9-.2 1.3-.1.5.1.9.3 1.2.7.3.3.4.8.3 1.3-.3.4-.4.8-.7 1.2zm-1.5-1.9c-.2 0-.4 0-.6.1-.2.1-.4.3-.6.4-.2.2-.3.4-.4.6-.1.2-.2.4-.2.6v.4c0 .1.1.2.3.3.2 0 .4 0 .7-.1s.4-.2.6-.4c.2-.2.4-.3.5-.6l.3-.6c-.1-.4-.2-.7-.6-.7z"/></g><path id="XMLID_26_" d="M110.8 32S122 53.7 95.1 62.1" style="fill:none;stroke:#2897d4;stroke-miterlimit:10"/></svg>