<svg version="1.1" id="Calque_1" xmlns="http://www.w3.org/2000/svg" x="0" y="0" viewBox="0 0 450 450" style="enable-background:new 0 0 450 450" xml:space="preserve"><style>.st0{stroke:#c0d7f1;stroke-width:2;stroke-miterlimit:10}.st0,.st1{fill:#fff}.st1,.st2{stroke-width:2;stroke-miterlimit:10}.st1,.st2{stroke:#0b82c5}.st2{fill:none;stroke-linecap:round}</style><path id="XMLID_22_" class="st0" d="M341.4 336.3H145.3c-4.3 0-7.8-3.5-7.8-7.8v-141c0-4.3 3.5-7.8 7.8-7.8h196.1c4.3 0 7.8 3.5 7.8 7.8v140.9c0 4.4-3.5 7.9-7.8 7.9z"/><path id="XMLID_27_" class="st0" d="M157.7 267.5h82.9"/><path id="XMLID_28_" class="st0" d="M157.7 282.6h82.9"/><path id="XMLID_29_" class="st0" d="M157.7 297.6h82.9"/><path id="XMLID_25_" class="st0" d="M211.7 215.5h105.2"/><path id="XMLID_26_" class="st0" d="M211.7 231.7h105.2"/><g id="XMLID_21_"><g id="XMLID_10_"><path id="XMLID_1_" class="st1" d="M371 317.7H250.3c-7.3 0-13.3-5.9-13.3-13.3V133.3c0-7.3 5.9-13.3 13.3-13.3h107.5c7.3 0 13.3 5.9 13.3 13.3v184.4z"/><path id="XMLID_3_" class="st1" d="M237 171.4h134"/><circle id="XMLID_2_" class="st1" cx="304" cy="145.8" r="13.3"/><g id="XMLID_9_"><circle id="XMLID_5_" class="st1" cx="263.2" cy="194.7" r="9.9"/><path id="XMLID_6_" class="st1" d="M280.6 194.7h72.7"/></g><g id="XMLID_4_"><circle id="XMLID_8_" class="st1" cx="343.4" cy="225.3" r="9.9"/><path id="XMLID_7_" class="st1" d="M326 225.3h-72.6"/></g><g id="XMLID_14_"><circle id="XMLID_16_" class="st1" cx="263.2" cy="251.9" r="9.9"/><path id="XMLID_15_" class="st1" d="M280.6 251.9h72.7"/></g><g id="XMLID_11_"><circle id="XMLID_13_" class="st1" cx="343.4" cy="282.6" r="9.9"/><path id="XMLID_12_" class="st1" d="M326 282.6h-72.6"/></g></g><path id="XMLID_17_" class="st1" d="M386.7 319.2v-15.8h15.8c7.1 0 12.8 5.7 12.8 12.8v3c0 7.1-5.7 12.8-12.8 12.8h-3c-7.1 0-12.8-5.7-12.8-12.8z"/><g id="XMLID_20_"><path id="XMLID_19_" class="st2" d="m404.9 313-7.7 7.7"/><path id="XMLID_18_" class="st2" d="m404.9 320.7-7.7-7.7"/></g></g><path id="XMLID_23_" class="st0" d="M157.7 204.6h41.2v41.2h-41.2z"/></svg>