<svg version="1.1" id="Calque_1" xmlns="http://www.w3.org/2000/svg" x="0" y="0" viewBox="0 0 450 450" style="enable-background:new 0 0 450 450" xml:space="preserve"><style>.st0,.st1{fill:#fff;stroke:#c0d7f1;stroke-width:2;stroke-miterlimit:10}.st1{stroke:#0d82c5}</style><path id="XMLID_1_" class="st0" d="M400.1 350.8H89.4c-1.8 0-3.2-1.4-3.2-3.2V134.2c0-1.8 1.4-3.2 3.2-3.2H400c1.8 0 3.2 1.4 3.2 3.2v213.4c.1 1.8-1.4 3.2-3.1 3.2z"/><path id="XMLID_3_" class="st0" d="M86.2 152.4h317.1"/><circle id="XMLID_2_" class="st0" cx="104.4" cy="141.9" r="3.1"/><circle id="XMLID_5_" class="st0" cx="115.9" cy="141.9" r="3.1"/><circle id="XMLID_6_" class="st0" cx="127.4" cy="141.9" r="3.1"/><path id="XMLID_7_" class="st0" d="M157.8 152.4v198.4"/><path id="XMLID_8_" class="st0" d="M306.1 152.4v198.4"/><circle id="XMLID_13_" class="st0" cx="357.3" cy="209.2" r="18.1"/><path id="XMLID_15_" class="st0" d="M336.7 240.9H381"/><path id="XMLID_16_" class="st0" d="M347.4 251.6h22.9"/><g id="XMLID_17_"><circle id="XMLID_14_" class="st0" cx="184.5" cy="186" r="9.4"/><path id="XMLID_18_" class="st0" d="M203.6 182.7H275"/><path id="XMLID_19_" class="st0" d="M203.6 191.1h49.5"/></g><g id="XMLID_21_"><circle id="XMLID_24_" class="st0" cx="265.6" cy="220.7" r="9.4"/><path id="XMLID_23_" class="st0" d="M246.4 224h-71.3"/><path id="XMLID_22_" class="st0" d="M246.4 215.6H197"/></g><g id="XMLID_29_"><circle id="XMLID_32_" class="st0" cx="184.5" cy="254.8" r="9.4"/><path id="XMLID_31_" class="st0" d="M203.6 251.5H275"/><path id="XMLID_30_" class="st0" d="M203.6 259.9h49.5"/></g><g id="XMLID_25_"><circle id="XMLID_28_" class="st0" cx="265.6" cy="289.5" r="9.4"/><path id="XMLID_27_" class="st0" d="M246.4 292.8h-71.3"/><path id="XMLID_26_" class="st0" d="M246.4 284.4H197"/></g><g id="XMLID_45_"><path id="XMLID_33_" class="st1" d="M174.6 382H59.9c-2.3 0-4.2-1.9-4.2-4.2V260.4c0-2.3 1.9-4.2 4.2-4.2h114.7c2.3 0 4.2 1.9 4.2 4.2v117.3c0 2.4-1.9 4.3-4.2 4.3z"/><circle id="XMLID_34_" class="st1" cx="116.3" cy="283.6" r="13.9"/><path id="XMLID_36_" class="st1" d="M82.8 314.5h69.3"/><path id="XMLID_37_" class="st1" d="M97.8 324.6h40.4"/><path id="XMLID_35_" class="st1" d="M127.6 367.9H105c-4 0-7.3-3.3-7.3-7.3s3.3-7.3 7.3-7.3h22.6c4 0 7.3 3.3 7.3 7.3s-3.3 7.3-7.3 7.3z"/></g><g id="XMLID_39_"><path id="XMLID_43_" class="st1" d="M336.4 184.5H221.7c-2.3 0-4.2-1.9-4.2-4.2V62.9c0-2.3 1.9-4.2 4.2-4.2h114.7c2.3 0 4.2 1.9 4.2 4.2v117.3c0 2.4-1.9 4.3-4.2 4.3z"/><path id="XMLID_41_" class="st1" d="M244.6 127.1h69.3"/><path id="XMLID_40_" class="st1" d="M244.8 137.1h55.1"/><path id="XMLID_44_" class="st1" d="M244.6 147.4h69.3"/><path id="XMLID_42_" class="st1" d="M244.6 157.5H285"/><path id="XMLID_38_" class="st1" d="M266 101h34.6c.3 0 .5-.2.5-.5V74.9c0-.3-.2-.5-.5-.5H259c-.3 0-.5.2-.5.5v32.4c0 .5.6.7.9.4l6.2-6.5c.1-.1.2-.2.4-.2z"/></g></svg>