<svg version="1.1" id="Calque_1" xmlns="http://www.w3.org/2000/svg" xmlns:xlink="http://www.w3.org/1999/xlink" x="0" y="0" viewBox="360 -290 900 650" style="enable-background:new 360 -290 900 650" xml:space="preserve"><style>.st0{clip-path:url(#SVGID_2_)}.st1{fill:#fff}.st2{fill:#0178b2}.st3{fill:#2f88bc}.st4{fill:#91501c}.st6{fill:#b16827}.st7{fill:#c2eefc}.st8{opacity:.25;fill:#5d5d5d}.st9{fill:#fbebba}.st10{fill:#cabc9c}.st11{fill:#8f8676}.st17{fill:#a2e04d}.st18{fill:#357315}.st19{fill:#5ecc2e}.st21{fill:#85361f}.st22{fill:#ff7d43}.st23{fill:#46d1fa}.st25{fill:#efc73e}.st27{fill:#d85d00}.st28{fill:#ff7b00}.st30{fill:#a14407}.st31{fill:#242221}.st32{fill:#5d2e07}.st33{fill:#00a615}</style><defs><path id="SVGID_1_" d="M360-191h900v551H360z"/></defs><clipPath id="SVGID_2_"><use xlink:href="#SVGID_1_" style="overflow:visible"/></clipPath><g id="XMLID_640_" class="st0"><g id="XMLID_644_"><path id="XMLID_648_" class="st1" d="m509.6-49-1.8-.8.5-1.9c3.2-13.4-4.8-23.8-14.2-28.2-6.2-2.8-13.1-3.3-19.4-1.2-5.6 1.9-10.5 5.5-14.4 10.9l-1.2 1.7-1.8-1c-2.9-1.6-6.2-2.5-9.4-2.5-3 0-5.9.7-8.5 2.2-2.2 1.2-9.2 6-8.6 16.8l.1 1.9-1.8.5c-12.6 3.7-17.6 14.5-17 23.5.7 10 8.6 20.8 24.2 20.8 25.6 0 67.8-.1 68.6-.1 10.1 0 18.5-7.5 20.1-17.8 1.3-8.2-2.1-19-15.4-24.8z"/><path id="XMLID_645_" class="st1" d="M513.3-52.5c2.6-15.1-6.9-26.9-17.2-31.7-7.3-3.4-15.4-3.8-22.9-1.4-5.9 2-11.2 5.8-15.5 11-6.7-3-14.5-2.8-20.7.6-6.9 3.8-11 11-11.1 19.4-13.9 4.9-19.4 17.4-18.6 27.8.9 12.1 10.3 25.2 29 25.2 25.6 0 67.8-.1 68.6-.1 12.4 0 22.8-9.2 24.8-21.9 1.4-9-2.1-21.8-16.4-28.9zM525-24.3C523.4-14 515-6.5 504.9-6.5c-.8 0-43 .1-68.6.1-15.6 0-23.5-10.8-24.2-20.8-.7-9 4.3-19.8 17-23.5l1.8-.5-.1-1.9c-.6-10.8 6.5-15.6 8.6-16.8 2.6-1.4 5.5-2.2 8.5-2.2 3.2 0 6.5.9 9.4 2.5l1.8 1 1.2-1.7c3.9-5.4 8.7-9 14.4-10.9 6.3-2.1 13.3-1.7 19.4 1.2 9.4 4.3 17.4 14.7 14.2 28.2l-.5 1.9 1.8.8c13.3 5.9 16.7 16.7 15.4 24.8z"/></g><path id="XMLID_641_" class="st1" d="M447.8-72c-3 0-5.9.7-8.5 2.2-2.2 1.2-9.2 6-8.6 16.8l.1 1.9-1.8.5c-12.6 3.7-17.6 14.5-17 23.5.7 10 8.6 20.8 24.2 20.8 25.6 0 67.8-.1 68.6-.1 10.1 0 18.5-7.5 20.1-17.8 1.3-8.1-2.1-18.9-15.4-24.7l-1.8-.8.5-1.9c3.2-13.4-4.8-23.8-14.2-28.2-6.2-2.8-13.1-3.3-19.4-1.2-5.6 1.9-10.5 5.5-14.4 10.9l-1.2 1.7-1.8-1c-2.9-1.7-6.1-2.6-9.4-2.6z"/></g><g id="XMLID_631_" class="st0"><g id="XMLID_635_"><path id="XMLID_639_" class="st1" d="m856.6-129.8-1.8-.8.5-1.9c3.2-13.4-4.8-23.8-14.2-28.2-6.2-2.8-13.1-3.3-19.4-1.2-5.6 1.9-10.5 5.5-14.4 10.9l-1.2 1.7-1.8-1c-2.9-1.6-6.2-2.5-9.4-2.5-3 0-5.9.7-8.5 2.2-2.2 1.2-9.2 6-8.6 16.8l.1 1.9-1.8.5c-12.6 3.7-17.6 14.5-17 23.5.7 10 8.6 20.8 24.2 20.8 25.6 0 67.8-.1 68.6-.1 10.1 0 18.5-7.5 20.1-17.8 1.2-8.2-2.2-19-15.4-24.8z"/><path id="XMLID_636_" class="st1" d="M860.2-133.3c2.6-15.1-6.9-26.9-17.2-31.7-7.3-3.4-15.4-3.8-22.9-1.4-5.9 2-11.2 5.8-15.5 11-6.7-3-14.5-2.8-20.7.6-6.9 3.8-11 11-11.1 19.4-13.9 4.9-19.4 17.4-18.6 27.8.9 12.1 10.3 25.2 29 25.2 25.6 0 67.8-.1 68.6-.1 12.4 0 22.8-9.2 24.8-21.9 1.4-9-2.1-21.8-16.4-28.9zm11.8 28.2c-1.6 10.3-10 17.8-20.1 17.8-.8 0-43 .1-68.6.1-15.6 0-23.5-10.8-24.2-20.8-.7-9 4.3-19.8 17-23.5l1.8-.5-.1-1.9c-.6-10.8 6.5-15.6 8.6-16.8 2.6-1.4 5.5-2.2 8.5-2.2 3.2 0 6.5.9 9.4 2.5l1.8 1 1.2-1.7c3.9-5.4 8.7-9 14.4-10.9 6.3-2.1 13.3-1.7 19.4 1.2 9.4 4.3 17.4 14.7 14.2 28.2l-.5 1.9 1.8.8c13.2 5.9 16.6 16.7 15.4 24.8z"/></g><path id="XMLID_632_" class="st1" d="M794.8-152.8c-3 0-5.9.7-8.5 2.2-2.2 1.2-9.2 6-8.6 16.8l.1 1.9-1.8.5c-12.6 3.7-17.6 14.5-17 23.5.7 10 8.6 20.8 24.2 20.8 25.6 0 67.8-.1 68.6-.1 10.1 0 18.5-7.5 20.1-17.8 1.3-8.1-2.1-18.9-15.4-24.7l-1.8-.8.5-1.9c3.2-13.4-4.8-23.8-14.2-28.2-6.2-2.8-13.1-3.3-19.4-1.2-5.6 1.9-10.5 5.5-14.4 10.9l-1.2 1.7-1.8-1c-2.9-1.7-6.2-2.6-9.4-2.6z"/></g><g id="XMLID_622_" class="st0"><g id="XMLID_626_"><path id="XMLID_630_" class="st1" d="m954.4 19.5 1.8-.8-.5-1.9c-3.2-13.4 4.8-23.8 14.2-28.2 6.2-2.8 13.1-3.3 19.4-1.2 5.6 1.9 10.5 5.5 14.4 10.9l1.2 1.7 1.8-1c2.9-1.6 6.2-2.5 9.4-2.5 3 0 5.9.7 8.5 2.2 2.2 1.2 9.2 6 8.6 16.8l-.1 1.9 1.8.5c12.6 3.7 17.6 14.5 17 23.5-.7 10-8.6 20.8-24.2 20.8-25.6 0-67.8-.1-68.6-.1-10.1 0-18.5-7.5-20.1-17.8-1.2-8.2 2.2-19 15.4-24.8z"/><path id="XMLID_627_" class="st1" d="M934.4 44.9c1.9 12.7 12.4 21.9 24.8 21.9.8 0 43 .1 68.6.1 18.6 0 28.1-13.1 29-25.2.8-10.5-4.7-22.9-18.6-27.8-.1-8.4-4.2-15.5-11.1-19.4-6.2-3.4-14-3.6-20.7-.6-4.3-5.3-9.6-9-15.5-11-7.5-2.5-15.6-2-22.9 1.4C957.7-10.9 948.2.9 950.8 16c-14.3 7.1-17.8 19.9-16.4 28.9zm20-25.4 1.8-.8-.5-1.9c-3.2-13.4 4.8-23.8 14.2-28.2 6.2-2.8 13.1-3.3 19.4-1.2 5.6 1.9 10.5 5.5 14.4 10.9l1.2 1.7 1.8-1c2.9-1.6 6.2-2.5 9.4-2.5 3 0 5.9.7 8.5 2.2 2.2 1.2 9.2 6 8.6 16.8l-.1 1.9 1.8.5c12.6 3.7 17.6 14.5 17 23.5-.7 10-8.6 20.8-24.2 20.8-25.6 0-67.8-.1-68.6-.1-10.1 0-18.5-7.5-20.1-17.8-1.2-8.2 2.2-19 15.4-24.8z"/></g><path id="XMLID_623_" class="st1" d="m1006.8-1-1.8 1-1.2-1.7c-3.9-5.4-8.7-9-14.4-10.9-6.3-2.1-13.3-1.7-19.4 1.2-9.4 4.3-17.4 14.7-14.2 28.2l.5 1.9-1.8.8c-13.2 5.8-16.6 16.6-15.4 24.7 1.6 10.3 10 17.8 20.1 17.8.8 0 43 .1 68.6.1 15.6 0 23.5-10.8 24.2-20.8.7-9-4.3-19.8-17-23.5l-1.8-.5.1-1.9c.6-10.8-6.5-15.6-8.6-16.8-2.6-1.4-5.5-2.2-8.5-2.2-3.2.1-6.5 1-9.4 2.6z"/></g><g class="st0"><path class="st2" d="M360 60.7h87.4v273.2H360zm812.6 0h87.4v273.2h-87.4zm-574 29.6H686v243.6h-87.4zm231.7 61.9h163v181.7h-163zm180.8 54.8h138.3v126.9h-138.3z"/><path class="st2" d="M1065.6 163.5h77.7v115.9h-77.7zM800.1 331.4h-87.3l1-376.7 86.3 63.2zM416.3 181.5h87.4v152.4h-87.4z"/><path class="st3" d="M546.9 213.4h87.4v120.5h-87.4z"/><path class="st2" d="M764.9 213.4h87.4v120.5h-87.4zm202.5 67.1h87.4v53.4h-87.4zm145.7-40.1h87.4V334h-87.4zm-437.3-69.1h87.4v162.6h-87.4zM572.2 333.9h-87.3V-20.9l43.7-50 43.6 50z"/><path class="st2" d="M481.1-20.3h94.5v6.8h-94.5zm0 36.8h94.5v6.8h-94.5zm0 36.7h94.5V60h-94.5zm0 36.8h94.5v6.8h-94.5zM595 89h94.5v7.6H595zm231 59.4h174.1v7.6H826zm233.4 14.7h87.8v7.6h-87.8z"/><path class="st3" d="M1109.2 136.3h33.2v7.6h-33.2z"/><path class="st2" d="M1113.1 140.1h25.7v28.4h-25.7zM1221-.1h33.2v7.6H1221z"/><path class="st2" d="M1224.9 3.7h25.7v61.9h-25.7z"/><path class="st2" d="M1221 44.4h6.6v16.3h-6.6zm24.2 0h6.6v16.3h-6.6zm-764.1 82.3h94.5v6.8h-94.5zm0 36.8h94.5v6.8h-94.5zm0 36.7h94.5v6.8h-94.5zm0 36.8h94.5v6.8h-94.5zm0 36.7h94.5v6.8h-94.5z"/><path class="st3" d="M481.1 310.5h94.5v6.8h-94.5z"/><path class="st2" d="M546.9-60.4h14.6v27.2h-14.6zm221.9 46.9h14.6v27.2h-14.6zM360 310.5h900V360H360z"/><path class="st4" d="M980.6 174.3h-99.7l99.7-52z"/><path class="st4" d="M897.2 118.2h38.7v48.6h-38.7z"/><path style="fill:#ffab44" d="M843.6 175.4h145.8V360H843.6z"/><path class="st6" d="M837.8 173.8h157.4V187H837.8zm0 51h157.4V238H837.8zm0 51h157.4V289H837.8z"/><path class="st7" d="M853.6 299.5H910v60.8h-56.4z"/><path class="st6" d="M851 296.8h4.1v63.4H851zm58.1 0h4.1v63.4h-4.1zm-28.3 0h2.1v63.4h-2.1z"/><path class="st6" d="M851 296.1h62.2v4.5H851z"/><path class="st7" d="M854.1 245.1h22.5v24.2h-22.5z"/><path class="st6" d="M853.1 244h1.6v25.3h-1.6zm23.1 0h1.6v25.3h-1.6zm-11.3 0h.8v25.3h-.8z"/><path class="st6" d="M853.1 243.7h24.8v1.8h-24.8zm0 23.9h24.8v1.8h-24.8z"/><path class="st7" d="M888.8 245.1h22.5v24.2h-22.5z"/><path class="st6" d="M887.8 244h1.6v25.3h-1.6zm23.1 0h1.6v25.3h-1.6zm-11.3 0h.8v25.3h-.8z"/><path class="st6" d="M887.8 243.7h24.8v1.8h-24.8zm0 23.9h24.8v1.8h-24.8z"/><path class="st7" d="M919.6 245.1h22.5v24.2h-22.5z"/><path class="st6" d="M918.5 244h1.6v25.3h-1.6zm23.2 0h1.6v25.3h-1.6zm-11.3 0h.8v25.3h-.8z"/><path class="st6" d="M918.5 243.7h24.8v1.8h-24.8zm0 23.9h24.8v1.8h-24.8z"/><path class="st7" d="M954.4 245.1h22.5v24.2h-22.5z"/><path class="st6" d="M953.4 244h1.6v25.3h-1.6zm23.1 0h1.6v25.3h-1.6zm-11.3 0h.8v25.3h-.8z"/><path class="st6" d="M953.4 243.7h24.8v1.8h-24.8zm0 23.9h24.8v1.8h-24.8z"/><path class="st7" d="M921 299.5h56.4v60.8H921z"/><path class="st6" d="M918.5 296.8h4.1v63.4h-4.1zm58.1 0h4.1v63.4h-4.1zm-28.4 0h2.1v63.4h-2.1z"/><path class="st6" d="M918.5 296.1h62.2v4.5h-62.2z"/><path class="st7" d="M843.6 192.6h145.8V219H843.6z"/><path class="st6" d="M842.6 189.5h146.8v4.6H842.6zm0 26.1h146.8v4.6H842.6z"/><path class="st6" d="M849.1 192.3h2v24.8h-2zm26.1 0h2v24.8h-2zm26.2 0h2v24.8h-2zm26.2 0h2v24.8h-2zm26.2 0h2v24.8h-2zm26.2 0h2v24.8h-2z"/><path class="st8" d="M921 360.3h59.7v-.3h8.7v-71h5.8v-13.2h-5.8V238h5.8v-13.2h-5.8v-37.9h5.8v-13.1h-14.6v-51.5l-44.7 23.3v-27.4h-19.4V360h2v.3z"/><path class="st9" d="M515.1 349.5h185.3v10.8H515.1z"/><path class="st9" d="M522.9 241.7h171.7v118.6H522.9zm49.1-89h68.9v73.7H572z"/><circle class="st9" cx="606.4" cy="152.7" r="34.4"/><ellipse class="st9" cx="608.7" cy="241.3" rx="85.9" ry="20.8"/><path class="st9" d="m595.7 122.3 10.7-69.1 10.8 69.1z"/><path class="st10" d="M566.5 152.9h80.1v8.8h-80.1z"/><path class="st11" d="M566.5 159.1h80.1v2.6h-80.1z"/><path class="st10" d="M570.8 143.6h71.9v2.5h-71.9zm5.6-12.3h61.1v2.5h-61.1zm12.1-11.5h36.9v2.4h-36.9zm-22 93.7h80.1v8.8h-80.1zM521 239.4h174.7v8.8H521zm0 10.2h174.7v4.4H521z"/><path class="st10" d="M576.4 157.4h8.6V219h-8.6zM528 241.3h8.6v42.6H528zm25.1 0h8.6v42.6h-8.6zm25.1 0h8.6v42.6h-8.6zm25 0h8.6v42.6h-8.6zm25.1 0h8.6v42.6h-8.6zm25.1 0h8.6v42.6h-8.6zm25 0h8.6v42.6h-8.6zm-84.8-83.9h8.6V219h-8.6zm17.3 0h8.6V219h-8.6zm17.2 0h8.6V219h-8.6zM595 121.1s-9.8 11.9-11.3 31.9h3.3s1.3-17.5 9.8-31.9H595zm21.8 0s9.8 11.9 11.3 31.9h-3.3s-1.3-17.5-9.8-31.9h1.8zm-12.5.3h2.3v31.5h-2.3z"/><path class="st11" d="M566.5 220.5h80.1v2.6h-80.1zM521 245.4h174.7v2.8H521z"/><path class="st10" d="M521 279.7h174.7v8.8H521z"/><path class="st10" d="M532.3 287.7h17.5v72.5h-17.5z"/><path class="st10" d="m528 288.5 4.3 6.5h17.5l4.2-6.6zm26 71.7-4.3-6.5h-17.5l-4.2 6.6z"/><path class="st11" d="M537.5 352.7c0 .6-.5 1.1-1.1 1.1-.6 0-1.1-.5-1.1-1.1V297c0-.6.5-1.1 1.1-1.1.6 0 1.1.5 1.1 1.1v55.7zm8 0c0 .6-.5 1.1-1.1 1.1-.6 0-1.1-.5-1.1-1.1V297c0-.6.5-1.1 1.1-1.1.6 0 1.1.5 1.1 1.1v55.7z"/><path class="st10" d="M565 287.7h17.5v72.5H565z"/><path class="st10" d="m560.7 288.5 4.3 6.5h17.5l4.1-6.6zm25.9 71.7-4.3-6.5h-17.5l-4.1 6.6z"/><path class="st11" d="M570.2 352.7c0 .6-.5 1.1-1.1 1.1-.6 0-1.1-.5-1.1-1.1V297c0-.6.5-1.1 1.1-1.1.6 0 1.1.5 1.1 1.1v55.7zm8 0c0 .6-.5 1.1-1.1 1.1-.6 0-1.1-.5-1.1-1.1V297c0-.6.5-1.1 1.1-1.1.6 0 1.1.5 1.1 1.1v55.7z"/><path class="st10" d="M634.1 287.7h17.5v72.5h-17.5z"/><path class="st10" d="m629.8 288.5 4.3 6.5h17.5l4.2-6.6zm26 71.7-4.3-6.5H634l-4.2 6.6z"/><path class="st11" d="M639.3 352.7c0 .6-.5 1.1-1.1 1.1-.6 0-1.1-.5-1.1-1.1V297c0-.6.5-1.1 1.1-1.1.6 0 1.1.5 1.1 1.1v55.7zm8.1 0c0 .6-.5 1.1-1.1 1.1-.6 0-1.1-.5-1.1-1.1V297c0-.6.5-1.1 1.1-1.1.6 0 1.1.5 1.1 1.1v55.7z"/><path class="st10" d="M666.8 287.7h17.5v72.5h-17.5z"/><path class="st10" d="m662.5 288.5 4.3 6.5h17.5l4.1-6.6zm25.9 71.7-4.3-6.5h-17.4l-4.2 6.6z"/><path class="st11" d="M672 352.7c0 .6-.5 1.1-1.1 1.1-.6 0-1.1-.5-1.1-1.1V297c0-.6.5-1.1 1.1-1.1.6 0 1.1.5 1.1 1.1v55.7zm8 0c0 .6-.5 1.1-1.1 1.1-.6 0-1.1-.5-1.1-1.1V297c0-.6.5-1.1 1.1-1.1.6 0 1.1.5 1.1 1.1v55.7zm-159-67h174.7v2.8H521z"/><path class="st10" d="M588.8 353.7h39.3v6.5h-39.3z"/><path class="st10" d="M597.1 350h22.8v3.8h-22.8zm4-3.6h14.8v3.6h-14.8zm12.7 0h-10.9v-39.5l5.4-4.7 5.5 4.7z"/><path class="st8" d="M607.2 360.3h93.2v-10.8h-5.8v-61h1.1v-8.8h-1.1V254h1.1v-4.4h-1.1v-1.4h1.1v-8.8h-1.5c-2.8-7.4-21.4-13.6-47.6-16.7v-9.2h-5.7v-51.8h5.7v-8.8h-5.7v-.3c0-2.3-.2-4.5-.6-6.6h2.4v-2.5h-3c-1-3.5-2.5-6.8-4.4-9.8h2.3v-2.5h-4.1c-2.9-3.7-6.6-6.8-10.8-9h2.7v-2.4h-8.6l-9.6-61.7v302.2z"/><circle class="st10" cx="606.4" cy="54" r="2.6"/><path style="fill:#8c8c8c" d="M360 381.5h900v129.6H360z"/><path class="st1" d="M360 388.7h900v6.4H360zm0 61.9h900v6.4H360zm27.4-32.5h22.7v3.8h-22.7zm76.5 0h22.7v3.8h-22.7zm76.5 0h22.7v3.8h-22.7zm76.5 0h22.7v3.8h-22.7zm76.5 0h22.7v3.8h-22.7zm76.6 0h22.7v3.8H770zm76.5 0h22.7v3.8h-22.7zm76.5 0h22.7v3.8H923zm76.5 0h22.7v3.8h-22.7zm76.5 0h22.7v3.8H1076zm76.5 0h22.7v3.8h-22.7zm76.5 0h22.7v3.8H1229z"/><path style="fill:#c1a9a9" d="M360 375.1h900v6.4H360z"/><path d="M360 360h900v15.1H360zm0 101.7h900v15.1H360z" style="fill:#cdcaca"/><path style="fill:#00844a" d="M360 476.8h900v34.3H360z"/><path style="fill:#00c147" d="M360 485.1h900v60.3H360z"/><path class="st17" d="M1018.2 293.6h105.2V360h-105.2z"/><path class="st18" d="M1123.5 267.2h-106.6l-12.6 31h131.8z"/><path class="st19" d="M1004.3 289h131.8v9.3h-131.8z"/><path class="st18" d="M1092.5 308.6h25.1V360h-25.1z"/><circle class="st17" cx="1113.2" cy="333.9" r="3"/><path class="st7" d="M1023.6 308.6h64V351h-64z"/><path class="st19" d="M1023.6 346.6h64v4.4h-64z"/><ellipse class="st19" cx="1010.8" cy="298.3" rx="6.6" ry="6.4"/><ellipse class="st19" cx="1024.1" cy="298.3" rx="6.6" ry="6.4"/><ellipse class="st19" cx="1037.4" cy="298.3" rx="6.6" ry="6.4"/><ellipse class="st19" cx="1050.5" cy="298.3" rx="6.6" ry="6.4"/><ellipse class="st19" cx="1063.4" cy="298.3" rx="6.6" ry="6.4"/><ellipse class="st19" cx="1076.4" cy="298.3" rx="6.6" ry="6.4"/><ellipse class="st19" cx="1090" cy="298.3" rx="6.6" ry="6.4"/><ellipse class="st19" cx="1103" cy="298.3" rx="6.6" ry="6.4"/><ellipse class="st19" cx="1116.2" cy="298.3" rx="6.6" ry="6.4"/><ellipse class="st19" cx="1129.5" cy="298.3" rx="6.6" ry="6.4"/><path class="st19" d="M1017.4 237h105.4v22.9h-105.4z"/><path class="st18" d="m1025 237 9.5-19.9h6.8l4.1 7.7h-6.2l-1.8-4.3-8.3 16.5zm34.9 0 9.5-19.9h6.8l4.1 7.7h-6.2l-1.8-4.3-8.3 16.5zm34.9 0 9.5-19.9h6.8l4.1 7.7h-6.2l-1.8-4.3-8.3 16.5zm-55.2 22.9h5.8v7.3h-5.8zm55.2 0h5.8v7.3h-5.8z"/><path class="st21" d="M1123.5 267.2h-22.9v-7.3h22.2V237h-23.9l8.3-16.5 1.8 4.3h6.2l-4.1-7.7h-6.8l-9.6 19.9h-23.9v22.9h23.9v7.3h-24V360h52.6v-59.4c1 2.4 3.3 4 6.1 4 3.6 0 6.6-2.9 6.6-6.4V289h-3.7l-8.8-21.8zm-43.2-42.4-4.1-7.7h-5.4v6.3l1.5-2.9 1.8 4.3z" style="opacity:.25"/><path class="st21" d="M800.8 199.5h13.7v10.9h-13.7z"/><path class="st21" d="M798.8 194.1h17.6v5.5h-17.6z"/><path class="st22" d="M713 237h105.2v123.3H713z"/><path class="st21" d="M818.2 210.5H711.6L699 241.6h131.8zm-115.6 79.8h126v9.3h-126z"/><circle class="st21" cx="730.2" cy="264.1" r="13.6"/><circle class="st23" cx="730.2" cy="264.1" r="10.6"/><path class="st21" d="M728.9 252.6h2.6v22.9h-2.6z"/><path class="st21" d="M718.8 262.8h22.9v2.6h-22.9z"/><circle class="st21" cx="765.1" cy="264.1" r="13.6"/><circle class="st23" cx="765.1" cy="264.1" r="10.6"/><path class="st21" d="M763.8 252.6h2.6v22.9h-2.6z"/><path class="st21" d="M753.7 262.8h22.9v2.6h-22.9z"/><circle class="st21" cx="800.1" cy="264.1" r="13.6"/><circle class="st23" cx="800.1" cy="264.1" r="10.6"/><path class="st21" d="M798.8 252.6h2.6v22.9h-2.6z"/><path class="st21" d="M788.6 262.8h22.9v2.6h-22.9z"/><path style="fill:#e85e3c" d="M699 232.3h131.8v9.3H699z"/><path class="st9" d="M718.7 308.6h56.9v37.9h-56.9z"/><path class="st23" d="M722.7 312.4h49v30.5h-49z"/><path class="st9" d="M745.2 308.6h4.2v36.8h-4.2z"/><path class="st21" d="M783.3 310.5h25.1V360h-25.1z"/><circle class="st22" cx="803.2" cy="333.9" r="3"/><path class="st8" d="M818.2 210.5h-3.7v-11h1.9v-5.4h-17.6v5.4h2v11h-37v149.8h54.4v-60.8h10.4v-9.2h-10.4v-48.7h12.6v-9.3h-3.7z"/><path class="st25" d="M378.8 294.9h121.5v65.3H378.8zm19.5-49h82.6v44.4h-82.6z"/><path class="st9" d="M376.4 290.3h126v9.3h-126zm1.2 65.6h46.1v4.3h-46.1zm76.4 0h47.5v4.3H454zM394.3 237h90.3v9.3h-90.3zm9 18h28.1v18.7h-28.1z"/><path class="st23" d="M405.2 256.8h24.2v15.1h-24.2z"/><path class="st9" d="M416.4 255h2.1v18.2h-2.1zm-32.1 56.6h38.1V337h-38.1z"/><path class="st23" d="M386.9 314.1h32.8v20.4h-32.8z"/><path class="st9" d="M402.1 311.6h2.8v24.6h-2.8zm52.9 0h38.1V337H455z"/><path class="st23" d="M457.7 314.1h32.8v20.4h-32.8z"/><path class="st9" d="M472.8 311.6h2.8v24.6h-2.8zM447.9 255H476v18.7h-28.1z"/><path class="st23" d="M449.9 256.8h24.2v15.1h-24.2z"/><path class="st9" d="M461 255h2.1v18.2H461zm-10.5 105.3h-22.2v-31.7c0-6.1 5-11.1 11.1-11.1s11.1 5 11.1 11.1v31.7z"/><circle cx="446.8" cy="339.6" r="2.4" style="fill:#7f714c"/><path class="st9" d="M463.1 226h13.7v10.9h-13.7z"/><path class="st9" d="M461 220.6h17.6v5.5H461z"/><path class="st8" d="M480.8 246.2h3.7V237h-7.8v-11h1.9v-5.4H461v5.4h2.1v11h-23.6v123.3h62.1v-4.4h-1.3v-56.4h2.1v-9.2h-21.6z"/><path class="st27" d="M1222.2 351.8h13.1v6.8h-13.1zm-82.6-232.4V111h99.3v8.4z"/><path class="st27" d="M1144 117.3h7.9v29h-7.9zm20.6 0h8v29h-7.9zm20.7 0h7.9v29h-7.9zm20.6 0h7.9v29h-7.9zm20.6 0h7.9v29h-7.9z"/><path class="st28" d="M1143.1 360.3V143.9h92.3V360z"/><path d="M1139.6 147v-7.9h99.3v7.9zm0 74.1v-7.9h99.3v7.9zm0 74v-7.9h99.3v7.9z" style="fill:#ffecab"/><path class="st27" d="M1143.1 166.9h13.1v6.8h-13.1z"/><path class="st27" d="M1149.7 173.6h13.1v6.8h-13.1zm66 24h13.1v6.8h-13.1zm6.5 6.8h13.1v6.8h-13.1zm-79.1 36.1h13.1v6.8h-13.1zm6.6 6.8h13.1v6.8h-13.1zm66 24h13.1v6.8h-13.1zm6.5 6.8h13.1v6.8h-13.1zm-79.1 36.1h13.1v6.8h-13.1zm6.6 6.8h13.1v6.8h-13.1zm66 24h13.1v6.8h-13.1z"/><path class="st9" d="M1149 155.6h23.6V191H1149z"/><path class="st23" d="M1151.3 158.1h19v30.5h-19z"/><path class="st9" d="M1149.7 172.2h22.9v2.6h-22.9zm27.6-16.6h23.6V191h-23.6z"/><path class="st23" d="M1179.6 158.1h19v30.5h-19z"/><path class="st9" d="M1177.9 172.2h22.9v2.6h-22.9zm27.6-16.6h23.6V191h-23.6z"/><path class="st23" d="M1207.8 158.1h19v30.5h-19z"/><path class="st9" d="M1206.2 172.2h22.9v2.6h-22.9zm-57.2 58.5h23.6v35.4H1149z"/><path class="st23" d="M1151.3 233.2h19v30.5h-19z"/><path class="st9" d="M1149.7 247.2h22.9v2.6h-22.9zm-.7 61.9h23.6v35.4H1149z"/><path class="st23" d="M1151.3 311.6h19v30.5h-19z"/><path class="st9" d="M1149.7 325.6h22.9v2.6h-22.9zm55.8-16.5h23.6v35.4h-23.6z"/><path class="st23" d="M1207.8 311.6h19v30.5h-19z"/><path class="st9" d="M1206.2 325.6h22.9v2.6h-22.9zm-28.9-94.9h23.6v35.4h-23.6z"/><path class="st23" d="M1179.6 233.2h19v30.5h-19z"/><path class="st9" d="M1177.9 247.2h22.9v2.6h-22.9zm27.6-16.5h23.6v35.4h-23.6z"/><path class="st23" d="M1207.8 233.2h19v30.5h-19z"/><path class="st9" d="M1206.2 247.2h22.9v2.6h-22.9z"/><path class="st30" d="M1206.2 338.2v-6.8h40.8v6.8z"/><path class="st30" d="M1208.7 336.4h5.6v23.3h-5.6zm14.7 0h5.7v23.3h-5.7zm14.7 0h5.7v23.3h-5.7zm-106.5 1.8v-6.8h41v6.8z"/><path class="st30" d="M1134.8 336.4h5.7v23.3h-5.7zm14.8 0h5.6v23.3h-5.6zm14.7 0h5.7v23.3h-5.7zm35.9 23.9H1178V318c0-6.1 5-11.1 11.1-11.1s11.1 5 11.1 11.1v42.3z"/><circle class="st28" cx="1195.2" cy="336.9" r="2"/><path class="st8" d="m1200.2 360.1 35.2-.1v-21.8h2.8v21.5h5.7v-21.5h3.2v-6.8h-11.6v-36.3h3.6v-7.9h-3.6V221h3.6v-7.9h-3.6V147h3.6v-7.9h-4.5v-19.7h4.5V111h-49.9v249.3h11.1v-.2zm13.6-240.7h12.7v19.7h-12.7v-19.7zm-20.6 0h12.7v19.7h-12.7v-19.7z"/><path class="st31" d="M375.4 301.4h4.5v66.2h-4.5z"/><path class="st31" d="M372.7 367.6h9.8s-4.9-9-9.8 0zm12.1-74.5h-14.4l4.5 11.3.1.5h5.2l.2-.5zm-15.2-1.9h15.6v1.8h-15.6z"/><path class="st31" d="M376.5 283.7h1.8v15.6h-1.8z"/><ellipse class="st31" cx="377.5" cy="291.2" rx="7.1" ry="6.1"/><path class="st25" d="M371.5 293.1h5.7v11.3h-.9zm12.3 0h-5.7v11.3h.9z"/><path class="st31" d="M531 301.4h4.5v66.2H531z"/><path class="st31" d="M528.3 367.6h9.8s-4.8-9-9.8 0zm12.2-74.5h-14.4l4.4 11.3.1.5h5.3l.1-.5zm-15.2-1.9h15.6v1.8h-15.6z"/><path class="st31" d="M532.1 283.7h1.8v15.6h-1.8z"/><ellipse class="st31" cx="533.2" cy="291.2" rx="7.1" ry="6.1"/><path class="st25" d="M527.2 293.1h5.6v11.3h-.9zm12.2 0h-5.7v11.3h.9z"/><path class="st31" d="M686.6 301.4h4.5v66.2h-4.5z"/><path class="st31" d="M683.9 367.6h9.8c.1 0-4.8-9-9.8 0zm12.2-74.5h-14.4l4.4 11.3.2.5h5.2l.2-.5zm-15.2-1.9h15.6v1.8h-15.6z"/><path class="st31" d="M687.8 283.7h1.8v15.6h-1.8z"/><ellipse class="st31" cx="688.8" cy="291.2" rx="7.1" ry="6.1"/><path class="st25" d="M682.8 293.1h5.7v11.3h-1zm12.2 0h-5.6v11.3h.9z"/><path class="st31" d="M842.3 301.4h4.5v66.2h-4.5z"/><path class="st31" d="M839.5 367.6h9.8c.1 0-4.8-9-9.8 0zm12.2-74.5h-14.4l4.5 11.3.1.5h5.2l.2-.5zm-15.2-1.9h15.6v1.8h-15.6z"/><path class="st31" d="M843.4 283.7h1.8v15.6h-1.8z"/><ellipse class="st31" cx="844.4" cy="291.2" rx="7.1" ry="6.1"/><path class="st25" d="M838.4 293.1h5.7v11.3h-.9zm12.3 0H845v11.3h.9z"/><path class="st31" d="M997.9 301.4h4.5v66.2h-4.5z"/><path class="st31" d="M995.2 367.6h9.8s-4.9-9-9.8 0zm12.1-74.5H993l4.4 11.3.1.5h5.3l.1-.5zm-15.2-1.9h15.6v1.8h-15.6z"/><path class="st31" d="M999 283.7h1.8v15.6H999z"/><ellipse class="st31" cx="1000.1" cy="291.2" rx="7.1" ry="6.1"/><path class="st25" d="M994 293.1h5.7v11.3h-.9zm12.3 0h-5.7v11.3h.9z"/><path class="st31" d="M1153.5 301.4h4.5v66.2h-4.5z"/><path class="st31" d="M1150.8 367.6h9.8s-4.8-9-9.8 0zm12.2-74.5h-14.4l4.4 11.3.2.5h5.2l.2-.5zm-15.2-1.9h15.6v1.8h-15.6z"/><path class="st31" d="M1154.7 283.7h1.8v15.6h-1.8z"/><ellipse class="st31" cx="1155.7" cy="291.2" rx="7.1" ry="6.1"/><path class="st25" d="M1149.7 293.1h5.7v11.3h-1zm12.2 0h-5.6v11.3h.9z"/><path class="st32" d="M407.9 534.1c0 1.9-1.5 3.4-3.4 3.4s-3.4-1.5-3.4-3.4v-53.2c0-1.9 1.5-3.4 3.4-3.4s3.4 1.5 3.4 3.4v53.2z"/><circle class="st33" cx="405" cy="473.7" r="24"/><circle class="st33" cx="390.1" cy="488" r="14.5"/><circle class="st33" cx="418.2" cy="485.6" r="17"/><path class="st8" d="M404.5 537.4c1.9 0 3.4-1.5 3.4-3.4v-34.9c2.9 2.2 6.4 3.5 10.3 3.5 9.4 0 17-7.6 17-17 0-5.3-2.5-10.1-6.3-13.2-.7-12.6-11.2-22.6-23.9-22.6h-.4v87.6z"/><path class="st32" d="M488.4 534.1c0 1.9-1.5 3.4-3.4 3.4s-3.4-1.5-3.4-3.4v-53.2c0-1.9 1.5-3.4 3.4-3.4s3.4 1.5 3.4 3.4v53.2z"/><circle class="st33" cx="485.4" cy="473.7" r="24"/><circle class="st33" cx="470.6" cy="488" r="14.5"/><circle class="st33" cx="498.6" cy="485.6" r="17"/><path class="st8" d="M485 537.4c1.9 0 3.4-1.5 3.4-3.4v-34.9c2.9 2.2 6.4 3.5 10.3 3.5 9.4 0 17-7.6 17-17 0-5.3-2.5-10.1-6.3-13.2-.7-12.6-11.2-22.6-23.9-22.6h-.4v87.6z"/><path class="st32" d="M568.9 534.1c0 1.9-1.5 3.4-3.4 3.4s-3.4-1.5-3.4-3.4v-53.2c0-1.9 1.5-3.4 3.4-3.4s3.4 1.5 3.4 3.4v53.2z"/><circle class="st33" cx="565.9" cy="473.7" r="24"/><circle class="st33" cx="551.1" cy="488" r="14.5"/><circle class="st33" cx="579.1" cy="485.6" r="17"/><path class="st8" d="M565.5 537.4c1.9 0 3.4-1.5 3.4-3.4v-34.9c2.9 2.2 6.4 3.5 10.3 3.5 9.4 0 17-7.6 17-17 0-5.3-2.5-10.1-6.3-13.2-.7-12.6-11.2-22.6-23.9-22.6h-.4v87.6z"/><path class="st32" d="M649.3 534.1c0 1.9-1.5 3.4-3.4 3.4s-3.4-1.5-3.4-3.4v-53.2c0-1.9 1.5-3.4 3.4-3.4s3.4 1.5 3.4 3.4v53.2z"/><circle class="st33" cx="646.4" cy="473.7" r="24"/><circle class="st33" cx="631.6" cy="488" r="14.5"/><circle class="st33" cx="659.6" cy="485.6" r="17"/><path class="st8" d="M646 537.4c1.9 0 3.4-1.5 3.4-3.4v-34.9c2.9 2.2 6.4 3.5 10.3 3.5 9.4 0 17-7.6 17-17 0-5.3-2.5-10.1-6.3-13.2-.7-12.6-11.2-22.6-23.9-22.6h-.4v87.6z"/><path class="st32" d="M729.8 534.1c0 1.9-1.5 3.4-3.4 3.4s-3.4-1.5-3.4-3.4v-53.2c0-1.9 1.5-3.4 3.4-3.4s3.4 1.5 3.4 3.4v53.2z"/><circle class="st33" cx="726.9" cy="473.7" r="24"/><circle class="st33" cx="712" cy="488" r="14.5"/><circle class="st33" cx="740.1" cy="485.6" r="17"/><path class="st8" d="M726.4 537.4c1.9 0 3.4-1.5 3.4-3.4v-34.9c2.9 2.2 6.4 3.5 10.3 3.5 9.4 0 17-7.6 17-17 0-5.3-2.5-10.1-6.3-13.2-.7-12.6-11.2-22.6-23.9-22.6h-.4v87.6z"/><path class="st32" d="M810.3 534.1c0 1.9-1.5 3.4-3.4 3.4s-3.4-1.5-3.4-3.4v-53.2c0-1.9 1.5-3.4 3.4-3.4s3.4 1.5 3.4 3.4v53.2z"/><circle class="st33" cx="807.4" cy="473.7" r="24"/><circle class="st33" cx="792.5" cy="488" r="14.5"/><circle class="st33" cx="820.6" cy="485.6" r="17"/><path class="st8" d="M806.9 537.4c1.9 0 3.4-1.5 3.4-3.4v-34.9c2.9 2.2 6.4 3.5 10.3 3.5 9.4 0 17-7.6 17-17 0-5.3-2.5-10.1-6.3-13.2-.7-12.6-11.2-22.6-23.9-22.6h-.4v87.6z"/><path class="st32" d="M890.8 534.1c0 1.9-1.5 3.4-3.4 3.4s-3.4-1.5-3.4-3.4v-53.2c0-1.9 1.5-3.4 3.4-3.4s3.4 1.5 3.4 3.4v53.2z"/><circle class="st33" cx="887.8" cy="473.7" r="24"/><circle class="st33" cx="873" cy="488" r="14.5"/><circle class="st33" cx="901" cy="485.6" r="17"/><path class="st8" d="M887.4 537.4c1.9 0 3.4-1.5 3.4-3.4v-34.9c2.9 2.2 6.4 3.5 10.3 3.5 9.4 0 17-7.6 17-17 0-5.3-2.5-10.1-6.3-13.2-.7-12.6-11.2-22.6-23.9-22.6h-.4v87.6z"/><path class="st32" d="M971.3 534.1c0 1.9-1.5 3.4-3.4 3.4s-3.4-1.5-3.4-3.4v-53.2c0-1.9 1.5-3.4 3.4-3.4s3.4 1.5 3.4 3.4v53.2z"/><circle class="st33" cx="968.3" cy="473.7" r="24"/><circle class="st33" cx="953.5" cy="488" r="14.5"/><circle class="st33" cx="981.5" cy="485.6" r="17"/><path class="st8" d="M967.9 537.4c1.9 0 3.4-1.5 3.4-3.4v-34.9c2.9 2.2 6.4 3.5 10.3 3.5 9.4 0 17-7.6 17-17 0-5.3-2.5-10.1-6.3-13.2-.7-12.6-11.2-22.6-23.9-22.6h-.4v87.6z"/><path class="st32" d="M1051.7 534.1c0 1.9-1.5 3.4-3.4 3.4s-3.4-1.5-3.4-3.4v-53.2c0-1.9 1.5-3.4 3.4-3.4s3.4 1.5 3.4 3.4v53.2z"/><circle class="st33" cx="1048.8" cy="473.7" r="24"/><circle class="st33" cx="1034" cy="488" r="14.5"/><circle class="st33" cx="1062" cy="485.6" r="17"/><path class="st8" d="M1048.4 537.4c1.9 0 3.4-1.5 3.4-3.4v-34.9c2.9 2.2 6.4 3.5 10.3 3.5 9.4 0 17-7.6 17-17 0-5.3-2.5-10.1-6.3-13.2-.7-12.6-11.2-22.6-23.9-22.6h-.4v87.6z"/><path class="st32" d="M1132.2 534.1c0 1.9-1.5 3.4-3.4 3.4s-3.4-1.5-3.4-3.4v-53.2c0-1.9 1.5-3.4 3.4-3.4s3.4 1.5 3.4 3.4v53.2z"/><circle class="st33" cx="1129.3" cy="473.7" r="24"/><circle class="st33" cx="1114.5" cy="488" r="14.5"/><circle class="st33" cx="1142.5" cy="485.6" r="17"/><path class="st8" d="M1128.8 537.4c1.9 0 3.4-1.5 3.4-3.4v-34.9c2.9 2.2 6.4 3.5 10.3 3.5 9.4 0 17-7.6 17-17 0-5.3-2.5-10.1-6.3-13.2-.7-12.6-11.2-22.6-23.9-22.6h-.4v87.6z"/><path class="st32" d="M1212.7 534.1c0 1.9-1.5 3.4-3.4 3.4s-3.4-1.5-3.4-3.4v-53.2c0-1.9 1.5-3.4 3.4-3.4s3.4 1.5 3.4 3.4v53.2z"/><circle class="st33" cx="1209.8" cy="473.7" r="24"/><circle class="st33" cx="1194.9" cy="488" r="14.5"/><circle class="st33" cx="1223" cy="485.6" r="17"/><path class="st8" d="M1209.3 537.4c1.9 0 3.4-1.5 3.4-3.4v-34.9c2.9 2.2 6.4 3.5 10.3 3.5 9.4 0 17-7.6 17-17 0-5.3-2.5-10.1-6.3-13.2-.7-12.6-11.2-22.6-23.9-22.6h-.4v87.6z"/></g></svg>