<svg version="1.1" id="Calque_1" xmlns="http://www.w3.org/2000/svg" xmlns:xlink="http://www.w3.org/1999/xlink" x="0" y="0" viewBox="-80 172 450 450" style="enable-background:new -80 172 450 450" xml:space="preserve"><style>.st0{fill:#7e50ff;stroke:#696992;stroke-linecap:round;stroke-linejoin:round}.st0,.st1,.st2,.st3{stroke-miterlimit:10}.st1{fill:#ffd255;stroke:#fff;stroke-linecap:round;stroke-linejoin:round}.st2,.st3{stroke:#231f20}.st2{fill:#f1bd19;stroke-linecap:round;stroke-linejoin:round}.st3{fill:#ffd255}.st3,.st6,.st7{stroke-linecap:round;stroke-linejoin:round}.st6{fill:none;stroke:#696992;stroke-miterlimit:10}.st7{fill:#ececec;stroke:#231f20}.st10,.st16,.st7,.st8{stroke-miterlimit:10}.st8{fill:#f6d1a7;stroke:#231f20;stroke-linecap:round;stroke-linejoin:round}.st10,.st16{fill:none}.st10{stroke:#231f20;stroke-linecap:round;stroke-linejoin:round}.st16{stroke:#ececec}.st16,.st17{stroke-linecap:round;stroke-linejoin:round}.st17,.st18,.st20{fill:none;stroke:#ececec}.st18{stroke-linecap:round;stroke-linejoin:round;stroke-dasharray:4.4484,1.7794}.st20{stroke-dasharray:5.0585,2.0234}.st20,.st21,.st24{stroke-linecap:round;stroke-linejoin:round}.st21{fill:none;stroke:#ececec;stroke-dasharray:5.0623,2.0249}.st24{fill:#f2f2f4;stroke:#6e6e6e;stroke-width:2;stroke-miterlimit:10}.st26{fill:#7e50ff}.st27,.st28{fill:none;stroke-miterlimit:10}.st27{stroke:#7e50ff;stroke-width:2}.st28{stroke:#fff}.st29{fill:#0082c8}.st36{fill:#fbd7ce}.st37{fill:#5c5c74}.st38,.st39{fill:none;stroke:#7f7fbc;stroke-width:2;stroke-miterlimit:10}.st39{fill:#fff;stroke:#696992}.st40{fill:#facab8}.st42{fill:#edeff0}</style><g id="XMLID_442_"><path id="XMLID_446_" class="st0" d="M285.4 513.4h-19.7c-1.4 0-2.6 1.2-2.6 2.6v10.5c0 1.4 1.2 2.6 2.6 2.6h1.6c0 1.5-.6 2.9-1.6 4-.5.5-.1 1.3.5 1.4 4.1.4 6.8-2.5 6.8-5.3h12.3c1.4 0 2.6-1.2 2.6-2.6V516c.1-1.4-1.1-2.6-2.5-2.6z"/><path id="XMLID_445_" class="st1" d="M266.5 517.9h18"/><path id="XMLID_444_" class="st1" d="M266.5 521.5h18"/><path id="XMLID_443_" class="st1" d="M266.5 525.1h18"/></g><g id="XMLID_469_"><path id="XMLID_473_" class="st2" d="M269.5 358h-19.7c-1.4 0-2.6 1.2-2.6 2.6v10.5c0 1.4 1.2 2.6 2.6 2.6h1.6c0 1.5-.6 2.9-1.6 4-.5.5-.1 1.3.5 1.4 4.1.4 6.8-2.5 6.8-5.3h12.3c1.4 0 2.6-1.2 2.6-2.6v-10.5c.1-1.6-1.1-2.7-2.5-2.7z"/><path id="XMLID_472_" class="st3" d="M250.6 362.4h18"/><path id="XMLID_471_" class="st3" d="M250.6 366.1h18"/><path id="XMLID_470_" class="st3" d="M250.6 369.7h18"/></g><path d="M232 540.5c0 3.8-1.4 7.3-3.8 9.9-2.7 3-6.6 4.9-11 4.9s-8.3-1.9-11-4.9c-2.4-2.6-3.8-6.1-3.8-9.9 0-8.2 6.6-14.8 14.8-14.8 8.2 0 14.8 6.6 14.8 14.8z" style="fill:#ececec;stroke:#696992;stroke-linecap:round;stroke-linejoin:round;stroke-miterlimit:10"/><g id="XMLID_433_"><g id="XMLID_435_"><circle id="XMLID_441_" cx="217.2" cy="537.4" r="8.3" style="fill:#f6d1a7;stroke:#696992;stroke-linecap:round;stroke-linejoin:round;stroke-miterlimit:10"/><path id="XMLID_440_" class="st0" d="M217.2 529.1c-4.3 0-7.9 3.3-8.3 7.5h9.6c.9 0 1.7-.5 2.1-1.3l.3-.6.7 1c.4.6 1.1.9 1.9.9h1.9c-.3-4.2-3.9-7.5-8.2-7.5z"/><g id="XMLID_437_"><path id="XMLID_439_" class="st6" d="M220.1 539.9c0-.8.7-1.5 1.5-1.5s1.5.7 1.5 1.5"/><path id="XMLID_438_" class="st6" d="M211.3 539.9c0-.8.7-1.5 1.5-1.5s1.5.7 1.5 1.5"/></g><path id="XMLID_436_" class="st6" d="M213.3 542.8c1.1.8 2.4 1.3 3.9 1.3s2.8-.5 3.9-1.3"/></g></g><path class="st0" d="M228.2 550.4c-2.7 3-6.6 4.9-11 4.9s-8.3-1.9-11-4.9c.8-.9 1.9-1.6 3.1-2l4.5-1.5c.6-.2 1.3 0 1.7.4l.5.5c.7.7 1.7.7 2.4 0l.5-.5c.5-.5 1.1-.6 1.7-.4l4.5 1.5c1.2.4 2.3 1.1 3.1 2z"/><path class="st7" d="M269.9 459.7c0 3.6-1.4 6.9-3.6 9.4-2.6 2.9-6.3 4.7-10.4 4.7-4.1 0-7.9-1.8-10.4-4.7-2.2-2.5-3.6-5.8-3.6-9.4 0-7.8 6.3-14.1 14.1-14.1 7.6 0 13.9 6.3 13.9 14.1z"/><g id="XMLID_425_"><g id="XMLID_426_"><circle id="XMLID_432_" class="st8" cx="255.9" cy="456.7" r="7.9"/><path id="XMLID_431_" d="M255.9 448.8c-4.1 0-7.5 3.1-7.8 7.2h9.1c.9 0 1.6-.5 2-1.3l.3-.6.7.9c.4.6 1.1.9 1.8.9h1.9c-.5-3.9-3.9-7.1-8-7.1z" style="fill:#d6a500;stroke:#231f20;stroke-linecap:round;stroke-linejoin:round;stroke-miterlimit:10"/><g id="XMLID_428_"><path id="XMLID_430_" class="st10" d="M258.7 459c0-.8.6-1.4 1.4-1.4.8 0 1.4.6 1.4 1.4"/><path id="XMLID_429_" class="st10" d="M250.2 459c0-.8.6-1.4 1.4-1.4.8 0 1.4.6 1.4 1.4"/></g><path id="XMLID_427_" class="st10" d="M252.2 461.8c1 .8 2.3 1.2 3.7 1.2 1.4 0 2.7-.5 3.7-1.2"/></g></g><path d="M266.3 469.1c-2.6 2.9-6.3 4.7-10.4 4.7-4.1 0-7.9-1.8-10.4-4.7.8-.8 1.8-1.5 2.9-1.9l4.3-1.4c.6-.2 1.2 0 1.7.4l.5.5c.6.6 1.7.6 2.3 0l.5-.5c.4-.4 1.1-.6 1.7-.4l4.3 1.4c.9.4 1.9 1 2.6 1.9z" style="fill:#424242;stroke:#231f20;stroke-linecap:round;stroke-linejoin:round;stroke-miterlimit:10"/><path class="st7" d="M194.1 440.9c0 3.7-1.4 7.1-3.7 9.6-2.6 2.9-6.4 4.8-10.7 4.8-4.2 0-8.1-1.8-10.7-4.8-2.3-2.5-3.7-5.9-3.7-9.6 0-7.9 6.4-14.4 14.4-14.4s14.4 6.5 14.4 14.4z"/><g id="XMLID_417_"><g id="XMLID_418_"><circle id="XMLID_424_" class="st8" cx="179.7" cy="437.9" r="8.1"/><path id="XMLID_423_" d="M179.7 429.8c-4.2 0-7.7 3.2-8 7.3h9.3c.9 0 1.7-.5 2-1.3l.3-.6.7.9c.4.6 1.1.9 1.8.9h1.9c-.3-3.9-3.8-7.2-8-7.2z" style="fill:#ff8c56;stroke:#231f20;stroke-linecap:round;stroke-linejoin:round;stroke-miterlimit:10"/><g id="XMLID_420_"><path id="XMLID_422_" class="st10" d="M182.6 440.3c0-.8.7-1.5 1.5-1.5s1.5.7 1.5 1.5"/><path id="XMLID_421_" class="st10" d="M174 440.3c0-.8.7-1.5 1.5-1.5s1.5.7 1.5 1.5"/></g><path id="XMLID_419_" class="st10" d="M175.9 443.1c1.1.8 2.4 1.2 3.8 1.2s2.7-.5 3.8-1.2"/></g></g><path d="M190.4 450.6c-2.6 2.9-6.4 4.8-10.7 4.8-4.2 0-8.1-1.8-10.7-4.8.8-.9 1.8-1.5 3-1.9l4.4-1.5c.6-.2 1.2 0 1.7.4l.5.5c.6.6 1.7.6 2.3 0l.5-.5c.4-.4 1.1-.6 1.7-.4l4.4 1.5c1.1.3 2.1 1 2.9 1.9z" style="fill:#add676;stroke:#231f20;stroke-linecap:round;stroke-linejoin:round;stroke-miterlimit:10"/><path id="XMLID_468_" class="st0" d="m313.5 394.8 1.1 2.2c.3.7 1 1.2 1.8 1.3l2.5.4c1.9.3 2.7 2.6 1.3 4l-1.8 1.7c-.6.5-.8 1.3-.7 2.1l.4 2.5c.3 1.9-1.7 3.4-3.4 2.5l-2.2-1.2c-.7-.4-1.5-.4-2.2 0l-2.2 1.2c-1.7.9-3.7-.6-3.4-2.5l.4-2.5c.1-.8-.1-1.5-.7-2.1l-1.8-1.7c-1.4-1.4-.6-3.7 1.3-4l2.5-.4c.8-.1 1.4-.6 1.8-1.3l1.1-2.2c.8-1.7 3.3-1.7 4.2 0z"/><path d="M336 362.9c0-2.7-2.2-4.9-4.9-4.9-1.6 0-3 .8-3.9 2-.9-1.2-2.3-2-3.9-2-2.7 0-4.9 2.2-4.9 4.9 0 0-.7 5.2 8.9 11.1 9.4-5.9 8.7-11.1 8.7-11.1z" style="fill:#0082c8;stroke:#696992;stroke-linecap:round;stroke-linejoin:round;stroke-miterlimit:10"/><path d="M224.9 455c0-2.7-2.2-4.9-4.9-4.9-1.6 0-3 .8-3.9 2-.9-1.2-2.3-2-3.9-2-2.7 0-4.9 2.2-4.9 4.9 0 0-.7 5.2 8.9 11.1 9.4-5.9 8.7-11.1 8.7-11.1z" style="fill:#ec6f39;stroke:#231f20;stroke-linecap:round;stroke-linejoin:round;stroke-miterlimit:10"/><g id="XMLID_479_"><path id="XMLID_481_" class="st16" d="m332.4 382.7 7.3 7.4"/><path id="XMLID_416_" class="st16" d="m339.7 382.7-7.3 7.4"/></g><g id="XMLID_488_"><path id="XMLID_491_" class="st16" d="m202.5 412.5 7.4 7.3"/><path id="XMLID_490_" class="st16" d="m209.9 412.5-7.4 7.3"/></g><circle id="XMLID_415_" class="st16" cx="190.2" cy="541.6" r="3.8"/><circle id="XMLID_499_" class="st16" cx="336" cy="429.1" r="3.8"/><circle id="XMLID_493_" class="st16" cx="259.6" cy="502.9" r="3.8"/><path id="XMLID_492_" transform="rotate(45.001 248.038 531.777)" class="st16" d="M244.6 528.3h6.9v6.9h-6.9z"/><path id="XMLID_414_" transform="rotate(45.001 193.777 512.976)" class="st16" d="M190.3 509.5h6.9v6.9h-6.9z"/><path id="XMLID_498_" transform="rotate(45.001 194.922 461.304)" class="st16" d="M191.4 457.8h6.9v6.9h-6.9z"/><path id="XMLID_484_" transform="rotate(45.001 241.825 484.103)" class="st16" d="M238.3 480.6h6.9v6.9h-6.9z"/><circle id="XMLID_478_" class="st16" cx="297.1" cy="425.3" r="3.8"/><circle id="XMLID_483_" class="st16" cx="250.2" cy="391.4" r="3.8"/><path id="XMLID_477_" transform="rotate(45.001 285.227 461.303)" class="st16" d="M281.7 457.8h6.9v6.9h-6.9z"/><path id="XMLID_476_" transform="rotate(45.001 285.228 403.989)" class="st16" d="M281.7 400.5h6.9v6.9h-6.9z"/><path id="XMLID_413_" class="st16" d="m261.3 541.3.4 6.9-6.9-.4.5 6.8-6.9-.4.5 6.8-6.9-.4.4 6.8-6.8-.4.4 6.9-6.8-.5"/><path id="XMLID_502_" class="st16" d="m341.7 480.6.4 6.8-6.8-.4.4 6.8-6.9-.4.5 6.9-6.9-.5.4 6.9-6.8-.5.4 6.9-6.8-.4"/><path id="XMLID_482_" class="st16" d="m231.9 413.1.4 6.8-6.8-.4.4 6.9-6.8-.5.4 6.9-6.9-.4.5 6.8-6.9-.4.4 6.8-6.8-.4"/><path id="XMLID_412_" class="st16" d="m185.1 472.2.4 6.9-6.8-.5.4 6.9-6.8-.4.4 6.8-6.9-.4.5 6.8-6.9-.4.5 6.8-6.9-.4"/><g id="XMLID_410_"><path class="st17" d="m142.5 495.5 1.8-1.7"/><path class="st18" d="m145.5 492.5 17-17"/><path class="st17" d="m163.1 474.9 1.8-1.8"/></g><g id="XMLID_463_"><path class="st17" d="m217 400.1 1.8-1.8"/><path class="st18" d="m220.1 397.1 16.9-17"/><path class="st17" d="m237.7 379.5 1.7-1.8"/></g><g id="XMLID_461_"><path class="st17" d="m221.9 405 1.8-1.7"/><path style="fill:none;stroke:#ececec;stroke-linecap:round;stroke-linejoin:round;stroke-dasharray:5.0284,2.0114" d="m225.1 401.8 9.3-9.2"/><path class="st17" d="m235.1 391.9 1.8-1.8"/></g><g id="XMLID_474_"><path class="st17" d="m300.4 444.4 1.8-1.8"/><path class="st20" d="m303.6 441.2 24.3-24.4"/><path class="st17" d="m328.6 416.1 1.8-1.7"/></g><g id="XMLID_406_"><path class="st17" d="m305.8 452.6 1.8-1.7"/><path class="st21" d="m309 449.4 14.4-14.3"/><path class="st17" d="m324.1 434.4 1.7-1.8"/></g><g id="XMLID_400_"><path class="st17" d="m180.2 501.7 1.7-1.8"/><path class="st21" d="m183.4 498.5 14.3-14.3"/><path class="st17" d="m198.4 483.4 1.8-1.7"/></g><g id="XMLID_500_"><path class="st17" d="m256.3 490 1.8-1.8"/><path class="st21" d="m259.5 486.8 14.3-14.4"/><path class="st17" d="m274.6 471.7 1.7-1.7"/></g><g id="XMLID_485_"><path class="st17" d="m235.1 446.8 1.7-1.8"/><path class="st21" d="m238.3 443.6 14.3-14.3"/><path class="st17" d="m253.3 428.6 1.8-1.8"/></g><g id="XMLID_487_"><path class="st17" d="m227.5 441.3 1.8-1.8"/><path style="fill:none;stroke:#ececec;stroke-linecap:round;stroke-linejoin:round;stroke-dasharray:4.84,1.936" d="m230.6 438.1 8.9-8.9"/><path class="st17" d="m240.2 428.6 1.8-1.8"/></g><path id="XMLID_460_" class="st16" d="m295.4 361.9.5 6.8-6.9-.4.4 6.9-6.8-.5.4 6.9-6.8-.5.4 6.9-6.9-.4.5 6.8-6.9-.4"/><g id="XMLID_455_"><path class="st17" d="m290.5 391.4 1.7-1.8"/><path class="st21" d="m293.7 388.2 14.3-14.4"/><path class="st17" d="m308.7 373.1 1.8-1.7"/></g><g id="XMLID_372_"><path class="st17" d="m117.3 570.3 1.7-1.8"/><path class="st20" d="m120.5 567.1 24.3-24.3"/><path class="st17" d="m145.5 542.1 1.8-1.8"/></g><g id="XMLID_494_"><path class="st17" d="m294.9 510.3 1.7-1.8"/><path style="fill:none;stroke:#ececec;stroke-linecap:round;stroke-linejoin:round;stroke-dasharray:4.206,1.6824" d="m297.8 507.3 11.9-11.9"/><path class="st17" d="m310.3 494.8 1.8-1.8"/></g><g id="XMLID_451_"><path id="XMLID_295_" class="st7" d="M270.1 420.6h-28.4c-1.1 0-2-.9-2-2V403c0-1.1.9-2 2-2h28.4c1.1 0 2 .9 2 2v15.7c0 1.1-.9 1.9-2 1.9z"/><path id="XMLID_454_" class="st2" d="M239.7 405.5h32.4v2.9h-32.4z"/><path class="st7" d="M241.4 415.2h10.1v1.4h-10.1z" id="XMLID_453_"/><path class="st7" d="M253.9 415.2H264v1.4h-10.1z" id="XMLID_452_"/></g><path id="XMLID_299_" class="st24" d="M289.6 505H1c-5.5 0-10.8-2.3-14.5-6.3l-.5-.5v-8.3h318.5v8.3l-.5.5c-3.7 4-8.9 6.3-14.4 6.3z"/><path id="XMLID_298_" class="st24" d="M-13.9 489.9h318.5v8.3H-13.9z"/><path id="XMLID_297_" class="st24" d="M145.3 494.4h25.3c3.1 0 6-.8 8.2-2.3l3.2-2.2h-73.4l3.2 2.2c2.1 1.5 5.1 2.3 8.2 2.3h25.3z"/><path id="XMLID_296_" class="st24" d="M280.3 489.9h-270V331.3c0-2.3 1.8-4.1 4.1-4.1h261.8c2.3 0 4.1 1.8 4.1 4.1v158.6z"/><path id="XMLID_294_" style="fill:#fff;stroke:#6e6e6e;stroke-width:2;stroke-miterlimit:10" d="M20.2 337.1h250.3v142.8H20.2z"/><path class="st26" d="M220.4 384.5h-57.9v-18.4c0-4.4 3.6-8 8-8h49.9c4.4 0 8 3.6 8 8v10.4c0 4.4-3.6 8-8 8z"/><circle class="st27" cx="248" cy="371.3" r="8.2"/><path class="st28" d="M174.9 367.9h37.9m-37.9 4.3h30.8m-30.8 4.2h16"/><path class="st26" d="M220.4 458.5h-57.9v-18.4c0-4.4 3.6-8 8-8h49.9c4.4 0 8 3.6 8 8v10.4c0 4.4-3.6 8-8 8z"/><circle class="st27" cx="248" cy="445.3" r="8.2"/><path class="st28" d="M174.9 441.9h37.9m-37.9 4.3h30.8m-30.8 4.2h16"/><path class="st29" d="M106.8 422.8h57.9v-18.4c0-4.4-3.6-8-8-8h-49.9c-4.4 0-8 3.6-8 8v10.4c-.1 4.4 3.5 8 8 8z"/><circle cx="79.1" cy="409.6" r="8.2" style="fill:none;stroke:#0082c8;stroke-width:2;stroke-miterlimit:10"/><path class="st28" d="M152.2 406.2h-37.8m37.8 4.3h-30.8m30.8 4.2h-15.9"/><path class="st26" d="M21.1 338.1h43v140.8h-43z"/><circle id="XMLID_1138_" cx="34.1" cy="327.6" r="57" style="fill:#f2f2f4;enable-background:new"/><circle id="XMLID_382_" cx="34.1" cy="327.6" r="57" style="fill:none;stroke:#696992;stroke-width:3;stroke-miterlimit:10"/><g id="XMLID_1137_"><defs><circle id="SVGID_1_" cx="34.5" cy="335" r="49"/></defs><clipPath id="SVGID_2_"><use xlink:href="#SVGID_1_" style="overflow:visible"/></clipPath><g id="XMLID_1120_" style="clip-path:url(#SVGID_2_)"><path id="XMLID_1068_" class="st26" d="M67.1 342.3c7.6 23.8-3.6 41.8-32.9 41.8-30.9 0-39.9-18-32.6-41.8 4.6-15 2.8-31.4 7.5-38.8 6.7-10.6 12.8-14.7 25-14.7 11.6 0 18.9 3.7 23.7 14 3.9 8.2 4.3 24.1 9.3 39.5z"/><path id="XMLID_1065_" d="M33.9 288.7c-11.6 0-17.8 3.7-24.7 14.5-2.5 3.9-3.1 10.3-3.9 17.8-.7 6.5-1.4 14-3.6 21-3.9 12.5-3 22.9 2.3 30 5.5 7.5 15.6 11.2 29.9 11.2 14 0 24.3-4.1 30-11.9 5.4-7.4 6.3-17.6 2.5-29.4-2.4-7.6-3.8-15.4-5-22.2-1.2-7.1-2.3-13.2-4.3-17.4-4.3-9.5-11.3-13.6-23.2-13.6z" style="fill:none;stroke:#5c5c74;stroke-miterlimit:10"/><path id="XMLID_1064_" d="M-7.7 397.9c0-17.5 18.9-31.7 42.1-31.7s42.1 14.2 42.1 31.7" style="fill:#fff;stroke:#5d5c74;stroke-miterlimit:10"/><path id="XMLID_1063_" class="st36" d="M43.9 318c-9 0-16.8-3.7-20.6-9-1.5 6.1-5.7 10.5-10.8 11.2v19.5c0 7.5 4.7 16.9 12.1 21.6v7.5c0 4.2 2.6 10.1 9.6 10.1 6.7 0 9.8-5.9 9.8-10.1v-7c7.9-4.5 12.1-14.3 12.1-22.1v-24.8c-1.3 2.4-4.5 3.1-12.2 3.1z"/><path id="XMLID_1060_" class="st37" d="M34.1 379c-7.4 0-10-6.3-10-10.5v-7.4c-7-4.6-12.1-13.7-12.1-21.8v-19.5c0-.2.2-.3.3-.4 4.9-.6 9-4.8 10.5-10.8.1-.2.2-.3.3-.3.2 0 .3.1.4.2 3.9 5.5 11.6 8.8 20.2 8.8 7.9 0 10.6-.7 11.8-2.9.1-.2.3-.2.5-.2.2.1.3.2.3.4v24.8c0 7.4-3.8 17.5-12.1 22.4v6.7c.1 4.3-3 10.5-10.1 10.5zm-21.3-58.9v19.2c0 7.9 5 16.8 11.9 21.3.1.1.2.2.2.3v7.5c0 3.9 2.5 9.6 9.2 9.6 6.4 0 9.4-5.6 9.4-9.6v-7c0-.1.1-.3.2-.3 7.9-4.5 11.9-14.4 11.9-21.8v-23.5c-1.9 1.9-5.5 2.3-11.7 2.3-8.6 0-16.3-3.2-20.5-8.5-1.7 5.7-5.7 9.8-10.6 10.5z"/><g id="XMLID_1058_"><path id="XMLID_1059_" class="st37" d="M38.7 347.3s-1.9 2.2-4.3 2.2c-2.3 0-4.3-2.2-4.3-2.2s1.9.3 4.3.3c2.5 0 4.3-.3 4.3-.3z"/></g><g id="XMLID_1035_"><path id="XMLID_1057_" class="st37" d="M34.7 341.5c-.7 0-1.3-.3-1.7-.8-.2-.3-.3-.8-.2-1.2l.4.1c-.1.3-.1.6.1.9.2.3.7.6 1.2.6.6 0 1.2-.2 1.4-.6.2-.3.2-.6.1-1l.3-.2c.2.6.1 1-.1 1.3-.1.5-.8.9-1.5.9z"/></g><g id="XMLID_1033_"><path id="XMLID_1034_" class="st37" d="M19.1 328.7c-.2 0-.4-.1-.6-.2-.3-.3-.3-.8-.1-1.2 1-1.1 2.5-1.7 3.9-1.6 1.2.1 2.2.7 2.8 1.7.2.4.1.9-.2 1.2-.4.2-.9.1-1.2-.2-.3-.5-.8-.8-1.5-.9-.9-.1-1.9.3-2.5 1-.2.1-.4.2-.6.2z"/></g><g id="XMLID_1029_"><path id="XMLID_1031_" class="st37" d="M50.5 328.7c-.2 0-.4-.1-.6-.2-.7-.7-1.7-1.1-2.7-1-.8.1-1.5.4-1.9 1-.3.3-.8.4-1.2.2-.3-.3-.4-.8-.2-1.2.7-1 1.9-1.5 3.2-1.6 1.5-.1 3 .5 4 1.6.3.3.3.9 0 1.2-.2-.1-.4 0-.6 0z"/></g></g></g><g id="XMLID_1140_"><path id="XMLID_1141_" class="st38" d="m-3.1 281.1-2.2-3"/><path id="XMLID_1142_" class="st38" d="m-6.4 276.7-2.2-3.1"/><path id="XMLID_1143_" class="st38" d="m-9.6 272.3-2.2-3.1"/><path id="XMLID_1144_" class="st38" d="m-12.8 267.9-2.3-3.1"/><path id="XMLID_1145_" class="st38" d="m-16.1 263.4-2.3-3"/><path id="XMLID_1146_" class="st38" d="m-19.4 259-2.2-3.1"/><path id="XMLID_1147_" class="st38" d="m-22.6 254.6-2.3-3.1"/></g><g id="XMLID_361_"><path id="XMLID_369_" class="st38" d="m-23 395.3 2.7-2.8"/><path id="XMLID_368_" class="st38" d="m-19.1 391.3 2.6-2.8"/><path id="XMLID_366_" class="st38" d="m-15.4 387.4 2.7-2.9"/><path id="XMLID_364_" class="st38" d="m-11.5 383.4 2.6-2.9"/><path id="XMLID_363_" class="st38" d="m-7.7 379.4 2.6-2.8"/></g><g id="XMLID_353_"><path id="XMLID_359_" class="st38" d="m83.1 287.7 3-2.4"/><path id="XMLID_358_" class="st38" d="m87.3 284.3 3-2.5"/><path id="XMLID_357_" class="st38" d="m91.6 280.7 2.9-2.4"/><path id="XMLID_356_" class="st38" d="m95.8 277.2 2.9-2.4"/><path id="XMLID_355_" class="st38" d="m100 273.8 3-2.4"/></g><circle id="XMLID_352_" class="st39" cx="118.6" cy="256.8" r="17.6"/><g id="XMLID_347_"><g id="XMLID_350_"><path id="XMLID_351_" class="st40" d="M112.4 257.7c0 .9-.6 1.6-1.3 1.6s-1.3-.7-1.3-1.6c0-.9.6-1.3 1.3-1.3s1.3.4 1.3 1.3z"/></g><g id="XMLID_348_"><path id="XMLID_349_" class="st37" d="M111.1 259.5c-.8 0-1.4-.8-1.4-1.8s.6-1.5 1.4-1.5c.8 0 1.4.6 1.4 1.5.1.9-.5 1.8-1.4 1.8zm0-2.9c-.6 0-1 .4-1 1.1 0 .8.5 1.4 1 1.4s1-.6 1-1.4c.1-.7-.3-1.1-1-1.1z"/></g></g><g id="XMLID_345_"><path id="XMLID_346_" class="st36" d="M115.8 266.6c-2.2-.8-3.2-3-4-6.3-.5-1.9-.7-3.1-.7-5.4 0-5.5 2.9-7.6 7.4-7.6s7.6 1.2 7.6 6.7c0 8.3-2.7 13.2-7.6 13.2"/></g><g id="XMLID_343_"><path id="XMLID_344_" class="st37" d="M118.5 267.5c-.1 0-.2-.1-.2-.2s.1-.2.2-.2c4.7 0 7.4-4.7 7.4-12.9 0-5.4-3-6.5-7.4-6.5-2.3 0-4.1.6-5.3 1.7-1.3 1.2-1.9 3.1-1.9 5.7 0 2.3.2 3.6.7 5.4 1.1 4.3 2.3 5.5 3.9 6.1.1.1.2.2.1.2-.1.1-.2.2-.2.1-2.3-.8-3.3-3-4.1-6.3-.5-1.9-.7-3-.7-5.5 0-5.2 2.5-7.8 7.6-7.8 4.1 0 7.9.8 7.9 6.9-.1 8.4-3 13.3-8 13.3z"/></g><g id="XMLID_341_"><path id="XMLID_342_" class="st37" d="M118.6 260.1h-.2c-.6-.1-.8-.6-.8-.6-.1-.1 0-.2.1-.3.1-.1.2 0 .3.1 0 0 .2.3.5.3.3.1.6 0 .7-.2.1-.1.1-.3 0-.5-.3-.5-.8-2.2-.6-2.7 0-.1.1-.2.2-.1.1 0 .2.1.1.2-.1.4.3 1.9.6 2.4.2.3.2.6 0 .9-.2.4-.5.5-.9.5z"/></g><g id="XMLID_339_"><path id="XMLID_340_" class="st37" d="M114.5 256.4c-.1 0-.1 0-.1-.1-.1-.1-.1-.2 0-.3.3-.3.6-.4 1-.4.3 0 .6.2.7.4.1.1.1.2-.1.3-.1.1-.2.1-.3-.1-.1-.1-.2-.2-.4-.2s-.5.1-.6.3c-.1.1-.1.1-.2.1z"/></g><g id="XMLID_337_"><path id="XMLID_338_" class="st37" d="M122.6 256.4c-.1 0-.1 0-.1-.1-.2-.2-.5-.3-.7-.3s-.4.1-.6.2c-.1.1-.2.1-.3.1-.1-.1-.1-.2-.1-.3.2-.2.5-.4.8-.4.3 0 .8.1 1 .4.1.1.1.2 0 .3v.1z"/></g><g id="XMLID_335_"><path id="XMLID_336_" class="st37" d="M118.5 262.8c-.6 0-1-.2-1.2-.6-.1-.1-.1-.2.1-.3.1-.1.2-.1.3.1.2.2.6.3 1 .3.5 0 .9-.2 1-.5.1-.1.2-.1.3-.1.1.1.1.2.1.3-.2.3-.8.6-1.4.6l-.2.2z"/></g><g id="XMLID_330_"><g id="XMLID_333_"><path id="XMLID_334_" class="st40" d="M125.5 259.7c1 .1 1.9-1 1.9-1.9.1-1-.9-1.3-1.6-1.2"/></g><g id="XMLID_331_"><path id="XMLID_332_" class="st37" d="M125.6 259.9h-.1c-.1 0-.2-.1-.2-.2s.1-.2.2-.2c.5.1.8-.2 1-.3.3-.3.6-.8.6-1.4 0-.3-.1-.6-.2-.7-.2-.2-.7-.3-1.1-.3-.1 0-.2-.1-.2-.2s.1-.2.2-.2c.6-.1 1.1.1 1.4.4.3.2.4.6.4 1-.1.6-.3 1.2-.8 1.7-.4.3-.8.4-1.2.4z"/></g></g><path id="XMLID_329_" d="M125.9 256.7c1-3.2 1-5.9.6-8.6-.3-1.4-.9-2.5-.9-2.5-1.4.3-1.8-.6-5.6-1-2.7-.3-4 .5-4.5 1 0 0-.9-.4-2.6.3-1.7.7-3 2.6-2.1 8.5.3 2.3 1 4.5 1 4.5s-.3-4.7.3-6.5c.1-.1.1-.2.1-.2l.3-.6c1-1.2 2.9-1.4 3.6-.6.8.8 2.3.7 2.3.7s1.4.1 2.3-.7c.8-.8 3.4-.4 4.1 1.4s.3 6.5.3 6.5.6-.9.8-2.2z" style="fill:#0082c8;stroke:#5c5c74;stroke-miterlimit:10"/><circle id="XMLID_328_" class="st39" cx="-34.1" cy="238.2" r="18"/><circle id="XMLID_588_" class="st39" cx="-34.1" cy="404.8" r="18"/><g id="XMLID_9_"><g id="XMLID_326_"><path id="XMLID_327_" class="st36" d="M-37.2 250.8c-2.8-1-3.9-3.8-5-7.6-.6-2.3-.8-3.9-.8-6.7 0-6.7 3.5-9.3 9.2-9.3 5.6 0 9.4 1.4 9.4 8.3 0 10.2-3.4 16.2-9.4 16.2"/></g><g id="XMLID_324_"><path id="XMLID_325_" class="st37" d="M-33.9 251.9c-.1 0-.2-.1-.2-.2s.1-.2.2-.2c5.8 0 9.2-5.9 9.2-15.9 0-6.7-3.7-8-9.2-8-2.9 0-5 .6-6.5 2.1-1.6 1.4-2.3 3.9-2.3 7 0 2.9.3 4.4.8 6.6 1.4 5.4 2.9 6.8 4.8 7.5.1.1.2.2.2.3-.1.1-.2.2-.3.2-2.8-1-4-3.7-5.1-7.9-.6-2.2-.9-3.8-.9-6.7 0-6.4 3-9.5 9.4-9.5 5 0 9.6 1 9.6 8.5-.1 10.1-3.6 16.2-9.7 16.2z"/></g><g id="XMLID_322_"><path id="XMLID_323_" class="st37" d="M-33.8 242.9h-.3c-.6-.1-1-.6-1-.6-.1-.1 0-.3.1-.3.1-.1.3 0 .3.1 0 0 .2.3.6.4.4.1.8-.1.9-.2.1-.2.1-.3-.1-.6-.3-.6-1-2.6-.8-3.4.1-.1.2-.2.3-.2.1.1.2.2.2.3-.1.5.4 2.3.8 3 .2.3.2.8 0 1.1-.1.2-.4.4-1 .4z"/></g><g id="XMLID_320_"><path id="XMLID_321_" class="st37" d="M-38.8 238.2c-.1 0-.1 0-.2-.1s-.1-.2 0-.3c.3-.3.8-.6 1.2-.5.3.1.6.2.9.6.1.1.1.3-.1.3-.1.1-.3.1-.3-.1-.1-.2-.3-.2-.5-.3-.3 0-.6.1-.8.3-.1.1-.1.1-.2.1z"/></g><g id="XMLID_318_"><path id="XMLID_319_" class="st37" d="M-29 238.2c-.1 0-.1 0-.2-.1-.2-.2-.6-.3-.9-.3-.2 0-.5.1-.6.3-.1.1-.2.1-.3.1-.1-.1-.1-.2-.1-.3.2-.3.6-.5 1-.5.5 0 1 .2 1.2.5.1.1.1.2 0 .3h-.1z"/></g><g id="XMLID_316_"><path id="XMLID_317_" class="st37" d="M-34 246c-.6 0-1.2-.2-1.4-.6-.1-.1-.1-.3.1-.3.1-.1.3-.1.3.1.2.3.6.4 1.1.4.6 0 1-.2 1.2-.6.1-.1.2-.2.3-.1.1.1.2.2.1.3-.2.5-1 .8-1.7.8.1 0 0 0 0 0z"/></g><g id="XMLID_311_"><g id="XMLID_314_"><path id="XMLID_315_" class="st40" d="M-42.2 242.4c-1.3-.1-2.1-1.4-1.9-2.5s1.3-1.4 2.2-1.2"/></g><g id="XMLID_312_"><path id="XMLID_313_" class="st37" d="M-42.2 242.6c-.6-.1-1.2-.3-1.6-.8-.5-.6-.7-1.3-.6-2 .1-.5.3-.9.6-1.1.5-.3 1.2-.4 1.9-.2.1.1.2.2.2.3-.1.1-.2.2-.3.2-.5-.1-1-.1-1.4.2-.2.2-.4.4-.5.8-.1.6.1 1.2.5 1.7.2.3.6.6 1.2.6.1 0 .2.1.2.3h-.2z"/></g></g><g id="XMLID_306_"><g id="XMLID_309_"><path id="XMLID_310_" class="st40" d="M-25.4 242.3c1.4.1 2.2-1.2 2.3-2.3.1-1.1-1-1.6-1.9-1.4"/></g><g id="XMLID_307_"><path id="XMLID_308_" class="st37" d="M-25.2 242.6h-.2c-.1 0-.2-.1-.2-.3s.1-.2.3-.2c.6.1 1-.2 1.2-.4.5-.4.8-1 .8-1.7 0-.3-.1-.6-.3-.8-.3-.3-.8-.4-1.4-.3-.1 0-.2-.1-.3-.2 0-.1.1-.2.2-.3.6-.1 1.4.1 1.8.6.3.3.5.8.5 1.2-.1.8-.4 1.5-1 2-.4.2-.9.4-1.4.4z"/></g></g><g id="XMLID_304_"><path id="XMLID_305_" class="st26" d="M-40.2 230.8c1.3 1.4 3.6 3.2 9 3.6 2.4.2 4.1-.2 4.9.8 1.1 1.4 1.3 3.4 1.2 4.7-.1.6 1.9-1.8 1.9-1.8-.8-1.2.8-3.9.3-7.5-.2-1.5-3.3-4.8-7.7-5.9-5.5-1.4-8.5 1.3-9.9 2.6-1.1 1-2.6.6-3.8 3-1 2.2.7 6.3.4 7.6-.1.6.4.4 1.6 1.9.5.6.6-1.8.6-3.1.1-1.4 1.5-5.9 1.5-5.9z"/></g><g id="XMLID_302_"><path id="XMLID_303_" class="st37" d="M-25.1 240.2c-.1 0-.2-.1-.2-.1-.1-.1-.1-.1-.1-.2.1-1 0-3.1-1.1-4.5-.6-.6-1.4-.6-2.9-.6-.6 0-1.1 0-1.9-.1-5.1-.3-7.5-2-8.8-3.4-.3 1.1-1.3 4.3-1.4 5.4 0 .2-.1.6-.1.8-.1 2-.2 2.7-.7 2.7-.1 0-.2-.1-.3-.2-.6-.6-.9-1-1.2-1.2-.3-.2-.6-.5-.5-.9.1-.4-.1-1.3-.3-2.2-.3-1.8-.8-3.9-.1-5.4.8-1.7 1.8-2.1 2.6-2.3.4-.2.9-.3 1.2-.7 1-1 3.4-3 7.1-3 1 0 2 .1 3 .4 1.9.6 3.9 1.5 5.5 2.9 1.4 1.2 2.2 2.4 2.3 3.3.2 1.9-.1 3.5-.3 4.9-.2 1.1-.4 2.1-.1 2.5.1.1.1.2 0 .3-1.3 1.6-1.6 1.6-1.7 1.6zm-8.5-15.6c-3.6 0-5.8 2-6.8 3-.4.4-1 .6-1.4.8-.8.3-1.7.6-2.3 2.1-.6 1.3-.2 3.4.2 5.1.2 1 .4 1.9.3 2.5-.1.2-.1.2.3.4l1.1 1.1c.1-.4.2-1.4.2-2.1 0-.3.1-.6.1-.8.1-1.4 1.4-5.7 1.5-5.9 0-.1.1-.2.2-.2s.2 0 .2.1c1.2 1.4 3.4 3.2 8.7 3.5.6.1 1.2.1 1.8.1 1.5 0 2.6 0 3.3.8 1.1 1.3 1.3 3.2 1.2 4.4.3-.3.8-.9 1.3-1.4-.3-.6-.1-1.6.1-2.7.2-1.3.6-2.9.3-4.7-.2-1.4-3.2-4.7-7.5-5.7-.9-.3-1.9-.4-2.8-.4z"/></g><g id="XMLID_300_"><path id="XMLID_301_" class="st37" d="m-39.4 229.6.1.1s.1.1.2.1l.2.2c.1.1.2.1.2.2.1.1.2.1.3.2s.2.1.3.2c.1.1.2.2.3.2.1.1.2.1.3.2.1.1.2.1.3.2.1.1.2.1.3.2.1.1.2.1.2.2.1.1.2.1.2.1.1.1.1.1.2.1.1.1.2.1.2.1h-.4c-.1 0-.2 0-.3-.1-.1 0-.2-.1-.3-.1-.1-.1-.2-.1-.3-.1-.1-.1-.2-.1-.3-.2s-.2-.2-.3-.2c-.1-.1-.2-.2-.3-.2l-.3-.3c-.1-.1-.2-.2-.2-.3s-.1-.2-.2-.3c-.1-.1-.1-.2-.1-.2-.1-.1-.1-.1-.1-.2l-.2-.1z"/></g></g><g id="XMLID_402_"><g id="XMLID_408_"><path id="XMLID_409_" class="st42" d="M-23.8 405.9c0 1-.6 1.9-1.4 1.9-.8 0-1.8-.8-1.8-1.9 0-1 1-1.9 1.8-1.9.7 0 1.4.9 1.4 1.9z"/></g><g id="XMLID_403_"><path id="XMLID_404_" class="st37" d="M-25.3 408c-1 0-2-.9-2-2.1 0-1.2 1-2.1 2-2.1s1.7 1 1.7 2.1c.1 1.1-.7 2.1-1.7 2.1zm0-3.7c-.7 0-1.5.7-1.5 1.6 0 .9.8 1.6 1.5 1.6s1.2-.7 1.2-1.6c.1-.9-.5-1.6-1.2-1.6z"/></g></g><g id="XMLID_394_"><g id="XMLID_399_"><path id="XMLID_401_" class="st42" d="M-40.3 407.5c0 1-.7 1.9-1.7 1.9-.9 0-1.9-.9-1.9-1.9s1-1.9 1.9-1.9c1 0 1.7.8 1.7 1.9z"/></g><g id="XMLID_395_"><path id="XMLID_396_" class="st37" d="M-41.9 409.7c-1 0-2.2-1-2.2-2.2 0-1.2 1.2-2.2 2.2-2.2 1 0 1.9 1 1.9 2.2 0 1.3-.9 2.2-1.9 2.2zm0-3.9c-.8 0-1.7.8-1.7 1.7s1 1.7 1.7 1.7c.8 0 1.4-.8 1.4-1.7s-.7-1.7-1.4-1.7z"/></g></g><g id="XMLID_392_"><path id="XMLID_393_" class="st36" d="M-36.5 417c-2-1-3.4-3.4-4.4-6.8-.6-2-2.3-1.9-2.3-4.5 0-6.1 4.7-9.8 9.6-9.8 5 0 8.3 1.3 8.3 7.4 0 9.2-4.1 14.4-8.3 14.4"/></g><g id="XMLID_390_"><path id="XMLID_391_" class="st37" d="M-33.6 417.9c-.1 0-.2-.1-.2-.2s.1-.2.2-.2c3.9 0 8.1-5 8.1-14.2 0-5.9-3.2-7.1-8.1-7.1-4.6 0-9.4 3.4-9.4 9.5 0 1.4.6 1.9 1.1 2.5.5.5 1 1 1.2 1.9.9 3.4 2.3 5.6 4.3 6.7.1.1.2.2.1.3-.1.1-.2.2-.3.1-2.1-1.1-3.6-3.4-4.5-7-.2-.8-.6-1.2-1-1.7-.6-.6-1.2-1.3-1.2-2.8 0-3 1-5.5 3-7.3 1.9-1.7 4.3-2.6 6.9-2.6 4.5 0 8.6 1 8.6 7.6 0 4.3-.9 8-2.6 10.7-1.8 2.4-4 3.8-6.2 3.8z"/></g><g id="XMLID_388_"><path id="XMLID_389_" class="st37" d="M-33.5 409.9h-.3c-.6-.1-.9-.6-.9-.6-.1-.1 0-.2.1-.3s.2 0 .3.1c0 0 .2.3.6.3.3.1.6 0 .8-.2.1-.1.1-.3 0-.5-.3-.6-.9-2.3-.8-3 .1-.1.2-.2.3-.2.1.1.2.2.2.3-.1.4.3 2.1.7 2.6.2.3.2.7 0 1-.2.3-.5.5-1 .5z"/></g><g id="XMLID_386_"><path id="XMLID_387_" class="st29" d="M-40.5 406.4c-.1-1 .2-1.9.5-2.8.3-1.1 1.9-4.3 1.9-4.3 2.9 2.6 5.9 3.2 8.5 3.9 2.5.6 2.9 1.5 2.9 4.1s-.8 6.1-1.3 6.7c-.5.7.2 3.1 1.8 2.9 2.2-.3 1.6-3.6 1.9-5 .2-1.2 3.9-3.8 3.4-6.3-.3-2.2-1.3-2.7-3-5.9-1.5-3-1.9-5.6-5.4-7-5.8-2.2-9.3-.1-10.3 1.2-.9 1.1-2.6 1.4-3.2 2.8-.8 1.7.2 3-.6 4.9-.8 1.9-3 3.6-3.2 5.3-.3 2.9 3.8 4.5 4 5.1.2.8-.3 4.2 1.9 4.6 1.9.3 1.6-2.2 1.6-2.2s-1-1.9-1.4-5.6c0 0-1.3-.5-1.4-1.9-.1-1.4.7-1.7.7-1.7"/></g><g id="XMLID_384_"><path id="XMLID_385_" class="st37" d="M-26.4 417.3c-.6 0-1.1-.3-1.5-1-.5-.8-.6-1.9-.2-2.3.5-.7 1.2-4.1 1.2-6.7 0-2.6-.3-3.3-2.7-3.9-.2-.1-.5-.1-.7-.2-2.3-.6-5-1.2-7.6-3.4-.3.8-1.4 3-1.8 3.9-.3 1-.5 1.9-.4 2.7 0 .1-.1.2-.2.2s-.2-.1-.2-.2c-.1-.9.1-1.9.5-2.9.3-1.1 1.9-4.2 1.9-4.3.1-.1.1-.1.2-.1s.1 0 .2.1c2.6 2.3 5.3 3 7.6 3.6.2.1.5.1.7.2 2.6.7 3 1.7 3 4.3s-.8 6.2-1.4 6.9c-.2.3-.1 1.1.3 1.9.2.3.6.8 1.2.7 1.4-.2 1.5-2.1 1.5-3.6 0-.4 0-.8.1-1.2.1-.5.6-1.1 1.2-1.9 1-1.2 2.4-2.8 2.2-4.3-.2-1.3-.6-2-1.4-3.1-.4-.6-1-1.5-1.6-2.7-.3-.6-.6-1.3-.9-1.9-1-2.1-1.7-3.9-4.4-5-5.9-2.2-9.2 0-9.9 1-.4.6-1 .9-1.5 1.2-.7.4-1.4.8-1.7 1.5-.3.8-.3 1.4-.3 2.2.1.8.1 1.7-.3 2.7-.3.9-1 1.7-1.6 2.5-.8 1-1.4 1.9-1.5 2.7-.2 1.9 1.7 3.2 3 4.1.6.5 1 .7 1 1 .1.2.1.6.1 1 .1 1.3.1 3.2 1.7 3.4.3.1.6 0 .8-.2.5-.4.5-1.4.5-1.8-.1-.3-1-2.1-1.4-5.5-.3-.2-1.3-.8-1.4-2.1-.1-1.7.8-1.9.9-1.9.1-.1.2.1.3.2.1.1-.1.2-.2.3 0 0-.6.2-.6 1.4.1 1.3 1.2 1.7 1.2 1.8l.2.2c.4 3.7 1.3 5.5 1.4 5.5v.1c0 .1.1 1.5-.6 2.2-.3.3-.8.4-1.2.3-1.9-.3-2-2.6-2.1-3.9 0-.3-.1-.7-.1-.8-.1-.1-.6-.4-.9-.7-1.3-.9-3.4-2.3-3.1-4.5.1-1 .9-1.9 1.7-3 .6-.8 1.2-1.6 1.5-2.3.3-1 .3-1.8.3-2.5s-.1-1.5.3-2.4c.4-.8 1.1-1.3 1.9-1.8.6-.3 1-.6 1.4-1.1.9-1.1 4.4-3.6 10.5-1.2 2.8 1.1 3.7 3 4.7 5.2.2.6.6 1.2.9 1.9.6 1.2 1.1 2 1.5 2.7.7 1.2 1.2 1.9 1.4 3.3.3 1.8-1.1 3.4-2.3 4.7-.6.6-1.1 1.3-1.1 1.7-.1.3-.1.6-.1 1.1 0 1.6-.1 3.9-1.9 4.1-.1-.1-.1-.1-.2-.1z"/></g><g id="XMLID_381_"><path id="XMLID_383_" class="st37" d="M-38 405.8c-.1 0-.1 0-.2-.1s-.1-.2 0-.3c.3-.3.7-.5 1.1-.4.3.1.6.2.8.5.1.1.1.2-.1.3s-.2.1-.3-.1c-.1-.1-.2-.2-.4-.2s-.6.1-.7.3h-.2z"/></g><g id="XMLID_379_"><path id="XMLID_380_" class="st37" d="M-29.2 405.8c-.1 0-.1 0-.2-.1-.2-.2-.5-.3-.8-.3-.2 0-.4.1-.6.3-.1.1-.2.1-.3.1s-.1-.2-.1-.3c.2-.3.6-.4.9-.5.4 0 .8.1 1.1.5.2.1.2.2 0 .3.2 0 .1 0 0 0z"/></g><g id="XMLID_377_"><path id="XMLID_378_" class="st37" d="M-33.6 412.7c-.6 0-1-.2-1.3-.6-.1-.1-.1-.2.1-.3.1-.1.2-.1.3.1.2.2.6.3 1 .3.5 0 1-.2 1.1-.5.1-.1.2-.2.3-.1.1.1.2.2.1.3-.2.4-.8.7-1.4.7l-.2.1z"/></g><g id="XMLID_375_"><path id="XMLID_376_" class="st37" d="m-37.5 397.3.2.2.2.2.2.2.2.2.3.3.3.3.3.3.3.3c.1.1.2.2.3.2.1.1.2.2.3.2.1.1.2.1.3.2.1.1.2.1.2.2.1.1.1.1.2.1.1.1.2.1.2.1h-.2c-.1 0-.2 0-.2-.1-.1 0-.2-.1-.3-.1s-.1-.1-.2-.1-.1-.1-.2-.1c-.1-.1-.2-.1-.3-.2-.1-.1-.2-.1-.4-.2-.1-.1-.1-.1-.2-.1h-.1c-.2-.2-.5-.4-.6-.6-.1-.1-.2-.2-.2-.3 0-.1-.1-.2-.2-.3-.1-.1-.1-.2-.2-.3-.1-.1-.1-.2-.1-.2-.1-.2-.1-.4-.1-.4z"/></g><g id="XMLID_373_"><path id="XMLID_374_" class="st37" d="M-25.9 405.6s0-.1-.1-.1c0-.1-.1-.1-.1-.1s-.1-.1-.1-.2-.1-.1-.1-.2-.1-.1-.1-.2-.1-.1-.1-.2-.1-.1-.1-.2-.1-.1-.1-.2-.1-.1-.1-.2-.1-.1-.1-.2-.1-.1-.1-.2-.1-.1-.1-.2-.1-.1-.1-.1l-.1-.1s.1 0 .1.1c.1 0 .1.1.1.1l.1.1.1.1.1.1c.1.1.1.1.1.2.1.1.1.1.1.2.1.1.1.2.1.2.1.2.1.3.1.5v.4c.5.1.5.3.5.4z"/></g></svg>