<svg xmlns="http://www.w3.org/2000/svg" viewBox="0 0 580 370" style="enable-background:new 0 0 580 370" xml:space="preserve"><style>.st0{fill:#fff}.st3{fill:#353535}.st4{fill:#046648}.st5{fill:#068460}.st6{fill:#fabb86}.st7{fill:#068963}.st8{fill:#06f4b6}.st9{fill:#00b289}.st11{fill:#059972}.st14{fill:#515151}.st16{fill:#04a077}.st17{fill:#dbdbdb}.st18{fill:#545454}.st20{fill:#ce8757}.st21{fill:#d67838}.st25{fill:#a3a3a3}.st27{fill:#b7b7b7}</style><path class="st0" d="M40-65h500v500H40z" id="BACKGROUND"/><g id="OBJECTS"><text transform="translate(237.276 378.509)" class="st0" style="font-size:29.3078px;font-family:'BebasNeueRegular'">TEAM WORK</text><path class="st3" d="M282.4 298.8h4.3v49h-4.3z"/><path class="st3" d="M316.4 298.8c0 1.6-1.3 2.9-2.9 2.9H255c-1.6 0-2.9-1.3-2.9-2.9 0-1.6 1.3-2.9 2.9-2.9h58.6c1.5 0 2.8 1.3 2.8 2.9z"/><path class="st4" d="M262.8 277.3s-4.2 2.5-5.8 8c-1.6 5.4 2.3 17.3 10.2 17.9 13.5.9 14.9-6.2 24.2-1.5s18.1 1.5 19.5-2.4c1.3-3.9 7.3-20.4-9.3-21.5-18.4-.8-38.8-.5-38.8-.5z"/><path class="st5" d="M264.8 217.5s2-12.4 8.9-13.6c6.9-1.3 16.6 1.4 16.6 1.4s7.3 6.3 9.6 11.2c2.3 4.9-30 9.9-35.1 1z"/><path class="st6" d="M273.3 181.9s7 1.4 9.1-1.8c2.1-3.2 4.1-1.6 6.8 1.9s7.2 10.8 7.7 16.7c.7 3.4-.6 5.6-.6 5.6s-1 1.3-3 1.3c-2 .1-4.2 3.1-4.2 7.9 0 6-3 6.7-3 6.7s-11.4 3.9-11.8-6.2c-.2-6 .5-7.1-.2-8.9-.6-1.8-4.7-1.8-6.9-5.1-2.1-3.3-8.6-16.7 6.1-18.1z"/><path class="st7" d="M288.6 174.8s1.2 4 0 6.4c-.6 1.1-4.6 4.5-8.1 4.4-3.5-.1-6.2 1-6.2 1h3.9s1.1 2.8 1.6 4.7-1.6 2.1-1.3 3.7c.3 1.6 2.5 4.6 2.5 4.6l-2.1 1.1s-2.3-5-4-5.4c-2.6-.6-4.5 2.2-2.5 4.3 2.3 2.4 3 2.8 2 9.2-.5-2.4-6.9-4.4-10.5-11.1-3.6-6.7-1.4-11.9 1.5-14.4-.3-3.9 4.3-7 7.4-6.6 3.2.3 6-3.3 6-3.3s-.3 2-1.6 2.8c1.4.2 2.5-1.5 2.5-1.9.3.9-.4 1.9-.4 1.9s2.6 0 3.3-1.4c.1.4-.3 1.4-.7 1.6 1.1.1 2.2 0 3.1-1.3.1.8-.3 1.6-1.3 2.1 2.1.3 3.1-2 3.2-2.5.2.8-.1 2.5-.6 3.3 1.1.1 2.1-1.8 2.3-3.2z"/><path class="st8" d="M314.1 248.7c-2.6-9.3-8-29.1-9.8-30.1-1.9-1-5.5-1.2-9.3-2.4-3.9-1.2-5.7-4.3-5.7-4.3-1 6.8-4.2 8.2-7.4 8.4-3.8-.3-6.5-1.9-7.5-8.8 0 0-1.7 3.5-5.6 4.7-3.9 1.2-7.5 1.4-9.3 2.4-1.9 1-7.3 20.8-9.8 30.1-2.6 9.3-3.6 11.4 0 13 2.3 1 8.5 1.8 12.4 2.2-.1 5.4-.1 10.2.1 12.7 12.5 5.3 28.1 7.2 39.6 0 .2-2.5.2-7.3.1-12.7 3.9-.4 10-1.2 12.4-2.2 3.4-1.5 2.4-3.7-.2-13zm-51.9 6.9c-2-.2-3.9-.4-4.2-.6-.8-.4 4.7-15.2 4.7-15.2s-.3 7.5-.5 15.8zm43.6-.6c-.4.2-2.2.4-4.2.6-.2-8.4-.5-15.8-.5-15.8s5.5 14.8 4.7 15.2z"/><path class="st9" d="M314.1 248.7c-2.6-9.3-8-29.1-9.8-30.1-1.9-1-4.9-2.7-8.8-3.8-.5-.1-1.8-1.1-2.2-1.3-4.7 22.3-2.8 65.7.9 71.3 4.5-2.6 7.5-6 13.5-5.6 1.3.1-5.8-8.3-5.9-15.2 3.9-.4 10-1.2 12.4-2.2 3.5-1.6 2.5-3.8-.1-13.1zm-8.3 6.3c-.4.2-2.2.4-4.2.6-.2-8.4-.5-15.8-.5-15.8s5.5 14.8 4.7 15.2z"/><path class="st5" d="M295.8 213.5c-.5-.1-2.1.2-2.6 0-1.4 6.7-2.4 13.7-3 20.8 2.2-6.7 5.7-12.5 9.6-17.8-1.2-.6-2.3-2.5-4-3z"/><path class="st9" d="M271.7 213c-.8.6-2.5 2.1-3.7 2.5-3.9 1.2-6.7 2.3-8.5 3.2-1.9 1-7.3 20.8-9.8 30.1-2.6 9.3-3.6 11.4 0 13 2.3 1 8.5 1.8 12.4 2.2-.1 6.9-6.7 15.7-4.7 20.3 0 0 1.2-6.6 16.9 0 4.8-12.4 4.6-48.8-2.6-71.3zm-9.5 42.6c-2-.2-3.9-.4-4.2-.6-.8-.4 4.7-15.2 4.7-15.2s-.3 7.5-.5 15.8z"/><path class="st5" d="M271.7 213c-.8.6-2.8.2-3.9.6-1 .3-1.7 2.5-2.5 2.8 4.5 4.6 8.1 9.6 10.8 15.1-1.1-6.3-2.5-12.5-4.4-18.5z"/><path d="M283.2 348.1s12.6-22.7 18.7-32.4 11.3-19.4 11.1-26.1c-.2-6.7-1.7-8.1-4.5-8.9-2.8-.8-9.1 1.6-11.9 5.5-2.8 4-8.3 21.4-14 38l-7.1 20.6c-.1 0 2.5 3.3 7.7 3.3z" style="fill:#08724f"/><path class="st11" d="M276.7 340.4s-5 8.9-9.3 11.9c-4.4 3-8.8 4.5-10.8 8-.6 2.3 17.2 1.7 23.3-1.5 2.8-1.4 4.2-8 5.6-13.6 1.2-5.6-8.8-4.8-8.8-4.8z"/><path class="st11" d="M289.2 339.3s-8.9 1-10.4-5.5c-2.2 2.1-5.3 6.1-5.3 6.1s4.1 6.6 13.7 6.3c1.1-2.2 2-6.9 2-6.9z"/><path class="st5" d="M286.3 348.1s-12.6-22.7-18.7-32.4-11.3-19.4-11.1-26.1c.2-6.7 1.7-8.1 4.5-8.9 2.8-.8 9.1 1.6 11.9 5.5 2.8 4 8.3 21.4 14 38l7.1 20.6c.1 0-2.4 3.3-7.7 3.3z"/><path class="st9" d="M292.8 340.4s5 8.9 9.3 11.9c4.4 3 8.8 4.5 10.8 8 .6 2.3-17.2 1.7-23.3-1.5-2.8-1.4-4.2-8-5.6-13.6-1.2-5.6 8.8-4.8 8.8-4.8z"/><path class="st9" d="M280.8 338.3s8.3 3 9.8-3.6c2.4 0 5.5 5.2 5.5 5.2s-4.1 6.6-13.7 6.3c-2.4-3.5-1.6-7.9-1.6-7.9zm-106.3 2.3s-1.6 4.9.9 12.2c1.7 2.8 13.2 6.9 13.2 6.9s1.9 3.3-9.9 2.6c-6.1-.3-14.8-11.4-16.5-14.7-1.7-3.3.7-4.6 2.8-5.6 2.1-1 3.5-3 3.5-3s5.1-.3 6 1.6z"/><path class="st4" d="M148.5 289.7s2.8-3.6-2.3 5.1 49.6-6.2 50.8-3.3c-1.4 4.4-7.7-.2-14.1 17.4-6.1 16.7-15.4 30.4-15.4 30.4l7.4 6s12.8-17.1 24.9-31.1c12.1-14 18.8-26.3 12.6-31.1 0 0 .8-5.5-54.2 3.3-8.9 1.3-9.7 3.3-9.7 3.3z"/><path style="fill:#303030" d="M198 266.6h41.2v.9H198z"/><path d="M252.2 227.1c.1-.4.6-.7 1-.5.4.1.7.6.5 1l-12.3 40c-.1.4-.6.7-1 .5-.4-.1-.7-.6-.5-1l12.3-40z" style="fill:#8c8c8c"/><path class="st14" d="M196.6 267.2v.4c0 1.2.8 2.1 1.7 2.1h40.1c.9 0 1.7-1 1.7-2.1v-.4h-43.5z"/><path d="M370.5 340.9s-1.4 7.3-10.4 12-.7 6.9 7.7 5.6 9.5-6.1 12.2-7.7c2.6-1.6-.5-6-1.4-8.9-.9-3.1-8.1-1-8.1-1zm-33.6 1.2s-3.5 6.5-13.5 8.2c-10 1.7-2.8 6.4 5.6 7.7 8.3 1.3 10.9-2.9 13.9-3.6 3-.7 1.4-5.9 1.4-8.9.1-3.2-7.4-3.4-7.4-3.4z" style="fill:#048c65"/><path class="st16" d="M330.4 233.6s-1.1 33.7.3 51.4c1.5 17.7 3.6 43.8 2 59.8 8.2 1.4 12.9 0 12.9 0s3.5-30.6 3.6-45.3c.2-14.7 4.3-36.3 5.2-38.8 3 10.2 12.7 71.8 14.2 82.3 8.1.6 10.8-1.2 10.8-1.2s-.2-31.5-3.3-48c-3.1-16.5-.1-52.3-3.9-65.8-15.3-7-41.8 5.6-41.8 5.6z"/><path class="st9" d="M336.3 162s-5.7 2.1-9 4-14.2 29.8-18.1 35.4c-3.8 5.5-24.3 30-24.3 30v8.1s20-14.6 31.7-28.2c5.7-6.6 13.4-19.1 13.4-19.1s5 22.3-2.6 47.1c24.6 7.2 47-1 47-1s-3.9-18.2-3.4-52.6l5.3 25 4.7 31.5 8.1-6.3s-.7-26.9-3.3-37.2c-8.1-25.6-15.1-36.2-20.6-39.5-5.5-3.3-13-4.4-17.5-3.9-4.7.5-11.4 6.7-11.4 6.7z"/><path class="st6" d="M325.6 132.1s-3.8 6-7.6 5.4c-3.8-.6-4 1.9-3.3 6.2.7 4.3 2.9 12.7 6.8 17.1 2 2.8 4.5 3.5 4.5 3.5s1.6.2 3-1.2 5.1-.9 8.6 2.4c4.3 4.1 8.4-2.5 8.4-2.5s3.8-6.2 2.1-7.8c-4.3-4.3-5.5-4.6-6.3-6.2-.9-1.7 1.9-4.7 1.1-8.6-.9-4-6.1-17.9-17.3-8.3z"/><path class="st7" d="M315.3 140.9s3.3 1.5 8.7-.1c6-1.8 6.9-2.9 7.5 0 .6 2.9 1.5 3.3 3.1 3.8 1.6.6 2.5 3.9 2.5 3.9l1.5-1.5s-1.1-1.8-.9-4.3 2.7-2.7 3.8-.5c1.2 2.2-1.4 5.4 1.5 8 1-4.6 2.2-13.9-4.3-19.9-6.5-6-21.3.2-22.9 4.2-1.6 4.1-.2 5.7-.5 6.4z"/><path class="st9" d="M314.8 144.4s5.5-3.1 15-3.7c8.7-.5 13.9 2.1 13.9 2.1s1.3-9.7-4.1-14c-5.4-4.3-17-3.6-21.9 0-5 3.6-4.7 9.4-2.9 15.6z"/><path class="st16" d="M331.5 140.6s-9.9-2.4-17.1-1.9-14.6 5.6-10.1 9.1 11.9 2.6 11.9 2.6-1.1-4.4-1-5.2c3.5-2.9 13.9-4.6 16.3-4.6z"/><path class="st17" d="M310.8 265.3c0 .9-.7 1.6-1.6 1.6h-53.6c-.9 0-1.6-.7-1.6-1.6v-34.6c0-.9.7-1.6 1.6-1.6h53.6c.9 0 1.6.7 1.6 1.6v34.6z"/><path class="st14" d="M310.8 269.4c0 .2-.3.3-.7.3h-55.3c-.4 0-.7-.1-.7-.3v-2.1c0-.2.3-.3.7-.3h55.3c.4 0 .7.1.7.3v2.1z"/><path class="st9" d="M398.4 332.2s2.3 4.4 1.2 11.8c-1.2 3-13 9.6-13 9.6s0 2.5 11.4 1.2c7.5-.8 12.3-14.5 13.4-17.9 1.1-3.4-1.4-4.3-3.6-4.9-2.2-.6-3.9-2.3-3.9-2.3s-5 .5-5.5 2.5z"/><path class="st4" d="M416.6 277.1s-3.3-3 3.1 4.5-48.5 2.3-49.2 5.3c2.1 3.9 7.3-1.5 16.4 14.3 8.6 15 19.9 29.6 19.9 29.6l-7.8 5.7s-13.6-16-27.5-27.4c-13.9-11.4-22.4-22-17.2-27.7 0 0-1.6-5.2 52.5-5.9 8.7-.2 9.8 1.6 9.8 1.6z"/><path class="st3" d="M409.3 355.8s-30.4 3.7-31.2 3.8c-.8.1-1-2.6 2.6-3.8 3.6-1.2 25.6-5.1 25.6-5.1l3 5.1z"/><path class="st3" d="M409.3 355.8s30.4 3.7 31.2 3.8c.8.1 1-2.6-2.6-3.8-3.6-1.2-25.6-5.1-25.6-5.1l-3 5.1z"/><path class="st18" d="M405.3 309h7.9v47.3h-7.9z"/><path class="st3" d="M403.3 302.3h11.9v8.1h-11.9z"/><path class="st3" d="m375.9 304.8 65.5-.1 19.6-79.2-3.5-.9-19.5 75.7-62 .1z"/><path class="st18" d="M457.3 225.5s-9.6-2.4-11.4 13-6.5 44.9-10.3 49.6c-3.8 4.7 1.1 10.9 2.4 12.2 2.8-11 19.3-74.8 19.3-74.8z"/><path class="st18" d="M377.7 300.4H438s-.7-6.8-7.2-6.8-21.2 4.7-27.4 3.7c-6.1-1.1-26.4-7.1-25.7 3.1z"/><path class="st9" d="M340.4 347.8s-7.7 5.8-22.3 7.9c-7.5.8-8.6 1.3-8.6 1.3s-1.4 3.4 4.4 3.8c5.7.4 23.2.9 26.7.7 3.6-.2 3.5-2.8 3.3-5.1-.2-2.3.8-4.4.8-4.4s-2.3-4.4-4.3-4.2z"/><path class="st5" d="M433.6 276.4s5.7 8.3-.1 16.2c-5.8 7.9-54.1 9.5-57.1 9.6-3.3 2.9 3.2 12.2-10.1 24.7-12.6 11.9-21.3 25.5-21.3 25.5l-8.2-4.3s10.3-23.5 18.2-39.7c7.9-16.2 12.4-25.3 20.1-25.4l35.3-7.5c8.5-2.4 23.2.9 23.2.9z"/><path d="m435.3 276.4.1 4.5s-11.5-7.9-26.3-7.1c.8-1.8 1.3-3.5 1.3-3.5l24.9 6.1z" style="fill:#999"/><path class="st6" d="M401.3 186.5s-2.2 8-.7 10.3c-1.4 3.3-2.7 5.1-2.7 5.1l3 1.6s1.2 2.5.9 3.5c-.4 1-.7 2.3 1 3.6 1.7 1.2 8.8.3 8.8.3s1.1 4.6 1.6 7.5c.5 2.9 9.7.2 9.7.2l-1.2-9.7s5.7-11 5.9-17.6c.3-6.6-5.3-12.6-11.8-12.8-6.4-.2-13.6 3.5-14.5 8z"/><path class="st7" d="M406.2 206.8s-1.1-3.2-2-3.8c-1-.6-2.8.5-3.7.1-1-.4 0 1.5.6 1.8.9-.4 1.9-.7 3-.2 1.1.5 1.5 2.5 1.2 3-.3.5-1.1 1.4-2.1.9-1.1-.6-1.4-1-1.3-1.6-.7.2-1.1 1.4-.7 3.1.4 1.7 2.8 1.8 2.8 1.8l5.7-.9c-.1.1-3.5-1.4-3.5-4.2zm-5.2-11.2s-.3-1.7.4-2.3c.7-.6 4.8 2.2 6.3 1.9-2.5.8-6.4-.7-6.7.4z"/><path class="st16" d="M422.3 213.7s-5.1 7.7-8.7 4.7c-1.3 2.1-7.2 12.6-8.3 17.6-1.1 5-2 12.1-.5 18.7 1.4 6.6-1.6 15.5-3.3 20.7 8.3 0 33.4 5 36.6 8.8-.2-7.8-.2-15.4.6-21 1.3-9.7 2.4-40.7-16.4-49.5z"/><path class="st6" d="M433.2 260.7s-4.6-22.9-7.4-28.6c-2.8-5.6-1.9-9.1 3.3-8.4 5.1.7 7.1 6.4 7.1 6.4s6.5 27.6 5 35.8c-1.6 8.2-16.1 3.5-23.6 3.5-7.5-.1-20.9 0-20.9 0l-4-4.9c3.6-2.4 40.5-3.8 40.5-3.8z"/><path class="st9" d="M427.8 219.9c-5.1-.7-6.8 6.3-4 11.9 1.2 2.4 2.6 7.5 3.9 12.6 3.5-2.1 7.5-3.3 11.6-3.9-1.4-6.8-2.8-12.2-2.8-12.2s-3.6-7.7-8.7-8.4z"/><path class="st7" d="M401.8 184.9s7.5.7 11.1 1.9 1.2 4.1.7 4.5-1.2 2.9.2 4.4c1.4 1.5 1.1 3.5 1.1 3.5h1.5s.2-4.7 3-3.9c2.8.8 1.3 3.7 1.3 5.7s.1 7.2.9 8.1c1.7-2.6 6.5-12.7 6.4-19.1-.1-6.4-5.9-11.4-12.1-11.9-6.2-.5-13.1 3.5-14.1 6.8z"/><path class="st6" d="M377.6 237.3s-3.3-2.9-5.1-5.9c-1.8-3-2.6-4.4-2.6-4.4s-5.7-2.8-7.1-3.3c-1.4-.6-8.7 1-10.9.8-.6 1.2 2.8 1.3 4.5 1.2 1.7-.1 4 0 4 0l-3.7 1.3s-1.7 3-2.1 3.3c.3.6 1.3.7 2.8-1.7 1.4-.8 4.7-.4 4.7-.4s-2.8.7-3.5 1c-.6.3-2.3 2.3-2.3 2.3s-.1 1.4 2.8-1c1.7-1.4 2.7-.2 5 2.2 2.3 2.4 3.5 2.1 3.5 2.1l6.6 7.5 3.6-4.8"/><path class="st17" d="M414.9 266.1c0 .7-.6 1.3-1.3 1.3H370c-.7 0-1.3-.6-1.3-1.3V238c0-.7.6-1.3 1.3-1.3h43.6c.7 0 1.3.6 1.3 1.3v28.1z"/><path class="st14" d="M414.9 269.4c0 .2-.3.3-.6.3h-45.1c-.3 0-.6-.1-.6-.3v-1.7c0-.2.3-.3.6-.3h45.1c.3 0 .6.1.6.3v1.7z"/><path class="st20" d="M214 274.3h5.7v87.5H214z"/><path class="st21" d="M223.7 361.7c0 .4-.3.6-.6.6h-12.5c-.4 0-.6-.3-.6-.6 0-.4.3-.6.6-.6h12.5c.3 0 .6.3.6.6z"/><path class="st3" d="M160.3 361.9s30.4 3.7 31.2 3.8c.8.1 1-2.6-2.6-3.8-3.6-1.2-25.6-5.1-25.6-5.1l-3 5.1zm0 0s-30.4 3.7-31.2 3.8c-.8.1-1-2.6 2.6-3.8 3.6-1.2 25.6-5.1 25.6-5.1l3 5.1z"/><path class="st18" d="M156.4 315.2h7.9v47.3h-7.9z"/><path class="st3" d="M154.4 317.6h11.9v8.1h-11.9z"/><path class="st3" d="m193.7 320.1-65.5-.1-19.6-79.1 3.5-.9 19.5 75.6 62 .2z"/><path class="st18" d="M112.3 240.9s9.6-2.4 11.4 13c1.8 15.4 6.5 44.9 10.3 49.6 3.8 4.7-1.1 10.9-2.4 12.2-2.8-11-19.3-74.8-19.3-74.8z"/><path class="st18" d="M191.9 315.8h-60.3s.7-6.8 7.2-6.8 21.2 4.7 27.4 3.7c6.1-1.2 26.4-7.1 25.7 3.1z"/><path d="M206.6 257.8s4.2-1.3 7.1-3.2c2.9-2 4.2-2.9 4.2-2.9s6.4-.1 7.9-.1 7.5 4.5 9.6 5.3c0 1.4-3.1 0-4.6-.8-1.5-.8-3.7-1.7-3.7-1.7l2.8 2.7s.3 3.4.6 3.9c-.6.4-1.5.1-1.8-2.7-1-1.3-4.1-2.3-4.1-2.3s2.3 1.8 2.7 2.3c.4.5 1.1 3.1 1.1 3.1s-.5 1.3-2.2-2.1c-.9-1.9-2.3-1.3-5.5-.1-3.1 1.2-4 .5-4 .5l-9.1 4-1.2-5.9" style="fill:#e5a576"/><path class="st9" d="M245.4 347s8.3 6.6 24.2 9.4c8.2 1.1 9.3 1.7 9.3 1.7s1.4 3.8-4.9 4c-6.3.2-25.3.3-29.2 0-3.9-.3-3.8-3.2-3.5-5.7.3-2.5-.7-4.9-.7-4.9s2.6-4.9 4.8-4.5z"/><path class="st5" d="M131.1 291.5s-4.8 10 2.8 17.5c7.6 7.6 60.1 1.1 63.3.7 4.1 2.6-2.3 7.8 14.2 19.1 15.6 10.7 27.3 23.9 27.3 23.9l8.1-6.1s-14.2-17.7-25.5-33.9-17.7-25.2-26.1-24l-39.4-2.1c-9.3-1.2-24.7 4.9-24.7 4.9z"/><path class="st4" d="m130.3 289.8-.1 5.1s13-9 29.9-8.1c-.9-2-1.5-4-1.5-4l-28.3 7z"/><path class="st9" d="M208.8 256.5c-13.1.7-38.2 3.3-38.2 3.3s-14.6-21-17-27.8c-2.4-6.8-9.4-10.9-12.9-6.2-3.5 4.8 0 13.8 0 13.8s16.9 25.2 24.8 30.3c7.9 5.2 14.4.9 25.4-1.6 7.2-1.6 14.5-3.3 19.1-4.4-.1-1-1.3-6.8-1.2-7.4z"/><path class="st6" d="M176.3 191.7s.4 9.4-1.9 11.6c.7 4 1.7 6.4 1.7 6.4l-3.8 1s-2 2.5-1.8 3.6c.1 1.2.2 2.8-2 3.7-2.2.9-9.8-2-9.8-2s-2.4 4.8-3.7 7.9c-1.3 3-10.8-2.2-10.8-2.2l3.8-10.4s-3.4-13.7-2-21.1c1.4-7.4 9.1-12.6 16.4-11.2 7.1 1.5 14 7.4 13.9 12.7z"/><path class="st7" d="M159.7 190.8s1.2 2.9 6.8 3c5.6 0 7.5 1.9 6.7 3.4 1.6-.9 1.1-2.7 1.1-2.7s2.6 1 2 3.9c.8-.7 1.4-3.3.5-5.5.8 0 1.4 1.4 1.8 2.8.1-1.3-1.4-9.6-7-13.2 1.7-.1 2.3-1.4 2.1-2.8-.2.8-1.4 4.3-5.6.2-4.2-4.1-12-3.5-14.7-.9.5-1.8 2.4-3.1 3.8-3.4-1-.2-5.5 1.5-6.2 4.5 0-2.6 1.1-4.1 1.1-4.1s-2.5 1.5-2.8 4.7c-2-.2-5.9 1.4-6.7 6.6-.8 5.2-3.1 8.1-3.5 7.5 1.2.5 2.9-.8 3.3-1.3-.6 2.5-1.8 4.7-.6 7.3 1.1 2.6 3.1 6.6 1.2 8.8 1.1-.4 2-2.2 1.9-3.7.6 1.5-.3 4.5.5 6.2.9 1.7-.4 4.3-1.2 5 1.4-.3 2.9-1.5 3.1-3.1.4 0 1 2.3.2 3.2 1-.7 2.2-1.7 2.3-4.2.5.2 1.1 1.1.6 3 .6-.3 5.2-3.1 4.3-7.2-.9-4.1-.3-8.5.2-9.5.8.5.7 3.2 0 5.1.9-.4 2-2.6 1.9-4.6 1 .4 1.5 2.6.9 3.2.8-1.1 1.1-3.4.6-4.5-.5-1.2 4-1.2 1.4-7.7zm6 22.1s2-3.3 3.2-3.6c1.2-.4 3 1.3 4.1 1.1 1.2-.2-.4 1.7-1.1 1.9-.9-.6-1.9-1.2-3.2-1s-2.3 2.4-2.1 3c.2.6.8 1.9 2.2 1.5 1.3-.3 1.8-.8 1.8-1.4.7.4.9 1.8 0 3.6s-3.6 1.3-3.6 1.3l-6.1-2.4c-.1-.2 4-.9 4.8-4z"/><path class="st7" d="M174.3 201.9s.8-1.8.1-2.7c-.6-.8-5.9 1.2-7.5.5 2.6 1.5 7.3.8 7.4 2.2z"/><path class="st9" d="M145 218.5s5.8 8.8 9.9 5.4c1.4 2.4 8.2 14.4 9.4 20.1 1.2 5.7-3.4 12.3-5 19.8s-.9 16.8 1.1 22.7c-9.5 0-27.2 1.1-30.8 5.3.3-8.9 2-13.3 1.1-19.6-1.5-11-7-43.7 14.3-53.7z"/><path class="st8" d="M129.9 266.2c.1 1 .2 1.9.4 2.8 8.9-3.5 19.4-3.5 28.4.1.1-1 .2-2.1.3-3.1-9.2-3.3-19.8-2.3-29.1.2z"/><path class="st8" d="M130.6 271.7c0 .2 0 .3.1.5.3 2 .3 3.8.2 5.6 8.8-3.2 18.2-3.9 27.6-3.2v-3.8c-9.3-2.2-18.6-1.4-27.9.9z"/><path class="st6" d="M207.8 260.2s4.4-.7 7.5-2.2c3.1-1.5 4.6-2.3 4.6-2.3s6.3.8 7.8 1c1.5.3 6.8 5.5 8.7 6.6-.2 1.4-3.1-.4-4.5-1.4-1.4-1-3.4-2.2-3.4-2.2l2.4 3.1s-.2 3.4 0 3.9c-.6.3-1.5-.2-1.4-3-.8-1.4-3.8-2.9-3.8-2.9s2 2.1 2.4 2.7c.4.6.7 3.2.7 3.2s-.7 1.2-1.8-2.4c-.7-2.1-2.1-1.6-5.4-.8-3.3.8-4.1-.1-4.1-.1l-9.6 2.7-.4-6"/><path class="st8" d="M169.7 262.6s-14.6-21-17-27.8c-2.4-6.8-9.4-10.9-12.9-6.2-3.5 4.8 0 13.8 0 13.8s16.9 25.2 24.8 30.3c7.9 5.2 14.4.9 25.4-1.6 8.4-1.9 17.6-4 21.6-4.9l-.9-7.2c-12.4.6-41 3.6-41 3.6z"/><path d="M157.9 195.4c-.2.9-1.1 1.4-2 1.2-.9-.2-1.4-1.1-1.2-2l4.6-18.6c.2-.9 1.1-1.4 2-1.2.9.2 1.4 1.1 1.2 2l-4.6 18.6z" style="fill:#adadad"/><circle cx="155.3" cy="198.9" r="5.3" style="fill:#6d6d6d"/><path class="st17" d="M325.1 257.1v7c0 2.2 1.1 4.2 2.8 5.4h7.8c1.7-1.2 2.8-3.2 2.8-5.4v-7h-13.4z"/><path class="st25" d="M342.3 269.8c0 .3-.3.6-.6.6h-19.3c-.3 0-.6-.3-.6-.6s.3-.6.6-.6h19.3c.3 0 .6.3.6.6z"/><path class="st17" d="M337.7 267.4h-.6l.2-.9s1.1.2 2.8-.4c1-.4 1.6-3.4 1.3-5.1-.1-.6-.3-.7-.3-.7h-3.8v-.9h3.8c.3 0 1 .2 1.2 1.5.3 1.8-.2 5.5-1.9 6.1-1.2.3-2.1.4-2.7.4zm-105.5-10.2v7c0 2.2 1.1 4.2 2.8 5.4h7.8c1.7-1.2 2.8-3.2 2.8-5.4v-7h-13.4z"/><path class="st25" d="M249.4 270c0 .3-.3.6-.6.6h-19.3c-.3 0-.6-.3-.6-.6s.3-.6.6-.6h19.3c.4-.1.6.2.6.6z"/><path class="st17" d="M244.9 267.5h-.6l.2-.9s1.1.2 2.8-.4c1-.4 1.6-3.4 1.3-5.1-.1-.6-.3-.7-.3-.7h-3.8v-.9h3.8c.3 0 1 .2 1.2 1.5.3 1.8-.2 5.5-1.9 6.1-1.2.3-2.2.4-2.7.4z"/><path class="st21" d="M443 361.7c0 .4-.3.6-.6.6h-12.5c-.4 0-.6-.3-.6-.6 0-.4.3-.6.6-.6h12.5c.3 0 .6.3.6.6z"/><path class="st20" d="M433.3 274.3h5.7v87.5h-5.7z"/><path style="fill:#f9ae7a" d="M182.2 270.4h289.2v7H182.2z"/><path class="st27" d="M240.7 71.6V52.9c0-6.6-5.3-11.9-11.9-11.9-6.6 0-11.9 5.3-11.9 11.9v18.7h23.8z"/><path class="st27" d="M228.1-.3h1.4v51.1h-1.4zm135 89.5V70.5c0-6.6-5.3-11.9-11.9-11.9s-11.9 5.3-11.9 11.9v18.7h23.8z"/><path class="st27" d="M350.5-.3h1.4v62.8h-1.4zm-49.9 116V97c0-6.6-5.3-11.9-11.9-11.9-6.6 0-11.9 5.3-11.9 11.9v18.7h23.8z"/><path class="st27" d="M288-.3h1.4v95.2H288z"/></g></svg>