<svg version="1.1" id="Calque_1" xmlns="http://www.w3.org/2000/svg" x="0" y="0" viewBox="0 0 739.7 582.6" style="enable-background:new 0 0 739.7 582.6" xml:space="preserve"><style>.st1{opacity:.27;enable-background:new}.st2{fill:#7777db}.st3{fill:none;stroke:#6060ba;stroke-miterlimit:10}.st4{fill:#d4d4ff}.st5{fill:#a0a0ea}.st6{fill:#ff702b}.st7{fill:none;stroke:#963c3c;stroke-width:.5741;stroke-miterlimit:10}.st10{fill:#fff}.st11,.st12{fill:none;stroke:#5a09ce;stroke-width:.5;stroke-miterlimit:10}.st12{stroke:#9b76e5}.st13{fill:#a2a2f4}.st14{fill:#7f00ff}.st16{fill:#b0affd}.st17,.st19{fill:none;stroke:#9797ef;stroke-miterlimit:10}.st19{stroke:#7777db}.st22{fill:#333d66}.st23{fill:#13172b}.st24{fill:none;stroke:#13172b;stroke-width:.5;stroke-miterlimit:10}.st25{fill:#fdc}.st26{fill:#ff8685}.st27{fill:#f66}.st28{fill:none;stroke:#963c3c;stroke-width:.5;stroke-miterlimit:10}.st29{enable-background:new}.st29,.st30{opacity:.2}.st33{fill:#262f57}.st34,.st37{stroke:#262f57;stroke-width:.5;fill:none;stroke-miterlimit:10}.st37{stroke:#fdc;stroke-width:.4872;stroke-linecap:round;stroke-linejoin:round}</style><g style="opacity:.16"><path d="M182.2 118c1 0 1.8-.8 1.8-1.8s-.8-1.8-1.8-1.8-1.8.8-1.8 1.8c0 1.1.8 1.8 1.8 1.8zm0 17c1 0 1.8-.8 1.8-1.8s-.8-1.8-1.8-1.8-1.8.8-1.8 1.8.8 1.8 1.8 1.8zm0 16.9c1 0 1.8-.8 1.8-1.8s-.8-1.8-1.8-1.8-1.8.8-1.8 1.8.8 1.8 1.8 1.8zm0 17c1 0 1.8-.8 1.8-1.8s-.8-1.8-1.8-1.8-1.8.8-1.8 1.8.8 1.8 1.8 1.8zm0 16.9c1 0 1.8-.8 1.8-1.8s-.8-1.8-1.8-1.8-1.8.8-1.8 1.8.8 1.8 1.8 1.8zm-8.3-59.5c1 0 1.8-.8 1.8-1.8s-.8-1.8-1.8-1.8-1.8.8-1.8 1.8.8 1.8 1.8 1.8zm0 16.9c1 0 1.8-.8 1.8-1.8s-.8-1.8-1.8-1.8-1.8.8-1.8 1.8.8 1.8 1.8 1.8zm0 17c1 0 1.8-.8 1.8-1.8s-.8-1.8-1.8-1.8-1.8.8-1.8 1.8.8 1.8 1.8 1.8zm0 16.9c1 0 1.8-.8 1.8-1.8s-.8-1.8-1.8-1.8-1.8.8-1.8 1.8.8 1.8 1.8 1.8zm-9-59.1c1 0 1.8-.8 1.8-1.8s-.8-1.8-1.8-1.8-1.8.8-1.8 1.8c0 1.1.8 1.8 1.8 1.8zm0 17c1 0 1.8-.8 1.8-1.8s-.8-1.8-1.8-1.8-1.8.8-1.8 1.8.8 1.8 1.8 1.8zm0 16.9c1 0 1.8-.8 1.8-1.8s-.8-1.8-1.8-1.8-1.8.8-1.8 1.8.8 1.8 1.8 1.8zm0 17c1 0 1.8-.8 1.8-1.8s-.8-1.8-1.8-1.8-1.8.8-1.8 1.8.8 1.8 1.8 1.8zm0 16.9c1 0 1.8-.8 1.8-1.8s-.8-1.8-1.8-1.8-1.8.8-1.8 1.8.8 1.8 1.8 1.8z"/><circle cx="156.7" cy="124.5" r="1.8"/><circle cx="156.7" cy="141.5" r="1.8"/><circle cx="156.7" cy="158.4" r="1.8"/><path d="M156.7 177.1c1 0 1.8-.8 1.8-1.8s-.8-1.8-1.8-1.8-1.8.8-1.8 1.8.8 1.8 1.8 1.8z"/><circle cx="147.9" cy="116.3" r="1.8"/><circle cx="147.9" cy="133.2" r="1.8"/><circle cx="147.9" cy="150.2" r="1.8"/><path d="M147.9 168.9c1 0 1.8-.8 1.8-1.8s-.8-1.8-1.8-1.8-1.8.8-1.8 1.8.8 1.8 1.8 1.8zm0 16.9c1 0 1.8-.8 1.8-1.8s-.8-1.8-1.8-1.8-1.8.8-1.8 1.8.8 1.8 1.8 1.8zm-8.3-59.5c1 0 1.8-.8 1.8-1.8s-.8-1.8-1.8-1.8-1.8.8-1.8 1.8.8 1.8 1.8 1.8zm0 16.9c1 0 1.8-.8 1.8-1.8s-.8-1.8-1.8-1.8-1.8.8-1.8 1.8.8 1.8 1.8 1.8zm0 17c1 0 1.8-.8 1.8-1.8s-.8-1.8-1.8-1.8-1.8.8-1.8 1.8.8 1.8 1.8 1.8zm0 16.9c1 0 1.8-.8 1.8-1.8s-.8-1.8-1.8-1.8-1.8.8-1.8 1.8.8 1.8 1.8 1.8zm-9-59.1c1 0 1.8-.8 1.8-1.8s-.8-1.8-1.8-1.8-1.8.8-1.8 1.8c.1 1.1.8 1.8 1.8 1.8zm0 17c1 0 1.8-.8 1.8-1.8s-.8-1.8-1.8-1.8-1.8.8-1.8 1.8.8 1.8 1.8 1.8zm0 16.9c1 0 1.8-.8 1.8-1.8s-.8-1.8-1.8-1.8-1.8.8-1.8 1.8.8 1.8 1.8 1.8zm0 17c1 0 1.8-.8 1.8-1.8s-.8-1.8-1.8-1.8-1.8.8-1.8 1.8.8 1.8 1.8 1.8zm0 16.9c1 0 1.8-.8 1.8-1.8s-.8-1.8-1.8-1.8-1.8.8-1.8 1.8.8 1.8 1.8 1.8zM244.4 118c1 0 1.8-.8 1.8-1.8s-.8-1.8-1.8-1.8-1.8.8-1.8 1.8c-.1 1.1.8 1.8 1.8 1.8zm0 17c1 0 1.8-.8 1.8-1.8s-.8-1.8-1.8-1.8-1.8.8-1.8 1.8c-.1 1 .8 1.8 1.8 1.8zm0 16.9c1 0 1.8-.8 1.8-1.8s-.8-1.8-1.8-1.8-1.8.8-1.8 1.8c-.1 1 .8 1.8 1.8 1.8zm0 17c1 0 1.8-.8 1.8-1.8s-.8-1.8-1.8-1.8-1.8.8-1.8 1.8.8 1.8 1.8 1.8zm0 16.9c1 0 1.8-.8 1.8-1.8s-.8-1.8-1.8-1.8-1.8.8-1.8 1.8c-.1 1 .8 1.8 1.8 1.8zm-8.3-59.5c1 0 1.8-.8 1.8-1.8s-.8-1.8-1.8-1.8-1.8.8-1.8 1.8.8 1.8 1.8 1.8zm0 16.9c1 0 1.8-.8 1.8-1.8s-.8-1.8-1.8-1.8-1.8.8-1.8 1.8.8 1.8 1.8 1.8zm0 17c1 0 1.8-.8 1.8-1.8s-.8-1.8-1.8-1.8-1.8.8-1.8 1.8.8 1.8 1.8 1.8zm0 16.9c1 0 1.8-.8 1.8-1.8s-.8-1.8-1.8-1.8-1.8.8-1.8 1.8.8 1.8 1.8 1.8zm-9-59.1c1 0 1.8-.8 1.8-1.8s-.8-1.8-1.8-1.8-1.8.8-1.8 1.8c.1 1.1.8 1.8 1.8 1.8zm0 17c1 0 1.8-.8 1.8-1.8s-.8-1.8-1.8-1.8-1.8.8-1.8 1.8.8 1.8 1.8 1.8zm0 16.9c1 0 1.8-.8 1.8-1.8s-.8-1.8-1.8-1.8-1.8.8-1.8 1.8.8 1.8 1.8 1.8zm0 17c1 0 1.8-.8 1.8-1.8s-.8-1.8-1.8-1.8-1.8.8-1.8 1.8.8 1.8 1.8 1.8zm0 16.9c1 0 1.8-.8 1.8-1.8s-.8-1.8-1.8-1.8-1.8.8-1.8 1.8.8 1.8 1.8 1.8z"/><circle cx="218.9" cy="124.5" r="1.8"/><circle cx="218.9" cy="141.5" r="1.8"/><circle cx="218.9" cy="158.4" r="1.8"/><path d="M218.9 177.1c1 0 1.8-.8 1.8-1.8s-.8-1.8-1.8-1.8-1.8.8-1.8 1.8c-.1 1 .8 1.8 1.8 1.8z"/><circle cx="210" cy="116.3" r="1.8"/><circle cx="210" cy="133.2" r="1.8"/><circle cx="210" cy="150.2" r="1.8"/><path d="M210 168.9c1 0 1.8-.8 1.8-1.8s-.8-1.8-1.8-1.8-1.8.8-1.8 1.8.8 1.8 1.8 1.8zm0 16.9c1 0 1.8-.8 1.8-1.8s-.8-1.8-1.8-1.8-1.8.8-1.8 1.8.8 1.8 1.8 1.8zm-8.3-59.5c1 0 1.8-.8 1.8-1.8s-.8-1.8-1.8-1.8-1.8.8-1.8 1.8.8 1.8 1.8 1.8zm0 16.9c1 0 1.8-.8 1.8-1.8s-.8-1.8-1.8-1.8-1.8.8-1.8 1.8.8 1.8 1.8 1.8zm0 17c1 0 1.8-.8 1.8-1.8s-.8-1.8-1.8-1.8-1.8.8-1.8 1.8.8 1.8 1.8 1.8zm0 16.9c1 0 1.8-.8 1.8-1.8s-.8-1.8-1.8-1.8-1.8.8-1.8 1.8.8 1.8 1.8 1.8zm-9-59.1c1 0 1.8-.8 1.8-1.8s-.8-1.8-1.8-1.8-1.8.8-1.8 1.8c0 1.1.8 1.8 1.8 1.8zm0 17c1 0 1.8-.8 1.8-1.8s-.8-1.8-1.8-1.8-1.8.8-1.8 1.8.8 1.8 1.8 1.8zm0 16.9c1 0 1.8-.8 1.8-1.8s-.8-1.8-1.8-1.8-1.8.8-1.8 1.8.8 1.8 1.8 1.8zm0 17c1 0 1.8-.8 1.8-1.8s-.8-1.8-1.8-1.8-1.8.8-1.8 1.8.8 1.8 1.8 1.8zm0 16.9c1 0 1.8-.8 1.8-1.8s-.8-1.8-1.8-1.8-1.8.8-1.8 1.8.8 1.8 1.8 1.8zM182.2 40.1c1 0 1.8-.8 1.8-1.8s-.8-1.8-1.8-1.8-1.8.8-1.8 1.8.8 1.8 1.8 1.8zm0 17c1 0 1.8-.8 1.8-1.8s-.8-1.8-1.8-1.8-1.8.8-1.8 1.8.8 1.8 1.8 1.8zm0 16.9c1 0 1.8-.8 1.8-1.8s-.8-1.8-1.8-1.8-1.8.8-1.8 1.8.8 1.8 1.8 1.8zm0 16.9c1 0 1.8-.8 1.8-1.8s-.8-1.8-1.8-1.8-1.8.8-1.8 1.8.8 1.8 1.8 1.8zm0 17c1 0 1.8-.8 1.8-1.8s-.8-1.8-1.8-1.8-1.8.8-1.8 1.8.8 1.8 1.8 1.8zm-8.3-59.5c1 0 1.8-.8 1.8-1.8s-.8-1.8-1.8-1.8-1.8.8-1.8 1.8.8 1.8 1.8 1.8zm0 16.9c1 0 1.8-.8 1.8-1.8s-.8-1.8-1.8-1.8-1.8.8-1.8 1.8.8 1.8 1.8 1.8zm0 16.9c1 0 1.8-.8 1.8-1.8s-.8-1.8-1.8-1.8-1.8.8-1.8 1.8.8 1.8 1.8 1.8zm0 17c1 0 1.8-.8 1.8-1.8s-.8-1.8-1.8-1.8-1.8.8-1.8 1.8.8 1.8 1.8 1.8zm-9-59.1c1 0 1.8-.8 1.8-1.8s-.8-1.8-1.8-1.8-1.8.8-1.8 1.8.8 1.8 1.8 1.8zm0 17c1 0 1.8-.8 1.8-1.8s-.8-1.8-1.8-1.8-1.8.8-1.8 1.8.8 1.8 1.8 1.8zm0 16.9c1 0 1.8-.8 1.8-1.8s-.8-1.8-1.8-1.8-1.8.8-1.8 1.8.8 1.8 1.8 1.8zm0 16.9c1 0 1.8-.8 1.8-1.8s-.8-1.8-1.8-1.8-1.8.8-1.8 1.8.8 1.8 1.8 1.8zm0 17c1 0 1.8-.8 1.8-1.8s-.8-1.8-1.8-1.8-1.8.8-1.8 1.8.8 1.8 1.8 1.8z"/><circle cx="156.7" cy="46.6" r="1.8"/><circle cx="156.7" cy="63.5" r="1.8"/><circle cx="156.7" cy="80.5" r="1.8"/><path d="M156.7 99.2c1 0 1.8-.8 1.8-1.8s-.8-1.8-1.8-1.8-1.8.8-1.8 1.8.8 1.8 1.8 1.8z"/><circle cx="147.9" cy="38.3" r="1.8"/><circle cx="147.9" cy="55.3" r="1.8"/><circle cx="147.9" cy="72.2" r="1.8"/><path d="M147.9 90.9c1 0 1.8-.8 1.8-1.8s-.8-1.8-1.8-1.8-1.8.8-1.8 1.8.8 1.8 1.8 1.8zm0 17c1 0 1.8-.8 1.8-1.8s-.8-1.8-1.8-1.8-1.8.8-1.8 1.8.8 1.8 1.8 1.8zm-8.3-59.5c1 0 1.8-.8 1.8-1.8s-.8-1.8-1.8-1.8-1.8.8-1.8 1.8.8 1.8 1.8 1.8zm0 16.9c1 0 1.8-.8 1.8-1.8s-.8-1.8-1.8-1.8-1.8.8-1.8 1.8c.1 1 .8 1.8 1.8 1.8zm0 16.9c1 0 1.8-.8 1.8-1.8s-.8-1.8-1.8-1.8-1.8.8-1.8 1.8.8 1.8 1.8 1.8zm0 17c1 0 1.8-.8 1.8-1.8s-.8-1.8-1.8-1.8-1.8.8-1.8 1.8.8 1.8 1.8 1.8zm-9-59.1c1 0 1.8-.8 1.8-1.8s-.8-1.8-1.8-1.8-1.8.8-1.8 1.8c.1 1 .8 1.8 1.8 1.8zm0 17c1 0 1.8-.8 1.8-1.8s-.8-1.8-1.8-1.8-1.8.8-1.8 1.8c.1 1 .8 1.8 1.8 1.8zm0 16.9c1 0 1.8-.8 1.8-1.8s-.8-1.8-1.8-1.8-1.8.8-1.8 1.8.8 1.8 1.8 1.8zm0 16.9c1 0 1.8-.8 1.8-1.8s-.8-1.8-1.8-1.8-1.8.8-1.8 1.8.8 1.8 1.8 1.8zm0 17c1 0 1.8-.8 1.8-1.8s-.8-1.8-1.8-1.8-1.8.8-1.8 1.8.8 1.8 1.8 1.8zm113.8-67.8c1 0 1.8-.8 1.8-1.8s-.8-1.8-1.8-1.8-1.8.8-1.8 1.8c-.1 1 .8 1.8 1.8 1.8zm0 17c1 0 1.8-.8 1.8-1.8s-.8-1.8-1.8-1.8-1.8.8-1.8 1.8c-.1 1 .8 1.8 1.8 1.8zm0 16.9c1 0 1.8-.8 1.8-1.8s-.8-1.8-1.8-1.8-1.8.8-1.8 1.8c-.1 1 .8 1.8 1.8 1.8zm0 16.9c1 0 1.8-.8 1.8-1.8s-.8-1.8-1.8-1.8-1.8.8-1.8 1.8.8 1.8 1.8 1.8zm0 17c1 0 1.8-.8 1.8-1.8s-.8-1.8-1.8-1.8-1.8.8-1.8 1.8c-.1 1 .8 1.8 1.8 1.8zm-8.3-59.5c1 0 1.8-.8 1.8-1.8s-.8-1.8-1.8-1.8-1.8.8-1.8 1.8.8 1.8 1.8 1.8zm0 16.9c1 0 1.8-.8 1.8-1.8s-.8-1.8-1.8-1.8-1.8.8-1.8 1.8c.1 1 .8 1.8 1.8 1.8zm0 16.9c1 0 1.8-.8 1.8-1.8s-.8-1.8-1.8-1.8-1.8.8-1.8 1.8.8 1.8 1.8 1.8zm0 17c1 0 1.8-.8 1.8-1.8s-.8-1.8-1.8-1.8-1.8.8-1.8 1.8.8 1.8 1.8 1.8zm-9-59.1c1 0 1.8-.8 1.8-1.8s-.8-1.8-1.8-1.8-1.8.8-1.8 1.8c.1 1 .8 1.8 1.8 1.8zm0 17c1 0 1.8-.8 1.8-1.8s-.8-1.8-1.8-1.8-1.8.8-1.8 1.8c.1 1 .8 1.8 1.8 1.8zm0 16.9c1 0 1.8-.8 1.8-1.8s-.8-1.8-1.8-1.8-1.8.8-1.8 1.8.8 1.8 1.8 1.8zm0 16.9c1 0 1.8-.8 1.8-1.8s-.8-1.8-1.8-1.8-1.8.8-1.8 1.8.8 1.8 1.8 1.8zm0 17c1 0 1.8-.8 1.8-1.8s-.8-1.8-1.8-1.8-1.8.8-1.8 1.8.8 1.8 1.8 1.8z"/><circle cx="218.9" cy="46.6" r="1.8"/><circle cx="218.9" cy="63.5" r="1.8"/><circle cx="218.9" cy="80.5" r="1.8"/><path d="M218.9 99.2c1 0 1.8-.8 1.8-1.8s-.8-1.8-1.8-1.8-1.8.8-1.8 1.8c-.1 1 .8 1.8 1.8 1.8z"/><circle cx="210" cy="38.3" r="1.8"/><circle cx="210" cy="55.3" r="1.8"/><circle cx="210" cy="72.2" r="1.8"/><path d="M210 90.9c1 0 1.8-.8 1.8-1.8s-.8-1.8-1.8-1.8-1.8.8-1.8 1.8.8 1.8 1.8 1.8zm0 17c1 0 1.8-.8 1.8-1.8s-.8-1.8-1.8-1.8-1.8.8-1.8 1.8.8 1.8 1.8 1.8zm-8.3-59.5c1 0 1.8-.8 1.8-1.8s-.8-1.8-1.8-1.8-1.8.8-1.8 1.8.8 1.8 1.8 1.8zm0 16.9c1 0 1.8-.8 1.8-1.8s-.8-1.8-1.8-1.8-1.8.8-1.8 1.8.8 1.8 1.8 1.8zm0 16.9c1 0 1.8-.8 1.8-1.8s-.8-1.8-1.8-1.8-1.8.8-1.8 1.8.8 1.8 1.8 1.8zm0 17c1 0 1.8-.8 1.8-1.8s-.8-1.8-1.8-1.8-1.8.8-1.8 1.8.8 1.8 1.8 1.8zm-9-59.1c1 0 1.8-.8 1.8-1.8s-.8-1.8-1.8-1.8-1.8.8-1.8 1.8.8 1.8 1.8 1.8zm0 17c1 0 1.8-.8 1.8-1.8s-.8-1.8-1.8-1.8-1.8.8-1.8 1.8.8 1.8 1.8 1.8zm0 16.9c1 0 1.8-.8 1.8-1.8s-.8-1.8-1.8-1.8-1.8.8-1.8 1.8.8 1.8 1.8 1.8zm0 16.9c1 0 1.8-.8 1.8-1.8s-.8-1.8-1.8-1.8-1.8.8-1.8 1.8.8 1.8 1.8 1.8zm0 17c1 0 1.8-.8 1.8-1.8s-.8-1.8-1.8-1.8-1.8.8-1.8 1.8.8 1.8 1.8 1.8z"/></g><path class="st1" d="M514.5 160.3H320.9l-4.8-4 193.7-8.1 4.7 4.1z"/><path class="st1" d="M327.8 180.7h-3.1l1.8-20.4h6zm170.3 0h3.1l7.8-20.4h-6.1zM629 408.9l10.5 49.3H594zm7.5-136.1h-.3v.1c-.2.1-.4.1-.5.2-15.5 5.5-25.1 17.1-24.7 28 .6 13 16.5 18 20.5 31.4-2.1 7.5-4.9 14.8-8.5 21.7-15.8 29.7-25.6 51.2-25.6 66.7h.6c0-15.4 9.8-36.8 25.5-66.4 3.7-6.9 6.5-14.4 8.6-21.9 5.9-13.5 36-29.2 37.1-47.8.8-15.1-11.1-19.4-32.7-12z"/><path class="st2" d="M632.2 271.3c22.1-7.8 34.4-3.6 33.5 11.6-1.1 19-32.4 35-37.4 48.6-3.6-14.1-20.2-19-20.7-32.3-.5-10.8 9.1-22.4 24.6-27.9z"/><path class="st3" d="M628.2 331.6c1.6-11.8-5.6-38.7-6.5-55.1"/><path class="st3" d="M628.2 331.6c.9-9.2-17.1-30.3-17.1-44.6"/><path class="st3" d="M646.5 267.9c3.2 24.3-16.7 56.7-18.3 63.7"/><path class="st3" d="M661.3 270.6c0 13.3-22.6 38.7-33.1 61"/><path class="st3" d="M633 271.1c2.6 15.9 1.5 53.7-13.3 81.5-14.8 27.9-25.6 50.4-25.6 66.5"/><path class="st1" d="m184.7 282.1 26.4 176.3H102.3l-10.2-39.6zm352.8-42.5L562 458.4H250.1l-15.2-99.2z"/><path class="st4" d="M516.9 351.4H221.4L200.3 254c-3.7-17.2 7.9-33.2 24.1-33.2h289.4c16.2 0 27.8 16 24.1 33.2l-21 97.4z"/><path class="st5" d="M499.8 343.8s5.9-24.1 7.8-31.3c2.9-10.9 15.4-13.1 26.3-12.2l-11.7 43.4h-22.4v.1zm-260.7 0s-5.9-24.1-7.8-31.3c-2.9-10.9-15.4-13.1-26.3-12.2l11.7 43.4h22.4v.1z"/><path class="st6" d="m508.8 393.9 15.7 64.3h-11.9l-30.4-64.3z"/><path class="st7" d="M521.4 458.2 505 397.1"/><path class="st6" d="m229.5 393.9-15.7 64.3h11.8l30.5-64.3z"/><path class="st7" d="m216.8 458.2 16.5-61.1"/><path class="st6" d="M244 393.9h250.3v14.4H244z"/><path class="st5" d="M369.1 350c-67.4 0-77.7-12.4-144.1-12.4l5.6 43.2h277l5.6-43.2c-66.3 0-76.6 12.4-144.1 12.4z"/><path d="M503.3 359.2c-60.6.3-71 12.4-134.2 12.4-63.1 0-73.5-12-134.2-12.4" style="opacity:.27;fill:none;stroke:#000;stroke-miterlimit:10;enable-background:new"/><path style="fill:none;stroke:#adadf7;stroke-miterlimit:10" d="M231.3 230.7h263.3"/><path class="st4" d="M533.9 300.4c-8.8 0-16.5 6.2-18.4 14.8L504 368.4c-1.2 5.6-5.4 9.8-9.7 9.8H243.9c-4.3 0-8.4-4.2-9.7-9.8l-11.6-53.3c-1.9-8.6-9.5-14.8-18.4-14.8-4.9 0-8.6 4.5-7.5 9.4l13.9 63.8c3.6 16.7 17.6 28.8 33.3 28.8h250.4c15.6 0 29.6-12.1 33.3-28.8l13.9-63.8c1-4.8-2.7-9.3-7.6-9.3z"/><path class="st4" d="M206.4 280.6c-10.6-.4-15.9 2.9-16.2 9.5-.2 6.5 3.8 9.8 14 10.2 13.4.5 35.3 1.1 37.8 19.5l15 .5s-.4-10.1-8.7-24.1c-8.1-13.9-34.3-15.3-41.9-15.6z"/><path class="st1" d="m279.7 406.6-29.4-19.5 3.1-14.8h2.4l2.4-10s17-3.8 26.9-1c6.5 1.9 12.3 3.6 17.6 2.4 5.3-1.2 6.6-3.5 11.4-2.4 4.8 1.2 12.1 3.1 12.1 3.1l-12-16.2-69.1-9-7.9 55 42.5 12.4z"/><path class="st10" d="M249.2 202.5c-12.2 0-22 9.9-22 22 0 6.9 3.2 13.1 8.2 17.1l-6.8 12.6 13.9-8.7c2.1.7 4.4 1 6.7 1 12.2 0 22-9.9 22-22 0-12.2-9.8-22-22-22z"/><path class="st2" d="m245.7 216.1-1.8 12.8c-.1.7-.8 1.3-1.5 1.3-.5 0-1.1 0-1.7.2-2.5.5-4.6 2.1-4.8 3.5s1.6 2.1 4.1 1.6 4.6-2.1 4.8-3.5l1.8-13 10.2-2.2-1.3 9.7c-.1.7-.8 1.3-1.5 1.3-.5 0-1.1 0-1.7.2-2.5.5-4.6 2.1-4.8 3.5s1.6 2.1 4.1 1.6 4.6-2.1 4.8-3.5l2.2-16.2-12.9 2.7z"/><path class="st11" d="M70.5 458.1h587.2"/><path class="st4" d="M80.2 282.1h104.6v141.6H80.2z"/><path class="st6" d="M92.5 458.1h-7.4l-2.5-34.4H95zm87.3 0h-7.4l-2.5-34.4h12.4z"/><path class="st12" d="M83.5 287.4h97.9m-97.9 131h97.9M88.8 294.7h87.3v33.7H88.8zm0 41.3h87.3v33.7H88.8zm0 41.4h87.3v33.7H88.8zm0-77.7h87.3"/><circle class="st12" cx="132.4" cy="307.4" r="3.2"/><path class="st12" d="M88.8 341h87.3"/><circle class="st12" cx="132.4" cy="348.7" r="3.2"/><path class="st12" d="M88.8 382.1h87.3m-40.4 7.7c0 1.8-1.4 3.2-3.2 3.2s-3.2-1.4-3.2-3.2c0-1.8 1.4-3.2 3.2-3.2 1.7 0 3.2 1.4 3.2 3.2z"/><path class="st4" d="M149.2 204.8h4.9v77.3h-4.9z"/><path class="st13" d="M154.2 232.6v-27.8h-4.9v34.9c1.6-2.5 3.3-4.9 4.9-7.1zm-25 49.5h44.9c-2.3-2.6-11.5-4.5-22.5-4.5-10.9-.1-20.1 1.9-22.4 4.5z"/><path class="st14" d="m118.7 210.3 14.8-53.8h36.4l14.8 53.8z"/><path d="m142.5 158.6-6.8 49.6m16-49.6v49.6m9.3-49.6 6.8 49.6" style="fill:none;stroke:#6c03e5;stroke-miterlimit:10"/><path class="st1" d="M620.5 344.8c-1.4-14.6-29.4-20-48.3-14.2l-.3.1c-9 2.8-37.7 17.4-32.7 32.2 3.5 10.3 16.1 11.1 27.4 16.1 12.2 5.4 18.9 13.7 19.7 14.7.9 8.4 1.6 17.3 1.6 26.6h.6c-.1-9.8-.8-19.2-1.8-27.9 5-18.1 35.2-33.3 33.8-47.6z"/><path class="st16" d="M567.5 329.5c18.9-5.9 47.1-.6 48.6 14.1 1.4 14.7-30.4 30.3-34.1 49 0 0-6.8-9.1-19.8-14.8-11.2-5-23.9-5.8-27.4-16.1-5-14.8 23.7-29.4 32.7-32.2z"/><path class="st17" d="M552.8 336.4s19.9 20.3 29.2 56.1"/><path class="st17" d="M538.6 347.9s32.2 20.8 43.3 44.7m3.5-65.5s3.6 27.6-3.4 65.5"/><path class="st17" d="M603.2 330.3c0 22.7-20.1 50.6-21.3 62.2"/><path class="st3" d="M567.5 329.5s15.8 38.7 16.3 89.6"/><path class="st1" d="M640.2 362.4c0-.1 0-.1 0 0l-.3-.1c-10.4-2.2-29.4 0-31.4 10.3-1.9 10.1 13 19.6 11.7 28.2-1.7 2.2-3.3 4.1-4.8 6-5.2 6.5-9 11.1-11.7 16.6l.5.2c2.7-5.4 6.4-10.1 11.6-16.5 1.6-2 3.3-4 5.1-6.4 7-4.2 33.1-.7 38.5-12.3 4.1-8.5-3.7-22.6-19.2-26z"/><path class="st16" d="M637.7 359.4c15.7 3.3 23.6 17.5 19.5 26.2-5.7 12.1-33.9 7.8-39.4 12.9 2.2-8.8-13.5-18.5-11.5-28.8s21-12.5 31.4-10.3z"/><path class="st17" d="M617.8 398.5c5.6-7 9-31.8 7.5-39.7"/><path class="st17" d="M614.5 361.3c.4 13 7.3 28.6 3.4 37.3"/><path class="st17" d="M649.1 364.5c-3.4 14.2-20.9 23.8-31.2 34"/><path class="st17" d="M657 374.5c-3.6 13.8-33.7 18.5-39.1 24.1"/><path class="st3" d="M637.7 359.4s-.8 13.7-12.7 29.8-18.9 22.7-23.3 31.5"/><path class="st14" d="M611.8 458.1h-36.5c-5.3 0-9.9-3.9-10.7-9.1l-6.6-40.1h71.2l-6.6 40.1c-.9 5.2-5.5 9.1-10.8 9.1z"/><path style="fill:none;stroke:#6b07e0;stroke-miterlimit:10" d="M562.9 416.1h61.2"/><circle class="st1" cx="257.1" cy="127.6" r="30"/><path class="st1" d="M551.2 104.4h93.6v129.1h-93.6z"/><path class="st4" d="M548.5 101.3h93.6v129.1h-93.6z"/><path class="st10" d="M559.5 111.6h71.7v108.3h-71.7z"/><path class="st16" d="M592.8 164.2c-.3-11-5-11.7-5-11.7-.7-9.4-5.5-11.2-5.5-11.2 0-7.3-2.6-17-5.8-16.6s-3.2 10.4-3.2 10.4c-3.9-4.4-6.2 14.6-6.2 14.6-4.4-6.1-7 14.6-7 14.6-.2.1-.5.3-.7.5v34.8h37.4c2.8-38.7-4-35.4-4-35.4z"/><path class="st10" d="M571.5 195.1v-12.9l6.3-9.3h30.3v29.7z"/><path class="st14" d="M608.1 182.9v-10h-30.3l7.2 10z"/><path class="st16" d="M631.2 219.9v-43.7c-1.6-4.3-3.5-8.6-4.4-10.5 2.6 0-2.7-12.3-6.2-15.5-.2-3.5-.8-17.9-4.3-17.8-3.8.2-5.6 14.6-5.6 14.6-2.9 4.1-5.3 9.6-5 11.4.3 1.8 3.5-.2 3.5-.2-5 4.6-6.8 14.6-6.4 15.8.5 1.2 2.4 0 2.4 0s-2 6.1-.9 9.3c-3 3.6-5.8 14-1.1 14.6-4.3 6.5-6.1 14.3-.5 12.6-2.3 2.4-3.5 6.7-4 9.4h32.5z"/><path class="st2" d="M559.5 191v28.9h71.7v-7.6C606 195 569.7 191.6 559.5 191z"/><path class="st4" d="M316.1 148.2h193.6v8.1H316.1zm11.7 32.5h-3.1l-3-24.4h6.1zm170.3 0h3.1l3-24.4h-6.1z"/><path class="st2" d="M329.5 148.2h52.3l5.4-36.2H335z"/><path class="st4" d="M392.7 148.2h-52.2l-5.4-36.2h52.2z"/><path class="st10" d="M388.4 144.3h-44.7l-4.3-28.4h44.7z"/><path class="st2" d="m386.5 131.8-17.7-11.5-25.8 19.5.7 4.5h44.7z"/><path class="st16" d="m342 133.4 6.2-4.4 35.8 15.3h-40.3z"/><path class="st19" d="M392.7 148.2h-52.2"/><path class="st2" d="M402.2 148.2h70l7.3-48.5h-70z"/><path class="st4" d="M486.9 148.2h-70l-7.4-48.5h70.1z"/><path class="st10" d="M481.1 143h-60l-5.8-38.2h60.1z"/><path class="st16" d="M421.1 143h60l-.7-4.9c-22.5-3.3-52.5-27-64.3-28.6l5 33.5z"/><path class="st2" d="M477.4 118.5c-7.4 4.6-33.1 19.6-57.1 19.4l.8 5.1h60l-3.7-24.5z"/><path class="st19" d="M486.9 148.2h-70"/><path class="st4" d="M100.4 278.3c-6.4 0-11.7-5.2-11.7-11.7 0-6.4 5.2-11.7 11.7-11.7v2c-5.4 0-9.7 4.4-9.7 9.7 0 5.4 4.4 9.7 9.7 9.7v2z"/><path class="st13" d="M100.4 276.3c-1.2 0-2.3-.2-3.3-.6v2.1c1 .3 2.1.5 3.3.5v-2zm-3.3-18.9c1-.4 2.1-.6 3.3-.6v-2c-1.1 0-2.2.2-3.3.5v2.1z"/><path class="st4" d="M115.5 282.1h-12.8c-1.6 0-3-1.3-3-3v-26.6h18.7v26.6c0 1.7-1.3 3-2.9 3z"/><path style="fill:none;stroke:#a2a2f4;stroke-miterlimit:10" d="M103.4 282.1h12.1"/><circle class="st4" cx="254.7" cy="124.6" r="30"/><circle class="st16" cx="254.7" cy="124.6" r="24.5"/><path style="fill:none;stroke:#d4d4ff;stroke-miterlimit:10" d="m247.8 106.1 6.9 18.5 18.1-1.6"/><path class="st22" d="M371 454.5c-4.5-1.1-19.9-2.7-19.9-2.7l-7.7-15.1s-7.3-4.4-14.8-8.9c-9-5.4-19.1-10.6-33.5-6.9-11.2 2.9-18.1 13.5-21.1 19.9s-8 9.8-6.8 18.4c1.1 8.7 11.9 13.9 20.7 13.8 8.8-.1 17.7 6.2 20.5 10.1 2.7 4 7.4 6.8 9.9 3.4 2.6-3.4.9-8.7-4.5-13.5-5.3-4.8-16.4-6.4-25.2-6.1-8.8.4-16.7-2.8-16.8-9.8-.1-4.5 3-5.9 3-5.9s-1.6 8.8 8.1 8.8h66.5c.1-.4.1-.8 0-1.2h25.1c.1 0 1.8-3-3.5-4.3z"/><path class="st23" d="M364.1 453.3c-3.8-.5-8.1-1-10.6-1.3l-4 6.8h7.1c.9-3.1 4.2-5.9 7.5-5.5zm-27.4-20.6s-18.1 18.7 5.9 22.2l-5.9-22.2z"/><path class="st24" d="M347.9 458.6v1.5m-1.7-1.5v1.5m-1.6-1.5v1.5m-31.6-1.5v1.5m-1.6-1.5v1.5m-1.7-1.5v1.5m63.2-2.7v1.5m-1.6-1.5v1.5m-1.7-1.5v1.5M300 455s6.8-5.1 6.8-11.2-3.2-9.4-3.9-9.7m-28 17.2s2.4-7.4 6.8-12.3"/><path class="st25" d="M313.8 473c-1.5-1.3-3.4-2.4-5.6-3.3-3.4.4-7.2 2-8.2 6.7 3.8 2.1 6.9 4.7 8.3 6.8 2.7 4 7.4 6.8 9.9 3.4 2.6-3.5.9-8.8-4.4-13.6z"/><path class="st22" d="M360.9 434.6c-.5-3.3-2.8-6.8-2.8-6.8s-2.7 2-3.2 5.8l-11.1-1.8c.7-3.8-1.2-6.5-1.2-6.5s-3.3 2.6-4.7 5.6c0 0-13.9 23.5 7.5 26.9 21.3 3.5 15.5-23.2 15.5-23.2z"/><path class="st24" d="M340.1 441.3s-.3 2.9 2.1 3.3 3.4-2.1 3.4-2.1m10.7 1.4s-.6 2.9-3 2.5-2.6-3.1-2.6-3.1"/><path class="st23" d="m346 444.3 3 .5s-.7 1.6-1.8 1.4c-1-.2-1.2-1.9-1.2-1.9z"/><path class="st24" d="M342.4 446.4s2.5 1.9 4.9-.2m4.5 1.7s-2.9 1-4.5-1.7m-8.8 0-4.8 2.2m5.8-.5-4.6 3.8m5.5-2.2-3.4 4.8m18.6-5.3 3.8 3.6m-5.3-2.4 3.2 5.1m-4.6-3.8 1.8 5.6"/><path class="st25" d="m348.7 432.7-4.8-.8c.7-3.8-1.2-6.5-1.2-6.5s-3.3 2.6-4.7 5.6c0 0-1.9 3.2-3.2 7.4 6.1 1.1 11.5-3.3 13.9-5.7z"/><path class="st24" d="M327.6 455h14.1c5.7 0 7.9 2.7 7.8 5.1m-56.1-5.1h14.1c5.7 0 7.9 2.7 7.8 5.1"/><path class="st26" d="M406.9 252.3s12.6-9.3 21.4-15.1c8.9-5.9 18.1-7.9 25.8-3.5 7.7 4.4 14.1 17.4 16.8 30.8 2.7 13.4 15.7 70.5 15.7 70.5s5.4 3.2 8.2 4.7c2.8 1.5 7.7-.2 9.1 2.3s-.5 5.1-2.5 5c-3.2-.3-15.5-.6-23.4-.8-8-.3-2.7-9.6-2.7-9.6s-29.5-47.2-35.7-62.8c-5.4 5.1-28 27.7-28 27.7l-4.7-49.2z"/><path class="st27" d="M471 264.6c-2.7-13.4-9.2-26.4-16.8-30.8-7.7-4.4-17-2.4-25.8 3.5-8.9 5.9-21.4 15.1-21.4 15.1l4.8 49.1s22.6-22.6 28-27.7c3.4 8.7 14.1 27.1 22.8 41.7 5.6-2.3 13.8-1.2 19.8.2-4.1-17.9-9.7-42.9-11.4-51.1z"/><path class="st28" d="m439.7 273.7 7.2-6.4m-2.6-24.6s2.6 4.4 13.1 5m20.1 86.3s-1.3 2.2 2.1 3.4m19.9 6.7s4-.5 5 .4m-3.6-1.7s2.5-.5 3.6.5m-3.3-1.4s1.9-.4 2.9.1m-3.1-.9s1.5-.3 1.9-.1"/><path class="st14" d="m412.2 246.2 8.8 55.7s-25.2 29.5-44.9 31.5c-19.7 1.9-39.8-5.6-39.8-5.6l8.5-32.6s14.2-11.6 24.6-16c10.6-4.5 15.2-17.2 20-19.2s6.6-1 9.9-6.2c3.3-5.4 8.9-8.3 12.9-7.6z"/><path class="st29" d="M416.3 306.9c2.9-3 4.6-5.1 4.6-5.1l-8.8-55.7c-1.8-.3-4 .1-6.1 1.2l10.3 59.6z"/><path class="st26" d="M423 291s18.5-8.8 29.1-13.2c10.6-4.4 23.4-1.5 40.8 3.9 17.4 5.5 63 18.3 63 18.3l10.3-5.3s3.5-2.8 6.2-4.6c.9-.6 2.5-.4 2.4 1.4.4.9.7 2.7.7 3.7-.1 1.7-3.5 5.1-3.5 5.1s-11.3 12.1-14.8 11.7-4.2-5-4.2-5-72 .5-85.5-6c-6.2 6.9-32 29.9-32 29.9L423 291z"/><path class="st28" d="M554.7 304.9s.1 2.3 3.2 1.8m-98.8-22.9s5.9 2.9 11.3-.5"/><path class="st27" d="M438.8 283.7c-8.2 3.7-15.8 7.3-15.8 7.3l12.5 40s3.5-3.1 8.2-7.4c-10-9.8-7.3-29.4-4.9-39.9z"/><path class="st28" d="M572.1 297.4s2.2-1.9 3.1-1.1m-3.4-.6s2.3-2 3.6-1.2m-4-.3s2.7-2.1 3.7-1.3m-3.8-.3s2.2-1.8 3.4-1.1"/><path class="st29" d="m417 276.3-56.6 37.9 60.1-15.7z"/><path d="M391.9 258.9c-.7.2-1.5.5-2.5.9-1.2.5-2.2 1.2-3 2l10 62.5c1.8-1.3 3.6-2.6 5.3-4l-9.8-61.4zm19.4 53-9.8-61.1c-.8.8-1.6 1.8-2.2 2.8-1 1.6-1.9 2.6-2.7 3.3l9.5 59.8c1.9-1.7 3.6-3.3 5.2-4.8z" class="st30"/><path class="st14" d="M327.4 356.7s19.9 9 34.2 10.3c22.2 2 41.2-5.6 44-7.5s9 0 15.3-3.7c6.2-3.8 7.1-8.5 13.7-8.1s6 2.7 10.2.4l-19.5-61.2-55.3 23.4-31.3-.1-11.3 46.5z"/><path class="st29" d="m418.8 289.6 19.1 58.5c3.3.7 3.6 1.8 7-.1l-19.5-61.2-6.6 2.8z"/><path d="m415.5 290.9-5.5 2.3 15.5 58.8c1.7-1.6 3.1-3.1 5-3.8l-15-57.3zm-1.7 67.2c1.8-.2 3.7-.7 5.6-1.6l-14.7-61-5.5 2.3 14.6 60.3z" class="st30"/><path class="st11" d="M336.3 326.6s23.3 4.6 26.3 13.9m3.5-5.5 3.4-17.8m-.1 14 9.2-19.1"/><path d="M370.2 278.7c-.2.1-.5.2-.7.3-10.5 4.5-24.6 16-24.6 16l-3.9 15.1h-2.1l-11.3 46.5s4.8 2.3 11.3 4.8c-2.4-15.4 1.8-40 18.2-53.3 13.5-11 13.8-23.7 13.1-29.4z" style="fill:#6b05e2"/><path class="st11" d="M434.9 316.8s-54.8 21.8-63.1 23.3c-8.7 1.6-23.2-.7-37.4-8.4"/><path class="st26" d="m244.7 358.1-5.4 27.6s44.8 24 50.6 25.5c4.7-.4 14.9 1.8 18.5 4s7.5 8 6.9 8.7-3.5-1.9-5.3-3.9c-1.4-1.5-2.6-2-2.6-2s5.8 6.8 5.2 8.6c-.6 1.8-5.1-4.1-6.7-5.7-.8-.9-3.2-1.9-3.2-1.9s2.1 1.5 2.9 3.2 2.3 5.7 1.5 6.4c-.8.7-2.8-4.1-3.9-5.1s-3.7-2.3-3.7-2.3 1.9 1.4 3 3.2c1 1.8 1.8 4.9.9 5.1s-1.8-2.6-3.2-3.8c-1.3-1.2-1.7-2.3-4-2.9s-8.3-.3-9.9-3c0 0-48.4-2.4-67.6-8.1s-21-22.7-20-31.4 4.3-23.7 4.3-23.7l41.7 1.5z"/><path class="st28" d="M286.2 417.3s.2 1.7 2.4 1.5m-49.3-33.1-8.2-4.2"/><path class="st27" d="M220.7 371.5c6.1-1.4 14.1.7 20.4 4.8l3.6-18.3-41.6-1.5s-2.8 13-4 21.8c9.4-.2 14.8-5.2 21.6-6.8z"/><path class="st16" d="M225 297.5c-3.2 2-9.6 4.1-14.8 14.1s-3.5 15-8.2 19.2c-4.6 4.2-5.4 8.3-5.1 14 .3 5.7-.3 8.7-3.1 12.3-2.8 3.6-2.8 8.1-2.8 8.1l54 1.9 4.8-21.9s5 4.5 18.1 5c13.2.5 18.2 2.1 22.9 5 4.7 2.9 9.5 5.1 14.4 2.9 4.8-2.2 11.1 3.1 16.3 5.4 5.2 2.2 8.3-1.4 9.4-6.8 1.1-5.5 6-35 15.7-54.8l-30.1-18.3 10.6-35.3s-2.7-1.6-12.8-.5c-10.1 1.1-13 .2-18.5-1.3-5.4-1.6-11.6 2.8-17.2 3.3-5.5.5-11.2 2-16.9 5.6-5.6 3.6-17.8 26.7-17.8 26.7l-11.1 12.3-7.8 3.1z"/><path style="fill:none;stroke:#6a80f2;stroke-miterlimit:10" d="m244.5 362.7-51.4-1.8"/><path class="st29" d="M271.2 350.3c-5.2-3.3-10.5-9.1-14.1-13.4-1.8-2.2-5.4-1.3-5.9 1.5l-1.4 6.8s5 4.5 18.1 5c1.2 0 2.3.1 3.3.1zm75.5-48.4-30.1-18.3-40.8 1.6-.3 7.1s1.2 4.9 8.7 3.9l54.6 26.7c2.1-7.3 4.7-14.6 7.9-21z"/><path class="st33" d="m278 297.8-14.1 3.1c-.9.2-1.9-.4-2.1-1.3l-5.5-25.2c-.2-.9.4-1.9 1.3-2.1l14.1-3.1c.9-.2 1.9.4 2.1 1.3l5.5 25.2c.2 1-.4 1.9-1.3 2.1z"/><path class="st34" d="M285.4 330s33.9-5.1 49.8-21m-1 8.5-24.6 19.4m-59.8 8.3s3.6-18.2 3.7-24.6m-14.9 9.3 7.5 9.8m12.5-12.4s-2.1 9.1-7.2 13.8"/><path style="fill:none;stroke:#6a80f2;stroke-width:.5;stroke-miterlimit:10" d="m320.9 248.7-11 34.6"/><path class="st34" d="M279.9 267.5s4 9.7 12.3 13.7m-4.6-10 6 10.1"/><path class="st10" d="m278.6 296.6-14.1 3.1c-.9.2-1.9-.4-2.1-1.3l-5.5-25.2c-.2-.9.4-1.9 1.3-2.1l14.1-3.1c.9-.2 1.9.4 2.1 1.3l5.5 25.2c.2 1-.4 1.9-1.3 2.1z"/><path d="M261.7 273.5c.1.6-.3 1.3-.9 1.4s-1.3-.3-1.4-.9.3-1.3.9-1.4c.6-.1 1.3.3 1.4.9z" style="fill:none;stroke:#262f57;stroke-width:.4872;stroke-miterlimit:10"/><path class="st37" d="M276.5 299.4s1.1 5.8 1.4 9.9c.9 12.8-.9 24.6-2 31.1-1.2 7.2-3.2 27.7-14.6 27.3-11.4-.4-11.3-35.5-12.2-43-1.2-9.8-4.7-14.9-4.7-14.9"/><path class="st26" d="m318.9 275.6 6.5-21.5s19.5 1.7 33.1 10.1c13.6 8.4 14.2 28.3-1.1 35.9-18.3 9.1-72.1-9.1-72.1-9.1s-4.3 2.4-8.3-1.4c0 0-6.3 3.1-6.7 2.3-.3-.7 5.9-4.7 5.9-4.7s-3.6.7-4.9 1.4c-1.3.7-3.3 1.3-4 .7-.7-.7 3.8-4 8.7-4.3 0 0-4.5-1.3-6.2-1.1-1.7.2-4.2 1.3-4.8.2-.3-.6 2.9-2.9 6.1-2.6 3.3.3 5.3.7 5.3.7s-1.9-2.4-3.3-2.5c-1.5-.1-5.2 1.3-5.9.9-.7-.4.3-1.7 2.8-2.4 2.5-.6 4.5-1.5 6.4-.3 2 1.2 9 4 9 4l33.5-6.3z"/><path class="st27" d="M318.9 275.6s9.8-1.4 16-2.6c0 0-.5-11.5-1.5-17.7-4.8-.9-8.1-1.2-8.1-1.2l-6.4 21.5z"/><path class="st28" d="M318.9 275.6s14.8-2.7 22.9-3.7"/><path class="st27" d="M365.5 283.8c-.1 2.3-1 4.1-2.2 4s-1.9-1.9-1.9-4.2c.1-2.3 1-4.1 2.2-4 1.2.1 2 2 1.9 4.2z"/><path class="st22" d="M227.4 270.5s-1.2-6.1-6.1-11c0 0 1.8-5.5-3.7-8s-8 2.7-8 2.7-3.2-2-6.4.3c-3.2 2.2-2.2 8.6-2.2 8.6s-2.9.2-4.1 4.5c-1.2 4.2 2.3 8 2.3 8s-2.1 1.9-1.3 4.5c.7 2.6 2.9 3.6 6.3 3.3l10.7 2.7 1-2.3-4.1-4.9 9.9-13.4 5.7 5z"/><path class="st26" d="m217.9 286.7 10.7 8.7-3.7 2.2s5.3-1.6 12.5-1.8c7.2-.2 14.3 1.8 17.9-4 3.6-5.8-4.3-11.2-11.4-9.6 0 0-.5 3.1-5 .9s-9.6-4.9-9.6-4.9l-11.4 8.5z"/><path class="st27" d="m217.9 286.7 9.2 7.5c2-2 5.9-4.5 7.1-8.3.7-2.2.8-3.8.7-4.9-3-1.5-5.5-2.9-5.5-2.9l-11.5 8.6z"/><path class="st28" d="m244 287.6 1.9-4.5"/><path class="st26" d="M221.2 263.7s7.7 7 10.4 10.1 2.2 8.9-.4 11.7c-2.6 2.8-8 5.5-14.9 1 0 0-.4 1.6-2.1 1.2-1.7-.4-3.8-1.9-4.1-3.5-.2-1.1 1-2 2-1.7l2.1.6-4.7-5s3.3-1.3 3.3-5.4c0 0 3.8-1.2 4.5-5 .1.1 3.1-1.4 3.9-4z"/><path class="st28" d="M214.8 284.4s-2.8-1.3-3.5-.7c-.7.6.9 2.2 2.1 2.8"/><path class="st25" d="m227.7 276.5-6.4 6.9s4 2 6.8-.4c1.7-1.6 1.2-5.4-.4-6.5z"/><path class="st28" d="m220.8 275.7 2.7 2-1.2 1.5m6.3 5.4s.5-1.9 1.8-2.1"/><path class="st33" d="M218.6 278.9c.4.3.6.8.4 1.1-.2.3-.7.2-1.1-.2-.4-.3-.6-.8-.4-1.1s.7-.1 1.1.2zm4.1-5.3c.4.3.6.8.4 1.1-.2.3-.7.2-1.1-.2-.4-.3-.6-.8-.4-1.1.2-.2.7-.2 1.1.2z"/><path d="m214.6 278.2 2.1-2.8m3.1-3.7 2.1-2.7" style="stroke:#262f57;fill:none;stroke-miterlimit:10"/><path class="st37" d="M213.8 285.1s4.4 2.9 7.2 8 15.6 20.8 22.7 17.3-3.6-37-15.4-40"/><path transform="rotate(-12.366 276.38 298.672)" style="fill:#1fb86c" d="M275.7 297.2h1.3v3h-1.3z"/><path class="st11" d="m342.8 308.4 27.2 1.9 48.8-20.7m-42.3-7.5-4.5 19.2m4.6-9.5 9.8-16.1"/></svg>