<svg version="1.1" id="Calque_1" xmlns="http://www.w3.org/2000/svg" x="0" y="0" viewBox="0 0 580 370" style="enable-background:new 0 0 580 370" xml:space="preserve"><style>.st0{opacity:.2;fill:none;stroke:#cde5f8;stroke-width:3;stroke-miterlimit:10;stroke-dasharray:1000}.st2,.st3{fill:#fff}.st2,.st3,.st4{stroke-width:2;stroke-miterlimit:10}.st2{stroke:#cde5f8;stroke-dasharray:1000}.st3,.st4{stroke:#1aae88}.st4{fill:none}</style><circle id="XMLID_2_" class="st0" cx="288.8" cy="191.3" r="51.5"/><circle id="XMLID_22_" class="st0" cx="288.8" cy="191.3" r="148.6"/><circle id="XMLID_23_" class="st0" cx="288.8" cy="191.3" r="102.5"/><g id="XMLID_4_"><g id="_x39__8_"><g id="XMLID_5_"><path id="XMLID_6_" d="M317.1 230.2h-63.3s-27.3-2.8-27.1-27.1c.1-13.7 12.2-26.3 27.1-27.1 0-18.7 12-36.2 31.6-36.2 15.5 0 25.9 9.5 29.6 22.7 22.4-1 37.6 16.7 38.3 31.6.9 19.9-19.9 36.1-36.2 36.1z" style="fill:#fff;stroke:#1aae88;stroke-width:3;stroke-miterlimit:10"/></g></g></g><path id="XMLID_8_" class="st2" d="m288.5 294.9-5.1 12.6c-.1.3-.5.5-.8.3l-16.8-6.8c-.3-.1-.5-.5-.3-.8l5.1-12.6c.1-.3.5-.5.8-.3l16.8 6.8c.3.2.4.5.3.8z"/><path id="XMLID_9_" class="st2" d="m311.3 340.2-11.3 5.4c-.3.1-.7 0-.8-.3l-7.2-15.1c-.1-.3 0-.7.3-.8l11.3-5.4c.3-.1.7 0 .8.3l7.2 15.1c.1.3 0 .6-.3.8z"/><path id="XMLID_10_" class="st2" d="m306.3 276.5-3 8.5c-.1.3-.5.5-.8.4l-11.4-4.1c-.3-.1-.5-.5-.4-.8l3-8.5c.1-.3.5-.5.8-.4l11.4 4.1c.4.2.5.5.4.8z"/><path id="XMLID_11_" class="st2" d="m278.7 343.4-17.9 1.4c-.3 0-.6-.2-.6-.6l-1.8-23.7c0-.3.2-.6.6-.6l17.9-1.4c.3 0 .6.2.6.6l1.8 23.7c0 .3-.2.6-.6.6z"/><path id="XMLID_12_" class="st2" d="m280 252.5 5.1 7.4c.2.3.1.7-.2.8l-10 6.8c-.3.2-.7.1-.8-.2L269 260c-.2-.3-.1-.7.2-.8l10-6.8c.2-.2.6-.1.8.1z"/><path id="XMLID_13_" class="st2" d="M303.9 249.3 299 253c-.3.2-.6.2-.8-.1l-5.1-6.7c-.2-.3-.2-.6.1-.8l4.9-3.8c.3-.2.6-.2.8.1l5.1 6.7c.2.3.2.7-.1.9z"/><path id="XMLID_21_" class="st2" d="m396.8 64.8 11.9 5.4c.3.1.4.5.3.8l-7.2 15.9c-.1.3-.5.4-.8.3l-12-5.5c-.3-.1-.4-.5-.3-.8l7.2-15.9c.2-.2.6-.4.9-.2z"/><path id="XMLID_20_" class="st2" d="m447.2 77.5 6.3-12c.2-.3.5-.4.8-.3l16 8.5c.3.2.4.5.3.8l-6.3 12c-.2.3-.5.4-.8.3l-16-8.5c-.4-.2-.5-.5-.3-.8z"/><path id="XMLID_19_" class="st2" d="m418 90.1 17.8-6.4c.3-.1.7.1.8.4l8.5 23.6c.1.3-.1.7-.4.8l-17.8 6.4c-.3.1-.7-.1-.8-.4l-8.5-23.6c0-.3.1-.7.4-.8z"/><path id="XMLID_18_" class="st2" d="m346.9 131.2 3.8-8.1c.1-.3.5-.4.8-.3l11 5.2c.3.1.4.5.3.8l-3.8 8.1c-.1.3-.5.4-.8.3l-11-5.2c-.3-.1-.4-.5-.3-.8z"/><path id="XMLID_17_" class="st2" d="m395.6 99.3 17.7 2.7c.3.1.6.4.5.7l-3.6 23.5c-.1.3-.4.6-.7.5l-17.7-2.7c-.3-.1-.6-.4-.5-.7l3.6-23.5c.1-.3.4-.5.7-.5z"/><path id="XMLID_16_" class="st2" d="m375.3 130.5 6.1-6.6c.2-.2.6-.3.9 0l8.9 8.3c.2.2.3.6 0 .9l-6.1 6.6c-.2.2-.6.3-.9 0l-8.9-8.3c-.2-.3-.2-.7 0-.9z"/><path id="XMLID_15_" class="st2" d="m340.6 152.1 5.3-3.3c.3-.2.7-.1.8.2l4.4 7.2c.2.3.1.7-.2.8l-5.3 3.3c-.3.2-.7.1-.8-.2l-4.4-7.2c-.2-.2-.1-.6.2-.8z"/><path id="XMLID_7_" class="st2" d="m477.7 87 12 3.1c.3.1.5.4.4.7L486 107c-.1.3-.4.5-.7.4l-12-3.1c-.3-.1-.5-.4-.4-.7l4.2-16.1c0-.4.3-.6.6-.5z"/><path id="XMLID_32_" class="st2" d="m183.1 65.2-11.9 5.4c-.3.1-.4.5-.3.8l7.2 15.9c.1.3.5.4.8.3l11.9-5.4c.3-.1.4-.5.3-.8l-7.2-15.9c-.2-.3-.5-.4-.8-.3z"/><path id="XMLID_31_" class="st2" d="m132.7 77.9-6.3-12c-.2-.3-.5-.4-.8-.3l-16 8.5c-.3.2-.4.5-.3.8l6.3 12c.2.3.5.4.8.3l16-8.5c.3-.1.4-.5.3-.8z"/><path id="XMLID_30_" class="st2" d="M161.8 90.6 144 84.2c-.3-.1-.7.1-.8.4l-8.5 23.6c-.1.3.1.7.4.8l17.8 6.4c.3.1.7-.1.8-.4l8.5-23.6c.1-.4-.1-.7-.4-.8z"/><path id="XMLID_29_" class="st2" d="m232.9 131.6-3.8-8.1c-.1-.3-.5-.4-.8-.3l-11 5.2c-.3.1-.4.5-.3.8l3.8 8.1c.1.3.5.4.8.3l11-5.2c.3-.1.5-.5.3-.8z"/><path id="XMLID_28_" class="st2" d="m184.2 99.8-17.7 2.7c-.3.1-.6.4-.5.7l3.6 23.5c.1.3.4.6.7.5l17.7-2.7c.3-.1.6-.4.5-.7l-3.6-23.5c0-.4-.3-.6-.7-.5z"/><path id="XMLID_27_" class="st2" d="m204.6 130.9-6.1-6.6c-.2-.2-.6-.3-.9 0l-8.9 8.3c-.2.2-.3.6 0 .9l6.1 6.6c.2.2.6.3.9 0l8.9-8.3c.2-.2.2-.6 0-.9z"/><path id="XMLID_26_" class="st2" d="m239.3 152.6-5.3-3.3c-.3-.2-.7-.1-.8.2l-4.4 7.2c-.2.3-.1.7.2.8l5.3 3.3c.3.2.7.1.8-.2l4.4-7.2c.1-.3.1-.6-.2-.8z"/><path id="XMLID_25_" class="st2" d="m102.1 87.4-12 3.1c-.3.1-.5.4-.4.7l4.2 16.1c.1.3.4.5.7.4l12-3.1c.3-.1.5-.4.4-.7l-4.2-16.1c0-.3-.4-.5-.7-.4z"/><g id="XMLID_24_"><path id="XMLID_14_" class="st3" d="M323.7 288.8v-44.4"/><path id="XMLID_3_" class="st4" d="m318.2 250.3 5.5-7.5 5.2 7.5"/></g><g id="XMLID_37_"><path id="XMLID_39_" class="st3" d="M250 271.7v-26.2"/><path id="XMLID_38_" class="st4" d="m246.8 248.9 3.2-4.4 3.1 4.4"/></g><g id="XMLID_34_"><path id="XMLID_36_" class="st3" d="M345.8 313.1v-29.9"/><path id="XMLID_35_" class="st4" d="m342.2 287.1 3.6-5 3.6 5"/></g></svg>