<svg version="1.1" id="Calque_1" xmlns="http://www.w3.org/2000/svg" x="0" y="0" viewBox="-80 172 450 450" style="enable-background:new -80 172 450 450" xml:space="preserve"><style>.st2{fill:#5c5c74}.st5{fill:#e4e6e9}.st6{fill:#cdcfd2}.st7{fill:#5d5c74}.st8{fill:#fff}.st12{fill:none;stroke:#7e50ff;stroke-width:2;stroke-miterlimit:10}</style><path id="XMLID_2254_" style="fill:none;stroke:#5d5c74;stroke-width:4;stroke-miterlimit:10" d="M-41.9 533.8H349"/><path id="XMLID_2253_" d="M275.6 378.6c13.2 41.1-6.3 72.3-56.9 72.3-53.5 0-69-31.1-56.3-72.3 8-26 4.9-54.3 13.1-67.2 11.5-18.3 22.1-25.4 43.2-25.4 19.9 0 32.8 6.3 41 24.1 6.7 14.5 7.4 41.8 15.9 68.5z" style="fill:#7e50ff;stroke:#5d5c74;stroke-width:3;stroke-miterlimit:10"/><path id="XMLID_2249_" class="st2" d="M218.4 450.9c-25.2 0-43-6.7-52.9-20.1-9.5-12.8-10.9-31.2-4.1-53.2 3.7-12.1 5-24.8 6.2-36.1 1.4-13 2.5-24.3 7-31.4 12.1-19.2 23.1-25.7 43.8-25.7 21.3 0 33.7 7.3 41.6 24.5 3.4 7.4 5.3 18.1 7.4 30.4 2 11.8 4.4 25.1 8.6 38.2 6.7 20.9 5.1 38.9-4.5 52.1-10.2 13.9-28.5 21.3-53.1 21.3zm0-165c-20.1 0-30.9 6.3-42.6 25-4.2 6.8-5.4 17.9-6.8 30.7-1.2 11.3-2.5 24.1-6.3 36.3-6.6 21.6-5.2 39.5 3.9 51.9 9.6 12.9 27 19.5 51.7 19.5 24.1 0 42.1-7.1 51.9-20.6 9.4-12.8 10.8-30.4 4.3-50.8-4.2-13.2-6.5-26.6-8.6-38.4-2.1-12.2-4-22.8-7.3-30.1-7.6-16.4-19.6-23.5-40.2-23.5z"/><path id="XMLID_2248_" d="M146.4 474.8c0-30.3 32.6-54.8 72.9-54.8s72.9 24.5 72.9 54.8" style="fill:#344258;stroke:#5d5c74;stroke-width:4;stroke-miterlimit:10"/><path id="XMLID_2243_" d="M235.6 336.5c-15.6 0-29.2-6.4-35.6-15.6-2.6 10.4-9.9 18.2-18.7 19.3V374c0 13 8.1 29.2 20.9 37.4v13c0 7.3 4.6 17.5 16.6 17.5 11.7 0 16.9-10.2 16.9-17.5v-12.1c13.6-7.8 20.9-24.8 20.9-38.3v-42.9c-2.2 4.3-7.7 5.4-21 5.4z" style="fill:#fbd7ce"/><path id="XMLID_2240_" class="st2" d="M218.7 442.1c-12.7 0-17.3-10.9-17.3-18.2v-12.7c-12.1-8-20.9-23.8-20.9-37.8v-33.8c0-.4.3-.7.6-.7 8.4-1 15.5-8.4 18.1-18.8.1-.3.3-.5.6-.5s.5.1.7.3c6.6 9.5 20 15.3 35 15.3 13.6 0 18.3-1.2 20.3-5 .1-.3.5-.4.8-.4.3.1.5.4.5.7v42.9c0 12.7-6.6 30.2-20.9 38.7v11.7c.1 7.7-5.4 18.3-17.5 18.3zm-36.8-101.7v33.1c0 13.7 8.7 29.1 20.6 36.8.2.1.3.4.3.6v13c0 6.7 4.2 16.8 15.9 16.8 11.1 0 16.2-9.8 16.2-16.8v-12.1c0-.3.1-.5.4-.6 13.5-7.8 20.6-24.8 20.6-37.7v-40.7c-3.2 3.3-9.5 3.9-20.3 3.9-14.8 0-28.2-5.6-35.3-14.7-3 10-10.1 17.1-18.4 18.4z"/><g id="XMLID_2238_"><path id="XMLID_2239_" class="st2" d="M226.7 387.4s-3.3 3.7-7.3 3.7-7.3-3.7-7.3-3.7 3.3.5 7.3.5c4-.1 7.3-.5 7.3-.5z"/></g><g id="XMLID_2236_"><path id="XMLID_2237_" class="st2" d="M219.7 377.2h-.1c-1.1 0-2.2-.5-2.7-1.3-.4-.6-.5-1.4-.3-2.1l.7.2c-.2.5-.1 1.1.2 1.5.4.6 1.2 1 2.2 1 1.1 0 2.1-.4 2.6-1.1.3-.5.3-1 .1-1.6l.7-.3c.4 1 .2 1.8-.2 2.3-.7.9-1.9 1.4-3.2 1.4z"/></g><path id="XMLID_2235_" class="st5" d="M299.9 459.3v86.3c0 4.5-3.6 8.1-8.1 8.1H145.4c-4.5 0-8.1-3.6-8.1-8.1v-86.4c0-4.5 3.6-8.1 8.1-8.1h146.3c4.5 0 8.2 3.7 8.2 8.2"/><path id="XMLID_2234_" class="st6" d="M299.9 536.1v9.5c0 4.5-3.6 8.1-8.1 8.1H145.4c-4.5 0-8.1-3.6-8.1-8.1V536l162.6.1z"/><path id="XMLID_2233_" class="st7" d="M137.3 504.1c-1 0-1.7-.8-1.7-1.7v-17.1c0-1 .9-1.6 1.7-1.6.9 0 1.6.8 1.6 1.6v17.1c.1 1-.6 1.7-1.6 1.7"/><path id="XMLID_2232_" class="st7" d="M291.7 555.5H145.4c-5.4 0-9.8-4.4-9.8-9.8v-32.8c0-1 .9-1.6 1.7-1.6.9 0 1.6.8 1.6 1.6v32.8c0 3.5 2.9 6.5 6.4 6.5h146.4c3.5 0 6.4-2.9 6.4-6.5v-86.4c0-3.5-2.9-6.5-6.4-6.5H145.4c-3.5 0-6.4 2.9-6.4 6.5v17c0 1-.8 1.7-1.7 1.7s-1.7-.8-1.7-1.7v-17c0-5.4 4.4-9.8 9.8-9.8h146.3c5.4 0 9.8 4.4 9.8 9.8v86.3c.1 5.4-4.3 9.9-9.8 9.9"/><path id="XMLID_2228_" class="st8" d="M288.8 486.8c-.8 0-1.3-.6-1.3-1.3v-15.6c0-3.7-3.1-6.8-6.8-6.8h-17.5c-.8 0-1.3-.6-1.3-1.3 0-.8.6-1.3 1.3-1.3h17.5c5.3 0 9.5 4.3 9.5 9.5v15.6c0 .5-.6 1.2-1.4 1.2m-35.3-23.7h-12.2c-.8 0-1.3-.6-1.3-1.3 0-.8.6-1.3 1.3-1.3h12.2c.8 0 1.3.6 1.3 1.3.1.6-.5 1.3-1.3 1.3m-30.2 46.2c6.4 7.6 1.5 11.1-4.6 11.1s-11.1-5-11.1-11.1 5-11.1 11.1-11.1 9 5.6 4.6 11.1"/><path id="XMLID_2224_" class="st7" d="M218.6 499.8c-5.2 0-9.4 4.2-9.4 9.4s4.2 9.4 9.4 9.4c2.9 0 5.2-.9 5.7-2.2.7-1.3-.2-3.5-2.4-6.1-.5-.6-.6-1.5 0-2.2 1.7-2.1 2.2-4.3 1.3-5.9-.6-1.4-2.4-2.4-4.6-2.4m0 22.3c-7.1 0-12.8-5.7-12.8-12.8s5.7-12.8 12.8-12.8c3.5 0 6.4 1.6 7.7 4.3 1.2 2.5.9 5.5-1 8.4 2.5 3.3 3.2 6.3 2.1 8.7-1.2 2.7-4.5 4.2-8.8 4.2"/><path id="XMLID_2222_" class="st7" d="M216.9 493.3c-1 0-1.7-.8-1.7-1.7 0-.2 0-.3.1-.5s1.5-5.3 5.8-6.6c.9-.3 1.8.3 2.1 1.2.2.9-.3 1.8-1.1 2-2.4.8-3.5 4.2-3.5 4.3-.3.8-1 1.3-1.7 1.3"/><path id="XMLID_2217_" d="M54.4 543.1H78v-35.3H54.3l.1 35.3z" style="fill:#dfe1e2"/><path id="XMLID_2213_" class="st7" d="M56.1 541.3h20.3v-31.9H56.1v31.9zm22 3.5H54.4c-1 0-1.7-.8-1.7-1.7v-35.3c0-1 .8-1.7 1.7-1.7h23.7c1 0 1.7.8 1.7 1.7v35.3c0 .9-.7 1.7-1.7 1.7z"/><path id="XMLID_2208_" class="st7" d="M78.1 538.4c-1 0-1.7-.8-1.7-1.7 0-1 .8-1.7 1.7-1.7 5.3 0 9.6-4.3 9.6-9.6s-4.3-9.6-9.6-9.6c-1 0-1.7-.8-1.7-1.7 0-1 .8-1.7 1.7-1.7 7.2 0 12.9 5.8 12.9 13s-5.8 13-12.9 13m-11.8-35.1c-.3 0-.6-.1-.8-.4-.3-.4-3.1-4.2-2.5-6.8.3-1.1 1-2 1.7-2.9.9-1.1 1.7-2 1.8-3.6.1-.6.6-1 1.1-1 .6.1 1 .6 1 1.1-.2 2.3-1.3 3.6-2.3 4.8-.6.7-1.1 1.3-1.2 2-.3 1.3 1.3 4 2.1 5.1.4.5.3 1.1-.2 1.4-.3.2-.5.3-.7.3m-5.8-.7c-.1 0-.2 0-.3-.1-.2-.2-2.1-1.4-2.3-2.8-.1-.6.1-1.1.4-1.6.3-.7.5-1.2.3-2-.1-.3.1-.6.4-.6.3-.1.6.1.6.4.3 1.1-.1 1.9-.3 2.6-.2.4-.3.8-.3 1.1.1.6 1.1 1.5 1.8 2.1.2.2.3.5.1.7-.1.1-.2.2-.4.2m11.6.2c-.2 0-.4-.1-.5-.4s-.9-2.5-.2-3.6c.3-.5.8-.9 1.2-1.1.6-.4 1.1-.7 1.4-1.4.1-.3.4-.4.7-.2.2.1.4.4.3.7-.5 1.1-1.2 1.5-1.8 1.9-.4.3-.8.5-.9.8-.3.6 0 1.9.3 2.8.1.3 0 .6-.3.7h-.2"/><path id="XMLID_2205_" class="st8" d="M62.3 527.3c-.8 0-1.5-.6-1.5-1.5v-11c0-.8.6-1.5 1.5-1.5s1.5.6 1.5 1.5v11c0 .8-.6 1.5-1.5 1.5 0 .1 0 .1 0 0m0 12.5c-.8 0-1.5-.6-1.5-1.5v-5.6c0-.8.6-1.5 1.5-1.5s1.5.6 1.5 1.5v5.6c0 .8-.6 1.5-1.5 1.5"/><path id="XMLID_2204_" class="st6" d="M56.6 398.6 29 426.3s-6.4-5.9-7.3-11c0 0-4.6-11.7 5.9-20.9 0 0 6.1-7.2 18.8-4.1-.1.1 6.9 2.3 10.2 8.3z"/><path id="XMLID_2203_" class="st7" d="M-9.1 379.1c.1-.3.3-.5.5-.6s.5-.1.8 0l33 14.5c.1.1.2.1.3.2 8.5-7.8 21.8-7.6 30.1.6 1.3 1.3 2.3 2.7 3.2 4.2.4.4.4 1.1 0 1.5l-2.3 2.3h-3.1l3.2-3.2c-.7-1.1-1.6-2.2-2.6-3.2-7.6-7.6-20-7.6-27.7 0-5.4 5.4-6.9 13.1-4.7 19.9.1.4 0 .8-.3 1.1-.4.4-1.1.4-1.5 0-.1-.1-.1-.1-.1-.2h-.1v-.1c0-.1 0-.1-.1-.2-2.3-7.2-.8-15.4 4.6-21.3l-31.8-13.9-12.8 40.9h-2l13.4-42.5z"/><path id="XMLID_2202_" class="st7" d="M-7.5 544c-.3 0-.5-.1-.7-.3L-29.9 517h2.4L-7 542.1h35.4c.5 0 .9.4.9.9v5c0 .5-.4.9-.9.9l-75.8.8c-.5 0-.9-.4-.9-.9s.4-.9.9-.9l74.8-.8V544H-7.5z"/><path id="XMLID_2201_" class="st7" d="M30.6 427.9c-.4.4-1.1.4-1.6 0-.4-.4-.4-1.1 0-1.6l5.7-5.7v3.1l-4.1 4.2z"/><path id="XMLID_2200_" d="M51.8 420.8c-4.1 4.1-10.5 4.3-14.9.6l15.5-15.5c3.7 4.4 3.5 10.9-.6 14.9z" style="fill:#edeeef"/><path id="XMLID_2197_" class="st7" d="M56.5 401.9h-3.1l-18.7 18.7v3.1l.7-.7c5.2 4.5 13.1 4.3 18-.6s5.1-12.8.6-18l2.5-2.5zm-4.1 4.1c3.7 4.3 3.5 10.8-.6 14.9s-10.5 4.3-14.9.6L52.4 406z"/><path id="XMLID_2196_" class="st5" d="M-42 511.7c-6.2 0-11.2-5-11.2-11.2s5-11.2 11.2-11.2 11.2 5 11.2 11.2c-.1 6.2-5.1 11.2-11.2 11.2z"/><path id="XMLID_2123_" class="st7" d="M-29.9 517h2.4l-5.6-6.9c2.5-2.4 4.1-5.7 4.1-9.5 0-5.6-3.5-10.3-8.4-12.2l1.5-4.9h-2l-1.4 4.4c-.9-.2-1.9-.3-2.8-.3-7.2 0-13 5.8-13 13s5.8 13 13 13c2.8 0 5.3-.9 7.5-2.4l4.7 5.8zm-12.1-5.3c-6.2 0-11.2-5-11.2-11.2s5-11.2 11.2-11.2 11.2 5 11.2 11.2c-.1 6.2-5.1 11.2-11.2 11.2z"/><path id="XMLID_2119_" class="st6" d="M-47.4 544h74.8v3.9h-74.8z"/><path id="XMLID_2118_" style="fill:none;stroke:#5d5c74;stroke-width:3;stroke-miterlimit:10" d="m-38.5 488.9 17.5-68.7"/><g id="XMLID_2109_"><path id="XMLID_2113_" class="st2" d="M192.6 355.1c-.4 0-.7-.1-1-.4-.6-.5-.6-1.5-.1-2 1.8-1.9 4.4-2.9 6.8-2.7 2 .2 3.8 1.2 4.8 2.8.4.7.2 1.6-.4 2-.7.4-1.6.2-2-.4-.5-.9-1.5-1.4-2.6-1.5-1.6-.1-3.2.5-4.4 1.8-.3.3-.7.4-1.1.4z"/></g><g id="XMLID_1696_"><path id="XMLID_2072_" class="st2" d="M247 355.1c-.4 0-.8-.1-1-.4-1.2-1.3-3-2-4.7-1.9-1.4.1-2.7.7-3.4 1.7-.5.6-1.4.8-2 .3s-.8-1.4-.3-2c1.3-1.6 3.3-2.7 5.5-2.8 2.6-.1 5.2.9 7 2.8.6.6.5 1.5 0 2-.4.2-.8.3-1.1.3z"/></g><path id="XMLID_2363_" class="st12" d="M200.6 254.1c-.6.5-1.3.8-2.2.8-1.8 0-3.3-1.5-3.3-3.3 0-1.8 1.5-3.3 3.3-3.3s3.3 1.5 3.3 3.3c0 .6-.1 1.1-.4 1.5"/><path id="XMLID_2366_" class="st12" d="M348.2 259.4c-.5.5-1.2.7-2 .7-1.7 0-3.1-1.4-3.1-3.1 0-1.7 1.4-3.1 3.1-3.1s3.1 1.4 3.1 3.1c0 .5-.1 1-.4 1.4"/><path id="XMLID_958_" class="st12" d="M258.2 232.2c-1.2 1.1-2.9 1.7-4.7 1.7-3.9 0-7.1-3.2-7.1-7.1s3.2-7.1 7.1-7.1 7.1 3.2 7.1 7.1c0 1.2-.3 2.3-.8 3.3"/><path id="XMLID_956_" class="st12" d="M263.7 191.5c-.8.7-1.9 1.2-3.1 1.2-2.6 0-4.7-2.1-4.7-4.7s2.1-4.7 4.7-4.7 4.7 2.1 4.7 4.7c0 .8-.2 1.6-.6 2.2"/><path id="XMLID_955_" class="st12" d="M264.5 300.2c-.4.4-1 .6-1.6.6-1.3 0-2.4-1.1-2.4-2.4 0-1.3 1.1-2.4 2.4-2.4s2.4 1.1 2.4 2.4c0 .4-.1.8-.3 1.1"/><path id="XMLID_954_" class="st12" d="M213.7 206.6c-.8.7-1.9 1.2-3.1 1.2-2.6 0-4.7-2.1-4.7-4.7s2.1-4.7 4.7-4.7 4.7 2.1 4.7 4.7c0 .8-.2 1.6-.6 2.2"/><path id="XMLID_953_" class="st12" d="M281.5 275.5c-.8.7-1.9 1.2-3.1 1.2-2.6 0-4.7-2.1-4.7-4.7s2.1-4.7 4.7-4.7 4.7 2.1 4.7 4.7c0 .8-.2 1.6-.6 2.2"/><path id="XMLID_952_" class="st12" d="M333.2 187.3c-.4.4-1 .6-1.6.6-1.3 0-2.4-1.1-2.4-2.4s1.1-2.4 2.4-2.4 2.4 1.1 2.4 2.4c0 .4-.1.8-.3 1.1"/><path id="XMLID_951_" class="st12" d="M125.2 221.4c-.4.4-1 .6-1.6.6-1.3 0-2.4-1.1-2.4-2.4 0-1.3 1.1-2.4 2.4-2.4s2.4 1.1 2.4 2.4c0 .4-.1.8-.3 1.1"/><path id="XMLID_950_" class="st12" d="M158.7 196.8c-.4.4-1 .6-1.6.6-1.3 0-2.4-1.1-2.4-2.4s1.1-2.4 2.4-2.4 2.4 1.1 2.4 2.4c0 .4-.1.8-.3 1.1"/><path id="XMLID_949_" class="st12" d="M333.2 321.5c-.4.4-1 .6-1.6.6-1.3 0-2.4-1.1-2.4-2.4s1.1-2.4 2.4-2.4 2.4 1.1 2.4 2.4c0 .4-.1.8-.3 1.1"/></svg>