<svg version="1.1" id="Calque_1" xmlns="http://www.w3.org/2000/svg" x="0" y="0" viewBox="0 0 580 370" style="enable-background:new 0 0 580 370" xml:space="preserve"><style>.st0,.st1{stroke:#cde5f8;stroke-width:2}.st0,.st1,.st2{stroke-miterlimit:10}.st0{opacity:.2;fill:none}.st1{fill:#fff}.st2{fill:none;stroke:#1eae88;stroke-width:3}</style><circle id="XMLID_8_" class="st0" cx="283" cy="198.2" r="60.8"/><circle id="XMLID_9_" class="st0" cx="283" cy="198.2" r="125.5"/><path id="XMLID_1_" class="st1" d="M430.8 285.5H116.9c-13.5 0-24.4-12.3-24.4-27.5v-39.3c0-15.2 10.9-27.5 24.4-27.5h289.5c13.5 0 24.4 12.3 24.4 27.5v66.8z"/><path id="XMLID_2_" class="st1" d="M430.8 175.5H157.9c-12.5 0-22.7-10.1-22.7-22.7v-8c0-12.5 10.1-22.7 22.7-22.7h250.2c12.5 0 22.7 10.1 22.7 22.7v30.7z"/><path id="XMLID_3_" class="st1" d="M430.8 110.2H250.5c-8.4 0-15.3-6.8-15.3-15.3V81.4c0-8.4 6.8-15.3 15.3-15.3h165.1c8.4 0 15.3 6.8 15.3 15.3v28.8z"/><path id="XMLID_5_" class="st2" d="M185 220.7h192"/><path id="XMLID_6_" class="st2" d="M185 236.7h158.8"/><path id="XMLID_7_" class="st2" d="M185 252.7h119.3"/></svg>