<svg version="1.1" id="Calque_1" xmlns="http://www.w3.org/2000/svg" x="0" y="0" viewBox="0 0 580 370" style="enable-background:new 0 0 580 370" xml:space="preserve"><style>.st0,.st2{fill:#fff;stroke:#cde5f8;stroke-width:2;stroke-miterlimit:10}.st2{stroke-width:3}.st3{fill:#1dae88}.st5{fill:#fff;stroke:#1dae88;stroke-miterlimit:10}</style><path id="XMLID_29_" class="st0" d="M193.2 174.9h320.6v151.2H193.2z"/><path id="XMLID_55_" class="st0" d="M164.4 132.9H485v151.2H164.4z"/><path id="XMLID_1_" class="st0" d="M135.6 84h320.6v151.2H135.6z"/><path id="XMLID_7_" style="fill:#f8f9fa" d="M286.8 85h168.3v149.2H286.8z"/><g id="XMLID_8_"><circle id="XMLID_2_" class="st0" cx="209.3" cy="145.9" r="38.4"/><path id="XMLID_4_" class="st2" d="M165.4 201.3h90.5"/><path id="XMLID_5_" class="st2" d="M183 213.4h57.4"/><path id="XMLID_6_" class="st2" d="M303.3 103.5H332"/><path id="XMLID_3_" class="st3" d="M318.8 208.5h-6.1c-.3 0-.6-.3-.6-.6v-23c0-.3.3-.6.6-.6h6.1c.3 0 .6.3.6.6v23c0 .4-.3.6-.6.6z"/><path id="XMLID_9_" class="st3" d="M331.4 208.5h-6.1c-.3 0-.6-.3-.6-.6v-41.3c0-.3.3-.6.6-.6h6.1c.3 0 .6.3.6.6v41.3c0 .4-.3.6-.6.6z"/><path id="XMLID_10_" class="st3" d="M344 208.5h-6.1c-.3 0-.6-.3-.6-.6v-29.1c0-.3.3-.6.6-.6h6.1c.3 0 .6.3.6.6v29.1c-.1.4-.3.6-.6.6z"/><path id="XMLID_11_" class="st3" d="M356.5 208.5h-6.1c-.3 0-.6-.3-.6-.6v-18.1c0-.3.3-.6.6-.6h6.1c.3 0 .6.3.6.6v18.1c0 .4-.2.6-.6.6z"/><path id="XMLID_12_" class="st3" d="M369.1 208.5H363c-.3 0-.6-.3-.6-.6v-12.5c0-.3.3-.6.6-.6h6.1c.3 0 .6.3.6.6v12.5c0 .4-.2.6-.6.6z"/><path id="XMLID_13_" class="st3" d="M381.7 208.5h-6.1c-.3 0-.6-.3-.6-.6V181c0-.3.3-.6.6-.6h6.1c.3 0 .6.3.6.6v26.9c0 .4-.3.6-.6.6z"/><path id="XMLID_14_" class="st3" d="M394.3 208.5h-6.1c-.3 0-.6-.3-.6-.6v-23c0-.3.3-.6.6-.6h6.1c.3 0 .6.3.6.6v23c0 .4-.3.6-.6.6z"/><path id="XMLID_15_" class="st3" d="M406.9 208.5h-6.1c-.3 0-.6-.3-.6-.6V177c0-.3.3-.6.6-.6h6.1c.3 0 .6.3.6.6v30.9c0 .4-.3.6-.6.6z"/><path id="XMLID_16_" class="st3" d="M419.5 208.5h-6.1c-.3 0-.6-.3-.6-.6v-16.3c0-.3.3-.6.6-.6h6.1c.3 0 .6.3.6.6v16.3c-.1.4-.3.6-.6.6z"/><path id="XMLID_17_" class="st3" d="M432 208.5h-6c-.3 0-.6-.3-.6-.6v-26.1c0-.3.3-.6.6-.6h6.1c.3 0 .6.3.6.6v26.1c-.1.4-.3.6-.7.6z"/><path id="XMLID_19_" style="fill:none;stroke:#1dae88;stroke-miterlimit:10" d="m313.9 138.4 16.4-18 16.4 19.5 16.4-12.6 16.4 5.2 16.4-6.5 16.4 12.6 16.4-15.8"/><circle id="XMLID_18_" class="st5" cx="313.9" cy="138" r="1.9"/><circle id="XMLID_20_" class="st5" cx="330.3" cy="120.4" r="1.9"/><circle id="XMLID_21_" class="st5" cx="346.7" cy="139.9" r="1.9"/><circle id="XMLID_22_" class="st5" cx="363.1" cy="127.4" r="1.9"/><circle id="XMLID_23_" class="st5" cx="379.5" cy="132.5" r="1.9"/><circle id="XMLID_24_" class="st5" cx="395.9" cy="126.2" r="1.9"/><circle id="XMLID_25_" class="st5" cx="412.3" cy="138.7" r="1.9"/><circle id="XMLID_26_" class="st5" cx="428.7" cy="122.7" r="1.9"/></g></svg>