<svg version="1.1" id="Calque_1" xmlns="http://www.w3.org/2000/svg" x="0" y="0" viewBox="-80 172 450 450" style="enable-background:new -80 172 450 450" xml:space="preserve"><style>.st3{fill:#344258;stroke:#5d5c74;stroke-miterlimit:10}.st4{fill:#fbd7ce}.st5{fill:#5c5c74}.st6{fill:#e4e6e9}.st8{fill:#3c4349}.st9{fill:#fff}.st12{fill:#facab8}.st13{fill:#1d99ce}</style><path id="XMLID_2582_" style="fill:none;stroke:#3c4349;stroke-width:2;stroke-miterlimit:10" d="M-88.4 486.4h466.8"/><path id="XMLID_2581_" d="M330.7 385.5c8.6 26.7-4.1 47-37 47-34.8 0-44.8-20.2-36.6-47 5.2-16.9 3.2-35.3 8.5-43.7 7.5-11.9 14.4-16.5 28.1-16.5 13 0 21.3 4.1 26.6 15.7 4.4 9.4 4.8 27.2 10.4 44.5z" style="fill:#0d82c5;stroke:#5d5c74;stroke-miterlimit:10"/><path id="XMLID_4523_" d="M293.4 325.3c-13.1 0-20.1 4.1-27.7 16.3-2.8 4.4-3.5 11.6-4.4 20-.8 7.3-1.6 15.7-4.1 23.6-4.3 14-3.4 25.7 2.6 33.8 6.2 8.4 17.5 12.7 33.6 12.7 15.7 0 27.4-4.6 33.8-13.4 6.1-8.3 7-19.7 2.8-33-2.7-8.6-4.3-17.3-5.6-25-1.4-7.9-2.6-14.8-4.7-19.5-5-10.9-12.8-15.5-26.3-15.5z" style="fill:#7e50ff;stroke:#5d5c74;stroke-width:2;stroke-miterlimit:10"/><path id="XMLID_2569_" class="st3" d="M246.7 448.1c0-19.7 21.2-35.6 47.4-35.6s47.4 16 47.4 35.6"/><path id="XMLID_2564_" class="st4" d="M304.7 358.2c-10.2 0-19-4.1-23.1-10.2-1.7 6.8-6.4 11.8-12.2 12.5v21.9c0 8.5 5.3 19 13.6 24.3v8.5c0 4.7 3 11.4 10.8 11.4 7.6 0 11-6.6 11-11.4v-7.9c8.8-5.1 13.6-16.1 13.6-24.9v-27.9c-1.5 3-5.1 3.7-13.7 3.7z"/><path id="XMLID_4517_" class="st5" d="M293.7 426.8c-8.3 0-11.3-7.1-11.3-11.8v-8.2c-7.9-5.2-13.6-15.5-13.6-24.6v-21.9c0-.2.2-.4.4-.5 5.5-.7 10.1-5.5 11.8-12.2 0-.2.2-.3.4-.3s.4 0 .5.2c4.3 6.1 13 10 22.8 10 8.8 0 11.9-.8 13.2-3.3.1-.2.3-.3.5-.2.2 0 .4.2.4.4v27.9c0 8.3-4.3 19.7-13.6 25.2v7.6c-.1 4.8-3.6 11.7-11.5 11.7zm-24-66.1v21.5c0 8.9 5.6 18.9 13.4 23.9.1.1.2.2.2.4v8.5c0 4.4 2.8 10.9 10.3 10.9 7.2 0 10.5-6.4 10.5-10.9v-7.9c0-.2.1-.3.2-.4 8.8-5.1 13.4-16.2 13.4-24.5v-26.4c-2.1 2.1-6.1 2.6-13.2 2.6-9.6 0-18.3-3.6-23-9.6-1.8 6.5-6.3 11-11.8 11.9z"/><g id="XMLID_4515_"><path id="XMLID_2537_" class="st5" d="M298.8 391.2s-2.1 2.4-4.7 2.4-4.7-2.4-4.7-2.4a37.062 37.062 0 0 0 9.4 0z"/></g><g id="XMLID_4513_"><path id="XMLID_2536_" class="st5" d="M294.3 384.7c-.8 0-1.5-.3-1.9-.8-.3-.4-.4-.9-.2-1.4l.4.1c-.1.4-.1.7.1 1 .3.4.8.6 1.4.6.7 0 1.4-.2 1.7-.7.2-.3.2-.6.1-1l.4-.2c.3.7.1 1.2-.1 1.5-.2.5-1 .9-1.9.9z"/></g><path id="XMLID_2535_" class="st6" d="M346.4 438v56.1c0 2.9-2.4 5.3-5.3 5.3H246c-2.9 0-5.3-2.4-5.3-5.3v-56.2c0-2.9 2.4-5.3 5.3-5.3h95.1c3 .1 5.3 2.5 5.3 5.4"/><path id="XMLID_2533_" d="M346.4 488v6.1c0 2.9-2.4 5.3-5.3 5.3H246c-2.9 0-5.3-2.4-5.3-5.3v-6.2l105.7.1z" style="fill:#cdcfd2"/><path id="XMLID_2524_" class="st8" d="M240.8 467.2c-.6 0-1.1-.5-1.1-1.1V455c0-.6.6-1.1 1.1-1.1.6 0 1.1.5 1.1 1.1v11c0 .7-.5 1.2-1.1 1.2"/><path id="XMLID_2521_" class="st8" d="M341.2 500.6H246c-3.5 0-6.4-2.9-6.4-6.4v-21.3c0-.6.6-1.1 1.1-1.1.6 0 1.1.5 1.1 1.1v21.3c0 2.3 1.9 4.2 4.2 4.2h95.2c2.3 0 4.2-1.9 4.2-4.2V438c0-2.3-1.9-4.2-4.2-4.2H246c-2.3 0-4.2 1.9-4.2 4.2v11c0 .6-.5 1.1-1.1 1.1s-1.1-.5-1.1-1.1v-11c0-3.5 2.9-6.4 6.4-6.4h95.1c3.5 0 6.4 2.9 6.4 6.4v56.1c.1 3.5-2.8 6.5-6.3 6.5"/><path id="XMLID_4505_" class="st9" d="M339.2 455.9c-.5 0-.9-.4-.9-.9v-10.1c0-2.4-2-4.4-4.4-4.4h-11.4c-.5 0-.9-.4-.9-.9s.4-.9.9-.9H334c3.4 0 6.1 2.8 6.1 6.1V455c.1.4-.4.9-.9.9m-22.9-15.4h-7.9c-.5 0-.9-.4-.9-.9s.4-.9.9-.9h7.9c.5 0 .9.4.9.9 0 .4-.4.9-.9.9m-19.7 30c4.2 5 1 7.2-3 7.2s-7.2-3.2-7.2-7.2 3.2-7.2 7.2-7.2 5.9 3.6 3 7.2"/><path id="XMLID_4502_" class="st8" d="M293.6 464.4c-3.4 0-6.1 2.7-6.1 6.1s2.7 6.1 6.1 6.1c1.9 0 3.4-.6 3.7-1.4.4-.9-.1-2.3-1.6-4-.3-.4-.4-1 0-1.4 1.1-1.4 1.4-2.8.9-3.8-.4-1-1.6-1.6-3-1.6m0 14.4c-4.6 0-8.3-3.7-8.3-8.3s3.7-8.3 8.3-8.3c2.3 0 4.2 1.1 5 2.8.8 1.6.6 3.6-.6 5.5 1.6 2.2 2.1 4.1 1.4 5.6-.8 1.7-3 2.7-5.8 2.7"/><path id="XMLID_2379_" class="st8" d="M292.5 460.1c-.6 0-1.1-.5-1.1-1.1 0-.1 0-.2.1-.3.1-.1 1-3.5 3.8-4.3.6-.2 1.2.2 1.4.8.1.6-.2 1.2-.7 1.3-1.6.5-2.3 2.7-2.3 2.8-.3.5-.7.8-1.2.8"/><g id="XMLID_2779_"><path id="XMLID_2306_" class="st5" d="M276.7 370.3c-.2 0-.5-.1-.6-.3-.4-.4-.4-.9 0-1.3 1.2-1.3 2.8-1.9 4.4-1.8 1.3.1 2.4.8 3.1 1.8.3.4.1 1-.3 1.3s-1 .1-1.3-.3c-.4-.6-1-.9-1.7-1-1-.1-2.1.3-2.9 1.2-.2.3-.4.4-.7.4z"/></g><g id="XMLID_2661_"><path id="XMLID_2305_" class="st5" d="M312.1 370.3c-.2 0-.5-.1-.7-.3-.8-.8-1.9-1.3-3.1-1.2-.9.1-1.7.4-2.2 1.1-.3.4-.9.5-1.3.2s-.5-.9-.2-1.3c.8-1.1 2.1-1.7 3.6-1.8 1.7-.1 3.4.6 4.5 1.8.4.4.3 1 0 1.3-.2.1-.4.2-.6.2z"/></g><path id="XMLID_4444_" class="st3" d="M102.9 450.2c0-19.7 21.2-35.6 47.4-35.6s47.4 16 47.4 35.6"/><path id="XMLID_2928_" class="st6" d="M202.6 440.1v56.1c0 2.9-2.4 5.3-5.3 5.3h-95.1c-2.9 0-5.3-2.4-5.3-5.3V440c0-2.9 2.4-5.3 5.3-5.3h95.1c2.9.1 5.3 2.5 5.3 5.4"/><path id="XMLID_2892_" class="st8" d="M96.9 469.3c-.6 0-1.1-.5-1.1-1.1V457c0-.6.6-1.1 1.1-1.1s1.1.5 1.1 1.1v11.1c.1.7-.4 1.2-1.1 1.2"/><path id="XMLID_2891_" class="st8" d="M197.3 502.7h-95.1c-3.5 0-6.4-2.9-6.4-6.4V475c0-.6.6-1.1 1.1-1.1s1.1.5 1.1 1.1v21.3c0 2.3 1.9 4.2 4.2 4.2h95.2c2.3 0 4.2-1.9 4.2-4.2v-56.2c0-2.3-1.9-4.2-4.2-4.2h-95.1c-2.3 0-4.2 1.9-4.2 4.2v11.1c0 .6-.5 1.1-1.1 1.1s-1.1-.5-1.1-1.1v-11.1c0-3.5 2.9-6.4 6.4-6.4h95.1c3.5 0 6.4 2.9 6.4 6.4v56.1c-.1 3.6-2.9 6.5-6.5 6.5"/><path id="XMLID_2772_" class="st9" d="M195.4 458c-.5 0-.9-.4-.9-.9V447c0-2.4-2-4.4-4.4-4.4h-11.4c-.5 0-.9-.4-.9-.9s.4-.9.9-.9h11.4c3.4 0 6.1 2.8 6.1 6.1V457c.1.5-.3 1-.8 1m-22.9-15.4h-7.9c-.5 0-.9-.4-.9-.9s.4-.9.9-.9h7.9c.5 0 .9.4.9.9 0 .4-.4.9-.9.9m-19.7 30c4.2 5 1 7.2-3 7.2s-7.2-3.2-7.2-7.2 3.2-7.2 7.2-7.2 5.9 3.6 3 7.2"/><path id="XMLID_2372_" class="st8" d="M149.8 466.5c-3.4 0-6.1 2.7-6.1 6.1s2.7 6.1 6.1 6.1c1.9 0 3.4-.6 3.7-1.4.4-.9-.1-2.3-1.6-4-.3-.4-.4-1 0-1.4 1.1-1.4 1.4-2.8.9-3.8-.4-1-1.6-1.6-3-1.6m0 14.4c-4.6 0-8.3-3.7-8.3-8.3 0-4.6 3.7-8.3 8.3-8.3 2.3 0 4.2 1.1 5 2.8.8 1.6.6 3.6-.6 5.5 1.6 2.2 2.1 4.1 1.4 5.6-.9 1.8-3 2.7-5.8 2.7"/><path id="XMLID_2371_" class="st8" d="M148.7 462.2c-.6 0-1.1-.5-1.1-1.1 0-.1 0-.2.1-.3.1-.1 1-3.5 3.8-4.3.6-.2 1.2.2 1.4.8.1.6-.2 1.2-.7 1.3-1.6.5-2.3 2.7-2.3 2.8-.3.5-.7.8-1.2.8"/><path id="XMLID_4490_" d="M149.9 428c7.2 0 10.5-6.4 10.5-10.9v-7.9c0-.2.1-.3.2-.4.6-.3 1.2-.7 1.7-1.1-3.8.9-7.8 1.4-12 1.4-4 0-7.9-.5-11.5-1.3.2.1.4.3.6.4.1.1.2.2.2.4v8.5c-.1 4.4 2.7 10.9 10.3 10.9z" style="fill:#fbd7ce;stroke:#5d5c74;stroke-miterlimit:10"/><path id="XMLID_4447_" class="st3" d="M-46.6 448.1c0-19.7 21.2-35.6 47.4-35.6s47.4 16 47.4 35.6"/><path id="XMLID_4443_" class="st6" d="M53.1 438v56.1c0 2.9-2.4 5.3-5.3 5.3h-95.1c-2.9 0-5.3-2.4-5.3-5.3v-56.2c0-2.9 2.4-5.3 5.3-5.3h95.1c3 .1 5.3 2.5 5.3 5.4"/><path id="XMLID_4441_" class="st8" d="M-52.5 467.2c-.6 0-1.1-.5-1.1-1.1V455c0-.6.6-1.1 1.1-1.1.6 0 1.1.5 1.1 1.1v11c0 .7-.5 1.2-1.1 1.2"/><path id="XMLID_3245_" class="st8" d="M47.8 500.6h-95.1c-3.5 0-6.4-2.9-6.4-6.4v-21.3c0-.6.6-1.1 1.1-1.1.6 0 1.1.5 1.1 1.1v21.3c0 2.3 1.9 4.2 4.2 4.2h95.2c2.3 0 4.2-1.9 4.2-4.2V438c0-2.3-1.9-4.2-4.2-4.2h-95.2c-2.3 0-4.2 1.9-4.2 4.2v11c0 .6-.5 1.1-1.1 1.1-.6 0-1.1-.5-1.1-1.1v-11c0-3.5 2.9-6.4 6.4-6.4h95.1c3.5 0 6.4 2.9 6.4 6.4v56.1c0 3.5-2.8 6.5-6.4 6.5"/><path id="XMLID_3078_" class="st9" d="M45.9 455.9c-.5 0-.9-.4-.9-.9v-10.1c0-2.4-2-4.4-4.4-4.4H29.2c-.5 0-.9-.4-.9-.9s.4-.9.9-.9h11.4c3.4 0 6.1 2.8 6.1 6.1V455c.1.4-.3.9-.8.9M23 440.5h-7.9c-.5 0-.9-.4-.9-.9s.4-.9.9-.9H23c.5 0 .9.4.9.9 0 .4-.4.9-.9.9m-19.7 30c4.2 5 1 7.2-3 7.2s-7.2-3.2-7.2-7.2 3.2-7.2 7.2-7.2 5.9 3.6 3 7.2"/><path id="XMLID_2361_" class="st8" d="M.3 464.4c-3.4 0-6.1 2.7-6.1 6.1s2.7 6.1 6.1 6.1c1.9 0 3.4-.6 3.7-1.4.4-.9-.1-2.3-1.6-4-.3-.4-.4-1 0-1.4 1.1-1.4 1.4-2.8.9-3.8-.4-1-1.6-1.6-3-1.6m0 14.4c-4.6 0-8.3-3.7-8.3-8.3s3.7-8.3 8.3-8.3c2.3 0 4.2 1.1 5 2.8.8 1.6.6 3.6-.6 5.5 1.6 2.2 2.1 4.1 1.4 5.6-.9 1.7-3 2.7-5.8 2.7"/><path id="XMLID_2360_" class="st8" d="M-.8 460.1c-.6 0-1.1-.5-1.1-1.1 0-.1 0-.2.1-.3.1-.1 1-3.5 3.8-4.3.6-.2 1.2.2 1.4.8.1.6-.2 1.2-.7 1.3-1.6.5-2.3 2.7-2.3 2.8-.3.5-.7.8-1.2.8"/><path id="XMLID_2358_" d="M.4 425.9c7.2 0 10.5-6.4 10.5-10.9v-7.9c0-.2.1-.3.2-.4.6-.3 1.2-.7 1.7-1.1-3.8.9-7.8 1.4-12 1.4-4 0-7.9-.5-11.5-1.3.2.1.4.3.6.4.1.1.2.2.2.4v8.5c-.1 4.4 2.7 10.9 10.3 10.9z" style="fill:#fbd7ce;stroke:#5e5c74;stroke-miterlimit:10"/><g id="XMLID_4567_"><g id="XMLID_4572_"><path id="XMLID_4518_" class="st12" d="M182.2 372.5c0 3.3-2.2 6-4.8 6s-4.8-2.7-4.8-6 2.2-4.9 4.8-4.9 4.8 1.6 4.8 4.9z"/></g><g id="XMLID_4568_"><path id="XMLID_4569_" class="st5" d="M177.4 379.3c-3.1 0-5.6-3-5.6-6.8 0-3.5 2.2-5.7 5.6-5.7 3.4 0 5.6 2.2 5.6 5.7 0 3.7-2.5 6.8-5.6 6.8zm0-11c-2.6 0-4.1 1.6-4.1 4.2 0 2.9 1.8 5.2 4.1 5.2s4.1-2.4 4.1-5.2c-.1-2.6-1.6-4.2-4.1-4.2z"/></g></g><g id="XMLID_4560_"><g id="XMLID_4565_"><path id="XMLID_4512_" class="st12" d="M127.8 372.5c0 3.3-2.2 6-4.8 6s-4.8-2.7-4.8-6 2.2-4.9 4.8-4.9 4.8 1.6 4.8 4.9z"/></g><g id="XMLID_4561_"><path id="XMLID_4562_" class="st5" d="M122.9 379.3c-3.1 0-5.6-3-5.6-6.8 0-3.5 2.2-5.7 5.6-5.7 3.4 0 5.6 2.2 5.6 5.7 0 3.7-2.5 6.8-5.6 6.8zm0-11c-2.6 0-4.1 1.6-4.1 4.2 0 2.9 1.8 5.2 4.1 5.2 2.2 0 4.1-2.4 4.1-5.2 0-2.6-1.5-4.2-4.1-4.2z"/></g></g><g id="XMLID_4558_"><path id="XMLID_4509_" class="st4" d="M177.6 362.8c0 32.5-11.3 46.4-27.4 46.4s-27.9-13-27.9-46.4c0-20.1 11.7-24.3 27.9-24.3s27.4 4.3 27.4 24.3z"/></g><g id="XMLID_4554_"><path id="XMLID_4555_" class="st5" d="M150.1 410c-8.8 0-15.8-3.7-20.6-11-5.3-8-8-20.1-8-36.2 0-22.1 14.5-25.1 28.6-25.1 14.6 0 28.2 3 28.2 25.1 0 30.4-10 47.2-28.2 47.2zm0-70.7c-9.1 0-15.3 1.4-19.5 4.5-5.1 3.7-7.6 9.9-7.6 19 0 37.7 14.7 45.6 27.1 45.6 17.2 0 26.6-16.2 26.6-45.6.1-19.5-10.6-23.5-26.6-23.5z"/></g><g id="XMLID_4552_"><path id="XMLID_4506_" class="st13" d="M149.6 378.9c10.8 0 13.3 6.7 18.3 6.7s8.5-7.2 8.5-7.2 3.2 37-25.8 37-26.9-36.6-26.9-36.6 1.4 6.7 7.6 6.7 6.6-6.6 18.3-6.6z"/></g><g id="XMLID_4548_"><path id="XMLID_4549_" class="st5" d="M150.5 416.3c-7.7 0-13.9-2.5-18.5-7.4-5.3-5.6-7.5-13.5-8.4-19.1-1-6-.7-10.7-.7-10.9 0-.4.3-.7.7-.7s.7.2.8.6c.1.2 1.3 6.1 6.8 6.1 2.4 0 3.8-1.1 5.6-2.4 2.6-1.9 5.8-4.3 12.7-4.3 6.7 0 10.3 2.5 13.2 4.4 1.9 1.3 3.3 2.3 5.1 2.3 4.5 0 7.8-6.7 7.8-6.8.2-.3.5-.5.8-.4.3.1.6.3.6.7 0 .2.4 4.9-.4 11.1-.8 5.7-2.8 13.7-8 19.4-4.3 4.9-10.5 7.4-18.1 7.4zm-26.1-33.6c.2 5.9 1.7 17.7 8.7 25.1 4.3 4.6 10.2 6.9 17.4 6.9 7.1 0 12.9-2.3 17.1-6.9 7.4-8.1 8.2-21.2 8.1-26.7-1.5 2.3-4.3 5.3-7.8 5.3-2.3 0-4-1.2-6-2.6-2.7-1.9-6.1-4.2-12.3-4.2-6.5 0-9.3 2.1-11.8 4-1.9 1.4-3.7 2.7-6.5 2.7-3.6.1-5.7-1.8-6.9-3.6z"/></g><g id="XMLID_4541_"><g id="XMLID_4546_"><path id="XMLID_4501_" class="st12" d="M159.7 391.3c-1.1 3.6-5.2 3.5-9.5 3.5s-9.5.5-10.5-3.2c-1.2-4.1 6.1-4.5 10.5-4.5s10.7.3 9.5 4.2z"/></g><g id="XMLID_4542_"><path id="XMLID_4543_" class="st5" d="M147.5 395.6c-3.6 0-7.6-.3-8.6-3.8-.3-1.1-.1-2.1.5-2.9 1.3-1.8 4.8-2.6 10.8-2.6 4.1 0 8.4.3 9.9 2.4.4.5.8 1.5.4 2.8-1.3 4.1-5.7 4.1-10 4.1h-3zm2.6-7.7c-6.7 0-8.9 1.1-9.6 2-.3.4-.4.9-.2 1.5.6 2.2 3.2 2.7 7.1 2.7h2.9c4.7 0 7.6-.2 8.5-3 .3-.8 0-1.2-.1-1.4-1.1-1.8-6.7-1.8-8.6-1.8z"/></g></g><g id="XMLID_4539_"><path id="XMLID_4498_" class="st5" d="M132.9 370.3c-.2 0-.4-.1-.6-.3-.3-.3-.3-.8.1-1.1 1.1-1 2.7-1.5 4.2-1.4 1.2.1 2.2.6 2.8 1.5.3.3.2.8-.2 1.1-.3.3-.8.2-1.1-.2-.4-.5-1-.8-1.7-.8-1.1-.1-2.2.3-3 1-.1.1-.3.2-.5.2z"/></g><g id="XMLID_4537_"><path id="XMLID_4497_" class="st5" d="M166.9 370.3c-.2 0-.4-.1-.5-.2-.8-.7-2-1.1-3.2-1-.9.1-1.7.4-2.2.9-.3.3-.8.3-1.1.1-.3-.3-.3-.8-.1-1.1.8-.9 1.9-1.4 3.3-1.4 1.6-.1 3.1.4 4.3 1.4.3.3.3.8.1 1.1-.2.1-.4.2-.6.2z"/></g><g id="XMLID_4535_"><path id="XMLID_4496_" class="st13" d="M142.8 323.1c10.2-2.8 21 4.2 25.9 10.6 4.1 5.3 9 3.8 12.8 9.6s1.3 16.6-1.5 21.2l-2.7 4.6s-3.6-14.2-9.1-16.6c-5.5-2.4-5.3 3.4-17.5 2.4s-16.3-8.2-19.3-7.2c-2.9 1-2.5 6.3-5.1 11.5-2.5 5.3-4 9.9-4 9.9s-8.1-15.5-4.8-24.3c2.5-6.7 7.2-4.3 10.6-8.7 3.5-4.3 7.5-11 14.7-13z"/></g><g id="XMLID_4531_"><path id="XMLID_4532_" class="st5" d="M122.5 369.8c-.3 0-.5-.2-.7-.4-.3-.6-8.2-15.9-4.9-24.9 1.6-4.2 4-5.1 6.3-6 1.6-.6 3.1-1.2 4.4-2.8.5-.6 1-1.3 1.5-2 3.1-4.3 7.1-9.6 13.5-11.3 1.6-.4 3.3-.6 5-.6 8.8 0 17.3 5.8 21.8 11.5 1.9 2.4 3.9 3.3 6 4.3 2.4 1.1 4.8 2.2 6.9 5.4 4.1 6.2 1.3 17.4-1.4 22l-2.7 4.6c-.2.3-.5.4-.8.4s-.6-.3-.6-.6c-1-3.8-4.4-14.2-8.6-16.1-.8-.4-1.5-.5-2.1-.5-1 0-1.8.4-3 .9-1.9.9-4.5 2.2-9.5 2.2-.9 0-1.8 0-2.7-.1-7.6-.6-12.2-3.6-15.2-5.6-1.7-1.1-2.9-1.9-3.7-1.7-1.4.4-1.9 2.3-2.5 5-.5 1.9-1 4-2.1 6.2-2.5 5.2-4 9.7-4 9.8-.3.1-.6.3-.9.3zm43.4-18.7c.9 0 1.8.2 2.8.7 4.6 2 7.8 11.4 9 15.4l1.8-3c2.5-4.1 5.1-14.7 1.5-20.3-1.9-2.8-4-3.8-6.2-4.8s-4.4-2-6.5-4.7c-4.1-5.3-12.3-10.9-20.6-10.9-1.6 0-3.1.2-4.6.6-5.9 1.6-9.6 6.6-12.6 10.7-.5.7-1 1.4-1.5 2-1.5 2-3.4 2.7-5 3.3-2.2.8-4.1 1.6-5.5 5.1-2.5 6.8 2.1 17.9 4 22 .7-1.8 1.9-4.9 3.4-8.2 1-2 1.5-4.1 2-5.9.7-2.9 1.4-5.3 3.5-6.1.3-.1.5-.1.8-.1 1.3 0 2.5.8 4.2 2 2.9 1.9 7.3 4.8 14.5 5.3.9.1 1.8.1 2.6.1 4.6 0 6.9-1.1 8.8-2 1.1-.7 2.2-1.2 3.6-1.2z"/></g><g id="XMLID_4529_"><path id="XMLID_4493_" class="st5" d="M149.8 380.9c-.3 0-.6 0-.9-.1-2-.3-2.8-1.8-2.9-1.9-.2-.4-.1-.8.3-1 .4-.2.8-.1 1 .3 0 0 .5.9 1.7 1.1s2.2-.1 2.6-.7c.3-.4.2-1-.1-1.5-1.1-1.7-2.9-7.5-2.4-9.4.1-.4.5-.7.9-.5.4.1.7.5.5.9-.4 1.3 1.1 6.5 2.2 8.2.7 1 .7 2.2.1 3.1-.5 1-1.6 1.5-3 1.5z"/></g><g id="XMLID_4527_"><path id="XMLID_4492_" class="st5" d="M149.8 392.7c-2.2 0-4-.8-4.9-2.1-.2-.4-.2-.8.2-1.1.3-.2.8-.2 1.1.2.6.9 2 1.4 3.6 1.4 1.9 0 3.7-.7 4.3-1.6.2-.4.7-.4 1.1-.2.4.2.4.7.2 1.1-1.1 1.6-3.6 2.3-5.6 2.3z"/></g><g id="XMLID_4579_"><g id="XMLID_4584_"><path id="XMLID_4544_" class="st12" d="M-24.1 373.3c0 3.6-2.3 6.4-5.2 6.4s-5.2-2.9-5.2-6.4c0-3.6 2.3-5.3 5.2-5.3s5.2 1.7 5.2 5.3z"/></g><g id="XMLID_4580_"><path id="XMLID_4581_" class="st5" d="M-29.3 380.5c-3.3 0-6-3.3-6-7.3 0-3.7 2.4-6.1 6-6.1s6 2.4 6 6.1c0 4.1-2.7 7.3-6 7.3zm0-11.7c-2.7 0-4.4 1.7-4.4 4.5 0 3.1 2 5.6 4.4 5.6s4.4-2.5 4.4-5.6c-.1-2.8-1.7-4.5-4.4-4.5z"/></g></g><g id="XMLID_4577_"><path id="XMLID_4536_" class="st4" d="M-10.2 409.4c-9.1-3.2-12.9-12.4-16.3-25.3-2-7.5-2.8-12.6-2.8-21.9 0-22.5 11.6-30.7 30.1-30.7s30.9 4.7 30.9 27.2c0 33.7-11 53.4-30.9 53.4"/></g><g id="XMLID_4575_"><path id="XMLID_4534_" class="st5" d="M.8 412.9c-.5 0-.8-.4-.8-.8 0-.5.4-.8.8-.8 19.1 0 30.1-19.2 30.1-52.6 0-21.9-12-26.4-30.1-26.4-9.6 0-16.6 2.2-21.4 6.7-5.2 4.9-7.9 12.7-7.9 23.2 0 9.5.9 14.5 2.8 21.7 4.6 17.6 9.5 22.5 15.8 24.7.4.2.7.6.5 1s-.6.7-1 .5c-9.2-3.2-13.3-12.3-16.8-25.8-1.9-7.3-2.8-12.5-2.8-22.1 0-21.2 10.1-31.6 30.9-31.6 16.5 0 31.8 3.4 31.8 28-.2 34.5-11.8 54.3-31.9 54.3z"/></g><g id="XMLID_4573_"><path id="XMLID_4533_" class="st5" d="M1.1 383.2c-.3 0-.7 0-1-.1-2.2-.3-3.2-2.1-3.2-2.2-.2-.4-.1-.9.3-1.1s.9-.1 1.1.3c0 0 .6 1.1 2 1.3s2.5-.1 3-.8c.3-.5.3-1.2-.1-1.9-1.2-2-3.3-8.7-2.7-11 .1-.4.6-.7 1-.6.4.1.7.6.6 1-.4 1.6 1.3 7.8 2.5 9.8.7 1.2.8 2.6.1 3.6-.7 1.1-2 1.7-3.6 1.7z"/></g><g id="XMLID_4570_"><path id="XMLID_4530_" class="st5" d="M-15.5 368.1c-.2 0-.4-.1-.6-.2-.3-.3-.3-.8 0-1.2 1.1-1.1 2.6-1.8 4-1.6 1.2.1 2.2.7 2.8 1.7.2.4.1.9-.3 1.1-.4.2-.9.1-1.1-.3-.3-.5-.9-.9-1.6-.9-.9-.1-2 .3-2.7 1.1-.1.2-.3.3-.5.3z"/></g><g id="XMLID_4564_"><path id="XMLID_4528_" class="st5" d="M17 368.1c-.2 0-.4-.1-.6-.3-.7-.8-1.8-1.2-2.9-1.1-.9 0-1.6.4-2.1 1-.3.4-.8.4-1.2.2-.4-.3-.4-.8-.2-1.2.7-1 1.9-1.6 3.3-1.7 1.5-.1 3.1.5 4.1 1.6.3.3.3.8 0 1.2.1.2-.1.3-.4.3z"/></g><g id="XMLID_4559_"><path id="XMLID_4526_" class="st5" d="M.4 393.6c-2.1 0-3.9-.8-4.8-2.1-.3-.4-.2-.9.2-1.1.4-.3.9-.2 1.1.2.6.9 2 1.4 3.7 1.3 1.8-.1 3.5-.8 4.1-1.8.2-.4.7-.5 1.1-.3s.5.7.3 1.1c-.9 1.5-3 2.5-5.5 2.6 0 .1-.1.1-.2.1z"/></g><g id="XMLID_4550_"><g id="XMLID_4556_"><path id="XMLID_4524_" class="st12" d="M28.9 381.5c4.4.3 7.4-3.9 7.6-7.7.2-3.7-3.5-5.2-6.5-4.9"/></g><g id="XMLID_4551_"><path id="XMLID_4520_" class="st5" d="M29.4 382.3h-.5c-.5 0-.8-.4-.8-.9s.4-.8.9-.8c1.9.1 3.3-.7 4.1-1.4 1.5-1.3 2.5-3.4 2.7-5.5.1-1.1-.3-2.1-1-2.8-1-1-2.8-1.5-4.5-1.2-.5.1-.9-.3-.9-.7-.1-.5.3-.9.7-.9 2.2-.3 4.5.4 5.9 1.7 1.1 1 1.6 2.4 1.6 4-.1 2.5-1.4 5-3.2 6.6-1.6 1.3-3.3 1.9-5 1.9z"/></g></g><path id="XMLID_4519_" d="M30.8 369c4.4-13.1 4.4-24.2 2.1-34.9-1.2-5.6-3.7-10-3.7-10-5.7 1.3-7.3-2.1-22.7-4.2-11.1-1.5-16.2 2-18.1 4.1 0 0-3.6-1.8-10.9 1.4-6.6 2.9-12.3 10.5-8.3 34.3 1.2 9.6 4.4 18.3 4.4 18.3s-1.5-18.9 1.5-26.4c.1-.4.3-.7.5-1l1.5-2.2c4.1-4.7 11.7-5.4 14.6-2.6 3.4 3.3 9.2 2.9 9.2 2.9s5.8.4 9.2-2.9c3.4-3.3 13.6-1.7 16.5 5.8s1.5 26.4 1.5 26.4 1.4-3.7 2.7-9z" style="fill:#7e50ff;stroke:#5c5c74;stroke-width:2;stroke-miterlimit:10"/></svg>