<svg version="1.1" id="Layer_1" xmlns="http://www.w3.org/2000/svg" x="0" y="0" viewBox="500 -340 1400 980" style="enable-background:new 500 -340 1400 980" xml:space="preserve"><style>.st0{fill:#57449b}.st1{fill:#fab08a}.st2{fill:#493c87}.st3{fill:#ffd495}.st4{fill:#ef8d65}.st5{fill:#191919}.st6{fill:#e8892c}.st7{fill:#e5e5e5}.st8{fill:#5b4f5f}.st9{fill:#b8bebc}.st10{fill:#3b2d3d}.st11{fill:#4c4152}.st12{fill:#34769b}.st13{fill:#459dc5}.st14{fill:#5c5661}.st15{fill:#3c3142}</style><path id="XMLID_1419_" class="st0" d="m827.4 473.3 25.1 4.8s-.6 5.1 1.6 7c2.2 1.9 28.7 1.9 38.8 10.5 10.2 8.6 4.4 11.7 4.4 11.7H823s-2.1-11.4 0-17.8 4.4-16.2 4.4-16.2z"/><path id="XMLID_547_" class="st1" d="m856.6 467.3-6.2 10.3-21.2-4 6.5-19"/><path id="XMLID_1415_" class="st2" d="M906 168.7s25.4 130.7 24.7 145.9c-.6 15.2-71.7 154.2-71.7 154.2l-26-15.9s52-123.1 52-137.7-62-146.5-62-146.5h83z"/><path id="XMLID_1413_" class="st0" d="m787 168.7 8.4 311.4h26.3l37.4-311.4z"/><path id="XMLID_1411_" class="st0" d="M797.9 480.1s-4.1 11.9-4.8 18.9l-.6 7s26.6 17.1 47.6 16.2c20.9-1 19-8.9 19-8.9s-31.8-19.7-36.1-23.8c-4.2-4.1-3.9-9.4-3.9-9.4h-21.2z"/><path id="XMLID_1408_" class="st3" d="M881.7-193.3c16.7 0 43 2.2 43 39.7v119.3l-79.1-1.3S797.9 11 788.4-20.7s9.2-47.9 20.9-68.8 17.1-48.3 17.1-70.1 20.8-33.7 55.3-33.7z"/><path id="XMLID_546_" class="st2" d="m877.7-69.2 34.5 13L964.7 23l-34.2 19.1-23.4-24.7v122.5h-29.4V-45.8z"/><path id="XMLID_539_" class="st4" d="M859-50.2c8.3 2.1 16.8-3 18.9-11.3l11.2-44.6c2.1-8.3-3-16.8-11.3-18.9-8.3-2.1-16.8 3-18.9 11.3L847.7-69c-2.1 8.3 3 16.8 11.3 18.8z"/><path id="XMLID_1402_" class="st3" d="M839.7-95.9h68.2c7.3 0 13.3-6 13.3-13.3v-70.9c0-7.3-6-13.2-13.3-13.2h-68.2c-7.3 0-13.3 6-13.3 13.2v70.9c0 7.3 6 13.3 13.3 13.3z"/><path id="XMLID_536_" class="st4" d="M876-75.3h11.4c18.5 0 33.6-15.1 33.6-33.6v-47.2c0-18.5-15.1-33.6-33.6-33.6H876c-18.5 0-33.6 15.1-33.6 33.6v47.2c0 18.5 15.1 33.6 33.6 33.6z"/><path id="XMLID_534_" class="st1" d="M887.4-75.3c18.5 0 33.6-15.1 33.6-33.6v-47.2c0-18.5-15.1-33.6-33.6-33.6s-33.6 15.1-33.6 33.6v47.2c0 18.5 15.1 33.6 33.6 33.6z"/><path id="XMLID_533_" class="st4" d="M849.5-137s-1.7-3.5-7.1-3.5c-5.4 0-8.4 2.5-8.4 16s8.4 14.2 8.4 14.2l7.1-26.7z"/><circle id="XMLID_530_" class="st5" cx="881.7" cy="-125.7" r="4.5"/><circle id="XMLID_526_" class="st5" cx="912.2" cy="-125.7" r="4.5"/><path id="XMLID_529_" class="st3" d="M887.3-138.2c-.1-.1-2.1-1.8-5.8-1.8-3.6 0-5.2 1.6-5.3 1.7l-1.9-1.7c.1-.1 2.3-2.5 7.1-2.5 4.7 0 7.4 2.3 7.5 2.4l-1.6 1.9z"/><path id="XMLID_527_" class="st3" d="M917.8-138.2c-.1-.1-2.1-1.8-5.8-1.8-3.6 0-5.2 1.6-5.3 1.7l-1.9-1.7c.1-.1 2.3-2.5 7.1-2.5 4.7 0 7.4 2.3 7.5 2.4l-1.6 1.9z"/><path id="XMLID_524_" class="st1" d="m870.6-167.1-5.5-11.6 6.6 10.4z"/><path id="XMLID_522_" class="st0" d="M848.5-71.9c-.1 1.6-.9 12.2 0 14.7 1 2.7 19.6 38.1 19.6 38.1l9.5-41 29.6 156.9v93.4H786.6V72.4s-2.1-112.6 3.3-119c4.7-5.5 30.4-20.9 58.6-25.3z"/><path id="XMLID_519_" class="st1" d="M726.1 44.2c-16.3 25.6 62.6 103.2 62.6 103.2s24.6 6.4 10.8-12.8c-13.8-19.2-28.9-49-41.2-74.6-4.9-8.9-22.6-30.8-32.2-15.8z"/><path id="XMLID_520_" class="st5" d="M897.4-95.4c-5.6 0-8.2-4-8.3-4.2-.4-.6-.2-1.4.4-1.8.6-.4 1.4-.2 1.8.4.1.1 2.3 3.4 7.1 3 3-.3 5.3-2.7 5.4-2.7.5-.5 1.3-.5 1.8 0s.5 1.3 0 1.8c-.1.1-3 3.1-7 3.5h-1.2z"/><path id="XMLID_1378_" class="st4" d="M749.4 88.7c-12.1-24.7-10.8-31.9-10.8-31.9s-2.8-9.5-5.7-17.6c-2.5.4-4.8 1.9-6.7 5-16.3 25.6 62.6 103.2 62.6 103.2l3.8-4.5c-.1-.1-31.1-29.5-43.2-54.2z"/><path id="XMLID_517_" class="st0" d="M790.3-47.9s-63.9 84.3-65.6 95.3c-1.7 11 35.9 11.7 35.9 11.7s49.6-55.9 58.9-71.2c9.3-15.3 16.4-51.7-29.2-35.8z"/><path id="XMLID_516_" class="st1" d="M962.2 47.4c13.5-10.1-33.6-82.4-34.6-89.3-1-7-21.8.3-15.2 8.4 6.6 8 10 27 19.9 69 2.3 9.8 15.6 22.5 29.9 11.9z"/><path id="XMLID_499_" class="st1" d="m912.4-33.5 15.2-8.4s-.7-11.4-4.9-18.8-13.6-16.6-16.3-17.8c-2.6-1.2-2.7 5.1.6 8.6 3.3 3.5 4.7 6.8 4.3 8.4s-10.4-3.2-15.7-9.2c-5.3-6-5.6-13-7.6-15.3-2-2.2-5.3-2.9-4.5 3.2.7 6.1 3.3 9.6 3.3 9.6s-2 16.6 2.9 23.2c4.8 6.8 14 8.4 22.7 16.5z"/><path id="XMLID_1364_" class="st4" d="m912.4-33.5 2.4-1.3 1.6-.9c-1.8-2.3-5.2-6.1-11-10.2-9.3-6.6-10.3-8.1-10.5-11.2-.3-3.3-10.9-22.1-10.5-30.2-.9.4-1.4 1.8-1.1 4.6.7 6.1 3.3 9.6 3.3 9.6s-.8 6.5-.2 13c.1 1.3.3 2.6.5 3.8.5 2.5 1.3 4.8 2.5 6.4 5.1 6.7 14.3 8.3 23 16.4z"/><path id="XMLID_1362_" class="st4" d="M955.9 50.6c-16.4-1.8-27.4-57-38-84.2 0 0-1.6-2.7-5.5-6.5-1.6 1.9-2 4.2-.1 6.5 6.6 8 10 27 19.9 69 2.1 8.4 12 18.8 23.7 15.2z"/><path id="XMLID_511_" class="st0" d="M886.2-115.8H874c-4.3 0-7.7-3.5-7.7-7.7v-7.8c0-4.3 3.5-7.7 7.7-7.7h12.3c4.3 0 7.7 3.5 7.7 7.7v7.8c0 4.2-3.5 7.7-7.8 7.7zM874-136.5c-2.9 0-5.2 2.3-5.2 5.2v7.8c0 2.9 2.3 5.2 5.2 5.2h12.3c2.9 0 5.2-2.3 5.2-5.2v-7.8c0-2.9-2.3-5.2-5.2-5.2H874z"/><path id="XMLID_510_" class="st0" d="M892.7-128.7h8.3v2.5h-8.3z"/><path id="XMLID_509_" transform="rotate(-161.714 858.48 -130.485)" class="st0" d="M849-131.7h18.9v2.5H849z"/><path id="XMLID_1352_" class="st3" d="M921.1-161.6v29.1c0-12.8-11.2-23-21-26.8-9.8-3.8-16.2-13.6-16.2-13.6s-11.7 5-17 14.1c-5.2 9-8.9 50.3-17.4 65.2s-11.3 19.8-11.3 19.8-11.8-25.5-11.8-55.6 20.7-63.8 45.3-63.8c34.1-.1 49.4 4.4 49.4 31.6z"/><path id="XMLID_1350_" class="st6" d="M849.1-197.8s-1.6-2.2-1.8-4.2c-.2-2-2.5-4-5.1-2.7s-2 4.2 0 5.3c2 1 3.8 2.8 3.8 2.8-7.9 3.1-15.4 7.1-21.9 11.7-26.4 18.6-5.4 43.7 0 44.9 5.4 1.2 9.9-.4 23.1-5.8 13.2-5.4 32.6-16.1 42.7-26.5 9.6-9.9 18.3-15.9 18.3-15.9-10.3-18-35.8-18-59.1-9.6z"/><path id="XMLID_501_" class="st0" d="M919.7-115.8h-12.3c-4.3 0-7.7-3.5-7.7-7.7v-7.8c0-4.3 3.5-7.7 7.7-7.7h12.3c4.3 0 7.7 3.5 7.7 7.7v7.8c0 4.2-3.5 7.7-7.7 7.7zm-12.3-20.7c-2.9 0-5.2 2.3-5.2 5.2v7.8c0 2.9 2.3 5.2 5.2 5.2h12.3c2.9 0 5.2-2.3 5.2-5.2v-7.8c0-2.9-2.3-5.2-5.2-5.2h-12.3z"/><path id="XMLID_497_" class="st0" d="M1601.7 480.1s4.1 11.9 4.8 18.9l.6 7s-26.6 17.1-47.6 16.2c-20.9-1-19-8.9-19-8.9s31.8-19.7 36.1-23.8c4.2-4.1 3.9-9.4 3.9-9.4h21.2z"/><path id="XMLID_495_" class="st0" d="M1545.9 473.7h-26.6s0 9.8-2.3 11.7c-2.3 1.9-28.7 1.9-38.8 10.5s-4.4 11.7-4.4 11.7h74.3s2.1-11.4 0-17.8c-2.3-6.2-2.2-16.1-2.2-16.1z"/><path id="XMLID_494_" class="st1" d="M795.4 134.6s3.9-2.5 10.3.1c6.6 2.6 11.9 5.4 10.2 9-1.5 3.3-9.9-2-9.9-2l1.4 2.7-10.1 16s-10.4-4.3-12.8-13l10.9-12.8z"/><path id="XMLID_492_" class="st7" d="M1606.3-55.9c-5.4-6.3-39-26-72-26.5l-41.9 14.1-.4 77.6c0 .1 119.7-58.8 114.3-65.2z"/><path id="XMLID_491_" class="st0" d="m1518.9-77.2-34.4 13-63.3 91.6 34.2 19.1 34.1-37.1v122.5h29.4V-53.8z"/><path id="XMLID_490_" class="st0" d="M1573.5-167.7v55.2c0 6.8 5.4 12 15.5 12 10.2 0 13.5 17.2 0 17.2h-60.3l-9.9-66 54.7-18.4z"/><path id="XMLID_487_" class="st4" d="M1537.6-58.1c-8.3 2.1-16.8-3-18.9-11.3l-11.2-44.6c-2.1-8.3 3-16.8 11.3-18.9 8.3-2.1 16.8 3 18.9 11.3l11.2 44.6c2.1 8.3-3 16.8-11.3 18.9z"/><path id="XMLID_484_" class="st0" d="M1539.9-103.9h-30.7c-18.5 0-33.6-15.1-33.6-33.6v-30.1c0-18.5 15.1-33.6 33.6-33.6h30.7c18.5 0 33.6 15.1 33.6 33.6v30.1c0 18.5-15.1 33.6-33.6 33.6z"/><path id="XMLID_483_" class="st4" d="M1520.6-83.3h-11.4c-18.5 0-33.6-15.1-33.6-33.6v-47.2c0-18.5 15.1-33.6 33.6-33.6h11.4c18.5 0 33.6 15.1 33.6 33.6v47.2c.1 18.5-15.1 33.6-33.6 33.6z"/><path id="XMLID_481_" class="st1" d="M1509.2-83.3c-18.5 0-33.6-15.1-33.6-33.6v-47.2c0-18.5 15.1-33.6 33.6-33.6s33.6 15.1 33.6 33.6v47.2c0 18.5-15.1 33.6-33.6 33.6z"/><path id="XMLID_480_" class="st0" d="M1554.3-145s-2.9-10.2-7.1 0c-4.3 10.2 5 31.6 1.6 31.6 0 0-10.5-14-10.5-37.3 0-11.7-13.3-25.6-13.3-25.6s-6 10.5-21.3 13.4c-25.6 4.9-26.7 11.8-28.1 16.5 0 0-8.8-54.8 26.2-54.8h29.6l12.1 5.2 14.9 14.4-4.1 36.6z"/><path id="XMLID_478_" class="st4" d="M1547.1-145s1.7-3.5 7.1-3.5 8.4 2.5 8.4 16-8.4 14.2-8.4 14.2l-7.1-26.7z"/><circle id="XMLID_473_" class="st5" cx="1514.9" cy="-133.7" r="4.5"/><circle id="XMLID_471_" class="st5" cx="1484.5" cy="-133.7" r="4.5"/><path id="XMLID_477_" class="st0" d="M1521.3-145.9c-.3 0-.7-.1-.9-.4-.1-.1-1.7-1.7-5.3-1.7-3.7 0-5.8 1.7-5.8 1.8-.5.4-1.3.4-1.8-.1s-.4-1.3.1-1.8c.1-.1 2.8-2.4 7.5-2.4 4.8 0 7 2.4 7.1 2.5.5.5.4 1.3-.1 1.8-.1.1-.5.3-.8.3z"/><path id="XMLID_474_" class="st0" d="M1490.9-145.9c-.3 0-.7-.1-.9-.4-.1-.1-1.7-1.7-5.3-1.7-3.7 0-5.8 1.7-5.8 1.8-.5.4-1.3.4-1.8-.1s-.4-1.3.1-1.8c.1-.1 2.8-2.4 7.5-2.4 4.8 0 7 2.4 7.1 2.5.5.5.4 1.3-.1 1.8-.2.1-.5.3-.8.3z"/><path id="XMLID_470_" class="st1" d="m1526-175.1 5.5-11.6-6.6 10.4z"/><path id="XMLID_469_" class="st0" d="M1547.8-81.2c.1 1.6.9 12.2 0 14.7-1 2.7-19.6 38.1-19.6 38.1l-9.5-41L1492 87.5v93.4h117.6V63.1s2.1-112.6-3.3-119c-4.6-5.4-30.3-20.8-58.5-25.3z"/><path id="XMLID_468_" class="st1" d="M1652.5 47.1c12.1 11.8-37.6 87.8-37.6 87.8l-15.5-12s19.8-57.4 22.7-67c2.8-9.7 17.7-21.3 30.4-8.8z"/><path id="XMLID_465_" class="st1" d="M1599.3 122.9s-6.7-.7-13 2.2c-6.3 2.8-8.3 7.1-5.8 9.6 2.6 2.5 8.6-4.4 8.6-4.4l-.9 2.9 16.8 17.1s9.2-6.4 9.7-15.4l-15.4-12z"/><path id="XMLID_1285_" class="st4" d="m1599.4 144.4 5.8 5.9s9.2-6.4 9.7-15.4l-6.3-4.9c1.1 3.8-9.2 14.4-9.2 14.4z"/><path id="XMLID_1283_" class="st4" d="M1643.1 41.9c4 6.1.7 17-8.2 39-8.9 22-26.3 49.1-26.3 49.1l6.3 4.9s49.7-76.1 37.6-87.8c-3.1-3-6.3-4.6-9.4-5.2z"/><path id="XMLID_1281_" class="st0" d="m1457.7 48-38.3-21.4 11.5-16.6 39.9 23.7z"/><path id="XMLID_464_" class="st1" d="m1450.4 43.9-33.5 35.9L1398 70l28.9-39.7z"/><path id="XMLID_466_" class="st5" d="M1499.2-103.4c-.4 0-.7 0-1.1-.1-4-.4-6.8-3.4-7-3.5-.5-.5-.5-1.3 0-1.8s1.3-.5 1.8 0c0 0 2.4 2.4 5.3 2.7 4.8.4 7-2.8 7.1-3 .4-.6 1.2-.8 1.8-.4.6.4.8 1.2.4 1.7-.1.4-2.7 4.4-8.3 4.4z"/><path id="XMLID_463_" class="st0" d="M1606 157.8v322.3h-33.1l-22.7-322.3z"/><path id="XMLID_456_" class="st2" d="m1550.9 157.8-2.4 315.9h-32.6l-20.8-315.9z"/><path id="XMLID_452_" class="st8" d="M1431.1 365h-40.7c-6.7 0-12.3-5.5-12.3-12.3V335c0-6.7 5.5-12.3 12.3-12.3h40.7c6.7 0 12.3 5.5 12.3 12.3v17.8c0 6.7-5.5 12.2-12.3 12.2z"/><path id="XMLID_449_" class="st8" d="M1470.8 351.9h-120.1c-6.7 0-12.3-5.5-12.3-12.3v-17.8c0-6.7 5.5-12.3 12.3-12.3h120.1c6.7 0 12.3 5.5 12.3 12.3v17.8c0 6.8-5.5 12.3-12.3 12.3z"/><path id="XMLID_448_" class="st8" d="M879.1 200.1h25.4v323h-25.4z"/><path id="XMLID_447_" class="st8" d="M966.6 200.1H992v322.1h-25.4z"/><path id="XMLID_441_" class="st9" d="M1398.1 365h25.4v108.7h-25.4z"/><path id="XMLID_440_" class="st8" d="M1394.5 473.7v-46.8c0-2.1 1.7-3.8 3.8-3.8h25.1c2.1 0 3.8 1.7 3.8 3.8v46.8c0 2.1-1.7 3.8-3.8 3.8h-25.1c-2.1-.1-3.8-1.7-3.8-3.8z"/><path id="XMLID_435_" class="st10" d="M916.7 244.4h128.6v262.3H916.7z"/><path id="XMLID_434_" class="st8" d="M916.7 506.7H1146v15.5H916.7z"/><path id="XMLID_432_" class="st11" d="M1045.3 244.4H1146v262.3h-100.7z"/><path id="XMLID_430_" class="st10" d="M1146 272.8h51.6v56.7H1146z"/><path id="XMLID_428_" class="st11" d="M1184.9 267.3h12.7v62.2h-12.7z"/><path id="XMLID_427_" class="st12" d="M1172.2 252h12.7v20.7h-12.7z"/><path id="XMLID_425_" class="st13" d="M1146 252h26.2v20.7H1146z"/><path id="XMLID_423_" class="st10" d="M1443 338.4h-172.7c-11.5 0-20.9-9.3-20.9-20.9v-7.8c0-11.5 9.3-20.9 20.9-20.9H1443c11.5 0 20.9 9.3 20.9 20.9v7.8c0 11.5-9.4 20.9-20.9 20.9z"/><path id="XMLID_420_" class="st10" d="M1518.6 309.8h-156.7c-5 0-9-4.1-9-9 0 0-5.1-94.5-5.1-126 0-32 5.1-128 5.1-128 0-5 4.1-9 9-9h156.7c5 0 9 4.1 9 9 0 0-5.1 96-5.1 128 0 31.5 5.1 126 5.1 126 0 4.9-4 9-9 9z"/><path id="XMLID_418_" class="st11" d="M1522.6 174.7c0-32 5.1-128 5.1-128 0-5-4.1-9-9-9h-4.4c-5 0-9 4.1-9 9 0 0-5.1 96-5.1 128 0 24.7 3.1 87.9 4.5 114.2H1445c-11.5 0-20.9 9.3-20.9 20.9v7.8c0 11.5 9.3 20.9 20.9 20.9h77.3c3.1 0 5.6-2.5 5.6-5.6v-23.1c0-1.9-.3-3.7-.7-5.5.5-1.1.7-2.3.7-3.6-.3 0-5.3-94.5-5.3-126z"/><path id="XMLID_417_" class="st10" d="M1003.5 163.9h126.3v10.8h-126.3z"/><path id="XMLID_414_" class="st14" d="M1129.8 163.9h32.7v10.8h-32.7z"/><path id="XMLID_412_" class="st7" d="M1505.4 144.9s-59.9-82.9-65.3-89.2c-5.4-6.3-39-26-72-26.5l-41.9 14.1-96.1 131.3h37.3l58.4-53.7v122.5h140.6v-68.8l39-29.7z"/><path id="XMLID_411_" class="st2" d="m1352.6 34.4-26.4 8.9-96.1 131.4h44.8l40.7-53.7v122.5h37V57.8z"/><path id="XMLID_410_" class="st4" d="M1374.6 57.8c-6 6-15.9 6-22 0l-32.5-32.5c-6-6-6-15.9 0-22 6-6 15.9-6 22 0l32.5 32.5c6.1 6 6.1 15.9 0 22z"/><path id="XMLID_409_" class="st7" d="m1241 135.6 14.2-93.3h35.5l-15.7 93.3z"/><path id="XMLID_407_" class="st0" d="m1230.1 174.7 22-120.8h38.6l-15.8 120.8z"/><path id="XMLID_405_" class="st1" d="m1282.5 42.3 6.6-9.8 6.2-3.9-5.9-27.9-9 5.2-20.4 36.4z"/><path id="XMLID_404_" class="st0" d="M1381.4 30.3s8.2 5.1 8.2 20.4v192.9h76.8v-68.8l44.2-27-69.2-94.2c-.1-.1-27.5-24.2-60-23.3z"/><path id="XMLID_402_" class="st2" d="M1352.6 241.5h-91.5c-19.6 0-39 0-51.3 43.1-12.3 43.1-25.8 189.1-25.8 189.1h51.6l34.6-184.9h81.9l.5-47.3z"/><path id="XMLID_400_" class="st8" d="m1427.1 457.4 103.7 20v17.3l-9.5 1v-9.2l-94.2-15.2z"/><path id="XMLID_399_" class="st8" d="m1394.5 457.4-103.7 20v17.3l9.5 1v-9.2l94.2-15.2z"/><path id="XMLID_398_" class="st8" d="m1427.1 456.4 34.5 21v17.3l-9.5 1v-9.2l-25-16.1z"/><path id="XMLID_397_" class="st8" d="m1394.5 456.4-34.6 21v17.3l9.5 1v-9.2l25.1-16.1z"/><path id="XMLID_395_" class="st8" d="M1294.9 490.2c-10.5 0-19 8.5-19 19h38.1c0-10.4-8.6-19-19.1-19z"/><path id="XMLID_394_" class="st8" d="M1364.1 490.2c-10.5 0-19 8.5-19 19h38.1c-.1-10.4-8.6-19-19.1-19z"/><path id="XMLID_393_" class="st8" d="M1457.5 490.2c-10.5 0-19 8.5-19 19h38.1c-.1-10.4-8.6-19-19.1-19z"/><path id="XMLID_392_" class="st8" d="M1526.6 490.2c-10.5 0-19 8.5-19 19h38.1c0-10.4-8.6-19-19.1-19z"/><path id="XMLID_391_" class="st9" d="M1191.7 473.7h38.9l-2.6 22h-38.8z"/><path id="XMLID_390_" class="st15" d="M1153.2 514.3h79.1v8.5h-79.1z"/><path id="XMLID_389_" class="st0" d="M1227.4 488.4s1.1 6.6-9 6.6-12.8-13.4-12.8-13.4h-19l-4.2 13.7s-5.2 6.3-14.9 6.3h-3.1c-6.1 0-11.1 5-11.1 11.1v1.7h79.1v-12.8c-.1-7-.4-13.2-5-13.2z"/><path id="XMLID_388_" class="st0" d="M1500.9 174.7h-73.8v-30.5h73.8c8.4 0 15.2 6.8 15.2 15.2 0 8.5-6.8 15.3-15.2 15.3z"/><path id="XMLID_387_" class="st7" d="M1416.6 148.7h10.5v26h-10.5z"/><path id="XMLID_384_" class="st1" d="M1395.1 147.8c-8.9-1.1-23.9 5.1-28.1 7.6s-16.3 14.6-16.5 16.5 3.8 2.7 4.7 2.7c.8 0 16.3-12.1 16.3-12.1s-9.1 8.2-10.4 10.2c-1.3 1.9 5.3 1.9 5.3 1.9l11.4-8.9s-5.7 5.1-6.1 7c-.4 1.9 3.6 1.9 3.6 1.9l4.6-2.5s2.6 2.5 10.2 2.5h26.6v-22.2c-.1.1-12.7-3.5-21.6-4.6z"/><path id="XMLID_382_" class="st4" d="m1289.4.7-9 5.2 8.9 19.7-10.7 16.7h9l6.5-9.8 6.2-3.9z"/><path id="XMLID_680_" class="st0" d="M1365.6 15.1h-63c-7.3 0-13.3-6-13.3-13.3V-69c0-7.3 6-13.3 13.3-13.3h63c7.3 0 13.2 6 13.2 13.3V1.9c0 7.2-5.9 13.2-13.2 13.2z"/><path id="XMLID_381_" class="st4" d="M1334.4 43.3H1323c-18.5 0-33.6-15.1-33.6-33.6v-58.4c0-18.5 15.1-33.6 33.6-33.6h11.4c18.5 0 33.6 15.1 33.6 33.6V9.7c.1 18.5-15.1 33.6-33.6 33.6z"/><path id="XMLID_380_" class="st1" d="M1323 43.3c-18.5 0-33.6-15.1-33.6-33.6v-58.4c0-18.5 15.1-33.6 33.6-33.6s33.6 15.1 33.6 33.6V9.7c0 18.5-15.1 33.6-33.6 33.6z"/><path id="XMLID_670_" class="st0" d="M1368.1-26h-7.1s-1 15.7-4.3 15.7c0 0-4.6 1.9-4.6-21.5s-7.5-25.7-7.5-25.7-11.9 10.3-27.1 13.5-32.7 3.2-35.4 7.5c0 0-1.6-45.8 33.5-45.8h29.6l12.1 5.2 14.9 14.4-4.1 36.7z"/><path id="XMLID_379_" class="st4" d="M1360.9-26s1.7-3.5 7.1-3.5c5.4 0 8.4 2.5 8.4 16S1368 .7 1368 .7l-7.1-26.7z"/><circle id="XMLID_663_" class="st5" cx="1328.7" cy="-14.7" r="4.5"/><circle id="XMLID_660_" class="st5" cx="1298.3" cy="-14.7" r="4.5"/><path id="XMLID_378_" style="fill:#b28f66" d="M845.2 174.7h761.4v25.4H845.2z"/><path id="XMLID_377_" class="st8" d="M1568.1 200.1h25.4v323h-25.4z"/><path id="XMLID_374_" class="st8" d="M1655.7 200.1h25.4v323h-25.4z"/><path id="XMLID_372_" style="fill:#ddbf97" d="M1606.6 174.7h116.7v25.4h-116.7z"/><circle id="XMLID_371_" class="st9" cx="1526.6" cy="509.3" r="13.8"/><circle id="XMLID_370_" class="st9" cx="1294.9" cy="509.3" r="13.8"/><circle id="XMLID_369_" class="st9" cx="1457.5" cy="509.3" r="13.8"/><circle id="XMLID_368_" class="st9" cx="1364.1" cy="509.3" r="13.8"/><path id="XMLID_367_" class="st0" d="M1295.3 473.7h52.5s2.5-168.4 8.9-184.9h88.1s21.7-21.9 21.7-45.4h-124.4c-23.5 0-38.7 9.2-41.9 58.1-3.2 48.9-4.9 172.2-4.9 172.2z"/><path id="XMLID_366_" class="st9" d="M1299.5 473.7h38.9v22h-38.9z"/><path id="XMLID_365_" class="st15" d="M1264.2 514.3h79.1v8.5h-79.1z"/><path id="XMLID_274_" class="st0" d="M1338.4 488.4s1.1 6.6-9 6.6-12.8-13.4-12.8-13.4h-19l-4.2 13.7s-5.2 6.3-14.9 6.3h-3.1c-6.1 0-11.1 5-11.1 11.1v1.7h79.1v-12.8c-.1-7-.4-13.2-5-13.2z"/><path id="XMLID_364_" class="st5" d="M1324.2 21.1h-18.4c-.7 0-1.3-.6-1.3-1.3s.6-1.3 1.3-1.3h18.4c.7 0 1.3.6 1.3 1.3s-.6 1.3-1.3 1.3z"/><path id="XMLID_361_" class="st0" d="M1335.1-26.9c-.3 0-.7-.1-.9-.4-.1-.1-1.7-1.7-5.3-1.7-3.7 0-5.8 1.7-5.8 1.8-.5.5-1.3.4-1.8-.1s-.4-1.3.1-1.8c.1-.1 2.8-2.4 7.5-2.4 4.8 0 7 2.4 7.1 2.5.5.5.4 1.3-.1 1.8-.1.2-.4.3-.8.3z"/><path id="XMLID_275_" class="st0" d="M1304.7-26.9c-.3 0-.7-.1-.9-.4-.1-.1-1.7-1.7-5.3-1.7-3.7 0-5.8 1.7-5.8 1.8-.5.5-1.3.4-1.8-.1s-.4-1.3.1-1.8c.1-.1 2.8-2.4 7.5-2.4 4.8 0 7 2.4 7.1 2.5.5.5.4 1.3-.1 1.8-.2.2-.5.3-.8.3z"/><path id="XMLID_273_" class="st2" d="m1460.1 144.2-33-36.5v36.5z"/><path id="XMLID_270_" class="st4" d="M1381.4 168.2c-2.5.6-8.6 6.1-8.6 6.1 1.1.4 2.5.4 2.5.4l4.6-2.5s2.6 2.5 10.2 2.5h26.6v-6.5c-.1 0-32.8-.7-35.3 0z"/><path id="XMLID_257_" class="st13" d="M1469.8 147.2h161.1v27.4h-161.1z"/><path id="XMLID_235_" class="st12" d="M1469.8 147.2h64.9v27.4h-64.9z"/><path id="XMLID_223_" class="st7" d="M1476.9 153.3h153.9v15.3h-153.9z"/><path id="XMLID_179_" style="fill:#fec023" d="M1482.7 119.8h161.1v27.4h-161.1z"/><path id="XMLID_178_" class="st6" d="M1482.7 119.8h64.9v27.4h-64.9z"/><path id="XMLID_176_" class="st7" d="M1489.9 125.4h153.9v16.2h-153.9z"/><path id="XMLID_137_" class="st0" d="M1606.3-55.9s48.4 91.8 50.1 102.8-36.9 8.8-36.9 8.8S1586.3-4.8 1577-20s-16.3-51.8 29.3-35.9z"/><path id="XMLID_567_" class="st4" d="M801.2 154.3s-9.9-1-12.7-11.5l-3.8 4.5c2.4 8.7 12.8 13 12.8 13l3.7-6z"/><path id="XMLID_135_" class="st10" d="M1214.8 127.1h-255c-4.4 0-7.9-3.6-7.9-7.9v-165c0-4.4 3.6-7.9 7.9-7.9h255.1c4.4 0 7.9 3.6 7.9 7.9v165c0 4.3-3.6 7.9-8 7.9z"/><path id="XMLID_134_" class="st14" d="M1214.8 127.1c-4.4 0-7.9-3.6-7.9-7.9v-165c0-4.4 3.6-7.9 7.9-7.9 4.4 0 7.9 3.6 7.9 7.9v165c.1 4.3-3.5 7.9-7.9 7.9z"/><path id="XMLID_77_" class="st11" d="M1095.9 163.9h-51.4l5-127.2h51.4z"/><path id="XMLID_76_" class="st14" d="M1088.9 163.9h-51.4l5.1-127.2h51.4z"/><path id="XMLID_4_" class="st4" d="M848.1-60.2s13.8 21.9 29.5.1l-9.5 41-20-38.6v-2.5z"/></svg>