<svg version="1.1" id="Calque_1" xmlns="http://www.w3.org/2000/svg" x="0" y="0" viewBox="0 0 580 370" style="enable-background:new 0 0 580 370" xml:space="preserve"><style>.st0,.st1{stroke-width:2;stroke-miterlimit:10}.st0{opacity:.2;fill:none;stroke:#cde5f8}.st1{fill:#fff}.st1,.st2{stroke:#cde5f8}.st2,.st3,.st4,.st5{fill:#fff;stroke-miterlimit:10}.st3{stroke-width:2}.st3,.st4,.st5{stroke:#1dae88}.st4{stroke-width:.8}.st5{stroke-width:2;stroke-linecap:round}</style><circle id="XMLID_38_" class="st0" cx="149.5" cy="96.1" r="56"/><circle id="XMLID_53_" class="st0" cx="149.5" cy="96.1" r="90.1"/><path id="XMLID_52_" class="st0" d="m5 263.8 89.5-49.4 41 18.5L483 99.2l40 47 79-37.8"/><path id="XMLID_1_" class="st1" d="M448.7 296.2H131.3c-4.7 0-8.5-3.8-8.5-8.5V82.3c0-4.7 3.8-8.5 8.5-8.5h317.4c4.7 0 8.5 3.8 8.5 8.5v205.4c.1 4.7-3.8 8.5-8.5 8.5z"/><path id="XMLID_3_" class="st1" d="M186.4 73.8v222.4"/><g id="XMLID_22_"><path id="XMLID_4_" class="st1" d="M353.3 73.8v10"/><path id="XMLID_5_" class="st1" d="M353.3 86.1v10"/><path id="XMLID_6_" class="st1" d="M353.3 98.4v10"/><path id="XMLID_7_" class="st1" d="M353.3 110.8v10"/><path id="XMLID_8_" class="st1" d="M353.3 123.1v10"/><path id="XMLID_9_" class="st1" d="M353.3 135.4v10"/><path id="XMLID_10_" class="st1" d="M353.3 147.8v10"/><path id="XMLID_11_" class="st1" d="M353.3 160.1v10"/><path id="XMLID_12_" class="st1" d="M353.3 172.4v10"/><path id="XMLID_13_" class="st1" d="M353.3 184.8v10"/><path id="XMLID_14_" class="st1" d="M353.3 197.1v10"/><path id="XMLID_15_" class="st1" d="M353.3 209.4v10"/><path id="XMLID_16_" class="st1" d="M353.3 221.8v10"/><path id="XMLID_17_" class="st1" d="M353.3 234.1v10"/><path id="XMLID_18_" class="st1" d="M353.3 246.4v10"/><path id="XMLID_19_" class="st1" d="M353.3 258.8v10"/><path id="XMLID_20_" class="st1" d="M353.3 271.1v10"/><path id="XMLID_21_" class="st1" d="M353.3 283.4v10"/></g><g id="XMLID_27_"><path id="XMLID_2_" class="st2" d="M145.7 91.7h7.5v7.5h-7.5z"/><path id="XMLID_23_" class="st2" d="M155.4 91.7h7.5v7.5h-7.5z"/><path id="XMLID_25_" class="st2" d="M145.7 101.5h7.5v7.5h-7.5z"/><path id="XMLID_24_" class="st2" d="M155.4 101.5h7.5v7.5h-7.5z"/></g><circle id="XMLID_26_" class="st1" cx="218.8" cy="107" r="11.5"/><circle id="XMLID_28_" class="st1" cx="218.8" cy="152.8" r="11.5"/><circle id="XMLID_29_" class="st1" cx="218.8" cy="198.6" r="11.5"/><circle id="XMLID_30_" class="st1" cx="218.8" cy="244.4" r="11.5"/><path id="XMLID_31_" class="st1" d="M245.8 107h87.5"/><path id="XMLID_32_" class="st1" d="M245.8 152.8h87.5"/><path id="XMLID_33_" class="st1" d="M245.8 198.6h87.5"/><path id="XMLID_34_" class="st1" d="M245.8 244.4h87.5"/><circle id="XMLID_35_" class="st1" cx="405.4" cy="135.8" r="20.3"/><path id="XMLID_37_" class="st3" d="M493.5 317.5H409c-5 0-9-4-9-9V144.4c0-5 4-9 9-9h84.6c5 0 9 4 9 9v164.1c-.1 5-4.1 9-9.1 9z"/><path id="XMLID_39_" class="st3" d="M400 162h102.5"/><g id="XMLID_40_"><path id="XMLID_44_" class="st4" d="M411.4 144h4.3v4.3h-4.3z"/><path id="XMLID_43_" class="st4" d="M416.9 144h4.3v4.3h-4.3z"/><path id="XMLID_42_" class="st4" d="M411.4 149.6h4.3v4.3h-4.3z"/><path id="XMLID_41_" class="st4" d="M416.9 149.6h4.3v4.3h-4.3z"/></g><circle id="XMLID_36_" class="st3" cx="423.4" cy="192.3" r="9.8"/><circle id="XMLID_45_" class="st3" cx="423.4" cy="219.4" r="9.8"/><circle id="XMLID_46_" class="st3" cx="423.4" cy="246.6" r="9.8"/><circle id="XMLID_47_" class="st3" cx="423.4" cy="273.8" r="9.8"/><path id="XMLID_48_" class="st5" d="M440.8 192.3h49.7"/><path id="XMLID_49_" class="st5" d="M440.8 219.4h49.7"/><path id="XMLID_50_" class="st5" d="M440.8 246.6h49.7"/><path id="XMLID_51_" class="st5" d="M440.8 273.8h49.7"/></svg>