<svg version="1.1" id="Layer_1" xmlns="http://www.w3.org/2000/svg" x="0" y="0" viewBox="0 0 500 373" style="enable-background:new 0 0 500 373" xml:space="preserve"><style>.st0{opacity:.3}.st1{fill:#a7abf9}.st2{fill:#7caaff}.st3{fill:#6d03e8}.st4{fill:#8c8cf9}.st5{fill:#ffaea6}.st6{fill:#241352}.st7{fill:#fff}.st11{fill:#ffbb7a}</style><g class="st0"><path class="st1" d="M184.4 348.2c-37.4-12.6-69.9-44-76.5-82.9s17.9-82.8 56.5-91.3c18.2-4 37.9-.4 55.4-7.1 32.9-12.6 44-55.4 74.4-73.2 29.3-17.2 69.4-4.8 91.2 21.2 21.8 26 28.2 61.9 26.8 95.8-2 49.8-23.1 103.5-68.3 124.6-38.2 17.8-118.7 22.8-159.5 12.9"/></g><path class="st2" d="M214.4 169.3c-3.4 3.3-4.7 8.3-1.4 12.2 3 3.7 8.9 4.5 12.7 1.5 9.2-7.1-.4-20.1-10.3-17.4-1.8.5-1.4 3.1.4 3.2 2.9.2 6 .3 8.3 2.3 2.5 2.2 2.5 5.9.5 8.4-5.4 6.6-14.8-3.1-9.1-9.1.7-.7-.4-1.9-1.1-1.1zm94.3 11.2c1.2 4.6 2.6 9.2 4 13.7.3 1.1 1.4 1.4 2.3.8 3.7-2.5 7.4-5 10.9-7.8.7-.5.5-1.6-.1-2.1-4.1-2.8-9.7-7-14.9-7-1.3 0-2.3 1.9-.9 2.6 2.1 1.2 4.6 1.6 6.9 2.6 2.6 1.1 5.2 2.3 7.5 4 .1-.8.1-1.5.2-2.3-3.9 2.4-7.6 5.1-11.3 7.8.7.1 1.5.3 2.2.4-1.6-4.5-3.2-9-5-13.4-.4-.8-2-.3-1.8.7z"/><path class="st3" d="M334.7 204.9c5.5-2.6 11.1-5.7 16.1-9.2 1.8-1.3 0-3.9-1.9-2.9-5.3 2.8-10.5 6.4-15.2 10-.9.7-.2 2.7 1 2.1z"/><path class="st2" d="M132 221.7c-1.2-6-2.6-12.2-4.8-17.9-.8-2.1-3.7-1-3.2 1.1 1.3 5.8 3.5 11.7 5.8 17.3.4 1 2.4.8 2.2-.5z"/><path class="st3" d="m149.3 168.6-.3-.3c-1.4-1.2-3.6-1.4-4.9 0-1.3 1.5-1.3 3.5 0 4.9l.3.3c1.2 1.4 3.7 1.3 5 0 1.1-1.2 1.3-3.6-.1-4.9z"/><path class="st4" d="M296 323.1s-57.9 13.5-81.1-9.8l8.3-55.5c2.5-16 1-46.7 13.2-57.6 2.4-2.1 4.6-3.2 4.6-3.2 8.6-4.1 23.8-6.4 38.5-6.4 17.8-.1 36.1 13.4 40.8 30.5l-19.3 45-5 57z"/><path class="st5" d="M290.3 228.1s25.9 49.9 13 52.6c-42.3 8.7-66.9 15.9-66.9 15.9l-2.2 16.4c.6 2.5 85.7.3 95.7-11.1 7.1-8.1 16.6-26.7-3.5-67.1l-6.1-13.7-30 7zm-48.7-25.7-64.6 25-2-33.9-13.8-5.3s-20 54.4 5 64.5c25.1 10.1 53.3-8.6 53.3-8.6l22.1-41.7z"/><path class="st4" d="M249.6 194.1c-22.5 7.2-36 15.6-67.7 28.8l16.3 36.3 28.1-9 23.3-56.1zm36.8 27.1 16.4 38.1 36.9-6.8-24.9-42.8-29.4 11.5"/><path class="st3" d="M267.1 247.2c7.9-.4 15.6-.1 23.5 0 .7 0 .6-1 0-1-7.7-.9-15.7-.6-23.5.1-.6 0-.6.9 0 .9zm35.2-44.2c-26.6 2.4-8.4 41.6-1.6 53.4.4.7 1.4.1 1-.6-6.8-12-24.9-48.4.7-52.2.4 0 .3-.6-.1-.6zm-73.6 22.4c-3.3 13-5.5 26.6-6.3 40.1 0 .6.9.7 1 .1 1.9-13.4 3.8-26.7 6-40 0-.4-.6-.6-.7-.2zm62.2-72.4 1.2-16.8c4.4-1.2 6.7-6.9 4.9-11.1-1.8-4.2-6.8-6.6-11.3-6 2.9-1.9 2.6-6.6.3-9.1-2.3-2.5-6-3.4-9.5-3.5-3.5-.1-7 .3-10.4-.3-3-.6-6-1.9-9-1.6-3 .4-6 3.8-4.3 6.4-4.4-.6-9.1-1.2-13 .9-3.9 2.1-5.9 8.1-2.5 11-2.2 1.1-2.8 4.3-1.5 6.5 1.2 2.2 3.8 3.3 6.3 3.5 2.5.2 4.9-.4 7.3-1.1"/><path class="st5" d="m290.2 142.1-.9 11.7s9.9 1.3 7.1 10.4c-2.8 9-9.6 5.1-9.6 5.1s-1.7 23.2-25.4 15.8c-18.9-5.8-17.7-30.3-15.3-51.2.9-8.1 8.6-13.6 16.6-12.1l14.3 2.8c8 1.6 13.8 9.2 13.2 17.5z"/><path class="st5" d="m289.3 163.5-6.4 34.1c-1.4 7.7-9 12.6-16.6 10.8-7-1.7-11.6-8.6-10.3-15.7l3.5-19.6 29.8-9.6z"/><path class="st6" d="M263 163.9s0 .1-.1.2-.2.4-.6.5c-.7.3-1.7-.4-2-1.5-.3-1.1-.3-2.4-.2-3.8.1-1.4.2-2.9.3-4.6.2-3.2.4-6.1.6-8.3.2-2.1.3-3.4.4-3.4.1 0 .1 1.3 0 3.4-.1 2.1-.2 5-.4 8.3-.1 1.6-.2 3.1-.3 4.5-.1 1.4-.2 2.6.1 3.6.2 1 1 1.5 1.5 1.4.6 0 .7-.4.7-.3zm-7.7 18.8c.1-.1 1.1.8 3.1 1.7 1.9.9 4.8 1.9 8.1 1.9 3.3.1 6.2-.8 8.2-1.6 2-.8 3.1-1.6 3.2-1.6 0 0-.2.3-.7.6-.5.4-1.3.8-2.3 1.3-2 1-5 1.9-8.4 1.8-3.4-.1-6.4-1.1-8.3-2.1-1-.5-1.7-1-2.2-1.4-.5-.3-.7-.6-.7-.6zm4.6-14.1c.1-.1.5.5 1.5 1s2.6.9 4.2.4 2.7-1.8 3.2-2.8c.5-1 .6-1.7.7-1.7.1 0 .1.8-.3 1.9-.4 1.1-1.6 2.5-3.4 3.1-1.8.6-3.6.1-4.6-.6-.9-.5-1.3-1.2-1.3-1.3zm30.1-3.3c0-.1.6-.1 1.3-.5.4-.2.7-.5.9-1 .2-.5 0-1.1-.5-1.3-.4-.1-.8 0-.9.2l-.4-.2c.9-1.9 1.6-3.2 1.7-3.1.1 0-.4 1.4-1.2 3.3l-.4-.2c.3-.5 1-.7 1.6-.4.4.1.7.5.8.9.1.4.1.7 0 1.1-.2.6-.7 1-1.2 1.2-1.1.2-1.7.1-1.7 0zm-18.3-23c-.1-.1 1.1-.6 2.6-.2 1.5.4 2.3 1.4 2.2 1.5-.1.1-1-.6-2.3-1-1.3-.4-2.4-.1-2.5-.3zm-20.5-3.2c-.1-.1 1.1-.8 2.8-.6 1.6.1 2.7 1 2.6 1.1-.1.1-1.2-.5-2.7-.6-1.4-.2-2.6.2-2.7.1z"/><path class="st3" d="M289.3 153.8c-6.6-6.5-8.6-17.2-10.4-26.3-6.1 4.5-14.6 5.6-21.7 2.8-2.2 2.6-4.8 4.9-7.7 6.7-.8.5-1.8 1-2.7.8-1.1-.3-1.6-1.6-1.9-2.7-.8-3.6-.9-7.5.4-11s3.9-6.6 7.4-7.9c3.7-1.4 7.9-.8 11.7.2 5.8 1.5 11.4 3.8 16.6 6.8 5.1 3 9.9 6.9 12.1 12.4 2.2 5.5 2.1 16.1-3 18.9"/><path class="st6" d="M273.5 151.8c-.1 0-.2-.8-.1-1.8s.2-1.8.4-1.8c.1 0 .2.8.1 1.8s-.2 1.8-.4 1.8zm-19-2.4c-.1 0-.2-.8-.1-1.8s.2-1.8.4-1.8c.1 0 .2.8.1 1.8s-.3 1.8-.4 1.8z"/><path class="st5" d="M160.5 189.3s2.9-17.6 6.3-17.4c3.4.2 10.3 0 10.3 0s.6-16.7 2.5-14.1c1.9 2.7 2.5 25.2-4.8 36l-14.3-4.5zm75.9 107.3s-30.7 5.4-30.1 9.4c.6 4 2.8 8 2.8 8l27.4-.6v-16.8z"/><path class="st7" d="m269.8 315-.3-4.3-63.2-3.9-21.3-56.7-69.4 3.8 23.7 61.4z"/><path d="M153.9 280.9c.2 2.8 2.6 5 5.4 4.9 2.8-.2 5-2.6 4.9-5.4-.2-2.8-2.6-5-5.4-4.9-2.9.2-5.1 2.6-4.9 5.4z" style="opacity:.41;fill:#fff"/><path d="M151.8 281c.2 4 3.6 7 7.6 6.8 4-.2 7-3.6 6.8-7.6-.2-4-3.6-7-7.6-6.8-3.9.3-7 3.7-6.8 7.6z" style="opacity:.41;fill:#e0dae8"/><path d="m105.3 316.2 271.6-3.4 15.9 8.4s-208.5 57.2-287.5-5z" style="fill:#d4d3f2"/><path class="st3" d="M317.7 115.3c-.8 1.6 1.9 42.8 1.9 42.8l20.3-1.7-2.4 10.9 9.9-11.2 19.9-2.3-1.2-40-48.4 1.5z"/><path class="st11" d="M266.2 51.1s-14 .7-14.5 15.6c0 0 .2 8.2 4.7 11.2 4.4 3 4.2 6.3 4.2 6.3h11.7s-.5-4.2 1.4-6.5 6.5-7.2 5.8-14.5c-.7-7.2-6.1-12.8-13.3-12.1z"/><g class="st0"><path class="st1" d="M260.3 87.9c4.2-.2 8.4.3 12.6 0 .6 0 .8-1 .1-1.1-4-.8-8.7-.4-12.7.1-.6 0-.6 1 0 1z"/></g><g class="st0"><path class="st1" d="M262 91.5c1.7-.1 3.3-.2 5-.1 1.7 0 3.4.3 5 .2.6 0 .8-.9.1-1.1-3.2-.8-7.1-.4-10.3.1-.5 0-.4.9.2.9z"/></g><path d="M263.3 94.2c1.5.1 3 .5 4.4.5.7 0 .9-1 .2-1.2-1.4-.4-3.1-.3-4.6-.2-.6-.1-.6.9 0 .9z" style="opacity:.3;fill:#a7abf9"/><path class="st11" d="M222.7 78.6c6.2-2 12.5-3.8 18.7-6 .2-.1.1-.4-.1-.4-6.3 1.8-12.5 4-18.7 6-.3 0-.1.5.1.4zm7.8-18.6c3.9-.1 7.9 0 11.9-.3.3 0 .3-.5 0-.5-3.9-.1-7.9.2-11.9.3-.4 0-.4.5 0 .5zm18.5-6.3c-4.5-3.8-8.8-8.1-13.6-11.5-.3-.2-.7.3-.4.6 4.2 4.1 9.1 7.6 13.7 11.3.2.2.6-.1.3-.4zm10-6.1c-.3-1.2-1.1-2.2-1.7-3.2-.7-1.2-1.3-2.4-2.2-3.5-.3-.3-.8-.1-.6.3.6 1.2 1.4 2.4 2.2 3.5.6 1 1.2 2.1 2.1 3 .1.1.3 0 .2-.1zm9.2-2.5c0-6 .1-12.1-.3-18.1 0-.4-.6-.4-.6 0-.1 6 .1 12.1.4 18.1-.1.4.5.4.5 0zm7 2.7c1.4-2.3 2.9-4.5 4.1-6.9.2-.4-.3-.7-.6-.3-1.4 2.2-2.7 4.6-4 6.9-.1.4.3.6.5.3zm5.6 4.8c5.5-2.7 11.4-5.7 16.5-9.2.3-.2 0-.7-.3-.5-5.6 2.5-11.3 6-16.5 9.3-.2.2 0 .6.3.4zm4 7.8c2.3.4 5.2 0 7.2-1.4.3-.2.1-.8-.3-.6-1.1.4-2.1.8-3.2 1.1-1.2.3-2.5.3-3.7.4-.2 0-.3.4 0 .5zm.9 10.7c8.4 1.9 16.9 4 25.3 5.4.5.1.8-.7.2-.8-8.4-2.1-16.9-3.6-25.4-5.3-.3 0-.5.6-.1.7z"/><path class="st3" d="M167 217.6c.3-1.8.2-3.6 1.3-5.2 2.1-3.2 5-2.4 7.8-1 2.9 1.5 5.6 2.3 8.7 1 4.9-2.1 7.2-9.5 2.5-13-1.5-1.1-3 .7-2.8 2.2.3 2 1.3 4.2-.4 5.9-2.3 2.3-4.9.4-7.2-.7-2.5-1.1-5.1-1.4-7.6-.3-4.4 1.8-7.5 7.7-4.1 11.7.6.4 1.7.1 1.8-.6zm64.4 3.5c5.9-1.6 12-3.6 17.5-6.2 2-1 .7-3.8-1.4-3.1-5.7 1.8-11.4 4.4-16.8 7.1-.9.6-.6 2.6.7 2.2z"/><path class="st2" d="M202.2 227.3c1.2 4.6 2.6 9.2 4 13.7.3 1.1 1.4 1.4 2.3.8 3.7-2.5 7.4-5 10.9-7.8.7-.5.5-1.6-.1-2.1-4.1-2.8-9.7-7-14.9-7-1.3 0-2.3 1.9-.9 2.6 2.1 1.2 4.6 1.6 6.9 2.6 2.6 1.1 5.2 2.3 7.5 4 .1-.8.1-1.5.2-2.3-3.9 2.4-7.6 5.1-11.3 7.8.7.1 1.5.3 2.2.4-1.6-4.5-3.2-9-5-13.4-.5-.8-2-.3-1.8.7z"/><path class="st3" d="M210.3 273.4c6.1.5 12.5.6 18.6 0 2.2-.2 2-3.3-.2-3.3-6-.2-12.3.3-18.2 1.1-1.2.1-1.6 2.1-.2 2.2z"/><path class="st7" d="m328.9 133.8 4.3 14.8 6-1.2-.6-3 1.7-1 3.2 3.2 10.1-2 1.3-3.9-2.9-.6 3.7-1.2-.8-4.1-3.2.3 4.4-1.2-1-5.1-10.3 2s.7-7.2-2.4-9.5l-2.3.5s.8 2.3.7 3.7c-.1 1.4-2.1 7.8-2.1 7.8l-3.2 1.5-.8-2.1-5.8 1.1z"/><path class="st3" d="m119.6 106 3.4 41.1h75.7l4.2 14.5 4.4-15.9 14.4-.8-6.6-36.9z"/><path class="st7" d="M129.5 120.9c26-1.3 52.1-1.1 78.1 1.3.4 0 .4-.6 0-.7-26-2.1-52.1-2.7-78.1-1.2-.4 0-.4.6 0 .6zm1.5 8.1c26-1.3 52.1-1.1 78.1 1.3.4 0 .4-.6 0-.7-26-2.1-52.1-2.7-78.1-1.2-.3 0-.4.6 0 .6zm.2 6.8c17.5.6 34.8-.7 52.3.8.4 0 .4-.6 0-.7-17.5-1.3-34.8-.4-52.3-.7-.4 0-.4.5 0 .6z"/></svg>