<svg version="1.1" id="Layer_1" xmlns="http://www.w3.org/2000/svg" x="0" y="0" viewBox="0 0 500 373" style="enable-background:new 0 0 500 373" xml:space="preserve"><style>.st0{opacity:.3;fill:#a7abf9}.st1{fill:#6d03e8}.st2{fill:#7caaff}.st3{fill:#7f00ff}.st4{fill:#ffaea6}.st5{fill:#241352}.st6{fill:#e5e1ea}.st8{opacity:.13}.st10{fill:#8c8cf9}</style><circle class="st0" cx="309.8" cy="108.1" r="89.2"/><path class="st1" d="M318.3 22.1c2.7-.8 5.6-1.1 8.4-.6 2.8.6 5.4 2.3 6.8 4.7 1.6 2.8 1.5 6.3 1.2 9.5L333.2 60c-.1 2.3-.2 4.6.6 6.6.9 2 3 3.8 5.3 3.4 1.1-.2 2-1 3.2-1.4 1-.5 2.5-.5 3.2.5.5.6.5 1.4.3 2-.3 3-2.1 5.7-4.8 7.2 1.6-.8 3.5.8 3.5 2.6 0 1.7-1.4 3.3-2.9 3.8-1.6.7-3.4.6-5.1.6 1.5 0 2.5 1.6 2.4 2.9-.1 1.5-1.2 2.6-2.6 3.2-1.4.6-2.8.6-4.2.5-3-.2-6-1.2-8.3-3.2-4.2-3.3-5.9-8.9-5.9-14.1-.1-5.3 1.2-10.5 2-15.7 1.7-12.2.3-24.4-1.1-36.6.3-.1.7-.2 1-.3"/><path class="st2" d="M334.6 203.2c-3.3 3.2-4.5 8.1-1.4 11.8 2.9 3.6 8.7 4.3 12.4 1.5 8.9-6.9-.3-19.6-10-16.9-1.8.5-1.4 3 .5 3.2 2.8.1 5.9.2 8.1 2.3 2.4 2.1 2.5 5.7.5 8.1-5.3 6.4-14.3-3-8.8-8.8.5-.9-.6-1.9-1.3-1.2z"/><path class="st3" d="M232.8 168.2c-1.2-1.4-2.6-2.4-3.3-4.1-1.2-3.5 1.1-5.3 3.9-6.5 2.8-1.4 5.2-2.9 6-6.1 1.4-5.1-2.9-11.3-8.4-9.7-1.8.5-1.2 2.7 0 3.5 1.7 1 3.9 1.6 4.3 3.8.3 3.2-2.7 4.1-4.8 5.2-2.4 1.2-4.1 3-4.8 5.6-1.2 4.4 1.4 10.4 6.5 10.1.6-.3 1.1-1.3.6-1.8z"/><path class="st2" d="M215.9 222c.5 2.9 3.5 9.1 6.6 9.9 1.7.5 2.9-.7 4.3-1.6 2.4-1.7 4.7-3.4 7.1-5.1.9-.6 1.4-1.8.7-2.8-2.1-3.3-4.2-6.4-6.3-9.7-.6-.9-1.8-1.4-2.8-.7-2.6 1.8-5.4 3.6-7.8 5.7-1.6 1.5.5 3.9 2.3 2.9 2.7-1.5 5.1-3.4 7.5-5.2-.9-.2-1.8-.5-2.8-.7 2.1 3.3 4.2 6.4 6.3 9.7.2-.9.5-1.8.7-2.8-1.5 1-2.8 2-4.3 3-.8.6-3.5 3-4.4 3-.8-.1-2.5-2.9-2.9-3.5-1-1.2-1.9-2.4-3.3-3.2-.4-.3-.9.4-.9 1.1zM360.5 89.7c.5 2.9 3.5 9.1 6.6 9.9 1.7.5 2.9-.7 4.3-1.6 2.4-1.7 4.7-3.4 7.1-5.1.9-.6 1.4-1.8.7-2.8-2.1-3.3-4.2-6.4-6.3-9.7-.6-.9-1.8-1.4-2.8-.7-2.6 1.8-5.4 3.6-7.8 5.7-1.6 1.5.5 3.9 2.3 2.9 2.7-1.5 5.1-3.4 7.5-5.2-.9-.2-1.8-.5-2.8-.7 2.1 3.3 4.2 6.4 6.3 9.7.2-.9.5-1.8.7-2.8-1.5 1-2.8 2-4.3 3-.8.6-3.5 3-4.4 3-.8-.1-2.5-2.9-2.9-3.5-1-1.2-1.9-2.4-3.3-3.2-.5-.3-1.1.4-.9 1.1z"/><path class="st3" d="M372.8 142.1c-5.4 2.5-10.8 5.2-16.1 8-1.2.7-1.5 2-.5 3 3.9 4.1 7.8 8.1 11.9 11.8.8.7 2.1.3 2.6-.6 2.6-5.7 6.5-13.5 5.5-19.9-.2-1.7-2.8-2.4-3.5-.6-1 2.8-1 6.1-1.7 9.1-.8 3.5-1.8 6.9-3.4 10.1.9-.1 1.9-.2 2.8-.3-3.8-4.4-8-8.3-12.2-12.4 0 .9 0 1.9-.1 2.8 5.2-2.9 10.5-6 15.5-9 1.4-.7.4-2.5-.8-2zm-100.7 75c3.9-4.4 8-9.2 11-14.3 1-1.6-1.5-3.4-2.7-1.9-3.8 4.5-7.2 9.8-10.1 15-.7 1 .9 2.2 1.8 1.2z"/><path class="st2" d="M404.3 61c-.1-.1-.2-.2-.3-.2-1.4-1.1-3.5-1.4-4.8 0-1.4 1.5-1.2 3.4 0 4.8.1.1.2.2.2.3 1.2 1.4 3.6 1.4 4.8 0 1.2-1.4 1.4-3.7.1-4.9z"/><path class="st3" d="M249.2 188.2c-.1-.1-.2-.2-.3-.2-1.4-1.1-3.5-1.4-4.8 0-1.4 1.5-1.2 3.4 0 4.8.1.1.2.2.2.3 1.2 1.4 3.6 1.4 4.8 0 1.2-1.4 1.6-3.7.1-4.9z"/><path class="st4" d="m294.4 80.3-59.2 22.2 5.6-23.9-15.4-3.9s-16.6 46.7-5.1 48c20.2 2.1 50.6-5.7 50.6-5.7l23.5-36.7z"/><path class="st5" d="m273.9 133.9.1 46.8c15.4 18.9 69-5.5 69-5.5l.7-19.1 1.2-45.6c-1.2-18.1-18.1-27-18.1-27-7-3.5-17.6-5.4-27.1-5-10 .5-12.5 5.3-16.6 14.4-3.4 7.2-9.2 14.2-9.2 41z"/><path class="st4" d="m324.4 34.3-.7 9.3s8 1.1 5.7 8.3-7.7 4.1-7.7 4.1-1.4 18.6-20.4 12.7C286.1 64 287.1 44.4 289 27.6c.8-6.5 6.9-10.9 13.3-9.7l11.5 2.3c6.5 1.4 11.1 7.3 10.6 14.1z"/><path class="st4" d="m323.6 51.4-5.2 27.4c-1.1 6.2-7.2 10.1-13.3 8.7-5.6-1.4-9.2-6.9-8.2-12.6l2.8-15.7 23.9-7.8z"/><path class="st5" d="M302.6 51.7s0 .3-.5.6c-.6.2-1.5-.3-1.7-1.2-.3-.9-.2-1.9-.2-3 .1-1.1.1-2.4.2-3.6.1-2.6.3-5 .5-6.6.1-1.7.3-2.7.3-2.7.1 0 .1 1 0 2.8 0 1.7-.1 4.1-.3 6.6-.1 1.2-.2 2.5-.2 3.6-.1 1.1-.2 2.1 0 2.9.1.8.8 1.2 1.1 1.1.7-.2.8-.5.8-.5zm-6.2 15.1c.1-.1.9.6 2.5 1.4 1.6.8 3.8 1.5 6.5 1.6 2.6 0 5-.6 6.5-1.2s2.5-1.2 2.6-1.2c0 0-.8.8-2.4 1.6-1.6.8-4.1 1.6-6.8 1.5-2.7-.1-5.2-.9-6.6-1.8-1.5-1-2.3-1.8-2.3-1.9zm3.7-11.2c.1-.1.5.3 1.2.8.8.5 2 .7 3.4.3 1.2-.5 2.1-1.4 2.6-2.1.5-.8.5-1.4.6-1.4.1 0 .1.7-.2 1.6-.3.9-1.2 2-2.7 2.6-1.5.5-2.9 0-3.7-.5-.9-.8-1.2-1.3-1.2-1.3zm24.2-2.7c0-.1.5-.1 1-.5.3-.1.6-.5.7-.8.1-.3 0-.8-.3-.9-.2-.1-.6 0-.7.1l-.5-.2c.7-1.5 1.2-2.6 1.5-2.5.1 0-.2 1.2-.9 2.7l-.5-.2c.2-.5.9-.6 1.4-.5.3.1.6.5.7.8.1.3.1.7 0 .9-.2.6-.7.9-1 1-.9.3-1.4.2-1.4.1zm-14.6-18.4c-.1-.1.9-.6 2.1-.2 1.2.3 1.8 1.1 1.7 1.2-.1.1-.8-.5-1.9-.7-1-.3-1.9-.2-1.9-.3zm-16.6-2.7c-.1-.1.9-.7 2.3-.6 1.4.1 2.3.8 2.1 1-.1.1-1-.3-2.1-.3-1.3-.2-2.2.1-2.3-.1z"/><path class="st1" d="M323.6 43.6c-5.3-5.2-6.9-13.8-8.3-21.1-5 3.6-11.7 4.5-17.3 2.3-1.8 2.1-3.8 3.9-6.2 5.4-.7.5-1.5.8-2.1.6-.9-.2-1.2-1.2-1.5-2.3-.7-2.9-.7-6 .3-8.8 1-2.8 3.2-5.3 6-6.3 2.9-1.1 6.3-.7 9.5.1 4.6 1.2 9.1 3 13.3 5.5 4.1 2.4 8 5.5 9.7 9.9s1.7 12.9-2.5 15.1"/><path class="st5" d="M292.3 80.1c5.2-2-34.5 12.6-34.5 12.6l4.1 27.1 15.1-5 15.3-34.7z"/><path class="st4" d="M239.8 80.1s10.4-14.4 8.4-14.4c-1.8 0-2.8 2.7-6.4 4.6 0 0 5.7-18 3.9-17.7-1.8.3-6 11.9-6.3 11.9-.2 0 3.6-12.9 2.1-13.2-1.5-.1-5.1 11.9-5.1 11.9s2.5-11.5.9-11.7c-1.6-.2-3.8 10.4-3.8 10.4s1.8-8.9.5-9.1c-.9-.1-8.7 22-8.7 22 .4-.1 14.5 5.3 14.5 5.3"/><path class="st5" d="M319.7 131.6s-.1-.2-.1-.6c-.1-.5-.1-.9-.2-1.6-.2-1.5-.5-3.4-.7-5.9-.6-5-1.4-11.7-2.1-19.1-.2-1.9-.3-3.7 0-5.5.2-1.8 1-3.5 2-4.8 2.1-2.7 5.1-3.9 7.4-4.4 2.5-.6 4.5-.3 5.9-.2.7.1 1.2.1 1.6.2.3.1.6.1.6.1s-.8-.1-2.1-.1c-1.4-.1-3.4-.1-5.7.5-2.4.6-5.2 1.8-7.1 4.4-1 1.2-1.7 2.8-1.9 4.5-.2 1.7-.1 3.6 0 5.4.8 7.4 1.5 14.2 2 19.3.2 2.4.5 4.4.6 5.9 0 .7.1 1.1.1 1.6-.3.1-.3.3-.3.3z"/><path class="st5" d="M318.2 129.9c0-.1 7.2.5 16.1 1.4 8.9.9 16 1.8 16 2 0 .1-7.2-.5-16.1-1.4-8.8-1-16-1.8-16-2z"/><path class="st1" d="M271.4 11v30.9h-20.7l-.7 11.7-12.2-12.3h-45.6l4.1-32.7z"/><path class="st6" d="M264.3 19.9c-20.4-.3-40.9-.6-61.2-.1-.2 0-.2.3 0 .3 20.4.5 40.9.2 61.2-.1.2.1.2-.1 0-.1zm0 5.9c-20.4-.3-40.9-.6-61.2-.1-.2 0-.2.3 0 .3 20.4.5 40.9.2 61.2-.1.2.2.2-.1 0-.1zm0 6.3c-12.5-.2-25.1-.3-37.6-.1-.2 0-.2.3 0 .3 12.5.3 25.1.2 37.6-.1.2.2.2-.1 0-.1z"/><path class="st5" d="M294.8 40.2c-.1.1-.5-.3-.9-.7-.5-.5-.8-.7-.8-.9 0-.1.7 0 1.1.5.6.5.8 1 .6 1.1zm16 1.8c-.1.1-.6-.5-1-1.1-.5-.7-.9-1.2-.8-1.4.1-.1.8.2 1.2.9.5.9.7 1.6.6 1.6z"/><path class="st5" d="M307.1 55.7c.2.8-.3 1.7-1.4 1.9-1 .3-1.9-.1-2.3-.9-.2-.8.3-1.7 1.4-1.9 1-.3 2.1.1 2.3.9z" style="opacity:.18"/><g class="st8"><path class="st5" d="M316.7 45.8c0 .8-1.9 1.5-4.4 1.5-2.4 0-4.4-.7-4.4-1.5s1.9-1.5 4.4-1.5 4.4.7 4.4 1.5z"/></g><g class="st8"><path class="st5" d="M298.8 47c0 .8-1.9 1.5-4.4 1.5-2.4 0-4.4-.7-4.4-1.5s1.9-1.5 4.4-1.5c2.4 0 4.4.7 4.4 1.5z"/></g><path d="M324.8 31c-.1 0 .5-.6.1-1.5-.1-.5-.3-1-.8-1.6-.3-.7-.7-1.2-1-1.9-1.5-2.8-2.5-5.1-2.4-5.2.1-.1 1.5 2.1 2.9 4.8.3.7.7 1.4 1 1.9.3.6.6 1.2.7 1.7.1.6 0 1-.1 1.2-.2.6-.4.6-.4.6z" style="fill:#6f35a4"/><path class="st10" d="m278.5 120.5-3.5 46.7 48.6 6.6-3.2-54z"/><path class="st10" d="M282.4 88.9v37l5.7-2.1V81.6l-5.7 1.8m45.1.3s-22 2.8-15.4 38.7l5.5.6s-6.2-33.7 14.4-36.1l-4.5-3.2z"/><path class="st4" d="M321 125.4s7.5 44.1-3 43.1c-34.8-3.6-55.5-4.1-55.5-4.1l-5.7 11.9c-.1 2 65.9 20.9 76.4 14.6 7.4-4.4 19.4-16.3 14-51.8l-1.2-11.9-25-1.8z"/><path class="st5" d="M340.3 96.1s8.1 7.8 9.9 37.3l-31.4-3.5s-5.2-50.2 21.5-33.8z"/><path class="st4" d="M266.1 164.4s-17-5.3-16.4-3.6c.6 1.8 3.5 1.8 6.4 4.6 0 0-19 .2-18.1 1.8s13.3 1.9 13.4 2.3c.1.2-13.5.6-13.3 2 .3 1.5 12.9 1.1 12.9 1.1s-11.7 1.2-11.5 2.8c.2 1.6 11 .5 11 .5s-9 1-8.8 2.5c.1.9 26.5 1 26.6 1.7.1.3-2.2-15.7-2.2-15.7"/><path class="st5" d="M287.8 120.7c.1 0 .3.8.5 2.1 0 .7 0 1.6-.5 2.4-.5.8-1.4 1.7-2.5 1.7s-2-.8-2.6-1.5c-.6-.8-.7-1.6-.8-2.3-.1-1.4 0-2.1 0-2.1.1 0 .1.8.3 2.1.1.7.3 1.4.8 2 .5.7 1.2 1.2 2.1 1.2.9 0 1.6-.7 2-1.4.5-.7.6-1.5.6-2.1.1-1.1 0-2.1.1-2.1z"/><path class="st5" d="M284.3 121.5c0 .1-.1.2-.1.7 0 .3.5.8.9.5s.2-.8-.1-1c-.3-.2-.6-.1-.7-.2-.1 0 .2-.3.8-.2.2.1.6.3.7.7.1.5-.1.9-.5 1.1-.3.2-.9.2-1.2 0-.3-.2-.5-.7-.3-.9.1-.5.5-.8.5-.7zm32.7-1.4s.3.5.2 1.4c-.1.5-.3.9-.7 1.4-.5.5-1 .8-1.8.8-.7 0-1.4-.3-1.8-.7-.5-.5-.7-.9-.8-1.4-.2-.9 0-1.5.1-1.4.1 0 0 .6.3 1.2.2.7 1.1 1.6 2.3 1.6 1.1-.1 1.9-1 2.1-1.7.1-.8 0-1.2.1-1.2z"/><path class="st5" d="M313.4 118.7s.2-.3.9-.3c.3 0 .7.1 1 .5.3.3.3 1 0 1.4-.2.5-.9.7-1.4.5-.5-.2-.6-.7-.6-1s.2-.6.5-.7c.2-.1.2 0 .2 0 0 .1-.3.2-.2.7 0 .2.1.5.3.6.2.1.5 0 .7-.3.3-.6-.1-1-.6-1.1-.5-.3-.7-.2-.8-.3zm-.9 21.2c-.1 0-.2-.6-.3-1.1 0-.6 0-1.1.2-1.1.1 0 .3.5.3 1.1.1.6-.1 1.1-.2 1.1zm-.9 4.4c-.1-.1-.1-.6 0-1.1.2-.6.5-1 .6-1 .1 0 .1.6 0 1.1-.3.6-.5 1.1-.6 1zm-2.3 3.9c-.1-.1 0-.6.5-1.1.3-.5.8-.8.9-.8.1.1 0 .6-.5 1.1-.4.6-.8.9-.9.8zm-3.3 2.9c-.1-.1.2-.5.8-.9.5-.3.9-.6 1-.5.1.1-.2.6-.7.9-.6.5-1 .7-1.1.5zm-4.2 1.7c0-.1.5-.5 1-.6.6-.2 1.1-.2 1.1 0 .1.1-.3.5-1 .6-.5.2-1.1.2-1.1 0zm-4.5.3c0-.1.6-.2 1.1-.2s1.1.1 1.1.3c0 .1-.5.2-1.1.2s-1.1-.2-1.1-.3zm-4.3-1.2c.1-.1.6-.1 1.1.1s1 .5 1 .7c0 .1-.6.1-1.1-.1-.7-.2-1.1-.6-1-.7zm-3.7-2.6c.1-.1.6.1 1 .5.5.3.8.8.7.9-.1.1-.6-.1-1-.5-.6-.3-.8-.7-.7-.9zm-2.7-3.6c.1-.1.6.3.8.8.3.6.5 1 .3 1.1-.1.1-.5-.2-.8-.8-.3-.5-.4-.9-.3-1.1zm-1.5-4.2c.1 0 .5.5.6 1s.1 1.1 0 1.1-.5-.5-.6-1c-.1-.6-.1-1 0-1.1zm.1-4.4c.1 0 .2.6.2 1.1s-.2 1.1-.3 1.1c-.1 0-.2-.6-.2-1.1 0-.7.1-1.2.3-1.1zm4.2-.3c0 .1-.6.2-1.1.2-.7 0-1.1-.2-1.1-.3s.6-.2 1.1-.2c.7 0 1.1.2 1.1.3zm4.5.2c0 .1-.6.2-1.1.2-.7 0-1.1-.2-1.1-.3s.6-.2 1.1-.2c.7 0 1.1.1 1.1.3zm4.5.2c0 .1-.6.2-1.1.2-.7 0-1.1-.2-1.1-.3 0-.1.6-.2 1.1-.2.7-.1 1.1.1 1.1.3zm4.5.1c0 .1-.6.2-1.1.2-.7 0-1.1-.2-1.1-.3 0-.1.6-.2 1.1-.2.7.1 1.1.2 1.1.3zm4.5.2c0 .1-.6.2-1.1.2-.7 0-1.1-.2-1.1-.3s.6-.2 1.1-.2c.7 0 1.1.1 1.1.3zm4.5.1c0 .1-.6.2-1.1.2-.7 0-1.1-.2-1.1-.3s.6-.2 1.1-.2c.7 0 1.1.2 1.1.3z"/><path class="st2" d="M312.3 231.2c1.2-5.7 2.4-11.9 2.6-17.9.1-1.8-2.9-2.3-3.3-.5-1.1 5.9-1.5 12-1.6 18 .1 1.4 2 1.6 2.3.4z"/><path class="st3" d="M342.8 251c-.1-.1-.2-.2-.3-.2-1.4-1.1-3.5-1.4-4.8 0-1.4 1.5-1.2 3.4 0 4.8.1.1.2.2.2.3 1.2 1.4 3.6 1.4 4.8 0 1.2-1.3 1.4-3.5.1-4.9z"/><circle transform="rotate(-45.001 185.106 275.155)" class="st0" cx="185.1" cy="275.2" r="89.2"/><path class="st4" d="m198.7 245.1 59.2 22.2-5.6-23.9 15.4-3.9s16.6 46.7 5.1 48c-20.2 2.1-50.6-5.7-50.6-5.7l-23.5-36.7z"/><path class="st10" d="m219.3 298.6-.1 46.8c-15.4 18.9-69-5.5-69-5.5l-.7-19.1-1.2-45.6c1.2-18.1 18.1-27 18.1-27 7-3.5 17.6-5.4 27.1-5 10 .5 12.5 5.3 16.6 14.4 3.3 7.3 9.2 14.2 9.2 41z"/><path class="st4" d="M172.1 290.2s-7.5 44.1 3 43.1c34.8-3.6 55.5-4.1 55.5-4.1l5.7 11.9c.1 2-65.9 20.9-76.4 14.6-7.4-4.4-19.4-16.3-14-51.8l1.2-11.9 25-1.8z"/><path class="st10" d="M152.9 260.8s-8.1 7.8-9.9 37.3l31.4-3.5c-.1 0 5.2-50.1-21.5-33.8z"/><path class="st4" d="m168.6 199.1.7 9.3s-8 1.1-5.7 8.3c2.3 7.2 7.7 4.1 7.7 4.1s1.4 18.6 20.4 12.7c15.2-4.7 14.2-24.3 12.3-41.1-.8-6.5-6.9-10.9-13.3-9.7l-11.5 2.3c-6.4 1.3-11.1 7.4-10.6 14.1z"/><path class="st4" d="m169.4 216.2 5.2 27.4c1.1 6.2 7.2 10.1 13.3 8.7 5.6-1.4 9.2-6.9 8.2-12.6l-2.8-15.7-23.9-7.8z"/><path class="st5" d="M190.4 216.5s.1.2.6.3c.5.1 1-.3 1.1-1.1.2-.8.1-1.8 0-2.9-.1-1.1-.1-2.4-.2-3.6-.1-2.6-.2-5-.3-6.6-.1-1.7 0-2.7 0-2.8.1 0 .2 1 .3 2.7.1 1.7.3 4.1.5 6.6.1 1.2.1 2.5.2 3.6s.1 2.1-.2 3c-.2.9-1.1 1.5-1.7 1.2-.3 0-.3-.4-.3-.4zm6.2 15.2s-.8.8-2.4 1.7c-1.6.9-3.9 1.7-6.6 1.8-2.7.1-5.2-.7-6.8-1.5-1.6-.8-2.5-1.6-2.4-1.6 0-.1.9.6 2.6 1.2 1.6.7 3.9 1.4 6.5 1.2 2.6 0 5-.8 6.5-1.6 1.7-.7 2.5-1.4 2.6-1.2zm-3.7-11.4s-.2.6-1 1.1c-.8.6-2.3.9-3.7.5-1.5-.5-2.4-1.7-2.7-2.6-.3-.9-.2-1.6-.2-1.6.1 0 .1.6.6 1.4.5.8 1.2 1.8 2.6 2.1 1.2.5 2.6.1 3.4-.3.6-.2.9-.6 1-.6zm-24.2-2.6c0 .1-.5.2-1.2 0-.3-.1-.8-.5-1-1-.1-.2-.1-.6 0-.9.1-.3.3-.7.7-.8.5-.2 1.1-.1 1.4.5l-.5.2c-.7-1.5-1-2.7-.9-2.7.1 0 .7 1 1.5 2.5l-.5.2c-.1-.1-.3-.2-.7-.1-.3.1-.5.6-.3.9.1.3.3.7.7.8.4.3.9.3.8.4zm14.8-18.5c0 .1-.9 0-1.9.3-1 .2-1.7.8-1.9.7-.1-.1.5-.9 1.7-1.2 1.2-.3 2.1.1 2.1.2zm16.4-2.6c-.1.1-1-.1-2.1 0s-2 .6-2.1.3c-.1-.1.8-.9 2.1-1 1.2-.1 2.2.5 2.1.7z"/><path class="st1" d="M169.4 208.5c5.3-5.2 6.9-13.8 8.3-21.1 5 3.6 11.7 4.5 17.3 2.3 1.8 2.1 3.8 3.9 6.2 5.4.7.5 1.5.8 2.1.6.9-.2 1.2-1.2 1.5-2.3.7-2.9.7-6-.3-8.8-1-2.8-3.2-5.3-6-6.3-2.9-1.1-6.3-.7-9.5.1-4.6 1.2-9.1 3-13.3 5.5-4.1 2.4-8 5.5-9.7 9.9-1.7 4.4-1.7 12.9 2.5 15.1"/><path class="st10" d="M200.8 244.9c-5.2-2 34.5 12.6 34.5 12.6l-4.1 27.1-15.1-5-15.3-34.7z"/><path class="st4" d="M226.9 329.2s17-5.3 16.4-3.6c-.6 1.8-3.5 1.8-6.4 4.6 0 0 19 .2 18.1 1.8-.9 1.6-13.3 1.9-13.4 2.3-.1.2 13.5.6 13.3 2-.3 1.5-12.9 1.1-12.9 1.1s11.7 1.2 11.5 2.8c-.2 1.6-11 .5-11 .5s9 1 8.8 2.5c-.1.9-26.5 1-26.6 1.7 0 .2 2.2-15.7 2.2-15.7m26.4-84.3s-10.4-14.4-8.4-14.4c1.8 0 2.8 2.7 6.4 4.6 0 0-5.7-18-3.9-17.7 1.8.3 6 11.9 6.3 11.9.2 0-3.6-12.9-2.1-13.2 1.5-.1 5.1 11.9 5.1 11.9s-2.5-11.5-.9-11.7c1.6-.2 3.8 10.4 3.8 10.4s-1.8-8.9-.5-9.1c.9-.1 8.7 22 8.7 22-.5-.2-14.5 5.3-14.5 5.3"/><path d="M158 284.7s.3.7.3 2c0 .7-.3 1.5-1 2-.3.2-.9.5-1.5.3-.6-.1-.9-.5-1.2-.8-.3-.3-.6-.7-.9-1-.3-.2-.7-.3-1-.5-.8-.1-1.4.2-1.8.6-.8.8-.7 1.7-.8 1.7 0 0-.1-.2-.1-.6 0-.3.1-.9.6-1.5s1.2-.9 2.1-.8c.5 0 .9.2 1.4.6.5.3.7.7 1 1 .3.3.7.6 1 .7.3.1.7 0 1-.2.6-.5.9-1 1-1.7-.1-1-.2-1.8-.1-1.8zm9.2-8.1s.5-.7 1.6-1.4c.6-.3 1.5-.6 2.3-.1.5.2.9.6 1 1 .2.6.1 1 0 1.6-.1.5-.3.9-.3 1.2 0 .3 0 .8.1 1.1.3.7.9 1.1 1.5 1.2 1.1.2 1.8-.3 1.9-.2 0 0-.1.2-.5.3-.3.2-.9.3-1.6.2-.7-.1-1.5-.6-1.8-1.5-.2-.5-.3-.9-.2-1.4 0-.5.2-.9.3-1.4.1-.5.2-.9.1-1.2-.1-.3-.3-.6-.7-.8-.7-.3-1.4-.2-1.9 0-1.1.9-1.6 1.5-1.8 1.4zm-.5-20s.5-.7 1.6-1.4c.6-.3 1.5-.6 2.3-.1.5.2.9.6 1 1 .2.6.1 1 0 1.6-.1.5-.3.9-.3 1.2s0 .8.1 1.1c.3.7.9 1.1 1.5 1.2 1.1.2 1.8-.3 1.9-.2 0 0-.1.2-.5.3-.3.2-.9.3-1.6.2-.7-.1-1.5-.6-1.8-1.5-.2-.5-.3-.9-.2-1.4 0-.5.2-.9.3-1.4.1-.5.2-.9.1-1.2-.1-.3-.3-.6-.7-.8-.7-.3-1.4-.2-1.9 0-1.1 1-1.8 1.6-1.8 1.4zm19.8 26.1s-.7-.3-1.5-1.5c-.3-.6-.7-1.4-.3-2.3.1-.5.5-.9 1-1.1.5-.2 1-.2 1.6-.1.5.1.9.2 1.4.2.3 0 .8-.1 1.1-.2.7-.3 1-1 1.1-1.6.1-1.1-.5-1.8-.3-1.8 0 0 .2.1.5.3.2.3.5.8.3 1.5 0 .7-.5 1.5-1.2 1.9-.3.2-.9.3-1.4.3-.5 0-1-.1-1.5-.2s-.9-.1-1.2 0c-.3.1-.6.5-.7.8-.2.7-.1 1.4.2 1.9.3 1.3 1 1.7.9 1.9zm13.5 20.9s-.5.7-1.7 1.2c-.6.2-1.5.5-2.4 0-.5-.2-.8-.6-.9-1.1s0-1.1.1-1.6.3-.9.5-1.2c.1-.3 0-.8-.1-1.1-.2-.7-.8-1.1-1.4-1.4-1.1-.3-1.8.1-1.9 0 0 0 .1-.2.5-.3.3-.1.9-.2 1.6-.1.7.1 1.4.7 1.7 1.6.1.5.2.9.1 1.5-.1.5-.3.9-.5 1.4-.1.5-.2.8-.1 1.1.1.3.3.7.7.8.7.3 1.4.3 1.9.1 1.2-.6 1.8-1 1.9-.9zm15.9-33s-.5.7-1.7 1.2c-.6.2-1.5.5-2.4 0-.5-.2-.8-.6-.9-1.1s0-1.1.1-1.6.3-.9.5-1.2c.1-.3 0-.8-.1-1.1-.2-.7-.8-1.1-1.4-1.4-1.1-.3-1.8.1-1.9 0 0 0 .1-.2.5-.3.3-.1.9-.2 1.6-.1.7.1 1.4.7 1.7 1.6.1.5.2.9.1 1.5-.1.5-.3.9-.5 1.4-.1.5-.2.8-.1 1.1.1.3.3.7.7.8.7.3 1.4.3 1.9.1 1.2-.6 1.9-1 1.9-.9zm10.9-5.1s.8.2 1.7 1.1c.5.5.9 1.2.8 2.1-.1.5-.3 1-.8 1.2-.5.3-1 .3-1.5.3h-1.4c-.3.1-.8.2-1 .5-.6.5-.8 1.1-.8 1.7 0 1.1.8 1.7.7 1.8 0 0-.2 0-.5-.3-.2-.2-.6-.8-.7-1.5s.2-1.6.9-2.1c.3-.3.8-.6 1.2-.6.5-.1 1 0 1.5 0s.9 0 1.1-.2c.3-.2.5-.6.6-.9.1-.7-.2-1.4-.6-1.8-.6-.7-1.3-1.1-1.2-1.3zm-43.9 55.1s-.5.7-1.7 1.2c-.6.2-1.5.5-2.4 0-.5-.2-.8-.6-.9-1.1-.1-.6 0-1.1.1-1.6s.3-.9.5-1.2c.1-.3 0-.8-.1-1.1-.2-.7-.8-1.1-1.4-1.4-1.1-.3-1.8.1-1.9 0 0 0 .1-.2.5-.3.3-.1.9-.2 1.6-.1.7.1 1.4.7 1.7 1.6.1.5.2.9.1 1.5-.1.5-.3.9-.5 1.4-.1.5-.2.8-.1 1.1.1.3.3.7.7.8.7.3 1.4.3 1.9.1 1.2-.5 1.8-1 1.9-.9zm23.5-31.8s-.7-.5-1.2-1.6c-.3-.6-.5-1.5-.1-2.4.2-.5.6-.8 1.1-1 .6-.1 1 0 1.6.1.5.1.9.3 1.2.3.3.1.8 0 1.1-.1.7-.2 1.1-.8 1.2-1.4.3-1.1-.2-1.8-.1-1.9 0 0 .2.1.3.5s.3.9.2 1.6c-.1.7-.7 1.5-1.5 1.8-.5.2-.9.2-1.4.2-.5-.1-.9-.2-1.4-.3-.5-.1-.8-.2-1.2-.1-.3.1-.6.3-.8.7-.3.7-.2 1.4 0 1.9.6 1.1 1.1 1.7 1 1.7zm4.2 17.2s-.7-.5-1.2-1.6c-.3-.6-.5-1.5-.1-2.4.2-.5.6-.8 1.1-1 .6-.1 1 0 1.6.1.5.1.9.3 1.2.3.3.1.8 0 1.1-.1.7-.2 1.1-.8 1.2-1.4.3-1.1-.2-1.8-.1-1.9 0 0 .2.1.3.5s.3.9.2 1.6c-.1.7-.7 1.5-1.5 1.8-.5.2-.9.2-1.4.2-.5-.1-.9-.2-1.4-.3-.5-.1-.8-.2-1.2-.1-.3.1-.6.3-.8.7-.3.7-.2 1.4 0 1.9.5 1 1.1 1.5 1 1.7zm-34-7.4s-.2-.8.1-2c.1-.6.6-1.5 1.5-1.8.5-.2 1-.2 1.5 0s.8.7 1 1.1c.2.5.5.8.7 1.1.2.3.6.6.9.7.7.2 1.4.1 1.9-.1 1-.7 1-1.6 1.1-1.5 0 0 .1.2 0 .6s-.3.9-.9 1.2c-.6.5-1.5.7-2.3.3-.5-.1-.9-.5-1.1-.8-.3-.3-.6-.8-.8-1.2-.2-.5-.5-.7-.8-.9-.3-.1-.7-.1-1 0-.7.2-1.1.9-1.4 1.4-.3 1.2-.3 1.9-.4 1.9zm30.7 21.1s-.2-.8.1-2c.1-.6.6-1.5 1.5-1.8.5-.2 1-.2 1.5 0s.8.7 1 1.1c.2.5.5.8.7 1.1.2.3.6.6.9.7.7.2 1.4.1 1.9-.1 1-.7 1-1.6 1.1-1.5 0 0 .1.2 0 .6-.1.3-.3.9-.9 1.2-.6.5-1.5.7-2.3.3-.5-.1-.9-.5-1.1-.8-.3-.3-.6-.8-.8-1.2-.2-.5-.5-.7-.8-.9-.3-.1-.7-.1-1 0-.7.2-1.1.9-1.4 1.4-.3 1.1-.3 1.9-.4 1.9zm-.9-63.7s-.2-.8.1-2c.1-.6.6-1.5 1.5-1.8.5-.2 1-.2 1.5 0s.8.7 1 1.1c.2.5.5.8.7 1.1.2.3.6.6.9.7.7.2 1.4.1 1.9-.1 1-.7 1-1.6 1.1-1.5 0 0 .1.2 0 .6-.1.3-.3.9-.9 1.2-.6.5-1.5.7-2.3.3-.5-.1-.9-.5-1.1-.8-.3-.3-.6-.8-.8-1.2-.2-.5-.5-.7-.8-.9-.3-.1-.7-.1-1 0-.7.2-1.1.9-1.4 1.4-.3 1.1-.3 1.9-.4 1.9zm-10 72.1s-.8-.1-1.8-.9c-.5-.3-1-1.1-1-2 0-.5.1-1 .6-1.4.5-.3.9-.5 1.5-.6.5-.1.9-.1 1.4-.2.3-.1.7-.3 1-.6.6-.6.7-1.2.6-1.8-.2-1.1-1-1.6-.9-1.7 0 0 .2 0 .5.2.2.2.7.7.8 1.4.2.7 0 1.6-.6 2.3-.3.3-.7.7-1.2.8-.5.1-1 .1-1.5.2-.5 0-.9.1-1.1.5-.2.2-.5.6-.5.9 0 .8.3 1.4.8 1.7.7.8 1.4 1.1 1.4 1.2zm-36.6-62.6s.7.5 1.1 1.7c.2.6.3 1.5-.1 2.3-.2.5-.7.8-1.1.9-.6.1-1 0-1.5-.2s-.9-.5-1.2-.5c-.3-.1-.8-.1-1.1 0-.7.2-1.2.7-1.5 1.2-.5 1.1 0 1.9 0 1.9s-.2-.1-.3-.5c-.1-.3-.2-.9 0-1.6.2-.7.8-1.4 1.7-1.7.5-.1.9-.2 1.5-.1.5.1.9.3 1.4.6.5.2.8.3 1.1.2.3-.1.7-.3.8-.6.5-.6.3-1.4.2-1.9-.5-.9-1-1.5-1-1.7zm35.3-6.3s.7.5 1.1 1.7c.2.6.3 1.5-.1 2.3-.2.5-.7.8-1.1.9-.6.1-1 0-1.5-.2s-.9-.5-1.2-.5c-.3-.1-.8-.1-1.1 0-.7.2-1.2.7-1.5 1.2-.5 1.1 0 1.9 0 1.9s-.2-.1-.3-.5c-.1-.3-.2-.9 0-1.6.2-.7.8-1.4 1.7-1.7.5-.1.9-.2 1.5-.1.5.1.9.3 1.4.6.5.2.8.3 1.1.2.3-.1.7-.3.8-.6.5-.6.3-1.4.2-1.9-.6-.9-1-1.6-1-1.7z" style="fill:#fbf1fc"/><path class="st1" d="M173.3 296.4v-.6c0-.5.1-.9.1-1.6.1-1.5.3-3.5.6-5.9.6-5 1.2-11.7 2-19.3.2-1.9.3-3.7 0-5.4-.2-1.7-.9-3.3-1.9-4.5-2-2.6-4.7-3.8-7.1-4.4-2.4-.6-4.4-.5-5.7-.5-1.4.1-2.1.2-2.1.1 0 0 .2-.1.6-.1.3-.1.9-.1 1.6-.2 1.4-.1 3.4-.2 5.9.2 2.5.5 5.3 1.8 7.4 4.4 1 1.4 1.8 3 2 4.8.3 1.8.2 3.7 0 5.5-.8 7.5-1.6 14.3-2.1 19.1-.3 2.4-.6 4.4-.7 5.9-.1.7-.1 1.1-.2 1.6-.3.7-.3.9-.4.9z"/><path class="st1" d="M174.8 294.6c0 .1-7.2 1-16 2-8.9.9-16.1 1.6-16.1 1.4 0-.1 7.1-1 16-2 8.9-.8 16.1-1.5 16.1-1.4z"/><path class="st2" d="M251.4 307.3c.2-1.8.2-3.5 1.2-5.1 2-3.2 4.8-2.4 7.7-1 2.8 1.5 5.4 2.3 8.4.9 4.7-2 7-9.2 2.5-12.6-1.5-1.1-2.9.7-2.7 2.1.2 1.9 1.2 4.1-.5 5.7-2.3 2.3-4.8.3-7-.7-2.4-1.1-5-1.4-7.4-.3-4.3 1.7-7.3 7.4-3.9 11.4.4.6 1.5.4 1.7-.4z"/><path class="st3" d="M283.8 239.2c-3.3 3.2-4.5 8.1-1.4 11.8 2.9 3.6 8.7 4.3 12.4 1.5 8.9-6.9-.3-19.6-10-16.9-1.8.5-1.4 3 .5 3.2 2.8.1 5.9.2 8.1 2.3 2.4 2.1 2.5 5.7.5 8.1-5.3 6.4-14.3-3-8.8-8.8.5-.9-.6-2-1.3-1.2z"/><path class="st2" d="M145.3 232.9c-3.3 3.2-4.5 8.1-1.4 11.8 2.9 3.6 8.7 4.3 12.4 1.5 8.9-6.9-.3-19.6-10-16.9-1.8.5-1.4 3 .5 3.2 2.8.1 5.9.2 8.1 2.3 2.4 2.1 2.5 5.7.5 8.1-5.3 6.4-14.3-3-8.8-8.8.5-.9-.5-1.9-1.3-1.2z"/><path class="st3" d="M97.6 312.3c2.3 8.4 4.7 16.8 7.3 25 .7 2 2.5 2.6 4.3 1.5 6.8-4.6 13.5-9.1 19.9-14.2 1.2-1 1-2.9-.2-3.8-7.5-5.2-17.7-12.7-27.1-12.8-2.4 0-4.2 3.4-1.7 4.8 3.8 2.3 8.4 3 12.5 4.7 4.7 1.9 9.5 4.3 13.6 7.2.1-1.4.2-2.8.2-4.2-7.2 4.4-13.8 9.3-20.7 14.3 1.4.2 2.7.6 4.1.8-2.9-8.2-5.9-16.3-9.1-24.4-.7-1.7-3.6-.7-3.1 1.1z"/><path class="st2" d="M293.8 276.9c5.9.8 12 1.4 18 1.2 2.1-.1 2.1-3.2 0-3.4-5.7-.6-11.9-.5-17.7 0-1.2.1-1.7 2-.3 2.2zm-198.2 0c5.9.8 12 1.4 18 1.2 2.1-.1 2.1-3.2 0-3.4-5.7-.6-11.9-.5-17.7 0-1.2.1-1.6 2-.3 2.2zm39.3-9.7c-.1-.1-.2-.2-.3-.2-1.4-1.1-3.5-1.4-4.8 0-1.4 1.5-1.2 3.4 0 4.8.1.1.2.2.2.3 1.2 1.4 3.6 1.4 4.8 0 1.4-1.4 1.6-3.6.1-4.9z"/><path class="st1" d="M219.2 294.9c-.1 0-.1-1.4-.2-3.4-.1-2.1-.3-5-.6-8.2-.2-3.2-.3-6.1-.3-8.2s.1-3.4.2-3.4.1 1.4.2 3.4c.1 2.1.3 5 .6 8.2.2 3.2.3 6.1.3 8.2 0 2.2-.1 3.4-.2 3.4z"/><path class="st5" d="m252.9 246.4 15.6-4.3.9 2.8-15.7 4.9z"/><path class="st6" d="M262.8 245.7c0 1-.9 1.9-1.9 1.9-1 0-1.9-.9-1.9-1.9 0-1 .9-1.9 1.9-1.9 1 0 1.9.9 1.9 1.9z"/><path class="st5" d="M199.9 203.2c-.1.1-.6-.3-1-.8-.5-.6-.8-1.1-.7-1.2.1-.1.6.3 1 .8.6.5.8 1.1.7 1.2zm-14.2 2c-.1.1-.6-.3-1-.8-.5-.6-.8-1.1-.7-1.2s.6.3 1 .8c.6.5.9 1.1.7 1.2z"/></svg>