<svg version="1.1" id="Layer_1" xmlns="http://www.w3.org/2000/svg" x="0" y="0" viewBox="0 0 500 373" style="enable-background:new 0 0 500 373" xml:space="preserve"><style>.st0{opacity:.3}.st1{fill:#a7abf9}.st3{fill:#3b3b3b}.st5{fill:#7caaff}.st6{fill:#7f00ff}.st7{fill:#ffaea6}.st8{fill:#6d03e8}.st9{fill:#8c8cf9}.st13{fill:#e7dcf9}.st14{fill:#241352}.st16{opacity:.12}</style><g class="st0"><path class="st1" d="M171.3 321.5c-39.2-13.2-73.2-46.1-80.1-86.8-7-40.8 18.7-86.7 59.2-95.5 19.1-4.2 39.7-.5 58-7.4 34.4-13.3 46.1-58.1 77.9-76.7 30.6-18 72.6-5 95.4 22.3s29.5 64.8 28.1 100.4c-2 52.1-24.2 108.4-71.5 130.5-39.9 18.3-124.2 23.6-167 13.2"/></g><g style="opacity:.15"><path class="st3" d="M354.6 148.9c-3 3-3.9 7.7-1 11.1 2.7 3.2 8 3.9 11.3 1.2 3.2-2.5 4.1-7.1 2-10.7-2.2-3.9-7.2-5.5-11.4-4.7-.7.2-.6 1.4.2 1.4 3.1-.1 6.4.3 8.7 2.5 2.7 2.5 2.9 6.6.6 9.4-2.4 3-7 3.2-9.9.6-2.9-2.7-2.7-7.5 0-10.3.3-.3-.2-.8-.5-.5zm-216-31.8c-3.3-1.5-7.4-1.1-10.5.9-3.1 2-4.9 5.8-4.7 9.4.1 2.9 1.3 6.1-.6 8.3-1.4 1.7-3.9 1.9-5.9 2.8-3.8 1.8-5.8 6.8-4 10.6.9 2 2.8 4 2.4 6.2-.2 1.5-1.4 2.6-2.7 3.3-1.3.7-2.7 1.1-4 1.8-4.8 2.3-7.7 7.8-7.6 13.2.2 5.4 3.1 10.5 7.3 13.7 4.3 3.2 9.6 4.9 14.9 5.1 5.4.2 10.9-1 15-4.5 3.1-2.6 5.1-6.2 6.6-10 2.8-7.1 4-14.9 3.3-22.5-.6-7.9-3.2-15.6-3.8-23.6-.2-2.7-.2-5.4-.7-8-.6-2.6-1.9-5.2-4.2-6.6"/><path class="st3" d="M137.4 118.2c3.1-6.3 9.1-11.1 16-12.7 4.2-.9 8.8-.6 12.5 1.6 3.7 2.2 6.3 6.6 5.7 10.9-.4 2.7-1.8 5-2.7 7.5s-1.2 5.6.5 7.6c1.5 1.9 4.2 2.3 6.2 3.5 3 1.7 4.8 5.2 4.6 8.6s-2.4 6.7-5.6 8c3.2.4 6 2.1 7.9 4.6 1.8 2.6 2.4 5.9 1.8 9-1 4.4-4.6 7.7-8.4 10.1-5.3 3.3-11.5 5.2-17.7 5.5-6.7.3-14-1.7-17.6-7.2-2.4-3.7-2.7-8.3-3-12.6-.8-13.2-1.4-26.3-1.9-39.5-.1-2.1-.2-4.3.3-6.3"/><path class="st3" d="m159.7 177.6 59.6 22.4-5.7-24 15.5-3.9s16.7 47 5.1 48.2c-20.2 2.2-50.9-5.8-50.9-5.8l-23.6-36.9z"/><path class="st3" d="M154.6 280.2s71.9-78.5 120.5-61.4c48.5 17.2 69 97.1 69 97.1l-38.7-.6s-30.5-60.4-45.5-58.1C245 259.5 199 317 199 317l-44.4-36.8z"/><path class="st3" d="m177.3 232.5 3 46.1c-15.5 19-69.5-5.6-69.5-5.6l-.6-19.3-1.3-45.8c1.2-18.3 18.2-27.3 18.2-27.3 7-3.5 17.7-5.5 27.4-5 10 .5 12.5 5.3 16.7 14.5 3.3 7.5 12.4 19.5 6.1 42.4z"/><path class="st3" d="M120.9 281.7s-8.3 33.6 16.9 38.9c25.1 5.3 117.7-7 141.8-5 24.1 2.1 92.7 6.1 92.7 6.1l5-39.9s-106.7-5.1-118.7-2.1c-12.1 3-137.7 2-137.7 2z"/><path class="st3" d="M132.9 223s-7.5 44.4 3.1 43.3c35-3.6 55.8-4.1 55.8-4.1l5.8 12.1c.1 2-66.2 21.1-76.9 14.7-7.5-4.5-19.6-16.4-14.1-52.1l1.3-12 25-1.9z"/><path class="st3" d="M164.5 286.8v-3l43.9-6.2 11.6-40.8 48.6-1.1-13 44z"/><path class="st3" d="M243.5 256.2c.1 1.9-1.5 3.6-3.5 3.7-1.9.1-3.6-1.5-3.7-3.5-.1-1.9 1.5-3.6 3.5-3.7 1.9-.1 3.6 1.4 3.7 3.5z"/><path d="M244.9 256.1c.1 2.8-2.1 5.1-4.9 5.2-2.8.1-5.1-2.1-5.2-4.9-.1-2.8 2.1-5.1 4.9-5.2 2.8-.1 5.1 2.1 5.2 4.9z" style="opacity:.41;fill:#3b3b3b;enable-background:new"/><path class="st3" d="M113.7 193.5s-8.2 7.8-10 37.5l31.6-3.5c0-.1 5.2-50.5-21.6-34zm231.9-89.3s11.2 25.1 14.3 23.8c3.2-1.3 32-19.3 32-19.3S380 86.2 377.6 84.9c-2.5-1.2-32 19.3-32 19.3z"/><path class="st3" d="M377.6 85s0 .2-.1.5c-.1.4-.3.8-.5 1.3-.5 1.2-1 2.9-1.8 4.9-1.5 4.1-3.6 9.7-5.9 16-.1.2-.1.3-.2.5l-.1.2h-.2c-6.4-1.1-12.2-2-16.5-2.8-2-.4-3.7-.6-5-.9-.6-.1-1-.2-1.4-.3-.3-.1-.5-.1-.5-.1h.5c.4.1.8.1 1.4.2 1.2.2 3 .5 5 .7 4.3.6 10.1 1.6 16.5 2.6l-.3.2c.1-.2.1-.3.2-.5 2.3-6.2 4.5-11.9 6.1-16 .7-1.9 1.4-3.6 1.9-4.8.2-.6.4-.9.6-1.3.2-.3.3-.4.3-.4z"/><path class="st3" d="M356.2 125.1c-.1 0 .1-1 .5-2.7s.9-4 1.6-6.5c.6-2.5 1.4-4.7 1.9-6.4.6-1.6.9-2.6 1-2.6s-.2 1-.6 2.7c-.5 1.8-1.1 4-1.8 6.4-.6 2.4-1.2 4.6-1.8 6.4-.4 1.8-.7 2.8-.8 2.7zm33.9-21.2c0 .1-4.1-.4-9-1.2-4.9-.7-8.9-1.5-8.9-1.7 0-.1 4 .4 9 1.2 4.9.7 8.9 1.5 8.9 1.7zm-260.6 27.4.7 9.5s-8 1.1-5.8 8.3c2.3 7.3 7.8 4.1 7.8 4.1s1.4 18.7 20.5 12.8c15.2-4.7 14.3-24.5 12.4-41.3-.7-6.5-7-11-13.4-9.7l-11.5 2.2c-6.5 1.2-11.2 7.4-10.7 14.1z"/><path class="st3" d="m130.3 148.5 5.2 27.5c1.2 6.2 7.2 10.2 13.4 8.7 5.7-1.4 9.4-7 8.3-12.7l-2.8-15.8-24.1-7.7zm21.1.4s.1.3.6.4c.4.1 1-.3 1.2-1.1s.1-1.8.1-3c-.1-1.1-.2-2.4-.3-3.7-.2-2.6-.3-5-.4-6.7-.1-1.7-.1-2.8 0-2.8s.2 1 .4 2.8.4 4.1.5 6.7c.1 1.3.2 2.5.2 3.7.1 1.1.1 2.2-.2 3.1-.2.9-1.1 1.4-1.6 1.2-.5-.3-.5-.6-.5-.6z"/><path class="st3" d="m157.6 164.1-.6.6c-.4.3-1 .7-1.8 1.1-1.6.8-4 1.7-6.7 1.8-2.8.1-5.2-.6-6.8-1.5-.8-.4-1.4-.7-1.9-1-.4-.3-.6-.5-.6-.5 0-.1.9.6 2.6 1.2 1.6.6 4 1.3 6.6 1.3 2.7-.1 5-.8 6.6-1.6 1.8-.9 2.6-1.5 2.6-1.4zm-3.7-11.4s-.3.6-1.1 1.1c-.8.6-2.2.9-3.7.5-1.5-.5-2.4-1.7-2.8-2.5-.4-.9-.3-1.6-.3-1.6.1 0 .1.6.6 1.4.4.8 1.3 1.8 2.6 2.2 1.3.4 2.6.1 3.4-.3.8-.4 1.2-.8 1.3-.8zm-24.3-2.7c0 .1-.5.2-1.2-.1-.4-.1-.8-.5-1-1-.1-.3-.1-.6 0-.8.1-.3.4-.6.6-.7.5-.2 1-.1 1.3.4l-.4.2c-.6-1.5-1-2.7-.9-2.7.1 0 .6 1 1.4 2.5l-.4.2c-.1-.2-.5-.3-.7-.2-.4.1-.6.6-.4 1 .1.4.4.6.7.8.5.3 1 .3 1 .4zm29.5-13.2c-.1 0-.4-.6-.6-1.5-.2-.8-.3-1.5-.1-1.6.1 0 .4.6.6 1.5s.3 1.6.1 1.6zm-16.2 1.5c-.1 0-.5-.6-.6-1.5-.2-.8-.3-1.6-.2-1.6s.5.6.6 1.5c.3.8.4 1.6.2 1.6zm1.5-6.9c0 .1-.9 0-1.9.3-1 .3-1.8.8-1.9.7-.1-.1.6-.9 1.8-1.2 1.1-.2 2 .1 2 .2zm16.6-2.6c-.1.1-1-.2-2.2-.1-1.2.1-2.1.6-2.1.5-.1-.1.8-.8 2.1-.9 1.2-.1 2.2.4 2.2.5z"/><path class="st3" d="M130.3 140.7c5.4-5.2 7-13.9 8.3-21.2 4.9 3.6 11.8 4.5 17.4 2.3 1.8 2.1 3.9 4 6.2 5.5.6.5 1.5.8 2.2.6.9-.3 1.3-1.3 1.5-2.2.6-3 .7-6-.3-8.9-1-2.8-3.2-5.3-5.9-6.4-3-1.1-6.4-.6-9.5.2-4.6 1.2-9.2 3.1-13.4 5.6-4.1 2.4-8.1 5.6-9.7 10-1.8 4.5-1.8 13 2.4 15.2m22.5 12.3c0 .4-.2.6-.6.9-.5.2-1.1.3-1.8.2-.6-.2-1.3-.5-1.6-.9-.3-.4-.4-.7-.2-1.1.4-.6 1.3-.6 2.3-.4 1 .3 1.9.6 1.9 1.3zm-6.6-8.7c.1.6-1.8 1.5-4.2 1.7-2.4.1-4.4-.6-4.4-1.2.1-.6 1.9-1 4.2-1.2 2.3-.2 4.3 0 4.4.7zm20.3-1.7c.1.6-1.5 1.5-3.7 1.7-2.2.1-3.9-.6-3.9-1.2.1-.6 1.8-1 3.7-1.2 2-.1 3.7 0 3.9.7zM130 165.6c-.2 0-.2-3.1-.4-6.8-.2-3.7-.5-6.8-.4-6.8s.2.7.4 1.9.4 2.9.5 4.7.1 3.5.1 4.8c0 1.5-.1 2.2-.2 2.2zm31.8 11.8c-5.2-2 34.7 12.7 34.7 12.7l-4.1 27.3-15.1-5-15.5-35z"/><path class="st3" d="M138.1 115.7c1.3-1.9 1.7-4.4 1.1-6.5-.5-1.9-1.9-3.6-3.7-3.7-1-.1-2.1.5-2.9 1.2-1.9 1.8-2.4 4.9-1.1 7.2 1.3 2.3 4.2 3.5 6.8 2.8m237.9 173.6s13-18.6 11.4-11.5c-1.6 7-14.7 38.3-14.7 38.3l3.3-26.8zm-188-28.1s17.2-5.4 16.5-3.6c-.6 1.8-3.5 1.9-6.4 4.6 0 0 19.1.2 18.2 1.8-.9 1.6-13.4 1.9-13.4 2.2-.1.3 13.6.6 13.4 2-.3 1.5-13.1 1.1-13.1 1.1s11.8 1.3 11.6 2.8c-.3 1.6-11.1.5-11.1.5s9.1 1 8.9 2.5c-.2.8-26.7 1-26.7 1.7-.2.5 2.1-15.6 2.1-15.6m26.5-84.8s-10.4-14.6-8.5-14.6 2.8 2.8 6.4 4.6c0 0-5.8-18.2-4-17.8 1.8.4 6 12.1 6.3 12.1.3 0-3.6-13.1-2.2-13.3 1.5-.2 5.1 12 5.1 12s-2.5-11.6-.9-11.8c1.6-.3 3.9 10.4 3.9 10.4s-1.9-8.9-.5-9.2c.8-.1 8.7 22.1 8.7 22.1-.1.1-14.3 5.5-14.3 5.5m-95.9 40s.1.2.2.6c.1.4.2.8.1 1.5 0 .6-.3 1.5-1 2-.4.3-.9.5-1.4.3-.6-.1-.9-.5-1.3-.8-.4-.4-.6-.7-.9-.9-.3-.3-.6-.4-1.1-.5-.7-.1-1.5.2-1.9.6-.8.8-.7 1.8-.8 1.8 0 0-.1-.2-.1-.6s.2-.9.6-1.4c.5-.6 1.2-.9 2.1-.8.5 0 .9.2 1.3.6.4.3.6.6 1 1 .3.4.6.6 1 .7s.7 0 1-.2c.6-.4.9-1.1 1-1.7.2-1.5.1-2.2.2-2.2zm9.3-8.1s.1-.2.4-.5c.3-.3.6-.6 1.2-.9.6-.3 1.4-.6 2.3-.2.4.2.8.6 1 1 .2.5.1 1-.1 1.5-.1.5-.3.9-.4 1.3-.1.4 0 .8.2 1.1.3.7.9 1.1 1.5 1.3 1.2.3 1.9-.3 1.9-.2 0 0-.1.2-.5.4-.3.2-.8.4-1.5.2-.6-.1-1.4-.6-1.8-1.4-.2-.4-.3-.9-.3-1.4.1-.5.2-.9.4-1.4.1-.5.2-.8.1-1.2-.1-.4-.4-.6-.7-.7-.6-.4-1.4-.2-1.9.1-1.1.6-1.7 1.1-1.8 1zm-.5-20.1s.1-.2.4-.5c.3-.3.6-.6 1.2-.9.6-.3 1.4-.6 2.3-.2.4.2.8.6 1 1s.1 1-.1 1.5c-.1.5-.3.9-.4 1.3-.1.4 0 .8.2 1.1.3.7.9 1.1 1.5 1.3 1.2.3 1.9-.3 1.9-.2 0 0-.1.2-.5.4-.3.2-.8.4-1.5.2-.6-.1-1.4-.6-1.8-1.4-.2-.4-.3-.9-.3-1.4.1-.5.2-.9.4-1.4.1-.5.2-.8.1-1.2-.1-.4-.4-.6-.7-.7-.6-.4-1.4-.2-1.9.1-1.3.5-1.8 1.1-1.8 1zm19.9 26.2s-.2-.1-.5-.3c-.3-.3-.6-.6-1-1.1s-.6-1.4-.4-2.2c.1-.5.5-.8.9-1.1.5-.2 1-.2 1.5-.1s.9.2 1.3.2.8-.1 1.1-.3c.6-.4 1-1 1.1-1.6.2-1.2-.5-1.9-.4-1.9 0 0 .2.1.4.4.2.3.4.8.4 1.5s-.5 1.5-1.2 1.9c-.4.2-.8.4-1.4.4-.5 0-.9-.1-1.4-.2-.5-.1-.8-.1-1.2 0-.4.2-.6.5-.7.8-.3.7-.1 1.4.2 1.9.7 1.1 1.3 1.7 1.3 1.7zm13.5 21s-.1.2-.4.4-.6.6-1.3.8c-.6.3-1.5.4-2.3 0-.4-.2-.8-.6-.9-1.1-.2-.6 0-1 .2-1.5s.4-.8.5-1.3c.1-.4 0-.8-.1-1.1-.3-.7-.8-1.2-1.4-1.4-1.1-.4-1.9.2-1.9.1 0 0 .1-.2.5-.3.4-.2.8-.3 1.6-.1.6.2 1.4.6 1.7 1.6.2.4.2.9.2 1.4-.1.5-.3.9-.5 1.4-.2.5-.3.8-.2 1.2.1.4.4.6.6.8.6.4 1.4.3 1.9.1 1.2-.5 1.8-1.1 1.8-1zm16.1-33.1s-.1.2-.4.4c-.3.2-.6.6-1.3.8-.6.3-1.5.4-2.3 0-.4-.2-.8-.6-.9-1.1-.2-.6 0-1 .2-1.5s.4-.8.5-1.3c.1-.4 0-.8-.1-1.1-.3-.7-.8-1.2-1.4-1.4-1.1-.4-1.9.2-1.9.1 0 0 .1-.2.5-.3.4-.2.8-.3 1.6-.1.6.2 1.4.6 1.7 1.6.2.4.2.9.2 1.4-.1.5-.3.9-.5 1.4-.2.5-.3.8-.2 1.2.1.4.4.6.6.8.6.4 1.4.3 1.9.1 1.1-.6 1.7-1.1 1.8-1zm10.9-5.1s.2.1.5.3c.3.2.7.5 1.2.9s.9 1.2.7 2.1c-.1.5-.3.9-.7 1.2-.5.3-1 .4-1.5.4h-1.4c-.4.1-.7.3-1 .5-.6.5-.8 1.2-.8 1.8.1 1.2.8 1.7.7 1.8 0 0-.2-.1-.5-.4-.3-.3-.6-.7-.6-1.4s.2-1.5.8-2.1c.4-.3.7-.6 1.3-.6.5-.1.9 0 1.4 0s.9-.1 1.2-.3c.3-.2.5-.6.6-.9.1-.7-.2-1.4-.6-1.9-.6-.9-1.4-1.3-1.3-1.4zm-44.2 55.4s-.1.2-.4.4c-.3.2-.6.6-1.3.8-.6.3-1.5.4-2.3 0-.4-.2-.8-.6-.9-1.1-.2-.6 0-1 .2-1.5s.4-.8.5-1.3c.1-.4 0-.8-.1-1.1-.3-.7-.8-1.2-1.4-1.4-1.1-.4-1.9.2-1.9.1 0 0 .1-.2.5-.3.4-.2.8-.3 1.6-.1.6.2 1.4.6 1.7 1.6.2.4.2.9.2 1.4-.1.5-.3.9-.5 1.4s-.3.8-.2 1.2c.1.4.4.6.6.8.6.4 1.4.3 1.9.1 1.1-.6 1.8-1.1 1.8-1zm23.7-31.9s-.2-.1-.4-.4-.6-.6-.8-1.2c-.3-.6-.5-1.5-.1-2.3.2-.4.6-.8 1-.9.5-.2 1-.1 1.5.1s.9.3 1.3.4c.4.1.8 0 1.1-.2.7-.3 1.1-.8 1.3-1.4.3-1.2-.3-1.9-.2-1.9 0 0 .2.1.4.5s.3.8.2 1.5c-.1.6-.6 1.4-1.5 1.8-.4.2-.9.3-1.4.2-.5-.1-.9-.3-1.4-.4-.5-.2-.8-.2-1.2-.1s-.6.4-.8.7c-.4.6-.3 1.4 0 1.9.6 1 1.1 1.6 1 1.7zm4.3 17.1s-.2-.1-.4-.4-.6-.6-.8-1.2c-.3-.6-.5-1.5-.1-2.3.2-.4.6-.8 1-.9.5-.2 1-.1 1.5.1s.9.3 1.3.4c.4.1.8 0 1.1-.2.7-.3 1.1-.8 1.3-1.4.3-1.2-.3-1.9-.2-1.9 0 0 .2.1.4.5s.3.8.2 1.5c-.1.6-.6 1.4-1.5 1.8-.4.2-.9.3-1.4.2-.5-.1-.9-.3-1.4-.4-.5-.2-.8-.2-1.2-.1s-.6.4-.8.7c-.4.6-.3 1.4 0 1.9.5 1.1 1 1.6 1 1.7zm-34.3-7.3s-.1-.2-.1-.6c0-.4 0-.8.2-1.5s.6-1.4 1.5-1.8c.4-.2.9-.3 1.5 0 .5.2.8.6 1 1.1.3.5.5.8.7 1.1.3.3.6.6.9.6.7.3 1.5.1 1.9-.2 1-.6 1.1-1.6 1.1-1.5 0 0 .1.2-.1.6-.1.4-.4.8-.9 1.2-.6.4-1.4.6-2.2.3-.5-.2-.8-.4-1.2-.7-.3-.4-.6-.8-.7-1.2s-.5-.7-.8-.9c-.4-.2-.7-.2-1.1 0-.7.3-1.1.9-1.3 1.5-.3 1.2-.3 2-.4 2zm31 21.2s-.1-.2-.1-.6c0-.4 0-.8.2-1.5.2-.6.6-1.4 1.5-1.8.4-.2.9-.3 1.5 0 .5.2.8.6 1 1.1.3.5.5.8.7 1.1.3.3.6.6.9.6.7.3 1.5.1 1.9-.2 1-.6 1.1-1.6 1.1-1.5 0 0 .1.2-.1.6-.1.4-.4.8-.9 1.2-.6.4-1.4.6-2.2.3-.5-.2-.8-.4-1.2-.7-.3-.4-.6-.8-.7-1.2-.2-.4-.5-.7-.8-.9s-.7-.2-1.1 0c-.7.3-1.1.9-1.3 1.5-.3 1.2-.3 2-.4 2zm-1-64.1s-.1-.2-.1-.6c0-.4 0-.8.2-1.5.2-.6.6-1.4 1.5-1.8.4-.2.9-.3 1.5 0 .5.2.8.6 1 1.1.3.5.5.8.7 1.1s.6.6.9.6c.7.3 1.5.1 1.9-.2 1-.6 1.1-1.6 1.1-1.5 0 0 .1.2-.1.6-.1.4-.4.8-.9 1.2s-1.4.6-2.2.3c-.5-.2-.8-.4-1.2-.7-.3-.4-.6-.8-.7-1.2-.2-.4-.5-.7-.8-.9-.4-.2-.7-.2-1.1 0-.7.3-1.1.9-1.3 1.5-.3 1.1-.3 2-.4 2zm-10.1 72.6s-.2 0-.6-.2c-.3-.2-.8-.4-1.3-.7s-1-1.1-1-2c0-.5.2-.9.6-1.3.4-.4.9-.5 1.4-.6.5-.1.9-.1 1.3-.2s.7-.4 1-.6c.6-.6.6-1.3.6-1.9-.2-1.2-1-1.6-.9-1.7 0 0 .2 0 .5.3.3.2.6.6.7 1.3.2.6 0 1.6-.6 2.2-.3.4-.7.6-1.2.7-.5.2-.9.2-1.4.2-.5.1-.8.2-1.1.4-.3.3-.5.6-.5 1 0 .7.4 1.4.8 1.8 1 .9 1.8 1.2 1.7 1.3zm-36.7-63s.2.1.4.4c.2.3.5.7.7 1.3.2.6.4 1.5-.2 2.3-.2.4-.6.7-1.1.8-.6.1-1-.1-1.5-.3-.5-.2-.8-.4-1.2-.5-.4-.1-.8-.1-1.1 0-.7.2-1.2.7-1.5 1.3-.4 1.1.1 1.9 0 1.9 0 0-.2-.1-.3-.5-.1-.4-.2-.9 0-1.6.2-.6.7-1.3 1.7-1.6.5-.2.9-.2 1.4-.1.5.1.9.4 1.3.6.5.2.8.3 1.2.2.4-.1.6-.3.8-.6.4-.6.4-1.4.2-1.9-.4-1-.9-1.6-.8-1.7zm35.4-6.3s.2.1.4.4c.2.3.5.7.7 1.3.2.6.4 1.5-.2 2.3-.2.4-.6.7-1.1.8-.6.1-1-.1-1.5-.3-.5-.2-.8-.4-1.2-.5-.4-.1-.8-.1-1.1 0-.7.2-1.2.7-1.5 1.3-.4 1.1.1 1.9 0 1.9 0 0-.2-.1-.3-.5-.1-.4-.2-.9 0-1.6s.7-1.3 1.7-1.6c.5-.2.9-.2 1.4-.1s.9.4 1.3.6c.5.2.8.3 1.2.2.4-.1.6-.3.8-.6.4-.6.4-1.4.2-1.9-.4-1.1-.9-1.7-.8-1.7z"/><path class="st3" d="M134.2 229.2v-.6c0-.4.1-.9.1-1.6.2-1.5.4-3.4.6-5.8.6-5 1.2-11.8 2-19.3.2-1.9.3-3.7 0-5.5-.3-1.8-.9-3.3-1.9-4.6-2-2.6-4.8-3.9-7.1-4.4-2.4-.6-4.5-.5-5.8-.4-.6 0-1.2.1-1.6.1-.4 0-.6.1-.6 0 0 0 .2-.1.6-.1.4-.1.9-.2 1.6-.2 1.4-.1 3.4-.3 5.9.3 2.4.5 5.4 1.8 7.4 4.5 1 1.3 1.8 3 2 4.8.3 1.8.2 3.7 0 5.6-.8 7.5-1.6 14.4-2.2 19.3-.3 2.4-.6 4.4-.7 5.8-.1.6-.2 1.2-.2 1.6 0 .3 0 .5-.1.5z"/><path class="st3" d="M135.7 227.4c0 .1-7.2 1-16.1 1.9s-16.1 1.6-16.1 1.5c0-.1 7.2-1 16.1-1.9 8.8-.9 16.1-1.6 16.1-1.5zm43.9-3.5c-.1 0 .3-1.6.6-4.1.1-1.3.1-2.8 0-4.5-.1-1.7-.4-3.5-.8-5.4-.5-1.9-1.1-3.6-1.9-5.2-.7-1.6-1.5-2.9-2.1-3.9-1.4-2.1-2.5-3.3-2.4-3.3 0 0 .3.3.8.7.3.3.6.6.8 1 .3.4.7.8 1 1.4.7 1 1.6 2.4 2.3 3.9.7 1.6 1.4 3.3 1.9 5.3.5 1.9.7 3.8.8 5.5.1 1.7 0 3.2-.1 4.5l-.3 1.8c-.1.5-.2.9-.3 1.3-.2.6-.3 1-.3 1zm83.8.3c-.3-3 .2-5.7 2.9-7.3 2.8-1.7 5.2-.6 7.8.7 2.2 1.1 4.5 1.6 6.9.6 4.1-1.8 5.5-7.1 2.6-10.5-.6-.6-1.7 0-1.4.8.8 2.2 1.4 5-.6 7-2.7 2.6-5.7.8-8.3-.4-2.2-1-4.5-1.3-6.8-.4-3.9 1.6-5.8 6-3.9 9.8.1.2.8 0 .8-.3zm12.2-83c.8 2.1 2.1 4 3.4 5.8.7 1 1.8 2.9 3.2 3.2 1.4.3 2.4-.7 3.4-1.5 2.4-1.7 4.7-3.3 7.1-5.1.4-.3.6-.7.3-1.2-2.1-3.2-4.2-6.5-6.3-9.7-.3-.4-.8-.6-1.2-.3-2.6 1.9-5.2 3.5-7.7 5.5-.7.6.2 1.9 1 1.3 2.6-1.7 5.1-3.5 7.6-5.3l-1.2-.3c2.1 3.2 4.2 6.5 6.3 9.7l.3-1.2c-1.4 1-2.9 2-4.3 3.1-1 .7-3.1 2.9-4.3 3.1-2.5.5-5.6-5.8-7.1-7.4-.1-.2-.6.1-.5.3zm-30 30.8c-3 3-3.9 7.7-1 11.1 2.7 3.2 8 3.9 11.3 1.2 3.2-2.5 4.1-7.1 2-10.7-2.2-3.9-7.2-5.5-11.4-4.7-.7.2-.6 1.4.2 1.4 3.1-.1 6.4.3 8.7 2.5 2.7 2.5 2.9 6.6.6 9.4-2.4 3-7 3.2-9.9.6-2.9-2.7-2.7-7.5 0-10.3.4-.4-.1-.9-.5-.5zm76.6 29.2c-.9 5.9-1.9 12-2.7 17.9-.1.6.4 1 .9.9 5.6-.8 11.2-1.7 16.8-2.7.5-.1.6-.6.5-1.1-3.2-5.8-7.2-12-12.7-15.8-.7-.6-1.6.6-.9 1.3 4.5 4.9 9.2 9.3 12.4 15.3.2-.4.5-.7.6-1.1-5.7.7-11.3 1.7-17 2.6.4.3.6.5 1 .7.7-6 1.5-12 2.1-18 0-.4-.9-.6-1 0zm-27-11.3c.9-5.9 1.8-11.9 2.3-17.8.1-.8-1.3-1-1.5-.2-.8 5.9-1.4 12-1.8 17.9 0 .5.9.6 1 .1zm64.7-1.3c5.9.5 11.9.8 17.8.8.9 0 .9-1.4 0-1.5-5.9-.4-11.9-.5-17.8-.4-.6 0-.6 1 0 1.1zm-48.1-75.3c5.4 2.5 10.9 4.9 16.5 7 .7.3 1.3-1 .6-1.4-5.5-2.4-11.1-4.5-16.7-6.6-.6-.1-1 .8-.4 1zm15.4 50.4c-.2-.4-.5-.6-.8-.8-1.2-.8-2.9.8-2 2 .3.4.5.6.8.8 1.2.8 2.7-.7 2-2z"/></g><path class="st5" d="M352.8 147.1c-3 3-3.9 7.7-1 11.1 2.7 3.2 8 3.9 11.3 1.2 3.2-2.5 4.1-7.1 2-10.7-2.2-3.9-7.2-5.5-11.4-4.7-.7.2-.6 1.4.2 1.4 3.1-.1 6.4.3 8.7 2.5 2.7 2.5 2.9 6.6.6 9.4-2.4 3-7 3.2-9.9.6-2.9-2.7-2.7-7.5 0-10.3.2-.3-.2-.9-.5-.5z"/><path class="st6" d="M136.7 115.3c-3.3-1.5-7.4-1.1-10.5.9s-4.9 5.8-4.7 9.4c.1 2.9 1.3 6.1-.6 8.3-1.4 1.7-3.9 1.9-5.9 2.8-3.8 1.8-5.8 6.8-4 10.6.9 2 2.8 4 2.4 6.2-.2 1.5-1.4 2.6-2.7 3.3-1.3.7-2.7 1.1-4 1.8-4.8 2.3-7.7 7.8-7.6 13.2.2 5.4 3.1 10.5 7.3 13.7 4.3 3.2 9.6 4.9 14.9 5.1 5.4.2 10.9-1 15-4.5 3.1-2.6 5.1-6.2 6.6-10 2.8-7.1 4-14.9 3.3-22.5-.6-7.9-3.2-15.6-3.8-23.6-.2-2.7-.2-5.4-.7-8-.6-2.6-1.9-5.2-4.2-6.6"/><path class="st6" d="M135.5 116.3c3.1-6.3 9.1-11.1 16-12.7 4.2-.9 8.8-.6 12.5 1.6 3.7 2.2 6.3 6.6 5.7 10.9-.4 2.7-1.8 5-2.7 7.5s-1.2 5.6.5 7.6c1.5 1.9 4.2 2.3 6.2 3.5 3 1.7 4.8 5.2 4.6 8.6s-2.4 6.7-5.6 8c3.2.4 6 2.1 7.9 4.6 1.8 2.6 2.4 5.9 1.8 9-1 4.4-4.6 7.7-8.4 10.1-5.3 3.3-11.5 5.2-17.7 5.5-6.7.3-14-1.7-17.6-7.2-2.4-3.7-2.7-8.3-3-12.6-.8-13.2-1.4-26.3-1.9-39.5-.1-2.1-.2-4.3.3-6.3"/><path class="st7" d="m157.9 175.8 59.6 22.4-5.7-24 15.5-3.9s16.7 47 5.1 48.2c-20.2 2.2-50.9-5.8-50.9-5.8l-23.6-36.9z"/><path class="st8" d="M152.7 278.3s71.9-78.5 120.5-61.4c48.5 17.2 69 97.1 69 97.1l-38.7-.6S273 253 258 255.3c-14.9 2.3-60.9 59.8-60.9 59.8l-44.4-36.8z"/><path class="st9" d="m175.4 230.7 3 46.1c-15.5 19-69.5-5.6-69.5-5.6l-.6-19.3-1.3-45.8c1.2-18.3 18.2-27.3 18.2-27.3 7-3.5 17.7-5.5 27.4-5 10 .5 12.5 5.3 16.7 14.5 3.3 7.4 12.4 19.5 6.1 42.4z"/><path class="st6" d="M119 279.8s-8.3 33.6 16.9 38.9c25.1 5.3 117.7-7 141.8-5 24.1 2.1 92.7 6.1 92.7 6.1l5-39.9s-106.7-5.1-118.7-2.1c-12.1 3.1-137.7 2-137.7 2z"/><path class="st7" d="M131.1 221.1s-7.5 44.4 3.1 43.3c35-3.6 55.8-4.1 55.8-4.1l5.8 12.1c.1 2-66.2 21.1-76.9 14.7-7.5-4.5-19.6-16.4-14.1-52.1l1.3-12 25-1.9z"/><path style="fill:#9b8abe" d="M162.6 284.9V282l43.9-6.3 11.7-40.8 48.6-1.1-13.1 44.1z"/><path d="M241.7 254.3c.1 1.9-1.5 3.6-3.5 3.7-1.9.1-3.6-1.5-3.7-3.5-.1-1.9 1.5-3.6 3.5-3.7 1.9-.1 3.6 1.5 3.7 3.5z" style="fill:#fff"/><path d="M243 254.2c.1 2.8-2.1 5.1-4.9 5.2-2.8.1-5.1-2.1-5.2-4.9-.1-2.8 2.1-5.1 4.9-5.2 2.8-.1 5.2 2.1 5.2 4.9z" style="opacity:.41;fill:#fff;enable-background:new"/><path class="st9" d="M111.9 191.6s-8.2 7.8-10 37.5l31.6-3.5c-.1 0 5.2-50.5-21.6-34z"/><path class="st6" d="M343.8 102.4s11.2 25.1 14.3 23.8c3.2-1.3 32-19.3 32-19.3s-11.9-22.5-14.3-23.8c-2.5-1.2-32 19.3-32 19.3z"/><path class="st13" d="M375.8 83.2s0 .2-.1.5c-.1.4-.3.8-.5 1.3-.5 1.2-1 2.9-1.8 4.9-1.5 4.1-3.6 9.7-5.9 16-.1.2-.1.3-.2.5l-.1.2h-.2c-6.4-1.1-12.2-2-16.5-2.8-2-.4-3.7-.6-5-.9-.6-.1-1-.2-1.4-.3-.3-.1-.5-.1-.5-.1h.5c.4.1.8.1 1.4.2 1.2.2 3 .5 5 .7 4.3.6 10.1 1.6 16.5 2.6l-.3.2c.1-.2.1-.3.2-.5 2.3-6.2 4.5-11.9 6.1-16 .7-1.9 1.4-3.6 1.9-4.8.2-.6.4-.9.6-1.3.2-.3.3-.4.3-.4z"/><path class="st13" d="M354.4 123.3c-.1 0 .1-1 .5-2.7.4-1.7.9-4 1.6-6.5.6-2.5 1.4-4.7 1.9-6.4.6-1.6.9-2.6 1-2.6s-.2 1-.6 2.7c-.5 1.8-1.1 4-1.8 6.4-.6 2.4-1.2 4.6-1.8 6.4-.5 1.7-.8 2.7-.8 2.7zm33.8-21.3c0 .1-4.1-.4-9-1.2-4.9-.7-8.9-1.5-8.9-1.7 0-.1 4 .4 9 1.2 4.9.8 8.9 1.5 8.9 1.7z"/><path class="st7" d="m127.7 129.5.7 9.5s-8 1.1-5.8 8.3c2.3 7.3 7.8 4.1 7.8 4.1s1.4 18.7 20.5 12.8c15.2-4.7 14.3-24.5 12.4-41.3-.7-6.5-7-11-13.4-9.7l-11.5 2.2c-6.6 1.2-11.2 7.3-10.7 14.1z"/><path class="st7" d="m128.4 146.6 5.2 27.5c1.2 6.2 7.2 10.2 13.4 8.7 5.7-1.4 9.4-7 8.3-12.7l-2.8-15.8-24.1-7.7z"/><path class="st14" d="M149.5 147s.1.3.6.4c.4.1 1-.3 1.2-1.1s.1-1.8.1-3c-.1-1.1-.2-2.4-.3-3.7-.2-2.6-.3-5-.4-6.7-.1-1.7-.1-2.8 0-2.8s.2 1 .4 2.8c.2 1.7.4 4.1.5 6.7.1 1.3.2 2.5.2 3.7.1 1.1.1 2.2-.2 3.1-.2.9-1.1 1.4-1.6 1.2-.5-.2-.5-.6-.5-.6zm6.3 15.2-.6.6c-.4.3-1 .7-1.8 1.1-1.6.8-4 1.7-6.7 1.8-2.8.1-5.2-.6-6.8-1.5-.8-.4-1.4-.7-1.9-1-.4-.3-.6-.5-.6-.5 0-.1.9.6 2.6 1.2 1.6.6 4 1.3 6.6 1.3 2.7-.1 5-.8 6.6-1.6 1.7-.8 2.6-1.5 2.6-1.4zm-3.8-11.4s-.3.6-1.1 1.1c-.8.6-2.2.9-3.7.5-1.5-.5-2.4-1.7-2.8-2.5-.4-.9-.3-1.6-.3-1.6.1 0 .1.6.6 1.4.4.8 1.3 1.8 2.6 2.2 1.3.4 2.6.1 3.4-.3.9-.3 1.3-.8 1.3-.8zm-24.3-2.7c0 .1-.5.2-1.2-.1-.4-.1-.8-.5-1-1-.1-.3-.1-.6 0-.8s.4-.6.6-.7c.5-.2 1-.1 1.3.4l-.4.2c-.6-1.5-1-2.7-.9-2.7s.6 1 1.4 2.5l-.4.2c-.1-.2-.5-.3-.7-.2-.4.1-.6.6-.4 1 .1.4.4.6.7.8.6.3 1 .3 1 .4zm29.5-13.2c-.1 0-.4-.6-.6-1.5-.2-.8-.3-1.5-.1-1.6.1 0 .4.6.6 1.5s.3 1.6.1 1.6zm-16.2 1.5c-.1 0-.5-.6-.6-1.5-.2-.8-.3-1.6-.2-1.6.1 0 .5.6.6 1.5.3.9.4 1.6.2 1.6zm1.5-6.8c0 .1-.9 0-1.9.3-1 .3-1.8.8-1.9.7-.1-.1.6-.9 1.8-1.2 1.2-.3 2.1.1 2 .2zm16.6-2.6c-.1.1-1-.2-2.2-.1s-2.1.6-2.1.5c-.1-.1.8-.8 2.1-.9 1.3-.2 2.3.4 2.2.5z"/><path class="st6" d="M128.4 138.8c5.4-5.2 7-13.9 8.3-21.2 4.9 3.6 11.8 4.5 17.4 2.3 1.8 2.1 3.9 4 6.2 5.5.6.5 1.5.8 2.2.6.9-.3 1.3-1.3 1.5-2.2.6-3 .7-6-.3-8.9-1-2.8-3.2-5.3-5.9-6.4-3-1.1-6.4-.6-9.5.2-4.6 1.2-9.2 3.1-13.4 5.6-4.1 2.4-8.1 5.6-9.7 10-1.8 4.5-1.8 13 2.4 15.2"/><path class="st14" d="M150.2 151.8c0 .4-.2.6-.6.9-.5.2-1.1.3-1.8.2-.6-.2-1.3-.5-1.6-.9-.3-.4-.4-.7-.2-1.1.4-.6 1.3-.6 2.3-.4 1 .3 1.8.7 1.9 1.3z" style="opacity:.28"/><g class="st16"><path class="st14" d="M143.5 143.1c.1.6-1.8 1.5-4.2 1.7-2.4.1-4.4-.6-4.4-1.2.1-.6 1.9-1 4.2-1.2 2.4-.1 4.3.1 4.4.7z"/></g><g class="st16"><path class="st14" d="M163.8 141.4c.1.6-1.5 1.5-3.7 1.7-2.2.1-3.9-.6-3.9-1.2.1-.6 1.8-1 3.7-1.2 2.1-.1 3.7.1 3.9.7z"/></g><path d="M128.1 163.8c-.2 0-.2-3.1-.4-6.8-.2-3.7-.5-6.8-.4-6.8.1 0 .2.7.4 1.9s.4 2.9.5 4.7.1 3.5.1 4.8c0 1.4-.1 2.2-.2 2.2z" style="fill:#6042dc"/><path class="st9" d="M159.9 175.6c-5.2-2 34.7 12.7 34.7 12.7l-4.1 27.3-15.1-5-15.5-35z"/><path class="st6" d="M136.3 113.9c1.3-1.9 1.7-4.4 1.1-6.5-.5-1.9-1.9-3.6-3.7-3.7-1-.1-2.1.5-2.9 1.2-1.9 1.8-2.4 4.9-1.1 7.2 1.3 2.3 4.2 3.5 6.8 2.8"/><path class="st14" d="M374.3 288.5s13-18.6 11.4-11.5c-1.6 7-14.7 38.3-14.7 38.3l3.3-26.8z"/><path class="st7" d="M186.4 260.4s17.2-5.4 16.5-3.6c-.6 1.8-3.5 1.9-6.4 4.6 0 0 19.1.2 18.2 1.8-.9 1.6-13.4 1.9-13.4 2.2-.1.3 13.6.6 13.4 2-.3 1.5-13.1 1.1-13.1 1.1s11.8 1.3 11.6 2.8c-.3 1.6-11.1.5-11.1.5s9.1 1 8.9 2.5c-.2.8-26.7 1-26.7 1.7-.2.4 2.1-15.6 2.1-15.6m26.4-84.8s-10.4-14.6-8.5-14.6 2.8 2.8 6.4 4.6c0 0-5.8-18.2-4-17.8 1.8.4 6 12.1 6.3 12.1.3 0-3.6-13.1-2.2-13.3 1.5-.2 5.1 12 5.1 12s-2.5-11.6-.9-11.8c1.6-.3 3.9 10.4 3.9 10.4s-1.9-8.9-.5-9.2c.8-.1 8.7 22.1 8.7 22.1-.1 0-14.3 5.5-14.3 5.5"/><path d="M117 215.5s.1.2.2.6.2.8.1 1.5c0 .6-.3 1.5-1 2-.4.3-.9.5-1.4.3-.6-.1-.9-.5-1.3-.8-.4-.4-.6-.7-.9-.9-.3-.3-.6-.4-1.1-.5-.7-.1-1.5.2-1.9.6-.8.8-.7 1.8-.8 1.8 0 0-.1-.2-.1-.6s.2-.9.6-1.4c.5-.6 1.2-.9 2.1-.8.5 0 .9.2 1.3.6.4.3.6.6 1 1 .3.4.6.6 1 .7.4.1.7 0 1-.2.6-.4.9-1.1 1-1.7.2-1.4.1-2.2.2-2.2zm9.3-8s.1-.2.4-.5c.3-.3.6-.6 1.2-.9.6-.3 1.4-.6 2.3-.2.4.2.8.6 1 1 .2.5.1 1-.1 1.5-.1.5-.3.9-.4 1.3s0 .8.2 1.1c.3.7.9 1.1 1.5 1.3 1.2.3 1.9-.3 1.9-.2 0 0-.1.2-.5.4-.3.2-.8.4-1.5.2-.6-.1-1.4-.6-1.8-1.4-.2-.4-.3-.9-.3-1.4.1-.5.2-.9.4-1.4.1-.5.2-.8.1-1.2s-.4-.6-.7-.7c-.6-.4-1.4-.2-1.9.1-1.2.5-1.7 1.1-1.8 1zm-.6-20.2s.1-.2.4-.5c.3-.3.6-.6 1.2-.9.6-.3 1.4-.6 2.3-.2.4.2.8.6 1 1 .2.5.1 1-.1 1.5-.1.5-.3.9-.4 1.3-.1.4 0 .8.2 1.1.3.7.9 1.1 1.5 1.3 1.2.3 1.9-.3 1.9-.2 0 0-.1.2-.5.4-.3.2-.8.4-1.5.2-.6-.1-1.4-.6-1.8-1.4-.2-.4-.3-.9-.3-1.4.1-.5.2-.9.4-1.4.1-.5.2-.8.1-1.2s-.4-.6-.7-.7c-.6-.4-1.4-.2-1.9.1-1.2.6-1.8 1.1-1.8 1zm19.9 26.2s-.2-.1-.5-.3c-.3-.3-.6-.6-1-1.1-.4-.6-.6-1.4-.4-2.2.1-.5.5-.8.9-1.1.5-.2 1-.2 1.5-.1s.9.2 1.3.2.8-.1 1.1-.3c.6-.4 1-1 1.1-1.6.2-1.2-.5-1.9-.4-1.9 0 0 .2.1.4.4s.4.8.4 1.5c0 .6-.5 1.5-1.2 1.9-.4.2-.8.4-1.4.4-.5 0-.9-.1-1.4-.2-.5-.1-.8-.1-1.2 0-.4.2-.6.5-.7.8-.3.7-.1 1.4.2 1.9.8 1.2 1.3 1.7 1.3 1.7zm13.6 21.1s-.1.2-.4.4c-.3.2-.6.6-1.3.8-.6.3-1.5.4-2.3 0-.4-.2-.8-.6-.9-1.1-.2-.6 0-1 .2-1.5s.4-.8.5-1.3c.1-.4 0-.8-.1-1.1-.3-.7-.8-1.2-1.4-1.4-1.1-.4-1.9.2-1.9.1 0 0 .1-.2.5-.3.4-.2.8-.3 1.6-.1.6.2 1.4.6 1.7 1.6.2.4.2.9.2 1.4-.1.5-.3.9-.5 1.4s-.3.8-.2 1.2c.1.4.4.6.6.8.6.4 1.4.3 1.9.1 1.1-.6 1.8-1.1 1.8-1zm16-33.2s-.1.2-.4.4c-.3.2-.6.6-1.3.8-.6.3-1.5.4-2.3 0-.4-.2-.8-.6-.9-1.1-.2-.6 0-1 .2-1.5s.4-.8.5-1.3c.1-.4 0-.8-.1-1.1-.3-.7-.8-1.2-1.4-1.4-1.1-.4-1.9.2-1.9.1 0 0 .1-.2.5-.3.4-.2.8-.3 1.6-.1.6.2 1.4.6 1.7 1.6.2.4.2.9.2 1.4-.1.5-.3.9-.5 1.4s-.3.8-.2 1.2c.1.4.4.6.6.8.6.4 1.4.3 1.9.1 1.2-.6 1.7-1 1.8-1zm11-5.1s.2.1.5.3c.3.2.7.5 1.2.9.5.5.9 1.2.7 2.1-.1.5-.3.9-.7 1.2s-1 .4-1.5.4H185c-.4.1-.7.3-1 .5-.6.5-.8 1.2-.8 1.8.1 1.2.8 1.7.7 1.8 0 0-.2-.1-.5-.4-.3-.3-.6-.7-.6-1.4-.1-.6.2-1.5.8-2.1.4-.3.7-.6 1.3-.6.5-.1.9 0 1.4 0 .5 0 .9-.1 1.2-.3s.5-.6.6-.9c.1-.7-.2-1.4-.6-1.9-.7-.9-1.4-1.3-1.3-1.4zm-44.3 55.4s-.1.2-.4.4c-.3.2-.6.6-1.3.8-.6.3-1.5.4-2.3 0-.4-.2-.8-.6-.9-1.1-.2-.6 0-1 .2-1.5s.4-.8.5-1.3c.1-.4 0-.8-.1-1.1-.3-.7-.8-1.2-1.4-1.4-1.1-.4-1.9.2-1.9.1 0 0 .1-.2.5-.3.4-.2.8-.3 1.6-.1.6.2 1.4.6 1.7 1.6.2.4.2.9.2 1.4-.1.5-.3.9-.5 1.4-.2.5-.3.8-.2 1.2.1.4.4.6.6.8.6.4 1.4.3 1.9.1 1.2-.5 1.8-1.1 1.8-1zm23.8-31.9s-.2-.1-.4-.4-.6-.6-.8-1.2c-.3-.6-.5-1.5-.1-2.3.2-.4.6-.8 1-.9.5-.2 1-.1 1.5.1s.9.3 1.3.4c.4.1.8 0 1.1-.2.7-.3 1.1-.8 1.3-1.4.3-1.2-.3-1.9-.2-1.9 0 0 .2.1.4.5s.3.8.2 1.5c-.1.6-.6 1.4-1.5 1.8-.4.2-.9.3-1.4.2-.5-.1-.9-.3-1.4-.4-.5-.2-.8-.2-1.2-.1s-.6.4-.8.7c-.4.6-.3 1.4 0 1.9.5 1.1 1.1 1.6 1 1.7zM170 237s-.2-.1-.4-.4c-.2-.3-.6-.6-.8-1.2-.3-.6-.5-1.5-.1-2.3.2-.4.6-.8 1-.9.5-.2 1-.1 1.5.1s.9.3 1.3.4c.4.1.8 0 1.1-.2.7-.3 1.1-.8 1.3-1.4.3-1.2-.3-1.9-.2-1.9 0 0 .2.1.4.5s.3.8.2 1.5c-.1.6-.6 1.4-1.5 1.8-.4.2-.9.3-1.4.2-.5-.1-.9-.3-1.4-.4-.5-.2-.8-.2-1.2-.1-.4.1-.6.4-.8.7-.4.6-.3 1.4 0 1.9.5 1 1 1.6 1 1.7zm-34.4-7.4s-.1-.2-.1-.6 0-.8.2-1.5c.2-.6.6-1.4 1.5-1.8.4-.2.9-.3 1.5 0 .5.2.8.6 1 1.1.3.5.5.8.7 1.1.3.3.6.6.9.6.7.3 1.5.1 1.9-.2 1-.6 1.1-1.6 1.1-1.5 0 0 .1.2-.1.6-.1.4-.4.8-.9 1.2-.6.4-1.4.6-2.2.3-.5-.2-.8-.4-1.2-.7-.3-.4-.6-.8-.7-1.2-.2-.4-.5-.7-.8-.9s-.7-.2-1.1 0c-.7.3-1.1.9-1.3 1.5-.3 1.2-.3 2-.4 2zm31 21.2s-.1-.2-.1-.6c0-.4 0-.8.2-1.5.2-.6.6-1.4 1.5-1.8.4-.2.9-.3 1.5 0 .5.2.8.6 1 1.1.3.5.5.8.7 1.1s.6.6.9.6c.7.3 1.5.1 1.9-.2 1-.6 1.1-1.6 1.1-1.5 0 0 .1.2-.1.6-.1.4-.4.8-.9 1.2-.6.4-1.4.6-2.2.3-.5-.2-.8-.4-1.2-.7-.3-.4-.6-.8-.7-1.2-.2-.4-.5-.7-.8-.9-.4-.2-.7-.2-1.1 0-.7.3-1.1.9-1.3 1.5-.3 1.3-.3 2-.4 2zm-.9-64.1s-.1-.2-.1-.6c0-.4 0-.8.2-1.5s.6-1.4 1.5-1.8c.4-.2.9-.3 1.5 0 .5.2.8.6 1 1.1.3.5.5.8.7 1.1.3.3.6.6.9.6.7.3 1.5.1 1.9-.2 1-.6 1.1-1.6 1.1-1.5 0 0 .1.2-.1.6-.1.4-.4.8-.9 1.2-.6.4-1.4.6-2.2.3-.5-.2-.8-.4-1.2-.7-.3-.4-.6-.8-.7-1.2-.2-.4-.5-.7-.8-.9-.4-.2-.7-.2-1.1 0-.7.3-1.1.9-1.3 1.5-.3 1.2-.3 2-.4 2zm-10.1 72.6s-.2 0-.6-.2c-.3-.2-.8-.4-1.3-.7s-1-1.1-1-2c0-.5.2-.9.6-1.3.4-.4.9-.5 1.4-.6.5-.1.9-.1 1.3-.2s.7-.4 1-.6c.6-.6.6-1.3.6-1.9-.2-1.2-1-1.6-.9-1.7 0 0 .2 0 .5.3.3.2.6.6.7 1.3.2.6 0 1.6-.6 2.2-.3.4-.7.6-1.2.7-.5.2-.9.2-1.4.2-.5.1-.8.2-1.1.4-.3.3-.5.6-.5 1 0 .7.4 1.4.8 1.8.9 1 1.8 1.2 1.7 1.3zm-36.8-63s.2.1.4.4c.2.3.5.7.7 1.3.2.6.4 1.5-.2 2.3-.2.4-.6.7-1.1.8-.6.1-1-.1-1.5-.3s-.8-.4-1.2-.5c-.4-.1-.8-.1-1.1 0-.7.2-1.2.7-1.5 1.3-.4 1.1.1 1.9 0 1.9 0 0-.2-.1-.3-.5-.1-.4-.2-.9 0-1.6.2-.6.7-1.3 1.7-1.6.5-.2.9-.2 1.4-.1.5.1.9.4 1.3.6.5.2.8.3 1.2.2.4-.1.6-.3.8-.6.4-.6.4-1.4.2-1.9-.4-.9-.9-1.6-.8-1.7zm35.5-6.3s.2.1.4.4c.2.3.5.7.7 1.3.2.6.4 1.5-.2 2.3-.2.4-.6.7-1.1.8-.6.1-1-.1-1.5-.3-.5-.2-.8-.4-1.2-.5-.4-.1-.8-.1-1.1 0-.7.2-1.2.7-1.5 1.3-.4 1.1.1 1.9 0 1.9 0 0-.2-.1-.3-.5-.1-.4-.2-.9 0-1.6.2-.6.7-1.3 1.7-1.6.5-.2.9-.2 1.4-.1.5.1.9.4 1.3.6.5.2.8.3 1.2.2.4-.1.6-.3.8-.6.4-.6.4-1.4.2-1.9-.5-1-.9-1.7-.8-1.7z" style="fill:#fbf1fc"/><path class="st8" d="M132.4 227.3v-.6c0-.4.1-.9.1-1.6.2-1.5.4-3.4.6-5.8.6-5 1.2-11.8 2-19.3.2-1.9.3-3.7 0-5.5-.3-1.8-.9-3.3-1.9-4.6-2-2.6-4.8-3.9-7.1-4.4-2.4-.6-4.5-.5-5.8-.4-.6 0-1.2.1-1.6.1s-.6.1-.6 0c0 0 .2-.1.6-.1.4-.1.9-.2 1.6-.2 1.4-.1 3.4-.3 5.9.3 2.4.5 5.4 1.8 7.4 4.5 1 1.3 1.8 3 2 4.8.3 1.8.2 3.7 0 5.6-.8 7.5-1.6 14.4-2.2 19.3-.3 2.4-.6 4.4-.7 5.8-.1.6-.2 1.2-.2 1.6 0 .3 0 .5-.1.5z"/><path class="st8" d="M133.9 225.6c0 .1-7.2 1-16.1 1.9s-16.1 1.6-16.1 1.5 7.2-1 16.1-1.9c8.7-1 16.1-1.6 16.1-1.5zm43.8-3.6c-.1 0 .3-1.6.6-4.1.1-1.3.1-2.8 0-4.5-.1-1.7-.4-3.5-.8-5.4s-1.1-3.6-1.9-5.2c-.7-1.6-1.5-2.9-2.1-3.9-1.4-2.1-2.5-3.3-2.4-3.3 0 0 .3.3.8.7.3.3.6.6.8 1 .3.4.7.8 1 1.4.7 1 1.6 2.4 2.3 3.9.7 1.6 1.4 3.3 1.9 5.3.5 1.9.7 3.8.8 5.5.1 1.7 0 3.2-.1 4.5l-.3 1.8c-.1.5-.2.9-.3 1.3-.2.7-.3 1-.3 1z"/><path class="st6" d="M261.5 222.3c-.3-3 .2-5.7 2.9-7.3 2.8-1.7 5.2-.6 7.8.7 2.2 1.1 4.5 1.6 6.9.6 4.1-1.8 5.5-7.1 2.6-10.5-.6-.6-1.7 0-1.4.8.8 2.2 1.4 5-.6 7-2.7 2.6-5.7.8-8.3-.4-2.2-1-4.5-1.3-6.8-.4-3.9 1.6-5.8 6-3.9 9.8.2.3.8.1.8-.3zm12.2-82.9c.8 2.1 2.1 4 3.4 5.8.7 1 1.8 2.9 3.2 3.2 1.4.3 2.4-.7 3.4-1.5 2.4-1.7 4.7-3.3 7.1-5.1.4-.3.6-.7.3-1.2-2.1-3.2-4.2-6.5-6.3-9.7-.3-.4-.8-.6-1.2-.3-2.6 1.9-5.2 3.5-7.7 5.5-.7.6.2 1.9 1 1.3 2.6-1.7 5.1-3.5 7.6-5.3l-1.2-.3c2.1 3.2 4.2 6.5 6.3 9.7l.3-1.2c-1.4 1-2.9 2-4.3 3.1-1 .7-3.1 2.9-4.3 3.1-2.5.5-5.6-5.8-7.1-7.4-.1-.3-.5 0-.5.3z"/><path class="st5" d="M243.8 170.1c-3 3-3.9 7.7-1 11.1 2.7 3.2 8 3.9 11.3 1.2 3.2-2.5 4.1-7.1 2-10.7-2.2-3.9-7.2-5.5-11.4-4.7-.7.2-.6 1.4.2 1.4 3.1-.1 6.4.3 8.7 2.5 2.7 2.5 2.9 6.6.6 9.4-2.4 3-7 3.2-9.9.6-2.9-2.7-2.7-7.5 0-10.3.3-.3-.1-.9-.5-.5z"/><path class="st6" d="M320.3 199.3c-.9 5.9-1.9 12-2.7 17.9-.1.6.4 1 .9.9 5.6-.8 11.2-1.7 16.8-2.7.5-.1.6-.6.5-1.1-3.2-5.8-7.2-12-12.7-15.8-.7-.6-1.6.6-.9 1.3 4.5 4.9 9.2 9.3 12.4 15.3.2-.4.5-.7.6-1.1-5.7.7-11.3 1.7-17 2.6.4.3.6.5 1 .7.7-6 1.5-12 2.1-18 0-.4-.9-.5-1 0z"/><path class="st5" d="M293.3 188c.9-5.9 1.8-11.9 2.3-17.8.1-.8-1.3-1-1.5-.2-.8 5.9-1.4 12-1.8 17.9 0 .6.9.7 1 .1z"/><path class="st6" d="M358.1 186.7c5.9.5 11.9.8 17.8.8.9 0 .9-1.4 0-1.5-5.9-.4-11.9-.5-17.8-.4-.7.1-.7 1 0 1.1z"/><path class="st5" d="M309.9 111.5c5.4 2.5 10.9 4.9 16.5 7 .7.3 1.3-1 .6-1.4-5.5-2.4-11.1-4.5-16.7-6.6-.6-.1-.9.7-.4 1z"/><path class="st6" d="M325.3 161.8c-.2-.4-.5-.6-.8-.8-1.2-.8-2.9.8-2 2 .3.4.5.6.8.8 1.3.8 2.8-.7 2-2z"/><g class="st0"><path class="st1" d="M196.8 53c-6.1 1.9-11.1 6.9-13.4 12.9s-1.6 13 1.7 18.6c6.2 10.7 22.1 14.1 32.1 7s12-23.3 3.9-32.6-24.3-9.7-32.8-.8"/></g></svg>