<svg version="1.1" id="Layer_1" xmlns="http://www.w3.org/2000/svg" x="0" y="0" viewBox="0 0 500 416" style="enable-background:new 0 0 500 416" xml:space="preserve"><style>.st0{fill:#fff}.st1{fill:#eaebee}.st2{fill:#bbc3cb}.st3{fill:#f0f0f2}.st4{fill:#72839c}.st5{fill:#ededef}.st6{fill:#bdc8d5}</style><path class="st0" d="M460 340.7H40c-1.5 0-2.8-1.2-2.8-2.8V78.1c0-1.5 1.2-2.8 2.8-2.8h420c1.5 0 2.8 1.2 2.8 2.8v259.8c0 1.5-1.2 2.8-2.8 2.8z"/><path class="st1" d="M460 341.4H40c-2 0-3.6-1.6-3.6-3.6V78.1c0-2 1.6-3.6 3.6-3.6h420c2 0 3.6 1.6 3.6 3.6v259.8c0 1.9-1.6 3.5-3.6 3.5zM40 76.1c-1.1 0-2 .9-2 2v259.8c0 1.1.9 2 2 2h420c1.1 0 2-.9 2-2V78.1c0-1.1-.9-2-2-2H40z"/><path class="st0" d="M182.9 80.8h80.5c1 0 1.9.6 2.3 1.5l5.5 11.5h-96.6l5.4-11.3c.6-1.1 1.7-1.7 2.9-1.7z"/><path class="st1" d="M271.9 94.2h-97.8l5.7-11.9c.6-1.2 1.8-2 3.1-2h80.5c1.1 0 2.2.7 2.7 1.7l5.8 12.2zm-96.6-.8h95.4l-5.3-11c-.4-.8-1.1-1.3-2-1.3h-80.5c-1 0-2 .6-2.4 1.5l-5.2 10.8z"/><circle class="st2" cx="261.3" cy="87.3" r="2.3"/><path class="st0" d="M81.9 80.8h88.3c1 0 1.9.6 2.3 1.5l5.5 11.5H73.8l5.4-11.3c.5-1.1 1.6-1.7 2.7-1.7z"/><path class="st2" d="M178.8 94.2H73.1l5.7-11.9c.6-1.2 1.8-2 3.1-2h88.3c1.1 0 2.2.7 2.7 1.7l5.9 12.2zm-104.4-.8h103.2l-5.3-11c-.4-.8-1.1-1.3-2-1.3H81.9c-1 0-2 .6-2.4 1.5l-5.1 10.8z"/><path class="st1" d="M463.2 112.3H36.8V93.4h426.4v18.9zm-425.6-.8h424.8V94.2H37.6v17.3z"/><circle class="st2" cx="44.6" cy="83.1" r="2.3"/><circle class="st2" cx="54" cy="83.1" r="2.3"/><circle class="st2" cx="63.4" cy="83.1" r="2.3"/><circle class="st2" cx="44.6" cy="102.8" r="2.3"/><circle class="st2" cx="56.4" cy="102.8" r="2.3"/><path class="st2" d="M71.4 105.6c-1.5 0-2.7-1.2-2.7-2.7s1.2-2.7 2.7-2.7 2.7 1.2 2.7 2.7-1.2 2.7-2.7 2.7zm0-4.7c-1.1 0-2 .9-2 2s.9 2 2 2 2-.9 2-2-.9-2-2-2zm369.2 7.2H82c-.8 0-1.5-.7-1.5-1.5v-7.4c0-.8.7-1.5 1.5-1.5h358.5c.9 0 1.5.7 1.5 1.5v7.4c.1.8-.6 1.5-1.4 1.5zM82 98.4c-.4 0-.8.3-.8.8v7.4c0 .4.3.8.8.8h358.5c.4 0 .8-.3.8-.8v-7.4c0-.4-.3-.8-.8-.8H82zm366.8 1.2h6.3v1.6h-6.3zm0 3h5.6v1.6h-5.6zm0 3.1h4.5v1.6h-4.5z"/><path class="st3" d="M125.6 290.5h26.9v26.9h-26.9z"/><path class="st4" d="M141.5 304.5c-.2-.2-.4-.2-.6 0l-1 1-1.8-1.8c-.2-.2-.4-.2-.6 0l-2.9 2.9c-.2.2-.2.4 0 .6.1.1.2.1.3.1h8.4c.2 0 .4-.2.4-.4 0-.1 0-.2-.1-.3l-2.1-2.1z"/><circle class="st4" cx="140.3" cy="301.8" r="1.3"/><path class="st3" d="M157.7 290.5h26.9v26.9h-26.9z"/><path class="st4" d="M173.5 304.5c-.2-.2-.4-.2-.6 0l-1 1-1.8-1.8c-.2-.2-.4-.2-.6 0l-2.9 2.9c-.2.2-.2.4 0 .6.1.1.2.1.3.1h8.4c.2 0 .4-.2.4-.4 0-.1 0-.2-.1-.3l-2.1-2.1z"/><circle class="st4" cx="172.4" cy="301.8" r="1.3"/><path class="st3" d="M189.7 290.5h26.9v26.9h-26.9z"/><path class="st4" d="M205.6 304.5c-.2-.2-.4-.2-.6 0l-1 1-1.8-1.8c-.2-.2-.4-.2-.6 0l-2.9 2.9c-.2.2-.2.4 0 .6.1.1.2.1.3.1h8.4c.2 0 .4-.2.4-.4 0-.1 0-.2-.1-.3l-2.1-2.1z"/><circle class="st4" cx="204.4" cy="301.8" r="1.3"/><path class="st3" d="M221.8 290.5h26.9v26.9h-26.9z"/><path class="st4" d="M237.6 304.5c-.2-.2-.4-.2-.6 0l-1 1-1.8-1.8c-.2-.2-.4-.2-.6 0l-2.9 2.9c-.2.2-.2.4 0 .6.1.1.2.1.3.1h8.4c.2 0 .4-.2.4-.4 0-.1 0-.2-.1-.3l-2.1-2.1z"/><circle class="st4" cx="236.5" cy="301.8" r="1.3"/><path class="st3" d="M125.1 160.7h123.5v123.5H125.1z"/><path class="st4" d="M197.9 224.9c-.8-.8-2-.8-2.7 0l-4.5 4.5-8.3-8.3c-.8-.8-2-.8-2.7 0l-13.5 13.5c-.7.8-.7 2 0 2.7.4.3.8.5 1.3.6h38.7c1.1 0 1.9-.9 1.9-1.9 0-.5-.2-1-.6-1.4l-9.6-9.7z"/><circle class="st4" cx="192.7" cy="212.7" r="5.8"/><path class="st5" d="M279.8 176.1h89.5v3.7h-89.5z"/><path class="st4" d="M279.8 163.7h68.4v6.1h-68.4z"/><path class="st5" d="M279.8 183.9h81.7v3.7h-81.7zm0 7.7h87.3v3.7h-87.3zm0 7.7h95.1v3.7h-95.1zm0 7.7h82.7v3.7h-82.7zm0 7.7h90v3.7h-90zm0 7.8h84.9v3.7h-84.9zm0 7.7h53.4v3.7h-53.4z"/><path class="st6" d="M344.3 274.2h-60.1c-2.4 0-4.3-1.9-4.3-4.3v-8.2c0-2.4 1.9-4.3 4.3-4.3h60.1c2.4 0 4.3 1.9 4.3 4.3v8.2c0 2.3-1.9 4.3-4.3 4.3z"/><path class="st1" d="M38 136.6h424.4v1H38z"/><path class="st6" d="M445.6 133.4H314.2c-1.9 0-3.4-1.5-3.4-3.4v-11.4c0-1.9 1.5-3.4 3.4-3.4h131.4c1.9 0 3.4 1.5 3.4 3.4V130c-.1 1.9-1.6 3.4-3.4 3.4zm-131.4-17.1c-1.3 0-2.4 1.1-2.4 2.4v11.4c0 1.3 1.1 2.4 2.4 2.4h131.4c1.3 0 2.4-1.1 2.4-2.4v-11.4c0-1.3-1.1-2.4-2.4-2.4H314.2z"/><circle class="st6" cx="58.2" cy="124" r="8.4" style="opacity:.8"/></svg>